<?xml version="1.0" encoding="UTF-8" standalone="no"?>
<svg
   xmlns:dc="http://purl.org/dc/elements/1.1/"
   xmlns:cc="http://creativecommons.org/ns#"
   xmlns:rdf="http://www.w3.org/1999/02/22-rdf-syntax-ns#"
   xmlns:svg="http://www.w3.org/2000/svg"
   xmlns="http://www.w3.org/2000/svg"
   viewBox="0 0 1500 600"
   height="640"
   width="1600"
   version="1.1"
   id="svg2">
  <metadata
     id="metadata8">
    <rdf:RDF>
      <cc:Work
         rdf:about="">
        <dc:format>image/svg+xml</dc:format>
        <dc:type
           rdf:resource="http://purl.org/dc/dcmitype/StillImage" />
        <dc:title></dc:title>
      </cc:Work>
    </rdf:RDF>
  </metadata>
  <defs
     id="defs6" />
  <path
     id="rect3354"
     d="M -4.5456862,-3.5048697 H 1521.2898 V 611.67805 H -4.5456862 Z"
     style="fill:#d7f4e3;fill-opacity:1" />
  <g
     id="flowRoot3338"
     style="font-style:normal;font-weight:normal;line-height:0.01%;font-family:sans-serif;letter-spacing:0px;word-spacing:0px;fill:#483737;fill-opacity:1;stroke:none;stroke-width:1px;stroke-linecap:butt;stroke-linejoin:miter;stroke-opacity:1"
     transform="matrix(5.3222994,0,0,5.3222994,-42.865112,-322.60074)"
     aria-label="MINT CHIP">
    <path
       id="path12305"
       style="font-style:normal;font-variant:normal;font-weight:500;font-stretch:normal;font-size:30.91540909px;line-height:1.25;font-family:'Besley*';-inkscape-font-specification:'Besley* Medium';letter-spacing:3.75777435px;fill:#483737"
       d="m 27.242165,72.853852 c 0.958378,0 0.772886,0.185493 0.74197,1.051124 l -0.74197,16.446998 c -0.03092,0.618308 0.154577,1.051124 -0.556477,1.051124 h -2.535064 c -0.525562,0 -0.494646,0.03091 -0.494646,0.556477 v 1.112955 c 0,0.865631 0.370985,0.649223 1.174785,0.649223 h 7.852514 c 0.865632,0 0.711055,-0.216407 0.711055,-1.020208 v -0.494647 c 0,-0.865631 -0.06183,-0.8038 -0.896547,-0.8038 H 30.64286 c -1.082039,0 -0.834716,-0.34007 -0.8038,-1.298447 l 0.525562,-13.355457 c 0.03092,-0.649224 0.09275,-1.329363 0.03092,-1.978586 -0.09275,-1.020209 -0.03092,-1.669432 0.370985,-0.185493 0.185492,0.680139 0.370985,1.329363 0.587393,1.978586 l 5.410196,15.890521 c 0.34007,1.051124 0.185493,1.576685 1.669432,1.576685 h 0.803801 c 0.865632,0 0.772885,-0.340069 0.958378,-0.958377 l 4.822804,-15.643197 c 0.247323,-0.772885 0.432815,-1.545771 0.556477,-2.411402 0.216408,-1.514855 0.556477,-0.772885 0.494646,-0.06183 -0.06183,0.896547 -0.123661,1.793094 -0.09275,2.720556 l 0.432816,12.05701 c 0.03092,1.14387 0.370985,1.669432 -0.927462,1.669432 h -1.793094 c -0.834716,0 -0.865631,-0.03092 -0.865631,0.8038 v 0.989293 c 0,0.680139 0.247323,0.525562 0.865631,0.525562 h 9.707438 c 0.74197,0 0.711055,-0.03092 0.711055,-0.772885 V 92.33056 c 0,-0.587393 0.185492,-0.927462 -0.463731,-0.927462 h -1.793094 c -1.020209,0 -1.236616,0.154577 -1.267532,-0.865632 L 49.90316,73.719484 c -0.03092,-0.896547 -0.03092,-0.865632 0.896547,-0.865632 h 1.298447 c 1.112955,0 1.08204,-0.03092 1.08204,-1.112954 0,-1.020209 0.154577,-1.205701 -0.896547,-1.205701 h -6.615898 c -1.54577,0 -1.391193,0.4019 -1.731263,1.514855 l -4.142665,13.633695 c -0.09275,0.34007 -0.185492,0.711054 -0.247323,1.051124 -0.370985,1.669432 -0.4019,1.947671 -0.865631,0 -0.06183,-0.278239 -0.154577,-0.556477 -0.247324,-0.803801 L 33.734401,71.679067 c -0.370985,-1.112955 -0.432815,-1.14387 -1.916755,-1.14387 h -6.05942 c -0.896547,0 -1.174786,-0.185493 -1.174786,0.772885 v 0.74197 c 0,0.711054 -0.06183,0.8038 0.680139,0.8038 z" />
    <path
       id="path12307"
       style="font-style:normal;font-variant:normal;font-weight:500;font-stretch:normal;font-size:30.91540909px;line-height:1.25;font-family:'Besley*';-inkscape-font-specification:'Besley* Medium';letter-spacing:3.75777435px;fill:#483737"
       d="m 67.446792,73.719484 c 0,-0.896547 0.03092,-0.865632 0.927463,-0.865632 h 1.793093 c 1.051124,0 0.989293,-0.09275 0.989293,-1.112954 v -0.618309 c 0,-0.618308 -0.185492,-0.587392 -0.865631,-0.587392 h -9.0273 c -1.2057,0 -1.391193,-0.154577 -1.391193,1.082039 0,0.865631 -0.216408,1.236616 0.711054,1.236616 h 1.731263 c 0.834716,0 0.958378,-0.09275 0.958378,0.74197 V 90.78479 c 0,0.680139 -0.06183,0.618308 -0.711054,0.618308 h -2.040417 c -0.711055,0 -0.649224,0.06183 -0.649224,0.74197 v 0.989293 c 0,0.680139 0.123662,0.587392 0.772885,0.587392 h 9.645608 c 0.680139,0 0.865631,0.123662 0.865631,-0.587392 v -1.112955 c 0,-0.649224 -0.03091,-0.618308 -0.680139,-0.618308 h -3.02971 z" />
    <path
       id="path12309"
       style="font-style:normal;font-variant:normal;font-weight:500;font-stretch:normal;font-size:30.91540909px;line-height:1.25;font-family:'Besley*';-inkscape-font-specification:'Besley* Medium';letter-spacing:3.75777435px;fill:#483737"
       d="m 79.59955,72.853852 c 0.803801,0 0.74197,0.09275 0.74197,0.865632 v 16.63249 c 0,1.051124 0,1.051124 -1.051124,1.051124 h -1.298447 c -0.649224,0 -0.896547,-0.154577 -0.896547,0.556477 v 0.927462 c 0,0.834716 0,0.834716 0.834716,0.834716 h 7.296037 c 0.927462,0 1.298447,0.216408 1.298447,-0.772885 v -0.865631 c 0,-0.834716 -0.216408,-0.680139 -0.989293,-0.680139 h -1.545771 c -1.267531,0 -1.020208,-0.370985 -1.020208,-1.545771 V 76.965602 c 0,-1.978587 -0.370985,-3.555272 0.680139,-1.607602 0.4019,0.711055 0.803801,1.360278 1.267532,1.978587 l 11.531447,15.48862 c 0.463731,0.618308 0.556478,1.2057 1.700348,1.2057 h 0.927462 c 0.711054,0 0.587393,-0.896546 0.587393,-1.700347 V 74.275961 c 0,-0.958378 -0.278239,-1.422109 0.772889,-1.422109 h 1.79309 c 0.92746,0 0.68014,-0.494646 0.68014,-1.360278 0,-1.082039 -0.15458,-0.958377 -1.17479,-0.958377 h -6.554063 c -0.803801,0 -1.545771,-0.309155 -1.545771,0.587392 v 0.927463 c 0,0.927462 0.154577,0.8038 1.051124,0.8038 h 1.916755 c 0.680139,0 0.432816,0.711055 0.432816,1.298447 v 10.727647 c 0,2.751472 0,2.504149 -0.989293,0.74197 -0.34007,-0.649223 -0.772885,-1.174785 -1.174786,-1.731263 L 85.411647,71.122589 c -0.4019,-0.556477 -0.618308,-0.587392 -1.607601,-0.587392 h -5.812097 c -0.74197,0 -0.896547,-0.123662 -0.896547,0.649223 v 0.865632 c 0,0.989293 0.278239,0.8038 1.205701,0.8038 z" />
    <path
       id="path12311"
       style="font-style:normal;font-variant:normal;font-weight:500;font-stretch:normal;font-size:30.91540909px;line-height:1.25;font-family:'Besley*';-inkscape-font-specification:'Besley* Medium';letter-spacing:3.75777435px;fill:#483737"
       d="m 123.32371,93.721753 c 0.86563,0 1.11295,0.185493 1.11295,-0.741969 v -0.865632 c 0,-0.834716 -0.15458,-0.711054 -0.92746,-0.711054 h -1.66943 c -1.45303,0 -1.42211,-0.03092 -1.42211,-1.453025 v -15.89052 c 0,-1.298447 -0.0618,-1.360278 1.23661,-1.360278 3.8026,0 5.0083,0.927462 5.22471,4.389988 0.0309,0.649224 -0.15458,1.329363 0.68014,1.329363 h 0.83471 c 0.9893,0 0.68014,-0.74197 0.68014,-1.638517 v -5.31745 c 0,-1.267532 -0.64922,-0.927462 -1.79309,-0.927462 h -18.11643 c -0.68014,0 -1.57669,-0.123662 -1.57669,0.649223 v 5.843012 c 0,0.649224 -0.24732,1.391194 0.46373,1.391194 h 0.86563 c 1.08204,0 0.80381,-0.4019 0.86564,-1.329363 0.2164,-3.462526 1.42211,-4.389988 5.2247,-4.389988 h 0.4019 c 0.92746,0 0.83472,0.247323 0.83472,1.14387 v 16.045098 c 0,0.958377 0.27824,1.514855 -0.77289,1.514855 h -1.85492 c -0.89655,0 -1.3912,-0.278239 -1.3912,0.711054 v 0.74197 c 0,0.896547 0.0309,0.865631 0.89655,0.865631 z" />
    <path
       id="path12313"
       style="font-style:normal;font-variant:normal;font-weight:500;font-stretch:normal;font-size:30.91540909px;line-height:1.25;font-family:'Besley*';-inkscape-font-specification:'Besley* Medium';letter-spacing:3.75777435px;fill:#483737"
       d="m 170.05207,85.560085 c 0.0928,-0.587392 0.18549,-0.958377 -0.52556,-0.958377 h -0.9893 c -0.95837,0 -0.74197,0.432815 -0.89654,1.205701 -0.68014,3.215202 -3.02971,5.781181 -7.54336,5.781181 -4.76098,0 -7.4197,-4.142665 -7.4197,-9.460115 0,-5.31745 3.27703,-9.491031 7.72885,-9.491031 3.18429,0 5.53386,1.793094 6.6159,4.204496 0.34007,0.74197 0.12366,1.576686 1.23662,1.576686 h 0.92746 c 0.74197,0 0.64922,-0.154577 0.64922,-0.865632 v -6.399489 c 0,-1.020209 -0.4019,-0.772885 -1.32936,-0.772885 -0.8038,0 -0.77289,0.185492 -0.98929,0.711054 l -0.49465,1.14387 c -0.4019,0.927462 -0.52556,0.309154 -1.14387,-0.185492 -1.36028,-1.112955 -3.18429,-1.82401 -5.62661,-1.82401 -7.51244,0 -12.36616,5.008297 -12.36616,11.902433 0,6.894136 4.38999,11.902432 11.90243,11.902432 5.90485,0 9.58378,-3.586187 10.26392,-8.470822 z" />
    <path
       id="path12315"
       style="font-style:normal;font-variant:normal;font-weight:500;font-stretch:normal;font-size:30.91540909px;line-height:1.25;font-family:'Besley*';-inkscape-font-specification:'Besley* Medium';letter-spacing:3.75777435px;fill:#483737"
       d="m 183.32938,73.781315 c 0,-0.927463 0,-0.927463 0.92746,-0.927463 h 1.85493 c 0.95837,0 0.92746,-0.03092 0.92746,-0.989293 0,-1.205701 0.12366,-1.329362 -1.11296,-1.329362 h -8.90363 c -0.8038,0 -1.26754,-0.247324 -1.26754,0.649223 0,0.989293 -0.30915,1.669432 0.77289,1.669432 h 1.23662 c 1.0202,0 1.39119,-0.216408 1.39119,0.865632 v 16.817982 c 0,1.051124 -0.24732,0.865632 -1.2057,0.865632 h -1.6076 c -0.71106,0 -0.5874,0.154577 -0.5874,0.8038 v 0.803801 c 0,0.772885 0.0927,0.711054 0.83472,0.711054 h 9.58378 c 1.05112,0 0.86563,-0.247323 0.86563,-1.205701 v -0.556477 c 0,-0.74197 -0.37099,-0.556477 -1.05113,-0.556477 h -1.23661 c -1.08204,0 -1.42211,0.216408 -1.42211,-0.927463 V 83.9834 c 0,-1.298448 0.30915,-1.08204 1.54577,-1.08204 h 8.90364 c 0.64922,0 0.68014,0 0.68014,0.649224 v 6.677728 c 0,0.865632 0.18549,1.174786 -0.74197,1.174786 h -1.91676 c -0.95838,0 -1.05112,-0.06183 -1.05112,0.927462 v 0.618308 c 0,0.680139 -0.0927,0.772885 0.61831,0.772885 h 10.01659 c 0.71105,0 0.64922,-0.09275 0.64922,-0.772885 v -0.989293 c 0,-0.680139 -0.18549,-0.556477 -0.83471,-0.556477 h -1.66944 c -0.86563,0 -0.89654,0 -0.89654,-0.865632 V 73.966807 c 0,-1.174786 0.0618,-1.112955 1.2057,-1.112955 h 1.17478 c 1.08204,0 1.02021,-0.06183 1.02021,-1.112954 0,-1.08204 0.0927,-1.205701 -1.02021,-1.205701 h -9.58377 c -0.71106,0 -0.68014,0.03092 -0.68014,0.711054 v 0.803801 c 0,0.649223 -0.12366,0.8038 0.55648,0.8038 h 2.16407 c 0.68014,0 0.9893,-0.185492 0.9893,0.556478 v 5.935758 c 0,1.298447 -0.0618,1.236617 -1.36028,1.236617 h -9.08913 c -0.74197,0 -0.68014,-0.09275 -0.68014,-0.803801 z" />
    <path
       id="path12317"
       style="font-style:normal;font-variant:normal;font-weight:500;font-stretch:normal;font-size:30.91540909px;line-height:1.25;font-family:'Besley*';-inkscape-font-specification:'Besley* Medium';letter-spacing:3.75777435px;fill:#483737"
       d="m 215.5269,73.719484 c 0,-0.896547 0.0309,-0.865632 0.92747,-0.865632 h 1.79309 c 1.05112,0 0.98929,-0.09275 0.98929,-1.112954 v -0.618309 c 0,-0.618308 -0.18549,-0.587392 -0.86563,-0.587392 h -9.0273 c -1.2057,0 -1.39119,-0.154577 -1.39119,1.082039 0,0.865631 -0.21641,1.236616 0.71105,1.236616 h 1.73127 c 0.83471,0 0.95837,-0.09275 0.95837,0.74197 V 90.78479 c 0,0.680139 -0.0618,0.618308 -0.71105,0.618308 h -2.04042 c -0.71105,0 -0.64922,0.06183 -0.64922,0.74197 v 0.989293 c 0,0.680139 0.12366,0.587392 0.77288,0.587392 h 9.64561 c 0.68014,0 0.86563,0.123662 0.86563,-0.587392 v -1.112955 c 0,-0.649224 -0.0309,-0.618308 -0.68014,-0.618308 h -3.02971 z" />
    <path
       id="path12319"
       style="font-style:normal;font-variant:normal;font-weight:500;font-stretch:normal;font-size:30.91540909px;line-height:1.25;font-family:'Besley*';-inkscape-font-specification:'Besley* Medium';letter-spacing:3.75777435px;fill:#483737"
       d="m 227.49417,72.853852 c 1.14387,0 1.08204,0.09275 1.08204,1.205701 v 15.952351 c 0,0.772886 0.27824,1.391194 -0.58739,1.391194 h -1.91676 c -0.8038,0 -0.89655,-0.06183 -0.89655,0.772885 v 0.618308 c 0,0.989293 0.0618,0.927462 1.02021,0.927462 h 9.64561 c 0.89655,0 0.92746,0.03092 0.92746,-0.865631 v -0.989293 c 0,-0.74197 -0.77288,-0.463731 -1.42211,-0.463731 h -1.6076 c -1.08204,0 -0.98929,-0.09275 -0.98929,-1.14387 v -5.812097 c 0,-0.896547 0.61831,-0.618309 1.42211,-0.618309 h 2.59689 c 5.90485,0 8.65632,-2.936963 8.65632,-6.955967 0,-4.019003 -2.75147,-6.337658 -8.65632,-6.337658 h -10.14025 c -0.68014,0 -1.45303,-0.278239 -1.45303,0.494646 v 1.112955 c 0,0.711054 0,0.711054 0.71106,0.711054 z m 6.67773,8.656315 c -1.32936,0 -1.42211,0.09275 -1.42211,-1.267532 v -6.244913 c 0,-1.051124 -0.0927,-1.14387 0.98929,-1.14387 h 3.02971 c 2.65873,0 4.01901,1.267532 4.01901,4.019003 0,2.751472 -1.36028,4.637312 -4.01901,4.637312 z" />
  </g>
  <g
     id="flowRoot4537"
     style="font-style:normal;font-variant:normal;font-weight:500;font-stretch:normal;line-height:0.01%;font-family:'Jones*';-inkscape-font-specification:'Jones* Medium';letter-spacing:0px;word-spacing:0px;fill:#483737;fill-opacity:1;stroke:none;stroke-width:1px;stroke-linecap:butt;stroke-linejoin:miter;stroke-opacity:1"
     transform="matrix(3.7101908,0,0,3.7101908,-1445.7521,-629.30311)"
     aria-label="mind-blowingly delicious ice cream">
    <path
       id="path12322"
       style="font-style:italic;font-variant:normal;font-weight:normal;font-stretch:normal;font-size:20px;line-height:1.25;font-family:'Besley*';-inkscape-font-specification:'Besley* Italic';letter-spacing:0px;word-spacing:0px;fill:#483737"
       d="m 427.41078,239.67523 c -0.24,0 -0.22,0.24 -0.38,0.56 -0.5,1.04 -1.28,1.84 -1.84,1.84 -0.26,0 -0.36,-0.16 -0.36,-0.38 0,-0.1 0.02,-0.32 0.08,-0.5 l 1.1,-4.12 c 0.24,-0.82 0.56,-1.9 0.56,-2.84 0,-1.22 -0.62,-1.7 -2.14,-1.7 -1.22,0 -2.26,0.94 -3.14,2.36 -0.24,0.4 -0.34,0.66 -0.38,0.66 0,0 -0.02,-0.02 -0.02,-0.06 0,-0.1 0.02,-0.34 0.04,-0.72 0,-0.1 0.02,-0.2 0.02,-0.3 0,-1.34 -0.66,-1.94 -2.08,-1.94 -1.18,0 -2.32,0.96 -3.26,2.36 -0.3,0.46 -0.46,0.74 -0.5,0.74 v -0.04 c 0,-0.08 0.06,-0.36 0.18,-0.88 l 0.32,-1.38 c 0.04,-0.2 0.08,-0.32 0.08,-0.42 0,-0.2 -0.16,-0.2 -0.68,-0.2 h -2.58 c -0.32,0 -0.38,0.04 -0.38,0.5 v 0.3 c 0,0.26 0.04,0.3 0.44,0.3 h 0.48 c 0.52,0 0.66,0.02 0.66,0.2 0,0.1 -0.04,0.24 -0.08,0.46 l -1.76,7.62 c -0.08,0.34 -0.18,0.58 -0.18,0.74 0,0.2 0.16,0.28 0.7,0.28 h 0.54 c 0.72,0 0.62,-0.48 0.74,-1.02 l 0.32,-1.38 c 0.16,-0.72 0.32,-1.36 0.56,-2.04 0.92,-2.54 2.6,-5.12 4.14,-5.12 0.58,0 0.76,0.34 0.76,0.88 0,0.78 -0.32,2.02 -0.52,2.8 l -1.26,5.04 c -0.06,0.26 -0.16,0.46 -0.16,0.6 0,0.16 0.1,0.24 0.5,0.24 h 0.68 c 0.64,0 0.6,-0.1 0.72,-0.6 l 0.4,-1.68 c 0.12,-0.48 0.26,-0.96 0.38,-1.44 0.8,-2.74 2.46,-5.84 4.14,-5.84 0.54,0 0.74,0.22 0.74,0.62 0,0.38 -0.18,0.94 -0.36,1.58 -0.12,0.44 -0.24,0.92 -0.36,1.36 l -1.12,4.16 c -0.04,0.16 -0.08,0.48 -0.08,0.58 0,1 0.48,1.46 1.42,1.46 1.18,0 2.34,-1.02 3.14,-2.52 0.14,-0.28 0.34,-0.56 0.34,-0.76 0,-0.18 -0.28,-0.36 -0.56,-0.36 z" />
    <path
       id="path12324"
       style="font-style:italic;font-variant:normal;font-weight:normal;font-stretch:normal;font-size:20px;line-height:1.25;font-family:'Besley*';-inkscape-font-specification:'Besley* Italic';letter-spacing:0px;word-spacing:0px;fill:#483737"
       d="m 433.22672,240.41523 c 0.1,-0.2 0.18,-0.34 0.18,-0.44 0,-0.1 -0.08,-0.18 -0.34,-0.26 -0.12,-0.04 -0.2,-0.06 -0.26,-0.06 -0.18,0 -0.18,0.18 -0.32,0.48 -0.5,1.08 -1.3,1.94 -1.88,1.94 -0.26,0 -0.36,-0.16 -0.36,-0.38 0,-0.1 0.02,-0.24 0.04,-0.36 l 1.9,-7.96 c 0.06,-0.22 0.12,-0.38 0.12,-0.48 0,-0.14 -0.12,-0.18 -0.52,-0.18 h -2.9 c -0.26,0 -0.34,0.04 -0.34,0.46 v 0.24 c 0,0.34 0.04,0.4 0.52,0.4 h 0.68 c 0.34,0 0.46,0 0.46,0.16 0,0.08 -0.02,0.18 -0.06,0.32 l -1.62,7.12 c -0.02,0.12 -0.04,0.34 -0.04,0.44 0,1 0.48,1.46 1.42,1.46 1.28,0 2.52,-1.2 3.32,-2.9 z m -2.42,-11.3 c 0,0.66 0.54,1.2 1.2,1.2 0.66,0 1.2,-0.54 1.2,-1.2 0,-0.66 -0.54,-1.2 -1.2,-1.2 -0.66,0 -1.2,0.54 -1.2,1.2 z" />
    <path
       id="path12326"
       style="font-style:italic;font-variant:normal;font-weight:normal;font-stretch:normal;font-size:20px;line-height:1.25;font-family:'Besley*';-inkscape-font-specification:'Besley* Italic';letter-spacing:0px;word-spacing:0px;fill:#483737"
       d="m 445.50797,240.39523 c 0.08,-0.2 0.14,-0.32 0.14,-0.4 0,-0.12 -0.12,-0.18 -0.42,-0.32 -0.04,-0.02 -0.06,-0.02 -0.1,-0.02 -0.24,0 -0.32,0.42 -0.48,0.7 -0.5,0.98 -1.24,1.72 -1.78,1.72 -0.26,0 -0.36,-0.16 -0.36,-0.38 0,-0.1 0.02,-0.32 0.08,-0.5 l 1.18,-4.36 c 0.16,-0.62 0.36,-1.38 0.36,-2.1 0,-1.62 -0.94,-2.2 -2.34,-2.2 -1.28,0 -2.48,0.9 -3.5,2.38 -0.32,0.46 -0.52,0.88 -0.58,0.88 v -0.04 c 0,-0.08 0.04,-0.34 0.16,-0.84 l 0.36,-1.56 c 0.04,-0.16 0.08,-0.3 0.08,-0.4 0,-0.16 -0.1,-0.24 -0.46,-0.24 h -2.88 c -0.26,0 -0.3,0.04 -0.3,0.44 v 0.26 c 0,0.36 0.04,0.4 0.56,0.4 h 0.64 c 0.3,0 0.38,0.06 0.38,0.2 0,0.1 -0.04,0.24 -0.08,0.42 l -1.82,7.88 c -0.04,0.18 -0.1,0.38 -0.1,0.52 0,0.16 0.06,0.28 0.3,0.28 h 0.88 c 0.62,0 0.56,-0.12 0.68,-0.6 l 0.48,-2.12 c 0.14,-0.56 0.26,-1.04 0.46,-1.56 0.94,-2.48 2.92,-5.24 4.48,-5.24 0.7,0 0.96,0.38 0.96,1.02 0,0.78 -0.32,1.66 -0.5,2.38 l -1.16,4.28 c -0.04,0.16 -0.08,0.48 -0.08,0.58 0,1 0.48,1.46 1.42,1.46 1.28,0 2.56,-1.2 3.34,-2.92 z" />
    <path
       id="path12328"
       style="font-style:italic;font-variant:normal;font-weight:normal;font-stretch:normal;font-size:20px;line-height:1.25;font-family:'Besley*';-inkscape-font-specification:'Besley* Italic';letter-spacing:0px;word-spacing:0px;fill:#483737"
       d="m 453.66422,241.85523 c 0,1 0.48,1.46 1.42,1.46 1.28,0 2.5,-1.16 3.3,-2.84 0.1,-0.22 0.2,-0.38 0.2,-0.5 0,-0.1 -0.08,-0.18 -0.32,-0.26 -0.12,-0.04 -0.2,-0.06 -0.26,-0.06 -0.2,0 -0.2,0.2 -0.36,0.52 -0.5,1.06 -1.28,1.9 -1.86,1.9 -0.26,0 -0.36,-0.16 -0.36,-0.38 0,-0.1 0.02,-0.24 0.04,-0.36 l 3.04,-13.08 c 0.06,-0.24 0.12,-0.4 0.12,-0.52 0,-0.16 -0.12,-0.22 -0.6,-0.22 h -2.08 c -0.22,0 -0.4,-0.02 -0.54,-0.02 -0.38,0 -0.52,0.1 -0.52,0.72 0,0.36 0.08,0.4 0.3,0.4 h 1.04 c 0.26,0 0.34,0.08 0.34,0.22 0,0.16 -0.12,0.4 -0.16,0.62 l -0.92,4.12 c -0.14,0.64 -0.16,0.9 -0.22,0.9 -0.06,0 -0.14,-0.3 -0.4,-0.78 -0.4,-0.74 -1.1,-1.16 -2.3,-1.16 -2.18,0 -5.84,2.98 -5.84,6.98 0,2.8 1.46,3.8 3.24,3.8 1.3,0 2.56,-0.8 3.52,-1.96 0.16,-0.18 0.24,-0.34 0.28,-0.34 v 0.04 c 0,0.1 -0.1,0.62 -0.1,0.8 z m 1.02,-5.14 c 0,2.28 -2.34,5.56 -4.16,5.56 -1.28,0 -1.8,-1.08 -1.8,-2.76 0,-2.88 2.32,-5.96 4,-5.96 1.82,0 1.96,1.48 1.96,3.16 z" />
    <path
       id="path12330"
       style="font-style:italic;font-variant:normal;font-weight:normal;font-stretch:normal;font-size:20px;line-height:1.25;font-family:'Besley*';-inkscape-font-specification:'Besley* Italic';letter-spacing:0px;word-spacing:0px;fill:#483737"
       d="m 461.43297,234.81523 c -0.74,0 -0.74,0.02 -0.74,0.46 v 0.24 c 0,0.34 0.04,0.4 0.52,0.4 h 5.76 c 0.5,0 0.52,-0.02 0.52,-0.46 v -0.1 c 0,-0.54 0,-0.54 -0.54,-0.54 z" />
    <path
       id="path12332"
       style="font-style:italic;font-variant:normal;font-weight:normal;font-stretch:normal;font-size:20px;line-height:1.25;font-family:'Besley*';-inkscape-font-specification:'Besley* Italic';letter-spacing:0px;word-spacing:0px;fill:#483737"
       d="m 470.81172,240.53523 c 0,-0.36 0.1,-0.72 0.18,-1.08 l 0.28,-1.24 c 0.12,-0.5 0.24,-0.94 0.42,-1.38 0.78,-1.82 2.38,-3.28 3.9,-3.28 1.08,0 1.4,1.28 1.4,2.96 0,2.68 -1.92,5.76 -4.4,5.76 -1.04,0 -1.78,-0.68 -1.78,-1.74 z m -1.68,-0.76 c -0.08,0.34 -0.14,0.58 -0.14,0.82 0,0.18 0.04,0.38 0.14,0.6 0.58,1.2 1.46,2.12 3.42,2.12 3.38,0 6.44,-3 6.44,-6.8 0,-2.8 -1.36,-3.98 -3.14,-3.98 -1.14,0 -2.28,0.52 -3.2,1.5 -0.28,0.3 -0.44,0.54 -0.48,0.54 -0.02,0 -0.02,-0.02 -0.02,-0.04 0,-0.08 0.04,-0.28 0.12,-0.64 l 1.38,-6.06 c 0.02,-0.08 0.04,-0.14 0.04,-0.18 0,-0.12 -0.08,-0.14 -0.22,-0.14 h -2.94 c -0.36,0 -0.4,0.08 -0.4,0.28 v 0.32 c 0,0.44 0.1,0.52 0.36,0.52 0.12,0 0.26,-0.02 0.44,-0.02 h 0.36 c 0.22,0 0.32,0.02 0.32,0.18 0,0.06 -0.02,0.16 -0.04,0.28 z" />
    <path
       id="path12334"
       style="font-style:italic;font-variant:normal;font-weight:normal;font-stretch:normal;font-size:20px;line-height:1.25;font-family:'Besley*';-inkscape-font-specification:'Besley* Italic';letter-spacing:0px;word-spacing:0px;fill:#483737"
       d="m 484.81609,239.67523 c -0.26,0 -0.34,0.38 -0.64,0.88 -0.52,0.86 -1.16,1.52 -1.66,1.52 -0.26,0 -0.36,-0.16 -0.36,-0.38 0,-0.1 0.02,-0.24 0.04,-0.36 l 2.92,-13.22 c 0.04,-0.18 0.06,-0.32 0.06,-0.4 0,-0.18 -0.12,-0.2 -0.48,-0.2 h -2.82 c -0.34,0 -0.42,0.04 -0.42,0.56 v 0.28 c 0,0.2 0.04,0.26 0.38,0.26 h 0.8 c 0.4,0 0.5,0.04 0.5,0.18 0,0.08 -0.04,0.2 -0.08,0.4 l -2.62,12.22 c -0.02,0.12 -0.04,0.34 -0.04,0.44 0,1 0.48,1.46 1.42,1.46 1.2,0 2.38,-1.06 3.18,-2.6 0.14,-0.26 0.3,-0.48 0.3,-0.66 0,-0.14 -0.2,-0.38 -0.48,-0.38 z" />
    <path
       id="path12336"
       style="font-style:italic;font-variant:normal;font-weight:normal;font-stretch:normal;font-size:20px;line-height:1.25;font-family:'Besley*';-inkscape-font-specification:'Besley* Italic';letter-spacing:0px;word-spacing:0px;fill:#483737"
       d="m 488.47266,239.51523 c 0,-3.08 1.7,-6.1 3.88,-6.1 1.38,0 1.88,1.42 1.88,2.9 0,3.08 -1.7,6.1 -3.88,6.1 -1.38,0 -1.88,-1.42 -1.88,-2.9 z m -2.1,0 c 0,2.2 1.56,3.8 3.98,3.8 3.22,0 5.98,-3.2 5.98,-7 0,-2.2 -1.56,-3.8 -3.98,-3.8 -3.22,0 -5.98,3.2 -5.98,7 z" />
    <path
       id="path12338"
       style="font-style:italic;font-variant:normal;font-weight:normal;font-stretch:normal;font-size:20px;line-height:1.25;font-family:'Besley*';-inkscape-font-specification:'Besley* Italic';letter-spacing:0px;word-spacing:0px;fill:#483737"
       d="m 498.16922,236.15523 c 0.26,0 0.26,-0.24 0.44,-0.62 0.5,-1 1.24,-1.78 1.8,-1.78 0.26,0 0.36,0.16 0.36,0.38 0,0.1 -0.02,0.32 -0.08,0.5 -0.44,1.64 -0.88,3.28 -1.32,4.9 -0.1,0.38 -0.18,0.9 -0.18,1.32 0,1.78 1.24,2.44 2.7,2.44 1.22,0 2.3,-0.74 3.14,-1.98 0.14,-0.22 0.2,-0.46 0.28,-0.46 0.04,0 0.08,0.08 0.14,0.32 0.34,1.56 1.3,2.14 2.68,2.14 4.1,0 5.9,-5.86 5.9,-8.06 0,-2.02 -0.7,-2.72 -1.66,-2.72 -0.82,0 -1.34,0.46 -1.34,1.18 0,0.7 0.44,1.14 0.98,1.14 0.68,0 0.52,-0.12 0.66,-0.12 0.2,0 0.22,0.28 0.22,0.72 0,1.76 -1.74,6.8 -4.58,6.8 -0.92,0 -1.32,-0.64 -1.32,-1.62 0,-0.38 0.06,-0.82 0.18,-1.3 l 1.36,-5.94 c 0.06,-0.22 0.12,-0.38 0.12,-0.48 0,-0.14 -0.12,-0.2 -0.54,-0.2 h -0.8 c -0.34,0 -0.42,0.04 -0.52,0.44 l -1.02,4.42 c -0.58,2.18 -1.82,4.7 -3.62,4.7 -0.86,0 -1.24,-0.58 -1.24,-1.46 0,-0.66 0.22,-1.4 0.38,-1.98 l 1.16,-4.28 c 0.04,-0.16 0.08,-0.48 0.08,-0.58 0,-1 -0.48,-1.46 -1.42,-1.46 -1.32,0 -2.62,1.28 -3.4,3.08 -0.06,0.14 -0.12,0.24 -0.12,0.3 0,0.12 0.44,0.26 0.58,0.26 z" />
    <path
       id="path12340"
       style="font-style:italic;font-variant:normal;font-weight:normal;font-stretch:normal;font-size:20px;line-height:1.25;font-family:'Besley*';-inkscape-font-specification:'Besley* Italic';letter-spacing:0px;word-spacing:0px;fill:#483737"
       d="m 519.55484,240.41523 c 0.1,-0.2 0.18,-0.34 0.18,-0.44 0,-0.1 -0.08,-0.18 -0.34,-0.26 -0.12,-0.04 -0.2,-0.06 -0.26,-0.06 -0.18,0 -0.18,0.18 -0.32,0.48 -0.5,1.08 -1.3,1.94 -1.88,1.94 -0.26,0 -0.36,-0.16 -0.36,-0.38 0,-0.1 0.02,-0.24 0.04,-0.36 l 1.9,-7.96 c 0.06,-0.22 0.12,-0.38 0.12,-0.48 0,-0.14 -0.12,-0.18 -0.52,-0.18 h -2.9 c -0.26,0 -0.34,0.04 -0.34,0.46 v 0.24 c 0,0.34 0.04,0.4 0.52,0.4 h 0.68 c 0.34,0 0.46,0 0.46,0.16 0,0.08 -0.02,0.18 -0.06,0.32 l -1.62,7.12 c -0.02,0.12 -0.04,0.34 -0.04,0.44 0,1 0.48,1.46 1.42,1.46 1.28,0 2.52,-1.2 3.32,-2.9 z m -2.42,-11.3 c 0,0.66 0.54,1.2 1.2,1.2 0.66,0 1.2,-0.54 1.2,-1.2 0,-0.66 -0.54,-1.2 -1.2,-1.2 -0.66,0 -1.2,0.54 -1.2,1.2 z" />
    <path
       id="path12342"
       style="font-style:italic;font-variant:normal;font-weight:normal;font-stretch:normal;font-size:20px;line-height:1.25;font-family:'Besley*';-inkscape-font-specification:'Besley* Italic';letter-spacing:0px;word-spacing:0px;fill:#483737"
       d="m 531.83609,240.39523 c 0.08,-0.2 0.14,-0.32 0.14,-0.4 0,-0.12 -0.12,-0.18 -0.42,-0.32 -0.04,-0.02 -0.06,-0.02 -0.1,-0.02 -0.24,0 -0.32,0.42 -0.48,0.7 -0.5,0.98 -1.24,1.72 -1.78,1.72 -0.26,0 -0.36,-0.16 -0.36,-0.38 0,-0.1 0.02,-0.32 0.08,-0.5 l 1.18,-4.36 c 0.16,-0.62 0.36,-1.38 0.36,-2.1 0,-1.62 -0.94,-2.2 -2.34,-2.2 -1.28,0 -2.48,0.9 -3.5,2.38 -0.32,0.46 -0.52,0.88 -0.58,0.88 v -0.04 c 0,-0.08 0.04,-0.34 0.16,-0.84 l 0.36,-1.56 c 0.04,-0.16 0.08,-0.3 0.08,-0.4 0,-0.16 -0.1,-0.24 -0.46,-0.24 h -2.88 c -0.26,0 -0.3,0.04 -0.3,0.44 v 0.26 c 0,0.36 0.04,0.4 0.56,0.4 h 0.64 c 0.3,0 0.38,0.06 0.38,0.2 0,0.1 -0.04,0.24 -0.08,0.42 l -1.82,7.88 c -0.04,0.18 -0.1,0.38 -0.1,0.52 0,0.16 0.06,0.28 0.3,0.28 h 0.88 c 0.62,0 0.56,-0.12 0.68,-0.6 l 0.48,-2.12 c 0.14,-0.56 0.26,-1.04 0.46,-1.56 0.94,-2.48 2.92,-5.24 4.48,-5.24 0.7,0 0.96,0.38 0.96,1.02 0,0.78 -0.32,1.66 -0.5,2.38 l -1.16,4.28 c -0.04,0.16 -0.08,0.48 -0.08,0.58 0,1 0.48,1.46 1.42,1.46 1.28,0 2.56,-1.2 3.34,-2.92 z" />
    <path
       id="path12344"
       style="font-style:italic;font-variant:normal;font-weight:normal;font-stretch:normal;font-size:20px;line-height:1.25;font-family:'Besley*';-inkscape-font-specification:'Besley* Italic';letter-spacing:0px;word-spacing:0px;fill:#483737"
       d="m 534.11234,243.73523 c 0.3,-0.36 0.4,-0.46 0.94,-0.46 h 0.18 c 0.3,0 0.62,0.02 0.94,0.02 h 2.08 c 1.3,0 1.78,0.28 1.78,1.16 0,1.7 -2.48,2.76 -4.76,2.76 -0.92,0 -2.02,-0.34 -2.02,-1.26 0,-0.52 0.26,-1.46 0.86,-2.22 z m 1.64,-6.32 c 0,-2.08 1.4,-4.1 3.18,-4.1 1.38,0 1.38,1.02 1.38,1.7 0,2.08 -1.2,4.1 -2.98,4.1 -1.38,0 -1.58,-0.82 -1.58,-1.7 z m 1.58,2.5 c 2.62,0 4.88,-2.3 4.88,-4.7 0,-0.94 -0.3,-1.64 -0.88,-2.08 -0.2,-0.16 -0.3,-0.24 -0.3,-0.36 0,-0.1 0.06,-0.22 0.16,-0.44 0.28,-0.6 0.58,-0.98 0.86,-0.98 0.14,0 0.06,0.2 0.06,0.56 0,0.5 0.4,0.88 0.96,0.88 0.6,0 1.06,-0.42 1.06,-1.1 0,-0.84 -0.66,-1.42 -1.48,-1.42 -1,0 -1.6,0.8 -2.08,1.84 -0.16,0.38 -0.2,0.48 -0.42,0.48 -0.34,0 -0.8,-0.08 -1.22,-0.08 -2.62,0 -5.08,2.3 -5.08,4.7 0,0.74 0.22,1.32 0.62,1.76 0.3,0.32 0.48,0.42 0.48,0.5 0,0.08 -0.22,0.14 -0.68,0.42 -0.8,0.48 -1.28,1.16 -1.28,1.94 0,0.42 0.12,0.72 0.34,0.94 0.16,0.16 0.24,0.26 0.24,0.34 0,0.18 -0.4,0.22 -0.86,0.62 -0.72,0.62 -1.36,1.5 -1.36,2.48 0,1.7 1.64,2.1 3.7,2.1 3.4,0 6.4,-1.74 6.4,-3.96 0,-2.12 -1.24,-2.64 -3.14,-2.64 -0.56,0 -1.32,0.02 -1.82,0.02 -1.1,0 -1.94,0 -1.94,-0.54 0,-0.44 0.4,-0.84 0.92,-1.14 0.26,-0.16 0.44,-0.22 0.68,-0.22 0.34,0 0.78,0.08 1.18,0.08 z" />
    <path
       id="path12346"
       style="font-style:italic;font-variant:normal;font-weight:normal;font-stretch:normal;font-size:20px;line-height:1.25;font-family:'Besley*';-inkscape-font-specification:'Besley* Italic';letter-spacing:0px;word-spacing:0px;fill:#483737"
       d="m 548.25359,239.67523 c -0.26,0 -0.34,0.38 -0.64,0.88 -0.52,0.86 -1.16,1.52 -1.66,1.52 -0.26,0 -0.36,-0.16 -0.36,-0.38 0,-0.1 0.02,-0.24 0.04,-0.36 l 2.92,-13.22 c 0.04,-0.18 0.06,-0.32 0.06,-0.4 0,-0.18 -0.12,-0.2 -0.48,-0.2 h -2.82 c -0.34,0 -0.42,0.04 -0.42,0.56 v 0.28 c 0,0.2 0.04,0.26 0.38,0.26 h 0.8 c 0.4,0 0.5,0.04 0.5,0.18 0,0.08 -0.04,0.2 -0.08,0.4 l -2.62,12.22 c -0.02,0.12 -0.04,0.34 -0.04,0.44 0,1 0.48,1.46 1.42,1.46 1.2,0 2.38,-1.06 3.18,-2.6 0.14,-0.26 0.3,-0.48 0.3,-0.66 0,-0.14 -0.2,-0.38 -0.48,-0.38 z" />
    <path
       id="path12348"
       style="font-style:italic;font-variant:normal;font-weight:normal;font-stretch:normal;font-size:20px;line-height:1.25;font-family:'Besley*';-inkscape-font-specification:'Besley* Italic';letter-spacing:0px;word-spacing:0px;fill:#483737"
       d="m 550.23953,235.13523 c 0.24,0 0.3,-0.24 0.48,-0.58 0.36,-0.62 0.78,-0.88 1,-0.88 0.34,0 0.42,0.24 0.5,0.46 0.44,1.14 1.14,6.32 1.94,9.3 0.14,0.5 0.24,0.78 0.24,1.02 0,0.26 -0.14,0.46 -0.54,0.82 -1.32,1.16 -2.66,1.94 -3.84,1.94 -0.86,0 -1.08,-0.32 -1.08,-0.78 0,-0.52 0.84,-0.42 0.84,-1.18 0,-0.62 -0.4,-0.98 -1,-0.98 -0.78,0 -1.36,0.74 -1.36,1.66 0,1.34 0.86,2.38 2.6,2.38 4.9,0 11.9,-10.5 11.9,-13.9 0,-1.22 -0.46,-2.08 -1.82,-2.08 -1.08,0 -1.5,0.76 -1.5,1.36 0,0.76 0.38,1.14 1.08,1.14 0.68,0 0.62,-0.32 0.86,-0.32 0.16,0 0.2,0.1 0.2,0.42 0,1.1 -1.66,4.24 -3.86,7.06 -0.36,0.48 -0.58,0.86 -0.76,0.86 -0.14,0 -0.28,-0.24 -0.44,-0.86 -0.7,-2.64 -0.96,-6.64 -1.38,-8.04 -0.28,-0.96 -0.82,-1.48 -1.96,-1.48 -1.12,0 -1.88,0.54 -2.5,1.98 -0.08,0.18 -0.14,0.3 -0.14,0.38 0,0.12 0.32,0.3 0.54,0.3 z" />
    <path
       id="path12350"
       style="font-style:italic;font-variant:normal;font-weight:normal;font-stretch:normal;font-size:20px;line-height:1.25;font-family:'Besley*';-inkscape-font-specification:'Besley* Italic';letter-spacing:0px;word-spacing:0px;fill:#483737"
       d="m 575.89078,241.85523 c 0,1 0.48,1.46 1.42,1.46 1.28,0 2.5,-1.16 3.3,-2.84 0.1,-0.22 0.2,-0.38 0.2,-0.5 0,-0.1 -0.08,-0.18 -0.32,-0.26 -0.12,-0.04 -0.2,-0.06 -0.26,-0.06 -0.2,0 -0.2,0.2 -0.36,0.52 -0.5,1.06 -1.28,1.9 -1.86,1.9 -0.26,0 -0.36,-0.16 -0.36,-0.38 0,-0.1 0.02,-0.24 0.04,-0.36 l 3.04,-13.08 c 0.06,-0.24 0.12,-0.4 0.12,-0.52 0,-0.16 -0.12,-0.22 -0.6,-0.22 h -2.08 c -0.22,0 -0.4,-0.02 -0.54,-0.02 -0.38,0 -0.52,0.1 -0.52,0.72 0,0.36 0.08,0.4 0.3,0.4 h 1.04 c 0.26,0 0.34,0.08 0.34,0.22 0,0.16 -0.12,0.4 -0.16,0.62 l -0.92,4.12 c -0.14,0.64 -0.16,0.9 -0.22,0.9 -0.06,0 -0.14,-0.3 -0.4,-0.78 -0.4,-0.74 -1.1,-1.16 -2.3,-1.16 -2.18,0 -5.84,2.98 -5.84,6.98 0,2.8 1.46,3.8 3.24,3.8 1.3,0 2.56,-0.8 3.52,-1.96 0.16,-0.18 0.24,-0.34 0.28,-0.34 v 0.04 c 0,0.1 -0.1,0.62 -0.1,0.8 z m 1.02,-5.14 c 0,2.28 -2.34,5.56 -4.16,5.56 -1.28,0 -1.8,-1.08 -1.8,-2.76 0,-2.88 2.32,-5.96 4,-5.96 1.82,0 1.96,1.48 1.96,3.16 z" />
    <path
       id="path12352"
       style="font-style:italic;font-variant:normal;font-weight:normal;font-stretch:normal;font-size:20px;line-height:1.25;font-family:'Besley*';-inkscape-font-specification:'Besley* Italic';letter-spacing:0px;word-spacing:0px;fill:#483737"
       d="m 589.59953,234.87523 c 0,2.12 -2.7,2.84 -4.72,3.04 -0.2,0.02 -0.34,0.04 -0.44,0.04 -0.16,0 -0.22,-0.04 -0.22,-0.16 0,-0.08 0.04,-0.2 0.1,-0.4 0.7,-2.24 2.3,-3.94 3.94,-3.94 0.88,0 1.34,0.28 1.34,1.42 z m -5.64,4.84 c 0,-0.16 0.02,-0.32 0.02,-0.48 0.02,-0.44 0.14,-0.36 0.58,-0.38 2.6,-0.14 6.96,-0.84 6.96,-3.98 0,-1.64 -1.02,-2.36 -3.26,-2.36 -3.02,0 -6.34,3.2 -6.34,7.2 0,2.6 1.48,3.6 3.7,3.6 2.12,0 3.68,-1.48 4.58,-3.02 0.14,-0.24 0.26,-0.4 0.26,-0.5 0,-0.1 -0.14,-0.14 -0.58,-0.14 -0.54,0 -0.5,0.16 -0.72,0.48 -0.72,1.08 -1.86,2.2 -3.3,2.2 -1.38,0 -1.9,-1.14 -1.9,-2.62 z" />
    <path
       id="path12354"
       style="font-style:italic;font-variant:normal;font-weight:normal;font-stretch:normal;font-size:20px;line-height:1.25;font-family:'Besley*';-inkscape-font-specification:'Besley* Italic';letter-spacing:0px;word-spacing:0px;fill:#483737"
       d="m 596.92547,239.67523 c -0.26,0 -0.34,0.38 -0.64,0.88 -0.52,0.86 -1.16,1.52 -1.66,1.52 -0.26,0 -0.36,-0.16 -0.36,-0.38 0,-0.1 0.02,-0.24 0.04,-0.36 l 2.92,-13.22 c 0.04,-0.18 0.06,-0.32 0.06,-0.4 0,-0.18 -0.12,-0.2 -0.48,-0.2 h -2.82 c -0.34,0 -0.42,0.04 -0.42,0.56 v 0.28 c 0,0.2 0.04,0.26 0.38,0.26 h 0.8 c 0.4,0 0.5,0.04 0.5,0.18 0,0.08 -0.04,0.2 -0.08,0.4 l -2.62,12.22 c -0.02,0.12 -0.04,0.34 -0.04,0.44 0,1 0.48,1.46 1.42,1.46 1.2,0 2.38,-1.06 3.18,-2.6 0.14,-0.26 0.3,-0.48 0.3,-0.66 0,-0.14 -0.2,-0.38 -0.48,-0.38 z" />
    <path
       id="path12356"
       style="font-style:italic;font-variant:normal;font-weight:normal;font-stretch:normal;font-size:20px;line-height:1.25;font-family:'Besley*';-inkscape-font-specification:'Besley* Italic';letter-spacing:0px;word-spacing:0px;fill:#483737"
       d="m 603.03141,240.41523 c 0.1,-0.2 0.18,-0.34 0.18,-0.44 0,-0.1 -0.08,-0.18 -0.34,-0.26 -0.12,-0.04 -0.2,-0.06 -0.26,-0.06 -0.18,0 -0.18,0.18 -0.32,0.48 -0.5,1.08 -1.3,1.94 -1.88,1.94 -0.26,0 -0.36,-0.16 -0.36,-0.38 0,-0.1 0.02,-0.24 0.04,-0.36 l 1.9,-7.96 c 0.06,-0.22 0.12,-0.38 0.12,-0.48 0,-0.14 -0.12,-0.18 -0.52,-0.18 h -2.9 c -0.26,0 -0.34,0.04 -0.34,0.46 v 0.24 c 0,0.34 0.04,0.4 0.52,0.4 h 0.68 c 0.34,0 0.46,0 0.46,0.16 0,0.08 -0.02,0.18 -0.06,0.32 l -1.62,7.12 c -0.02,0.12 -0.04,0.34 -0.04,0.44 0,1 0.48,1.46 1.42,1.46 1.28,0 2.52,-1.2 3.32,-2.9 z m -2.42,-11.3 c 0,0.66 0.54,1.2 1.2,1.2 0.66,0 1.2,-0.54 1.2,-1.2 0,-0.66 -0.54,-1.2 -1.2,-1.2 -0.66,0 -1.2,0.54 -1.2,1.2 z" />
    <path
       id="path12358"
       style="font-style:italic;font-variant:normal;font-weight:normal;font-stretch:normal;font-size:20px;line-height:1.25;font-family:'Besley*';-inkscape-font-specification:'Besley* Italic';letter-spacing:0px;word-spacing:0px;fill:#483737"
       d="m 613.66328,235.27523 c 0,-1.64 -0.82,-2.76 -3.06,-2.76 -3.22,0 -6.34,3.2 -6.34,7.2 0,2.6 1.28,3.6 3.5,3.6 2.12,0 3.82,-1.46 4.76,-3 0.08,-0.12 0.22,-0.34 0.22,-0.5 0,-0.1 -0.04,-0.16 -0.2,-0.16 h -0.32 c -0.5,0 -0.66,0.4 -0.9,0.7 -0.78,1 -1.98,1.98 -3.32,1.98 -1.38,0 -1.7,-1.14 -1.7,-2.62 0,-3.28 1.92,-6.26 4.3,-6.26 0.88,0 1.14,0.38 1.14,0.92 0,0.46 -0.64,0.66 -0.64,1.38 0,0.74 0.54,1.06 1.1,1.06 0.68,0 1.46,-0.38 1.46,-1.54 z" />
    <path
       id="path12360"
       style="font-style:italic;font-variant:normal;font-weight:normal;font-stretch:normal;font-size:20px;line-height:1.25;font-family:'Besley*';-inkscape-font-specification:'Besley* Italic';letter-spacing:0px;word-spacing:0px;fill:#483737"
       d="m 619.59391,240.41523 c 0.1,-0.2 0.18,-0.34 0.18,-0.44 0,-0.1 -0.08,-0.18 -0.34,-0.26 -0.12,-0.04 -0.2,-0.06 -0.26,-0.06 -0.18,0 -0.18,0.18 -0.32,0.48 -0.5,1.08 -1.3,1.94 -1.88,1.94 -0.26,0 -0.36,-0.16 -0.36,-0.38 0,-0.1 0.02,-0.24 0.04,-0.36 l 1.9,-7.96 c 0.06,-0.22 0.12,-0.38 0.12,-0.48 0,-0.14 -0.12,-0.18 -0.52,-0.18 h -2.9 c -0.26,0 -0.34,0.04 -0.34,0.46 v 0.24 c 0,0.34 0.04,0.4 0.52,0.4 h 0.68 c 0.34,0 0.46,0 0.46,0.16 0,0.08 -0.02,0.18 -0.06,0.32 l -1.62,7.12 c -0.02,0.12 -0.04,0.34 -0.04,0.44 0,1 0.48,1.46 1.42,1.46 1.28,0 2.52,-1.2 3.32,-2.9 z m -2.42,-11.3 c 0,0.66 0.54,1.2 1.2,1.2 0.66,0 1.2,-0.54 1.2,-1.2 0,-0.66 -0.54,-1.2 -1.2,-1.2 -0.66,0 -1.2,0.54 -1.2,1.2 z" />
    <path
       id="path12362"
       style="font-style:italic;font-variant:normal;font-weight:normal;font-stretch:normal;font-size:20px;line-height:1.25;font-family:'Besley*';-inkscape-font-specification:'Besley* Italic';letter-spacing:0px;word-spacing:0px;fill:#483737"
       d="m 622.92578,239.51523 c 0,-3.08 1.7,-6.1 3.88,-6.1 1.38,0 1.88,1.42 1.88,2.9 0,3.08 -1.7,6.1 -3.88,6.1 -1.38,0 -1.88,-1.42 -1.88,-2.9 z m -2.1,0 c 0,2.2 1.56,3.8 3.98,3.8 3.22,0 5.98,-3.2 5.98,-7 0,-2.2 -1.56,-3.8 -3.98,-3.8 -3.22,0 -5.98,3.2 -5.98,7 z" />
    <path
       id="path12364"
       style="font-style:italic;font-variant:normal;font-weight:normal;font-stretch:normal;font-size:20px;line-height:1.25;font-family:'Besley*';-inkscape-font-specification:'Besley* Italic';letter-spacing:0px;word-spacing:0px;fill:#483737"
       d="m 632.44234,236.15523 c 0.18,0 0.18,-0.16 0.34,-0.48 0.5,-1.08 1.3,-1.92 1.88,-1.92 0.26,0 0.36,0.16 0.36,0.38 0,0.1 -0.02,0.32 -0.08,0.5 l -1.08,4 c -0.2,0.72 -0.46,1.62 -0.46,2.46 0,1.6 0.94,2.2 2.34,2.2 1.36,0 2.68,-1.04 3.74,-2.72 0.2,-0.3 0.28,-0.46 0.32,-0.46 0.02,0 0.02,0.04 0.02,0.06 0,0.08 -0.02,0.22 -0.08,0.46 l -0.18,0.78 c -0.02,0.12 -0.04,0.34 -0.04,0.44 0,1 0.48,1.46 1.42,1.46 1.14,0 2.28,-0.94 3.06,-2.38 0.22,-0.4 0.44,-0.72 0.44,-0.92 0,-0.14 -0.1,-0.22 -0.36,-0.3 -0.02,0 -0.06,-0.02 -0.08,-0.02 -0.34,0 -0.52,0.56 -0.74,0.94 -0.48,0.84 -1.12,1.44 -1.62,1.44 -0.26,0 -0.36,-0.16 -0.36,-0.38 0,-0.1 0.02,-0.24 0.04,-0.36 l 1.86,-7.78 c 0.04,-0.18 0.14,-0.44 0.14,-0.62 0,-0.12 -0.02,-0.22 -0.2,-0.22 h -0.92 c -0.72,0 -0.68,0.08 -0.8,0.64 l -0.46,2.04 c -0.14,0.58 -0.26,1.08 -0.46,1.6 -0.94,2.48 -2.92,5.24 -4.48,5.24 -0.7,0 -0.96,-0.38 -0.96,-1 0,-0.38 0.1,-0.86 0.24,-1.4 0.12,-0.48 0.26,-0.98 0.4,-1.48 l 1.02,-3.8 c 0.04,-0.16 0.08,-0.48 0.08,-0.58 0,-1 -0.48,-1.46 -1.42,-1.46 -1.34,0 -2.64,1.3 -3.42,3.12 -0.06,0.14 -0.1,0.2 -0.1,0.26 0,0.1 0.46,0.26 0.6,0.26 z" />
    <path
       id="path12366"
       style="font-style:italic;font-variant:normal;font-weight:normal;font-stretch:normal;font-size:20px;line-height:1.25;font-family:'Besley*';-inkscape-font-specification:'Besley* Italic';letter-spacing:0px;word-spacing:0px;fill:#483737"
       d="m 651.93328,240.45523 c 0,1.02 -1.08,1.98 -3.08,1.98 -1.14,0 -2.3,-0.46 -2.3,-1.22 0,-0.4 0.88,-0.28 0.88,-1.14 0,-0.64 -0.44,-1.02 -1.04,-1.02 -0.7,0 -1.28,0.68 -1.28,1.54 0,1.6 1.56,2.76 3.74,2.76 2.54,0 4.74,-1.2 4.74,-3.28 0,-3.46 -5.1,-3.08 -5.1,-5.08 0,-1.12 1.28,-1.62 2.54,-1.62 0.84,0 1.76,0.2 1.76,0.82 0,0.4 -0.6,0.34 -0.6,1.12 0,0.5 0.42,0.86 1.06,0.86 0.64,0 1.08,-0.48 1.08,-1.28 0,-1.52 -1.34,-2.42 -3.3,-2.42 -1.66,0 -4.26,0.86 -4.26,3.04 0,2.92 5.16,2.6 5.16,4.94 z" />
    <path
       id="path12368"
       style="font-style:italic;font-variant:normal;font-weight:normal;font-stretch:normal;font-size:20px;line-height:1.25;font-family:'Besley*';-inkscape-font-specification:'Besley* Italic';letter-spacing:0px;word-spacing:0px;fill:#483737"
       d="m 666.07828,240.41523 c 0.1,-0.2 0.18,-0.34 0.18,-0.44 0,-0.1 -0.08,-0.18 -0.34,-0.26 -0.12,-0.04 -0.2,-0.06 -0.26,-0.06 -0.18,0 -0.18,0.18 -0.32,0.48 -0.5,1.08 -1.3,1.94 -1.88,1.94 -0.26,0 -0.36,-0.16 -0.36,-0.38 0,-0.1 0.02,-0.24 0.04,-0.36 l 1.9,-7.96 c 0.06,-0.22 0.12,-0.38 0.12,-0.48 0,-0.14 -0.12,-0.18 -0.52,-0.18 h -2.9 c -0.26,0 -0.34,0.04 -0.34,0.46 v 0.24 c 0,0.34 0.04,0.4 0.52,0.4 h 0.68 c 0.34,0 0.46,0 0.46,0.16 0,0.08 -0.02,0.18 -0.06,0.32 l -1.62,7.12 c -0.02,0.12 -0.04,0.34 -0.04,0.44 0,1 0.48,1.46 1.42,1.46 1.28,0 2.52,-1.2 3.32,-2.9 z m -2.42,-11.3 c 0,0.66 0.54,1.2 1.2,1.2 0.66,0 1.2,-0.54 1.2,-1.2 0,-0.66 -0.54,-1.2 -1.2,-1.2 -0.66,0 -1.2,0.54 -1.2,1.2 z" />
    <path
       id="path12370"
       style="font-style:italic;font-variant:normal;font-weight:normal;font-stretch:normal;font-size:20px;line-height:1.25;font-family:'Besley*';-inkscape-font-specification:'Besley* Italic';letter-spacing:0px;word-spacing:0px;fill:#483737"
       d="m 676.71016,235.27523 c 0,-1.64 -0.82,-2.76 -3.06,-2.76 -3.22,0 -6.34,3.2 -6.34,7.2 0,2.6 1.28,3.6 3.5,3.6 2.12,0 3.82,-1.46 4.76,-3 0.08,-0.12 0.22,-0.34 0.22,-0.5 0,-0.1 -0.04,-0.16 -0.2,-0.16 h -0.32 c -0.5,0 -0.66,0.4 -0.9,0.7 -0.78,1 -1.98,1.98 -3.32,1.98 -1.38,0 -1.7,-1.14 -1.7,-2.62 0,-3.28 1.92,-6.26 4.3,-6.26 0.88,0 1.14,0.38 1.14,0.92 0,0.46 -0.64,0.66 -0.64,1.38 0,0.74 0.54,1.06 1.1,1.06 0.68,0 1.46,-0.38 1.46,-1.54 z" />
    <path
       id="path12372"
       style="font-style:italic;font-variant:normal;font-weight:normal;font-stretch:normal;font-size:20px;line-height:1.25;font-family:'Besley*';-inkscape-font-specification:'Besley* Italic';letter-spacing:0px;word-spacing:0px;fill:#483737"
       d="m 685.38078,234.87523 c 0,2.12 -2.7,2.84 -4.72,3.04 -0.2,0.02 -0.34,0.04 -0.44,0.04 -0.16,0 -0.22,-0.04 -0.22,-0.16 0,-0.08 0.04,-0.2 0.1,-0.4 0.7,-2.24 2.3,-3.94 3.94,-3.94 0.88,0 1.34,0.28 1.34,1.42 z m -5.64,4.84 c 0,-0.16 0.02,-0.32 0.02,-0.48 0.02,-0.44 0.14,-0.36 0.58,-0.38 2.6,-0.14 6.96,-0.84 6.96,-3.98 0,-1.64 -1.02,-2.36 -3.26,-2.36 -3.02,0 -6.34,3.2 -6.34,7.2 0,2.6 1.48,3.6 3.7,3.6 2.12,0 3.68,-1.48 4.58,-3.02 0.14,-0.24 0.26,-0.4 0.26,-0.5 0,-0.1 -0.14,-0.14 -0.58,-0.14 -0.54,0 -0.5,0.16 -0.72,0.48 -0.72,1.08 -1.86,2.2 -3.3,2.2 -1.38,0 -1.9,-1.14 -1.9,-2.62 z" />
    <path
       id="path12374"
       style="font-style:italic;font-variant:normal;font-weight:normal;font-stretch:normal;font-size:20px;line-height:1.25;font-family:'Besley*';-inkscape-font-specification:'Besley* Italic';letter-spacing:0px;word-spacing:0px;fill:#483737"
       d="m 703.70234,235.27523 c 0,-1.64 -0.82,-2.76 -3.06,-2.76 -3.22,0 -6.34,3.2 -6.34,7.2 0,2.6 1.28,3.6 3.5,3.6 2.12,0 3.82,-1.46 4.76,-3 0.08,-0.12 0.22,-0.34 0.22,-0.5 0,-0.1 -0.04,-0.16 -0.2,-0.16 h -0.32 c -0.5,0 -0.66,0.4 -0.9,0.7 -0.78,1 -1.98,1.98 -3.32,1.98 -1.38,0 -1.7,-1.14 -1.7,-2.62 0,-3.28 1.92,-6.26 4.3,-6.26 0.88,0 1.14,0.38 1.14,0.92 0,0.46 -0.64,0.66 -0.64,1.38 0,0.74 0.54,1.06 1.1,1.06 0.68,0 1.46,-0.38 1.46,-1.54 z" />
    <path
       id="path12376"
       style="font-style:italic;font-variant:normal;font-weight:normal;font-stretch:normal;font-size:20px;line-height:1.25;font-family:'Besley*';-inkscape-font-specification:'Besley* Italic';letter-spacing:0px;word-spacing:0px;fill:#483737"
       d="m 706.61297,233.81523 c 0.38,0 0.3,0.04 0.24,0.34 l -1.9,8.28 c -0.04,0.2 -0.08,0.34 -0.08,0.44 0,0.18 0.12,0.24 0.5,0.24 h 0.82 c 0.58,0 0.48,-0.36 0.58,-0.8 l 0.66,-2.82 c 0.12,-0.48 0.22,-0.86 0.38,-1.32 0.76,-2.08 2.38,-4.72 3.66,-4.72 0.22,0 0.34,0.1 0.34,0.24 0,0.24 -0.52,0.32 -0.52,1.2 0,0.62 0.54,1.02 1.22,1.02 0.7,0 1.24,-0.68 1.24,-1.52 0,-1.16 -0.8,-1.88 -1.98,-1.88 -1.22,0 -2.2,0.94 -2.98,2.18 -0.14,0.24 -0.24,0.34 -0.3,0.34 -0.02,0 -0.04,-0.02 -0.04,-0.08 0,-0.06 0.02,-0.14 0.04,-0.26 l 0.38,-1.44 c 0.04,-0.18 0.1,-0.3 0.1,-0.38 0,-0.12 -0.1,-0.16 -0.44,-0.16 h -2.74 c -0.36,0 -0.4,0.08 -0.4,0.28 v 0.32 c 0,0.5 0,0.5 0.5,0.5 z" />
    <path
       id="path12378"
       style="font-style:italic;font-variant:normal;font-weight:normal;font-stretch:normal;font-size:20px;line-height:1.25;font-family:'Besley*';-inkscape-font-specification:'Besley* Italic';letter-spacing:0px;word-spacing:0px;fill:#483737"
       d="m 721.43547,234.87523 c 0,2.12 -2.7,2.84 -4.72,3.04 -0.2,0.02 -0.34,0.04 -0.44,0.04 -0.16,0 -0.22,-0.04 -0.22,-0.16 0,-0.08 0.04,-0.2 0.1,-0.4 0.7,-2.24 2.3,-3.94 3.94,-3.94 0.88,0 1.34,0.28 1.34,1.42 z m -5.64,4.84 c 0,-0.16 0.02,-0.32 0.02,-0.48 0.02,-0.44 0.14,-0.36 0.58,-0.38 2.6,-0.14 6.96,-0.84 6.96,-3.98 0,-1.64 -1.02,-2.36 -3.26,-2.36 -3.02,0 -6.34,3.2 -6.34,7.2 0,2.6 1.48,3.6 3.7,3.6 2.12,0 3.68,-1.48 4.58,-3.02 0.14,-0.24 0.26,-0.4 0.26,-0.5 0,-0.1 -0.14,-0.14 -0.58,-0.14 -0.54,0 -0.5,0.16 -0.72,0.48 -0.72,1.08 -1.86,2.2 -3.3,2.2 -1.38,0 -1.9,-1.14 -1.9,-2.62 z" />
    <path
       id="path12380"
       style="font-style:italic;font-variant:normal;font-weight:normal;font-stretch:normal;font-size:20px;line-height:1.25;font-family:'Besley*';-inkscape-font-specification:'Besley* Italic';letter-spacing:0px;word-spacing:0px;fill:#483737"
       d="m 735.33078,240.63523 c 0.1,-0.2 0.28,-0.44 0.28,-0.62 0,-0.1 -0.06,-0.2 -0.2,-0.24 -0.18,-0.06 -0.3,-0.1 -0.38,-0.1 -0.16,0 -0.2,0.12 -0.34,0.44 -0.5,1.1 -1.3,1.96 -1.88,1.96 -0.26,0 -0.36,-0.16 -0.36,-0.38 0,-0.1 0.02,-0.24 0.04,-0.36 l 1.92,-8.02 c 0.04,-0.2 0.08,-0.34 0.08,-0.42 0,-0.16 -0.12,-0.18 -0.56,-0.18 h -0.6 c -0.6,0 -0.62,0 -0.72,0.48 l -0.24,1.04 c -0.06,0.3 -0.14,0.42 -0.18,0.42 -0.12,0 -0.2,-0.7 -0.42,-1.04 -0.42,-0.68 -1.12,-1.08 -2.18,-1.08 -2.18,0 -5.64,2.98 -5.64,6.98 0,2.8 1.66,3.8 3.44,3.8 1.02,0 2,-0.46 2.74,-1.28 0.24,-0.28 0.48,-0.64 0.56,-0.64 0.02,0 0.02,0.02 0.02,0.08 v 0.1 c -0.02,0.1 -0.02,0.2 -0.02,0.28 0,1 0.48,1.46 1.42,1.46 1.22,0 2.42,-1.1 3.22,-2.68 z m -3.62,-3.92 c 0,2.28 -1.94,5.56 -3.76,5.56 -1.28,0 -2,-1.08 -2,-2.76 0,-2.88 2.12,-5.96 3.8,-5.96 1.62,0 1.96,1.48 1.96,3.16 z" />
    <path
       id="path12382"
       style="font-style:italic;font-variant:normal;font-weight:normal;font-stretch:normal;font-size:20px;line-height:1.25;font-family:'Besley*';-inkscape-font-specification:'Besley* Italic';letter-spacing:0px;word-spacing:0px;fill:#483737"
       d="m 751.86391,239.67523 c -0.24,0 -0.22,0.24 -0.38,0.56 -0.5,1.04 -1.28,1.84 -1.84,1.84 -0.26,0 -0.36,-0.16 -0.36,-0.38 0,-0.1 0.02,-0.32 0.08,-0.5 l 1.1,-4.12 c 0.24,-0.82 0.56,-1.9 0.56,-2.84 0,-1.22 -0.62,-1.7 -2.14,-1.7 -1.22,0 -2.26,0.94 -3.14,2.36 -0.24,0.4 -0.34,0.66 -0.38,0.66 0,0 -0.02,-0.02 -0.02,-0.06 0,-0.1 0.02,-0.34 0.04,-0.72 0,-0.1 0.02,-0.2 0.02,-0.3 0,-1.34 -0.66,-1.94 -2.08,-1.94 -1.18,0 -2.32,0.96 -3.26,2.36 -0.3,0.46 -0.46,0.74 -0.5,0.74 v -0.04 c 0,-0.08 0.06,-0.36 0.18,-0.88 l 0.32,-1.38 c 0.04,-0.2 0.08,-0.32 0.08,-0.42 0,-0.2 -0.16,-0.2 -0.68,-0.2 h -2.58 c -0.32,0 -0.38,0.04 -0.38,0.5 v 0.3 c 0,0.26 0.04,0.3 0.44,0.3 h 0.48 c 0.52,0 0.66,0.02 0.66,0.2 0,0.1 -0.04,0.24 -0.08,0.46 l -1.76,7.62 c -0.08,0.34 -0.18,0.58 -0.18,0.74 0,0.2 0.16,0.28 0.7,0.28 h 0.54 c 0.72,0 0.62,-0.48 0.74,-1.02 l 0.32,-1.38 c 0.16,-0.72 0.32,-1.36 0.56,-2.04 0.92,-2.54 2.6,-5.12 4.14,-5.12 0.58,0 0.76,0.34 0.76,0.88 0,0.78 -0.32,2.02 -0.52,2.8 l -1.26,5.04 c -0.06,0.26 -0.16,0.46 -0.16,0.6 0,0.16 0.1,0.24 0.5,0.24 h 0.68 c 0.64,0 0.6,-0.1 0.72,-0.6 l 0.4,-1.68 c 0.12,-0.48 0.26,-0.96 0.38,-1.44 0.8,-2.74 2.46,-5.84 4.14,-5.84 0.54,0 0.74,0.22 0.74,0.62 0,0.38 -0.18,0.94 -0.36,1.58 -0.12,0.44 -0.24,0.92 -0.36,1.36 l -1.12,4.16 c -0.04,0.16 -0.08,0.48 -0.08,0.58 0,1 0.48,1.46 1.42,1.46 1.18,0 2.34,-1.02 3.14,-2.52 0.14,-0.28 0.34,-0.56 0.34,-0.76 0,-0.18 -0.28,-0.36 -0.56,-0.36 z" />
  </g>
  <g
     id="flowRoot4557"
     style="font-style:normal;font-weight:normal;line-height:0.01%;font-family:sans-serif;text-align:end;letter-spacing:0px;word-spacing:0px;text-anchor:end;fill:#483737;fill-opacity:1;stroke:none;stroke-width:1px;stroke-linecap:butt;stroke-linejoin:miter;stroke-opacity:1"
     transform="translate(-13856.457,112.59006)"
     aria-label="All Natural">
    <path
       id="path12385"
       style="font-style:normal;font-variant:normal;font-weight:normal;font-stretch:normal;font-size:45px;line-height:1.25;font-family:'Besley*';-inkscape-font-specification:'Besley*';text-align:end;text-anchor:end;fill:#483737"
       d="m 15068.782,329.14281 c -0.45,-1.17 -0.315,-1.935 -2.07,-1.935 -1.8,0 -1.71,0.765 -2.205,1.935 l -12.33,28.53 c -0.72,1.62 -1.26,1.485 -3.555,1.485 -1.26,0 -1.53,-0.225 -1.53,1.125 0,1.125 -0.18,1.35 0.99,1.35 h 10.44 c 1.395,0 1.17,-0.315 1.17,-1.62 0,-0.72 -0.315,-0.855 -1.08,-0.855 h -1.98 c -2.385,0 -2.25,0 -1.53,-1.665 l 1.845,-4.32 c 0.585,-1.395 0.765,-1.44 2.745,-1.44 h 12.24 c 1.44,0 1.35,0.54 1.71,1.53 l 1.485,3.96 c 0.81,2.16 0.495,1.935 -2.295,1.935 -1.17,0 -1.89,-0.36 -1.89,0.945 0,1.8 0.36,1.53 2.07,1.53 h 10.44 c 1.395,0 2.34,0.45 2.34,-1.08 0,-1.125 0.18,-1.395 -0.99,-1.395 h -2.34 c -1.665,0 -1.755,-0.045 -2.205,-1.215 z m -4.455,6.75 c 0.945,-2.25 1.08,-4.545 2.295,-1.35 l 5.13,13.68 c 0.54,1.395 -0.18,1.035 -1.8,1.035 h -8.55 c -3.285,0 -2.655,-0.315 -1.755,-2.475 z" />
    <path
       id="path12387"
       style="font-style:normal;font-variant:normal;font-weight:normal;font-stretch:normal;font-size:45px;line-height:1.25;font-family:'Besley*';-inkscape-font-specification:'Besley*';text-align:end;text-anchor:end;fill:#483737"
       d="m 15090.559,329.00781 c 1.44,0 1.305,0.18 1.305,1.575 v 23.85 c 0,2.07 0.405,4.725 -1.485,4.725 -1.08,0 -2.565,-0.45 -2.565,0.765 0,1.575 -0.135,1.71 1.485,1.71 h 9.81 c 0.765,0 0.855,0.09 0.855,-0.72 v -0.99 c 0,-0.945 -0.27,-0.765 -1.125,-0.765 h -1.17 c -2.295,0 -1.755,-0.9 -1.755,-3.015 v -28.17 c 0,-1.665 -0.27,-1.44 -1.845,-1.44 h -4.05 c -0.9,0 -2.205,-0.36 -2.205,0.63 0,1.62 -0.18,1.845 1.485,1.845 z" />
    <path
       id="path12389"
       style="font-style:normal;font-variant:normal;font-weight:normal;font-stretch:normal;font-size:45px;line-height:1.25;font-family:'Besley*';-inkscape-font-specification:'Besley*';text-align:end;text-anchor:end;fill:#483737"
       d="m 15104.094,329.00781 c 1.44,0 1.305,0.18 1.305,1.575 v 23.85 c 0,2.07 0.405,4.725 -1.485,4.725 -1.08,0 -2.565,-0.45 -2.565,0.765 0,1.575 -0.135,1.71 1.485,1.71 h 9.81 c 0.765,0 0.855,0.09 0.855,-0.72 v -0.99 c 0,-0.945 -0.27,-0.765 -1.125,-0.765 h -1.17 c -2.295,0 -1.755,-0.9 -1.755,-3.015 v -28.17 c 0,-1.665 -0.27,-1.44 -1.845,-1.44 h -4.05 c -0.9,0 -2.205,-0.36 -2.205,0.63 0,1.62 -0.18,1.845 1.485,1.845 z" />
    <path
       id="path12391"
       style="font-style:normal;font-variant:normal;font-weight:normal;font-stretch:normal;font-size:45px;line-height:1.25;font-family:'Besley*';-inkscape-font-specification:'Besley*';text-align:end;text-anchor:end;fill:#483737"
       d="m 15132.424,330.35781 c 2.16,0 1.845,0.405 1.845,2.475 v 23.94 c 0,1.89 0.36,2.385 -1.665,2.385 h -1.89 c -0.81,0 -1.17,-0.225 -1.17,0.675 0,1.845 0.05,1.8 1.89,1.8 h 9.63 c 1.17,0 1.305,0.135 1.305,-1.08 0,-1.665 -0.36,-1.395 -1.935,-1.395 h -1.53 c -1.35,0 -1.71,0.225 -1.71,-1.215 v -22.32 c 0,-4.185 0.63,-2.295 2.025,-0.45 l 19.8,25.74 c 0.495,0.63 0.585,1.17 1.755,1.17 1.17,0 0.72,-1.575 0.72,-2.61 v -27.54 c 0,-1.62 0.05,-1.575 1.62,-1.575 2.205,0 3.105,0.54 3.105,-1.845 0,-1.035 -1.485,-0.63 -2.385,-0.63 h -8.55 c -1.305,0 -1.665,-0.225 -1.665,1.17 0,1.485 0.225,1.305 1.665,1.305 h 2.34 c 1.26,0 0.945,0.54 0.945,1.665 v 19.08 c 0,2.835 -0.54,1.98 -1.8,0.36 l -16.2,-21.24 c -1.08,-1.44 -1.215,-2.34 -3.825,-2.34 h -5.22 c -1.305,0 -1.98,-0.36 -1.98,1.08 0,1.935 1.125,1.395 2.88,1.395 z" />
    <path
       id="path12393"
       style="font-style:normal;font-variant:normal;font-weight:normal;font-stretch:normal;font-size:45px;line-height:1.25;font-family:'Besley*';-inkscape-font-specification:'Besley*';text-align:end;text-anchor:end;fill:#483737"
       d="m 15174.949,343.94781 c 0,-1.755 -1.26,-1.53 -1.26,-2.34 0,-0.9 1.71,-1.755 4.14,-1.755 4.05,0 5.085,2.25 5.085,5.265 v 1.035 c 0,1.305 0.405,2.025 -1.035,2.025 h -1.755 c -7.74,0 -11.655,3.69 -11.655,7.92 0,3.78 2.97,5.985 6.975,5.985 2.745,0 4.95,-1.035 6.615,-2.655 1.44,-1.44 0.54,-0.315 1.44,1.035 0.765,1.125 2.115,1.62 3.555,1.62 1.305,0 2.61,-0.45 3.645,-1.485 0.765,-0.765 1.575,-1.575 0.45,-2.25 -0.945,-0.54 -0.945,0.225 -1.53,0.765 -0.54,0.54 -1.035,0.63 -1.485,0.63 -0.63,0 -1.17,-0.405 -1.17,-1.305 v -13.32 c 0,-3.645 -1.71,-7.335 -8.46,-7.335 -4.545,0 -8.685,2.25 -8.685,5.715 0,1.98 1.26,2.835 2.655,2.835 1.53,0 2.475,-0.855 2.475,-2.385 z m 6.66,5.94 c 1.71,0 1.305,0.72 1.305,2.295 v 0.855 c 0,4.095 -2.385,6.525 -5.445,6.525 -2.25,0 -4.41,-1.125 -4.41,-4.14 0,-3.465 1.845,-5.535 7.065,-5.535 z" />
    <path
       id="path12395"
       style="font-style:normal;font-variant:normal;font-weight:normal;font-stretch:normal;font-size:45px;line-height:1.25;font-family:'Besley*';-inkscape-font-specification:'Besley*';text-align:end;text-anchor:end;fill:#483737"
       d="m 15205.79,358.75281 c 0.63,-1.125 1.17,-1.8 -0.18,-2.295 -1.08,-0.405 -1.17,0.81 -1.71,1.53 -0.675,0.9 -1.485,1.395 -2.385,1.395 -1.215,0 -1.98,-0.765 -1.98,-2.565 v -14.49 c 0,-1.26 -0.225,-1.62 1.125,-1.62 h 4.32 c 1.305,0 1.17,-0.18 1.17,-1.44 0,-1.305 -0.405,-1.035 -1.62,-1.035 h -3.51 c -1.53,0 -1.485,-0.045 -1.485,-1.575 v -4.41 c 0,-1.305 0.405,-2.115 -1.035,-2.115 -1.575,0 -1.44,0.18 -1.485,1.575 -0.225,5.535 -1.665,6.39 -4.365,6.525 -1.35,0.045 -1.35,0.045 -1.35,1.485 0,1.215 0.315,0.99 1.44,0.99 h 1.53 c 1.755,0 1.215,1.125 1.215,2.7 v 14.355 c 0,2.475 1.305,4.41 4.545,4.41 2.79,0 4.635,-1.44 5.76,-3.42 z" />
    <path
       id="path12397"
       style="font-style:normal;font-variant:normal;font-weight:normal;font-stretch:normal;font-size:45px;line-height:1.25;font-family:'Besley*';-inkscape-font-specification:'Besley*';text-align:end;text-anchor:end;fill:#483737"
       d="m 15213.564,354.83781 c 0,4.815 1.575,7.245 7.29,7.245 3.6,0 5.985,-1.575 7.47,-3.735 1.305,-1.89 0.765,-0.495 0.765,1.8 0,1.8 0.45,1.485 2.115,1.485 h 4.14 c 1.35,0 1.845,0.315 1.845,-1.125 0,-1.26 0.09,-1.35 -1.215,-1.35 h -1.53 c -1.845,0 -1.305,-1.125 -1.305,-2.79 v -15.75 c 0,-2.16 0.18,-2.385 -2.025,-2.385 h -4.5 c -1.395,0 -1.575,-0.135 -1.575,1.305 0,1.575 0.675,1.17 2.115,1.17 2.07,0 1.935,0.135 1.935,2.16 v 8.1 c 0,4.635 -2.79,9 -7.2,9 -2.97,0 -4.275,-2.295 -4.275,-5.625 v -14.805 c 0,-1.62 -0.45,-1.305 -1.98,-1.305 h -4.05 c -1.395,0 -2.07,-0.405 -2.07,1.125 0,1.575 0.315,1.35 1.8,1.35 h 1.26 c 1.125,0 0.99,0.18 0.99,1.26 z" />
    <path
       id="path12399"
       style="font-style:normal;font-variant:normal;font-weight:normal;font-stretch:normal;font-size:45px;line-height:1.25;font-family:'Besley*';-inkscape-font-specification:'Besley*';text-align:end;text-anchor:end;fill:#483737"
       d="m 15249.374,361.63281 c 1.395,0 1.8,0.27 1.8,-1.215 0,-1.26 0,-1.26 -1.26,-1.26 h -1.26 c -1.62,0 -1.53,-0.135 -1.53,-1.71 v -5.85 c 0,-2.025 -0.05,-3.87 0.315,-5.58 0.72,-3.375 2.61,-6.03 4.995,-6.03 1.08,0 1.35,0.225 1.35,0.675 0,0.54 -1.035,0.855 -1.035,2.475 0,1.395 1.215,2.295 2.745,2.295 1.575,0 2.79,-1.53 2.79,-3.42 0,-2.61 -2.34,-4.23 -4.86,-4.23 -2.16,0 -3.69,0.765 -4.77,1.98 -1.08,1.17 -1.53,3.87 -1.53,0.405 0,-2.07 -0.135,-1.935 -2.16,-1.935 h -3.51 c -0.855,0 -2.43,-0.405 -2.43,0.585 v 0.81 c 0,1.08 0,1.08 1.08,1.08 h 1.71 c 1.395,0 1.26,0.18 1.26,1.53 v 15.12 c 0,0.945 0.36,1.8 -0.72,1.8 h -2.34 c -1.17,0 -0.99,0.27 -0.99,1.35 0,1.17 0.05,1.125 1.17,1.125 z" />
    <path
       id="path12401"
       style="font-style:normal;font-variant:normal;font-weight:normal;font-stretch:normal;font-size:45px;line-height:1.25;font-family:'Besley*';-inkscape-font-specification:'Besley*';text-align:end;text-anchor:end;fill:#483737"
       d="m 15267.234,343.94781 c 0,-1.755 -1.26,-1.53 -1.26,-2.34 0,-0.9 1.71,-1.755 4.14,-1.755 4.05,0 5.085,2.25 5.085,5.265 v 1.035 c 0,1.305 0.405,2.025 -1.035,2.025 h -1.755 c -7.74,0 -11.655,3.69 -11.655,7.92 0,3.78 2.97,5.985 6.975,5.985 2.745,0 4.95,-1.035 6.615,-2.655 1.44,-1.44 0.54,-0.315 1.44,1.035 0.765,1.125 2.115,1.62 3.555,1.62 1.305,0 2.61,-0.45 3.645,-1.485 0.765,-0.765 1.575,-1.575 0.45,-2.25 -0.945,-0.54 -0.945,0.225 -1.53,0.765 -0.54,0.54 -1.035,0.63 -1.485,0.63 -0.63,0 -1.17,-0.405 -1.17,-1.305 v -13.32 c 0,-3.645 -1.71,-7.335 -8.46,-7.335 -4.545,0 -8.685,2.25 -8.685,5.715 0,1.98 1.26,2.835 2.655,2.835 1.53,0 2.475,-0.855 2.475,-2.385 z m 6.66,5.94 c 1.71,0 1.305,0.72 1.305,2.295 v 0.855 c 0,4.095 -2.385,6.525 -5.445,6.525 -2.25,0 -4.41,-1.125 -4.41,-4.14 0,-3.465 1.845,-5.535 7.065,-5.535 z" />
    <path
       id="path12403"
       style="font-style:normal;font-variant:normal;font-weight:normal;font-stretch:normal;font-size:45px;line-height:1.25;font-family:'Besley*';-inkscape-font-specification:'Besley*';text-align:end;text-anchor:end;fill:#483737"
       d="m 15288.313,329.00781 c 1.44,0 1.305,0.18 1.305,1.575 v 23.85 c 0,2.07 0.405,4.725 -1.485,4.725 -1.08,0 -2.565,-0.45 -2.565,0.765 0,1.575 -0.135,1.71 1.485,1.71 h 9.81 c 0.765,0 0.855,0.09 0.855,-0.72 v -0.99 c 0,-0.945 -0.27,-0.765 -1.125,-0.765 h -1.17 c -2.295,0 -1.755,-0.9 -1.755,-3.015 v -28.17 c 0,-1.665 -0.27,-1.44 -1.845,-1.44 h -4.05 c -0.9,0 -2.205,-0.36 -2.205,0.63 0,1.62 -0.18,1.845 1.485,1.845 z" />
  </g>
  <path
     id="path3387"
     d="M 79.285714,317.14286 H 1326.4286"
     style="fill:#241c1c;fill-rule:evenodd;stroke:#483737;stroke-width:3;stroke-linecap:butt;stroke-linejoin:miter;stroke-miterlimit:4;stroke-dasharray:none;stroke-opacity:1" />
  <g
     id="flowRoot845"
     style="font-style:normal;font-weight:normal;line-height:0.01%;font-family:sans-serif;letter-spacing:0px;word-spacing:0px;fill:#483737;fill-opacity:1;stroke:none;stroke-width:1px;stroke-linecap:butt;stroke-linejoin:miter;stroke-opacity:1"
     transform="translate(-148.50008,112.59006)"
     aria-label="14 fl oz">
    <path
       id="path12406"
       style="font-style:normal;font-variant:normal;font-weight:normal;font-stretch:normal;font-size:45px;line-height:1.25;font-family:'Besley*';-inkscape-font-specification:'Besley*';fill:#483737"
       d="m 249.37227,361.63281 c 1.35,0 1.8,0.315 1.8,-1.125 0,-1.395 -0.045,-1.35 -1.44,-1.35 h -4.14 c -1.71,0 -1.62,-0.135 -1.62,-1.8 v -21.15 c 0,-1.26 -0.135,-1.125 -1.35,-1.125 -0.9,0 -0.81,0.405 -1.08,0.945 -1.8,4.005 -3.42,4.59 -7.11,4.68 -1.35,0.045 -1.62,-0.18 -1.62,1.26 0,1.665 0.855,1.215 2.34,1.215 h 3.06 c 1.17,0 1.485,-0.225 1.485,1.035 v 12.6 c 0,2.205 0.135,2.34 -2.115,2.34 h -3.42 c -1.485,0 -2.115,-0.36 -2.115,1.26 0,1.71 0.945,1.215 2.475,1.215 z" />
    <path
       id="path12408"
       style="font-style:normal;font-variant:normal;font-weight:normal;font-stretch:normal;font-size:45px;line-height:1.25;font-family:'Besley*';-inkscape-font-specification:'Besley*';fill:#483737"
       d="m 275.66562,366.94281 c 0,-1.305 -0.765,-1.035 -1.66499,-1.035 -1.66501,0 -1.71001,-1.935 -1.71001,-4.185 v -1.71 c 0,-1.125 -0.135,-1.305 1.035,-1.305 1.53,0 3.015,0.585 3.015,-1.125 0,-1.8 -0.81,-1.35 -2.47499,-1.35 -1.80001,0 -1.57501,-0.27 -1.57501,-1.98 v -8.01 c 0,-0.675 0.225,-1.26 -0.495,-1.26 -0.9,0 -0.80999,0.495 -0.98999,1.08 -0.45001,1.305 -0.945,2.205 -1.53001,2.88 -0.71999,0.81 -1.26,0.72 -1.26,2.43 v 3.24 c 0,1.44 0.135,1.62 -1.35,1.62 h -6.84 c -2.79,0 -1.53,-0.945 -0.54,-2.34 3.42,-4.815 9.58501,-9.36 11.02501,-15.03 0.40499,-1.53 0.81,-2.43 -1.125,-2.43 h -1.35001 c -1.665,0 -1.125,0.765 -1.485,2.07 -1.44,5.265 -7.60499,11.115 -10.575,16.65 -0.495,0.945 -0.81,1.44 -0.81,2.88 0,0.945 0.585,0.675 1.44,0.675 h 10.26 c 1.305,0 1.35,0 1.35,1.305 v 2.07 c 0,2.88 0,3.825 -2.475,3.825 -1.08,-0.045 -1.79999,-0.225 -1.79999,1.215 0,1.35 0.09,1.26 1.39499,1.26 h 8.64 c 1.62,0 1.89,0.225 1.89,-1.44 z" />
    <path
       id="path12410"
       style="font-style:normal;font-variant:normal;font-weight:normal;font-stretch:normal;font-size:45px;line-height:1.25;font-family:'Besley*';-inkscape-font-specification:'Besley*';fill:#483737"
       d="m 300.19414,342.55281 c 0,-1.755 -0.045,-1.845 1.71,-1.845 h 3.24 c 0.855,0 1.35,0.27 1.35,-0.675 0,-1.305 0.315,-1.8 -1.08,-1.8 h -4.23 c -1.17,0 -0.99,-0.27 -0.99,-1.35 0,-5.715 1.305,-8.775 6.255,-8.775 2.79,0 3.6,0.675 3.6,1.215 0,0.9 -0.945,1.215 -0.945,2.565 0,1.26 1.035,2.16 2.61,2.16 1.17,0 0.855,0.315 0.855,1.665 v 21.78 c 0,1.98 -0.45,1.665 -2.295,1.665 -1.53,0 -1.755,-0.18 -1.755,1.395 0,1.305 0.36,1.08 1.575,1.08 h 9 c 1.755,0 1.575,-0.225 1.575,-1.89 0,-0.945 -1.17,-0.585 -2.025,-0.585 -2.655,0 -2.025,-1.125 -2.025,-3.555 v -28.44 c 0,-2.475 -1.125,-0.675 -2.115,0.09 -1.485,1.125 -1.215,0.765 -2.79,-0.045 -1.305,-0.675 -3.06,-1.125 -5.355,-1.125 -6.75,0 -10.215,3.915 -10.215,9.81 v 1.17 c 0,1.26 -0.135,1.17 -1.35,1.17 h -1.35 c -1.125,0 -1.35,-0.18 -1.35,0.99 0,1.44 0,1.485 1.44,1.485 h 1.89 c 1.215,0 0.72,2.16 0.72,3.285 v 12.6 c 0,1.395 0.495,2.565 -1.08,2.565 h -1.62 c -1.26,0 -1.35,-0.09 -1.35,1.215 0,1.35 0.135,1.26 1.44,1.26 h 10.26 c 1.755,0 1.8,0.045 1.8,-1.71 0,-1.125 -0.9,-0.765 -1.89,-0.765 h -1.62 c -2.115,0 -1.89,-0.27 -1.89,-2.295 z" />
    <path
       id="path12412"
       style="font-style:normal;font-variant:normal;font-weight:normal;font-stretch:normal;font-size:45px;line-height:1.25;font-family:'Besley*';-inkscape-font-specification:'Besley*';fill:#483737"
       d="m 336.89023,350.38281 c 0,6.3 3.51,11.7 10.755,11.7 7.245,0 10.755,-5.4 10.755,-12.6 0,-6.3 -3.51,-11.7 -10.755,-11.7 -7.245,0 -10.755,5.4 -10.755,12.6 z m 4.725,-0.9 c 0,-4.68 1.125,-9.675 6.03,-9.675 4.905,0 6.03,4.995 6.03,10.575 0,4.68 -1.125,9.675 -6.03,9.675 -4.905,0 -6.03,-4.995 -6.03,-10.575 z" />
    <path
       id="path12414"
       style="font-style:normal;font-variant:normal;font-weight:normal;font-stretch:normal;font-size:45px;line-height:1.25;font-family:'Besley*';-inkscape-font-specification:'Besley*';fill:#483737"
       d="m 371.28641,340.48281 h 4.275 c 2.835,0 1.89,0.36 0.81,1.71 l -12.195,14.85 c -2.025,2.475 -1.935,1.665 -1.935,3.78 0,0.99 1.53,0.81 2.7,0.81 h 16.29 c 2.25,0 1.935,-0.45 1.935,-2.61 v -4.32 c 0,-1.8 0.495,-2.7 -1.485,-2.7 -1.215,0 -0.765,1.53 -0.81,2.43 -0.18,3.69 -1.215,4.95 -6.75,4.95 h -4.86 c -3.015,0 -1.62,-0.675 -0.54,-1.98 l 11.565,-14.04 c 0.99,-1.17 2.385,-2.025 2.385,-4.14 0,-1.395 -0.9,-0.99 -2.16,-0.99 h -15.48 c -1.71,0 -1.755,0 -1.755,1.71 v 4.59 c 0,1.305 -0.54,2.79 0.945,2.79 1.935,0 1.26,-1.53 1.44,-2.97 0.315,-2.565 1.44,-3.87 5.625,-3.87 z" />
  </g>
  <g
     id="flowRoot857"
     style="font-style:normal;font-weight:normal;line-height:0.01%;font-family:sans-serif;letter-spacing:0px;word-spacing:0px;fill:#483737;fill-opacity:1;stroke:none;stroke-width:1px;stroke-linecap:butt;stroke-linejoin:miter;stroke-opacity:1"
     transform="translate(-148.50008,187.59006)"
     aria-label="(414 mL)">
    <path
       id="path12417"
       style="font-style:normal;font-variant:normal;font-weight:normal;font-stretch:normal;font-size:45px;line-height:1.25;font-family:'Besley*';-inkscape-font-specification:'Besley*';fill:#483737"
       d="m 247.97727,368.38281 c 0.405,-2.025 -1.26,-1.8 -2.7,-2.565 -5.67,-3.105 -8.055,-9.81 -8.055,-18.81 0,-8.955 2.34,-14.94 7.965,-17.91 1.575,-0.81 3.195,-0.54 2.745,-2.7 -0.27,-1.305 -2.25,-0.225 -3.24,0.135 -8.1,2.97 -12.645,9.9 -12.645,20.475 0,10.755 4.725,18.495 13.095,21.51 1.08,0.405 2.565,1.305 2.835,-0.135 z" />
    <path
       id="path12419"
       style="font-style:normal;font-variant:normal;font-weight:normal;font-stretch:normal;font-size:45px;line-height:1.25;font-family:'Besley*';-inkscape-font-specification:'Besley*';fill:#483737"
       d="m 271.88633,366.94281 c 0,-1.305 -0.765,-1.035 -1.665,-1.035 -1.665,0 -1.71,-1.935 -1.71,-4.185 v -1.71 c 0,-1.125 -0.135,-1.305 1.035,-1.305 1.53,0 3.015,0.585 3.015,-1.125 0,-1.8 -0.81,-1.35 -2.475,-1.35 -1.8,0 -1.575,-0.27 -1.575,-1.98 v -8.01 c 0,-0.675 0.225,-1.26 -0.495,-1.26 -0.9,0 -0.81,0.495 -0.99,1.08 -0.45,1.305 -0.945,2.205 -1.53,2.88 -0.72,0.81 -1.26,0.72 -1.26,2.43 v 3.24 c 0,1.44 0.135,1.62 -1.35,1.62 h -6.84 c -2.79,0 -1.53,-0.945 -0.54,-2.34 3.42,-4.815 9.585,-9.36 11.025,-15.03 0.405,-1.53 0.81,-2.43 -1.125,-2.43 h -1.35 c -1.665,0 -1.125,0.765 -1.485,2.07 -1.44,5.265 -7.605,11.115 -10.575,16.65 -0.495,0.945 -0.81,1.44 -0.81,2.88 0,0.945 0.585,0.675 1.44,0.675 h 10.26 c 1.305,0 1.35,0 1.35,1.305 v 2.07 c 0,2.88 0,3.825 -2.475,3.825 -1.08,-0.045 -1.8,-0.225 -1.8,1.215 0,1.35 0.09,1.26 1.395,1.26 h 8.64 c 1.62,0 1.89,0.225 1.89,-1.44 z" />
    <path
       id="path12421"
       style="font-style:normal;font-variant:normal;font-weight:normal;font-stretch:normal;font-size:45px;line-height:1.25;font-family:'Besley*';-inkscape-font-specification:'Besley*';fill:#483737"
       d="m 293.22969,361.63281 c 1.35,0 1.8,0.315 1.8,-1.125 0,-1.395 -0.045,-1.35 -1.44,-1.35 h -4.14 c -1.71,0 -1.62,-0.135 -1.62,-1.8 v -21.15 c 0,-1.26 -0.135,-1.125 -1.35,-1.125 -0.9,0 -0.81,0.405 -1.08,0.945 -1.8,4.005 -3.42,4.59 -7.11,4.68 -1.35,0.045 -1.62,-0.18 -1.62,1.26 0,1.665 0.855,1.215 2.34,1.215 h 3.06 c 1.17,0 1.485,-0.225 1.485,1.035 v 12.6 c 0,2.205 0.135,2.34 -2.115,2.34 h -3.42 c -1.485,0 -2.115,-0.36 -2.115,1.26 0,1.71 0.945,1.215 2.475,1.215 z" />
    <path
       id="path12423"
       style="font-style:normal;font-variant:normal;font-weight:normal;font-stretch:normal;font-size:45px;line-height:1.25;font-family:'Besley*';-inkscape-font-specification:'Besley*';fill:#483737"
       d="m 319.52305,366.94281 c 0,-1.305 -0.765,-1.035 -1.665,-1.035 -1.665,0 -1.71,-1.935 -1.71,-4.185 v -1.71 c 0,-1.125 -0.135,-1.305 1.035,-1.305 1.53,0 3.015,0.585 3.015,-1.125 0,-1.8 -0.81,-1.35 -2.475,-1.35 -1.8,0 -1.575,-0.27 -1.575,-1.98 v -8.01 c 0,-0.675 0.225,-1.26 -0.495,-1.26 -0.9,0 -0.81,0.495 -0.99,1.08 -0.45,1.305 -0.945,2.205 -1.53,2.88 -0.72,0.81 -1.26,0.72 -1.26,2.43 v 3.24 c 0,1.44 0.135,1.62 -1.35,1.62 h -6.84 c -2.79,0 -1.53,-0.945 -0.54,-2.34 3.42,-4.815 9.585,-9.36 11.025,-15.03 0.405,-1.53 0.81,-2.43 -1.125,-2.43 h -1.35 c -1.665,0 -1.125,0.765 -1.485,2.07 -1.44,5.265 -7.605,11.115 -10.575,16.65 -0.495,0.945 -0.81,1.44 -0.81,2.88 0,0.945 0.585,0.675 1.44,0.675 h 10.26 c 1.305,0 1.35,0 1.35,1.305 v 2.07 c 0,2.88 0,3.825 -2.475,3.825 -1.08,-0.045 -1.8,-0.225 -1.8,1.215 0,1.35 0.09,1.26 1.395,1.26 h 8.64 c 1.62,0 1.89,0.225 1.89,-1.44 z" />
    <path
       id="path12425"
       style="font-style:normal;font-variant:normal;font-weight:normal;font-stretch:normal;font-size:45px;line-height:1.25;font-family:'Besley*';-inkscape-font-specification:'Besley*';fill:#483737"
       d="m 337.12156,340.70781 c 1.575,0 2.43,-0.45 2.43,1.26 v 13.59 c 0,2.655 0.585,3.6 -2.25,3.6 -1.395,0 -1.35,0.045 -1.35,1.44 0,1.485 0.945,1.035 2.25,1.035 h 8.37 c 1.35,0 1.215,-0.18 1.215,-1.485 0,-1.53 -1.395,-0.99 -2.745,-0.99 -1.125,0 -1.44,0.225 -1.44,-0.99 v -9.27 c 0,-4.635 1.935,-8.55 6.345,-8.55 2.52,0 3.375,1.845 3.375,5.175 v 12.015 c 0,1.17 0.27,1.62 -0.99,1.62 h -1.08 c -1.575,0 -1.53,0.045 -1.53,1.62 0,1.17 0.63,0.855 1.71,0.855 h 7.38 c 1.62,0 2.205,0.36 2.205,-1.395 0,-0.855 0.135,-1.08 -0.765,-1.08 h -1.8 c -1.845,0 -1.08,-0.585 -1.08,-4.95 v -5.31 c 0,-4.635 1.485,-8.55 6.345,-8.55 2.52,0 3.375,1.845 3.375,5.175 v 10.935 c 0,2.295 0.315,2.7 -2.07,2.7 -1.08,0 -2.115,-0.405 -2.115,0.81 0,1.215 -0.27,1.665 1.035,1.665 h 8.91 c 1.71,0 1.935,0.18 1.935,-1.575 0,-0.855 0,-0.9 -0.855,-0.9 h -1.62 c -1.845,0 -1.17,-1.98 -1.17,-3.6 v -10.53 c 0,-4.815 -1.575,-7.245 -6.39,-7.245 -2.385,0 -4.275,0.855 -5.67,2.16 -1.755,1.62 -1.71,3.06 -2.97,0.54 -0.9,-1.8 -2.205,-2.7 -5.13,-2.7 -2.43,0 -4.23,0.855 -5.58,2.205 -1.665,1.665 -1.8,3.735 -1.8,-0.63 0,-1.395 -0.405,-1.125 -1.71,-1.125 h -3.87 c -0.945,0 -2.07,-0.36 -2.07,0.675 0,1.35 -0.27,1.8 1.17,1.8 z" />
    <path
       id="path12427"
       style="font-style:normal;font-variant:normal;font-weight:normal;font-stretch:normal;font-size:45px;line-height:1.25;font-family:'Besley*';-inkscape-font-specification:'Besley*';fill:#483737"
       d="m 381.70883,330.35781 c 1.305,0 1.215,0.09 1.215,1.35 v 23.13 c 0,2.205 0.405,4.32 -1.665,4.32 h -2.79 c -0.81,0 -0.495,1.26 -0.495,1.98 0,0.855 2.025,0.495 2.835,0.495 h 24.75 c 2.025,0 1.665,-0.495 1.665,-2.385 v -6.84 c 0,-1.215 0.45,-2.25 -0.945,-2.25 -1.71,0 -1.26,0.72 -1.395,2.16 -0.36,4.68 -2.16,6.84 -7.56,6.84 h -7.605 c -2.025,0 -2.52,0.36 -2.52,-1.8 v -25.47 c 0,-1.575 0.045,-1.53 1.62,-1.53 1.485,0 3.33,0.63 3.33,-1.08 0,-1.665 -0.36,-1.395 -1.89,-1.395 h -10.62 c -1.53,0 -1.665,-0.09 -1.665,1.485 0,1.17 0.27,0.99 1.395,0.99 z" />
    <path
       id="path12429"
       style="font-style:normal;font-variant:normal;font-weight:normal;font-stretch:normal;font-size:45px;line-height:1.25;font-family:'Besley*';-inkscape-font-specification:'Besley*';fill:#483737"
       d="m 410.66492,326.53281 c -0.405,2.025 1.26,1.8 2.7,2.565 5.67,3.105 8.055,9.81 8.055,18.81 0,8.955 -2.34,14.94 -7.965,17.91 -1.575,0.81 -3.195,0.54 -2.745,2.7 0.27,1.305 2.25,0.225 3.24,-0.135 8.1,-2.97 12.645,-9.9 12.645,-20.475 0,-10.755 -4.725,-18.495 -13.095,-21.51 -1.08,-0.405 -2.565,-1.305 -2.835,0.135 z" />
  </g>
  <g
     id="flowRoot865"
     style="font-style:normal;font-weight:normal;line-height:0.01%;font-family:sans-serif;text-align:end;letter-spacing:0px;word-spacing:0px;text-anchor:end;fill:#483737;fill-opacity:1;stroke:none;stroke-width:1px;stroke-linecap:butt;stroke-linejoin:miter;stroke-opacity:1"
     transform="translate(-13856.457,187.59006)"
     aria-label="Kosher">
    <path
       id="path12432"
       style="font-style:normal;font-variant:normal;font-weight:normal;font-stretch:normal;font-size:45px;line-height:1.25;font-family:'Besley*';-inkscape-font-specification:'Besley*';text-align:end;text-anchor:end;fill:#483737"
       d="m 15177.146,361.63281 c 1.26,0 1.575,0.225 1.575,-1.125 0,-1.71 -0.54,-1.35 -2.115,-1.35 -2.385,0 -2.925,-0.045 -3.915,-1.35 l -11.16,-14.31 c -1.17,-1.485 -1.98,-1.8 -0.585,-3.24 l 8.595,-8.82 c 0.675,-0.675 0.765,-1.08 2.205,-1.08 h 2.52 c 1.395,0 1.53,0.09 1.53,-1.35 0,-1.485 -0.63,-1.125 -1.98,-1.125 h -10.08 c -1.395,0 -1.44,0 -1.44,1.395 0,1.305 0.315,1.08 1.53,1.08 h 1.89 c 1.98,0 0.495,1.035 -0.315,1.89 l -12.465,12.87 c -1.485,1.53 -2.565,3.6 -2.565,-0.09 v -12.6 c 0,-1.935 -0.135,-2.07 1.845,-2.07 h 2.16 c 1.26,0 1.395,0.135 1.395,-1.17 0,-1.485 -0.225,-1.305 -1.665,-1.305 h -10.44 c -1.44,0 -2.52,-0.495 -2.52,1.125 0,1.62 0.36,1.35 1.89,1.35 h 1.8 c 1.71,0 1.26,0.81 1.26,2.34 v 24.3 c 0,2.655 -0.765,2.16 -3.24,2.16 -1.665,0 -1.71,-0.045 -1.71,1.62 0,1.305 1.125,0.855 2.25,0.855 h 10.53 c 1.665,0 1.845,0.135 1.845,-1.575 0,-1.035 -0.135,-0.9 -1.125,-0.9 h -2.07 c -1.44,0 -2.205,0.405 -2.205,-1.17 v -4.77 c 0,-2.295 1.125,-3.195 2.25,-4.32 l 3.51,-3.6 c 1.125,-1.17 1.08,-0.9 2.025,0.36 l 8.775,11.61 c 0.585,0.765 2.205,1.89 0.315,1.89 h -2.43 c -0.855,0 -0.945,-0.09 -0.945,0.81 0,1.35 -0.225,1.665 1.215,1.665 z" />
    <path
       id="path12434"
       style="font-style:normal;font-variant:normal;font-weight:normal;font-stretch:normal;font-size:45px;line-height:1.25;font-family:'Besley*';-inkscape-font-specification:'Besley*';text-align:end;text-anchor:end;fill:#483737"
       d="m 15179.603,350.38281 c 0,6.3 3.51,11.7 10.755,11.7 7.245,0 10.755,-5.4 10.755,-12.6 0,-6.3 -3.51,-11.7 -10.755,-11.7 -7.245,0 -10.755,5.4 -10.755,12.6 z m 4.725,-0.9 c 0,-4.68 1.125,-9.675 6.03,-9.675 4.905,0 6.03,4.995 6.03,10.575 0,4.68 -1.125,9.675 -6.03,9.675 -4.905,0 -6.03,-4.995 -6.03,-10.575 z" />
    <path
       id="path12436"
       style="font-style:normal;font-variant:normal;font-weight:normal;font-stretch:normal;font-size:45px;line-height:1.25;font-family:'Besley*';-inkscape-font-specification:'Besley*';text-align:end;text-anchor:end;fill:#483737"
       d="m 15219.399,344.17281 c 0.405,1.26 -0.09,1.71 1.62,1.71 1.35,0 1.125,-0.27 1.125,-1.53 v -5.76 c 0,-1.08 -0.495,-0.81 -1.485,-0.81 -1.125,0 -0.765,0.27 -1.215,1.44 -0.81,2.34 -0.72,0.945 -2.115,-0.09 -1.125,-0.81 -2.655,-1.44 -4.635,-1.44 -3.825,0 -7.425,2.16 -7.425,6.84 0,8.82 13.95,4.95 13.95,11.115 0,2.295 -1.98,4.185 -5.58,4.185 -2.205,0 -5.04,-1.395 -6.165,-3.78 -0.63,-1.35 0.05,-2.205 -1.935,-2.205 -1.08,0 -1.035,0.045 -1.035,1.125 v 5.31 c 0,1.17 -0.36,1.8 0.945,1.8 1.665,0 1.485,-0.54 1.845,-1.71 0.54,-1.665 0.585,-0.9 1.71,-0.045 1.305,0.99 3.195,1.845 5.535,1.845 4.815,0 8.415,-2.7 8.415,-7.38 0,-8.91 -14.175,-5.13 -14.175,-11.43 0,-2.115 2.025,-3.375 4.86,-3.375 1.98,0 4.86,1.485 5.76,4.185 z" />
    <path
       id="path12438"
       style="font-style:normal;font-variant:normal;font-weight:normal;font-stretch:normal;font-size:45px;line-height:1.25;font-family:'Besley*';-inkscape-font-specification:'Besley*';text-align:end;text-anchor:end;fill:#483737"
       d="m 15227.036,329.00781 c 2.025,0 2.025,0 2.025,2.025 v 26.28 c 0,1.575 0.225,1.845 -1.395,1.845 h -1.8 c -0.9,0 -0.855,0.045 -0.855,0.945 0,1.44 -0.05,1.53 1.395,1.53 h 8.91 c 1.215,0 1.845,0.36 1.845,-0.99 0,-1.665 -0.225,-1.485 -1.845,-1.485 -1.935,0 -2.205,0.225 -2.205,-1.755 v -8.505 c 0,-4.635 2.79,-8.55 7.2,-8.55 2.97,0 4.275,1.845 4.275,5.175 v 11.43 c 0,0.99 0.405,2.205 -0.72,2.205 h -1.71 c -1.125,0 -1.575,-0.27 -1.575,0.945 0,1.35 -0.18,1.53 1.215,1.53 h 10.08 c 0.99,0 0.81,-0.27 0.81,-1.17 0,-1.755 -0.765,-1.305 -2.34,-1.305 -1.8,0 -1.71,-0.09 -1.71,-1.845 v -12.285 c 0,-4.815 -1.575,-7.245 -7.29,-7.245 -3.195,0 -5.445,1.26 -6.93,3.06 -1.89,2.25 -1.305,1.71 -1.305,-1.98 v -10.44 c 0,-1.44 0.315,-1.89 -1.215,-1.89 h -4.5 c -1.62,0 -2.385,-0.45 -2.385,1.35 0,1.485 0.675,1.125 2.025,1.125 z" />
    <path
       id="path12440"
       style="font-style:normal;font-variant:normal;font-weight:normal;font-stretch:normal;font-size:45px;line-height:1.25;font-family:'Besley*';-inkscape-font-specification:'Besley*';text-align:end;text-anchor:end;fill:#483737"
       d="m 15272.964,349.88781 c 2.385,0 2.925,0.27 2.7,-2.205 -0.495,-5.355 -2.97,-9.9 -9.675,-9.9 -7.245,0 -10.8,5.4 -10.8,12.6 0,6.3 3.69,11.7 10.485,11.7 5.22,0 8.235,-2.7 9.675,-6.66 0.405,-1.125 0.81,-1.575 -0.81,-1.575 -1.395,0 -1.215,0.63 -1.62,1.53 -1.305,2.745 -3.51,4.5 -6.705,4.5 -4.23,0 -5.985,-3.6 -6.39,-8.145 -0.135,-1.71 -0.18,-1.845 1.62,-1.845 z m -1.8,-3.645 c 0.18,1.305 0.45,1.71 -1.08,1.71 h -8.19 c -2.475,0 -2.295,0.135 -1.755,-2.61 0.63,-3.105 2.43,-5.58 5.85,-5.58 3.285,0 4.68,3.015 5.175,6.48 z" />
    <path
       id="path12442"
       style="font-style:normal;font-variant:normal;font-weight:normal;font-stretch:normal;font-size:45px;line-height:1.25;font-family:'Besley*';-inkscape-font-specification:'Besley*';text-align:end;text-anchor:end;fill:#483737"
       d="m 15288.837,361.63281 c 1.395,0 1.8,0.27 1.8,-1.215 0,-1.26 0,-1.26 -1.26,-1.26 h -1.26 c -1.62,0 -1.53,-0.135 -1.53,-1.71 v -5.85 c 0,-2.025 -0.05,-3.87 0.315,-5.58 0.72,-3.375 2.61,-6.03 4.995,-6.03 1.08,0 1.35,0.225 1.35,0.675 0,0.54 -1.035,0.855 -1.035,2.475 0,1.395 1.215,2.295 2.745,2.295 1.575,0 2.79,-1.53 2.79,-3.42 0,-2.61 -2.34,-4.23 -4.86,-4.23 -2.16,0 -3.69,0.765 -4.77,1.98 -1.08,1.17 -1.53,3.87 -1.53,0.405 0,-2.07 -0.135,-1.935 -2.16,-1.935 h -3.51 c -0.855,0 -2.43,-0.405 -2.43,0.585 v 0.81 c 0,1.08 0,1.08 1.08,1.08 h 1.71 c 1.395,0 1.26,0.18 1.26,1.53 v 15.12 c 0,0.945 0.36,1.8 -0.72,1.8 h -2.34 c -1.17,0 -0.99,0.27 -0.99,1.35 0,1.17 0.05,1.125 1.17,1.125 z" />
  </g>
  <g
     id="flowRoot873"
     style="font-style:normal;font-weight:normal;line-height:0.01%;font-family:sans-serif;letter-spacing:0px;word-spacing:0px;fill:#483737;fill-opacity:1;stroke:none;stroke-width:1px;stroke-linecap:butt;stroke-linejoin:miter;stroke-opacity:1"
     transform="translate(129.57817,23.717875)"
     aria-label="HOMEMADE, FROM SCRATCH">
    <path
       id="path12445"
       style="font-style:italic;font-variant:normal;font-weight:500;font-stretch:normal;font-size:45px;line-height:1.25;font-family:'Besley*';-inkscape-font-specification:'Besley* Medium Italic';letter-spacing:9.375px;word-spacing:4.6875px;fill:#483737"
       d="m 256.66227,345.88281 c 1.485,0 0.945,0.63 0.72,1.71 l -2.025,9.36 c -0.18,0.855 0,1.305 -1.125,1.305 h -3.42 c -0.945,0 -0.99,0 -0.99,0.945 v 1.53 c 0,0.945 0.045,0.9 0.99,0.9 h 14.04 c 0.945,0 1.62,0.315 1.62,-0.72 v -1.17 c 0,-1.395 0.045,-1.485 -1.35,-1.485 h -2.25 c -1.845,0 -1.44,-0.36 -1.125,-1.755 l 5.175,-24.12 c 0.225,-0.99 0.135,-1.125 1.35,-1.125 h 3.42 c 1.125,0 0.99,-0.225 0.99,-1.305 v -1.17 c 0,-0.9 0,-0.9 -0.9,-0.9 h -14.58 c -0.675,0 -0.72,-0.045 -0.72,0.63 v 1.71 c 0,0.945 -0.09,1.035 0.9,1.035 h 2.7 c 0.855,0 0.72,0.09 0.585,0.765 l -1.98,9.36 c -0.225,1.08 -0.27,1.125 -1.575,1.125 h -13.95 c -1.035,0 -0.54,-0.675 -0.405,-1.395 l 1.89,-8.82 c 0.225,-0.99 0.27,-1.035 1.485,-1.035 h 3.24 c 1.125,0 1.035,-0.135 1.035,-1.215 v -1.35 c 0,-1.035 -0.36,-0.81 -1.305,-0.81 h -13.41 c -0.9,0 -1.485,-0.27 -1.485,0.72 v 1.53 c 0,0.855 -0.18,1.125 0.765,1.125 h 2.52 c 1.305,0 1.035,0.225 0.81,1.215 l -5.175,24.21 c -0.27,1.26 -0.09,1.575 -1.665,1.575 h -3.15 c -0.765,0 -0.765,0.18 -0.765,0.945 v 1.71 c 0,0.855 0.225,0.72 1.035,0.72 h 14.58 c 1.125,0 1.035,-0.09 1.035,-1.17 v -1.26 c 0,-0.945 -0.315,-0.945 -1.215,-0.945 h -2.565 c -1.71,0 -1.215,-0.495 -0.945,-1.755 l 2.07,-9.63 c 0.225,-1.035 0.36,-0.99 1.62,-0.99 z" />
    <path
       id="path12447"
       style="font-style:italic;font-variant:normal;font-weight:500;font-stretch:normal;font-size:45px;line-height:1.25;font-family:'Besley*';-inkscape-font-specification:'Besley* Medium Italic';letter-spacing:9.375px;word-spacing:4.6875px;fill:#483737"
       d="m 294.87383,362.30781 c 12.285,0 20.7,-10.44 20.7,-20.925 0,-9.135 -4.815,-14.175 -14.4,-14.175 -12.285,0 -20.7,10.44 -20.7,20.925 0,9.135 4.815,14.175 14.4,14.175 z m 6.3,-31.95 c 4.68,0 7.425,3.51 7.425,11.25 0,6.84 -4.995,17.55 -13.725,17.55 -4.68,0 -7.425,-3.51 -7.425,-11.25 0,-6.84 4.995,-17.55 13.725,-17.55 z" />
    <path
       id="path12449"
       style="font-style:italic;font-variant:normal;font-weight:500;font-stretch:normal;font-size:45px;line-height:1.25;font-family:'Besley*';-inkscape-font-specification:'Besley* Medium Italic';letter-spacing:9.375px;word-spacing:4.6875px;fill:#483737"
       d="m 360.15289,334.22781 c 0.135,-0.27 1.26,-2.565 0.675,0.405 -0.135,0.9 -0.405,1.8 -0.54,2.655 l -3.42,19.035 c -0.225,1.125 0.09,1.935 -1.395,1.935 h -2.61 c -1.215,0 -1.08,0.135 -1.08,1.305 v 0.99 c 0,1.44 0.675,1.08 1.98,1.08 h 13.32 c 0.99,0 0.9,-0.135 0.9,-1.08 v -1.53 c 0,-1.08 -0.585,-0.765 -1.53,-0.765 h -2.25 c -2.115,0 -1.845,-0.225 -1.53,-1.935 l 4.14,-23.67 c 0.225,-1.305 0.18,-1.395 1.71,-1.395 h 3.06 c 1.215,0 0.99,-0.36 0.99,-1.485 v -0.63 c 0,-1.26 0,-1.26 -1.26,-1.26 h -9.72 c -2.34,0 -2.385,0.225 -3.15,1.71 l -9.72,18.99 c -0.54,1.035 -1.035,2.16 -1.53,3.24 -0.99,2.115 -1.17,2.745 -1.35,-0.18 -0.045,-1.125 -0.18,-2.115 -0.315,-3.15 l -2.52,-19.08 c -0.225,-1.575 -0.27,-1.53 -2.025,-1.53 h -9.27 c -1.17,0 -1.71,-0.315 -1.71,0.99 v 1.17 1.215 h 4.365 l -6.345,25.02 c -0.36,1.35 -0.09,1.98 -1.935,1.98 h -2.565 c -1.215,0 -1.035,0.225 -1.035,1.35 v 1.08 c 0,1.125 0.27,0.945 1.35,0.945 h 11.205 c 1.215,0 1.395,0.135 1.395,-1.08 v -1.845 c 0,-0.675 -0.45,-0.45 -1.035,-0.45 h -2.61 c -1.8,0 -1.17,-0.585 -0.855,-1.845 l 4.86,-19.8 c 0.135,-0.54 0.225,-1.125 0.36,-1.71 0.45,-2.295 0.585,-1.98 0.81,-0.09 0.09,0.63 0.135,1.305 0.225,1.935 l 3.33,23.58 c 0.18,1.305 0,1.755 1.575,1.755 h 1.62 c 1.53,0 1.53,-0.855 2.025,-1.8 l 12.24,-23.58 c 0.405,-0.81 0.81,-1.665 1.17,-2.475 z" />
    <path
       id="path12451"
       style="font-style:italic;font-variant:normal;font-weight:500;font-stretch:normal;font-size:45px;line-height:1.25;font-family:'Besley*';-inkscape-font-specification:'Besley* Medium Italic';letter-spacing:9.375px;word-spacing:4.6875px;fill:#483737"
       d="m 395.18984,346.33281 c 0.18,-0.855 0.315,-0.81 1.35,-0.81 h 1.26 c 2.97,0 4.185,1.125 4.275,2.97 0.045,0.81 -0.63,1.98 0.495,1.98 h 1.35 c 1.125,0 0.945,-0.495 1.17,-1.35 l 2.385,-10.08 c 0.18,-0.81 0.36,-0.945 -0.675,-0.945 h -1.44 c -0.9,0 -0.81,0.72 -1.08,1.26 -1.08,2.205 -3.15,3.465 -6.48,3.465 -2.295,0 -1.71,-0.54 -1.305,-2.25 l 1.935,-8.55 c 0.225,-0.99 0.765,-0.765 1.89,-0.765 h 7.47 c 4.59,0 5.805,1.44 5.175,5.895 -0.18,1.215 -0.99,2.205 0.855,2.205 h 0.9 c 1.53,0 1.305,-1.395 1.575,-2.565 l 1.665,-7.38 c 0.315,-1.395 0.54,-1.53 -1.26,-1.53 h -28.44 c -0.855,0 -1.215,-0.225 -1.215,0.72 v 1.26 c 0,1.26 -0.09,1.395 1.215,1.395 h 2.52 c 1.305,0 1.575,-0.18 1.305,0.945 l -5.58,24.66 c -0.27,1.17 -0.18,1.395 -1.665,1.395 h -2.79 c -0.855,0 -1.485,-0.27 -1.485,0.675 v 1.35 c 0,1.215 -0.135,1.35 1.125,1.35 h 28.71 c 1.35,0 1.215,-0.315 1.44,-1.35 l 2.475,-10.44 c 0.135,-0.54 -0.045,-0.585 -0.855,-0.585 h -1.26 c -1.08,0 -0.945,0.27 -1.17,1.035 -1.8,6.21 -4.455,7.965 -10.305,7.965 h -6.885 c -1.755,0 -1.215,-0.45 -0.945,-1.755 z" />
    <path
       id="path12453"
       style="font-style:italic;font-variant:normal;font-weight:500;font-stretch:normal;font-size:45px;line-height:1.25;font-family:'Besley*';-inkscape-font-specification:'Besley* Medium Italic';letter-spacing:9.375px;word-spacing:4.6875px;fill:#483737"
       d="m 460.81695,334.22781 c 0.135,-0.27 1.26,-2.565 0.675,0.405 -0.135,0.9 -0.405,1.8 -0.54,2.655 l -3.42,19.035 c -0.225,1.125 0.09,1.935 -1.395,1.935 h -2.61 c -1.215,0 -1.08,0.135 -1.08,1.305 v 0.99 c 0,1.44 0.675,1.08 1.98,1.08 h 13.32 c 0.99,0 0.9,-0.135 0.9,-1.08 v -1.53 c 0,-1.08 -0.585,-0.765 -1.53,-0.765 h -2.25 c -2.115,0 -1.845,-0.225 -1.53,-1.935 l 4.14,-23.67 c 0.225,-1.305 0.18,-1.395 1.71,-1.395 h 3.06 c 1.215,0 0.99,-0.36 0.99,-1.485 v -0.63 c 0,-1.26 0,-1.26 -1.26,-1.26 h -9.72 c -2.34,0 -2.385,0.225 -3.15,1.71 l -9.72,18.99 c -0.54,1.035 -1.035,2.16 -1.53,3.24 -0.99,2.115 -1.17,2.745 -1.35,-0.18 -0.045,-1.125 -0.18,-2.115 -0.315,-3.15 l -2.52,-19.08 c -0.225,-1.575 -0.27,-1.53 -2.025,-1.53 h -9.27 c -1.17,0 -1.71,-0.315 -1.71,0.99 v 1.17 1.215 h 4.365 l -6.345,25.02 c -0.36,1.35 -0.09,1.98 -1.935,1.98 h -2.565 c -1.215,0 -1.035,0.225 -1.035,1.35 v 1.08 c 0,1.125 0.27,0.945 1.35,0.945 h 11.205 c 1.215,0 1.395,0.135 1.395,-1.08 v -1.845 c 0,-0.675 -0.45,-0.45 -1.035,-0.45 h -2.61 c -1.8,0 -1.17,-0.585 -0.855,-1.845 l 4.86,-19.8 c 0.135,-0.54 0.225,-1.125 0.36,-1.71 0.45,-2.295 0.585,-1.98 0.81,-0.09 0.09,0.63 0.135,1.305 0.225,1.935 l 3.33,23.58 c 0.18,1.305 0,1.755 1.575,1.755 h 1.62 c 1.53,0 1.53,-0.855 2.025,-1.8 l 12.24,-23.58 c 0.405,-0.81 0.81,-1.665 1.17,-2.475 z" />
    <path
       id="path12455"
       style="font-style:italic;font-variant:normal;font-weight:500;font-stretch:normal;font-size:45px;line-height:1.25;font-family:'Besley*';-inkscape-font-specification:'Besley* Medium Italic';letter-spacing:9.375px;word-spacing:4.6875px;fill:#483737"
       d="m 506.42539,328.42281 c -0.225,-1.305 -0.405,-1.215 -1.89,-1.215 h -1.08 c -1.035,0 -1.26,-0.045 -1.665,0.585 l -18.315,29.16 c -0.54,0.855 -0.495,1.305 -1.98,1.305 h -3.33 c -1.035,0 -0.99,0.045 -0.99,1.035 v 1.26 c 0,1.125 0.045,1.08 1.17,1.08 h 12.24 c 1.215,0 1.44,0.18 1.44,-1.08 v -1.53 c 0,-0.9 -0.225,-0.765 -1.08,-0.765 h -2.07 c -2.52,0 -1.71,-0.405 -0.855,-1.755 l 1.845,-2.97 c 0.495,-0.855 0.675,-0.9 2.07,-0.9 h 11.79 c 1.08,0 0.945,0.405 1.08,1.26 l 0.495,3.15 c 0.18,1.125 0.315,1.215 -1.035,1.215 h -2.43 c -1.125,0 -0.81,0.585 -0.81,1.575 v 1.17 c 0,0.81 0.315,0.63 1.08,0.63 h 13.5 c 0.855,0 1.17,0.18 1.17,-0.72 v -1.89 c 0,-0.945 -0.27,-0.765 -1.17,-0.765 h -2.52 c -0.99,0 -1.035,-0.045 -1.17,-0.855 z m -6.525,8.91 c 0.315,-0.495 0.63,-1.035 0.9,-1.575 0.63,-1.35 0.765,-1.8 1.08,0.675 l 1.935,11.52 c 0.225,1.305 0.225,1.305 -1.26,1.305 h -8.37 c -1.89,0 -1.575,-0.09 -0.9,-1.215 z" />
    <path
       id="path12457"
       style="font-style:italic;font-variant:normal;font-weight:500;font-stretch:normal;font-size:45px;line-height:1.25;font-family:'Besley*';-inkscape-font-specification:'Besley* Medium Italic';letter-spacing:9.375px;word-spacing:4.6875px;fill:#483737"
       d="m 541.49188,358.25781 c -1.93501,0 -1.30501,-0.63 -0.99,-2.025 l 5.13,-24.12 c 0.22499,-0.99 0.44999,-0.855 1.62,-0.855 h 5.13 c 6.02999,0 7.42499,3.51 7.42499,8.55 0,10.89 -6.79499,18.45 -14.17499,18.45 z m 4.14,3.375 c 10.03499,0 21.15,-7.74 21.15,-20.925 0,-6.435 -3.015,-12.825 -14.4,-12.825 h -17.01 c -0.81001,0 -1.26,-0.225 -1.26,0.63 v 1.53 c 0,1.17 0,1.215 1.17,1.215 h 3.24 c 1.35,0 0.89999,0.45 0.67499,1.395 l -4.905,23.04 c -0.315,1.53 0,2.565 -1.98,2.565 h -2.69999 c -0.90001,0 -1.215,-0.18 -1.215,0.765 v 1.53 c 0,0.855 -0.135,1.08 0.76499,1.08 z" />
    <path
       id="path12459"
       style="font-style:italic;font-variant:normal;font-weight:500;font-stretch:normal;font-size:45px;line-height:1.25;font-family:'Besley*';-inkscape-font-specification:'Besley* Medium Italic';letter-spacing:9.375px;word-spacing:4.6875px;fill:#483737"
       d="m 588.78359,346.33281 c 0.18,-0.855 0.315,-0.81 1.35,-0.81 h 1.26 c 2.97,0 4.185,1.125 4.275,2.97 0.045,0.81 -0.63,1.98 0.495,1.98 h 1.35 c 1.125,0 0.945,-0.495 1.17,-1.35 l 2.385,-10.08 c 0.18,-0.81 0.36,-0.945 -0.675,-0.945 h -1.44 c -0.9,0 -0.81,0.72 -1.08,1.26 -1.08,2.205 -3.15,3.465 -6.48,3.465 -2.295,0 -1.71,-0.54 -1.305,-2.25 l 1.935,-8.55 c 0.225,-0.99 0.765,-0.765 1.89,-0.765 h 7.47 c 4.59,0 5.805,1.44 5.175,5.895 -0.18,1.215 -0.99,2.205 0.855,2.205 h 0.9 c 1.53,0 1.305,-1.395 1.575,-2.565 l 1.665,-7.38 c 0.315,-1.395 0.54,-1.53 -1.26,-1.53 h -28.44 c -0.855,0 -1.215,-0.225 -1.215,0.72 v 1.26 c 0,1.26 -0.09,1.395 1.215,1.395 h 2.52 c 1.305,0 1.575,-0.18 1.305,0.945 l -5.58,24.66 c -0.27,1.17 -0.18,1.395 -1.665,1.395 h -2.79 c -0.855,0 -1.485,-0.27 -1.485,0.675 v 1.35 c 0,1.215 -0.135,1.35 1.125,1.35 h 28.71 c 1.35,0 1.215,-0.315 1.44,-1.35 l 2.475,-10.44 c 0.135,-0.54 -0.045,-0.585 -0.855,-0.585 h -1.26 c -1.08,0 -0.945,0.27 -1.17,1.035 -1.8,6.21 -4.455,7.965 -10.305,7.965 h -6.885 c -1.755,0 -1.215,-0.45 -0.945,-1.755 z" />
    <path
       id="path12461"
       style="font-style:italic;font-variant:normal;font-weight:500;font-stretch:normal;font-size:45px;line-height:1.25;font-family:'Besley*';-inkscape-font-specification:'Besley* Medium Italic';letter-spacing:9.375px;word-spacing:4.6875px;fill:#483737"
       d="m 618.5007,358.88781 c 0,1.935 1.17,3.42 2.88,3.42 0.54,0 1.035,-0.09 1.53,-0.27 0.45,-0.18 0.99,-0.765 0.72,0.09 -0.63,1.98 -3.06,3.735 -5.31,4.185 -0.63,0.135 -1.035,-0.135 -1.035,0.63 v 1.17 c 0,0.675 0.18,0.54 0.765,0.495 4.23,-0.405 8.37,-4.14 8.37,-8.28 0,-3.285 -1.8,-5.13 -4.005,-5.13 -2.16,0 -3.915,1.575 -3.915,3.69 z" />
    <path
       id="path12463"
       style="font-style:italic;font-variant:normal;font-weight:500;font-stretch:normal;font-size:45px;line-height:1.25;font-family:'Besley*';-inkscape-font-specification:'Besley* Medium Italic';letter-spacing:9.375px;word-spacing:4.6875px;fill:#483737"
       d="m 677.65133,347.95281 c 0.27,-1.305 0.18,-1.53 1.8,-1.53 h 1.62 c 2.925,0 3.87,1.08 3.87,2.88 0,0.09 -0.81,2.07 0.72,2.07 h 0.72 c 1.35,0 1.26,-0.18 1.485,-1.26 l 2.475,-10.71 c 0.18,-0.9 0.18,-0.855 -0.9,-0.855 h -0.99 c -1.17,0 -0.99,0.585 -1.35,1.35 -0.99,2.16 -2.745,3.375 -6.03,3.375 h -1.35 c -1.26,0 -0.99,-0.225 -0.765,-1.17 l 2.16,-9.54 c 0.27,-1.26 0.36,-1.305 1.935,-1.305 h 7.56 c 3.6,0 5.085,0.9 5.265,3.465 0.045,0.72 -1.035,4.635 0.405,4.635 h 1.53 c 0.945,0 0.81,-0.585 0.99,-1.305 l 2.115,-9.27 c 0.18,-0.855 0.09,-0.9 -1.125,-0.9 h -29.07 c -0.855,0 -1.305,-0.225 -1.305,0.72 v 1.8 c 0,0.99 0.18,0.855 1.125,0.855 h 2.97 c 1.17,0 1.62,0 1.395,0.945 l -5.535,24.39 c -0.315,1.305 -0.315,1.665 -2.025,1.665 h -2.565 c -0.945,0 -0.945,0 -0.945,0.945 v 1.71 c 0,0.855 0.225,0.72 1.035,0.72 h 13.905 c 0.72,0 1.125,0 1.125,-0.765 v -1.665 c 0,-0.72 -0.09,-0.945 -0.855,-0.945 h -2.295 c -1.575,0 -1.26,-0.765 -0.945,-2.205 z" />
    <path
       id="path12465"
       style="font-style:italic;font-variant:normal;font-weight:500;font-stretch:normal;font-size:45px;line-height:1.25;font-family:'Besley*';-inkscape-font-specification:'Besley* Medium Italic';letter-spacing:9.375px;word-spacing:4.6875px;fill:#483737"
       d="m 722.77953,342.95781 c -1.98,0 -1.935,-0.045 -1.575,-1.665 l 1.8,-8.37 c 0.315,-1.53 0.315,-1.665 2.205,-1.665 h 5.94 c 3.42,0 4.5,1.62 4.5,4.275 0,4.905 -4.23,7.425 -7.65,7.425 z m 20.07,15.345 c 0.585,-1.125 0.63,-1.305 -0.54,-1.8 l -0.63,-0.225 c -1.215,-0.495 -1.125,-0.585 -1.8,0.405 -0.45,0.675 -0.99,1.17 -1.665,1.17 -1.035,0 -1.44,-0.585 -1.44,-1.575 0,-1.665 0.945,-3.645 0.945,-6.165 0,-1.44 -0.63,-3.42 -2.97,-4.41 -2.16,-0.945 -1.665,-1.035 0.675,-1.665 4.095,-1.08 6.525,-4.41 6.525,-8.505 0,-4.95 -3.105,-7.65 -10.8,-7.65 h -16.2 c -0.99,0 -2.205,-0.405 -2.205,0.72 v 1.26 c 0,1.35 -0.045,1.395 1.305,1.395 h 1.53 c 1.8,0 1.395,0.315 1.125,1.665 l -5.04,23.58 c -0.27,1.305 -0.045,1.755 -1.755,1.755 h -2.52 c -0.945,0 -1.395,-0.27 -1.395,0.765 v 1.26 c 0,1.44 0.09,1.35 1.485,1.35 h 12.78 c 1.35,0 1.485,0.135 1.485,-1.26 v -1.44 c 0,-0.99 -0.72,-0.675 -1.575,-0.675 h -1.35 c -1.665,0 -1.08,-0.63 -0.81,-1.845 l 1.845,-8.64 c 0.315,-1.395 0.675,-1.215 2.295,-1.215 h 5.4 c 3.735,0 3.735,1.44 3.735,3.915 0,2.25 -0.81,4.995 -0.81,7.245 0,2.475 1.845,4.365 5.625,4.365 3.33,0 5.49,-1.305 6.75,-3.78 z" />
    <path
       id="path12467"
       style="font-style:italic;font-variant:normal;font-weight:500;font-stretch:normal;font-size:45px;line-height:1.25;font-family:'Besley*';-inkscape-font-specification:'Besley* Medium Italic';letter-spacing:9.375px;word-spacing:4.6875px;fill:#483737"
       d="m 770.94805,362.30781 c 12.285,0 20.7,-10.44 20.7,-20.925 0,-9.135 -4.815,-14.175 -14.4,-14.175 -12.285,0 -20.7,10.44 -20.7,20.925 0,9.135 4.815,14.175 14.4,14.175 z m 6.3,-31.95 c 4.68,0 7.425,3.51 7.425,11.25 0,6.84 -4.995,17.55 -13.725,17.55 -4.68,0 -7.425,-3.51 -7.425,-11.25 0,-6.84 4.995,-17.55 13.725,-17.55 z" />
    <path
       id="path12469"
       style="font-style:italic;font-variant:normal;font-weight:500;font-stretch:normal;font-size:45px;line-height:1.25;font-family:'Besley*';-inkscape-font-specification:'Besley* Medium Italic';letter-spacing:9.375px;word-spacing:4.6875px;fill:#483737"
       d="m 836.22711,334.22781 c 0.135,-0.27 1.26,-2.565 0.675,0.405 -0.135,0.9 -0.405,1.8 -0.54,2.655 l -3.42,19.035 c -0.225,1.125 0.09,1.935 -1.395,1.935 h -2.61 c -1.215,0 -1.08,0.135 -1.08,1.305 v 0.99 c 0,1.44 0.675,1.08 1.98,1.08 h 13.32 c 0.99,0 0.9,-0.135 0.9,-1.08 v -1.53 c 0,-1.08 -0.585,-0.765 -1.53,-0.765 h -2.25 c -2.115,0 -1.845,-0.225 -1.53,-1.935 l 4.14,-23.67 c 0.225,-1.305 0.18,-1.395 1.71,-1.395 h 3.06 c 1.215,0 0.99,-0.36 0.99,-1.485 v -0.63 c 0,-1.26 0,-1.26 -1.26,-1.26 h -9.72 c -2.34,0 -2.385,0.225 -3.15,1.71 l -9.72,18.99 c -0.54,1.035 -1.035,2.16 -1.53,3.24 -0.99,2.115 -1.17,2.745 -1.35,-0.18 -0.045,-1.125 -0.18,-2.115 -0.315,-3.15 l -2.52,-19.08 c -0.225,-1.575 -0.27,-1.53 -2.025,-1.53 h -9.27 c -1.17,0 -1.71,-0.315 -1.71,0.99 v 1.17 1.215 h 4.365 l -6.345,25.02 c -0.36,1.35 -0.09,1.98 -1.935,1.98 h -2.565 c -1.215,0 -1.035,0.225 -1.035,1.35 v 1.08 c 0,1.125 0.27,0.945 1.35,0.945 h 11.205 c 1.215,0 1.395,0.135 1.395,-1.08 v -1.845 c 0,-0.675 -0.45,-0.45 -1.035,-0.45 h -2.61 c -1.8,0 -1.17,-0.585 -0.855,-1.845 l 4.86,-19.8 c 0.135,-0.54 0.225,-1.125 0.36,-1.71 0.45,-2.295 0.585,-1.98 0.81,-0.09 0.09,0.63 0.135,1.305 0.225,1.935 l 3.33,23.58 c 0.18,1.305 0,1.755 1.575,1.755 h 1.62 c 1.53,0 1.53,-0.855 2.025,-1.8 l 12.24,-23.58 c 0.405,-0.81 0.81,-1.665 1.17,-2.475 z" />
    <path
       id="path12471"
       style="font-style:italic;font-variant:normal;font-weight:500;font-stretch:normal;font-size:45px;line-height:1.25;font-family:'Besley*';-inkscape-font-specification:'Besley* Medium Italic';letter-spacing:9.375px;word-spacing:4.6875px;fill:#483737"
       d="m 895.15836,335.98281 c 0,-3.69 3.915,-5.58 7.47,-5.58 5.265,0 7.965,2.52 7.83,6.615 -0.045,0.765 -0.63,1.89 0.45,1.89 h 1.71 c 1.305,0 1.26,-0.135 1.485,-1.17 l 1.935,-9.18 c 0.135,-0.72 -0.135,-0.675 -1.08,-0.675 h -1.26 c -1.215,0 -1.26,0.495 -1.755,1.125 -1.17,1.53 -1.08,0.99 -2.565,0 -1.935,-1.305 -4.32,-2.025 -7.02,-2.025 -7.83,0 -12.915,5.04 -12.915,10.89 0,11.25 17.415,7.515 17.415,15.21 0,2.655 -1.575,6.12 -8.55,6.12 -4.725,0 -9.405,-1.26 -8.955,-7.065 0.09,-0.945 0.81,-1.98 -0.585,-1.98 h -1.53 c -1.17,0 -1.035,0.36 -1.26,1.26 l -2.295,9.27 c -0.27,1.035 -0.495,1.17 0.855,1.17 h 0.99 c 1.26,0 1.485,-0.045 2.025,-0.72 l 0.675,-0.9 c 0.99,-1.26 0.9,-0.585 2.07,0.225 1.755,1.26 4.365,2.07 8.01,2.07 9.045,0 14.4,-4.275 14.4,-11.025 0,-11.7 -17.55,-8.28 -17.55,-15.525 z" />
    <path
       id="path12473"
       style="font-style:italic;font-variant:normal;font-weight:500;font-stretch:normal;font-size:45px;line-height:1.25;font-family:'Besley*';-inkscape-font-specification:'Besley* Medium Italic';letter-spacing:9.375px;word-spacing:4.6875px;fill:#483737"
       d="m 957.1475,350.74281 c 0.315,-0.81 0.99,-1.485 -0.36,-1.485 h -2.07 c -1.17,0 -1.08,0.315 -1.44,1.08 -2.115,4.545 -6.21,8.01 -12.33,8.01 -5.13,0 -8.235,-4.05 -8.235,-10.44 0,-7.875 5.04,-16.83 14.085,-16.83 4.95,0 9.54,2.385 9.765,6.705 0.09,1.215 -0.405,1.575 1.125,1.575 h 1.44 c 1.08,0 0.855,-0.765 1.035,-1.575 l 1.935,-9 c 0.18,-0.855 0.225,-0.9 -0.81,-0.9 h -1.53 c -1.035,0 -1.035,0.27 -1.395,0.9 l -0.72,1.26 c -1.305,2.295 -1.125,1.125 -2.835,-0.225 -1.845,-1.44 -4.5,-2.385 -8.37,-2.385 -12.51,0 -20.7,10.98 -20.7,20.475 0,9.45 5.715,14.175 14.4,14.175 9.63,0 14.76,-5.76 17.01,-11.34 z" />
    <path
       id="path12475"
       style="font-style:italic;font-variant:normal;font-weight:500;font-stretch:normal;font-size:45px;line-height:1.25;font-family:'Besley*';-inkscape-font-specification:'Besley* Medium Italic';letter-spacing:9.375px;word-spacing:4.6875px;fill:#483737"
       d="m 984.90078,342.95781 c -1.755,0 -1.8,0.045 -1.485,-1.395 l 1.89,-8.91 c 0.27,-1.35 0.315,-1.395 1.935,-1.395 h 6.165 c 3.42,0 4.5,1.62 4.5,4.275 0,4.905 -4.23,7.425 -7.65,7.425 z m 16.38002,18.675 c 1.215,0 1.035,-0.225 1.035,-1.35 v -1.26 c 0,-0.945 -0.315,-0.765 -1.215,-0.765 h -1.44002 c -1.035,0 -1.35,-0.585 -1.35,-1.53 0,-1.8 1.215,-3.96 1.215,-6.66 0,-1.53 -0.63,-2.745 -2.07,-3.78 -1.935,-1.395 -2.43,-1.215 -0.225,-1.98 4.36502,-1.53 6.97502,-4.41 6.97502,-8.775 0,-4.95 -3.105,-7.65 -10.80002,-7.65 h -16.695 c -1.26,0 -1.71,-0.27 -1.71,1.08 v 0.99 c 0,1.26 0,1.305 1.26,1.305 h 1.62 c 1.62,0 1.395,0.135 1.125,1.395 l -5.13,24.21 c -0.27,1.35 -0.36,1.395 -2.025,1.395 h -2.34 c -1.215,0 -1.26,0 -1.26,1.215 v 1.35 c 0,0.945 0.18,0.81 1.08,0.81 h 13.41 c 1.215,0 1.26,0.045 1.26,-1.17 v -1.26 c 0,-1.08 -0.225,-0.945 -1.26,-0.945 h -1.44 c -1.62,0 -1.395,-0.135 -1.125,-1.395 l 1.935,-9.09 c 0.27,-1.215 0.315,-1.215 1.8,-1.215 h 5.355 c 2.925,0 3.69,1.305 3.69,3.6 0,2.34 -1.125,5.22 -1.125,7.515 0,2.7 2.43,3.96 6.21,3.96 z" />
    <path
       id="path12477"
       style="font-style:italic;font-variant:normal;font-weight:500;font-stretch:normal;font-size:45px;line-height:1.25;font-family:'Besley*';-inkscape-font-specification:'Besley* Medium Italic';letter-spacing:9.375px;word-spacing:4.6875px;fill:#483737"
       d="m 1043.2906,328.42281 c -0.225,-1.305 -0.405,-1.215 -1.89,-1.215 h -1.08 c -1.035,0 -1.26,-0.045 -1.665,0.585 l -18.315,29.16 c -0.54,0.855 -0.495,1.305 -1.98,1.305 h -3.33 c -1.035,0 -0.99,0.045 -0.99,1.035 v 1.26 c 0,1.125 0.045,1.08 1.17,1.08 h 12.24 c 1.215,0 1.44,0.18 1.44,-1.08 v -1.53 c 0,-0.9 -0.225,-0.765 -1.08,-0.765 h -2.07 c -2.52,0 -1.71,-0.405 -0.855,-1.755 l 1.845,-2.97 c 0.495,-0.855 0.675,-0.9 2.07,-0.9 h 11.79 c 1.08,0 0.945,0.405 1.08,1.26 l 0.495,3.15 c 0.18,1.125 0.315,1.215 -1.035,1.215 h -2.43 c -1.125,0 -0.81,0.585 -0.81,1.575 v 1.17 c 0,0.81 0.315,0.63 1.08,0.63 h 13.5 c 0.855,0 1.17,0.18 1.17,-0.72 v -1.89 c 0,-0.945 -0.27,-0.765 -1.17,-0.765 h -2.52 c -0.99,0 -1.035,-0.045 -1.17,-0.855 z m -6.525,8.91 c 0.315,-0.495 0.63,-1.035 0.9,-1.575 0.63,-1.35 0.765,-1.8 1.08,0.675 l 1.935,11.52 c 0.225,1.305 0.225,1.305 -1.26,1.305 h -8.37 c -1.89,0 -1.575,-0.09 -0.9,-1.215 z" />
    <path
       id="path12479"
       style="font-style:italic;font-variant:normal;font-weight:500;font-stretch:normal;font-size:45px;line-height:1.25;font-family:'Besley*';-inkscape-font-specification:'Besley* Medium Italic';letter-spacing:9.375px;word-spacing:4.6875px;fill:#483737"
       d="m 1084.0313,332.29281 c 0.27,-1.26 0.315,-1.26 1.845,-1.26 h 1.575 c 5.445,0 5.85,1.665 4.86,6.93 -0.225,1.17 -1.035,2.295 0.765,2.295 h 0.99 c 1.44,0 1.17,-1.125 1.44,-2.205 l 2.07,-8.73 c 0.405,-1.665 0.045,-1.44 -1.89,-1.44 h -27.18 c -1.845,0 -2.16,-0.18 -2.52,1.35 l -1.98,8.73 c -0.225,0.945 -0.81,2.295 0.45,2.295 h 1.44 c 1.17,0 1.035,-1.125 1.26,-1.935 1.575,-5.535 3.015,-7.29 8.595,-7.29 2.07,0 2.25,-0.18 1.89,1.62 l -5.085,23.85 c -0.315,1.53 -0.18,1.755 -2.07,1.755 h -2.79 c -1.215,0 -1.215,0 -1.215,1.215 v 1.17 c 0,1.125 0.225,0.99 1.305,0.99 h 14.67 c 1.17,0 1.35,0.135 1.35,-1.08 v -1.53 c 0,-0.99 -0.36,-0.765 -1.26,-0.765 h -2.61 c -1.935,0 -1.305,-0.63 -0.99,-2.025 z" />
    <path
       id="path12481"
       style="font-style:italic;font-variant:normal;font-weight:500;font-stretch:normal;font-size:45px;line-height:1.25;font-family:'Besley*';-inkscape-font-specification:'Besley* Medium Italic';letter-spacing:9.375px;word-spacing:4.6875px;fill:#483737"
       d="m 1137.9971,350.74281 c 0.315,-0.81 0.99,-1.485 -0.36,-1.485 h -2.07 c -1.17,0 -1.08,0.315 -1.44,1.08 -2.115,4.545 -6.21,8.01 -12.33,8.01 -5.13,0 -8.235,-4.05 -8.235,-10.44 0,-7.875 5.04,-16.83 14.085,-16.83 4.95,0 9.54,2.385 9.765,6.705 0.09,1.215 -0.405,1.575 1.125,1.575 h 1.44 c 1.08,0 0.855,-0.765 1.035,-1.575 l 1.935,-9 c 0.18,-0.855 0.225,-0.9 -0.81,-0.9 h -1.53 c -1.035,0 -1.035,0.27 -1.395,0.9 l -0.72,1.26 c -1.305,2.295 -1.125,1.125 -2.835,-0.225 -1.845,-1.44 -4.5,-2.385 -8.37,-2.385 -12.51,0 -20.7,10.98 -20.7,20.475 0,9.45 5.715,14.175 14.4,14.175 9.63,0 14.76,-5.76 17.01,-11.34 z" />
    <path
       id="path12483"
       style="font-style:italic;font-variant:normal;font-weight:500;font-stretch:normal;font-size:45px;line-height:1.25;font-family:'Besley*';-inkscape-font-specification:'Besley* Medium Italic';letter-spacing:9.375px;word-spacing:4.6875px;fill:#483737"
       d="m 1177.9904,345.88281 c 1.485,0 0.945,0.63 0.72,1.71 l -2.025,9.36 c -0.18,0.855 0,1.305 -1.125,1.305 h -3.42 c -0.945,0 -0.99,0 -0.99,0.945 v 1.53 c 0,0.945 0.045,0.9 0.99,0.9 h 14.04 c 0.945,0 1.62,0.315 1.62,-0.72 v -1.17 c 0,-1.395 0.045,-1.485 -1.35,-1.485 h -2.25 c -1.845,0 -1.44,-0.36 -1.125,-1.755 l 5.175,-24.12 c 0.225,-0.99 0.135,-1.125 1.35,-1.125 h 3.42 c 1.125,0 0.99,-0.225 0.99,-1.305 v -1.17 c 0,-0.9 0,-0.9 -0.9,-0.9 h -14.58 c -0.675,0 -0.72,-0.045 -0.72,0.63 v 1.71 c 0,0.945 -0.09,1.035 0.9,1.035 h 2.7 c 0.855,0 0.72,0.09 0.585,0.765 l -1.98,9.36 c -0.225,1.08 -0.27,1.125 -1.575,1.125 h -13.95 c -1.035,0 -0.54,-0.675 -0.405,-1.395 l 1.89,-8.82 c 0.225,-0.99 0.27,-1.035 1.485,-1.035 h 3.24 c 1.125,0 1.035,-0.135 1.035,-1.215 v -1.35 c 0,-1.035 -0.36,-0.81 -1.305,-0.81 h -13.41 c -0.9,0 -1.485,-0.27 -1.485,0.72 v 1.53 c 0,0.855 -0.18,1.125 0.765,1.125 h 2.52 c 1.305,0 1.035,0.225 0.81,1.215 l -5.175,24.21 c -0.27,1.26 -0.09,1.575 -1.665,1.575 h -3.15 c -0.765,0 -0.765,0.18 -0.765,0.945 v 1.71 c 0,0.855 0.225,0.72 1.035,0.72 h 14.58 c 1.125,0 1.035,-0.09 1.035,-1.17 v -1.26 c 0,-0.945 -0.315,-0.945 -1.215,-0.945 h -2.565 c -1.71,0 -1.215,-0.495 -0.945,-1.755 l 2.07,-9.63 c 0.225,-1.035 0.36,-0.99 1.62,-0.99 z" />
  </g>
</svg>
