<?xml version="1.0" encoding="UTF-8" standalone="no"?>
<svg
   xmlns:osb="http://www.openswatchbook.org/uri/2009/osb"
   xmlns:dc="http://purl.org/dc/elements/1.1/"
   xmlns:cc="http://creativecommons.org/ns#"
   xmlns:rdf="http://www.w3.org/1999/02/22-rdf-syntax-ns#"
   xmlns:svg="http://www.w3.org/2000/svg"
   xmlns="http://www.w3.org/2000/svg"
   xmlns:sodipodi="http://sodipodi.sourceforge.net/DTD/sodipodi-0.dtd"
   xmlns:inkscape="http://www.inkscape.org/namespaces/inkscape"
   viewBox="0 0 693.75 600"
   height="640"
   width="740"
   version="1.1"
   id="svg2"
   sodipodi:docname="otoff.svg"
   inkscape:version="0.92.3 (unknown)">
  <sodipodi:namedview
     pagecolor="#ffffff"
     bordercolor="#666666"
     borderopacity="1"
     objecttolerance="10"
     gridtolerance="10"
     guidetolerance="10"
     inkscape:pageopacity="0"
     inkscape:pageshadow="2"
     inkscape:window-width="788"
     inkscape:window-height="480"
     id="namedview47"
     showgrid="false"
     inkscape:zoom="0.34189189"
     inkscape:cx="370"
     inkscape:cy="320"
     inkscape:window-x="518"
     inkscape:window-y="196"
     inkscape:window-maximized="0"
     inkscape:current-layer="svg2" />
  <metadata
     id="metadata8">
    <rdf:RDF>
      <cc:Work
         rdf:about="">
        <dc:format>image/svg+xml</dc:format>
        <dc:type
           rdf:resource="http://purl.org/dc/dcmitype/StillImage" />
        <dc:title />
      </cc:Work>
    </rdf:RDF>
  </metadata>
  <defs
     id="defs6">
    <linearGradient
       osb:paint="solid"
       id="linearGradient5684">
      <stop
         id="stop5686"
         offset="0"
         style="stop-color:#6f5b14;stop-opacity:1;" />
    </linearGradient>
  </defs>
  <g
     id="flowRoot4715"
     style="font-style:italic;font-variant:normal;font-weight:bold;font-stretch:normal;font-size:5.15284014px;line-height:100%;font-family:'Besley*';-inkscape-font-specification:'Besley* Bold Italic';text-align:center;letter-spacing:0px;word-spacing:0px;writing-mode:lr-tb;text-anchor:middle;fill:#588558;fill-opacity:1;stroke:none;stroke-width:1px;stroke-linecap:butt;stroke-linejoin:miter;stroke-opacity:1"
     transform="matrix(31.661337,0,0,31.661337,-24932.099,-16.430287)"
     aria-label="office REAL often">
    <path
       id="path4864"
       style="font-size:5.15284014px;fill:#588558;fill-opacity:1"
       d="m 791.2566,4.0216841 c 0,-0.7935374 0.38646,-1.4427953 0.84507,-1.4427953 0.25249,0 0.32978,0.1855023 0.32978,0.515284 0,0.7935374 -0.38646,1.4427953 -0.84507,1.4427953 -0.25249,0 -0.32978,-0.1855023 -0.32978,-0.515284 z m -0.95327,-0.051528 c 0,0.6183408 0.40192,1.030568 1.18,1.030568 1.08725,0 1.90139,-0.772926 1.90139,-1.8550225 0,-0.6183408 -0.40192,-1.030568 -1.18,-1.030568 -1.08724,0 -1.90139,0.772926 -1.90139,1.8550225 z" />
    <path
       id="path4866"
       style="font-size:5.15284014px;fill:#588558;fill-opacity:1"
       d="m 794.219,2.0532991 c -0.0309,0.1494324 -0.0258,0.1648909 -0.21126,0.1648909 h -0.12367 c -0.13913,0 -0.15974,-0.015458 -0.15974,0.1236682 V 2.475832 c 0,0.1906551 0.0155,0.1803494 0.20096,0.1803494 0.15974,0 0.17004,-0.010306 0.14428,0.128821 l -0.54105,2.7000883 c -0.0258,0.1339738 -0.0361,0.1855022 0.0979,0.1855022 h 0.57711 c 0.19066,0 0.17005,-0.03607 0.20096,-0.1855022 l 0.56166,-2.7103939 c 0.0258,-0.1288211 0.0464,-0.1185154 0.19581,-0.1185154 h 0.44315 c 0.13912,0 0.12882,-0.015458 0.12882,-0.1494323 V 2.3933866 c 0,-0.1597381 0.0155,-0.1751966 -0.14944,-0.1751966 h -0.36069 c -0.1649,0 -0.13398,-0.025764 -0.10821,-0.1545852 0.13397,-0.6595635 0.35554,-0.8759828 0.66471,-0.8759828 0.0876,0 0.16489,0.020611 0.16489,0.051528 0,0.061834 -0.12366,0.2009608 -0.12366,0.386463 0,0.2937119 0.24218,0.4534499 0.48951,0.4534499 0.27826,0 0.58228,-0.2009607 0.58228,-0.6028823 0,-0.3452403 -0.39677,-0.70078622 -1.12332,-0.70078622 -0.82446,0 -1.39642,0.49467262 -1.5304,1.17484752 z" />
    <path
       id="path4868"
       style="font-size:5.15285397px;fill:#588558;fill-opacity:1"
       d="m 796.53376,2.0532915 c -0.0309,0.1494328 -0.0258,0.1648913 -0.21127,0.1648913 h -0.12367 c -0.13913,0 -0.15974,-0.015459 -0.15974,0.1236685 v 0.1339742 c 0,0.1906556 0.0155,0.1803499 0.20096,0.1803499 0.15974,0 0.17005,-0.010306 0.14428,0.1288214 l -0.54105,2.7000954 c -0.0258,0.1339742 -0.0361,0.1855028 0.0979,0.1855028 h 0.57712 c 0.19065,0 0.17004,-0.03607 0.20096,-0.1855028 l 0.56166,-2.7104011 c 0.0258,-0.1288214 0.0464,-0.1185157 0.19581,-0.1185157 h 0.44314 c 0.13913,0 0.12883,-0.015458 0.12883,-0.1494328 V 2.3933799 c 0,-0.1597385 0.0154,-0.1751971 -0.14944,-0.1751971 h -0.3607 c -0.16489,0 -0.13397,-0.025764 -0.10821,-0.1545856 0.13398,-0.6595653 0.35555,-0.8759852 0.66472,-0.8759852 0.0876,0 0.16489,0.020611 0.16489,0.051529 0,0.061834 -0.12367,0.2009613 -0.12367,0.386464 0,0.2937127 0.24219,0.4534512 0.48952,0.4534512 0.27826,0 0.58228,-0.2009613 0.58228,-0.6028839 0,-0.3452413 -0.39677,-0.70078819 -1.12332,-0.70078819 -0.82446,0 -1.39643,0.49467399 -1.5304,1.17485069 z" />
    <path
       id="path4870"
       style="font-size:5.15284014px;fill:#588558;fill-opacity:1"
       d="m 798.92581,1.2906788 c 0,0.2937119 0.23187,0.4895198 0.51528,0.4895198 0.28341,0 0.51528,-0.1958079 0.51528,-0.4895198 0,-0.2937119 -0.23187,-0.48951982 -0.51528,-0.48951982 -0.28341,0 -0.51528,0.19580792 -0.51528,0.48951982 z m 0.75231,1.1800004 C 799.7245,2.2748713 799.79148,2.21819 799.52869,2.21819 h -1.07179 c -0.12882,0 -0.23188,-0.046375 -0.23188,0.097904 v 0.1236681 c 0,0.1855023 -0.0206,0.2164193 0.17004,0.2164193 h 0.1855 c 0.19066,0 0.19066,-0.00515 0.15459,0.1545852 l -0.32978,1.4685595 c -0.0206,0.077293 -0.0412,0.1855022 -0.0412,0.2834062 0,0.3091704 0.20096,0.4379914 0.5462,0.4379914 0.41738,0 0.86052,-0.2370307 1.15423,-0.7677732 0.0721,-0.128821 0.0928,-0.2009608 -0.0309,-0.2421835 l -0.13398,-0.041223 c -0.12882,-0.041223 -0.14428,0.015459 -0.21126,0.1185153 -0.13913,0.2112665 -0.24734,0.3143233 -0.35555,0.3143233 -0.0515,0 -0.0721,-0.015458 -0.0721,-0.07214 0,-0.025764 0.0103,-0.07214 0.0155,-0.1030568 z" />
    <path
       id="path4872"
       style="font-size:5.15284014px;fill:#588558;fill-opacity:1"
       d="m 803.25427,2.9550462 c 0,-0.4740613 -0.41738,-0.839913 -1.09755,-0.839913 -0.93267,0 -1.83957,0.6698692 -1.83957,1.8550225 0,0.8759828 0.64926,1.030568 1.15939,1.030568 0.71625,0 1.10786,-0.4379914 1.36035,-0.8811357 0.0618,-0.1030568 0.0258,-0.1133625 -0.0876,-0.1133625 h -0.23187 c -0.14944,0 -0.14944,0.030917 -0.20612,0.1133625 -0.18035,0.2473364 -0.41223,0.4225329 -0.69563,0.4225329 -0.25249,0 -0.34524,-0.2421835 -0.34524,-0.6234936 0,-0.8450658 0.52044,-1.4324896 0.98934,-1.4324896 0.1752,0 0.29372,0.077293 0.29372,0.1391267 0,0.087598 -0.30402,0.128821 -0.30402,0.4276857 0,0.2937119 0.22672,0.4534499 0.42253,0.4534499 0.27825,0 0.58227,-0.1494323 0.58227,-0.5513538 z" />
    <path
       id="path4874"
       style="font-size:5.15284014px;fill:#588558;fill-opacity:1"
       d="m 805.4113,2.6664871 c 0,0.3710045 -0.32978,0.6183408 -0.76777,0.7317033 -0.21127,0.056681 -0.24734,0.061834 -0.17005,-0.1391267 0.1855,-0.4740613 0.52559,-0.742009 0.77293,-0.742009 0.12882,0 0.16489,0.051528 0.16489,0.1494324 z m -1.07694,1.355197 c 0,-0.1751966 -0.0206,-0.226725 0.15458,-0.2421835 0.72655,-0.07214 1.80349,-0.3143233 1.80349,-1.0563323 0,-0.4225328 -0.34008,-0.6080351 -0.96873,-0.6080351 -1.03572,0 -1.91686,0.6698692 -1.91686,1.8550225 0,0.6698692 0.38647,1.030568 1.06149,1.030568 0.79869,0 1.2676,-0.4173801 1.52524,-0.8605243 0.0773,-0.1339739 0.0258,-0.1339739 -0.12367,-0.1339739 h -0.15458 c -0.17005,0 -0.18551,0.07214 -0.26795,0.1597381 -0.19066,0.2112664 -0.49467,0.3761573 -0.71625,0.3761573 -0.30401,0 -0.39676,-0.2421835 -0.39676,-0.5204368 z" />
    <path
       id="path4876"
       style="font-size:5.15284014px;fill:#588558;fill-opacity:1"
       d="m 793.97464,9.6898125 c 0.13913,-0.1391267 0.15974,-0.159738 0.0103,-0.2937119 L 793.86128,9.287891 c -0.13397,-0.1185153 -0.13913,-0.03607 -0.24734,0.056681 -0.067,0.051528 -0.12882,0.082446 -0.20611,0.082446 -0.11852,0 -0.16489,-0.066987 -0.16489,-0.1803494 0,-0.1391267 0.15974,-0.2782534 0.15974,-0.5668125 0,-0.2112664 -0.15459,-0.3710045 -0.36585,-0.4534499 -0.30917,-0.1185153 -0.26795,-0.1082096 0.0309,-0.2112664 0.47406,-0.1597381 0.8193,-0.4998255 0.8193,-0.9532755 0,-0.6183408 -0.4586,-0.8759828 -1.39126,-0.8759828 h -2.1642 c -0.17519,0 -0.20096,-0.020611 -0.20096,0.1597381 v 0.1751965 c 0,0.2164193 0.0103,0.2061136 0.22158,0.2061136 h 0.17519 c 0.21642,0 0.15974,0.056681 0.12367,0.2164193 l -0.50498,2.3496951 c -0.0361,0.1751966 -0.0155,0.2164193 -0.23703,0.2164193 h -0.1855 c -0.15459,0 -0.15974,0 -0.15974,0.1545852 v 0.2061136 c 0,0.1803491 0,0.1803491 0.18035,0.1803491 h 1.69013 c 0.19581,0 0.19066,-0.0052 0.19066,-0.2009604 V 9.6434369 c 0,-0.1545852 -0.0309,-0.1339738 -0.18035,-0.1339738 h -0.1752 c -0.21642,0 -0.18035,-0.025764 -0.14428,-0.1958079 l 0.15974,-0.7523147 c 0.0361,-0.1700437 0.0515,-0.159738 0.25249,-0.159738 h 0.34009 c 0.42768,0 0.47921,0.2164193 0.47921,0.4998255 0,0.257642 -0.11851,0.3916158 -0.11851,0.6492578 0,0.386463 0.39161,0.4998252 0.77292,0.4998252 0.33494,0 0.66472,-0.066987 0.96358,-0.3606985 z M 791.6301,7.8347901 c -0.24734,0 -0.18035,-0.066987 -0.13913,-0.2524892 l 0.14428,-0.6698692 c 0.0412,-0.2009608 0.0773,-0.1855023 0.31433,-0.1855023 h 0.5462 c 0.28856,0 0.41222,0.1339739 0.41222,0.3349346 0,0.4070744 -0.38131,0.7729261 -0.77292,0.7729261 z" />
    <path
       id="path4878"
       style="font-size:5.15285397px;fill:#588558;fill-opacity:1"
       d="m 795.83603,8.3706809 c 0.0206,-0.1030571 0.0155,-0.1133628 0.14428,-0.1133628 h 0.067 c 0.36585,0 0.49467,0.1133628 0.48952,0.3400884 -0.005,0.1288213 -0.067,0.175197 0.11336,0.175197 h 0.10306 c 0.17519,0 0.15974,-0.051528 0.19065,-0.1855027 L 797.20154,7.48439 c 0.0258,-0.1133627 0.0515,-0.1288213 -0.0979,-0.1288213 h -0.16489 c -0.13913,0 -0.12367,0.1133628 -0.1752,0.1906556 -0.12882,0.211267 -0.3607,0.2988655 -0.71624,0.2988655 -0.10821,0 -0.0721,-0.077293 -0.0515,-0.175197 l 0.17004,-0.7626224 c 0.0412,-0.175197 0.0464,-0.1803499 0.25765,-0.1803499 h 0.71624 c 0.5359,0 0.67503,0.1339742 0.58743,0.6647182 -0.0206,0.1236685 -0.0979,0.211267 0.0773,0.211267 h 0.26795 c 0.11336,0 0.0979,-0.07214 0.11336,-0.1597385 l 0.22673,-1.092405 c 0.0309,-0.1545857 0.0515,-0.1648914 -0.14428,-0.1648914 h -3.4215 c -0.15974,0 -0.1855,-0.020611 -0.1855,0.14428 v 0.2164198 c 0,0.1391271 -0.0258,0.1803499 0.12367,0.1803499 h 0.27825 c 0.1855,0 0.15974,0.015459 0.12882,0.1597385 l -0.5462,2.4218413 c -0.0361,0.1597385 -0.0155,0.2009613 -0.22157,0.2009613 h -0.37101 c -0.12882,0 -0.13397,0.041223 -0.13397,0.1700442 v 0.1958085 c 0,0.1906557 0.0206,0.1751967 0.20611,0.1751967 h 3.33905 c 0.1855,0 0.20096,0.01031 0.23703,-0.1442796 l 0.2731,-1.2366849 c 0.0258,-0.1185157 0.0515,-0.1391271 -0.0979,-0.1391271 h -0.20611 c -0.14428,0 -0.13398,0.025764 -0.1649,0.1339742 -0.20611,0.6956353 -0.51013,0.845068 -1.17485,0.845068 h -0.5462 c -0.1855,0 -0.21127,0.020611 -0.1752,-0.139127 z" />
    <path
       id="path4880"
       style="font-size:5.15284014px;fill:#588558;fill-opacity:1"
       d="m 800.47118,7.159768 c 0.0928,-0.1700437 0.14428,-0.2164193 0.18035,0.010306 0.0412,0.2473363 0.0206,0.2267249 0.0773,0.5565067 l 0.11851,0.6956334 c 0.0206,0.128821 0.0515,0.1597381 -0.10821,0.1597381 h -0.9172 c -0.31432,0 -0.19066,-0.061834 -0.0876,-0.226725 l 0.40707,-0.6492578 c 0.18035,-0.2834063 0.23188,-0.3658517 0.32979,-0.5462011 z m -1.20577,2.890743 c 0.14428,0 0.26795,0.05153 0.26795,-0.1082093 v -0.226725 c 0,-0.1545852 0.0309,-0.2061136 -0.13397,-0.2061136 h -0.16489 c -0.24734,0 -0.23188,0 -0.13398,-0.1545852 l 0.0979,-0.1545852 c 0.0721,-0.1185153 0.0928,-0.128821 0.29371,-0.128821 h 1.30882 c 0.15974,0 0.15458,0.010306 0.17519,0.1442795 l 0.0361,0.1855023 c 0.0206,0.1133624 -0.0309,0.1082096 -0.14943,0.1082096 h -0.30917 c -0.13912,0 -0.14428,0 -0.14428,0.1391267 v 0.257642 c 0,0.1442792 0,0.1442792 0.14428,0.1442792 h 1.85502 c 0.11337,0 0.11337,0 0.11337,-0.1133622 V 9.5867557 c 0,-0.1133625 -0.0928,-0.077293 -0.19581,-0.077293 h -0.14428 c -0.15459,0 -0.12882,-0.046376 -0.15459,-0.1700437 l -0.59257,-3.1123155 c -0.0206,-0.1133624 -0.0206,-0.1185153 -0.15974,-0.1185153 h -0.55651 c -0.17004,0 -0.1855,0.010306 -0.24733,0.1082097 l -1.96324,3.060787 c -0.0876,0.1339738 -0.0876,0.2318778 -0.31947,0.2318778 h -0.15974 c -0.1752,0 -0.19581,-0.020611 -0.19581,0.159738 v 0.226725 c 0,0.1906549 0.0515,0.1545849 0.22673,0.1545849 z" />
    <path
       id="path4882"
       style="font-size:5.15284014px;fill:#588558;fill-opacity:1"
       d="m 806.04373,10.050511 c 0.26795,0 0.26795,-0.01031 0.31432,-0.2267246 l 0.27311,-1.2469874 c 0.0361,-0.1648908 0.0773,-0.2009607 -0.13398,-0.2009607 h -0.13397 c -0.1855,0 -0.18035,0.1185153 -0.22673,0.2627948 -0.19065,0.6183408 -0.43799,0.87083 -1.06148,0.87083 h -0.49467 c -0.26795,0 -0.14428,-0.1648909 -0.10306,-0.355546 l 0.48437,-2.2775553 c 0.0361,-0.1700437 0.0773,-0.1494324 0.27825,-0.1494324 h 0.1752 c 0.1855,0 0.14427,-0.07214 0.14427,-0.2421835 V 6.2786323 c 0,-0.1185153 -0.0464,-0.092751 -0.15458,-0.092751 h -1.73135 c -0.18551,0 -0.20612,-0.015459 -0.20612,0.1751966 v 0.1751965 c 0,0.226725 0.0515,0.1906551 0.26795,0.1906551 h 0.0824 c 0.22158,0 0.19581,0.015458 0.15974,0.1906551 l -0.44314,2.0817474 c -0.0464,0.2112665 -0.0567,0.5101312 -0.32978,0.5101312 h -0.34524 c -0.14428,0 -0.13398,0.010306 -0.13398,0.1494324 V 9.834092 c 0,0.195808 -0.0155,0.216419 0.1855,0.216419 z" />
    <path
       id="path4884"
       style="font-size:5.15284014px;fill:#588558;fill-opacity:1"
       d="m 792.06173,14.327373 c 0,-0.793537 0.38647,-1.442795 0.84507,-1.442795 0.25249,0 0.32978,0.185502 0.32978,0.515284 0,0.793537 -0.38646,1.442795 -0.84506,1.442795 -0.25249,0 -0.32979,-0.185502 -0.32979,-0.515284 z m -0.95327,-0.05153 c 0,0.61834 0.40192,1.030568 1.18,1.030568 1.08725,0 1.9014,-0.772926 1.9014,-1.855023 0,-0.618341 -0.40193,-1.030568 -1.18,-1.030568 -1.08725,0 -1.9014,0.772926 -1.9014,1.855023 z" />
    <path
       id="path4886"
       style="font-size:5.15284014px;fill:#588558;fill-opacity:1"
       d="m 795.02413,12.358988 c -0.0309,0.149432 -0.0258,0.164891 -0.21126,0.164891 h -0.12367 c -0.13913,0 -0.15974,-0.01546 -0.15974,0.123668 v 0.133974 c 0,0.190655 0.0155,0.180349 0.20096,0.180349 0.15974,0 0.17005,-0.0103 0.14428,0.128821 l -0.54105,2.700089 c -0.0258,0.133973 -0.0361,0.185502 0.0979,0.185502 h 0.57711 c 0.19066,0 0.17005,-0.03607 0.20097,-0.185502 l 0.56166,-2.710394 c 0.0258,-0.128821 0.0464,-0.118516 0.1958,-0.118516 h 0.44315 c 0.13912,0 0.12882,-0.01546 0.12882,-0.149432 v -0.113363 c 0,-0.159738 0.0155,-0.175196 -0.14943,-0.175196 h -0.3607 c -0.16489,0 -0.13398,-0.02576 -0.10821,-0.154585 0.13397,-0.659564 0.35554,-0.875983 0.66471,-0.875983 0.0876,0 0.16489,0.02061 0.16489,0.05153 0,0.06183 -0.12366,0.200961 -0.12366,0.386463 0,0.293712 0.24218,0.45345 0.48952,0.45345 0.27825,0 0.58227,-0.200961 0.58227,-0.602882 0,-0.34524 -0.39677,-0.700786 -1.12332,-0.700786 -0.82446,0 -1.39642,0.494672 -1.5304,1.174847 z" />
    <path
       id="path4888"
       style="font-size:5.15285397px;fill:#588558;fill-opacity:1"
       d="m 796.97303,12.961864 c 0.1649,0 0.11852,0.04122 0.0928,0.159739 l -0.38647,1.638607 c -0.0103,0.04638 -0.0155,0.103057 -0.0155,0.14428 0,0.257643 0.19581,0.401923 0.54105,0.401923 0.57712,0 0.97905,-0.32463 1.22123,-0.860527 0.0618,-0.139127 0.0515,-0.133974 -0.10306,-0.170044 l -0.11336,-0.02576 c -0.14428,-0.03092 -0.13913,-0.0052 -0.20096,0.103057 -0.12882,0.231878 -0.24219,0.3607 -0.35555,0.3607 -0.067,0 -0.0927,-0.04122 -0.0927,-0.0979 0,-0.04638 0.005,-0.06699 0.0206,-0.128821 l 0.35555,-1.437646 c 0.0258,-0.09275 0.0412,-0.0876 0.15974,-0.0876 h 0.43284 c 0.14943,0 0.14428,-0.0052 0.14428,-0.149432 v -0.175198 c 0,-0.133974 -0.0309,-0.113362 -0.15459,-0.113362 h -0.32463 c -0.11851,0 -0.11336,-0.04122 -0.0928,-0.123669 l 0.11852,-0.484368 c 0.0206,-0.0876 0.0412,-0.103057 -0.0721,-0.103057 h -0.0721 c -0.0824,0 -0.0515,0.0052 -0.15459,0.08244 -0.0773,0.05668 -0.21642,0.133975 -0.45345,0.154586 -0.11336,0.01031 -0.14943,-0.01031 -0.1752,0.09275 l -0.0515,0.21642 c -0.0258,0.118516 -0.0103,0.164892 -0.16489,0.164892 h -0.29886 c -0.11337,0 -0.0876,0.04122 -0.0876,0.14428 v 0.175197 c 0,0.133974 0.0206,0.118515 0.14943,0.118515 z" />
    <path
       id="path4890"
       style="font-size:5.15284014px;fill:#588558;fill-opacity:1"
       d="m 800.83211,12.972176 c 0,0.371004 -0.32978,0.618341 -0.76777,0.731703 -0.21126,0.05668 -0.24733,0.06183 -0.17004,-0.139126 0.1855,-0.474062 0.52559,-0.742009 0.77292,-0.742009 0.12882,0 0.16489,0.05153 0.16489,0.149432 z m -1.07694,1.355197 c 0,-0.175197 -0.0206,-0.226725 0.15459,-0.242184 0.72655,-0.07214 1.80349,-0.314323 1.80349,-1.056332 0,-0.422533 -0.34009,-0.608035 -0.96873,-0.608035 -1.03572,0 -1.91686,0.669869 -1.91686,1.855023 0,0.669869 0.38646,1.030568 1.06149,1.030568 0.79869,0 1.26759,-0.417381 1.52524,-0.860525 0.0773,-0.133974 0.0258,-0.133974 -0.12367,-0.133974 h -0.15459 c -0.17004,0 -0.1855,0.07214 -0.26795,0.159738 -0.19065,0.211267 -0.49467,0.376158 -0.71624,0.376158 -0.30402,0 -0.39677,-0.242184 -0.39677,-0.520437 z" />
    <path
       id="path4892"
       style="font-size:5.15284014px;fill:#588558;fill-opacity:1"
       d="m 802.158,12.96187 c 0.18551,0 0.14428,0.03607 0.11337,0.175197 l -0.41738,1.793188 c -0.0618,0.278254 -0.0773,0.273101 0.11851,0.273101 h 0.51529 c 0.1958,0 0.20611,-0.103057 0.24733,-0.283406 l 0.0876,-0.381311 c 0.0361,-0.149432 0.067,-0.288559 0.11852,-0.422533 0.22672,-0.592576 0.68532,-1.14393 0.99965,-1.14393 0.1855,0 0.17004,0.200961 0.0773,0.530742 l -0.30917,1.107861 c -0.0206,0.07729 -0.0361,0.170044 -0.0361,0.267948 0,0.257642 0.1855,0.427686 0.53074,0.427686 0.48952,0 0.92751,-0.309171 1.22122,-0.855372 0.0618,-0.113362 0.0309,-0.123668 -0.0721,-0.154585 l -0.15459,-0.04122 c -0.10821,-0.03092 -0.12882,0.02061 -0.1752,0.0979 -0.13912,0.226725 -0.26794,0.334935 -0.38131,0.334935 -0.0567,0 -0.0721,-0.02061 -0.0721,-0.07729 0,-0.02576 0.005,-0.04638 0.0103,-0.07729 l 0.31432,-1.08725 c 0.20612,-0.716245 -0.11336,-1.020262 -0.57196,-1.020262 -0.42769,0 -0.78839,0.206114 -1.05118,0.546201 -0.14943,0.190655 -0.28341,0.407074 -0.16489,0.01031 l 0.0824,-0.267948 c 0.0515,-0.164891 0.0515,-0.190655 -0.14428,-0.190655 h -0.97904 c -0.13397,0 -0.1958,-0.03607 -0.1958,0.10821 v 0.185502 c 0,0.144279 0,0.144279 0.14427,0.144279 z" />
  </g>
  <g
     id="flowRoot4737"
     style="font-style:italic;font-variant:normal;font-weight:bold;font-stretch:normal;font-size:1.33973849px;line-height:100%;font-family:'Besley*';-inkscape-font-specification:'Besley* Bold Italic';text-align:center;letter-spacing:0px;word-spacing:0px;writing-mode:lr-tb;text-anchor:middle;fill:#355635;fill-opacity:1;stroke:none;stroke-width:1px;stroke-linecap:butt;stroke-linejoin:miter;stroke-opacity:1"
     transform="matrix(31.661337,0,0,31.661337,-24932.099,521.95089)"
     aria-label="With Open Type Features Off">
    <path
       id="path4895"
       style="font-style:normal;font-size:1.33973849px;fill:#355635;fill-opacity:1"
       d="m 788.13364,1.485452 c -0.0214,0.05091 -0.0268,0.066987 -0.0442,0.020096 -0.0214,-0.056269 -0.0322,-0.1004804 -0.0496,-0.148711 L 787.93402,1.055396 c -0.0161,-0.046891 -0.0469,-0.0723459 0.0268,-0.0723459 h 0.0402 c 0.0415,0 0.0456,0.002679 0.0456,-0.0401921 v -0.0643075 c 0,-0.0468908 -0.0188,-0.0361729 -0.0616,-0.0361729 h -0.38986 c -0.0415,0 -0.071,-0.0133974 -0.071,0.0321537 v 0.056269 c 0,0.0482306 -0.003,0.0522498 0.0469,0.0522498 h 0.0402 c 0.0576,0 0.0509,0.0200961 0.0657,0.0602882 l 0.27867,0.7676702 c 0.012,0.032154 0.007,0.04957 0.0536,0.04957 h 0.0603 c 0.0683,0 0.0657,-0.016077 0.0844,-0.061628 l 0.14201,-0.3376141 c 0.0415,-0.099141 0.0496,-0.1245956 0.067,-0.168807 0.0268,-0.065647 0.0308,-0.071006 0.0522,0.012058 0.0161,0.060288 0.0147,0.058949 0.0576,0.1728263 l 0.12325,0.3255564 c 0.0147,0.040192 0.009,0.057609 0.0683,0.057609 h 0.0482 c 0.0737,0 0.067,-0.025455 0.0844,-0.077705 l 0.25857,-0.7475741 c 0.0134,-0.0401922 0.0107,-0.0522498 0.067,-0.0522498 h 0.0563 c 0.0389,0 0.0335,-0.006699 0.0335,-0.0442114 v -0.0482306 c 0,-0.0468908 0.001,-0.0482306 -0.0456,-0.0482306 h -0.32154 c -0.059,0 -0.0616,-0.002679 -0.0616,0.056269 v 0.0241153 c 0,0.056269 -0.004,0.0602882 0.0536,0.0602882 0.0898,0 0.0844,0.00134 0.0616,0.0683267 l -0.0924,0.2652682 c -0.0402,0.1138777 -0.0389,0.112538 -0.0576,0.168807 -0.0348,0.1004804 -0.0295,0.091102 -0.0589,-0.020096 -0.012,-0.045551 -0.0147,-0.053589 -0.0402,-0.1326341 l -0.10048,-0.3054603 c -0.0161,-0.0509101 -0.008,-0.0442114 0.0549,-0.0442114 0.0509,0 0.0456,-0.006699 0.0456,-0.056269 v -0.0522498 c 0,-0.0468908 -0.0362,-0.0321537 -0.0777,-0.0321537 h -0.32556 c -0.0509,0 -0.0657,-0.009378 -0.0657,0.0442114 v 0.0401921 c 0,0.0361729 -0.0107,0.056269 0.0295,0.056269 h 0.0281 c 0.0335,0 0.0482,-0.002679 0.0563,0.0200961 l 0.0107,0.028134 c 0.0107,0.028134 0.007,0.037513 -0.005,0.064307 l -0.11656,0.2733067 c -0.0147,0.036173 -0.0308,0.072346 -0.0496,0.1165572 z" />
    <path
       id="path4897"
       style="font-style:normal;font-size:1.33973849px;fill:#355635;fill-opacity:1"
       d="m 789.31931,0.90936447 c 0,0.0696664 0.0603,0.12727513 0.13397,0.12727513 0.0737,0 0.13398,-0.0576087 0.13398,-0.12727513 0,-0.0696664 -0.0603,-0.12727515 -0.13398,-0.12727515 -0.0737,0 -0.13397,0.0576087 -0.13397,0.12727515 z m -0.0147,0.35503073 c 0.0429,0 0.0415,0.00134 0.0415,0.044211 v 0.3670884 c 0,0.04957 0.007,0.057609 -0.0442,0.057609 h -0.0429 c -0.0402,0 -0.0335,0.00938 -0.0335,0.046891 v 0.040192 c 0,0.032154 0.008,0.026795 0.0388,0.026795 h 0.39656 c 0.0362,0 0.0335,-0.00268 0.0335,-0.037513 v -0.040192 c 0,-0.036173 0,-0.036173 -0.0362,-0.036173 h -0.0482 c -0.0442,0 -0.0362,-0.010718 -0.0362,-0.05225 V 1.2067864 c 0,-0.045551 0.008,-0.056269 -0.0415,-0.056269 h -0.24919 c -0.0415,0 -0.0576,-0.00938 -0.0576,0.034833 v 0.042872 c 0,0.038852 0.004,0.036173 0.0415,0.036173 z" />
    <path
       id="path4899"
       style="font-style:normal;font-size:1.33973849px;fill:#355635;fill-opacity:1"
       d="m 790.25196,1.7386626 c 0.0174,-0.034833 0.012,-0.034833 -0.0188,-0.05225 l -0.0281,-0.016077 c -0.0295,-0.016077 -0.0241,-0.00402 -0.0429,0.020096 -0.0187,0.024115 -0.0429,0.042872 -0.0616,0.042872 -0.0322,0 -0.0482,-0.025455 -0.0482,-0.05225 V 1.3019079 c 0,-0.029474 0.005,-0.037513 0.0456,-0.037513 h 0.0831 c 0.0469,0 0.0415,-0.0067 0.0415,-0.05091 v -0.030814 c 0,-0.036173 -0.004,-0.032154 -0.0389,-0.032154 h -0.0871 c -0.0415,0 -0.0442,0.00134 -0.0442,-0.040192 V 0.94955663 c 0,-0.0361729 0.003,-0.0401922 -0.0348,-0.0401922 h -0.0348 c -0.0389,0 -0.0322,0.0133974 -0.0389,0.0428716 -0.0389,0.17148649 -0.11388,0.19560179 -0.20498,0.19828129 -0.0335,0.00134 -0.0389,-0.00402 -0.0389,0.032154 v 0.045551 c 0,0.034833 -0.001,0.036173 0.0335,0.036173 h 0.0496 c 0.0362,0 0.0415,-0.00402 0.0415,0.032154 v 0.4086202 c 0,0.1192368 0.0978,0.1647879 0.20096,0.1647879 0.12996,0 0.19158,-0.062968 0.22642,-0.1312944 z" />
    <path
       id="path4901"
       style="font-style:normal;font-size:1.33973849px;fill:#355635;fill-opacity:1"
       d="m 790.37959,0.91606317 c 0.0429,0 0.0469,-0.002679 0.0469,0.0415319 V 1.6864128 c 0,0.04957 -0.004,0.046891 -0.0522,0.046891 h -0.0322 c -0.0389,0 -0.0362,0.00402 -0.0362,0.041532 v 0.029474 c 0,0.045551 0.003,0.042872 0.0469,0.042872 h 0.35369 c 0.0429,0 0.0415,-0.00134 0.0415,-0.042872 v -0.032154 c 0,-0.034833 0.003,-0.038852 -0.0335,-0.038852 h -0.0161 c -0.0469,0 -0.0442,-0.00402 -0.0442,-0.04957 V 1.4680354 c 0,-0.137993 0.0563,-0.2143581 0.14737,-0.2143581 0.0683,0 0.0871,0.034833 0.0871,0.1205764 v 0.3201975 c 0,0.036173 0.003,0.038852 -0.0348,0.038852 h -0.0268 c -0.0335,0 -0.0322,0.00134 -0.0322,0.033494 v 0.026795 c 0,0.045551 -0.007,0.053589 0.0402,0.053589 h 0.36173 c 0.0389,0 0.0402,0.00134 0.0402,-0.037513 v -0.037513 c 0,-0.032154 0.004,-0.038852 -0.0295,-0.038852 h -0.0509 c -0.0442,0 -0.0402,-0.00402 -0.0402,-0.046891 V 1.3528179 c 0,-0.143352 -0.0603,-0.2290953 -0.21703,-0.2290953 -0.0911,0 -0.15541,0.029474 -0.20096,0.072346 -0.0348,0.033494 -0.0442,0.083064 -0.0442,-0.00804 V 0.85845441 c 0,-0.0522498 0.004,-0.056269 -0.0496,-0.056269 h -0.25187 c -0.0496,0 -0.0469,0.002679 -0.0469,0.0509101 v 0.0241153 c 0,0.0428716 0.005,0.0388524 0.0469,0.0388524 z" />
    <path
       id="path4903"
       style="font-style:normal;font-size:1.33973849px;fill:#355635;fill-opacity:1"
       d="m 791.72801,1.3447795 c 0,0.2853643 0.18355,0.5291967 0.5359,0.5291967 0.33895,0 0.53589,-0.2438324 0.53589,-0.5291967 0,-0.2853643 -0.18354,-0.52919672 -0.53589,-0.52919672 -0.35235,0 -0.5359,0.24383242 -0.5359,0.52919672 z m 0.28135,0 c 0,-0.2438324 0.075,-0.39522287 0.25455,-0.39522287 0.17952,0 0.25455,0.15139047 0.25455,0.39522287 0,0.2438324 -0.0616,0.3952228 -0.25455,0.3952228 -0.17953,0 -0.25455,-0.1513904 -0.25455,-0.3952228 z" />
    <path
       id="path4905"
       style="font-style:normal;font-size:1.33973849px;fill:#355635;fill-opacity:1"
       d="m 792.94533,1.2643952 c 0.0415,0 0.0429,-0.00134 0.0429,0.040192 v 0.7154204 c 0,0.041532 0.005,0.048231 -0.0375,0.048231 h -0.0322 c -0.0429,0 -0.0509,-0.00536 -0.0509,0.038852 v 0.036173 c 0,0.044211 0.007,0.038852 0.0496,0.038852 h 0.37513 c 0.0429,0 0.0442,0 0.0442,-0.042872 v -0.029474 c 0,-0.044211 -0.004,-0.041532 -0.0469,-0.041532 h -0.0362 c -0.0469,0 -0.0375,-0.014737 -0.0375,-0.058949 V 1.7976111 c 0,-0.089762 0.0174,-0.021436 0.0482,0.012058 0.0375,0.040192 0.0898,0.064307 0.16077,0.064307 0.17283,0 0.31082,-0.1339739 0.31082,-0.3751268 0,-0.2411529 -0.1246,-0.373787 -0.29742,-0.373787 -0.0831,0 -0.14068,0.042872 -0.18221,0.096461 -0.0281,0.036173 -0.0402,0.045551 -0.0402,-0.00804 v -0.037513 c 0,-0.030814 -0.008,-0.025455 -0.0362,-0.025455 h -0.26795 c -0.0389,0 -0.0442,-0.00402 -0.0442,0.034833 v 0.025455 c 0,0.041532 -0.008,0.05359 0.0362,0.05359 z m 0.27063,0.2344542 c 0,-0.1259354 0.0496,-0.2384734 0.14469,-0.2384734 0.0858,0 0.13398,0.112538 0.13398,0.2384734 0,0.1259354 -0.0482,0.2384735 -0.13398,0.2384735 -0.0951,0 -0.14469,-0.1125381 -0.14469,-0.2384735 z" />
    <path
       id="path4907"
       style="font-style:normal;font-size:1.33973849px;fill:#355635;fill-opacity:1"
       d="m 794.48938,1.5176057 c 0.0429,0 0.0576,-0.00134 0.0536,-0.057609 -0.009,-0.1607686 -0.071,-0.3362744 -0.33225,-0.3362744 -0.2425,0 -0.38183,0.174166 -0.38183,0.3885242 0,0.1875634 0.12996,0.3617294 0.37245,0.3617294 0.15809,0 0.26795,-0.092442 0.31484,-0.2156979 0.0134,-0.033494 0.008,-0.042872 -0.0268,-0.042872 h -0.0509 c -0.0482,0 -0.0415,0.016077 -0.059,0.044211 -0.0388,0.062968 -0.10316,0.095121 -0.16211,0.095121 -0.0978,0 -0.13397,-0.073686 -0.14335,-0.1902429 -0.004,-0.046891 -0.001,-0.046891 0.0482,-0.046891 z M 794.3112,1.3554974 c 0.007,0.05225 0,0.05091 -0.0549,0.05091 h -0.1179 c -0.063,0 -0.067,-0.00268 -0.0536,-0.056269 0.0174,-0.072346 0.0563,-0.1205764 0.1246,-0.1205764 0.067,0 0.0924,0.053589 0.10182,0.1259354 z" />
    <path
       id="path4909"
       style="font-style:normal;font-size:1.33973849px;fill:#355635;fill-opacity:1"
       d="m 794.74577,1.6756949 c 0,0.048231 0.007,0.057609 -0.0429,0.057609 h -0.0402 c -0.0388,0 -0.0375,0.00134 -0.0375,0.038852 v 0.029474 c 0,0.045551 0,0.045551 0.0456,0.045551 h 0.34297 c 0.0482,0 0.0536,0.00402 0.0536,-0.045551 v -0.034833 c 0,-0.036173 -0.003,-0.033494 -0.0375,-0.033494 h -0.0188 c -0.0482,0 -0.0375,-0.016077 -0.0375,-0.060288 v -0.20498 c 0,-0.137993 0.0563,-0.2143581 0.14737,-0.2143581 0.0683,0 0.0871,0.034833 0.0871,0.1205764 v 0.2826849 c 0,0.048231 0.0147,0.076365 -0.0389,0.076365 h -0.0214 c -0.0362,0 -0.0335,0.00402 -0.0335,0.038852 v 0.029474 c 0,0.05091 0.007,0.045551 0.0549,0.045551 h 0.3403 c 0.0429,0 0.0469,0.00402 0.0469,-0.040192 v -0.034833 c 0,-0.044211 -0.007,-0.038852 -0.0496,-0.038852 h -0.0241 c -0.0509,0 -0.0469,-0.00536 -0.0469,-0.054929 V 1.3528179 c 0,-0.143352 -0.0603,-0.2290953 -0.21704,-0.2290953 -0.1045,0 -0.17282,0.037513 -0.21838,0.091102 -0.0241,0.028135 -0.0402,0.065647 -0.0402,0.010718 v -0.037513 c 0,-0.046891 -0.0147,-0.037513 -0.059,-0.037513 h -0.23311 c -0.0362,0 -0.0429,-0.00536 -0.0429,0.032154 v 0.045551 c 0,0.038852 0.003,0.036173 0.0402,0.036173 h 0.0402 c 0.0429,0 0.0402,0.00268 0.0402,0.044211 z" />
    <path
       id="path4911"
       style="font-style:normal;font-size:1.33973849px;fill:#355635;fill-opacity:1"
       d="m 796.74353,1.8471814 c 0.0389,0 0.0322,-0.00938 0.0322,-0.045551 v -0.064307 c 0,-0.037513 -0.008,-0.030814 -0.0429,-0.030814 h -0.0938 c -0.0389,0 -0.0375,-0.00134 -0.0375,-0.038852 V 1.0138641 c 0,-0.0348332 -0.003,-0.0375127 0.0335,-0.0375127 0.12727,0 0.17684,0.0401922 0.18622,0.1875634 0.003,0.040192 -0.0107,0.060288 0.0375,0.060288 h 0.0643 c 0.0442,0 0.0335,-0.017417 0.0335,-0.057609 V 0.87453127 c 0,-0.0401921 -0.0121,-0.0321537 -0.0496,-0.0321537 h -0.86547 c -0.0389,0 -0.0429,-0.002679 -0.0429,0.0375127 V 1.1692737 c 0,0.041532 -0.009,0.054929 0.0348,0.054929 h 0.0589 c 0.0496,0 0.0389,-0.014737 0.0415,-0.057609 0.009,-0.1500507 0.0576,-0.1902429 0.18623,-0.1902429 0.0375,0 0.0335,0.0133974 0.0335,0.0495703 v 0.6283374 c 0,0.044211 0.007,0.05225 -0.0388,0.05225 h -0.0911 c -0.0442,0 -0.0442,0 -0.0442,0.044211 v 0.058949 c 0,0.041532 0.004,0.037513 0.0442,0.037513 z" />
    <path
       id="path4913"
       style="font-style:normal;font-size:1.33973849px;fill:#355635;fill-opacity:1"
       d="m 797.18749,2.2022121 c 0.0777,0 0.21972,-0.042872 0.28938,-0.2183774 l 0.27197,-0.6832666 c 0.0121,-0.030814 0.0107,-0.036173 0.0563,-0.036173 h 0.0295 c 0.0362,0 0.0322,-0.00402 0.0322,-0.038852 v -0.036173 c 0,-0.036173 0.003,-0.038852 -0.0348,-0.038852 h -0.24115 c -0.0348,0 -0.0522,-0.00938 -0.0522,0.028134 v 0.046891 c 0,0.032154 -0.005,0.038852 0.0281,0.038852 h 0.0295 c 0.0469,0 0.0389,0.00402 0.0268,0.036173 l -0.0804,0.2063197 c -0.0134,0.032154 -0.0241,0.065647 -0.0348,0.1018202 -0.0188,0.062968 -0.0174,0.054929 -0.0375,-0.00268 -0.0107,-0.033494 -0.0228,-0.064308 -0.0362,-0.093782 l -0.0938,-0.2089992 c -0.0121,-0.025455 -0.0295,-0.038852 0.0147,-0.038852 h 0.0429 c 0.0362,0 0.0308,-0.0067 0.0308,-0.041532 v -0.037513 c 0,-0.041532 -0.0107,-0.034833 -0.0496,-0.034833 h -0.33761 c -0.0335,0 -0.0563,-0.010718 -0.0563,0.026795 v 0.040192 c 0,0.036173 -0.007,0.046891 0.0322,0.046891 h 0.0402 c 0.0362,0 0.0348,0.016077 0.0456,0.038852 l 0.26392,0.5600107 c 0.0121,0.025455 0.0214,0.037513 0.0107,0.064307 -0.063,0.1607686 -0.13799,0.1674673 -0.19024,0.1674673 -0.0442,0 -0.0603,-0.021436 -0.0603,-0.038852 0,-0.021436 0.1045,-0.014737 0.1045,-0.1192367 0,-0.054929 -0.0335,-0.112538 -0.12727,-0.112538 -0.0951,0 -0.14202,0.079045 -0.14202,0.1674673 0,0.089763 0.0683,0.2103389 0.22508,0.2103389 z" />
    <path
       id="path4915"
       style="font-style:normal;font-size:1.33973849px;fill:#355635;fill-opacity:1"
       d="m 797.98244,1.2643952 c 0.0415,0 0.0429,-0.00134 0.0429,0.040192 v 0.7154204 c 0,0.041532 0.005,0.048231 -0.0375,0.048231 h -0.0322 c -0.0429,0 -0.0509,-0.00536 -0.0509,0.038852 v 0.036173 c 0,0.044211 0.007,0.038852 0.0496,0.038852 h 0.37513 c 0.0429,0 0.0442,0 0.0442,-0.042872 v -0.029474 c 0,-0.044211 -0.004,-0.041532 -0.0469,-0.041532 h -0.0362 c -0.0469,0 -0.0375,-0.014737 -0.0375,-0.058949 V 1.7976111 c 0,-0.089762 0.0174,-0.021436 0.0482,0.012058 0.0375,0.040192 0.0898,0.064307 0.16077,0.064307 0.17283,0 0.31082,-0.1339739 0.31082,-0.3751268 0,-0.2411529 -0.12459,-0.373787 -0.29742,-0.373787 -0.0831,0 -0.14067,0.042872 -0.1822,0.096461 -0.0281,0.036173 -0.0402,0.045551 -0.0402,-0.00804 v -0.037513 c 0,-0.030814 -0.008,-0.025455 -0.0362,-0.025455 h -0.26795 c -0.0389,0 -0.0442,-0.00402 -0.0442,0.034833 v 0.025455 c 0,0.041532 -0.008,0.05359 0.0362,0.05359 z m 0.27062,0.2344542 c 0,-0.1259354 0.0496,-0.2384734 0.14469,-0.2384734 0.0858,0 0.13398,0.112538 0.13398,0.2384734 0,0.1259354 -0.0482,0.2384735 -0.13398,0.2384735 -0.0951,0 -0.14469,-0.1125381 -0.14469,-0.2384735 z" />
    <path
       id="path4917"
       style="font-style:normal;font-size:1.33973849px;fill:#355635;fill-opacity:1"
       d="m 799.52648,1.5176057 c 0.0429,0 0.0576,-0.00134 0.0536,-0.057609 -0.009,-0.1607686 -0.071,-0.3362744 -0.33225,-0.3362744 -0.24249,0 -0.38183,0.174166 -0.38183,0.3885242 0,0.1875634 0.12996,0.3617294 0.37245,0.3617294 0.15809,0 0.26795,-0.092442 0.31484,-0.2156979 0.0134,-0.033494 0.008,-0.042872 -0.0268,-0.042872 h -0.0509 c -0.0482,0 -0.0415,0.016077 -0.0589,0.044211 -0.0389,0.062968 -0.10316,0.095121 -0.16211,0.095121 -0.0978,0 -0.13398,-0.073686 -0.14335,-0.1902429 -0.004,-0.046891 -0.001,-0.046891 0.0482,-0.046891 z M 799.3483,1.3554974 c 0.007,0.05225 0,0.05091 -0.0549,0.05091 h -0.1179 c -0.063,0 -0.067,-0.00268 -0.0536,-0.056269 0.0174,-0.072346 0.0563,-0.1205764 0.1246,-0.1205764 0.067,0 0.0924,0.053589 0.10182,0.1259354 z" />
    <path
       id="path4919"
       style="font-style:normal;font-size:1.33973849px;fill:#355635;fill-opacity:1"
       d="m 800.17781,0.98305009 c 0.0509,0 0.0482,0.002679 0.0482,0.0522498 v 0.6269976 c 0,0.041532 -0.0161,0.044211 -0.067,0.044211 h -0.0429 c -0.0429,0 -0.0375,0.00804 -0.0375,0.04957 v 0.053589 c 0,0.042872 0.007,0.037513 0.0482,0.037513 h 0.46355 c 0.0415,0 0.0442,0.00134 0.0442,-0.040192 v -0.064307 c 0,-0.045551 -0.0147,-0.036173 -0.0576,-0.036173 h -0.075 c -0.0402,0 -0.0281,-0.026795 -0.0281,-0.062968 V 1.4318625 c 0,-0.037513 0.0389,-0.025455 0.0657,-0.018756 0.063,0.014737 0.10852,0.057609 0.12325,0.1152176 0.008,0.030814 -0.003,0.040192 0.0375,0.040192 h 0.0429 c 0.0348,0 0.0254,-0.017417 0.0254,-0.048231 V 1.1746327 c 0,-0.037513 0.003,-0.041532 -0.0362,-0.041532 h -0.0214 c -0.0563,0 -0.0375,0.017417 -0.0536,0.057609 -0.0241,0.058948 -0.0844,0.096461 -0.16344,0.096461 -0.0201,0 -0.0201,-0.013397 -0.0201,-0.037513 V 1.0567357 c 0,-0.0656472 -0.007,-0.0736856 0.0603,-0.0736856 h 0.16746 c 0.13532,0 0.17551,0.0522498 0.18489,0.16746731 0.004,0.044211 -0.008,0.060288 0.0442,0.060288 h 0.0429 c 0.063,0 0.0496,-0.020096 0.0496,-0.079044 V 0.89060813 c 0,-0.0576088 -0.0121,-0.0482306 -0.0657,-0.0482306 h -0.81188 c -0.0616,0 -0.067,-0.004019 -0.067,0.0589485 v 0.0294742 c 0,0.0482306 -0.004,0.0522498 0.0456,0.0522498 z" />
    <path
       id="path4921"
       style="font-style:normal;font-size:1.33973849px;fill:#355635;fill-opacity:1"
       d="m 801.63814,1.5176057 c 0.0429,0 0.0576,-0.00134 0.0536,-0.057609 -0.009,-0.1607686 -0.071,-0.3362744 -0.33225,-0.3362744 -0.2425,0 -0.38183,0.174166 -0.38183,0.3885242 0,0.1875634 0.12996,0.3617294 0.37245,0.3617294 0.15809,0 0.26795,-0.092442 0.31484,-0.2156979 0.0134,-0.033494 0.008,-0.042872 -0.0268,-0.042872 h -0.0509 c -0.0482,0 -0.0415,0.016077 -0.0589,0.044211 -0.0389,0.062968 -0.10316,0.095121 -0.1621,0.095121 -0.0978,0 -0.13398,-0.073686 -0.14336,-0.1902429 -0.004,-0.046891 -0.001,-0.046891 0.0482,-0.046891 z m -0.17818,-0.1621083 c 0.007,0.05225 0,0.05091 -0.0549,0.05091 h -0.1179 c -0.063,0 -0.067,-0.00268 -0.0536,-0.056269 0.0174,-0.072346 0.0563,-0.1205764 0.1246,-0.1205764 0.067,0 0.0924,0.053589 0.10182,0.1259354 z" />
    <path
       id="path4923"
       style="font-style:normal;font-size:1.33973849px;fill:#355635;fill-opacity:1"
       d="m 802.05396,1.3461192 c 0,-0.064307 -0.0295,-0.076365 -0.0295,-0.093782 0,-0.017417 0.0429,-0.026795 0.075,-0.026795 0.067,0 0.11119,0.046891 0.11119,0.1366533 v 0.04957 c 0,0.042872 -0.001,0.041532 -0.0429,0.041532 -0.28402,0 -0.40058,0.096461 -0.40058,0.2223966 0,0.1259354 0.0884,0.1915826 0.24785,0.1915826 0.079,0 0.14201,-0.020096 0.18756,-0.060288 0.0335,-0.029474 0.0308,-0.028134 0.0509,-0.00268 0.0322,0.038852 0.0924,0.062968 0.15808,0.062968 0.0978,0 0.15407,-0.022776 0.19695,-0.1098586 0.0161,-0.032154 0.0201,-0.040192 -0.0107,-0.057609 l -0.0201,-0.010718 c -0.0322,-0.017417 -0.0322,-0.020096 -0.0496,0.012058 -0.0107,0.021436 -0.0228,0.036173 -0.0415,0.036173 -0.0322,0 -0.0482,-0.032154 -0.0482,-0.058948 V 1.3755935 c 0,-0.1889032 -0.1045,-0.2451722 -0.30546,-0.2451722 -0.17551,0 -0.32556,0.087083 -0.32556,0.2036403 0,0.072346 0.0442,0.1111983 0.11924,0.1111983 0.0723,0 0.12727,-0.040192 0.12727,-0.099141 z m 0.1246,0.1942621 c 0.0241,-0.00134 0.0322,-0.00402 0.0322,0.021436 v 0.025455 c 0,0.095121 -0.0509,0.15407 -0.11521,0.15407 -0.0469,0 -0.0777,-0.033494 -0.0777,-0.083064 0,-0.048231 0.0322,-0.112538 0.16077,-0.117897 z" />
    <path
       id="path4925"
       style="font-style:normal;font-size:1.33973849px;fill:#355635;fill-opacity:1"
       d="m 803.13124,1.7386626 c 0.0174,-0.034833 0.0121,-0.034833 -0.0188,-0.05225 l -0.0281,-0.016077 c -0.0295,-0.016077 -0.0241,-0.00402 -0.0429,0.020096 -0.0188,0.024115 -0.0429,0.042872 -0.0616,0.042872 -0.0322,0 -0.0482,-0.025455 -0.0482,-0.05225 V 1.3019079 c 0,-0.029474 0.005,-0.037513 0.0456,-0.037513 h 0.0831 c 0.0469,0 0.0415,-0.0067 0.0415,-0.05091 v -0.030814 c 0,-0.036173 -0.004,-0.032154 -0.0389,-0.032154 h -0.0871 c -0.0415,0 -0.0442,0.00134 -0.0442,-0.040192 V 0.94955663 c 0,-0.0361729 0.003,-0.0401922 -0.0348,-0.0401922 h -0.0348 c -0.0389,0 -0.0322,0.0133974 -0.0389,0.0428716 -0.0388,0.17148649 -0.11388,0.19560179 -0.20498,0.19828129 -0.0335,0.00134 -0.0389,-0.00402 -0.0389,0.032154 v 0.045551 c 0,0.034833 -0.001,0.036173 0.0335,0.036173 h 0.0496 c 0.0362,0 0.0415,-0.00402 0.0415,0.032154 v 0.4086202 c 0,0.1192368 0.0978,0.1647879 0.20096,0.1647879 0.12996,0 0.19159,-0.062968 0.22642,-0.1312944 z" />
    <path
       id="path4927"
       style="font-style:normal;font-size:1.33973849px;fill:#355635;fill-opacity:1"
       d="m 803.78807,1.5296634 c 0,0.1379931 -0.0563,0.2143582 -0.14737,0.2143582 -0.0683,0 -0.0871,-0.034833 -0.0871,-0.1205765 V 1.1960685 c 0,-0.056269 -0.0147,-0.045551 -0.067,-0.045551 h -0.22508 c -0.0509,0 -0.0563,-0.00402 -0.0563,0.048231 v 0.029474 c 0,0.033494 -0.003,0.036173 0.0322,0.036173 h 0.0482 c 0.0389,0 0.0402,0 0.0402,0.038852 v 0.3416333 c 0,0.143352 0.0603,0.2290953 0.21703,0.2290953 0.10852,0 0.18087,-0.037513 0.22106,-0.099141 0.0188,-0.028134 0.0375,-0.068327 0.0375,-0.00536 v 0.034833 c 0,0.05091 0.0121,0.042872 0.0603,0.042872 h 0.23312 c 0.0389,0 0.0415,0.00268 0.0415,-0.037513 v -0.037513 c 0,-0.041532 -0.004,-0.038852 -0.0442,-0.038852 h -0.0348 c -0.0509,0 -0.0415,-0.013397 -0.0415,-0.060288 V 1.2014275 c 0,-0.061628 -0.0134,-0.05091 -0.071,-0.05091 h -0.20766 c -0.0375,0 -0.0429,0 -0.0429,0.037513 v 0.021436 c 0,0.045551 0,0.054929 0.0362,0.054929 h 0.0134 c 0.0455,0 0.0442,0.00134 0.0442,0.046891 z" />
    <path
       id="path4929"
       style="font-style:normal;font-size:1.33973849px;fill:#355635;fill-opacity:1"
       d="m 804.57768,1.8471814 c 0.0509,0 0.0536,0.00134 0.0536,-0.04957 v -0.026795 c 0,-0.036173 0.001,-0.037513 -0.0348,-0.037513 h -0.0268 c -0.0683,0 -0.059,-0.012058 -0.059,-0.077705 V 1.4948302 c 0,-0.1379931 0.0965,-0.2585695 0.13397,-0.2585695 0.0147,0 0.0201,0.0067 0.0201,0.013397 0,0.016077 -0.0268,0.024115 -0.0268,0.087083 0,0.054929 0.0496,0.095121 0.12192,0.095121 0.0871,0 0.13665,-0.058949 0.13665,-0.1286149 0,-0.1044996 -0.0656,-0.179525 -0.19158,-0.179525 -0.071,0 -0.13129,0.030814 -0.15675,0.075025 -0.0241,0.042872 -0.0375,0.088423 -0.0375,-0.0067 0,-0.044211 -0.003,-0.041532 -0.0455,-0.041532 h -0.25991 c -0.0375,0 -0.0429,0.00402 -0.0429,0.033494 v 0.032154 c 0,0.046891 -0.001,0.048231 0.0455,0.048231 h 0.0295 c 0.0389,0 0.0455,-0.00536 0.0455,0.034833 v 0.3751268 c 0,0.041532 0.0107,0.058948 -0.0348,0.058948 h -0.0429 c -0.0415,0 -0.0429,-0.00134 -0.0429,0.040192 v 0.034833 c 0,0.042872 0.004,0.038852 0.0455,0.038852 z" />
    <path
       id="path4931"
       style="font-style:normal;font-size:1.33973849px;fill:#355635;fill-opacity:1"
       d="m 805.59717,1.5176057 c 0.0429,0 0.0576,-0.00134 0.0536,-0.057609 -0.009,-0.1607686 -0.071,-0.3362744 -0.33225,-0.3362744 -0.24249,0 -0.38183,0.174166 -0.38183,0.3885242 0,0.1875634 0.12996,0.3617294 0.37245,0.3617294 0.15809,0 0.26795,-0.092442 0.31484,-0.2156979 0.0134,-0.033494 0.008,-0.042872 -0.0268,-0.042872 h -0.0509 c -0.0482,0 -0.0415,0.016077 -0.0589,0.044211 -0.0389,0.062968 -0.10316,0.095121 -0.16211,0.095121 -0.0978,0 -0.13398,-0.073686 -0.14335,-0.1902429 -0.004,-0.046891 -0.001,-0.046891 0.0482,-0.046891 z m -0.17818,-0.1621083 c 0.007,0.05225 0,0.05091 -0.0549,0.05091 h -0.1179 c -0.063,0 -0.067,-0.00268 -0.0536,-0.056269 0.0174,-0.072346 0.0563,-0.1205764 0.1246,-0.1205764 0.067,0 0.0924,0.053589 0.10182,0.1259354 z" />
    <path
       id="path4933"
       style="font-style:normal;font-size:1.33973849px;fill:#355635;fill-opacity:1"
       d="m 806.23405,1.3447795 c 0.0161,0.033493 0.003,0.060288 0.0549,0.060288 h 0.0415 c 0.0402,0 0.0348,-0.0067 0.0348,-0.045551 v -0.174166 c 0,-0.038852 0.007,-0.048231 -0.0348,-0.048231 h -0.0241 c -0.0469,0 -0.0509,0.00402 -0.067,0.032154 -0.0281,0.046891 -0.0268,0.017417 -0.067,-0.00804 -0.0362,-0.022776 -0.0871,-0.040192 -0.15541,-0.040192 -0.12727,0 -0.26124,0.071006 -0.26124,0.2103389 0,0.2759861 0.41531,0.2009608 0.41531,0.3577102 0,0.054929 -0.0455,0.071006 -0.12593,0.071006 -0.0724,0 -0.14871,-0.054929 -0.18489,-0.143352 -0.0107,-0.024115 -0.004,-0.041532 -0.0402,-0.041532 h -0.0482 c -0.0322,0 -0.0389,-0.00402 -0.0389,0.029474 v 0.2116787 c 0,0.034833 -0.007,0.044211 0.0308,0.044211 h 0.0415 c 0.0429,0 0.0442,-0.013397 0.063,-0.038852 0.0188,-0.026795 0.0188,-0.018756 0.0456,-0.00134 0.0482,0.030814 0.1112,0.056269 0.18489,0.056269 0.15675,0 0.29072,-0.060288 0.29072,-0.2264158 0,-0.2786656 -0.42202,-0.2130185 -0.42202,-0.3603897 0,-0.036173 0.0469,-0.053589 0.1045,-0.053589 0.0563,0 0.12862,0.037513 0.16211,0.1085188 z" />
    <path
       id="path4935"
       style="font-style:normal;font-size:1.33973849px;fill:#355635;fill-opacity:1"
       d="m 806.87857,1.3447795 c 0,0.2853643 0.18355,0.5291967 0.5359,0.5291967 0.33895,0 0.53589,-0.2438324 0.53589,-0.5291967 0,-0.2853643 -0.18354,-0.52919672 -0.53589,-0.52919672 -0.35235,0 -0.5359,0.24383242 -0.5359,0.52919672 z m 0.28135,0 c 0,-0.2438324 0.075,-0.39522287 0.25455,-0.39522287 0.17952,0 0.25455,0.15139047 0.25455,0.39522287 0,0.2438324 -0.0616,0.3952228 -0.25455,0.3952228 -0.17953,0 -0.25455,-0.1513904 -0.25455,-0.3952228 z" />
    <path
       id="path4937"
       style="font-style:normal;font-size:1.33973849px;fill:#355635;fill-opacity:1"
       d="m 808.38661,1.3059271 c 0,-0.045551 0.004,-0.041532 0.0482,-0.041532 h 0.19025 c 0.0415,0 0.0429,0 0.0429,0.041532 v 0.3804857 c 0,0.032154 0.008,0.046891 -0.0268,0.046891 h -0.0375 c -0.0335,0 -0.0295,0.00402 -0.0295,0.036173 v 0.045551 c 0,0.030814 -0.001,0.032154 0.0295,0.032154 h 0.418 c 0.0362,0 0.0348,-0.00134 0.0348,-0.037513 v -0.037513 c 0,-0.037513 0,-0.038852 -0.0375,-0.038852 h -0.0857 c -0.0415,0 -0.0375,-0.00402 -0.0375,-0.044211 V 1.2978886 c 0,-0.040192 0.0107,-0.033493 0.0482,-0.033493 h 0.10985 c 0.0281,0 0.0295,0 0.0295,-0.028134 v -0.056269 c 0,-0.036173 -0.009,-0.029474 -0.0429,-0.029474 h -0.0884 c -0.0456,0 -0.0563,0.00804 -0.0563,-0.040192 0,-0.17014674 0.0255,-0.23445419 0.13264,-0.23445419 0.0295,0 0.0455,0.0107179 0.0455,0.0214358 0,0.0147371 -0.0402,0.0214358 -0.0402,0.0844035 0,0.0736857 0.0509,0.12459565 0.13397,0.12459565 0.0697,0 0.12996,-0.054929 0.12996,-0.14871094 0,-0.11655725 -0.12326,-0.18220444 -0.29877,-0.18220444 -0.0844,0 -0.15541,0.0227756 -0.21033,0.061628 -0.0469,0.0334935 -0.0415,0.0200961 -0.0965,-0.002679 -0.0522,-0.0214358 -0.11789,-0.0321537 -0.1889,-0.0321537 -0.20096,0 -0.34431,0.10315987 -0.34431,0.27866561 v 0.034833 c 0,0.036173 -0.001,0.034833 -0.0375,0.034833 h -0.0509 c -0.0268,0 -0.0322,-0.00402 -0.0322,0.024115 v 0.05091 c 0,0.034833 -0.004,0.038852 0.0322,0.038852 h 0.0589 c 0.0268,0 0.0295,-0.00268 0.0295,0.025455 v 0.3965626 c 0,0.034833 0.008,0.046891 -0.0295,0.046891 h -0.0563 c -0.0268,0 -0.0348,0 -0.0348,0.028135 v 0.040192 c 0,0.04957 0.005,0.045551 0.0536,0.045551 h 0.39924 c 0.0375,0 0.0295,-0.010718 0.0295,-0.045551 v -0.040192 c 0,-0.038852 -0.0188,-0.028135 -0.0536,-0.028135 h -0.0295 c -0.0576,0 -0.0509,-0.00804 -0.0509,-0.062968 z m 0.0402,-0.1554097 c -0.0402,0 -0.0402,0 -0.0402,-0.040192 0,-0.1165572 0.0389,-0.20765942 0.14604,-0.20765942 0.0295,0 0.0589,0.0107179 0.0589,0.0214358 0,0.0147371 -0.0402,0.0214358 -0.0402,0.0844035 0,0.056269 0.0295,0.084403 0.0817,0.093782 0.0214,0.00402 0.0348,-0.00402 0.0348,0.024115 0,0.026795 -0.004,0.024115 -0.0295,0.024115 z" />
  </g>
</svg>
