<?xml version="1.0" encoding="UTF-8" standalone="no"?>
<svg
   xmlns:dc="http://purl.org/dc/elements/1.1/"
   xmlns:cc="http://creativecommons.org/ns#"
   xmlns:rdf="http://www.w3.org/1999/02/22-rdf-syntax-ns#"
   xmlns:svg="http://www.w3.org/2000/svg"
   xmlns="http://www.w3.org/2000/svg"
   viewBox="0 0 1500 600"
   height="600"
   width="1500"
   version="1.1"
   id="svg2">
  <metadata
     id="metadata8">
    <rdf:RDF>
      <cc:Work
         rdf:about="">
        <dc:format>image/svg+xml</dc:format>
        <dc:type
           rdf:resource="http://purl.org/dc/dcmitype/StillImage" />
        <dc:title></dc:title>
      </cc:Work>
    </rdf:RDF>
  </metadata>
  <defs
     id="defs6" />
  <path
     id="rect3354"
     d="M -4.5456862,-3.5048697 H 1521.2898 V 611.67805 H -4.5456862 Z"
     style="fill:#214478" />
  <g
     id="flowRoot3338"
     style="font-style:normal;font-variant:normal;font-weight:normal;font-stretch:normal;line-height:0.01%;font-family:'Bodoni* 36';-inkscape-font-specification:'Bodoni* 36, ';letter-spacing:0px;word-spacing:0px;fill:#dbdee3;fill-opacity:1;stroke:none;stroke-width:1px;stroke-linecap:butt;stroke-linejoin:miter;stroke-opacity:1"
     transform="matrix(4.0705889,0,0,4.0705889,-62.820696,-265.24336)"
     aria-label="Bodoni* - Book

Bodoni* - Medium

Bodoni* - Bold

Bodoni* - FatFace">
    <path
       id="path839"
       style="font-style:normal;font-variant:normal;font-weight:normal;font-stretch:normal;font-size:30.91540909px;line-height:1.25;font-family:'Bodoni* 36';-inkscape-font-specification:'Bodoni* 36, ';fill:#dbdee3"
       d="m 32.930601,93.721753 c 4.97738,0 8.038006,-1.854924 8.038006,-6.492236 0,-3.648018 -3.02971,-5.162873 -6.832305,-5.441112 3.83351,-0.370984 5.904843,-2.040417 5.904843,-5.533858 0,-4.019003 -3.060626,-5.71935 -7.728853,-5.71935 h -8.965468 v 0.185492 h 2.782387 v 22.815572 h -2.782387 v 0.185492 z M 32.312292,70.720689 c 2.349572,0 4.637312,2.164079 4.637312,5.843012 0,3.678934 -2.28774,5.162874 -4.637312,5.162874 H 29.066174 V 70.720689 Z m 0.309155,11.191378 c 2.658725,0 4.946465,1.638517 4.946465,5.31745 0,3.678934 -2.28774,6.306744 -4.946465,6.306744 H 29.066174 V 81.912067 Z" />
    <path
       id="path841"
       style="font-style:normal;font-variant:normal;font-weight:normal;font-stretch:normal;font-size:30.91540909px;line-height:1.25;font-family:'Bodoni* 36';-inkscape-font-specification:'Bodoni* 36, ';fill:#dbdee3"
       d="m 43.344745,86.611209 c 0,4.019003 2.720556,7.419698 7.079629,7.419698 4.359073,0 7.079629,-3.400695 7.079629,-7.419698 0,-4.019003 -2.720556,-7.419698 -7.079629,-7.419698 -4.359073,0 -7.079629,3.400695 -7.079629,7.419698 z m 3.246118,0 c 0,-2.906048 0.463731,-7.234205 3.833511,-7.234205 3.36978,0 3.833511,4.328157 3.833511,7.234205 0,2.906049 -0.463731,7.234206 -3.833511,7.234206 -3.36978,0 -3.833511,-4.328157 -3.833511,-7.234206 z" />
    <path
       id="path843"
       style="font-style:normal;font-variant:normal;font-weight:normal;font-stretch:normal;font-size:30.91540909px;line-height:1.25;font-family:'Bodoni* 36';-inkscape-font-specification:'Bodoni* 36, ';fill:#dbdee3"
       d="M 75.78419,93.536261 H 73.867435 V 70.535197 h -4.699143 v 0.185492 h 1.916756 V 84.3853 c -0.494647,-3.307949 -2.194994,-5.162873 -4.822804,-5.162873 -3.36978,0 -6.554067,2.751471 -6.554067,7.388782 0,4.637312 3.184287,7.419698 6.554067,7.419698 2.62781,0 4.328157,-1.885839 4.822804,-5.193788 v 4.884634 h 4.699142 z m -4.699142,-6.925052 c 0,4.699142 -1.978586,7.048714 -4.328158,7.048714 -2.596894,0 -3.802595,-2.906049 -3.802595,-7.048714 0,-4.142665 1.205701,-7.017798 3.802595,-7.017798 2.349572,0 4.328158,2.318656 4.328158,7.017798 z" />
    <path
       id="path845"
       style="font-style:normal;font-variant:normal;font-weight:normal;font-stretch:normal;font-size:30.91540909px;line-height:1.25;font-family:'Bodoni* 36';-inkscape-font-specification:'Bodoni* 36, ';fill:#dbdee3"
       d="m 77.037714,86.611209 c 0,4.019003 2.720556,7.419698 7.079628,7.419698 4.359073,0 7.079629,-3.400695 7.079629,-7.419698 0,-4.019003 -2.720556,-7.419698 -7.079629,-7.419698 -4.359072,0 -7.079628,3.400695 -7.079628,7.419698 z m 3.246118,0 c 0,-2.906048 0.463731,-7.234205 3.83351,-7.234205 3.36978,0 3.833511,4.328157 3.833511,7.234205 0,2.906049 -0.463731,7.234206 -3.833511,7.234206 -3.369779,0 -3.83351,-4.328157 -3.83351,-7.234206 z" />
    <path
       id="path847"
       style="font-style:normal;font-variant:normal;font-weight:normal;font-stretch:normal;font-size:30.91540909px;line-height:1.25;font-family:'Bodoni* 36';-inkscape-font-specification:'Bodoni* 36, ';fill:#dbdee3"
       d="m 92.937409,93.536261 v 0.185492 h 6.646813 v -0.185492 h -1.947671 v -6.708644 c 0,-2.844217 0.587393,-7.326952 4.637309,-7.326952 1.73127,0 2.0095,2.102248 2.0095,4.699142 v 9.336454 h -1.91675 v 0.185492 h 6.64681 v -0.185492 h -1.94767 v -9.676523 c 0,-2.689641 -0.83472,-4.668227 -4.38999,-4.668227 -3.6171,0 -4.730055,2.720556 -5.039209,5.348366 v -5.039212 h -4.699142 v 0.185493 h 1.916755 v 13.850103 z" />
    <path
       id="path849"
       style="font-style:normal;font-variant:normal;font-weight:normal;font-stretch:normal;font-size:30.91540909px;line-height:1.25;font-family:'Bodoni* 36';-inkscape-font-specification:'Bodoni* 36, ';fill:#dbdee3"
       d="m 111.56539,72.080967 c 0,1.020209 0.83472,1.854925 1.85493,1.854925 1.02021,0 1.85492,-0.834716 1.85492,-1.854925 0,-1.020208 -0.83471,-1.854925 -1.85492,-1.854925 -1.02021,0 -1.85493,0.834717 -1.85493,1.854925 z m -1.14387,21.455294 v 0.185492 h 6.64682 v -0.185492 h -1.94768 V 79.500665 h -4.69914 v 0.185493 h 1.91676 v 13.850103 z" />
    <path
       id="path851"
       style="font-style:normal;font-variant:normal;font-weight:normal;font-stretch:normal;font-size:30.91540909px;line-height:1.25;font-family:'Bodoni* 36';-inkscape-font-specification:'Bodoni* 36, ';fill:#dbdee3"
       d="m 126.08404,83.612415 c -0.0309,0.216407 -0.0309,0.370985 -0.0309,0.556477 0,1.205701 0.64922,1.88584 1.54577,1.88584 0.89654,0 1.54577,-0.680139 1.54577,-1.88584 0,-0.185492 0,-0.34007 -0.0309,-0.556477 -0.34007,-2.256825 -1.39119,-2.565979 -1.42211,-5.781182 2.81331,1.607601 2.50415,2.689641 4.32816,4.142665 0.18549,0.123662 0.30915,0.185492 0.46373,0.278239 1.05113,0.618308 1.97859,0.4019 2.4114,-0.370985 0.46373,-0.803801 0.1855,-1.700348 -0.86563,-2.287741 -0.15457,-0.09275 -0.27824,-0.185492 -0.49464,-0.247323 -2.13317,-0.865631 -2.90605,-0.09275 -5.71935,-1.669432 2.8133,-1.638517 3.58618,-0.803801 5.75026,-1.669432 0.21641,-0.09275 0.34007,-0.185492 0.49465,-0.278239 1.05112,-0.587392 1.32936,-1.483939 0.86563,-2.256825 -0.43282,-0.8038 -1.36028,-1.020208 -2.4114,-0.4019 -0.15458,0.09275 -0.27824,0.154577 -0.46373,0.309154 -1.7931,1.422109 -1.51486,2.473233 -4.29725,4.11175 0,-3.246118 1.08204,-3.493442 1.42211,-5.812097 0.0309,-0.216408 0.0309,-0.370985 0.0309,-0.556478 0,-1.205701 -0.64923,-1.88584 -1.54577,-1.88584 -0.89655,0 -1.54577,0.680139 -1.54577,1.88584 0,0.185493 0,0.34007 0.0309,0.556478 0.34007,2.256825 1.3912,2.565979 1.42211,5.781181 -2.8133,-1.607601 -2.50415,-2.68964 -4.32816,-4.142665 -0.18549,-0.123661 -0.30915,-0.185492 -0.46373,-0.278238 -1.05112,-0.618308 -1.97858,-0.401901 -2.4114,0.370985 -0.46373,0.8038 -0.18549,1.700347 0.86563,2.28774 0.15458,0.09275 0.27824,0.185492 0.49465,0.247323 2.13316,0.865632 2.90605,0.09275 5.71935,1.669432 -2.8133,1.638517 -3.58619,0.803801 -5.75027,1.669432 -0.2164,0.09275 -0.34007,0.185493 -0.49464,0.278239 -1.05113,0.587393 -1.32937,1.48394 -0.86563,2.256825 0.43281,0.803801 1.36027,1.020208 2.4114,0.4019 0.15458,-0.09275 0.27824,-0.154577 0.46373,-0.309154 1.79309,-1.422109 1.51485,-2.473233 4.29724,-4.111749 0,3.246118 -1.08204,3.493441 -1.42211,5.812097 z" />
    <path
       id="path853"
       style="font-style:normal;font-variant:normal;font-weight:normal;font-stretch:normal;font-size:30.91540909px;line-height:1.25;font-family:'Bodoni* 36';-inkscape-font-specification:'Bodoni* 36, ';fill:#dbdee3"
       d="m 147.03744,85.12727 v 0.185492 h 7.4197 V 85.12727 Z" />
    <path
       id="path855"
       style="font-style:italic"
       d="m 172.21417,93.721753 c 5.28654,0 9.58378,-2.782386 9.58378,-7.419698 0,-2.844217 -2.16408,-4.297242 -5.93576,-4.51365 4.29724,-0.556477 7.63611,-3.43161 7.63611,-6.770474 0,-3.091541 -1.82401,-4.482734 -6.80139,-4.482734 h -8.65632 v 0.185492 h 2.75148 l -5.34837,22.815572 h -2.8133 v 0.185492 z m 4.48274,-23.001064 c 2.65872,0 3.70985,1.854925 3.70985,3.988088 0,4.606396 -3.67894,7.017798 -6.02851,7.017798 h -3.2152 l 2.56598,-11.005886 z m -2.13316,11.191378 c 2.34957,0 3.83351,1.020209 3.83351,3.77168 0,3.988088 -2.44232,7.852514 -6.18309,7.852514 h -3.83351 l 2.72056,-11.624194 z" />
    <path
       id="path857"
       style="font-style:italic"
       d="m 189.37222,94.030907 c 4.66823,0 9.2128,-3.709849 9.2128,-9.583776 0,-4.019004 -2.72056,-5.25562 -5.53386,-5.25562 -4.66823,0 -9.21279,3.709849 -9.21279,9.583777 0,4.019003 2.72055,5.255619 5.53385,5.255619 z m 0,-0.216407 c -1.66943,0 -2.31865,-1.82401 -2.31865,-4.420904 0,-3.833511 2.0095,-9.985677 5.99759,-9.985677 1.66943,0 2.31865,1.824009 2.31865,4.420903 0,3.833511 -2.0095,9.985678 -5.99759,9.985678 z" />
    <path
       id="path859"
       style="font-style:italic"
       d="m 206.03757,94.030907 c 4.66823,0 9.21279,-3.709849 9.21279,-9.583776 0,-4.019004 -2.72056,-5.25562 -5.53386,-5.25562 -4.66822,0 -9.21279,3.709849 -9.21279,9.583777 0,4.019003 2.72056,5.255619 5.53386,5.255619 z m 0,-0.216407 c -1.66943,0 -2.31866,-1.82401 -2.31866,-4.420904 0,-3.833511 2.0095,-9.985677 5.99759,-9.985677 1.66943,0 2.31866,1.824009 2.31866,4.420903 0,3.833511 -2.0095,9.985678 -5.99759,9.985678 z" />
    <path
       id="path861"
       style="font-style:italic"
       d="m 232.06545,88.682542 -0.15457,-0.06183 c -1.02021,2.782387 -2.81331,5.008296 -4.57548,5.008296 -0.40191,0 -0.61831,-0.154577 -0.61831,-0.494646 0,-0.06183 0.0309,-0.216408 0.0309,-0.278239 l 0.68014,-2.875133 c 0.83472,-3.586188 -0.58739,-4.884635 -2.4114,-5.162873 0.34007,-0.587393 0.64922,-1.329363 0.98929,-2.164079 0.83472,-2.071332 1.7931,-3.277033 3.27704,-3.277033 1.26753,0 2.0095,0.834716 2.04041,2.102247 -0.12366,-0.432815 -0.52556,-0.927462 -1.36028,-0.927462 -0.86563,0 -1.48393,0.587393 -1.48393,1.453024 0,1.020209 0.77288,1.545771 1.54577,1.545771 0.77288,0 1.57668,-0.463731 1.57668,-1.854925 0,-1.607601 -0.92746,-2.504148 -2.31865,-2.504148 -1.54577,0 -2.5969,1.267532 -3.46253,3.36978 -0.34007,0.865631 -0.64922,1.638516 -1.02021,2.256825 -0.15458,-0.03092 -0.34007,-0.03092 -0.49464,-0.03092 -0.83472,0 -1.73127,0.123662 -2.41141,0.989293 -0.0927,-0.03092 -0.15457,-0.09275 -0.2164,-0.154577 l 3.49344,-15.086719 h -5.56478 v 0.185492 h 2.75147 l -5.34836,23.001064 h 2.78239 l 1.39119,-5.935758 c 0.0927,-0.463731 0.27824,-1.174786 0.71105,-1.793094 0.30916,0.154577 0.68014,0.247323 1.05113,0.247323 0.83471,0 1.42211,-0.432815 1.91675,-1.14387 1.23662,0.556478 0.37099,2.751472 0.0309,4.297242 l -0.37099,1.700348 c -0.0309,0.185492 -0.0618,0.525562 -0.0618,0.680139 0,1.54577 0.64923,2.256824 2.10225,2.256824 2.50415,0 4.32816,-2.256824 5.50294,-5.348365 z m -7.97617,-3.740765 c 0.21641,0 0.4019,0.03092 0.58739,0.06183 -0.46373,0.649224 -0.98929,1.051124 -1.73126,1.051124 -0.34007,0 -0.64923,-0.06183 -0.92747,-0.185493 0.43282,-0.525561 1.05113,-0.927462 2.07134,-0.927461 z m -2.47324,0.896547 c 0.0618,0.03091 0.0927,0.06183 0.15458,0.09275 -0.0927,0.154577 -0.18549,0.309154 -0.27824,0.494647 z" />
    <path
       id="path863"
       style="font-style:normal;font-variant:normal;font-weight:500;font-stretch:normal;font-size:30.91540909px;line-height:1.25;font-family:'Bodoni* 36';-inkscape-font-specification:'Bodoni* 36 Medium';fill:#dbdee3"
       d="m 33.517993,132.36721 c 5.162874,0 8.28533,-1.7931 8.28533,-6.36858 0,-3.74076 -3.060625,-5.28653 -7.017798,-5.56477 3.957173,-0.37099 6.090336,-2.07133 6.090336,-5.53386 0,-4.019 -3.122457,-5.71935 -7.976176,-5.71935 h -9.583777 v 0.18549 h 2.782387 v 22.81558 h -2.782387 v 0.18549 z m -0.865631,-23.00107 c 2.28774,0 4.389988,2.16408 4.389988,5.84302 0,3.67893 -2.102248,5.16287 -4.389988,5.16287 h -2.875133 v -11.00589 z m 0.309154,11.19138 c 2.596894,0 4.699142,1.63852 4.699142,5.31745 0,3.67894 -2.102248,6.30675 -4.699142,6.30675 h -3.184287 v -11.6242 z" />
    <path
       id="path865"
       style="font-style:normal;font-variant:normal;font-weight:500;font-stretch:normal;font-size:30.91540909px;line-height:1.25;font-family:'Bodoni* 36';-inkscape-font-specification:'Bodoni* 36 Medium';fill:#dbdee3"
       d="m 44.067876,125.25666 c 0,4.01901 2.782387,7.4197 7.265121,7.4197 4.482735,0 7.265121,-3.40069 7.265121,-7.4197 0,-4.019 -2.782386,-7.41969 -7.265121,-7.41969 -4.482734,0 -7.265121,3.40069 -7.265121,7.41969 z m 3.802595,0 c 0,-3.2152 0.525562,-7.2342 3.462526,-7.2342 2.936964,0 3.462526,4.019 3.462526,7.2342 0,3.21521 -0.525562,7.23421 -3.462526,7.23421 -2.936964,0 -3.462526,-4.019 -3.462526,-7.23421 z" />
    <path
       id="path867"
       style="font-style:normal;font-variant:normal;font-weight:500;font-stretch:normal;font-size:30.91540909px;line-height:1.25;font-family:'Bodoni* 36';-inkscape-font-specification:'Bodoni* 36 Medium';fill:#dbdee3"
       d="m 77.428984,132.18172 h -1.978587 v -23.00107 h -5.379281 v 0.18549 h 1.978586 v 13.66461 c -0.494646,-3.30794 -2.194994,-5.16287 -4.822803,-5.16287 -3.36978,0 -6.554067,2.75147 -6.554067,7.38878 0,4.63732 3.184287,7.4197 6.554067,7.4197 2.627809,0 4.328157,-1.88584 4.822803,-5.19379 v 4.88464 h 5.379282 z m -5.379282,-6.92506 c 0,4.69915 -1.94767,6.98689 -4.111749,6.98689 -2.28774,0 -3.338864,-2.72056 -3.338864,-6.98689 0,-4.26632 1.020208,-6.95596 3.307949,-6.95596 2.164078,0 4.142664,2.25682 4.142664,6.95596 z" />
    <path
       id="path869"
       style="font-style:normal;font-variant:normal;font-weight:500;font-stretch:normal;font-size:30.91540909px;line-height:1.25;font-family:'Bodoni* 36';-inkscape-font-specification:'Bodoni* 36 Medium';fill:#dbdee3"
       d="m 78.545802,125.25666 c 0,4.01901 2.782387,7.4197 7.265122,7.4197 4.482734,0 7.265121,-3.40069 7.265121,-7.4197 0,-4.019 -2.782387,-7.41969 -7.265121,-7.41969 -4.482735,0 -7.265122,3.40069 -7.265122,7.41969 z m 3.802596,0 c 0,-3.2152 0.525562,-7.2342 3.462526,-7.2342 2.936963,0 3.462525,4.019 3.462525,7.2342 0,3.21521 -0.525562,7.23421 -3.462525,7.23421 -2.936964,0 -3.462526,-4.019 -3.462526,-7.23421 z" />
    <path
       id="path871"
       style="font-style:normal;font-variant:normal;font-weight:500;font-stretch:normal;font-size:30.91540909px;line-height:1.25;font-family:'Bodoni* 36';-inkscape-font-specification:'Bodoni* 36 Medium';fill:#dbdee3"
       d="m 94.687025,132.18172 v 0.18549 h 7.172375 v -0.18549 h -1.79309 v -6.70865 c 0,-2.84422 0.6183,-7.07963 4.17358,-7.07963 1.54577,0 1.85492,1.76218 1.85492,4.35908 v 9.4292 h -1.79309 v 0.18549 h 7.17237 v -0.18549 h -1.97858 v -9.67653 c 0,-2.68964 -0.89655,-4.66822 -4.38999,-4.66822 -3.6171,0 -4.73006,2.75147 -5.03921,5.37928 v -5.07013 h -5.379285 v 0.18549 h 1.978586 v 13.85011 z" />
    <path
       id="path873"
       style="font-style:normal;font-variant:normal;font-weight:500;font-stretch:normal;font-size:30.91540909px;line-height:1.25;font-family:'Bodoni* 36';-inkscape-font-specification:'Bodoni* 36 Medium';fill:#dbdee3"
       d="m 113.92027,111.03558 c 0,1.2057 0.95838,2.16407 2.16408,2.16407 1.2057,0 2.16408,-0.95837 2.16408,-2.16407 0,-1.20571 -0.95838,-2.16408 -2.16408,-2.16408 -1.2057,0 -2.16408,0.95837 -2.16408,2.16408 z m -1.2057,21.14614 v 0.18549 h 7.35787 v -0.18549 h -1.97859 v -14.0356 h -5.37928 v 0.18549 h 1.97859 v 13.85011 z" />
    <path
       id="path875"
       style="font-style:normal;font-variant:normal;font-weight:500;font-stretch:normal;font-size:30.91540909px;line-height:1.25;font-family:'Bodoni* 36';-inkscape-font-specification:'Bodoni* 36 Medium';fill:#dbdee3"
       d="m 128.55099,122.87618 c -0.0309,0.21641 -0.0309,0.37098 -0.0309,0.55647 0,1.32937 0.83471,2.13317 1.91675,2.13317 1.08204,0 1.91676,-0.8038 1.91676,-2.13317 0,-0.18549 0,-0.34006 -0.0309,-0.55647 -0.34007,-2.28774 -1.73126,-2.72056 -1.79309,-5.99759 2.8133,1.66943 2.50415,3.12245 4.29724,4.54456 0.18549,0.15458 0.30916,0.21641 0.46373,0.30916 1.17479,0.68014 2.28774,0.34007 2.81331,-0.5874 0.55647,-0.92746 0.27823,-2.07133 -0.89655,-2.72055 -0.15458,-0.0927 -0.27824,-0.18549 -0.49465,-0.24732 -2.13316,-0.86564 -3.2152,0.12366 -6.05942,-1.45303 2.84422,-1.57669 3.95717,-0.58739 6.09034,-1.45302 0.2164,-0.0618 0.34007,-0.15458 0.49464,-0.24733 1.17479,-0.64922 1.45303,-1.79309 0.89655,-2.72055 -0.52556,-0.92746 -1.63852,-1.26753 -2.8133,-0.5874 -0.15458,0.0927 -0.27824,0.15458 -0.46373,0.30916 -1.7931,1.42211 -1.48394,2.87513 -4.26633,4.51365 0.0618,-3.24612 1.45302,-3.67894 1.79309,-5.96668 0.0309,-0.2164 0.0309,-0.37098 0.0309,-0.55647 0,-1.32937 -0.83472,-2.13317 -1.91676,-2.13317 -1.08203,0 -1.91675,0.8038 -1.91675,2.13317 0,0.18549 0,0.34007 0.0309,0.55647 0.34007,2.28774 1.73127,2.72056 1.7931,5.99759 -2.8133,-1.66943 -2.50415,-3.12245 -4.29724,-4.54456 -0.1855,-0.15458 -0.30916,-0.21641 -0.46373,-0.30916 -1.17479,-0.68013 -2.28775,-0.34006 -2.81331,0.5874 -0.55647,0.92746 -0.27824,2.07133 0.89655,2.72055 0.15458,0.0927 0.27824,0.1855 0.49465,0.24733 2.13316,0.86563 3.2152,-0.12367 6.05942,1.45302 -2.84422,1.57669 -3.95718,0.58739 -6.09034,1.45303 -0.21641,0.0618 -0.34007,0.15457 -0.49465,0.24732 -1.17478,0.64922 -1.45302,1.79309 -0.89654,2.72055 0.52556,0.92747 1.63851,1.26754 2.8133,0.5874 0.15458,-0.0927 0.27824,-0.15458 0.46373,-0.30916 1.79309,-1.42211 1.48394,-2.87513 4.26633,-4.51365 -0.0618,3.24612 -1.45303,3.67894 -1.7931,5.96668 z" />
    <path
       id="path877"
       style="font-style:normal;font-variant:normal;font-weight:500;font-stretch:normal;font-size:30.91540909px;line-height:1.25;font-family:'Bodoni* 36';-inkscape-font-specification:'Bodoni* 36 Medium';fill:#dbdee3"
       d="m 149.87538,123.77272 v 0.1855 h 7.4197 v -0.1855 z" />
    <path
       id="path879"
       style="font-style:italic"
       d="m 166.05573,132.18172 v 0.18549 h 4.79189 v -0.18549 h -2.44232 l 4.79189,-22.50642 3.55527,23.00106 h 0.21641 l 12.98447,-23.12472 -4.85372,22.63008 h -2.195 v 0.18549 h 8.31625 v -0.18549 h -2.44232 l 4.82281,-22.81558 h 1.94767 v -0.18549 h -5.62661 l -10.17117,18.11643 -2.93696,-18.11643 h -6.12125 v 0.18549 h 2.34957 l -4.8228,22.81558 z" />
    <path
       id="path881"
       style="font-style:italic"
       d="m 197.39333,128.3482 c 0,-0.86563 0.0927,-1.76217 0.24732,-2.62781 3.64802,-0.0618 9.89293,-0.52556 9.89293,-4.79188 0,-2.22591 -2.07133,-3.09154 -4.97738,-3.09154 -4.23541,0 -8.99638,3.74076 -8.99638,9.6456 0,3.70985 2.53506,5.19379 5.2247,5.19379 3.43161,0 6.02851,-2.34957 7.29604,-4.73006 h -0.18549 c -1.23662,2.25683 -3.64802,4.38999 -6.43041,4.38999 -1.70035,0 -2.07133,-1.88584 -2.07133,-3.98809 z m 5.44111,-10.35666 c 1.02021,0 1.29845,1.36028 1.29845,2.68964 0,3.83351 -3.58619,4.69915 -6.43041,4.82281 0.8038,-3.95718 3.09154,-7.51245 5.13196,-7.51245 z" />
    <path
       id="path883"
       style="font-style:italic"
       d="m 220.09103,122.65977 c 0,-2.84422 -0.9893,-4.8228 -3.33887,-4.8228 -3.12245,0 -7.97617,3.40069 -7.97617,9.58377 0,4.01901 2.78238,5.25562 4.91555,5.25562 2.65872,0 4.48273,-2.50415 5.47203,-5.2247 l -0.49465,2.16408 c -0.0309,0.18549 -0.0928,0.52556 -0.0928,0.68014 0,1.66943 0.86563,2.38048 2.50415,2.38048 2.68964,0 4.63731,-2.25682 5.8121,-5.34836 l -0.18549,-0.0618 c -0.95838,2.68964 -2.84422,4.88463 -4.54457,4.88463 -0.4019,0 -0.55648,-0.24732 -0.55648,-0.58739 0,-0.15458 0.0309,-0.37099 0.0618,-0.55648 l 4.91555,-21.82628 h -6.27582 v 0.18549 h 2.87513 l -3.09154,13.54095 c 0,-0.0618 0,-0.15457 0,-0.24732 z m -0.15458,0 c 0,3.40069 -2.13316,9.36737 -5.25562,9.36737 -1.39119,0 -2.07133,-1.51486 -2.07133,-3.8026 0,-4.14266 2.65872,-9.58377 5.25562,-9.58377 1.39119,0 2.07133,1.88584 2.07133,4.019 z" />
    <path
       id="path885"
       style="font-style:italic"
       d="m 232.2746,111.03558 c 0,1.2057 0.92746,2.16407 2.13316,2.16407 1.2057,0 2.195,-0.95837 2.195,-2.16407 0,-1.20571 -0.9893,-2.16408 -2.195,-2.16408 -1.2057,0 -2.13316,0.95837 -2.13316,2.16408 z m 5.07013,16.29242 -0.15458,-0.0618 c -1.02021,2.75147 -2.84422,4.88463 -4.57548,4.88463 -0.4019,0 -0.55648,-0.24732 -0.55648,-0.58739 0,-0.15458 0.0309,-0.37099 0.0618,-0.55648 l 3.06063,-12.86081 h -5.68844 v 0.18549 h 2.25683 l -2.62781,11.28413 c -0.0309,0.18549 -0.0618,0.52556 -0.0618,0.68014 0,1.66943 0.83471,2.38048 2.47323,2.38048 2.68964,0 4.63731,-2.25682 5.8121,-5.34836 z" />
    <path
       id="path887"
       style="font-style:italic"
       d="m 245.20111,118.14612 h -5.62661 v 0.18549 h 2.16408 l -2.16408,9.67653 c -0.55648,2.53506 0.0618,4.66822 3.06063,4.66822 2.96788,0 5.10104,-3.12245 6.4304,-6.98688 l -0.89654,3.92626 c -0.0309,0.18549 -0.0618,0.52556 -0.0618,0.68014 0,1.66943 0.86564,2.38048 2.50415,2.38048 2.68964,0 4.6064,-2.25682 5.78118,-5.34836 l -0.12366,-0.0618 c -0.92746,2.53506 -2.75147,4.88463 -4.60639,4.88463 -0.4019,0 -0.55648,-0.24732 -0.55648,-0.58739 0,-0.15458 0.0309,-0.37099 0.0618,-0.55648 l 2.99879,-12.86081 h -3.40069 l -1.42211,6.27583 c -1.29845,4.45182 -3.74076,7.69793 -5.71935,7.69793 -1.32936,0 -1.29845,-1.6076 -0.74197,-4.04991 z" />
    <path
       id="path889"
       style="font-style:italic"
       d="m 269.62283,132.36721 1.48393,-6.05942 c 1.23662,-4.51365 3.55528,-7.97618 5.75027,-7.97618 1.29845,0 1.08204,2.16408 0.27824,4.54457 l -2.19499,6.46132 c -0.0618,0.24732 -0.15458,0.61831 -0.15458,1.08204 0,1.45302 0.92746,2.25682 2.62781,2.25682 2.68964,0 4.51365,-2.25682 5.68843,-5.34836 l -0.15457,-0.0618 c -0.9893,2.68964 -2.72056,4.97738 -4.57548,4.97738 -0.4019,0 -0.5874,-0.24733 -0.5874,-0.5874 0,-0.15457 0.0309,-0.37098 0.0927,-0.55647 l 2.78239,-8.47083 c 0.86563,-2.65872 0.0927,-4.79188 -2.96788,-4.79188 -2.81331,0 -4.79189,2.84421 -6.09034,6.36857 l 0.43282,-1.70035 c 0.64922,-2.62781 0.15457,-4.66822 -2.90605,-4.66822 -2.84422,0 -4.85372,2.87513 -6.12125,6.4304 l 1.45302,-6.12125 h -5.56477 v 0.18549 h 2.13316 l -3.36978,14.0356 h 3.4007 l 1.48394,-6.214 c 1.23661,-4.48273 3.55527,-7.8216 5.71935,-7.8216 1.29844,0 0.86563,2.07133 0.27824,4.51365 l -2.31866,9.52195 z" />
    <path
       id="path891"
       style="font-style:normal;font-variant:normal;font-weight:bold;font-stretch:normal;font-size:30.91540909px;line-height:1.25;font-family:'Bodoni* 36';-inkscape-font-specification:'Bodoni* 36, ';fill:#dbdee3"
       d="m 34.41454,171.01268 c 5.441112,0 8.656315,-1.70035 8.656315,-6.18308 0,-3.92626 -3.153372,-5.47203 -7.326952,-5.75027 4.17358,-0.37099 6.39949,-2.16408 6.39949,-5.53386 0,-4.019 -3.215203,-5.71935 -8.347161,-5.71935 H 23.284993 v 0.18549 h 2.782387 v 22.81558 h -2.782387 v 0.18549 z m -1.236616,-23.00107 c 2.194994,0 4.019003,2.16408 4.019003,5.84302 0,3.67893 -1.824009,5.16287 -4.019003,5.16287 h -2.349571 v -11.00589 z m 0.309154,11.19138 c 2.504148,0 4.328157,1.63852 4.328157,5.31745 0,3.67894 -1.824009,6.30675 -4.328157,6.30675 h -2.658725 v -11.6242 z" />
    <path
       id="path893"
       style="font-style:normal;font-variant:normal;font-weight:bold;font-stretch:normal;font-size:30.91540909px;line-height:1.25;font-family:'Bodoni* 36';-inkscape-font-specification:'Bodoni* 36, ';fill:#dbdee3"
       d="m 45.243145,163.90213 c 0,4.01901 2.875133,7.4197 7.54336,7.4197 4.668226,0 7.543359,-3.40069 7.543359,-7.4197 0,-4.019 -2.875133,-7.41969 -7.543359,-7.41969 -4.668227,0 -7.54336,3.40069 -7.54336,7.41969 z m 4.637311,0 c 0,-3.67893 0.618308,-7.2342 2.906049,-7.2342 2.28774,0 2.906048,3.55527 2.906048,7.2342 0,3.67894 -0.618308,7.23421 -2.906048,7.23421 -2.287741,0 -2.906049,-3.55527 -2.906049,-7.23421 z" />
    <path
       id="path895"
       style="font-style:normal;font-variant:normal;font-weight:bold;font-stretch:normal;font-size:30.91540909px;line-height:1.25;font-family:'Bodoni* 36';-inkscape-font-specification:'Bodoni* 36, ';fill:#dbdee3"
       d="M 79.955837,170.82719 H 77.91542 v -23.00107 h -6.368575 v 0.18549 h 2.040417 v 13.66461 c -0.494646,-3.30794 -2.164078,-5.16287 -4.822803,-5.16287 -3.36978,0 -6.554067,2.75147 -6.554067,7.38878 0,4.63731 3.184287,7.4197 6.554067,7.4197 2.658725,0 4.328157,-1.85492 4.822803,-5.19379 v 4.88464 h 6.368575 z m -6.368575,-6.92506 c 0,4.69915 -1.916755,6.89414 -3.802595,6.89414 -1.824009,0 -2.62781,-2.4114 -2.62781,-6.89414 0,-4.48273 0.74197,-6.89413 2.565979,-6.89413 1.88584,0 3.864426,2.19499 3.864426,6.89413 z" />
    <path
       id="path897"
       style="font-style:normal;font-variant:normal;font-weight:bold;font-stretch:normal;font-size:30.91540909px;line-height:1.25;font-family:'Bodoni* 36';-inkscape-font-specification:'Bodoni* 36, ';fill:#dbdee3"
       d="m 80.86832,163.90213 c 0,4.01901 2.875133,7.4197 7.54336,7.4197 4.668227,0 7.54336,-3.40069 7.54336,-7.4197 0,-4.019 -2.875133,-7.41969 -7.54336,-7.41969 -4.668227,0 -7.54336,3.40069 -7.54336,7.41969 z m 4.637312,0 c 0,-3.67893 0.618308,-7.2342 2.906048,-7.2342 2.28774,0 2.906049,3.55527 2.906049,7.2342 0,3.67894 -0.618309,7.23421 -2.906049,7.23421 -2.28774,0 -2.906048,-3.55527 -2.906048,-7.23421 z" />
    <path
       id="path899"
       style="font-style:normal;font-variant:normal;font-weight:bold;font-stretch:normal;font-size:30.91540909px;line-height:1.25;font-family:'Bodoni* 36';-inkscape-font-specification:'Bodoni* 36, ';fill:#dbdee3"
       d="m 97.371836,170.82719 v 0.18549 h 7.976174 v -0.18549 h -1.6076 v -6.70865 c 0,-2.87513 0.74197,-6.67773 3.52436,-6.67773 1.29844,0 1.57668,1.2057 1.57668,3.8026 v 9.58378 h -1.57668 v 0.18549 h 7.97617 v -0.18549 h -2.07133 v -9.67653 c 0,-2.68964 -0.95838,-4.66822 -4.38999,-4.66822 -3.58619,0 -4.69914,2.78238 -5.03921,5.47202 v -5.16287 h -6.368574 v 0.18549 h 2.040417 v 13.85011 z" />
    <path
       id="path901"
       style="font-style:normal;font-variant:normal;font-weight:bold;font-stretch:normal;font-size:30.91540909px;line-height:1.25;font-family:'Bodoni* 36';-inkscape-font-specification:'Bodoni* 36, ';fill:#dbdee3"
       d="m 117.57264,150.14478 c 0,1.48394 1.14387,2.62781 2.62781,2.62781 1.48394,0 2.62781,-1.14387 2.62781,-2.62781 0,-1.48394 -1.14387,-2.62781 -2.62781,-2.62781 -1.48394,0 -2.62781,1.14387 -2.62781,2.62781 z m -1.26753,20.68241 v 0.18549 h 8.4399 v -0.18549 h -2.07133 v -14.0356 h -6.36857 v 0.18549 h 2.04041 v 13.85011 z" />
    <path
       id="path903"
       style="font-style:normal;font-variant:normal;font-weight:bold;font-stretch:normal;font-size:30.91540909px;line-height:1.25;font-family:'Bodoni* 36';-inkscape-font-specification:'Bodoni* 36, ';fill:#dbdee3"
       d="m 132.49367,162.44911 c -0.0309,0.21641 -0.0309,0.37098 -0.0309,0.55648 0,1.51485 1.11295,2.50414 2.47323,2.50414 1.36028,0 2.47323,-0.98929 2.47323,-2.50414 0,-0.1855 0,-0.34007 -0.0309,-0.55648 -0.34007,-2.28774 -2.25683,-2.9988 -2.34958,-6.27583 2.81331,1.70035 2.44232,3.74077 4.26633,5.16287 0.18549,0.15458 0.30915,0.21641 0.46373,0.30916 1.29845,0.77288 2.72056,0.30915 3.4007,-0.86563 0.68014,-1.2057 0.37098,-2.65873 -0.92747,-3.4007 -0.15457,-0.0927 -0.27823,-0.18549 -0.49464,-0.24732 -2.13317,-0.86563 -3.74077,0.46373 -6.6159,-1.11296 2.87513,-1.57668 4.48273,-0.24732 6.6159,-1.11295 0.21641,-0.0618 0.34007,-0.15458 0.49464,-0.24732 1.29845,-0.74197 1.60761,-2.195 0.92747,-3.36978 -0.68014,-1.2057 -2.10225,-1.66944 -3.4007,-0.89655 -0.15458,0.0927 -0.27824,0.15458 -0.46373,0.30915 -1.79309,1.42211 -1.45302,3.46253 -4.23541,5.13196 0.0927,-3.24612 2.0095,-3.98809 2.34957,-6.24491 0.0309,-0.21641 0.0309,-0.37099 0.0309,-0.55648 0,-1.51485 -1.11296,-2.50415 -2.47324,-2.50415 -1.36027,0 -2.47323,0.9893 -2.47323,2.50415 0,0.18549 0,0.34007 0.0309,0.55648 0.34007,2.28774 2.25682,2.99879 2.34957,6.27583 -2.81331,-1.70035 -2.44232,-3.74077 -4.26633,-5.16288 -0.18549,-0.15457 -0.30915,-0.2164 -0.46373,-0.30915 -1.29845,-0.77289 -2.72056,-0.30915 -3.4007,0.86563 -0.68013,1.2057 -0.37098,2.65873 0.92747,3.4007 0.15457,0.0927 0.27824,0.18549 0.49464,0.24732 2.13317,0.86563 3.74077,-0.46373 6.58499,1.11295 -2.87514,1.57669 -4.48274,0.24733 -6.6159,1.11296 -0.21641,0.0618 -0.34007,0.15458 -0.49465,0.24732 -1.29845,0.74197 -1.6076,2.195 -0.92746,3.36978 0.68014,1.2057 2.10225,1.66943 3.40069,0.89655 0.15458,-0.0927 0.27824,-0.15458 0.46374,-0.30916 1.824,-1.4221 1.45302,-3.46252 4.26632,-5.16287 -0.0618,3.27703 -2.0095,3.98809 -2.34957,6.27583 z" />
    <path
       id="path905"
       style="font-style:normal;font-variant:normal;font-weight:bold;font-stretch:normal;font-size:30.91540909px;line-height:1.25;font-family:'Bodoni* 36';-inkscape-font-specification:'Bodoni* 36, ';fill:#dbdee3"
       d="m 154.34362,162.41819 v 0.1855 h 7.4197 v -0.1855 z" />
    <path
       id="path907"
       style="font-style:italic"
       d="m 180.35507,171.01268 c 5.44112,0 10.51124,-2.47324 10.51124,-7.11055 0,-3.24611 -2.90605,-4.60639 -6.70864,-4.8228 4.38999,-0.49465 8.43991,-2.87513 8.43991,-6.46132 0,-3.4007 -2.44232,-4.79189 -7.72886,-4.79189 h -9.58377 v 0.18549 h 2.75147 l -5.37928,22.81558 h -2.81331 v 0.18549 z m 4.42091,-23.00107 c 2.04041,0 2.87513,1.70035 2.87513,3.67894 0,4.29724 -2.78239,7.32695 -5.13196,7.32695 h -2.28774 l 2.56598,-11.00589 z m -2.38049,11.19138 c 2.04042,0 3.2152,1.02021 3.2152,3.77168 0,4.29724 -2.28774,7.85252 -5.25562,7.85252 h -2.87513 l 2.72056,-11.6242 z" />
    <path
       id="path909"
       style="font-style:italic"
       d="m 199.04778,171.32183 c 4.82281,0 9.52195,-3.55527 9.52195,-9.4292 0,-3.86442 -3.18429,-5.41019 -6.15217,-5.41019 -4.8228,0 -9.52194,3.55527 -9.52194,9.42919 0,3.86443 3.18428,5.4102 6.15216,5.4102 z m 0,-0.18549 c -1.2057,0 -1.70034,-1.26753 -1.70034,-3.36978 0,-3.83351 2.0095,-11.09863 5.07012,-11.09863 1.2057,0 1.70035,1.26753 1.70035,3.36978 0,3.83351 -2.0095,11.09863 -5.07013,11.09863 z" />
    <path
       id="path911"
       style="font-style:italic"
       d="m 219.33457,165.97347 -0.18549,-0.0618 c -0.98929,2.65873 -2.87513,4.73006 -4.48274,4.73006 -0.4019,0 -0.55647,-0.27824 -0.55647,-0.61831 0,-0.15457 0.0309,-0.37098 0.0618,-0.55647 l 4.97738,-21.64079 h -7.17238 v 0.18549 h 2.84422 l -4.6064,20.0641 c -0.0309,0.1855 -0.0618,0.52557 -0.0618,0.68014 0,1.85493 0.95838,2.56598 2.87514,2.56598 2.96788,0 5.13196,-2.25682 6.30674,-5.34836 z" />
    <path
       id="path913"
       style="font-style:italic"
       d="m 232.07751,161.30524 c 0,-2.84422 -0.95838,-4.8228 -3.30795,-4.8228 -3.18429,0 -8.03801,3.40069 -8.03801,9.58377 0,4.01901 2.78239,5.25562 4.91555,5.25562 2.65873,0 4.48274,-2.50415 5.47203,-5.19379 l -0.46373,1.94767 c -0.0309,0.1855 -0.0927,0.52557 -0.0927,0.68014 0,1.85493 0.9893,2.56598 2.90605,2.56598 2.96788,0 5.13196,-2.25682 6.30675,-5.34836 l -0.1855,-0.0618 c -0.89654,2.53507 -2.84421,4.73006 -4.51365,4.73006 -0.43281,0 -0.55647,-0.27824 -0.55647,-0.61831 0,-0.15457 0.0309,-0.37098 0.0618,-0.55647 l 4.94646,-21.64079 h -7.2342 v 0.18549 h 2.90605 l -3.12246,13.41729 c 0,-0.0309 0,-0.0927 0,-0.12366 z m -0.15458,0 c 0,3.33886 -2.07133,8.99638 -4.73005,8.99638 -1.11296,0 -1.70035,-1.26753 -1.70035,-3.18428 0,-4.14267 2.53506,-9.52195 4.66822,-9.52195 1.20571,0 1.76218,1.76218 1.76218,3.70985 z" />
    <path
       id="path915"
       style="font-style:normal;font-variant:normal;font-weight:900;font-stretch:normal;font-size:30.91540909px;line-height:1.25;font-family:'Bodoni* 36';-inkscape-font-specification:'Bodoni* 36 Heavy';fill:#dbdee3"
       d="m 35.867564,209.65814 c 5.904844,0 9.274623,-1.54577 9.274623,-5.87393 0,-4.20449 -3.277033,-5.8121 -7.852514,-6.05942 4.575481,-0.4019 6.925052,-2.28774 6.925052,-5.53386 0,-4.019 -3.36978,-5.71935 -8.965469,-5.71935 H 23.192247 v 0.1855 h 2.782387 v 22.81557 h -2.782387 v 0.18549 z M 34.01264,186.65708 c 2.040417,0 3.400695,2.16407 3.400695,5.84301 0,3.67893 -1.360278,5.16287 -3.400695,5.16287 h -1.391193 v -11.00588 z m 0.309154,11.19137 c 2.349571,0 3.709849,1.63852 3.709849,5.31745 0,3.67894 -1.360278,6.30675 -3.709849,6.30675 h -1.700347 v -11.6242 z" />
    <path
       id="path917"
       style="font-style:normal;font-variant:normal;font-weight:900;font-stretch:normal;font-size:30.91540909px;line-height:1.25;font-family:'Bodoni* 36';-inkscape-font-specification:'Bodoni* 36 Heavy';fill:#dbdee3"
       d="m 47.201927,202.5476 c 0,4.019 3.02971,7.41969 8.007091,7.41969 4.977381,0 8.007091,-3.40069 8.007091,-7.41969 0,-4.01901 -3.02971,-7.4197 -8.007091,-7.4197 -4.977381,0 -8.007091,3.40069 -8.007091,7.4197 z m 6.028505,0 c 0,-4.45182 0.772885,-7.23421 1.978586,-7.23421 1.205701,0 1.978586,2.78239 1.978586,7.23421 0,4.45181 -0.772885,7.2342 -1.978586,7.2342 -1.205701,0 -1.978586,-2.78239 -1.978586,-7.2342 z" />
    <path
       id="path919"
       style="font-style:normal;font-variant:normal;font-weight:900;font-stretch:normal;font-size:30.91540909px;line-height:1.25;font-family:'Bodoni* 36';-inkscape-font-specification:'Bodoni* 36 Heavy';fill:#dbdee3"
       d="m 84.187866,209.47265 h -2.164078 v -23.00107 h -8.038007 v 0.1855 h 2.164079 v 13.63369 c -0.494647,-3.30795 -2.133163,-5.13196 -4.822804,-5.13196 -3.36978,0 -6.554067,2.75147 -6.554067,7.38879 0,4.63731 3.184287,7.41969 6.554067,7.41969 2.720556,0 4.328157,-1.85492 4.822804,-5.13195 v 4.8228 h 8.038006 z M 76.14986,202.5476 c 0,4.69914 -1.854925,6.73955 -3.277033,6.73955 -1.051124,0 -1.453025,-1.91675 -1.453025,-6.73955 0,-4.82281 0.309154,-6.77048 1.360278,-6.77048 1.422109,0 3.36978,2.07133 3.36978,6.77048 z" />
    <path
       id="path921"
       style="font-style:normal;font-variant:normal;font-weight:900;font-stretch:normal;font-size:30.91540909px;line-height:1.25;font-family:'Bodoni* 36';-inkscape-font-specification:'Bodoni* 36 Heavy';fill:#dbdee3"
       d="m 84.8197,202.5476 c 0,4.019 3.02971,7.41969 8.007091,7.41969 4.977381,0 8.007089,-3.40069 8.007089,-7.41969 0,-4.01901 -3.029708,-7.4197 -8.007089,-7.4197 -4.977381,0 -8.007091,3.40069 -8.007091,7.4197 z m 6.028505,0 c 0,-4.45182 0.772885,-7.23421 1.978586,-7.23421 1.205701,0 1.978586,2.78239 1.978586,7.23421 0,4.45181 -0.772885,7.2342 -1.978586,7.2342 -1.205701,0 -1.978586,-2.78239 -1.978586,-7.2342 z" />
    <path
       id="path923"
       style="font-style:normal;font-variant:normal;font-weight:900;font-stretch:normal;font-size:30.91540909px;line-height:1.25;font-family:'Bodoni* 36';-inkscape-font-specification:'Bodoni* 36 Heavy';fill:#dbdee3"
       d="m 101.92703,209.47265 v 0.18549 h 9.27462 v -0.18549 h -1.23661 V 202.764 c 0,-2.90605 0.89654,-6.0285 2.44231,-6.0285 0.86563,0 1.11296,0.30915 1.11296,2.90605 v 9.8311 h -1.23662 v 0.18549 h 9.27462 v -0.18549 h -2.16407 v -9.67653 c 0,-2.68964 -1.08204,-4.66822 -4.38999,-4.66822 -3.4007,0 -4.63731,2.65872 -5.03921,5.34836 v -5.03921 h -8.03801 v 0.18549 h 2.16408 v 13.85011 z" />
    <path
       id="path925"
       style="font-style:normal;font-variant:normal;font-weight:900;font-stretch:normal;font-size:30.91540909px;line-height:1.25;font-family:'Bodoni* 36';-inkscape-font-specification:'Bodoni* 36 Heavy';fill:#dbdee3"
       d="m 123.76104,189.56312 c 0,1.94767 1.45302,3.4007 3.40069,3.4007 1.94767,0 3.4007,-1.45303 3.4007,-3.4007 0,-1.94767 -1.45303,-3.40069 -3.4007,-3.40069 -1.94767,0 -3.40069,1.45302 -3.40069,3.40069 z m -1.3912,19.90953 v 0.18549 h 10.20209 v -0.18549 h -2.16408 v -14.0356 h -8.03801 v 0.18549 h 2.16408 v 13.85011 z" />
    <path
       id="path927"
       style="font-style:normal;font-variant:normal;font-weight:900;font-stretch:normal;font-size:30.91540909px;line-height:1.25;font-family:'Bodoni* 36';-inkscape-font-specification:'Bodoni* 36 Heavy';fill:#dbdee3"
       d="m 139.08445,202.64034 c -0.0309,0.21641 -0.0309,0.37099 -0.0309,0.55648 0,1.82401 1.57668,3.12246 3.40069,3.12246 1.82401,0 3.4007,-1.29845 3.4007,-3.12246 0,-0.18549 0,-0.34007 -0.0309,-0.55648 -0.34007,-2.28774 -3.18429,-3.46252 -3.27703,-6.73956 2.78238,1.70035 2.38048,4.76098 4.20449,6.18308 0.15458,0.15458 0.30916,0.21641 0.46373,0.30916 1.57669,0.92746 3.49345,0.21641 4.38999,-1.36028 0.92746,-1.6076 0.58739,-3.6171 -0.98929,-4.51365 -0.15458,-0.0927 -0.30916,-0.18549 -0.49465,-0.24732 -2.16408,-0.86563 -4.60639,1.02021 -7.48153,-0.52556 2.87514,-1.57669 5.31745,0.30915 7.48153,-0.55648 0.18549,-0.0618 0.34007,-0.15458 0.49465,-0.24733 1.57668,-0.89654 1.91675,-2.90604 0.98929,-4.48273 -0.89654,-1.6076 -2.8133,-2.31866 -4.38999,-1.39119 -0.15457,0.0927 -0.30915,0.15457 -0.46373,0.30915 -1.82401,1.42211 -1.42211,4.48274 -4.20449,6.18308 0.12366,-3.27703 2.93696,-4.45182 3.27703,-6.70864 0.0309,-0.21641 0.0309,-0.37099 0.0309,-0.55648 0,-1.82401 -1.57669,-3.12245 -3.4007,-3.12245 -1.82401,0 -3.40069,1.29844 -3.40069,3.12245 0,0.18549 0,0.34007 0.0309,0.55648 0.34007,2.28774 3.18429,3.46253 3.27703,6.73956 -2.78238,-1.70035 -2.38048,-4.76097 -4.20449,-6.18308 -0.15458,-0.15458 -0.30916,-0.21641 -0.46373,-0.30916 -1.57669,-0.92746 -3.49344,-0.21641 -4.38999,1.36028 -0.92746,1.6076 -0.58739,3.6171 0.98929,4.51365 0.15458,0.0927 0.30916,0.18549 0.49465,0.24732 2.16408,0.86563 4.6064,-1.02021 7.48153,0.52557 -2.87513,1.57668 -5.31745,-0.30916 -7.48153,0.55647 -0.18549,0.0618 -0.34007,0.15458 -0.49465,0.24733 -1.57668,0.89654 -1.91675,2.90604 -0.98929,4.48273 0.89655,1.6076 2.8133,2.31866 4.38999,1.39119 0.15457,-0.0927 0.30915,-0.15457 0.46373,-0.30915 1.82401,-1.42211 1.42211,-4.48273 4.20449,-6.18308 -0.12366,3.27703 -2.93696,4.45182 -3.27703,6.70864 z" />
    <path
       id="path929"
       style="font-style:normal;font-variant:normal;font-weight:900;font-stretch:normal;font-size:30.91540909px;line-height:1.25;font-family:'Bodoni* 36';-inkscape-font-specification:'Bodoni* 36 Heavy';fill:#dbdee3"
       d="m 161.83095,201.06366 v 0.18549 h 7.4197 v -0.18549 z" />
    <path
       id="path931"
       style="font-style:italic"
       d="m 177.26932,209.47265 v 0.18549 h 12.36617 v -0.18549 h -3.06063 l 2.62781,-11.25321 h 0.0927 c 2.07133,0 3.18428,2.31865 3.64802,4.38999 h 0.18549 l 2.0095,-8.8109 h -0.18549 c -1.32937,2.07134 -3.61711,4.23542 -5.65752,4.23542 h -0.0618 l 2.65872,-11.37687 h 1.73126 c 3.61711,0 5.44112,2.84421 5.59569,6.15216 h 0.1855 l 1.48394,-6.33766 h -18.39467 v 0.1855 h 2.75147 l -5.31745,22.81557 z" />
    <path
       id="path933"
       style="font-style:italic"
       d="m 206.44622,199.9507 c 0,-2.84422 -0.8038,-4.79189 -3.15337,-4.79189 -3.36978,0 -8.2235,3.36978 -8.2235,9.55286 0,4.01901 2.78239,5.25562 4.91555,5.25562 2.5969,0 4.38999,-2.38048 5.44112,-5.00829 l -0.43282,1.51485 c -0.0618,0.27824 -0.12366,0.77289 -0.12366,0.92746 0,1.57669 0.71105,2.56598 3.09154,2.56598 3.43161,0 5.87393,-2.25682 7.04871,-5.34836 l -0.15457,-0.0618 c -0.80381,2.19499 -2.75148,4.45182 -4.42091,4.45182 -0.4019,0 -0.58739,-0.30916 -0.58739,-0.64923 0,-0.15457 0.0309,-0.37098 0.0618,-0.55648 l 3.49344,-12.36616 h -5.65752 z m -0.15457,0 c 0,3.2152 -1.94767,8.37808 -3.83351,8.37808 -0.64923,0 -1.08204,-0.83472 -1.08204,-2.13317 0,-4.14266 2.31865,-9.4292 3.67893,-9.4292 0.89655,0 1.23662,1.54577 1.23662,3.18429 z" />
    <path
       id="path935"
       style="font-style:italic"
       d="m 227.52668,204.61893 -0.15458,-0.0618 c -0.77288,2.04041 -2.59689,4.38999 -4.45182,4.38999 -0.4019,0 -0.55647,-0.24733 -0.55647,-0.5874 0,-0.15457 0.0309,-0.37098 0.0618,-0.55648 l 3.06062,-12.18067 h 3.02971 v -0.18549 h -2.99879 l 0.77288,-3.09154 h -5.84301 l -0.77288,3.09154 h -2.5969 v 0.18549 h 2.53506 l -2.72055,10.78948 c -0.0618,0.18549 -0.0928,0.52556 -0.0928,0.68014 0,2.16408 1.29845,2.87513 3.67894,2.87513 3.43161,0 5.87392,-2.25682 7.04871,-5.34836 z" />
    <path
       id="path937"
       style="font-style:italic"
       d="m 226.66152,209.47265 v 0.18549 h 12.36616 v -0.18549 h -3.06062 l 2.62781,-11.25321 h 0.0927 c 2.07134,0 3.18429,2.31865 3.64802,4.38999 h 0.1855 l 2.0095,-8.8109 h -0.1855 c -1.32936,2.07134 -3.6171,4.23542 -5.65752,4.23542 h -0.0618 l 2.65873,-11.37687 h 1.73126 c 3.6171,0 5.44111,2.84421 5.59569,6.15216 h 0.18549 l 1.48394,-6.33766 h -18.39467 v 0.1855 h 2.75148 l -5.31745,22.81557 z" />
    <path
       id="path939"
       style="font-style:italic"
       d="m 255.83842,199.9507 c 0,-2.84422 -0.8038,-4.79189 -3.15337,-4.79189 -3.36978,0 -8.2235,3.36978 -8.2235,9.55286 0,4.01901 2.78239,5.25562 4.91555,5.25562 2.59689,0 4.38999,-2.38048 5.44111,-5.00829 l -0.43281,1.51485 c -0.0618,0.27824 -0.12367,0.77289 -0.12367,0.92746 0,1.57669 0.71106,2.56598 3.09155,2.56598 3.43161,0 5.87392,-2.25682 7.04871,-5.34836 l -0.15458,-0.0618 c -0.8038,2.19499 -2.75147,4.45182 -4.4209,4.45182 -0.4019,0 -0.58739,-0.30916 -0.58739,-0.64923 0,-0.15457 0.0309,-0.37098 0.0618,-0.55648 l 3.49344,-12.36616 h -5.65752 z m -0.15458,0 c 0,3.2152 -1.94767,8.37808 -3.83351,8.37808 -0.64922,0 -1.08204,-0.83472 -1.08204,-2.13317 0,-4.14266 2.31866,-9.4292 3.67894,-9.4292 0.89654,0 1.23661,1.54577 1.23661,3.18429 z" />
    <path
       id="path941"
       style="font-style:italic"
       d="m 280.55239,197.63205 c -0.4019,-0.61831 -1.23661,-1.14387 -2.62781,-1.14387 -1.2057,0 -3.12245,1.11295 -3.12245,3.12245 0,1.85493 1.6076,2.96788 3.30794,2.96788 1.85493,0 3.15338,-1.42211 3.15338,-3.30795 0,-2.53506 -2.44232,-4.14266 -5.28654,-4.14266 -5.28653,0 -10.14025,4.019 -10.14025,9.89293 0,3.70985 2.72055,4.94646 5.53386,4.94646 3.43161,0 5.68843,-1.73126 7.72885,-4.73005 h -0.18549 c -2.00951,2.8133 -3.74077,3.86442 -5.07013,3.86442 -1.05113,0 -1.70035,-0.86563 -1.70035,-3.46252 0,-3.83351 1.70035,-10.20209 4.76097,-10.20209 1.57669,0 3.09154,0.98929 3.64802,2.195 z" />
    <path
       id="path943"
       style="font-style:italic"
       d="m 288.68799,206.84484 c 0,-1.05113 0.15457,-2.22591 0.37098,-3.43161 3.55527,-0.12366 9.52195,-1.17479 9.52195,-4.94647 0,-2.22591 -2.8133,-3.33886 -5.96668,-3.33886 -4.97738,0 -10.233,4.23541 -10.233,9.89293 0,3.70985 3.02971,4.94646 6.46132,4.94646 3.43161,0 6.52316,-2.34957 8.03801,-4.73005 h -0.18549 c -1.57669,2.34957 -4.32816,4.11175 -5.99759,4.11175 -1.2057,0 -2.0095,-1.14387 -2.0095,-2.50415 z m 4.04992,-11.56237 c 0.6183,0 0.71105,1.17479 0.71105,2.00951 0,3.74076 -2.78239,5.44111 -4.35907,5.87392 0.8038,-3.86442 2.50415,-7.88343 3.64802,-7.88343 z" />
  </g>
</svg>
