<?xml version="1.0" encoding="UTF-8" standalone="no"?>
<svg
   xmlns:dc="http://purl.org/dc/elements/1.1/"
   xmlns:cc="http://creativecommons.org/ns#"
   xmlns:rdf="http://www.w3.org/1999/02/22-rdf-syntax-ns#"
   xmlns:svg="http://www.w3.org/2000/svg"
   xmlns="http://www.w3.org/2000/svg"
   viewBox="0 0 1500 600"
   height="600"
   width="1500"
   version="1.1"
   id="svg2">
  <metadata
     id="metadata8">
    <rdf:RDF>
      <cc:Work
         rdf:about="">
        <dc:format>image/svg+xml</dc:format>
        <dc:type
           rdf:resource="http://purl.org/dc/dcmitype/StillImage" />
        <dc:title></dc:title>
      </cc:Work>
    </rdf:RDF>
  </metadata>
  <defs
     id="defs6" />
  <path
     id="rect3354"
     d="M -4.5456862,-3.5048697 H 1521.2898 V 611.67805 H -4.5456862 Z"
     style="fill:#d7f4e3;fill-opacity:1" />
  <g
     id="flowRoot3338"
     style="font-style:normal;font-variant:normal;font-weight:900;font-stretch:normal;line-height:0.01%;font-family:'Bodoni* 48';-inkscape-font-specification:'Bodoni* 48 Heavy';letter-spacing:0px;word-spacing:0px;fill:#483737;fill-opacity:1;stroke:none;stroke-width:1px;stroke-linecap:butt;stroke-linejoin:miter;stroke-opacity:1"
     transform="matrix(5.0338663,0,0,5.0338663,89.588293,-205.61424)"
     aria-label="Earl&amp;Ogborn">
    <path
       id="path846"
       style="font-style:normal;font-variant:normal;font-weight:900;font-stretch:normal;font-size:30.91540909px;line-height:1.25;font-family:'Bodoni* 48';-inkscape-font-specification:'Bodoni* 48 Heavy';fill:#483737"
       d="m 37.753404,86.054732 h 0.123662 v -8.501738 h -0.123662 c -0.927462,2.071333 -3.060625,4.11175 -4.822803,4.11175 H 32.621447 V 70.658858 h 1.854924 c 3.617103,0 6.677728,2.906049 7.605191,6.213997 h 0.123661 V 70.535197 H 23.192247 v 0.123661 h 2.782387 v 22.939234 h -2.782387 v 0.123661 h 19.32213 v -6.955967 h -0.123661 c -0.927462,3.926257 -3.988088,6.832306 -8.223499,6.832306 h -1.54577 V 81.788405 h 0.309154 c 1.762178,0 3.895341,2.194995 4.822803,4.266327 z" />
    <path
       id="path848"
       style="font-style:normal;font-variant:normal;font-weight:900;font-stretch:normal;font-size:30.91540909px;line-height:1.25;font-family:'Bodoni* 48';-inkscape-font-specification:'Bodoni* 48 Heavy';fill:#483737"
       d="m 51.168277,85.900155 c -4.389988,0 -6.770475,1.731263 -6.770475,4.328157 0,2.28774 1.731263,3.802595 4.17358,3.802595 2.96788,0 4.730058,-1.576685 5.131958,-4.482734 v 1.607601 c 0,2.133164 2.009502,2.875133 4.389988,2.875133 2.256825,0 4.173581,-0.711054 4.884635,-2.256824 l -0.123662,-0.03092 c -0.649223,1.267532 -1.669432,1.576686 -2.133163,1.576686 -0.74197,0 -1.14387,-0.463731 -1.14387,-1.082039 v -7.94526 c 0,-3.122457 -2.411402,-5.039212 -7.976175,-5.039212 -3.431611,0 -6.121251,1.391193 -6.121251,3.462526 0,1.422109 1.298447,2.62781 3.153371,2.62781 1.700348,0 3.36978,-1.143871 3.36978,-2.689641 0,-1.916755 -2.380487,-3.246118 -4.884635,-2.164079 0.525562,-0.4019 1.978586,-1.051124 3.462526,-1.051124 2.164079,0 3.122456,2.164079 3.122456,4.85372 v 1.607601 z m 0.772885,6.05942 c -0.772885,0 -1.298447,-0.649224 -1.298447,-2.349571 0,-1.916755 1.267532,-3.586187 2.68964,-3.586187 h 0.370985 v 2.102247 c 0,3.122457 -1.112954,3.833511 -1.762178,3.833511 z" />
    <path
       id="path850"
       style="font-style:normal;font-variant:normal;font-weight:900;font-stretch:normal;font-size:30.91540909px;line-height:1.25;font-family:'Bodoni* 48';-inkscape-font-specification:'Bodoni* 48 Heavy';fill:#483737"
       d="m 63.282769,93.598092 v 0.123661 h 10.202085 v -0.123661 h -2.164079 v -6.770475 c 0,-3.307949 0.09275,-7.512444 4.11175,-7.512444 1.54577,0 3.153371,1.051124 3.555272,2.596894 -1.793094,-2.936964 -6.121251,-1.669432 -6.121251,1.514855 0,1.916756 1.422109,3.246118 3.369779,3.246118 2.102248,0 3.338865,-1.607601 3.338865,-3.43161 0,-2.442318 -2.040417,-4.049919 -4.080834,-4.049919 -2.96788,0 -3.895342,2.071333 -4.173581,4.637311 v -4.328157 h -8.038006 v 0.123662 h 2.164079 v 13.973765 z" />
    <path
       id="path852"
       style="font-style:normal;font-variant:normal;font-weight:900;font-stretch:normal;font-size:30.91540909px;line-height:1.25;font-family:'Bodoni* 48';-inkscape-font-specification:'Bodoni* 48 Heavy';fill:#483737"
       d="m 78.981999,93.598092 v 0.123661 H 90.4207 V 93.598092 H 87.638314 V 70.535197 h -8.656315 v 0.123661 h 2.782387 v 22.939234 z" />
    <path
       id="path854"
       style="font-style:normal;font-variant:normal;font-weight:900;font-stretch:normal;font-size:30.91540909px;line-height:1.25;font-family:'Bodoni* 48';-inkscape-font-specification:'Bodoni* 48 Heavy';fill:#483737"
       d="m 110.00948,79.500665 v 0.123662 h 4.08083 c -0.27824,3.184287 -1.36028,6.090335 -2.87513,8.378076 l -6.15217,-9.4292 c -0.0309,-0.03092 -0.0618,-0.06183 -0.0618,-0.123662 3.74077,-1.607601 6.89414,-1.762178 6.89414,-4.699142 0,-2.194994 -2.75147,-3.524357 -7.60519,-3.524357 -5.131962,0 -8.37808,1.762179 -8.37808,4.544566 0,1.082039 0.618309,2.627809 1.422109,3.802595 l 1.854925,2.751471 c -2.998795,1.14387 -7.234206,2.906049 -7.234206,6.832306 0,3.184287 2.349571,5.873927 8.007091,5.873927 2.627811,0 4.853721,-0.587392 6.708641,-1.607601 l 0.89655,1.298447 h 10.94405 v -0.123661 h -3.64801 l -3.58619,-5.502943 c 1.70035,-2.504148 2.62781,-5.564774 2.93696,-8.470822 h 3.21521 v -0.123662 z m -7.35787,-6.492236 c 0,-1.329362 0.49465,-2.658725 1.48394,-2.658725 1.14387,0 1.45302,1.514855 1.45302,3.586188 0,2.349571 -0.27824,3.493441 -0.8038,4.204495 -1.2057,-1.854924 -2.13316,-3.833511 -2.13316,-5.131958 z m -3.864427,12.335249 c 0,-2.256825 0.216408,-3.122457 0.680139,-3.617103 l 7.110548,10.542154 c -0.83472,0.4019 -1.70035,0.618308 -2.56598,0.618308 -2.90605,0 -5.224707,-3.493441 -5.224707,-7.543359 z" />
    <path
       id="path856"
       style="font-style:normal;font-variant:normal;font-weight:900;font-stretch:normal;font-size:30.91540909px;line-height:1.25;font-family:'Bodoni* 48';-inkscape-font-specification:'Bodoni* 48 Heavy';fill:#483737"
       d="m 131.52418,94.030907 c 6.89414,0 11.12955,-5.008296 11.12955,-11.902432 0,-6.894136 -4.54456,-11.902433 -11.12955,-11.902433 -6.58498,0 -11.12954,5.008297 -11.12954,11.902433 0,6.894136 4.23541,11.902432 11.12954,11.902432 z m 0,-23.681203 c 2.90605,0 3.86443,4.606396 3.86443,11.778771 0,7.172375 -0.64922,11.778771 -3.86443,11.778771 -3.2152,0 -3.86442,-4.606396 -3.86442,-11.778771 0,-7.172375 0.95838,-11.778771 3.86442,-11.778771 z" />
    <path
       id="path858"
       style="font-style:normal;font-variant:normal;font-weight:900;font-stretch:normal;font-size:30.91540909px;line-height:1.25;font-family:'Bodoni* 48';-inkscape-font-specification:'Bodoni* 48 Heavy';fill:#483737"
       d="m 145.24387,91.99049 c 0,2.040417 1.73126,2.96788 3.70985,3.338865 -1.6076,0.06183 -4.69915,0.525562 -4.69915,2.844217 0,2.658728 4.38999,3.586188 8.19259,3.586188 4.94646,0 8.038,-1.762179 8.038,-5.502943 0,-4.204496 -3.15337,-5.626605 -5.47202,-5.626605 -0.86563,0 -2.04042,0.03092 -3.12246,0.03092 -1.70035,0 -3.30795,-0.09275 -3.30795,-0.772885 0,-0.772886 1.63852,-1.051124 2.96788,-1.112955 0.18549,0 0.37099,0 0.55648,0 3.43161,0 7.07963,-1.391193 7.07963,-4.791888 0,-1.360278 -0.5874,-2.380487 -1.48394,-3.153372 0.83471,-0.989293 2.0095,-1.360278 3.18428,-1.360278 1.97859,0 2.90605,1.205701 3.18429,2.194994 -0.18549,-0.618308 -1.05112,-1.267532 -2.10225,-1.267532 -1.32936,0 -2.22591,1.051124 -2.22591,2.22591 0,1.638516 1.23662,2.318655 2.31866,2.318655 1.08204,0 2.34957,-0.618308 2.34957,-2.62781 0,-1.174785 -1.02021,-2.967879 -3.52436,-2.967879 -1.2057,0 -2.44231,0.370985 -3.30794,1.391194 -1.3912,-1.08204 -3.46253,-1.545771 -5.47203,-1.545771 -3.43161,0 -7.07963,1.391194 -7.07963,4.791889 0,2.998794 2.84422,4.420903 5.84301,4.730057 -2.68964,0.247323 -5.6266,1.267532 -5.6266,3.277033 z m 5.81209,-8.00709 c 0,-2.906049 0.46374,-4.668227 1.05113,-4.668227 0.58739,0 1.05112,1.762178 1.05112,4.668227 0,2.906048 -0.46373,4.668226 -1.05112,4.668226 -0.89655,0 -1.05113,-1.762178 -1.05113,-4.668226 z m -2.31865,13.448202 c 0,-0.340069 0.12366,-1.514855 0.77288,-2.009501 0.61831,0.09275 1.26754,0.123662 1.88584,0.123662 h 3.52436 c 2.0095,0 4.29724,0.927462 4.29724,2.596894 0,2.844213 -3.89534,3.462523 -6.52315,3.462523 -2.34957,0 -3.95717,-1.45302 -3.95717,-4.173578 z" />
    <path
       id="path860"
       style="font-style:normal;font-variant:normal;font-weight:900;font-stretch:normal;font-size:30.91540909px;line-height:1.25;font-family:'Bodoni* 48';-inkscape-font-specification:'Bodoni* 48 Heavy';fill:#483737"
       d="m 166.16345,70.658858 v 22.939234 h -2.16408 v 0.123661 h 8.03801 v -5.070127 c 0.43281,3.431611 2.10225,5.379281 4.8228,5.379281 3.36978,0 6.55407,-2.782386 6.55407,-7.419698 0,-4.637311 -3.18429,-7.388782 -6.55407,-7.388782 -2.75147,0 -4.38999,1.916755 -4.8228,5.348365 V 70.535197 h -8.03801 v 0.123661 z m 5.87393,15.952351 c 0,-4.637311 1.85492,-6.832305 3.36978,-6.832305 1.05112,0 1.36028,2.071332 1.36028,6.832305 0,4.760973 -0.30916,6.863221 -1.36028,6.863221 -1.51486,0 -3.36978,-2.225909 -3.36978,-6.863221 z" />
    <path
       id="path862"
       style="font-style:normal;font-variant:normal;font-weight:900;font-stretch:normal;font-size:30.91540909px;line-height:1.25;font-family:'Bodoni* 48';-inkscape-font-specification:'Bodoni* 48 Heavy';fill:#483737"
       d="m 184.93249,86.611209 c 0,4.019003 3.02971,7.419698 8.00709,7.419698 4.97739,0 8.0071,-3.400695 8.0071,-7.419698 0,-4.019003 -3.02971,-7.419698 -8.0071,-7.419698 -4.97738,0 -8.00709,3.400695 -8.00709,7.419698 z m 6.02851,0 c 0,-4.451819 0.77288,-7.296036 1.97858,-7.296036 1.20571,0 1.97859,2.844217 1.97859,7.296036 0,4.451819 -0.77288,7.296037 -1.97859,7.296037 -1.2057,0 -1.97858,-2.844218 -1.97858,-7.296037 z" />
    <path
       id="path864"
       style="font-style:normal;font-variant:normal;font-weight:900;font-stretch:normal;font-size:30.91540909px;line-height:1.25;font-family:'Bodoni* 48';-inkscape-font-specification:'Bodoni* 48 Heavy';fill:#483737"
       d="m 202.03982,93.598092 v 0.123661 h 10.20209 v -0.123661 h -2.16408 v -6.770475 c 0,-3.307949 0.0927,-7.512444 4.11175,-7.512444 1.54577,0 3.15337,1.051124 3.55527,2.596894 -1.79309,-2.936964 -6.12125,-1.669432 -6.12125,1.514855 0,1.916756 1.42211,3.246118 3.36978,3.246118 2.10225,0 3.33886,-1.607601 3.33886,-3.43161 0,-2.442318 -2.04041,-4.049919 -4.08083,-4.049919 -2.96788,0 -3.89534,2.071333 -4.17358,4.637311 v -4.328157 h -8.03801 v 0.123662 h 2.16408 v 13.973765 z" />
    <path
       id="path866"
       style="font-style:normal;font-variant:normal;font-weight:900;font-stretch:normal;font-size:30.91540909px;line-height:1.25;font-family:'Bodoni* 48';-inkscape-font-specification:'Bodoni* 48 Heavy';fill:#483737"
       d="m 218.94668,93.598092 v 0.123661 h 9.27463 v -0.123661 h -1.23662 v -6.770475 c 0,-2.875133 0.83472,-6.090335 2.44232,-6.090335 0.86563,0 1.11295,0.309154 1.11295,2.906048 v 9.954762 h -1.23662 v 0.123661 h 9.27463 v -0.123661 h -2.16408 v -9.738354 c 0,-2.689641 -1.08204,-4.668227 -4.38999,-4.668227 -3.49344,0 -4.69914,2.813302 -5.03921,5.533858 v -5.224704 h -8.03801 v 0.123662 h 2.16408 v 13.973765 z" />
  </g>
  <g
     id="flowRoot4537"
     style="font-style:normal;font-variant:normal;font-weight:normal;font-stretch:normal;line-height:0.01%;font-family:'Bodoni* 24';-inkscape-font-specification:'Bodoni* 24, ';letter-spacing:0px;word-spacing:0px;fill:#483737;fill-opacity:1;stroke:none;stroke-width:1px;stroke-linecap:butt;stroke-linejoin:miter;stroke-opacity:1"
     transform="matrix(3.7101908,0,0,3.7101908,-1317.5033,-533.35892)"
     aria-label="fine chocolates">
    <path
       id="path869"
       style="font-style:normal;font-variant:normal;font-weight:normal;font-stretch:normal;font-size:20px;line-height:1.25;font-family:'Bodoni* 24';-inkscape-font-specification:'Bodoni* 24, ';fill:#483737"
       d="m 411.35078,242.93523 v 0.18 h 10.5 v -0.18 h -1.4 v -9.02 h -5.5 v -1.6 c 0,-2.54 0.62,-4.22 2.74,-4.22 1.78,0 2.48,0.82 2.5,1.54 -0.04,-0.24 -0.3,-0.5 -0.7,-0.5 -0.64,0 -1.2,0.36 -1.2,1.12 0,0.74 0.6,1.08 1.12,1.08 0.6,0 1.14,-0.42 1.14,-1.24 0,-1.14 -0.84,-2.18 -2.86,-2.18 -3,0 -4.54,2.34 -4.54,4.96 v 1.04 h -1.8 v 0.18 h 1.8 v 8.84 z m 7.3,-8.84 v 8.84 h -3.7 v -8.84 z" />
    <path
       id="path871"
       style="font-style:normal;font-variant:normal;font-weight:normal;font-stretch:normal;font-size:20px;line-height:1.25;font-family:'Bodoni* 24';-inkscape-font-specification:'Bodoni* 24, ';fill:#483737"
       d="m 422.58453,242.93523 v 0.18 h 4.36 v -0.18 h -1.28 v -4.28 c 0,-1.88 0.5,-4.66 2.92,-4.66 1.12,0 1.38,1.28 1.38,2.96 v 5.98 h -1.28 v 0.18 h 4.36 v -0.18 h -1.28 v -6.2 c 0,-1.74 -0.58,-3.02 -2.84,-3.02 -2.18,0 -2.98,1.56 -3.26,3.16 v -2.96 h -3.08 v 0.18 h 1.28 v 8.84 z" />
    <path
       id="path873"
       style="font-style:normal;font-variant:normal;font-weight:normal;font-stretch:normal;font-size:20px;line-height:1.25;font-family:'Bodoni* 24';-inkscape-font-specification:'Bodoni* 24, ';fill:#483737"
       d="m 442.77734,240.25523 h -0.18 c -0.5,1.58 -1.78,2.86 -3.74,2.86 -2.18,0 -2.74,-2.32 -2.74,-4.6 0,-0.18 0,-0.34 0,-0.52 h 6.64 c 0,-2.18 -1.16,-4.28 -4.14,-4.28 -2.62,0 -4.6,1.8 -4.6,4.8 0,3 2.04,4.8 4.66,4.8 2.22,0 3.58,-1.32 4.1,-3.06 z m -4.16,-6.36 c 1.78,0 2.02,2.42 2.02,3.9 h -4.5 c 0.1,-2.02 0.7,-3.9 2.48,-3.9 z" />
    <path
       id="path875"
       style="font-style:normal;font-variant:normal;font-weight:normal;font-stretch:normal;font-size:20px;line-height:1.25;font-family:'Bodoni* 24';-inkscape-font-specification:'Bodoni* 24, ';fill:#483737"
       d="m 456.83453,235.73523 c -0.08,-0.18 -0.44,-0.42 -0.84,-0.42 -0.58,0 -1.14,0.4 -1.14,1.1 0,0.8 0.64,1.12 1.14,1.12 0.6,0 1.14,-0.42 1.14,-1.24 0,-1.44 -1.28,-2.58 -3.32,-2.58 -3.02,0 -4.68,2.2 -4.68,4.8 0,3 1.94,4.8 4.56,4.8 2.02,0 3.08,-1.32 3.6,-3.06 h -0.2 c -0.52,1.62 -1.52,2.84 -3.22,2.84 -2.18,0 -2.64,-2.3 -2.64,-4.58 0,-1.88 0.4,-4.6 2.78,-4.6 1.4,0 2.6,0.78 2.82,1.82 z" />
    <path
       id="path877"
       style="font-style:normal;font-variant:normal;font-weight:normal;font-stretch:normal;font-size:20px;line-height:1.25;font-family:'Bodoni* 24';-inkscape-font-specification:'Bodoni* 24, ';fill:#483737"
       d="m 458.36578,242.93523 v 0.18 h 4.36 v -0.18 h -1.28 v -4.28 c 0,-1.88 0.4,-4.66 2.92,-4.66 1.12,0 1.38,1.28 1.38,2.96 v 5.98 h -1.28 v 0.18 h 4.36 v -0.18 h -1.28 v -6.2 c 0,-1.74 -0.5,-3.02 -2.84,-3.02 -2.2,0 -2.98,1.5 -3.26,3.08 v -8.68 h -3.08 v 0.18 h 1.28 v 14.64 z" />
    <path
       id="path879"
       style="font-style:normal;font-variant:normal;font-weight:normal;font-stretch:normal;font-size:20px;line-height:1.25;font-family:'Bodoni* 24';-inkscape-font-specification:'Bodoni* 24, ';fill:#483737"
       d="m 469.79859,238.51523 c 0,2.6 1.76,4.8 4.58,4.8 2.82,0 4.58,-2.2 4.58,-4.8 0,-2.6 -1.76,-4.8 -4.58,-4.8 -2.82,0 -4.58,2.2 -4.58,4.8 z m 2.1,0 c 0,-1.88 0.3,-4.62 2.48,-4.62 2.18,0 2.48,2.74 2.48,4.62 0,1.88 -0.3,4.62 -2.48,4.62 -2.18,0 -2.48,-2.74 -2.48,-4.62 z" />
    <path
       id="path881"
       style="font-style:normal;font-variant:normal;font-weight:normal;font-stretch:normal;font-size:20px;line-height:1.25;font-family:'Bodoni* 24';-inkscape-font-specification:'Bodoni* 24, ';fill:#483737"
       d="m 488.12359,235.73523 c -0.08,-0.18 -0.44,-0.42 -0.84,-0.42 -0.58,0 -1.14,0.4 -1.14,1.1 0,0.8 0.64,1.12 1.14,1.12 0.6,0 1.14,-0.42 1.14,-1.24 0,-1.44 -1.28,-2.58 -3.32,-2.58 -3.02,0 -4.68,2.2 -4.68,4.8 0,3 1.94,4.8 4.56,4.8 2.02,0 3.08,-1.32 3.6,-3.06 h -0.2 c -0.52,1.62 -1.52,2.84 -3.22,2.84 -2.18,0 -2.64,-2.3 -2.64,-4.58 0,-1.88 0.4,-4.6 2.78,-4.6 1.4,0 2.6,0.78 2.82,1.82 z" />
    <path
       id="path883"
       style="font-style:normal;font-variant:normal;font-weight:normal;font-stretch:normal;font-size:20px;line-height:1.25;font-family:'Bodoni* 24';-inkscape-font-specification:'Bodoni* 24, ';fill:#483737"
       d="m 490.15016,238.51523 c 0,2.6 1.76,4.8 4.58,4.8 2.82,0 4.58,-2.2 4.58,-4.8 0,-2.6 -1.76,-4.8 -4.58,-4.8 -2.82,0 -4.58,2.2 -4.58,4.8 z m 2.1,0 c 0,-1.88 0.3,-4.62 2.48,-4.62 2.18,0 2.48,2.74 2.48,4.62 0,1.88 -0.3,4.62 -2.48,4.62 -2.18,0 -2.48,-2.74 -2.48,-4.62 z" />
    <path
       id="path885"
       style="font-style:normal;font-variant:normal;font-weight:normal;font-stretch:normal;font-size:20px;line-height:1.25;font-family:'Bodoni* 24';-inkscape-font-specification:'Bodoni* 24, ';fill:#483737"
       d="m 500.27984,242.93523 v 0.18 h 5.16 v -0.18 h -1.68 v -14.82 h -3.48 v 0.18 h 1.68 v 14.64 z" />
    <path
       id="path887"
       style="font-style:normal;font-variant:normal;font-weight:normal;font-stretch:normal;font-size:20px;line-height:1.25;font-family:'Bodoni* 24';-inkscape-font-specification:'Bodoni* 24, ';fill:#483737"
       d="m 510.88016,237.99523 c -2.96,0 -4.38,1.18 -4.38,2.86 0,1.48 1.12,2.46 2.7,2.46 1.7,0 2.6,-0.8 2.92,-2.3 v 0.64 c 0,1.3 0.9,1.66 1.84,1.66 0.86,0 1.7,-0.46 2.16,-1.46 l -0.14,-0.06 c -0.38,0.78 -0.98,1.1 -1.34,1.1 -0.48,0 -0.72,-0.3 -0.72,-0.76 v -5.12 c 0,-1.62 -0.16,-3.26 -3.16,-3.26 -1.82,0 -3.56,0.8 -3.56,2.04 0,0.72 0.44,1.1 1.04,1.1 0.5,0 1.18,-0.34 1.18,-1.14 0,-0.64 -0.6,-1.18 -1.44,-0.94 0.36,-0.4 1.26,-0.82 2.38,-0.82 1.6,0 1.76,1.68 1.76,3.02 v 0.98 z m -0.9,4.9 c -0.98,0 -1.44,-0.94 -1.44,-2.2 0,-1.36 0.82,-2.5 2.34,-2.5 h 1.24 v 1.3 c 0,2.4 -0.96,3.4 -2.14,3.4 z" />
    <path
       id="path889"
       style="font-style:normal;font-variant:normal;font-weight:normal;font-stretch:normal;font-size:20px;line-height:1.25;font-family:'Bodoni* 24';-inkscape-font-specification:'Bodoni* 24, ';fill:#483737"
       d="m 522.17359,241.07523 -0.16,-0.06 c -0.38,0.94 -1.14,1.76 -1.82,1.76 -0.54,0 -0.76,-0.26 -0.76,-1.26 v -7.42 h 2.14 v -0.18 h -2.14 v -2.6 c -0.4,0.3 -1.2,0.6 -1.8,0.6 v 2 h -1.46 v 0.18 h 1.46 v 6.8 c 0,1.1 0.18,2.36 1.82,2.36 1.22,0 2.24,-0.9 2.72,-2.18 z" />
    <path
       id="path891"
       style="font-style:normal;font-variant:normal;font-weight:normal;font-stretch:normal;font-size:20px;line-height:1.25;font-family:'Bodoni* 24';-inkscape-font-specification:'Bodoni* 24, ';fill:#483737"
       d="m 531.80078,240.25523 h -0.18 c -0.5,1.58 -1.78,2.86 -3.74,2.86 -2.18,0 -2.74,-2.32 -2.74,-4.6 0,-0.18 0,-0.34 0,-0.52 h 6.64 c 0,-2.18 -1.16,-4.28 -4.14,-4.28 -2.62,0 -4.6,1.8 -4.6,4.8 0,3 2.04,4.8 4.66,4.8 2.22,0 3.58,-1.32 4.1,-3.06 z m -4.16,-6.36 c 1.78,0 2.02,2.42 2.02,3.9 h -4.5 c 0.1,-2.02 0.7,-3.9 2.48,-3.9 z" />
    <path
       id="path893"
       style="font-style:normal;font-variant:normal;font-weight:normal;font-stretch:normal;font-size:20px;line-height:1.25;font-family:'Bodoni* 24';-inkscape-font-specification:'Bodoni* 24, ';fill:#483737"
       d="m 533.39797,243.31523 0.86,-0.94 c 0.64,0.58 1.56,0.94 2.58,0.94 1.94,0 3.42,-1.26 3.42,-3.04 0,-3.56 -5.92,-2.58 -5.92,-4.82 0,-1 0.98,-1.52 1.98,-1.52 1.78,0 3.02,1.38 3.1,2.58 h 0.18 v -2.8 h -0.14 l -0.82,0.9 c -0.56,-0.52 -1.38,-0.88 -2.34,-0.88 -1.9,0 -2.8,1.4 -2.8,2.68 0,3.72 5.62,2.32 5.62,4.86 0,1.34 -1.22,1.84 -2.42,1.84 -1.62,0 -3.08,-1.2 -3.26,-2.6 h -0.18 v 2.8 z" />
  </g>
  <path
     id="rect4545"
     d="M 138.67015,90.437302 H 1361.348 V 412.12672 H 138.67015 Z"
     style="fill:none;fill-opacity:1;stroke:#483737;stroke-width:4.53909969;stroke-miterlimit:4;stroke-dasharray:none;stroke-opacity:1" />
  <path
     id="rect4547"
     d="M 116.0825,67.849648 H 1383.9356 V 432.42173 H 116.0825 Z"
     style="fill:none;fill-opacity:1;stroke:#483737;stroke-width:8.72555923;stroke-miterlimit:4;stroke-dasharray:none;stroke-opacity:1" />
  <g
     id="flowRoot4557"
     style="font-style:normal;font-variant:normal;font-weight:900;font-stretch:normal;line-height:0.01%;font-family:'Bodoni* 24';-inkscape-font-specification:'Bodoni* 24 Heavy';letter-spacing:0px;word-spacing:0px;fill:#483737;fill-opacity:1;stroke:none;stroke-width:1px;stroke-linecap:butt;stroke-linejoin:miter;stroke-opacity:1"
     transform="translate(156,134)"
     aria-label="MINT CHOCOLATE">
    <path
       id="path898"
       style="font-style:normal;font-variant:normal;font-weight:900;font-stretch:normal;font-size:74.20381927px;line-height:1.25;font-family:'Bodoni* 24';-inkscape-font-specification:'Bodoni* 24 Heavy';fill:#483737"
       d="m 231.05634,387.97851 v 0.66784 h 11.5758 v -0.66784 h -5.56529 v -53.35255 l 20.03503,54.76242 h 0.81624 l 19.14459,-55.35605 v 53.94618 h -5.93631 v 0.66784 h 27.0844 v -0.66784 h -5.19427 v -54.31719 h 5.19427 v -0.66784 h -21.51911 l -11.65,33.54013 -12.54044,-33.54013 h -21.81593 v 0.66784 h 5.63949 v 54.31719 z" />
    <path
       id="path900"
       style="font-style:normal;font-variant:normal;font-weight:900;font-stretch:normal;font-size:74.20381927px;line-height:1.25;font-family:'Bodoni* 24';-inkscape-font-specification:'Bodoni* 24 Heavy';fill:#483737"
       d="m 300.39633,387.97851 v 0.66784 h 33.0207 v -0.66784 h -8.90446 v -54.31719 h 8.90446 v -0.66784 h -33.0207 v 0.66784 h 8.16242 v 54.31719 z" />
    <path
       id="path902"
       style="font-style:normal;font-variant:normal;font-weight:900;font-stretch:normal;font-size:74.20381927px;line-height:1.25;font-family:'Bodoni* 24';-inkscape-font-specification:'Bodoni* 24 Heavy';fill:#483737"
       d="m 335.61416,387.97851 v 0.66784 h 16.54745 v -0.66784 h -8.31083 v -53.79777 l 37.99236,55.20764 h 1.11305 v -55.72706 h 7.7914 v -0.66784 h -16.69586 v 0.66784 h 8.16242 v 28.49426 l -20.25764,-29.1621 h -26.34235 v 0.66784 h 7.49458 v 54.31719 z" />
    <path
       id="path904"
       style="font-style:normal;font-variant:normal;font-weight:900;font-stretch:normal;font-size:74.20381927px;line-height:1.25;font-family:'Bodoni* 24';-inkscape-font-specification:'Bodoni* 24 Heavy';fill:#483737"
       d="m 403.95703,387.97851 v 0.66784 h 32.27866 v -0.66784 h -8.16242 v -54.31719 h 2.22612 c 7.19777,0 12.68885,8.83025 14.91497,18.25413 h 0.66783 v -18.92197 h -51.57165 v 18.92197 h 0.66783 c 2.22612,-9.42388 7.7172,-18.25413 14.91497,-18.25413 h 2.22611 v 54.31719 z" />
    <path
       id="path906"
       style="font-style:normal;font-variant:normal;font-weight:900;font-stretch:normal;font-size:74.20381927px;line-height:1.25;font-family:'Bodoni* 24';-inkscape-font-specification:'Bodoni* 24 Heavy';fill:#483737"
       d="m 517.08887,371.20845 h -0.74204 c -4.89745,9.49809 -8.97866,17.06688 -18.92198,17.06688 -9.20127,0 -11.50159,-13.95032 -11.50159,-27.45542 0,-13.50509 2.30032,-27.45541 11.50159,-27.45541 8.08822,0 12.83726,7.04936 18.17994,17.06688 h 0.74204 v -17.4379 h -0.51943 l -8.68185,3.41338 c -2.89394,-2.67134 -6.23312,-4.15542 -10.46273,-4.15542 -18.03153,0 -28.19746,12.02102 -28.19746,28.56847 0,16.54745 10.16593,28.56847 28.19746,28.56847 4.89745,0 8.68184,-1.63248 11.7242,-4.37802 l 8.16242,3.63599 h 0.51943 z" />
    <path
       id="path908"
       style="font-style:normal;font-variant:normal;font-weight:900;font-stretch:normal;font-size:74.20381927px;line-height:1.25;font-family:'Bodoni* 24';-inkscape-font-specification:'Bodoni* 24 Heavy';fill:#483737"
       d="m 521.12371,387.97851 v 0.66784 h 28.56847 v -0.66784 h -5.93631 v -26.41656 h 15.5828 v 26.41656 h -5.9363 v 0.66784 h 28.56847 v -0.66784 h -6.67834 v -54.31719 h 6.67834 v -0.66784 h -28.56847 v 0.66784 h 5.9363 v 27.15859 h -15.5828 v -27.15859 h 5.93631 v -0.66784 h -28.56847 v 0.66784 h 6.67834 v 54.31719 z" />
    <path
       id="path910"
       style="font-style:normal;font-variant:normal;font-weight:900;font-stretch:normal;font-size:74.20381927px;line-height:1.25;font-family:'Bodoni* 24';-inkscape-font-specification:'Bodoni* 24 Heavy';fill:#483737"
       d="m 610.56251,389.38838 c 16.54745,0 26.71337,-12.02102 26.71337,-28.56847 0,-16.54745 -10.90796,-28.56847 -26.71337,-28.56847 -15.80541,0 -26.71338,12.02102 -26.71338,28.56847 0,16.54745 10.16593,28.56847 26.71338,28.56847 z m 0,-56.54331 c 6.97516,0 9.27548,10.75956 9.27548,27.97484 0,17.21529 -1.55828,27.97484 -9.27548,27.97484 -7.7172,0 -9.27548,-10.75955 -9.27548,-27.97484 0,-17.21528 2.30032,-27.97484 9.27548,-27.97484 z" />
    <path
       id="path912"
       style="font-style:normal;font-variant:normal;font-weight:900;font-stretch:normal;font-size:74.20381927px;line-height:1.25;font-family:'Bodoni* 24';-inkscape-font-specification:'Bodoni* 24 Heavy';fill:#483737"
       d="m 692.5983,371.20845 h -0.74204 c -4.89745,9.49809 -8.97866,17.06688 -18.92198,17.06688 -9.20127,0 -11.50159,-13.95032 -11.50159,-27.45542 0,-13.50509 2.30032,-27.45541 11.50159,-27.45541 8.08822,0 12.83726,7.04936 18.17994,17.06688 h 0.74204 v -17.4379 h -0.51943 l -8.68185,3.41338 c -2.89394,-2.67134 -6.23312,-4.15542 -10.46273,-4.15542 -18.03153,0 -28.19746,12.02102 -28.19746,28.56847 0,16.54745 10.16593,28.56847 28.19746,28.56847 4.89745,0 8.68184,-1.63248 11.7242,-4.37802 l 8.16242,3.63599 h 0.51943 z" />
    <path
       id="path914"
       style="font-style:normal;font-variant:normal;font-weight:900;font-stretch:normal;font-size:74.20381927px;line-height:1.25;font-family:'Bodoni* 24';-inkscape-font-specification:'Bodoni* 24 Heavy';fill:#483737"
       d="m 724.47697,389.38838 c 16.54745,0 26.71337,-12.02102 26.71337,-28.56847 0,-16.54745 -10.90796,-28.56847 -26.71337,-28.56847 -15.80542,0 -26.71338,12.02102 -26.71338,28.56847 0,16.54745 10.16593,28.56847 26.71338,28.56847 z m 0,-56.54331 c 6.97516,0 9.27548,10.75956 9.27548,27.97484 0,17.21529 -1.55828,27.97484 -9.27548,27.97484 -7.7172,0 -9.27548,-10.75955 -9.27548,-27.97484 0,-17.21528 2.30032,-27.97484 9.27548,-27.97484 z" />
    <path
       id="path916"
       style="font-style:normal;font-variant:normal;font-weight:900;font-stretch:normal;font-size:74.20381927px;line-height:1.25;font-family:'Bodoni* 24';-inkscape-font-specification:'Bodoni* 24 Heavy';fill:#483737"
       d="m 800.2576,388.64635 v -16.69586 h -0.66784 c -2.22611,9.42388 -9.20127,16.02802 -19.3672,16.02802 h -3.71019 v -54.31719 h 6.67835 v -0.66784 h -29.31051 v 0.66784 h 6.67834 v 54.31719 h -6.67834 v 0.66784 z" />
    <path
       id="path918"
       style="font-style:normal;font-variant:normal;font-weight:900;font-stretch:normal;font-size:74.20381927px;line-height:1.25;font-family:'Bodoni* 24';-inkscape-font-specification:'Bodoni* 24 Heavy';fill:#483737"
       d="m 802.86635,387.97851 v 0.66784 h 16.32484 v -0.66784 h -8.75605 l 6.01051,-17.14108 h 16.25064 l 5.56528,17.14108 h -4.97165 v 0.66784 h 28.93949 v -0.66784 h -5.41688 l -19.4414,-56.09809 h -7.86561 l -19.88662,56.09809 z m 22.03854,-41.10891 7.56879,23.22579 h -15.73121 z" />
    <path
       id="path920"
       style="font-style:normal;font-variant:normal;font-weight:900;font-stretch:normal;font-size:74.20381927px;line-height:1.25;font-family:'Bodoni* 24';-inkscape-font-specification:'Bodoni* 24 Heavy';fill:#483737"
       d="m 867.44107,387.97851 v 0.66784 h 32.27866 v -0.66784 h -8.16242 v -54.31719 h 2.22612 c 7.19777,0 12.68885,8.83025 14.91497,18.25413 h 0.66783 v -18.92197 h -51.57165 v 18.92197 h 0.66783 c 2.22611,-9.42388 7.7172,-18.25413 14.91497,-18.25413 h 2.22611 v 54.31719 z" />
    <path
       id="path922"
       style="font-style:normal;font-variant:normal;font-weight:900;font-stretch:normal;font-size:74.20381927px;line-height:1.25;font-family:'Bodoni* 24';-inkscape-font-specification:'Bodoni* 24 Heavy';fill:#483737"
       d="m 947.59163,370.2438 h 0.66784 v -20.40605 h -0.66784 c -2.22611,4.97165 -6.97515,9.64649 -11.20477,9.64649 h -0.74204 v -25.82292 h 4.45223 c 8.68185,0 15.657,6.60414 17.88312,14.54394 h 0.66783 v -15.21178 h -45.63535 v 0.66784 h 6.67835 v 54.31719 h -6.67835 v 0.66784 h 46.37739 v -16.69586 h -0.66783 c -2.22612,9.42388 -9.20128,16.02802 -19.3672,16.02802 h -3.71019 v -27.75223 h 0.74204 c 4.22962,0 8.97866,5.04586 11.20477,10.01752 z" />
  </g>
  <g
     id="flowRoot4637"
     style="font-style:normal;font-variant:normal;font-weight:bold;font-stretch:normal;line-height:0.01%;font-family:'Bodoni* 11';-inkscape-font-specification:'Bodoni* 11 Bold';letter-spacing:0px;word-spacing:0px;fill:#483737;fill-opacity:1;stroke:none;stroke-width:1px;stroke-linecap:butt;stroke-linejoin:miter;stroke-opacity:1"
     transform="matrix(0.44310188,0,0,0.44310188,10.674843,325.7947)"
     aria-label="NET WT
5 oz
(142 grams)">
    <path
       id="path925"
       style="font-style:normal;font-variant:normal;font-weight:bold;font-stretch:normal;font-size:74.20381927px;line-height:100%;font-family:'Bodoni* 11';-inkscape-font-specification:'Bodoni* 11 Bold';fill:#483737"
       d="m 230.90793,377.88679 v 1.48408 h 17.95733 v -1.48408 h -8.60764 v -51.12643 l 33.98534,53.35255 h 2.67134 v -54.91083 h 7.7172 V 323.718 h -17.5121 v 1.48408 h 8.16242 v 35.09841 l -23.3,-36.58249 h -21.07389 v 1.48408 h 7.7172 v 52.68471 z" />
    <path
       id="path927"
       style="font-style:normal;font-variant:normal;font-weight:bold;font-stretch:normal;font-size:74.20381927px;line-height:100%;font-family:'Bodoni* 11';-inkscape-font-specification:'Bodoni* 11 Bold';fill:#483737"
       d="m 316.37682,359.85526 h 1.48408 v -18.17993 h -1.48408 c -1.11306,4.97165 -4.22962,8.16242 -8.45923,8.16242 h -2.67134 v -24.63567 h 8.60764 c 8.68185,0 12.98567,5.7879 14.09873,13.72771 h 1.48407 V 323.718 h -42.29617 v 1.48408 h 6.67834 v 52.68471 h -6.67834 v 1.48408 h 43.03821 v -16.69586 h -1.48407 c -1.11306,9.42388 -5.41688,15.21178 -15.58281,15.21178 h -7.8656 v -26.56497 h 2.67134 c 4.22961,0 7.34617,3.56179 8.45923,8.53344 z" />
    <path
       id="path929"
       style="font-style:normal;font-variant:normal;font-weight:bold;font-stretch:normal;font-size:74.20381927px;line-height:100%;font-family:'Bodoni* 11';-inkscape-font-specification:'Bodoni* 11 Bold';fill:#483737"
       d="m 343.60614,377.88679 v 1.48408 h 27.90064 v -1.48408 h -8.16242 v -52.68471 h 4.74904 c 7.93981,0 10.75956,6.90096 11.87262,16.32484 h 1.48407 V 323.718 h -47.78726 v 17.80892 h 1.48408 c 1.11306,-9.42388 3.9328,-16.32484 11.87261,-16.32484 h 4.74904 v 52.68471 z" />
    <path
       id="path931"
       style="font-style:normal;font-variant:normal;font-weight:bold;font-stretch:normal;font-size:74.20381927px;line-height:100%;font-family:'Bodoni* 11';-inkscape-font-specification:'Bodoni* 11 Bold';fill:#483737"
       d="M 464.09343,325.20208 V 323.718 h -62.03439 v 1.48408 h 6.45573 l 19.96083,54.91083 h 4.74904 l 9.42389,-26.34236 9.57229,26.34236 h 3.71019 l 19.81242,-54.91083 h 6.45574 V 323.718 H 467.3584 v 1.48408 h 6.60414 l -14.98917,41.33153 -8.08822,-22.70637 6.90096,-18.62516 z m -27.75223,41.33153 -14.76656,-41.33153 h 10.68535 l 9.49809,26.19395 z m 7.86561,-41.33153 h 11.79841 l -6.01051,16.17643 z" />
    <path
       id="path933"
       style="font-style:normal;font-variant:normal;font-weight:bold;font-stretch:normal;font-size:74.20381927px;line-height:100%;font-family:'Bodoni* 11';-inkscape-font-specification:'Bodoni* 11 Bold';fill:#483737"
       d="m 494.18772,377.88679 v 1.48408 h 27.90063 v -1.48408 h -8.16242 v -52.68471 h 4.74905 c 7.93981,0 10.75955,6.90096 11.87261,16.32484 h 1.48408 V 323.718 h -47.78726 v 17.80892 h 1.48407 c 1.11306,-9.42388 3.9328,-16.32484 11.87261,-16.32484 h 4.74905 v 52.68471 z" />
    <path
       id="path935"
       style="font-style:normal;font-variant:normal;font-weight:bold;font-stretch:normal;font-size:74.20381927px;line-height:100%;font-family:'Bodoni* 11';-inkscape-font-specification:'Bodoni* 11 Bold';fill:#483737"
       d="m 235.13755,448.82565 c 0.44522,0.14841 0.81624,0.29682 1.63249,0.29682 3.26496,0 6.45573,-2.81975 6.45573,-6.52994 0,-4.08121 -3.11656,-6.15892 -6.45573,-6.15892 -3.56179,0 -6.45574,2.67134 -6.45574,6.82675 0,6.82676 7.34618,11.05637 15.28599,11.05637 12.31783,0 21.4449,-7.19777 21.4449,-17.21528 0,-11.13058 -7.56879,-17.28949 -18.77356,-17.28949 -6.82675,0 -10.98217,2.89395 -12.98567,5.9363 V 409.0524 h 29.1621 v -15.21178 h -1.48408 v 4.08121 h -29.1621 v 29.1621 h 2.00351 c 1.48407,-2.44872 4.89745,-5.04586 9.7207,-5.04586 6.23312,0 9.27547,5.12007 9.27547,15.06338 0,8.45923 -2.96815,15.5086 -11.05636,15.5086 -4.37803,0 -7.86561,-2.44873 -8.60765,-3.7844 z" />
    <path
       id="path937"
       style="font-style:normal;font-variant:normal;font-weight:bold;font-stretch:normal;font-size:74.20381927px;line-height:100%;font-family:'Bodoni* 11';-inkscape-font-specification:'Bodoni* 11 Bold';fill:#483737"
       d="m 290.43099,436.50782 c 0,9.64649 6.90095,17.80891 18.10573,17.80891 11.20478,0 18.10573,-8.16242 18.10573,-17.80891 0,-9.6465 -6.90095,-17.80892 -18.10573,-17.80892 -11.20478,0 -18.10573,8.16242 -18.10573,17.80892 z m 11.13057,0 c 0,-8.83026 1.48408,-16.32484 6.97516,-16.32484 5.49108,0 6.97516,7.49458 6.97516,16.32484 0,8.83025 -1.48408,16.32484 -6.97516,16.32484 -5.49108,0 -6.97516,-7.49459 -6.97516,-16.32484 z" />
    <path
       id="path939"
       style="font-style:normal;font-variant:normal;font-weight:bold;font-stretch:normal;font-size:74.20381927px;line-height:100%;font-family:'Bodoni* 11';-inkscape-font-specification:'Bodoni* 11 Bold';fill:#483737"
       d="m 344.56963,420.92501 h 5.8621 l -20.03503,31.16561 v 1.48407 h 33.0207 v -13.6535 h -1.48407 c -1.11306,9.20128 -3.63599,12.16943 -12.31784,12.16943 h -7.49458 l 20.10923,-31.16561 v -1.48407 h -29.75573 v 12.76305 h 1.48408 c 1.11305,-7.49458 3.63598,-11.27898 10.61114,-11.27898 z" />
    <path
       id="path941"
       style="font-style:normal;font-variant:normal;font-weight:bold;font-stretch:normal;font-size:74.20381927px;line-height:100%;font-family:'Bodoni* 11';-inkscape-font-specification:'Bodoni* 11 Bold';fill:#483737"
       d="m 256.43405,539.13171 c -7.34618,-4.82325 -10.53694,-21.2223 -10.53694,-35.46943 0,-14.24713 3.19076,-29.1621 10.53694,-33.98535 l -0.66784,-1.26146 c -12.09522,5.19426 -21.3707,17.95732 -21.3707,35.24681 0,17.28949 9.27548,31.53662 21.3707,36.73089 z" />
    <path
       id="path943"
       style="font-style:normal;font-variant:normal;font-weight:bold;font-stretch:normal;font-size:74.20381927px;line-height:100%;font-family:'Bodoni* 11';-inkscape-font-specification:'Bodoni* 11 Bold';fill:#483737"
       d="m 260.81903,526.29445 v 1.48407 h 29.31051 v -1.48407 h -8.16242 v -54.16879 h -19.88663 v 1.48407 h 8.38504 v 52.68472 z" />
    <path
       id="path945"
       style="font-style:normal;font-variant:normal;font-weight:bold;font-stretch:normal;font-size:74.20381927px;line-height:100%;font-family:'Bodoni* 11';-inkscape-font-specification:'Bodoni* 11 Bold';fill:#483737"
       d="m 337.92724,526.29445 h -5.56529 v -13.72771 h 8.16242 v -1.48408 h -8.16242 v -38.957 h -8.53344 l -27.45541,40.44108 h 24.48726 v 13.72771 h -7.04937 v 1.48407 h 24.11625 z m -38.7344,-15.21179 21.66752,-31.90764 v 31.90764 z" />
    <path
       id="path947"
       style="font-style:normal;font-variant:normal;font-weight:bold;font-stretch:normal;font-size:74.20381927px;line-height:100%;font-family:'Bodoni* 11';-inkscape-font-specification:'Bodoni* 11 Bold';fill:#483737"
       d="m 383.23794,527.77852 v -16.69586 h -1.48408 v 5.56529 h -29.38471 l 17.3637,-14.39554 c 5.49108,-4.15542 11.94681,-8.23663 11.94681,-16.77007 0,-7.7914 -6.52994,-14.09872 -18.10573,-14.09872 -11.65,0 -18.55096,6.97516 -18.55096,15.657 0,5.7137 2.96816,8.53344 6.67835,8.53344 3.71019,0 7.27197,-2.74554 7.27197,-6.82675 0,-3.71019 -2.96815,-6.38153 -6.60414,-6.38153 -2.37452,0 -4.67484,1.7809 -5.49108,3.8586 0.29681,-6.45573 5.12006,-11.42739 11.7242,-11.42739 6.90096,0 11.20478,4.45223 11.20478,13.65351 0,8.08821 -3.8586,14.09872 -9.94331,19.14458 l -15.5828,12.76306 v 7.42038 z" />
    <path
       id="path949"
       style="font-style:normal;font-variant:normal;font-weight:bold;font-stretch:normal;font-size:74.20381927px;line-height:100%;font-family:'Bodoni* 11';-inkscape-font-specification:'Bodoni* 11 Bold';fill:#483737"
       d="m 408.21564,522.28744 c 0,3.63599 2.52293,5.8621 6.01051,7.04936 -3.63599,0.66784 -8.38503,2.81975 -8.38503,8.08822 0,7.04936 9.05286,9.64649 17.80891,9.64649 10.01752,0 17.4379,-4.22961 17.4379,-13.20828 0,-10.09171 -6.82675,-12.39203 -12.39204,-12.39203 -2.0777,0 -3.78439,0.0742 -6.38153,0.0742 -4.08121,0 -7.56878,-0.14841 -7.56878,-2.37452 0,-1.70669 2.74554,-2.81975 5.49108,-3.41338 0.89044,0.0742 1.78089,0.14841 2.59713,0.14841 7.12357,0 15.13758,-3.33917 15.13758,-11.50159 0,-2.52293 -0.74204,-4.52643 -2.0035,-6.15892 1.85509,-2.67134 4.37802,-3.48758 6.67834,-3.48758 1.63249,0 3.19077,0.29682 3.9328,1.48408 -0.29681,-0.14841 -0.81624,-0.44522 -1.85509,-0.44522 -2.67134,0 -4.30382,1.92929 -4.30382,4.37802 0,3.19077 2.37452,4.67484 4.60063,4.67484 2.22612,0 4.74905,-1.33567 4.74905,-5.41688 0,-2.81974 -2.22612,-6.15891 -7.12357,-6.15891 -2.59713,0 -5.56529,0.96465 -7.7172,3.78439 -2.96815,-2.89395 -7.71719,-4.15541 -12.09522,-4.15541 -7.12357,0 -15.13758,3.33917 -15.13758,11.50159 0,6.08471 4.45223,9.49809 9.6465,10.83376 -4.89745,0.81624 -9.12707,2.81974 -9.12707,7.04936 z m 10.24013,-17.88312 c 0,-6.23312 1.48407,-10.01752 4.37802,-10.01752 2.89395,0 4.37803,3.7844 4.37803,10.01752 0,6.23312 -1.48408,10.01751 -4.37803,10.01751 -4.007,0 -4.37802,-3.78439 -4.37802,-10.01751 z m -3.71019,30.94299 c 0,-1.33567 0.22261,-3.8586 1.85509,-5.41688 1.40987,0.22261 2.96815,0.37102 4.52643,0.37102 h 7.7172 c 4.82325,0 7.56879,2.52293 7.56879,6.52994 0,6.45573 -5.71369,8.45923 -11.94681,8.45923 -6.38153,0 -9.7207,-4.15541 -9.7207,-9.94331 z" />
    <path
       id="path951"
       style="font-style:normal;font-variant:normal;font-weight:bold;font-stretch:normal;font-size:74.20381927px;line-height:100%;font-family:'Bodoni* 11';-inkscape-font-specification:'Bodoni* 11 Bold';fill:#483737"
       d="m 453.08808,526.29445 v 1.48407 h 20.77707 v -1.48407 h -5.19427 v -15.06338 c 0,-7.27197 2.22612,-16.69586 9.27548,-16.69586 1.11306,0 2.30032,0.0742 3.19076,0.59363 -3.78439,0 -6.90095,2.44873 -6.90095,6.08471 0,3.7102 2.67134,5.93631 6.23312,5.93631 3.9328,0 6.15892,-2.96815 6.15892,-6.38153 0,-4.74904 -4.15542,-7.8656 -8.31083,-7.8656 -5.49108,0 -8.31083,3.48758 -9.6465,8.31082 v -7.56879 h -15.5828 v 1.48408 h 5.19427 v 31.16561 z" />
    <path
       id="path953"
       style="font-style:normal;font-variant:normal;font-weight:bold;font-stretch:normal;font-size:74.20381927px;line-height:100%;font-family:'Bodoni* 11';-inkscape-font-specification:'Bodoni* 11 Bold';fill:#483737"
       d="m 505.31599,508.41132 c -10.53694,0 -16.25064,4.74905 -16.25064,10.98217 0,5.49108 4.15542,9.12707 10.01752,9.12707 5.8621,0 9.7949,-2.52293 11.57579,-7.27197 v 0.74203 c 0,4.74905 4.08121,6.52994 8.68185,6.52994 4.30382,0 8.16242,-1.70669 9.86911,-5.41688 l -1.11306,-0.59363 c -1.40987,2.52293 -2.96815,3.11656 -4.30382,3.11656 -1.78089,0 -2.74554,-1.11306 -2.74554,-2.59713 v -17.88312 c 0,-6.75255 -3.19077,-12.09523 -15.4344,-12.09523 -7.49458,0 -13.95032,3.19077 -13.95032,7.93981 0,3.04236 2.37453,5.19427 5.7137,5.19427 2.96815,0 6.23312,-2.0035 6.23312,-5.34267 0,-3.48758 -3.04236,-4.67485 -5.12006,-4.82325 1.03885,-0.74204 2.59713,-1.26147 5.12006,-1.26147 5.56529,0 7.04936,4.67484 7.04936,10.38854 v 3.26496 z m -0.81624,15.95383 c -2.96816,0 -4.15542,-2.74555 -4.15542,-6.23312 0,-4.60064 3.04236,-8.23663 7.56879,-8.23663 h 2.74554 v 4.45223 c 0,7.49459 -3.41337,10.01752 -6.15891,10.01752 z" />
    <path
       id="path955"
       style="font-style:normal;font-variant:normal;font-weight:bold;font-stretch:normal;font-size:74.20381927px;line-height:100%;font-family:'Bodoni* 11';-inkscape-font-specification:'Bodoni* 11 Bold';fill:#483737"
       d="m 531.06007,526.29445 v 1.48407 h 19.4414 v -1.48407 h -3.8586 v -15.06338 c 0,-7.64299 2.89395,-15.21178 7.34618,-15.21178 2.81974,0 3.41337,2.67133 3.41337,8.90446 v 21.3707 h -3.9328 v 1.48407 h 18.25414 v -1.48407 h -3.9328 v -15.06338 c 0,-7.64299 2.30031,-15.21178 6.97515,-15.21178 2.81975,0 3.7844,2.67133 3.7844,8.90446 v 21.3707 h -3.8586 v 1.48407 h 19.4414 v -1.48407 h -5.19427 V 504.1075 c 0,-6.45573 -2.96815,-11.20477 -10.16592,-11.20477 -6.82675,0 -9.7949,4.007 -11.13057,8.83025 -0.59363,-5.26847 -3.41338,-8.83025 -9.6465,-8.83025 -6.67834,0 -9.86911,4.30382 -11.35318,9.34968 v -8.60765 h -15.5828 v 1.48408 h 5.19426 v 31.16561 z" />
    <path
       id="path957"
       style="font-style:normal;font-variant:normal;font-weight:bold;font-stretch:normal;font-size:74.20381927px;line-height:100%;font-family:'Bodoni* 11';-inkscape-font-specification:'Bodoni* 11 Bold';fill:#483737"
       d="m 599.74497,528.52056 3.8586,-3.63599 c 2.52293,2.30032 5.8621,3.63599 9.7949,3.63599 6.82675,0 13.43089,-3.9328 13.43089,-11.65 0,-13.95032 -22.26114,-11.05637 -22.26114,-17.36369 0,-3.71019 4.08121,-4.89746 6.52993,-4.89746 6.01051,0 9.94331,4.74905 11.79841,8.68185 h 1.48408 v -10.38853 h -1.11306 l -3.7844,3.26496 c -2.0777,-1.92929 -4.89745,-3.19076 -8.45923,-3.19076 -7.04936,0 -11.50159,4.82325 -11.50159,10.68535 0,14.54395 21.5191,10.83376 21.5191,18.03153 0,3.78439 -4.30382,5.19427 -8.38503,5.19427 -5.26847,0 -9.94331,-4.08121 -12.54044,-9.86911 h -1.48408 v 11.50159 z" />
    <path
       id="path959"
       style="font-style:normal;font-variant:normal;font-weight:bold;font-stretch:normal;font-size:74.20381927px;line-height:100%;font-family:'Bodoni* 11';-inkscape-font-specification:'Bodoni* 11 Bold';fill:#483737"
       d="m 629.73957,469.67693 c 7.34617,4.82325 10.53694,21.22229 10.53694,35.46943 0,14.24713 -3.19077,29.1621 -10.53694,33.98535 l 0.66783,1.26146 c 12.09522,-5.19427 21.3707,-17.95732 21.3707,-35.24681 0,-17.28949 -9.27548,-31.53663 -21.3707,-36.73089 z" />
  </g>
  <g
     id="flowRoot4649"
     style="font-style:italic;font-variant:normal;font-weight:bold;font-stretch:normal;line-height:0.01%;font-family:'Bodoni* 16';-inkscape-font-specification:'Bodoni* 16 Bold Italic';letter-spacing:0px;word-spacing:0px;fill:#483737;fill-opacity:1;stroke:none;stroke-width:1px;stroke-linecap:butt;stroke-linejoin:miter;stroke-opacity:1"
     transform="matrix(0.54529729,0,0,0.54529729,803.43901,153.5986)"
     aria-label="quality since 1914">
    <path
       id="path962"
       style="font-style:italic;font-variant:normal;font-weight:bold;font-stretch:normal;font-size:74.20381927px;line-height:1.25;font-family:'Bodoni* 16';-inkscape-font-specification:'Bodoni* 16 Bold Italic';fill:#483737"
       d="m 261.48341,386.15845 h -4.97165 l 12.09522,-52.3879 -9.94331,1.48408 -2.15191,9.05286 c -0.29682,-6.23312 -3.11657,-10.53694 -8.45924,-10.53694 -7.49459,0 -19.14459,8.16242 -19.14459,23.00318 0,9.6465 6.67835,12.61465 11.79841,12.61465 5.7879,0 10.01752,-4.89745 12.61465,-10.61114 l -6.45573,27.38121 h -5.04586 v 1.03885 h 19.66401 z m -5.8621,-40.8121 c 0,7.8656 -4.97166,20.92547 -11.20478,20.92547 -2.67133,0 -4.08121,-2.81974 -4.08121,-7.12356 0,-9.94332 6.01051,-21.96433 11.13058,-21.96433 2.59713,0 4.15541,3.48758 4.15541,8.16242 z" />
    <path
       id="path964"
       style="font-style:italic;font-variant:normal;font-weight:bold;font-stretch:normal;font-size:74.20381927px;line-height:1.25;font-family:'Bodoni* 16';-inkscape-font-specification:'Bodoni* 16 Bold Italic';fill:#483737"
       d="M 291.96611,334.51259 H 276.2349 v 1.03885 h 5.04586 l -5.04586,22.63217 c -1.33567,6.08471 0.96465,11.20477 8.16242,11.20477 6.52994,0 10.83376,-5.9363 13.87611,-13.7277 l -1.33566,5.9363 c -0.0742,0.44523 -0.14841,1.26147 -0.14841,1.63249 0,4.45223 2.44872,6.15891 7.04936,6.15891 7.12357,0 12.16943,-5.41688 14.98917,-12.83726 l -0.89044,-0.29681 c -1.9293,5.34267 -6.15892,10.75955 -10.16593,10.75955 -0.96465,0 -1.33567,-0.59363 -1.33567,-1.40987 0,-0.37102 0.0742,-0.89045 0.14841,-1.33567 l 6.90096,-29.75573 h -10.38854 l -3.48758,15.21178 c -2.96815,10.24013 -8.53344,17.4379 -12.02102,17.4379 -2.74554,0 -2.30031,-3.63599 -0.96465,-9.49809 z" />
    <path
       id="path966"
       style="font-style:italic;font-variant:normal;font-weight:bold;font-stretch:normal;font-size:74.20381927px;line-height:1.25;font-family:'Bodoni* 16';-inkscape-font-specification:'Bodoni* 16 Bold Italic';fill:#483737"
       d="m 365.25165,356.55112 -0.96465,-0.29681 c -1.92929,5.34267 -6.23312,10.75955 -10.09172,10.75955 -0.96464,0 -1.33566,-0.59363 -1.33566,-1.40987 0,-0.37102 0.0742,-0.89045 0.1484,-1.33567 l 7.643,-29.75573 h -10.16593 l -2.52293,9.86911 c -0.29681,-6.30733 -2.89394,-10.61115 -8.23662,-10.61115 -7.7172,0 -19.3672,8.16242 -19.3672,23.00318 0,9.6465 6.67835,12.61465 11.79841,12.61465 5.7879,0 10.01752,-4.89745 12.61465,-10.68535 l -0.66783,3.11656 c -0.14841,0.44523 -0.14841,1.40988 -0.14841,1.7809 0,3.71019 1.63248,5.78789 6.23312,5.78789 7.12357,0 12.24363,-5.41688 15.06337,-12.83726 z m -18.17993,-11.20477 c 0,7.8656 -4.97166,20.92547 -11.20478,20.92547 -2.67134,0 -4.08121,-2.81974 -4.08121,-7.12356 0,-9.94332 6.01051,-21.96433 11.13057,-21.96433 2.59714,0 4.15542,3.48758 4.15542,8.16242 z" />
    <path
       id="path968"
       style="font-style:italic;font-variant:normal;font-weight:bold;font-stretch:normal;font-size:74.20381927px;line-height:1.25;font-family:'Bodoni* 16';-inkscape-font-specification:'Bodoni* 16 Bold Italic';fill:#483737"
       d="m 392.22359,356.55112 -1.03885,-0.29681 c -2.0035,5.56528 -6.30733,10.83376 -10.01752,10.83376 -0.96465,0 -1.33567,-0.66784 -1.33567,-1.48408 0,-0.37102 0.0742,-0.89045 0.14841,-1.33567 l 11.79841,-51.27484 h -17.21529 v 1.03885 h 6.67835 l -10.90796,47.56465 c -0.0742,0.44523 -0.14841,1.26147 -0.14841,1.63249 0,4.45223 2.30032,6.15891 6.90095,6.15891 7.12357,0 12.31784,-5.41688 15.13758,-12.83726 z" />
    <path
       id="path970"
       style="font-style:italic;font-variant:normal;font-weight:bold;font-stretch:normal;font-size:74.20381927px;line-height:1.25;font-family:'Bodoni* 16';-inkscape-font-specification:'Bodoni* 16 Bold Italic';fill:#483737"
       d="m 405.08519,318.55877 c 0,3.56178 2.67134,6.30732 6.23312,6.30732 3.56179,0 6.38153,-2.74554 6.38153,-6.30732 0,-3.56179 -2.81974,-6.30733 -6.38153,-6.30733 -3.56178,0 -6.23312,2.74554 -6.23312,6.30733 z m 14.69236,37.99235 -1.03885,-0.29681 c -2.07771,5.63949 -6.30733,10.83376 -10.01752,10.83376 -0.96465,0 -1.33567,-0.66784 -1.33567,-1.48408 0,-0.37102 0.0742,-0.89045 0.14841,-1.33567 l 7.19777,-29.75573 h -16.02802 v 1.03885 h 5.49108 l -6.30733,26.04554 c -0.1484,0.44523 -0.1484,1.26147 -0.1484,1.63249 0,4.45223 2.30031,6.15891 6.90095,6.15891 7.12357,0 12.31783,-5.41688 15.13758,-12.83726 z" />
    <path
       id="path972"
       style="font-style:italic;font-variant:normal;font-weight:bold;font-stretch:normal;font-size:74.20381927px;line-height:1.25;font-family:'Bodoni* 16';-inkscape-font-specification:'Bodoni* 16 Bold Italic';fill:#483737"
       d="m 447.16224,356.55112 -0.96465,-0.29681 c -1.9293,5.34267 -6.08471,10.75955 -10.09172,10.75955 -0.96465,0 -1.33567,-0.59363 -1.33567,-1.40987 0,-0.37102 0.0742,-0.89045 0.14841,-1.33567 l 6.60414,-28.71688 h 7.27197 v -1.03885 h -7.04936 l 1.70669,-7.42038 h -10.24013 l -1.70669,7.42038 h -6.45573 v 1.03885 h 6.23312 l -6.01051,26.04554 c -0.14841,0.44523 -0.22261,1.26147 -0.22261,1.63249 0,4.45223 2.52293,6.15891 7.12357,6.15891 7.12356,0 12.16942,-5.41688 14.98917,-12.83726 z" />
    <path
       id="path974"
       style="font-style:italic;font-variant:normal;font-weight:bold;font-stretch:normal;font-size:74.20381927px;line-height:1.25;font-family:'Bodoni* 16';-inkscape-font-specification:'Bodoni* 16 Bold Italic';fill:#483737"
       d="m 457.48353,387.93934 c 13.6535,0 37.39872,-36.43408 37.39872,-46.08057 0,-3.7844 -2.22611,-8.08822 -7.12356,-8.08822 -3.8586,0 -6.08472,2.74554 -6.08472,5.71369 0,2.59714 2.00351,5.7137 5.8621,5.7137 3.26497,0 5.63949,-2.67134 5.7137,-5.63949 0.29681,0.59363 0.51943,1.48407 0.51943,2.37452 0,4.15541 -5.26848,14.46975 -12.16943,24.19045 -4.67484,-7.34618 -7.12357,-18.92198 -9.12707,-25.37771 -1.33567,-4.30382 -3.8586,-6.97516 -8.90446,-6.97516 -5.34267,0 -9.6465,2.44873 -12.09522,9.12707 l 0.96465,0.44522 c 1.48407,-4.30382 4.15541,-7.04936 6.23312,-7.04936 1.33567,0 1.9293,1.03885 2.22611,1.8551 2.00351,5.26847 7.12357,26.56496 13.28249,37.25031 -5.93631,6.60414 -12.09523,11.50159 -16.84427,11.50159 -5.93631,0 -8.53344,-4.37802 -8.53344,-7.27197 0.74204,1.9293 2.44873,3.33917 5.12006,3.33917 3.04236,0 5.34268,-2.30032 5.34268,-5.49108 0,-3.56178 -2.67134,-5.49108 -5.63949,-5.49108 -3.56178,0 -6.08471,3.19076 -6.08471,6.75254 0,4.45223 3.26496,9.20128 9.94331,9.20128 z" />
    <path
       id="path976"
       style="font-style:italic;font-variant:normal;font-weight:bold;font-stretch:normal;font-size:74.20381927px;line-height:1.25;font-family:'Bodoni* 16';-inkscape-font-specification:'Bodoni* 16 Bold Italic';fill:#483737"
       d="m 542.42951,338.51959 c -0.44523,-0.74203 -1.03886,-1.33566 -2.59714,-1.33566 -2.22611,0 -4.15541,1.85509 -4.15541,4.45223 0,2.96815 2.59713,4.52643 4.82325,4.52643 2.59713,0 4.60063,-1.78089 4.60063,-4.82325 0,-3.8586 -4.22962,-7.49459 -11.94681,-7.49459 -6.30733,0 -13.72771,3.93281 -13.72771,11.27898 0,10.83376 16.91847,11.27899 16.91847,17.66051 0,2.96816 -3.26497,5.7137 -8.45923,5.7137 -7.42039,0 -10.16593,-2.81975 -11.20478,-5.19427 0.29682,0.59363 1.26146,1.55828 3.19076,1.55828 2.52293,0 4.97166,-1.85509 4.97166,-4.82325 0,-3.33917 -2.81975,-4.89745 -5.04586,-4.89745 -2.59713,0 -5.26847,1.9293 -5.26847,5.34268 0,4.08121 3.78439,9.05286 13.35669,9.05286 8.31082,0 15.36019,-5.19427 15.36019,-12.16943 0,-9.8691 -16.69586,-10.75955 -16.69586,-17.73471 0,-2.67134 2.30032,-4.74904 6.82675,-4.74904 5.04586,0 8.16242,1.85509 9.05287,3.63598 z" />
    <path
       id="path978"
       style="font-style:italic;font-variant:normal;font-weight:bold;font-stretch:normal;font-size:74.20381927px;line-height:1.25;font-family:'Bodoni* 16';-inkscape-font-specification:'Bodoni* 16 Bold Italic';fill:#483737"
       d="m 560.01467,318.55877 c 0,3.56178 2.67134,6.30732 6.23312,6.30732 3.56178,0 6.38153,-2.74554 6.38153,-6.30732 0,-3.56179 -2.81975,-6.30733 -6.38153,-6.30733 -3.56178,0 -6.23312,2.74554 -6.23312,6.30733 z m 14.69235,37.99235 -1.03885,-0.29681 c -2.07771,5.63949 -6.30732,10.83376 -10.01752,10.83376 -0.96464,0 -1.33566,-0.66784 -1.33566,-1.48408 0,-0.37102 0.0742,-0.89045 0.1484,-1.33567 l 7.19777,-29.75573 h -16.02802 v 1.03885 h 5.49108 l -6.30732,26.04554 c -0.14841,0.44523 -0.14841,1.26147 -0.14841,1.63249 0,4.45223 2.30032,6.15891 6.90095,6.15891 7.12357,0 12.31784,-5.41688 15.13758,-12.83726 z" />
    <path
       id="path980"
       style="font-style:italic;font-variant:normal;font-weight:bold;font-stretch:normal;font-size:74.20381927px;line-height:1.25;font-family:'Bodoni* 16';-inkscape-font-specification:'Bodoni* 16 Bold Italic';fill:#483737"
       d="m 585.26483,335.55144 -7.93981,33.09491 h 10.38853 l 3.33918,-14.09873 c 2.96815,-10.75955 8.53344,-18.84777 12.54044,-18.84777 2.67134,0 2.44873,4.60064 0.51943,10.24013 l -5.04586,14.76656 c -0.22261,0.74203 -0.37102,1.55828 -0.37102,2.67133 0,3.93281 2.67134,6.01051 7.64299,6.01051 7.12357,0 11.5758,-5.41688 14.39554,-12.83726 l -0.96465,-0.29681 c -2.0777,5.63949 -6.08471,11.20477 -10.09172,11.20477 -0.96465,0 -1.40987,-0.51942 -1.40987,-1.33566 0,-0.37102 0.0742,-0.89045 0.22261,-1.33567 l 6.30733,-18.99618 c 2.30032,-6.97516 -0.81624,-12.02102 -8.38503,-12.02102 -6.38153,0 -10.53695,5.71369 -13.5051,13.20828 l 2.96815,-12.46624 h -15.5828 v 1.03885 z" />
    <path
       id="path982"
       style="font-style:italic;font-variant:normal;font-weight:bold;font-stretch:normal;font-size:74.20381927px;line-height:1.25;font-family:'Bodoni* 16';-inkscape-font-specification:'Bodoni* 16 Bold Italic';fill:#483737"
       d="m 656.54688,339.85526 c -0.44522,-0.66783 -1.78089,-1.48407 -3.9328,-1.48407 -2.52293,0 -5.7879,2.0777 -5.7879,5.78789 0,3.7102 3.11657,5.6395 6.08472,5.6395 3.33917,0 6.08471,-2.52293 6.08471,-6.67835 0,-5.71369 -5.12006,-9.34968 -11.94681,-9.34968 -11.20478,0 -22.48376,9.27548 -22.48376,23.3742 0,9.27548 6.52993,12.24363 12.54044,12.24363 7.49459,0 13.65351,-4.15541 17.80892,-11.35318 h -0.96465 c -4.15541,6.52994 -9.20127,9.34968 -13.20828,9.34968 -3.26497,0 -4.74904,-2.52293 -4.74904,-8.75605 0,-9.20127 4.37802,-23.67102 12.83726,-23.67102 4.007,0 6.75255,2.37452 7.71719,4.89745 z" />
    <path
       id="path984"
       style="font-style:italic;font-variant:normal;font-weight:bold;font-stretch:normal;font-size:74.20381927px;line-height:1.25;font-family:'Bodoni* 16';-inkscape-font-specification:'Bodoni* 16 Bold Italic';fill:#483737"
       d="m 673.81897,360.0387 c 0,-2.22611 0.22261,-4.52643 0.66783,-6.75255 8.68185,-0.22261 23.44841,-1.85509 23.44841,-11.87261 0,-5.34267 -5.63949,-7.64299 -12.83726,-7.64299 -10.83376,0 -22.70637,9.42389 -22.70637,23.3742 0,8.90446 6.52993,12.24363 13.6535,12.24363 8.23662,0 14.91497,-5.63949 18.17994,-11.35318 h -0.96465 c -3.26497,5.34267 -9.05287,9.57229 -14.39555,9.57229 -3.63598,0 -5.04585,-3.19076 -5.04585,-7.56879 z m 11.7984,-25.3777 c 2.07771,0 2.59714,2.74554 2.59714,5.49108 0,8.97866 -7.93981,11.65 -13.5051,12.16943 2.0035,-9.20128 6.90096,-17.66051 10.90796,-17.66051 z" />
    <path
       id="path986"
       style="font-style:italic;font-variant:normal;font-weight:bold;font-stretch:normal;font-size:74.20381927px;line-height:1.25;font-family:'Bodoni* 16';-inkscape-font-specification:'Bodoni* 16 Bold Italic';fill:#483737"
       d="m 714.90007,367.60749 v 1.03886 h 27.82643 v -1.03886 h -7.9398 l 12.39203,-54.61401 h -20.25764 v 1.03885 h 8.45924 l -12.09523,53.57516 z" />
    <path
       id="path988"
       style="font-style:italic;font-variant:normal;font-weight:bold;font-stretch:normal;font-size:74.20381927px;line-height:1.25;font-family:'Bodoni* 16';-inkscape-font-specification:'Bodoni* 16 Bold Italic';fill:#483737"
       d="m 796.08948,329.31832 c 0,-11.87261 -6.90096,-17.06688 -15.87962,-17.06688 -11.94681,0 -24.19044,10.38854 -24.19044,23.00319 0,10.38853 7.12356,14.24713 13.87611,14.24713 8.08822,0 12.46624,-8.45924 14.46974,-16.54745 -2.0035,14.54395 -13.6535,35.54363 -30.20095,35.54363 v 0.89044 c 23.2258,0 41.92516,-22.78057 41.92516,-40.07006 z m -28.19745,9.27548 c 0,-8.45924 5.26847,-25.3035 11.94681,-25.3035 3.56179,0 4.97166,3.85859 4.97166,8.97866 v 1.03885 c -0.37102,8.38503 -4.97166,24.19045 -12.76306,24.19045 -3.11656,0 -4.15541,-3.04236 -4.15541,-8.90446 z" />
    <path
       id="path990"
       style="font-style:italic;font-variant:normal;font-weight:bold;font-stretch:normal;font-size:74.20381927px;line-height:1.25;font-family:'Bodoni* 16';-inkscape-font-specification:'Bodoni* 16 Bold Italic';fill:#483737"
       d="m 796.78514,367.60749 v 1.03886 h 27.82644 v -1.03886 h -7.93981 l 12.39203,-54.61401 h -20.25764 v 1.03885 h 8.45924 l -12.09523,53.57516 z" />
    <path
       id="path992"
       style="font-style:italic;font-variant:normal;font-weight:bold;font-stretch:normal;font-size:74.20381927px;line-height:1.25;font-family:'Bodoni* 16';-inkscape-font-specification:'Bodoni* 16 Bold Italic';fill:#483737"
       d="m 877.60353,367.60749 h -6.08471 l 3.48758,-14.39554 h 8.16242 v -1.03885 h -7.93981 l 9.42388,-39.17962 h -10.31433 l -35.0984,40.21847 h 24.04203 l -3.26497,14.39554 h -6.52993 v 1.03886 h 24.11624 z m -36.13726,-15.43439 29.97834,-34.57898 -7.8656,34.57898 z" />
  </g>
</svg>
