<?xml version="1.0" encoding="UTF-8" standalone="no"?>
<svg
   xmlns:dc="http://purl.org/dc/elements/1.1/"
   xmlns:cc="http://creativecommons.org/ns#"
   xmlns:rdf="http://www.w3.org/1999/02/22-rdf-syntax-ns#"
   xmlns:svg="http://www.w3.org/2000/svg"
   xmlns="http://www.w3.org/2000/svg"
   xmlns:sodipodi="http://sodipodi.sourceforge.net/DTD/sodipodi-0.dtd"
   xmlns:inkscape="http://www.inkscape.org/namespaces/inkscape"
   sodipodi:docname="3.svg"
   viewBox="0 0 1500 600"
   height="600"
   width="1500"
   inkscape:version="1.1-dev (1:0.92.0+devel+202004190040+4386a61)"
   version="1.1"
   id="svg2">
  <metadata
     id="metadata8">
    <rdf:RDF>
      <cc:Work
         rdf:about="">
        <dc:format>image/svg+xml</dc:format>
        <dc:type
           rdf:resource="http://purl.org/dc/dcmitype/StillImage" />
        <dc:title></dc:title>
      </cc:Work>
    </rdf:RDF>
  </metadata>
  <defs
     id="defs6" />
  <sodipodi:namedview
     inkscape:current-layer="svg2"
     inkscape:window-maximized="1"
     inkscape:window-y="30"
     inkscape:window-x="0"
     inkscape:cy="501.73518"
     inkscape:cx="781.25371"
     inkscape:zoom="0.73122097"
     showgrid="false"
     id="namedview4"
     inkscape:window-height="1017"
     inkscape:window-width="1920"
     inkscape:pageshadow="2"
     inkscape:pageopacity="0"
     guidetolerance="10"
     gridtolerance="10"
     objecttolerance="10"
     borderopacity="1"
     bordercolor="#666666"
     pagecolor="#ffffff" />
  <path
     d="M -4.5456862,-3.5048697 H 1521.2898 V 611.67805 H -4.5456862 Z"
     style="fill:#d7f4e3;fill-opacity:1"
     id="rect3354" />
  <g
     style="font-style:normal;font-weight:normal;line-height:0.01%;font-family:sans-serif;letter-spacing:0px;word-spacing:0px;fill:#483737;fill-opacity:1;stroke:none;stroke-width:1px;stroke-linecap:butt;stroke-linejoin:miter;stroke-opacity:1"
     id="flowRoot3338"
     transform="matrix(5.0945161,0,0,5.0945161,88.181685,-210.31213)"
     aria-label="Earl&amp;Ogborn">
    <path
       id="path159"
       style="font-style:normal;font-variant:normal;font-weight:900;font-stretch:normal;font-size:30.9154px;line-height:1.25;font-family:'Bodoni* 36';-inkscape-font-specification:'Bodoni* 36 Heavy';fill:#483737"
       d="m 37.737942,84.128848 q -0.463731,-1.035666 -1.267531,-2.009501 -0.803801,-0.989293 -1.74672,-1.623058 -0.94292,-0.633766 -1.824009,-0.633766 h -0.278239 v 11.794225 h 1.514855 q 2.117705,0 3.802594,-0.881089 1.684889,-0.896547 2.828759,-2.426859 1.14387,-1.54577 1.607601,-3.508898 h 0.139119 v 6.955965 H 23.192247 v -0.139119 h 2.782386 V 68.748437 h -2.782386 v -0.139119 h 19.01297 v 6.337656 H 42.066098 Q 41.602367,73.293001 40.489413,71.88635 39.376458,70.464242 37.815231,69.614068 36.254003,68.748437 34.445452,68.748437 h -1.824009 v 10.990424 h 0.278239 q 0.881089,0 1.824009,-0.587392 0.942919,-0.60285 1.74672,-1.54577 0.8038,-0.94292 1.267531,-1.978586 h 0.139119 v 8.501735 z" />
    <path
       id="path161"
       style="font-style:normal;font-variant:normal;font-weight:900;font-stretch:normal;font-size:30.9154px;line-height:1.25;font-family:'Bodoni* 36';-inkscape-font-specification:'Bodoni* 36 Heavy';fill:#483737"
       d="m 51.307388,83.989729 h 2.380486 v -1.607601 q 0,-1.112954 -0.247323,-2.225909 -0.247324,-1.128412 -0.896547,-1.870381 -0.649223,-0.757428 -1.885839,-0.757428 -0.602851,0 -1.391193,0.13912 -0.788343,0.123661 -1.561228,0.432815 -0.772885,0.309154 -1.313905,0.834716 0.927462,-0.772885 2.303198,-0.772885 1.34482,0 2.318655,0.664681 0.989292,0.649224 0.989292,1.901297 0,1.267532 -0.989292,1.978586 -0.989293,0.711054 -2.318655,0.711054 -1.406651,0 -2.318655,-0.726512 -0.912005,-0.726512 -0.912005,-1.901297 0,-1.00475 0.54102,-1.669432 0.556477,-0.680138 1.453024,-1.066581 0.912004,-0.4019 1.978585,-0.556477 1.082039,-0.170035 2.148621,-0.170035 3.879882,0 5.920299,1.298447 2.055874,1.298447 2.055874,3.756221 v 7.883427 q 0,0.479189 0.278238,0.788343 0.293697,0.309154 0.850174,0.309154 0.355527,0 1.00475,-0.309154 0.664681,-0.309154 1.14387,-1.236616 l 0.108204,0.03091 q -0.525562,1.159328 -1.870382,1.715805 -1.34482,0.541019 -3.153371,0.541019 -1.901297,0 -3.076082,-0.711054 -1.159327,-0.711054 -1.159327,-2.071332 V 87.74595 q -0.34007,2.133162 -1.623059,3.246117 -1.267531,1.112954 -3.277032,1.112954 -2.009501,0 -3.215202,-1.020208 -1.190243,-1.035666 -1.190243,-2.797844 0,-2.071331 1.808551,-3.184286 1.824009,-1.112954 5.116499,-1.112954 z m 0.680139,6.028503 q 0.711054,0 1.2057,-0.958378 0.494647,-0.958377 0.494647,-2.844216 V 84.11339 h -0.293697 q -0.973835,0 -1.592143,0.602851 -0.60285,0.60285 -0.896546,1.437566 -0.278239,0.819258 -0.278239,1.514854 0,1.035666 0.309154,1.700347 0.309154,0.649224 1.051124,0.649224 z" />
    <path
       id="path163"
       style="font-style:normal;font-variant:normal;font-weight:900;font-stretch:normal;font-size:30.9154px;line-height:1.25;font-family:'Bodoni* 36';-inkscape-font-specification:'Bodoni* 36 Heavy';fill:#483737"
       d="m 63.448444,91.656748 h 2.164078 V 77.713903 h -2.164078 v -0.13912 h 8.038004 v 5.209245 q 0.247323,-2.519605 1.236616,-4.019002 1.004751,-1.499397 3.137913,-1.499397 1.252074,0 2.117705,0.602851 0.865631,0.60285 1.313905,1.530312 0.448273,0.927462 0.448273,1.916755 0,1.360277 -0.94292,2.395943 -0.942919,1.035666 -2.395943,1.035666 -1.468482,0 -2.411401,-0.94292 -0.94292,-0.958377 -0.94292,-2.225908 0,-1.375736 0.881089,-2.349571 0.896546,-0.989292 2.411401,-0.989292 1.066581,0 1.870382,0.525561 0.8038,0.525562 1.190243,1.298447 -0.34007,-1.066581 -1.236616,-1.854924 -0.896547,-0.8038 -2.303198,-0.8038 -1.669431,0 -2.627809,0.973835 -0.942919,0.973835 -1.34482,2.705097 -0.4019,1.731263 -0.4019,4.003545 v 6.569522 h 2.674182 v 0.139119 H 63.448444 Z" />
    <path
       id="path165"
       style="font-style:normal;font-variant:normal;font-weight:900;font-stretch:normal;font-size:30.9154px;line-height:1.25;font-family:'Bodoni* 36';-inkscape-font-specification:'Bodoni* 36 Heavy';fill:#483737"
       d="m 79.449581,91.656748 h 2.782386 V 68.748437 h -2.782386 v -0.139119 h 8.656312 v 23.04743 h 2.782386 v 0.139119 H 79.449581 Z" />
    <path
       id="path167"
       style="font-style:normal;font-variant:normal;font-weight:900;font-stretch:normal;font-size:30.9154px;line-height:1.25;font-family:'Bodoni* 36';-inkscape-font-specification:'Bodoni* 36 Heavy';fill:#483737"
       d="m 110.4925,77.574783 h 7.4197 v 0.13912 h -3.24612 q -0.21641,2.179535 -0.92746,4.374529 -0.71105,2.194993 -1.97859,4.080833 l 3.58619,5.487483 h 3.64802 v 0.139119 h -10.94405 l -0.88109,-1.313904 q -1.3912,0.757427 -3.07608,1.190243 -1.66944,0.432815 -3.64802,0.432815 -2.828761,0 -4.621854,-0.8038 -1.777635,-0.803801 -2.627809,-2.133163 -0.834716,-1.34482 -0.834716,-2.936963 0,-1.54577 0.54102,-2.689639 0.556477,-1.159328 1.422108,-1.978586 0.865631,-0.819258 1.824009,-1.375735 0.958377,-0.556477 1.793093,-0.896547 0.834716,-0.340069 1.298447,-0.541019 l -1.422109,-2.102248 q -0.60285,-0.881088 -1.020208,-1.932212 -0.4019,-1.066581 -0.4019,-1.870382 0,-2.086789 2.256824,-3.307947 2.272285,-1.236616 6.121245,-1.236616 3.64802,0 5.62661,0.942919 1.97858,0.927462 1.97858,2.550521 0,1.190243 -0.97383,2.071331 -0.97384,0.881089 -2.56598,1.514855 -1.59214,0.618308 -3.44707,1.020208 0.0773,0.123662 0.15458,0.247323 l 6.15216,9.41374 q 1.0975,-1.700347 1.83947,-3.83351 0.75743,-2.133162 0.98929,-4.513648 h -4.03446 z m -7.35786,-6.492233 q 0,0.989292 0.63376,2.411401 0.63377,1.40665 1.56123,2.813301 0.13912,-0.139119 0.30916,-0.448273 0.17003,-0.309154 0.29369,-1.205701 0.13912,-0.912004 0.13912,-2.797843 0,-1.530313 -0.2937,-2.473232 -0.29369,-0.958378 -1.15932,-0.958378 -0.74197,0 -1.11296,0.850174 -0.37098,0.834715 -0.37098,1.808551 z m -4.250869,10.433947 q 0,1.74672 0.324611,3.447067 0.324612,1.684889 1.004748,3.060624 0.68014,1.360278 1.73127,2.164078 1.06658,0.803801 2.5196,0.803801 1.29845,0 2.62781,-0.618308 L 99.316586,78.857773 q -0.432815,0.370984 -0.432815,2.658724 z" />
    <path
       id="path169"
       style="font-style:normal;font-variant:normal;font-weight:900;font-stretch:normal;font-size:30.9154px;line-height:1.25;font-family:'Bodoni* 36';-inkscape-font-specification:'Bodoni* 36 Heavy';fill:#483737"
       d="m 131.94683,92.105021 q -3.44707,0 -5.95122,-1.530312 -2.48869,-1.54577 -3.83351,-4.23541 -1.34482,-2.68964 -1.34482,-6.136707 0,-2.581435 0.8038,-4.760971 0.8038,-2.179536 2.28774,-3.771679 1.48394,-1.607601 3.52436,-2.48869 2.04041,-0.881088 4.51365,-0.881088 2.47323,0 4.51364,0.881088 2.04042,0.881089 3.52436,2.48869 1.48394,1.592143 2.28774,3.771679 0.8038,2.179536 0.8038,4.760971 0,3.447067 -1.34482,6.136707 -1.34482,2.68964 -3.84897,4.23541 -2.48869,1.530312 -5.93575,1.530312 z m 0,-23.665738 q -1.45303,0 -2.3032,1.453024 -0.83472,1.437566 -1.2057,4.080832 -0.35553,2.643267 -0.35553,6.229453 0,3.586187 0.2937,6.229453 0.29369,2.643267 1.12841,4.096291 0.83471,1.437566 2.44232,1.437566 1.6076,0 2.44231,-1.437566 0.83472,-1.453024 1.12841,-4.096291 0.2937,-2.643266 0.2937,-6.229453 0,-3.586186 -0.37098,-6.229453 -0.35553,-2.643266 -1.20571,-4.080832 -0.83471,-1.453024 -2.28773,-1.453024 z" />
    <path
       id="path171"
       style="font-style:normal;font-variant:normal;font-weight:900;font-stretch:normal;font-size:30.9154px;line-height:1.25;font-family:'Bodoni* 36';-inkscape-font-specification:'Bodoni* 36 Heavy';fill:#483737"
       d="m 145.62158,90.250097 q 0,-1.267531 0.83471,-1.994043 0.85018,-0.726512 2.13316,-1.051124 1.29845,-0.340069 2.64327,-0.417357 -1.46848,-0.154577 -2.8133,-0.695597 -1.34482,-0.541019 -2.19499,-1.530312 -0.85018,-1.004751 -0.85018,-2.504148 0,-1.282989 0.63377,-2.179535 0.63376,-0.912005 1.66943,-1.483939 1.05112,-0.571935 2.28774,-0.834716 1.25207,-0.278239 2.48869,-0.278239 1.4994,0 3.02971,0.4019 1.53031,0.401901 2.58143,1.282989 0.61831,-0.850173 1.45303,-1.190242 0.83471,-0.355528 1.65397,-0.355528 1.22116,0 2.02496,0.463731 0.81926,0.463731 1.22116,1.190243 0.41736,0.711055 0.41736,1.453024 0,1.329362 -0.74197,1.901297 -0.74197,0.571935 -1.66943,0.571935 -0.92747,0 -1.63852,-0.60285 -0.6956,-0.618308 -0.6956,-1.731263 0,-1.128412 0.71106,-1.669431 0.71105,-0.54102 1.62306,-0.54102 0.55647,0 1.12841,0.278239 0.58739,0.262781 0.92746,0.757427 -0.34007,-0.819258 -1.19024,-1.375735 -0.83472,-0.556477 -2.11771,-0.556477 -0.77288,0 -1.57668,0.355527 -0.8038,0.340069 -1.42211,1.14387 0.61831,0.556477 0.98929,1.298446 0.37099,0.74197 0.37099,1.700347 0,1.282989 -0.63377,2.194994 -0.63377,0.912004 -1.68489,1.483939 -1.03566,0.571935 -2.28774,0.850173 -1.25207,0.262781 -2.47323,0.262781 -0.21641,0 -0.43282,-0.01546 -0.57193,0.03092 -1.28299,0.139119 -0.71105,0.108204 -1.23661,0.340069 -0.51011,0.216408 -0.51011,0.587393 0,0.819258 2.61236,0.819258 0.81925,0 1.94767,-0.01546 1.12841,-0.01546 1.79309,-0.01546 0.86563,0 1.83947,0.293696 0.97383,0.293696 1.824,0.958377 0.86564,0.649224 1.40665,1.731263 0.54102,1.082039 0.54102,2.658724 0,2.055874 -1.12841,3.261575 -1.11295,1.2057 -3.01425,1.715804 -1.9013,0.525562 -4.25087,0.525562 -1.45302,0 -2.85967,-0.20095 -1.40665,-0.185492 -2.56598,-0.60285 -1.14387,-0.417358 -1.82401,-1.112955 -0.68014,-0.680138 -0.68014,-1.669431 0,-0.803801 0.52557,-1.329362 0.52556,-0.525562 1.3139,-0.834716 0.78834,-0.293696 1.62306,-0.432816 0.83471,-0.139119 1.45302,-0.154577 -1.80855,-0.262781 -2.87513,-1.051123 -1.05112,-0.788343 -1.05112,-2.194994 z m 5.78118,-8.192581 q 0,1.221159 0.0773,2.28774 0.0773,1.051124 0.2937,1.715805 0.23187,0.649223 0.68014,0.649223 0.37098,0 0.60285,-0.649223 0.23187,-0.664681 0.34007,-1.715805 0.1082,-1.066581 0.1082,-2.28774 0,-2.071331 -0.24732,-3.35432 -0.24732,-1.28299 -0.8038,-1.28299 -0.55648,0 -0.8038,1.28299 -0.24732,1.282989 -0.24732,3.35432 z m -2.28774,13.695522 q 0,1.592143 1.09749,2.720556 1.0975,1.128412 3.52436,1.128412 0.86563,0 1.87038,-0.170035 1.00475,-0.154577 1.91675,-0.556477 0.91201,-0.386443 1.4994,-1.051124 0.58739,-0.664681 0.58739,-1.669431 0,-1.112955 -0.68013,-1.653974 -0.68014,-0.54102 -1.68489,-0.711054 -1.00475,-0.170035 -2.0095,-0.170035 h -3.64802 q -0.85018,0 -1.6076,-0.07729 -0.32461,0.231866 -0.60285,0.819258 -0.26278,0.602851 -0.26278,1.391193 z" />
    <path
       id="path173"
       style="font-style:normal;font-variant:normal;font-weight:900;font-stretch:normal;font-size:30.9154px;line-height:1.25;font-family:'Bodoni* 36';-inkscape-font-specification:'Bodoni* 36 Heavy';fill:#483737"
       d="m 166.51024,68.748437 h -2.16408 v -0.139119 h 8.038 v 13.989218 q 0.34007,-2.550521 1.56123,-3.926256 1.22116,-1.375735 3.26157,-1.375735 1.68489,0 3.16883,0.881089 1.4994,0.881089 2.44232,2.535062 0.94292,1.653974 0.94292,3.972629 0,2.318655 -0.94292,3.988087 -0.94292,1.653974 -2.44232,2.55052 -1.48394,0.881089 -3.16883,0.881089 -2.02496,0 -3.26157,-1.391193 -1.22116,-1.391193 -1.56123,-3.957171 v 5.03921 h -8.038 v -0.139119 h 2.16408 z m 5.87392,15.936888 q 0,2.334113 0.52556,3.848968 0.54102,1.514854 1.32936,2.256824 0.78835,0.726512 1.54577,0.726512 0.78835,0 1.05113,-1.638517 0.27824,-1.638516 0.27824,-5.193787 0,-3.555271 -0.27824,-5.178329 -0.26278,-1.623059 -1.05113,-1.623059 -0.75742,0 -1.54577,0.726512 -0.78834,0.726512 -1.32936,2.241367 -0.52556,1.499397 -0.52556,3.833509 z" />
    <path
       id="path175"
       style="font-style:normal;font-variant:normal;font-weight:900;font-stretch:normal;font-size:30.9154px;line-height:1.25;font-family:'Bodoni* 36';-inkscape-font-specification:'Bodoni* 36 Heavy';fill:#483737"
       d="m 185.27928,84.685325 q 0,-2.009501 0.95838,-3.69439 0.97383,-1.684889 2.76692,-2.705097 1.7931,-1.020209 4.28179,-1.020209 2.48869,0 4.28178,1.020209 1.79309,1.020208 2.75147,2.705097 0.97384,1.684889 0.97384,3.69439 0,2.009501 -0.97384,3.694391 -0.95838,1.684889 -2.75147,2.705097 -1.79309,1.020208 -4.28178,1.020208 -2.48869,0 -4.28179,-1.020208 -1.79309,-1.020208 -2.76692,-2.705097 -0.95838,-1.68489 -0.95838,-3.694391 z m 6.0285,0 q 0,3.338863 0.52556,5.317449 0.54102,1.963128 1.45303,1.963128 0.89654,0 1.43756,-1.963128 0.54102,-1.978586 0.54102,-5.317449 0,-3.338863 -0.54102,-5.301991 -0.54102,-1.978585 -1.43756,-1.978585 -0.91201,0 -1.45303,1.978585 -0.52556,1.963128 -0.52556,5.301991 z" />
    <path
       id="path177"
       style="font-style:normal;font-variant:normal;font-weight:900;font-stretch:normal;font-size:30.9154px;line-height:1.25;font-family:'Bodoni* 36';-inkscape-font-specification:'Bodoni* 36 Heavy';fill:#483737"
       d="M 201.96392,91.656748 H 204.128 V 77.713903 h -2.16408 v -0.13912 h 8.03801 v 5.209245 q 0.24732,-2.519605 1.23661,-4.019002 1.00475,-1.499397 3.13792,-1.499397 1.25207,0 2.1177,0.602851 0.86563,0.60285 1.31391,1.530312 0.44827,0.927462 0.44827,1.916755 0,1.360277 -0.94292,2.395943 -0.94292,1.035666 -2.39594,1.035666 -1.46848,0 -2.4114,-0.94292 -0.94292,-0.958377 -0.94292,-2.225908 0,-1.375736 0.88108,-2.349571 0.89655,-0.989292 2.41141,-0.989292 1.06658,0 1.87038,0.525561 0.8038,0.525562 1.19024,1.298447 -0.34007,-1.066581 -1.23662,-1.854924 -0.89654,-0.8038 -2.30319,-0.8038 -1.66943,0 -2.62781,0.973835 -0.94292,0.973835 -1.34482,2.705097 -0.4019,1.731263 -0.4019,4.003545 v 6.569522 h 2.67418 v 0.139119 h -10.71219 z" />
    <path
       id="path179"
       style="font-style:normal;font-variant:normal;font-weight:900;font-stretch:normal;font-size:30.9154px;line-height:1.25;font-family:'Bodoni* 36';-inkscape-font-specification:'Bodoni* 36 Heavy';fill:#483737"
       d="m 219.23307,91.656748 h 2.16408 V 77.713903 h -2.16408 v -0.13912 h 8.03801 v 5.162872 q 0.17003,-1.360277 0.68014,-2.612351 0.52556,-1.252074 1.56122,-2.055874 1.03567,-0.803801 2.78239,-0.803801 1.65397,0 2.61235,0.602851 0.97384,0.60285 1.37574,1.669431 0.41735,1.051124 0.41735,2.395944 v 9.722893 h 2.16408 v 0.139119 h -9.27462 v -0.139119 h 1.23662 v -9.923843 q 0,-1.298447 -0.1082,-1.916755 -0.0927,-0.618308 -0.34007,-0.8038 -0.23187,-0.185493 -0.66469,-0.185493 -0.83471,0 -1.37573,0.927462 -0.54102,0.927462 -0.8038,2.334113 -0.26278,1.391193 -0.26278,2.813301 v 6.755015 h 1.23661 v 0.139119 h -9.27462 z" />
  </g>
  <g
     style="font-style:normal;font-weight:normal;line-height:0.01%;font-family:sans-serif;letter-spacing:0px;word-spacing:0px;fill:#483737;fill-opacity:1;stroke:none;stroke-width:1px;stroke-linecap:butt;stroke-linejoin:miter;stroke-opacity:1"
     id="flowRoot4537"
     transform="matrix(3.7101908,0,0,3.7101908,-1317.5033,-533.35892)"
     aria-label="fine chocolates">
    <path
       id="path132"
       style="font-style:normal;font-variant:normal;font-weight:500;font-stretch:normal;font-size:20px;line-height:1.25;font-family:'Bodoni* 24';-inkscape-font-specification:'Bodoni* 24 Medium';fill:#483737"
       d="m 411.56078,241.68933 h 1.67 v -8.84 h -1.67 v -0.18 h 1.67 v -1.03 q 0,-1.41 0.63,-2.53 0.63,-1.13 1.73,-1.78 1.11,-0.66 2.56,-0.66 0.91,0 1.65,0.3 0.75,0.3 1.19,0.78 0.44,0.47 0.44,1 0,0.69 -0.4,1.06 -0.39,0.36 -0.93,0.36 -0.45,0 -0.87,-0.3 -0.42,-0.3 -0.42,-0.97 0,-0.6 0.42,-0.94 0.42,-0.35 0.87,-0.35 0.35,0 0.66,0.15 -0.42,-0.39 -1.11,-0.65 -0.68,-0.26 -1.5,-0.26 -1.35,0 -2.06,1.14 -0.7,1.14 -0.7,3.08 v 1.6 h 5.94 v 9.02 h 1.4 v 0.18 h -11.17 z m 7.57,-8.84 h -3.74 v 8.84 h 3.74 z" />
    <path
       id="path134"
       style="font-style:normal;font-variant:normal;font-weight:500;font-stretch:normal;font-size:20px;line-height:1.25;font-family:'Bodoni* 24';-inkscape-font-specification:'Bodoni* 24 Medium';fill:#483737"
       d="m 423.93547,241.68933 h 1.28 v -8.84 h -1.28 v -0.18 h 3.46 v 3.11 q 0.14,-0.82 0.49,-1.57 0.36,-0.76 1.03,-1.25 0.68,-0.49 1.77,-0.49 1.15,0 1.76,0.39 0.61,0.39 0.83,1.08 0.23,0.68 0.23,1.55 v 6.2 h 1.27 v 0.18 h -4.61 v -0.18 h 1.15 v -6.01 q 0,-1.26 -0.19,-2.03 -0.18,-0.77 -0.93,-0.77 -0.85,0 -1.4,0.45 -0.54,0.45 -0.85,1.15 -0.3,0.7 -0.43,1.48 -0.12,0.78 -0.12,1.44 v 4.29 h 1.15 v 0.18 h -4.61 z" />
    <path
       id="path136"
       style="font-style:normal;font-variant:normal;font-weight:500;font-stretch:normal;font-size:20px;line-height:1.25;font-family:'Bodoni* 24';-inkscape-font-specification:'Bodoni* 24 Medium';fill:#483737"
       d="m 444.84422,239.08933 q -0.39,1.27 -1.42,2.13 -1.03,0.85 -2.74,0.85 -1.34,0 -2.41,-0.56 -1.06,-0.57 -1.69,-1.64 -0.62,-1.08 -0.62,-2.6 0,-1.52 0.6,-2.59 0.6,-1.08 1.65,-1.64 1.05,-0.57 2.39,-0.57 1.48,0 2.4,0.59 0.92,0.59 1.35,1.55 0.43,0.95 0.43,2.04 h -6.33 q 0,0.26 0,0.54 0,1.2 0.2,2.26 0.2,1.06 0.74,1.73 0.54,0.66 1.56,0.66 1.43,0 2.37,-0.79 0.95,-0.79 1.32,-1.96 z m -4.24,-6.44 q -0.77,0 -1.22,0.54 -0.45,0.53 -0.66,1.41 -0.21,0.87 -0.26,1.87 h 3.86 q 0,-0.58 -0.05,-1.24 -0.05,-0.67 -0.23,-1.25 -0.17,-0.59 -0.52,-0.96 -0.34,-0.37 -0.92,-0.37 z" />
    <path
       id="path138"
       style="font-style:normal;font-variant:normal;font-weight:500;font-stretch:normal;font-size:20px;line-height:1.25;font-family:'Bodoni* 24';-inkscape-font-specification:'Bodoni* 24 Medium';fill:#483737"
       d="m 459.98016,239.08933 q -0.39,1.3 -1.28,2.14 -0.88,0.84 -2.47,0.84 -1.33,0 -2.39,-0.55 -1.06,-0.56 -1.68,-1.63 -0.61,-1.07 -0.61,-2.62 0,-1.35 0.55,-2.43 0.55,-1.09 1.61,-1.73 1.06,-0.64 2.59,-0.64 1.08,0 1.87,0.36 0.8,0.36 1.23,0.96 0.44,0.6 0.44,1.32 0,0.61 -0.38,0.96 -0.37,0.35 -0.9,0.35 -0.45,0 -0.9,-0.31 -0.44,-0.31 -0.44,-0.98 0,-0.6 0.4,-0.92 0.41,-0.33 0.94,-0.33 0.53,0 0.88,0.31 -0.36,-0.71 -1.16,-1.1 -0.8,-0.4 -1.61,-0.4 -0.82,0 -1.33,0.45 -0.5,0.44 -0.77,1.14 -0.26,0.7 -0.35,1.49 -0.09,0.79 -0.09,1.5 0,1.14 0.19,2.18 0.2,1.03 0.73,1.68 0.53,0.65 1.53,0.65 1.28,0 2.05,-0.75 0.77,-0.76 1.16,-1.94 z" />
    <path
       id="path140"
       style="font-style:normal;font-variant:normal;font-weight:500;font-stretch:normal;font-size:20px;line-height:1.25;font-family:'Bodoni* 24';-inkscape-font-specification:'Bodoni* 24 Medium';fill:#483737"
       d="m 461.24016,241.68933 h 1.28 v -14.64 h -1.28 v -0.18 h 3.48 v 8.91 q 0.14,-0.81 0.49,-1.57 0.35,-0.76 1.02,-1.25 0.67,-0.49 1.76,-0.49 1.14,0 1.75,0.39 0.61,0.39 0.84,1.08 0.23,0.68 0.23,1.55 v 6.2 h 1.27 v 0.18 h -4.61 v -0.18 h 1.15 v -6.01 q 0,-1.26 -0.19,-2.03 -0.18,-0.77 -0.93,-0.77 -0.85,0 -1.4,0.45 -0.54,0.45 -0.84,1.15 -0.3,0.7 -0.42,1.48 -0.12,0.78 -0.12,1.44 v 4.29 h 1.15 v 0.18 h -4.63 z" />
    <path
       id="path142"
       style="font-style:normal;font-variant:normal;font-weight:500;font-stretch:normal;font-size:20px;line-height:1.25;font-family:'Bodoni* 24';-inkscape-font-specification:'Bodoni* 24 Medium';fill:#483737"
       d="m 473.26891,237.26933 q 0,-1.3 0.57,-2.39 0.57,-1.09 1.62,-1.75 1.06,-0.66 2.51,-0.66 1.45,0 2.5,0.66 1.06,0.66 1.63,1.75 0.57,1.09 0.57,2.39 0,1.3 -0.57,2.39 -0.57,1.09 -1.63,1.75 -1.05,0.66 -2.5,0.66 -1.45,0 -2.51,-0.66 -1.05,-0.66 -1.62,-1.75 -0.57,-1.09 -0.57,-2.39 z m 2.45,0 q 0,0.78 0.08,1.59 0.09,0.81 0.33,1.5 0.24,0.69 0.68,1.11 0.45,0.42 1.16,0.42 0.71,0 1.15,-0.42 0.45,-0.42 0.69,-1.11 0.24,-0.69 0.33,-1.5 0.09,-0.81 0.09,-1.59 0,-0.78 -0.09,-1.59 -0.09,-0.81 -0.33,-1.5 -0.24,-0.69 -0.69,-1.11 -0.44,-0.42 -1.15,-0.42 -0.71,0 -1.16,0.42 -0.44,0.42 -0.68,1.11 -0.24,0.69 -0.33,1.5 -0.08,0.81 -0.08,1.59 z" />
    <path
       id="path144"
       style="font-style:normal;font-variant:normal;font-weight:500;font-stretch:normal;font-size:20px;line-height:1.25;font-family:'Bodoni* 24';-inkscape-font-specification:'Bodoni* 24 Medium';fill:#483737"
       d="m 492.87078,239.08933 q -0.39,1.3 -1.28,2.14 -0.88,0.84 -2.47,0.84 -1.33,0 -2.39,-0.55 -1.06,-0.56 -1.68,-1.63 -0.61,-1.07 -0.61,-2.62 0,-1.35 0.55,-2.43 0.55,-1.09 1.61,-1.73 1.06,-0.64 2.59,-0.64 1.08,0 1.87,0.36 0.8,0.36 1.23,0.96 0.44,0.6 0.44,1.32 0,0.61 -0.38,0.96 -0.37,0.35 -0.9,0.35 -0.45,0 -0.9,-0.31 -0.44,-0.31 -0.44,-0.98 0,-0.6 0.4,-0.92 0.41,-0.33 0.94,-0.33 0.53,0 0.88,0.31 -0.36,-0.71 -1.16,-1.1 -0.8,-0.4 -1.61,-0.4 -0.82,0 -1.33,0.45 -0.5,0.44 -0.77,1.14 -0.26,0.7 -0.35,1.49 -0.09,0.79 -0.09,1.5 0,1.14 0.19,2.18 0.2,1.03 0.73,1.68 0.53,0.65 1.53,0.65 1.28,0 2.05,-0.75 0.77,-0.76 1.16,-1.94 z" />
    <path
       id="path146"
       style="font-style:normal;font-variant:normal;font-weight:500;font-stretch:normal;font-size:20px;line-height:1.25;font-family:'Bodoni* 24';-inkscape-font-specification:'Bodoni* 24 Medium';fill:#483737"
       d="m 494.71422,237.26933 q 0,-1.3 0.57,-2.39 0.57,-1.09 1.62,-1.75 1.06,-0.66 2.51,-0.66 1.45,0 2.5,0.66 1.06,0.66 1.63,1.75 0.57,1.09 0.57,2.39 0,1.3 -0.57,2.39 -0.57,1.09 -1.63,1.75 -1.05,0.66 -2.5,0.66 -1.45,0 -2.51,-0.66 -1.05,-0.66 -1.62,-1.75 -0.57,-1.09 -0.57,-2.39 z m 2.45,0 q 0,0.78 0.08,1.59 0.09,0.81 0.33,1.5 0.24,0.69 0.68,1.11 0.45,0.42 1.16,0.42 0.71,0 1.15,-0.42 0.45,-0.42 0.69,-1.11 0.24,-0.69 0.33,-1.5 0.09,-0.81 0.09,-1.59 0,-0.78 -0.09,-1.59 -0.09,-0.81 -0.33,-1.5 -0.24,-0.69 -0.69,-1.11 -0.44,-0.42 -1.15,-0.42 -0.71,0 -1.16,0.42 -0.44,0.42 -0.68,1.11 -0.24,0.69 -0.33,1.5 -0.08,0.81 -0.08,1.59 z" />
    <path
       id="path148"
       style="font-style:normal;font-variant:normal;font-weight:500;font-stretch:normal;font-size:20px;line-height:1.25;font-family:'Bodoni* 24';-inkscape-font-specification:'Bodoni* 24 Medium';fill:#483737"
       d="m 505.30266,241.68933 h 1.68 v -14.64 h -1.68 v -0.18 h 3.88 v 14.82 h 1.67 v 0.18 h -5.55 z" />
    <path
       id="path150"
       style="font-style:normal;font-variant:normal;font-weight:500;font-stretch:normal;font-size:20px;line-height:1.25;font-family:'Bodoni* 24';-inkscape-font-specification:'Bodoni* 24 Medium';fill:#483737"
       d="m 516.52609,236.78933 h 1.33 v -1.01 q 0,-0.72 -0.12,-1.42 -0.12,-0.71 -0.51,-1.17 -0.39,-0.47 -1.19,-0.47 -0.62,0 -1.28,0.19 -0.66,0.18 -1.12,0.54 0.22,-0.08 0.46,-0.08 0.52,0 0.93,0.31 0.41,0.3 0.41,0.87 0,0.64 -0.42,0.95 -0.42,0.31 -0.92,0.31 -0.55,0 -0.92,-0.32 -0.37,-0.32 -0.37,-0.9 0,-0.67 0.53,-1.13 0.54,-0.47 1.38,-0.71 0.84,-0.24 1.75,-0.24 1.43,0 2.2,0.46 0.78,0.46 1.07,1.21 0.3,0.74 0.3,1.6 v 5.06 q 0,0.34 0.14,0.58 0.14,0.24 0.54,0.24 0.3,0 0.68,-0.27 0.39,-0.27 0.63,-0.76 l 0.1,0.14 q -0.28,0.59 -0.89,0.95 -0.6,0.35 -1.39,0.35 -0.81,0 -1.4,-0.36 -0.59,-0.37 -0.59,-1.38 v -0.8 q -0.24,1.18 -0.96,1.86 -0.72,0.68 -1.94,0.68 -1.3,0 -2.08,-0.66 -0.77,-0.67 -0.77,-1.81 0,-1.34 1.14,-2.07 1.15,-0.74 3.28,-0.74 z m -0.69,4.7 q 0.79,0 1.4,-0.78 0.62,-0.78 0.62,-2.47 v -1.29 h -1.07 q -0.83,0 -1.33,0.4 -0.49,0.4 -0.71,0.98 -0.21,0.57 -0.21,1.1 0,0.49 0.12,0.97 0.13,0.47 0.41,0.78 0.29,0.31 0.77,0.31 z" />
    <path
       id="path152"
       style="font-style:normal;font-variant:normal;font-weight:500;font-stretch:normal;font-size:20px;line-height:1.25;font-family:'Bodoni* 24';-inkscape-font-specification:'Bodoni* 24 Medium';fill:#483737"
       d="m 528.73828,239.94933 q -0.38,0.91 -1.11,1.49 -0.73,0.57 -1.77,0.57 -0.88,0 -1.33,-0.34 -0.44,-0.35 -0.59,-0.9 -0.14,-0.55 -0.14,-1.16 v -6.76 h -1.42 v -0.18 h 1.42 v -2 q 0.54,0 1.17,-0.17 0.63,-0.18 1.02,-0.43 v 2.6 h 2.14 v 0.18 h -2.14 v 7.36 q 0,0.75 0.18,1.03 0.18,0.28 0.59,0.28 0.51,0 1.01,-0.48 0.51,-0.48 0.81,-1.17 z" />
    <path
       id="path154"
       style="font-style:normal;font-variant:normal;font-weight:500;font-stretch:normal;font-size:20px;line-height:1.25;font-family:'Bodoni* 24';-inkscape-font-specification:'Bodoni* 24 Medium';fill:#483737"
       d="m 538.75047,239.08933 q -0.39,1.27 -1.42,2.13 -1.03,0.85 -2.74,0.85 -1.34,0 -2.41,-0.56 -1.06,-0.57 -1.69,-1.64 -0.62,-1.08 -0.62,-2.6 0,-1.52 0.6,-2.59 0.6,-1.08 1.65,-1.64 1.05,-0.57 2.39,-0.57 1.48,0 2.4,0.59 0.92,0.59 1.35,1.55 0.43,0.95 0.43,2.04 h -6.33 q 0,0.26 0,0.54 0,1.2 0.2,2.26 0.2,1.06 0.74,1.73 0.54,0.66 1.56,0.66 1.43,0 2.37,-0.79 0.95,-0.79 1.32,-1.96 z m -4.24,-6.44 q -0.77,0 -1.22,0.54 -0.45,0.53 -0.66,1.41 -0.21,0.87 -0.26,1.87 h 3.86 q 0,-0.58 -0.05,-1.24 -0.05,-0.67 -0.23,-1.25 -0.17,-0.59 -0.52,-0.96 -0.34,-0.37 -0.92,-0.37 z" />
    <path
       id="path156"
       style="font-style:normal;font-variant:normal;font-weight:500;font-stretch:normal;font-size:20px;line-height:1.25;font-family:'Bodoni* 24';-inkscape-font-specification:'Bodoni* 24 Medium';fill:#483737"
       d="m 540.66641,242.06933 h -0.16 v -2.96 h 0.18 q 0.14,0.79 0.63,1.42 0.5,0.62 1.22,0.98 0.73,0.36 1.58,0.36 0.9,0 1.58,-0.4 0.69,-0.4 0.69,-1.29 0,-0.59 -0.41,-0.94 -0.41,-0.35 -1.05,-0.58 -0.64,-0.23 -1.36,-0.45 -0.72,-0.23 -1.37,-0.57 -0.64,-0.34 -1.05,-0.91 -0.41,-0.57 -0.41,-1.5 0,-0.7 0.33,-1.33 0.33,-0.63 0.97,-1.02 0.65,-0.39 1.6,-0.39 0.7,0 1.28,0.24 0.59,0.23 1.03,0.6 l 0.95,-0.86 h 0.16 v 2.8 h -0.18 q -0.1,-0.62 -0.52,-1.22 -0.42,-0.6 -1.11,-0.98 -0.69,-0.39 -1.59,-0.39 -0.8,0 -1.33,0.37 -0.53,0.37 -0.53,1.01 0,0.56 0.42,0.91 0.43,0.34 1.1,0.58 0.67,0.24 1.42,0.49 0.75,0.24 1.42,0.6 0.68,0.35 1.1,0.92 0.43,0.56 0.43,1.45 0,0.95 -0.48,1.64 -0.47,0.68 -1.26,1.05 -0.78,0.37 -1.72,0.37 -0.75,0 -1.41,-0.25 -0.66,-0.25 -1.16,-0.68 z" />
  </g>
  <path
     d="M 138.67015,90.437302 H 1361.348 V 412.12672 H 138.67015 Z"
     style="fill:none;fill-opacity:1;stroke:#483737;stroke-width:4.5391;stroke-miterlimit:4;stroke-dasharray:none;stroke-opacity:1"
     id="rect4545" />
  <path
     d="M 116.0825,67.849648 H 1383.9356 V 432.42173 H 116.0825 Z"
     style="fill:none;fill-opacity:1;stroke:#483737;stroke-width:8.72556;stroke-miterlimit:4;stroke-dasharray:none;stroke-opacity:1"
     id="rect4547" />
  <g
     style="font-style:normal;font-weight:normal;line-height:0.01%;font-family:sans-serif;letter-spacing:0px;word-spacing:0px;fill:#483737;fill-opacity:1;stroke:none;stroke-width:1px;stroke-linecap:butt;stroke-linejoin:miter;stroke-opacity:1"
     id="flowRoot4557"
     transform="translate(234,134)"
     aria-label="mint chocolate">
    <path
       id="path103"
       style="font-style:normal;font-variant:normal;font-weight:900;font-stretch:normal;font-size:74.2038px;line-height:1.25;font-family:'Bodoni* 24';-inkscape-font-specification:'Bodoni* 24, Heavy';font-variant-ligatures:normal;font-variant-caps:small-caps;font-variant-numeric:normal;font-variant-east-asian:normal;fill:#483737"
       d="m 233.09695,383.35596 h 3.33917 v -36.50827 h -3.71019 v -0.66783 h 20.10923 l 8.31082,20.73996 6.56704,-20.73996 h 19.7011 v 0.66783 h -3.33917 v 36.50827 h 5.825 v 0.66783 h -23.37419 v -0.66783 h 1.59538 V 347.1074 l -11.7613,37.65843 h -4.86035 l -14.35844,-37.58422 v 36.17435 h 3.33917 v 0.66783 h -7.38327 z" />
    <path
       id="path105"
       style="font-style:normal;font-variant:normal;font-weight:900;font-stretch:normal;font-size:74.2038px;line-height:1.25;font-family:'Bodoni* 24';-inkscape-font-specification:'Bodoni* 24, Heavy';font-variant-ligatures:normal;font-variant-caps:small-caps;font-variant-numeric:normal;font-variant-east-asian:normal;fill:#483737"
       d="m 293.74116,383.35596 h 6.34442 v -36.50827 h -6.34442 v -0.66783 h 29.3105 v 0.66783 h -7.04936 v 36.50827 h 7.04936 v 0.66783 h -29.3105 z" />
    <path
       id="path107"
       style="font-style:normal;font-variant:normal;font-weight:900;font-stretch:normal;font-size:74.2038px;line-height:1.25;font-family:'Bodoni* 24';-inkscape-font-specification:'Bodoni* 24, Heavy';font-variant-ligatures:normal;font-variant-caps:small-caps;font-variant-numeric:normal;font-variant-east-asian:normal;fill:#483737"
       d="m 329.39377,383.35596 h 5.9734 v -36.50827 h -5.9734 v -0.66783 h 24.74696 l 12.46624,18.77356 v -18.10573 h -6.34442 v -0.66783 h 12.98566 v 0.66783 h -5.97341 v 37.91814 h -4.26671 l -26.93598,-37.88104 v 36.47117 h 4.86035 v 0.66783 h -11.53869 z" />
    <path
       id="path109"
       style="font-style:normal;font-variant:normal;font-weight:900;font-stretch:normal;font-size:74.2038px;line-height:1.25;font-family:'Bodoni* 24';-inkscape-font-specification:'Bodoni* 24, Heavy';font-variant-ligatures:normal;font-variant-caps:small-caps;font-variant-numeric:normal;font-variant-east-asian:normal;fill:#483737"
       d="m 385.56372,383.35596 h 6.30733 v -36.50827 h -0.70494 q -4.26672,0 -7.16067,3.59888 -2.89395,3.59889 -5.67659,9.83201 h -0.66783 v -14.09872 h 44.41097 v 14.09872 h -0.66783 q -2.78265,-6.23312 -5.63949,-9.83201 -2.85685,-3.59888 -7.16067,-3.59888 h -0.74204 v 36.50827 h 6.27022 v 0.66783 h -28.56846 z" />
    <path
       id="path111"
       style="font-style:normal;font-variant:normal;font-weight:900;font-stretch:normal;font-size:74.2038px;line-height:1.25;font-family:'Bodoni* 24';-inkscape-font-specification:'Bodoni* 24, Heavy';font-variant-ligatures:normal;font-variant-caps:small-caps;font-variant-numeric:normal;font-variant-east-asian:normal;fill:#483737"
       d="m 479.8721,370.66711 v 13.35668 h -0.59363 l -5.00875,-2.96815 q -1.44698,1.63248 -3.37628,2.67134 -1.9293,1.03885 -4.34092,1.03885 -3.9699,0 -7.64299,-1.00175 -3.63599,-1.03885 -6.52993,-3.33917 -2.85685,-2.30032 -4.52644,-6.04761 -1.66958,-3.78439 -1.66958,-9.27548 0,-5.49108 1.70669,-9.23837 1.70668,-3.78439 4.56353,-6.08471 2.89395,-2.30032 6.45573,-3.30207 3.56178,-1.03885 7.27197,-1.03885 2.22612,0 4.04411,1.00175 1.85509,1.00175 3.33917,2.59713 l 5.30557,-2.85684 h 0.59363 v 13.35668 h -0.66783 q -1.29857,-2.70844 -2.78265,-5.49108 -1.48407,-2.81975 -3.19076,-4.74904 -1.70669,-1.9293 -3.71019,-1.9293 -4.37802,0 -5.71369,4.52643 -1.29857,4.48933 -1.29857,13.20827 0,8.71895 1.33567,13.39379 1.33567,4.63774 5.71369,4.63774 1.74379,0 3.19077,-1.26147 1.48407,-1.29856 2.70844,-3.26496 1.26146,-1.96641 2.26321,-4.08121 1.03885,-2.15191 1.8922,-3.8586 z" />
    <path
       id="path113"
       style="font-style:normal;font-variant:normal;font-weight:900;font-stretch:normal;font-size:74.2038px;line-height:1.25;font-family:'Bodoni* 24';-inkscape-font-specification:'Bodoni* 24, Heavy';font-variant-ligatures:normal;font-variant-caps:small-caps;font-variant-numeric:normal;font-variant-east-asian:normal;fill:#483737"
       d="m 489.68555,383.35596 h 4.86035 v -36.50827 h -4.86035 v -0.66783 h 24.48726 v 0.66783 h -3.67309 v 17.25238 h 11.8355 v -17.25238 h -3.71019 v -0.66783 h 24.48726 v 0.66783 h -4.78615 v 36.50827 h 4.78615 v 0.66783 h -24.48726 v -0.66783 h 3.71019 v -18.55095 h -11.8355 v 18.55095 h 3.67309 v 0.66783 h -24.48726 z" />
    <path
       id="path115"
       style="font-style:normal;font-variant:normal;font-weight:900;font-stretch:normal;font-size:74.2038px;line-height:1.25;font-family:'Bodoni* 24';-inkscape-font-specification:'Bodoni* 24, Heavy';font-variant-ligatures:normal;font-variant-caps:small-caps;font-variant-numeric:normal;font-variant-east-asian:normal;fill:#483737"
       d="m 569.61463,384.76583 q -6.23312,0 -11.16767,-2.37452 -4.93456,-2.41162 -7.8285,-6.82675 -2.85685,-4.41513 -2.85685,-10.46274 0,-6.0476 3.00525,-10.46273 3.00526,-4.41513 7.97691,-6.78965 5.00876,-2.41162 10.87086,-2.41162 5.8992,0 10.87085,2.41162 4.97166,2.37452 7.97691,6.78965 3.04236,4.41513 3.04236,10.46273 0,6.04761 -2.89395,10.46274 -2.85685,4.41513 -7.8285,6.82675 -4.93455,2.37452 -11.16767,2.37452 z m 0,-38.69728 q -2.18902,0 -3.48758,2.74554 -1.29857,2.70844 -1.8922,7.04936 -0.55653,4.34092 -0.55653,9.23837 0,4.86035 0.40812,9.23838 0.40812,4.34092 1.66959,7.08646 1.29857,2.70844 3.8586,2.70844 2.56003,0 3.82149,-2.70844 1.29857,-2.74554 1.70669,-7.08646 0.44522,-4.37803 0.44522,-9.23838 0,-4.89745 -0.59363,-9.23837 -0.55653,-4.34092 -1.89219,-7.04936 -1.29857,-2.74554 -3.48758,-2.74554 z" />
    <path
       id="path117"
       style="font-style:normal;font-variant:normal;font-weight:900;font-stretch:normal;font-size:74.2038px;line-height:1.25;font-family:'Bodoni* 24';-inkscape-font-specification:'Bodoni* 24, Heavy';font-variant-ligatures:normal;font-variant-caps:small-caps;font-variant-numeric:normal;font-variant-east-asian:normal;fill:#483737"
       d="m 631.90292,370.66711 v 13.35668 h -0.59363 l -5.00875,-2.96815 q -1.44698,1.63248 -3.37627,2.67134 -1.9293,1.03885 -4.34093,1.03885 -3.9699,0 -7.64299,-1.00175 -3.63598,-1.03885 -6.52993,-3.33917 -2.85685,-2.30032 -4.52643,-6.04761 -1.66959,-3.78439 -1.66959,-9.27548 0,-5.49108 1.70669,-9.23837 1.70669,-3.78439 4.56353,-6.08471 2.89395,-2.30032 6.45573,-3.30207 3.56178,-1.03885 7.27197,-1.03885 2.22612,0 4.04411,1.00175 1.8551,1.00175 3.33917,2.59713 l 5.30557,-2.85684 h 0.59363 v 13.35668 h -0.66783 q -1.29857,-2.70844 -2.78264,-5.49108 -1.48408,-2.81975 -3.19077,-4.74904 -1.70668,-1.9293 -3.71019,-1.9293 -4.37802,0 -5.71369,4.52643 -1.29856,4.48933 -1.29856,13.20827 0,8.71895 1.33566,13.39379 1.33567,4.63774 5.7137,4.63774 1.74379,0 3.19076,-1.26147 1.48408,-1.29856 2.70844,-3.26496 1.26146,-1.96641 2.26321,-4.08121 1.03886,-2.15191 1.8922,-3.8586 z" />
    <path
       id="path119"
       style="font-style:normal;font-variant:normal;font-weight:900;font-stretch:normal;font-size:74.2038px;line-height:1.25;font-family:'Bodoni* 24';-inkscape-font-specification:'Bodoni* 24, Heavy';font-variant-ligatures:normal;font-variant-caps:small-caps;font-variant-numeric:normal;font-variant-east-asian:normal;fill:#483737"
       d="m 663.38388,384.76583 q -6.23312,0 -11.16767,-2.37452 -4.93455,-2.41162 -7.8285,-6.82675 -2.85684,-4.41513 -2.85684,-10.46274 0,-6.0476 3.00525,-10.46273 3.00525,-4.41513 7.97691,-6.78965 5.00875,-2.41162 10.87085,-2.41162 5.89921,0 10.87086,2.41162 4.97165,2.37452 7.97691,6.78965 3.04235,4.41513 3.04235,10.46273 0,6.04761 -2.89394,10.46274 -2.85685,4.41513 -7.82851,6.82675 -4.93455,2.37452 -11.16767,2.37452 z m 0,-38.69728 q -2.18901,0 -3.48757,2.74554 -1.29857,2.70844 -1.8922,7.04936 -0.55653,4.34092 -0.55653,9.23837 0,4.86035 0.40812,9.23838 0.40812,4.34092 1.66959,7.08646 1.29856,2.70844 3.85859,2.70844 2.56003,0 3.8215,-2.70844 1.29857,-2.74554 1.70669,-7.08646 0.44522,-4.37803 0.44522,-9.23838 0,-4.89745 -0.59363,-9.23837 -0.55653,-4.34092 -1.8922,-7.04936 -1.29856,-2.74554 -3.48758,-2.74554 z" />
    <path
       id="path121"
       style="font-style:normal;font-variant:normal;font-weight:900;font-stretch:normal;font-size:74.2038px;line-height:1.25;font-family:'Bodoni* 24';-inkscape-font-specification:'Bodoni* 24, Heavy';font-variant-ligatures:normal;font-variant-caps:small-caps;font-variant-numeric:normal;font-variant-east-asian:normal;fill:#483737"
       d="m 691.42713,346.17986 h 25.63741 v 0.66783 h -4.82325 v 36.50827 h 0.37102 q 5.97341,0 9.83201,-3.45048 3.8957,-3.48758 6.67834,-8.86735 h 0.66783 v 12.98566 h -38.36336 v -0.66783 h 4.86035 v -36.50827 h -4.86035 z" />
    <path
       id="path123"
       style="font-style:normal;font-variant:normal;font-weight:900;font-stretch:normal;font-size:74.2038px;line-height:1.25;font-family:'Bodoni* 24';-inkscape-font-specification:'Bodoni* 24, Heavy';font-variant-ligatures:normal;font-variant-caps:small-caps;font-variant-numeric:normal;font-variant-east-asian:normal;fill:#483737"
       d="m 730.59283,383.35596 h 3.93281 l 16.47324,-37.91814 h 6.52993 l 16.06512,37.91814 h 3.59889 v 0.66783 h -28.34585 v -0.66783 h 6.15891 l -4.08121,-9.34968 h -11.57579 l -4.08121,9.34968 h 6.01051 v 0.66783 h -10.68535 z m 14.50685,-22.59506 -5.45398,12.57755 h 10.98216 z" />
    <path
       id="path125"
       style="font-style:normal;font-variant:normal;font-weight:900;font-stretch:normal;font-size:74.2038px;line-height:1.25;font-family:'Bodoni* 24';-inkscape-font-specification:'Bodoni* 24, Heavy';font-variant-ligatures:normal;font-variant-caps:small-caps;font-variant-numeric:normal;font-variant-east-asian:normal;fill:#483737"
       d="m 787.01787,383.35596 h 6.30732 v -36.50827 h -0.70493 q -4.26672,0 -7.16067,3.59888 -2.89395,3.59889 -5.67659,9.83201 h -0.66783 v -14.09872 h 44.41097 v 14.09872 h -0.66784 q -2.78264,-6.23312 -5.63948,-9.83201 -2.85685,-3.59888 -7.16067,-3.59888 h -0.74204 v 36.50827 h 6.27022 v 0.66783 h -28.56846 z" />
    <path
       id="path127"
       style="font-style:normal;font-variant:normal;font-weight:900;font-stretch:normal;font-size:74.2038px;line-height:1.25;font-family:'Bodoni* 24';-inkscape-font-specification:'Bodoni* 24, Heavy';font-variant-ligatures:normal;font-variant-caps:small-caps;font-variant-numeric:normal;font-variant-east-asian:normal;fill:#483737"
       d="m 857.39553,370.03638 q -0.74204,-1.9293 -2.11481,-3.22787 -1.37277,-1.33567 -2.81975,-2.0035 -1.40987,-0.66783 -2.41162,-0.66783 h -0.70494 v 19.21878 h 3.67309 q 4.82325,0 8.08821,-3.30207 3.30207,-3.33917 4.67484,-9.01576 h 0.70494 v 12.98566 h -37.95524 v -0.66783 h 4.86035 v -36.50827 h -4.86035 v -0.66783 h 37.62132 v 11.50158 h -0.70493 q -1.40988,-4.56353 -4.48933,-7.68009 -3.04236,-3.15366 -6.78965,-3.15366 h -4.82325 v 16.62165 h 0.70494 q 1.00175,0 2.41162,-0.59363 1.44698,-0.63073 2.81975,-1.85509 1.37277,-1.26147 2.11481,-3.19077 h 0.66783 v 12.20653 z" />
  </g>
  <g
     style="font-style:normal;font-weight:normal;line-height:0.01%;font-family:sans-serif;letter-spacing:0px;word-spacing:0px;fill:#483737;fill-opacity:1;stroke:none;stroke-width:1px;stroke-linecap:butt;stroke-linejoin:miter;stroke-opacity:1"
     id="flowRoot4637"
     transform="matrix(0.44310188,0,0,0.44310188,10.674843,325.7947)"
     aria-label="NET WT
5 oz
(142 grams)">
    <path
       id="path66"
       style="font-style:normal;font-variant:normal;font-weight:bold;font-stretch:normal;font-size:74.2038px;line-height:100%;font-family:'Bodoni* 16';-inkscape-font-specification:'Bodoni* 16 Bold';fill:#483737"
       d="m 231.01924,373.74657 h 7.53168 v -53.64935 h -7.53168 v -1.00175 h 22.59506 l 23.04027,35.2097 v -34.20795 h -8.34792 v -1.00175 h 17.17818 v 1.00175 h -7.7914 v 55.39314 h -1.37277 l -36.73088,-55.35604 v 53.61225 h 8.53343 v 1.00175 h -17.10397 z" />
    <path
       id="path68"
       style="font-style:normal;font-variant:normal;font-weight:bold;font-stretch:normal;font-size:74.2038px;line-height:100%;font-family:'Bodoni* 16';-inkscape-font-specification:'Bodoni* 16 Bold';fill:#483737"
       d="m 319.24292,355.45533 q -0.66784,-2.48583 -2.18902,-4.52643 -1.48407,-2.04061 -3.48758,-3.22787 -1.9664,-1.22436 -4.0812,-1.22436 h -2.00351 v 27.2699 h 6.75255 q 7.60589,0 11.8355,-4.30382 4.22962,-4.34093 5.23137,-11.39029 h 1.00175 v 16.69586 h -43.89154 v -1.00175 h 6.67834 v -53.64935 h -6.67834 v -1.00175 h 43.14951 v 15.21178 h -1.00176 q -0.66783,-3.9699 -2.70843,-7.19777 -2.04061,-3.22786 -5.30558,-5.12006 -3.22786,-1.8922 -7.56878,-1.8922 h -7.49459 v 25.3777 h 2.00351 q 3.15366,0 5.9363,-2.44872 2.81974,-2.48583 3.8215,-6.19602 h 1.03885 v 18.62515 z" />
    <path
       id="path70"
       style="font-style:normal;font-variant:normal;font-weight:bold;font-stretch:normal;font-size:74.2038px;line-height:100%;font-family:'Bodoni* 16';-inkscape-font-specification:'Bodoni* 16 Bold';fill:#483737"
       d="m 346.36672,373.74657 h 8.16241 v -53.64935 h -4.0812 q -3.8586,0 -6.56704,2.30032 -2.70844,2.30032 -4.34092,6.15891 -1.59538,3.8586 -2.26322,8.57054 h -1.03885 v -18.03152 h 48.9374 v 18.03152 h -1.00175 q -0.66783,-4.71194 -2.30032,-8.57054 -1.59538,-3.85859 -4.30382,-6.15891 -2.70844,-2.30032 -6.60414,-2.30032 h -4.0441 v 53.64935 h 8.16242 v 1.00175 h -28.71687 z" />
    <path
       id="path72"
       style="font-style:normal;font-variant:normal;font-weight:bold;font-stretch:normal;font-size:74.2038px;line-height:100%;font-family:'Bodoni* 16';-inkscape-font-specification:'Bodoni* 16 Bold';fill:#483737"
       d="m 470.26967,320.09722 h -6.52993 l -7.01226,18.51385 8.42213,22.92897 15.54569,-41.44282 h -7.12356 v -1.00175 h 14.87786 v 1.00175 h -6.60414 l -20.73996,55.39314 h -3.30207 l -10.09171,-26.97308 -10.20303,26.97308 h -4.63773 L 412.1681,320.09722 h -6.08471 v -1.00175 h 64.18628 z M 441.627,361.54004 447.11809,346.959 437.06347,320.09722 h -10.72245 z m 8.27373,-41.44282 6.23312,16.95557 6.45573,-16.95557 z" />
    <path
       id="path74"
       style="font-style:normal;font-variant:normal;font-weight:bold;font-stretch:normal;font-size:74.2038px;line-height:100%;font-family:'Bodoni* 16';-inkscape-font-specification:'Bodoni* 16 Bold';fill:#483737"
       d="m 501.00627,373.74657 h 8.16242 v -53.64935 h -4.08121 q -3.8586,0 -6.56703,2.30032 -2.70844,2.30032 -4.34093,6.15891 -1.59538,3.8586 -2.26321,8.57054 h -1.03886 v -18.03152 h 48.93741 v 18.03152 h -1.00175 q -0.66784,-4.71194 -2.30032,-8.57054 -1.59538,-3.85859 -4.30382,-6.15891 -2.70844,-2.30032 -6.60414,-2.30032 h -4.04411 v 53.64935 h 8.16242 v 1.00175 h -28.71687 z" />
    <path
       id="path76"
       style="font-style:normal;font-variant:normal;font-weight:bold;font-stretch:normal;font-size:74.2038px;line-height:100%;font-family:'Bodoni* 16';-inkscape-font-specification:'Bodoni* 16 Bold';fill:#483737"
       d="m 264.96748,405.32028 h -30.31225 v 16.43614 q 0.85334,-1.37277 2.56003,-2.81974 1.74379,-1.48408 4.56353,-2.48583 2.81974,-1.00175 6.93806,-1.00175 5.41687,0 9.64649,1.9664 4.26672,1.9293 6.71544,5.7508 2.44873,3.82149 2.44873,9.38678 0,4.82324 -2.93105,8.71894 -2.89395,3.8586 -7.8656,6.15892 -4.97166,2.26321 -11.13057,2.26321 -4.34093,0 -7.86561,-1.44697 -3.52468,-1.44698 -5.60238,-3.9699 -2.07771,-2.56004 -2.07771,-5.7879 0,-3.30207 1.8922,-5.26847 1.9293,-2.0035 4.97165,-2.0035 2.74554,0 4.82325,1.81799 2.0777,1.78089 2.0777,5.00876 0,2.93105 -2.15191,4.86035 -2.1148,1.89219 -4.74904,1.89219 -1.33567,0 -2.67134,-0.77914 -1.29856,-0.81624 -2.30031,-1.89219 1.52117,3.00525 4.97165,4.74904 3.48758,1.74379 7.23487,1.74379 3.11656,0 5.08296,-1.44698 2.0035,-1.48407 3.11656,-3.85859 1.15016,-2.37453 1.59538,-5.19427 0.48233,-2.85685 0.48233,-5.56528 0,-4.45223 -1.22437,-7.86561 -1.22436,-3.41337 -3.45047,-5.34267 -2.22612,-1.9664 -5.19427,-1.9664 -2.56003,0 -4.45223,0.89044 -1.89219,0.89045 -3.15366,2.15191 -1.26146,1.22437 -1.85509,2.33742 h -1.44698 v -29.4589 h 30.31226 v -4.04411 h 1.00175 z" />
    <path
       id="path78"
       style="font-style:normal;font-variant:normal;font-weight:bold;font-stretch:normal;font-size:74.2038px;line-height:100%;font-family:'Bodoni* 16';-inkscape-font-specification:'Bodoni* 16 Bold';fill:#483737"
       d="m 290.93996,431.88524 q 0,-4.82325 2.22612,-8.86735 2.22611,-4.04411 6.30732,-6.49283 4.11831,-2.44873 9.7949,-2.44873 5.67659,0 9.7949,2.44873 4.11831,2.44872 6.30733,6.49283 2.22611,4.0441 2.22611,8.86735 0,4.82325 -2.22611,8.86735 -2.18902,4.04411 -6.30733,6.49284 -4.11831,2.44872 -9.7949,2.44872 -5.67659,0 -9.7949,-2.44872 -4.08121,-2.44873 -6.30732,-6.49284 -2.22612,-4.0441 -2.22612,-8.86735 z m 11.76131,0 q 0,4.60064 0.59363,8.42213 0.63073,3.8215 2.0777,6.12182 1.44698,2.26321 3.8957,2.26321 2.48583,0 3.9328,-2.26321 1.44698,-2.30032 2.04061,-6.12182 0.63073,-3.82149 0.63073,-8.42213 0,-4.60063 -0.63073,-8.42213 -0.59363,-3.8215 -2.04061,-6.08471 -1.44697,-2.30032 -3.9328,-2.30032 -2.44872,0 -3.8957,2.30032 -1.44697,2.26321 -2.0777,6.08471 -0.59363,3.8215 -0.59363,8.42213 z" />
    <path
       id="path80"
       style="font-style:normal;font-variant:normal;font-weight:bold;font-stretch:normal;font-size:74.2038px;line-height:100%;font-family:'Bodoni* 16';-inkscape-font-specification:'Bodoni* 16 Bold';fill:#483737"
       d="m 346.28904,415.82012 q -5.00875,0 -7.8656,3.07946 -2.85684,3.04235 -3.8586,8.68184 h -1.00175 v -12.76305 h 30.23805 v 1.00175 l -19.92372,32.13024 h 6.67834 q 6.27022,0 9.34968,-2.85684 3.07946,-2.89395 4.08121,-9.7949 h 1.00175 v 13.65349 h -33.50301 v -1.00175 l 19.84951,-32.13024 z" />
    <path
       id="path82"
       style="font-style:normal;font-variant:normal;font-weight:bold;font-stretch:normal;font-size:74.2038px;line-height:100%;font-family:'Bodoni* 16';-inkscape-font-specification:'Bodoni* 16 Bold';fill:#483737"
       d="m 256.39694,535.02852 -0.48233,0.74204 q -6.04761,-2.59714 -10.94506,-7.97691 -4.86035,-5.34268 -7.71719,-12.72595 -2.85685,-7.38328 -2.85685,-16.02802 0,-8.64475 2.85685,-15.657 2.85684,-7.01226 7.71719,-11.98392 4.89745,-5.00875 10.94506,-7.60589 l 0.48233,0.70494 q -2.63424,1.74379 -4.48933,5.34267 -1.81799,3.56179 -2.96815,8.34793 -1.11306,4.74904 -1.63249,10.12882 -0.51942,5.37977 -0.51942,10.72245 0,5.34267 0.51942,10.94506 0.51943,5.60238 1.63249,10.68534 1.15016,5.04586 2.96815,8.83026 1.85509,3.82149 4.48933,5.52818 z" />
    <path
       id="path84"
       style="font-style:normal;font-variant:normal;font-weight:bold;font-stretch:normal;font-size:74.2038px;line-height:100%;font-family:'Bodoni* 16';-inkscape-font-specification:'Bodoni* 16 Bold';fill:#483737"
       d="m 261.10888,522.15416 h 9.64649 v -53.64935 h -8.38503 v -1.00175 h 20.77707 v 54.6511 h 8.16241 v 1.00175 h -30.20094 z" />
    <path
       id="path86"
       style="font-style:normal;font-variant:normal;font-weight:bold;font-stretch:normal;font-size:74.2038px;line-height:100%;font-family:'Bodoni* 16';-inkscape-font-specification:'Bodoni* 16 Bold';fill:#483737"
       d="m 339.75447,522.15416 v 1.00175 h -25.00668 v -1.00175 h 7.04936 v -14.46974 h -24.30174 l 27.64091,-40.18136 h 9.05287 v 39.17961 h 8.16241 v 1.00175 h -8.16241 v 14.46974 z M 299.3134,506.68267 h 22.48375 V 474.1072 Z" />
    <path
       id="path88"
       style="font-style:normal;font-variant:normal;font-weight:bold;font-stretch:normal;font-size:74.2038px;line-height:100%;font-family:'Bodoni* 16';-inkscape-font-specification:'Bodoni* 16 Bold';fill:#483737"
       d="m 385.68198,523.15591 h -39.66193 v -7.93981 l 16.02802,-12.09521 q 4.67484,-3.52468 7.01226,-8.12532 2.33742,-4.63774 2.33742,-10.87086 0,-4.30382 -1.29857,-7.71719 -1.26147,-3.41338 -3.63599,-5.41688 -2.33742,-2.0035 -5.52818,-2.0035 -3.15366,0 -5.97341,1.37277 -2.81974,1.33567 -4.74904,3.9328 -1.8922,2.59713 -2.33742,6.23312 1.03886,-1.37277 2.85685,-2.30032 1.81799,-0.92755 3.78439,-0.92755 2.63424,0 4.82325,1.9293 2.22611,1.9293 2.22611,4.89745 0,3.22787 -2.18901,5.23137 -2.15191,1.9664 -5.12006,1.9664 -2.93105,0 -5.15717,-2.18901 -2.22611,-2.22611 -2.30031,-5.8992 -0.18551,-4.86035 2.0777,-8.57054 2.30032,-3.71019 6.60414,-5.7879 4.34092,-2.1148 10.20302,-2.1148 5.7879,0 9.90621,1.89219 4.15541,1.8551 6.34442,5.08296 2.22612,3.19077 2.22612,7.12357 0,3.22786 -1.26147,5.75079 -1.22436,2.52293 -3.22786,4.56353 -2.0035,2.00351 -4.37803,3.71019 -2.33741,1.66959 -4.52643,3.22787 l -16.91846,13.02277 h 30.83167 v -5.56529 h 1.00176 z" />
    <path
       id="path90"
       style="font-style:normal;font-variant:normal;font-weight:bold;font-stretch:normal;font-size:74.2038px;line-height:100%;font-family:'Bodoni* 16';-inkscape-font-specification:'Bodoni* 16 Bold';fill:#483737"
       d="m 410.79069,518.59238 q 0,-2.44873 1.44697,-4.04411 1.48408,-1.63248 3.8957,-2.52293 2.41163,-0.92755 5.19427,-1.29857 -2.89395,-0.55652 -5.41688,-1.89219 -2.52293,-1.33567 -4.11831,-3.59889 -1.55828,-2.26321 -1.55828,-5.52818 0,-3.07946 1.37277,-5.23137 1.40987,-2.18901 3.71019,-3.52468 2.30032,-1.37277 5.00876,-2.0035 2.74554,-0.63073 5.41687,-0.63073 3.37628,0 6.75255,1.00175 3.41337,1.00175 5.71369,3.26497 1.52118,-2.18902 3.59889,-3.04236 2.0777,-0.89044 3.89569,-0.89044 3.7473,0 5.7137,2.15191 2.0035,2.1148 2.0035,4.56353 0,2.85685 -1.59538,4.04411 -1.55828,1.15015 -3.45048,1.15015 -1.8922,0 -3.37627,-1.26146 -1.48408,-1.26146 -1.48408,-3.59888 0,-2.37453 1.48408,-3.45048 1.52118,-1.11306 3.37627,-1.11306 1.37277,0 2.63424,0.66784 -0.85335,-0.96465 -2.18902,-1.55828 -1.33566,-0.63074 -3.04235,-0.63074 -1.66959,0 -3.56178,0.81625 -1.8922,0.77914 -3.37628,2.85684 1.03886,1.26147 1.63249,2.85685 0.63073,1.59538 0.63073,3.56178 0,3.07946 -1.37277,5.26847 -1.37277,2.15191 -3.63599,3.52468 -2.26321,1.37277 -4.97165,2.0035 -2.70844,0.63074 -5.37978,0.63074 -0.89044,0 -1.74379,-0.0371 -2.0777,0.25972 -4.11831,1.07596 -2.0035,0.81624 -2.0035,2.22611 0,1.40987 1.78089,1.8551 1.818,0.40812 4.86035,0.40812 1.9293,0 3.9699,-0.0371 2.04061,-0.0371 3.59889,-0.0371 2.11481,0 4.34092,0.59364 2.26322,0.55652 4.19251,1.9664 1.9293,1.40987 3.11656,3.85859 1.22437,2.44873 1.22437,6.23312 0,4.82325 -2.56003,7.7172 -2.52293,2.89394 -6.78965,4.19251 -4.26672,1.29857 -9.31258,1.29857 -4.56353,0 -8.64474,-0.96465 -4.08121,-0.92755 -6.67834,-3.00526 -2.56003,-2.0406 -2.56003,-5.37977 0,-2.0406 1.07595,-3.45048 1.07596,-1.37277 2.70844,-2.22611 1.66959,-0.81624 3.45048,-1.22436 1.78089,-0.40812 3.19076,-0.51943 -3.74729,-0.63073 -5.8992,-2.37452 -2.15191,-1.70669 -2.15191,-4.71194 z m 10.90796,-18.88487 q 0,2.85685 0.22261,5.23137 0.25971,2.37452 1.11306,3.78439 0.89044,1.40987 2.70843,1.40987 2.11481,0 3.07946,-3.04235 0.96465,-3.07946 0.96465,-7.38328 0,-4.60063 -0.96465,-7.49458 -0.96465,-2.89395 -3.07946,-2.89395 -2.1148,0 -3.07945,2.89395 -0.96465,2.89395 -0.96465,7.49458 z m -4.08121,32.31575 q 0,3.71019 2.63423,6.45573 2.63424,2.78265 8.12532,2.78265 3.15366,0 6.19602,-0.92755 3.04235,-0.92755 5.00875,-2.89395 2.0035,-1.9293 2.0035,-5.00875 0,-2.37453 -1.33566,-3.7844 -1.33567,-1.37277 -3.48758,-2.0035 -2.11481,-0.59363 -4.52643,-0.59363 h -8.49634 q -1.81799,0 -3.41337,-0.14841 -2.70844,1.78089 -2.70844,6.12181 z" />
    <path
       id="path92"
       style="font-style:normal;font-variant:normal;font-weight:bold;font-stretch:normal;font-size:74.2038px;line-height:100%;font-family:'Bodoni* 16';-inkscape-font-specification:'Bodoni* 16 Bold';fill:#483737"
       d="m 456.78545,522.15416 h 5.00876 v -32.13024 h -5.00876 v -1.00176 h 16.06512 v 10.68535 q 0.92755,-5.00876 3.37628,-8.19952 2.44872,-3.22786 6.93805,-3.22786 2.63424,0 4.45223,1.18726 1.85509,1.18726 2.78264,3.04235 0.96465,1.8551 0.96465,3.8957 0,2.70844 -1.81799,4.74905 -1.78089,2.0035 -4.67484,2.0035 -2.89395,0 -4.74904,-1.818 -1.818,-1.81799 -1.818,-4.30382 0,-2.81974 1.818,-4.67483 1.81799,-1.8551 4.67484,-1.8551 1.9664,0 3.59888,1.00175 -0.92755,-1.00175 -2.30032,-1.59538 -1.33567,-0.59363 -3.04235,-0.59363 -3.41338,0 -5.67659,2.41162 -2.26322,2.37452 -3.41338,6.41863 -1.11306,4.04411 -1.11306,9.01576 v 14.98917 h 5.825 v 1.00175 h -21.89012 z" />
    <path
       id="path94"
       style="font-style:normal;font-variant:normal;font-weight:bold;font-stretch:normal;font-size:74.2038px;line-height:100%;font-family:'Bodoni* 16';-inkscape-font-specification:'Bodoni* 16 Bold';fill:#483737"
       d="m 510.89742,504.23394 h 5.34267 v -3.67309 q 0,-2.67133 -0.51943,-5.19426 -0.51942,-2.56003 -2.0406,-4.22962 -1.48408,-1.66958 -4.45223,-1.66958 -1.66958,0 -3.63598,0.40812 -1.9664,0.40812 -3.67309,1.26146 0.63073,-0.1113 1.29857,-0.1113 2.59713,0 4.52643,1.37277 1.9293,1.33567 1.9293,3.8957 0,2.70844 -1.96641,4.15541 -1.9664,1.40987 -4.48932,1.40987 -2.70844,0 -4.48933,-1.44697 -1.7809,-1.48408 -1.7809,-3.96991 0,-2.85684 2.11481,-4.60063 2.15191,-1.78089 5.41688,-2.59713 3.26497,-0.81625 6.64124,-0.81625 8.64474,0 12.42914,3.41338 3.78439,3.37627 3.78439,8.71894 v 18.25414 q 0,1.22436 0.55653,2.07771 0.55653,0.85334 1.9664,0.85334 0.92755,0 2.33742,-0.77914 1.40987,-0.81624 2.30032,-2.59713 l 0.63073,0.55652 q -1.11306,2.41163 -3.8215,3.71019 -2.70844,1.26147 -6.30732,1.26147 -3.78439,0 -6.27022,-1.55828 -2.48583,-1.55828 -2.48583,-5.00876 v -2.18901 q -1.11306,4.15541 -4.04411,6.45573 -2.89394,2.30032 -7.27197,2.30032 -4.82324,0 -7.71719,-2.44873 -2.85685,-2.48582 -2.85685,-6.71544 0,-4.97165 4.30382,-7.71719 4.34092,-2.78265 12.24363,-2.78265 z m -0.51943,15.73121 q 2.22612,0 4.04411,-2.48583 1.81799,-2.48583 1.81799,-7.7543 v -4.63773 h -2.44872 q -2.70844,0 -4.34093,1.37277 -1.63248,1.33566 -2.37452,3.30207 -0.74204,1.9664 -0.74204,3.78439 0,2.59713 0.92755,4.52643 0.96465,1.8922 3.11656,1.8922 z" />
    <path
       id="path96"
       style="font-style:normal;font-variant:normal;font-weight:bold;font-stretch:normal;font-size:74.2038px;line-height:100%;font-family:'Bodoni* 16';-inkscape-font-specification:'Bodoni* 16 Bold';fill:#483737"
       d="m 537.07629,522.15416 h 5.00875 v -32.13024 h -5.00875 v -1.00176 h 16.06512 v 10.38854 q 0.59363,-2.85685 1.89219,-5.37978 1.29857,-2.56003 3.59889,-4.15541 2.30032,-1.59538 5.8992,-1.59538 5.41688,0 7.56879,3.07945 2.15191,3.07946 2.22611,7.7914 0.55653,-2.81974 1.81799,-5.30557 1.29857,-2.48583 3.56179,-4.007 2.26321,-1.55828 5.8621,-1.55828 5.49108,0 7.68009,3.19076 2.18901,3.15366 2.18901,7.97691 v 22.70636 h 5.00876 v 1.00175 h -19.5156 v -1.00175 h 3.45048 v -22.22404 q 0,-4.67484 -0.63074,-6.64124 -0.63073,-2.0035 -2.48582,-2.0035 -2.37453,0 -3.93281,2.33742 -1.52117,2.30032 -2.26321,5.825 -0.74204,3.52468 -0.74204,7.08646 v 15.6199 h 3.41338 v 1.00175 h -17.95732 v -1.00175 h 3.45047 v -22.22404 q 0,-4.67484 -0.59363,-6.64124 -0.59363,-2.0035 -2.41162,-2.0035 -2.37452,0 -3.9328,2.33742 -1.55828,2.30032 -2.37452,5.825 -0.77914,3.52468 -0.77914,7.08646 v 15.6199 h 3.45047 v 1.00175 h -19.51559 z" />
    <path
       id="path98"
       style="font-style:normal;font-variant:normal;font-weight:bold;font-stretch:normal;font-size:74.2038px;line-height:100%;font-family:'Bodoni* 16';-inkscape-font-specification:'Bodoni* 16 Bold';fill:#483737"
       d="m 605.89912,523.89795 h -0.85334 v -11.83551 h 1.00175 q 1.78089,5.04586 5.23137,7.90271 3.48758,2.85684 8.31083,2.85684 3.37627,0 5.52818,-1.33566 2.18901,-1.33567 2.18901,-3.7473 0,-1.9293 -1.55828,-3.04235 -1.55828,-1.15016 -4.007,-1.9664 -2.44873,-0.81624 -5.19427,-1.70669 -2.74554,-0.92755 -5.19427,-2.30032 -2.44872,-1.40987 -4.007,-3.67309 -1.52118,-2.30031 -1.52118,-5.9363 0,-4.56353 3.19076,-7.64299 3.19077,-3.11656 8.45924,-3.11656 2.56003,0 4.63773,0.85334 2.11481,0.81625 3.7473,2.18902 l 4.19251,-3.11656 h 0.89045 v 10.38853 h -1.00176 q -0.92754,-2.26322 -2.56003,-4.37803 -1.63248,-2.1148 -4.0812,-3.48757 -2.41163,-1.37277 -5.7879,-1.37277 -2.74554,0 -4.48933,1.26146 -1.70669,1.22436 -1.70669,3.15366 0,1.8551 1.59538,3.00525 1.59539,1.11306 4.08121,1.96641 2.52293,0.85334 5.34268,1.78089 2.85684,0.92754 5.34267,2.33742 2.52293,1.37277 4.11831,3.59888 1.59538,2.22611 1.59538,5.71369 0,3.96991 -1.9664,6.56704 -1.9664,2.56003 -5.08296,3.82149 -3.07946,1.26147 -6.41863,1.26147 -2.89395,0 -5.34267,-0.92755 -2.44873,-0.96465 -4.37803,-2.63423 z" />
    <path
       id="path100"
       style="font-style:normal;font-variant:normal;font-weight:bold;font-stretch:normal;font-size:74.2038px;line-height:100%;font-family:'Bodoni* 16';-inkscape-font-specification:'Bodoni* 16 Bold';fill:#483737"
       d="m 636.96269,464.53491 0.48232,-0.74204 q 6.04761,2.59714 10.90796,7.97691 4.89745,5.34268 7.7543,12.72595 2.85685,7.38328 2.85685,16.02802 0,8.64475 -2.85685,15.657 -2.85685,7.01226 -7.7543,11.98392 -4.86035,5.00875 -10.90796,7.60589 l -0.48232,-0.70494 q 2.63423,-1.74379 4.45223,-5.34267 1.85509,-3.56179 2.96815,-8.31083 1.15016,-4.78614 1.66959,-10.16592 0.51942,-5.37977 0.51942,-10.72245 0,-5.34267 -0.51942,-10.94506 -0.51943,-5.60238 -1.66959,-10.64824 -1.11306,-5.08296 -2.96815,-8.86736 -1.818,-3.82149 -4.45223,-5.52818 z" />
  </g>
  <g
     style="font-style:normal;font-weight:normal;line-height:0.01%;font-family:sans-serif;letter-spacing:0px;word-spacing:0px;fill:#483737;fill-opacity:1;stroke:none;stroke-width:1px;stroke-linecap:butt;stroke-linejoin:miter;stroke-opacity:1"
     id="flowRoot4649"
     transform="matrix(0.54529729,0,0,0.54529729,812.29615,147.17003)"
     aria-label="quality since 1914">
    <path
       id="path33"
       style="font-style:italic;font-variant:normal;font-weight:bold;font-stretch:normal;font-size:74.2038px;line-height:1.25;font-family:'Bodoni* 24';-inkscape-font-specification:'Bodoni* 24 Bold Italic';fill:#483737"
       d="m 261.92862,381.90691 v 0.66783 h -20.22053 v -0.66783 h 4.93455 l 6.60414,-28.16034 q -1.26147,2.93105 -3.11656,5.45398 -1.81799,2.52292 -4.22962,4.0441 -2.41162,1.52118 -5.37977,1.52118 -2.56003,0 -5.30557,-1.15016 -2.70844,-1.15016 -4.60064,-3.8957 -1.85509,-2.74554 -1.85509,-7.53168 0,-5.49108 1.85509,-9.7578 1.8922,-4.26672 4.86035,-7.19777 2.96815,-2.96815 6.34442,-4.48933 3.37628,-1.55828 6.38153,-1.55828 4.37803,0 6.15892,3.22787 1.78089,3.19076 1.78089,8.23662 l 2.37452,-10.01752 10.53694,-1.48407 -12.16942,52.7589 z m -6.34442,-41.0718 q 0,-3.37628 -1.00175,-5.97341 -0.96465,-2.59713 -3.00526,-2.59713 -1.81799,0 -3.71019,2.0777 -1.85509,2.07771 -3.45047,5.41688 -1.55828,3.33917 -2.56003,7.27197 -0.96465,3.9328 -0.96465,7.6801 0,3.19076 0.96465,5.08296 1.00175,1.89219 2.85684,1.89219 2.26322,0 4.22962,-2.0777 1.9664,-2.11481 3.45048,-5.34268 1.52117,-3.26496 2.33742,-6.82675 0.85334,-3.59888 0.85334,-6.60413 z" />
    <path
       id="path35"
       style="font-style:italic;font-variant:normal;font-weight:bold;font-stretch:normal;font-size:74.2038px;line-height:1.25;font-family:'Bodoni* 24';-inkscape-font-specification:'Bodoni* 24 Bold Italic';fill:#483737"
       d="m 292.84958,329.89005 -5.45398,23.33709 q -1.00175,4.37802 -1.07596,6.86385 -0.0371,2.48583 2.00351,2.48583 1.9664,0 4.0441,-2.22612 2.07771,-2.22611 4.00701,-6.15891 1.9293,-3.9699 3.37627,-9.16417 l 3.41338,-15.13757 h 11.20477 l -6.97516,30.01543 q -0.14841,0.81624 -0.14841,1.33567 0,1.40987 1.33567,1.40987 2.04061,0 4.04411,-1.52118 2.0406,-1.55828 3.74729,-4.0441 1.70669,-2.48583 2.74554,-5.37978 l 0.59363,0.22261 q -2.11481,5.56529 -5.9734,9.20127 -3.8215,3.63599 -9.38678,3.63599 -3.67309,0 -5.56529,-1.40987 -1.85509,-1.44698 -1.85509,-4.89745 0,-0.77914 0.1484,-1.63249 l 1.48408,-6.52993 q -1.48408,4.15541 -3.41337,7.45748 -1.8922,3.26497 -4.41513,5.15717 -2.52293,1.85509 -5.8992,1.85509 -3.59889,0 -5.71369,-1.52118 -2.07771,-1.55828 -2.78265,-4.08121 -0.70493,-2.56003 -0.0371,-5.60238 l 5.15717,-23.00318 h -5.04586 v -0.66783 z" />
    <path
       id="path37"
       style="font-style:italic;font-variant:normal;font-weight:bold;font-stretch:normal;font-size:74.2038px;line-height:1.25;font-family:'Bodoni* 24';-inkscape-font-specification:'Bodoni* 24 Bold Italic';fill:#483737"
       d="m 366.42149,351.92857 q -2.11481,5.56529 -5.97341,9.20127 -3.82149,3.63599 -9.38678,3.63599 -3.67309,0 -5.15716,-1.52118 -1.48408,-1.52118 -1.48408,-4.34092 0,-0.29681 0.0371,-0.92755 0.0742,-0.63073 0.18551,-1.03885 l 0.85335,-3.41337 q -1.26147,3.00525 -3.11656,5.56528 -1.818,2.56003 -4.26672,4.11831 -2.41162,1.55828 -5.41688,1.55828 -2.56003,0 -5.30557,-1.15016 -2.70844,-1.15016 -4.60064,-3.8957 -1.85509,-2.74554 -1.85509,-7.53168 0,-5.49108 1.85509,-9.7578 1.8922,-4.26672 4.86035,-7.19777 2.96816,-2.96815 6.34443,-4.48933 3.37627,-1.55828 6.38152,-1.55828 4.37803,0 6.15892,3.22787 1.78089,3.19076 1.78089,8.23662 l 2.81975,-10.75955 h 10.83375 l -7.8656,30.01543 q -0.14841,0.81624 -0.14841,1.33567 0,0.59363 0.33392,1.07596 0.33391,0.44522 1.03885,0.44522 1.9293,0 3.9328,-1.52118 2.0035,-1.55828 3.71019,-4.08121 1.74379,-2.52293 2.81974,-5.45398 z m -18.66226,-11.09346 q 0,-3.37628 -1.00175,-5.97341 -0.96465,-2.59713 -3.00525,-2.59713 -1.818,0 -3.71019,2.0777 -1.8551,2.07771 -3.45048,5.41688 -1.55828,3.33917 -2.56003,7.27197 -0.96465,3.9328 -0.96465,7.6801 0,3.19076 0.96465,5.08296 1.00175,1.89219 2.85685,1.89219 2.26321,0 4.22961,-2.0777 1.9664,-2.11481 3.45048,-5.34268 1.52118,-3.26496 2.33742,-6.82675 0.85334,-3.59888 0.85334,-6.60413 z" />
    <path
       id="path39"
       style="font-style:italic;font-variant:normal;font-weight:bold;font-stretch:normal;font-size:74.2038px;line-height:1.25;font-family:'Bodoni* 24';-inkscape-font-specification:'Bodoni* 24 Bold Italic';fill:#483737"
       d="m 393.75746,351.92857 q -2.11481,5.56529 -5.9734,9.20127 -3.8215,3.63599 -9.38679,3.63599 -3.67308,0 -5.52818,-1.40987 -1.81799,-1.44698 -1.81799,-4.89745 0,-0.77914 0.14841,-1.63249 l 10.94506,-47.78724 h -6.78965 v -0.66783 h 18.03152 l -11.87261,51.53453 q -0.1484,0.81624 -0.1484,1.33567 0,0.59363 0.29681,1.11306 0.33392,0.48232 1.03885,0.48232 1.74379,0 3.71019,-1.44697 2.00351,-1.44698 3.7844,-3.96991 1.78089,-2.52292 2.96815,-5.71369 z" />
    <path
       id="path41"
       style="font-style:italic;font-variant:normal;font-weight:bold;font-stretch:normal;font-size:74.2038px;line-height:1.25;font-family:'Bodoni* 24';-inkscape-font-specification:'Bodoni* 24 Bold Italic';fill:#483737"
       d="m 406.23761,314.30725 q 0,-2.85685 1.8922,-4.74904 1.92929,-1.9293 4.78614,-1.9293 2.81975,0 4.74904,1.9293 1.9293,1.89219 1.9293,4.74904 0,2.81974 -1.9293,4.74904 -1.92929,1.9293 -4.74904,1.9293 -2.85685,0 -4.78614,-1.9293 -1.8922,-1.9293 -1.8922,-4.74904 z m 15.50859,37.62132 q -2.11481,5.56529 -5.9734,9.20127 -3.8215,3.63599 -9.38678,3.63599 -3.67309,0 -5.52819,-1.40987 -1.81799,-1.44698 -1.81799,-4.89745 0,-0.29682 0.0371,-0.77914 0.0371,-0.51943 0.11131,-0.85335 l 6.38153,-26.26814 h -5.63949 v -0.66783 h 16.91846 l -7.34617,30.01543 q -0.14841,0.81624 -0.14841,1.33567 0,0.59363 0.29681,1.11306 0.33392,0.48232 1.03886,0.48232 1.74379,0 3.71019,-1.40987 1.9664,-1.44697 3.74729,-3.9328 1.78089,-2.52293 3.00525,-5.7879 z" />
    <path
       id="path43"
       style="font-style:italic;font-variant:normal;font-weight:bold;font-stretch:normal;font-size:74.2038px;line-height:1.25;font-family:'Bodoni* 24';-inkscape-font-specification:'Bodoni* 24 Bold Italic';fill:#483737"
       d="m 449.09727,351.92857 q -2.11481,5.56529 -5.97341,9.20127 -3.85859,3.63599 -9.38678,3.63599 -3.67309,0 -5.60238,-1.40987 -1.8922,-1.44698 -1.8922,-4.89745 0,-0.29682 0.0371,-0.77914 0.0742,-0.51943 0.14841,-0.85335 l 6.15891,-26.26814 h -6.19601 v -0.66783 h 6.34442 l 1.74379,-7.42038 h 11.05637 l -1.74379,7.42038 h 7.08646 v 0.66783 h -7.23487 l -6.86385,29.3476 q -0.14841,0.81624 -0.14841,1.33567 0,1.40987 1.33567,1.40987 2.07771,0 4.08121,-1.55828 2.0406,-1.59538 3.71019,-4.08121 1.66958,-2.52293 2.70844,-5.30557 z" />
    <path
       id="path45"
       style="font-style:italic;font-variant:normal;font-weight:bold;font-stretch:normal;font-size:74.2038px;line-height:1.25;font-family:'Bodoni* 24';-inkscape-font-specification:'Bodoni* 24 Bold Italic';fill:#483737"
       d="m 459.40811,383.31678 q -4.30382,0 -6.97516,-2.89395 -2.63423,-2.85684 -2.63423,-6.97516 0,-2.52292 1.78089,-4.60063 1.78089,-2.07771 4.56353,-2.07771 2.07771,0 4.00701,1.48408 1.9293,1.48407 1.9293,4.26672 0,2.48582 -1.70669,4.15541 -1.66959,1.70669 -3.9699,1.70669 -1.63249,0 -3.19077,-0.66784 -1.52118,-0.66783 -2.41162,-1.78089 0.70493,2.93105 3.00525,4.82325 2.30032,1.8922 5.60239,1.8922 3.9328,0 8.38503,-2.96816 4.48933,-2.96815 8.83025,-7.53168 -1.63248,-2.85685 -3.33917,-7.08646 -1.70669,-4.22962 -3.33917,-8.97866 -1.63249,-4.78615 -3.07946,-9.27548 -1.40987,-4.52643 -2.52293,-8.01401 -1.07595,-3.52468 -1.70669,-5.12006 -0.22261,-0.59363 -0.66783,-1.40987 -0.40812,-0.81624 -1.48408,-0.81624 -1.44697,0 -3.37627,1.74379 -1.8922,1.74378 -3.19076,5.41687 l -0.66784,-0.29681 q 1.8551,-5.00876 5.04586,-7.04936 3.19077,-2.07771 7.08646,-2.07771 4.48933,0 6.60414,1.9664 2.15191,1.9664 3.07946,5.15716 0.70494,2.48583 1.63248,5.825 0.96465,3.30207 2.11481,6.97516 1.18726,3.63599 2.59713,7.08646 1.44698,3.45048 3.22787,6.15892 3.56178,-4.97166 6.34442,-9.90621 2.78265,-4.97165 4.37803,-9.01576 1.63248,-4.04411 1.63248,-6.27022 0,-0.33392 -0.0371,-0.66784 -0.48232,2.07771 -2.33742,3.37628 -1.81799,1.29856 -4.04411,1.29856 -2.89394,0 -4.78614,-1.70668 -1.8551,-1.70669 -1.8551,-4.30382 0,-2.52293 1.818,-4.22962 1.81799,-1.74379 4.56353,-1.74379 2.59713,0 4.22962,1.26146 1.63248,1.22437 2.37452,3.07946 0.77914,1.818 0.77914,3.56178 0,2.07771 -1.29857,5.56529 -1.26146,3.48758 -3.56178,7.7914 -2.26322,4.30382 -5.26847,8.86735 -3.00525,4.56353 -6.49283,8.83025 -3.48758,4.30382 -7.19777,7.7172 -3.71019,3.41337 -7.42038,5.41688 -3.67309,2.0406 -7.04936,2.0406 z" />
    <path
       id="path47"
       style="font-style:italic;font-variant:normal;font-weight:bold;font-stretch:normal;font-size:74.2038px;line-height:1.25;font-family:'Bodoni* 24';-inkscape-font-specification:'Bodoni* 24 Bold Italic';fill:#483737"
       d="m 546.55932,352.81902 q 0,3.71019 -2.30032,6.41863 -2.30032,2.70844 -6.01051,4.19251 -3.67309,1.44698 -7.7914,1.44698 -3.67308,0 -6.71544,-1.15016 -3.00525,-1.15016 -4.82325,-3.19077 -1.81799,-2.0777 -1.81799,-4.74904 0,-2.63423 1.70669,-4.04411 1.74379,-1.44697 3.78439,-1.44697 1.74379,0 3.41338,1.22436 1.70668,1.22437 1.70668,3.7844 0,2.0406 -1.59538,3.48757 -1.59538,1.44698 -3.59888,1.44698 -1.00175,0 -2.11481,-0.33392 -1.07596,-0.37102 -1.8551,-1.07595 1.33567,2.48582 4.56354,3.9699 3.26496,1.48408 7.34617,1.48408 3.74729,0 6.19602,-1.33567 2.48583,-1.37277 2.48583,-4.26672 0,-1.81799 -1.74379,-3.19076 -1.70669,-1.37277 -4.22962,-2.67134 -2.52293,-1.29857 -5.08296,-2.85685 -2.52293,-1.59538 -4.26672,-3.82149 -1.70668,-2.22612 -1.70668,-5.49108 0,-3.67309 2.18901,-6.23312 2.18901,-2.56003 5.49108,-3.8586 3.30207,-1.33567 6.67834,-1.33567 3.45048,0 6.19602,1.00175 2.74554,0.96465 4.30382,2.67134 1.59538,1.66959 1.59538,3.74729 0,2.26322 -1.40987,3.67309 -1.37277,1.40987 -3.56178,1.40987 -1.8922,0 -3.33918,-1.33567 -1.40987,-1.37277 -1.40987,-3.30207 0,-2.22611 1.29857,-3.37627 1.33567,-1.18726 3.45048,-1.18726 1.59538,0 2.96815,0.85334 -1.48408,-1.63248 -4.19252,-2.59713 -2.70844,-0.96465 -5.8992,-0.96465 -2.56003,0 -4.45223,1.18726 -1.89219,1.18726 -1.89219,3.59889 0,1.9664 1.18726,3.37627 1.18726,1.37277 3.04235,2.48583 1.8922,1.11305 3.96991,2.22611 2.1148,1.11306 3.9699,2.44873 1.8922,1.33566 3.07946,3.19076 1.18726,1.85509 1.18726,4.48933 z" />
    <path
       id="path49"
       style="font-style:italic;font-variant:normal;font-weight:bold;font-stretch:normal;font-size:74.2038px;line-height:1.25;font-family:'Bodoni* 24';-inkscape-font-specification:'Bodoni* 24 Bold Italic';fill:#483737"
       d="m 563.0511,314.30725 q 0,-2.85685 1.8922,-4.74904 1.9293,-1.9293 4.78614,-1.9293 2.81975,0 4.74905,1.9293 1.92929,1.89219 1.92929,4.74904 0,2.81974 -1.92929,4.74904 -1.9293,1.9293 -4.74905,1.9293 -2.85684,0 -4.78614,-1.9293 -1.8922,-1.9293 -1.8922,-4.74904 z m 15.50859,37.62132 q -2.1148,5.56529 -5.9734,9.20127 -3.8215,3.63599 -9.38678,3.63599 -3.67309,0 -5.52818,-1.40987 -1.818,-1.44698 -1.818,-4.89745 0,-0.29682 0.0371,-0.77914 0.0371,-0.51943 0.11131,-0.85335 l 6.38153,-26.26814 h -5.63949 v -0.66783 h 16.91846 l -7.34617,30.01543 q -0.14841,0.81624 -0.14841,1.33567 0,0.59363 0.29682,1.11306 0.33391,0.48232 1.03885,0.48232 1.74379,0 3.71019,-1.40987 1.9664,-1.44697 3.74729,-3.9328 1.78089,-2.52293 3.00525,-5.7879 z" />
    <path
       id="path51"
       style="font-style:italic;font-variant:normal;font-weight:bold;font-stretch:normal;font-size:74.2038px;line-height:1.25;font-family:'Bodoni* 24';-inkscape-font-specification:'Bodoni* 24 Bold Italic';fill:#483737"
       d="m 589.71695,330.55788 h -5.00876 v -0.66783 h 16.32484 l -3.00525,12.50334 q 1.40987,-3.7844 3.22786,-6.78965 1.81799,-3.00526 4.22962,-4.71194 2.44872,-1.74379 5.67659,-1.74379 5.71369,0 8.08821,3.41337 2.37452,3.41338 0.59363,8.75605 l -6.41863,19.21878 q -0.22261,0.66784 -0.22261,1.33567 0,1.33567 1.40987,1.33567 2.89395,0 5.825,-3.22786 2.96815,-3.26497 4.78615,-8.23663 l 0.63073,0.18551 q -2.11481,5.56529 -5.60239,9.20127 -3.48758,3.63599 -9.01576,3.63599 -8.16242,0 -8.16242,-6.19602 0,-0.85334 0.11131,-1.52117 0.1113,-0.66784 0.25971,-1.18727 l 4.97166,-14.54394 q 0.96465,-2.85685 1.40987,-5.23137 0.48232,-2.41162 0.18551,-3.85859 -0.25972,-1.48408 -1.52118,-1.48408 -2.33742,0 -4.56353,2.33742 -2.18902,2.30032 -4.08121,6.30732 -1.8551,3.96991 -3.26497,8.97866 l -3.78439,15.657 h -11.13057 z" />
    <path
       id="path53"
       style="font-style:italic;font-variant:normal;font-weight:bold;font-stretch:normal;font-size:74.2038px;line-height:1.25;font-family:'Bodoni* 24';-inkscape-font-specification:'Bodoni* 24 Bold Italic';fill:#483737"
       d="m 657.9508,354.3773 q -2.67134,4.41512 -6.97516,7.42038 -4.30382,2.96815 -9.832,2.96815 -3.74729,0 -6.75255,-1.22436 -2.96815,-1.22436 -4.74904,-3.96991 -1.74379,-2.78264 -1.74379,-7.42037 0,-5.52819 2.11481,-9.79491 2.15191,-4.30382 5.60238,-7.23487 3.45048,-2.93105 7.45749,-4.45222 4.0441,-1.52118 7.8285,-1.52118 4.11831,0 6.75254,1.48407 2.67134,1.44698 3.9328,3.63599 1.26147,2.15191 1.26147,4.22962 0,2.81974 -1.9293,4.63773 -1.9293,1.818 -4.30382,1.818 -1.37277,0 -2.89395,-0.74204 -1.48407,-0.74204 -2.52293,-2.15191 -1.03885,-1.44698 -1.03885,-3.48758 0,-2.78264 1.9664,-4.48933 2.0035,-1.74379 4.48933,-1.74379 1.9293,0 3.52468,1.07596 -1.26147,-1.44698 -3.30207,-2.41163 -2.0035,-0.96465 -4.74904,-0.96465 -2.67134,0 -4.93455,2.26322 -2.26322,2.26322 -3.93281,5.825 -1.63248,3.52468 -2.56003,7.53168 -0.89044,3.96991 -0.89044,7.38328 0,4.41513 1.15016,7.23487 1.15015,2.78264 3.67308,2.78264 3.67309,0 7.04936,-2.56003 3.37628,-2.56003 5.60239,-6.12181 z" />
    <path
       id="path55"
       style="font-style:italic;font-variant:normal;font-weight:bold;font-stretch:normal;font-size:74.2038px;line-height:1.25;font-family:'Bodoni* 24';-inkscape-font-specification:'Bodoni* 24 Bold Italic';fill:#483737"
       d="m 677.27393,355.67587 q 0,3.11655 1.15016,5.41687 1.15015,2.26322 3.78439,2.26322 2.59713,0 5.34267,-1.33567 2.74554,-1.37277 5.15717,-3.63599 2.44872,-2.26321 4.15541,-4.97165 h 0.70494 q -1.66959,2.85685 -4.41513,5.45398 -2.74554,2.59713 -6.30732,4.26672 -3.56179,1.63248 -7.6801,1.63248 -3.67308,0 -6.90095,-1.18726 -3.19076,-1.18726 -5.15716,-3.8586 -1.9664,-2.67133 -1.9664,-7.12356 0,-5.19427 2.0035,-9.49809 2.0406,-4.30382 5.41688,-7.42038 3.37627,-3.11656 7.45748,-4.82324 4.11831,-1.70669 8.27372,-1.70669 3.63599,0 6.56704,0.81624 2.96815,0.81624 4.71194,2.52293 1.78089,1.70669 1.78089,4.37802 0,2.89395 -1.59538,4.93456 -1.55828,2.0035 -4.15542,3.33917 -2.56003,1.29856 -5.67659,2.0406 -3.07945,0.74204 -6.23311,1.07596 -3.11656,0.29681 -5.67659,0.37101 -0.74204,3.7473 -0.74204,7.04937 z m 11.42738,-25.89713 q -1.8922,0 -3.9699,2.63424 -2.07771,2.63423 -3.8586,6.82674 -1.78089,4.15542 -2.74554,8.79315 1.9664,-0.22261 4.22962,-0.96464 2.26321,-0.77914 4.26672,-2.26322 2.0406,-1.52118 3.30206,-3.8957 1.29857,-2.37452 1.29857,-5.7879 0,-1.85509 -0.55653,-3.59888 -0.51942,-1.74379 -1.9664,-1.74379 z" />
    <path
       id="path57"
       style="font-style:italic;font-variant:normal;font-weight:bold;font-stretch:normal;font-size:74.2038px;font-family:'Bodoni* 24';-inkscape-font-specification:'Bodoni* 24, Bold Italic';font-variant-ligatures:normal;font-variant-caps:normal;font-variant-numeric:oldstyle-nums"
       d="m 722.35505,363.35596 h 7.7172 l 7.19777,-32.79808 h -7.97691 v -0.66783 h 20.81416 l -7.56878,33.46591 h 8.53343 v 0.66783 h -28.71687 z" />
    <path
       id="path59"
       style="font-style:italic;font-variant:normal;font-weight:bold;font-stretch:normal;font-size:74.2038px;font-family:'Bodoni* 24';-inkscape-font-specification:'Bodoni* 24, Bold Italic';font-variant-ligatures:normal;font-variant-caps:normal;font-variant-numeric:oldstyle-nums"
       d="m 758.40769,350.96392 q 0,-4.60063 2.11481,-8.57053 2.11481,-3.96991 5.67659,-6.93806 3.56178,-2.96815 7.93981,-4.63774 4.37802,-1.66958 8.90445,-1.66958 4.56354,0 8.23662,1.70669 3.67309,1.70668 5.7879,5.26847 2.15191,3.56178 2.15191,9.20127 0,5.00875 -2.15191,10.31432 -2.11481,5.30558 -6.04761,10.24013 -3.8957,4.93455 -9.23837,8.86735 -5.30557,3.9699 -11.7242,6.27022 -6.38153,2.30032 -13.50509,2.30032 v -0.59363 q 6.34442,0 11.39028,-2.93105 5.08296,-2.89395 8.83025,-7.7172 3.74729,-4.82324 6.12181,-10.72244 2.41163,-5.89921 3.48758,-11.87261 -0.96465,3.71019 -2.70844,7.16066 -1.70668,3.45048 -4.41512,5.6766 -2.70844,2.22611 -6.56704,2.22611 -3.45047,0 -6.75254,-1.33567 -3.26497,-1.33567 -5.41688,-4.34092 -2.11481,-3.00526 -2.11481,-7.90271 z m 12.76305,3.63599 q 0,3.9328 0.85335,5.97341 0.89044,2.0406 2.96815,2.0406 2.56003,0 4.48933,-1.59538 1.9664,-1.59538 3.33917,-4.19252 1.40987,-2.59713 2.33742,-5.67659 0.92755,-3.07945 1.40987,-6.08471 0.48233,-3.04235 0.63073,-5.45398 l 0.0371,-1.59538 q 0,-3.37627 -1.11306,-5.78789 -1.11306,-2.44873 -3.48758,-2.44873 -1.8922,0 -3.63599,1.81799 -1.70668,1.78089 -3.15366,4.67484 -1.40987,2.85685 -2.48582,6.19602 -1.03886,3.33917 -1.63249,6.56704 -0.55653,3.22786 -0.55653,5.56528 z" />
    <path
       id="path61"
       style="font-style:italic;font-variant:normal;font-weight:bold;font-stretch:normal;font-size:74.2038px;font-family:'Bodoni* 24';-inkscape-font-specification:'Bodoni* 24, Bold Italic';font-variant-ligatures:normal;font-variant-caps:normal;font-variant-numeric:oldstyle-nums"
       d="m 805.83433,363.35596 h 7.7172 l 7.19777,-32.79808 h -7.97691 v -0.66783 h 20.81416 l -7.56878,33.46591 h 8.53343 v 0.66783 h -28.71687 z" />
    <path
       id="path63"
       style="font-style:italic;font-variant:normal;font-weight:bold;font-stretch:normal;font-size:74.2038px;font-family:'Bodoni* 24';-inkscape-font-specification:'Bodoni* 24, Bold Italic';font-variant-ligatures:normal;font-variant-caps:normal;font-variant-numeric:oldstyle-nums"
       d="m 870.67801,382.57474 h -12.39203 l 4.30382,-18.51385 h -22.78057 l 35.61783,-34.17084 h 7.38327 l -7.71719,33.46591 h 8.01401 v 0.70493 h -8.16242 z m -29.2734,-19.21878 h 21.3336 l 6.08471,-26.23104 z" />
  </g>
</svg>
