<?xml version="1.0" encoding="UTF-8" standalone="no"?>
<svg
   xmlns:dc="http://purl.org/dc/elements/1.1/"
   xmlns:cc="http://creativecommons.org/ns#"
   xmlns:rdf="http://www.w3.org/1999/02/22-rdf-syntax-ns#"
   xmlns:svg="http://www.w3.org/2000/svg"
   xmlns="http://www.w3.org/2000/svg"
   xmlns:sodipodi="http://sodipodi.sourceforge.net/DTD/sodipodi-0.dtd"
   xmlns:inkscape="http://www.inkscape.org/namespaces/inkscape"
   viewBox="0 0 1120.3125 140.625"
   height="150"
   width="1195"
   version="1.1"
   id="svg2"
   sodipodi:docname="accents.svg"
   inkscape:version="0.92.3 (2405546, 2018-03-11)">
  <sodipodi:namedview
     pagecolor="#ffffff"
     bordercolor="#666666"
     borderopacity="1"
     objecttolerance="10"
     gridtolerance="10"
     guidetolerance="10"
     inkscape:pageopacity="0"
     inkscape:pageshadow="2"
     inkscape:window-width="1920"
     inkscape:window-height="1052"
     id="namedview79"
     showgrid="false"
     inkscape:zoom="0.6325"
     inkscape:cx="639.93185"
     inkscape:cy="-109.63852"
     inkscape:window-x="0"
     inkscape:window-y="0"
     inkscape:window-maximized="1"
     inkscape:current-layer="svg2" />
  <metadata
     id="metadata8">
    <rdf:RDF>
      <cc:Work
         rdf:about="">
        <dc:format>image/svg+xml</dc:format>
        <dc:type
           rdf:resource="http://purl.org/dc/dcmitype/StillImage" />
        <dc:title></dc:title>
      </cc:Work>
    </rdf:RDF>
  </metadata>
  <defs
     id="defs6" />
  <path
     id="rect3354"
     d="M 0,0 H 1120.3125 V 140.625 H 0 Z"
     style="fill:#214478;fill-opacity:1;stroke-width:0.4183884"
     inkscape:connector-curvature="0" />
  <g
     aria-label="žriebä vœux Dvořák"
     transform="matrix(1.2459629,0,0,1.2459628,-436.77764,-16.212802)"
     style="font-style:italic;font-variant:normal;font-weight:normal;font-stretch:normal;font-size:96px;line-height:1.25;font-family:'Bodoni* 36';-inkscape-font-specification:'Bodoni* 36 Italic';text-align:center;letter-spacing:0px;word-spacing:10.00249958px;text-anchor:middle;fill:#5f8dd3;fill-opacity:1;stroke:none"
     id="flowRoot944">
    <path
       d="m 381.68485,33.6 -11.424,-6.528 -0.288,0.288 8.64,10.56 h 6.24 l 12.48,-10.56 -0.288,-0.288 z m -22.272,28.32 h 0.576 l 2.496,-10.176 c 2.496,2.304 7.296,3.936 11.52,3.936 5.664,0 11.616,-2.688 17.952,-7.488 l -39.456,41.088 h 0.096 l 0.48,0.48 c 3.072,-3.072 7.488,-4.704 12.096,-4.704 6.336,0 8.544,4.704 14.4,4.704 7.872,0 13.152,-11.52 13.152,-16.32 0,-3.936 -2.4,-5.472 -5.28,-5.472 -2.4,0 -4.992,1.536 -4.992,4.896 0,2.88 2.496,4.8 4.896,4.8 2.592,0 4.32,-1.728 4.8,-3.648 -0.096,2.496 -2.112,9.792 -6.72,9.792 -5.28,0 -7.392,-4.128 -12.576,-4.128 -5.568,0 -11.04,2.688 -16.8,6.912 l 39.36,-41.184 -0.576,-0.576 c -3.072,3.072 -11.424,3.552 -16.032,3.552 -4.416,0 -10.176,-0.864 -15.36,-3.744 z"
       style="font-style:italic;font-variant:normal;font-weight:normal;font-stretch:normal;font-family:'Bodoni* 36';-inkscape-font-specification:'Bodoni* 36 Italic';word-spacing:25px;fill:#5f8dd3;fill-opacity:1"
       id="path1206"
       inkscape:connector-curvature="0" />
    <path
       d="m 407.28985,45.216 -10.464,43.584 h 8.64 l 4.416,-19.104 c 2.4,-9.888 7.008,-25.536 16.032,-25.536 3.84,0 7.008,2.4 7.584,5.376 -0.768,-1.92 -2.496,-3.072 -4.512,-3.072 -2.784,0 -5.472,2.208 -5.472,5.568 0,3.552 2.496,5.28 5.664,5.28 3.648,0 5.568,-2.592 5.568,-5.856 0,-4.704 -4.416,-7.776 -8.832,-7.776 -6.528,0 -10.848,7.392 -13.728,15.84 l 3.36,-14.88 h -15.36 v 0.576 z"
       style="font-style:italic;font-variant:normal;font-weight:normal;font-stretch:normal;font-family:'Bodoni* 36';-inkscape-font-specification:'Bodoni* 36 Italic';word-spacing:25px;fill:#5f8dd3;fill-opacity:1"
       id="path1208"
       inkscape:connector-curvature="0" />
    <path
       d="m 447.56035,21.6 c 0,3.168 2.592,5.76 5.76,5.76 3.168,0 5.76,-2.592 5.76,-5.76 0,-3.168 -2.592,-5.76 -5.76,-5.76 -3.168,0 -5.76,2.592 -5.76,5.76 z m 13.632,51.552 -0.48,-0.192 c -3.168,8.64 -8.64,15.552 -14.304,15.552 -1.248,0 -1.728,-0.768 -1.728,-1.824 0,-0.48 0.096,-1.152 0.192,-1.728 l 9.408,-40.32 h -15.552 v 0.576 h 6.816 l -8.064,35.424 c -0.096,0.576 -0.192,1.632 -0.192,2.112 0,4.8 2.304,7.008 6.816,7.008 7.776,0 13.44,-7.008 17.088,-16.608 z"
       style="font-style:italic;font-variant:normal;font-weight:normal;font-stretch:normal;font-family:'Bodoni* 36';-inkscape-font-specification:'Bodoni* 36 Italic';word-spacing:25px;fill:#5f8dd3;fill-opacity:1"
       id="path1210"
       inkscape:connector-curvature="0" />
    <path
       d="m 476.16235,75.36 c 0,-2.592 0.288,-5.088 0.672,-7.584 11.424,-0.096 31.008,-1.056 31.008,-14.688 0,-6.912 -5.856,-9.408 -14.688,-9.408 -12.576,0 -26.976,11.232 -26.976,29.76 0,11.52 7.488,16.32 15.264,16.32 10.656,0 18.336,-7.296 22.08,-14.688 h -0.576 c -3.648,6.912 -10.848,13.824 -20.352,13.824 -5.664,0 -6.432,-6.432 -6.432,-13.536 z m 17.952,-31.2 c 3.456,0 4.512,4.416 4.512,8.928 0,11.808 -11.616,13.824 -21.6,14.112 2.4,-12.576 10.08,-23.04 17.088,-23.04 z"
       style="font-style:italic;font-variant:normal;font-weight:normal;font-stretch:normal;font-family:'Bodoni* 36';-inkscape-font-specification:'Bodoni* 36 Italic';word-spacing:25px;fill:#5f8dd3;fill-opacity:1"
       id="path1212"
       inkscape:connector-curvature="0" />
    <path
       d="m 526.51885,17.376 -13.728,59.904 c 1.92,6.048 6.72,12.48 16.416,12.48 14.304,0 28.032,-10.56 28.032,-30.72 0,-12.288 -8.64,-15.264 -15.072,-15.264 -6.432,0 -12.576,4.32 -16.512,15.072 l 9.6,-42.048 h -16.128 v 0.576 z m -4.704,57.984 2.592,-11.52 c 2.976,-10.368 8.928,-18.72 15.648,-18.72 4.896,0 7.2,4.992 7.2,12.096 0,12.864 -7.872,32.064 -17.856,32.064 -5.856,0 -7.584,-6.816 -7.584,-13.92 z"
       style="font-style:italic;font-variant:normal;font-weight:normal;font-stretch:normal;font-family:'Bodoni* 36';-inkscape-font-specification:'Bodoni* 36 Italic';word-spacing:25px;fill:#5f8dd3;fill-opacity:1"
       id="path1214"
       inkscape:connector-curvature="0" />
    <path
       d="m 596.55985,32.16 c 0,3.168 2.592,5.76 5.76,5.76 3.168,0 5.76,-2.592 5.76,-5.76 0,-3.168 -2.592,-5.76 -5.76,-5.76 -3.168,0 -5.76,2.592 -5.76,5.76 z m -19.2,0 c 0,3.168 2.592,5.76 5.76,5.76 3.168,0 5.76,-2.592 5.76,-5.76 0,-3.168 -2.592,-5.76 -5.76,-5.76 -3.168,0 -5.76,2.592 -5.76,5.76 z m 19.392,26.496 c 0,-8.832 -3.264,-14.976 -10.56,-14.976 -9.504,0 -24.576,10.56 -24.576,29.76 0,12.48 8.64,16.32 15.264,16.32 8.064,0 13.536,-7.392 16.704,-15.552 l -1.44,6.432 c -0.096,0.576 -0.192,1.632 -0.192,2.112 0,4.8 2.304,7.008 6.816,7.008 7.776,0 13.44,-7.008 17.088,-16.608 l -0.576,-0.192 c -3.168,8.64 -8.832,15.552 -14.208,15.552 -1.248,0 -1.728,-0.768 -1.728,-1.824 0,-0.48 0.096,-1.152 0.192,-1.728 l 9.408,-40.32 h -8.64 l -3.552,15.168 c 0,-0.384 0,-0.768 0,-1.152 z m -0.48,0 c 0,10.752 -6.816,29.856 -17.472,29.856 -4.896,0 -7.2,-5.28 -7.2,-13.152 0,-12.864 8.544,-29.76 17.568,-29.76 4.704,0 7.104,6.048 7.104,13.056 z"
       style="font-style:italic;font-variant:normal;font-weight:normal;font-stretch:normal;font-family:'Bodoni* 36';-inkscape-font-specification:'Bodoni* 36 Italic';word-spacing:25px;fill:#5f8dd3;fill-opacity:1"
       id="path1216"
       inkscape:connector-curvature="0" />
    <path
       d="m 672.80525,76.704 3.744,-23.232 c 0.096,-0.672 0.384,-1.824 0.384,-3.264 0,-4.128 -2.496,-6.528 -7.008,-6.528 -7.776,0 -13.44,7.008 -17.088,16.608 l 0.576,0.192 c 2.784,-7.872 8.448,-15.552 14.112,-15.552 1.248,0 1.824,0.768 1.824,1.824 0,0.48 -0.096,1.152 -0.192,1.728 l -5.088,27.744 c -1.44,7.872 0.768,13.536 10.08,13.536 11.808,0 26.784,-19.392 26.784,-33.984 0,-5.856 -1.44,-12 -7.488,-12 -3.552,0 -5.856,2.592 -5.856,5.472 0,2.4 1.536,5.472 5.76,5.472 4.32,0 5.568,-4.896 5.568,-6.72 0.672,1.152 1.44,3.648 1.44,7.776 0,14.688 -15.168,32.832 -24.576,32.832 -5.376,0 -4.224,-4.32 -2.976,-11.904 z"
       style="font-style:italic;font-variant:normal;font-weight:normal;font-stretch:normal;font-family:'Bodoni* 36';-inkscape-font-specification:'Bodoni* 36 Italic';word-spacing:25px;fill:#5f8dd3;fill-opacity:1"
       id="path1218"
       inkscape:connector-curvature="0" />
    <path
       d="m 721.12625,89.76 c 7.008,0 14.016,-2.688 19.296,-7.584 2.688,5.28 7.968,7.584 13.344,7.584 10.656,0 18.336,-7.296 22.08,-14.688 h -0.576 c -3.648,6.912 -10.848,13.824 -20.352,13.824 -5.664,0 -6.432,-6.432 -6.432,-13.536 0,-2.592 0.288,-5.088 0.672,-7.584 11.424,-0.096 31.008,-1.056 31.008,-14.688 0,-6.912 -5.856,-9.408 -14.688,-9.408 -6.048,0 -12.576,2.592 -17.76,7.488 -2.976,-5.568 -9.024,-7.488 -15.168,-7.488 -14.496,0 -28.608,11.52 -28.608,29.76 0,12.48 8.448,16.32 17.184,16.32 z m 45.312,-45.6 c 3.456,0 4.512,4.416 4.512,8.928 0,11.808 -11.616,13.824 -21.6,14.112 2.4,-12.576 10.08,-23.04 17.088,-23.04 z m -45.312,44.928 c -5.184,0 -7.2,-5.664 -7.2,-13.728 0,-11.904 6.24,-31.008 18.624,-31.008 5.184,0 7.2,5.664 7.2,13.728 0,11.904 -6.24,31.008 -18.624,31.008 z"
       style="font-style:italic;font-variant:normal;font-weight:normal;font-stretch:normal;font-family:'Bodoni* 36';-inkscape-font-specification:'Bodoni* 36 Italic';word-spacing:25px;fill:#5f8dd3;fill-opacity:1"
       id="path1220"
       inkscape:connector-curvature="0" />
    <path
       d="m 806.03975,44.64 h -15.552 v 0.576 h 6.72 l -6.816,30.048 c -1.728,7.872 -0.48,14.496 8.832,14.496 9.12,0 16.416,-9.792 20.64,-21.6 l -2.784,12.48 c -0.096,0.576 -0.192,1.632 -0.192,2.112 0,4.8 2.304,7.008 6.816,7.008 7.776,0 13.44,-7.008 17.088,-16.608 l -0.48,-0.192 c -2.976,8.064 -8.352,15.552 -14.304,15.552 -1.248,0 -1.728,-0.768 -1.728,-1.824 0,-0.48 0.096,-1.152 0.192,-1.728 l 9.408,-40.32 h -8.736 l -4.224,18.624 c -3.936,14.592 -12.48,25.152 -19.296,25.152 -4.416,0 -4.608,-5.088 -2.88,-12.672 z"
       style="font-style:italic;font-variant:normal;font-weight:normal;font-stretch:normal;font-family:'Bodoni* 36';-inkscape-font-specification:'Bodoni* 36 Italic';word-spacing:25px;fill:#5f8dd3;fill-opacity:1"
       id="path1222"
       inkscape:connector-curvature="0" />
    <path
       d="m 888.44825,78.336 -0.48,-0.192 c -2.592,7.008 -6.144,9.792 -8.352,9.792 -1.248,0 -2.496,-1.248 -2.88,-2.304 -2.208,-6.144 -4.512,-15.456 -6.528,-23.424 4.704,-8.448 9.024,-17.952 15.552,-17.952 4.128,0 5.856,2.592 6.336,4.608 -0.672,-1.824 -2.112,-2.88 -4.416,-2.88 -2.976,0 -5.184,2.688 -5.184,5.28 0,2.4 1.44,5.472 5.28,5.472 3.648,0 5.568,-2.304 5.568,-5.76 0,-3.072 -1.92,-7.296 -7.776,-7.296 -6.432,0 -10.848,9.024 -15.648,17.472 -0.864,-3.648 -1.728,-7.008 -2.4,-9.696 -1.248,-4.608 -3.84,-7.968 -9.312,-7.968 -5.952,0 -9.6,3.168 -12.768,11.808 l 0.48,0.192 c 2.208,-6.144 5.568,-10.464 8.544,-10.464 1.728,0 2.208,1.248 2.592,2.304 1.632,4.608 4.224,14.592 6.336,23.232 -5.568,9.984 -10.752,18.624 -16.416,18.624 -3.264,0 -5.76,-1.536 -6.528,-4.992 0.48,1.728 2.112,3.264 4.512,3.264 3.264,0 5.28,-2.688 5.28,-5.28 0,-2.4 -1.44,-5.472 -5.28,-5.472 -3.648,0 -5.568,2.304 -5.568,5.76 0,3.072 1.92,7.296 7.776,7.296 5.856,0 10.848,-8.448 16.416,-18.336 1.056,4.032 2.016,7.776 2.688,10.368 1.248,4.608 4.224,7.968 9.696,7.968 4.992,0 9.312,-2.784 12.48,-11.424 z"
       style="font-style:italic;font-variant:normal;font-weight:normal;font-stretch:normal;font-family:'Bodoni* 36';-inkscape-font-specification:'Bodoni* 36 Italic';word-spacing:25px;fill:#5f8dd3;fill-opacity:1"
       id="path1224"
       inkscape:connector-curvature="0" />
    <path
       d="m 950.29515,88.8 c 23.328,0 42.72005,-21.312 42.72005,-47.52 0,-15.648 -10.75205,-24.48 -26.40005,-24.48 h -28.32 v 0.576 h 9.504 l -16.128,70.848 h -8.736 V 88.8 Z m 16.32,-71.424 c 11.904,0 15.84,11.232 15.84,20.064 0,20.352 -11.616,50.784 -32.16,50.784 h -9.504 l 16.128,-70.848 z"
       style="font-style:italic;font-variant:normal;font-weight:normal;font-stretch:normal;font-family:'Bodoni* 36';-inkscape-font-specification:'Bodoni* 36 Italic';word-spacing:25px;fill:#5f8dd3;fill-opacity:1"
       id="path1226"
       inkscape:connector-curvature="0" />
    <path
       d="m 1015.0066,76.704 3.7441,-23.232 c 0.096,-0.672 0.384,-1.824 0.384,-3.264 0,-4.128 -2.496,-6.528 -7.008,-6.528 -7.776,0 -13.4401,7.008 -17.088,16.608 l 0.5759,0.192 c 2.7841,-7.872 8.4481,-15.552 14.1121,-15.552 1.248,0 1.824,0.768 1.824,1.824 0,0.48 -0.096,1.152 -0.192,1.728 l -5.0881,27.744 c -1.44,7.872 0.7681,13.536 10.0801,13.536 11.808,0 26.784,-19.392 26.784,-33.984 0,-5.856 -1.44,-12 -7.488,-12 -3.552,0 -5.856,2.592 -5.856,5.472 0,2.4 1.536,5.472 5.76,5.472 4.32,0 5.568,-4.896 5.568,-6.72 0.672,1.152 1.44,3.648 1.44,7.776 0,14.688 -15.168,32.832 -24.576,32.832 -5.376,0 -4.224,-4.32 -2.9761,-11.904 z"
       style="font-style:italic;font-variant:normal;font-weight:normal;font-stretch:normal;font-family:'Bodoni* 36';-inkscape-font-specification:'Bodoni* 36 Italic';word-spacing:25px;fill:#5f8dd3;fill-opacity:1"
       id="path1228"
       inkscape:connector-curvature="0" />
    <path
       d="m 1065.2027,89.76 c 14.4959,0 28.608,-11.52 28.608,-29.76 0,-12.48 -8.448,-16.32 -17.184,-16.32 -14.496,0 -28.608,11.52 -28.608,29.76 0,12.48 8.448,16.32 17.184,16.32 z m 0,-0.672 c -5.184,0 -7.2,-5.664 -7.2,-13.728 0,-11.904 6.24,-31.008 18.624,-31.008 5.184,0 7.2,5.664 7.2,13.728 0,11.904 -6.24,31.008 -18.624,31.008 z"
       style="font-style:italic;font-variant:normal;font-weight:normal;font-stretch:normal;font-family:'Bodoni* 36';-inkscape-font-specification:'Bodoni* 36 Italic';word-spacing:25px;fill:#5f8dd3;fill-opacity:1"
       id="path1230"
       inkscape:connector-curvature="0" />
    <path
       d="m 1123.0367,31.68 -11.424,-6.528 -0.288,0.288 8.64,10.56 h 6.24 l 12.48,-10.56 -0.288,-0.288 z m -13.344,13.536 -10.464,43.584 h 8.64 l 4.416,-19.104 c 2.4,-9.888 7.008,-25.536 16.032,-25.536 3.84,0 7.008,2.4 7.584,5.376 -0.768,-1.92 -2.496,-3.072 -4.512,-3.072 -2.784,0 -5.472,2.208 -5.472,5.568 0,3.552 2.496,5.28 5.664,5.28 3.648,0 5.568,-2.592 5.568,-5.856 0,-4.704 -4.416,-7.776 -8.832,-7.776 -6.528,0 -10.848,7.392 -13.728,15.84 l 3.3599,-14.88 h -15.3599 v 0.576 z"
       style="font-style:italic;font-variant:normal;font-weight:normal;font-stretch:normal;font-family:'Bodoni* 36';-inkscape-font-specification:'Bodoni* 36 Italic';word-spacing:25px;fill:#5f8dd3;fill-opacity:1"
       id="path1232"
       inkscape:connector-curvature="0" />
    <path
       d="m 1174.2512,36.96 c 1.824,-0.096 3.36,-1.536 3.36,-3.36 0,-1.824 -1.632,-3.84 -4.32,-3.168 l -22.752,6.24 0.192,0.576 z m -2.784,21.696 c 0,-8.832 -3.264,-14.976 -10.56,-14.976 -9.504,0 -24.576,10.56 -24.576,29.76 0,12.48 8.64,16.32 15.264,16.32 8.064,0 13.536,-7.392 16.704,-15.552 l -1.44,6.432 c -0.096,0.576 -0.192,1.632 -0.192,2.112 0,4.8 2.304,7.008 6.816,7.008 7.776,0 13.44,-7.008 17.088,-16.608 l -0.576,-0.192 c -3.168,8.64 -8.832,15.552 -14.208,15.552 -1.248,0 -1.7281,-0.768 -1.7281,-1.824 0,-0.48 0.096,-1.152 0.1921,-1.728 l 9.408,-40.32 h -8.64 l -3.552,15.168 c 0,-0.384 0,-0.768 0,-1.152 z m -0.48,0 c 0,10.752 -6.816,29.856 -17.472,29.856 -4.896,0 -7.2,-5.28 -7.2,-13.152 0,-12.864 8.544,-29.76 17.568,-29.76 4.704,0 7.104,6.048 7.104,13.056 z"
       style="font-style:italic;font-variant:normal;font-weight:normal;font-stretch:normal;font-family:'Bodoni* 36';-inkscape-font-specification:'Bodoni* 36 Italic';word-spacing:25px;fill:#5f8dd3;fill-opacity:1"
       id="path1234"
       inkscape:connector-curvature="0" />
    <path
       d="m 1240.9007,73.152 -0.48,-0.192 c -3.168,8.64 -8.736,15.552 -14.208,15.552 -1.248,0 -1.92,-0.48 -1.92,-1.536 0,-0.192 0.096,-0.672 0.096,-0.864 l 2.112,-8.928 c 2.592,-11.136 -1.824,-15.168 -7.488,-16.032 1.056,-1.824 2.016,-4.128 3.072,-6.72 2.592,-6.432 5.568,-10.176 10.176,-10.176 3.936,0 6.24,2.592 6.336,6.528 -0.384,-1.344 -1.632,-2.88 -4.224,-2.88 -2.688,0 -4.608,1.824 -4.608,4.512 0,3.168 2.4,4.8 4.8,4.8 2.4,0 4.896,-1.44 4.896,-5.76 0,-4.992 -2.88,-7.776 -7.2,-7.776 -4.8,0 -8.064,3.936 -10.752,10.464 -1.056,2.688 -2.016,5.088 -3.168,7.008 -0.48,-0.096 -1.056,-0.096 -1.536,-0.096 -2.592,0 -5.376,0.384 -7.488,3.072 -0.288,-0.096 -0.48,-0.288 -0.672,-0.48 l 10.848,-46.848 h -17.28 v 0.576 h 8.5439 L 1194.1487,88.8 h 8.64 l 4.32,-18.432 c 0.288,-1.44 0.864,-3.648 2.208,-5.568 0.96,0.48 2.112,0.768 3.264,0.768 2.592,0 4.4159,-1.344 5.952,-3.552 3.84,1.728 1.152,8.544 0.096,13.344 l -1.152,5.28 c -0.096,0.576 -0.192,1.632 -0.192,2.112 0,4.8 2.016,7.008 6.528,7.008 7.776,0 13.44,-7.008 17.088,-16.608 z m -24.768,-11.616 c 0.672,0 1.248,0.096 1.824,0.192 -1.44,2.016 -3.072,3.264 -5.376,3.264 -1.056,0 -2.016,-0.192 -2.88,-0.576 1.3439,-1.632 3.264,-2.88 6.432,-2.88 z m -7.68,2.784 c 0.192,0.096 0.288,0.192 0.48,0.288 -0.288,0.48 -0.576,0.96 -0.864,1.536 z"
       style="font-style:italic;font-variant:normal;font-weight:normal;font-stretch:normal;font-family:'Bodoni* 36';-inkscape-font-specification:'Bodoni* 36 Italic';word-spacing:25px;fill:#5f8dd3;fill-opacity:1"
       id="path1236"
       inkscape:connector-curvature="0" />
  </g>
</svg>
