<?xml version="1.0" encoding="UTF-8" standalone="no"?>
<svg
   xmlns:dc="http://purl.org/dc/elements/1.1/"
   xmlns:cc="http://creativecommons.org/ns#"
   xmlns:rdf="http://www.w3.org/1999/02/22-rdf-syntax-ns#"
   xmlns:svg="http://www.w3.org/2000/svg"
   xmlns="http://www.w3.org/2000/svg"
   xmlns:sodipodi="http://sodipodi.sourceforge.net/DTD/sodipodi-0.dtd"
   xmlns:inkscape="http://www.inkscape.org/namespaces/inkscape"
   id="svg2"
   version="1.1"
   width="785"
   height="150"
   viewBox="0 0 735.9375 140.625"
   sodipodi:docname="points.svg"
   inkscape:version="0.92.3 (2405546, 2018-03-11)">
  <sodipodi:namedview
     pagecolor="#ffffff"
     bordercolor="#666666"
     borderopacity="1"
     objecttolerance="10"
     gridtolerance="10"
     guidetolerance="10"
     inkscape:pageopacity="0"
     inkscape:pageshadow="2"
     inkscape:window-width="1920"
     inkscape:window-height="1052"
     id="namedview51"
     showgrid="false"
     inkscape:zoom="2.0011122"
     inkscape:cx="606.69963"
     inkscape:cy="32.798519"
     inkscape:window-x="0"
     inkscape:window-y="0"
     inkscape:window-maximized="1"
     inkscape:current-layer="svg2" />
  <metadata
     id="metadata8">
    <rdf:RDF>
      <cc:Work
         rdf:about="">
        <dc:format>image/svg+xml</dc:format>
        <dc:type
           rdf:resource="http://purl.org/dc/dcmitype/StillImage" />
        <dc:title></dc:title>
      </cc:Work>
    </rdf:RDF>
  </metadata>
  <defs
     id="defs6" />
  <path
     style="fill:#214478;fill-opacity:1;stroke-width:0.33910212"
     d="M 0,0 H 735.9375 V 140.625 H 0 Z"
     id="rect3354"
     inkscape:connector-curvature="0" />
  <g
     id="flowRoot944"
     style="font-style:italic;font-variant:normal;font-weight:normal;font-stretch:normal;font-size:96px;line-height:1.25;font-family:'Bodoni* 36';-inkscape-font-specification:'Bodoni* 36 Italic';text-align:center;letter-spacing:0px;word-spacing:10.00249958px;text-anchor:middle;fill:#5f8dd3;fill-opacity:1;stroke:none"
     transform="matrix(1.2459628,0,0,1.2459628,-638.7115,-16.212802)"
     aria-label="Aa Aa Aa Aa">
    <path
       id="path1495"
       style="font-style:italic;font-variant:normal;font-weight:normal;font-stretch:normal;font-family:'Bodoni* 11';-inkscape-font-specification:'Bodoni* 11 Italic'"
       d="m 515.98205,86.88 v 1.92 h 21.12 v -1.92 h -10.56 l 11.808,-20.64 h 25.728 l 2.112,20.64 h -10.848 v 1.92 h 27.84 v -1.92 h -6.912 l -8.928,-71.52 h -1.92 l -41.184,71.52 z m 44.256,-58.944 3.648,36.384 h -24.384 z"
       inkscape:connector-curvature="0" />
    <path
       id="path1497"
       style="font-style:italic;font-variant:normal;font-weight:normal;font-stretch:normal;font-family:'Bodoni* 11';-inkscape-font-specification:'Bodoni* 11 Italic'"
       d="m 644.14955,73.152 -1.92,-0.576 c -2.208,6.336 -7.296,14.4 -12.48,14.4 -1.248,0 -1.728,-0.768 -1.728,-1.824 0,-0.48 0.096,-1.152 0.192,-1.728 l 9.024,-38.784 h -8.64 l -2.784,11.808 c -0.672,-7.68 -4.704,-12.768 -11.328,-12.768 -9.504,0 -24.576,10.56 -24.576,29.76 0,12.48 8.64,16.32 15.264,16.32 7.2,0 12.672,-5.952 16.128,-13.056 l -0.864,3.936 c -0.096,0.576 -0.192,1.632 -0.192,2.112 0,4.8 2.304,7.008 6.816,7.008 7.776,0 13.44,-7.008 17.088,-16.608 z m -19.776,-14.496 c 0,9.984 -6.624,28.32 -17.28,28.32 -4.896,0 -7.2,-4.512 -7.2,-11.616 0,-12.864 8.16,-27.936 17.184,-27.936 3.936,0 7.296,4.224 7.296,11.232 z"
       inkscape:connector-curvature="0" />
    <path
       id="path1499"
       style="font-style:italic;font-variant:normal;font-weight:normal;font-stretch:normal;font-family:'Bodoni* 16';-inkscape-font-specification:'Bodoni* 16 Italic'"
       d="M 668.59665,87.456 V 88.8 h 21.12 v -1.344 h -11.04 l 12.384,-21.504 h 25.632 l 2.208,21.504 h -10.944 V 88.8 h 27.84 v -1.344 h -6.912 l -8.928,-72.096 h -1.344 l -41.568,72.096 z m 44.256,-59.52 3.744,36.672 h -24.768 z"
       inkscape:connector-curvature="0" />
    <path
       id="path1501"
       style="font-style:italic;font-variant:normal;font-weight:normal;font-stretch:normal;font-family:'Bodoni* 16';-inkscape-font-specification:'Bodoni* 16 Italic'"
       d="m 796.57215,73.152 -1.248,-0.384 c -2.688,7.392 -8.064,14.88 -13.344,14.88 -1.248,0 -1.728,-0.768 -1.728,-1.824 0,-0.48 0.096,-1.152 0.192,-1.728 l 9.216,-39.456 h -8.64 l -3.072,13.248 c -0.192,-8.448 -3.936,-14.208 -11.04,-14.208 -9.504,0 -24.576,10.56 -24.576,29.76 0,12.48 8.64,16.32 15.264,16.32 7.584,0 13.056,-6.432 16.32,-13.92 l -1.056,4.8 c -0.096,0.576 -0.192,1.632 -0.192,2.112 0,4.8 2.304,7.008 6.816,7.008 7.776,0 13.44,-7.008 17.088,-16.608 z m -19.68,-14.496 c 0,10.368 -6.72,28.992 -17.376,28.992 -4.896,0 -7.2,-4.8 -7.2,-12.288 0,-12.864 8.352,-28.8 17.376,-28.8 4.32,0 7.2,5.088 7.2,12.096 z"
       inkscape:connector-curvature="0" />
    <path
       id="path1503"
       style="font-style:italic;font-variant:normal;font-weight:normal;font-stretch:normal;font-family:'Bodoni* 36';-inkscape-font-specification:'Bodoni* 36 Italic';word-spacing:25px;fill:#5f8dd3;fill-opacity:1"
       d="M 820.83625,88.224 V 88.8 h 21.12 v -0.576 h -11.712 l 13.152,-22.656 h 25.536 l 2.208,22.656 h -10.944 V 88.8 h 27.84 v -0.576 h -6.816 l -9.024,-72.864 h -0.576 l -42.048,72.864 z m 44.256,-60.288 3.744,37.056 h -25.152 z"
       inkscape:connector-curvature="0" />
    <path
       id="path1505"
       style="font-style:italic;font-variant:normal;font-weight:normal;font-stretch:normal;font-family:'Bodoni* 36';-inkscape-font-specification:'Bodoni* 36 Italic';word-spacing:25px;fill:#5f8dd3;fill-opacity:1"
       d="m 929.51575,58.656 c 0,-8.832 -3.264,-14.976 -10.56,-14.976 -9.504,0 -24.576,10.56 -24.576,29.76 0,12.48 8.64,16.32 15.264,16.32 8.064,0 13.536,-7.392 16.704,-15.552 l -1.44,6.432 c -0.096,0.576 -0.192,1.632 -0.192,2.112 0,4.8 2.304,7.008 6.816,7.008 7.776,0 13.44,-7.008 17.088,-16.608 l -0.576,-0.192 c -3.168,8.64 -8.832,15.552 -14.208,15.552 -1.248,0 -1.728,-0.768 -1.728,-1.824 0,-0.48 0.096,-1.152 0.192,-1.728 l 9.408,-40.32 h -8.64 l -3.552,15.168 c 0,-0.384 0,-0.768 0,-1.152 z m -0.48,0 c 0,10.752 -6.816,29.856 -17.472,29.856 -4.896,0 -7.2,-5.28 -7.2,-13.152 0,-12.864 8.544,-29.76 17.568,-29.76 4.704,0 7.104,6.048 7.104,13.056 z"
       inkscape:connector-curvature="0" />
    <path
       id="path1507"
       style="font-style:italic;font-variant:normal;font-weight:normal;font-stretch:normal;font-family:'Bodoni* 96';-inkscape-font-specification:'Bodoni* 96 Italic';word-spacing:25px;fill:#5f8dd3"
       d="M 972.70085,88.608 V 88.8 h 21.11995 v -0.192 h -12 l 13.44,-23.232 h 25.4406 l 2.4001,23.232 h -11.0403 V 88.8 h 27.8403 v -0.192 h -6.72 l -9.12,-73.248 h -0.192 l -42.2407,73.248 z m 44.16045,-60.672 3.8401,37.248 h -25.3445 z"
       inkscape:connector-curvature="0" />
    <path
       id="path1509"
       style="font-style:italic;font-variant:normal;font-weight:normal;font-stretch:normal;font-family:'Bodoni* 96';-inkscape-font-specification:'Bodoni* 96 Italic';word-spacing:25px;fill:#5f8dd3"
       d="m 1080.997,58.656 c 0,-8.832 -2.9761,-14.976 -10.272,-14.976 -9.504,0 -24.576,10.56 -24.576,29.76 0,12.48 8.64,16.32 15.264,16.32 8.544,0 14.112,-8.256 17.088,-16.992 l -1.824,7.872 c -0.096,0.576 -0.192,1.632 -0.192,2.112 0,4.8 2.304,7.008 6.816,7.008 7.776,0 13.44,-7.008 17.088,-16.608 l -0.192,-0.096 c -3.456,9.312 -9.216,15.84 -14.688,15.84 -1.248,0 -1.728,-0.768 -1.728,-1.824 0,-0.48 0.096,-1.152 0.1919,-1.728 l 9.5041,-40.704 h -8.64 l -3.936,16.992 c 0.096,-1.056 0.096,-2.112 0.096,-2.976 z m -0.192,0 c 0,10.944 -6.816,30.24 -17.472,30.24 -4.896,0 -7.2,-5.472 -7.2,-13.536 0,-12.864 8.64,-30.336 17.664,-30.336 4.896,0 7.008,6.624 7.008,13.632 z"
       inkscape:connector-curvature="0" />
  </g>
  <g
     id="flowRoot987"
     style="font-style:normal;font-variant:normal;font-weight:normal;font-stretch:normal;font-size:59.85109329px;line-height:1.25;font-family:'Bodoni* 11';-inkscape-font-specification:'Bodoni* 11, ';text-align:center;letter-spacing:0px;word-spacing:0px;text-anchor:middle;fill:#5f8dd3;fill-opacity:1;stroke:none"
     transform="matrix(0.33416265,0,0,0.33416265,-190.14597,102.31395)"
     aria-label="11 points">
    <path
       id="path1512"
       style="font-style:normal;font-variant:normal;font-weight:normal;font-stretch:normal;font-size:59.85109329px;font-family:'Bodoni* 11';-inkscape-font-specification:'Bodoni* 11, ';word-spacing:0px;fill:#5f8dd3;fill-opacity:1"
       d="m 687.14796,54.165239 v 1.197022 h 20.05011 v -1.197022 h -6.58362 V 10.473941 h -12.44902 v 1.197022 h 6.76317 v 42.494276 z"
       inkscape:connector-curvature="0" />
    <path
       id="path1514"
       style="font-style:normal;font-variant:normal;font-weight:normal;font-stretch:normal;font-size:59.85109329px;font-family:'Bodoni* 11';-inkscape-font-specification:'Bodoni* 11, ';word-spacing:0px;fill:#5f8dd3;fill-opacity:1"
       d="m 713.21592,54.165239 v 1.197022 h 20.05011 v -1.197022 h -6.58362 V 10.473941 h -12.44903 v 1.197022 h 6.76318 v 42.494276 z"
       inkscape:connector-curvature="0" />
    <path
       id="path1516"
       style="font-style:normal;font-variant:normal;font-weight:normal;font-stretch:normal;font-size:59.85109329px;font-family:'Bodoni* 11';-inkscape-font-specification:'Bodoni* 11, ';word-spacing:0px;fill:#5f8dd3;fill-opacity:1"
       d="m 752.75037,69.128013 v 1.197022 h 13.76575 v -1.197022 h -4.18958 V 48.539237 c 1.43643,4.788087 4.60854,7.421535 9.33677,7.421535 6.52377,0 12.68843,-5.386598 12.68843,-14.364262 0,-8.977664 -6.16466,-14.304411 -12.68843,-14.304411 -4.72823,0 -7.90034,2.633448 -9.33677,7.361684 v -6.823025 h -9.57617 v 1.197022 h 4.18957 v 40.100233 z m 9.57617,-27.531503 c 0,-8.618558 3.89032,-12.508879 8.13975,-12.508879 5.02749,0 7.60109,4.488832 7.60109,12.508879 0,8.020046 -2.5736,12.568729 -7.60109,12.568729 -4.24943,0 -8.13975,-3.950172 -8.13975,-12.568729 z"
       inkscape:connector-curvature="0" />
    <path
       id="path1518"
       style="font-style:normal;font-variant:normal;font-weight:normal;font-stretch:normal;font-size:59.85109329px;font-family:'Bodoni* 11';-inkscape-font-specification:'Bodoni* 11, ';word-spacing:0px;fill:#5f8dd3;fill-opacity:1"
       d="m 789.18472,41.59651 c 0,7.780642 5.2669,14.364262 13.7059,14.364262 8.43901,0 13.7059,-6.58362 13.7059,-14.364262 0,-7.780642 -5.26689,-14.364263 -13.7059,-14.364263 -8.439,0 -13.7059,6.583621 -13.7059,14.364263 z m 6.28437,0 c 0,-5.626003 0.89777,-13.167241 7.42153,-13.167241 6.52377,0 7.42154,7.541238 7.42154,13.167241 0,5.626003 -0.89777,13.16724 -7.42154,13.16724 -6.52376,0 -7.42153,-7.541237 -7.42153,-13.16724 z"
       inkscape:connector-curvature="0" />
    <path
       id="path1520"
       style="font-style:normal;font-variant:normal;font-weight:normal;font-stretch:normal;font-size:59.85109329px;font-family:'Bodoni* 11';-inkscape-font-specification:'Bodoni* 11, ';word-spacing:0px;fill:#5f8dd3;fill-opacity:1"
       d="m 823.4261,13.466496 c 0,1.975086 1.61598,3.591066 3.59106,3.591066 1.97509,0 3.59107,-1.61598 3.59107,-3.591066 0,-1.975086 -1.61598,-3.5910656 -3.59107,-3.5910656 -1.97508,0 -3.59106,1.6159796 -3.59106,3.5910656 z m -2.6933,40.698743 v 1.197022 h 13.76575 v -1.197022 h -4.18958 V 27.830758 h -9.57617 v 1.197022 h 4.18957 v 25.137459 z"
       inkscape:connector-curvature="0" />
    <path
       id="path1522"
       style="font-style:normal;font-variant:normal;font-weight:normal;font-stretch:normal;font-size:59.85109329px;font-family:'Bodoni* 11';-inkscape-font-specification:'Bodoni* 11, ';word-spacing:0px;fill:#5f8dd3;fill-opacity:1"
       d="m 837.73425,54.165239 v 1.197022 H 851.5 v -1.197022 h -4.18958 V 42.015467 c 0,-6.164662 2.87285,-12.987687 8.02005,-12.987687 3.35166,0 4.84794,2.872853 4.84794,7.900345 v 17.237114 h -4.18958 v 1.197022 h 13.76575 V 54.165239 H 865.565 V 36.269763 c 0,-5.207046 -2.09478,-9.037516 -8.49885,-9.037516 -5.626,0 -8.49886,3.770619 -9.75573,8.079898 v -7.481387 h -9.57617 v 1.197022 h 4.18957 v 25.137459 z"
       inkscape:connector-curvature="0" />
    <path
       id="path1524"
       style="font-style:normal;font-variant:normal;font-weight:normal;font-stretch:normal;font-size:59.85109329px;font-family:'Bodoni* 11';-inkscape-font-specification:'Bodoni* 11, ';word-spacing:0px;fill:#5f8dd3;fill-opacity:1"
       d="m 889.57558,49.25745 -1.07732,-0.418958 c -1.07732,2.633448 -3.17211,4.788088 -4.84794,4.788088 -1.61598,0 -2.27434,-0.778065 -2.27434,-3.770619 V 29.02778 h 6.40406 v -1.197022 h -6.40406 v -7.780642 c -1.19703,0.897767 -3.59107,1.795533 -5.3866,1.795533 v 5.985109 h -4.36913 v 1.197022 h 4.36913 v 19.69101 c 0,3.29181 0.53866,7.062429 5.44645,7.062429 3.65091,0 6.70332,-2.693299 8.13975,-6.523769 z"
       inkscape:connector-curvature="0" />
    <path
       id="path1526"
       style="font-style:normal;font-variant:normal;font-weight:normal;font-stretch:normal;font-size:59.85109329px;font-family:'Bodoni* 11';-inkscape-font-specification:'Bodoni* 11, ';word-spacing:0px;fill:#5f8dd3;fill-opacity:1"
       d="m 893.71839,55.960772 2.15464,-2.813001 c 1.91524,1.735682 4.60854,2.813001 7.66094,2.813001 5.80556,0 10.23454,-3.770619 10.23454,-9.097366 0,-10.653495 -17.35682,-7.720791 -17.35682,-13.7059 0,-3.112257 3.29181,-4.548683 5.56615,-4.548683 4.84794,0 8.02005,3.83047 8.61856,7.002578 h 1.19702 v -8.379154 h -0.89776 l -2.09479,2.633449 c -1.61598,-1.496278 -4.01002,-2.573597 -6.88288,-2.573597 -5.68585,0 -8.37915,4.189576 -8.37915,8.020046 0,11.132303 16.45905,6.58362 16.45905,14.184709 0,3.650917 -3.47136,5.147194 -7.06243,5.147194 -4.24943,0 -7.72079,-3.29181 -8.91781,-7.062429 h -1.19702 v 8.379153 z"
       inkscape:connector-curvature="0" />
  </g>
  <g
     id="flowRoot995"
     style="font-style:normal;font-variant:normal;font-weight:normal;font-stretch:normal;font-size:59.85109329px;line-height:1.25;font-family:'Bodoni* 11';-inkscape-font-specification:'Bodoni* 11, ';text-align:center;letter-spacing:0px;word-spacing:0px;text-anchor:middle;fill:#5f8dd3;fill-opacity:1;stroke:none"
     transform="matrix(0.33416265,0,0,0.33416265,-6.39597,102.31395)"
     aria-label="16 points">
    <path
       id="path1529"
       style="font-style:normal;font-variant:normal;font-weight:normal;font-stretch:normal;font-size:59.85109329px;font-family:'Bodoni* 11';-inkscape-font-specification:'Bodoni* 11, ';word-spacing:0px;fill:#5f8dd3;fill-opacity:1"
       d="m 683.40726,54.165239 v 1.197022 h 20.05012 v -1.197022 h -6.58362 V 10.473941 h -12.44903 v 1.197022 h 6.76318 v 42.494276 z"
       inkscape:connector-curvature="0" />
    <path
       id="path1531"
       style="font-style:normal;font-variant:normal;font-weight:normal;font-stretch:normal;font-size:59.85109329px;font-family:'Bodoni* 11';-inkscape-font-specification:'Bodoni* 11, ';word-spacing:0px;fill:#5f8dd3;fill-opacity:1"
       d="m 738.20375,40.399488 c 0,-10.174686 -7.06243,-14.364262 -13.10739,-14.364262 -4.96764,0 -7.8405,2.21449 -9.27692,5.626002 0.71821,-9.87543 8.02004,-20.768329 17.89547,-20.768329 V 9.8754304 c -13.34679,0 -24.23969,12.3891766 -24.23969,26.9329916 0,12.56873 5.56615,19.15235 14.60367,19.15235 9.03751,0 14.12486,-6.58362 14.12486,-15.561284 z m -5.98511,0 c 0,6.823025 -1.43643,14.364262 -7.9602,14.364262 -6.52377,0 -8.79811,-8.139748 -8.79811,-16.159795 l 0.1197,-2.034937 c 0.59851,-5.386598 3.77062,-8.798111 8.1996,-8.798111 5.32675,0 8.43901,4.608534 8.43901,12.628581 z"
       inkscape:connector-curvature="0" />
    <path
       id="path1533"
       style="font-style:normal;font-variant:normal;font-weight:normal;font-stretch:normal;font-size:59.85109329px;font-family:'Bodoni* 11';-inkscape-font-specification:'Bodoni* 11, ';word-spacing:0px;fill:#5f8dd3;fill-opacity:1"
       d="m 756.49106,69.128013 v 1.197022 h 13.76575 v -1.197022 h -4.18958 V 48.539237 c 1.43643,4.788087 4.60854,7.421535 9.33677,7.421535 6.52377,0 12.68844,-5.386598 12.68844,-14.364262 0,-8.977664 -6.16467,-14.304411 -12.68844,-14.304411 -4.72823,0 -7.90034,2.633448 -9.33677,7.361684 v -6.823025 h -9.57617 v 1.197022 h 4.18957 v 40.100233 z m 9.57617,-27.531503 c 0,-8.618558 3.89032,-12.508879 8.13975,-12.508879 5.02749,0 7.60109,4.488832 7.60109,12.508879 0,8.020046 -2.5736,12.568729 -7.60109,12.568729 -4.24943,0 -8.13975,-3.950172 -8.13975,-12.568729 z"
       inkscape:connector-curvature="0" />
    <path
       id="path1535"
       style="font-style:normal;font-variant:normal;font-weight:normal;font-stretch:normal;font-size:59.85109329px;font-family:'Bodoni* 11';-inkscape-font-specification:'Bodoni* 11, ';word-spacing:0px;fill:#5f8dd3;fill-opacity:1"
       d="m 792.92541,41.59651 c 0,7.780642 5.2669,14.364262 13.70591,14.364262 8.439,0 13.7059,-6.58362 13.7059,-14.364262 0,-7.780642 -5.2669,-14.364263 -13.7059,-14.364263 -8.43901,0 -13.70591,6.583621 -13.70591,14.364263 z m 6.28437,0 c 0,-5.626003 0.89777,-13.167241 7.42154,-13.167241 6.52376,0 7.42153,7.541238 7.42153,13.167241 0,5.626003 -0.89777,13.16724 -7.42153,13.16724 -6.52377,0 -7.42154,-7.541237 -7.42154,-13.16724 z"
       inkscape:connector-curvature="0" />
    <path
       id="path1537"
       style="font-style:normal;font-variant:normal;font-weight:normal;font-stretch:normal;font-size:59.85109329px;font-family:'Bodoni* 11';-inkscape-font-specification:'Bodoni* 11, ';word-spacing:0px;fill:#5f8dd3;fill-opacity:1"
       d="m 827.16679,13.466496 c 0,1.975086 1.61598,3.591066 3.59106,3.591066 1.97509,0 3.59107,-1.61598 3.59107,-3.591066 0,-1.975086 -1.61598,-3.5910656 -3.59107,-3.5910656 -1.97508,0 -3.59106,1.6159796 -3.59106,3.5910656 z m -2.6933,40.698743 v 1.197022 h 13.76575 v -1.197022 h -4.18958 V 27.830758 h -9.57617 v 1.197022 h 4.18957 v 25.137459 z"
       inkscape:connector-curvature="0" />
    <path
       id="path1539"
       style="font-style:normal;font-variant:normal;font-weight:normal;font-stretch:normal;font-size:59.85109329px;font-family:'Bodoni* 11';-inkscape-font-specification:'Bodoni* 11, ';word-spacing:0px;fill:#5f8dd3;fill-opacity:1"
       d="m 841.47494,54.165239 v 1.197022 h 13.76575 v -1.197022 h -4.18958 V 42.015467 c 0,-6.164662 2.87285,-12.987687 8.02005,-12.987687 3.35166,0 4.84794,2.872853 4.84794,7.900345 v 17.237114 h -4.18958 v 1.197022 h 13.76575 V 54.165239 H 869.3057 V 36.269763 c 0,-5.207046 -2.09479,-9.037516 -8.49886,-9.037516 -5.626,0 -8.49886,3.770619 -9.75573,8.079898 v -7.481387 h -9.57617 v 1.197022 h 4.18957 v 25.137459 z"
       inkscape:connector-curvature="0" />
    <path
       id="path1541"
       style="font-style:normal;font-variant:normal;font-weight:normal;font-stretch:normal;font-size:59.85109329px;font-family:'Bodoni* 11';-inkscape-font-specification:'Bodoni* 11, ';word-spacing:0px;fill:#5f8dd3;fill-opacity:1"
       d="m 893.31627,49.25745 -1.07732,-0.418958 c -1.07732,2.633448 -3.17211,4.788088 -4.84794,4.788088 -1.61598,0 -2.27434,-0.778065 -2.27434,-3.770619 V 29.02778 h 6.40406 v -1.197022 h -6.40406 v -7.780642 c -1.19703,0.897767 -3.59107,1.795533 -5.3866,1.795533 v 5.985109 h -4.36913 v 1.197022 h 4.36913 v 19.69101 c 0,3.29181 0.53866,7.062429 5.44645,7.062429 3.65091,0 6.70332,-2.693299 8.13975,-6.523769 z"
       inkscape:connector-curvature="0" />
    <path
       id="path1543"
       style="font-style:normal;font-variant:normal;font-weight:normal;font-stretch:normal;font-size:59.85109329px;font-family:'Bodoni* 11';-inkscape-font-specification:'Bodoni* 11, ';word-spacing:0px;fill:#5f8dd3;fill-opacity:1"
       d="m 897.45908,55.960772 2.15464,-2.813001 c 1.91524,1.735682 4.60854,2.813001 7.66094,2.813001 5.80556,0 10.23454,-3.770619 10.23454,-9.097366 0,-10.653495 -17.35682,-7.720791 -17.35682,-13.7059 0,-3.112257 3.29181,-4.548683 5.56615,-4.548683 4.84794,0 8.02005,3.83047 8.61856,7.002578 h 1.19702 v -8.379154 h -0.89776 l -2.09479,2.633449 c -1.61598,-1.496278 -4.01002,-2.573597 -6.88288,-2.573597 -5.68585,0 -8.37915,4.189576 -8.37915,8.020046 0,11.132303 16.45905,6.58362 16.45905,14.184709 0,3.650917 -3.47136,5.147194 -7.06243,5.147194 -4.24943,0 -7.72079,-3.29181 -8.91781,-7.062429 h -1.19702 v 8.379153 z"
       inkscape:connector-curvature="0" />
  </g>
  <g
     id="flowRoot1003"
     style="font-style:normal;font-variant:normal;font-weight:normal;font-stretch:normal;font-size:59.85109329px;line-height:1.25;font-family:'Bodoni* 11';-inkscape-font-specification:'Bodoni* 11, ';text-align:center;letter-spacing:0px;word-spacing:0px;text-anchor:middle;fill:#5f8dd3;fill-opacity:1;stroke:none"
     transform="matrix(0.33416265,0,0,0.33416265,182.97903,102.31395)"
     aria-label="36 points">
    <path
       id="path1546"
       style="font-style:normal;font-variant:normal;font-weight:normal;font-stretch:normal;font-size:59.85109329px;font-family:'Bodoni* 11';-inkscape-font-specification:'Bodoni* 11, ';word-spacing:0px;fill:#5f8dd3;fill-opacity:1"
       d="m 706.63136,43.392043 c 0,-5.745705 -2.63345,-11.072453 -12.92784,-12.329326 9.45648,-1.13717 11.13231,-5.865407 11.13231,-11.072452 0,-6.58362 -5.92526,-10.0549835 -12.56873,-10.0549835 -6.10481,0 -11.13231,4.0100235 -11.13231,8.3193015 0,2.453895 1.61598,3.710768 3.41152,3.710768 1.49627,0 3.41151,-0.957617 3.41151,-3.351661 0,-2.094788 -1.67583,-3.29181 -3.41151,-3.29181 -0.65837,0 -1.07732,0.179553 -1.31673,0.239404 0.89777,-1.67583 3.71077,-4.069874 8.13975,-4.069874 4.72824,0 7.42154,4.069874 7.42154,8.498855 0,3.83047 -0.47881,10.533793 -9.99514,10.533793 v 1.13717 c 10.11484,0 11.79067,7.301834 11.79067,11.730815 0,5.626002 -2.99256,10.95275 -10.11484,10.95275 -5.68585,0 -8.73826,-2.932704 -9.03751,-4.608534 0.2394,0.05985 0.65836,0.239404 1.31672,0.239404 1.73568,0 3.41152,-1.376575 3.41152,-3.29181 0,-2.15464 -1.43643,-3.351661 -3.23196,-3.351661 -2.09479,0 -3.59107,1.436426 -3.59107,3.890321 0,4.309278 3.83047,8.738259 12.32933,8.738259 8.439,0 14.96277,-4.788087 14.96277,-12.568729 z"
       inkscape:connector-curvature="0" />
    <path
       id="path1548"
       style="font-style:normal;font-variant:normal;font-weight:normal;font-stretch:normal;font-size:59.85109329px;font-family:'Bodoni* 11';-inkscape-font-specification:'Bodoni* 11, ';word-spacing:0px;fill:#5f8dd3;fill-opacity:1"
       d="m 740.77547,40.399488 c 0,-10.174686 -7.06243,-14.364262 -13.10739,-14.364262 -4.96764,0 -7.84049,2.21449 -9.27692,5.626002 0.71822,-9.87543 8.02005,-20.768329 17.89548,-20.768329 V 9.8754304 c -13.34679,0 -24.23969,12.3891766 -24.23969,26.9329916 0,12.56873 5.56615,19.15235 14.60367,19.15235 9.03751,0 14.12485,-6.58362 14.12485,-15.561284 z m -5.98511,0 c 0,6.823025 -1.43642,14.364262 -7.96019,14.364262 -6.52377,0 -8.79811,-8.139748 -8.79811,-16.159795 l 0.1197,-2.034937 c 0.59851,-5.386598 3.77062,-8.798111 8.1996,-8.798111 5.32675,0 8.439,4.608534 8.439,12.628581 z"
       inkscape:connector-curvature="0" />
    <path
       id="path1550"
       style="font-style:normal;font-variant:normal;font-weight:normal;font-stretch:normal;font-size:59.85109329px;font-family:'Bodoni* 11';-inkscape-font-specification:'Bodoni* 11, ';word-spacing:0px;fill:#5f8dd3;fill-opacity:1"
       d="m 759.06279,69.128013 v 1.197022 h 13.76575 v -1.197022 h -4.18958 V 48.539237 c 1.43643,4.788087 4.60854,7.421535 9.33677,7.421535 6.52377,0 12.68843,-5.386598 12.68843,-14.364262 0,-8.977664 -6.16466,-14.304411 -12.68843,-14.304411 -4.72823,0 -7.90034,2.633448 -9.33677,7.361684 v -6.823025 h -9.57617 v 1.197022 h 4.18957 v 40.100233 z m 9.57617,-27.531503 c 0,-8.618558 3.89032,-12.508879 8.13975,-12.508879 5.02749,0 7.60109,4.488832 7.60109,12.508879 0,8.020046 -2.5736,12.568729 -7.60109,12.568729 -4.24943,0 -8.13975,-3.950172 -8.13975,-12.568729 z"
       inkscape:connector-curvature="0" />
    <path
       id="path1552"
       style="font-style:normal;font-variant:normal;font-weight:normal;font-stretch:normal;font-size:59.85109329px;font-family:'Bodoni* 11';-inkscape-font-specification:'Bodoni* 11, ';word-spacing:0px;fill:#5f8dd3;fill-opacity:1"
       d="m 795.49714,41.59651 c 0,7.780642 5.2669,14.364262 13.7059,14.364262 8.43901,0 13.7059,-6.58362 13.7059,-14.364262 0,-7.780642 -5.26689,-14.364263 -13.7059,-14.364263 -8.439,0 -13.7059,6.583621 -13.7059,14.364263 z m 6.28437,0 c 0,-5.626003 0.89776,-13.167241 7.42153,-13.167241 6.52377,0 7.42154,7.541238 7.42154,13.167241 0,5.626003 -0.89777,13.16724 -7.42154,13.16724 -6.52377,0 -7.42153,-7.541237 -7.42153,-13.16724 z"
       inkscape:connector-curvature="0" />
    <path
       id="path1554"
       style="font-style:normal;font-variant:normal;font-weight:normal;font-stretch:normal;font-size:59.85109329px;font-family:'Bodoni* 11';-inkscape-font-specification:'Bodoni* 11, ';word-spacing:0px;fill:#5f8dd3;fill-opacity:1"
       d="m 829.73851,13.466496 c 0,1.975086 1.61598,3.591066 3.59106,3.591066 1.97509,0 3.59107,-1.61598 3.59107,-3.591066 0,-1.975086 -1.61598,-3.5910656 -3.59107,-3.5910656 -1.97508,0 -3.59106,1.6159796 -3.59106,3.5910656 z m -2.6933,40.698743 v 1.197022 h 13.76575 v -1.197022 h -4.18958 V 27.830758 h -9.57617 v 1.197022 h 4.18958 v 25.137459 z"
       inkscape:connector-curvature="0" />
    <path
       id="path1556"
       style="font-style:normal;font-variant:normal;font-weight:normal;font-stretch:normal;font-size:59.85109329px;font-family:'Bodoni* 11';-inkscape-font-specification:'Bodoni* 11, ';word-spacing:0px;fill:#5f8dd3;fill-opacity:1"
       d="m 844.04666,54.165239 v 1.197022 h 13.76575 v -1.197022 h -4.18958 V 42.015467 c 0,-6.164662 2.87286,-12.987687 8.02005,-12.987687 3.35166,0 4.84794,2.872853 4.84794,7.900345 v 17.237114 h -4.18958 v 1.197022 h 13.76575 v -1.197022 h -4.18957 V 36.269763 c 0,-5.207046 -2.09479,-9.037516 -8.49886,-9.037516 -5.626,0 -8.49885,3.770619 -9.75573,8.079898 v -7.481387 h -9.57617 v 1.197022 h 4.18957 v 25.137459 z"
       inkscape:connector-curvature="0" />
    <path
       id="path1558"
       style="font-style:normal;font-variant:normal;font-weight:normal;font-stretch:normal;font-size:59.85109329px;font-family:'Bodoni* 11';-inkscape-font-specification:'Bodoni* 11, ';word-spacing:0px;fill:#5f8dd3;fill-opacity:1"
       d="m 895.888,49.25745 -1.07732,-0.418958 c -1.07732,2.633448 -3.1721,4.788088 -4.84794,4.788088 -1.61597,0 -2.27434,-0.778065 -2.27434,-3.770619 V 29.02778 h 6.40407 v -1.197022 h -6.40407 v -7.780642 c -1.19702,0.897767 -3.59106,1.795533 -5.3866,1.795533 v 5.985109 h -4.36913 v 1.197022 h 4.36913 v 19.69101 c 0,3.29181 0.53866,7.062429 5.44645,7.062429 3.65092,0 6.70333,-2.693299 8.13975,-6.523769 z"
       inkscape:connector-curvature="0" />
    <path
       id="path1560"
       style="font-style:normal;font-variant:normal;font-weight:normal;font-stretch:normal;font-size:59.85109329px;font-family:'Bodoni* 11';-inkscape-font-specification:'Bodoni* 11, ';word-spacing:0px;fill:#5f8dd3;fill-opacity:1"
       d="m 900.03082,55.960772 2.15464,-2.813001 c 1.91523,1.735682 4.60853,2.813001 7.66094,2.813001 5.80556,0 10.23454,-3.770619 10.23454,-9.097366 0,-10.653495 -17.35682,-7.720791 -17.35682,-13.7059 0,-3.112257 3.29181,-4.548683 5.56615,-4.548683 4.84794,0 8.02005,3.83047 8.61856,7.002578 h 1.19702 v -8.379154 h -0.89777 l -2.09478,2.633449 c -1.61598,-1.496278 -4.01003,-2.573597 -6.88288,-2.573597 -5.68585,0 -8.37915,4.189576 -8.37915,8.020046 0,11.132303 16.45905,6.58362 16.45905,14.184709 0,3.650917 -3.47137,5.147194 -7.06243,5.147194 -4.24943,0 -7.72079,-3.29181 -8.91781,-7.062429 h -1.19703 v 8.379153 z"
       inkscape:connector-curvature="0" />
  </g>
  <g
     id="flowRoot1011"
     style="font-style:normal;font-variant:normal;font-weight:normal;font-stretch:normal;font-size:59.85109329px;line-height:1.25;font-family:'Bodoni* 11';-inkscape-font-specification:'Bodoni* 11, ';text-align:center;letter-spacing:0px;word-spacing:10.00249958px;text-anchor:middle;fill:#5f8dd3;fill-opacity:1;stroke:none"
     transform="matrix(0.33416265,0,0,0.33416265,379.85403,102.31395)"
     aria-label="96 points">
    <path
       id="path1563"
       style="font-style:normal;font-variant:normal;font-weight:normal;font-stretch:normal;font-size:59.85109329px;font-family:'Bodoni* 11';-inkscape-font-specification:'Bodoni* 11, ';word-spacing:0px;fill:#5f8dd3;fill-opacity:1"
       d="m 707.19807,29.02778 c 0,-12.568729 -5.56615,-19.1523496 -14.60366,-19.1523496 -9.03752,0 -14.12486,6.5836206 -14.12486,15.5612846 0,10.174686 7.06243,14.364262 13.10739,14.364262 4.96764,0 7.84049,-2.21449 9.27692,-5.626003 -0.71821,9.875431 -8.02005,20.76833 -17.89548,20.76833 v 1.017468 c 13.3468,0 24.23969,-12.389176 24.23969,-26.932992 z m -22.74341,-3.591065 c 0,-6.823025 1.43643,-14.364263 7.96019,-14.364263 6.52377,0 8.79812,8.139749 8.79812,16.159795 l -0.11971,2.034938 c -0.59851,5.386598 -3.77062,8.79811 -8.1996,8.79811 -5.32674,0 -8.439,-4.608534 -8.439,-12.62858 z"
       inkscape:connector-curvature="0" />
    <path
       id="path1565"
       style="font-style:normal;font-variant:normal;font-weight:normal;font-stretch:normal;font-size:59.85109329px;font-family:'Bodoni* 11';-inkscape-font-specification:'Bodoni* 11, ';word-spacing:0px;fill:#5f8dd3;fill-opacity:1"
       d="m 741.94444,40.399488 c 0,-10.174686 -7.06243,-14.364262 -13.10739,-14.364262 -4.96764,0 -7.84049,2.21449 -9.27692,5.626002 0.71821,-9.87543 8.02005,-20.768329 17.89548,-20.768329 V 9.8754304 c -13.3468,0 -24.2397,12.3891766 -24.2397,26.9329916 0,12.56873 5.56616,19.15235 14.60367,19.15235 9.03752,0 14.12486,-6.58362 14.12486,-15.561284 z m -5.98511,0 c 0,6.823025 -1.43643,14.364262 -7.9602,14.364262 -6.52376,0 -8.79811,-8.139748 -8.79811,-16.159795 l 0.11971,-2.034937 c 0.59851,-5.386598 3.77061,-8.798111 8.1996,-8.798111 5.32674,0 8.439,4.608534 8.439,12.628581 z"
       inkscape:connector-curvature="0" />
    <path
       id="path1567"
       style="font-style:normal;font-variant:normal;font-weight:normal;font-stretch:normal;font-size:59.85109329px;font-family:'Bodoni* 11';-inkscape-font-specification:'Bodoni* 11, ';word-spacing:0px;fill:#5f8dd3;fill-opacity:1"
       d="m 760.23176,69.128013 v 1.197022 h 13.76575 v -1.197022 h -4.18958 V 48.539237 c 1.43643,4.788087 4.60854,7.421535 9.33677,7.421535 6.52377,0 12.68843,-5.386598 12.68843,-14.364262 0,-8.977664 -6.16466,-14.304411 -12.68843,-14.304411 -4.72823,0 -7.90034,2.633448 -9.33677,7.361684 v -6.823025 h -9.57617 v 1.197022 h 4.18957 v 40.100233 z m 9.57617,-27.531503 c 0,-8.618558 3.89032,-12.508879 8.13975,-12.508879 5.02749,0 7.60109,4.488832 7.60109,12.508879 0,8.020046 -2.5736,12.568729 -7.60109,12.568729 -4.24943,0 -8.13975,-3.950172 -8.13975,-12.568729 z"
       inkscape:connector-curvature="0" />
    <path
       id="path1569"
       style="font-style:normal;font-variant:normal;font-weight:normal;font-stretch:normal;font-size:59.85109329px;font-family:'Bodoni* 11';-inkscape-font-specification:'Bodoni* 11, ';word-spacing:0px;fill:#5f8dd3;fill-opacity:1"
       d="m 796.66611,41.59651 c 0,7.780642 5.26689,14.364262 13.7059,14.364262 8.439,0 13.7059,-6.58362 13.7059,-14.364262 0,-7.780642 -5.2669,-14.364263 -13.7059,-14.364263 -8.43901,0 -13.7059,6.583621 -13.7059,14.364263 z m 6.28436,0 c 0,-5.626003 0.89777,-13.167241 7.42154,-13.167241 6.52377,0 7.42153,7.541238 7.42153,13.167241 0,5.626003 -0.89776,13.16724 -7.42153,13.16724 -6.52377,0 -7.42154,-7.541237 -7.42154,-13.16724 z"
       inkscape:connector-curvature="0" />
    <path
       id="path1571"
       style="font-style:normal;font-variant:normal;font-weight:normal;font-stretch:normal;font-size:59.85109329px;font-family:'Bodoni* 11';-inkscape-font-specification:'Bodoni* 11, ';word-spacing:0px;fill:#5f8dd3;fill-opacity:1"
       d="m 830.90748,13.466496 c 0,1.975086 1.61598,3.591066 3.59106,3.591066 1.97509,0 3.59107,-1.61598 3.59107,-3.591066 0,-1.975086 -1.61598,-3.5910656 -3.59107,-3.5910656 -1.97508,0 -3.59106,1.6159796 -3.59106,3.5910656 z m -2.6933,40.698743 v 1.197022 h 13.76575 v -1.197022 h -4.18958 V 27.830758 h -9.57617 v 1.197022 h 4.18957 v 25.137459 z"
       inkscape:connector-curvature="0" />
    <path
       id="path1573"
       style="font-style:normal;font-variant:normal;font-weight:normal;font-stretch:normal;font-size:59.85109329px;font-family:'Bodoni* 11';-inkscape-font-specification:'Bodoni* 11, ';word-spacing:0px;fill:#5f8dd3;fill-opacity:1"
       d="m 845.21563,54.165239 v 1.197022 h 13.76575 V 54.165239 H 854.7918 V 42.015467 c 0,-6.164662 2.87286,-12.987687 8.02005,-12.987687 3.35166,0 4.84794,2.872853 4.84794,7.900345 v 17.237114 h -4.18958 v 1.197022 h 13.76575 v -1.197022 h -4.18957 V 36.269763 c 0,-5.207046 -2.09479,-9.037516 -8.49886,-9.037516 -5.626,0 -8.49885,3.770619 -9.75573,8.079898 v -7.481387 h -9.57617 v 1.197022 h 4.18957 v 25.137459 z"
       inkscape:connector-curvature="0" />
    <path
       id="path1575"
       style="font-style:normal;font-variant:normal;font-weight:normal;font-stretch:normal;font-size:59.85109329px;font-family:'Bodoni* 11';-inkscape-font-specification:'Bodoni* 11, ';word-spacing:0px;fill:#5f8dd3;fill-opacity:1"
       d="m 897.05696,49.25745 -1.07732,-0.418958 c -1.07732,2.633448 -3.17211,4.788088 -4.84794,4.788088 -1.61598,0 -2.27434,-0.778065 -2.27434,-3.770619 V 29.02778 h 6.40406 v -1.197022 h -6.40406 v -7.780642 c -1.19702,0.897767 -3.59107,1.795533 -5.3866,1.795533 v 5.985109 h -4.36913 v 1.197022 h 4.36913 v 19.69101 c 0,3.29181 0.53866,7.062429 5.44645,7.062429 3.65092,0 6.70332,-2.693299 8.13975,-6.523769 z"
       inkscape:connector-curvature="0" />
    <path
       id="path1577"
       style="font-style:normal;font-variant:normal;font-weight:normal;font-stretch:normal;font-size:59.85109329px;font-family:'Bodoni* 11';-inkscape-font-specification:'Bodoni* 11, ';word-spacing:0px;fill:#5f8dd3;fill-opacity:1"
       d="m 901.19977,55.960772 2.15464,-2.813001 c 1.91524,1.735682 4.60854,2.813001 7.66094,2.813001 5.80556,0 10.23454,-3.770619 10.23454,-9.097366 0,-10.653495 -17.35682,-7.720791 -17.35682,-13.7059 0,-3.112257 3.29181,-4.548683 5.56616,-4.548683 4.84793,0 8.02004,3.83047 8.61855,7.002578 h 1.19702 v -8.379154 h -0.89776 l -2.09479,2.633449 c -1.61598,-1.496278 -4.01002,-2.573597 -6.88288,-2.573597 -5.68585,0 -8.37915,4.189576 -8.37915,8.020046 0,11.132303 16.45905,6.58362 16.45905,14.184709 0,3.650917 -3.47136,5.147194 -7.06243,5.147194 -4.24942,0 -7.72079,-3.29181 -8.91781,-7.062429 h -1.19702 v 8.379153 z"
       inkscape:connector-curvature="0" />
  </g>
</svg>
