<?xml version="1.0" encoding="UTF-8" standalone="no"?>
<svg
   xmlns:dc="http://purl.org/dc/elements/1.1/"
   xmlns:cc="http://creativecommons.org/ns#"
   xmlns:rdf="http://www.w3.org/1999/02/22-rdf-syntax-ns#"
   xmlns:svg="http://www.w3.org/2000/svg"
   xmlns="http://www.w3.org/2000/svg"
   xmlns:sodipodi="http://sodipodi.sourceforge.net/DTD/sodipodi-0.dtd"
   xmlns:inkscape="http://www.inkscape.org/namespaces/inkscape"
   viewBox="0 0 1500 140.625"
   height="150"
   width="1600"
   version="1.1"
   id="svg2"
   sodipodi:docname="weight.svg"
   inkscape:version="0.92.3 (2405546, 2018-03-11)">
  <sodipodi:namedview
     pagecolor="#ffffff"
     bordercolor="#666666"
     borderopacity="1"
     objecttolerance="10"
     gridtolerance="10"
     guidetolerance="10"
     inkscape:pageopacity="0"
     inkscape:pageshadow="2"
     inkscape:window-width="1920"
     inkscape:window-height="1052"
     id="namedview79"
     showgrid="false"
     inkscape:zoom="0.89449008"
     inkscape:cx="1000.6696"
     inkscape:cy="-230.18372"
     inkscape:window-x="0"
     inkscape:window-y="0"
     inkscape:window-maximized="1"
     inkscape:current-layer="svg2" />
  <metadata
     id="metadata8">
    <rdf:RDF>
      <cc:Work
         rdf:about="">
        <dc:format>image/svg+xml</dc:format>
        <dc:type
           rdf:resource="http://purl.org/dc/dcmitype/StillImage" />
        <dc:title></dc:title>
      </cc:Work>
    </rdf:RDF>
  </metadata>
  <defs
     id="defs6" />
  <path
     id="rect3354"
     d="M 0,0 H 1500 V 140.625 H 0 Z"
     style="fill:#214478;stroke-width:0.48412293;fill-opacity:1" />
  <g
     aria-label="Aa Aa Aa Aa"
     transform="matrix(1.2459628,0,0,1.2459628,-247.0543,-16.212802)"
     style="font-style:italic;font-variant:normal;font-weight:normal;font-stretch:normal;font-size:96px;line-height:1.25;font-family:'Bodoni* 36';-inkscape-font-specification:'Bodoni* 36 Italic';text-align:center;letter-spacing:0px;word-spacing:10.00249958px;text-anchor:middle;fill:#5f8dd3;fill-opacity:1;stroke:none"
     id="flowRoot944">
    <path
       d="M 457.14875,88.224 V 88.8 h 21.12 v -0.576 h -11.712 l 13.152,-22.656 h 25.536 l 2.208,22.656 h -10.944 V 88.8 h 27.84 v -0.576 h -6.816 l -9.024,-72.864 h -0.576 l -42.048,72.864 z m 44.256,-60.288 3.744,37.056 h -25.152 z"
       style="font-style:italic;font-variant:normal;font-weight:normal;font-stretch:normal;font-family:'Bodoni* 36';-inkscape-font-specification:'Bodoni* 36 Italic';word-spacing:25px;fill:#5f8dd3;fill-opacity:1"
       id="path1258" />
    <path
       d="m 565.82825,58.656 c 0,-8.832 -3.264,-14.976 -10.56,-14.976 -9.504,0 -24.576,10.56 -24.576,29.76 0,12.48 8.64,16.32 15.264,16.32 8.064,0 13.536,-7.392 16.704,-15.552 l -1.44,6.432 c -0.096,0.576 -0.192,1.632 -0.192,2.112 0,4.8 2.304,7.008 6.816,7.008 7.776,0 13.44,-7.008 17.088,-16.608 l -0.576,-0.192 c -3.168,8.64 -8.832,15.552 -14.208,15.552 -1.248,0 -1.728,-0.768 -1.728,-1.824 0,-0.48 0.096,-1.152 0.192,-1.728 l 9.408,-40.32 h -8.64 l -3.552,15.168 c 0,-0.384 0,-0.768 0,-1.152 z m -0.48,0 c 0,10.752 -6.816,29.856 -17.472,29.856 -4.896,0 -7.2,-5.28 -7.2,-13.152 0,-12.864 8.544,-29.76 17.568,-29.76 4.704,0 7.104,6.048 7.104,13.056 z"
       style="font-style:italic;font-variant:normal;font-weight:normal;font-stretch:normal;font-family:'Bodoni* 36';-inkscape-font-specification:'Bodoni* 36 Italic';word-spacing:25px;fill:#5f8dd3;fill-opacity:1"
       id="path1260" />
    <path
       d="M 631.49025,88.224 V 88.8 h 21.12 v -0.576 h -11.712 l 13.152,-22.656 h 25.152 l 2.208,22.656 h -10.944 V 88.8 h 30.144 v -0.576 h -6.816 l -9.024,-72.864 h -2.496 l -41.952,72.864 z m 43.968,-59.616 3.648,36.384 h -24.672 z"
       style="font-style:italic;font-variant:normal;font-weight:500;font-stretch:normal;font-family:'Bodoni* 36';-inkscape-font-specification:'Bodoni* 36 Medium Italic'"
       id="path1262" />
    <path
       d="m 741.95325,58.656 c 0,-8.832 -3.072,-14.976 -10.368,-14.976 -9.696,0 -24.768,10.56 -24.768,29.76 0,12.48 8.64,16.32 15.264,16.32 8.064,0 13.632,-7.488 16.8,-15.648 l -1.44,6.144 c -0.096,0.672 -0.288,1.824 -0.288,2.304 0,4.8 2.304,7.2 7.392,7.2 8.352,0 14.4,-7.008 18.048,-16.608 l -0.576,-0.192 c -3.072,8.256 -8.736,15.168 -14.112,15.168 -1.248,0 -1.728,-0.768 -1.728,-1.824 0,-0.48 0.096,-1.152 0.192,-1.728 l 9.696,-39.936 h -10.464 l -3.648,14.88 c 0,-0.288 0,-0.576 0,-0.864 z m -0.48,0 c 0,10.56 -6.624,29.088 -16.32,29.088 -4.32,0 -6.432,-4.704 -6.432,-11.808 0,-12.864 8.256,-29.76 16.32,-29.76 4.32,0 6.432,5.856 6.432,12.48 z"
       style="font-style:italic;font-variant:normal;font-weight:500;font-stretch:normal;font-family:'Bodoni* 36';-inkscape-font-specification:'Bodoni* 36 Medium Italic'"
       id="path1264" />
    <path
       d="M 808.92325,88.224 V 88.8 h 21.12 v -0.576 h -11.616 l 13.152,-22.656 h 24.48 l 2.304,22.656 h -11.04 V 88.8 h 33.6 v -0.576 h -6.816 l -8.928,-72.864 h -5.376 l -41.952,72.864 z m 43.488,-58.656 3.648,35.424 h -24.192 z"
       style="font-style:italic;font-variant:normal;font-weight:bold;font-stretch:normal;font-family:'Bodoni* 36';-inkscape-font-specification:'Bodoni* 36 Bold Italic'"
       id="path1266" />
    <path
       d="m 922.48675,58.656 c 0,-8.832 -2.88,-14.976 -10.176,-14.976 -9.984,0 -25.056,10.56 -25.056,29.76 0,12.48 8.64,16.32 15.264,16.32 8.16,0 13.728,-7.488 16.896,-15.744 l -1.44,5.76 c -0.192,0.768 -0.384,2.016 -0.384,2.496 0,4.8 2.304,7.488 8.256,7.488 9.216,0 15.84,-7.008 19.488,-16.608 l -0.48,-0.192 c -2.88,7.68 -8.736,14.688 -14.016,14.688 -1.248,0 -1.728,-0.864 -1.728,-1.92 0,-0.48 0.096,-1.152 0.192,-1.728 l 10.08,-39.36 h -13.152 l -3.744,14.496 c 0,-0.192 0,-0.288 0,-0.48 z m -0.48,0 c 0,10.368 -6.432,27.936 -14.688,27.936 -3.456,0 -5.28,-3.936 -5.28,-9.888 0,-12.864 7.872,-29.568 14.496,-29.568 3.744,0 5.472,5.472 5.472,11.52 z"
       style="font-style:italic;font-variant:normal;font-weight:bold;font-stretch:normal;font-family:'Bodoni* 36';-inkscape-font-specification:'Bodoni* 36 Bold Italic'"
       id="path1268" />
    <path
       d="M 991.41875,88.224 V 88.8 h 21.12005 v -0.576 h -11.5201 l 13.152,-22.656 h 23.3281 l 2.304,22.656 h -10.944 V 88.8 h 39.36 v -0.576 h -6.816 l -9.024,-72.864 h -9.984 l -42.048,72.864 z m 42.62405,-57.024 3.456,33.792 h -23.0401 z"
       style="font-style:italic;font-variant:normal;font-weight:900;font-stretch:normal;font-family:'Bodoni* 36';-inkscape-font-specification:'Bodoni* 36 Heavy Italic';word-spacing:25px;fill:#5f8dd3"
       id="path1270" />
    <path
       d="m 1109.9578,58.656 c 0,-8.832 -2.496,-14.88 -9.792,-14.88 -10.464,0 -25.536,10.464 -25.536,29.664 0,12.48 8.64,16.32 15.264,16.32 8.064,0 13.632,-7.392 16.896,-15.552 l -1.344,4.704 c -0.192,0.864 -0.384,2.4 -0.384,2.88 0,4.896 2.208,7.968 9.6,7.968 10.656,0 18.24,-7.008 21.888,-16.608 l -0.48,-0.192 c -2.496,6.816 -8.544,13.824 -13.728,13.824 -1.248,0 -1.824,-0.96 -1.824,-2.016 0,-0.48 0.096,-1.152 0.192,-1.728 l 10.848,-38.4 h -17.568 z m -0.48,0 c 0,9.984 -6.048,26.016 -11.904,26.016 -2.016,0 -3.3601,-2.592 -3.3601,-6.624 0,-12.864 7.2001,-29.28 11.4241,-29.28 2.784,0 3.84,4.8 3.84,9.888 z"
       style="font-style:italic;font-variant:normal;font-weight:900;font-stretch:normal;font-family:'Bodoni* 36';-inkscape-font-specification:'Bodoni* 36 Heavy Italic';word-spacing:25px;fill:#5f8dd3"
       id="path1272" />
  </g>
  <g
     aria-label="Book"
     transform="matrix(0.33416265,0,0,0.33416265,145.26123,102.31395)"
     style="font-style:normal;font-variant:normal;font-weight:normal;font-stretch:normal;font-size:59.85109329px;line-height:1.25;font-family:'Bodoni* 11';-inkscape-font-specification:'Bodoni* 11, ';text-align:center;letter-spacing:0px;word-spacing:10.00249958px;text-anchor:middle;fill:#5f8dd3;fill-opacity:1;stroke:none"
     id="flowRoot987">
    <path
       d="m 751.48321,55.362261 c 9.63602,0 15.56128,-3.591065 15.56128,-12.568729 0,-6.583621 -5.08734,-9.695877 -11.73081,-10.533793 6.46392,-1.077319 9.93528,-4.428981 9.93528,-10.713345 0,-7.780643 -5.92526,-11.072453 -14.96277,-11.072453 h -17.35682 v 1.197022 h 5.3866 v 42.494276 h -5.3866 v 1.197022 z m -1.19702,-43.691298 c 4.54868,0 8.97766,3.351661 8.97766,10.473942 0,7.12228 -4.42898,9.576174 -8.97766,9.576174 h -6.28437 V 11.670963 Z m 0.59851,21.247138 c 5.14719,0 9.57617,2.753151 9.57617,9.875431 0,7.12228 -4.42898,11.371707 -9.57617,11.371707 h -6.88288 V 32.918101 Z"
       style="font-style:normal;font-variant:normal;font-weight:normal;font-stretch:normal;font-size:59.85109329px;font-family:'Bodoni* 11';-inkscape-font-specification:'Bodoni* 11, ';word-spacing:25px;fill:#5f8dd3;fill-opacity:1"
       id="path1275" />
    <path
       d="m 771.88401,41.59651 c 0,7.780642 5.2669,14.364262 13.7059,14.364262 8.43901,0 13.7059,-6.58362 13.7059,-14.364262 0,-7.780642 -5.26689,-14.364263 -13.7059,-14.364263 -8.439,0 -13.7059,6.583621 -13.7059,14.364263 z m 6.28437,0 c 0,-5.626003 0.89776,-13.167241 7.42153,-13.167241 6.52377,0 7.42154,7.541238 7.42154,13.167241 0,5.626003 -0.89777,13.16724 -7.42154,13.16724 -6.52377,0 -7.42153,-7.541237 -7.42153,-13.16724 z"
       style="font-style:normal;font-variant:normal;font-weight:normal;font-stretch:normal;font-size:59.85109329px;font-family:'Bodoni* 11';-inkscape-font-specification:'Bodoni* 11, ';word-spacing:25px;fill:#5f8dd3;fill-opacity:1"
       id="path1277" />
    <path
       d="m 804.0306,41.59651 c 0,7.780642 5.26689,14.364262 13.7059,14.364262 8.439,0 13.7059,-6.58362 13.7059,-14.364262 0,-7.780642 -5.2669,-14.364263 -13.7059,-14.364263 -8.43901,0 -13.7059,6.583621 -13.7059,14.364263 z m 6.28436,0 c 0,-5.626003 0.89777,-13.167241 7.42154,-13.167241 6.52377,0 7.42153,7.541238 7.42153,13.167241 0,5.626003 -0.89776,13.16724 -7.42153,13.16724 -6.52377,0 -7.42154,-7.541237 -7.42154,-13.16724 z"
       style="font-style:normal;font-variant:normal;font-weight:normal;font-stretch:normal;font-size:59.85109329px;font-family:'Bodoni* 11';-inkscape-font-specification:'Bodoni* 11, ';word-spacing:25px;fill:#5f8dd3;fill-opacity:1"
       id="path1279" />
    <path
       d="m 834.69493,54.165239 v 1.197022 h 14.96278 v -1.197022 h -4.18958 V 40.279786 l 11.85052,13.885453 h -4.12973 v 1.197022 h 14.18471 v -1.197022 h -3.29181 L 849.95696,37.586487 860.5506,29.02778 h 4.78809 V 27.830758 H 851.9919 v 1.197022 h 6.58362 L 845.46813,39.382019 V 10.473941 h -10.7732 v 1.197022 h 5.3866 v 42.494276 z"
       style="font-style:normal;font-variant:normal;font-weight:normal;font-stretch:normal;font-size:59.85109329px;font-family:'Bodoni* 11';-inkscape-font-specification:'Bodoni* 11, ';word-spacing:25px;fill:#5f8dd3;fill-opacity:1"
       id="path1281" />
  </g>
  <g
     aria-label="Medium"
     transform="matrix(0.33416265,0,0,0.33416265,357.13623,102.31395)"
     style="font-style:normal;font-variant:normal;font-weight:normal;font-stretch:normal;font-size:59.85109329px;line-height:1.25;font-family:'Bodoni* 11';-inkscape-font-specification:'Bodoni* 11, ';text-align:center;letter-spacing:0px;word-spacing:10.00249958px;text-anchor:middle;fill:#5f8dd3;fill-opacity:1;stroke:none"
     id="flowRoot995">
    <path
       d="m 692.84083,54.165239 v 1.197022 h 9.69587 v -1.197022 h -4.18957 V 13.586198 l 15.50143,42.374574 h 1.31672 L 729.9485,12.269474 v 41.895765 h -4.78808 v 1.197022 h 14.66351 v -1.197022 h -4.18957 V 11.670963 h 4.18957 v -1.197022 h -10.59364 l -12.56873,37.107678 -13.7059,-37.107678 h -10.41409 v 1.197022 h 4.48883 v 42.494276 z"
       style="font-style:normal;font-variant:normal;font-weight:normal;font-stretch:normal;font-size:59.85109329px;font-family:'Bodoni* 11';-inkscape-font-specification:'Bodoni* 11, ';word-spacing:25px;fill:#5f8dd3;fill-opacity:1"
       id="path1284" />
    <path
       d="m 768.69928,46.803555 h -1.19702 c -1.49628,4.36913 -5.08734,7.960195 -10.35424,7.960195 -6.52377,0 -8.37915,-6.344216 -8.37915,-13.16724 0,-0.418958 0,-0.837915 0,-1.256873 h 19.87056 c 0,-6.523769 -3.47136,-13.10739 -12.38918,-13.10739 -7.84049,0 -13.76575,5.386599 -13.76575,14.364263 0,8.977664 6.10481,14.364262 13.94531,14.364262 6.64347,0 10.71334,-3.950172 12.26947,-9.157217 z M 756.25025,28.429269 c 5.32675,0 5.98511,6.643472 6.04496,10.713346 h -13.46649 c 0.35911,-5.805556 2.21449,-10.713346 7.42153,-10.713346 z"
       style="font-style:normal;font-variant:normal;font-weight:normal;font-stretch:normal;font-size:59.85109329px;font-family:'Bodoni* 11';-inkscape-font-specification:'Bodoni* 11, ';word-spacing:25px;fill:#5f8dd3;fill-opacity:1"
       id="path1286" />
    <path
       d="m 804.8297,54.165239 h -4.18958 V 10.473941 h -9.57617 v 1.197022 h 4.18958 v 22.98282 c -1.43643,-4.728236 -4.60854,-7.361684 -9.33678,-7.361684 -6.52376,0 -12.68843,5.326747 -12.68843,14.304411 0,8.977664 6.16467,14.364262 12.68843,14.364262 4.72824,0 7.90035,-2.633448 9.33678,-7.421535 v 6.823024 h 9.57617 z M 795.25353,41.59651 c 0,8.618557 -3.89033,12.568729 -8.13975,12.568729 -5.0275,0 -7.60109,-4.548683 -7.60109,-12.568729 0,-8.020047 2.57359,-12.508879 7.60109,-12.508879 4.24942,0 8.13975,3.890321 8.13975,12.508879 z"
       style="font-style:normal;font-variant:normal;font-weight:normal;font-stretch:normal;font-size:59.85109329px;font-family:'Bodoni* 11';-inkscape-font-specification:'Bodoni* 11, ';word-spacing:25px;fill:#5f8dd3;fill-opacity:1"
       id="path1288" />
    <path
       d="m 810.8597,13.466496 c 0,1.975086 1.61598,3.591066 3.59107,3.591066 1.97508,0 3.59106,-1.61598 3.59106,-3.591066 0,-1.975086 -1.61598,-3.5910656 -3.59106,-3.5910656 -1.97509,0 -3.59107,1.6159796 -3.59107,3.5910656 z m -2.6933,40.698743 v 1.197022 h 13.76575 v -1.197022 h -4.18957 V 27.830758 h -9.57618 v 1.197022 h 4.18958 v 25.137459 z"
       style="font-style:normal;font-variant:normal;font-weight:normal;font-stretch:normal;font-size:59.85109329px;font-family:'Bodoni* 11';-inkscape-font-specification:'Bodoni* 11, ';word-spacing:25px;fill:#5f8dd3;fill-opacity:1"
       id="path1290" />
    <path
       d="M 852.06345,54.165239 V 27.830758 h -9.57618 v 1.197022 h 4.18958 v 12.149772 c 0,6.164663 -2.87286,12.987687 -8.02005,12.987687 -3.35166,0 -4.84794,-2.872852 -4.84794,-7.900344 V 27.830758 h -9.57617 v 1.197022 h 4.18957 v 17.895477 c 0,5.207045 2.09479,9.037515 8.49886,9.037515 5.626,0 8.49885,-3.770619 9.75573,-8.079897 v 7.481386 h 9.57617 v -1.197022 z"
       style="font-style:normal;font-variant:normal;font-weight:normal;font-stretch:normal;font-size:59.85109329px;font-family:'Bodoni* 11';-inkscape-font-specification:'Bodoni* 11, ';word-spacing:25px;fill:#5f8dd3;fill-opacity:1"
       id="path1292" />
    <path
       d="m 859.30169,54.165239 v 1.197022 h 13.76575 v -1.197022 h -4.18958 V 42.015467 c 0,-6.164662 2.15464,-12.987687 7.42154,-12.987687 3.35166,0 4.24943,2.872853 4.24943,7.900345 v 17.237114 h -4.18958 v 1.197022 H 890.125 v -1.197022 h -4.18958 V 42.015467 c 0,-6.164662 1.25688,-12.987687 6.82303,-12.987687 3.35166,0 4.84794,2.872853 4.84794,7.900345 v 17.237114 h -4.18958 v 1.197022 h 13.76575 v -1.197022 h -4.18957 V 36.269763 c 0,-5.207046 -2.6933,-9.037516 -8.49886,-9.037516 -5.2669,0 -7.66094,2.872853 -8.73826,6.463919 -0.65836,-3.83047 -2.9327,-6.463919 -7.72079,-6.463919 -5.3866,0 -7.9602,3.471364 -9.15722,7.541238 v -6.942727 h -9.57617 v 1.197022 h 4.18957 v 25.137459 z"
       style="font-style:normal;font-variant:normal;font-weight:normal;font-stretch:normal;font-size:59.85109329px;font-family:'Bodoni* 11';-inkscape-font-specification:'Bodoni* 11, ';word-spacing:25px;fill:#5f8dd3;fill-opacity:1"
       id="path1294" />
  </g>
  <g
     aria-label="Bold"
     transform="matrix(0.33416265,0,0,0.33416265,574.63623,102.31395)"
     style="font-style:normal;font-variant:normal;font-weight:normal;font-stretch:normal;font-size:59.85109329px;line-height:1.25;font-family:'Bodoni* 11';-inkscape-font-specification:'Bodoni* 11, ';text-align:center;letter-spacing:0px;word-spacing:10.00249958px;text-anchor:middle;fill:#5f8dd3;fill-opacity:1;stroke:none"
     id="flowRoot1003">
    <path
       d="m 758.20477,55.362261 c 9.63602,0 15.56128,-3.591065 15.56128,-12.568729 0,-6.583621 -5.08734,-9.695877 -11.73081,-10.533793 6.46391,-1.077319 9.93528,-4.428981 9.93528,-10.713345 0,-7.780643 -5.92526,-11.072453 -14.96278,-11.072453 h -17.35681 v 1.197022 h 5.3866 v 42.494276 h -5.3866 v 1.197022 z m -1.19703,-43.691298 c 4.54869,0 8.97767,3.351661 8.97767,10.473942 0,7.12228 -4.42898,9.576174 -8.97767,9.576174 h -6.28436 V 11.670963 Z m 0.59851,21.247138 c 5.1472,0 9.57618,2.753151 9.57618,9.875431 0,7.12228 -4.42898,11.371707 -9.57618,11.371707 h -6.88287 V 32.918101 Z"
       style="font-style:normal;font-variant:normal;font-weight:normal;font-stretch:normal;font-size:59.85109329px;font-family:'Bodoni* 11';-inkscape-font-specification:'Bodoni* 11, ';word-spacing:25px;fill:#5f8dd3;fill-opacity:1"
       id="path1297" />
    <path
       d="m 778.60557,41.59651 c 0,7.780642 5.2669,14.364262 13.7059,14.364262 8.43901,0 13.7059,-6.58362 13.7059,-14.364262 0,-7.780642 -5.26689,-14.364263 -13.7059,-14.364263 -8.439,0 -13.7059,6.583621 -13.7059,14.364263 z m 6.28437,0 c 0,-5.626003 0.89776,-13.167241 7.42153,-13.167241 6.52377,0 7.42154,7.541238 7.42154,13.167241 0,5.626003 -0.89777,13.16724 -7.42154,13.16724 -6.52377,0 -7.42153,-7.541237 -7.42153,-13.16724 z"
       style="font-style:normal;font-variant:normal;font-weight:normal;font-stretch:normal;font-size:59.85109329px;font-family:'Bodoni* 11';-inkscape-font-specification:'Bodoni* 11, ';word-spacing:25px;fill:#5f8dd3;fill-opacity:1"
       id="path1299" />
    <path
       d="m 809.2699,54.165239 v 1.197022 h 16.15979 V 54.165239 H 820.0431 V 10.473941 h -10.7732 v 1.197022 h 5.3866 v 42.494276 z"
       style="font-style:normal;font-variant:normal;font-weight:normal;font-stretch:normal;font-size:59.85109329px;font-family:'Bodoni* 11';-inkscape-font-specification:'Bodoni* 11, ';word-spacing:25px;fill:#5f8dd3;fill-opacity:1"
       id="path1301" />
    <path
       d="m 860.00493,54.165239 h -4.18958 V 10.473941 h -9.57617 v 1.197022 h 4.18957 v 22.98282 c -1.43642,-4.728236 -4.60853,-7.361684 -9.33677,-7.361684 -6.52377,0 -12.68843,5.326747 -12.68843,14.304411 0,8.977664 6.16466,14.364262 12.68843,14.364262 4.72824,0 7.90035,-2.633448 9.33677,-7.421535 v 6.823024 h 9.57618 z M 850.42875,41.59651 c 0,8.618557 -3.89032,12.568729 -8.13974,12.568729 -5.0275,0 -7.60109,-4.548683 -7.60109,-12.568729 0,-8.020047 2.57359,-12.508879 7.60109,-12.508879 4.24942,0 8.13974,3.890321 8.13974,12.508879 z"
       style="font-style:normal;font-variant:normal;font-weight:normal;font-stretch:normal;font-size:59.85109329px;font-family:'Bodoni* 11';-inkscape-font-specification:'Bodoni* 11, ';word-spacing:25px;fill:#5f8dd3;fill-opacity:1"
       id="path1303" />
  </g>
  <g
     aria-label="Fatface"
     transform="matrix(0.33416265,0,0,0.33416265,799.63623,102.31395)"
     style="font-style:normal;font-variant:normal;font-weight:normal;font-stretch:normal;font-size:59.85109329px;line-height:1.25;font-family:'Bodoni* 11';-inkscape-font-specification:'Bodoni* 11, ';text-align:center;letter-spacing:0px;word-spacing:10.00249958px;text-anchor:middle;fill:#5f8dd3;fill-opacity:1;stroke:none"
     id="flowRoot1011">
    <path
       d="m 706.10158,54.165239 v 1.197022 h 17.05757 v -1.197022 h -5.98511 V 33.636314 h 2.6933 c 5.20704,0 6.88287,1.675831 6.88287,5.685854 h 1.19702 V 27.052694 h -1.19702 c 0,4.010023 -1.67583,5.386599 -6.88287,5.386599 h -2.6933 v -20.76833 h 9.57617 c 7.00258,0 8.97766,4.668385 8.97766,11.072452 h 1.19703 V 10.473941 h -30.82332 v 1.197022 h 5.3866 v 42.494276 z"
       style="font-style:normal;font-variant:normal;font-weight:normal;font-stretch:normal;font-size:59.85109329px;font-family:'Bodoni* 11';-inkscape-font-specification:'Bodoni* 11, ';word-spacing:25px;fill:#5f8dd3;fill-opacity:1"
       id="path1306" />
    <path
       d="m 749.11114,39.741126 c -8.49886,0 -13.10739,3.83047 -13.10739,8.857962 0,4.428981 3.35166,7.361684 8.0799,7.361684 4.54868,0 7.42153,-1.915235 8.73826,-5.5063 v 0.538659 c 0,3.531215 2.6933,4.967641 5.5063,4.967641 2.5736,0 5.08734,-1.376575 6.46392,-4.36913 l -0.89777,-0.478808 c -1.13717,2.034937 -2.39404,2.693299 -3.47136,2.693299 -1.43643,0 -2.21449,-0.897767 -2.21449,-2.094788 V 37.107678 c 0,-4.847939 -0.47881,-9.755728 -9.45648,-9.755728 -5.44645,0 -10.65349,2.394043 -10.65349,6.104811 0,2.15464 1.31672,3.29181 3.11226,3.29181 1.49627,0 3.53121,-1.017468 3.53121,-3.411512 0,-1.915235 -1.55613,-2.693299 -2.63345,-2.992555 0.83792,-0.718213 2.813,-1.556128 5.44645,-1.556128 4.78809,0 5.2669,4.309279 5.2669,8.319302 v 2.633448 z m -2.33419,14.065007 c -3.29181,0 -4.66839,-2.693299 -4.66839,-6.104812 0,-3.710767 2.4539,-6.763173 7.00258,-6.763173 h 3.71077 v 3.591065 c 0,6.044961 -2.63345,9.27692 -6.04496,9.27692 z"
       style="font-style:normal;font-variant:normal;font-weight:normal;font-stretch:normal;font-size:59.85109329px;font-family:'Bodoni* 11';-inkscape-font-specification:'Bodoni* 11, ';word-spacing:25px;fill:#5f8dd3;fill-opacity:1"
       id="path1308" />
    <path
       d="m 783.37496,49.25745 -1.07732,-0.418958 c -1.07732,2.633448 -3.17211,4.788088 -4.84794,4.788088 -1.61598,0 -2.27434,-0.778065 -2.27434,-3.770619 V 29.02778 h 6.40407 v -1.197022 h -6.40407 v -7.780642 c -1.19702,0.897767 -3.59107,1.795533 -5.3866,1.795533 v 5.985109 h -4.36913 v 1.197022 h 4.36913 v 19.69101 c 0,3.29181 0.53866,7.062429 5.44645,7.062429 3.65092,0 6.70332,-2.693299 8.13975,-6.523769 z"
       style="font-style:normal;font-variant:normal;font-weight:normal;font-stretch:normal;font-size:59.85109329px;font-family:'Bodoni* 11';-inkscape-font-specification:'Bodoni* 11, ';word-spacing:25px;fill:#5f8dd3;fill-opacity:1"
       id="path1310" />
    <path
       d="m 785.12373,54.165239 v 1.197022 h 17.95533 v -1.197022 h -7.18213 V 29.02778 h 8.37915 v -1.197022 h -8.37915 v -4.788087 c 0,-7.601089 1.61598,-11.970219 6.40407,-11.970219 3.11225,0 4.36913,1.197022 4.90779,1.915235 0,0 -0.29926,-0.05985 -0.53866,-0.05985 -2.03494,0 -3.77062,0.957618 -3.77062,3.351661 0,2.394044 1.85538,3.231959 3.35166,3.231959 1.79553,0 3.41151,-1.256873 3.41151,-3.710767 0,-2.813002 -2.51375,-5.9252586 -7.36168,-5.9252586 -7.78065,0 -11.79067,7.0025776 -11.79067,14.8430716 v 3.112256 h -5.3866 v 1.197022 h 5.3866 v 25.137459 z"
       style="font-style:normal;font-variant:normal;font-weight:normal;font-stretch:normal;font-size:59.85109329px;font-family:'Bodoni* 11';-inkscape-font-specification:'Bodoni* 11, ';word-spacing:25px;fill:#5f8dd3;fill-opacity:1"
       id="path1312" />
    <path
       d="m 819.48293,39.741126 c -8.49886,0 -13.10739,3.83047 -13.10739,8.857962 0,4.428981 3.35166,7.361684 8.0799,7.361684 4.54868,0 7.42153,-1.915235 8.73826,-5.5063 v 0.538659 c 0,3.531215 2.6933,4.967641 5.5063,4.967641 2.5736,0 5.08734,-1.376575 6.46392,-4.36913 l -0.89777,-0.478808 c -1.13717,2.034937 -2.39404,2.693299 -3.47136,2.693299 -1.43643,0 -2.21449,-0.897767 -2.21449,-2.094788 V 37.107678 c 0,-4.847939 -0.47881,-9.755728 -9.45648,-9.755728 -5.44645,0 -10.65349,2.394043 -10.65349,6.104811 0,2.15464 1.31672,3.29181 3.11226,3.29181 1.49627,0 3.53121,-1.017468 3.53121,-3.411512 0,-1.915235 -1.55613,-2.693299 -2.63345,-2.992555 0.83792,-0.718213 2.813,-1.556128 5.44645,-1.556128 4.78809,0 5.2669,4.309279 5.2669,8.319302 v 2.633448 z m -2.33419,14.065007 c -3.29181,0 -4.66839,-2.693299 -4.66839,-6.104812 0,-3.710767 2.4539,-6.763173 7.00258,-6.763173 h 3.71077 v 3.591065 c 0,6.044961 -2.63345,9.27692 -6.04496,9.27692 z"
       style="font-style:normal;font-variant:normal;font-weight:normal;font-stretch:normal;font-size:59.85109329px;font-family:'Bodoni* 11';-inkscape-font-specification:'Bodoni* 11, ';word-spacing:25px;fill:#5f8dd3;fill-opacity:1"
       id="path1314" />
    <path
       d="m 859.13334,32.259739 c -0.2394,-0.05985 -0.65836,-0.239404 -1.31672,-0.239404 -1.73568,0 -3.41151,1.197022 -3.41151,3.29181 0,2.394044 1.91523,3.351661 3.41151,3.351661 1.79553,0 3.41151,-1.256873 3.41151,-3.710768 0,-4.309278 -3.83047,-7.720791 -9.93528,-7.720791 -9.03751,0 -14.00515,6.583621 -14.00515,14.364263 0,8.977664 5.80555,14.364262 13.64604,14.364262 6.04497,0 9.21707,-3.950172 10.7732,-9.157217 h -1.31672 c -1.49628,4.36913 -4.24943,7.780642 -8.73826,7.780642 -6.52377,0 -8.0799,-6.164663 -8.0799,-12.987687 0,-5.626003 1.19702,-13.10739 8.3193,-13.10739 3.83047,0 6.64347,2.094789 7.24198,3.770619 z"
       style="font-style:normal;font-variant:normal;font-weight:normal;font-stretch:normal;font-size:59.85109329px;font-family:'Bodoni* 11';-inkscape-font-specification:'Bodoni* 11, ';word-spacing:25px;fill:#5f8dd3;fill-opacity:1"
       id="path1316" />
    <path
       d="m 892.96044,46.803555 h -1.19703 c -1.49627,4.36913 -5.08734,7.960195 -10.35423,7.960195 -6.52377,0 -8.37916,-6.344216 -8.37916,-13.16724 0,-0.418958 0,-0.837915 0,-1.256873 h 19.87057 c 0,-6.523769 -3.47137,-13.10739 -12.38918,-13.10739 -7.84049,0 -13.76575,5.386599 -13.76575,14.364263 0,8.977664 6.10481,14.364262 13.9453,14.364262 6.64347,0 10.71335,-3.950172 12.26948,-9.157217 z M 880.51141,28.429269 c 5.32675,0 5.98511,6.643472 6.04496,10.713346 h -13.4665 c 0.35911,-5.805556 2.21449,-10.713346 7.42154,-10.713346 z"
       style="font-style:normal;font-variant:normal;font-weight:normal;font-stretch:normal;font-size:59.85109329px;font-family:'Bodoni* 11';-inkscape-font-specification:'Bodoni* 11, ';word-spacing:25px;fill:#5f8dd3;fill-opacity:1"
       id="path1318" />
  </g>
</svg>
