<?xml version="1.0" encoding="UTF-8" standalone="no"?>
<svg
   xmlns:dc="http://purl.org/dc/elements/1.1/"
   xmlns:cc="http://creativecommons.org/ns#"
   xmlns:rdf="http://www.w3.org/1999/02/22-rdf-syntax-ns#"
   xmlns:svg="http://www.w3.org/2000/svg"
   xmlns="http://www.w3.org/2000/svg"
   id="svg2"
   version="1.1"
   width="1600"
   height="640"
   viewBox="0 0 1500 600">
  <metadata
     id="metadata8">
    <rdf:RDF>
      <cc:Work
         rdf:about="">
        <dc:format>image/svg+xml</dc:format>
        <dc:type
           rdf:resource="http://purl.org/dc/dcmitype/StillImage" />
        <dc:title></dc:title>
      </cc:Work>
    </rdf:RDF>
  </metadata>
  <defs
     id="defs6" />
  <path
     style="fill:#f2f2f2"
     d="M 0,0 H 1500 V 600 H 0 Z"
     id="rect3354" />
  <g
     aria-label=" Hairline!  Thin!  Light!  Book!  Medium!  Semi!  Bold  Heavy!  Black!"
     transform="matrix(5.0630513,0,0,5.0630513,637.66399,-321.07399)"
     style="font-style:normal;font-weight:normal;font-size:12.52019596px;line-height:1;font-family:sans-serif;text-align:start;letter-spacing:0px;word-spacing:0px;text-anchor:start;fill:#333333;fill-opacity:1;stroke:none;stroke-width:1px;stroke-linecap:butt;stroke-linejoin:miter;stroke-opacity:1"
     id="flowRoot876">
    <path
       d="m 29.161158,66.19816 h 0.137722 l -0.688611,3.918821 h 5.571487 l 0.688611,-3.918821 h 0.137722 l -1.539984,8.764137 h -0.137722 l 0.826333,-4.720114 h -5.571487 l -0.826333,4.720114 h -0.137722 z"
       style="font-style:italic;font-variant:normal;font-weight:100;font-stretch:normal;font-size:12.52019596px;line-height:1;font-family:'Renner*';-inkscape-font-specification:'Renner* Thin';text-align:start;text-anchor:start;fill:#333333"
       id="path981" />
    <path
       d="m 36.879663,69.991779 q -0.863893,0.788772 -1.089257,2.090873 -0.225363,1.3021 0.363086,2.090872 0.588449,0.788773 1.702747,0.788773 0.951535,0 1.777868,-0.801293 0.826333,-0.801292 1.076736,-1.865509 l 0.0626,-0.400646 q 0.125202,-1.076737 -0.413166,-1.87803 -0.538368,-0.813812 -1.489903,-0.813812 -1.114298,0 -1.990712,0.788772 z m -0.851373,4.269387 q -0.600969,-0.826333 -0.363086,-2.178514 0.237884,-1.352181 1.139338,-2.178514 0.901454,-0.826333 2.053312,-0.826333 0.926495,0 1.452343,0.66357 0.525848,0.66357 0.550889,1.640146 l 0.388126,-2.178514 h 0.125202 l -1.014136,5.75929 h -0.125202 l 0.388126,-2.178514 q -0.363086,0.976575 -1.139338,1.640145 -0.763732,0.663571 -1.690226,0.663571 -1.151858,0 -1.765348,-0.826333 z"
       style="font-style:italic;font-variant:normal;font-weight:100;font-stretch:normal;font-size:12.52019596px;line-height:1;font-family:'Renner*';-inkscape-font-specification:'Renner* Thin';text-align:start;text-anchor:start;fill:#333333"
       id="path983" />
    <path
       d="m 43.503043,69.203007 h 0.125202 l -1.014136,5.75929 h -0.125202 z m 0.563408,-2.817044 q -0.150242,0 -0.100161,-0.137723 0.03756,-0.112681 0.137722,-0.112681 0.162763,0 0.112682,0.137722 -0.03756,0.112682 -0.150243,0.112682 z"
       style="font-style:italic;font-variant:normal;font-weight:100;font-stretch:normal;font-size:12.52019596px;line-height:1;font-family:'Renner*';-inkscape-font-specification:'Renner* Thin';text-align:start;text-anchor:start;fill:#333333"
       id="path985" />
    <path
       d="m 48.078587,69.453411 q -0.313005,-0.250404 -0.67609,-0.250404 -0.676091,0 -1.151858,0.588449 -0.475768,0.575929 -0.676091,1.477383 l -0.65105,3.693458 h -0.125202 l 1.014136,-5.75929 h 0.125202 l -0.250404,1.427302 q 0.550889,-1.552504 1.740307,-1.552504 0.388126,0 0.738692,0.275444 z"
       style="font-style:italic;font-variant:normal;font-weight:100;font-stretch:normal;font-size:12.52019596px;line-height:1;font-family:'Renner*';-inkscape-font-specification:'Renner* Thin';text-align:start;text-anchor:start;fill:#333333"
       id="path987" />
    <path
       d="m 50.145203,65.196544 h 0.125202 l -1.727787,9.765753 h -0.125202 z"
       style="font-style:italic;font-variant:normal;font-weight:100;font-stretch:normal;font-size:12.52019596px;line-height:1;font-family:'Renner*';-inkscape-font-specification:'Renner* Thin';text-align:start;text-anchor:start;fill:#333333"
       id="path989" />
    <path
       d="m 51.743874,69.203007 h 0.125202 l -1.014136,5.75929 h -0.125202 z m 0.563409,-2.817044 q -0.150242,0 -0.100162,-0.137723 0.03756,-0.112681 0.137722,-0.112681 0.162763,0 0.112682,0.137722 -0.03756,0.112682 -0.150242,0.112682 z"
       style="font-style:italic;font-variant:normal;font-weight:100;font-stretch:normal;font-size:12.52019596px;line-height:1;font-family:'Renner*';-inkscape-font-specification:'Renner* Thin';text-align:start;text-anchor:start;fill:#333333"
       id="path991" />
    <path
       d="m 57.433716,70.955834 q 0.300485,-1.752827 -1.226979,-1.752827 -0.813813,0 -1.514944,0.63853 -0.688611,0.626009 -0.888934,1.489903 l -0.63853,3.630857 h -0.125202 l 1.014136,-5.75929 h 0.125202 l -0.287964,1.627625 q 0.313005,-0.788772 0.951535,-1.26454 0.63853,-0.488287 1.389741,-0.488287 1.665186,0 1.327141,1.878029 l -0.701131,4.006463 h -0.125202 z"
       style="font-style:italic;font-variant:normal;font-weight:100;font-stretch:normal;font-size:12.52019596px;line-height:1;font-family:'Renner*';-inkscape-font-specification:'Renner* Thin';text-align:start;text-anchor:start;fill:#333333"
       id="path993" />
    <path
       d="m 64.06453,71.794687 q 0.187803,-1.089257 -0.400646,-1.840469 -0.575929,-0.751211 -1.539984,-0.751211 -1.001616,0 -1.878029,0.763732 -0.876414,0.763732 -1.114298,2.015751 h 4.895397 z m -4.957997,0.313005 q -0.200323,1.214459 0.363086,2.040792 0.563408,0.813813 1.577544,0.813813 0.688611,0 1.2395,-0.250404 0.563408,-0.250404 0.813812,-0.500808 0.262925,-0.250404 0.58845,-0.66357 l 0.08764,0.07512 q -0.237884,0.300485 -0.425687,0.500808 -0.187803,0.187803 -0.525848,0.450727 -0.338045,0.250404 -0.801292,0.388126 -0.450728,0.125202 -1.001616,0.125202 -1.089257,0 -1.677706,-0.863894 -0.58845,-0.863893 -0.350566,-2.165994 0.225364,-1.264539 1.114298,-2.115913 0.888933,-0.863893 2.040791,-0.863893 1.014136,0 1.627626,0.776252 0.62601,0.776252 0.425687,1.92811 -0.01252,0.0626 -0.05008,0.187803 -0.03756,0.112682 -0.03756,0.137722 z"
       style="font-style:italic;font-variant:normal;font-weight:100;font-stretch:normal;font-size:12.52019596px;line-height:1;font-family:'Renner*';-inkscape-font-specification:'Renner* Thin';text-align:start;text-anchor:start;fill:#333333"
       id="path995" />
    <path
       d="m 65.816769,75.087499 q -0.150242,0 -0.100161,-0.150243 0.03756,-0.125202 0.150242,-0.125202 0.150242,0 0.100162,0.150243 -0.03756,0.125202 -0.150243,0.125202 z m 1.477383,-8.889339 h 0.175283 l -1.151858,6.260098 h -0.07512 z"
       style="font-style:italic;font-variant:normal;font-weight:100;font-stretch:normal;font-size:12.52019596px;line-height:1;font-family:'Renner*';-inkscape-font-specification:'Renner* Thin';text-align:start;text-anchor:start;fill:#333333"
       id="path997" />
    <path
       d="m 28.159542,79.672824 0.07512,-0.450727 h 5.145801 l -0.07512,0.450727 h -2.341277 l -1.464863,8.31341 h -0.463247 l 1.464863,-8.31341 z"
       style="font-style:italic;font-variant:normal;font-weight:200;font-stretch:normal;font-size:12.52019596px;line-height:1;font-family:'Renner*';-inkscape-font-specification:'Renner* Ultra-Light';text-align:start;text-anchor:start;fill:#333333"
       id="path999" />
    <path
       d="m 37.428987,84.155054 q 0.287964,-1.640145 -1.139338,-1.640145 -0.726172,0 -1.339661,0.525848 -0.60097,0.513328 -0.788772,1.26454 l -0.651051,3.680937 h -0.450727 l 1.727787,-9.765753 h 0.450727 l -0.939014,5.283523 q 0.350565,-0.63853 0.926494,-1.014136 0.588449,-0.388126 1.2395,-0.388126 0.876413,0 1.226979,0.538369 0.363085,0.525848 0.187803,1.477383 l -0.676091,3.86874 h -0.450727 z"
       style="font-style:italic;font-variant:normal;font-weight:200;font-stretch:normal;font-size:12.52019596px;line-height:1;font-family:'Renner*';-inkscape-font-specification:'Renner* Ultra-Light';text-align:start;text-anchor:start;fill:#333333"
       id="path1001" />
    <path
       d="m 40.774226,79.722905 q -0.07512,-0.100162 -0.05008,-0.237884 0.02504,-0.137722 0.137722,-0.225363 0.112682,-0.100162 0.250404,-0.100162 0.137722,0 0.212843,0.100162 0.08764,0.08764 0.0626,0.225363 -0.02504,0.137722 -0.137722,0.237884 -0.112682,0.08764 -0.250404,0.08764 -0.137722,0 -0.225364,-0.08764 z m -0.425686,2.504039 h 0.438207 l -1.014136,5.75929 h -0.438207 z"
       style="font-style:italic;font-variant:normal;font-weight:200;font-stretch:normal;font-size:12.52019596px;line-height:1;font-family:'Renner*';-inkscape-font-specification:'Renner* Ultra-Light';text-align:start;text-anchor:start;fill:#333333"
       id="path1003" />
    <path
       d="m 46.281157,84.155054 q 0.287964,-1.640145 -1.139338,-1.640145 -0.738692,0 -1.352181,0.538368 -0.60097,0.538369 -0.788773,1.3021 l -0.63853,3.630857 h -0.450727 l 1.014136,-5.75929 h 0.450727 l -0.225363,1.27706 q 0.350565,-0.65105 0.926494,-1.026656 0.575929,-0.375606 1.2395,-0.375606 0.876413,0 1.226979,0.538369 0.363085,0.525848 0.187803,1.477383 l -0.676091,3.86874 h -0.450727 z"
       style="font-style:italic;font-variant:normal;font-weight:200;font-stretch:normal;font-size:12.52019596px;line-height:1;font-family:'Renner*';-inkscape-font-specification:'Renner* Ultra-Light';text-align:start;text-anchor:start;fill:#333333"
       id="path1005" />
    <path
       d="m 50.052082,79.222097 h 0.550889 l -1.214459,6.260098 h -0.325525 z m -1.514944,8.814218 q -0.07512,-0.100162 -0.05008,-0.237884 0.02504,-0.137722 0.137722,-0.237883 0.112682,-0.100162 0.250404,-0.100162 0.137722,0 0.225363,0.100162 0.08764,0.100161 0.0626,0.237883 -0.02504,0.137722 -0.150242,0.237884 -0.112682,0.100162 -0.250404,0.100162 -0.137722,0 -0.225364,-0.100162 z"
       style="font-style:italic;font-variant:normal;font-weight:200;font-stretch:normal;font-size:12.52019596px;line-height:1;font-family:'Renner*';-inkscape-font-specification:'Renner* Ultra-Light';text-align:start;text-anchor:start;fill:#333333"
       id="path1007" />
    <path
       d="m 29.086036,92.246038 h 0.688611 l -1.427302,8.113092 h 3.618337 L 31.853,101.01018 h -4.306948 z"
       style="font-style:italic;font-variant:normal;font-weight:300;font-stretch:normal;font-size:12.52019596px;line-height:1;font-family:'Renner*';-inkscape-font-specification:'Renner* Light';text-align:start;text-anchor:start;fill:#333333"
       id="path1009" />
    <path
       d="m 34.549928,92.97221 q -0.100162,-0.137723 -0.0626,-0.325526 0.03756,-0.187803 0.187803,-0.325525 0.162762,-0.137722 0.350565,-0.137722 0.200323,0 0.313005,0.137722 0.112682,0.137722 0.07512,0.325525 -0.03756,0.187803 -0.200323,0.325526 -0.150242,0.137722 -0.350565,0.137722 -0.200323,0 -0.313005,-0.137722 z m -0.388126,2.278675 h 0.65105 l -1.014136,5.759295 h -0.65105 z"
       style="font-style:italic;font-variant:normal;font-weight:300;font-stretch:normal;font-size:12.52019596px;line-height:1;font-family:'Renner*';-inkscape-font-specification:'Renner* Light';text-align:start;text-anchor:start;fill:#333333"
       id="path1011" />
    <path
       d="m 36.333078,100.30904 q -0.63853,-0.826329 -0.400647,-2.17851 0.237884,-1.352181 1.176899,-2.178514 0.939014,-0.826333 2.128433,-0.826333 0.726171,0 1.201939,0.388126 0.488288,0.388126 0.676091,1.076737 l 0.237883,-1.339661 h 0.65105 l -0.989095,5.634085 q -0.250404,1.42731 -1.201939,2.21608 -0.939015,0.78877 -2.090873,0.78877 -1.189418,0 -1.815428,-0.70113 -0.61349,-0.68861 -0.413166,-1.80291 h 0.66357 q -0.137722,0.81381 0.313005,1.35218 0.463247,0.53837 1.364701,0.53837 0.876414,0 1.602585,-0.61349 0.726172,-0.61349 0.926495,-1.77787 l 0.212843,-1.214456 q -0.425687,0.676086 -1.051696,1.076736 -0.62601,0.38813 -1.352182,0.38813 -1.189418,0 -1.840468,-0.82634 z m 0.262924,-2.17851 q -0.187803,1.101777 0.325525,1.752828 0.513328,0.638532 1.452343,0.638532 0.813812,0 1.539984,-0.676093 0.738691,-0.688611 0.926494,-1.702747 l 0.02504,-0.08764 q 0.162762,-0.964055 -0.338046,-1.640146 -0.500808,-0.67609 -1.31462,-0.67609 -0.939015,0 -1.690227,0.65105 -0.738691,0.65105 -0.926494,1.740307 z"
       style="font-style:italic;font-variant:normal;font-weight:300;font-stretch:normal;font-size:12.52019596px;line-height:1;font-family:'Renner*';-inkscape-font-specification:'Renner* Light';text-align:start;text-anchor:start;fill:#333333"
       id="path1013" />
    <path
       d="m 47.258122,97.304197 q 0.275444,-1.565024 -1.076737,-1.565024 -0.688611,0 -1.239499,0.463247 -0.550889,0.450727 -0.726172,1.139338 l -0.65105,3.668422 h -0.65105 l 1.727787,-9.765758 h 0.65105 l -0.901454,5.120761 q 0.363086,-0.575929 0.901454,-0.901454 0.538369,-0.338046 1.151858,-0.338046 0.888934,0 1.26454,0.550889 0.388126,0.550888 0.212843,1.552504 l -0.66357,3.781104 h -0.65105 z"
       style="font-style:italic;font-variant:normal;font-weight:300;font-stretch:normal;font-size:12.52019596px;line-height:1;font-family:'Renner*';-inkscape-font-specification:'Renner* Light';text-align:start;text-anchor:start;fill:#333333"
       id="path1015" />
    <path
       d="m 50.674376,93.247654 h 0.65105 l -0.350565,2.003231 h 0.939015 l -0.112682,0.61349 h -0.939015 l -0.901454,5.145805 h -0.65105 l 0.901454,-5.145805 h -0.939015 l 0.112682,-0.61349 h 0.939015 z"
       style="font-style:italic;font-variant:normal;font-weight:300;font-stretch:normal;font-size:12.52019596px;line-height:1;font-family:'Renner*';-inkscape-font-specification:'Renner* Light';text-align:start;text-anchor:start;fill:#333333"
       id="path1017" />
    <path
       d="m 53.938431,92.246038 h 0.813812 l -1.264539,6.260098 h -0.488288 z m -1.552505,8.463652 q 0.03756,-0.20032 0.200323,-0.33804 0.162763,-0.13773 0.350566,-0.13773 0.187803,0 0.300485,0.13773 0.125202,0.13772 0.08764,0.33804 -0.03756,0.20032 -0.200323,0.32553 -0.162763,0.13772 -0.350566,0.13772 -0.187803,0 -0.313004,-0.13772 -0.112682,-0.13773 -0.07512,-0.32553 z"
       style="font-style:italic;font-variant:normal;font-weight:300;font-stretch:normal;font-size:12.52019596px;line-height:1;font-family:'Renner*';-inkscape-font-specification:'Renner* Light';text-align:start;text-anchor:start;fill:#333333"
       id="path1019" />
    <path
       d="m 29.3114,109.56083 -0.588449,3.35541 h 1.31462 q 0.863894,0 1.464863,-0.45073 0.61349,-0.45072 0.751212,-1.23949 0.137722,-0.78878 -0.313005,-1.22698 -0.450727,-0.43821 -1.31462,-0.43821 z m 0.62601,-3.5307 -0.463247,2.6042 h 1.201938 q 0.676091,0 1.164379,-0.33804 0.488287,-0.35057 0.600969,-0.95154 0.112682,-0.60096 -0.262924,-0.95153 -0.375606,-0.36309 -1.051697,-0.36309 z m -0.901454,-0.93901 h 2.253635 q 1.214459,0 1.815428,0.55089 0.60097,0.55089 0.413167,1.64014 -0.112682,0.66357 -0.588449,1.12682 -0.463248,0.46325 -1.189419,0.66357 0.876414,0.1878 1.3021,0.75121 0.425687,0.55089 0.262925,1.46487 -0.225364,1.25202 -1.164379,1.91559 -0.939014,0.65105 -2.266155,0.65105 h -2.378837 z"
       style="font-style:italic;font-variant:normal;font-weight:normal;font-stretch:normal;font-size:12.52019596px;line-height:1;font-family:'Renner*';-inkscape-font-specification:'Renner*';text-align:start;text-anchor:start;fill:#333333"
       id="path1021" />
    <path
       d="m 34.902841,113.12909 q -0.701131,-0.85138 -0.463247,-2.15348 0.237884,-1.3021 1.226979,-2.15347 1.001616,-0.85138 2.278676,-0.85138 1.27706,0 1.978191,0.85138 0.713651,0.85137 0.475767,2.15347 -0.237884,1.3021 -1.239499,2.15348 -1.001616,0.85137 -2.278676,0.85137 -1.27706,0 -1.978191,-0.85137 z m 1.364702,-3.63086 q -0.651051,0.57593 -0.813813,1.47738 -0.162763,0.90146 0.287964,1.4899 0.450727,0.57593 1.302101,0.57593 0.851373,0 1.514943,-0.57593 0.663571,-0.58844 0.826333,-1.4899 0.162763,-0.90145 -0.300484,-1.47738 -0.450727,-0.58845 -1.302101,-0.58845 -0.851373,0 -1.514943,0.58845 z"
       style="font-style:italic;font-variant:normal;font-weight:normal;font-stretch:normal;font-size:12.52019596px;line-height:1;font-family:'Renner*';-inkscape-font-specification:'Renner*';text-align:start;text-anchor:start;fill:#333333"
       id="path1023" />
    <path
       d="m 41.749823,113.12909 q -0.701131,-0.85138 -0.463247,-2.15348 0.237884,-1.3021 1.226979,-2.15347 1.001616,-0.85138 2.278676,-0.85138 1.27706,0 1.978191,0.85138 0.713651,0.85137 0.475767,2.15347 -0.237884,1.3021 -1.239499,2.15348 -1.001616,0.85137 -2.278676,0.85137 -1.27706,0 -1.978191,-0.85137 z m 1.364702,-3.63086 q -0.651051,0.57593 -0.813813,1.47738 -0.162763,0.90146 0.287964,1.4899 0.450727,0.57593 1.302101,0.57593 0.851373,0 1.514943,-0.57593 0.663571,-0.58844 0.826333,-1.4899 0.162763,-0.90145 -0.300484,-1.47738 -0.450727,-0.58845 -1.302101,-0.58845 -0.851373,0 -1.514943,0.58845 z"
       style="font-style:italic;font-variant:normal;font-weight:normal;font-stretch:normal;font-size:12.52019596px;line-height:1;font-family:'Renner*';-inkscape-font-specification:'Renner*';text-align:start;text-anchor:start;fill:#333333"
       id="path1025" />
    <path
       d="m 52.202623,108.09597 h 1.252019 l -2.917205,2.37883 2.153473,3.38046 h -1.252019 l -1.86551,-2.91721 -0.513328,2.91721 h -1.001615 l 1.727787,-9.76576 h 1.001615 l -1.064216,6.03474 z"
       style="font-style:italic;font-variant:normal;font-weight:normal;font-stretch:normal;font-size:12.52019596px;line-height:1;font-family:'Renner*';-inkscape-font-specification:'Renner*';text-align:start;text-anchor:start;fill:#333333"
       id="path1027" />
    <path
       d="m 55.476067,105.09112 h 1.252019 l -1.352181,6.2601 h -0.751212 z m -1.514944,8.26333 q 0.05008,-0.27545 0.287964,-0.47577 0.237884,-0.21284 0.525849,-0.21284 0.275444,0 0.438207,0.20032 0.175282,0.20032 0.125202,0.48829 -0.05008,0.27544 -0.287965,0.48829 -0.237884,0.20032 -0.525848,0.20032 -0.275445,0 -0.450727,-0.20032 -0.162763,-0.20033 -0.112682,-0.48829 z"
       style="font-style:italic;font-variant:normal;font-weight:normal;font-stretch:normal;font-size:12.52019596px;line-height:1;font-family:'Renner*';-inkscape-font-specification:'Renner*';text-align:start;text-anchor:start;fill:#333333"
       id="path1029" />
    <path
       d="m 30.037571,121.55811 -1.539984,5.32108 h -1.527464 l 2.829565,-9.20234 2.541599,5.94709 4.657513,-5.94709 -0.425686,9.20234 H 35.03313 l 0.338045,-5.32108 -3.468094,4.50727 z"
       style="font-style:italic;font-variant:normal;font-weight:500;font-stretch:normal;font-size:12.52019596px;line-height:1;font-family:'Renner*';-inkscape-font-specification:'Renner* Medium';text-align:start;text-anchor:start;fill:#333333"
       id="path1031" />
    <path
       d="m 42.505144,123.37354 q 0.02504,-0.63853 -0.275444,-0.9891 -0.300485,-0.36308 -0.926495,-0.36308 -0.62601,0 -1.126818,0.36308 -0.500807,0.36309 -0.68861,0.9891 z m -3.19265,0.93901 q -0.0626,0.77626 0.287964,1.1769 0.363086,0.40065 1.039177,0.40065 1.101777,0 1.815428,-0.91398 l 1.089257,0.47577 q -1.226979,1.55251 -3.167609,1.55251 -1.314621,0 -1.978191,-0.83886 -0.663571,-0.85137 -0.425687,-2.16599 0.237884,-1.35218 1.189419,-2.17852 0.964055,-0.82633 2.341276,-0.82633 1.339661,0 1.965671,0.78877 0.62601,0.78878 0.388126,2.15348 -0.01252,0.10016 -0.08764,0.3756 z"
       style="font-style:italic;font-variant:normal;font-weight:500;font-stretch:normal;font-size:12.52019596px;line-height:1;font-family:'Renner*';-inkscape-font-specification:'Renner* Medium';text-align:start;text-anchor:start;fill:#333333"
       id="path1033" />
    <path
       d="m 45.110715,126.19058 q -0.663571,-0.81381 -0.413167,-2.19103 0.250404,-1.37722 1.201939,-2.19104 0.951535,-0.81381 2.128433,-0.81381 1.28958,0 1.777868,1.07674 l 0.876414,-4.958 h 1.364701 l -1.727787,9.76575 h -1.364701 l 0.162762,-0.95153 q -0.876413,1.07674 -2.153473,1.07674 -1.176899,0 -1.852989,-0.81382 z m 1.715266,-3.51817 q -0.575929,0.48829 -0.726171,1.32714 -0.150242,0.83885 0.262924,1.33966 0.413167,0.48829 1.139338,0.48829 0.61349,0 1.176898,-0.46325 0.57593,-0.46325 0.763732,-1.2395 l 0.05008,-0.26292 q 0.08764,-0.77626 -0.338045,-1.22698 -0.413167,-0.46325 -1.014136,-0.46325 -0.726171,0 -1.314621,0.50081 z"
       style="font-style:italic;font-variant:normal;font-weight:500;font-stretch:normal;font-size:12.52019596px;line-height:1;font-family:'Renner*';-inkscape-font-specification:'Renner* Medium';text-align:start;text-anchor:start;fill:#333333"
       id="path1035" />
    <path
       d="m 53.485357,119.41716 q -0.200324,-0.23789 -0.137723,-0.58845 0.0626,-0.35057 0.350566,-0.58845 0.300485,-0.23789 0.65105,-0.23789 0.363086,0 0.563409,0.23789 0.212843,0.23788 0.150242,0.58845 -0.0626,0.35056 -0.363085,0.58845 -0.287965,0.23788 -0.63853,0.23788 -0.363086,0 -0.575929,-0.23788 z m -0.350566,1.70274 h 1.327141 l -1.014136,5.75929 h -1.327141 z"
       style="font-style:italic;font-variant:normal;font-weight:500;font-stretch:normal;font-size:12.52019596px;line-height:1;font-family:'Renner*';-inkscape-font-specification:'Renner* Medium';text-align:start;text-anchor:start;fill:#333333"
       id="path1037" />
    <path
       d="m 57.098997,124.62556 q -0.225363,1.28958 0.851373,1.28958 0.538369,0 0.939015,-0.32553 0.400646,-0.32552 0.538368,-0.85137 l 0.63853,-3.61834 h 1.352182 l -1.014136,5.75929 h -1.352181 l 0.162762,-0.90145 q -0.738691,1.02666 -1.92811,1.02666 -0.964055,0 -1.377222,-0.56341 -0.413166,-0.57593 -0.225363,-1.66519 l 0.63853,-3.6559 h 1.389742 z"
       style="font-style:italic;font-variant:normal;font-weight:500;font-stretch:normal;font-size:12.52019596px;line-height:1;font-family:'Renner*';-inkscape-font-specification:'Renner* Medium';text-align:start;text-anchor:start;fill:#333333"
       id="path1039" />
    <path
       d="m 71.020479,123.2233 -0.63853,3.65589 h -1.364701 l 0.613489,-3.50565 q 0.112682,-0.65105 -0.05008,-0.96406 -0.162762,-0.32552 -0.67609,-0.32552 -0.513328,0 -0.876414,0.32552 -0.350565,0.31301 -0.475767,0.83886 l -0.63853,3.63085 h -1.364702 l 0.61349,-3.50565 q 0.112682,-0.65105 -0.05008,-0.96406 -0.150242,-0.32552 -0.66357,-0.32552 -0.513328,0 -0.876414,0.32552 -0.350566,0.31301 -0.475767,0.85138 l -0.63853,3.61833 H 62.13114 l 1.014136,-5.75929 h 1.32714 l -0.150242,0.83886 q 0.701131,-0.96406 1.790388,-0.96406 1.26454,0 1.477383,1.01414 0.813813,-1.01414 1.990711,-1.01414 1.827949,0 1.439823,2.2286 z"
       style="font-style:italic;font-variant:normal;font-weight:500;font-stretch:normal;font-size:12.52019596px;line-height:1;font-family:'Renner*';-inkscape-font-specification:'Renner* Medium';text-align:start;text-anchor:start;fill:#333333"
       id="path1041" />
    <path
       d="m 73.923596,118.11506 h 1.690227 l -1.389742,6.10985 h -1.064217 z m -1.314621,8.76413 q -0.212843,-0.2504 -0.150242,-0.61349 0.0626,-0.36308 0.350566,-0.60097 0.300484,-0.23788 0.67609,-0.23788 0.375606,0 0.588449,0.25041 0.225364,0.23788 0.162763,0.58844 -0.0626,0.36309 -0.363086,0.61349 -0.300484,0.23789 -0.67609,0.23789 -0.375606,0 -0.58845,-0.23789 z"
       style="font-style:italic;font-variant:normal;font-weight:500;font-stretch:normal;font-size:12.52019596px;line-height:1;font-family:'Renner*';-inkscape-font-specification:'Renner* Medium';text-align:start;text-anchor:start;fill:#333333"
       id="path1043" />
    <path
       d="m 28.785552,136.84821 q 0.287964,0.86389 0.726171,1.28958 0.450727,0.41316 1.151858,0.41316 0.575929,0 0.939015,-0.26292 0.363086,-0.27544 0.450727,-0.76373 0.05008,-0.28797 -0.02504,-0.50081 -0.07512,-0.22536 -0.363086,-0.42569 -0.287965,-0.20032 -0.463247,-0.27544 -0.162763,-0.0876 -0.651051,-0.28797 -0.07512,-0.0376 -0.112681,-0.0501 -2.178514,-0.87641 -1.86551,-2.64176 0.187803,-1.06421 1.126818,-1.71526 0.939015,-0.66357 2.228595,-0.66357 1.201939,0 1.878029,0.5634 0.676091,0.56341 0.838853,1.33966 l -1.527463,0.82634 q -0.425687,-1.16438 -1.389742,-1.16438 -0.525848,0 -0.876414,0.23788 -0.350565,0.23789 -0.425687,0.65105 -0.02504,0.16277 0.01252,0.31301 0.03756,0.13772 0.187803,0.27544 0.150242,0.1252 0.250404,0.21285 0.112681,0.0751 0.400646,0.21284 0.300484,0.1252 0.425686,0.17528 0.137723,0.0501 0.500808,0.1878 2.078353,0.78878 1.740308,2.67933 -0.225364,1.26454 -1.176899,1.96567 -0.951535,0.68861 -2.428918,0.68861 -1.164378,0 -1.978191,-0.63853 -0.813813,-0.65105 -1.039176,-1.74031 z"
       style="font-style:italic;font-variant:normal;font-weight:600;font-stretch:normal;font-size:12.52019596px;line-height:1;font-family:'Renner*';-inkscape-font-specification:'Renner* Semi-Bold';text-align:start;text-anchor:start;fill:#333333"
       id="path1045" />
    <path
       d="m 39.497362,136.3474 q 0,-1.12682 -1.139338,-1.12682 -0.563409,0 -1.014136,0.30049 -0.438207,0.30048 -0.63853,0.82633 z m -2.992327,1.02666 q -0.01252,0.66357 0.363086,1.02665 0.375606,0.35057 1.014136,0.35057 0.901454,0 1.464863,-0.78878 l 1.28958,0.50081 q -0.563409,0.77625 -1.25202,1.1769 -0.688611,0.38813 -1.802908,0.38813 -1.364701,0 -2.103393,-0.85138 -0.726171,-0.85137 -0.488288,-2.15347 0.237884,-1.35218 1.214459,-2.17851 0.989096,-0.82634 2.391358,-0.82634 1.3021,0 1.965671,0.8013 0.66357,0.78877 0.425686,2.12843 -0.01252,0.13772 -0.100161,0.42569 z"
       style="font-style:italic;font-variant:normal;font-weight:600;font-stretch:normal;font-size:12.52019596px;line-height:1;font-family:'Renner*';-inkscape-font-specification:'Renner* Semi-Bold';text-align:start;text-anchor:start;fill:#333333"
       id="path1047" />
    <path
       d="m 50.900523,136.2222 -0.651051,3.68093 h -1.640145 l 0.613489,-3.50565 q 0.212844,-1.1769 -0.63853,-1.1769 -0.413166,0 -0.713651,0.26293 -0.300484,0.2504 -0.438207,0.70113 l -0.66357,3.71849 h -1.640146 l 0.61349,-3.50565 q 0.112682,-0.58845 -0.03756,-0.87641 -0.137722,-0.30049 -0.588449,-0.30049 -0.438207,0 -0.751212,0.27545 -0.313005,0.27544 -0.425686,0.76373 l -0.63853,3.64337 h -1.577545 l 1.014136,-5.75929 H 44.3149 l -0.150243,0.85138 q 0.688611,-0.97658 1.815429,-0.97658 1.27706,0 1.477383,0.97658 0.826333,-0.97658 1.990711,-0.97658 1.840469,0 1.452343,2.20356 z"
       style="font-style:italic;font-variant:normal;font-weight:600;font-stretch:normal;font-size:12.52019596px;line-height:1;font-family:'Renner*';-inkscape-font-specification:'Renner* Semi-Bold';text-align:start;text-anchor:start;fill:#333333"
       id="path1049" />
    <path
       d="m 53.174112,131.91525 q 0.0626,-0.38813 0.400647,-0.65105 0.338045,-0.27544 0.751211,-0.27544 0.413167,0 0.63853,0.26292 0.225364,0.26292 0.162763,0.66357 -0.0626,0.38813 -0.400646,0.66357 -0.325525,0.26292 -0.738692,0.26292 -0.413166,0 -0.65105,-0.26292 -0.225364,-0.26292 -0.162763,-0.66357 z m -0.212843,2.22859 h 1.577545 l -1.014136,5.75929 h -1.577545 z"
       style="font-style:italic;font-variant:normal;font-weight:600;font-stretch:normal;font-size:12.52019596px;line-height:1;font-family:'Renner*';-inkscape-font-specification:'Renner* Semi-Bold';text-align:start;text-anchor:start;fill:#333333"
       id="path1051" />
    <path
       d="m 57.036396,131.139 h 2.028272 l -1.414782,5.98465 h -1.302101 z m -1.26454,8.76413 q -0.237883,-0.28796 -0.162762,-0.70113 0.07512,-0.41316 0.413166,-0.67609 0.338045,-0.27544 0.788773,-0.27544 0.450727,0 0.68861,0.27544 0.250404,0.26293 0.175283,0.67609 -0.07512,0.41317 -0.413166,0.70113 -0.338046,0.27545 -0.788773,0.27545 -0.450727,0 -0.701131,-0.27545 z"
       style="font-style:italic;font-variant:normal;font-weight:600;font-stretch:normal;font-size:12.52019596px;line-height:1;font-family:'Renner*';-inkscape-font-specification:'Renner* Semi-Bold';text-align:start;text-anchor:start;fill:#333333"
       id="path1053" />
    <path
       d="m 28.960835,144.16294 h 3.23021 q 1.402262,0 2.153474,0.57593 0.751212,0.57593 0.563409,1.65266 -0.225364,1.25202 -1.590065,1.82795 0.763732,0.27545 1.139338,0.83886 0.388126,0.55088 0.237883,1.40226 -0.438207,2.46648 -3.8437,2.46648 H 27.42085 Z m 1.827948,1.65266 -0.325525,1.82795 h 0.876414 q 0.550888,0 0.901454,-0.2504 0.350565,-0.2504 0.425687,-0.68861 0.07512,-0.43821 -0.187803,-0.66357 -0.262925,-0.22537 -0.813813,-0.22537 z m -0.588449,3.30534 -0.375606,2.15347 h 1.089257 q 1.439823,0 1.640146,-1.10178 0.100161,-0.53837 -0.250404,-0.78877 -0.350566,-0.26292 -1.001616,-0.26292 z"
       style="font-style:italic;font-variant:normal;font-weight:bold;font-stretch:normal;font-size:12.52019596px;line-height:1;font-family:'Renner*';-inkscape-font-specification:'Renner* Bold';text-align:start;text-anchor:start;fill:#333333"
       id="path1055" />
    <path
       d="m 38.251603,148.99573 q -0.450727,0.40065 -0.575929,1.0517 -0.125202,0.65105 0.187803,1.0517 0.313005,0.38812 0.888934,0.38812 0.575929,0 1.026656,-0.38812 0.450727,-0.40065 0.575929,-1.0517 0.125202,-0.65105 -0.200323,-1.0517 -0.313005,-0.40064 -0.888934,-0.40064 -0.563409,0 -1.014136,0.40064 z m -1.990711,3.23021 q -0.776252,-0.82633 -0.538369,-2.17851 0.237884,-1.35218 1.314621,-2.17851 1.076737,-0.82634 2.504039,-0.82634 1.427302,0 2.216075,0.82634 0.788772,0.82633 0.550888,2.17851 -0.237883,1.35218 -1.32714,2.17851 -1.076737,0.82634 -2.50404,0.82634 -1.427302,0 -2.216074,-0.82634 z"
       style="font-style:italic;font-variant:normal;font-weight:bold;font-stretch:normal;font-size:12.52019596px;line-height:1;font-family:'Renner*';-inkscape-font-specification:'Renner* Bold';text-align:start;text-anchor:start;fill:#333333"
       id="path1057" />
    <path
       d="m 44.672507,143.16132 h 1.90307 l -1.727787,9.76576 h -1.90307 z"
       style="font-style:italic;font-variant:normal;font-weight:bold;font-stretch:normal;font-size:12.52019596px;line-height:1;font-family:'Renner*';-inkscape-font-specification:'Renner* Bold';text-align:start;text-anchor:start;fill:#333333"
       id="path1059" />
    <path
       d="m 49.061227,148.98321 q -0.463247,0.40065 -0.588449,1.06422 -0.125202,0.66357 0.200323,1.07674 0.338045,0.40064 0.913974,0.40064 0.488288,0 0.951535,-0.36308 0.475768,-0.37561 0.62601,-0.9891 l 0.03756,-0.23788 q 0.07512,-0.61349 -0.275445,-0.9891 -0.338045,-0.3756 -0.826333,-0.3756 -0.575929,0 -1.039176,0.41316 z m -2.57916,1.06422 q 0.250404,-1.40226 1.189418,-2.20355 0.951535,-0.8013 2.065833,-0.8013 1.28958,0 1.790388,1.0517 l 0.876413,-4.93296 h 1.90307 l -1.727787,9.76576 h -1.90307 l 0.162763,-0.91398 q -0.888934,1.03918 -2.165994,1.03918 -1.126818,0 -1.790388,-0.80129 -0.65105,-0.81382 -0.400646,-2.20356 z"
       style="font-style:italic;font-variant:normal;font-weight:bold;font-stretch:normal;font-size:12.52019596px;line-height:1;font-family:'Renner*';-inkscape-font-specification:'Renner* Bold';text-align:start;text-anchor:start;fill:#333333"
       id="path1061" />
    <path
       d="m 28.935794,157.18688 h 2.428918 l -0.550888,3.10501 h 3.455574 l 0.550888,-3.10501 h 2.428918 l -1.539984,8.76414 h -2.428918 l 0.61349,-3.49314 h -3.455574 l -0.61349,3.49314 H 27.39581 Z"
       style="font-style:italic;font-variant:normal;font-weight:800;font-stretch:normal;font-size:12.52019596px;line-height:1;font-family:'Renner*';-inkscape-font-specification:'Renner* Ultra-Bold';text-align:start;text-anchor:start;fill:#333333"
       id="path1063" />
    <path
       d="m 39.597915,163.5221 q 0.01252,0.52585 0.287965,0.77625 0.275444,0.25041 0.738691,0.25041 0.926495,0 1.327141,-0.62601 l 1.815429,0.45072 q -1.151858,1.70275 -3.405494,1.70275 -1.577544,0 -2.316236,-0.82633 -0.726171,-0.83886 -0.488288,-2.17852 0.250404,-1.38974 1.26454,-2.19103 1.014136,-0.81382 2.591681,-0.81382 1.464863,0 2.153474,0.77626 0.70113,0.76373 0.463247,2.12843 -0.02504,0.1878 -0.125202,0.55089 z m 2.366317,-1.15186 q -0.02504,-0.85137 -0.863893,-0.85137 -0.939015,0 -1.27706,0.85137 z"
       style="font-style:italic;font-variant:normal;font-weight:800;font-stretch:normal;font-size:12.52019596px;line-height:1;font-family:'Renner*';-inkscape-font-specification:'Renner* Ultra-Bold';text-align:start;text-anchor:start;fill:#333333"
       id="path1065" />
    <path
       d="m 47.635098,162.19496 q -0.388126,0.313 -0.488287,0.87641 -0.100162,0.56341 0.187803,0.88894 0.287964,0.313 0.801292,0.313 0.475768,0 0.876414,-0.313 0.413166,-0.31301 0.513328,-0.88894 0.100161,-0.57593 -0.200323,-0.88893 -0.300485,-0.31301 -0.776252,-0.31301 -0.513328,0 -0.913975,0.32553 z m -2.779483,0.87641 q 0.175283,-0.98909 0.701131,-1.6777 0.525848,-0.70114 1.164378,-1.00162 0.65105,-0.30048 1.364701,-0.30048 1.339661,0 1.790388,1.05169 l 0.162763,-0.95153 h 2.165994 l -1.014136,5.75929 H 49.02484 l 0.175283,-0.97658 q -0.838853,1.07674 -2.203555,1.07674 -1.114297,0 -1.752827,-0.75121 -0.63853,-0.76374 -0.388126,-2.2286 z"
       style="font-style:italic;font-variant:normal;font-weight:800;font-stretch:normal;font-size:12.52019596px;line-height:1;font-family:'Renner*';-inkscape-font-specification:'Renner* Ultra-Bold';text-align:start;text-anchor:start;fill:#333333"
       id="path1067" />
    <path
       d="m 52.743339,160.19173 h 2.303716 l 0.701131,2.92972 1.727787,-2.92972 h 2.303716 l -4.670033,6.5105 z"
       style="font-style:italic;font-variant:normal;font-weight:800;font-stretch:normal;font-size:12.52019596px;line-height:1;font-family:'Renner*';-inkscape-font-specification:'Renner* Ultra-Bold';text-align:start;text-anchor:start;fill:#333333"
       id="path1069" />
    <path
       d="m 67.066834,160.19173 -5.258482,8.51373 h -2.153474 l 1.90307,-3.10501 -1.627625,-5.40872 h 2.353797 l 0.738691,3.21769 1.840469,-3.21769 z"
       style="font-style:italic;font-variant:normal;font-weight:800;font-stretch:normal;font-size:12.52019596px;line-height:1;font-family:'Renner*';-inkscape-font-specification:'Renner* Ultra-Bold';text-align:start;text-anchor:start;fill:#333333"
       id="path1071" />
    <path
       d="m 66.940654,165.09964 q 0.100162,-0.52584 0.525849,-0.86389 0.438207,-0.33805 1.014136,-0.33805 0.575929,0 0.888933,0.33805 0.325526,0.33805 0.225364,0.86389 -0.08764,0.52585 -0.525848,0.85138 -0.425687,0.33804 -1.014136,0.33804 -0.588449,0 -0.901454,-0.33804 -0.300485,-0.32553 -0.212844,-0.85138 z m 1.389742,-7.91276 h 2.679322 l -1.477383,5.75929 h -1.765348 z"
       style="font-style:italic;font-variant:normal;font-weight:800;font-stretch:normal;font-size:12.52019596px;line-height:1;font-family:'Renner*';-inkscape-font-specification:'Renner* Ultra-Bold';text-align:start;text-anchor:start;fill:#333333"
       id="path1073" />
    <path
       d="m 28.910754,170.03196 h 3.81866 q 1.514943,0 2.366317,0.58845 0.851373,0.58845 0.66357,1.66519 -0.225364,1.2395 -1.539984,1.85299 1.590065,0.68861 1.31462,2.25363 -0.225363,1.26454 -1.264539,1.84047 -1.026656,0.56341 -2.829565,0.56341 H 27.37077 Z m 2.391357,2.06583 -0.237884,1.37722 h 0.688611 q 0.913975,0 1.039176,-0.72617 0.05008,-0.33804 -0.137722,-0.48828 -0.187803,-0.16277 -0.66357,-0.16277 z m -0.563409,3.19265 -0.250404,1.43983 h 0.939015 q 0.563409,0 0.888934,-0.15025 0.325525,-0.15024 0.413167,-0.62601 0.0626,-0.38812 -0.225364,-0.52584 -0.275444,-0.13773 -0.826333,-0.13773 z"
       style="font-style:italic;font-variant:normal;font-weight:900;font-stretch:normal;font-size:12.52019596px;line-height:1;font-family:'Renner*';-inkscape-font-specification:'Renner* Heavy';text-align:start;text-anchor:start;fill:#333333"
       id="path1075" />
    <path
       d="m 37.969312,169.03035 h 2.441438 l -1.727787,9.76575 h -2.441438 z"
       style="font-style:italic;font-variant:normal;font-weight:900;font-stretch:normal;font-size:12.52019596px;line-height:1;font-family:'Renner*';-inkscape-font-specification:'Renner* Heavy';text-align:start;text-anchor:start;fill:#333333"
       id="path1077" />
    <path
       d="m 43.201776,175.19028 q -0.338046,0.26293 -0.425687,0.72617 -0.08764,0.46325 0.150242,0.73869 0.250404,0.26293 0.688611,0.26293 0.388126,0 0.726172,-0.22536 0.338045,-0.22537 0.463247,-0.65106 l 0.03756,-0.26292 q 0.03756,-0.42569 -0.225363,-0.63853 -0.250404,-0.22536 -0.63853,-0.22536 -0.438207,0 -0.776252,0.27544 z m -3.004847,0.72617 q 0.262924,-1.47738 1.189418,-2.24111 0.926495,-0.76373 2.028272,-0.76373 1.327141,0 1.752828,1.02665 l 0.162762,-0.90145 h 2.441438 l -1.014136,5.75929 h -2.441438 l 0.162763,-0.93902 q -0.826333,1.06422 -2.178514,1.06422 -1.089257,0 -1.727787,-0.75121 -0.63853,-0.76373 -0.375606,-2.25364 z"
       style="font-style:italic;font-variant:normal;font-weight:900;font-stretch:normal;font-size:12.52019596px;line-height:1;font-family:'Renner*';-inkscape-font-specification:'Renner* Heavy';text-align:start;text-anchor:start;fill:#333333"
       id="path1079" />
    <path
       d="m 50.783145,175.91645 q -0.100162,0.55089 0.200323,0.85138 0.313005,0.30048 0.863893,0.30048 0.964055,0 1.640146,-0.73869 l -0.388126,2.20355 q -0.751212,0.38813 -1.827949,0.38813 -1.577545,0 -2.416398,-0.81381 -0.826333,-0.81382 -0.588449,-2.19104 0.237884,-1.37722 1.364701,-2.19103 1.126818,-0.81381 2.704363,-0.81381 0.913974,0 1.690226,0.36308 l -0.388126,2.21608 q -0.200323,-0.36309 -0.600969,-0.53837 -0.400646,-0.18781 -0.776252,-0.18781 -0.513328,0 -0.951535,0.33805 -0.438207,0.33805 -0.525848,0.81381 z"
       style="font-style:italic;font-variant:normal;font-weight:900;font-stretch:normal;font-size:12.52019596px;line-height:1;font-family:'Renner*';-inkscape-font-specification:'Renner* Heavy';text-align:start;text-anchor:start;fill:#333333"
       id="path1081" />
    <path
       d="m 59.721391,173.03681 h 2.867125 l -2.854604,2.37884 2.090872,3.38045 H 59.00774 l -1.865509,-2.92973 -0.513328,2.92973 h -2.316236 l 1.727787,-9.76575 h 2.316236 l -1.064217,6.03473 z"
       style="font-style:italic;font-variant:normal;font-weight:900;font-stretch:normal;font-size:12.52019596px;line-height:1;font-family:'Renner*';-inkscape-font-specification:'Renner* Heavy';text-align:start;text-anchor:start;fill:#333333"
       id="path1083" />
    <path
       d="m 63.191442,178.80862 q -0.338045,-0.36309 -0.237884,-0.95154 0.100162,-0.58845 0.575929,-0.95153 0.475768,-0.36309 1.139338,-0.36309 0.66357,0 1.001616,0.36309 0.338045,0.36308 0.237883,0.95153 -0.100161,0.58845 -0.575929,0.95154 -0.463247,0.36308 -1.126817,0.36308 -0.663571,0 -1.014136,-0.36308 z m 1.114297,-8.77666 h 3.004847 l -1.489903,5.63409 h -2.003231 z"
       style="font-style:italic;font-variant:normal;font-weight:900;font-stretch:normal;font-size:12.52019596px;line-height:1;font-family:'Renner*';-inkscape-font-specification:'Renner* Heavy';text-align:start;text-anchor:start;fill:#333333"
       id="path1085" />
  </g>
  <g
     id="flowRoot126"
     style="font-style:normal;font-variant:normal;font-weight:normal;font-stretch:normal;font-size:66.66666412px;line-height:125%;font-family:'Jost*';-inkscape-font-specification:'Jost*';text-align:end;letter-spacing:0px;word-spacing:0px;text-anchor:end;fill:#000000;fill-opacity:1;stroke:none;stroke-width:1px;stroke-linecap:butt;stroke-linejoin:miter;stroke-opacity:1"
     transform="matrix(0.9375,0,0,0.9375,-242.2596,-0.52404159)"
     aria-label="Jost*">
    <path
       id="path234"
       style="font-style:normal;font-variant:normal;font-weight:normal;font-stretch:normal;font-size:66.66666412px;font-family:'Jost*';-inkscape-font-specification:'Jost*';text-align:end;text-anchor:end;fill:#333333"
       d="m 907.40834,279.18863 -2.93333,4.4 q 0.73333,1 3,2.13334 2.2,1.2 4.86666,1.2 4.73333,0 7.46667,-2.6 2.73333,-2.6 2.73333,-8.06667 v -50.66667 h -5.33333 v 50 q 0,3.33334 -1.53334,4.66667 -1.53333,1.33333 -2.99999,1.33333 -3.8,0 -5.26667,-2.4 z" />
    <path
       id="path236"
       style="font-style:normal;font-variant:normal;font-weight:normal;font-stretch:normal;font-size:66.66666412px;font-family:'Jost*';-inkscape-font-specification:'Jost*';text-align:end;text-anchor:end;fill:#333333"
       d="m 930.22396,256.92197 q 0,4.66666 2.06667,8.26666 2.13333,3.6 5.73333,5.66667 3.6,2.06667 8.06667,2.06667 4.46667,0 8.06667,-2.06667 3.6,-2.06667 5.66666,-5.66667 2.13334,-3.6 2.13334,-8.26666 0,-4.66667 -2.13334,-8.26667 -2.06666,-3.6 -5.66666,-5.66667 -3.6,-2.06666 -8.06667,-2.06666 -4.46667,0 -8.06667,2.06666 -3.6,2.06667 -5.73333,5.66667 -2.06667,3.6 -2.06667,8.26667 z m 5.4,0 q 0,-3.2 1.33334,-5.66667 1.4,-2.46667 3.73333,-3.86667 2.4,-1.46666 5.4,-1.46666 3,0 5.33333,1.46666 2.4,1.4 3.73334,3.86667 1.4,2.46667 1.4,5.66667 0,3.2 -1.4,5.66666 -1.33334,2.46667 -3.73334,3.93334 -2.33333,1.4 -5.33333,1.4 -3,0 -5.4,-1.4 -2.33333,-1.46667 -3.73333,-3.93334 -1.33334,-2.46666 -1.33334,-5.66666 z" />
    <path
       id="path238"
       style="font-style:normal;font-variant:normal;font-weight:normal;font-stretch:normal;font-size:66.66666412px;font-family:'Jost*';-inkscape-font-specification:'Jost*';text-align:end;text-anchor:end;fill:#333333"
       d="m 970.21563,261.4553 -4.2,2.6 q 1.66667,3.73333 5,6.33333 3.4,2.53334 7.66666,2.53334 4.46667,0 7.46667,-2.2 3.06667,-2.2 3.06667,-7.13334 0,-2.53333 -1.2,-4.26666 -1.2,-1.8 -3.2,-2.93334 -1.93334,-1.2 -4.06667,-2.13333 -1.73333,-0.66667 -3.46666,-1.33333 -1.73334,-0.66667 -2.93334,-1.53334 -1.2,-0.93333 -1.2,-2.4 0,-1.8 1.4,-2.46666 1.4,-0.73334 3.4,-0.73334 1.86667,0 3.73333,1.2 1.86667,1.13334 3,2.66667 l 4.26667,-2.73333 q -1.4,-2.53334 -4.4,-4.26667 -3,-1.73333 -6.66666,-1.73333 -2.46667,0 -4.73334,0.86666 -2.26666,0.86667 -3.73333,2.73334 -1.46667,1.8 -1.46667,4.66666 0,2.93334 1.33334,4.6 1.33333,1.6 3.33333,2.6 2,0.93334 4.13333,1.8 1.73333,0.73334 3.33333,1.53334 1.6,0.73333 2.6,1.8 1,1.06666 1,2.66666 0,1.93334 -1.46666,2.86667 -1.4,0.86667 -3.53334,0.86667 -2.19999,0 -4.53333,-1.8 -2.33333,-1.86667 -3.93333,-4.66667 z" />
    <path
       id="path240"
       style="font-style:normal;font-variant:normal;font-weight:normal;font-stretch:normal;font-size:66.66666412px;font-family:'Jost*';-inkscape-font-specification:'Jost*';text-align:end;text-anchor:end;fill:#333333"
       d="m 996.50521,230.92197 v 10.66666 h -5 v 5 h 5 v 25.66667 h 5.33329 v -25.66667 h 5 v -5 h -5 v -10.66666 z" />
    <path
       id="path242"
       style="font-style:normal;font-variant:normal;font-weight:normal;font-stretch:normal;font-size:66.66666412px;font-family:'Jost*';-inkscape-font-specification:'Jost*';text-align:end;text-anchor:end;fill:#c83737"
       d="m 1024.5875,225.58863 0.5333,10.53334 -9.8666,-3.8 -1.4,4.46666 10.1333,2.73334 -6.6,8.2 3.8,2.73333 5.7333,-8.8 5.7334,8.8 3.8,-2.73333 -6.6,-8.2 10.1333,-2.73334 -1.4,-4.46666 -9.8667,3.8 0.5334,-10.53334 z" />
  </g>
  <g
     id="flowRoot148"
     style="font-style:normal;font-variant:normal;font-weight:300;font-stretch:normal;font-size:66.66666412px;line-height:125%;font-family:'Jost*';-inkscape-font-specification:'Jost* Light';text-align:end;letter-spacing:0px;word-spacing:0px;text-anchor:end;fill:#000000;fill-opacity:1;stroke:none;stroke-width:1px;stroke-linecap:butt;stroke-linejoin:miter;stroke-opacity:1"
     transform="matrix(0.9375,0,0,0.9375,-242.2596,-64.798084)"
     aria-label="Jost*">
    <path
       id="path245"
       style="font-style:normal;font-variant:normal;font-weight:300;font-stretch:normal;font-size:66.66666412px;font-family:'Jost*';-inkscape-font-specification:'Jost* Light';text-align:end;text-anchor:end;fill:#333333"
       d="m 908.02188,280.6553 -1.93333,2.8 q 0.53333,0.66667 1.73333,1.46667 1.13333,0.8 2.8,1.4 1.6,0.6 3.33333,0.6 4.66667,0 7,-2.6 2.4,-2.6 2.4,-8.06667 v -50.66667 h -3.53333 v 50 q 0,4.26667 -1.53333,6.06667 -1.53334,1.8 -4.2,1.8 -2,0 -3.6,-0.86667 -1.6,-0.8 -2.46667,-1.93333 z" />
    <path
       id="path247"
       style="font-style:normal;font-variant:normal;font-weight:300;font-stretch:normal;font-size:66.66666412px;font-family:'Jost*';-inkscape-font-specification:'Jost* Light';text-align:end;text-anchor:end;fill:#333333"
       d="m 931.5323,256.92197 q 0,4.66666 2.06666,8.26666 2.06667,3.6 5.6,5.66667 3.6,2.06667 8.06667,2.06667 4.46666,0 8,-2.06667 3.6,-2.06667 5.66666,-5.66667 2.06667,-3.6 2.06667,-8.26666 0,-4.66667 -2.06667,-8.26667 -2.06666,-3.6 -5.66666,-5.66667 -3.53334,-2.06666 -8,-2.06666 -4.46667,0 -8.06667,2.06666 -3.53333,2.06667 -5.6,5.66667 -2.06666,3.6 -2.06666,8.26667 z m 3.53333,0 q 0,-3.73334 1.6,-6.6 1.6,-2.86667 4.33333,-4.46667 2.8,-1.66667 6.26667,-1.66667 3.46666,0 6.2,1.66667 2.8,1.6 4.4,4.46667 1.6,2.86666 1.6,6.6 0,3.73333 -1.6,6.6 -1.6,2.86666 -4.4,4.53333 -2.73334,1.6 -6.2,1.6 -3.46667,0 -6.26667,-1.6 -2.73333,-1.66667 -4.33333,-4.53333 -1.6,-2.86667 -1.6,-6.6 z" />
    <path
       id="path249"
       style="font-style:normal;font-variant:normal;font-weight:300;font-stretch:normal;font-size:66.66666412px;font-family:'Jost*';-inkscape-font-specification:'Jost* Light';text-align:end;text-anchor:end;fill:#333333"
       d="m 970.85105,261.92197 -3.13334,0.93333 q 0.46667,2.66667 2,5 1.53334,2.26667 3.93334,3.66667 2.4,1.4 5.46666,1.4 4.53334,0 7.4,-2.33334 2.93334,-2.33333 2.93334,-6.66666 0,-2.33334 -1.26667,-3.93334 -1.2,-1.66666 -3.13333,-2.8 -1.93334,-1.2 -4.13334,-2 -1.93333,-0.66666 -3.8,-1.53333 -1.8,-0.93333 -2.93333,-2.13333 -1.13333,-1.2 -1.13333,-2.93334 0,-2.13333 1.4,-3.2 1.46666,-1.13333 3.93333,-1.13333 3,0 4.73333,1.8 1.8,1.8 2.8,3.73333 l 2.86667,-1.06666 q -0.6,-1.66667 -2,-3.46667 -1.33333,-1.8 -3.46667,-3 -2.06666,-1.26667 -4.93333,-1.26667 -3.66667,0 -6.26667,2 -2.53333,1.93334 -2.53333,5.4 0,2.66667 1.26667,4.4 1.26666,1.73334 3.2,2.86667 2,1.06667 4.26666,1.86667 2,0.73333 3.66667,1.53333 1.73333,0.8 2.8,2.06667 1.06667,1.2 1.06667,3.06666 0,2.4 -1.8,3.93334 -1.8,1.53333 -4.73334,1.53333 -3.66666,0 -5.73333,-2.26667 -2.06667,-2.33333 -2.73333,-5.46666 z" />
    <path
       id="path251"
       style="font-style:normal;font-variant:normal;font-weight:300;font-stretch:normal;font-size:66.66666412px;font-family:'Jost*';-inkscape-font-specification:'Jost* Light';text-align:end;text-anchor:end;fill:#333333"
       d="m 998.07396,230.92197 v 10.66666 h -5 v 3.26667 h 5 v 27.4 h 3.46664 v -27.4 h 5 v -3.26667 h -5 v -10.66666 z" />
    <path
       id="path253"
       style="font-style:normal;font-variant:normal;font-weight:300;font-stretch:normal;font-size:66.66666412px;font-family:'Jost*';-inkscape-font-specification:'Jost* Light';text-align:end;text-anchor:end;fill:#c83737"
       d="m 1025.3875,225.58863 0.4,10.86667 -10.2667,-3.73333 -0.9333,3 10.4667,2.93333 -6.7334,8.53333 2.5334,1.86667 6.0666,-9.06667 6.0667,9.06667 2.5333,-1.86667 -6.7333,-8.53333 10.4667,-2.93333 -0.9334,-3 -10.2666,3.73333 0.4,-10.86667 z" />
  </g>
  <g
     id="flowRoot160"
     style="font-style:normal;font-variant:normal;font-weight:200;font-stretch:normal;font-size:66.66666412px;line-height:125%;font-family:'Jost*';-inkscape-font-specification:'Jost* Ultra-Light';text-align:end;letter-spacing:0px;word-spacing:0px;text-anchor:end;fill:#000000;fill-opacity:1;stroke:none;stroke-width:1px;stroke-linecap:butt;stroke-linejoin:miter;stroke-opacity:1"
     transform="matrix(0.9375,0,0,0.9375,-242.2596,-130.42308)"
     aria-label="Jost*">
    <path
       id="path256"
       style="font-style:normal;font-variant:normal;font-weight:200;font-stretch:normal;font-size:66.66666412px;font-family:'Jost*';-inkscape-font-specification:'Jost* Ultra-Light';text-align:end;text-anchor:end;fill:#333333"
       d="m 908.6448,281.72197 -1.2,1.6 q 0.46666,0.66666 1.66666,1.46666 1.2,0.86667 2.8,1.46667 1.6,0.66667 3.4,0.66667 4.73334,0 6.73334,-2.6 2.06666,-2.6 2.06666,-8.06667 v -50.66667 h -2.13333 v 50 q 0,5.06667 -1.53333,7.13334 -1.46667,2.06666 -5.06667,2.06666 -2.13333,0 -3.86667,-0.93333 -1.8,-0.93333 -2.86666,-2.13333 z" />
    <path
       id="path258"
       style="font-style:normal;font-variant:normal;font-weight:200;font-stretch:normal;font-size:66.66666412px;font-family:'Jost*';-inkscape-font-specification:'Jost* Ultra-Light';text-align:end;text-anchor:end;fill:#333333"
       d="m 932.64375,256.92197 q 0,4.66666 2.06667,8.26666 2.06667,3.6 5.6,5.66667 3.53333,2.06667 7.93333,2.06667 4.4,0 7.93334,-2.06667 3.6,-2.06667 5.66666,-5.66667 2.06667,-3.6 2.06667,-8.26666 0,-4.66667 -2.06667,-8.26667 -2.06666,-3.6 -5.66666,-5.66667 -3.53334,-2.06666 -7.93334,-2.06666 -4.4,0 -7.93333,2.06666 -3.53333,2.06667 -5.6,5.66667 -2.06667,3.6 -2.06667,8.26667 z m 2.13334,0 q 0,-4.06667 1.8,-7.2 1.8,-3.2 4.8,-5 3.06666,-1.8 6.86666,-1.8 3.8,0 6.86667,1.8 3.13333,1.8 4.93333,5 1.8,3.13333 1.8,7.2 0,4.06666 -1.8,7.26666 -1.8,3.13334 -4.93333,4.93334 -3.06667,1.8 -6.86667,1.8 -3.8,0 -6.86666,-1.8 -3,-1.8 -4.8,-4.93334 -1.8,-3.2 -1.8,-7.26666 z" />
    <path
       id="path260"
       style="font-style:normal;font-variant:normal;font-weight:200;font-stretch:normal;font-size:66.66666412px;font-family:'Jost*';-inkscape-font-specification:'Jost* Ultra-Light';text-align:end;text-anchor:end;fill:#333333"
       d="m 970.95938,262.18863 -1.86667,0.6 q 0.46667,2.6 1.8,4.93334 1.33334,2.26666 3.53334,3.73333 2.26666,1.46667 5.6,1.46667 4.26666,0 6.93333,-2.33334 2.66667,-2.33333 2.66667,-6.4 0,-2.33333 -1.2,-3.93333 -1.2,-1.6 -3.2,-2.66667 -1.93334,-1.13333 -4.13334,-1.86666 -2.13333,-0.66667 -4,-1.46667 -1.86666,-0.86667 -3,-2.2 -1.13333,-1.4 -1.13333,-3.6 0,-2.73333 1.86667,-4.06667 1.86666,-1.4 4.8,-1.4 3.33333,0 5.13333,1.86667 1.8,1.86667 2.73333,4 l 1.8,-0.6 q -0.6,-1.73333 -1.8,-3.33333 -1.2,-1.66667 -3.13333,-2.73334 -1.93333,-1.13333 -4.73333,-1.13333 -3.6,0 -6.2,1.93333 -2.53334,1.93334 -2.53334,5.4 0,2.8 1.2,4.46667 1.2,1.66667 3.2,2.66667 2,0.93333 4.33334,1.66666 3.2,1 5.53333,2.53334 2.33333,1.53333 2.33333,4.6 0,3 -2,4.8 -2,1.8 -5.33333,1.8 -2.8,0 -4.73333,-1.26667 -1.86667,-1.26667 -2.93334,-3.26667 -1.06666,-2 -1.53333,-4.2 z" />
    <path
       id="path262"
       style="font-style:normal;font-variant:normal;font-weight:200;font-stretch:normal;font-size:66.66666412px;font-family:'Jost*';-inkscape-font-specification:'Jost* Ultra-Light';text-align:end;text-anchor:end;fill:#333333"
       d="m 999.31563,230.92197 v 10.66666 h -5 v 2 h 5 v 28.66667 h 2.06667 v -28.66667 h 5 v -2 h -5 v -10.66666 z" />
    <path
       id="path264"
       style="font-style:normal;font-variant:normal;font-weight:200;font-stretch:normal;font-size:66.66666412px;font-family:'Jost*';-inkscape-font-specification:'Jost* Ultra-Light';text-align:end;text-anchor:end;fill:#c83737"
       d="m 1025.9875,225.58863 0.2667,11.13334 -10.5334,-3.73334 -0.5333,1.93334 10.6,3.06666 -6.7333,8.8 1.6,1.2 6.2666,-9.06666 6.2667,9.06666 1.6,-1.2 -6.7333,-8.8 10.6,-3.06666 -0.5334,-1.93334 -10.5333,3.73334 0.2667,-11.13334 z" />
  </g>
  <g
     id="flowRoot172"
     style="font-style:normal;font-variant:normal;font-weight:100;font-stretch:normal;font-size:66.66666412px;line-height:125%;font-family:'Jost*';-inkscape-font-specification:'Jost* Thin';text-align:end;letter-spacing:0px;word-spacing:0px;text-anchor:end;fill:#000000;fill-opacity:1;stroke:none;stroke-width:1px;stroke-linecap:butt;stroke-linejoin:miter;stroke-opacity:1"
     transform="matrix(0.9375,0,0,0.9375,-242.2596,-196.57212)"
     aria-label="Jost*">
    <path
       id="path267"
       style="font-style:normal;font-variant:normal;font-weight:100;font-stretch:normal;font-size:66.66666412px;font-family:'Jost*';-inkscape-font-specification:'Jost* Thin';text-align:end;text-anchor:end;fill:#333333"
       d="m 909.0073,282.78863 -0.46667,0.46667 q 0.53333,0.66667 1.73333,1.53333 1.13334,0.86667 2.8,1.46667 1.6,0.66667 3.33334,0.66667 4.66666,0 6.4,-2.6 1.8,-2.6 1.8,-8.06667 v -50.66667 h -0.73334 v 50 q 0,5.8 -1.53333,8.2 -1.53333,2.4 -6,2.4 -2.33333,0 -4.2,-1.13333 -1.93333,-1.06667 -3.13333,-2.26667 z" />
    <path
       id="path269"
       style="font-style:normal;font-variant:normal;font-weight:100;font-stretch:normal;font-size:66.66666412px;font-family:'Jost*';-inkscape-font-specification:'Jost* Thin';text-align:end;text-anchor:end;fill:#333333"
       d="m 934.29167,256.92197 q 0,-4.46667 1.93333,-7.93334 2,-3.46666 5.4,-5.4 3.4,-2 7.53334,-2 4.13333,0 7.53333,2 3.4,1.93334 5.33333,5.4 2,3.46667 2,7.93334 0,4.46666 -2,7.93333 -1.93333,3.46667 -5.33333,5.46667 -3.4,1.93333 -7.53333,1.93333 -4.13334,0 -7.53334,-1.93333 -3.4,-2 -5.4,-5.46667 -1.93333,-3.46667 -1.93333,-7.93333 z m -0.66667,0 q 0,4.66666 2,8.26666 2.06667,3.6 5.6,5.66667 3.53334,2.06667 7.93334,2.06667 4.4,0 7.93333,-2.06667 3.53333,-2.06667 5.53333,-5.66667 2.06667,-3.6 2.06667,-8.26666 0,-4.66667 -2.06667,-8.26667 -2,-3.6 -5.53333,-5.66667 -3.53333,-2.06666 -7.93333,-2.06666 -4.4,0 -7.93334,2.06666 -3.53333,2.06667 -5.6,5.66667 -2,3.6 -2,8.26667 z" />
    <path
       id="path271"
       style="font-style:normal;font-variant:normal;font-weight:100;font-stretch:normal;font-size:66.66666412px;font-family:'Jost*';-inkscape-font-specification:'Jost* Thin';text-align:end;text-anchor:end;fill:#333333"
       d="m 971.06771,262.4553 -0.66667,0.2 q 0.46667,2.53333 1.6,4.86667 1.13334,2.33333 3.26667,3.86666 2.2,1.53334 5.66667,1.53334 3.93333,0 6.4,-2.26667 2.53333,-2.26667 2.53333,-6.2 0,-2.4 -1.26667,-4 -1.2,-1.6 -3.2,-2.53333 -1.93333,-1 -4.13333,-1.66667 -2.33333,-0.66667 -4.26667,-1.46667 -1.86666,-0.8 -3,-2.26666 -1.13333,-1.46667 -1.13333,-4.2 0,-3.26667 2.33333,-4.93334 2.4,-1.66666 5.66667,-1.66666 3.6,0 5.46667,1.93333 1.93333,1.86667 2.8,4.26667 l 0.66666,-0.2 q -0.86666,-2.53334 -2.93333,-4.6 -2,-2.06667 -6,-2.06667 -3.6,0 -6.13333,1.86667 -2.53334,1.86666 -2.53334,5.4 0,2.86666 1.13334,4.46666 1.2,1.6 3.13333,2.46667 1.93333,0.86667 4.4,1.6 2.26667,0.66667 4.13333,1.6 1.93334,0.93333 3.06667,2.4 1.13333,1.4 1.13333,3.6 0,3.6 -2.33333,5.73333 -2.33333,2.06667 -5.93333,2.06667 -3.2,0 -5.26667,-1.46667 -2,-1.46666 -3.06667,-3.73333 -1.06666,-2.26667 -1.53333,-4.6 z" />
    <path
       id="path273"
       style="font-style:normal;font-variant:normal;font-weight:100;font-stretch:normal;font-size:66.66666412px;font-family:'Jost*';-inkscape-font-specification:'Jost* Thin';text-align:end;text-anchor:end;fill:#333333"
       d="m 1000.5573,230.92197 v 10.66666 h -5.00001 v 0.66667 h 5.00001 v 30 h 0.6667 v -30 h 5 v -0.66667 h -5 v -10.66666 z" />
    <path
       id="path275"
       style="font-style:normal;font-variant:normal;font-weight:100;font-stretch:normal;font-size:66.66666412px;font-family:'Jost*';-inkscape-font-specification:'Jost* Thin';text-align:end;text-anchor:end;fill:#c83737"
       d="m 1026.5208,225.58863 0.2,11.33334 -10.8,-3.66667 -0.2,0.8 10.8667,3.33333 -6.8667,9.06667 0.6667,0.46667 6.5333,-9.26667 6.5334,9.26667 0.6666,-0.46667 -6.8666,-9.06667 10.8666,-3.33333 -0.2,-0.8 -10.8,3.66667 0.2,-11.33334 z" />
  </g>
  <g
     id="flowRoot184"
     style="font-style:normal;font-variant:normal;font-weight:500;font-stretch:normal;font-size:66.66666412px;line-height:125%;font-family:'Jost*';-inkscape-font-specification:'Jost* Medium';text-align:end;letter-spacing:0px;word-spacing:0px;text-anchor:end;fill:#000000;fill-opacity:1;stroke:none;stroke-width:1px;stroke-linecap:butt;stroke-linejoin:miter;stroke-opacity:1"
     transform="matrix(0.9375,0,0,0.9375,-242.2596,66.103842)"
     aria-label="Jost*">
    <path
       id="path278"
       style="font-style:normal;font-variant:normal;font-weight:500;font-stretch:normal;font-size:66.66666412px;font-family:'Jost*';-inkscape-font-specification:'Jost* Medium';text-align:end;text-anchor:end;fill:#333333"
       d="m 900.50417,277.4553 -4.2,6.46667 q 1.26667,1.13333 3.93334,2.33333 2.66666,1.2 5.8,1.2 3.53333,0 6.33333,-1.2 2.8,-1.13333 4.4,-3.66667 1.6,-2.46666 1.6,-6.46666 v -50.53334 h -8.06667 v 48.4 q 0,3.2 -1.46666,4.46667 -1.46667,1.26667 -3,1.26667 -3.6,0 -5.33334,-2.26667 z" />
    <path
       id="path280"
       style="font-style:normal;font-variant:normal;font-weight:500;font-stretch:normal;font-size:66.66666412px;font-family:'Jost*';-inkscape-font-specification:'Jost* Medium';text-align:end;text-anchor:end;fill:#333333"
       d="m 925.73021,256.92197 q 0,4.73333 2.13334,8.33333 2.2,3.6 5.93333,5.66667 3.8,2 8.46667,2 4.66666,0 8.4,-2 3.8,-2.06667 5.93333,-5.66667 2.2,-3.6 2.2,-8.33333 0,-4.73334 -2.2,-8.33334 -2.13333,-3.6 -5.93333,-5.6 -3.73334,-2.06666 -8.4,-2.06666 -4.66667,0 -8.46667,2.06666 -3.73333,2 -5.93333,5.6 -2.13334,3.6 -2.13334,8.33334 z m 7.4,0 q 0,-4.26667 2.6,-6.93334 2.66667,-2.73333 6.53334,-2.73333 3.86666,0 6.46666,2.73333 2.66667,2.66667 2.66667,6.93334 0,4.26666 -2.66667,7 -2.6,2.66666 -6.46666,2.66666 -3.86667,0 -6.53334,-2.66666 -2.6,-2.73334 -2.6,-7 z" />
    <path
       id="path282"
       style="font-style:normal;font-variant:normal;font-weight:500;font-stretch:normal;font-size:66.66666412px;font-family:'Jost*';-inkscape-font-specification:'Jost* Medium';text-align:end;text-anchor:end;fill:#333333"
       d="m 966.69688,261.18863 -4.2,4.06667 q 2.06667,3.4 5.66667,5.66667 3.6,2.26666 8.06666,2.26666 4.86667,0 7.93334,-2.33333 3.13333,-2.4 3.13333,-7.26667 0,-2.66666 -1.2,-4.4 -1.2,-1.8 -3.2,-2.93333 -1.93333,-1.2 -4.06667,-2.06667 -1.73333,-0.73333 -3.53333,-1.33333 -1.73333,-0.6 -2.86667,-1.4 -1.13333,-0.8 -1.13333,-2.06667 0,-1.4 1.06667,-2 1.13333,-0.66666 3,-0.66666 1.86666,0 3.86666,1.06666 2.06667,1.06667 3.6,2.73334 l 4,-4.13334 q -1.73333,-2.33333 -4.93333,-3.86666 -3.13333,-1.6 -6.86667,-1.6 -2.73333,0 -5.13333,1 -2.4,1 -3.86667,2.86666 -1.46666,1.86667 -1.46666,4.53334 0,2.93333 1.26666,4.66666 1.33334,1.73334 3.33334,2.8 2,1.06667 4.13333,1.93334 2.66667,1 4.66667,2.13333 2.06666,1.13333 2.06666,3.13333 0,1.53334 -1.13333,2.33334 -1.13333,0.73333 -3,0.73333 -2,0 -4.53333,-1.6 -2.46667,-1.66667 -4.66667,-4.26667 z" />
    <path
       id="path284"
       style="font-style:normal;font-variant:normal;font-weight:500;font-stretch:normal;font-size:66.66666412px;font-family:'Jost*';-inkscape-font-specification:'Jost* Medium';text-align:end;text-anchor:end;fill:#333333"
       d="m 994.55521,230.92197 v 10.66666 h -5.13333 v 6.33334 h 5.13333 v 24.33333 h 7.13329 v -24.33333 h 5.1334 v -6.33334 h -5.1334 v -10.66666 z" />
    <path
       id="path286"
       style="font-style:normal;font-variant:normal;font-weight:500;font-stretch:normal;font-size:66.66666412px;font-family:'Jost*';-inkscape-font-specification:'Jost* Medium';text-align:end;text-anchor:end;fill:#c83737"
       d="m 1023.6542,225.58863 1,10.86667 -10.1334,-4.26667 -2,6.2 10.7334,2.46667 -7.2667,8.26667 5.3333,3.8 5.6,-9.4 5.6,9.4 5.3334,-3.8 -7.2667,-8.26667 10.7333,-2.46667 -2,-6.2 -10.1333,4.26667 1,-10.86667 z" />
  </g>
  <g
     id="flowRoot196"
     style="font-style:normal;font-variant:normal;font-weight:600;font-stretch:normal;font-size:66.66666412px;line-height:125%;font-family:'Jost*';-inkscape-font-specification:'Jost* Semi-Bold';text-align:end;letter-spacing:0px;word-spacing:0px;text-anchor:end;fill:#000000;fill-opacity:1;stroke:none;stroke-width:1px;stroke-linecap:butt;stroke-linejoin:miter;stroke-opacity:1"
     transform="matrix(0.9375,0,0,0.9375,-242.2596,132.20816)"
     aria-label="Jost*">
    <path
       id="path289"
       style="font-style:normal;font-variant:normal;font-weight:600;font-stretch:normal;font-size:66.66666412px;font-family:'Jost*';-inkscape-font-specification:'Jost* Semi-Bold';text-align:end;text-anchor:end;fill:#333333"
       d="m 895.22917,276.78863 -5.2,7.33334 q 1.6,1.2 4.66667,2.46666 3.06667,1.26667 6.53333,1.26667 3.86667,0 7,-1.2 3.13334,-1.2 5,-3.86667 1.86667,-2.6 1.86667,-6.8 v -50.4 h -10.13333 v 47.86667 q 0,3.06667 -1.46667,4.33333 -1.46667,1.26667 -2.93333,1.26667 -1.6,0 -3,-0.66667 -1.4,-0.6 -2.33334,-1.6 z" />
    <path
       id="path291"
       style="font-style:normal;font-variant:normal;font-weight:600;font-stretch:normal;font-size:66.66666412px;font-family:'Jost*';-inkscape-font-specification:'Jost* Semi-Bold';text-align:end;text-anchor:end;fill:#333333"
       d="m 922.27813,256.92197 q 0,4.8 2.2,8.4 2.26667,3.6 6.06667,5.6 3.86666,2 8.73333,2 4.86667,0 8.73333,-2 3.86667,-2 6.06667,-5.6 2.26667,-3.6 2.26667,-8.4 0,-4.8 -2.26667,-8.4 -2.2,-3.6 -6.06667,-5.6 -3.86666,-2 -8.73333,-2 -4.86667,0 -8.73333,2 -3.8,2 -6.06667,5.6 -2.2,3.6 -2.2,8.4 z m 8.86667,0 q 0,-3.86667 2.33333,-6.26667 2.4,-2.4 5.8,-2.4 3.4,0 5.73333,2.4 2.4,2.4 2.4,6.26667 0,3.86666 -2.4,6.26666 -2.33333,2.4 -5.73333,2.4 -3.4,0 -5.8,-2.4 -2.33333,-2.4 -2.33333,-6.26666 z" />
    <path
       id="path293"
       style="font-style:normal;font-variant:normal;font-weight:600;font-stretch:normal;font-size:66.66666412px;font-family:'Jost*';-inkscape-font-specification:'Jost* Semi-Bold';text-align:end;text-anchor:end;fill:#333333"
       d="m 964.15626,260.92197 -4.26667,5.2 q 2.4,3.13333 6.2,5.2 3.8,2 8.4,2 5.2,0 8.26666,-2.46667 3.13334,-2.46667 3.13334,-7.26667 0,-2.8 -1.2,-4.53333 -1.2,-1.8 -3.2,-2.93333 -1.93334,-1.13334 -4.06667,-2 -1.86667,-0.73334 -3.6,-1.26667 -1.66666,-0.6 -2.8,-1.33333 -1.06666,-0.73334 -1.06666,-1.8 0,-2.26667 3.6,-2.26667 1.86666,0 3.93333,1 2.06666,1 4,2.73333 l 3.8,-5.2 q -2,-2.2 -5.26667,-3.6 -3.2,-1.46666 -7.06666,-1.46666 -3,0 -5.46667,1.06666 -2.46667,1.06667 -3.93333,3 -1.46667,1.93334 -1.46667,4.46667 0,2.86667 1.26667,4.73333 1.26666,1.8 3.26666,2.93334 2,1.13333 4.13334,1.93333 2.6,1 4.59999,2.06667 2.06667,1 2.06667,2.73333 0,2.53333 -3.6,2.53333 -1.86666,0 -4.4,-1.53333 -2.53333,-1.53333 -5.26666,-3.93333 z" />
    <path
       id="path295"
       style="font-style:normal;font-variant:normal;font-weight:600;font-stretch:normal;font-size:66.66666412px;font-family:'Jost*';-inkscape-font-specification:'Jost* Semi-Bold';text-align:end;text-anchor:end;fill:#333333"
       d="m 993.12604,230.92197 v 10.66666 h -5.26666 v 7.33334 h 5.26666 v 23.33333 h 8.39996 v -23.33333 h 5.3334 v -7.33334 h -5.3334 v -10.66666 z" />
    <path
       id="path297"
       style="font-style:normal;font-variant:normal;font-weight:600;font-stretch:normal;font-size:66.66666412px;font-family:'Jost*';-inkscape-font-specification:'Jost* Semi-Bold';text-align:end;text-anchor:end;fill:#c83737"
       d="m 1022.9208,225.58863 1.2667,11.2 -10.2,-4.66666 -2.4667,7.46666 11.0667,2.33334 -7.6667,8.26666 6.4667,4.6 5.5333,-9.73333 5.5334,9.73333 6.4666,-4.6 -7.6666,-8.26666 11.0666,-2.33334 -2.4666,-7.46666 -10.2,4.66666 1.2666,-11.2 z" />
  </g>
  <g
     id="flowRoot208"
     style="font-style:normal;font-variant:normal;font-weight:bold;font-stretch:normal;font-size:66.66666412px;line-height:125%;font-family:'Jost*';-inkscape-font-specification:'Jost* Bold';text-align:end;letter-spacing:0px;word-spacing:0px;text-anchor:end;fill:#000000;fill-opacity:1;stroke:none;stroke-width:1px;stroke-linecap:butt;stroke-linejoin:miter;stroke-opacity:1"
     transform="matrix(0.9375,0,0,0.9375,-242.2596,197.83316)"
     aria-label="Jost*">
    <path
       id="path300"
       style="font-style:normal;font-variant:normal;font-weight:bold;font-stretch:normal;font-size:66.66666412px;font-family:'Jost*';-inkscape-font-specification:'Jost* Bold';text-align:end;text-anchor:end;fill:#333333"
       d="m 889.7573,276.12197 -6.13334,8.26666 q 2,1.33334 5.4,2.53334 3.4,1.26666 7.26667,1.26666 4.13333,0 7.66667,-1.26666 3.53333,-1.2 5.6,-3.93334 2.13333,-2.66666 2.13333,-7.13333 v -50.26667 h -12.2 v 47.33334 q 0,3 -1.4,4.2 -1.4,1.2 -2.93333,1.2 -1.53334,0 -2.93334,-0.66667 -1.46666,-0.6 -2.46666,-1.53333 z" />
    <path
       id="path302"
       style="font-style:normal;font-variant:normal;font-weight:bold;font-stretch:normal;font-size:66.66666412px;font-family:'Jost*';-inkscape-font-specification:'Jost* Bold';text-align:end;text-anchor:end;fill:#333333"
       d="m 918.69584,256.92197 q 0,4.86666 2.26666,8.46666 2.33334,3.6 6.26667,5.6 4,1.93334 9,1.93334 5,0 8.93333,-1.93334 4,-2 6.26667,-5.6 2.33333,-3.6 2.33333,-8.46666 0,-4.86667 -2.33333,-8.46667 -2.26667,-3.6 -6.26667,-5.53333 -3.93333,-2 -8.93333,-2 -5,0 -9,2 -3.93333,1.93333 -6.26667,5.53333 -2.26666,3.6 -2.26666,8.46667 z m 10.4,0 q 0,-3.53334 2.06666,-5.6 2.13334,-2.13334 5.06667,-2.13334 2.93333,0 5,2.13334 2.13333,2.06666 2.13333,5.6 0,3.53333 -2.13333,5.6 -2.06667,2.06666 -5,2.06666 -2.93333,0 -5.06667,-2.06666 -2.06666,-2.06667 -2.06666,-5.6 z" />
    <path
       id="path304"
       style="font-style:normal;font-variant:normal;font-weight:bold;font-stretch:normal;font-size:66.66666412px;font-family:'Jost*';-inkscape-font-specification:'Jost* Bold';text-align:end;text-anchor:end;fill:#333333"
       d="m 961.48542,260.72197 -4.33333,6.26666 q 2.73333,2.86667 6.66666,4.73334 3.93333,1.8 8.73333,1.8 5.46667,0 8.6,-2.6 3.2,-2.6 3.2,-7.33334 0,-2.93333 -1.2,-4.73333 -1.2,-1.8 -3.2,-2.86667 -1.93333,-1.06666 -4.06666,-1.93333 -1.86667,-0.73333 -3.6,-1.26667 -1.66667,-0.6 -2.73334,-1.2 -1,-0.66666 -1,-1.6 0,-0.8 0.66667,-1.33333 0.66667,-0.53333 2.33333,-0.53333 1.86667,0 4,1 2.2,0.93333 4.46667,2.66666 l 3.66667,-6.2 q -2.33334,-2 -5.66667,-3.33333 -3.33333,-1.33333 -7.26667,-1.33333 -3.26666,0 -5.8,1.2 -2.53333,1.13333 -4.06666,3.13333 -1.46667,1.93333 -1.46667,4.33333 0,2.86667 1.26667,4.8 1.26667,1.86667 3.2,3.06667 2,1.2 4.2,2 2.6,0.93333 4.53333,1.86667 2,0.93333 2,2.33333 0,2.06667 -2.93333,2.06667 -1.66667,0 -4.4,-1.33334 -2.66667,-1.4 -5.8,-3.66666 z" />
    <path
       id="path306"
       style="font-style:normal;font-variant:normal;font-weight:bold;font-stretch:normal;font-size:66.66666412px;font-family:'Jost*';-inkscape-font-specification:'Jost* Bold';text-align:end;text-anchor:end;fill:#333333"
       d="m 991.69687,230.92197 v 10.66666 h -5.4 v 8.33334 h 5.4 v 22.33333 h 9.73333 v -22.33333 h 5.4 v -8.33334 h -5.4 v -10.66666 z" />
    <path
       id="path308"
       style="font-style:normal;font-variant:normal;font-weight:bold;font-stretch:normal;font-size:66.66666412px;font-family:'Jost*';-inkscape-font-specification:'Jost* Bold';text-align:end;text-anchor:end;fill:#c83737"
       d="m 1022.2542,225.58863 1.5333,11.4 -10.3333,-5 -2.9334,8.8 11.4,2.13334 -8,8.33333 7.5334,5.4 5.4666,-10.13333 5.4667,10.13333 7.5333,-5.4 -8,-8.33333 11.4,-2.13334 -2.9333,-8.8 -10.3333,5 1.5333,-11.4 z" />
  </g>
  <g
     id="flowRoot220"
     style="font-style:normal;font-variant:normal;font-weight:800;font-stretch:normal;font-size:66.66666412px;line-height:125%;font-family:'Jost*';-inkscape-font-specification:'Jost* Ultra-Bold';text-align:end;letter-spacing:0px;word-spacing:0px;text-anchor:end;fill:#000000;fill-opacity:1;stroke:none;stroke-width:1px;stroke-linecap:butt;stroke-linejoin:miter;stroke-opacity:1"
     transform="matrix(0.9375,0,0,0.9375,-242.2596,263.82871)"
     aria-label="Jost*">
    <path
       id="path311"
       style="font-style:normal;font-variant:normal;font-weight:800;font-stretch:normal;font-size:66.66666412px;font-family:'Jost*';-inkscape-font-specification:'Jost* Ultra-Bold';text-align:end;text-anchor:end;fill:#333333"
       d="m 884.28542,275.4553 -7.06666,9.2 q 2.4,1.4 6.13333,2.6 3.73333,1.26667 8,1.26667 4.46667,0 8.33333,-1.26667 3.86667,-1.2 6.2,-4 2.4,-2.8 2.4,-7.53333 v -50.13334 h -14.26666 v 46.8 q 0,2.93334 -1.4,4.06667 -1.4,1.13333 -2.86667,1.13333 -1.4,0 -2.86667,-0.66666 -1.53333,-0.66667 -2.6,-1.46667 z" />
    <path
       id="path313"
       style="font-style:normal;font-variant:normal;font-weight:800;font-stretch:normal;font-size:66.66666412px;font-family:'Jost*';-inkscape-font-specification:'Jost* Ultra-Bold';text-align:end;text-anchor:end;fill:#333333"
       d="m 915.11355,256.92197 q 0,4.93333 2.33333,8.53333 2.4,3.6 6.46667,5.53333 4.06666,1.93334 9.26666,1.93334 5.2,0 9.26667,-1.93334 4.06667,-1.93333 6.4,-5.53333 2.33333,-3.6 2.33333,-8.53333 0,-4.93334 -2.33333,-8.53334 -2.33333,-3.6 -6.4,-5.53333 -4.06667,-1.93333 -9.26667,-1.93333 -5.2,0 -9.26666,1.93333 -4.06667,1.93333 -6.46667,5.53333 -2.33333,3.6 -2.33333,8.53334 z m 11.93333,0 q 0,-3.2 1.8,-4.93334 1.8,-1.8 4.33333,-1.8 2.53334,0 4.33334,1.8 1.8,1.73334 1.8,4.93334 0,3.2 -1.8,4.93333 -1.8,1.73333 -4.33334,1.73333 -2.53333,0 -4.33333,-1.73333 -1.8,-1.73333 -1.8,-4.93333 z" />
    <path
       id="path315"
       style="font-style:normal;font-variant:normal;font-weight:800;font-stretch:normal;font-size:66.66666412px;font-family:'Jost*';-inkscape-font-specification:'Jost* Ultra-Bold';text-align:end;text-anchor:end;fill:#333333"
       d="m 958.55104,260.38863 -4.26666,7.73334 q 3.46666,2.6 7.6,4.13333 4.13333,1.46667 9.13333,1.46667 5.73333,0 8.86667,-2.53334 3.13333,-2.53333 3.13333,-7.6 0,-2.93333 -1.26667,-4.73333 -1.2,-1.8 -3.2,-2.86667 -1.93333,-1.06666 -4.06666,-1.86666 -2,-0.73334 -3.66667,-1.2 -1.66667,-0.53334 -2.66667,-1.13334 -1,-0.6 -1,-1.53333 0,-0.6 0.6,-1.06667 0.6,-0.53333 2.06667,-0.53333 1.86667,0 4.26667,1.13333 2.4,1.06667 4.66666,2.86667 l 3.46667,-7.6 q -2.86667,-1.8 -6.26667,-2.93333 -3.4,-1.2 -7.46666,-1.2 -5.33334,0 -8.6,2.46666 -3.26667,2.46667 -3.26667,6.4 0,3 1.26667,4.86667 1.26666,1.86667 3.2,3.06667 2,1.13333 4.2,1.93333 2.6,0.86667 4.46666,1.66667 1.93334,0.8 1.93334,2.2 0,1.8 -2.26667,1.8 -1.33333,0 -4.06667,-1 -2.73333,-1 -6.8,-3.93334 z" />
    <path
       id="path317"
       style="font-style:normal;font-variant:normal;font-weight:800;font-stretch:normal;font-size:66.66666412px;font-family:'Jost*';-inkscape-font-specification:'Jost* Ultra-Bold';text-align:end;text-anchor:end;fill:#333333"
       d="m 990.26771,230.92197 v 10.66666 h -5.53333 v 9.33334 h 5.53333 v 21.33333 h 11.06669 v -21.33333 h 5.4666 v -9.33334 h -5.4666 v -10.66666 z" />
    <path
       id="path319"
       style="font-style:normal;font-variant:normal;font-weight:800;font-stretch:normal;font-size:66.66666412px;font-family:'Jost*';-inkscape-font-specification:'Jost* Ultra-Bold';text-align:end;text-anchor:end;fill:#c83737"
       d="m 1021.5875,225.58863 1.8,11.6 -10.4667,-5.26666 -3.3333,10.06666 11.6667,2 -8.3334,8.33334 8.6,6.2 5.4,-10.53334 5.4,10.53334 8.6,-6.2 -8.3333,-8.33334 11.6667,-2 -3.3334,-10.06666 -10.4666,5.26666 1.8,-11.6 z" />
  </g>
  <g
     id="flowRoot232"
     style="font-style:normal;font-variant:normal;font-weight:900;font-stretch:normal;font-size:66.66666412px;line-height:125%;font-family:'Jost*';-inkscape-font-specification:'Jost* Heavy';text-align:end;letter-spacing:0px;word-spacing:0px;text-anchor:end;fill:#000000;fill-opacity:1;stroke:none;stroke-width:1px;stroke-linecap:butt;stroke-linejoin:miter;stroke-opacity:1"
     transform="matrix(0.9375,0,0,0.9375,-242.2596,328.71261)"
     aria-label="Jost*">
    <path
       id="path322"
       style="font-style:normal;font-variant:normal;font-weight:900;font-stretch:normal;font-size:66.66666412px;font-family:'Jost*';-inkscape-font-specification:'Jost* Heavy';text-align:end;text-anchor:end;fill:#333333"
       d="m 878.6198,274.8553 -8.06667,10.06667 q 2.73333,1.46666 6.8,2.73333 4.06667,1.26667 8.73333,1.26667 3.6,0 6.93334,-0.73334 3.33333,-0.66666 5.93333,-2.2 2.6,-1.53333 4.13333,-4.13333 1.53334,-2.53333 1.53334,-6.26667 v -50 h -16.33334 v 46.33334 q 0,2.8 -1.33333,3.86666 -1.33333,1.13334 -2.86667,1.13334 -1.26666,0 -2.73333,-0.66667 -1.53333,-0.66667 -2.73333,-1.4 z" />
    <path
       id="path324"
       style="font-style:normal;font-variant:normal;font-weight:900;font-stretch:normal;font-size:66.66666412px;font-family:'Jost*';-inkscape-font-specification:'Jost* Heavy';text-align:end;text-anchor:end;fill:#333333"
       d="m 911.27084,256.92197 q 0,4.93333 2.4,8.53333 2.4,3.6 6.6,5.53333 4.2,1.93334 9.53333,1.93334 5.33333,0 9.53333,-1.93334 4.2,-1.93333 6.6,-5.53333 2.4,-3.6 2.4,-8.53333 0,-4.93334 -2.4,-8.53334 -2.4,-3.66666 -6.6,-5.6 -4.2,-1.93333 -9.53333,-1.93333 -5.33333,0 -9.53333,1.93333 -4.2,1.93334 -6.6,5.6 -2.4,3.6 -2.4,8.53334 z m 13.4,0 q 0,-2.8 1.53333,-4.26667 1.6,-1.46667 3.6,-1.46667 2,0 3.53333,1.46667 1.6,1.46667 1.6,4.26667 0,2.8 -1.6,4.26666 -1.53333,1.4 -3.53333,1.4 -2,0 -3.6,-1.4 -1.53333,-1.46666 -1.53333,-4.26666 z" />
    <path
       id="path326"
       style="font-style:normal;font-variant:normal;font-weight:900;font-stretch:normal;font-size:66.66666412px;font-family:'Jost*';-inkscape-font-specification:'Jost* Heavy';text-align:end;text-anchor:end;fill:#333333"
       d="m 955.48646,260.0553 -4.2,9.13333 q 4.2,2.26667 8.46667,3.46667 4.26666,1.26667 9.53333,1.26667 5.93333,0 9.06667,-2.4 3.13333,-2.46667 3.13333,-7.93334 0,-2.93333 -1.2,-4.66666 -1.2,-1.73334 -3.13333,-2.8 -1.93334,-1.06667 -4.13334,-1.86667 -2.06666,-0.8 -3.8,-1.26667 -1.66666,-0.46666 -2.66666,-1 -1,-0.53333 -1,-1.53333 0,-0.46667 0.46666,-0.86667 0.53334,-0.4 1.86667,-0.4 1.86667,0 4.53333,1.2 2.66667,1.2 4.93334,3.06667 l 3.2,-8.86667 q -3.4,-1.53333 -6.86667,-2.6 -3.4,-1.06666 -7.53333,-1.06666 -5.73334,0 -9.06667,2.4 -3.33333,2.4 -3.33333,6.66666 0,3.06667 1.2,5 1.26667,1.86667 3.2,3 2,1.06667 4.2,1.86667 2.53333,0.86667 4.4,1.53333 1.86666,0.6 1.86666,2 0,0.66667 -0.46666,1.13334 -0.4,0.4 -1.2,0.4 -0.53334,0 -2,-0.2 -1.4,-0.2 -3.73334,-1.2 -2.33333,-1.06667 -5.73333,-3.46667 z" />
    <path
       id="path328"
       style="font-style:normal;font-variant:normal;font-weight:900;font-stretch:normal;font-size:66.66666412px;font-family:'Jost*';-inkscape-font-specification:'Jost* Heavy';text-align:end;text-anchor:end;fill:#333333"
       d="m 988.83855,230.92197 v 10.66666 h -5.66667 v 10.33334 h 5.66667 v 20.33333 h 12.33335 v -20.33333 h 5.6666 v -10.33334 h -5.6666 v -10.66666 z" />
    <path
       id="path330"
       style="font-style:normal;font-variant:normal;font-weight:900;font-stretch:normal;font-size:66.66666412px;font-family:'Jost*';-inkscape-font-specification:'Jost* Heavy';text-align:end;text-anchor:end;fill:#c83737"
       d="m 1020.9208,225.58863 2.0667,11.86667 -10.6667,-5.6 -3.7333,11.4 12,1.73333 -8.7333,8.4 9.7333,7.06667 5.3333,-10.86667 5.3334,10.86667 9.7333,-7.06667 -8.7333,-8.4 12,-1.73333 -3.7334,-11.4 -10.6666,5.6 2.0666,-11.86667 z" />
  </g>
</svg>
