<?xml version="1.0" encoding="UTF-8" standalone="no"?>
<!-- Created with Inkscape (http://www.inkscape.org/) -->

<svg
   xmlns:dc="http://purl.org/dc/elements/1.1/"
   xmlns:cc="http://creativecommons.org/ns#"
   xmlns:rdf="http://www.w3.org/1999/02/22-rdf-syntax-ns#"
   xmlns:svg="http://www.w3.org/2000/svg"
   xmlns="http://www.w3.org/2000/svg"
   xmlns:sodipodi="http://sodipodi.sourceforge.net/DTD/sodipodi-0.dtd"
   xmlns:inkscape="http://www.inkscape.org/namespaces/inkscape"
   id="svg2"
   version="1.1"
   inkscape:version="0.92.3 (unknown)"
   width="1600"
   height="640"
   viewBox="0 0 1500 600"
   sodipodi:docname="1.svg">
  <metadata
     id="metadata8">
    <rdf:RDF>
      <cc:Work
         rdf:about="">
        <dc:format>image/svg+xml</dc:format>
        <dc:type
           rdf:resource="http://purl.org/dc/dcmitype/StillImage" />
        <dc:title></dc:title>
      </cc:Work>
    </rdf:RDF>
  </metadata>
  <defs
     id="defs6" />
  <sodipodi:namedview
     pagecolor="#ffffff"
     bordercolor="#666666"
     borderopacity="1"
     objecttolerance="10"
     gridtolerance="10"
     guidetolerance="10"
     inkscape:pageopacity="0"
     inkscape:pageshadow="2"
     inkscape:window-width="1366"
     inkscape:window-height="716"
     id="namedview4"
     showgrid="false"
     inkscape:zoom="0.35355339"
     inkscape:cx="719.61604"
     inkscape:cy="283.99724"
     inkscape:window-x="0"
     inkscape:window-y="24"
     inkscape:window-maximized="1"
     inkscape:current-layer="flowRoot876" />
  <rect
     style="fill:#f2f2f2"
     id="rect3354"
     width="1500"
     height="600"
     x="0"
     y="3.5527137e-15" />
  <g
     aria-label="Jost*
Jost*
Jost*
Jost*
Jost*
Jost*
Jost*
Jost*
Jost*"
     transform="matrix(5.0630513,0,0,5.0630513,88.760794,-321.07399)"
     style="font-style:normal;font-weight:normal;font-size:12.52019596px;line-height:1;font-family:sans-serif;text-align:end;letter-spacing:0px;word-spacing:0px;text-anchor:end;fill:#333333;fill-opacity:1;stroke:none;stroke-width:1px;stroke-linecap:butt;stroke-linejoin:miter;stroke-opacity:1"
     id="flowRoot3338">
    <path
       d="m 102.57979,76.940488 -0.0876,0.08764 q 0.10016,0.125202 0.32552,0.287965 0.21285,0.162762 0.52585,0.275444 0.30049,0.125202 0.62601,0.125202 0.88894,0 1.21446,-0.488288 0.32553,-0.488287 0.32553,-1.514943 V 66.19816 h -0.13773 v 9.390147 q 0,1.089257 -0.28796,1.539984 -0.28797,0.450727 -1.12682,0.450727 -0.42569,0 -0.78877,-0.212844 -0.36309,-0.200323 -0.58845,-0.425686 z"
       style="font-style:normal;font-variant:normal;font-weight:100;font-stretch:normal;font-size:12.52019596px;line-height:1;font-family:'Jost*';-inkscape-font-specification:'Jost* Thin';text-align:end;text-anchor:end;fill:#333333"
       id="path213" />
    <path
       d="m 107.20307,72.082652 q 0,0.863893 0.38812,1.552504 0.38813,0.676091 1.03918,1.064217 0.66357,0.388126 1.4899,0.388126 0.82634,0 1.48991,-0.388126 0.66357,-0.388126 1.03917,-1.064217 0.38813,-0.688611 0.38813,-1.552504 0,-0.876414 -0.38813,-1.552505 -0.3756,-0.67609 -1.03917,-1.064216 -0.66357,-0.388126 -1.48991,-0.388126 -0.82633,0 -1.4899,0.388126 -0.65105,0.388126 -1.03918,1.064216 -0.38812,0.676091 -0.38812,1.552505 z m 0.1252,0 q 0,-0.838853 0.36309,-1.489904 0.3756,-0.65105 1.01413,-1.014135 0.63853,-0.375606 1.41478,-0.375606 0.78878,0 1.41479,0.375606 0.63853,0.363085 1.00161,1.014135 0.37561,0.651051 0.37561,1.489904 0,0.838853 -0.37561,1.489903 -0.36308,0.65105 -1.00161,1.026656 -0.62601,0.363086 -1.41479,0.363086 -0.77625,0 -1.41478,-0.363086 -0.63853,-0.375606 -1.01413,-1.026656 -0.36309,-0.65105 -0.36309,-1.489903 z"
       style="font-style:normal;font-variant:normal;font-weight:100;font-stretch:normal;font-size:12.52019596px;line-height:1;font-family:'Jost*';-inkscape-font-specification:'Jost* Thin';text-align:end;text-anchor:end;fill:#333333"
       id="path215" />
    <path
       d="m 114.23492,73.121828 -0.1252,0.03756 q 0.0876,0.463247 0.30048,0.913974 0.21285,0.438207 0.61349,0.726171 0.41317,0.287965 1.06422,0.287965 0.73869,0 1.20194,-0.425687 0.47576,-0.425687 0.47576,-1.164378 0,-0.450727 -0.23788,-0.751212 -0.22536,-0.300485 -0.60097,-0.488288 -0.36308,-0.187802 -0.77625,-0.300484 -0.43821,-0.125202 -0.80129,-0.275445 -0.35057,-0.150242 -0.56341,-0.425686 -0.21285,-0.287965 -0.21285,-0.788773 0,-0.613489 0.43821,-0.926494 0.45073,-0.313005 1.06422,-0.313005 0.67609,0 1.02665,0.363086 0.36309,0.350565 0.52585,0.801292 l 0.1252,-0.03756 q -0.16276,-0.475768 -0.55088,-0.863894 -0.37561,-0.388126 -1.12682,-0.388126 -0.67609,0 -1.15186,0.350566 -0.47577,0.350565 -0.47577,1.014135 0,0.538369 0.21285,0.838854 0.22536,0.300484 0.58844,0.463247 0.37561,0.162762 0.82634,0.300485 0.42568,0.125202 0.77625,0.300484 0.36309,0.175283 0.57593,0.450727 0.21284,0.262924 0.21284,0.676091 0,0.67609 -0.4382,1.076737 -0.43821,0.388126 -1.1143,0.388126 -0.60097,0 -0.9891,-0.275444 -0.3756,-0.275445 -0.57593,-0.701131 -0.20032,-0.425687 -0.28796,-0.863894 z"
       style="font-style:normal;font-variant:normal;font-weight:100;font-stretch:normal;font-size:12.52019596px;line-height:1;font-family:'Jost*';-inkscape-font-specification:'Jost* Thin';text-align:end;text-anchor:end;fill:#333333"
       id="path217" />
    <path
       d="m 119.77315,67.199775 v 2.003232 h -0.93902 v 0.125202 h 0.93902 v 5.634088 h 0.1252 v -5.634088 h 0.93902 v -0.125202 h -0.93902 v -2.003232 z"
       style="font-style:normal;font-variant:normal;font-weight:100;font-stretch:normal;font-size:12.52019596px;line-height:1;font-family:'Jost*';-inkscape-font-specification:'Jost* Thin';text-align:end;text-anchor:end;fill:#333333"
       id="path219" />
    <path
       d="m 124.64918,66.19816 0.0376,2.128433 -2.02827,-0.688611 -0.0376,0.150243 2.04079,0.626009 -1.28958,1.702747 0.1252,0.08764 1.22698,-1.740307 1.22698,1.740307 0.1252,-0.08764 -1.28958,-1.702747 2.04079,-0.626009 -0.0376,-0.150243 -2.02827,0.688611 0.0376,-2.128433 z"
       style="font-style:normal;font-variant:normal;font-weight:100;font-stretch:normal;font-family:'Jost*';-inkscape-font-specification:'Jost* Thin';fill:#c83737"
       id="path221" />
    <path
       d="m 102.51171,89.585242 -0.22536,0.300485 q 0.10016,0.125202 0.32552,0.275444 0.21285,0.162763 0.52585,0.275444 0.30049,0.125202 0.62601,0.125202 0.88893,0 1.26454,-0.488287 0.38813,-0.488288 0.38813,-1.514944 v -9.515349 h -0.40065 v 9.390147 q 0,0.951535 -0.28796,1.339661 -0.27545,0.388126 -0.95154,0.388126 -0.40065,0 -0.72617,-0.175283 -0.33805,-0.175282 -0.53837,-0.400646 z"
       style="font-style:normal;font-variant:normal;font-weight:200;font-stretch:normal;font-size:12.52019596px;line-height:1;font-family:'Jost*';-inkscape-font-specification:'Jost* Ultra-Light';text-align:end;text-anchor:end;fill:#333333"
       id="path223" />
    <path
       d="m 107.41943,84.927729 q 0,-0.763732 0.33805,-1.352181 0.33804,-0.600969 0.90145,-0.939015 0.57593,-0.338045 1.28958,-0.338045 0.71365,0 1.28958,0.338045 0.58845,0.338046 0.9265,0.939015 0.33804,0.588449 0.33804,1.352181 0,0.763732 -0.33804,1.364702 -0.33805,0.588449 -0.9265,0.926494 -0.57593,0.338045 -1.28958,0.338045 -0.71365,0 -1.28958,-0.338045 -0.56341,-0.338045 -0.90145,-0.926494 -0.33805,-0.60097 -0.33805,-1.364702 z m -0.40064,0 q 0,0.863894 0.38812,1.552505 0.38813,0.67609 1.0517,1.064216 0.66357,0.388126 1.4899,0.388126 0.83886,0 1.50243,-0.388126 0.66357,-0.388126 1.05169,-1.064216 0.38813,-0.688611 0.38813,-1.552505 0,-0.876413 -0.38813,-1.552504 -0.38812,-0.676091 -1.05169,-1.064217 -0.66357,-0.388126 -1.50243,-0.388126 -0.82633,0 -1.4899,0.388126 -0.66357,0.388126 -1.0517,1.064217 -0.38812,0.676091 -0.38812,1.552504 z"
       style="font-style:normal;font-variant:normal;font-weight:200;font-stretch:normal;font-size:12.52019596px;line-height:1;font-family:'Jost*';-inkscape-font-specification:'Jost* Ultra-Light';text-align:end;text-anchor:end;fill:#333333"
       id="path225" />
    <path
       d="m 114.21457,85.916825 -0.35056,0.112682 q 0.0876,0.488287 0.33804,0.926494 0.25041,0.425687 0.67609,0.701131 0.42569,0.275444 1.03918,0.275444 0.80129,0 1.3021,-0.438207 0.50081,-0.438206 0.50081,-1.201938 0,-0.438207 -0.22537,-0.738692 -0.22536,-0.313005 -0.60096,-0.513328 -0.36309,-0.200323 -0.77626,-0.338045 -0.40064,-0.125202 -0.75121,-0.275445 -0.35056,-0.162762 -0.56341,-0.413166 -0.21284,-0.262924 -0.21284,-0.676091 0,-0.513328 0.35056,-0.763732 0.36309,-0.262924 0.90146,-0.262924 0.62601,0 0.96405,0.350566 0.35057,0.350565 0.51333,0.751212 l 0.33805,-0.112682 q -0.11268,-0.325525 -0.33805,-0.62601 -0.22536,-0.313005 -0.58845,-0.513328 -0.36308,-0.212843 -0.88893,-0.212843 -0.67609,0 -1.16438,0.363085 -0.47577,0.350566 -0.47577,1.014136 0,0.525848 0.22537,0.838853 0.22536,0.313005 0.60097,0.500808 0.3756,0.175283 0.81381,0.313005 0.60097,0.187803 1.03917,0.475768 0.43821,0.287964 0.43821,0.863893 0,0.563409 -0.3756,0.901454 -0.37561,0.338045 -1.00162,0.338045 -0.52585,0 -0.88893,-0.237883 -0.35057,-0.237884 -0.55089,-0.61349 -0.20033,-0.375606 -0.28797,-0.788772 z"
       style="font-style:normal;font-variant:normal;font-weight:200;font-stretch:normal;font-size:12.52019596px;line-height:1;font-family:'Jost*';-inkscape-font-specification:'Jost* Ultra-Light';text-align:end;text-anchor:end;fill:#333333"
       id="path227" />
    <path
       d="m 119.53996,80.044853 v 2.003231 h -0.93901 v 0.375606 h 0.93901 v 5.383684 h 0.38813 V 82.42369 h 0.93901 v -0.375606 h -0.93901 v -2.003231 z"
       style="font-style:normal;font-variant:normal;font-weight:200;font-stretch:normal;font-size:12.52019596px;line-height:1;font-family:'Jost*';-inkscape-font-specification:'Jost* Ultra-Light';text-align:end;text-anchor:end;fill:#333333"
       id="path229" />
    <path
       d="m 124.54902,79.043237 0.0501,2.090873 -1.97819,-0.701131 -0.10017,0.363086 1.99072,0.575929 -1.26454,1.652665 0.30048,0.225364 1.1769,-1.702747 1.1769,1.702747 0.30048,-0.225364 -1.26454,-1.652665 1.99071,-0.575929 -0.10016,-0.363086 -1.97819,0.701131 0.0501,-2.090873 z"
       style="font-style:normal;font-variant:normal;font-weight:200;font-stretch:normal;font-family:'Jost*';-inkscape-font-specification:'Jost* Ultra-Light';fill:#c83737"
       id="path231" />
    <path
       d="m 102.39473,102.23 -0.36309,0.52584 q 0.10016,0.12521 0.32553,0.27545 0.21284,0.15024 0.52584,0.26292 0.30049,0.11268 0.62601,0.11268 0.88894,0 1.32714,-0.48828 0.43821,-0.48829 0.43821,-1.51495 v -9.515345 h -0.66357 v 9.390145 q 0,0.80129 -0.28796,1.13934 -0.27545,0.33804 -0.78878,0.33804 -0.3756,0 -0.66357,-0.16276 -0.30048,-0.15024 -0.47576,-0.36308 z"
       style="font-style:normal;font-variant:normal;font-weight:300;font-stretch:normal;font-size:12.52019596px;line-height:1;font-family:'Jost*';-inkscape-font-specification:'Jost* Light';text-align:end;text-anchor:end;fill:#333333"
       id="path233" />
    <path
       d="m 106.81005,97.772807 q 0,0.863893 0.38813,1.552504 0.38812,0.676089 1.05169,1.064219 0.67609,0.38812 1.51495,0.38812 0.83885,0 1.50242,-0.38812 0.67609,-0.38813 1.06422,-1.064219 0.38812,-0.688611 0.38812,-1.552504 0,-0.876414 -0.38812,-1.552505 -0.38813,-0.67609 -1.06422,-1.064216 -0.66357,-0.388126 -1.50242,-0.388126 -0.83886,0 -1.51495,0.388126 -0.66357,0.388126 -1.05169,1.064216 -0.38813,0.676091 -0.38813,1.552505 z m 0.66357,0 q 0,-0.701131 0.30049,-1.2395 0.30048,-0.538368 0.81381,-0.838853 0.52585,-0.313005 1.1769,-0.313005 0.65105,0 1.16438,0.313005 0.52584,0.300485 0.82633,0.838853 0.30048,0.538369 0.30048,1.2395 0,0.688611 -0.30048,1.239499 -0.30049,0.538369 -0.82633,0.851374 -0.51333,0.30048 -1.16438,0.30048 -0.65105,0 -1.1769,-0.30048 -0.51333,-0.313005 -0.81381,-0.851374 -0.30049,-0.550888 -0.30049,-1.239499 z"
       style="font-style:normal;font-variant:normal;font-weight:300;font-stretch:normal;font-size:12.52019596px;line-height:1;font-family:'Jost*';-inkscape-font-specification:'Jost* Light';text-align:end;text-anchor:end;fill:#333333"
       id="path235" />
    <path
       d="m 114.19423,98.711821 -0.58845,0.175283 q 0.0876,0.500808 0.3756,0.939015 0.28797,0.425691 0.7387,0.688611 0.45072,0.26292 1.02665,0.26292 0.85138,0 1.38974,-0.4382 0.55089,-0.45073 0.55089,-1.252023 0,-0.438206 -0.22536,-0.738691 -0.22536,-0.313005 -0.60097,-0.525848 -0.36309,-0.225364 -0.77625,-0.375606 -0.36309,-0.137722 -0.71365,-0.300485 -0.33805,-0.162763 -0.55089,-0.388126 -0.21285,-0.225364 -0.21285,-0.550889 0,-0.400646 0.26293,-0.600969 0.27544,-0.212843 0.73869,-0.212843 0.56341,0 0.88893,0.338045 0.33805,0.338045 0.52585,0.701131 l 0.53837,-0.200323 q -0.11268,-0.325525 -0.37561,-0.651051 -0.2504,-0.338045 -0.65105,-0.563408 -0.38812,-0.237884 -0.92649,-0.237884 -0.68861,0 -1.1769,0.375606 -0.47577,0.363086 -0.47577,1.014136 0,0.500808 0.23789,0.826333 0.23788,0.325525 0.61349,0.538368 0.3756,0.200323 0.78877,0.350566 0.37561,0.125202 0.68861,0.287964 0.32553,0.150242 0.52585,0.388126 0.20032,0.225364 0.20032,0.575929 0,0.450727 -0.33804,0.738692 -0.33805,0.28796 -0.88894,0.28796 -0.68861,0 -1.07673,-0.438203 -0.38813,-0.438207 -0.51333,-1.014136 z"
       style="font-style:normal;font-variant:normal;font-weight:300;font-stretch:normal;font-size:12.52019596px;line-height:1;font-family:'Jost*';-inkscape-font-specification:'Jost* Light';text-align:end;text-anchor:end;fill:#333333"
       id="path237" />
    <path
       d="m 119.30677,92.88993 v 2.003232 h -0.93901 v 0.613489 h 0.93901 v 5.145799 h 0.65105 v -5.145799 h 0.93902 v -0.613489 h -0.93902 V 92.88993 Z"
       style="font-style:normal;font-variant:normal;font-weight:300;font-stretch:normal;font-size:12.52019596px;line-height:1;font-family:'Jost*';-inkscape-font-specification:'Jost* Light';text-align:end;text-anchor:end;fill:#333333"
       id="path239" />
    <path
       d="m 124.43634,91.888315 0.0751,2.040792 -1.92811,-0.701131 -0.17529,0.563408 1.96567,0.550889 -1.26454,1.602585 0.47577,0.350566 1.13934,-1.702747 1.13934,1.702747 0.47577,-0.350566 -1.26454,-1.602585 1.96567,-0.550889 -0.17529,-0.563408 -1.92811,0.701131 0.0751,-2.040792 z"
       style="font-style:normal;font-variant:normal;font-weight:300;font-stretch:normal;font-family:'Jost*';-inkscape-font-specification:'Jost* Light';fill:#c83737"
       id="path241" />
    <path
       d="m 102.2795,114.79963 -0.55089,0.82633 q 0.13772,0.18781 0.56341,0.40065 0.41317,0.22536 0.91398,0.22536 0.88893,0 1.40226,-0.48829 0.51333,-0.48828 0.51333,-1.51494 v -9.51535 h -1.00162 v 9.39015 q 0,0.61349 -0.28796,0.86389 -0.27545,0.26293 -0.56341,0.26293 -0.71365,0 -0.9891,-0.45073 z"
       style="font-style:normal;font-variant:normal;font-weight:normal;font-stretch:normal;font-size:12.52019596px;line-height:1;font-family:'Jost*';-inkscape-font-specification:'Jost*';text-align:end;text-anchor:end;fill:#333333"
       id="path243" />
    <path
       d="m 107.57848,110.61788 q 0,-0.60097 0.2504,-1.06421 0.26293,-0.47577 0.70113,-0.73869 0.45073,-0.26293 1.01414,-0.26293 0.56341,0 1.00161,0.26293 0.45073,0.26292 0.70114,0.73869 0.26292,0.46324 0.26292,1.06421 0,0.60097 -0.26292,1.06422 -0.25041,0.46325 -0.70114,0.73869 -0.4382,0.26293 -1.00161,0.26293 -0.56341,0 -1.01414,-0.26293 -0.4382,-0.27544 -0.70113,-0.73869 -0.2504,-0.46325 -0.2504,-1.06422 z m -1.01414,0 q 0,0.8639 0.38813,1.55251 0.40064,0.67609 1.07674,1.06422 0.67609,0.38812 1.51494,0.38812 0.85137,0 1.51494,-0.38812 0.67609,-0.38813 1.06422,-1.06422 0.40065,-0.68861 0.40065,-1.55251 0,-0.87641 -0.40065,-1.5525 -0.38813,-0.67609 -1.06422,-1.06422 -0.66357,-0.38812 -1.51494,-0.38812 -0.83885,0 -1.51494,0.38812 -0.6761,0.38813 -1.07674,1.06422 -0.38813,0.67609 -0.38813,1.5525 z"
       style="font-style:normal;font-variant:normal;font-weight:normal;font-stretch:normal;font-size:12.52019596px;line-height:1;font-family:'Jost*';-inkscape-font-specification:'Jost*';text-align:end;text-anchor:end;fill:#333333"
       id="path245" />
    <path
       d="m 114.07489,111.46926 -0.78877,0.48829 q 0.32553,0.70113 0.95154,1.18941 0.62601,0.47577 1.4273,0.47577 0.83885,0 1.40226,-0.41317 0.57593,-0.41316 0.57593,-1.33966 0,-0.48828 -0.22536,-0.81381 -0.22537,-0.32552 -0.58845,-0.55089 -0.36309,-0.22536 -0.77625,-0.38812 -0.31301,-0.13773 -0.65106,-0.25041 -0.32552,-0.1252 -0.55088,-0.28796 -0.22537,-0.17528 -0.22537,-0.45073 0,-0.33804 0.26293,-0.46325 0.26292,-0.13772 0.63853,-0.13772 0.35056,0 0.70113,0.22537 0.36308,0.21284 0.56341,0.5008 l 0.80129,-0.51333 q -0.26292,-0.47576 -0.82633,-0.80129 -0.56341,-0.32552 -1.25202,-0.32552 -0.46325,0 -0.88894,0.16276 -0.42568,0.16276 -0.70113,0.51333 -0.27544,0.33804 -0.27544,0.87641 0,0.53837 0.2504,0.85137 0.25041,0.31301 0.62601,0.50081 0.38813,0.17529 0.77625,0.33805 0.33805,0.1252 0.62601,0.27544 0.30049,0.15024 0.48829,0.35057 0.1878,0.20032 0.1878,0.50081 0,0.36308 -0.27544,0.53836 -0.26292,0.16277 -0.66357,0.16277 -0.41317,0 -0.85137,-0.33805 -0.43821,-0.35056 -0.7387,-0.87641 z"
       style="font-style:normal;font-variant:normal;font-weight:normal;font-stretch:normal;font-size:12.52019596px;line-height:1;font-family:'Jost*';-inkscape-font-specification:'Jost*';text-align:end;text-anchor:end;fill:#333333"
       id="path247" />
    <path
       d="m 119.01216,105.73501 v 2.00323 h -0.93902 v 0.93901 h 0.93902 v 4.82028 h 1.00161 v -4.82028 h 0.93902 v -0.93901 h -0.93902 v -2.00323 z"
       style="font-style:normal;font-variant:normal;font-weight:normal;font-stretch:normal;font-size:12.52019596px;line-height:1;font-family:'Jost*';-inkscape-font-specification:'Jost*';text-align:end;text-anchor:end;fill:#333333"
       id="path249" />
    <path
       d="m 124.28609,104.73339 0.10016,1.97819 -1.85299,-0.71365 -0.26292,0.83886 1.90307,0.51332 -1.2395,1.53999 0.71365,0.51333 1.07674,-1.65267 1.07674,1.65267 0.71365,-0.51333 -1.2395,-1.53999 1.90307,-0.51332 -0.26293,-0.83886 -1.85299,0.71365 0.10017,-1.97819 z"
       style="font-style:normal;font-variant:normal;font-weight:normal;font-stretch:normal;font-family:'Jost*';-inkscape-font-specification:'Jost*';fill:#c83737"
       id="path251" />
    <path
       d="m 100.98288,127.31918 -0.78877,1.21446 q 0.23788,0.20032 0.73869,0.42569 0.5008,0.23788 1.08925,0.23788 0.66357,0 1.18942,-0.22536 0.52585,-0.21285 0.82634,-0.68861 0.30048,-0.47577 0.30048,-1.21446 v -9.49031 h -1.51494 v 9.08966 q 0,0.60097 -0.27545,0.83886 -0.27544,0.23788 -0.56341,0.23788 -0.67609,0 -1.00161,-0.42569 z"
       style="font-style:normal;font-variant:normal;font-weight:500;font-stretch:normal;font-size:12.52019596px;line-height:1;font-family:'Jost*';-inkscape-font-specification:'Jost* Medium';text-align:end;text-anchor:end;fill:#333333"
       id="path253" />
    <path
       d="m 107.11014,123.46296 q 0,-0.81381 0.48829,-1.31462 0.50081,-0.50081 1.22698,-0.50081 0.73869,0 1.22698,0.50081 0.48829,0.50081 0.48829,1.31462 0,0.80129 -0.48829,1.31462 -0.48829,0.50081 -1.22698,0.50081 -0.72617,0 -1.22698,-0.50081 -0.48829,-0.51333 -0.48829,-1.31462 z m -1.38974,0 q 0,0.88894 0.40065,1.56503 0.41317,0.67609 1.1143,1.06421 0.71365,0.37561 1.59006,0.37561 0.88894,0 1.59007,-0.37561 0.70113,-0.38812 1.10177,-1.06421 0.41317,-0.67609 0.41317,-1.56503 0,-0.88893 -0.41317,-1.56502 -0.40064,-0.67609 -1.10177,-1.0517 -0.70113,-0.38813 -1.59007,-0.38813 -0.87641,0 -1.59006,0.38813 -0.70113,0.37561 -1.1143,1.0517 -0.40065,0.67609 -0.40065,1.56502 z"
       style="font-style:normal;font-variant:normal;font-weight:500;font-stretch:normal;font-size:12.52019596px;line-height:1;font-family:'Jost*';-inkscape-font-specification:'Jost* Medium';text-align:end;text-anchor:end;fill:#333333"
       id="path255" />
    <path
       d="m 113.41406,124.26425 -0.78877,0.76374 q 0.40065,0.63853 1.06422,1.06421 0.67609,0.42569 1.51494,0.42569 0.91398,0 1.4899,-0.43821 0.58845,-0.45072 0.58845,-1.3647 0,-0.51333 -0.22536,-0.83885 -0.22536,-0.32553 -0.58845,-0.53837 -0.36308,-0.22536 -0.77625,-0.38813 -0.32553,-0.13772 -0.66357,-0.2504 -0.32553,-0.11268 -0.53837,-0.26292 -0.21284,-0.15025 -0.21284,-0.38813 0,-0.26292 0.20032,-0.37561 0.21284,-0.1252 0.56341,-0.1252 0.35056,0 0.72617,0.20032 0.38813,0.20033 0.67609,0.51333 l 0.75121,-0.77625 q -0.32552,-0.43821 -0.92649,-0.72617 -0.58845,-0.30049 -1.28958,-0.30049 -0.51333,0 -0.96406,0.18781 -0.45072,0.1878 -0.72617,0.53837 -0.27544,0.35056 -0.27544,0.85137 0,0.53837 0.23788,0.87641 0.2504,0.32553 0.62601,0.52585 0.37561,0.20032 0.77625,0.36309 0.50081,0.1878 0.87642,0.40064 0.38812,0.21285 0.38812,0.58845 0,0.28797 -0.21284,0.43821 -0.20032,0.13772 -0.56341,0.13772 -0.37561,0 -0.85137,-0.30048 -0.46325,-0.31301 -0.87642,-0.8013 z"
       style="font-style:normal;font-variant:normal;font-weight:500;font-stretch:normal;font-size:12.52019596px;line-height:1;font-family:'Jost*';-inkscape-font-specification:'Jost* Medium';text-align:end;text-anchor:end;fill:#333333"
       id="path257" />
    <path
       d="m 118.64594,118.58009 v 2.00323 h -0.96406 v 1.18942 h 0.96406 v 4.56987 h 1.33966 v -4.56987 h 0.96406 v -1.18942 h -0.96406 v -2.00323 z"
       style="font-style:normal;font-variant:normal;font-weight:500;font-stretch:normal;font-size:12.52019596px;line-height:1;font-family:'Jost*';-inkscape-font-specification:'Jost* Medium';text-align:end;text-anchor:end;fill:#333333"
       id="path259" />
    <path
       d="m 124.11081,117.57847 0.1878,2.04079 -1.90307,-0.80129 -0.3756,1.16438 2.01575,0.46324 -1.3647,1.55251 1.00161,0.71365 1.0517,-1.76535 1.0517,1.76535 1.00161,-0.71365 -1.3647,-1.55251 2.01575,-0.46324 -0.3756,-1.16438 -1.90307,0.80129 0.1878,-2.04079 z"
       style="font-style:normal;font-variant:normal;font-weight:500;font-stretch:normal;font-family:'Jost*';-inkscape-font-specification:'Jost* Medium';fill:#c83737"
       id="path261" />
    <path
       d="m 99.992217,140.03906 -0.976575,1.37722 q 0.300485,0.22536 0.876414,0.46325 0.575924,0.23788 1.226984,0.23788 0.72617,0 1.31462,-0.23788 0.58844,-0.22537 0.93901,-0.71365 0.35057,-0.48829 0.35057,-1.27706 v -9.46527 h -1.90307 v 8.9895 q 0,0.57593 -0.27545,0.81381 -0.26292,0.23788 -0.55089,0.23788 -0.30048,0 -0.56341,-0.1252 -0.26292,-0.11268 -0.438203,-0.30048 z"
       style="font-style:normal;font-variant:normal;font-weight:600;font-stretch:normal;font-size:12.52019596px;line-height:1;font-family:'Jost*';-inkscape-font-specification:'Jost* Semi-Bold';text-align:end;text-anchor:end;fill:#333333"
       id="path263" />
    <path
       d="m 106.73728,136.30804 q 0,-0.73869 0.4382,-1.1769 0.45073,-0.45073 1.08926,-0.45073 0.63853,0 1.07674,0.45073 0.45073,0.43821 0.45073,1.1769 0,0.72617 -0.45073,1.1769 -0.43821,0.45072 -1.07674,0.45072 -0.63853,0 -1.08926,-0.45072 -0.4382,-0.45073 -0.4382,-1.1769 z m -1.66519,0 q 0,0.90145 0.41317,1.57754 0.42568,0.67609 1.13934,1.0517 0.72617,0.37561 1.64014,0.37561 0.91398,0 1.64015,-0.37561 0.72617,-0.37561 1.13933,-1.0517 0.42569,-0.67609 0.42569,-1.57754 0,-0.90145 -0.42569,-1.57755 -0.41316,-0.67609 -1.13933,-1.05169 -0.72617,-0.37561 -1.64015,-0.37561 -0.91397,0 -1.64014,0.37561 -0.71366,0.3756 -1.13934,1.05169 -0.41317,0.6761 -0.41317,1.57755 z"
       style="font-style:normal;font-variant:normal;font-weight:600;font-stretch:normal;font-size:12.52019596px;line-height:1;font-family:'Jost*';-inkscape-font-specification:'Jost* Semi-Bold';text-align:end;text-anchor:end;fill:#333333"
       id="path265" />
    <path
       d="m 112.93693,137.05925 -0.8013,0.97658 q 0.45073,0.58845 1.16438,0.97657 0.71365,0.37561 1.57755,0.37561 0.97657,0 1.5525,-0.46325 0.58845,-0.46325 0.58845,-1.3647 0,-0.52585 -0.22536,-0.85137 -0.22537,-0.33805 -0.58845,-0.55089 -0.36309,-0.21285 -0.77626,-0.37561 -0.33804,-0.13772 -0.66357,-0.23788 -0.32552,-0.11268 -0.53836,-0.25041 -0.20033,-0.13772 -0.20033,-0.33804 0,-0.42569 0.67609,-0.42569 0.35057,0 0.73869,0.1878 0.40065,0.18781 0.75122,0.51333 l 0.71365,-0.97657 q -0.37561,-0.41317 -0.9891,-0.67609 -0.60097,-0.27545 -1.32714,-0.27545 -0.56341,0 -1.02665,0.20033 -0.46325,0.20032 -0.7387,0.5634 -0.27544,0.36309 -0.27544,0.83886 0,0.53837 0.23788,0.88893 0.23789,0.33805 0.61349,0.55089 0.37561,0.21284 0.77626,0.36309 0.48828,0.1878 0.86389,0.38812 0.38812,0.1878 0.38812,0.51333 0,0.47577 -0.67609,0.47577 -0.35056,0 -0.82633,-0.28797 -0.47577,-0.28796 -0.98909,-0.73869 z"
       style="font-style:normal;font-variant:normal;font-weight:600;font-stretch:normal;font-size:12.52019596px;line-height:1;font-family:'Jost*';-inkscape-font-specification:'Jost* Semi-Bold';text-align:end;text-anchor:end;fill:#333333"
       id="path267" />
    <path
       d="m 118.37754,131.42516 v 2.00323 h -0.9891 v 1.37723 h 0.9891 v 4.38206 h 1.57754 v -4.38206 h 1.00162 v -1.37723 h -1.00162 v -2.00323 z"
       style="font-style:normal;font-variant:normal;font-weight:600;font-stretch:normal;font-size:12.52019596px;line-height:1;font-family:'Jost*';-inkscape-font-specification:'Jost* Semi-Bold';text-align:end;text-anchor:end;fill:#333333"
       id="path269" />
    <path
       d="m 123.97309,130.42355 0.23788,2.10339 -1.91559,-0.87641 -0.46325,1.40226 2.07836,0.43821 -1.43983,1.5525 1.21446,0.86389 1.03918,-1.82795 1.03918,1.82795 1.21446,-0.86389 -1.43983,-1.5525 2.07836,-0.43821 -0.46325,-1.40226 -1.91559,0.87641 0.23788,-2.10339 z"
       style="font-style:normal;font-variant:normal;font-weight:600;font-stretch:normal;font-family:'Jost*';-inkscape-font-specification:'Jost* Semi-Bold';fill:#c83737"
       id="path271" />
    <path
       d="m 98.964583,152.75893 -1.151858,1.55251 q 0.375606,0.23788 1.014136,0.47577 0.63853,0.23788 1.364699,0.23788 0.78877,0 1.43982,-0.23788 0.66358,-0.22537 1.0517,-0.7387 0.40065,-0.5008 0.40065,-1.33966 v -9.44023 h -2.2912 v 8.88934 q 0,0.56341 -0.26292,0.78878 -0.26293,0.22536 -0.550891,0.22536 -0.275444,0 -0.550889,-0.1252 -0.275444,-0.1252 -0.463247,-0.28797 z"
       style="font-style:normal;font-variant:normal;font-weight:bold;font-stretch:normal;font-size:12.52019596px;line-height:1;font-family:'Jost*';-inkscape-font-specification:'Jost* Bold';text-align:end;text-anchor:end;fill:#333333"
       id="path273" />
    <path
       d="m 106.35248,149.15312 q 0,-0.66357 0.38812,-1.0517 0.40065,-0.40065 0.95154,-0.40065 0.55089,0 0.93901,0.40065 0.40065,0.38813 0.40065,1.0517 0,0.66357 -0.40065,1.05169 -0.38812,0.38813 -0.93901,0.38813 -0.55089,0 -0.95154,-0.38813 -0.38812,-0.38812 -0.38812,-1.05169 z m -1.95315,0 q 0,0.91397 0.42568,1.59006 0.43821,0.67609 1.1769,1.0517 0.75121,0.36308 1.69023,0.36308 0.93901,0 1.6777,-0.36308 0.75122,-0.37561 1.1769,-1.0517 0.43821,-0.67609 0.43821,-1.59006 0,-0.91398 -0.43821,-1.59007 -0.42568,-0.67609 -1.1769,-1.03917 -0.73869,-0.37561 -1.6777,-0.37561 -0.93902,0 -1.69023,0.37561 -0.73869,0.36308 -1.1769,1.03917 -0.42568,0.67609 -0.42568,1.59007 z"
       style="font-style:normal;font-variant:normal;font-weight:bold;font-stretch:normal;font-size:12.52019596px;line-height:1;font-family:'Jost*';-inkscape-font-specification:'Jost* Bold';text-align:end;text-anchor:end;fill:#333333"
       id="path275" />
    <path
       d="m 112.43534,149.86677 -0.81382,1.1769 q 0.51333,0.53836 1.25202,0.88893 0.73869,0.33805 1.64015,0.33805 1.03917,0 1.62762,-0.48829 0.58845,-0.48829 0.58845,-1.37722 0,-0.55089 -0.22536,-0.88894 -0.22536,-0.33804 -0.58845,-0.53837 -0.36309,-0.21284 -0.77625,-0.36308 -0.35057,-0.13772 -0.67609,-0.23789 -0.31301,-0.11268 -0.51333,-0.22536 -0.1878,-0.1252 -0.1878,-0.30048 0,-0.15025 0.1252,-0.25041 0.1252,-0.10016 0.43821,-0.10016 0.35056,0 0.75121,0.1878 0.41316,0.17529 0.83885,0.50081 l 0.68861,-1.16438 q -0.42569,-0.3756 -1.06422,-0.62601 -0.62601,-0.2504 -1.3647,-0.2504 -0.60097,0 -1.08925,0.22536 -0.47577,0.21285 -0.76374,0.58845 -0.27544,0.36309 -0.27544,0.81382 0,0.53836 0.23788,0.90145 0.23789,0.35056 0.61349,0.57593 0.37561,0.22536 0.77626,0.3756 0.48828,0.17529 0.85137,0.35057 0.3756,0.17528 0.3756,0.43821 0,0.38812 -0.55088,0.38812 -0.31301,0 -0.82634,-0.2504 -0.50081,-0.26293 -1.08925,-0.68861 z"
       style="font-style:normal;font-variant:normal;font-weight:bold;font-stretch:normal;font-size:12.52019596px;line-height:1;font-family:'Jost*';-inkscape-font-specification:'Jost* Bold';text-align:end;text-anchor:end;fill:#333333"
       id="path277" />
    <path
       d="m 118.10914,144.27024 v 2.00323 H 117.095 v 1.56503 h 1.01414 v 4.19426 h 1.82795 v -4.19426 h 1.01413 v -1.56503 h -1.01413 v -2.00323 z"
       style="font-style:normal;font-variant:normal;font-weight:bold;font-stretch:normal;font-size:12.52019596px;line-height:1;font-family:'Jost*';-inkscape-font-specification:'Jost* Bold';text-align:end;text-anchor:end;fill:#333333"
       id="path279" />
    <path
       d="m 123.84789,143.26862 0.28796,2.14096 -1.94063,-0.93902 -0.55089,1.65267 2.14096,0.40065 -1.50243,1.56502 1.41478,1.01414 1.02666,-1.90307 1.02666,1.90307 1.41478,-1.01414 -1.50243,-1.56502 2.14096,-0.40065 -0.55089,-1.65267 -1.94063,0.93902 0.28796,-2.14096 z"
       style="font-style:normal;font-variant:normal;font-weight:bold;font-stretch:normal;font-family:'Jost*';-inkscape-font-specification:'Jost* Bold';fill:#c83737"
       id="path281" />
    <path
       d="m 97.936949,165.47881 -1.327141,1.72779 q 0.450727,0.26292 1.151858,0.48828 0.701131,0.23789 1.502424,0.23789 0.83885,0 1.56502,-0.23789 0.72618,-0.22536 1.16438,-0.75121 0.45073,-0.52585 0.45073,-1.41478 v -9.41519 h -2.679322 v 8.78918 q 0,0.53837 -0.262924,0.75121 -0.250404,0.22537 -0.538369,0.22537 -0.262924,0 -0.538368,-0.12521 -0.275445,-0.1252 -0.488288,-0.27544 z"
       style="font-style:normal;font-variant:normal;font-weight:800;font-stretch:normal;font-size:12.52019596px;line-height:1;font-family:'Jost*';-inkscape-font-specification:'Jost* Ultra-Bold';text-align:end;text-anchor:end;fill:#333333"
       id="path283" />
    <path
       d="m 105.96768,161.99819 q 0,-0.60097 0.33804,-0.92649 0.35057,-0.33805 0.81381,-0.33805 0.47577,0 0.81382,0.33805 0.33804,0.32552 0.33804,0.92649 0,0.60097 -0.33804,0.9265 -0.33805,0.32552 -0.81382,0.32552 -0.46324,0 -0.81381,-0.32552 -0.33804,-0.32553 -0.33804,-0.9265 z m -2.24112,0 q 0,0.9265 0.43821,1.60259 0.45073,0.67609 1.21446,1.03918 0.77625,0.36308 1.7403,0.36308 0.97658,0 1.74031,-0.36308 0.76373,-0.36309 1.20194,-1.03918 0.43821,-0.67609 0.43821,-1.60259 0,-0.92649 -0.43821,-1.60258 -0.43821,-0.67609 -1.20194,-1.03918 -0.76373,-0.36308 -1.74031,-0.36308 -0.96405,0 -1.7403,0.36308 -0.76373,0.36309 -1.21446,1.03918 -0.43821,0.67609 -0.43821,1.60258 z"
       style="font-style:normal;font-variant:normal;font-weight:800;font-stretch:normal;font-size:12.52019596px;line-height:1;font-family:'Jost*';-inkscape-font-specification:'Jost* Ultra-Bold';text-align:end;text-anchor:end;fill:#333333"
       id="path285" />
    <path
       d="m 111.88425,162.64924 -0.80129,1.45235 q 0.65105,0.48828 1.4273,0.77625 0.77625,0.27544 1.71527,0.27544 1.07673,0 1.66518,-0.47576 0.58845,-0.47577 0.58845,-1.42731 0,-0.55088 -0.23788,-0.88893 -0.22536,-0.33805 -0.58845,-0.53837 -0.36309,-0.20032 -0.77625,-0.35056 -0.37561,-0.13773 -0.68861,-0.22537 -0.31301,-0.10016 -0.50081,-0.21284 -0.1878,-0.11268 -0.1878,-0.28797 0,-0.11268 0.11268,-0.20032 0.11268,-0.10016 0.38812,-0.10016 0.35057,0 0.8013,0.21284 0.45072,0.20033 0.87641,0.53837 l 0.65105,-1.4273 q -0.53837,-0.33805 -1.1769,-0.55089 -0.63853,-0.22536 -1.40226,-0.22536 -0.98909,0 -1.6151,0.46324 -0.61349,0.46325 -0.61349,1.20194 0,0.55089 0.23788,0.91398 0.23788,0.35056 0.60097,0.57593 0.3756,0.21284 0.78877,0.36308 0.48829,0.16276 0.83885,0.31301 0.36309,0.15024 0.36309,0.41316 0,0.33805 -0.42569,0.33805 -0.23788,0 -0.75121,-0.1878 -0.51333,-0.20033 -1.28958,-0.7387 z"
       style="font-style:normal;font-variant:normal;font-weight:800;font-stretch:normal;font-size:12.52019596px;line-height:1;font-family:'Jost*';-inkscape-font-specification:'Jost* Ultra-Bold';text-align:end;text-anchor:end;fill:#333333"
       id="path287" />
    <path
       d="m 117.84074,157.11532 v 2.00323 h -1.03918 v 1.75283 h 1.03918 v 4.00646 h 2.07835 v -4.00646 h 1.02665 v -1.75283 h -1.02665 v -2.00323 z"
       style="font-style:normal;font-variant:normal;font-weight:800;font-stretch:normal;font-size:12.52019596px;line-height:1;font-family:'Jost*';-inkscape-font-specification:'Jost* Ultra-Bold';text-align:end;text-anchor:end;fill:#333333"
       id="path289" />
    <path
       d="m 123.72268,156.1137 0.33805,2.17852 -1.96567,-0.9891 -0.62601,1.89055 2.19103,0.37561 -1.56502,1.56502 1.6151,1.16438 1.01414,-1.97819 1.01413,1.97819 1.61511,-1.16438 -1.56503,-1.56502 2.19104,-0.37561 -0.62601,-1.89055 -1.96567,0.9891 0.33804,-2.17852 z"
       style="font-style:normal;font-variant:normal;font-weight:800;font-stretch:normal;font-family:'Jost*';-inkscape-font-specification:'Jost* Ultra-Bold';fill:#c83737"
       id="path291" />
    <path
       d="m 96.872928,178.2112 -1.514944,1.89055 q 0.513328,0.27545 1.27706,0.51333 0.763732,0.23789 1.640146,0.23789 0.676091,0 1.3021,-0.13773 0.62601,-0.1252 1.1143,-0.41316 0.48829,-0.28797 0.77625,-0.77625 0.28796,-0.47577 0.28796,-1.1769 v -9.39015 h -3.067444 v 8.70154 q 0,0.52584 -0.250404,0.72617 -0.250403,0.21284 -0.538368,0.21284 -0.237884,0 -0.513328,-0.1252 -0.287964,-0.1252 -0.513328,-0.26293 z"
       style="font-style:normal;font-variant:normal;font-weight:900;font-stretch:normal;font-size:12.52019596px;line-height:1;font-family:'Jost*';-inkscape-font-specification:'Jost* Heavy';text-align:end;text-anchor:end;fill:#333333"
       id="path293" />
    <path
       d="m 103.00489,174.84327 q 0,0.9265 0.45073,1.60259 0.45072,0.67609 1.2395,1.03917 0.78877,0.36309 1.79038,0.36309 1.00162,0 1.79039,-0.36309 0.78877,-0.36308 1.2395,-1.03917 0.45073,-0.67609 0.45073,-1.60259 0,-0.93901 -0.45073,-1.6151 -0.45073,-0.67609 -1.2395,-1.03918 -0.78877,-0.36309 -1.79039,-0.36309 -1.00161,0 -1.79038,0.36309 -0.78878,0.36309 -1.2395,1.03918 -0.45073,0.67609 -0.45073,1.6151 z m 2.51656,0 q 0,-0.52585 0.28796,-0.80129 0.30049,-0.27544 0.67609,-0.27544 0.37561,0 0.66357,0.27544 0.30049,0.27544 0.30049,0.80129 0,0.52585 -0.30049,0.80129 -0.28796,0.26293 -0.66357,0.26293 -0.3756,0 -0.67609,-0.26293 -0.28796,-0.27544 -0.28796,-0.80129 z"
       style="font-style:normal;font-variant:normal;font-weight:900;font-stretch:normal;font-size:12.52019596px;line-height:1;font-family:'Jost*';-inkscape-font-specification:'Jost* Heavy';text-align:end;text-anchor:end;fill:#333333"
       id="path295" />
    <path
       d="m 111.30871,175.43172 -0.78877,1.71527 q 0.78877,0.42568 1.59007,0.65105 0.80129,0.23788 1.79038,0.23788 1.1143,0 1.70275,-0.45073 0.58845,-0.46324 0.58845,-1.4899 0,-0.55089 -0.22536,-0.87641 -0.22537,-0.32553 -0.58845,-0.52585 -0.36309,-0.20032 -0.77625,-0.35057 -0.38813,-0.15024 -0.71366,-0.23788 -0.313,-0.0876 -0.5008,-0.1878 -0.18781,-0.10016 -0.18781,-0.28797 0,-0.0876 0.0876,-0.16276 0.10017,-0.0751 0.35057,-0.0751 0.35057,0 0.85137,0.22536 0.50081,0.21285 0.9265,0.57593 l 0.60097,-1.66518 q -0.63853,-0.28797 -1.28958,-0.48829 -0.63853,-0.20033 -1.41478,-0.20033 -1.06422,0 -1.70275,0.45073 -0.62601,0.43821 -0.62601,1.25202 0,0.57593 0.22536,0.93902 0.23789,0.35056 0.60097,0.56341 0.37561,0.20032 0.78877,0.35056 0.47577,0.16276 0.82634,0.28797 0.35056,0.11268 0.35056,0.3756 0,0.1252 -0.0876,0.21284 -0.0751,0.0751 -0.22536,0.0751 -0.10016,0 -0.37561,-0.0376 -0.26292,-0.0501 -0.70113,-0.23788 -0.43821,-0.1878 -1.07674,-0.63853 z"
       style="font-style:normal;font-variant:normal;font-weight:900;font-stretch:normal;font-size:12.52019596px;line-height:1;font-family:'Jost*';-inkscape-font-specification:'Jost* Heavy';text-align:end;text-anchor:end;fill:#333333"
       id="path297" />
    <path
       d="m 117.57233,169.9604 v 2.00323 h -1.06421 v 1.94063 h 1.06421 v 3.81866 h 2.31624 v -3.81866 h 1.06422 v -1.94063 h -1.06422 v -2.00323 z"
       style="font-style:normal;font-variant:normal;font-weight:900;font-stretch:normal;font-size:12.52019596px;line-height:1;font-family:'Jost*';-inkscape-font-specification:'Jost* Heavy';text-align:end;text-anchor:end;fill:#333333"
       id="path299" />
    <path
       d="m 123.59748,168.95878 0.38813,2.22859 -2.00323,-1.05169 -0.70113,2.14095 2.25363,0.32553 -1.64014,1.57754 1.82794,1.32714 1.00162,-2.04079 1.00162,2.04079 1.82794,-1.32714 -1.64014,-1.57754 2.25363,-0.32553 -0.70113,-2.14095 -2.00323,1.05169 0.38813,-2.22859 z"
       style="font-style:normal;font-variant:normal;font-weight:900;font-stretch:normal;font-family:'Jost*';-inkscape-font-specification:'Jost* Heavy';fill:#c83737"
       id="path301" />
  </g>
  <g
     aria-label=" Hairline!
 Thin!
 Light!
 Book!
 Medium!
 Semi!
 Bold
 Heavy!
 Black!"
     transform="matrix(5.0630513,0,0,5.0630513,637.66399,-321.07399)"
     style="font-style:normal;font-weight:normal;font-size:12.52019596px;line-height:1;font-family:sans-serif;text-align:start;letter-spacing:0px;word-spacing:0px;text-anchor:start;fill:#333333;fill-opacity:1;stroke:none;stroke-width:1px;stroke-linecap:butt;stroke-linejoin:miter;stroke-opacity:1"
     id="flowRoot876">
    <path
       d="m 28.747991,66.19816 -1.502423,8.764137 h 0.125202 l 0.813812,-4.720114 h 5.408725 l -0.813813,4.720114 h 0.137722 L 34.43216,66.19816 h -0.150242 l -0.676091,3.918821 h -5.396204 l 0.67609,-3.918821 z"
       style="font-style:italic;font-variant:normal;font-weight:100;font-stretch:normal;font-family:'Jost*';-inkscape-font-specification:'Jost* Thin Italic'"
       id="path106" />
    <path
       d="m 35.045063,72.082652 q -0.100161,0.776252 0.08764,1.464863 0.200324,0.68861 0.701131,1.114297 0.500808,0.425687 1.289581,0.425687 0.65105,0 1.189418,-0.313005 0.538369,-0.325525 0.926495,-0.851373 0.400646,-0.525849 0.613489,-1.114298 l -0.375606,2.153474 h 0.125202 l 1.001616,-5.75929 h -0.125202 l -0.400646,2.291196 q 0,-0.58845 -0.212843,-1.139338 -0.212844,-0.550889 -0.63853,-0.901454 -0.425687,-0.363086 -1.089257,-0.375606 -0.788773,-0.01252 -1.452343,0.400646 -0.65105,0.400646 -1.089257,1.089257 -0.425687,0.688611 -0.550889,1.514944 z m 0.125202,0 q 0.125202,-0.788773 0.538369,-1.439823 0.425686,-0.66357 1.051696,-1.051696 0.63853,-0.400647 1.402262,-0.388126 0.538368,0.01252 0.913974,0.275444 0.375606,0.262924 0.60097,0.701131 0.225363,0.425687 0.300484,0.926494 0.07512,0.500808 0,0.976576 l -0.01252,0.0626 q -0.08764,0.513328 -0.338045,1.014136 -0.250404,0.488287 -0.62601,0.901454 -0.375606,0.400646 -0.838853,0.65105 -0.463247,0.250404 -0.989096,0.250404 -0.763732,0 -1.239499,-0.400646 -0.475767,-0.413167 -0.676091,-1.076737 -0.187802,-0.663571 -0.08764,-1.402262 z"
       style="font-style:italic;font-variant:normal;font-weight:100;font-stretch:normal;font-family:'Jost*';-inkscape-font-specification:'Jost* Thin Italic'"
       id="path108" />
    <path
       d="m 43.100439,66.260761 q 0,0.125202 0.125202,0.125202 0.125202,0 0.125202,-0.125202 0,-0.125202 -0.125202,-0.125202 -0.125202,0 -0.125202,0.125202 z m -0.425687,2.942246 -1.001616,5.75929 h 0.125202 l 1.001616,-5.75929 z"
       style="font-style:italic;font-variant:normal;font-weight:100;font-stretch:normal;font-family:'Jost*';-inkscape-font-specification:'Jost* Thin Italic'"
       id="path110" />
    <path
       d="m 47.101815,69.453411 0.07512,-0.100162 q -0.162762,-0.100162 -0.338045,-0.187803 -0.175283,-0.08764 -0.388126,-0.08764 -0.63853,-0.02504 -1.051697,0.438207 -0.400646,0.450727 -0.613489,1.076736 l 0.237884,-1.389741 h -0.125202 l -1.001616,5.75929 h 0.125202 l 0.65105,-3.756059 q 0.112682,-0.488288 0.338045,-0.951535 0.237884,-0.463247 0.58845,-0.763732 0.363085,-0.300485 0.851373,-0.287964 0.175283,0 0.338045,0.07512 0.162763,0.07512 0.313005,0.175283 z"
       style="font-style:italic;font-variant:normal;font-weight:100;font-stretch:normal;font-family:'Jost*';-inkscape-font-specification:'Jost* Thin Italic'"
       id="path112" />
    <path
       d="m 49.108176,65.196544 -1.690226,9.765753 h 0.125202 l 1.690226,-9.765753 z"
       style="font-style:italic;font-variant:normal;font-weight:100;font-stretch:normal;font-family:'Jost*';-inkscape-font-specification:'Jost* Thin Italic'"
       id="path114" />
    <path
       d="m 51.096737,66.260761 q 0,0.125202 0.125201,0.125202 0.125202,0 0.125202,-0.125202 0,-0.125202 -0.125202,-0.125202 -0.125201,0 -0.125201,0.125202 z m -0.425687,2.942246 -1.001616,5.75929 h 0.125202 l 1.001616,-5.75929 z"
       style="font-style:italic;font-variant:normal;font-weight:100;font-stretch:normal;font-family:'Jost*';-inkscape-font-specification:'Jost* Thin Italic'"
       id="path116" />
    <path
       d="m 56.17485,70.955834 -0.688611,4.006463 h 0.112682 l 0.701131,-4.006463 q 0.0626,-0.500808 -0.02504,-0.926494 -0.08764,-0.425687 -0.400646,-0.688611 -0.300485,-0.262924 -0.876414,-0.262924 -0.801292,0 -1.389741,0.513328 -0.58845,0.513328 -0.876414,1.252019 l 0.287964,-1.640145 h -0.125202 l -1.001615,5.75929 h 0.125202 l 0.63853,-3.655897 q 0.150242,-0.525849 0.475767,-1.001616 0.338045,-0.488288 0.813813,-0.801293 0.475767,-0.313005 1.051696,-0.300484 0.538369,0 0.813813,0.250404 0.275444,0.250404 0.350566,0.65105 0.07512,0.400646 0.01252,0.851373 z"
       style="font-style:italic;font-variant:normal;font-weight:100;font-stretch:normal;font-family:'Jost*';-inkscape-font-specification:'Jost* Thin Italic'"
       id="path118" />
    <path
       d="m 57.901855,71.98249 q 0.125202,-0.763732 0.538368,-1.389742 0.413167,-0.63853 1.014136,-1.014135 0.60097,-0.375606 1.314621,-0.363086 0.713651,0 1.176898,0.425687 0.475768,0.413166 0.65105,1.051696 0.187803,0.62601 0.05008,1.28958 z m -0.01252,0.125202 h 4.857836 q 0.02504,-0.07512 0.03756,-0.162762 0.02504,-0.08764 0.03756,-0.162763 0.08764,-0.688611 -0.150242,-1.3021 -0.225364,-0.61349 -0.726172,-1.001616 -0.488287,-0.400646 -1.176898,-0.400646 -0.62601,0 -1.164378,0.275444 -0.525849,0.275444 -0.926495,0.738692 -0.400646,0.463247 -0.63853,1.014135 -0.08764,0.225364 -0.162762,0.463248 -0.07512,0.237883 -0.112682,0.488287 -0.08764,0.751212 0.100161,1.452343 0.200324,0.688611 0.676091,1.139338 0.488288,0.438207 1.25202,0.438207 0.67609,0 1.164378,-0.225364 0.488287,-0.225363 0.838853,-0.550888 0.363086,-0.338046 0.65105,-0.676091 l -0.100161,-0.07512 q -0.275445,0.338045 -0.62601,0.66357 -0.350566,0.325525 -0.826333,0.538369 -0.463247,0.200323 -1.089257,0.200323 -0.713651,-0.01252 -1.164378,-0.425687 -0.450727,-0.413166 -0.63853,-1.064216 -0.175283,-0.663571 -0.112682,-1.364702 z"
       style="font-style:italic;font-variant:normal;font-weight:100;font-stretch:normal;font-family:'Jost*';-inkscape-font-specification:'Jost* Thin Italic'"
       id="path120" />
    <path
       d="m 65.743607,66.19816 -1.026656,6.260098 h 0.07512 L 65.91889,66.19816 Z m -1.565025,8.751617 q 0,0.137722 0.150243,0.137722 0.125202,0 0.125202,-0.137722 0,-0.137723 -0.125202,-0.137723 -0.150243,0 -0.150243,0.137723 z"
       style="font-style:italic;font-variant:normal;font-weight:100;font-stretch:normal;font-family:'Jost*';-inkscape-font-specification:'Jost* Thin Italic'"
       id="path122" />
    <path
       d="m 27.796456,79.443883 h 2.266156 l -1.439823,8.363491 h 0.400647 l 1.439822,-8.363491 h 2.278676 l 0.0626,-0.400646 h -4.957998 z"
       style="font-style:italic;font-variant:normal;font-weight:200;font-stretch:normal;font-family:'Jost*';-inkscape-font-specification:'Jost* Ultra-Light Italic'"
       id="path124" />
    <path
       d="m 36.757591,83.951154 -0.676091,3.85622 h 0.375606 l 0.676091,-3.893781 q 0.07512,-0.538368 -0.03756,-0.989095 -0.100161,-0.450727 -0.425686,-0.726171 -0.325525,-0.275445 -0.913975,-0.275445 -0.68861,0 -1.239499,0.400647 -0.538368,0.400646 -0.863894,1.001615 l 0.901455,-5.283523 h -0.375606 l -1.677707,9.765753 h 0.375606 l 0.62601,-3.655897 q 0.137722,-0.475767 0.438207,-0.901454 0.313005,-0.425687 0.751212,-0.688611 0.438207,-0.275444 0.964055,-0.262924 0.500808,0 0.751212,0.237884 0.262924,0.225363 0.338045,0.600969 0.07512,0.375606 0.01252,0.813813 z"
       style="font-style:italic;font-variant:normal;font-weight:200;font-stretch:normal;font-family:'Jost*';-inkscape-font-specification:'Jost* Ultra-Light Italic'"
       id="path126" />
    <path
       d="m 39.89527,79.268601 q 0,0.125202 0.08764,0.212843 0.08764,0.08764 0.212843,0.08764 0.137723,0 0.212844,-0.08764 0.07512,-0.08764 0.07512,-0.212843 0,-0.125202 -0.07512,-0.200323 -0.07512,-0.08764 -0.212844,-0.08764 -0.125202,0 -0.212843,0.08764 -0.08764,0.07512 -0.08764,0.200323 z m -0.363086,2.779483 -0.989095,5.75929 h 0.375605 l 1.001616,-5.75929 z"
       style="font-style:italic;font-variant:normal;font-weight:200;font-stretch:normal;font-family:'Jost*';-inkscape-font-specification:'Jost* Ultra-Light Italic'"
       id="path128" />
    <path
       d="m 45.242958,83.951154 -0.676091,3.85622 h 0.375606 l 0.676091,-3.893781 q 0.07512,-0.538368 -0.03756,-0.989095 -0.100161,-0.450727 -0.425687,-0.726171 -0.325525,-0.275445 -0.913974,-0.275445 -0.688611,0 -1.226979,0.400647 -0.538368,0.400646 -0.863894,0.989095 l 0.212844,-1.26454 h -0.375606 l -1.001616,5.75929 h 0.375606 l 0.63853,-3.693457 q 0.150242,-0.475768 0.450727,-0.888934 0.313005,-0.413167 0.738692,-0.676091 0.438207,-0.262924 0.951535,-0.250404 0.500807,0 0.751211,0.237884 0.262924,0.225363 0.338046,0.600969 0.07512,0.375606 0.01252,0.813813 z"
       style="font-style:italic;font-variant:normal;font-weight:200;font-stretch:normal;font-family:'Jost*';-inkscape-font-specification:'Jost* Ultra-Light Italic'"
       id="path130" />
    <path
       d="m 48.856405,79.043237 -0.964055,6.260098 h 0.275444 l 1.164378,-6.260098 z m -1.539984,8.613895 q 0,0.125202 0.08764,0.212843 0.08764,0.08764 0.212844,0.08764 0.125201,0 0.212843,-0.08764 0.08764,-0.08764 0.08764,-0.212843 0,-0.137722 -0.08764,-0.212843 -0.08764,-0.08764 -0.212843,-0.08764 -0.125202,0 -0.212844,0.08764 -0.08764,0.07512 -0.08764,0.212843 z"
       style="font-style:italic;font-variant:normal;font-weight:200;font-stretch:normal;font-family:'Jost*';-inkscape-font-specification:'Jost* Ultra-Light Italic'"
       id="path132" />
    <path
       d="m 28.67287,91.888315 -1.502424,8.764135 h 4.181746 l 0.125202,-0.65105 h -3.518175 l 1.389742,-8.113085 z"
       style="font-style:italic;font-variant:normal;font-weight:300;font-stretch:normal;font-family:'Jost*';-inkscape-font-specification:'Jost* Light Italic'"
       id="path134" />
    <path
       d="m 33.890466,92.288961 q 0,0.187803 0.137722,0.325525 0.137722,0.125202 0.325525,0.125202 0.187803,0 0.313005,-0.125202 0.137722,-0.137722 0.137722,-0.325525 0,-0.187803 -0.137722,-0.313005 -0.125202,-0.137722 -0.313005,-0.137722 -0.187803,0 -0.325525,0.137722 -0.137722,0.125202 -0.137722,0.313005 z m -0.313005,2.604201 -0.976575,5.759288 h 0.65105 l 0.976575,-5.759288 z"
       style="font-style:italic;font-variant:normal;font-weight:300;font-stretch:normal;font-family:'Jost*';-inkscape-font-specification:'Jost* Light Italic'"
       id="path136" />
    <path
       d="m 35.275317,97.772807 q -0.112682,0.801292 0.112681,1.489903 0.237884,0.676091 0.763732,1.10178 0.538369,0.41316 1.339661,0.41316 0.738692,0 1.314621,-0.38812 0.588449,-0.38813 0.976575,-1.001618 l -0.200323,1.139338 q -0.100161,0.71365 -0.463247,1.2395 -0.350566,0.53837 -0.876414,0.83885 -0.525848,0.30049 -1.126818,0.30049 -0.876413,-0.0125 -1.277059,-0.56341 -0.400647,-0.55089 -0.325526,-1.31462 h -0.65105 q -0.07512,0.70113 0.162763,1.26454 0.250404,0.57593 0.776252,0.90145 0.538368,0.33805 1.31462,0.33805 0.813813,0 1.464863,-0.38813 0.663571,-0.38813 1.101778,-1.06422 0.438207,-0.67609 0.563408,-1.5525 l 0.951535,-5.634088 h -0.65105 l -0.237884,1.439822 q -0.162762,-0.66357 -0.613489,-1.101777 -0.450727,-0.450727 -1.226979,-0.463247 -0.801293,-0.01252 -1.477383,0.400646 -0.676091,0.400646 -1.139338,1.089257 -0.450727,0.676091 -0.575929,1.514944 z m 0.66357,0 q 0.100162,-0.676091 0.463247,-1.214459 0.363086,-0.538369 0.901454,-0.851374 0.550889,-0.325525 1.189419,-0.313004 0.563409,0.01252 0.939015,0.350565 0.375606,0.338045 0.538368,0.851373 0.162763,0.513328 0.100162,1.076737 l -0.03756,0.275445 q -0.125202,0.588449 -0.488287,1.101777 -0.350566,0.500808 -0.851374,0.801292 -0.488287,0.300481 -1.051696,0.300481 -0.63853,0 -1.051697,-0.325521 -0.413166,-0.325525 -0.575929,-0.863894 -0.162762,-0.550888 -0.07512,-1.189418 z"
       style="font-style:italic;font-variant:normal;font-weight:300;font-stretch:normal;font-family:'Jost*';-inkscape-font-specification:'Jost* Light Italic'"
       id="path138" />
    <path
       d="m 46.268245,96.946474 -0.62601,3.705976 h 0.62601 l 0.65105,-3.781097 q 0.07512,-0.575929 -0.05008,-1.051697 -0.112682,-0.475767 -0.463248,-0.763732 -0.338045,-0.287964 -0.951534,-0.287964 -0.63853,0 -1.139338,0.350565 -0.500808,0.350566 -0.826333,0.888934 l 0.876413,-5.12076 h -0.65105 l -1.677706,9.765751 h 0.65105 l 0.62601,-3.630855 q 0.137722,-0.425687 0.400646,-0.801293 0.275445,-0.375605 0.663571,-0.600969 0.400646,-0.237884 0.876413,-0.225363 0.463248,0.01252 0.701131,0.225363 0.237884,0.212843 0.300485,0.563409 0.0626,0.350565 0.01252,0.763732 z"
       style="font-style:italic;font-variant:normal;font-weight:300;font-stretch:normal;font-family:'Jost*';-inkscape-font-specification:'Jost* Light Italic'"
       id="path140" />
    <path
       d="m 49.552058,92.88993 -0.350566,2.003232 h -0.876414 l -0.125202,0.613489 h 0.901455 l -0.876414,5.145799 h 0.62601 l 0.901454,-5.145799 h 0.926494 l 0.100162,-0.613489 h -0.926495 l 0.350566,-2.003232 z"
       style="font-style:italic;font-variant:normal;font-weight:300;font-stretch:normal;font-family:'Jost*';-inkscape-font-specification:'Jost* Light Italic'"
       id="path142" />
    <path
       d="m 52.693257,91.888315 -0.901454,6.260098 h 0.488288 l 1.239499,-6.260098 z m -1.502424,8.463655 q 0,0.20032 0.137723,0.32552 0.137722,0.13772 0.325525,0.13772 0.187803,0 0.325525,-0.13772 0.137722,-0.1252 0.137722,-0.32552 0,-0.20033 -0.137722,-0.33805 -0.137722,-0.13772 -0.325525,-0.13772 -0.187803,0 -0.325525,0.13772 -0.137723,0.13772 -0.137723,0.33805 z"
       style="font-style:italic;font-variant:normal;font-weight:300;font-stretch:normal;font-family:'Jost*';-inkscape-font-specification:'Jost* Light Italic'"
       id="path144" />
    <path
       d="m 29.060996,108.27661 0.438207,-2.6042 1.176898,0.0125 q 0.60097,0 0.964055,0.36308 0.375606,0.35057 0.275445,0.93902 -0.112682,0.61349 -0.61349,0.95153 -0.500808,0.33805 -1.126817,0.33805 z m -0.162762,0.92649 h 1.3021 q 0.788772,0 1.226979,0.45073 0.450727,0.43821 0.313005,1.21446 -0.137722,0.78877 -0.763732,1.2395 -0.61349,0.4382 -1.427302,0.4382 l -1.226979,0.0125 z m 2.266155,-0.47577 q 0.701131,-0.1878 1.189419,-0.62601 0.500807,-0.45072 0.626009,-1.16437 0.112682,-0.71365 -0.150242,-1.20194 -0.262924,-0.50081 -0.801292,-0.75121 -0.538369,-0.25041 -1.25202,-0.25041 h -2.153474 l -1.502423,8.76414 h 2.353797 q 0.826332,0 1.527463,-0.28797 0.701131,-0.30048 1.176899,-0.86389 0.475767,-0.57593 0.600969,-1.40226 0.137722,-0.9265 -0.338045,-1.46486 -0.475767,-0.55089 -1.27706,-0.75122 z"
       style="font-style:italic;font-variant:normal;font-weight:normal;font-stretch:normal;font-family:'Jost*';-inkscape-font-specification:'Jost* Italic'"
       id="path146" />
    <path
       d="m 33.919028,110.61788 q -0.100162,0.8013 0.175283,1.48991 0.275444,0.67609 0.863893,1.10177 0.588449,0.41317 1.427303,0.41317 0.851373,0 1.565024,-0.40064 0.713651,-0.41317 1.176898,-1.08926 0.475768,-0.68861 0.58845,-1.51495 0.112681,-0.80129 -0.175283,-1.47738 -0.275444,-0.68861 -0.863894,-1.10178 -0.588449,-0.42568 -1.427302,-0.42568 -0.838853,0 -1.565024,0.41316 -0.713652,0.40065 -1.189419,1.08926 -0.463247,0.67609 -0.575929,1.50242 z m 0.989095,0 q 0.08764,-0.5634 0.400647,-1.02665 0.325525,-0.47577 0.801292,-0.75121 0.488288,-0.27545 1.051697,-0.27545 0.563408,0 0.939014,0.30049 0.375606,0.28796 0.538369,0.75121 0.162762,0.46325 0.08764,1.00161 -0.08764,0.56341 -0.413166,1.02666 -0.313005,0.46325 -0.801293,0.75121 -0.475767,0.27545 -1.051696,0.27545 -0.563409,0 -0.939015,-0.28797 -0.363086,-0.30048 -0.525848,-0.76373 -0.162763,-0.47577 -0.08764,-1.00162 z"
       style="font-style:italic;font-variant:normal;font-weight:normal;font-stretch:normal;font-family:'Jost*';-inkscape-font-specification:'Jost* Italic'"
       id="path148" />
    <path
       d="m 40.545929,110.61788 q -0.100162,0.8013 0.175282,1.48991 0.275445,0.67609 0.863894,1.10177 0.588449,0.41317 1.427302,0.41317 0.851374,0 1.565025,-0.40064 0.713651,-0.41317 1.176898,-1.08926 0.475768,-0.68861 0.588449,-1.51495 0.112682,-0.80129 -0.175282,-1.47738 -0.275445,-0.68861 -0.863894,-1.10178 -0.588449,-0.42568 -1.427302,-0.42568 -0.838853,0 -1.565025,0.41316 -0.713651,0.40065 -1.189418,1.08926 -0.463248,0.67609 -0.575929,1.50242 z m 0.989095,0 q 0.08764,-0.5634 0.400646,-1.02665 0.325525,-0.47577 0.801293,-0.75121 0.488288,-0.27545 1.051696,-0.27545 0.563409,0 0.939015,0.30049 0.375606,0.28796 0.538368,0.75121 0.162763,0.46325 0.08764,1.00161 -0.08764,0.56341 -0.413167,1.02666 -0.313005,0.46325 -0.801292,0.75121 -0.475768,0.27545 -1.051697,0.27545 -0.563408,0 -0.939014,-0.28797 -0.363086,-0.30048 -0.525849,-0.76373 -0.162762,-0.47577 -0.08764,-1.00162 z"
       style="font-style:italic;font-variant:normal;font-weight:normal;font-stretch:normal;font-family:'Jost*';-inkscape-font-specification:'Jost* Italic'"
       id="path150" />
    <path
       d="m 51.029049,107.73824 -2.366317,1.97819 1.039176,-5.98465 h -1.026656 l -1.640146,9.76575 h 0.964055 l 0.513328,-2.92973 1.815429,2.92973 h 1.176898 l -2.103393,-3.30533 2.904686,-2.45396 z"
       style="font-style:italic;font-variant:normal;font-weight:normal;font-stretch:normal;font-family:'Jost*';-inkscape-font-specification:'Jost* Italic'"
       id="path152" />
    <path
       d="m 54.206441,104.73339 -0.801293,6.2601 h 0.751212 l 1.3021,-6.2601 z m -1.477383,8.26333 q 0,0.27545 0.212843,0.48829 0.212843,0.20032 0.488288,0.20032 0.287964,0 0.475767,-0.20032 0.200323,-0.21284 0.200323,-0.48829 0,-0.28796 -0.200323,-0.48829 -0.187803,-0.20032 -0.475767,-0.20032 -0.275445,0 -0.488288,0.20032 -0.212843,0.20033 -0.212843,0.48829 z"
       style="font-style:italic;font-variant:normal;font-weight:normal;font-stretch:normal;font-family:'Jost*';-inkscape-font-specification:'Jost* Italic'"
       id="path154" />
    <path
       d="m 29.611885,121.03404 1.815428,4.50727 3.330372,-4.44467 -0.325525,5.24597 h 1.514944 l 0.425687,-9.26495 -4.569872,5.98466 -2.453958,-5.93458 -2.754444,9.21487 h 1.527464 z"
       style="font-style:italic;font-variant:normal;font-weight:500;font-stretch:normal;font-family:'Jost*';-inkscape-font-specification:'Jost* Medium Italic'"
       id="path156" />
    <path
       d="m 38.856876,122.83695 q 0.187803,-0.58845 0.65105,-0.96405 0.463247,-0.37561 1.089257,-0.37561 0.62601,0 0.901454,0.40065 0.275445,0.38812 0.250404,0.93901 z m -0.175283,0.93902 h 4.344508 q 0.02504,-0.10016 0.03756,-0.18781 0.02504,-0.10016 0.03756,-0.1878 0.100162,-0.82633 -0.150242,-1.4899 -0.237884,-0.67609 -0.813813,-1.06422 -0.563409,-0.38813 -1.439822,-0.38813 -0.788773,0 -1.439823,0.31301 -0.65105,0.313 -1.114297,0.85137 -0.450727,0.53837 -0.663571,1.22698 -0.05008,0.15024 -0.08764,0.30049 -0.02504,0.15024 -0.05008,0.313 -0.100161,0.81381 0.162763,1.50243 0.262924,0.67609 0.838853,1.08925 0.588449,0.40065 1.452343,0.41317 1.001615,0 1.740307,-0.42569 0.751212,-0.4382 1.27706,-1.1143 l -1.126818,-0.48828 q -0.313005,0.3756 -0.751212,0.65105 -0.425686,0.26292 -0.989095,0.2504 -0.676091,-0.0125 -0.976575,-0.46325 -0.300485,-0.45072 -0.287965,-1.10177 z"
       style="font-style:italic;font-variant:normal;font-weight:500;font-stretch:normal;font-family:'Jost*';-inkscape-font-specification:'Jost* Medium Italic'"
       id="path158" />
    <path
       d="m 43.795897,123.46296 q -0.112682,0.81381 0.137722,1.50243 0.250404,0.68861 0.801293,1.10177 0.550888,0.40065 1.339661,0.40065 0.62601,0 1.126817,-0.27545 0.513328,-0.27544 0.888934,-0.73869 l -0.150242,0.88894 h 1.339661 l 1.677706,-9.76576 h -1.364701 l -0.851374,5.05816 q -0.212843,-0.52585 -0.65105,-0.85137 -0.425686,-0.32553 -1.089257,-0.32553 -0.788772,0 -1.477383,0.40065 -0.688611,0.38813 -1.151858,1.07674 -0.450727,0.67609 -0.575929,1.52746 z m 1.377222,0 q 0.08764,-0.51333 0.375606,-0.92649 0.300484,-0.42569 0.726171,-0.66357 0.438207,-0.23789 0.926494,-0.22537 0.438207,0.0125 0.726172,0.26293 0.300484,0.2504 0.425686,0.66357 0.137723,0.40064 0.07512,0.87641 l -0.01252,0.0876 q -0.08764,0.48829 -0.388126,0.88894 -0.287964,0.38812 -0.68861,0.62601 -0.400647,0.22536 -0.838854,0.22536 -0.488287,0 -0.813812,-0.2504 -0.313005,-0.25041 -0.450727,-0.66357 -0.137723,-0.41317 -0.0626,-0.90146 z"
       style="font-style:italic;font-variant:normal;font-weight:500;font-stretch:normal;font-family:'Jost*';-inkscape-font-specification:'Jost* Medium Italic'"
       id="path160" />
    <path
       d="m 52.188341,118.30464 q 0,0.35057 0.250404,0.58845 0.250404,0.22536 0.60097,0.22536 0.363085,0 0.600969,-0.22536 0.250404,-0.23788 0.250404,-0.58845 0,-0.36308 -0.250404,-0.58845 -0.237884,-0.23788 -0.600969,-0.23788 -0.350566,0 -0.60097,0.23788 -0.250404,0.22537 -0.250404,0.58845 z m -0.212843,2.27868 -0.964055,5.75929 h 1.327141 l 0.976575,-5.75929 z"
       style="font-style:italic;font-variant:normal;font-weight:500;font-stretch:normal;font-family:'Jost*';-inkscape-font-specification:'Jost* Medium Italic'"
       id="path162" />
    <path
       d="m 55.841891,124.08897 0.61349,-3.50565 H 55.09068 l -0.62601,3.65589 q -0.07512,0.62601 0.0626,1.13934 0.137722,0.50081 0.513328,0.80129 0.388126,0.28797 1.039176,0.28797 0.588449,0 1.026656,-0.26293 0.450727,-0.27544 0.763732,-0.70113 l -0.150242,0.83886 h 1.352181 l 1.001616,-5.75929 h -1.352182 l -0.626009,3.58077 q -0.137722,0.48829 -0.525849,0.85138 -0.388126,0.36308 -0.939014,0.35056 -0.538369,-0.025 -0.688611,-0.40064 -0.150242,-0.37561 -0.100162,-0.87642 z"
       style="font-style:italic;font-variant:normal;font-weight:500;font-stretch:normal;font-family:'Jost*';-inkscape-font-specification:'Jost* Medium Italic'"
       id="path164" />
    <path
       d="m 69.355487,122.68671 q 0.07512,-0.61349 -0.02504,-1.1143 -0.100162,-0.51333 -0.438207,-0.81381 -0.338045,-0.30049 -0.989096,-0.30049 -0.613489,0 -1.101777,0.30049 -0.488288,0.28796 -0.826333,0.76373 -0.112682,-0.48829 -0.450727,-0.77625 -0.338045,-0.28797 -0.976575,-0.28797 -0.538369,0 -0.964055,0.26293 -0.425687,0.2504 -0.713651,0.65105 l 0.137722,-0.78877 h -1.314621 l -1.001616,5.75929 h 1.327141 l 0.61349,-3.60582 q 0.137722,-0.47577 0.475767,-0.83885 0.338046,-0.36309 0.863894,-0.33805 0.350565,0.0125 0.500808,0.20033 0.150242,0.17528 0.175282,0.46324 0.02504,0.28797 -0.01252,0.61349 l -0.613489,3.50566 h 1.352181 l 0.600969,-3.5307 q 0.125202,-0.48829 0.463247,-0.87641 0.350566,-0.40065 0.888934,-0.37561 0.350566,0.0125 0.500808,0.20033 0.162763,0.17528 0.187803,0.46324 0.02504,0.28797 -0.01252,0.61349 l -0.62601,3.50566 h 1.352181 z"
       style="font-style:italic;font-variant:normal;font-weight:500;font-stretch:normal;font-family:'Jost*';-inkscape-font-specification:'Jost* Medium Italic'"
       id="path166" />
    <path
       d="m 72.128513,117.57847 -0.738691,6.09734 h 1.064216 l 1.352181,-6.09734 z m -1.439822,8.15065 q 0,0.35056 0.250404,0.60097 0.262924,0.2504 0.63853,0.2504 0.375605,0 0.63853,-0.2504 0.262924,-0.25041 0.262924,-0.60097 0,-0.36309 -0.262924,-0.60097 -0.262925,-0.23789 -0.63853,-0.23789 -0.375606,0 -0.63853,0.23789 -0.250404,0.23788 -0.250404,0.60097 z"
       style="font-style:italic;font-variant:normal;font-weight:500;font-stretch:normal;font-family:'Jost*';-inkscape-font-specification:'Jost* Medium Italic'"
       id="path168" />
    <path
       d="m 28.347345,136.13276 -1.402262,0.88893 q 0.300485,1.0517 1.089257,1.72779 0.801293,0.66357 1.94063,0.66357 0.901455,0 1.627626,-0.31301 0.738691,-0.32552 1.214459,-0.92649 0.475767,-0.60097 0.600969,-1.41478 0.08764,-0.68861 -0.125202,-1.20194 -0.212843,-0.51333 -0.63853,-0.87642 -0.425686,-0.3756 -0.989095,-0.60097 -0.388126,-0.16276 -0.813813,-0.33804 -0.413166,-0.17528 -0.67609,-0.42569 -0.262925,-0.2504 -0.187803,-0.61349 0.07512,-0.40064 0.438206,-0.63853 0.363086,-0.23788 0.826333,-0.23788 0.550889,0 0.863894,0.33804 0.313005,0.33805 0.513328,0.81382 l 1.452343,-0.8013 q -0.162763,-0.51332 -0.513328,-0.95153 -0.338046,-0.43821 -0.876414,-0.70113 -0.538369,-0.27545 -1.28958,-0.27545 -0.801293,0 -1.502424,0.30049 -0.701131,0.28796 -1.176898,0.82633 -0.463247,0.53837 -0.575929,1.26454 -0.08764,0.71365 0.175283,1.22698 0.275444,0.51333 0.738691,0.86389 0.475768,0.33805 0.964055,0.55089 0.400646,0.16277 0.776252,0.36309 0.375606,0.1878 0.58845,0.46325 0.225363,0.27544 0.150242,0.70113 -0.08764,0.46324 -0.475768,0.73869 -0.375605,0.26292 -0.901454,0.26292 -0.726171,0 -1.126817,-0.47576 -0.400647,-0.48829 -0.688611,-1.20194 z"
       style="font-style:italic;font-variant:normal;font-weight:600;font-stretch:normal;font-family:'Jost*';-inkscape-font-specification:'Jost* Semi-Bold Italic'"
       id="path170" />
    <path
       d="m 36.008922,136.6586 h 4.306948 q 0.03756,-0.21284 0.07512,-0.42568 0.100161,-0.85138 -0.175283,-1.51495 -0.262924,-0.66357 -0.851373,-1.03917 -0.588449,-0.37561 -1.452343,-0.37561 -0.788772,0 -1.464863,0.30049 -0.676091,0.30048 -1.151858,0.83885 -0.475767,0.53837 -0.688611,1.2395 -0.05008,0.15024 -0.08764,0.313 -0.03756,0.15025 -0.0626,0.31301 -0.100162,0.83885 0.200323,1.51494 0.300485,0.67609 0.926495,1.07674 0.63853,0.40065 1.514943,0.41317 1.089257,0 1.802908,-0.43821 0.713652,-0.45073 1.214459,-1.13934 l -1.364701,-0.50081 q -0.275444,0.33805 -0.65105,0.57593 -0.363086,0.23789 -0.863894,0.22537 -0.613489,-0.025 -0.926494,-0.41317 -0.300485,-0.38813 -0.300485,-0.96406 z m 0.200323,-1.00161 q 0.187803,-0.50081 0.58845,-0.82633 0.413166,-0.33805 0.989095,-0.33805 0.563409,0 0.801293,0.35057 0.250403,0.33804 0.250403,0.81381 z"
       style="font-style:italic;font-variant:normal;font-weight:600;font-stretch:normal;font-family:'Jost*';-inkscape-font-specification:'Jost* Semi-Bold Italic'"
       id="path172" />
    <path
       d="m 49.907709,135.50675 c 0.05008,-0.40899 0.04173,-0.78043 -0.02504,-1.1143 -0.06677,-0.33387 -0.212843,-0.5968 -0.438206,-0.78877 -0.225364,-0.20033 -0.559236,-0.30049 -1.001616,-0.30049 -0.408993,0 -0.776252,0.096 -1.101777,0.28797 -0.325525,0.18363 -0.60097,0.42986 -0.826333,0.73869 -0.07512,-0.31718 -0.225364,-0.56758 -0.450727,-0.75121 -0.217017,-0.18363 -0.542542,-0.27545 -0.976576,-0.27545 -0.367259,0 -0.692784,0.0835 -0.976575,0.25041 -0.283791,0.16693 -0.521675,0.38812 -0.713651,0.66357 l 0.137722,-0.78878 h -1.577545 l -0.989095,5.75929 h 1.565024 l 0.63853,-3.65589 c 0.08347,-0.27545 0.225364,-0.51333 0.425687,-0.71365 0.200323,-0.20867 0.44238,-0.30466 0.726171,-0.28797 0.20867,0.008 0.354739,0.0709 0.438207,0.1878 0.09181,0.10851 0.146069,0.25041 0.162763,0.42569 0.01669,0.16694 0.01252,0.3464 -0.01252,0.53837 l -0.62601,3.50565 h 1.627625 l 0.588449,-3.51817 h -6.32e-4 c 0.06677,-0.30049 0.213475,-0.56758 0.413798,-0.80129 0.20867,-0.24206 0.467421,-0.35474 0.776252,-0.33805 0.20867,0.008 0.354739,0.0709 0.438207,0.1878 0.09182,0.10851 0.146069,0.25041 0.162762,0.42569 0.01669,0.16694 0.01252,0.3464 -0.01252,0.53837 l -0.62601,3.50565 h 1.640146 z"
       style="font-style:italic;font-variant:normal;font-weight:600;font-stretch:normal;font-family:'Jost*';-inkscape-font-specification:'Jost* Semi-Bold Italic'"
       id="path174"
       inkscape:connector-curvature="0"
       sodipodi:nodetypes="cccscccscccccccccccccccccccccccc" />
    <path
       d="m 51.863403,133.42839 -0.976576,5.75929 h 1.577545 l 0.976575,-5.75929 z m 0.200323,-2.22859 q 0,0.38813 0.275444,0.66357 0.287965,0.26292 0.701131,0.26292 0.413166,0 0.688611,-0.26292 0.287964,-0.27544 0.287964,-0.66357 0,-0.40065 -0.287964,-0.66357 -0.275445,-0.26293 -0.688611,-0.26293 -0.413166,0 -0.701131,0.26293 -0.275444,0.26292 -0.275444,0.66357 z"
       style="font-style:italic;font-variant:normal;font-weight:600;font-stretch:normal;font-family:'Jost*';-inkscape-font-specification:'Jost* Semi-Bold Italic'"
       id="path176" />
    <path
       d="m 54.425935,138.48655 q 0,0.41317 0.287964,0.70113 0.300485,0.27545 0.751212,0.27545 0.450727,0 0.738692,-0.27545 0.300484,-0.28796 0.300484,-0.70113 0,-0.41316 -0.300484,-0.68861 -0.287965,-0.27544 -0.738692,-0.27544 -0.450727,0 -0.751212,0.27544 -0.287964,0.27545 -0.287964,0.68861 z m 1.402262,-8.063 -0.663571,5.98465 h 1.302101 l 1.377221,-5.98465 z"
       style="font-style:italic;font-variant:normal;font-weight:600;font-stretch:normal;font-family:'Jost*';-inkscape-font-specification:'Jost* Semi-Bold Italic'"
       id="path178" />
    <path
       d="m 30.050092,146.74924 0.325525,-1.81543 h 0.851373 q 0.475767,0 0.726171,0.22536 0.250404,0.21285 0.175283,0.65105 -0.07512,0.45073 -0.450727,0.70114 -0.363086,0.23788 -0.851373,0.23788 z m -0.262925,1.4899 1.076737,0.0125 q 0.525849,0.0125 0.888934,0.23789 0.363086,0.22536 0.275445,0.77625 -0.08764,0.60097 -0.575929,0.85137 -0.475768,0.25041 -1.051697,0.26293 h -0.976575 z m 2.979807,-0.87641 q 0.62601,-0.25041 1.051697,-0.71365 0.438206,-0.47577 0.538368,-1.15186 0.112682,-0.76373 -0.262924,-1.25202 -0.363086,-0.50081 -1.026656,-0.73869 -0.663571,-0.23789 -1.439823,-0.23789 h -3.092488 l -1.502424,8.76414 h 3.443054 q 0.939015,0 1.727787,-0.2504 0.788773,-0.25041 1.302101,-0.78877 0.525848,-0.53837 0.65105,-1.41479 0.125202,-0.85137 -0.300485,-1.38974 -0.413166,-0.55089 -1.089257,-0.82633 z"
       style="font-style:italic;font-variant:normal;font-weight:bold;font-stretch:normal;font-family:'Jost*';-inkscape-font-specification:'Jost* Bold Italic'"
       id="path180" />
    <path
       d="m 35.189437,149.15312 q -0.112682,0.86389 0.225364,1.5525 0.338045,0.67609 1.014135,1.06422 0.676091,0.38812 1.565025,0.38812 0.913974,0 1.690226,-0.3756 0.788773,-0.38813 1.302101,-1.06422 0.525848,-0.67609 0.63853,-1.56502 0.112681,-0.87642 -0.225364,-1.55251 -0.338045,-0.67609 -1.014136,-1.06421 -0.66357,-0.38813 -1.565024,-0.38813 -0.913974,0 -1.702747,0.38813 -0.776252,0.3756 -1.3021,1.05169 -0.513328,0.67609 -0.62601,1.56503 z m 1.92811,0 q 0.0626,-0.40065 0.287965,-0.72617 0.225363,-0.32553 0.550888,-0.51333 0.338046,-0.20033 0.713651,-0.18781 0.563409,0.0125 0.826333,0.43821 0.275445,0.42569 0.200324,0.9891 -0.0626,0.38812 -0.287965,0.72617 -0.225363,0.32552 -0.563409,0.51333 -0.325525,0.1878 -0.701131,0.1878 -0.563409,-0.0125 -0.838853,-0.43821 -0.262924,-0.42568 -0.187803,-0.98909 z"
       style="font-style:italic;font-variant:normal;font-weight:bold;font-stretch:normal;font-family:'Jost*';-inkscape-font-specification:'Jost* Bold Italic'"
       id="path182" />
    <path
       d="m 43.781617,142.26701 -1.652666,9.76575 h 1.87803 l 1.677706,-9.76575 z"
       style="font-style:italic;font-variant:normal;font-weight:bold;font-stretch:normal;font-family:'Jost*';-inkscape-font-specification:'Jost* Bold Italic'"
       id="path184" />
    <path
       d="m 45.555963,149.15312 q -0.100161,0.82633 0.137723,1.51494 0.250403,0.67609 0.776252,1.08926 0.538368,0.40064 1.3021,0.40064 0.600969,0 1.101777,-0.2504 0.500808,-0.26292 0.888934,-0.70113 l -0.137722,0.82633 h 1.89055 l 1.677706,-9.76575 h -1.90307 l -0.863893,5.03312 q -0.225364,-0.51333 -0.663571,-0.82634 -0.425686,-0.32552 -1.089257,-0.32552 -0.763732,0 -1.439822,0.38813 -0.663571,0.38812 -1.114298,1.07673 -0.450727,0.67609 -0.563409,1.53999 z m 1.965671,0 q 0.0626,-0.40065 0.300485,-0.72617 0.237884,-0.33805 0.575929,-0.53837 0.350565,-0.20033 0.738691,-0.18781 0.513328,0.0125 0.776253,0.42569 0.275444,0.41317 0.212843,0.96406 l -0.02504,0.16276 q -0.08764,0.3756 -0.325525,0.68861 -0.237883,0.313 -0.563408,0.48829 -0.313005,0.17528 -0.663571,0.17528 -0.563409,-0.0125 -0.838853,-0.45073 -0.275444,-0.4382 -0.187803,-1.00161 z"
       style="font-style:italic;font-variant:normal;font-weight:bold;font-stretch:normal;font-family:'Jost*';-inkscape-font-specification:'Jost* Bold Italic'"
       id="path186" />
    <path
       d="m 28.497587,156.1137 -1.489903,8.76414 h 2.416398 l 0.600969,-3.48062 h 3.280292 l -0.58845,3.48062 h 2.416398 l 1.514944,-8.76414 h -2.441438 l -0.525849,3.09249 h -3.280291 l 0.538368,-3.09249 z"
       style="font-style:italic;font-variant:normal;font-weight:800;font-stretch:normal;font-family:'Jost*';-inkscape-font-specification:'Jost* Ultra-Bold Italic'"
       id="path188" />
    <path
       d="m 39.029028,162.44892 h 4.206786 q 0.03756,-0.15024 0.0626,-0.28796 0.02504,-0.15025 0.03756,-0.26293 0.100161,-0.88893 -0.212844,-1.53998 -0.300484,-0.65105 -0.951534,-1.00162 -0.63853,-0.36308 -1.565025,-0.36308 -1.314621,0 -2.266155,0.65105 -0.939015,0.63853 -1.27706,1.72778 -0.05008,0.15025 -0.08764,0.31301 -0.02504,0.15024 -0.05008,0.313 -0.112681,0.87642 0.225364,1.56503 0.350565,0.67609 1.051696,1.06422 0.701131,0.3756 1.677707,0.3756 1.139338,0 1.92811,-0.47577 0.801292,-0.48828 1.327141,-1.25202 l -1.90307,-0.42568 q -0.225364,0.27544 -0.550889,0.46324 -0.325525,0.17529 -0.738691,0.16277 -0.438207,-0.025 -0.663571,-0.30049 -0.225363,-0.28796 -0.250404,-0.72617 z m 0.187803,-1.12682 q 0.150243,-0.38812 0.463248,-0.63853 0.313004,-0.26292 0.751211,-0.26292 0.413167,0 0.60097,0.26292 0.187803,0.26293 0.200323,0.63853 z"
       style="font-style:italic;font-variant:normal;font-weight:800;font-stretch:normal;font-family:'Jost*';-inkscape-font-specification:'Jost* Ultra-Bold Italic'"
       id="path190" />
    <path
       d="m 46.256507,161.99819 q 0.0626,-0.33804 0.262924,-0.62601 0.212844,-0.30048 0.513328,-0.47576 0.313005,-0.18781 0.651051,-0.17529 0.463247,0.0125 0.68861,0.40065 0.225364,0.38813 0.150243,0.87641 -0.05008,0.35057 -0.262924,0.65105 -0.212844,0.28797 -0.513328,0.46325 -0.287965,0.17528 -0.60097,0.16276 -0.488288,-0.025 -0.726171,-0.41316 -0.237884,-0.38813 -0.162763,-0.8639 z m -2.266155,0 q -0.100162,0.82634 0.137722,1.51495 0.250404,0.67609 0.776252,1.08926 0.538368,0.40064 1.28958,0.40064 0.588449,0 1.089257,-0.2504 0.513328,-0.26293 0.901454,-0.70113 l -0.137722,0.82633 h 2.153474 l 0.989095,-5.75929 h -2.165993 l -0.175283,1.00161 q -0.237884,-0.51332 -0.676091,-0.81381 -0.425686,-0.313 -1.089257,-0.313 -0.751212,0 -1.414782,0.38812 -0.66357,0.38813 -1.114297,1.07674 -0.450727,0.67609 -0.563409,1.53998 z"
       style="font-style:italic;font-variant:normal;font-weight:800;font-stretch:normal;font-family:'Jost*';-inkscape-font-specification:'Jost* Ultra-Bold Italic'"
       id="path192" />
    <path
       d="m 51.769502,159.11855 2.441438,6.53554 4.45719,-6.53554 h -2.316237 l -1.602585,2.8546 -0.713651,-2.8546 z"
       style="font-style:italic;font-variant:normal;font-weight:800;font-stretch:normal;font-family:'Jost*';-inkscape-font-specification:'Jost* Ultra-Bold Italic'"
       id="path194" />
    <path
       d="m 65.734606,159.11855 h -2.241115 l -1.777868,3.18013 -0.701131,-3.18013 h -2.278676 l 1.590065,5.35864 -1.89055,3.15509 h 2.191035 z"
       style="font-style:italic;font-variant:normal;font-weight:800;font-stretch:normal;font-family:'Jost*';-inkscape-font-specification:'Jost* Ultra-Bold Italic'"
       id="path196" />
    <path
       d="m 65.512958,164.01395 q 0,0.53836 0.375606,0.87641 0.388126,0.33804 0.976575,0.33804 0.58845,0 0.951535,-0.33804 0.375606,-0.33805 0.375606,-0.87641 0,-0.53837 -0.375606,-0.87642 -0.363085,-0.33804 -0.951535,-0.33804 -0.588449,0 -0.976575,0.33804 -0.375606,0.33805 -0.375606,0.87642 z m 1.364702,-7.90025 -0.563409,5.74677 h 1.802908 l 1.414782,-5.74677 z"
       style="font-style:italic;font-variant:normal;font-weight:800;font-stretch:normal;font-family:'Jost*';-inkscape-font-specification:'Jost* Ultra-Bold Italic'"
       id="path198" />
    <path
       d="m 30.6135,172.40183 0.250404,-1.37722 h 0.676091 q 0.375606,0 0.575929,0.15024 0.200323,0.15025 0.137722,0.48829 -0.0626,0.35057 -0.363086,0.55089 -0.287964,0.1878 -0.701131,0.1878 z m -0.325525,1.81543 h 0.964055 q 0.400647,0.0125 0.701131,0.1252 0.313005,0.11269 0.250404,0.52585 -0.05008,0.32553 -0.262924,0.50081 -0.200323,0.16276 -0.488287,0.22536 -0.287965,0.0626 -0.575929,0.0751 h -0.851374 z m 3.330372,-1.1143 q 0.61349,-0.28796 1.026656,-0.75121 0.425687,-0.47576 0.513329,-1.13933 0.08764,-0.58845 -0.137723,-1.01414 -0.225363,-0.42569 -0.67609,-0.70113 -0.450727,-0.27545 -1.026656,-0.40065 -0.575929,-0.13772 -1.189419,-0.13772 h -3.643377 l -1.502423,8.76414 h 4.044023 q 1.001616,0 1.840469,-0.22537 0.838853,-0.22536 1.389741,-0.75121 0.550889,-0.53837 0.676091,-1.4273 0.112682,-0.82633 -0.275444,-1.3647 -0.388126,-0.55089 -1.039177,-0.85138 z"
       style="font-style:italic;font-variant:normal;font-weight:900;font-stretch:normal;font-family:'Jost*';-inkscape-font-specification:'Jost* Heavy Italic'"
       id="path200" />
    <path
       d="m 37.237662,167.95716 -1.665186,9.76576 h 2.403878 l 1.677706,-9.76576 z"
       style="font-style:italic;font-variant:normal;font-weight:900;font-stretch:normal;font-family:'Jost*';-inkscape-font-specification:'Jost* Heavy Italic'"
       id="path202" />
    <path
       d="m 39.393092,174.84327 q -0.100161,0.82633 0.137722,1.51495 0.250404,0.67609 0.763732,1.08925 0.525849,0.40065 1.26454,0.40065 0.588449,0 1.076737,-0.23788 0.500808,-0.25041 0.888934,-0.66358 l -0.137722,0.77626 h 2.416398 l 0.989095,-5.75929 H 44.37613 l -0.162762,0.97657 q -0.237884,-0.50081 -0.688611,-0.80129 -0.438207,-0.30049 -1.089257,-0.30049 -0.738692,0 -1.389742,0.38813 -0.65105,0.38813 -1.101777,1.07674 -0.438207,0.67609 -0.550889,1.53998 z m 2.52908,0 q 0.05008,-0.28796 0.225363,-0.55089 0.187803,-0.26292 0.450727,-0.42568 0.262925,-0.16277 0.550889,-0.15025 0.400646,0.0125 0.588449,0.36309 0.200323,0.33805 0.137722,0.76373 -0.05008,0.30049 -0.237883,0.56341 -0.175283,0.26292 -0.438207,0.42569 -0.262924,0.15024 -0.538369,0.13772 -0.425686,-0.025 -0.613489,-0.37561 -0.175283,-0.36308 -0.125202,-0.75121 z"
       style="font-style:italic;font-variant:normal;font-weight:900;font-stretch:normal;font-family:'Jost*';-inkscape-font-specification:'Jost* Heavy Italic'"
       id="path204" />
    <path
       d="m 49.772335,174.84327 q 0.08764,-0.47577 0.500808,-0.81381 0.413166,-0.33805 0.964055,-0.33805 0.363086,0 0.713651,0.18781 0.363086,0.17528 0.61349,0.53837 l 0.300484,-2.20356 q -0.350565,-0.15024 -0.751211,-0.26292 -0.388126,-0.11269 -0.951535,-0.11269 -0.976575,0 -1.815429,0.36309 -0.826333,0.36309 -1.377221,1.03918 -0.538369,0.67609 -0.663571,1.60258 -0.112681,0.91398 0.262925,1.59007 0.375605,0.67609 1.101777,1.05169 0.738691,0.36309 1.690226,0.36309 0.563409,0 0.976576,-0.11268 0.413166,-0.11268 0.763731,-0.27545 l 0.287965,-2.19103 q -0.325525,0.32552 -0.751212,0.52585 -0.413166,0.20032 -0.863893,0.1878 -0.488288,-0.025 -0.788773,-0.32553 -0.287964,-0.313 -0.212843,-0.81381 z"
       style="font-style:italic;font-variant:normal;font-weight:900;font-stretch:normal;font-family:'Jost*';-inkscape-font-specification:'Jost* Heavy Italic'"
       id="path206" />
    <path
       d="m 58.289589,171.96363 -2.266155,1.94063 1.014136,-5.9471 h -2.291196 l -1.665186,9.76576 h 2.278675 l 0.513328,-2.95477 1.815429,2.95477 h 2.666802 l -2.015752,-3.33038 2.854605,-2.42891 z"
       style="font-style:italic;font-variant:normal;font-weight:900;font-stretch:normal;font-family:'Jost*';-inkscape-font-specification:'Jost* Heavy Italic'"
       id="path208" />
    <path
       d="m 62.792166,168.95878 -0.500808,5.63409 h 2.003232 l 1.439822,-5.63409 z m -1.339661,7.82512 q 0,0.58845 0.413167,0.95154 0.413166,0.36308 1.064216,0.36308 0.663571,0 1.064217,-0.36308 0.413166,-0.36309 0.413166,-0.95154 0,-0.58845 -0.413166,-0.95153 -0.400646,-0.36309 -1.064217,-0.36309 -0.65105,0 -1.064216,0.36309 -0.413167,0.36308 -0.413167,0.95153 z"
       style="font-style:italic;font-variant:normal;font-weight:900;font-stretch:normal;font-family:'Jost*';-inkscape-font-specification:'Jost* Heavy Italic'"
       id="path210" />
  </g>
</svg>
