<?xml version="1.0" encoding="UTF-8" standalone="no"?>
<svg
   xmlns:dc="http://purl.org/dc/elements/1.1/"
   xmlns:cc="http://creativecommons.org/ns#"
   xmlns:rdf="http://www.w3.org/1999/02/22-rdf-syntax-ns#"
   xmlns:svg="http://www.w3.org/2000/svg"
   xmlns="http://www.w3.org/2000/svg"
   xmlns:sodipodi="http://sodipodi.sourceforge.net/DTD/sodipodi-0.dtd"
   xmlns:inkscape="http://www.inkscape.org/namespaces/inkscape"
   viewBox="0 0 1500 140.625"
   height="150"
   width="1600"
   version="1.1"
   id="svg2"
   sodipodi:docname="char.svg"
   inkscape:version="0.92.3 (2405546, 2018-03-11)">
  <sodipodi:namedview
     pagecolor="#ffffff"
     bordercolor="#666666"
     borderopacity="1"
     objecttolerance="10"
     gridtolerance="10"
     guidetolerance="10"
     inkscape:pageopacity="0"
     inkscape:pageshadow="2"
     inkscape:window-width="1920"
     inkscape:window-height="1052"
     id="namedview47"
     showgrid="false"
     inkscape:zoom="2.0081833"
     inkscape:cx="676.46167"
     inkscape:cy="68.607417"
     inkscape:window-x="0"
     inkscape:window-y="0"
     inkscape:window-maximized="1"
     inkscape:current-layer="svg2" />
  <metadata
     id="metadata8">
    <rdf:RDF>
      <cc:Work
         rdf:about="">
        <dc:format>image/svg+xml</dc:format>
        <dc:type
           rdf:resource="http://purl.org/dc/dcmitype/StillImage" />
        <dc:title />
      </cc:Work>
    </rdf:RDF>
  </metadata>
  <defs
     id="defs6" />
  <path
     id="rect3354"
     d="M 0,0 H 1500 V 140.625 H 0 Z"
     style="fill:#f2f2f2;stroke-width:0.48412293" />
  <g
     id="flowRoot986"
     style="font-style:normal;font-variant:normal;font-weight:normal;font-stretch:normal;font-size:16.31354904px;line-height:1;font-family:'Renner*';-inkscape-font-specification:'Renner*';text-align:center;letter-spacing:0px;word-spacing:0px;text-anchor:middle;fill:#333333;fill-opacity:1;stroke:none;stroke-width:1px;stroke-linecap:butt;stroke-linejoin:miter;stroke-opacity:1"
     transform="matrix(5.9219821,0,0,5.9219821,-36.25498,-381.0961)"
     aria-label="några œstrogène año ">
    <path
       id="path1590"
       style="font-style:normal;font-variant:normal;font-weight:normal;font-stretch:normal;font-size:16.31354904px;line-height:1;font-family:'Renner*';-inkscape-font-specification:'Renner*';text-align:center;text-anchor:middle;fill:#333333"
       d="m 51.961464,73.374995 q 0,-1.876058 -1.598728,-1.876058 -0.848305,0 -1.386652,0.538347 -0.522033,0.522033 -0.522033,1.337711 v 4.567794 h -1.305084 v -7.504233 h 1.305084 v 1.190889 q 0.750423,-1.354025 2.234956,-1.354025 1.190889,0 1.876058,0.766737 0.701483,0.750424 0.701483,2.169702 v 4.73093 h -1.305084 z"
       inkscape:connector-curvature="0" />
    <path
       id="path1592"
       style="font-style:normal;font-variant:normal;font-weight:normal;font-stretch:normal;font-size:16.31354904px;line-height:1;font-family:'Renner*';-inkscape-font-specification:'Renner*';text-align:center;text-anchor:middle;fill:#333333"
       d="m 57.954909,67.045338 q -0.244703,0.228389 -0.244703,0.619915 0,0.391525 0.244703,0.636228 0.261017,0.22839 0.587288,0.22839 0.326271,0 0.570974,-0.22839 0.261017,-0.244703 0.261017,-0.636228 0,-0.391526 -0.261017,-0.619915 -0.244703,-0.244703 -0.570974,-0.244703 -0.326271,0 -0.587288,0.244703 z m -0.587288,1.79449 q -0.489406,-0.473093 -0.489406,-1.174575 0,-0.701483 0.489406,-1.158262 0.50572,-0.473093 1.174576,-0.473093 0.668855,0 1.158262,0.473093 0.50572,0.456779 0.50572,1.158262 0,0.701482 -0.50572,1.174575 -0.489407,0.45678 -1.158262,0.45678 -0.668856,0 -1.174576,-0.45678 z m -1.060381,3.360591 -0.636228,-0.995126 q 1.272457,-0.929873 2.871185,-0.929873 1.305083,0 2.088134,0.603602 0.799364,0.603601 0.799364,1.680295 v 5.383472 h -1.305084 v -1.076695 q -0.342585,0.587288 -1.027754,0.913559 -0.668855,0.326271 -1.533473,0.326271 -1.174576,0 -1.876059,-0.587288 -0.701482,-0.603601 -0.701482,-1.615041 0,-1.256143 0.880931,-1.941312 0.897246,-0.685169 2.316524,-0.685169 1.125635,0 1.941313,0.538347 v -1.256144 q 0,-0.538347 -0.473093,-0.831991 -0.456779,-0.309957 -1.109321,-0.309957 -1.158262,0 -2.234957,0.78305 z m 0,3.54004 q 0,1.207203 1.582415,1.207203 2.234956,0 2.234956,-1.941312 v -0.293644 q -0.848305,-0.440466 -1.876058,-0.440466 -1.941313,0 -1.941313,1.468219 z"
       inkscape:connector-curvature="0" />
    <path
       id="path1594"
       style="font-style:normal;font-variant:normal;font-weight:normal;font-stretch:normal;font-size:16.31354904px;line-height:1;font-family:'Renner*';-inkscape-font-specification:'Renner*';text-align:center;text-anchor:middle;fill:#333333"
       d="m 65.024794,72.216733 q -0.734109,0.717796 -0.734109,1.973939 0,1.256144 0.734109,1.97394 0.73411,0.717796 1.827118,0.717796 0.929872,0 1.663982,-0.73411 0.734109,-0.73411 0.734109,-1.957626 0,-1.223516 -0.734109,-1.957626 -0.73411,-0.734109 -1.663982,-0.734109 -1.093008,0 -1.827118,0.717796 z m -0.995126,4.82881 q -1.060381,-1.076694 -1.060381,-2.854871 0,-1.778177 1.060381,-2.838557 1.076694,-1.076695 2.659108,-1.076695 1.696609,0 2.561227,1.451906 v -1.28877 h 1.305084 v 7.341097 q 0,1.843431 -1.109321,2.871185 -1.093008,1.044067 -2.610168,1.044067 -1.647668,0 -2.691735,-0.913559 -1.027754,-0.897245 -1.027754,-2.349151 h 1.321397 q 0,0.831991 0.668856,1.435592 0.668855,0.603602 1.729236,0.603602 0.9625,0 1.680296,-0.685169 0.734109,-0.685169 0.734109,-2.006567 v -1.125635 q -0.864618,1.451906 -2.561227,1.451906 -1.582414,0 -2.659108,-1.060381 z"
       inkscape:connector-curvature="0" />
    <path
       id="path1596"
       style="font-style:normal;font-variant:normal;font-weight:normal;font-stretch:normal;font-size:16.31354904px;line-height:1;font-family:'Renner*';-inkscape-font-specification:'Renner*';text-align:center;text-anchor:middle;fill:#333333"
       d="m 76.498316,71.874148 q -0.522034,-0.375211 -1.01144,-0.375211 -1.256143,0 -1.256143,1.876058 v 4.567794 h -1.305084 v -7.504233 h 1.305084 v 0.864618 q 0.685169,-1.027754 1.582414,-1.027754 0.897245,0 1.402965,0.522034 z"
       inkscape:connector-curvature="0" />
    <path
       id="path1598"
       style="font-style:normal;font-variant:normal;font-weight:normal;font-stretch:normal;font-size:16.31354904px;line-height:1;font-family:'Renner*';-inkscape-font-specification:'Renner*';text-align:center;text-anchor:middle;fill:#333333"
       d="M 79.120719,72.200419 78.48449,71.205293 q 1.272457,-0.929873 2.871185,-0.929873 1.305084,0 2.088134,0.603602 0.799364,0.603601 0.799364,1.680295 v 5.383472 h -1.305084 v -1.076695 q -0.342584,0.587288 -1.027753,0.913559 -0.668856,0.326271 -1.533474,0.326271 -1.174575,0 -1.876058,-0.587288 -0.701483,-0.603601 -0.701483,-1.615041 0,-1.256143 0.880932,-1.941312 0.897245,-0.685169 2.316524,-0.685169 1.125635,0 1.941312,0.538347 v -1.256144 q 0,-0.538347 -0.473093,-0.831991 -0.456779,-0.309957 -1.109321,-0.309957 -1.158262,0 -2.234956,0.78305 z m 0,3.54004 q 0,1.207203 1.582414,1.207203 2.234956,0 2.234956,-1.941312 v -0.293644 q -0.848304,-0.440466 -1.876058,-0.440466 -1.941312,0 -1.941312,1.468219 z"
       inkscape:connector-curvature="0" />
    <path
       id="path1618"
       style="font-style:normal;font-variant:normal;font-weight:normal;font-stretch:normal;font-size:16.31354904px;line-height:1;font-family:'Renner*';-inkscape-font-specification:'Renner*';text-align:center;text-anchor:middle;fill:#333333"
       d="m 196.30938,72.200419 -0.63623,-0.995126 q 1.27246,-0.929873 2.87119,-0.929873 1.30508,0 2.08813,0.603602 0.79937,0.603601 0.79937,1.680295 v 5.383472 h -1.30509 v -1.076695 q -0.34258,0.587288 -1.02775,0.913559 -0.66886,0.326271 -1.53348,0.326271 -1.17457,0 -1.87605,-0.587288 -0.70149,-0.603601 -0.70149,-1.615041 0,-1.256143 0.88094,-1.941312 0.89724,-0.685169 2.31652,-0.685169 1.12563,0 1.94131,0.538347 v -1.256144 q 0,-0.538347 -0.47309,-0.831991 -0.45678,-0.309957 -1.10932,-0.309957 -1.15826,0 -2.23496,0.78305 z m 0,3.54004 q 0,1.207203 1.58242,1.207203 2.23495,0 2.23495,-1.941312 v -0.293644 q -0.8483,-0.440466 -1.87606,-0.440466 -1.94131,0 -1.94131,1.468219 z"
       inkscape:connector-curvature="0" />
    <path
       id="path1620"
       style="font-style:normal;font-variant:normal;font-weight:normal;font-stretch:normal;font-size:16.31354904px;line-height:1;font-family:'Renner*';-inkscape-font-specification:'Renner*';text-align:center;text-anchor:middle;fill:#333333"
       d="m 203.99918,68.693006 q 0.1142,-0.587288 0.61992,-0.962499 0.50572,-0.375212 1.07669,-0.375212 0.55466,0 1.0767,0.391525 0.52203,0.375212 0.94618,0.375212 0.42415,0 0.91356,-0.78305 l 0.75042,0.701482 q -0.21207,0.489407 -0.68516,0.848305 -0.4731,0.342584 -1.04407,0.342584 -0.47309,0 -1.06038,-0.375211 -0.57098,-0.391525 -0.91356,-0.391525 -0.44047,0 -0.63623,0.27733 -0.17945,0.27733 -0.17945,0.554661 z m 4.43729,4.681989 q 0,-1.876058 -1.59873,-1.876058 -0.8483,0 -1.38665,0.538347 -0.52203,0.522033 -0.52203,1.337711 v 4.567794 h -1.30509 v -7.504233 h 1.30509 v 1.01144 q 0.83199,-1.174576 2.23495,-1.174576 1.19089,0 1.87606,0.766737 0.70148,0.750424 0.70148,2.169702 v 4.73093 h -1.30508 z"
       inkscape:connector-curvature="0" />
    <path
       id="path1622"
       style="font-style:normal;font-variant:normal;font-weight:normal;font-stretch:normal;font-size:16.31354904px;line-height:1;font-family:'Renner*';-inkscape-font-specification:'Renner*';text-align:center;text-anchor:middle;fill:#333333"
       d="m 213.58161,72.265673 q -0.7178,0.750424 -0.7178,1.924999 0,1.174576 0.7178,1.941313 0.73411,0.750423 1.84343,0.750423 1.10932,0 1.82712,-0.750423 0.73411,-0.766737 0.73411,-1.941313 0,-1.174575 -0.73411,-1.924999 -0.7178,-0.766736 -1.82712,-0.766736 -1.10932,0 -1.84343,0.766736 z m -0.92987,4.73093 q -1.10933,-1.109322 -1.10933,-2.805931 0,-1.696609 1.10933,-2.80593 1.10932,-1.109322 2.7733,-1.109322 1.66398,0 2.7733,1.109322 1.10932,1.109321 1.10932,2.80593 0,1.696609 -1.10932,2.805931 -1.10932,1.109321 -2.7733,1.109321 -1.66398,0 -2.7733,-1.109321 z"
       inkscape:connector-curvature="0" />
  </g>
  <g
     id="flowRoot1216"
     style="font-style:normal;font-variant:normal;font-weight:500;font-stretch:normal;font-size:4.22155952px;line-height:1;font-family:'Renner*';-inkscape-font-specification:'Renner* Medium';text-align:start;letter-spacing:0px;word-spacing:0px;text-anchor:start;fill:#333333;fill-opacity:1;stroke:none;stroke-width:1px;stroke-linecap:butt;stroke-linejoin:miter;stroke-opacity:1"
     transform="matrix(5.9219821,0,0,5.9219821,160.62002,-268.5961)"
     aria-label="swedish ">
    <path
       id="path1625"
       style="font-style:normal;font-variant:normal;font-weight:500;font-stretch:normal;font-size:4.22155952px;line-height:1;font-family:'Renner*';-inkscape-font-specification:'Renner* Medium';text-align:center;text-anchor:middle;fill:#333333"
       d="m 26.428203,67.801469 q 0.105539,0.177305 0.253294,0.274401 0.151976,0.0971 0.303952,0.0971 0.278623,0 0.278623,-0.198413 0,-0.03799 -0.01266,-0.07177 -0.01267,-0.03377 -0.04644,-0.06332 -0.02955,-0.02955 -0.05488,-0.05066 -0.02533,-0.02111 -0.08021,-0.04644 -0.05066,-0.02533 -0.08021,-0.03799 -0.02955,-0.01266 -0.101318,-0.03799 -0.06754,-0.02955 -0.09287,-0.04222 -0.118204,-0.05066 -0.198413,-0.09287 -0.07599,-0.04222 -0.164641,-0.109761 -0.08443,-0.06754 -0.126647,-0.160419 -0.04221,-0.09287 -0.04221,-0.211078 0,-0.24485 0.202634,-0.388383 0.202635,-0.143533 0.48548,-0.143533 0.236407,0 0.443264,0.0971 0.211078,0.09709 0.308173,0.24485 l -0.253293,0.27018 q -0.08865,-0.101318 -0.227964,-0.164641 -0.13509,-0.06754 -0.253294,-0.06754 -0.257515,0 -0.257515,0.173084 0,0.02955 0.01266,0.05488 0.01266,0.02533 0.04221,0.05066 0.03377,0.02111 0.06332,0.04222 0.02955,0.01689 0.08021,0.04221 0.05488,0.02111 0.08865,0.03799 0.03799,0.01266 0.101317,0.03799 0.06332,0.02533 0.0971,0.03799 0.536138,0.2153 0.536138,0.578354 0,0.607904 -0.726108,0.607904 -0.282844,0 -0.519252,-0.139311 -0.236407,-0.139311 -0.337724,-0.358833 z"
       inkscape:connector-curvature="0" />
    <path
       id="path1627"
       style="font-style:normal;font-variant:normal;font-weight:500;font-stretch:normal;font-size:4.22155952px;line-height:1;font-family:'Renner*';-inkscape-font-specification:'Renner* Medium';text-align:center;text-anchor:middle;fill:#333333"
       d="m 27.821186,66.56033 h 0.498144 l 0.451707,1.152486 0.536138,-1.30024 0.569911,1.308683 0.455928,-1.160929 h 0.493923 l -0.903414,2.077008 -0.612126,-1.312905 -0.582575,1.312905 z"
       inkscape:connector-curvature="0" />
    <path
       id="path1629"
       style="font-style:normal;font-variant:normal;font-weight:500;font-stretch:normal;font-size:4.22155952px;line-height:1;font-family:'Renner*';-inkscape-font-specification:'Renner* Medium';text-align:center;text-anchor:middle;fill:#333333"
       d="m 32.398478,67.320211 q -0.02533,-0.2153 -0.147755,-0.333503 -0.122425,-0.122425 -0.333503,-0.122425 -0.211078,0 -0.358832,0.122425 -0.143533,0.122425 -0.173084,0.333503 z m -1.021617,0.316617 q 0.02533,0.261737 0.168862,0.396827 0.143533,0.135089 0.375719,0.135089 0.371497,0 0.557246,-0.308173 l 0.396826,0.160419 q -0.160419,0.257515 -0.384162,0.392605 -0.219521,0.130868 -0.591018,0.130868 -0.443264,0 -0.717665,-0.282844 -0.274401,-0.287066 -0.274401,-0.73033 0,-0.118204 0.01689,-0.206856 0.06332,-0.367276 0.32506,-0.586797 0.261737,-0.219521 0.671228,-0.219521 0.447485,0 0.709222,0.265958 0.261737,0.265958 0.261737,0.726108 0,0.03377 -0.0084,0.126647 z"
       inkscape:connector-curvature="0" />
    <path
       id="path1631"
       style="font-style:normal;font-variant:normal;font-weight:500;font-stretch:normal;font-size:4.22155952px;line-height:1;font-family:'Renner*';-inkscape-font-specification:'Renner* Medium';text-align:center;text-anchor:middle;fill:#333333"
       d="m 33.450108,68.270062 q -0.274401,-0.274402 -0.274401,-0.738773 0,-0.464372 0.274401,-0.738773 0.274402,-0.274401 0.671228,-0.274401 0.430599,0 0.662785,0.363054 v -1.671738 h 0.46015 v 3.292817 h -0.46015 v -0.320839 q -0.232186,0.363054 -0.662785,0.363054 -0.396826,0 -0.671228,-0.274401 z m 0.367276,-1.186258 q -0.168862,0.16464 -0.168862,0.447485 0,0.282844 0.168862,0.451707 0.168862,0.164641 0.413713,0.164641 0.215299,0 0.384162,-0.168863 0.168862,-0.168862 0.168862,-0.447485 0,-0.278623 -0.168862,-0.447485 -0.168863,-0.168863 -0.384162,-0.168863 -0.244851,0 -0.413713,0.168863 z"
       inkscape:connector-curvature="0" />
    <path
       id="path1633"
       style="font-style:normal;font-variant:normal;font-weight:500;font-stretch:normal;font-size:4.22155952px;line-height:1;font-family:'Renner*';-inkscape-font-specification:'Renner* Medium';text-align:center;text-anchor:middle;fill:#333333"
       d="m 35.8686,65.986198 q -0.08021,-0.08021 -0.08021,-0.198413 0,-0.118204 0.08021,-0.198413 0.08443,-0.08021 0.206857,-0.08021 0.122425,0 0.206856,0.08021 0.08443,0.08021 0.08443,0.198413 0,0.118204 -0.08443,0.198413 -0.08443,0.08021 -0.206856,0.08021 -0.122426,0 -0.206857,-0.08021 z m -0.01689,0.574132 h 0.447485 v 1.941918 H 35.85171 Z"
       inkscape:connector-curvature="0" />
    <path
       id="path1635"
       style="font-style:normal;font-variant:normal;font-weight:500;font-stretch:normal;font-size:4.22155952px;line-height:1;font-family:'Renner*';-inkscape-font-specification:'Renner* Medium';text-align:center;text-anchor:middle;fill:#333333"
       d="m 37.006838,67.801469 q 0.105539,0.177305 0.253293,0.274401 0.151976,0.0971 0.303953,0.0971 0.278623,0 0.278623,-0.198413 0,-0.03799 -0.01266,-0.07177 -0.01266,-0.03377 -0.04644,-0.06332 -0.02955,-0.02955 -0.05488,-0.05066 -0.02533,-0.02111 -0.08021,-0.04644 -0.05066,-0.02533 -0.08021,-0.03799 -0.02955,-0.01266 -0.101317,-0.03799 -0.06755,-0.02955 -0.09287,-0.04222 -0.118203,-0.05066 -0.198413,-0.09287 -0.07599,-0.04222 -0.164641,-0.109761 -0.08443,-0.06754 -0.126647,-0.160419 -0.04221,-0.09287 -0.04221,-0.211078 0,-0.24485 0.202635,-0.388383 0.202635,-0.143533 0.485479,-0.143533 0.236407,0 0.443264,0.0971 0.211078,0.09709 0.308174,0.24485 l -0.253294,0.27018 q -0.08865,-0.101318 -0.227964,-0.164641 -0.13509,-0.06754 -0.253294,-0.06754 -0.257515,0 -0.257515,0.173084 0,0.02955 0.01266,0.05488 0.01267,0.02533 0.04222,0.05066 0.03377,0.02111 0.06332,0.04222 0.02955,0.01689 0.08021,0.04221 0.05488,0.02111 0.08865,0.03799 0.03799,0.01266 0.101318,0.03799 0.06332,0.02533 0.0971,0.03799 0.536138,0.2153 0.536138,0.578354 0,0.607904 -0.726109,0.607904 -0.282844,0 -0.519251,-0.139311 -0.236408,-0.139311 -0.337725,-0.358833 z"
       inkscape:connector-curvature="0" />
    <path
       id="path1637"
       style="font-style:normal;font-variant:normal;font-weight:500;font-stretch:normal;font-size:4.22155952px;line-height:1;font-family:'Renner*';-inkscape-font-specification:'Renner* Medium';text-align:center;text-anchor:middle;fill:#333333"
       d="m 39.965426,67.320211 q 0,-0.434821 -0.358833,-0.434821 -0.194192,0 -0.312395,0.122426 -0.118204,0.118203 -0.118204,0.312395 v 1.182037 h -0.46015 v -3.292817 h 0.46015 v 1.642187 q 0.185749,-0.346168 0.582575,-0.346168 0.32506,0 0.493923,0.194192 0.173084,0.18997 0.173084,0.557246 v 1.24536 h -0.46015 z"
       inkscape:connector-curvature="0" />
  </g>
  <g
     id="flowRoot1232"
     style="font-style:normal;font-variant:normal;font-weight:500;font-stretch:normal;font-size:4.22155952px;line-height:1;font-family:'Renner*';-inkscape-font-specification:'Renner* Medium';text-align:start;letter-spacing:0px;word-spacing:0px;text-anchor:start;fill:#333333;fill-opacity:1;stroke:none;stroke-width:1px;stroke-linecap:butt;stroke-linejoin:miter;stroke-opacity:1"
     transform="matrix(5.9219821,0,0,5.9219821,1004.37,-268.5961)"
     aria-label="spanish">
    <path
       id="path1653"
       style="font-style:normal;font-variant:normal;font-weight:500;font-stretch:normal;font-size:4.22155952px;line-height:1;font-family:'Renner*';-inkscape-font-specification:'Renner* Medium';text-align:center;text-anchor:middle;fill:#333333"
       d="m 24.636153,67.801469 q 0.105539,0.177305 0.253294,0.274401 0.151976,0.0971 0.303952,0.0971 0.278623,0 0.278623,-0.198413 0,-0.03799 -0.01266,-0.07177 -0.01267,-0.03377 -0.04644,-0.06332 -0.02955,-0.02955 -0.05488,-0.05066 -0.02533,-0.02111 -0.08021,-0.04644 -0.05066,-0.02533 -0.08021,-0.03799 -0.02955,-0.01266 -0.101317,-0.03799 -0.06754,-0.02955 -0.09287,-0.04222 -0.118204,-0.05066 -0.198414,-0.09287 -0.07599,-0.04222 -0.16464,-0.109761 -0.08443,-0.06754 -0.126647,-0.160419 -0.04222,-0.09287 -0.04222,-0.211078 0,-0.24485 0.202635,-0.388383 0.202635,-0.143533 0.485479,-0.143533 0.236408,0 0.443264,0.0971 0.211078,0.09709 0.308174,0.24485 l -0.253294,0.27018 q -0.08865,-0.101318 -0.227964,-0.164641 -0.13509,-0.06754 -0.253293,-0.06754 -0.257515,0 -0.257515,0.173084 0,0.02955 0.01266,0.05488 0.01267,0.02533 0.04222,0.05066 0.03377,0.02111 0.06332,0.04222 0.02955,0.01689 0.08021,0.04221 0.05488,0.02111 0.08865,0.03799 0.03799,0.01266 0.101317,0.03799 0.06332,0.02533 0.0971,0.03799 0.536138,0.2153 0.536138,0.578354 0,0.607904 -0.726108,0.607904 -0.282845,0 -0.519252,-0.139311 -0.236407,-0.139311 -0.337725,-0.358833 z"
       inkscape:connector-curvature="0" />
    <path
       id="path1655"
       style="font-style:normal;font-variant:normal;font-weight:500;font-stretch:normal;font-size:4.22155952px;line-height:1;font-family:'Renner*';-inkscape-font-specification:'Renner* Medium';text-align:center;text-anchor:middle;fill:#333333"
       d="m 28.122436,66.788294 q 0.274401,0.274402 0.274401,0.742995 0,0.468593 -0.274401,0.747216 -0.274402,0.274401 -0.671228,0.274401 -0.443264,0 -0.662785,-0.375718 v 1.253803 h -0.46015 V 66.56033 h 0.46015 v 0.32506 q 0.219521,-0.375718 0.662785,-0.375718 0.396826,0 0.671228,0.278622 z m -0.367276,1.19048 q 0.168862,-0.164641 0.168862,-0.447485 0,-0.282845 -0.168862,-0.443264 -0.168862,-0.164641 -0.417934,-0.164641 -0.2153,0 -0.384162,0.164641 -0.164641,0.164641 -0.164641,0.443264 0,0.278623 0.164641,0.443264 0.168862,0.164641 0.384162,0.164641 0.249072,0 0.417934,-0.16042 z"
       inkscape:connector-curvature="0" />
    <path
       id="path1657"
       style="font-style:normal;font-variant:normal;font-weight:500;font-stretch:normal;font-size:4.22155952px;line-height:1;font-family:'Renner*';-inkscape-font-specification:'Renner* Medium';text-align:center;text-anchor:middle;fill:#333333"
       d="m 29.11404,67.928116 q 0,0.270179 0.358833,0.270179 0.519252,0 0.519252,-0.464371 v -0.03799 q -0.18997,-0.0971 -0.439042,-0.0971 -0.2153,0 -0.329282,0.08865 -0.109761,0.08443 -0.109761,0.240629 z m -0.0971,-0.852755 -0.185748,-0.329282 q 0.388383,-0.232186 0.797875,-0.232186 0.363054,0 0.586796,0.160419 0.223743,0.16042 0.223743,0.443264 v 1.384672 h -0.447485 v -0.278623 q -0.08443,0.151976 -0.261737,0.236407 -0.173084,0.08443 -0.396827,0.08443 -0.312395,0 -0.498144,-0.151976 -0.181527,-0.156198 -0.181527,-0.422156 0,-0.316617 0.227965,-0.489701 0.232185,-0.173084 0.603683,-0.173084 0.278623,0 0.506587,0.130869 v -0.27018 q 0,-0.130869 -0.109761,-0.206857 -0.10976,-0.07599 -0.274401,-0.07599 -0.312396,0 -0.591019,0.189971 z"
       inkscape:connector-curvature="0" />
    <path
       id="path1659"
       style="font-style:normal;font-variant:normal;font-weight:500;font-stretch:normal;font-size:4.22155952px;line-height:1;font-family:'Renner*';-inkscape-font-specification:'Renner* Medium';text-align:center;text-anchor:middle;fill:#333333"
       d="m 32.220317,67.320211 q 0,-0.434821 -0.358833,-0.434821 -0.194192,0 -0.312395,0.122426 -0.118204,0.118203 -0.118204,0.312395 v 1.182037 h -0.46015 V 66.56033 h 0.46015 v 0.299731 q 0.185749,-0.341946 0.582575,-0.341946 0.32506,0 0.498144,0.194191 0.177306,0.189971 0.177306,0.557246 v 1.232696 h -0.468593 z"
       inkscape:connector-curvature="0" />
    <path
       id="path1661"
       style="font-style:normal;font-variant:normal;font-weight:500;font-stretch:normal;font-size:4.22155952px;line-height:1;font-family:'Renner*';-inkscape-font-specification:'Renner* Medium';text-align:center;text-anchor:middle;fill:#333333"
       d="m 33.334479,65.986198 q -0.08021,-0.08021 -0.08021,-0.198413 0,-0.118204 0.08021,-0.198413 0.08443,-0.08021 0.206856,-0.08021 0.122425,0 0.206856,0.08021 0.08443,0.08021 0.08443,0.198413 0,0.118204 -0.08443,0.198413 -0.08443,0.08021 -0.206856,0.08021 -0.122425,0 -0.206856,-0.08021 z m -0.01689,0.574132 h 0.447486 v 1.941918 h -0.447486 z"
       inkscape:connector-curvature="0" />
    <path
       id="path1663"
       style="font-style:normal;font-variant:normal;font-weight:500;font-stretch:normal;font-size:4.22155952px;line-height:1;font-family:'Renner*';-inkscape-font-specification:'Renner* Medium';text-align:center;text-anchor:middle;fill:#333333"
       d="m 34.472716,67.801469 q 0.105539,0.177305 0.253294,0.274401 0.151976,0.0971 0.303952,0.0971 0.278623,0 0.278623,-0.198413 0,-0.03799 -0.01266,-0.07177 -0.01266,-0.03377 -0.04644,-0.06332 -0.02955,-0.02955 -0.05488,-0.05066 -0.02533,-0.02111 -0.08021,-0.04644 -0.05066,-0.02533 -0.08021,-0.03799 -0.02955,-0.01266 -0.101318,-0.03799 -0.06754,-0.02955 -0.09287,-0.04222 -0.118204,-0.05066 -0.198413,-0.09287 -0.07599,-0.04222 -0.164641,-0.109761 -0.08443,-0.06754 -0.126647,-0.160419 -0.04222,-0.09287 -0.04222,-0.211078 0,-0.24485 0.202635,-0.388383 0.202635,-0.143533 0.48548,-0.143533 0.236407,0 0.443263,0.0971 0.211078,0.09709 0.308174,0.24485 l -0.253293,0.27018 q -0.08865,-0.101318 -0.227965,-0.164641 -0.13509,-0.06754 -0.253293,-0.06754 -0.257515,0 -0.257515,0.173084 0,0.02955 0.01266,0.05488 0.01266,0.02533 0.04222,0.05066 0.03377,0.02111 0.06332,0.04222 0.02955,0.01689 0.08021,0.04221 0.05488,0.02111 0.08865,0.03799 0.03799,0.01266 0.101317,0.03799 0.06332,0.02533 0.0971,0.03799 0.536138,0.2153 0.536138,0.578354 0,0.607904 -0.726108,0.607904 -0.282845,0 -0.519252,-0.139311 -0.236407,-0.139311 -0.337725,-0.358833 z"
       inkscape:connector-curvature="0" />
    <path
       id="path1665"
       style="font-style:normal;font-variant:normal;font-weight:500;font-stretch:normal;font-size:4.22155952px;line-height:1;font-family:'Renner*';-inkscape-font-specification:'Renner* Medium';text-align:center;text-anchor:middle;fill:#333333"
       d="m 37.431304,67.320211 q 0,-0.434821 -0.358832,-0.434821 -0.194192,0 -0.312396,0.122426 -0.118203,0.118203 -0.118203,0.312395 v 1.182037 h -0.46015 v -3.292817 h 0.46015 v 1.642187 q 0.185748,-0.346168 0.582575,-0.346168 0.32506,0 0.493922,0.194192 0.173084,0.18997 0.173084,0.557246 v 1.24536 h -0.46015 z"
       inkscape:connector-curvature="0" />
  </g>
  <g
     aria-label="экранизация"
     transform="matrix(2.3994291,0,0,2.3994291,-1364.2676,526.59012)"
     style="font-style:normal;font-variant:normal;font-weight:normal;font-stretch:normal;font-size:40px;line-height:1.25;font-family:'Jost*';-inkscape-font-specification:'Jost*';font-variant-ligatures:normal;font-variant-caps:normal;font-variant-numeric:normal;font-feature-settings:normal;text-align:center;letter-spacing:0px;word-spacing:0px;writing-mode:lr-tb;text-anchor:middle;fill:#333333;fill-opacity:1;stroke:none"
     id="flowRoot49">
    <path
       d="m 789.61477,-196.72799 h 9.04 q -0.44,-2.28 -2.12,-3.68 -1.68,-1.44 -4,-1.44 -2.2,0 -4,1 -1.76,1 -2.4,2.36 v -4 q 0.96,-1.12 2.72,-1.72 1.8,-0.64 3.68,-0.64 2.72,0 4.84,1.24 2.16,1.24 3.4,3.4 1.28,2.16 1.28,4.96 0,2.76 -1.28,4.96 -1.24,2.16 -3.4,3.4 -2.12,1.24 -4.84,1.24 -1.88,0 -3.68,-0.6 -1.76,-0.64 -2.72,-1.76 v -4 q 0.64,1.36 2.4,2.36 1.8,1 4,1 2.32,0 4,-1.4 1.68,-1.44 2.12,-3.72 h -9.04 z"
       id="path59"
       inkscape:connector-curvature="0" />
    <path
       d="m 806.07539,-204.44799 h 3.2 v 6.44 l 6.8,-6.44 h 4 l -8,7.6 8.8,10.8 h -4 l -7.6,-9.32 v 9.32 h -3.2 z"
       id="path61"
       inkscape:connector-curvature="0" />
    <path
       d="m 826.85352,-177.24799 h -3.2 v -27.2 h 3.2 v 3.16 q 1,-1.72 2.6,-2.64 1.64,-0.92 3.68,-0.92 2.52,0 4.56,1.16 2.08,1.16 3.32,3.32 1.24,2.12 1.24,5.12 0,2.96 -1.24,5.12 -1.24,2.16 -3.32,3.32 -2.04,1.16 -4.56,1.16 -2.04,0 -3.68,-0.92 -1.6,-0.92 -2.6,-2.64 z m 12.16,-18 q 0,-2.12 -0.88,-3.6 -0.84,-1.48 -2.28,-2.24 -1.4,-0.76 -3.12,-0.76 -1.4,0 -2.76,0.76 -1.36,0.76 -2.24,2.24 -0.88,1.48 -0.88,3.6 0,2.12 0.88,3.6 0.88,1.48 2.24,2.24 1.36,0.76 2.76,0.76 1.72,0 3.12,-0.76 1.44,-0.76 2.28,-2.24 0.88,-1.48 0.88,-3.6 z"
       id="path63"
       inkscape:connector-curvature="0" />
    <path
       d="m 848.10602,-200.12799 -1.56,-2.44 q 1.04,-0.76 2.8,-1.52 1.76,-0.76 4.24,-0.76 3.16,0 5.12,1.48 1.96,1.44 1.96,4.12 v 13.2 h -3.2 v -2.64 q -0.84,1.48 -2.52,2.28 -1.68,0.76 -3.76,0.76 -1.72,0 -3.16,-0.64 -1.44,-0.64 -2.32,-1.88 -0.84,-1.28 -0.84,-3.16 0,-2.92 2.08,-4.52 2.12,-1.64 5.76,-1.64 1.6,0 2.8,0.4 1.2,0.4 1.96,0.92 v -3.08 q 0,-1.4 -1.2,-2.08 -1.16,-0.72 -2.68,-0.72 -1.96,0 -3.4,0.72 -1.4,0.72 -2.08,1.2 z m 0,8.68 q 0,1.48 1.12,2.24 1.16,0.72 2.76,0.72 2.4,0 3.92,-1.08 1.56,-1.12 1.56,-3.68 v -0.72 q -2.04,-1.08 -4.6,-1.08 -2.44,0 -3.6,0.96 -1.16,0.96 -1.16,2.64 z"
       id="path65"
       inkscape:connector-curvature="0" />
    <path
       d="m 866.04102,-204.44799 h 3.2 v 7.2 h 10.2 v -7.2 h 3.2 v 18.4 h -3.2 v -8.2 h -10.2 v 8.2 h -3.2 z"
       id="path67"
       inkscape:connector-curvature="0" />
    <path
       d="m 892.01914,-204.44799 v 11.92 l 12.2,-13.32 v 19.8 h -3.2 v -11.92 l -12.2,13.32 v -19.8 z"
       id="path69"
       inkscape:connector-curvature="0" />
    <path
       d="m 917.33602,-185.64799 q -3.16,0 -5.2,-1.76 -2,-1.76 -2.32,-4.44 h 3.24 q 0.32,1.36 1.24,2.4 0.96,1 3.04,1 1.8,0 2.96,-0.8 1.2,-0.84 1.2,-2.2 0,-1.4 -1.12,-2.2 -1.12,-0.8 -3.24,-0.8 v -2.8 q 1.8,0 2.6,-0.68 0.84,-0.68 0.84,-1.76 0,-1.08 -0.92,-1.68 -0.88,-0.6 -2.08,-0.6 -1.68,0 -2.52,1 -0.8,0.96 -0.8,1.88 h -3.24 q 0,-1.6 0.84,-2.88 0.88,-1.32 2.32,-2.08 1.44,-0.8 3.12,-0.8 2,0 3.48,0.8 1.48,0.76 2.28,2 0.8,1.24 0.8,2.64 0,2.6 -2.8,3.6 1.64,0.6 2.6,1.72 1,1.08 1,2.64 0,1.76 -1.04,3.08 -1.04,1.32 -2.72,2.04 -1.64,0.68 -3.56,0.68 z"
       id="path71"
       inkscape:connector-curvature="0" />
    <path
       d="m 930.91852,-200.12799 -1.56,-2.44 q 1.04,-0.76 2.8,-1.52 1.76,-0.76 4.24,-0.76 3.16,0 5.12,1.48 1.96,1.44 1.96,4.12 v 13.2 h -3.2 v -2.64 q -0.84,1.48 -2.52,2.28 -1.68,0.76 -3.76,0.76 -1.72,0 -3.16,-0.64 -1.44,-0.64 -2.32,-1.88 -0.84,-1.28 -0.84,-3.16 0,-2.92 2.08,-4.52 2.12,-1.64 5.76,-1.64 1.6,0 2.8,0.4 1.2,0.4 1.96,0.92 v -3.08 q 0,-1.4 -1.2,-2.08 -1.16,-0.72 -2.68,-0.72 -1.96,0 -3.4,0.72 -1.4,0.72 -2.08,1.2 z m 0,8.68 q 0,1.48 1.12,2.24 1.16,0.72 2.76,0.72 2.4,0 3.92,-1.08 1.56,-1.12 1.56,-3.68 v -0.72 q -2.04,-1.08 -4.6,-1.08 -2.44,0 -3.6,0.96 -1.16,0.96 -1.16,2.64 z"
       id="path73"
       inkscape:connector-curvature="0" />
    <path
       d="m 963.85352,-189.04799 h 3.2 v 6.6 h -2.8 v -3.6 h -15.4 v -18.4 h 3.2 v 15.4 h 8.6 v -15.4 h 3.2 z"
       id="path75"
       inkscape:connector-curvature="0" />
    <path
       d="m 974.83164,-204.44799 v 11.92 l 12.2,-13.32 v 19.8 h -3.2 v -11.92 l -12.2,13.32 v -19.8 z"
       id="path77"
       inkscape:connector-curvature="0" />
    <path
       d="m 995.86852,-186.04799 h -3.52 l 5.36,-7.56 q -2,-0.4 -3.24,-1.68 -1.24,-1.28 -1.24,-3.64 0,-2 0.88,-3.2 0.88,-1.2 2.4,-1.76 1.56,-0.56 3.44,-0.56 h 7.59998 v 18.4 h -3.2 v -7.36 h -3.28 z m 4.08,-10.16 h 4.39998 v -5.44 h -4.39998 q -3.52,0 -3.52,2.72 0,2.72 3.52,2.72 z"
       id="path79"
       inkscape:connector-curvature="0" />
  </g>
  <g
     aria-label="russian"
     transform="matrix(0.62543416,0,0,0.62543416,213.30431,106.09843)"
     style="font-style:normal;font-variant:normal;font-weight:normal;font-stretch:normal;font-size:40px;line-height:1.25;font-family:Roboto;-inkscape-font-specification:'Roboto, Normal';font-variant-ligatures:normal;font-variant-caps:normal;font-variant-numeric:normal;font-feature-settings:normal;text-align:center;letter-spacing:0px;word-spacing:0px;writing-mode:lr-tb;text-anchor:middle;fill:#333333;fill-opacity:1;stroke:none"
     id="flowRoot82">
    <path
       d="m 866.92039,35.729118 q -0.6,-0.48 -1.12,-0.72 -0.52,-0.28 -1.32,-0.28 -1.6,0 -2.32,1.2 -0.72,1.2 -0.72,3.2 v 10.36 h -4.28 v -18.4 h 4.28 v 2.2 q 0.8,-1.24 1.92,-1.92 1.12,-0.72 2.28,-0.72 1,0 1.88,0.36 0.88,0.32 1.52,1.04 z"
       style="font-style:normal;font-variant:normal;font-weight:500;font-stretch:normal;font-family:'Jost*';-inkscape-font-specification:'Jost* Medium';fill:#333333"
       id="path90" />
    <path
       d="m 876.36602,42.289118 q 0,4.12 3.44,4.12 1.84,0 2.96,-1.12 1.12,-1.16 1.12,-3 v -11.2 h 4.32 v 18.4 h -4.32 v -2.84 q -0.8,1.48 -2.2,2.36 -1.4,0.88 -3.32,0.88 -3.08,0 -4.76,-1.8 -1.68,-1.8 -1.68,-5.32 v -11.68 h 4.44 z"
       style="font-style:normal;font-variant:normal;font-weight:500;font-stretch:normal;font-family:'Jost*';-inkscape-font-specification:'Jost* Medium';fill:#333333"
       id="path92" />
    <path
       d="m 894.40289,42.809118 q 1.48,1.8 2.92,2.72 1.48,0.92 2.6,0.92 1.08,0 1.8,-0.44 0.72,-0.48 0.72,-1.48 0,-0.88 -0.6,-1.44 -0.56,-0.56 -1.52,-0.96 -0.92,-0.44 -1.96,-0.84 -1.28,-0.48 -2.52,-1.08 -1.2,-0.6 -2,-1.64 -0.76,-1.04 -0.76,-2.8 0,-1.72 0.88,-2.84 0.88,-1.12 2.32,-1.68 1.48,-0.56 3.16,-0.56 2.24,0 4.12,0.92 1.88,0.92 3,2.32 l -2.36,2.6 q -0.84,-1 -2.12,-1.68 -1.24,-0.72 -2.36,-0.72 -1.12,0 -1.84,0.4 -0.68,0.36 -0.68,1.24 0,0.8 0.68,1.28 0.68,0.48 1.72,0.84 1.08,0.36 2.16,0.8 1.32,0.52 2.48,1.24 1.16,0.68 1.88,1.72 0.72,1.04 0.72,2.64 0,3.04 -1.84,4.4 -1.84,1.32 -4.76,1.32 -2.68,0 -4.84,-1.32 -2.12,-1.36 -3.52,-3.36 z"
       style="font-style:normal;font-variant:normal;font-weight:500;font-stretch:normal;font-family:'Jost*';-inkscape-font-specification:'Jost* Medium';fill:#333333"
       id="path94" />
    <path
       d="m 911.35602,42.809118 q 1.48,1.8 2.92,2.72 1.48,0.92 2.6,0.92 1.08,0 1.8,-0.44 0.72,-0.48 0.72,-1.48 0,-0.88 -0.6,-1.44 -0.56,-0.56 -1.52,-0.96 -0.92,-0.44 -1.96,-0.84 -1.28,-0.48 -2.52,-1.08 -1.2,-0.6 -2,-1.64 -0.76,-1.04 -0.76,-2.8 0,-1.72 0.88,-2.84 0.88,-1.12 2.32,-1.68 1.48,-0.56 3.16,-0.56 2.24,0 4.12,0.92 1.88,0.92 3,2.32 l -2.36,2.6 q -0.84,-1 -2.12,-1.68 -1.24,-0.72 -2.36,-0.72 -1.12,0 -1.84,0.4 -0.68,0.36 -0.68,1.24 0,0.8 0.68,1.28 0.68,0.48 1.72,0.84 1.08,0.36 2.16,0.8 1.32,0.52 2.48,1.24 1.16,0.68 1.88,1.72 0.72,1.04 0.72,2.64 0,3.04 -1.84,4.4 -1.84,1.32 -4.76,1.32 -2.68,0 -4.84,-1.32 -2.12,-1.36 -3.52,-3.36 z"
       style="font-style:normal;font-variant:normal;font-weight:500;font-stretch:normal;font-family:'Jost*';-inkscape-font-specification:'Jost* Medium';fill:#333333"
       id="path96" />
    <path
       d="m 927.46914,23.769118 q 0,-1.16 0.8,-1.88 0.8,-0.72 1.92,-0.72 1.16,0 1.96,0.72 0.8,0.72 0.8,1.88 0,1.12 -0.8,1.88 -0.8,0.76 -1.96,0.76 -1.12,0 -1.92,-0.76 -0.8,-0.76 -0.8,-1.88 z m 0.6,7.32 h 4.28 v 18.4 h -4.28 z"
       style="font-style:normal;font-variant:normal;font-weight:500;font-stretch:normal;font-family:'Jost*';-inkscape-font-specification:'Jost* Medium';fill:#333333"
       id="path98" />
    <path
       d="m 940.01414,35.929118 -1.72,-3.08 q 1.28,-0.76 3.16,-1.48 1.92,-0.72 4.4,-0.72 3.4,0 5.52,1.52 2.16,1.48 2.16,4.2 v 13.12 h -4.24 v -2.64 q -0.84,1.48 -2.52,2.28 -1.64,0.76 -3.72,0.76 -2.76,0 -4.6,-1.4 -1.84,-1.44 -1.84,-4.24 0,-2.84 2.12,-4.44 2.12,-1.64 5.76,-1.64 1.52,0 2.72,0.4 1.24,0.36 2.08,0.84 v -2.56 q 0,-1.28 -1.08,-1.96 -1.04,-0.72 -2.56,-0.72 -1.96,0 -3.48,0.68 -1.48,0.64 -2.16,1.08 z m 0.96,8.12 q 0,1.28 1,1.92 1.04,0.64 2.4,0.64 2.12,0 3.52,-0.96 1.4,-1 1.4,-3.44 v -0.36 q -1.8,-0.92 -4.16,-0.92 -2.08,0 -3.12,0.84 -1.04,0.84 -1.04,2.28 z"
       style="font-style:normal;font-variant:normal;font-weight:500;font-stretch:normal;font-family:'Jost*';-inkscape-font-specification:'Jost* Medium';fill:#333333"
       id="path100" />
    <path
       d="m 970.40664,38.289118 q 0,-2 -0.84,-3.04 -0.8,-1.08 -2.56,-1.08 -1.84,0 -2.96,1.16 -1.12,1.12 -1.12,2.96 v 11.2 h -4.36 v -18.4 h 4.36 v 2.84 q 0.8,-1.48 2.2,-2.36 1.4,-0.88 3.32,-0.88 3.08,0 4.72,1.8 1.68,1.8 1.68,5.32 v 11.68 h -4.44 z"
       style="font-style:normal;font-variant:normal;font-weight:500;font-stretch:normal;font-family:'Jost*';-inkscape-font-specification:'Jost* Medium';fill:#333333"
       id="path102" />
  </g>
</svg>
