<?xml version="1.0" encoding="UTF-8" standalone="no"?>
<svg
   xmlns:dc="http://purl.org/dc/elements/1.1/"
   xmlns:cc="http://creativecommons.org/ns#"
   xmlns:rdf="http://www.w3.org/1999/02/22-rdf-syntax-ns#"
   xmlns:svg="http://www.w3.org/2000/svg"
   xmlns="http://www.w3.org/2000/svg"
   viewBox="0 0 1500 140.625"
   height="150"
   width="1600"
   version="1.1"
   id="svg2">
  <metadata
     id="metadata8">
    <rdf:RDF>
      <cc:Work
         rdf:about="">
        <dc:format>image/svg+xml</dc:format>
        <dc:type
           rdf:resource="http://purl.org/dc/dcmitype/StillImage" />
        <dc:title></dc:title>
      </cc:Work>
    </rdf:RDF>
  </metadata>
  <defs
     id="defs6" />
  <path
     id="rect3354"
     d="M 0,0 H 1500 V 140.625 H 0 Z"
     style="fill:#f2f2f2;stroke-width:0.48412293" />
  <g
     id="flowRoot986"
     style="font-style:normal;font-variant:normal;font-weight:normal;font-stretch:normal;font-size:16.31354904px;line-height:1;font-family:'Renner*';-inkscape-font-specification:'Renner*';text-align:center;letter-spacing:0px;word-spacing:0px;text-anchor:middle;fill:#333333;fill-opacity:1;stroke:none;stroke-width:1px;stroke-linecap:butt;stroke-linejoin:miter;stroke-opacity:1"
     transform="matrix(5.9219821,0,0,5.9219821,-36.25498,-381.0961)"
     aria-label="några œstrogène año ">
    <path
       id="path1590"
       style="font-style:normal;font-variant:normal;font-weight:normal;font-stretch:normal;font-size:16.31354904px;line-height:1;font-family:'Renner*';-inkscape-font-specification:'Renner*';text-align:center;text-anchor:middle;fill:#333333"
       d="m 64.626144,73.374995 q 0,-1.876058 -1.598728,-1.876058 -0.848305,0 -1.386652,0.538347 -0.522033,0.522033 -0.522033,1.337711 v 4.567794 h -1.305084 v -7.504233 h 1.305084 v 1.190889 q 0.750423,-1.354025 2.234956,-1.354025 1.190889,0 1.876058,0.766737 0.701483,0.750424 0.701483,2.169702 v 4.73093 h -1.305084 z" />
    <path
       id="path1592"
       style="font-style:normal;font-variant:normal;font-weight:normal;font-stretch:normal;font-size:16.31354904px;line-height:1;font-family:'Renner*';-inkscape-font-specification:'Renner*';text-align:center;text-anchor:middle;fill:#333333"
       d="m 70.619589,67.045338 q -0.244703,0.228389 -0.244703,0.619915 0,0.391525 0.244703,0.636228 0.261017,0.22839 0.587288,0.22839 0.326271,0 0.570974,-0.22839 0.261017,-0.244703 0.261017,-0.636228 0,-0.391526 -0.261017,-0.619915 -0.244703,-0.244703 -0.570974,-0.244703 -0.326271,0 -0.587288,0.244703 z m -0.587288,1.79449 q -0.489406,-0.473093 -0.489406,-1.174575 0,-0.701483 0.489406,-1.158262 0.50572,-0.473093 1.174576,-0.473093 0.668855,0 1.158262,0.473093 0.50572,0.456779 0.50572,1.158262 0,0.701482 -0.50572,1.174575 -0.489407,0.45678 -1.158262,0.45678 -0.668856,0 -1.174576,-0.45678 z m -1.060381,3.360591 -0.636228,-0.995126 q 1.272457,-0.929873 2.871185,-0.929873 1.305083,0 2.088134,0.603602 0.799364,0.603601 0.799364,1.680295 v 5.383472 h -1.305084 v -1.076695 q -0.342585,0.587288 -1.027754,0.913559 -0.668855,0.326271 -1.533473,0.326271 -1.174576,0 -1.876059,-0.587288 -0.701482,-0.603601 -0.701482,-1.615041 0,-1.256143 0.880931,-1.941312 0.897246,-0.685169 2.316524,-0.685169 1.125635,0 1.941313,0.538347 v -1.256144 q 0,-0.538347 -0.473093,-0.831991 -0.456779,-0.309957 -1.109321,-0.309957 -1.158262,0 -2.234957,0.78305 z m 0,3.54004 q 0,1.207203 1.582415,1.207203 2.234956,0 2.234956,-1.941312 v -0.293644 q -0.848305,-0.440466 -1.876058,-0.440466 -1.941313,0 -1.941313,1.468219 z" />
    <path
       id="path1594"
       style="font-style:normal;font-variant:normal;font-weight:normal;font-stretch:normal;font-size:16.31354904px;line-height:1;font-family:'Renner*';-inkscape-font-specification:'Renner*';text-align:center;text-anchor:middle;fill:#333333"
       d="m 77.689474,72.216733 q -0.734109,0.717796 -0.734109,1.973939 0,1.256144 0.734109,1.97394 0.73411,0.717796 1.827118,0.717796 0.929872,0 1.663982,-0.73411 0.734109,-0.73411 0.734109,-1.957626 0,-1.223516 -0.734109,-1.957626 -0.73411,-0.734109 -1.663982,-0.734109 -1.093008,0 -1.827118,0.717796 z m -0.995126,4.82881 q -1.060381,-1.076694 -1.060381,-2.854871 0,-1.778177 1.060381,-2.838557 1.076694,-1.076695 2.659108,-1.076695 1.696609,0 2.561227,1.451906 v -1.28877 h 1.305084 v 7.341097 q 0,1.843431 -1.109321,2.871185 -1.093008,1.044067 -2.610168,1.044067 -1.647668,0 -2.691735,-0.913559 -1.027754,-0.897245 -1.027754,-2.349151 h 1.321397 q 0,0.831991 0.668856,1.435592 0.668855,0.603602 1.729236,0.603602 0.9625,0 1.680296,-0.685169 0.734109,-0.685169 0.734109,-2.006567 v -1.125635 q -0.864618,1.451906 -2.561227,1.451906 -1.582414,0 -2.659108,-1.060381 z" />
    <path
       id="path1596"
       style="font-style:normal;font-variant:normal;font-weight:normal;font-stretch:normal;font-size:16.31354904px;line-height:1;font-family:'Renner*';-inkscape-font-specification:'Renner*';text-align:center;text-anchor:middle;fill:#333333"
       d="m 89.162996,71.874148 q -0.522034,-0.375211 -1.01144,-0.375211 -1.256143,0 -1.256143,1.876058 v 4.567794 h -1.305084 v -7.504233 h 1.305084 v 0.864618 q 0.685169,-1.027754 1.582414,-1.027754 0.897245,0 1.402965,0.522034 z" />
    <path
       id="path1598"
       style="font-style:normal;font-variant:normal;font-weight:normal;font-stretch:normal;font-size:16.31354904px;line-height:1;font-family:'Renner*';-inkscape-font-specification:'Renner*';text-align:center;text-anchor:middle;fill:#333333"
       d="M 91.785399,72.200419 91.14917,71.205293 q 1.272457,-0.929873 2.871185,-0.929873 1.305084,0 2.088134,0.603602 0.799364,0.603601 0.799364,1.680295 v 5.383472 h -1.305084 v -1.076695 q -0.342584,0.587288 -1.027753,0.913559 -0.668856,0.326271 -1.533474,0.326271 -1.174575,0 -1.876058,-0.587288 -0.701483,-0.603601 -0.701483,-1.615041 0,-1.256143 0.880932,-1.941312 0.897245,-0.685169 2.316524,-0.685169 1.125635,0 1.941312,0.538347 v -1.256144 q 0,-0.538347 -0.473093,-0.831991 -0.456779,-0.309957 -1.109321,-0.309957 -1.158262,0 -2.234956,0.78305 z m 0,3.54004 q 0,1.207203 1.582414,1.207203 2.234956,0 2.234956,-1.941312 v -0.293644 q -0.848304,-0.440466 -1.876058,-0.440466 -1.941312,0 -1.941312,1.468219 z" />
    <path
       id="path1600"
       style="font-style:normal;font-variant:normal;font-weight:normal;font-stretch:normal;font-size:16.31354904px;line-height:1;font-family:'Renner*';-inkscape-font-specification:'Renner*';text-align:center;text-anchor:middle;fill:#333333"
       d="m 105.40976,72.216733 q -0.73411,0.717796 -0.73411,1.973939 0,1.256144 0.73411,1.97394 0.73411,0.717796 1.82712,0.717796 0.91356,0 1.5661,-0.717796 0.66886,-0.73411 0.66886,-1.97394 0,-1.239829 -0.66886,-1.957626 -0.65254,-0.734109 -1.5661,-0.734109 -1.09301,0 -1.82712,0.717796 z m -0.99512,4.82881 q -1.06039,-1.076694 -1.06039,-2.854871 0,-1.778177 1.06039,-2.838557 1.07669,-1.076695 2.6591,-1.076695 1.10932,0 1.89238,0.587288 0.79936,0.570974 1.15826,1.615042 0.42415,-1.01144 1.32139,-1.598728 0.89725,-0.603602 2.07183,-0.603602 1.40296,0 2.38177,1.076695 0.99513,1.06038 0.99513,2.773303 0,0.261017 -0.0163,0.391525 h -5.90551 q 0.0816,1.125635 0.7178,1.74555 0.63623,0.619915 1.66398,0.619915 1.51716,0 2.34915,-1.354025 l 1.06038,0.668856 q -1.25614,1.908685 -3.40953,1.908685 -1.09301,0 -1.95763,-0.587288 -0.8483,-0.587288 -1.27245,-1.598728 -0.3589,1.044068 -1.14195,1.615042 -0.78305,0.570974 -1.90869,0.570974 -1.58241,0 -2.6591,-1.060381 z m 6.59067,-3.637921 h 4.46991 q -0.0979,-0.913559 -0.63623,-1.451906 -0.53834,-0.538347 -1.48453,-0.538347 -0.92987,0 -1.59873,0.554661 -0.65254,0.538347 -0.75042,1.435592 z" />
    <path
       id="path1602"
       style="font-style:normal;font-variant:normal;font-weight:normal;font-stretch:normal;font-size:16.31354904px;line-height:1;font-family:'Renner*';-inkscape-font-specification:'Renner*';text-align:center;text-anchor:middle;fill:#333333"
       d="m 118.95638,75.316307 q 0.14682,0.685169 0.68517,1.125635 0.55466,0.440466 1.25614,0.440466 1.30508,0 1.30508,-0.946186 0,-0.293644 -0.1305,-0.522034 -0.13051,-0.228389 -0.42416,-0.407838 -0.27733,-0.195763 -0.50572,-0.293644 -0.21207,-0.114195 -0.63623,-0.277331 -0.47309,-0.195762 -0.78305,-0.342584 -0.30995,-0.163136 -0.66885,-0.424152 -0.34259,-0.261017 -0.52203,-0.619915 -0.17945,-0.358898 -0.17945,-0.799364 0,-0.880932 0.73411,-1.419279 0.73411,-0.554661 1.6966,-0.554661 0.89725,0 1.69661,0.424153 0.79937,0.424152 1.01144,1.044067 l -1.04406,0.668855 q -0.27733,-0.391525 -0.75043,-0.636228 -0.45678,-0.261017 -0.89724,-0.261017 -1.14195,0 -1.14195,0.815678 0,0.09788 0.0326,0.195762 0.0326,0.08157 0.0979,0.163136 0.0816,0.08157 0.14682,0.163135 0.0816,0.06525 0.21208,0.146822 0.14682,0.08157 0.22839,0.130509 0.0816,0.04894 0.26101,0.130508 0.19577,0.06525 0.27733,0.114195 0.0816,0.03263 0.29365,0.114195 0.21207,0.08157 0.27733,0.114194 2.07182,0.864619 2.07182,2.218643 0,1.158262 -0.73411,1.729236 -0.73411,0.554661 -2.00657,0.554661 -1.04407,0 -1.90868,-0.619915 -0.86462,-0.636228 -1.02776,-1.549787 z" />
    <path
       id="path1604"
       style="font-style:normal;font-variant:normal;font-weight:normal;font-stretch:normal;font-size:16.31354904px;line-height:1;font-family:'Renner*';-inkscape-font-specification:'Renner*';text-align:center;text-anchor:middle;fill:#333333"
       d="m 125.34059,67.828388 h 1.30508 v 2.610168 h 1.22352 v 1.223516 h -1.22352 v 6.280717 h -1.30508 v -6.280717 h -1.22352 v -1.223516 h 1.22352 z" />
    <path
       id="path1606"
       style="font-style:normal;font-variant:normal;font-weight:normal;font-stretch:normal;font-size:16.31354904px;line-height:1;font-family:'Renner*';-inkscape-font-specification:'Renner*';text-align:center;text-anchor:middle;fill:#333333"
       d="m 132.75076,71.874148 q -0.52203,-0.375211 -1.01144,-0.375211 -1.25614,0 -1.25614,1.876058 v 4.567794 h -1.30508 v -7.504233 h 1.30508 v 0.864618 q 0.68517,-1.027754 1.58241,-1.027754 0.89725,0 1.40297,0.522034 z" />
    <path
       id="path1608"
       style="font-style:normal;font-variant:normal;font-weight:normal;font-stretch:normal;font-size:16.31354904px;line-height:1;font-family:'Renner*';-inkscape-font-specification:'Renner*';text-align:center;text-anchor:middle;fill:#333333"
       d="m 135.91763,72.265673 q -0.7178,0.750424 -0.7178,1.924999 0,1.174576 0.7178,1.941313 0.73411,0.750423 1.84343,0.750423 1.10932,0 1.82712,-0.750423 0.73411,-0.766737 0.73411,-1.941313 0,-1.174575 -0.73411,-1.924999 -0.7178,-0.766736 -1.82712,-0.766736 -1.10932,0 -1.84343,0.766736 z m -0.92987,4.73093 q -1.10932,-1.109322 -1.10932,-2.805931 0,-1.696609 1.10932,-2.80593 1.10932,-1.109322 2.7733,-1.109322 1.66398,0 2.7733,1.109322 1.10933,1.109321 1.10933,2.80593 0,1.696609 -1.10933,2.805931 -1.10932,1.109321 -2.7733,1.109321 -1.66398,0 -2.7733,-1.109321 z" />
    <path
       id="path1610"
       style="font-style:normal;font-variant:normal;font-weight:normal;font-stretch:normal;font-size:16.31354904px;line-height:1;font-family:'Renner*';-inkscape-font-specification:'Renner*';text-align:center;text-anchor:middle;fill:#333333"
       d="m 144.85541,72.216733 q -0.73411,0.717796 -0.73411,1.973939 0,1.256144 0.73411,1.97394 0.73411,0.717796 1.82712,0.717796 0.92987,0 1.66398,-0.73411 0.73411,-0.73411 0.73411,-1.957626 0,-1.223516 -0.73411,-1.957626 -0.73411,-0.734109 -1.66398,-0.734109 -1.09301,0 -1.82712,0.717796 z m -0.99512,4.82881 q -1.06038,-1.076694 -1.06038,-2.854871 0,-1.778177 1.06038,-2.838557 1.07669,-1.076695 2.65911,-1.076695 1.6966,0 2.56122,1.451906 v -1.28877 h 1.30509 v 7.341097 q 0,1.843431 -1.10932,2.871185 -1.09301,1.044067 -2.61017,1.044067 -1.64767,0 -2.69174,-0.913559 -1.02775,-0.897245 -1.02775,-2.349151 h 1.3214 q 0,0.831991 0.66885,1.435592 0.66886,0.603602 1.72924,0.603602 0.9625,0 1.68029,-0.685169 0.73411,-0.685169 0.73411,-2.006567 v -1.125635 q -0.86462,1.451906 -2.56122,1.451906 -1.58242,0 -2.65911,-1.060381 z" />
    <path
       id="path1612"
       style="font-style:normal;font-variant:normal;font-weight:normal;font-stretch:normal;font-size:16.31354904px;line-height:1;font-family:'Renner*';-inkscape-font-specification:'Renner*';text-align:center;text-anchor:middle;fill:#333333"
       d="m 153.21305,66.523304 1.22351,-0.652542 2.44703,2.610168 -0.73411,0.489407 z m -1.10933,7.667368 q 0,-1.745549 1.04407,-2.822244 1.04407,-1.093008 2.67542,-1.093008 1.59873,0 2.56123,1.044068 0.97881,1.044067 0.97881,2.80593 0,0.261017 -0.0163,0.391525 h -5.9055 q 0.0816,1.125635 0.71779,1.74555 0.63623,0.619915 1.66398,0.619915 1.51716,0 2.34915,-1.354025 l 1.06039,0.668856 q -0.61992,0.962499 -1.41928,1.435592 -0.79937,0.473093 -2.15339,0.473093 -1.53348,0 -2.54492,-1.109321 -1.01144,-1.109322 -1.01144,-2.805931 z m 5.84025,-0.78305 q -0.0979,-0.913559 -0.63622,-1.451906 -0.53835,-0.538347 -1.48454,-0.538347 -0.92987,0 -1.59872,0.554661 -0.65255,0.538347 -0.75043,1.435592 z" />
    <path
       id="path1614"
       style="font-style:normal;font-variant:normal;font-weight:normal;font-stretch:normal;font-size:16.31354904px;line-height:1;font-family:'Renner*';-inkscape-font-specification:'Renner*';text-align:center;text-anchor:middle;fill:#333333"
       d="m 165.98044,73.374995 q 0,-1.876058 -1.59873,-1.876058 -0.8483,0 -1.38665,0.538347 -0.52204,0.522033 -0.52204,1.337711 v 4.567794 h -1.30508 v -7.504233 h 1.30508 v 1.190889 q 0.75043,-1.354025 2.23496,-1.354025 1.19089,0 1.87606,0.766737 0.70148,0.750424 0.70148,2.169702 v 4.73093 h -1.30508 z" />
    <path
       id="path1616"
       style="font-style:normal;font-variant:normal;font-weight:normal;font-stretch:normal;font-size:16.31354904px;line-height:1;font-family:'Renner*';-inkscape-font-specification:'Renner*';text-align:center;text-anchor:middle;fill:#333333"
       d="m 169.08638,74.190672 q 0,-1.745549 1.04407,-2.822244 1.04407,-1.093008 2.67542,-1.093008 1.59873,0 2.56123,1.044068 0.97881,1.044067 0.97881,2.80593 0,0.261017 -0.0163,0.391525 h -5.90551 q 0.0816,1.125635 0.7178,1.74555 0.63623,0.619915 1.66398,0.619915 1.51716,0 2.34915,-1.354025 l 1.06038,0.668856 q -0.61991,0.962499 -1.41928,1.435592 -0.79936,0.473093 -2.15338,0.473093 -1.53348,0 -2.54492,-1.109321 -1.01144,-1.109322 -1.01144,-2.805931 z m 5.84025,-0.78305 q -0.0979,-0.913559 -0.63623,-1.451906 -0.53834,-0.538347 -1.48453,-0.538347 -0.92987,0 -1.59873,0.554661 -0.65254,0.538347 -0.75042,1.435592 z" />
    <path
       id="path1618"
       style="font-style:normal;font-variant:normal;font-weight:normal;font-stretch:normal;font-size:16.31354904px;line-height:1;font-family:'Renner*';-inkscape-font-specification:'Renner*';text-align:center;text-anchor:middle;fill:#333333"
       d="m 183.6447,72.200419 -0.63623,-0.995126 q 1.27246,-0.929873 2.87119,-0.929873 1.30508,0 2.08813,0.603602 0.79937,0.603601 0.79937,1.680295 v 5.383472 h -1.30509 v -1.076695 q -0.34258,0.587288 -1.02775,0.913559 -0.66886,0.326271 -1.53348,0.326271 -1.17457,0 -1.87605,-0.587288 -0.70149,-0.603601 -0.70149,-1.615041 0,-1.256143 0.88094,-1.941312 0.89724,-0.685169 2.31652,-0.685169 1.12563,0 1.94131,0.538347 v -1.256144 q 0,-0.538347 -0.47309,-0.831991 -0.45678,-0.309957 -1.10932,-0.309957 -1.15826,0 -2.23496,0.78305 z m 0,3.54004 q 0,1.207203 1.58242,1.207203 2.23495,0 2.23495,-1.941312 v -0.293644 q -0.8483,-0.440466 -1.87606,-0.440466 -1.94131,0 -1.94131,1.468219 z" />
    <path
       id="path1620"
       style="font-style:normal;font-variant:normal;font-weight:normal;font-stretch:normal;font-size:16.31354904px;line-height:1;font-family:'Renner*';-inkscape-font-specification:'Renner*';text-align:center;text-anchor:middle;fill:#333333"
       d="m 191.3345,68.693006 q 0.1142,-0.587288 0.61992,-0.962499 0.50572,-0.375212 1.07669,-0.375212 0.55466,0 1.0767,0.391525 0.52203,0.375212 0.94618,0.375212 0.42415,0 0.91356,-0.78305 l 0.75042,0.701482 q -0.21207,0.489407 -0.68516,0.848305 -0.4731,0.342584 -1.04407,0.342584 -0.47309,0 -1.06038,-0.375211 -0.57098,-0.391525 -0.91356,-0.391525 -0.44047,0 -0.63623,0.27733 -0.17945,0.27733 -0.17945,0.554661 z m 4.43729,4.681989 q 0,-1.876058 -1.59873,-1.876058 -0.8483,0 -1.38665,0.538347 -0.52203,0.522033 -0.52203,1.337711 v 4.567794 h -1.30509 v -7.504233 h 1.30509 v 1.01144 q 0.83199,-1.174576 2.23495,-1.174576 1.19089,0 1.87606,0.766737 0.70148,0.750424 0.70148,2.169702 v 4.73093 h -1.30508 z" />
    <path
       id="path1622"
       style="font-style:normal;font-variant:normal;font-weight:normal;font-stretch:normal;font-size:16.31354904px;line-height:1;font-family:'Renner*';-inkscape-font-specification:'Renner*';text-align:center;text-anchor:middle;fill:#333333"
       d="m 200.91693,72.265673 q -0.7178,0.750424 -0.7178,1.924999 0,1.174576 0.7178,1.941313 0.73411,0.750423 1.84343,0.750423 1.10932,0 1.82712,-0.750423 0.73411,-0.766737 0.73411,-1.941313 0,-1.174575 -0.73411,-1.924999 -0.7178,-0.766736 -1.82712,-0.766736 -1.10932,0 -1.84343,0.766736 z m -0.92987,4.73093 q -1.10933,-1.109322 -1.10933,-2.805931 0,-1.696609 1.10933,-2.80593 1.10932,-1.109322 2.7733,-1.109322 1.66398,0 2.7733,1.109322 1.10932,1.109321 1.10932,2.80593 0,1.696609 -1.10932,2.805931 -1.10932,1.109321 -2.7733,1.109321 -1.66398,0 -2.7733,-1.109321 z" />
  </g>
  <g
     id="flowRoot1216"
     style="font-style:normal;font-variant:normal;font-weight:500;font-stretch:normal;font-size:4.22155952px;line-height:1;font-family:'Renner*';-inkscape-font-specification:'Renner* Medium';text-align:start;letter-spacing:0px;word-spacing:0px;text-anchor:start;fill:#333333;fill-opacity:1;stroke:none;stroke-width:1px;stroke-linecap:butt;stroke-linejoin:miter;stroke-opacity:1"
     transform="matrix(5.9219821,0,0,5.9219821,235.62002,-268.5961)"
     aria-label="swedish ">
    <path
       id="path1625"
       style="font-style:normal;font-variant:normal;font-weight:500;font-stretch:normal;font-size:4.22155952px;line-height:1;font-family:'Renner*';-inkscape-font-specification:'Renner* Medium';text-align:center;text-anchor:middle;fill:#333333"
       d="m 26.428203,67.801469 q 0.105539,0.177305 0.253294,0.274401 0.151976,0.0971 0.303952,0.0971 0.278623,0 0.278623,-0.198413 0,-0.03799 -0.01266,-0.07177 -0.01267,-0.03377 -0.04644,-0.06332 -0.02955,-0.02955 -0.05488,-0.05066 -0.02533,-0.02111 -0.08021,-0.04644 -0.05066,-0.02533 -0.08021,-0.03799 -0.02955,-0.01266 -0.101318,-0.03799 -0.06754,-0.02955 -0.09287,-0.04222 -0.118204,-0.05066 -0.198413,-0.09287 -0.07599,-0.04222 -0.164641,-0.109761 -0.08443,-0.06754 -0.126647,-0.160419 -0.04221,-0.09287 -0.04221,-0.211078 0,-0.24485 0.202634,-0.388383 0.202635,-0.143533 0.48548,-0.143533 0.236407,0 0.443264,0.0971 0.211078,0.09709 0.308173,0.24485 l -0.253293,0.27018 q -0.08865,-0.101318 -0.227964,-0.164641 -0.13509,-0.06754 -0.253294,-0.06754 -0.257515,0 -0.257515,0.173084 0,0.02955 0.01266,0.05488 0.01266,0.02533 0.04221,0.05066 0.03377,0.02111 0.06332,0.04222 0.02955,0.01689 0.08021,0.04221 0.05488,0.02111 0.08865,0.03799 0.03799,0.01266 0.101317,0.03799 0.06332,0.02533 0.0971,0.03799 0.536138,0.2153 0.536138,0.578354 0,0.607904 -0.726108,0.607904 -0.282844,0 -0.519252,-0.139311 -0.236407,-0.139311 -0.337724,-0.358833 z" />
    <path
       id="path1627"
       style="font-style:normal;font-variant:normal;font-weight:500;font-stretch:normal;font-size:4.22155952px;line-height:1;font-family:'Renner*';-inkscape-font-specification:'Renner* Medium';text-align:center;text-anchor:middle;fill:#333333"
       d="m 27.821186,66.56033 h 0.498144 l 0.451707,1.152486 0.536138,-1.30024 0.569911,1.308683 0.455928,-1.160929 h 0.493923 l -0.903414,2.077008 -0.612126,-1.312905 -0.582575,1.312905 z" />
    <path
       id="path1629"
       style="font-style:normal;font-variant:normal;font-weight:500;font-stretch:normal;font-size:4.22155952px;line-height:1;font-family:'Renner*';-inkscape-font-specification:'Renner* Medium';text-align:center;text-anchor:middle;fill:#333333"
       d="m 32.398478,67.320211 q -0.02533,-0.2153 -0.147755,-0.333503 -0.122425,-0.122425 -0.333503,-0.122425 -0.211078,0 -0.358832,0.122425 -0.143533,0.122425 -0.173084,0.333503 z m -1.021617,0.316617 q 0.02533,0.261737 0.168862,0.396827 0.143533,0.135089 0.375719,0.135089 0.371497,0 0.557246,-0.308173 l 0.396826,0.160419 q -0.160419,0.257515 -0.384162,0.392605 -0.219521,0.130868 -0.591018,0.130868 -0.443264,0 -0.717665,-0.282844 -0.274401,-0.287066 -0.274401,-0.73033 0,-0.118204 0.01689,-0.206856 0.06332,-0.367276 0.32506,-0.586797 0.261737,-0.219521 0.671228,-0.219521 0.447485,0 0.709222,0.265958 0.261737,0.265958 0.261737,0.726108 0,0.03377 -0.0084,0.126647 z" />
    <path
       id="path1631"
       style="font-style:normal;font-variant:normal;font-weight:500;font-stretch:normal;font-size:4.22155952px;line-height:1;font-family:'Renner*';-inkscape-font-specification:'Renner* Medium';text-align:center;text-anchor:middle;fill:#333333"
       d="m 33.450108,68.270062 q -0.274401,-0.274402 -0.274401,-0.738773 0,-0.464372 0.274401,-0.738773 0.274402,-0.274401 0.671228,-0.274401 0.430599,0 0.662785,0.363054 v -1.671738 h 0.46015 v 3.292817 h -0.46015 v -0.320839 q -0.232186,0.363054 -0.662785,0.363054 -0.396826,0 -0.671228,-0.274401 z m 0.367276,-1.186258 q -0.168862,0.16464 -0.168862,0.447485 0,0.282844 0.168862,0.451707 0.168862,0.164641 0.413713,0.164641 0.215299,0 0.384162,-0.168863 0.168862,-0.168862 0.168862,-0.447485 0,-0.278623 -0.168862,-0.447485 -0.168863,-0.168863 -0.384162,-0.168863 -0.244851,0 -0.413713,0.168863 z" />
    <path
       id="path1633"
       style="font-style:normal;font-variant:normal;font-weight:500;font-stretch:normal;font-size:4.22155952px;line-height:1;font-family:'Renner*';-inkscape-font-specification:'Renner* Medium';text-align:center;text-anchor:middle;fill:#333333"
       d="m 35.8686,65.986198 q -0.08021,-0.08021 -0.08021,-0.198413 0,-0.118204 0.08021,-0.198413 0.08443,-0.08021 0.206857,-0.08021 0.122425,0 0.206856,0.08021 0.08443,0.08021 0.08443,0.198413 0,0.118204 -0.08443,0.198413 -0.08443,0.08021 -0.206856,0.08021 -0.122426,0 -0.206857,-0.08021 z m -0.01689,0.574132 h 0.447485 v 1.941918 h -0.447485 z" />
    <path
       id="path1635"
       style="font-style:normal;font-variant:normal;font-weight:500;font-stretch:normal;font-size:4.22155952px;line-height:1;font-family:'Renner*';-inkscape-font-specification:'Renner* Medium';text-align:center;text-anchor:middle;fill:#333333"
       d="m 37.006838,67.801469 q 0.105539,0.177305 0.253293,0.274401 0.151976,0.0971 0.303953,0.0971 0.278623,0 0.278623,-0.198413 0,-0.03799 -0.01266,-0.07177 -0.01266,-0.03377 -0.04644,-0.06332 -0.02955,-0.02955 -0.05488,-0.05066 -0.02533,-0.02111 -0.08021,-0.04644 -0.05066,-0.02533 -0.08021,-0.03799 -0.02955,-0.01266 -0.101317,-0.03799 -0.06755,-0.02955 -0.09287,-0.04222 -0.118203,-0.05066 -0.198413,-0.09287 -0.07599,-0.04222 -0.164641,-0.109761 -0.08443,-0.06754 -0.126647,-0.160419 -0.04221,-0.09287 -0.04221,-0.211078 0,-0.24485 0.202635,-0.388383 0.202635,-0.143533 0.485479,-0.143533 0.236407,0 0.443264,0.0971 0.211078,0.09709 0.308174,0.24485 l -0.253294,0.27018 q -0.08865,-0.101318 -0.227964,-0.164641 -0.13509,-0.06754 -0.253294,-0.06754 -0.257515,0 -0.257515,0.173084 0,0.02955 0.01266,0.05488 0.01267,0.02533 0.04222,0.05066 0.03377,0.02111 0.06332,0.04222 0.02955,0.01689 0.08021,0.04221 0.05488,0.02111 0.08865,0.03799 0.03799,0.01266 0.101318,0.03799 0.06332,0.02533 0.0971,0.03799 0.536138,0.2153 0.536138,0.578354 0,0.607904 -0.726109,0.607904 -0.282844,0 -0.519251,-0.139311 -0.236408,-0.139311 -0.337725,-0.358833 z" />
    <path
       id="path1637"
       style="font-style:normal;font-variant:normal;font-weight:500;font-stretch:normal;font-size:4.22155952px;line-height:1;font-family:'Renner*';-inkscape-font-specification:'Renner* Medium';text-align:center;text-anchor:middle;fill:#333333"
       d="m 39.965426,67.320211 q 0,-0.434821 -0.358833,-0.434821 -0.194192,0 -0.312395,0.122426 -0.118204,0.118203 -0.118204,0.312395 v 1.182037 h -0.46015 v -3.292817 h 0.46015 v 1.642187 q 0.185749,-0.346168 0.582575,-0.346168 0.32506,0 0.493923,0.194192 0.173084,0.18997 0.173084,0.557246 v 1.24536 h -0.46015 z" />
  </g>
  <g
     id="flowRoot1224"
     style="font-style:normal;font-variant:normal;font-weight:500;font-stretch:normal;font-size:4.22155952px;line-height:1;font-family:'Renner*';-inkscape-font-specification:'Renner* Medium';text-align:start;letter-spacing:0px;word-spacing:0px;text-anchor:start;fill:#333333;fill-opacity:1;stroke:none;stroke-width:1px;stroke-linecap:butt;stroke-linejoin:miter;stroke-opacity:1"
     transform="matrix(5.9219821,0,0,5.9219821,591.87002,-268.5961)"
     aria-label=" french ">
    <path
       id="path1640"
       style="font-style:normal;font-variant:normal;font-weight:500;font-stretch:normal;font-size:4.22155952px;line-height:1;font-family:'Renner*';-inkscape-font-specification:'Renner* Medium';text-align:center;text-anchor:middle;fill:#333333"
       d="m 28.141039,65.699132 q -0.07177,-0.10976 -0.202635,-0.10976 -0.202634,0 -0.202634,0.341946 v 0.629012 h 0.451706 v 0.401048 H 27.73577 v 1.54087 h -0.451707 v -1.54087 H 27.072985 V 66.56033 h 0.211078 v -0.717665 q 0,-0.333503 0.160419,-0.506587 0.164641,-0.177306 0.468593,-0.177306 0.27018,0 0.439042,0.185749 z" />
    <path
       id="path1642"
       style="font-style:normal;font-variant:normal;font-weight:500;font-stretch:normal;font-size:4.22155952px;line-height:1;font-family:'Renner*';-inkscape-font-specification:'Renner* Medium';text-align:center;text-anchor:middle;fill:#333333"
       d="m 29.566211,67.050031 q -0.130868,-0.105539 -0.257515,-0.105539 -0.320838,0 -0.320838,0.464372 v 1.093384 H 28.536151 V 66.56033 h 0.451707 v 0.236408 q 0.181527,-0.278623 0.443264,-0.278623 0.232185,0 0.358832,0.143533 z" />
    <path
       id="path1644"
       style="font-style:normal;font-variant:normal;font-weight:500;font-stretch:normal;font-size:4.22155952px;line-height:1;font-family:'Renner*';-inkscape-font-specification:'Renner* Medium';text-align:center;text-anchor:middle;fill:#333333"
       d="m 31.370994,67.320211 q -0.02533,-0.2153 -0.147754,-0.333503 -0.122425,-0.122425 -0.333503,-0.122425 -0.211078,0 -0.358833,0.122425 -0.143533,0.122425 -0.173084,0.333503 z m -1.021617,0.316617 q 0.02533,0.261737 0.168862,0.396827 0.143533,0.135089 0.375719,0.135089 0.371497,0 0.557246,-0.308173 l 0.396827,0.160419 q -0.16042,0.257515 -0.384162,0.392605 -0.219521,0.130868 -0.591019,0.130868 -0.443263,0 -0.717665,-0.282844 -0.274401,-0.287066 -0.274401,-0.73033 0,-0.118204 0.01689,-0.206856 0.06332,-0.367276 0.32506,-0.586797 0.261737,-0.219521 0.671228,-0.219521 0.447485,0 0.709222,0.265958 0.261737,0.265958 0.261737,0.726108 0,0.03377 -0.0084,0.126647 z" />
    <path
       id="path1646"
       style="font-style:normal;font-variant:normal;font-weight:500;font-stretch:normal;font-size:4.22155952px;line-height:1;font-family:'Renner*';-inkscape-font-specification:'Renner* Medium';text-align:center;text-anchor:middle;fill:#333333"
       d="m 33.545559,67.320211 q 0,-0.434821 -0.358833,-0.434821 -0.194191,0 -0.312395,0.122426 -0.118204,0.118203 -0.118204,0.312395 v 1.182037 h -0.46015 V 66.56033 h 0.46015 v 0.299731 q 0.185749,-0.341946 0.582576,-0.341946 0.32506,0 0.498144,0.194191 0.177305,0.189971 0.177305,0.557246 v 1.232696 h -0.468593 z" />
    <path
       id="path1648"
       style="font-style:normal;font-variant:normal;font-weight:500;font-stretch:normal;font-size:4.22155952px;line-height:1;font-family:'Renner*';-inkscape-font-specification:'Renner* Medium';text-align:center;text-anchor:middle;fill:#333333"
       d="m 34.900349,67.531289 q 0,0.274401 0.173084,0.447485 0.173084,0.173084 0.430599,0.173084 0.206857,0 0.379941,-0.09287 0.177305,-0.09287 0.253293,-0.236407 v 0.502365 q -0.211078,0.219521 -0.654341,0.219521 -0.451707,0 -0.751438,-0.282844 -0.299731,-0.282845 -0.299731,-0.73033 0,-0.447485 0.299731,-0.73033 0.299731,-0.282844 0.751438,-0.282844 0.426377,0 0.654341,0.219521 v 0.502365 q -0.07599,-0.139311 -0.257515,-0.232185 -0.177305,-0.0971 -0.375719,-0.0971 -0.257515,0 -0.430599,0.177305 -0.173084,0.177306 -0.173084,0.443264 z" />
    <path
       id="path1650"
       style="font-style:normal;font-variant:normal;font-weight:500;font-stretch:normal;font-size:4.22155952px;line-height:1;font-family:'Renner*';-inkscape-font-specification:'Renner* Medium';text-align:center;text-anchor:middle;fill:#333333"
       d="m 37.890797,67.320211 q 0,-0.434821 -0.358833,-0.434821 -0.194192,0 -0.312395,0.122426 -0.118204,0.118203 -0.118204,0.312395 v 1.182037 h -0.46015 v -3.292817 h 0.46015 v 1.642187 q 0.185749,-0.346168 0.582575,-0.346168 0.32506,0 0.493923,0.194192 0.173084,0.18997 0.173084,0.557246 v 1.24536 h -0.46015 z" />
  </g>
  <g
     id="flowRoot1232"
     style="font-style:normal;font-variant:normal;font-weight:500;font-stretch:normal;font-size:4.22155952px;line-height:1;font-family:'Renner*';-inkscape-font-specification:'Renner* Medium';text-align:start;letter-spacing:0px;word-spacing:0px;text-anchor:start;fill:#333333;fill-opacity:1;stroke:none;stroke-width:1px;stroke-linecap:butt;stroke-linejoin:miter;stroke-opacity:1"
     transform="matrix(5.9219821,0,0,5.9219821,929.37002,-268.5961)"
     aria-label="spanish">
    <path
       id="path1653"
       style="font-style:normal;font-variant:normal;font-weight:500;font-stretch:normal;font-size:4.22155952px;line-height:1;font-family:'Renner*';-inkscape-font-specification:'Renner* Medium';text-align:center;text-anchor:middle;fill:#333333"
       d="m 24.636153,67.801469 q 0.105539,0.177305 0.253294,0.274401 0.151976,0.0971 0.303952,0.0971 0.278623,0 0.278623,-0.198413 0,-0.03799 -0.01266,-0.07177 -0.01267,-0.03377 -0.04644,-0.06332 -0.02955,-0.02955 -0.05488,-0.05066 -0.02533,-0.02111 -0.08021,-0.04644 -0.05066,-0.02533 -0.08021,-0.03799 -0.02955,-0.01266 -0.101317,-0.03799 -0.06754,-0.02955 -0.09287,-0.04222 -0.118204,-0.05066 -0.198414,-0.09287 -0.07599,-0.04222 -0.16464,-0.109761 -0.08443,-0.06754 -0.126647,-0.160419 -0.04222,-0.09287 -0.04222,-0.211078 0,-0.24485 0.202635,-0.388383 0.202635,-0.143533 0.485479,-0.143533 0.236408,0 0.443264,0.0971 0.211078,0.09709 0.308174,0.24485 l -0.253294,0.27018 q -0.08865,-0.101318 -0.227964,-0.164641 -0.13509,-0.06754 -0.253293,-0.06754 -0.257515,0 -0.257515,0.173084 0,0.02955 0.01266,0.05488 0.01267,0.02533 0.04222,0.05066 0.03377,0.02111 0.06332,0.04222 0.02955,0.01689 0.08021,0.04221 0.05488,0.02111 0.08865,0.03799 0.03799,0.01266 0.101317,0.03799 0.06332,0.02533 0.0971,0.03799 0.536138,0.2153 0.536138,0.578354 0,0.607904 -0.726108,0.607904 -0.282845,0 -0.519252,-0.139311 -0.236407,-0.139311 -0.337725,-0.358833 z" />
    <path
       id="path1655"
       style="font-style:normal;font-variant:normal;font-weight:500;font-stretch:normal;font-size:4.22155952px;line-height:1;font-family:'Renner*';-inkscape-font-specification:'Renner* Medium';text-align:center;text-anchor:middle;fill:#333333"
       d="m 28.122436,66.788294 q 0.274401,0.274402 0.274401,0.742995 0,0.468593 -0.274401,0.747216 -0.274402,0.274401 -0.671228,0.274401 -0.443264,0 -0.662785,-0.375718 v 1.253803 h -0.46015 V 66.56033 h 0.46015 v 0.32506 q 0.219521,-0.375718 0.662785,-0.375718 0.396826,0 0.671228,0.278622 z m -0.367276,1.19048 q 0.168862,-0.164641 0.168862,-0.447485 0,-0.282845 -0.168862,-0.443264 -0.168862,-0.164641 -0.417934,-0.164641 -0.2153,0 -0.384162,0.164641 -0.164641,0.164641 -0.164641,0.443264 0,0.278623 0.164641,0.443264 0.168862,0.164641 0.384162,0.164641 0.249072,0 0.417934,-0.16042 z" />
    <path
       id="path1657"
       style="font-style:normal;font-variant:normal;font-weight:500;font-stretch:normal;font-size:4.22155952px;line-height:1;font-family:'Renner*';-inkscape-font-specification:'Renner* Medium';text-align:center;text-anchor:middle;fill:#333333"
       d="m 29.11404,67.928116 q 0,0.270179 0.358833,0.270179 0.519252,0 0.519252,-0.464371 v -0.03799 q -0.18997,-0.0971 -0.439042,-0.0971 -0.2153,0 -0.329282,0.08865 -0.109761,0.08443 -0.109761,0.240629 z m -0.0971,-0.852755 -0.185748,-0.329282 q 0.388383,-0.232186 0.797875,-0.232186 0.363054,0 0.586796,0.160419 0.223743,0.16042 0.223743,0.443264 v 1.384672 h -0.447485 v -0.278623 q -0.08443,0.151976 -0.261737,0.236407 -0.173084,0.08443 -0.396827,0.08443 -0.312395,0 -0.498144,-0.151976 -0.181527,-0.156198 -0.181527,-0.422156 0,-0.316617 0.227965,-0.489701 0.232185,-0.173084 0.603683,-0.173084 0.278623,0 0.506587,0.130869 v -0.27018 q 0,-0.130869 -0.109761,-0.206857 -0.10976,-0.07599 -0.274401,-0.07599 -0.312396,0 -0.591019,0.189971 z" />
    <path
       id="path1659"
       style="font-style:normal;font-variant:normal;font-weight:500;font-stretch:normal;font-size:4.22155952px;line-height:1;font-family:'Renner*';-inkscape-font-specification:'Renner* Medium';text-align:center;text-anchor:middle;fill:#333333"
       d="m 32.220317,67.320211 q 0,-0.434821 -0.358833,-0.434821 -0.194192,0 -0.312395,0.122426 -0.118204,0.118203 -0.118204,0.312395 v 1.182037 h -0.46015 V 66.56033 h 0.46015 v 0.299731 q 0.185749,-0.341946 0.582575,-0.341946 0.32506,0 0.498144,0.194191 0.177306,0.189971 0.177306,0.557246 v 1.232696 h -0.468593 z" />
    <path
       id="path1661"
       style="font-style:normal;font-variant:normal;font-weight:500;font-stretch:normal;font-size:4.22155952px;line-height:1;font-family:'Renner*';-inkscape-font-specification:'Renner* Medium';text-align:center;text-anchor:middle;fill:#333333"
       d="m 33.334479,65.986198 q -0.08021,-0.08021 -0.08021,-0.198413 0,-0.118204 0.08021,-0.198413 0.08443,-0.08021 0.206856,-0.08021 0.122425,0 0.206856,0.08021 0.08443,0.08021 0.08443,0.198413 0,0.118204 -0.08443,0.198413 -0.08443,0.08021 -0.206856,0.08021 -0.122425,0 -0.206856,-0.08021 z m -0.01689,0.574132 h 0.447486 v 1.941918 h -0.447486 z" />
    <path
       id="path1663"
       style="font-style:normal;font-variant:normal;font-weight:500;font-stretch:normal;font-size:4.22155952px;line-height:1;font-family:'Renner*';-inkscape-font-specification:'Renner* Medium';text-align:center;text-anchor:middle;fill:#333333"
       d="m 34.472716,67.801469 q 0.105539,0.177305 0.253294,0.274401 0.151976,0.0971 0.303952,0.0971 0.278623,0 0.278623,-0.198413 0,-0.03799 -0.01266,-0.07177 -0.01266,-0.03377 -0.04644,-0.06332 -0.02955,-0.02955 -0.05488,-0.05066 -0.02533,-0.02111 -0.08021,-0.04644 -0.05066,-0.02533 -0.08021,-0.03799 -0.02955,-0.01266 -0.101318,-0.03799 -0.06754,-0.02955 -0.09287,-0.04222 -0.118204,-0.05066 -0.198413,-0.09287 -0.07599,-0.04222 -0.164641,-0.109761 -0.08443,-0.06754 -0.126647,-0.160419 -0.04222,-0.09287 -0.04222,-0.211078 0,-0.24485 0.202635,-0.388383 0.202635,-0.143533 0.48548,-0.143533 0.236407,0 0.443263,0.0971 0.211078,0.09709 0.308174,0.24485 l -0.253293,0.27018 q -0.08865,-0.101318 -0.227965,-0.164641 -0.13509,-0.06754 -0.253293,-0.06754 -0.257515,0 -0.257515,0.173084 0,0.02955 0.01266,0.05488 0.01266,0.02533 0.04222,0.05066 0.03377,0.02111 0.06332,0.04222 0.02955,0.01689 0.08021,0.04221 0.05488,0.02111 0.08865,0.03799 0.03799,0.01266 0.101317,0.03799 0.06332,0.02533 0.0971,0.03799 0.536138,0.2153 0.536138,0.578354 0,0.607904 -0.726108,0.607904 -0.282845,0 -0.519252,-0.139311 -0.236407,-0.139311 -0.337725,-0.358833 z" />
    <path
       id="path1665"
       style="font-style:normal;font-variant:normal;font-weight:500;font-stretch:normal;font-size:4.22155952px;line-height:1;font-family:'Renner*';-inkscape-font-specification:'Renner* Medium';text-align:center;text-anchor:middle;fill:#333333"
       d="m 37.431304,67.320211 q 0,-0.434821 -0.358832,-0.434821 -0.194192,0 -0.312396,0.122426 -0.118203,0.118203 -0.118203,0.312395 v 1.182037 h -0.46015 v -3.292817 h 0.46015 v 1.642187 q 0.185748,-0.346168 0.582575,-0.346168 0.32506,0 0.493922,0.194192 0.173084,0.18997 0.173084,0.557246 v 1.24536 h -0.46015 z" />
  </g>
</svg>
