<?xml version="1.0" encoding="UTF-8" standalone="no"?>
<svg
   xmlns:dc="http://purl.org/dc/elements/1.1/"
   xmlns:cc="http://creativecommons.org/ns#"
   xmlns:rdf="http://www.w3.org/1999/02/22-rdf-syntax-ns#"
   xmlns:svg="http://www.w3.org/2000/svg"
   xmlns="http://www.w3.org/2000/svg"
   viewBox="0 0 1500 140.625"
   height="150"
   width="1600"
   version="1.1"
   id="svg2">
  <metadata
     id="metadata8">
    <rdf:RDF>
      <cc:Work
         rdf:about="">
        <dc:format>image/svg+xml</dc:format>
        <dc:type
           rdf:resource="http://purl.org/dc/dcmitype/StillImage" />
        <dc:title></dc:title>
      </cc:Work>
    </rdf:RDF>
  </metadata>
  <defs
     id="defs6" />
  <path
     id="rect3354"
     d="M 0,0 H 1500 V 140.625 H 0 Z"
     style="fill:#f2f2f2;stroke-width:0.48412293" />
  <g
     id="flowRoot876"
     style="font-style:normal;font-variant:normal;font-weight:normal;font-stretch:normal;font-size:17.77584267px;line-height:1;font-family:'Futura LT Book';-inkscape-font-specification:'Futura LT Book, ';text-align:start;letter-spacing:0px;word-spacing:0px;text-anchor:start;fill:#333333;fill-opacity:1;stroke:none;stroke-width:1px;stroke-linecap:butt;stroke-linejoin:miter;stroke-opacity:1"
     transform="matrix(5.0630513,0,0,5.0630513,138.91399,-317.32399)"
     aria-label="Lately REAL">
    <path
       id="path1005"
       style="font-style:normal;font-variant:normal;font-weight:normal;font-stretch:normal;font-size:17.77584267px;line-height:1;font-family:'Futura LT Book';-inkscape-font-specification:'Futura LT Book, ';text-align:start;text-anchor:start;fill:#333333"
       d="m 25.57265,77.205032 h 3.697376 v 1.386515 H 24.07948 V 65.188562 h 1.49317 z" />
    <path
       id="path1007"
       style="font-style:normal;font-variant:normal;font-weight:normal;font-stretch:normal;font-size:17.77584267px;line-height:1;font-family:'Futura LT Book';-inkscape-font-specification:'Futura LT Book, ';text-align:start;text-anchor:start;fill:#333333"
       d="M 38.371257,78.591547 H 36.94919 v -1.155429 h -0.03555 q -1.102102,1.386515 -2.879686,1.386515 -0.924344,0 -1.670929,-0.355516 -0.72881,-0.373293 -1.262085,-0.977672 -0.5155,-0.604378 -0.799913,-1.386515 -0.266638,-0.799913 -0.266638,-1.67093 0,-0.888792 0.266638,-1.688705 0.284413,-0.817689 0.799913,-1.422067 0.515499,-0.604379 1.262085,-0.959896 0.746585,-0.355517 1.688705,-0.355517 0.85324,0 1.599825,0.373293 0.746586,0.373293 1.262085,1.048775 h 0.03555 v -1.190982 h 1.422067 z M 34.21171,71.321228 q -0.622154,0 -1.119878,0.248862 -0.497723,0.248861 -0.85324,0.675482 -0.355517,0.408844 -0.551051,0.959895 -0.195535,0.533275 -0.195535,1.119878 0,0.622155 0.177759,1.190982 0.177758,0.568827 0.515499,1.013223 0.355517,0.444396 0.853241,0.711033 0.515499,0.266638 1.190981,0.266638 0.693258,0 1.208757,-0.248862 0.5155,-0.266637 0.871017,-0.693258 0.355517,-0.444396 0.533275,-1.013223 0.177758,-0.568827 0.177758,-1.208757 0,-0.622154 -0.195534,-1.173206 -0.195534,-0.551051 -0.551051,-0.959895 -0.355517,-0.408844 -0.888792,-0.63993 -0.5155,-0.248862 -1.173206,-0.248862 z" />
    <path
       id="path1009"
       style="font-style:normal;font-variant:normal;font-weight:normal;font-stretch:normal;font-size:17.77584267px;line-height:1;font-family:'Futura LT Book';-inkscape-font-specification:'Futura LT Book, ';text-align:start;text-anchor:start;fill:#333333"
       d="m 42.480533,78.591547 h -1.422067 v -7.039233 h -0.871017 v -1.315413 h 0.871017 v -3.004117 h 1.422067 v 3.004117 h 1.493171 v 1.315413 h -1.493171 z" />
    <path
       id="path1011"
       style="font-style:normal;font-variant:normal;font-weight:normal;font-stretch:normal;font-size:17.77584267px;line-height:1;font-family:'Futura LT Book';-inkscape-font-specification:'Futura LT Book, ';text-align:start;text-anchor:start;fill:#333333"
       d="m 51.034878,73.507656 q -0.0711,-0.444396 -0.302189,-0.835464 -0.213311,-0.408845 -0.533276,-0.711034 -0.319965,-0.302189 -0.746585,-0.462172 -0.408844,-0.177758 -0.871016,-0.177758 -0.462172,0 -0.888793,0.177758 -0.42662,0.159983 -0.782137,0.462172 -0.337741,0.302189 -0.568827,0.711034 -0.231086,0.391068 -0.302189,0.835464 z m -5.066115,1.208758 q 0,0.586603 0.195534,1.102102 0.21331,0.497724 0.568827,0.871016 0.355517,0.373293 0.85324,0.604379 0.5155,0.21331 1.119879,0.21331 0.906567,0 1.510946,-0.479948 0.622155,-0.497723 1.030999,-1.244309 l 1.208757,0.693258 q -0.604378,1.119878 -1.599826,1.742033 -0.977671,0.604378 -2.257532,0.604378 -0.942119,0 -1.70648,-0.337741 -0.746586,-0.337741 -1.279861,-0.906568 -0.533275,-0.586602 -0.817689,-1.368739 -0.284413,-0.782138 -0.284413,-1.688705 0,-0.924344 0.266637,-1.742033 0.266638,-0.835465 0.782137,-1.439843 0.5155,-0.622155 1.262085,-0.977672 0.764361,-0.355517 1.742033,-0.355517 1.013223,0 1.777584,0.391069 0.764361,0.373293 1.262085,1.030999 0.515499,0.657706 0.746585,1.510947 0.231086,0.85324 0.177759,1.777584 z" />
    <path
       id="path1013"
       style="font-style:normal;font-variant:normal;font-weight:normal;font-stretch:normal;font-size:17.77584267px;line-height:1;font-family:'Futura LT Book';-inkscape-font-specification:'Futura LT Book, ';text-align:start;text-anchor:start;fill:#333333"
       d="m 55.879352,78.591547 h -1.422067 v -14.66507 h 1.422067 z" />
    <path
       id="path1015"
       style="font-style:normal;font-variant:normal;font-weight:normal;font-stretch:normal;font-size:17.77584267px;line-height:1;font-family:'Futura LT Book';-inkscape-font-specification:'Futura LT Book, ';text-align:start;text-anchor:start;fill:#333333"
       d="m 57.133661,70.236901 h 1.653153 l 2.95079,5.990459 2.701928,-5.990459 h 1.617602 L 59.888916,83.28437 h -1.617601 l 2.701928,-5.47496 z" />
    <path
       id="path1017"
       style="font-style:normal;font-variant:normal;font-weight:normal;font-stretch:normal;font-size:17.77584267px;line-height:1;font-family:'Futura LT Book';-inkscape-font-specification:'Futura LT Book, ';text-align:start;text-anchor:start;fill:#333333"
       d="M 74.352062,78.591547 H 72.858891 V 65.188562 h 1.937567 q 0.959895,0 1.830912,0.159983 0.888792,0.142206 1.564274,0.551051 0.693258,0.408844 1.102102,1.137654 0.408844,0.711033 0.408844,1.848687 0,1.564275 -0.906568,2.559722 -0.888792,0.995447 -2.453066,1.137654 l 4.266202,6.008234 h -1.830911 l -4.052893,-5.883803 h -0.373292 z m 0,-7.199216 h 0.462172 q 0.63993,0 1.244309,-0.0711 0.604378,-0.08888 1.084326,-0.337741 0.479948,-0.266638 0.764361,-0.72881 0.30219,-0.479947 0.30219,-1.262085 0,-0.817688 -0.284414,-1.297636 -0.284413,-0.497724 -0.764361,-0.72881 -0.462172,-0.248861 -1.084326,-0.319965 -0.604379,-0.0711 -1.279861,-0.0711 h -0.444396 z" />
    <path
       id="path1019"
       style="font-style:normal;font-variant:normal;font-weight:normal;font-stretch:normal;font-size:17.77584267px;line-height:1;font-family:'Futura LT Book';-inkscape-font-specification:'Futura LT Book, ';text-align:start;text-anchor:start;fill:#333333"
       d="m 82.510617,65.188562 h 6.950354 v 1.386516 h -5.457183 v 3.981789 h 5.297201 v 1.386515 h -5.297201 v 5.26165 h 5.457183 v 1.386515 h -6.950354 z" />
    <path
       id="path1021"
       style="font-style:normal;font-variant:normal;font-weight:normal;font-stretch:normal;font-size:17.77584267px;line-height:1;font-family:'Futura LT Book';-inkscape-font-specification:'Futura LT Book, ';text-align:start;text-anchor:start;fill:#333333"
       d="M 96.894883,68.032697 94.6018,73.401001 h 4.53284 z m -2.897462,6.75482 -1.617602,3.80403 h -1.635377 l 6.185993,-14.042915 6.026015,14.042915 h -1.65316 l -1.582048,-3.80403 z" />
    <path
       id="path1023"
       style="font-style:normal;font-variant:normal;font-weight:normal;font-stretch:normal;font-size:17.77584267px;line-height:1;font-family:'Futura LT Book';-inkscape-font-specification:'Futura LT Book, ';text-align:start;text-anchor:start;fill:#333333"
       d="m 105.91113,77.205032 h 3.69737 v 1.386515 h -5.19054 V 65.188562 h 1.49317 z" />
  </g>
  <g
     id="flowRoot1002"
     style="font-style:normal;font-variant:normal;font-weight:500;font-stretch:normal;font-size:4.93773413px;line-height:1;font-family:'Renner*';-inkscape-font-specification:'Renner* Medium';text-align:start;letter-spacing:0px;word-spacing:0px;text-anchor:start;fill:#333333;fill-opacity:1;stroke:none;stroke-width:1px;stroke-linecap:butt;stroke-linejoin:miter;stroke-opacity:1"
     transform="matrix(5.0630513,0,0,5.0630513,138.91399,-212.32399)"
     aria-label="Futura">
    <path
       id="path1062"
       style="font-style:normal;font-variant:normal;font-weight:500;font-stretch:normal;font-size:4.93773413px;line-height:1;font-family:'Renner*';-inkscape-font-specification:'Renner* Medium';text-align:start;text-anchor:start;fill:#333333"
       d="m 23.686436,67.514863 v 1.560324 h -0.572777 v -3.456414 h 1.905965 v 0.5234 h -1.333188 v 0.864104 h 1.283811 v 0.508586 z" />
    <path
       id="path1064"
       style="font-style:normal;font-variant:normal;font-weight:500;font-stretch:normal;font-size:4.93773413px;line-height:1;font-family:'Renner*';-inkscape-font-specification:'Renner* Medium';text-align:start;text-anchor:start;fill:#333333"
       d="m 26.095819,68.186395 q 0,0.508587 0.424645,0.508587 0.227136,0 0.365392,-0.138257 0.138257,-0.143194 0.138257,-0.37033 V 66.80383 h 0.533275 v 2.271357 H 27.024113 V 68.71967 q -0.227136,0.404895 -0.686345,0.404895 -0.380206,0 -0.587591,-0.222198 Q 25.54773,68.675231 25.54773,68.245648 V 66.80383 h 0.548089 z" />
    <path
       id="path1066"
       style="font-style:normal;font-variant:normal;font-weight:500;font-stretch:normal;font-size:4.93773413px;line-height:1;font-family:'Renner*';-inkscape-font-specification:'Renner* Medium';text-align:start;text-anchor:start;fill:#333333"
       d="m 28.3026,66.013792 h 0.528338 v 0.790038 h 0.380205 v 0.469084 h -0.380205 v 1.802273 H 28.3026 V 67.272914 H 27.922395 V 66.80383 H 28.3026 Z" />
    <path
       id="path1068"
       style="font-style:normal;font-variant:normal;font-weight:500;font-stretch:normal;font-size:4.93773413px;line-height:1;font-family:'Renner*';-inkscape-font-specification:'Renner* Medium';text-align:start;text-anchor:start;fill:#333333"
       d="m 30.127016,68.186395 q 0,0.508587 0.424645,0.508587 0.227136,0 0.365392,-0.138257 0.138257,-0.143194 0.138257,-0.37033 V 66.80383 h 0.533275 v 2.271357 H 31.05531 V 68.71967 q -0.227136,0.404895 -0.686345,0.404895 -0.380206,0 -0.587591,-0.222198 -0.202447,-0.227136 -0.202447,-0.656719 V 66.80383 h 0.548089 z" />
    <path
       id="path1070"
       style="font-style:normal;font-variant:normal;font-weight:500;font-stretch:normal;font-size:4.93773413px;line-height:1;font-family:'Renner*';-inkscape-font-specification:'Renner* Medium';text-align:start;text-anchor:start;fill:#333333"
       d="m 33.474413,67.376607 q -0.153069,-0.123444 -0.301201,-0.123444 -0.375268,0 -0.375268,0.543151 v 1.278873 H 32.269606 V 66.80383 h 0.528338 v 0.276513 q 0.212322,-0.325891 0.518462,-0.325891 0.271575,0 0.419707,0.167883 z" />
    <path
       id="path1072"
       style="font-style:normal;font-variant:normal;font-weight:500;font-stretch:normal;font-size:4.93773413px;line-height:1;font-family:'Renner*';-inkscape-font-specification:'Renner* Medium';text-align:start;text-anchor:start;fill:#333333"
       d="m 34.428091,68.403655 q 0,0.316015 0.419707,0.316015 0.607342,0 0.607342,-0.54315 v -0.04444 q -0.222199,-0.113568 -0.513525,-0.113568 -0.251824,0 -0.385143,0.103693 -0.128381,0.09875 -0.128381,0.28145 z m -0.113568,-0.997422 -0.21726,-0.385143 q 0.454271,-0.271575 0.933231,-0.271575 0.424646,0 0.686345,0.187633 0.2617,0.187634 0.2617,0.518463 v 1.619576 H 35.45514 v -0.32589 q -0.09875,0.177758 -0.30614,0.276513 -0.202447,0.09875 -0.464147,0.09875 -0.365392,0 -0.582653,-0.177759 -0.212322,-0.182696 -0.212322,-0.493773 0,-0.37033 0.266637,-0.572777 0.271576,-0.202447 0.706096,-0.202447 0.325891,0 0.592529,0.153069 v -0.316015 q 0,-0.153069 -0.128382,-0.241949 -0.128381,-0.08888 -0.320952,-0.08888 -0.365393,0 -0.691283,0.222198 z" />
  </g>
  <g
     aria-label="Lately REAL"
     transform="matrix(5.9219821,0,0,5.9219821,499.99502,-381.0961)"
     style="font-style:normal;font-variant:normal;font-weight:normal;font-stretch:normal;font-size:16.31354904px;line-height:1;font-family:'Renner*';-inkscape-font-specification:'Renner*';text-align:end;letter-spacing:0px;word-spacing:0px;text-anchor:end;fill:#333333;fill-opacity:1;stroke:none;stroke-width:1px;stroke-linecap:butt;stroke-linejoin:miter;stroke-opacity:1"
     id="g1141">
    <path
       d="m 50.10868,66.523304 h 1.386651 v 10.114401 h 4.486226 v 1.305084 H 50.10868 Z"
       style="font-style:normal;font-variant:normal;font-weight:normal;font-stretch:normal;font-size:16.31354904px;line-height:1;font-family:'Renner*';-inkscape-font-specification:'Renner*';text-align:end;text-anchor:end;fill:#333333"
       id="path1121" />
    <path
       d="m 57.942752,72.200419 -0.636229,-0.995126 q 1.272457,-0.929873 2.871185,-0.929873 1.305084,0 2.088134,0.603602 0.799364,0.603601 0.799364,1.680295 v 5.383472 h -1.305084 v -1.076695 q -0.342585,0.587288 -1.027754,0.913559 -0.668855,0.326271 -1.533473,0.326271 -1.174576,0 -1.876058,-0.587288 -0.701483,-0.603601 -0.701483,-1.615041 0,-1.256143 0.880932,-1.941312 0.897245,-0.685169 2.316524,-0.685169 1.125635,0 1.941312,0.538347 v -1.256144 q 0,-0.538347 -0.473093,-0.831991 -0.456779,-0.309957 -1.109321,-0.309957 -1.158262,0 -2.234956,0.78305 z m 0,3.54004 q 0,1.207203 1.582414,1.207203 2.234956,0 2.234956,-1.941312 v -0.293644 q -0.848305,-0.440466 -1.876058,-0.440466 -1.941312,0 -1.941312,1.468219 z"
       style="font-style:normal;font-variant:normal;font-weight:normal;font-stretch:normal;font-size:16.31354904px;line-height:1;font-family:'Renner*';-inkscape-font-specification:'Renner*';text-align:end;text-anchor:end;fill:#333333"
       id="path1123" />
    <path
       d="m 65.338907,67.828388 h 1.305084 v 2.610168 h 1.223516 v 1.223516 h -1.223516 v 6.280717 h -1.305084 v -6.280717 h -1.223516 v -1.223516 h 1.223516 z"
       style="font-style:normal;font-variant:normal;font-weight:normal;font-stretch:normal;font-size:16.31354904px;line-height:1;font-family:'Renner*';-inkscape-font-specification:'Renner*';text-align:end;text-anchor:end;fill:#333333"
       id="path1125" />
    <path
       d="m 68.523873,74.190672 q 0,-1.745549 1.044067,-2.822244 1.044068,-1.093008 2.675422,-1.093008 1.598728,0 2.561228,1.044068 0.978813,1.044067 0.978813,2.80593 0,0.261017 -0.01631,0.391525 h -5.905505 q 0.08157,1.125635 0.717796,1.74555 0.636229,0.619915 1.663982,0.619915 1.51716,0 2.349151,-1.354025 l 1.060381,0.668856 q -0.619915,0.962499 -1.419279,1.435592 -0.799363,0.473093 -2.153388,0.473093 -1.533474,0 -2.544914,-1.109321 -1.01144,-1.109322 -1.01144,-2.805931 z m 5.840251,-0.78305 q -0.09788,-0.913559 -0.636229,-1.451906 -0.538347,-0.538347 -1.484533,-0.538347 -0.929872,0 -1.598727,0.554661 -0.652542,0.538347 -0.750424,1.435592 z"
       style="font-style:normal;font-variant:normal;font-weight:normal;font-stretch:normal;font-size:16.31354904px;line-height:1;font-family:'Renner*';-inkscape-font-specification:'Renner*';text-align:end;text-anchor:end;fill:#333333"
       id="path1127" />
    <path
       d="m 77.588088,65.21822 h 1.305084 v 12.724569 h -1.305084 z"
       style="font-style:normal;font-variant:normal;font-weight:normal;font-stretch:normal;font-size:16.31354904px;line-height:1;font-family:'Renner*';-inkscape-font-specification:'Renner*';text-align:end;text-anchor:end;fill:#333333"
       id="path1129" />
    <path
       d="m 87.302297,70.438556 -4.894065,11.093213 h -1.468219 l 2.055507,-4.649361 -2.871185,-6.443852 h 1.549788 l 2.104447,5.171395 2.055508,-5.171395 z"
       style="font-style:normal;font-variant:normal;font-weight:normal;font-stretch:normal;font-size:16.31354904px;line-height:1;font-family:'Renner*';-inkscape-font-specification:'Renner*';text-align:end;text-anchor:end;fill:#333333"
       id="path1131" />
    <path
       d="m 94.891922,73.374995 v 4.567794 H 93.505271 V 66.523304 h 3.099574 q 1.680296,0 2.773303,0.946186 1.109322,0.929872 1.109322,2.47966 0,1.256143 -0.750424,2.137074 -0.734109,0.864619 -1.973939,1.158262 l 3.409533,4.698303 h -1.712924 l -3.181142,-4.567794 z m 0,-1.223516 h 1.712923 q 1.125635,0 1.810804,-0.587288 0.685169,-0.587288 0.685169,-1.615041 0,-1.027754 -0.685169,-1.615042 Q 97.73048,67.74682 96.604845,67.74682 h -1.712923 z"
       style="font-style:normal;font-variant:normal;font-weight:normal;font-stretch:normal;font-size:16.31354904px;line-height:1;font-family:'Renner*';-inkscape-font-specification:'Renner*';text-align:end;text-anchor:end;fill:#333333"
       id="path1133" />
    <path
       d="m 104.03643,72.396182 v 4.241523 h 5.13877 v 1.305084 h -6.52542 V 66.523304 h 6.52542 v 1.305084 h -5.13877 v 3.26271 h 4.8125 v 1.305084 z"
       style="font-style:normal;font-variant:normal;font-weight:normal;font-stretch:normal;font-size:16.31354904px;line-height:1;font-family:'Renner*';-inkscape-font-specification:'Renner*';text-align:end;text-anchor:end;fill:#333333"
       id="path1135" />
    <path
       d="m 113.41315,74.516943 -1.4519,3.425846 h -1.54979 l 5.3019,-11.990459 5.3019,11.990459 h -1.54978 l -1.45191,-3.425846 z m 0.55466,-1.305084 h 3.4911 l -1.74555,-4.111014 z"
       style="font-style:normal;font-variant:normal;font-weight:normal;font-stretch:normal;font-size:16.31354904px;line-height:1;font-family:'Renner*';-inkscape-font-specification:'Renner*';text-align:end;text-anchor:end;fill:#333333"
       id="path1137" />
    <path
       d="m 122.40446,66.523304 h 1.38666 v 10.114401 h 4.48622 v 1.305084 h -5.87288 z"
       style="font-style:normal;font-variant:normal;font-weight:normal;font-stretch:normal;font-size:16.31354904px;line-height:1;font-family:'Renner*';-inkscape-font-specification:'Renner*';text-align:end;text-anchor:end;fill:#333333"
       id="path1139" />
  </g>
  <g
     aria-label="Renner*"
     transform="matrix(5.9219821,0,0,5.9219821,659.37002,-268.5961)"
     style="font-style:normal;font-variant:normal;font-weight:500;font-stretch:normal;font-size:4.22155952px;line-height:1;font-family:'Renner*';-inkscape-font-specification:'Renner* Medium';text-align:start;letter-spacing:0px;word-spacing:0px;text-anchor:start;fill:#333333;fill-opacity:1;stroke:none;stroke-width:1px;stroke-linecap:butt;stroke-linejoin:miter;stroke-opacity:1"
     id="g1157">
    <path
       d="m 23.555941,66.974043 h 0.392605 q 0.261737,0 0.413713,-0.130868 0.156198,-0.130869 0.156198,-0.367276 0,-0.236407 -0.156198,-0.367276 -0.151976,-0.130868 -0.413713,-0.130868 h -0.392605 z m 0,0.409491 v 1.118714 h -0.498144 v -2.955092 h 0.911857 q 0.481258,0 0.772546,0.253294 0.291287,0.249072 0.291287,0.667006 0,0.320838 -0.173084,0.544581 -0.173084,0.223743 -0.485479,0.316617 l 0.835869,1.173594 H 24.60711 l -0.747216,-1.118714 z"
       style="font-style:normal;font-variant:normal;font-weight:500;font-stretch:normal;font-size:4.22155952px;line-height:1;font-family:'Renner*';-inkscape-font-specification:'Renner* Medium';text-align:start;text-anchor:start;fill:#333333"
       id="path1143" />
    <path
       d="m 26.877055,67.320211 q -0.02533,-0.2153 -0.147754,-0.333503 -0.122425,-0.122425 -0.333503,-0.122425 -0.211078,0 -0.358833,0.122425 -0.143533,0.122425 -0.173084,0.333503 z m -1.021617,0.316617 q 0.02533,0.261737 0.168862,0.396827 0.143533,0.135089 0.375719,0.135089 0.371497,0 0.557246,-0.308173 l 0.396827,0.160419 q -0.16042,0.257515 -0.384162,0.392605 -0.219521,0.130868 -0.591019,0.130868 -0.443263,0 -0.717665,-0.282844 -0.274401,-0.287066 -0.274401,-0.73033 0,-0.118204 0.01689,-0.206856 0.06332,-0.367276 0.32506,-0.586797 0.261737,-0.219521 0.671228,-0.219521 0.447486,0 0.709222,0.265958 0.261737,0.265958 0.261737,0.726108 0,0.03377 -0.0084,0.126647 z"
       style="font-style:normal;font-variant:normal;font-weight:500;font-stretch:normal;font-size:4.22155952px;line-height:1;font-family:'Renner*';-inkscape-font-specification:'Renner* Medium';text-align:start;text-anchor:start;fill:#333333"
       id="path1145" />
    <path
       d="m 29.05162,67.320211 q 0,-0.434821 -0.358833,-0.434821 -0.194191,0 -0.312395,0.122426 -0.118204,0.118203 -0.118204,0.312395 v 1.182037 h -0.46015 V 66.56033 h 0.46015 v 0.299731 q 0.185749,-0.341946 0.582576,-0.341946 0.32506,0 0.498144,0.194191 0.177305,0.189971 0.177305,0.557246 v 1.232696 H 29.05162 Z"
       style="font-style:normal;font-variant:normal;font-weight:500;font-stretch:normal;font-size:4.22155952px;line-height:1;font-family:'Renner*';-inkscape-font-specification:'Renner* Medium';text-align:start;text-anchor:start;fill:#333333"
       id="path1147" />
    <path
       d="m 31.35204,67.320211 q 0,-0.434821 -0.358832,-0.434821 -0.194192,0 -0.312396,0.122426 -0.118203,0.118203 -0.118203,0.312395 v 1.182037 h -0.46015 V 66.56033 h 0.46015 v 0.299731 q 0.185748,-0.341946 0.582575,-0.341946 0.32506,0 0.498144,0.194191 0.177305,0.189971 0.177305,0.557246 v 1.232696 H 31.35204 Z"
       style="font-style:normal;font-variant:normal;font-weight:500;font-stretch:normal;font-size:4.22155952px;line-height:1;font-family:'Renner*';-inkscape-font-specification:'Renner* Medium';text-align:start;text-anchor:start;fill:#333333"
       id="path1149" />
    <path
       d="m 33.745335,67.320211 q -0.02533,-0.2153 -0.147755,-0.333503 -0.122425,-0.122425 -0.333503,-0.122425 -0.211078,0 -0.358832,0.122425 -0.143533,0.122425 -0.173084,0.333503 z m -1.021618,0.316617 q 0.02533,0.261737 0.168863,0.396827 0.143533,0.135089 0.375719,0.135089 0.371497,0 0.557246,-0.308173 l 0.396826,0.160419 q -0.160419,0.257515 -0.384162,0.392605 -0.219521,0.130868 -0.591018,0.130868 -0.443264,0 -0.717665,-0.282844 -0.274402,-0.287066 -0.274402,-0.73033 0,-0.118204 0.01689,-0.206856 0.06332,-0.367276 0.32506,-0.586797 0.261736,-0.219521 0.671228,-0.219521 0.447485,0 0.709222,0.265958 0.261736,0.265958 0.261736,0.726108 0,0.03377 -0.0084,0.126647 z"
       style="font-style:normal;font-variant:normal;font-weight:500;font-stretch:normal;font-size:4.22155952px;line-height:1;font-family:'Renner*';-inkscape-font-specification:'Renner* Medium';text-align:start;text-anchor:start;fill:#333333"
       id="path1151" />
    <path
       d="m 35.700378,67.050031 q -0.130868,-0.105539 -0.257515,-0.105539 -0.320838,0 -0.320838,0.464372 v 1.093384 H 34.670318 V 66.56033 h 0.451707 v 0.236408 q 0.181527,-0.278623 0.443263,-0.278623 0.232186,0 0.358833,0.143533 z"
       style="font-style:normal;font-variant:normal;font-weight:500;font-stretch:normal;font-size:4.22155952px;line-height:1;font-family:'Renner*';-inkscape-font-specification:'Renner* Medium';text-align:start;text-anchor:start;fill:#333333"
       id="path1153" />
    <path
       d="m 36.980105,65.547156 h 0.413713 l -0.06332,0.688114 0.641678,-0.27018 0.126646,0.392605 -0.679671,0.156198 0.46015,0.523473 -0.337725,0.240629 -0.354611,-0.59524 -0.354611,0.59524 -0.337724,-0.240629 0.46015,-0.523473 -0.679671,-0.156198 0.126646,-0.392605 0.641677,0.27018 z"
       style="font-style:normal;font-variant:normal;font-weight:500;font-stretch:normal;font-size:4.22155952px;line-height:1;font-family:'Renner*';-inkscape-font-specification:'Renner* Medium';text-align:start;text-anchor:start;fill:#333333"
       id="path1155" />
  </g>
</svg>
