<?xml version="1.0" encoding="UTF-8" standalone="no"?>
<svg
   xmlns:dc="http://purl.org/dc/elements/1.1/"
   xmlns:cc="http://creativecommons.org/ns#"
   xmlns:rdf="http://www.w3.org/1999/02/22-rdf-syntax-ns#"
   xmlns:svg="http://www.w3.org/2000/svg"
   xmlns="http://www.w3.org/2000/svg"
   viewBox="0 0 1500 600"
   height="640"
   width="1600"
   version="1.1"
   id="svg2">
  <metadata
     id="metadata8">
    <rdf:RDF>
      <cc:Work
         rdf:about="">
        <dc:format>image/svg+xml</dc:format>
        <dc:type
           rdf:resource="http://purl.org/dc/dcmitype/StillImage" />
        <dc:title></dc:title>
      </cc:Work>
    </rdf:RDF>
  </metadata>
  <defs
     id="defs6" />
  <path
     id="rect3354"
     d="M 0,0 H 1500 V 600 H 0 Z"
     style="fill:#f2f2f2" />
  <g
     id="flowRoot28"
     style="font-style:normal;font-variant:normal;font-weight:normal;font-stretch:normal;font-size:192px;line-height:125%;font-family:'Jost*';-inkscape-font-specification:'Jost*';text-align:center;letter-spacing:0px;word-spacing:0px;text-anchor:middle;fill:#000000;fill-opacity:1;stroke:none;stroke-width:1px;stroke-linecap:butt;stroke-linejoin:miter;stroke-opacity:1"
     transform="matrix(0.9375,0,0,0.9375,0,-99.375)" />
  <g
     id="flowRoot50"
     style="font-style:normal;font-variant:normal;font-weight:normal;font-stretch:normal;font-size:192px;line-height:125%;font-family:'Jost*';-inkscape-font-specification:'Jost*';text-align:center;letter-spacing:0px;word-spacing:0px;text-anchor:middle;fill:#000000;fill-opacity:1;stroke:none;stroke-width:1px;stroke-linecap:butt;stroke-linejoin:miter;stroke-opacity:1"
     transform="matrix(0.9375,0,0,0.9375,-22.5,-82.5)"
     aria-label="Renner*">
    <path
       id="path89"
       style="fill:#333333"
       d="m 542.29816,174.68738 v -51.84 h 20.16 q 13.056,0 21.12,6.912 8.256,6.72 8.256,19.008 0,12.288 -8.256,19.2 -8.064,6.72 -21.12,6.72 z m 0,14.4 h 16.32 l 37.44,53.76 h 20.16 l -40.128,-55.296 q 14.016,-3.456 23.04,-13.44 9.024,-10.176 9.024,-25.344 0,-12.288 -6.144,-21.312 -5.952,-9.216 -16.32,-14.016 -10.176,-4.992 -23.232,-4.992 h -20.16 -7.296 -9.024 v 134.4 h 16.32 z" />
    <path
       id="path91"
       style="fill:#333333"
       d="m 693.69916,189.47138 h -52.608 q 1.152,-10.752 9.024,-17.088 8.064,-6.336 18.624,-6.336 11.52,0 17.664,6.528 6.144,6.528 7.296,16.896 z m -52.992,13.056 h 69.504 q 0.192,-1.152 0.192,-2.304 0,-1.152 0,-2.304 0,-13.824 -5.184,-24 -5.184,-10.176 -14.592,-15.744 -9.408,-5.568 -21.888,-5.568 -11.328,0 -20.544,4.608 -9.024,4.608 -14.976,12.864 -5.76,8.256 -7.488,19.2 -0.384,2.304 -0.576,4.608 -0.192,2.304 -0.192,4.8 0,13.44 5.376,23.808 5.568,10.368 14.976,16.32 9.408,5.952 21.504,5.952 11.328,0 19.008,-2.688 7.872,-2.88 13.248,-7.872 5.376,-5.184 9.792,-11.904 l -12.48,-7.872 q -4.416,7.296 -11.328,11.712 -6.72,4.224 -16.32,4.224 -12.096,0 -19.584,-7.104 -7.488,-7.296 -8.448,-20.736 z" />
    <path
       id="path93"
       style="fill:#333333"
       d="m 788.28316,189.08738 v 53.76 h 15.36 v -55.68 q 0,-17.088 -8.448,-25.728 -8.256,-8.832 -21.888,-8.832 -8.64,0 -15.552,4.416 -6.72,4.224 -10.752,11.52 v -14.016 h -15.36 v 88.32 h 15.36 v -53.76 q 0,-9.6 6.144,-15.744 6.336,-6.336 16.32,-6.336 18.816,0 18.816,22.08 z" />
    <path
       id="path95"
       style="fill:#333333"
       d="m 889.15816,189.08738 v 53.76 h 15.36 v -55.68 q 0,-17.088 -8.448,-25.728 -8.256,-8.832 -21.888,-8.832 -8.64,0 -15.552,4.416 -6.72,4.224 -10.752,11.52 v -14.016 h -15.36 v 88.32 h 15.36 v -53.76 q 0,-9.6 6.144,-15.744 6.336,-6.336 16.32,-6.336 18.816,0 18.816,22.08 z" />
    <path
       id="path97"
       style="fill:#333333"
       d="m 994.44916,189.47138 h -52.608 q 1.152,-10.752 9.024,-17.088 8.064,-6.336 18.624,-6.336 11.52,0 17.664,6.528 6.144,6.528 7.296,16.896 z m -52.992,13.056 h 69.50404 q 0.192,-1.152 0.192,-2.304 0,-1.152 0,-2.304 0,-13.824 -5.184,-24 -5.184,-10.176 -14.59204,-15.744 -9.408,-5.568 -21.888,-5.568 -11.328,0 -20.544,4.608 -9.024,4.608 -14.976,12.864 -5.76,8.256 -7.488,19.2 -0.384,2.304 -0.576,4.608 -0.192,2.304 -0.192,4.8 0,13.44 5.376,23.808 5.568,10.368 14.976,16.32 9.408,5.952 21.504,5.952 11.328,0 19.008,-2.688 7.872,-2.88 13.248,-7.872 5.37604,-5.184 9.79204,-11.904 l -12.48004,-7.872 q -4.416,7.296 -11.328,11.712 -6.72,4.224 -16.32,4.224 -12.096,0 -19.584,-7.104 -7.488,-7.296 -8.448,-20.736 z" />
    <path
       id="path99"
       style="fill:#333333"
       d="m 1074.4412,171.42338 8.448,-12.672 q -3.456,-3.648 -7.68,-4.8 -4.032,-1.344 -8.832,-1.344 -4.992,0 -9.984,3.264 -4.992,3.264 -8.64,8.832 v -10.176 h -15.36 v 88.32 h 15.36 v -53.76 q 0,-9.6 3.072,-15.744 3.072,-6.336 11.712,-6.336 3.84,0 6.336,1.152 2.496,0.96 5.568,3.264 z" />
    <path
       id="path101"
       style="font-style:normal;font-variant:normal;font-weight:normal;font-stretch:normal;font-size:192px;font-family:'Jost*';-inkscape-font-specification:'Jost*';text-align:center;text-anchor:middle;fill:#c83737"
       d="m 1134.1052,108.44738 1.536,30.336 -28.416,-10.944 -4.032,12.864 29.184,7.872 -19.008,23.616 10.944,7.872 16.512,-25.344 16.512,25.344 10.944,-7.872 -19.008,-23.616 29.184,-7.872 -4.032,-12.864 -28.416,10.944 1.536,-30.336 z" />
  </g>
  <g
     id="flowRoot66"
     style="font-style:italic;font-variant:normal;font-weight:500;font-stretch:normal;font-size:74.66666412px;line-height:125%;font-family:'Jost*';-inkscape-font-specification:'Jost* Medium Italic';text-align:center;letter-spacing:0px;word-spacing:0px;text-anchor:middle;fill:#666666;fill-opacity:1;stroke:none;stroke-width:1px;stroke-linecap:butt;stroke-linejoin:miter;stroke-opacity:1"
     transform="matrix(0.9375,0,0,0.9375,-50.625,361.875)"
     aria-label="Version 3.2">
    <path
       id="path104"
       style=""
       d="m 692.83875,126.78378 -8.96,-36.735994 h -10.22933 l 15.904,55.178664 35.31733,-55.178664 h -10.22933 z" />
    <path
       id="path106"
       style=""
       d="m 722.43475,127.00778 h 26.58134 q 0.14933,-0.59733 0.29866,-1.19466 0.14934,-0.59734 0.224,-1.04534 1.41867,-8.13866 -2.31466,-12.84266 -3.73334,-4.704 -11.72267,-4.704 -7.392,0 -12.69333,3.95733 -5.30134,3.95734 -7.46667,10.304 -0.37333,0.896 -0.59733,1.792 -0.14934,0.896 -0.29867,1.86667 -0.896,5.22666 0.52267,9.25866 1.41866,4.032 4.928,6.34667 3.584,2.31467 8.88533,2.31467 6.34667,0 10.976,-2.53867 4.62933,-2.53867 7.91467,-6.72 l -6.496,-2.83733 q -1.94134,2.53866 -4.704,4.032 -2.688,1.41866 -6.12267,1.41866 -3.95733,0 -6.12267,-2.31466 -2.16533,-2.38934 -1.792,-7.09334 z m 19.04,-5.6 h -17.99466 q 1.19466,-3.808 4.18133,-5.89866 2.98667,-2.16533 6.64533,-2.16533 3.88267,0 5.6,2.16533 1.71734,2.16533 1.568,5.89866 z" />
    <path
       id="path108"
       style=""
       d="m 777.84558,116.62912 5.152,-6.86933 q -0.97066,-1.344 -2.53866,-1.94134 -1.49334,-0.59733 -3.36,-0.59733 -2.16534,0 -4.55467,1.26933 -2.31467,1.26934 -4.18133,3.584 l 0.74666,-4.10666 h -7.98933 l -6.048,34.34666 h 7.98933 l 3.43467,-19.33867 q 0.672,-3.65866 2.31467,-5.89866 1.71733,-2.31467 4.77866,-2.31467 1.41867,0 2.31467,0.52267 0.97067,0.448 1.94133,1.344 z" />
    <path
       id="path110"
       style=""
       d="m 786.06942,129.91978 -5.45067,4.55467 q 1.64267,3.808 5.22667,6.34667 3.584,2.53866 8.58666,2.53866 5.45067,0 9.33334,-2.61333 3.95733,-2.688 4.928,-8.13867 0.52266,-2.98666 -0.52267,-4.928 -0.97067,-2.016 -2.912,-3.28533 -1.94133,-1.344 -4.18133,-2.31467 -1.792,-0.82133 -3.65867,-1.49333 -1.86667,-0.672 -2.98667,-1.568 -1.12,-0.896 -0.896,-2.31466 0.29867,-1.568 1.64267,-2.24 1.41867,-0.74667 3.50933,-0.74667 2.09067,0 4.10667,1.19467 2.016,1.19466 3.43467,3.06133 l 5.30133,-4.62933 q -1.49333,-2.61334 -4.704,-4.33067 -3.21067,-1.792 -7.392,-1.792 -3.136,0 -5.97333,1.12 -2.83734,1.12 -4.85334,3.21067 -2.016,2.09066 -2.53866,5.07733 -0.52267,3.28533 0.52266,5.22666 1.12,1.94134 3.136,3.136 2.016,1.19467 4.256,2.16534 2.76267,1.12 4.77867,2.38933 2.09067,1.26933 1.71733,3.50933 -0.29866,1.71734 -1.71733,2.61334 -1.41867,0.82133 -3.50933,0.82133 -2.24,0 -4.77867,-1.792 -2.464,-1.86667 -4.40533,-4.77867 z" />
    <path
       id="path112"
       style=""
       d="m 821.00408,107.96779 -6.048,34.34666 h 7.91466 l 6.048,-34.34666 z m 1.26933,-13.664004 q -0.37333,2.090666 0.82133,3.509333 1.26934,1.418667 3.43467,1.418667 2.16533,0 3.88267,-1.418667 1.71733,-1.418667 2.09066,-3.509333 0.37334,-2.090667 -0.896,-3.509333 -1.26933,-1.418667 -3.36,-1.418667 -2.09066,0 -3.88266,1.418667 -1.71734,1.418666 -2.09067,3.509333 z" />
    <path
       id="path114"
       style=""
       d="m 841.73342,125.14112 q 0.59733,-3.21067 2.31467,-5.6 1.792,-2.464 4.33066,-3.808 2.53867,-1.41867 5.45067,-1.41867 4.33067,0 6.72,3.06133 2.464,2.98667 1.64267,7.76534 -0.59734,3.21066 -2.38934,5.67466 -1.71733,2.38934 -4.33066,3.808 -2.53867,1.344 -5.45067,1.344 -4.40533,0 -6.79467,-2.98666 -2.31466,-3.06134 -1.49333,-7.84 z m -8.288,0 q -0.896,5.30133 0.74667,9.33333 1.71733,4.032 5.52533,6.34667 3.808,2.24 9.03467,2.24 5.22666,0 9.856,-2.24 4.62933,-2.31467 7.76533,-6.34667 3.136,-4.032 4.10667,-9.33333 0.97066,-5.30134 -0.82134,-9.33333 -1.71733,-4.032 -5.52533,-6.272 -3.73333,-2.31467 -9.03467,-2.31467 -5.30133,0 -9.856,2.31467 -4.55466,2.24 -7.69066,6.272 -3.136,4.03199 -4.10667,9.33333 z" />
    <path
       id="path116"
       style=""
       d="m 901.72809,121.40778 -3.65867,20.90667 h 8.288 l 3.808,-21.80267 q 1.12,-6.49599 -1.344,-9.85599 -2.464,-3.43467 -8.21333,-3.43467 -3.50934,0 -6.496,1.64267 -2.912,1.64266 -4.928,4.48 l 0.97066,-5.376 h -8.13866 l -6.048,34.34666 h 8.13866 l 3.808,-21.504 q 0.82134,-3.136 3.21067,-5.07733 2.38933,-2.016 5.67467,-2.016 3.28533,0 4.40533,2.016 1.19467,1.94133 0.52267,5.67466 z" />
    <path
       id="path118"
       style=""
       d="m 955.2419,143.21045 q 5.376,0 9.70667,-1.86667 4.40533,-1.86666 7.24266,-5.22666 2.83734,-3.36 3.584,-7.84 0.97067,-5.30134 -1.344,-8.512 -2.24,-3.28533 -6.64533,-4.77867 4.40533,-1.64266 7.31733,-4.62933 2.912,-3.06133 3.584,-7.01867 0.672,-3.882664 -0.672,-7.018664 -1.344,-3.210667 -4.62933,-5.152 -3.28533,-1.941333 -8.288,-1.941333 -4.85333,0 -8.81067,1.941333 -3.95733,1.866666 -6.57066,5.152 -2.61334,3.285333 -3.36,7.616004 h 8.288 q 0.52266,-3.136 3.21066,-5.152004 2.688,-2.090667 6.048,-2.090667 3.50934,0 4.928,2.016 1.41867,1.941331 0.896,5.077331 -0.59733,3.36 -3.73333,5.824 -3.06133,2.38934 -7.84,2.38934 l -0.29867,1.568 -0.0747,0.52266 -0.52267,2.688 -0.29867,1.792 q 5.30134,0 8.064,2.31467 2.76267,2.31466 2.016,6.496 -0.672,3.88266 -3.50933,6.048 -2.83733,2.16533 -6.79467,2.16533 -3.95733,0 -6.272,-2.24 -2.31466,-2.24 -1.64266,-5.97333 h -8.88534 q -0.74666,4.33066 0.82134,7.91466 1.568,3.584 5.22666,5.74934 3.65867,2.16533 9.25867,2.16533 z" />
    <path
       id="path120"
       style=""
       d="m 982.61075,138.50645 q -0.37333,2.16533 0.82134,3.73333 1.26933,1.49334 3.50933,1.49334 2.24,0 4.032,-1.49334 1.792,-1.568 2.16533,-3.73333 0.37334,-2.16533 -0.896,-3.65867 -1.26933,-1.568 -3.50933,-1.568 -2.24,0 -4.032,1.568 -1.71733,1.49334 -2.09067,3.65867 z" />
    <path
       id="path122"
       style=""
       d="m 1000.3511,142.31445 h 39.872 l 1.4186,-8.21333 h -22.6986 l 17.472,-14.48534 q 3.7333,-2.98666 6.3466,-6.49599 2.6134,-3.584 3.36,-7.69067 0.5227,-2.83733 0,-5.674668 -0.5226,-2.837333 -2.24,-5.226666 -1.7173,-2.464 -4.7786,-3.882667 -2.9867,-1.493333 -7.5414,-1.493333 -5.9733,0 -10.6773,2.538667 -4.704,2.538666 -7.7653,6.943999 -2.9867,4.405338 -3.9574,9.930668 h 8.736 q 0.9707,-5.22667 4.256,-8.36267 3.36,-3.135998 7.84,-3.135998 2.8374,0 4.48,1.194667 1.6427,1.194667 2.24,3.136001 0.5974,1.86667 0.224,3.88267 -0.5973,3.136 -2.6133,5.824 -1.9413,2.688 -5.3013,5.74933 z" />
  </g>
  <path
     id="rect72"
     d="M 422.92551,73.429749 H 1081.1217 V 122.68966 H 422.92551 Z"
     style="opacity:1;fill:#c83737;fill-opacity:1;stroke:none;stroke-width:2.48031497;stroke-linejoin:miter;stroke-miterlimit:4;stroke-dasharray:none;stroke-opacity:1" />
  <g
     id="flowRoot86"
     style="font-style:normal;font-variant:normal;font-weight:normal;font-stretch:normal;font-size:192px;line-height:125%;font-family:'Jost*';-inkscape-font-specification:'Jost*';text-align:center;letter-spacing:0px;word-spacing:0px;text-anchor:middle;fill:#000000;fill-opacity:1;stroke:none;stroke-width:1px;stroke-linecap:butt;stroke-linejoin:miter;stroke-opacity:1"
     transform="matrix(0.9375,0,0,0.9375,-22.5,123.75)"
     aria-label="Jost*">
    <path
       id="path126"
       style="fill:#333333"
       d="m 647.19166,262.81538 -8.448,12.672 q 2.112,2.88 8.64,6.144 6.336,3.456 14.016,3.456 13.632,0 21.504,-7.488 7.872,-7.488 7.872,-23.232 v -145.92 h -15.36 v 144 q 0,9.6 -4.416,13.44 -4.416,3.84 -8.64,3.84 -10.944,0 -15.168,-6.912 z" />
    <path
       id="path128"
       style="fill:#333333"
       d="m 712.90066,198.68738 q 0,13.44 5.952,23.808 6.144,10.368 16.512,16.32 10.368,5.952 23.232,5.952 12.864,0 23.232,-5.952 10.368,-5.952 16.32,-16.32 6.144,-10.368 6.144,-23.808 0,-13.44 -6.144,-23.808 -5.952,-10.368 -16.32,-16.32 -10.368,-5.952 -23.232,-5.952 -12.864,0 -23.232,5.952 -10.368,5.952 -16.512,16.32 -5.952,10.368 -5.952,23.808 z m 15.552,0 q 0,-9.216 3.84,-16.32 4.032,-7.104 10.752,-11.136 6.912,-4.224 15.552,-4.224 8.64,0 15.36,4.224 6.912,4.032 10.752,11.136 4.032,7.104 4.032,16.32 0,9.216 -4.032,16.32 -3.84,7.104 -10.752,11.328 -6.72,4.032 -15.36,4.032 -8.64,0 -15.552,-4.032 -6.72,-4.224 -10.752,-11.328 -3.84,-7.104 -3.84,-16.32 z" />
    <path
       id="path130"
       style="fill:#333333"
       d="m 828.07666,211.74338 -12.096,7.488 q 4.8,10.752 14.4,18.24 9.792,7.296 22.08,7.296 12.864,0 21.504,-6.336 8.832,-6.336 8.832,-20.544 0,-7.296 -3.456,-12.288 -3.456,-5.184 -9.216,-8.448 -5.568,-3.456 -11.712,-6.144 -4.992,-1.92 -9.984,-3.84 -4.992,-1.92 -8.448,-4.416 -3.456,-2.688 -3.456,-6.912 0,-5.184 4.032,-7.104 4.032,-2.112 9.792,-2.112 5.376,0 10.752,3.456 5.376,3.264 8.64,7.68 l 12.288,-7.872 q -4.032,-7.296 -12.672,-12.288 -8.64,-4.992 -19.2,-4.992 -7.104,0 -13.632,2.496 -6.528,2.496 -10.752,7.872 -4.224,5.184 -4.224,13.44 0,8.448 3.84,13.248 3.84,4.608 9.6,7.488 5.76,2.688 11.904,5.184 4.992,2.112 9.6,4.416 4.608,2.112 7.488,5.184 2.88,3.072 2.88,7.68 0,5.568 -4.224,8.256 -4.032,2.496 -10.176,2.496 -6.336,0 -13.056,-5.184 -6.72,-5.376 -11.328,-13.44 z" />
    <path
       id="path132"
       style="fill:#333333"
       d="m 903.79066,123.80738 v 30.72 h -14.4 v 14.4 h 14.4 v 73.92 h 15.36 v -73.92 h 14.4 v -14.4 h -14.4 v -30.72 z" />
    <path
       id="path134"
       style="font-style:normal;font-variant:normal;font-weight:normal;font-stretch:normal;font-size:192px;font-family:'Jost*';-inkscape-font-specification:'Jost*';text-align:center;text-anchor:middle;fill:#c83737"
       d="m 984.66766,108.44738 1.536,30.336 -28.416,-10.944 -4.032,12.864 29.184,7.872 -19.008,23.616 10.944,7.872 16.512,-25.344 16.51204,25.344 10.944,-7.872 -19.00804,-23.616 29.18404,-7.872 -4.032,-12.864 -28.41604,10.944 1.536,-30.336 z" />
  </g>
</svg>
