<?xml version="1.0" encoding="UTF-8" standalone="no"?>
<svg
   xmlns:dc="http://purl.org/dc/elements/1.1/"
   xmlns:cc="http://creativecommons.org/ns#"
   xmlns:rdf="http://www.w3.org/1999/02/22-rdf-syntax-ns#"
   xmlns:svg="http://www.w3.org/2000/svg"
   xmlns="http://www.w3.org/2000/svg"
   viewBox="0 0 1500 277.5"
   height="296"
   width="1600"
   version="1.1"
   id="svg2">
  <metadata
     id="metadata8">
    <rdf:RDF>
      <cc:Work
         rdf:about="">
        <dc:format>image/svg+xml</dc:format>
        <dc:type
           rdf:resource="http://purl.org/dc/dcmitype/StillImage" />
        <dc:title></dc:title>
      </cc:Work>
    </rdf:RDF>
  </metadata>
  <defs
     id="defs6" />
  <g
     id="flowRoot839"
     style="font-style:normal;font-variant:normal;font-weight:200;font-stretch:normal;font-size:192px;line-height:24px;font-family:'Renner*';-inkscape-font-specification:'Renner* Ultra-Light';text-align:center;letter-spacing:0px;word-spacing:0px;writing-mode:lr-tb;text-anchor:middle;fill:#ffffff;fill-opacity:1;stroke:none;stroke-width:1px;stroke-linecap:butt;stroke-linejoin:miter;stroke-opacity:1"
     transform="matrix(0.68642087,0,0,0.68642087,-188.2076,-31.22346)"
     aria-label="Renner*">
    <path
       id="path906"
       style="font-style:normal;font-variant:normal;font-weight:200;font-stretch:normal;font-family:'Renner*';-inkscape-font-specification:'Renner* Ultra-Light';fill:#ffffff;fill-opacity:1"
       d="m 347.86031,45.547656 z m -5.76,0 h 28.8 q 20.352,0 32.832,9.984 12.48,9.792 12.48,28.992 0,18.048004 -11.136,27.840004 -10.944,9.792 -29.376,10.944 l 43.776,56.64 h -7.488 l -42.816,-56.448 h -21.312 v 56.448 h -5.76 z m 5.76,5.568 v 66.816004 h 23.04 q 17.856,0 28.608,-8.448 10.752,-8.64 10.752,-24.960004 0,-16.32 -10.752,-24.768 -10.752,-8.64 -28.608,-8.64 z" />
    <path
       id="path908"
       style="font-style:normal;font-variant:normal;font-weight:200;font-stretch:normal;font-family:'Renner*';-inkscape-font-specification:'Renner* Ultra-Light';fill:#ffffff;fill-opacity:1"
       d="m 502.97831,131.37166 q -0.192,-14.4 -9.216,-24.96 -9.024,-10.560004 -23.04,-10.560004 -14.016,0 -24,10.752004 -9.792,10.752 -10.176,24.768 z m -66.816,5.76 q 0.384,16.128 10.56,27.264 10.176,11.136 24.384,11.136 21.312,0 32.448,-21.12 l 4.992,3.072 q -12.48,24 -37.824,24 -16.32,0 -28.416,-13.056 -12.096,-13.056 -12.096,-32.64 0,-19.968 11.52,-32.832 11.52,-12.864004 28.992,-12.864004 17.088,0 27.648,12.288004 10.752,12.096 10.752,32.64 0,1.152 -0.192,2.112 z" />
    <path
       id="path910"
       style="font-style:normal;font-variant:normal;font-weight:200;font-stretch:normal;font-family:'Renner*';-inkscape-font-specification:'Renner* Ultra-Light';fill:#ffffff;fill-opacity:1"
       d="m 540.02531,126.18766 v 53.76 h -5.76 V 91.627656 h 5.76 v 19.968004 q 3.264,-10.176 11.136,-15.744004 7.872,-5.76 19.968,-5.76 12.48,0 19.008,8.832 6.528,8.640004 6.528,23.424004 v 57.6 h -5.76 v -55.68 q 0,-28.416004 -21.696,-28.416004 -12.48,0 -20.928,9.408004 -8.256,9.408 -8.256,20.928 z" />
    <path
       id="path912"
       style="font-style:normal;font-variant:normal;font-weight:200;font-stretch:normal;font-family:'Renner*';-inkscape-font-specification:'Renner* Ultra-Light';fill:#ffffff;fill-opacity:1"
       d="m 634.90031,126.18766 v 53.76 h -5.76 V 91.627656 h 5.76 v 19.968004 q 3.264,-10.176 11.136,-15.744004 7.872,-5.76 19.968,-5.76 12.48,0 19.008,8.832 6.528,8.640004 6.528,23.424004 v 57.6 h -5.76 v -55.68 q 0,-28.416004 -21.696,-28.416004 -12.48,0 -20.928,9.408004 -8.256,9.408 -8.256,20.928 z" />
    <path
       id="path914"
       style="font-style:normal;font-variant:normal;font-weight:200;font-stretch:normal;font-family:'Renner*';-inkscape-font-specification:'Renner* Ultra-Light';fill:#ffffff;fill-opacity:1"
       d="m 789.10331,131.37166 q -0.192,-14.4 -9.216,-24.96 -9.024,-10.560004 -23.04,-10.560004 -14.016,0 -24,10.752004 -9.792,10.752 -10.176,24.768 z m -66.816,5.76 q 0.384,16.128 10.56,27.264 10.176,11.136 24.384,11.136 21.312,0 32.448,-21.12 l 4.992,3.072 q -12.48,24 -37.824,24 -16.32,0 -28.416,-13.056 -12.096,-13.056 -12.096,-32.64 0,-19.968 11.52,-32.832 11.52,-12.864004 28.992,-12.864004 17.088,0 27.648,12.288004 10.752,12.096 10.752,32.64 0,1.152 -0.192,2.112 z" />
    <path
       id="path916"
       style="font-style:normal;font-variant:normal;font-weight:200;font-stretch:normal;font-family:'Renner*';-inkscape-font-specification:'Renner* Ultra-Light';fill:#ffffff;fill-opacity:1"
       d="m 857.83031,102.57166 q -4.608,-6.144004 -13.248,-6.144004 -8.064,0 -13.248,9.600004 -5.184,9.6 -5.184,20.16 v 53.76 h -5.76 V 91.627656 h 5.76 v 17.472004 q 4.416,-19.008004 20.544,-19.008004 7.104,0 14.592,7.104 z" />
    <path
       id="path918"
       style="font-style:normal;font-variant:normal;font-weight:200;font-stretch:normal;font-family:'Renner*';-inkscape-font-specification:'Renner* Ultra-Light';fill:#ffffff;fill-opacity:1"
       d="m 918.02231,45.547656 h 5.76 l -0.96,34.752 32.832,-11.712 1.728,5.568 -33.216,9.792 21.12,27.648004 -4.8,3.456 -19.584,-28.608004 -19.584,28.608004 -4.8,-3.456 21.12,-27.648004 -33.216,-9.792 1.728,-5.568 32.832,11.712 z" />
  </g>
  <g
     id="flowRoot863"
     style="font-style:normal;font-variant:normal;font-weight:900;font-stretch:normal;font-size:192px;line-height:24px;font-family:'Renner*';-inkscape-font-specification:'Renner* Heavy';text-align:center;letter-spacing:0px;word-spacing:0px;writing-mode:lr-tb;text-anchor:middle;fill:#ffffff;fill-opacity:1;stroke:none;stroke-width:1px;stroke-linecap:butt;stroke-linejoin:miter;stroke-opacity:1"
     transform="matrix(0.68642087,0,0,0.68642087,732.4174,-31.22346)"
     aria-label="Renner*">
    <path
       id="path921"
       style="font-style:normal;font-variant:normal;font-weight:900;font-stretch:normal;font-family:'Renner*';-inkscape-font-specification:'Renner* Heavy';fill:#ffffff;fill-opacity:1"
       d="m 263.59031,45.547656 h 52.8 q 56.256,0 56.256,45.12 0,31.488004 -27.072,40.896004 l 33.216,48.384 h -43.2 l -30.336,-44.16 h -7.104 v 44.16 h -34.56 z m 34.56,31.68 v 28.800004 h 18.24 q 19.776,0 19.776,-15.360004 0,-7.68 -4.608,-10.56 -4.608,-2.88 -15.168,-2.88 z" />
    <path
       id="path923"
       style="font-style:normal;font-variant:normal;font-weight:900;font-stretch:normal;font-family:'Renner*';-inkscape-font-specification:'Renner* Heavy';fill:#ffffff;fill-opacity:1"
       d="m 446.28431,122.53966 q -1.92,-11.712 -12.288,-11.712 -10.944,0 -13.632,11.712 z m -26.496,20.928 q 2.304,13.44 15.168,13.44 7.872,0 12.288,-1.728 4.416,-1.728 5.76,-6.912 l 33.984,5.376 q -5.184,13.632 -18.624,20.928 -13.44,7.296 -33.408,7.296 -25.92,0 -39.744,-12.672 -13.632,-12.672 -13.632,-33.408 0,-20.544 14.4,-33.792 14.4,-13.248004 38.976,-13.248004 24.192,0 37.632,12.096004 13.632,12.096 13.632,33.216 0,5.76 -0.384,9.408 z" />
    <path
       id="path925"
       style="font-style:normal;font-variant:normal;font-weight:900;font-stretch:normal;font-family:'Renner*';-inkscape-font-specification:'Renner* Heavy';fill:#ffffff;fill-opacity:1"
       d="m 539.86031,126.18766 v 53.76 h -37.44 V 91.627656 h 37.44 v 13.248004 q 8.256,-15.360004 27.264,-15.360004 17.28,0 24.768,8.064 7.488,7.872004 7.488,22.848004 v 59.52 h -39.36 v -53.76 q 0,-6.528 -1.92,-9.6 -1.92,-3.072 -7.296,-3.072 -10.944,0 -10.944,12.672 z" />
    <path
       id="path927"
       style="font-style:normal;font-variant:normal;font-weight:900;font-stretch:normal;font-family:'Renner*';-inkscape-font-specification:'Renner* Heavy';fill:#ffffff;fill-opacity:1"
       d="m 656.11031,126.18766 v 53.76 h -37.44 V 91.627656 h 37.44 v 13.248004 q 8.256,-15.360004 27.264,-15.360004 17.28,0 24.768,8.064 7.488,7.872004 7.488,22.848004 v 59.52 h -39.36 v -53.76 q 0,-6.528 -1.92,-9.6 -1.92,-3.072 -7.296,-3.072 -10.944,0 -10.944,12.672 z" />
    <path
       id="path929"
       style="font-style:normal;font-variant:normal;font-weight:900;font-stretch:normal;font-family:'Renner*';-inkscape-font-specification:'Renner* Heavy';fill:#ffffff;fill-opacity:1"
       d="m 795.78431,122.53966 q -1.92,-11.712 -12.288,-11.712 -10.944,0 -13.632,11.712 z m -26.496,20.928 q 2.304,13.44 15.168,13.44 7.872,0 12.288,-1.728 4.416,-1.728 5.76,-6.912 l 33.984,5.376 q -5.184,13.632 -18.624,20.928 -13.44,7.296 -33.408,7.296 -25.92,0 -39.744,-12.672 -13.632,-12.672 -13.632,-33.408 0,-20.544 14.4,-33.792 14.4,-13.248004 38.976,-13.248004 24.192,0 37.632,12.096004 13.632,12.096 13.632,33.216 0,5.76 -0.384,9.408 z" />
    <path
       id="path931"
       style="font-style:normal;font-variant:normal;font-weight:900;font-stretch:normal;font-family:'Renner*';-inkscape-font-specification:'Renner* Heavy';fill:#ffffff;fill-opacity:1"
       d="m 920.84831,129.64366 q -5.376,-6.336 -14.784,-6.336 -8.64,0 -13.248,3.648 -4.416,3.648 -4.416,12.672 v 40.32 h -36.48 V 91.627656 h 36.48 v 11.712004 q 10.176,-14.592004 26.304,-14.592004 14.208,0 21.312,8.64 z" />
    <path
       id="path933"
       style="font-style:normal;font-variant:normal;font-weight:900;font-stretch:normal;font-family:'Renner*';-inkscape-font-specification:'Renner* Heavy';fill:#ffffff;fill-opacity:1"
       d="m 976.37231,45.547656 h 34.55999 l -3.648,22.464 20.352,-10.368 10.56,32.832 -22.464,3.456 16.128,16.128004 -27.84,20.352 -10.36799,-20.352 -10.368,20.352 -27.84,-20.352 16.128,-16.128004 -22.464,-3.456 10.56,-32.832 20.352,10.368 z" />
  </g>
  <g
     id="flowRoot879"
     style="font-style:normal;font-variant:normal;font-weight:normal;font-stretch:normal;font-size:192px;line-height:24px;font-family:Roboto;-inkscape-font-specification:Roboto;text-align:center;letter-spacing:0px;word-spacing:0px;writing-mode:lr-tb;text-anchor:middle;fill:#ffffff;fill-opacity:1;stroke:none;stroke-width:1px;stroke-linecap:butt;stroke-linejoin:miter;stroke-opacity:1"
     transform="matrix(0.68642087,0,0,0.68642087,249.31472,-26.22904)"
     aria-label="→">
    <path
       id="path936"
       style="font-style:normal;font-variant:normal;font-weight:normal;font-stretch:normal;font-family:Roboto;-inkscape-font-specification:Roboto;fill:#ffffff;fill-opacity:1"
       d="m 722.32031,114.48935 v 8.4375 l -36.84375,36.84375 -11.25,-11.25 21.84375,-21.84375 H 581.78906 v -15.9375 h 114.28125 l -21.84375,-21.843749 11.25,-11.25 z" />
  </g>
  <g
     id="flowRoot887"
     style="font-style:normal;font-variant:normal;font-weight:200;font-stretch:normal;font-size:192px;line-height:24px;font-family:'Renner*';-inkscape-font-specification:'Renner* Ultra-Light';text-align:center;letter-spacing:0px;word-spacing:0px;writing-mode:lr-tb;text-anchor:middle;fill:#ffffff;fill-opacity:1;stroke:#ffaacc;stroke-width:2.73156023;stroke-linecap:butt;stroke-linejoin:miter;stroke-miterlimit:4;stroke-dasharray:none;stroke-opacity:1"
     transform="matrix(0.68642087,0,0,0.68642087,-150.7076,118.77654)"
     aria-label="Besley*">
    <path
       id="path939"
       style="font-style:normal;font-variant:normal;font-weight:normal;font-stretch:normal;font-family:'Besley*';-inkscape-font-specification:'Besley*';fill:#ffffff;fill-opacity:1;stroke:#ffaacc;stroke-width:2.73156023;stroke-miterlimit:4;stroke-dasharray:none;stroke-opacity:1"
       d="m 365.28281,179.94766 h -70.08 q -4.992,0 -6.912,-1.344 -1.728,-1.536 -1.728,-4.8 0,-4.416 10.368,-4.416 h 3.264 q 7.488,0 7.488,-11.712 V 55.531656 q 0,-6.144 -1.152,-7.488 -1.152,-1.536 -5.76,-1.536 h -4.032 q -1.344,0 -3.264,0.192 -1.92,0 -2.496,0 -2.496,0 -3.456,-1.152 -0.96,-1.152 -0.96,-4.992 0,-5.184 7.68,-5.184 1.728,0 4.992,0.384 3.456,0.192 4.8,0.192 h 57.408 q 22.272,0 35.136,9.6 12.864,9.6 12.864,27.84 0,21.888 -18.624,29.184004 -6.336,2.304 -6.336,3.264 0,0.384 1.728,0.768 1.728,0.384 4.992,1.152 3.264,0.768 5.76,1.92 18.24,8.64 18.24,29.952 0,40.32 -49.92,40.32 z m -1.92,-10.56 q 12.864,0 21.696,-7.872 9.024,-8.064 9.024,-21.888 0,-13.632 -8.832,-21.12 -8.832,-7.68 -21.888,-7.68 h -25.152 q -1.536,0 -3.84,0 -2.112,-0.192 -2.88,-0.192 -3.264,0 -4.416,1.536 -1.152,1.344 -1.152,6.336 v 40.704 q 0,6.912 1.152,8.64 1.344,1.536 6.144,1.536 z m -29.76,-69.12 h 27.84 q 12.096,0 20.352,-6.720004 8.448,-6.72 8.448,-20.16 0,-13.44 -8.448,-20.16 -8.256,-6.72 -20.352,-6.72 h -29.952 q -3.84,0 -4.8,1.152 -0.768,0.96 -0.768,5.952 v 35.712 q 0,1.152 -0.192,3.072 0,1.728 0,2.304 0,3.264 1.344,4.416 1.536,1.152004 6.528,1.152004 z" />
    <path
       id="path941"
       style="font-style:normal;font-variant:normal;font-weight:normal;font-stretch:normal;font-family:'Besley*';-inkscape-font-specification:'Besley*';fill:#ffffff;fill-opacity:1;stroke:#ffaacc;stroke-width:2.73156023;stroke-miterlimit:4;stroke-dasharray:none;stroke-opacity:1"
       d="m 503.43281,114.28366 q -4.032,-27.648004 -22.08,-27.648004 -10.368,0 -16.704,6.528 -6.144,6.528 -8.256,17.280004 -1.344,7.488 -1.344,8.448 0,1.728 1.152,2.304 1.344,0.384 5.184,0.384 h 37.44 q 5.184,0 5.184,-2.688 0,-0.576 -0.384,-2.112 -0.192,-1.728 -0.192,-2.496 z m 12.48,15.552 h -53.952 q -4.608,0 -5.952,0.768 -1.152,0.576 -1.152,3.072 0,2.304 0.192,4.032 3.072,34.752 27.264,34.752 19.392,0 28.608,-19.2 0.384,-0.768 0.96,-2.496 0.576,-1.728 0.96,-2.304 0.384,-0.576 1.536,-1.152 1.344,-0.576 3.456,-0.576 4.992,0 4.992,1.92 0,0.576 -1.536,4.8 -10.368,28.416 -41.28,28.416 -20.928,0 -32.832,-14.4 -11.904,-14.4 -11.904,-35.52 0,-24 11.712,-38.784004 11.904,-14.976 34.368,-14.976 19.968,0 29.76,11.712 9.792,11.520004 11.52,30.528004 0.192,1.344 0.192,3.648 0,3.648 -1.536,4.8 -1.344,0.96 -5.376,0.96 z" />
    <path
       id="path943"
       style="font-style:normal;font-variant:normal;font-weight:normal;font-stretch:normal;font-family:'Besley*';-inkscape-font-specification:'Besley*';fill:#ffffff;fill-opacity:1;stroke:#ffaacc;stroke-width:2.73156023;stroke-miterlimit:4;stroke-dasharray:none;stroke-opacity:1"
       d="m 601.13681,105.45166 q -2.688,-8.064004 -10.176,-12.864004 -7.488,-4.992 -14.4,-4.992 -9.216,0 -14.976,3.84 -5.76,3.84 -5.76,10.560004 0,6.336 4.416,10.368 4.608,4.032 11.328,5.76 6.72,1.728 14.4,4.224 7.872,2.304 14.592,4.992 6.72,2.496 11.136,8.64 4.608,5.952 4.608,14.784 0,14.592 -10.176,23.04 -9.984,8.448 -25.728,8.448 -13.248,0 -23.616,-7.872 -0.96,-0.768 -2.112,-1.92 -1.152,-1.152 -1.92,-1.536 -0.576,-0.576 -0.96,-0.576 -0.96,0 -2.304,4.224 -0.192,0.768 -0.576,2.304 -0.384,1.344 -0.576,1.92 -0.192,0.384 -0.768,1.152 -0.384,0.96 -1.152,1.152 -0.576,0.384 -1.92,0.576 -1.152,0.192 -2.88,0.192 -2.496,0 -3.456,-0.768 -0.768,-0.768 -0.768,-2.496 0,-0.576 0,-1.92 0.192,-1.536 0.192,-2.496 v -23.616 q 0,-2.688 0.576,-3.264 0.768,-0.576 3.84,-0.576 3.84,0 4.992,0.96 1.344,0.768 1.92,3.84 0.576,2.88 1.344,4.608 3.456,7.296 11.136,11.712 7.68,4.416 15.168,4.416 11.136,0 17.472,-4.992 6.336,-5.184 6.336,-12.864 0,-7.104 -6.144,-11.136 -6.144,-4.224 -14.976,-6.144 -8.64,-2.112 -17.472,-4.608 -8.64,-2.496 -14.784,-8.832 -6.144,-6.336 -6.144,-16.704 0,-14.208004 9.216,-21.696004 9.216,-7.488 22.464,-7.488 11.328,0 19.776,6.144 1.536,1.152 2.88,2.688 1.344,1.344 2.112,2.304 0.768,0.768 1.152,0.768 1.152,0 2.88,-5.376 0.576,-1.344 0.96,-2.88 0.384,-1.728 0.576,-2.112 0.192,-0.384 0.96,-0.768 0.96,-0.384 2.688,-0.384 0.768,0 1.92,0 1.152,-0.192 1.536,-0.192 2.88,0 2.88,3.648 v 27.840004 q 0,2.112 -0.96,2.688 -0.768,0.576 -3.84,0.576 -2.688,0 -4.032,-0.384 -1.152,-0.576 -1.536,-1.152 -0.192,-0.576 -0.576,-2.496 -0.384,-1.92 -0.768,-3.264 z" />
    <path
       id="path945"
       style="font-style:normal;font-variant:normal;font-weight:normal;font-stretch:normal;font-family:'Besley*';-inkscape-font-specification:'Besley*';fill:#ffffff;fill-opacity:1;stroke:#ffaacc;stroke-width:2.73156023;stroke-miterlimit:4;stroke-dasharray:none;stroke-opacity:1"
       d="m 636.59981,40.747656 h -5.376 q -4.224,0 -5.376,-0.768 -0.96,-0.96 -0.96,-4.032 v -3.072 q 0,-2.88 4.224,-2.88 0.96,0 2.688,0.192 1.728,0 2.496,0 h 20.928 q 2.688,0 3.456,1.152 0.768,0.96 0.768,4.992 V 156.52366 q 0,1.536 -0.192,4.032 0,2.304 0,3.072 0,3.264 1.344,4.608 1.536,1.152 6.336,1.152 h 7.488 q 1.344,0 1.728,0.576 0.576,0.576 0.576,2.688 v 4.224 q 0,2.112 -0.384,2.688 -0.192,0.384 -1.728,0.384 h -43.392 q -4.416,0 -5.376,-0.768 -0.96,-0.768 -0.96,-4.032 v -2.496 q 0,-3.648 4.8,-3.648 0.96,0 3.072,0.192 2.112,0.192 3.072,0.192 6.528,0 6.528,-11.904 0,-1.344 -0.192,-4.032 0,-2.88 0,-4.224 V 44.971656 q 0,-2.88 -0.96,-3.456 -0.768,-0.768 -4.608,-0.768 z" />
    <path
       id="path947"
       style="font-style:normal;font-variant:normal;font-weight:normal;font-stretch:normal;font-family:'Besley*';-inkscape-font-specification:'Besley*';fill:#ffffff;fill-opacity:1;stroke:#ffaacc;stroke-width:2.73156023;stroke-miterlimit:4;stroke-dasharray:none;stroke-opacity:1"
       d="m 752.80781,114.28366 q -4.032,-27.648004 -22.08,-27.648004 -10.368,0 -16.704,6.528 -6.144,6.528 -8.256,17.280004 -1.344,7.488 -1.344,8.448 0,1.728 1.152,2.304 1.344,0.384 5.184,0.384 h 37.44 q 5.184,0 5.184,-2.688 0,-0.576 -0.384,-2.112 -0.192,-1.728 -0.192,-2.496 z m 12.48,15.552 h -53.952 q -4.608,0 -5.952,0.768 -1.152,0.576 -1.152,3.072 0,2.304 0.192,4.032 3.072,34.752 27.264,34.752 19.392,0 28.608,-19.2 0.384,-0.768 0.96,-2.496 0.576,-1.728 0.96,-2.304 0.384,-0.576 1.536,-1.152 1.344,-0.576 3.456,-0.576 4.992,0 4.992,1.92 0,0.576 -1.536,4.8 -10.368,28.416 -41.28,28.416 -20.928,0 -32.832,-14.4 -11.904,-14.4 -11.904,-35.52 0,-24 11.712,-38.784004 11.904,-14.976 34.368,-14.976 19.968,0 29.76,11.712 9.792,11.520004 11.52,30.528004 0.192,1.344 0.192,3.648 0,3.648 -1.536,4.8 -1.344,0.96 -5.376,0.96 z" />
    <path
       id="path949"
       style="font-style:normal;font-variant:normal;font-weight:normal;font-stretch:normal;font-family:'Besley*';-inkscape-font-specification:'Besley*';fill:#ffffff;fill-opacity:1;stroke:#ffaacc;stroke-width:2.73156023;stroke-miterlimit:4;stroke-dasharray:none;stroke-opacity:1"
       d="m 803.36981,229.86766 q -10.752,0 -17.28,-7.296 -6.336,-7.296 -6.336,-17.472 0,-6.336 3.456,-10.176 3.456,-3.84 8.256,-3.84 4.416,0 6.912,2.496 2.688,2.496 2.688,6.912 0,4.032 -4.032,6.528 -4.032,2.496 -4.032,4.8 0,3.456 2.88,5.952 2.88,2.496 7.488,2.496 6.72,0 13.824,-6.528 7.296,-6.528 13.44,-22.272 l 1.344,-3.456 q 1.536,-4.224 1.536,-6.336 0,-2.304 -3.072,-9.408 l -34.944,-76.800004 q -1.536,-3.456 -3.072,-4.032 -1.536,-0.768 -6.72,-0.768 h -1.92 q -3.84,0 -4.8,-0.96 -0.768,-0.96 -0.768,-5.76 0,-4.032 3.456,-4.032 0.576,0 1.92,0.192 1.536,0 2.496,0 h 33.792 q 1.152,0 3.072,0 1.92,-0.192 2.688,-0.192 2.304,0 3.456,1.152 1.152,0.96 1.152,4.416 0,3.456 -0.768,4.416 -0.576,0.768 -3.072,0.768 h -6.528 q -6.528,0 -6.528,2.496 0,0.768 0.576,2.112 0.576,1.152 1.536,2.88 1.152,1.728 1.728,3.072004 l 21.12,46.848 q 3.84,8.64 4.8,8.64 0.96,0 4.8,-9.408 l 19.584,-49.920004 q 1.728,-4.416 1.728,-4.992 0,-1.728 -6.72,-1.728 -4.992,0 -5.952,-0.96 -0.96,-0.96 -0.96,-5.568 v -0.96 q 0,-3.456 3.648,-3.456 0.768,0 2.496,0.192 1.728,0.192 2.688,0.192 h 29.184 q 3.264,0 3.264,2.688 v 3.072 q 0,3.072 -0.96,4.032 -0.768,0.96 -2.88,0.96 -0.576,0 -2.304,0 -1.536,-0.192 -2.496,-0.192 -2.304,0 -3.84,0.384 -1.344,0.192 -2.304,1.152 -0.768,0.96 -1.152,1.536 -0.384,0.576 -0.96,2.496 -0.576,1.728 -0.96,2.688 l -39.936,100.608004 q -12.096,30.336 -35.712,30.336 z" />
    <path
       id="path951"
       style="font-style:normal;font-variant:normal;font-weight:normal;font-stretch:normal;font-family:'Besley*';-inkscape-font-specification:'Besley*';fill:#ffffff;fill-opacity:1;stroke:#ffaacc;stroke-width:2.73156023;stroke-miterlimit:4;stroke-dasharray:none;stroke-opacity:1"
       d="m 999.67781,49.579656 q 3.64799,0 6.33599,2.688 2.88,2.688 2.88,6.528 0,6.72 -9.79199,11.136 -4.416,1.728 -11.712,4.224 -7.296,2.496 -9.024,3.072 -5.952,2.304 -5.952,3.072 0,0.768 6.72,3.072 19.008,6.528 19.968,6.912 9.79199,4.416 9.79199,11.136004 0,3.84 -2.88,6.528 -2.688,2.688 -6.33599,2.688 -4.416,0 -9.984,-4.032 -3.072,-2.496 -15.744,-13.632004 -5.376,-4.608 -5.952,-4.608 -0.768,0 -0.768,1.728 0,2.112 0.768,5.76 0.384,1.728 1.92,9.024004 1.536,7.296 2.112,11.904 0.192,1.344 0.192,3.456 0,5.568 -2.688,8.64 -2.688,3.072 -6.912,3.072 -4.224,0 -6.912,-3.072 -2.688,-3.072 -2.688,-8.64 0,-2.112 0.192,-3.456 0.576,-4.608 2.112,-11.904 1.536,-7.296004 1.92,-9.024004 0.768,-3.648 0.768,-5.568 0,-1.728 -0.768,-1.728 -0.768,0 -5.952,4.416 -12.672,11.136004 -15.744,13.632004 -5.568,4.032 -9.984,4.032 -3.648,0 -6.528,-2.688 -2.688,-2.688 -2.688,-6.528 0,-6.720004 9.792,-11.136004 7.872,-3.072 19.2,-6.72 7.296,-2.496 7.296,-3.456 0,-0.96 -5.952,-3.072 -17.28,-5.76 -20.544,-7.104 -9.792,-4.416 -9.792,-11.136 0,-3.84 2.688,-6.528 2.88,-2.688 6.528,-2.688 4.416,0 9.984,4.032 4.032,3.072 15.936,13.632 5.184,4.416 5.76,4.416 0.576,0 0.576,-1.536 0,-2.112 -0.768,-5.952 -0.192,-0.768 -1.728,-8.448 -1.344,-7.68 -2.112,-12.288 -0.192,-1.344 -0.192,-3.456 0,-5.568 2.688,-8.64 2.688,-3.072 6.912,-3.072 4.224,0 6.912,3.072 2.688,3.072 2.688,8.64 0,2.112 -0.192,3.456 -0.768,4.992 -3.648,19.776 -1.152,5.184 -1.152,6.912 0,1.536 0.768,1.536 0.768,0 5.376,-4.032 1.152,-0.96 6.912,-5.952 5.76,-5.184 9.408,-8.064 5.568,-4.032 9.984,-4.032 z" />
  </g>
  <g
     id="flowRoot895"
     style="font-style:normal;font-variant:normal;font-weight:900;font-stretch:normal;font-size:192px;line-height:24px;font-family:'Besley*';-inkscape-font-specification:'Besley* Heavy';text-align:center;letter-spacing:0px;word-spacing:0px;writing-mode:lr-tb;text-anchor:middle;fill:#ffffff;fill-opacity:1;stroke:none;stroke-width:1px;stroke-linecap:butt;stroke-linejoin:miter;stroke-opacity:1"
     transform="matrix(0.68642087,0,0,0.68642087,713.6674,118.77654)"
     aria-label="Besley*">
    <path
       id="path954"
       style="font-style:normal;font-variant:normal;font-weight:900;font-stretch:normal;font-family:'Besley*';-inkscape-font-specification:'Besley* Heavy';fill:#ffffff;fill-opacity:1"
       d="m 317.46281,179.94766 h -78.72 q -1.152,0 -2.88,0 -1.536,0.192 -2.112,0.192 -2.688,0 -3.648,-1.152 -0.96,-1.344 -0.96,-5.376 v -13.632 q 0,-3.456 0.768,-4.608 0.768,-1.344 3.84,-1.344 h 11.904 q 2.88,0 3.648,-0.576 0.96,-0.768 0.96,-2.688 V 67.627656 q 0,-4.032 -0.768,-4.8 -0.576,-0.96 -3.456,-0.96 h -10.368 q -4.992,0 -5.76,-0.768 -0.768,-0.96 -0.768,-5.76 v -14.592 q 0,-3.072 0.576,-3.84 0.768,-0.96 2.88,-0.96 h 79.104 q 33.984,0 48.576,7.872 14.784,7.872 14.784,27.648 0,21.888 -24.96,29.952004 -8.064,2.688 -8.064,3.648 0,0.96 8.064,2.688 32.64,6.336 32.64,31.872 0,22.656 -14.976,31.488 -14.976,8.832 -50.304,8.832 z m -3.84,-25.92 q 11.712,0 16.32,-4.992 4.8,-4.992 4.8,-14.208 0,-16.32 -21.12,-16.32 h -10.752 q -4.992,0 -6.336,1.152 -1.152,1.152 -1.152,5.952 v 23.808 q 0,3.072 0.768,3.84 0.96,0.768 3.264,0.768 z m -11.52,-61.440004 h 7.68 q 19.2,0 19.2,-16.32 0,-8.256 -4.416,-11.328 -4.224,-3.072 -14.784,-3.072 h -8.256 q -4.224,0 -5.184,0.96 -0.96,0.768 -0.96,4.8 v 17.664 q 0,4.8 0.96,6.144 1.152,1.152 5.76,1.152 z" />
    <path
       id="path956"
       style="font-style:normal;font-variant:normal;font-weight:900;font-stretch:normal;font-family:'Besley*';-inkscape-font-specification:'Besley* Heavy';fill:#ffffff;fill-opacity:1"
       d="m 500.31881,136.55566 h -56.448 q -3.264,0 -4.608,0.768 -1.344,0.576 -1.344,2.688 0,0.192 0,0.576 0.192,0.192 0.192,0.384 0.96,10.944 4.992,17.088 4.224,5.952 13.44,5.952 12.48,0 19.008,-14.016 0.768,-1.728 1.152,-2.112 0.384,-0.384 1.344,-0.768 0.96,-0.384 3.072,-0.384 h 16.704 q 4.992,0 4.992,1.728 0,0.384 -1.152,4.224 -4.992,15.936 -18.048,23.616 -12.864,7.488 -31.296,7.488 -27.456,0 -42.432,-14.976 -14.784,-15.168 -14.784,-36.864 0,-24.192 15.36,-39.936004 15.36,-15.744 43.2,-15.744 12.48,0 21.696,3.264 9.408,3.264 14.784,8.256 5.376,4.992 8.64,12.288004 3.456,7.296 4.608,14.016 1.344,6.528 1.728,14.592 0,0.96 0.192,2.496 0.192,1.536 0.192,2.112 0,1.92 -1.152,2.688 -0.96,0.576 -4.032,0.576 z m -35.328,-24.384 q -1.344,-16.896004 -11.52,-16.896004 -12.48,0 -14.976,16.512004 0,0.576 -0.384,1.728 -0.192,1.152 -0.192,1.536 0,1.728 3.456,1.728 h 19.008 q 2.112,0 2.88,0 0.768,-0.192 1.152,-0.768 0.576,-0.576 0.576,-1.728 z" />
    <path
       id="path958"
       style="font-style:normal;font-variant:normal;font-weight:900;font-stretch:normal;font-family:'Besley*';-inkscape-font-specification:'Besley* Heavy';fill:#ffffff;fill-opacity:1"
       d="m 593.52281,110.82766 q -2.88,-8.064 -9.984,-12.288004 -7.104,-4.224 -14.4,-4.224 -11.136,0 -11.136,5.760004 0,4.032 4.416,7.104 4.608,3.072 11.328,4.992 6.72,1.92 14.4,4.992 7.872,3.072 14.592,6.72 6.72,3.456 11.136,10.176 4.608,6.72 4.608,15.744 0,34.368 -45.504,34.368 -15.744,0 -27.072,-7.296 -3.264,-2.112 -4.032,-2.112 -0.96,0 -3.072,3.072 -1.92,2.688 -3.264,3.264 -1.152,0.768 -5.376,0.768 h -7.68 q -4.032,0 -4.992,-0.768 -0.768,-0.768 -0.768,-4.224 v -31.68 q 0,-2.88 0.768,-3.456 0.96,-0.768 4.608,-0.768 h 8.832 q 1.728,0 2.688,0.192 1.152,0.192 1.728,0.384 0.768,0 1.344,0.768 0.576,0.576 0.768,0.96 0.192,0.192 0.576,1.536 0.576,1.152 0.768,1.92 3.84,8.832 11.136,13.824 7.296,4.992 15.36,4.992 14.208,0 14.208,-8.256 0,-4.992 -6.144,-8.448 -6.144,-3.648 -14.976,-6.336 -8.64,-2.688 -17.472,-6.144 -8.64,-3.648 -14.784,-10.752 -6.144,-7.296 -6.144,-17.664 0,-15.552004 11.712,-23.808004 11.904,-8.256 29.568,-8.256 14.976,0 23.808,5.568 1.152,0.768 2.304,1.92 1.152,0.96 1.728,1.728 0.768,0.576 1.344,0.576 0.96,0 2.304,-2.304 l 1.536,-2.688 q 1.536,-2.496 7.68,-2.496 h 6.144 q 0.768,0 2.112,0 1.344,-0.192 1.728,-0.192 3.072,0 3.072,3.84 v 29.184004 q 0,4.032 -0.768,4.8 -0.768,0.768 -4.608,0.768 h -11.904 q -1.92,0 -2.688,-0.576 -0.768,-0.576 -1.152,-2.496 -0.192,-2.112 -0.384,-2.688 z" />
    <path
       id="path960"
       style="font-style:normal;font-variant:normal;font-weight:900;font-stretch:normal;font-family:'Besley*';-inkscape-font-specification:'Besley* Heavy';fill:#ffffff;fill-opacity:1"
       d="m 635.43881,50.347656 h -7.68 q -2.88,0 -3.648,-0.576 -0.768,-0.768 -0.768,-2.688 v -10.944 q 0,-4.032 0.768,-4.992 0.96,-0.96 4.8,-0.96 h 47.232 q 3.072,0 3.84,1.152 0.96,1.152 0.96,5.376 V 152.68366 q 0,4.992 0.768,6.144 0.96,0.96 4.992,0.96 h 8.256 q 2.304,0 2.688,0.768 0.576,0.576 0.576,3.648 v 10.752 q 0,3.648 -0.768,4.416 -0.576,0.576 -4.032,0.576 h -64.512 q -4.224,0 -4.992,-0.768 -0.576,-0.768 -0.576,-4.992 v -11.136 q 0,-2.304 0.576,-2.688 0.768,-0.576 3.84,-0.576 h 8.448 q 4.8,0 4.8,-4.416 0,-0.768 -0.192,-2.88 -0.192,-2.112 -0.192,-3.264 V 56.491656 q 0,-4.032 -0.768,-4.992 -0.768,-1.152 -4.416,-1.152 z" />
    <path
       id="path962"
       style="font-style:normal;font-variant:normal;font-weight:900;font-stretch:normal;font-family:'Besley*';-inkscape-font-specification:'Besley* Heavy';fill:#ffffff;fill-opacity:1"
       d="m 807.44381,136.55566 h -56.448 q -3.264,0 -4.608,0.768 -1.344,0.576 -1.344,2.688 0,0.192 0,0.576 0.192,0.192 0.192,0.384 0.96,10.944 4.992,17.088 4.224,5.952 13.44,5.952 12.48,0 19.008,-14.016 0.768,-1.728 1.152,-2.112 0.384,-0.384 1.344,-0.768 0.96,-0.384 3.072,-0.384 h 16.704 q 4.992,0 4.992,1.728 0,0.384 -1.152,4.224 -4.992,15.936 -18.048,23.616 -12.864,7.488 -31.296,7.488 -27.456,0 -42.432,-14.976 -14.784,-15.168 -14.784,-36.864 0,-24.192 15.36,-39.936004 15.36,-15.744 43.2,-15.744 12.48,0 21.696,3.264 9.408,3.264 14.784,8.256 5.376,4.992 8.64,12.288004 3.456,7.296 4.608,14.016 1.344,6.528 1.728,14.592 0,0.96 0.192,2.496 0.192,1.536 0.192,2.112 0,1.92 -1.152,2.688 -0.96,0.576 -4.032,0.576 z m -35.328,-24.384 q -1.344,-16.896004 -11.52,-16.896004 -12.48,0 -14.976,16.512004 0,0.576 -0.384,1.728 -0.192,1.152 -0.192,1.536 0,1.728 3.456,1.728 h 19.008 q 2.112,0 2.88,0 0.768,-0.192 1.152,-0.768 0.576,-0.576 0.576,-1.728 z" />
    <path
       id="path964"
       style="font-style:normal;font-variant:normal;font-weight:900;font-stretch:normal;font-family:'Besley*';-inkscape-font-specification:'Besley* Heavy';fill:#ffffff;fill-opacity:1"
       d="m 853.31381,230.82766 q -17.088,0 -25.728,-9.216 -8.448,-9.216 -8.448,-22.848 0,-13.44 7.68,-22.464 7.872,-9.216 18.432,-9.216 8.832,0 14.4,5.184 5.76,5.184 5.76,13.824 0,7.104 -3.072,11.136 -2.88,4.032 -6.336,4.992 -3.456,0.96 -6.528,1.92 -2.88,1.152 -2.88,3.072 0,4.416 6.72,4.416 7.68,0 13.248,-5.568 5.568,-5.568 11.52,-18.816 1.536,-3.456 1.536,-4.8 0,-1.728 -1.728,-5.184 l -35.712,-71.04 q -1.536,-3.072 -2.112,-3.84 -0.576,-0.768 -2.496,-1.344 -1.728,-0.768 -5.376,-0.768 h -2.88 q -3.264,0 -4.224,-0.576004 -0.768,-0.768 -0.768,-3.072 v -11.52 q 0,-3.456 0.576,-4.224 0.576,-0.768 3.456,-0.768 h 64.512 q 2.304,0 2.88,0.768 0.768,0.768 0.768,4.032 v 12.48 q 0,2.880004 -2.112,2.880004 h -9.024 q -4.032,0 -4.032,1.152 0,0.384 0.192,0.96 0.384,0.384 0.768,1.152 0.384,0.576 0.768,1.344 l 8.832,18.432 q 3.072,6.336 5.376,13.248 1.728,5.184 2.304,5.184 0.384,0 2.112,-5.184 1.92,-5.568 4.992,-12.864 l 7.68,-17.28 q 0.384,-0.768 0.96,-1.728 0.576,-1.152 0.768,-1.728 0.384,-0.768 0.384,-1.152 0,-1.536 -4.416,-1.536 h -3.84 q -3.84,0 -3.84,-2.880004 0,-0.384 0,-1.536 0.192,-1.152 0.192,-1.92 v -8.64 q 0,-3.648 0.576,-4.416 0.768,-0.768 4.032,-0.768 h 37.824 q 0.96,0 2.304,0 1.344,-0.192 1.92,-0.192 3.264,0 3.264,3.84 v 10.752 q 0,0.768 0,1.92 0.192,0.96 0.192,1.344 0,2.496004 -3.264,2.496004 h -5.184 q -0.96,0 -1.728,0 -0.576,0 -1.152,0.384 -0.384,0.192 -0.768,0.192 -0.192,0 -0.576,0.576 -0.384,0.384 -0.576,0.576 0,0.192 -0.384,0.96 -0.192,0.768 -0.384,1.152 l -40.128,85.824 q -4.608,9.792 -8.256,15.936 -3.648,6.144 -9.216,12.48 -5.568,6.336 -13.056,9.216 -7.296,3.072 -16.704,3.264 z" />
    <path
       id="path966"
       style="font-style:normal;font-variant:normal;font-weight:900;font-stretch:normal;font-family:'Besley*';-inkscape-font-specification:'Besley* Heavy';fill:#ffffff;fill-opacity:1"
       d="m 1033.4818,78.571656 q -5.76,0.96 -5.76,2.496 0,1.536 5.76,2.496 5.952,0.96 9.024,0.96 2.688,0 6.912,-0.384 4.416,-0.576 6.336,-0.576 5.184,0 9.216,2.496 7.488,4.416 7.488,12.288 0,5.376004 -3.648,12.096004 -6.336,10.944 -15.36,10.944 -4.032,0 -7.68,-2.112 -4.992,-2.88 -9.216,-12.096 -4.032,-9.408004 -9.216,-14.592004 -3.264,-3.264 -4.032,-3.264 -0.576,0 -0.576,0.96 0,1.344 0.576,3.84 1.92,7.296004 7.872,15.744004 6.144,8.448 6.144,14.208 0,7.488 -5.184,11.52 -5.184,4.032 -14.016,4.032 -8.832,0 -14.016,-4.032 -5.18399,-4.032 -5.18399,-11.52 0,-5.952 6.33599,-14.592 6.336,-8.64 8.064,-16.896004 l 0.384,-2.688 q 0,-0.96 -0.384,-0.96 -0.576,0 -3.072,2.496 -4.992,4.608 -8.064,10.560004 -2.87999,5.76 -5.18399,10.368 -2.304,4.416 -6.528,6.912 -3.648,2.112 -7.68,2.112 -9.024,0 -15.36,-10.944 -3.648,-6.72 -3.648,-12.096004 0,-7.872 7.488,-12.288 4.416,-2.496 9.216,-2.496 1.92,0 6.144,0.576 4.416,0.384 7.104,0.384 5.952,0 11.32799,-1.728 3.648,-1.152 3.648,-1.728 0,-0.768 -4.224,-1.92 -5.37599,-1.536 -10.75199,-1.536 -2.688,0 -7.104,0.576 -4.224,0.384 -6.144,0.384 -5.568,0 -9.216,-2.304 -7.488,-4.416 -7.488,-12.48 0,-5.184 3.648,-11.904 6.528,-11.136 15.36,-11.136 4.032,0 7.68,2.112 4.992,2.88 9.216,12.288 4.22399,9.216 8.83199,14.016 3.456,3.456 4.416,3.456 0.576,0 0.576,-1.152 0,-1.344 -1.152,-4.992 -1.92,-6.144 -7.68,-14.208 -5.75999,-8.256 -5.75999,-14.208 0,-7.488 5.18399,-11.52 5.184,-4.032 14.016,-4.032 8.832,0 14.016,4.032 5.184,4.032 5.184,11.52 0,5.76 -5.76,13.824 -5.568,8.064 -7.488,13.824 -1.344,3.84 -1.344,5.568 0,1.152 0.768,1.152 1.152,0 4.608,-3.84 3.84,-4.224 6.336,-9.6 2.688,-5.568 4.992,-9.6 2.304,-4.224 6.336,-6.528 3.648,-2.112 7.68,-2.112 8.832,0 15.36,11.136 3.648,6.72 3.648,11.904 0,8.064 -7.488,12.48 -4.032,2.304 -9.216,2.304 -1.92,0 -6.336,-0.384 -4.224,-0.576 -6.912,-0.576 -3.072,0 -9.024,0.96 z" />
  </g>
  <g
     id="flowRoot903"
     style="font-style:normal;font-variant:normal;font-weight:normal;font-stretch:normal;font-size:192px;line-height:24px;font-family:Roboto;-inkscape-font-specification:Roboto;text-align:center;letter-spacing:0px;word-spacing:0px;writing-mode:lr-tb;text-anchor:middle;fill:#ffffff;fill-opacity:1;stroke:none;stroke-width:1px;stroke-linecap:butt;stroke-linejoin:miter;stroke-opacity:1"
     transform="matrix(0.68642087,0,0,0.68642087,249.31472,123.77096)"
     aria-label="→">
    <path
       id="path969"
       style="font-style:normal;font-variant:normal;font-weight:normal;font-stretch:normal;font-family:Roboto;-inkscape-font-specification:Roboto;fill:#ffffff;fill-opacity:1"
       d="m 722.32031,114.48935 v 8.4375 l -36.84375,36.84375 -11.25,-11.25 21.84375,-21.84375 H 581.78906 v -15.9375 h 114.28125 l -21.84375,-21.843749 11.25,-11.25 z" />
  </g>
</svg>
