<?xml version="1.0" standalone="no"?>
<!DOCTYPE svg PUBLIC "-//W3C//DTD SVG 1.1//EN" "http://www.w3.org/Graphics/SVG/1.1/DTD/svg11.dtd" >
<svg xmlns="http://www.w3.org/2000/svg">
<metadata></metadata>
<defs>
<font id="bodoni_6_mediummedium" horiz-adv-x="1167" >
<font-face units-per-em="2048" ascent="1638" descent="-410" />
<missing-glyph horiz-adv-x="421" />
<glyph unicode="&#xfb01;" horiz-adv-x="1255" d="M39 0v51h199v819h-199v52h199q0 645 454 645q140 0 223 -57q82 -57 82 -146q0 -56 -31 -88q-32 -33 -81 -33q-50 0 -77 27q-28 28 -28 66q0 40 15 57q14 15 14 47q0 71 -122 71t-173 -70q-51 -71 -51 -237v-282h575v-871h164v-51h-551v51h162v819h-350v-819h110v-51h-534 z" />
<glyph unicode="&#xfb02;" horiz-adv-x="1230" d="M39 0v51h199v819h-199v52h199q0 328 113 486q114 159 321 159q133 0 217 -64l149 66v-1518h164v-51h-551v51h162v1194q-74 17 -74 96q0 26 11 45q18 30 18 54q0 71 -106 71q-107 0 -153 -70t-46 -237v-282h252v-52h-252v-819h110v-51h-534z" />
<glyph unicode="&#xfb03;" horiz-adv-x="1837" d="M39 0v51h199v819h-199v52h199q7 294 98 436q90 141 272 141q118 0 182 -51t64 -120q0 -68 -32 -100t-81 -32t-76 27q-28 28 -28 66q0 42 14 57q15 16 15 47q0 51 -70 51t-101 -66q-32 -67 -32 -221v-235h356q0 645 455 645q140 0 223 -57q82 -57 82 -146q0 -54 -32 -88 q-31 -33 -81 -33q-49 0 -76 27q-28 28 -28 66q0 42 14 57q15 17 15 47q0 71 -122 71t-173 -70q-52 -72 -52 -237v-282h576v-871h164v-51h-531v51h142v819h-351v-819h132v-51h-494v51h137v819h-356v-819h149v-51h-573z" />
<glyph unicode="&#xfb04;" horiz-adv-x="1812" d="M39 0v51h199v819h-199v52h199q7 294 98 436q90 141 272 141q113 0 180 -50q66 -49 66 -134q0 -52 -32 -86q-32 -33 -81 -33t-76 27q-28 28 -28 66q0 42 14 57q15 16 15 43q0 55 -70 55q-69 0 -101 -67t-32 -220v-235h356q0 327 114 486t320 159q133 0 217 -64l150 66 v-1518h164v-51h-555v51h166v1194q-74 17 -74 96q0 28 10 45q19 32 19 54q0 71 -107 71q-106 0 -152 -70q-47 -71 -47 -237v-282h252v-52h-252v-819h146v-51h-539v51h168v819h-356v-819h160v-51h-584z" />
<glyph horiz-adv-x="0" />
<glyph unicode="&#xd;" horiz-adv-x="421" />
<glyph horiz-adv-x="0" />
<glyph horiz-adv-x="0" />
<glyph unicode=" "  horiz-adv-x="421" />
<glyph unicode="&#x09;" horiz-adv-x="421" />
<glyph unicode="&#xa0;" horiz-adv-x="421" />
<glyph unicode="!" horiz-adv-x="520" d="M111 125q0 61 44 105t105 44q62 0 106 -44t44 -105q0 -62 -44 -106t-106 -44q-61 0 -105 44t-44 106zM111 1393q0 176 149 176q70 0 98 -31q52 -61 52 -149q0 -87 -19 -163q-21 -82 -41 -173q-59 -261 -59 -594h-64q0 381 -98 770q-18 73 -18 164z" />
<glyph unicode="&#x22;" horiz-adv-x="808" d="M102 1452q0 53 38 82t89 29t89 -29t38 -82t-15 -89q-16 -42 -34 -85q-49 -129 -51 -330h-53q-2 200 -51 330q-8 19 -20 48t-15 37q-15 36 -15 89zM453 1452q0 54 37 82q38 29 90 29q51 0 89 -29t38 -82q0 -51 -16 -89q-3 -8 -36 -85q-49 -128 -49 -330h-53q0 201 -49 330 q-33 77 -36 85q-15 36 -15 89z" />
<glyph unicode="#" horiz-adv-x="1118" d="M0 483v82h246l65 408h-211v82h224l79 508h99l-80 -508h346l80 508h98l-80 -508h254v-82h-266l-66 -408h232v-82h-244l-76 -483h-98l76 483h-346l-76 -483h-98l75 483h-233zM344 565h346l66 408h-346z" />
<glyph unicode="$" horiz-adv-x="1138" d="M47 276q0 72 39 119t105 47q69 0 99 -29q32 -30 32 -78q0 -47 -22 -72q-20 -23 -47 -37q-44 -23 -47 -25q-22 -13 -22 -39q0 -27 55 -65q54 -37 156 -54v641q-145 52 -215 139q-82 98 -82 253q0 154 84 255q85 102 213 142v167h60v-151q62 12 100 12h49q7 0 21 -2v141h59 v-147q132 -22 209 -96q76 -73 76 -178q0 -73 -34 -111q-34 -39 -80 -39q-45 0 -80 23q-34 22 -34 68q0 47 18 65q19 19 38 30q14 8 38 24q17 11 17 41q0 29 -44 62q-43 33 -124 48v-586q165 -62 242 -139q96 -99 96 -263t-88 -282q-89 -119 -250 -162v-229h-59v215 q-82 -11 -107 -11h-43q-10 0 -20 2v-206h-60v213q-160 21 -254 100t-94 194zM225 1159q0 -76 25 -110q45 -60 145 -103v461q-170 -63 -170 -248zM455 35h47q54 0 123 10v573q-41 15 -84 24q-41 8 -86 24v-631zM455 922q100 -36 170 -58v574l-45 2q-70 0 -125 -15v-503z M684 61q103 34 161 112q56 75 56 185q0 142 -123 205q-39 20 -94 39v-541z" />
<glyph unicode="%" horiz-adv-x="1869" d="M96 1139q0 91 28 172q26 76 77 133t116 86q70 31 146 31q75 0 145 -31q67 -30 117 -86t78 -133t28 -172q0 -96 -28 -171q-29 -76 -78 -132q-50 -56 -117 -86q-70 -31 -145 -31q-76 0 -146 31q-65 29 -116 86q-50 56 -77 132q-28 79 -28 171zM305 1197q0 -178 7 -247 q7 -71 26 -115q18 -43 49 -58q30 -15 75 -15q44 0 74 15q28 17 50 59q37 78 36 248q-1 161 -10 245q-6 79 -26 117q-35 74 -123 74q-92 0 -125 -75t-33 -248zM416 0l880 1542h121l-880 -1542h-121zM1038 403q0 91 28 172q27 78 77 134t117 86q68 30 145 30t145 -30 q67 -30 117 -86q49 -55 78 -134t29 -172t-29 -171q-29 -76 -78 -132q-50 -56 -117 -86q-68 -30 -145 -30t-145 30q-67 30 -117 86t-77 132q-28 79 -28 171zM1247 462q0 -178 7 -247q7 -73 26 -116q18 -41 49 -57q30 -15 75 -15q44 0 74 15q28 14 50 56q37 78 36 250 q-1 162 -10 246q-6 77 -26 115q-34 73 -123 75q-92 0 -125 -74q-33 -75 -33 -248z" />
<glyph unicode="&#x26;" horiz-adv-x="1638" d="M41 387q0 322 467 535l-19 30q-7 10 -21 31t-21 31q-19 27 -37 65q-41 80 -41 154t24 134q24 61 74 106q107 98 301 98q169 -1 272 -76q105 -76 105 -192q0 -149 -180 -263q-67 -43 -179 -84l365 -557q119 151 164 392q13 77 14 141h-244v51h535v-51h-221 q-6 -222 -131 -469q-40 -79 -76 -127l184 -285h193v-51h-473l-97 150q-108 -102 -217 -140q-107 -37 -229 -37q-119 0 -217 32q-95 31 -162 89q-133 114 -133 293zM317 511q0 -74 29 -159q27 -81 79 -145q48 -60 118 -97q67 -36 137 -36q72 0 136 29q66 30 149 104l-420 659 q-187 -83 -217 -231q-11 -52 -11 -124zM582 1353q0 -63 26 -112q27 -51 60 -102l84 -129q82 22 132 102t50 191q0 206 -174 206q-86 0 -132 -48q-46 -47 -46 -108z" />
<glyph unicode="'" horiz-adv-x="458" d="M102 1452q0 53 38 82t89 29t89 -29t38 -82t-15 -89q-16 -42 -34 -85q-49 -129 -51 -330h-53q-2 200 -51 330q-8 19 -20 48t-15 37q-15 36 -15 89z" />
<glyph unicode="(" horiz-adv-x="632" d="M143 680q0 379 242 723q84 120 197 244l51 -33q-115 -155 -166 -295q-102 -282 -102 -635q0 -588 264 -936l-51 -27q-224 237 -329 468q-106 235 -106 491z" />
<glyph unicode=")" horiz-adv-x="632" d="M0 1614l51 33q339 -378 412 -719q25 -124 26 -248q0 -258 -105 -491q-105 -231 -329 -468l-51 27q264 348 264 936q0 497 -178 795q-46 78 -90 135z" />
<glyph unicode="*" horiz-adv-x="907" d="M61 963q0 44 60 77q44 26 94 33q99 16 168 47v8q-72 32 -123 39q-199 33 -199 119q0 44 23 75q22 30 67 30q43 0 69 -21q27 -22 51 -52q20 -24 59 -69q29 -33 86 -69l6 4q-6 75 -27 131q-37 99 -37 144q0 44 24 74t73 30q48 0 72 -33t24 -70q0 -34 -8 -63q-5 -24 -19 -58 q-30 -84 -37 -155l7 -4q48 29 80 67q7 8 59 69q30 35 53 53q28 22 71 22q44 0 66 -34q23 -35 23 -63q0 -52 -60 -90q-26 -15 -84 -26q-118 -23 -174 -50v-8q50 -22 114 -36q20 -4 51 -10.5t41 -8.5q28 -5 52 -21q58 -35 60 -88q0 -29 -23 -64q-22 -34 -66 -34q-43 0 -71 22 q-23 18 -53 53q-6 7 -26.5 30.5t-32.5 37.5q-33 40 -80 68l-7 -4q6 -72 27 -129q37 -99 37 -141q0 -41 -24 -74t-72 -33q-49 0 -73 30t-24 67q0 34 9 66t18 58q32 94 37 156l-6 4q-56 -35 -85 -70q-12 -14 -32.5 -37.5t-26.5 -30.5q-27 -31 -52 -52q-26 -21 -69 -21 q-45 0 -67 30q-23 31 -23 75z" />
<glyph unicode="+" horiz-adv-x="1183" d="M82 657v91h465v505h90v-505h465v-91h-465v-505h-90v505h-465z" />
<glyph unicode="," horiz-adv-x="475" d="M70 125q0 61 39 96q40 35 117 35q80 0 129 -56q51 -59 51 -167q0 -110 -78 -212t-215 -159l-13 45q111 53 178 136q66 82 66 153q0 70 -35 70q-17 0 -24 -12q-17 -22 -19 -25q-24 -35 -78 -35q-53 0 -86 35q-32 33 -32 96z" />
<glyph unicode="-" horiz-adv-x="808" d="M102 414v90h605v-90h-605z" />
<glyph unicode="." horiz-adv-x="462" d="M82 125q0 61 44 105t105 44q62 0 106 -44t44 -105q0 -62 -44 -106t-106 -44q-61 0 -105 44t-44 106z" />
<glyph unicode="/" horiz-adv-x="389" d="M-41 0l430 1542h121l-430 -1542h-121z" />
<glyph unicode="0" horiz-adv-x="1357" d="M96 737q0 158 44 298q43 138 122 242q78 103 184 163q105 59 232 59q126 0 231 -59q107 -60 186 -163t123 -242q44 -140 44 -298t-44 -299q-43 -139 -123 -241q-79 -102 -186 -162t-231 -60q-126 0 -232 60t-184 162q-79 103 -122 241q-44 141 -44 299zM403 736 q0 -208 14 -350q13 -136 45 -214q31 -77 84 -106t131 -29q79 0 132 29q51 29 84 106q61 146 61 565q0 417 -61 563q-33 78 -85 108t-131 30t-131 -30t-84 -108t-45 -214q-14 -142 -14 -350z" />
<glyph unicode="1" horiz-adv-x="882" d="M23 0v51h307v1364h-307v51h550v-1415h287v-51h-837z" />
<glyph unicode="2" d="M72 0v158l440 409q161 152 203 228q41 75 53 128q12 54 12 119q0 170 -72 268q-72 97 -212 97q-126 0 -220 -72q-92 -69 -92 -153q0 -41 27 -41q21 0 42 12t68 12q46 0 77 -28q32 -29 32 -94q0 -64 -41 -94q-39 -29 -93 -29q-53 0 -86 17t-56 48q-43 59 -43 149 q0 89 40 156q42 72 105 115q134 94 324 94q189 0 323 -94q152 -107 152 -293q2 -89 -31 -151q-63 -124 -186 -234l-584 -522v-8h625q76 0 94 28q31 47 31 185h51v-410h-983z" />
<glyph unicode="3" horiz-adv-x="1130" d="M53 252q0 67 37 107t94 40q59 0 96 -34t37 -79t-13 -62q-12 -16 -30 -29q-5 -3 -29 -25q-14 -12 -14 -37t24 -43q27 -21 60 -31q65 -22 148 -22q143 0 220 96q77 97 77 271q0 176 -78 266t-260 90h-160v61h121q166 0 238 92q71 90 71 258q0 215 -123 254q-44 13 -104 13 q-63 0 -115 -23q-51 -23 -51 -61q0 -17 10 -28q3 -4 7 -7.5t8.5 -8l7.5 -7.5q33 -34 33 -83q0 -48 -35 -74t-81 -26t-82 37t-36 85t27 93q28 46 75 82q110 82 291 82q198 0 320 -102q114 -96 114 -221q0 -126 -90 -220q-90 -95 -245 -135v-14q193 -24 307 -135 q117 -111 117 -262q0 -175 -148 -299q-160 -135 -412 -136q-191 0 -313 78q-121 78 -121 199z" />
<glyph unicode="4" horiz-adv-x="1218" d="M37 410v57l696 1032h150v-1034h221v162h53v-385h-53v168h-219v-359h174v-51h-621v51h203v359h-604zM115 465h524v762h-8l-516 -754v-8z" />
<glyph unicode="5" horiz-adv-x="1128" d="M66 252q0 69 36 109q37 42 95 42q57 0 95 -30t38 -75q0 -43 -16 -64q-14 -18 -32 -33q-26 -21 -33 -28q-16 -14 -16 -38q0 -25 18 -43q21 -20 48 -31q60 -24 147 -24q156 0 243 96t87 293q-1 200 -96 307q-86 96 -242 98q-67 0 -131 -16q-66 -16 -104 -43l-33 21l76 673 h545q91 0 124 33q13 13 23 33h51l-74 -262h-618l-2 6l-47 -414q92 33 232 33t247 -33q108 -34 180 -92q152 -123 152 -315q1 -205 -166 -344q-163 -137 -404 -136q-183 0 -301 76q-122 79 -122 201z" />
<glyph unicode="6" horiz-adv-x="1241" d="M100 594q0 196 79 364q80 170 211 297q131 126 304 203q171 76 359 82v-59q-263 -21 -435 -187q-167 -161 -206 -422l6 -2q113 101 266 101q205 0 350 -140q146 -141 146 -344q0 -217 -166 -368q-159 -144 -379 -144q-229 0 -381 168q-156 172 -154 451zM383 478 q0 -155 13 -233q14 -81 42 -126q51 -82 193 -82q72 0 120 18q46 17 77 68q30 50 42 133q13 91 13 217q0 125 -13 218q-12 83 -36 132q-44 86 -146 86q-190 0 -285 -155q-20 -117 -20 -276z" />
<glyph unicode="7" horiz-adv-x="1032" d="M82 1061l94 405h842v-24l-277 -606q-112 -245 -112 -433q0 -95 22 -146q23 -53 33 -78q10 -24 10 -64q0 -140 -143 -140q-72 0 -115 43t-43 138q0 56 21 118q39 112 121 291l325 705h-512q-88 0 -119 -29q-49 -45 -96 -180h-51z" />
<glyph unicode="8" horiz-adv-x="1255" d="M86 377q0 72 31 134q28 60 84 112q112 105 291 143v8q-148 29 -246 127q-99 99 -99 236q0 156 121 256q128 106 361 106q228 0 358 -106q120 -100 121 -256q0 -137 -96 -236q-96 -97 -246 -127v-8q177 -38 289 -145q114 -111 114 -232q0 -181 -135 -295 q-145 -119 -407 -119q-263 0 -408 119q-67 57 -100 133q-33 77 -33 150zM373 379q0 -178 57 -260t197 -82q139 0 197 82q59 83 59 261q0 177 -58 269q-57 90 -197 90q-141 0 -198 -91q-57 -92 -57 -269zM414 1129q0 -165 49 -251q49 -87 166 -87t165 87t48 251 q0 165 -48 237t-165 72t-166 -72q-49 -71 -49 -237z" />
<glyph unicode="9" horiz-adv-x="1241" d="M90 987q0 218 166 369q158 143 379 143q229 0 379 -168q155 -174 155 -450q0 -199 -78 -365q-80 -170 -211 -297q-130 -125 -305 -203q-171 -76 -358 -82v60q263 21 434 186q168 162 207 422l-6 2q-112 -100 -266 -100q-207 0 -350 139q-146 141 -146 344zM387 1001 q0 -252 49 -350q44 -86 146 -86q188 0 284 156q21 123 21 275q0 150 -14 234q-13 81 -42 126q-51 82 -192 82q-69 0 -120 -19q-49 -18 -77 -67q-54 -92 -55 -351z" />
<glyph unicode=":" horiz-adv-x="462" d="M82 125q0 61 44 105t105 44q62 0 106 -44t44 -105q0 -62 -44 -106t-106 -44q-61 0 -105 44t-44 106zM82 733q0 62 44 106t105 44q62 0 106 -44t44 -106q0 -61 -44 -105t-106 -44q-61 0 -105 44t-44 105z" />
<glyph unicode=";" horiz-adv-x="573" d="M70 125q0 61 39 96q40 35 117 35q80 0 129 -56q51 -59 51 -167q0 -110 -78 -212t-215 -159l-13 45q111 53 178 136q66 82 66 153q0 70 -35 70q-17 0 -24 -12q-17 -22 -19 -25q-24 -35 -78 -35q-53 0 -86 35q-32 33 -32 96zM88 733q0 62 44 106t106 44q61 0 105 -44 t44 -106q0 -61 -44 -105t-105 -44q-62 0 -106 44t-44 105z" />
<glyph unicode="&#x3c;" horiz-adv-x="1204" d="M123 647v117l958 479v-110l-848 -424l848 -424v-117z" />
<glyph unicode="=" horiz-adv-x="1224" d="M102 481v99h1020v-99h-1020zM102 823v99h1020v-99h-1020z" />
<glyph unicode="&#x3e;" horiz-adv-x="1204" d="M123 168v117l848 424l-848 424v110l958 -479v-117z" />
<glyph unicode="?" horiz-adv-x="847" d="M49 1273q0 64 26 116q26 50 70 90q100 90 263 90q161 0 268 -109q106 -107 106 -299q0 -142 -106 -264q-43 -51 -98 -99q-59 -54 -99 -98q-106 -118 -106 -245h-62q-18 77 -18 175q0 103 26 172q27 73 68 127q39 52 87 97q65 61 87 82q42 40 68 81q26 40 26 97 q0 55 -21 97t-56 71t-80 44t-95 15q-49 0 -92 -12q-41 -11 -73 -31q-70 -44 -70 -90q0 -28 17 -39q14 -9 38 -23q20 -11 38 -31q18 -19 18 -62q0 -90 -109 -90q-53 0 -86 36q-35 38 -35 102zM215 125q0 61 44 105t106 44q61 0 105 -44t44 -105q0 -62 -44 -106t-105 -44 q-62 0 -106 44t-44 106z" />
<glyph unicode="@" horiz-adv-x="1710" d="M143 408q0 209 68 375t183 278t266 171q149 58 310 58q156 0 276 -47q118 -47 198 -129q164 -167 164 -428q-2 -243 -142 -420q-66 -83 -151 -129q-86 -47 -185 -47q-161 0 -161 143l-13 3q-30 -53 -89 -99q-61 -47 -129 -47q-65 0 -114 19q-46 18 -83 55q-82 83 -80 233 q1 213 149 377q68 76 148 115q84 41 154 41q72 0 109 -31q35 -29 64 -100h11l26 108h221l-151 -639q-6 -22 -6 -35q0 -40 52 -40q53 0 105 34q55 36 99 101q98 144 98 350q0 259 -164 409q-157 142 -405 142q-158 0 -296 -60q-140 -61 -241 -168q-103 -109 -163 -260 t-60 -315q0 -165 40 -284q41 -121 116 -208q157 -184 451 -184t497 236l37 -52q-130 -134 -261 -190q-129 -55 -276 -55q-146 0 -266 43q-121 44 -211 133q-195 192 -195 543zM686 303q0 -141 72 -141q70 0 139 74q58 61 96 151l66 262q0 91 -23 152q-22 59 -78 59 q-55 0 -103 -51q-47 -50 -85 -133q-84 -184 -84 -373z" />
<glyph unicode="A" horiz-adv-x="1404" d="M-33 0v51h183l528 1518h61l506 -1518h191v-51h-703v51h238l-144 432h-462l-148 -432h242v-51h-492zM383 535h426l-207 622h-8z" />
<glyph unicode="B" horiz-adv-x="1439" d="M-12 0v51h225v1442h-225v51h790q206 0 340 -106q138 -107 140 -254v-6q0 -142 -97 -234q-99 -94 -252 -135q187 -44 296 -140q112 -98 112 -253q0 -182 -154 -299q-153 -117 -385 -117h-790zM487 51h209h8q151 0 218 72q82 85 82 299q0 106 -18 174q-19 70 -58 109 q-75 75 -273 77h-168v-731zM487 844h209q148 0 205 61q62 68 62 258q0 197 -66 271q-53 59 -192 59h-9h-209v-649z" />
<glyph unicode="C" horiz-adv-x="1406" d="M94 772q0 157 56 302q57 147 152 254q98 110 227 175q131 66 282 66q193 0 344 -127l80 102h51v-463h-51q-56 298 -252 392q-72 34 -168 34q-95 0 -166 -31q-73 -32 -122 -114q-51 -84 -77 -224q-28 -148 -28 -366q0 -222 27 -365q27 -144 76 -225q48 -81 121 -113 q72 -32 168 -32q94 0 173 31q74 29 129 84q97 97 137 282h52v-434h-52l-69 94q-158 -119 -379 -119q-152 0 -281 66q-130 66 -225 175q-97 111 -151 254q-54 144 -54 302z" />
<glyph unicode="D" horiz-adv-x="1591" d="M23 0v51h225v1442h-225v51h749q154 0 287 -63q130 -61 231 -170q98 -105 155 -247q56 -139 56 -292t-56 -292q-57 -140 -156 -247q-100 -108 -232 -170q-133 -63 -287 -63h-747zM522 51h187q123 0 214 31q87 30 144 111q56 80 81 220q26 144 26 359q0 216 -26 360 q-26 141 -82 220q-58 80 -145 110q-91 31 -214 31h-185v-1442z" />
<glyph unicode="E" horiz-adv-x="1415" d="M16 0v51h242v1442h-242v51h1231v-420h-71q-4 157 -89 260q-89 109 -232 109h-3h-320v-698q186 0 252 59q66 57 66 223h72v-635h-72q-2 173 -68 236q-66 65 -250 65v-692h381q147 0 236 129q83 121 88 301h72v-481h-1293z" />
<glyph unicode="F" horiz-adv-x="1347" d="M23 0v51h241v1442h-241v51h1251v-502h-72q-6 302 -188 414q-59 37 -135 37h-340v-698q186 0 252 59q65 56 65 223h72v-635h-72q-5 174 -70 236q-66 65 -247 65v-692h225v-51h-741z" />
<glyph unicode="G" horiz-adv-x="1509" d="M92 764q0 154 54 301t151 259q98 113 226 178q132 67 299 67q170 0 321 -127l90 102h51v-463h-51q-57 297 -254 392q-72 34 -166 34q-93 0 -164 -31q-71 -30 -121 -116q-107 -183 -108 -612q0 -580 205 -676q68 -31 149 -31q136 0 209 64q74 65 74 182v262h-252v51h676 v-51h-119v-19q0 -251 -174 -407q-165 -148 -408 -148q-157 0 -286 67q-127 66 -216 176q-91 112 -138 251q-48 141 -48 295z" />
<glyph unicode="H" horiz-adv-x="1640" d="M27 0v51h225v1442h-225v51h725v-51h-226v-674h590v674h-225v51h725v-51h-225v-1442h225v-51h-725v51h225v717h-590v-717h226v-51h-725z" />
<glyph unicode="I" horiz-adv-x="776" d="M27 0v51h225v1442h-225v51h725v-51h-226v-1442h226v-51h-725z" />
<glyph unicode="J" horiz-adv-x="942" d="M-59 -17q0 82 43 121q44 39 97 39t91 -38q37 -37 37 -86q0 -47 -19 -75q-18 -27 -18 -57q0 -41 49 -41q139 0 139 410v1237h-266v51h725v-51h-184v-1237q0 -191 -139 -336q-135 -141 -310 -141q-114 0 -180 60q-65 59 -65 144z" />
<glyph unicode="K" horiz-adv-x="1492" d="M27 0v51h225v1442h-225v51h704v-51h-205v-705l627 705h-256v51h580v-51h-236l-487 -549l710 -893h142v-51h-713v51h227l-542 694l-52 -59v-635h205v-51h-704z" />
<glyph unicode="L" horiz-adv-x="1355" d="M27 0v51h241v1442h-241v51h764v-51h-248v-1442h350q147 0 237 129q83 117 87 301h71v-481h-1261z" />
<glyph unicode="M" horiz-adv-x="1810" d="M25 0v51h225v1442h-225v51h555l325 -1081h8l334 1081h539v-51h-225v-1442h225v-51h-725v51h225v1311h-8l-428 -1380h-74l-438 1380h-8v-1311h225v-51h-530z" />
<glyph unicode="N" horiz-adv-x="1523" d="M27 0v51h225v1442h-225v51h555l626 -995h9v944h-205v51h489v-51h-205v-1518h-63l-893 1424h-8v-1348h225v-51h-530z" />
<glyph unicode="O" horiz-adv-x="1601" d="M90 772q0 161 55 304q55 144 152 254q96 110 225 174q130 65 279 65q148 0 278 -65q131 -65 226 -174q95 -108 151 -254q55 -143 55 -304t-55 -304q-56 -146 -151 -254q-95 -109 -226 -174q-130 -65 -278 -65q-149 0 -279 65q-129 64 -225 174q-97 110 -152 254 q-55 143 -55 304zM418 772q0 -225 20 -361q21 -145 67 -226q46 -82 119 -115q72 -33 177 -33t177 33q73 33 119 115q44 79 66 227q21 144 21 362q0 220 -21 362q-22 146 -66 225q-47 84 -119 115q-71 31 -177 31q-107 0 -177 -32q-72 -33 -119 -116q-46 -81 -67 -225 q-20 -136 -20 -362z" />
<glyph unicode="P" horiz-adv-x="1400" d="M23 0v51h225v1442h-225v51h790q224 0 371 -117q151 -118 151 -297q0 -193 -188 -311q-190 -119 -518 -119h-107v-649h266v-51h-765zM522 762h107q216 0 299 74q90 80 90 307v5q0 200 -72 277q-63 66 -215 68h-209v-731z" />
<glyph unicode="Q" horiz-adv-x="1601" d="M92 772q0 161 55 304t151 254q94 109 224 174t279 65q148 0 278 -65q131 -65 226 -174q95 -108 151 -254q55 -143 55 -293q0 -146 -41 -274t-114 -230q-157 -221 -389 -281q-4 -24 -4 -51v-47q0 -211 114 -293q97 -70 326 -70v-61q-421 0 -588 112q-90 61 -132 161 q-43 100 -44 247q-238 62 -392 282q-155 221 -155 494zM420 772q0 -225 20 -361q21 -144 66 -226q44 -81 118 -115q72 -33 177 -33t177 33q73 33 119 115q44 79 66 227q21 144 21 362q0 213 -22 362q-21 144 -67 225q-47 84 -119 115q-71 31 -177 31q-107 0 -177 -32 q-74 -34 -117 -116q-44 -84 -65 -225q-20 -136 -20 -362z" />
<glyph unicode="R" horiz-adv-x="1415" d="M27 0v51h225v1442h-225v51h790q206 0 340 -92q141 -96 141 -249q0 -152 -108 -251q-107 -98 -309 -137v-8q137 -35 243 -145q113 -118 113 -261v-106q0 -140 31 -193q30 -51 110 -51h78v-51h-158q-154 0 -254 86q-101 90 -106 227l-6 162q-6 162 -84 240t-199 78h-123 v-742h267v-51h-766zM526 854h107q189 1 266 68q82 72 82 276q0 175 -61 240q-53 53 -185 55h-209v-639z" />
<glyph unicode="S" horiz-adv-x="1175" d="M111 0v430h53q69 -266 262 -356q72 -32 165 -34h7q85 0 150 25q63 25 108 66q86 84 86 207q0 178 -233 262q-66 24 -162 47q-222 52 -324 168q-100 113 -100 297q0 213 143 340q131 117 322 117q96 0 171 -28q71 -27 148 -87l54 90h51v-418l-51 -2q-96 383 -381 383 q-133 0 -222 -73q-94 -78 -94 -189q1 -114 105 -176q73 -45 222 -84q146 -38 231 -80q84 -41 139 -102q112 -122 112 -342q0 -219 -127 -352q-128 -134 -366 -134q-108 0 -190 31q-76 29 -154 90l-74 -96h-51z" />
<glyph unicode="T" horiz-adv-x="1443" d="M59 1042v502h1327v-502h-71q-6 302 -189 414q-59 37 -135 37h-123v-1442h267v-51h-807v51h266v1442h-156q-140 -7 -225 -141q-77 -121 -82 -310h-72z" />
<glyph unicode="U" horiz-adv-x="1509" d="M12 1493v51h709v-51h-195v-1092q0 -190 88 -272t248 -82q161 0 255 87q95 87 95 267v1092h-215v51h498v-51h-215v-1092q0 -221 -122 -323q-123 -103 -365 -103q-391 0 -502 236q-37 79 -39 188v1094h-240z" />
<glyph unicode="V" horiz-adv-x="1462" d="M-12 1493v51h710v-51h-239l375 -1096h8l370 1096h-239v51h500v-51h-193l-516 -1518h-62l-518 1518h-196z" />
<glyph unicode="W" horiz-adv-x="1857" d="M-53 1493v51h1431v-51h-116l-170 -471l211 -629h8l383 1100h-211v51h426v-51h-148l-526 -1518h-61l-242 707l-250 -707h-61l-519 1518h-155zM377 1493l377 -1100h8l137 387l-244 713h-278zM930 1493l129 -377l131 377h-260z" />
<glyph unicode="X" horiz-adv-x="1380" d="M-45 0v51h195l430 692l-420 750h-174v51h704v-51h-223l303 -547l344 547h-244v51h510v-51h-196l-379 -610l461 -832h159v-51h-700v51h244l-355 631l-389 -631h267v-51h-537z" />
<glyph unicode="Y" horiz-adv-x="1345" d="M-86 1493v51h711v-51h-222l388 -670h8l366 670h-278v51h543v-51h-197l-404 -752v-690h246v-51h-766v51h246v651l-459 791h-182z" />
<glyph unicode="Z" horiz-adv-x="1333" d="M57 0v66l856 1419v8h-378h-5q-142 0 -231 -109q-82 -98 -88 -260h-72v420h1106v-71l-850 -1414v-8h455q140 0 235 135q83 122 89 316h71v-502h-1188z" />
<glyph unicode="[" horiz-adv-x="651" d="M168 -252v1866h448v-51h-225v-1764h225v-51h-448z" />
<glyph unicode="\" horiz-adv-x="305" d="M-123 1542h121l430 -1542h-121z" />
<glyph unicode="]" horiz-adv-x="651" d="M35 -201h225v1764h-225v51h448v-1866h-448v51z" />
<glyph unicode="^" horiz-adv-x="1026" d="M20 354l441 967h100l445 -967h-111l-385 836l-379 -836h-111z" />
<glyph unicode="_" horiz-adv-x="1101" d="M0 -143h1102v-90h-1102v90z" />
<glyph unicode="`" horiz-adv-x="507" d="M20 1463q0 32 25 57q24 24 64 24q76 0 137 -82l241 -327h-88l-276 192q-66 45 -84 75q-19 32 -19 61z" />
<glyph unicode="a" horiz-adv-x="1036" d="M84 189q0 89 38 147q38 57 107 98q145 84 402 84v250q0 54 -41 84q-42 31 -108 31t-105 -21t-39 -48q0 -29 14 -43q15 -15 15 -54q0 -40 -32 -67q-31 -27 -81 -27t-78 28q-29 29 -29 75t29 87q30 42 78 70q111 63 262 63q152 0 246 -58t94 -153v-622q0 -21 13 -34t39 -13 t98 79l28 -32q-96 -138 -215 -138q-72 0 -118 40q-45 40 -62 112h-8q-37 -65 -123 -109q-83 -43 -184 -43t-170 63q-70 64 -70 151zM322 244q0 -156 141 -156q72 0 120 57t48 154v166q-309 0 -309 -221z" />
<glyph unicode="b" d="M8 0v51h162v1442h-162v51h387v-741h8q34 61 107 102t158 41q84 0 157 -35q70 -34 127 -98q54 -61 88 -154q33 -90 33 -198q0 -110 -34 -199q-35 -92 -89 -153q-117 -134 -274 -134q-96 0 -167 41t-106 103h-8v-119h-387zM395 430q0 -201 74 -293t184 -92q45 0 73 17 q30 18 49 64q21 50 28 126q8 85 8 207q0 127 -9 208q-9 78 -28 128q-33 82 -132 82t-171 -89q-72 -88 -76 -278v-80z" />
<glyph unicode="c" horiz-adv-x="1034" d="M100 463q0 187 140 332q147 151 352 151q136 0 231 -65q97 -67 97 -168q0 -60 -35 -95q-34 -34 -86 -34t-90 28q-39 28 -39 86q0 43 16 63q18 23 25 34q8 13 8 30q0 66 -127 66q-126 0 -176 -89q-49 -88 -49 -338q0 -249 47 -338t164 -89q116 0 191 60q74 59 130 208h57 q-40 -146 -137 -238t-244 -92q-189 0 -333 152q-141 151 -142 336z" />
<glyph unicode="d" horiz-adv-x="1163" d="M98 461q0 108 33 198q34 93 88 154q117 133 275 133q95 0 168 -41q71 -40 106 -102h8v690h-203v51h428v-1493h140v-51h-365v119h-8q-35 -63 -105 -103q-71 -41 -158 -41q-86 0 -159 35q-69 33 -127 99q-55 62 -88 153q-33 90 -33 199zM360 516q0 -169 9 -264 q7 -80 27 -126q19 -46 49 -64q28 -17 77 -17q45 0 94 22q48 22 82 66q78 101 78 277v82q0 199 -73 292t-183 93q-90 0 -123 -82q-37 -93 -37 -279z" />
<glyph unicode="e" horiz-adv-x="1034" d="M84 461q0 197 127 336q134 149 340 149q165 0 278 -110q113 -111 113 -287v-12h-592v-76v-19q0 -234 47 -319q47 -86 163 -86q117 0 196 55t135 193h57q-40 -145 -143 -228q-101 -82 -244 -82q-192 0 -336 150q-139 147 -141 336zM352 588h353v117q0 186 -164 186 q-92 -2 -133 -68q-44 -68 -56 -235z" />
<glyph unicode="f" horiz-adv-x="741" d="M39 0v51h199v819h-199v52h199v57q0 300 85 443q86 145 265 145q105 0 165 -45t60 -109q0 -62 -32 -96q-31 -33 -81 -33q-49 0 -76 27q-28 25 -28 65q0 43 14 58q15 16 15 43q-1 34 -56 34q-53 0 -80 -56q-26 -55 -26 -189v-344h252v-52h-252v-819h231v-51h-655z" />
<glyph unicode="g" horiz-adv-x="1060" d="M88 -371q0 76 42 139q41 62 116 103v8q-150 63 -150 227q0 211 223 232q-76 44 -125 119t-49 148t29 134q27 61 76 105q107 102 254 102q148 0 256 -123q22 55 65 89t95 34q51 0 81 -27q31 -28 31 -69q0 -42 -22 -65t-57 -23q-33 0 -47 12q-13 12 -21 26q-3 5 -9 13.5 t-8 11.5q-8 13 -24 13q-33 0 -41 -70q45 -74 45 -144q0 -69 -29 -130q-29 -60 -78 -105q-107 -100 -245 -100h-129q-83 0 -136 -33q-53 -30 -53 -80q0 -94 113 -94h424q131 0 192 -64q60 -63 60 -187q0 -126 -34 -213q-37 -92 -97 -153q-130 -133 -344 -133q-176 0 -289 86 q-115 86 -115 211zM234 -364q2 -46 22 -91q22 -49 57 -81q37 -34 87 -52q49 -18 117 -18q67 0 134 27q69 30 119 75q113 102 113 234q0 68 -33 105q-33 38 -92 38h-432q-60 -45 -84 -160q-8 -37 -8 -70v-7zM356 654q0 -120 6 -172q6 -51 22 -83q16 -31 42 -43q27 -12 69 -12 t69 12t44 43q29 53 29 173t-6 171t-23 82q-29 56 -114 56q-80 0 -109 -54q-29 -53 -29 -173z" />
<glyph unicode="h" horiz-adv-x="1220" d="M41 0v51h162v1442h-162v51h387v-792h8q101 194 318 194q123 0 204 -65q78 -62 78 -158v-672h140v-51h-521v51h156v672q0 154 -129 154q-104 0 -178 -115q-75 -123 -76 -291v-420h133v-51h-520z" />
<glyph unicode="i" horiz-adv-x="675" d="M51 870v52h408v-871h164v-51h-551v51h161v819h-182zM205 1366q0 55 40 95t95 40t95 -40t40 -95t-40 -95t-95 -40t-95 40t-40 95z" />
<glyph unicode="j" horiz-adv-x="675" d="M-86 -527q0 56 33 89q32 32 77 32q44 0 75 -24q32 -24 32 -66l-6 -65q0 -23 12 -31q13 -8 31 -8t42 40q23 39 23 157v1273h-182v52h408v-1018q0 -280 -105 -432q-99 -140 -258 -140q-89 0 -136 42q-46 42 -46 99zM203 1366q0 55 40 95t95 40t95 -40t40 -95t-40 -95 t-95 -40t-95 40t-40 95z" />
<glyph unicode="k" horiz-adv-x="1069" d="M25 0v51h161v1442h-161v51h387v-1493h112v-51h-499zM426 510l358 360h-200v52h475v-52h-187l-251 -254l446 -565h88v-51h-504v51h123z" />
<glyph unicode="l" horiz-adv-x="606" d="M27 0v51h161v1442h-161v51h387v-1493h164v-51h-551z" />
<glyph unicode="m" horiz-adv-x="1794" d="M55 0v51h162v819h-162v52h387v-170h9q91 194 305 194q112 0 183 -55q73 -56 85 -139h10q91 194 305 194q116 0 193 -65q78 -63 78 -158v-672h139v-51h-520v51h155v672q0 154 -116 154q-101 0 -170 -121q-72 -124 -72 -301v-404h139v-51h-520v51h156v672q0 154 -117 154 q-100 0 -170 -115q-72 -118 -72 -291v-420h133v-51h-520z" />
<glyph unicode="n" horiz-adv-x="1220" d="M57 0v51h162v819h-162v52h387v-170h9q98 194 311 194q121 0 199 -65q77 -62 77 -158v-672h140v-51h-521v51h156v672q0 154 -123 154q-102 0 -176 -115q-72 -114 -72 -282v-9v-420h134v-51h-521z" />
<glyph unicode="o" horiz-adv-x="1150" d="M94 461q0 91 38 179q37 86 104 156q66 69 152 109q88 41 187 41q100 0 188 -41q86 -40 152 -109q67 -70 104 -156q38 -88 38 -179t-38 -179q-37 -86 -104 -156q-68 -71 -152 -110q-88 -41 -188 -41q-99 0 -187 41q-84 39 -152 110q-67 70 -104 156q-38 88 -38 179z M360 461q0 -129 12 -211q12 -84 38 -130q28 -49 66 -66t97 -17q60 0 100 17q41 17 68 66q26 46 38 130q12 83 12 211q0 129 -12 211q-12 84 -38 130q-26 47 -67 65q-43 18 -101 18q-57 0 -97 -18q-39 -17 -66 -65q-26 -46 -38 -130q-12 -82 -12 -211z" />
<glyph unicode="p" horiz-adv-x="1183" d="M18 870v52h388v-119h8q35 62 106 102q73 41 158 41t158 -35q70 -34 127 -98q54 -61 88 -154q32 -87 32 -198q0 -113 -33 -199q-35 -92 -89 -153q-117 -134 -275 -134q-96 0 -167 41q-70 40 -105 103h-8v-711h204v-51h-571v51h141v1462h-162zM406 410q0 -180 75 -277 q69 -88 178 -88q51 0 78 17q29 18 48 64q21 50 28 126q8 85 8 207q0 127 -9 208q-9 78 -28 128q-33 82 -132 82q-98 0 -173 -90q-73 -88 -73 -277v-100z" />
<glyph unicode="q" horiz-adv-x="1183" d="M102 461q0 108 33 198q34 93 88 154q117 133 275 133q95 0 168 -41q71 -40 106 -102h8v119h387v-52h-161v-1462h161v-51h-571v51h184v711h-8q-35 -63 -105 -103q-71 -41 -158 -41q-86 0 -159 35q-69 33 -127 99q-55 62 -88 153q-33 90 -33 199zM365 459q0 -122 8 -207 q7 -80 27 -126q19 -45 50 -64q28 -17 72 -17q111 0 185 92q73 91 73 293v80q0 277 -155 346q-47 21 -96 21q-48 0 -78 -18q-33 -20 -50 -64q-18 -46 -27 -128q-9 -81 -9 -208z" />
<glyph unicode="r" horiz-adv-x="884" d="M57 0v51h162v819h-162v52h387v-162h9q51 110 117 148q67 38 128 38q62 0 100 -38t38 -104t-38 -96t-81 -30t-75 21t-32 61l6 41q0 26 -32 26q-21 0 -45 -24t-45 -68q-50 -103 -50 -219v-465h185v-51h-572z" />
<glyph unicode="s" horiz-adv-x="897" d="M109 0v313h65l10 -39q60 -225 303 -225q103 0 144 36t41 103q0 68 -55 100q-54 31 -149 51q-102 21 -156 40q-63 23 -103 55q-89 71 -89 212q0 146 85 223t239 77q88 0 153 -24q63 -24 91 -68l23 68h53v-297h-64l-6 30q-23 116 -79 166q-57 51 -160 51q-201 0 -201 -143 q0 -49 45 -82q50 -34 156 -58q108 -25 165 -46q59 -22 101 -58q84 -72 84 -206q0 -136 -86 -220q-85 -84 -230 -84q-84 0 -163 29q-75 28 -127 76l-31 -80h-59z" />
<glyph unicode="t" horiz-adv-x="724" d="M25 868v52q98 7 194 112q87 95 139 242h58v-354h235v-52h-235v-708q0 -92 76 -92q44 0 77 29q35 31 76 100l41 -23q-52 -112 -117 -157q-64 -44 -168 -44q-211 0 -211 172v723h-165z" />
<glyph unicode="u" d="M14 870v52h385v-717q0 -77 31 -116q30 -38 80 -38q47 0 92 31q43 29 78 84q74 119 74 283v421h-168v52h393v-871h162v-51h-387v160h-9q-105 -185 -303 -185q-117 0 -193 65q-75 64 -75 159v671h-160z" />
<glyph unicode="v" horiz-adv-x="1019" d="M-27 870v52h500v-52h-123l242 -594h8l211 594h-141v52h366v-52h-151l-332 -895h-59l-396 895h-125z" />
<glyph unicode="w" horiz-adv-x="1404" d="M-25 870v52h496v-52h-117l181 -551h8l213 603h78l217 -603h8l182 551h-151v52h370v-52h-147l-309 -895h-60l-223 629h-8l-236 -629h-59l-316 895h-127z" />
<glyph unicode="x" horiz-adv-x="1036" d="M-23 870v52h508v-52h-123l203 -278l203 278h-135v52h385v-52h-176l-238 -329l357 -490h108v-51h-508v51h121l-231 320l-230 -320h166v-51h-405v51h165l267 369l-324 450h-113z" />
<glyph unicode="y" horiz-adv-x="995" d="M-23 870v52h508v-52h-135l232 -544h8l194 544h-151v52h385v-52h-160l-485 -1312q-73 -188 -164 -217q-34 -9 -61 -9q-30 0 -56 13q-22 12 -39 30q-28 32 -28 81t29 78q30 30 68 30q36 0 57 -13t34 -26q5 -5 13.5 -14t12.5 -13q12 -12 27 -12q24 0 39 47l180 502l-387 835 h-121z" />
<glyph unicode="z" horiz-adv-x="983" d="M94 0v72l529 798h-150q-129 -1 -207 -92q-71 -85 -76 -215h-51v359h725v-72l-522 -799h207q114 0 194 74t86 221l2 33h52v-379h-789z" />
<glyph unicode="{" horiz-adv-x="638" d="M111 662v34q77 0 106 54q29 52 29 196v293q0 122 14 191q15 74 57 113q41 39 123 54q80 15 213 15v-51q-107 0 -145 -56q-37 -52 -39 -211v-354q0 -127 -45 -184q-46 -60 -164 -72v-8q118 -12 164 -72q45 -57 45 -186v-352q2 -159 39 -211q39 -56 145 -56v-51 q-139 0 -213 14q-80 15 -123 55q-42 39 -57 113q-14 69 -14 191v291q0 143 -22 185q-21 40 -48 52q-29 13 -65 13z" />
<glyph unicode="|" horiz-adv-x="751" d="M315 -252v1866h121v-1866h-121z" />
<glyph unicode="}" horiz-adv-x="638" d="M-14 -201q107 0 145 56q37 52 39 211v352q0 130 45 186q46 60 164 72v8q-118 12 -164 72q-45 57 -45 184v354q-2 159 -39 211q-39 56 -145 56v51q134 0 213 -15q82 -15 123 -54q42 -39 57 -113q14 -69 14 -191v-293q0 -143 22 -185q20 -40 47 -52q28 -13 66 -13v-34 q-77 0 -106 -54q-29 -52 -29 -196v-291q0 -122 -14 -191q-15 -74 -57 -113q-43 -40 -123 -55q-74 -14 -213 -14v51z" />
<glyph unicode="~" horiz-adv-x="972" d="M20 508q59 90 103 128q37 32 82 50q39 16 92 16t101 -19q54 -21 98 -44q123 -61 191 -61q69 0 106 36q35 33 75 93l84 -52q-68 -97 -102 -125q-71 -59 -140 -59q-70 0 -118 19q-42 17 -97 44q-38 19 -97 43q-47 19 -92 19q-47 0 -73 -11q-30 -13 -51 -32 q-41 -36 -80 -100z" />
<glyph unicode="&#xa1;" horiz-adv-x="520" d="M111 -492q0 90 18 164q17 71 39 176q58 277 59 594h64q0 -333 59 -594q19 -85 41 -174q19 -76 19 -138q0 -63 -13 -104t-32 -61q-33 -39 -105 -39q-71 0 -110 43t-39 133zM111 776q0 62 44 106t105 44q62 0 106 -44t44 -106q0 -61 -44 -105t-106 -44q-61 0 -105 44 t-44 105z" />
<glyph unicode="&#xa2;" horiz-adv-x="978" d="M55 758q0 173 121 307q125 142 311 166v272h60v-268q135 0 231 -66q97 -67 97 -168q0 -59 -35 -94t-86 -35q-50 0 -90 29q-39 29 -39 86q0 43 16 63q21 27 25 33q8 13 8 31q0 66 -127 66v-840q109 2 181 63q74 64 126 205h57q-40 -145 -132 -235q-91 -89 -232 -94v-267 h-60v269q-181 17 -307 159q-127 140 -125 318zM322 809q0 -274 37 -364q37 -91 128 -103v834q-94 -16 -127 -105q-36 -93 -38 -262z" />
<glyph unicode="&#xa3;" horiz-adv-x="1144" d="M33 108q0 60 17 91q18 33 45 54t64 32q34 10 90 10q55 0 159 -37q4 13 4 29v45q0 32 -12 78q-18 71 -27 97q-5 16 -17 51t-18 53q-18 53 -33 116h-221v90h203q-13 73 -13 162t28 192q27 97 83 172q119 158 332 158q155 0 250 -76q100 -78 100 -204q0 -65 -32 -112 q-31 -46 -90 -46t-86 29q-28 30 -28 68q0 39 19 60q14 15 41 33q8 5 21.5 14l19.5 13q18 12 18 34t-12 43t-37 40q-59 43 -173 43t-169 -75q-55 -74 -55 -178q0 -106 19 -189q23 -100 38 -181h289v-90h-275q11 -90 11 -141q0 -185 -74 -359q117 -65 260 -65q251 0 266 256 h49q0 -199 -53 -307q-74 -151 -258 -152q-72 0 -123 23q-88 39 -190 129q-29 -57 -101 -106q-68 -46 -152 -46t-130 45q-47 45 -47 104zM109 121q0 -50 29 -75q31 -26 65 -26q33 0 63 14q32 13 53 32q50 39 72 94q-29 29 -79 47q-49 18 -92 18q-42 0 -77 -27 q-34 -27 -34 -77z" />
<glyph unicode="&#xa4;" horiz-adv-x="1370" d="M205 311l112 133q-112 128 -112 307q0 178 112 312l-112 133l45 35l110 -125q134 127 323 127q188 0 327 -127l110 125l45 -35l-114 -133q114 -137 114 -309q0 -174 -114 -310l114 -133l-45 -35l-112 125q-134 -125 -322 -125q-189 0 -326 125l-110 -125zM338 754 q0 -71 27 -134q28 -65 73 -110q46 -46 111 -74q61 -26 135 -26t135 26q65 28 111 74q49 49 75 110q27 63 27 134t-27 134q-25 60 -75 109q-48 48 -111 75q-65 28 -135 28t-135 -28q-63 -27 -111 -75q-46 -46 -73 -109t-27 -134z" />
<glyph unicode="&#xa5;" horiz-adv-x="1556" d="M20 1493v51h711v-51h-221l387 -670h8l367 670h-279v51h543v-51h-197l-387 -719h344v-90h-360v-168h360v-90h-360v-375h246v-51h-766v51h246v375h-373v90h373v168h-373v90h329l-415 719h-183z" />
<glyph unicode="&#xa6;" horiz-adv-x="751" d="M315 -252v758h121v-758h-121zM315 854v758h121v-758h-121z" />
<glyph unicode="&#xa7;" horiz-adv-x="1021" d="M82 787q0 186 172 243q-61 104 -61 225q0 220 182 289q64 25 145 25q146 0 236 -67q88 -66 88 -165q0 -71 -36 -103q-37 -32 -88 -32q-52 0 -79 34t-27 64t13 51q10 15 28 33l27 29q12 12 12 25q0 22 -47 46q-45 23 -140 23q-92 0 -153 -44q-59 -43 -59 -112t48 -126 q49 -58 120 -113q78 -60 154 -114q85 -60 155 -126q168 -158 168 -343t-174 -242q63 -108 63 -199q0 -90 -21 -148t-63 -100q-91 -91 -256 -92q-151 -2 -243 72q-88 69 -88 176q0 68 36 98q37 31 88 31t78 -34t27 -64q0 -32 -12 -51q-9 -17 -27 -33q-41 -38 -41 -59t44 -48 q42 -26 144 -26t165 36q67 38 67 96t-48 112t-120 114q-55 46 -155 124q-80 63 -154 138q-168 172 -168 357zM217 871q0 -70 56 -127q52 -53 137 -119q162 -125 168 -130q84 -65 153 -155q74 35 74 104q0 71 -56 127q-60 60 -137 118q-71 53 -169 130q-87 68 -152 156 q-74 -35 -74 -104z" />
<glyph unicode="&#xa8;" horiz-adv-x="655" d="M20 1366q0 47 33 80t80 33t80 -33t33 -80t-33 -80t-80 -33t-80 33t-33 80zM410 1366q0 48 32 80q33 33 80 33t80 -33t33 -80t-33 -80t-80 -33t-80 33q-32 32 -32 80z" />
<glyph unicode="&#xa9;" horiz-adv-x="1705" d="M82 759q0 160 59 302q60 143 163 251q102 107 244 170q139 62 301 62q161 0 302 -60q142 -60 247 -167q107 -109 166 -250q60 -144 60 -308q0 -166 -61 -306q-62 -142 -167 -247q-106 -106 -248 -166t-301 -60q-161 0 -298 62q-140 63 -243 169q-104 107 -164 248 t-60 300zM162 759q0 -146 55 -272q55 -127 149 -222q93 -95 217 -150q126 -56 267 -56q142 0 270 57q127 57 221 152q95 97 149 224q54 128 54 271q0 145 -54 272t-150 223t-222 151t-269 55q-145 0 -267 -56q-125 -57 -218 -153q-94 -97 -148 -224q-54 -128 -54 -272z M389 786q0 186 135 322q136 139 338 139q138 0 234 -69l47 59h28v-272h-38q-35 167 -162 219q-46 21 -106 19q-62 -2 -103 -18q-45 -18 -78 -65q-71 -101 -72 -354q0 -233 62 -328q53 -80 184 -80q184 0 252 138q20 40 33 88h41v-256h-31l-41 55q-111 -72 -232 -72 q-122 0 -208 39q-87 40 -148 105q-135 141 -135 331z" />
<glyph unicode="&#xaa;" horiz-adv-x="688" d="M31 1099q0 80 90 140q88 59 270 59v160q0 47 -98 47q-47 0 -70 -15q-22 -15 -22 -32q0 -16 9 -26t9 -37q0 -26 -22 -44q-23 -18 -55 -18t-50 21t-18 49q0 62 65 111q68 51 179 51q114 0 179 -41q64 -40 64 -109v-371q0 -26 31 -26q21 0 39 24l26 -34q-64 -70 -149 -70 q-87 0 -109 100h-8q-27 -45 -82 -72q-58 -28 -120 -28q-65 0 -111 40q-47 41 -47 121zM207 1126q0 -44 21 -68t61 -24q39 0 70 30q32 30 32 89v90q-184 0 -184 -117z" />
<glyph unicode="&#xab;" horiz-adv-x="1136" d="M143 428v45l410 350l31 -22l-228 -350l228 -342l-31 -31zM573 428v45l410 350l31 -22l-228 -350l228 -342l-31 -31z" />
<glyph unicode="&#xac;" horiz-adv-x="1101" d="M41 578v90h1020v-521h-158v431h-862z" />
<glyph unicode="&#xad;" horiz-adv-x="808" d="M102 414v90h605v-90h-605z" />
<glyph unicode="&#xae;" horiz-adv-x="1099" d="M82 1137q0 96 36 183q35 83 99 150q137 140 334 142q196 2 330 -137q137 -140 137 -338q0 -199 -138 -337t-331 -138q-98 0 -182 37q-87 38 -150 104t-99 151q-36 86 -36 183zM152 1135q0 -86 31 -157q31 -72 86 -128q53 -55 127 -87q73 -32 155 -32q83 0 156 33 q76 34 127 88q116 120 116 285q0 164 -119 286q-118 121 -282 121q-83 0 -155 -33q-75 -35 -126 -88q-55 -58 -85 -130q-31 -74 -31 -158zM303 874v37h62v473h-62v39h283q73 0 120 -33q50 -35 50 -94q0 -90 -107 -125v-8q37 -10 70 -52t33 -93v-29q0 -48 7 -62q8 -16 25 -16 h27v-37h-68q-59 0 -99 30q-39 29 -44 81v57q-8 115 -55 115h-43v-246h76v-37h-275zM502 1188h39q39 0 57 21t18 82t-16 77t-51 16h-47v-196z" />
<glyph unicode="&#xaf;" horiz-adv-x="696" d="M20 1305v135h656v-135h-656z" />
<glyph unicode="&#xb0;" horiz-adv-x="743" d="M102 1249q0 141 91 230q85 84 221 84q64 0 121 -26q55 -25 96 -69q82 -89 82 -223q0 -139 -90 -225q-84 -83 -215 -81q-131 -2 -215 81q-91 89 -91 229zM211 1253q0 -97 54 -160t147 -63q92 0 143 62t51 156q0 96 -48 159t-144 63q-98 0 -150 -59q-53 -61 -53 -158z" />
<glyph unicode="&#xb1;" horiz-adv-x="1183" d="M82 88v90h1020v-90h-1020zM82 842v90h465v506h90v-506h465v-90h-465v-506h-90v506h-465z" />
<glyph unicode="&#xb2;" horiz-adv-x="716" d="M35 940v117l264 200q92 69 122 125t30 139t-43 139t-117 56q-61 0 -94 -24q-58 -44 -58 -72q0 -29 17 -29q10 0 21 7q13 8 43 8q31 0 50 -25t19 -68q0 -41 -31 -66q-30 -24 -82 -24t-79 44q-27 43 -27 95q0 51 25 89q27 40 69 65q82 49 205 49q189 0 262 -118 q24 -41 26 -103q0 -137 -151 -227l-324 -195v-8h373q41 0 51 16q17 25 17 103h34v-293h-622z" />
<glyph unicode="&#xb3;" horiz-adv-x="690" d="M27 1090q0 47 25 84q24 36 79 36q65 0 86 -45q7 -18 9 -47q1 -27 -11 -46q-10 -14 -26 -29q-13 -11 -25 -19t-12 -19q0 -12 13 -19q10 -6 32 -11q43 -8 75 -8q154 0 154 196q0 94 -40 144q-40 51 -138 51h-92v43h49q108 0 153 49q45 50 45 136q0 88 -29 113t-101 25 q-70 0 -70 -32q0 -12 10 -19q4 -4 20 -18q33 -29 33 -66t-33 -56q-34 -20 -70 -20q-39 0 -64 24t-25 61q0 40 14 67q15 29 45 51q67 49 199 49t206 -49t74 -135q0 -154 -260 -184v-8q206 -5 275 -123q24 -41 23 -92q-2 -54 -26 -96q-26 -45 -71 -79q-99 -75 -244 -75 q-143 0 -213 44q-69 43 -69 122z" />
<glyph unicode="&#xb4;" horiz-adv-x="507" d="M20 1135l242 327q61 82 131 82q46 0 70 -24t24 -57q0 -31 -18 -61t-84 -75l-276 -192h-89z" />
<glyph unicode="&#xb5;" d="M14 870v52h385v-717q0 -77 31 -116q30 -38 80 -38q47 0 92 31q43 29 78 84q74 119 74 283v421h-168v52h393v-871h162v-51h-387v160h-9q-105 -185 -303 -185q-140 0 -213 82h-8q7 -142 38 -239q27 -84 42 -130q12 -36 12 -84q0 -50 -26 -86q-27 -38 -82 -38 q-105 0 -105 131q1 47 27 184q49 237 47 412v663h-160z" />
<glyph unicode="&#xb6;" horiz-adv-x="1282" d="M59 1096q1 190 146 321q140 127 330 127h729v-47h-297v-1749h-103v1749h-227v-1749h-102v885q-227 18 -355 149q-123 127 -121 314z" />
<glyph unicode="&#xb7;" horiz-adv-x="339" d="M20 512q0 60 45 105t105 45t105 -45q44 -44 44 -105t-44 -105q-45 -45 -105 -45t-105 45t-45 105z" />
<glyph unicode="&#xb8;" horiz-adv-x="464" d="M20 -428l23 51q37 -22 115 -22q123 0 123 102q0 108 -154 113l70 204h61l-49 -155h39q87 0 142 -38q54 -37 54 -115q0 -77 -71 -126t-189 -49q-108 0 -164 35z" />
<glyph unicode="&#xb9;" horiz-adv-x="552" d="M8 940v35h178v737h-178v37h369v-774h168v-35h-537z" />
<glyph unicode="&#xba;" horiz-adv-x="692" d="M31 1251q0 59 24 116q23 54 67 100q43 44 99 71q57 27 123 27t124 -27q56 -26 101 -71t68 -100q25 -59 25 -116t-25 -116t-68 -102t-101 -70t-124 -27t-123 27q-58 27 -99 70q-43 44 -67 102q-24 57 -24 116zM225 1251q0 -79 6 -128q6 -50 21 -77q16 -28 37 -38 q24 -11 55 -11t56 11q22 10 38 38q15 27 21 77q6 49 6 128q0 77 -6 127t-21 78q-15 29 -38 39t-56 10q-34 0 -55 -10q-22 -10 -37 -39q-15 -28 -21 -78t-6 -127z" />
<glyph unicode="&#xbb;" horiz-adv-x="1136" d="M143 109l228 342l-228 350l31 22l410 -350v-45l-410 -350zM573 109l228 342l-228 350l31 22l410 -350v-45l-410 -350z" />
<glyph unicode="&#xbc;" horiz-adv-x="1869" d="M154 735v35h178v737h-178v37h368v-774h168v-35h-536zM451 0l880 1542h121l-881 -1542h-120zM977 225v39l409 561h123v-561h144v88h37v-219h-37v92h-146v-190h113v-35h-424v35h123v190h-342zM1034 264h285v391h-8l-277 -383v-8z" />
<glyph unicode="&#xbd;" horiz-adv-x="1869" d="M154 735v35h178v737h-178v37h368v-774h168v-35h-536zM397 0l881 1542h121l-881 -1542h-121zM1071 0v117l264 200q92 69 122 125t30 139t-43 139t-117 56q-61 0 -94 -24q-57 -44 -57 -72q0 -29 16 -29q10 0 21 7q13 8 43 8q32 0 51 -25q18 -24 18 -68q0 -41 -31 -66 q-30 -24 -82 -24q-51 0 -78 44q-28 45 -28 95q0 49 26 89q27 38 68 63q83 50 205 51q189 2 262 -116q26 -43 27 -103q0 -137 -152 -229l-323 -195v-8h372q41 -2 51 14q17 25 17 105h35v-293h-623z" />
<glyph unicode="&#xbe;" horiz-adv-x="1869" d="M152 885q0 47 25 84t79 37q67 0 88 -45q8 -19 8 -48q0 -28 -12 -46q-8 -12 -26 -28q-17 -15 -25 -20q-13 -8 -13 -19t14 -19q11 -6 34 -11q40 -8 73 -8q154 0 154 196q0 94 -40 144q-41 51 -138 51h-92v43h49q108 0 153 49t45 136q0 88 -29 113q-31 26 -101 26t-70 -33 q0 -12 10 -19q8 -6 22 -18q33 -29 32 -66t-34 -56q-32 -19 -70 -19q-40 0 -64 23q-25 24 -25 62q0 39 14 66q15 28 45 51q68 50 199 50q130 0 206 -50q74 -49 74 -135q0 -154 -260 -184v-8q204 -5 273 -123q24 -41 24 -92q0 -53 -25 -96q-26 -42 -73 -78q-100 -76 -243 -76 q-142 0 -212 44q-69 43 -69 122zM451 0l880 1542h121l-881 -1542h-120zM977 225v39l409 561h123v-561h144v88h37v-219h-37v92h-146v-190h113v-35h-424v35h123v190h-342zM1034 264h285v391h-8l-277 -383v-8z" />
<glyph unicode="&#xbf;" horiz-adv-x="847" d="M66 -236q0 143 106 265q43 51 98 99q60 53 99 96q44 48 75 109q31 60 31 138h62q18 -76 18 -175q0 -100 -27 -172q-28 -75 -67 -127t-87 -97q-65 -61 -87 -82q-94 -90 -94 -178q0 -106 77 -168q72 -60 174 -60q93 -2 166 43q70 44 70 90q0 28 -17 39q-24 16 -38 24 q-20 11 -38 31q-18 19 -18 62q0 90 109 90q52 0 86 -37q35 -38 35 -101q0 -64 -26 -116q-25 -49 -71 -90q-100 -90 -262 -90q-161 0 -268 108q-106 107 -106 299zM334 797q0 61 44 105t105 44q62 0 106 -44t44 -105q0 -62 -44 -106t-106 -44q-61 0 -105 44t-44 106z" />
<glyph unicode="&#xc0;" horiz-adv-x="1404" d="M-33 0v51h183l528 1518h61l506 -1518h191v-51h-703v51h238l-144 432h-462l-148 -432h242v-51h-492zM383 535h426l-207 622h-8zM432 1804q0 41 24 65q23 23 55 23q33 0 60 -14q42 -22 101 -59l309 -197h-88l-358 74q-103 21 -103 108z" />
<glyph unicode="&#xc1;" horiz-adv-x="1404" d="M-33 0v51h183l528 1518h61l506 -1518h191v-51h-703v51h238l-144 432h-462l-148 -432h242v-51h-492zM383 535h426l-207 622h-8zM434 1622l309 197q102 63 123 69q15 4 43 4q27 0 50 -23q24 -24 24 -65q0 -87 -102 -108l-359 -74h-88z" />
<glyph unicode="&#xc2;" horiz-adv-x="1404" d="M-33 0v51h183l528 1518h61l506 -1518h191v-51h-703v51h238l-144 432h-462l-148 -432h242v-51h-492zM375 1622l268 270h127l268 -270h-88l-243 125l-244 -125h-88zM383 535h426l-207 622h-8z" />
<glyph unicode="&#xc3;" horiz-adv-x="1404" d="M-33 0v51h183l528 1518h61l506 -1518h191v-51h-703v51h238l-144 432h-462l-148 -432h242v-51h-492zM350 1620q28 167 150 233q41 23 87 23t82 -15q24 -10 68 -34q89 -49 142 -49q52 0 82 36t40 68h70q-38 -176 -149 -237q-41 -23 -89 -23t-84 15q-28 12 -69 34 q-44 24 -65 34q-31 15 -75 15t-78 -28q-33 -27 -44 -72h-68zM383 535h426l-207 622h-8z" />
<glyph unicode="&#xc4;" horiz-adv-x="1404" d="M-33 0v51h183l528 1518h61l506 -1518h191v-51h-703v51h238l-144 432h-462l-148 -432h242v-51h-492zM383 535h426l-207 622h-8zM401 1751q0 47 33 80t80 33t80 -33t33 -80t-33 -80t-80 -33t-80 33t-33 80zM791 1751q0 48 32 80q33 33 80 33t80 -33t33 -80t-33 -80t-80 -33 t-80 33q-32 32 -32 80z" />
<glyph unicode="&#xc5;" horiz-adv-x="1404" d="M-33 0v51h183l528 1518h61l506 -1518h191v-51h-703v51h238l-144 432h-462l-148 -432h242v-51h-492zM383 535h426l-207 622h-8zM557 1744q0 62 45 105q44 43 107 43q61 0 105 -42t44 -105q0 -65 -43 -109q-43 -45 -105 -45q-63 0 -108 45t-45 108zM625 1744q0 -34 24 -60 q24 -25 60 -25q34 0 58 25q24 26 24 60q0 32 -25 57q-24 24 -57 24t-59 -24q-25 -24 -25 -57z" />
<glyph unicode="&#xc6;" horiz-adv-x="2144" d="M20 0v51h201l684 1442h-211v51h1313v-420h-72q-6 249 -188 338q-62 30 -135 31h-320v-698q186 0 252 59q66 57 66 223h71v-635h-71q-5 174 -70 236q-66 65 -248 65v-692h381q146 0 236 129q82 116 88 301h71v-481h-1292v51h242v432h-531l-204 -432h237v-51h-500zM512 535 h506v958h-49z" />
<glyph unicode="&#xc7;" horiz-adv-x="1406" d="M94 772q0 157 56 302q57 147 152 254q98 110 227 175q131 66 282 66q193 0 344 -127l80 102h51v-463h-51q-56 298 -252 392q-72 34 -168 34q-95 0 -166 -31q-73 -32 -122 -114q-51 -84 -77 -224q-28 -148 -28 -366q0 -222 27 -365q27 -144 76 -225q48 -81 121 -113 q72 -32 168 -32q94 0 173 31q74 29 129 84q97 97 137 282h52v-434h-52l-69 94q-158 -119 -377 -119l-35 -110h39q87 0 142 -38t55 -115q0 -76 -72 -126q-71 -49 -188 -49q-108 0 -164 35l22 51q37 -22 115 -22q123 0 123 102q0 108 -154 113l55 164q-141 12 -259 80 q-120 68 -207 178q-185 232 -185 534z" />
<glyph unicode="&#xc8;" horiz-adv-x="1415" d="M16 0v51h242v1442h-242v51h1231v-420h-71q-6 248 -189 338q-62 30 -135 31h-320v-698q186 0 252 59q66 57 66 223h72v-635h-72q-2 173 -68 236q-66 65 -250 65v-692h381q148 0 238 129q81 116 86 301h72v-481h-1293zM426 1804q0 41 24 65q23 23 55 23q33 0 60 -14 q42 -22 101 -59l309 -197h-88l-359 74q-102 21 -102 108z" />
<glyph unicode="&#xc9;" horiz-adv-x="1415" d="M16 0v51h242v1442h-242v51h1231v-420h-71q-6 248 -189 338q-62 30 -135 31h-320v-698q186 0 252 59q66 57 66 223h72v-635h-72q-2 173 -68 236q-66 65 -250 65v-692h381q148 0 238 129q81 116 86 301h72v-481h-1293zM393 1622l309 197q102 63 123 69q15 4 43 4t51 -23 t23 -65q0 -87 -102 -108l-359 -74h-88z" />
<glyph unicode="&#xca;" horiz-adv-x="1415" d="M16 0v51h242v1442h-242v51h1231v-420h-71q-6 248 -189 338q-62 30 -135 31h-320v-698q186 0 252 59q66 57 66 223h72v-635h-72q-2 173 -68 236q-66 65 -250 65v-692h381q148 0 238 129q81 116 86 301h72v-481h-1293zM315 1622l269 270h127l268 -270h-88l-244 125 l-244 -125h-88z" />
<glyph unicode="&#xcb;" horiz-adv-x="1415" d="M16 0v51h242v1442h-242v51h1231v-420h-71q-6 248 -189 338q-62 30 -135 31h-320v-698q186 0 252 59q66 57 66 223h72v-635h-72q-2 173 -68 236q-66 65 -250 65v-692h381q148 0 238 129q81 116 86 301h72v-481h-1293zM358 1751q0 47 33 80t80 33t80 -33t33 -80t-33 -80 t-80 -33t-80 33t-33 80zM748 1751q0 48 32 80q33 33 80 33t80 -33t33 -80t-33 -80t-80 -33t-80 33q-32 32 -32 80z" />
<glyph unicode="&#xcc;" horiz-adv-x="776" d="M27 0v51h225v1442h-225v51h725v-51h-226v-1442h226v-51h-725zM115 1804q0 42 23 65t56 23t60 -14q35 -19 100 -59l310 -197h-89l-358 74q-102 21 -102 108z" />
<glyph unicode="&#xcd;" horiz-adv-x="776" d="M27 0v51h225v1442h-225v51h725v-51h-226v-1442h226v-51h-725zM113 1622l309 197q102 63 123 69q15 4 43 4q27 0 50 -23q24 -24 24 -65q0 -87 -103 -108l-358 -74h-88z" />
<glyph unicode="&#xce;" horiz-adv-x="776" d="M27 0v51h225v1442h-225v51h725v-51h-226v-1442h226v-51h-725zM51 1622l268 270h127l269 -270h-88l-244 125l-244 -125h-88z" />
<glyph unicode="&#xcf;" horiz-adv-x="776" d="M27 0v51h225v1442h-225v51h725v-51h-226v-1442h226v-51h-725zM78 1751q0 47 33 80t79 33q47 0 80 -33t33 -80t-33 -80t-80 -33q-46 0 -79 33t-33 80zM467 1751q0 47 33 80t80 33q46 0 79 -33t33 -80t-33 -80t-79 -33q-47 0 -80 33t-33 80z" />
<glyph unicode="&#xd0;" horiz-adv-x="1591" d="M23 0v51h225v701h-215v71h215v670h-225v51h749q154 0 287 -63q130 -61 231 -170q98 -105 155 -247q56 -139 56 -292t-56 -292q-57 -140 -156 -247q-100 -108 -232 -170q-133 -63 -287 -63h-747zM522 51h187q123 0 214 31q87 30 144 111q56 80 81 220q26 144 26 359 q0 216 -26 360q-26 141 -82 220q-58 80 -145 110q-91 31 -214 31h-185v-670h258v-71h-258v-701z" />
<glyph unicode="&#xd1;" horiz-adv-x="1523" d="M27 0v51h225v1442h-225v51h555l626 -995h9v944h-205v51h489v-51h-205v-1518h-63l-893 1424h-8v-1348h225v-51h-530zM428 1620q28 167 150 233q41 23 87 23q45 0 81 -15q28 -12 69 -34q89 -49 141 -49t82 36q31 38 41 68h70q-37 -176 -150 -237q-41 -23 -89 -23t-84 15 q-24 10 -68 34t-65 34q-31 15 -76 15q-43 0 -77 -28q-33 -27 -44 -72h-68z" />
<glyph unicode="&#xd2;" horiz-adv-x="1601" d="M90 772q0 161 55 304q55 144 152 254q96 110 225 174q130 65 279 65q148 0 278 -65q131 -65 226 -174q95 -108 151 -254q55 -143 55 -304t-55 -304q-56 -146 -151 -254q-95 -109 -226 -174q-130 -65 -278 -65q-149 0 -279 65q-129 64 -225 174q-97 110 -152 254 q-55 143 -55 304zM418 772q0 -225 20 -361q21 -145 67 -226q46 -82 119 -115q72 -33 177 -33t177 33q73 33 119 115q44 79 66 227q21 144 21 362q0 220 -21 362q-22 146 -66 225q-47 84 -119 115q-71 31 -177 31q-107 0 -177 -32q-72 -33 -119 -116q-46 -81 -67 -225 q-20 -136 -20 -362zM549 1804q0 42 23 65t56 23t60 -14q35 -19 100 -59l310 -197h-88l-359 74q-102 21 -102 108z" />
<glyph unicode="&#xd3;" horiz-adv-x="1601" d="M90 772q0 161 55 304q55 144 152 254q96 110 225 174q130 65 279 65q148 0 278 -65q131 -65 226 -174q95 -108 151 -254q55 -143 55 -304t-55 -304q-56 -146 -151 -254q-95 -109 -226 -174q-130 -65 -278 -65q-149 0 -279 65q-129 64 -225 174q-97 110 -152 254 q-55 143 -55 304zM418 772q0 -225 20 -361q21 -145 67 -226q46 -82 119 -115q72 -33 177 -33t177 33q73 33 119 115q44 79 66 227q21 144 21 362q0 220 -21 362q-22 146 -66 225q-47 84 -119 115q-71 31 -177 31q-107 0 -177 -32q-72 -33 -119 -116q-46 -81 -67 -225 q-20 -136 -20 -362zM543 1622l309 197q102 63 123 69q15 4 43 4q27 0 50 -23q24 -24 24 -65q0 -87 -103 -108l-358 -74h-88z" />
<glyph unicode="&#xd4;" horiz-adv-x="1601" d="M90 772q0 161 55 304q55 144 152 254q96 110 225 174q130 65 279 65q148 0 278 -65q131 -65 226 -174q95 -108 151 -254q55 -143 55 -304t-55 -304q-56 -146 -151 -254q-95 -109 -226 -174q-130 -65 -278 -65q-149 0 -279 65q-129 64 -225 174q-97 110 -152 254 q-55 143 -55 304zM418 772q0 -225 20 -361q21 -145 67 -226q46 -82 119 -115q72 -33 177 -33t177 33q73 33 119 115q44 79 66 227q21 144 21 362q0 220 -21 362q-22 146 -66 225q-47 84 -119 115q-71 31 -177 31q-107 0 -177 -32q-72 -33 -119 -116q-46 -81 -67 -225 q-20 -136 -20 -362zM479 1622l269 270h126l269 -270h-88l-244 125l-244 -125h-88z" />
<glyph unicode="&#xd5;" horiz-adv-x="1601" d="M90 772q0 161 55 304q55 144 152 254q96 110 225 174q130 65 279 65q148 0 278 -65q131 -65 226 -174q95 -108 151 -254q55 -143 55 -304t-55 -304q-56 -146 -151 -254q-95 -109 -226 -174q-130 -65 -278 -65q-149 0 -279 65q-129 64 -225 174q-97 110 -152 254 q-55 143 -55 304zM418 772q0 -225 20 -361q21 -145 67 -226q46 -82 119 -115q72 -33 177 -33t177 33q73 33 119 115q44 79 66 227q21 144 21 362q0 220 -21 362q-22 146 -66 225q-47 84 -119 115q-71 31 -177 31q-107 0 -177 -32q-72 -33 -119 -116q-46 -81 -67 -225 q-20 -136 -20 -362zM449 1620q28 167 149 233q41 23 87 23t82 -15q28 -12 69 -34q89 -49 141 -49t82 36q31 38 41 68h69q-38 -176 -149 -237q-41 -23 -89 -23t-84 15q-28 12 -69 34q-51 28 -64 34q-32 15 -76 15t-78 -28q-33 -27 -44 -72h-67z" />
<glyph unicode="&#xd6;" horiz-adv-x="1601" d="M90 772q0 161 55 304q55 144 152 254q96 110 225 174q130 65 279 65q148 0 278 -65q131 -65 226 -174q95 -108 151 -254q55 -143 55 -304t-55 -304q-56 -146 -151 -254q-95 -109 -226 -174q-130 -65 -278 -65q-149 0 -279 65q-129 64 -225 174q-97 110 -152 254 q-55 143 -55 304zM418 772q0 -225 20 -361q21 -145 67 -226q46 -82 119 -115q72 -33 177 -33t177 33q73 33 119 115q44 79 66 227q21 144 21 362q0 220 -21 362q-22 146 -66 225q-47 84 -119 115q-71 31 -177 31q-107 0 -177 -32q-72 -33 -119 -116q-46 -81 -67 -225 q-20 -136 -20 -362zM496 1751q0 48 32 80q33 33 80 33t80 -33t33 -80t-33 -80t-80 -33t-80 33q-32 32 -32 80zM885 1751q0 47 33 80t79 33q47 0 80 -33t33 -80t-33 -80t-80 -33q-46 0 -79 33t-33 80z" />
<glyph unicode="&#xd7;" horiz-adv-x="1183" d="M139 1090l66 65l387 -387l387 387l61 -61l-387 -387l391 -392l-65 -65l-391 391l-387 -387l-58 65l383 383z" />
<glyph unicode="&#xd8;" horiz-adv-x="1542" d="M61 763q0 170 56 312q56 143 150 250q94 108 225 173q130 65 278 65q213 0 389 -134l141 218h78l-168 -258q126 -113 198 -271q73 -161 73 -330q0 -168 -56 -315t-151 -257q-96 -111 -225 -177t-279 -66q-214 0 -389 133l-139 -215h-78l168 259q-127 116 -198 278 q-73 166 -73 335zM389 730q0 -267 39 -429l657 1014q-45 106 -122 146t-189 40q-109 0 -183 -31t-117 -111t-64 -221t-21 -408zM455 221q45 -109 120 -147q77 -39 188 -39q110 0 185 32t119 113q86 157 86 532q0 373 -41 525z" />
<glyph unicode="&#xd9;" horiz-adv-x="1509" d="M12 1493v51h709v-51h-195v-1092q0 -190 88 -272t248 -82q161 0 255 87q95 87 95 267v1092h-215v51h498v-51h-215v-1092q0 -221 -122 -323q-123 -103 -365 -103q-391 0 -502 236q-37 79 -39 188v1094h-240zM598 1804q0 41 24 65q23 23 55 23q33 0 60 -14q42 -22 101 -59 l309 -197h-88l-359 74q-102 21 -102 108z" />
<glyph unicode="&#xda;" horiz-adv-x="1509" d="M12 1493v51h709v-51h-195v-1092q0 -190 88 -272t248 -82q161 0 255 87q95 87 95 267v1092h-215v51h498v-51h-215v-1092q0 -221 -122 -323q-123 -103 -365 -103q-391 0 -502 236q-37 79 -39 188v1094h-240zM594 1622l309 197q102 63 123 69q15 4 43 4q27 0 50 -23 q24 -24 24 -65q0 -87 -103 -108l-358 -74h-88z" />
<glyph unicode="&#xdb;" horiz-adv-x="1509" d="M12 1493v51h709v-51h-195v-1092q0 -190 88 -272t248 -82q161 0 255 87q95 87 95 267v1092h-215v51h498v-51h-215v-1092q0 -221 -122 -323q-123 -103 -365 -103q-391 0 -502 236q-37 79 -39 188v1094h-240zM526 1622l269 270h127l268 -270h-88l-244 125l-244 -125h-88z " />
<glyph unicode="&#xdc;" horiz-adv-x="1509" d="M12 1493v51h709v-51h-195v-1092q0 -190 88 -272t248 -82q161 0 255 87q95 87 95 267v1092h-215v51h498v-51h-215v-1092q0 -221 -122 -323q-123 -103 -365 -103q-391 0 -502 236q-37 79 -39 188v1094h-240zM555 1751q0 47 33 80t80 33t80 -33q32 -32 32 -80t-32 -80 q-33 -33 -80 -33t-80 33t-33 80zM944 1751q0 47 33 80t80 33t80 -33q32 -32 32 -80t-32 -80q-33 -33 -80 -33t-80 33t-33 80z" />
<glyph unicode="&#xdd;" horiz-adv-x="1345" d="M-86 1493v51h711v-51h-222l388 -670h8l366 670h-278v51h543v-51h-197l-404 -752v-690h246v-51h-766v51h246v651l-459 791h-182zM502 1622l309 197q102 63 123 69q15 4 43 4q27 0 50 -23q24 -24 24 -65q0 -87 -103 -108l-358 -74h-88z" />
<glyph unicode="&#xde;" horiz-adv-x="1392" d="M35 0v51h225v1440h-225v51h766v-51h-266v-281h290q225 0 371 -116q152 -119 152 -297q0 -193 -189 -312q-188 -118 -518 -118h-106v-316h266v-51h-766zM535 428h106q217 -1 299 72q90 80 90 309q2 207 -72 285q-62 65 -215 65h-208v-731z" />
<glyph unicode="&#xdf;" horiz-adv-x="1148" d="M14 0v51h174v1075q0 210 100 324q99 113 290 113q192 0 299 -88q108 -89 108 -254q-2 -137 -84 -222q-66 -66 -194 -100v-8q157 -12 260 -127q110 -122 110 -318q0 -205 -119 -335q-112 -123 -264 -123q-92 0 -150 47q-57 46 -57 104q0 57 30 87t75 30t74 -23 q28 -22 28 -59q0 -36 -9 -50q-11 -16 -19 -22q-14 -10 -20 -14q-9 -6 -9 -19q0 -15 17 -22q19 -8 36 -8q20 0 41 17q23 19 41 63q41 103 41 275q0 178 -14 255q-15 84 -43 129q-53 86 -170 86h-76v54h78q92 0 129 65q45 73 43 244q-2 240 -96 270q-31 10 -78 10t-80 -16 t-55 -47q-37 -55 -37 -184v-1260h-400z" />
<glyph unicode="&#xe0;" horiz-adv-x="1036" d="M84 189q0 89 38 147q38 57 107 98q145 84 402 84v250q0 54 -41 84q-42 31 -108 31t-105 -21t-39 -48q0 -29 14 -43q15 -15 15 -54q0 -40 -32 -67q-31 -27 -81 -27t-78 28q-29 29 -29 75t29 87q30 42 78 70q111 63 262 63q152 0 246 -58t94 -153v-622q0 -21 13 -34t39 -13 t98 79l28 -32q-96 -138 -215 -138q-72 0 -118 40q-45 40 -62 112h-8q-37 -65 -123 -109q-83 -43 -184 -43t-170 63q-70 64 -70 151zM248 1463q0 33 24 57t64 24q76 0 137 -82l242 -327h-88l-277 192q-66 45 -84 75t-18 61zM322 244q0 -156 141 -156q72 0 120 57t48 154v166 q-309 0 -309 -221z" />
<glyph unicode="&#xe1;" horiz-adv-x="1036" d="M84 189q0 89 38 147q38 57 107 98q145 84 402 84v250q0 54 -41 84q-42 31 -108 31t-105 -21t-39 -48q0 -29 14 -43q15 -15 15 -54q0 -40 -32 -67q-31 -27 -81 -27t-78 28q-29 29 -29 75t29 87q30 42 78 70q111 63 262 63q152 0 246 -58t94 -153v-622q0 -21 13 -34t39 -13 t98 79l28 -32q-96 -138 -215 -138q-72 0 -118 40q-45 40 -62 112h-8q-37 -65 -123 -109q-83 -43 -184 -43t-170 63q-70 64 -70 151zM289 1135l241 327q61 82 132 82q45 0 69 -24q25 -25 25 -57q0 -29 -19 -61q-18 -30 -84 -75l-276 -192h-88zM322 244q0 -156 141 -156 q72 0 120 57t48 154v166q-309 0 -309 -221z" />
<glyph unicode="&#xe2;" horiz-adv-x="1036" d="M84 189q0 89 38 147q38 57 107 98q145 84 402 84v250q0 54 -41 84q-42 31 -108 31t-105 -21t-39 -48q0 -29 14 -43q15 -15 15 -54q0 -40 -32 -67q-31 -27 -81 -27t-78 28q-29 29 -29 75t29 87q30 42 78 70q111 63 262 63q152 0 246 -58t94 -153v-622q0 -21 13 -34t39 -13 t98 79l28 -32q-96 -138 -215 -138q-72 0 -118 40q-45 40 -62 112h-8q-37 -65 -123 -109q-83 -43 -184 -43t-170 63q-70 64 -70 151zM178 1135l268 409h127l269 -409h-88l-244 217l-244 -217h-88zM322 244q0 -156 141 -156q72 0 120 57t48 154v166q-309 0 -309 -221z" />
<glyph unicode="&#xe3;" horiz-adv-x="1036" d="M84 189q0 89 38 147q38 57 107 98q145 84 402 84v250q0 54 -41 84q-42 31 -108 31t-105 -21t-39 -48q0 -29 14 -43q15 -15 15 -54q0 -40 -32 -67q-31 -27 -81 -27t-78 28q-29 29 -29 75t29 87q30 42 78 70q111 63 262 63q152 0 246 -58t94 -153v-622q0 -21 13 -34t39 -13 t98 79l28 -32q-96 -138 -215 -138q-72 0 -118 40q-45 40 -62 112h-8q-37 -65 -123 -109q-83 -43 -184 -43t-170 63q-70 64 -70 151zM164 1235q28 167 149 233q41 23 87 23t82 -15q32 -13 71 -34q89 -49 140 -49q52 0 81 35q31 37 41 69h70q-37 -175 -150 -237 q-41 -23 -89 -23t-84 15q-24 10 -68 34t-65 34q-31 15 -76 15q-44 0 -78 -28q-33 -27 -44 -72h-67zM322 244q0 -156 141 -156q72 0 120 57t48 154v166q-309 0 -309 -221z" />
<glyph unicode="&#xe4;" horiz-adv-x="1036" d="M84 189q0 89 38 147q38 57 107 98q145 84 402 84v250q0 54 -41 84q-42 31 -108 31t-105 -21t-39 -48q0 -29 14 -43q15 -15 15 -54q0 -40 -32 -67q-31 -27 -81 -27t-78 28q-29 29 -29 75t29 87q30 42 78 70q111 63 262 63q152 0 246 -58t94 -153v-622q0 -21 13 -34t39 -13 t98 79l28 -32q-96 -138 -215 -138q-72 0 -118 40q-45 40 -62 112h-8q-37 -65 -123 -109q-83 -43 -184 -43t-170 63q-70 64 -70 151zM223 1366q0 47 33 80t80 33t80 -33t33 -80t-33 -80t-80 -33t-80 33t-33 80zM322 244q0 -156 141 -156q72 0 120 57t48 154v166 q-309 0 -309 -221zM612 1366q0 47 33 80t80 33t80 -33t33 -80t-33 -80t-80 -33t-80 33t-33 80z" />
<glyph unicode="&#xe5;" horiz-adv-x="1036" d="M84 189q0 89 38 147q38 57 107 98q145 84 402 84v250q0 54 -41 84q-42 31 -108 31t-105 -21t-39 -48q0 -29 14 -43q15 -15 15 -54q0 -40 -32 -67q-31 -27 -81 -27t-78 28q-29 29 -29 75t29 87q30 42 78 70q111 63 262 63q152 0 246 -58t94 -153v-622q0 -21 13 -34t39 -13 t98 79l28 -32q-96 -138 -215 -138q-72 0 -118 40q-45 40 -62 112h-8q-37 -65 -123 -109q-83 -43 -184 -43t-170 63q-70 64 -70 151zM307 1356q0 41 17 80q16 36 45 65t66 45q39 17 81 17t81 -17q38 -17 67 -44q28 -27 45 -65q16 -36 16 -81t-16 -81q-17 -39 -45 -67t-67 -45 q-36 -16 -81 -16t-81 16q-37 17 -66 45q-28 28 -45 67t-17 81zM322 244q0 -156 141 -156q72 0 120 57t48 154v166q-309 0 -309 -221zM403 1356q0 -46 33 -80q33 -35 80 -35t80 34q33 35 33 80q0 46 -34 79q-33 32 -79 32t-79 -32q-34 -33 -34 -78z" />
<glyph unicode="&#xe6;" horiz-adv-x="1546" d="M90 188q0 88 38 147q40 58 110 99q146 84 399 84v250q0 54 -41 84q-42 31 -108 31t-105 -21t-39 -48q0 -29 14 -43q15 -15 15 -54q0 -40 -32 -67q-31 -27 -81 -27t-78 28t-28 75t28 87q31 42 80 70q111 63 283 63t266 -94q116 94 256 94q162 0 272 -110 q115 -115 115 -287v-12h-592v-125q0 -214 51 -297q49 -78 163 -78q116 0 194 56q81 58 133 192h57q-41 -145 -144 -227q-104 -83 -232 -83t-227 69q-101 70 -155 179h-8q-47 -114 -139 -181q-93 -67 -210 -67t-186 63t-69 150zM328 244q0 -156 141 -156q72 0 120 57t48 154 v166q-309 0 -309 -221zM864 588h353v117q0 186 -164 186q-92 -2 -133 -68q-44 -68 -56 -235z" />
<glyph unicode="&#xe7;" horiz-adv-x="1034" d="M100 463q0 187 140 332q147 151 352 151q136 0 231 -65q97 -67 97 -168q0 -60 -35 -95q-34 -34 -86 -34t-90 28q-39 28 -39 86q0 43 16 63q18 23 25 34q8 13 8 30q0 66 -129 66q-125 2 -172 -84q-51 -91 -51 -348q-2 -248 47 -336q47 -89 164 -87q117 1 191 61 q74 59 130 208h57q-40 -146 -137 -238t-244 -92l-40 2l-35 -112h39q87 0 142 -38q54 -37 54 -115q0 -77 -71 -126t-189 -49q-108 0 -164 35l23 51q37 -22 115 -22q122 0 122 102q0 109 -153 113l57 172q-156 37 -266 176q-108 141 -109 299z" />
<glyph unicode="&#xe8;" horiz-adv-x="1040" d="M90 461q0 197 127 336q134 149 340 149q166 0 279 -110q112 -111 112 -287v-12h-592v-76q0 -247 50 -338q47 -86 161 -86q116 0 195 55t135 193h57q-40 -145 -143 -228q-101 -82 -244 -82q-194 0 -338 150q-139 146 -139 336zM301 1463q0 32 25 57q24 24 63 24 q76 0 137 -82l242 -327h-88l-277 192q-66 45 -84 75t-18 61zM358 588h353v117q0 186 -164 186q-92 -2 -133 -68q-44 -68 -56 -235z" />
<glyph unicode="&#xe9;" horiz-adv-x="1040" d="M90 461q0 197 127 336q134 149 340 149q166 0 279 -110q112 -111 112 -287v-12h-592v-76q0 -247 50 -338q47 -86 161 -86q116 0 195 55t135 193h57q-40 -145 -143 -228q-101 -82 -244 -82q-194 0 -338 150q-139 146 -139 336zM334 1135l241 327q61 82 132 82q45 0 69 -24 q25 -25 25 -57q0 -29 -19 -61q-18 -30 -84 -75l-276 -192h-88zM358 588h353v117q0 186 -164 186q-92 -2 -133 -68q-44 -68 -56 -235z" />
<glyph unicode="&#xea;" horiz-adv-x="1040" d="M90 461q0 197 127 336q134 149 340 149q166 0 279 -110q112 -111 112 -287v-12h-592v-76q0 -247 50 -338q47 -86 161 -86q116 0 195 55t135 193h57q-40 -145 -143 -228q-101 -82 -244 -82q-194 0 -338 150q-139 146 -139 336zM227 1135l269 409h127l268 -409h-88 l-244 217l-244 -217h-88zM358 588h353v117q0 186 -164 186q-92 -2 -133 -68q-44 -68 -56 -235z" />
<glyph unicode="&#xeb;" horiz-adv-x="1040" d="M90 461q0 197 127 336q134 149 340 149q166 0 279 -110q112 -111 112 -287v-12h-592v-76q0 -247 50 -338q47 -86 161 -86q116 0 195 55t135 193h57q-40 -145 -143 -228q-101 -82 -244 -82q-194 0 -338 150q-139 146 -139 336zM252 1366q0 47 33 80t80 33q46 0 79 -33 t33 -80t-33 -80t-79 -33q-47 0 -80 33t-33 80zM358 588h353v117q0 186 -164 186q-92 -2 -133 -68q-44 -68 -56 -235zM641 1366q0 47 33 80t80 33t80 -33q32 -32 32 -80t-32 -80q-33 -33 -80 -33t-80 33t-33 80z" />
<glyph unicode="&#xec;" horiz-adv-x="675" d="M20 1463q0 32 25 57q24 24 64 24q76 0 137 -82l241 -327h-88l-276 192q-66 45 -84 75q-19 32 -19 61zM51 852v51h408v-852h164v-51h-551v51h161v801h-182z" />
<glyph unicode="&#xed;" horiz-adv-x="675" d="M51 852v51h408v-852h164v-51h-551v51h161v801h-182zM207 1135l242 327q61 82 131 82q45 0 69 -24q25 -25 25 -57q0 -29 -19 -61q-18 -30 -84 -75l-276 -192h-88z" />
<glyph unicode="&#xee;" horiz-adv-x="675" d="M6 1135l268 409h127l269 -409h-88l-244 217l-244 -217h-88zM51 852v51h408v-852h164v-51h-551v51h161v801h-182z" />
<glyph unicode="&#xef;" horiz-adv-x="675" d="M35 1366q0 47 33 80t79 33q47 0 80 -33t33 -80t-33 -80t-80 -33q-46 0 -79 33t-33 80zM51 852v51h408v-852h164v-51h-551v51h161v801h-182zM424 1366q0 47 33 80t80 33q46 0 79 -33t33 -80t-33 -80t-79 -33q-47 0 -80 33t-33 80z" />
<glyph unicode="&#xf0;" horiz-adv-x="1185" d="M55 449q0 193 150 326q151 134 377 134q122 0 215 -59l6 2q0 230 -92 381l-269 -92l-24 67l250 86q-114 134 -340 191l18 55q235 -45 432 -209l262 92l23 -67l-225 -78q122 -121 200 -293q76 -168 76 -348q0 -176 -41 -296q-40 -116 -110 -200q-145 -168 -375 -168 q-209 -2 -367 133q-164 137 -166 343zM352 434q0 -233 54 -321q49 -78 188 -78q66 0 111 15q44 15 73 56q53 79 53 306q0 198 -20 321q-91 115 -248 115q-117 0 -162 -82q-49 -89 -49 -332z" />
<glyph unicode="&#xf1;" horiz-adv-x="1220" d="M57 0v51h162v819h-162v52h387v-170h9q98 194 311 194q121 0 199 -65q77 -62 77 -158v-672h140v-51h-521v51h156v672q0 154 -123 154q-102 0 -176 -115q-74 -117 -72 -291v-420h134v-51h-521zM274 1235q28 167 150 233q41 23 87 23t82 -15q33 -13 71 -34q89 -49 140 -49 q52 0 81 35q31 37 41 69h69q-38 -176 -149 -237q-41 -23 -89 -23t-84 15q-28 12 -69 34q-51 28 -64 34q-32 15 -76 15t-78 -28q-33 -27 -44 -72h-68z" />
<glyph unicode="&#xf2;" horiz-adv-x="1150" d="M94 461q0 91 38 179q37 86 104 156q66 69 152 109q88 41 187 41q100 0 188 -41q86 -40 152 -109q67 -70 104 -156q38 -88 38 -179t-38 -179q-37 -86 -104 -156q-68 -71 -152 -110q-88 -41 -188 -41q-99 0 -187 41q-84 39 -152 110q-67 70 -104 156q-38 88 -38 179z M272 1463q0 32 25 57q24 24 63 24q77 0 138 -82l241 -327h-88l-276 192q-66 45 -84 75q-19 32 -19 61zM360 461q0 -129 12 -211q12 -84 38 -130q28 -49 66 -66t98 -17q62 0 100 17q40 18 67 66q26 46 38 130q12 83 12 211q0 129 -12 211q-12 84 -38 130q-26 47 -67 65 t-100 18q-58 0 -98 -18q-39 -17 -66 -65q-26 -46 -38 -130q-12 -82 -12 -211z" />
<glyph unicode="&#xf3;" horiz-adv-x="1150" d="M94 461q0 91 38 179q37 86 104 156q66 69 152 109q88 41 187 41q100 0 188 -41q86 -40 152 -109q67 -70 104 -156q38 -88 38 -179t-38 -179q-37 -86 -104 -156q-68 -71 -152 -110q-88 -41 -188 -41q-99 0 -187 41q-84 39 -152 110q-67 70 -104 156q-38 88 -38 179z M360 461q0 -129 12 -211q12 -84 38 -130q28 -49 66 -66t98 -17q62 0 100 17q40 18 67 66q26 46 38 130q12 83 12 211q0 129 -12 211q-12 84 -38 130q-26 47 -67 65t-100 18q-58 0 -98 -18q-39 -17 -66 -65q-26 -46 -38 -130q-12 -82 -12 -211zM362 1135l242 327 q61 82 131 82q46 0 70 -24t24 -57q0 -31 -18 -61t-84 -75l-276 -192h-89z" />
<glyph unicode="&#xf4;" horiz-adv-x="1150" d="M94 461q0 91 38 179q37 86 104 156q66 69 152 109q88 41 187 41q100 0 188 -41q86 -40 152 -109q67 -70 104 -156q38 -88 38 -179t-38 -179q-37 -86 -104 -156q-68 -71 -152 -110q-88 -41 -188 -41q-99 0 -187 41q-84 39 -152 110q-67 70 -104 156q-38 88 -38 179z M256 1135l268 409h127l269 -409h-89l-243 217l-244 -217h-88zM360 461q0 -129 12 -211q12 -84 38 -130q28 -49 66 -66t97 -17q60 0 100 17q41 17 68 66q26 46 38 130q12 83 12 211q0 129 -12 211q-12 84 -38 130q-26 47 -67 65q-43 18 -101 18q-57 0 -97 -18 q-39 -17 -66 -65q-26 -46 -38 -130q-12 -82 -12 -211z" />
<glyph unicode="&#xf5;" horiz-adv-x="1150" d="M94 461q0 91 38 179q37 86 104 156q66 69 152 109q88 41 187 41q100 0 188 -41q86 -40 152 -109q67 -70 104 -156q38 -88 38 -179t-38 -179q-37 -86 -104 -156q-68 -71 -152 -110q-88 -41 -188 -41q-99 0 -187 41q-84 39 -152 110q-67 70 -104 156q-38 88 -38 179z M227 1235q28 167 150 233q41 23 87 23t82 -15q24 -10 68 -34q89 -49 142 -49t82 35q31 37 41 69h69q-38 -176 -149 -237q-41 -23 -89 -23t-84 15q-28 12 -69 34q-51 28 -64 34q-31 15 -76 15q-44 0 -78 -28q-33 -27 -44 -72h-68zM360 461q0 -129 12 -211q12 -84 38 -130 q28 -49 66 -66t98 -17q62 0 100 17q40 18 67 66q26 46 38 130q12 83 12 211q0 129 -12 211q-12 84 -38 130q-26 47 -67 65t-100 18q-58 0 -98 -18q-39 -17 -66 -65q-26 -46 -38 -130q-12 -82 -12 -211z" />
<glyph unicode="&#xf6;" horiz-adv-x="1150" d="M94 461q0 91 38 179q37 86 104 156q66 69 152 109q88 41 187 41q100 0 188 -41q86 -40 152 -109q67 -70 104 -156q38 -88 38 -179t-38 -179q-37 -86 -104 -156q-68 -71 -152 -110q-88 -41 -188 -41q-99 0 -187 41q-84 39 -152 110q-67 70 -104 156q-38 88 -38 179z M274 1366q0 47 33 80t80 33t80 -33t33 -80t-33 -80t-80 -33t-80 33t-33 80zM360 461q0 -129 12 -211q12 -84 38 -130q28 -49 66 -66t97 -17q60 0 100 17q41 17 68 66q26 46 38 130q12 83 12 211q0 129 -12 211q-12 84 -38 130q-26 47 -67 65q-43 18 -101 18q-57 0 -97 -18 q-39 -17 -66 -65q-26 -46 -38 -130q-12 -82 -12 -211zM664 1366q0 48 32 80q33 33 80 33t80 -33t33 -80t-33 -80t-80 -33t-80 33q-32 32 -32 80z" />
<glyph unicode="&#xf7;" horiz-adv-x="1183" d="M82 657v91h1020v-91h-1020zM481 319q0 49 36 85t85 36t85 -36t36 -85t-36 -85q-35 -35 -85 -35t-85 35q-36 36 -36 85zM481 1086q0 50 36 85q37 35 85 35t85 -35q36 -35 36 -85t-36 -86q-35 -35 -85 -35t-85 35q-36 36 -36 86z" />
<glyph unicode="&#xf8;" horiz-adv-x="1150" d="M94 451q0 101 38 189q37 85 104 155q144 151 339 151q151 0 279 -96l100 139h78l-131 -180q156 -151 156 -348q0 -186 -142 -334q-144 -152 -348 -152q-107 0 -221 64l-106 -148h-78l131 183q-94 71 -146 172q-53 103 -53 205zM360 437q0 -152 21 -240l387 532 q-23 93 -69 124q-47 32 -114 32q-69 0 -109 -18q-39 -17 -66 -65q-26 -46 -38 -130q-12 -82 -12 -235zM408 123q44 -86 167 -86q61 0 99 17q40 15 67 65q50 89 50 342q0 88 -9 182z" />
<glyph unicode="&#xf9;" d="M14 870v52h385v-717q0 -77 31 -116q30 -38 80 -38q47 0 92 31q43 29 78 84q74 119 74 283v421h-168v52h393v-871h162v-51h-387v160h-9q-105 -185 -303 -185q-117 0 -193 65q-75 64 -75 159v671h-160zM240 1463q0 33 24 57t64 24q76 0 137 -82l242 -327h-89l-276 192 q-66 45 -84 75t-18 61z" />
<glyph unicode="&#xfa;" d="M14 870v52h385v-717q0 -77 31 -116q30 -38 80 -38q47 0 92 31q43 29 78 84q74 119 74 283v421h-168v52h393v-871h162v-51h-387v160h-9q-105 -185 -303 -185q-117 0 -193 65q-75 64 -75 159v671h-160zM367 1135l241 327q61 82 131 82q46 0 70 -24q25 -25 25 -57 q0 -29 -19 -61q-18 -30 -84 -75l-276 -192h-88z" />
<glyph unicode="&#xfb;" d="M14 870v52h385v-717q0 -77 31 -116q30 -38 80 -38q47 0 92 31q43 29 78 84q74 119 74 283v421h-168v52h393v-871h162v-51h-387v160h-9q-105 -185 -303 -185q-117 0 -193 65q-75 64 -75 159v671h-160zM217 1135l268 409h127l269 -409h-88l-244 217l-244 -217h-88z" />
<glyph unicode="&#xfc;" d="M14 870v52h385v-717q0 -77 31 -116q30 -38 80 -38q47 0 92 31q43 29 78 84q74 119 74 283v421h-168v52h393v-871h162v-51h-387v160h-9q-105 -185 -303 -185q-117 0 -193 65q-75 64 -75 159v671h-160zM248 1366q0 47 33 80t79 33q47 0 80 -33t33 -80t-33 -80t-80 -33 q-46 0 -79 33t-33 80zM637 1366q0 47 33 80t80 33q46 0 79 -33t33 -80t-33 -80t-79 -33q-47 0 -80 33t-33 80z" />
<glyph unicode="&#xfd;" horiz-adv-x="995" d="M-23 870v52h508v-52h-135l232 -544h8l194 544h-151v52h385v-52h-160l-485 -1312q-73 -188 -164 -217q-34 -9 -61 -9q-30 0 -56 13q-22 12 -39 30q-28 32 -28 81t29 78q30 30 68 30q36 0 57 -13t34 -26q5 -5 13.5 -14t12.5 -13q12 -12 27 -12q24 0 39 47l180 502l-387 835 h-121zM395 1135l242 327q61 82 131 82q46 0 70 -24t24 -57q0 -31 -18 -61t-84 -75l-277 -192h-88z" />
<glyph unicode="&#xfe;" d="M8 1493v51h387v-741h8q34 61 107 102t158 41q84 0 157 -35q70 -34 127 -98q54 -61 88 -154q33 -90 33 -198q0 -110 -34 -199q-35 -92 -89 -153q-58 -66 -127 -99q-73 -35 -157 -35q-86 0 -157 41t-106 103h-8v-711h207v-51h-571v51h139v2085h-162zM395 410 q0 -179 76 -277q67 -88 176 -88q51 0 79 17q30 18 49 64q21 50 28 126q8 85 8 207q0 127 -9 208q-9 78 -28 128q-33 82 -123 82q-175 0 -235 -203q-21 -69 -21 -164v-100z" />
<glyph unicode="&#xff;" horiz-adv-x="995" d="M-23 870v52h508v-52h-135l232 -544h8l194 544h-151v52h385v-52h-160l-485 -1312q-73 -188 -164 -217q-34 -9 -61 -9q-30 0 -56 13q-22 12 -39 30q-28 32 -28 81t29 78q30 30 68 30q36 0 57 -13t34 -26q5 -5 13.5 -14t12.5 -13q12 -12 27 -12q24 0 39 47l180 502l-387 835 h-121zM258 1366q0 47 33 80t80 33t80 -33q32 -32 32 -80t-32 -80q-33 -33 -80 -33t-80 33t-33 80zM647 1366q0 47 33 80t80 33t80 -33q32 -32 32 -80t-32 -80q-33 -33 -80 -33t-80 33t-33 80z" />
<glyph unicode="&#x152;" horiz-adv-x="2238" d="M61 777q0 151 56 292q56 140 150 245q93 104 225 168q127 62 278 62h1331v-420h-71q-6 248 -189 338q-62 30 -135 31h-320v-698q186 0 252 59q66 57 66 223h72v-635h-72q-5 174 -70 236q-66 65 -248 65v-692h381q146 0 236 129q82 116 88 301h72v-481h-1393 q-149 0 -278 63q-130 64 -225 172q-95 109 -150 248q-56 142 -56 294zM389 776q0 -216 21 -356q21 -142 65 -219q45 -80 118 -110q72 -30 169 -30q96 0 161 30q64 27 105 106q82 151 84 555q-2 428 -84 587q-41 83 -105 113q-67 31 -162 31q-98 0 -170 -30 q-75 -31 -117 -108q-43 -78 -64 -216q-21 -136 -21 -353z" />
<glyph unicode="&#x153;" horiz-adv-x="1748" d="M94 461q0 186 142 334q144 151 339 151q199 0 345 -155q133 155 346 155q165 0 278 -110q113 -111 113 -287v-12h-592v-76q0 -249 49 -338q47 -89 162 -87q116 2 194 56q80 56 136 193h57q-40 -145 -143 -228q-101 -82 -244 -82q-206 0 -350 162q-144 -162 -351 -162 q-195 0 -339 152q-142 148 -142 334zM360 461q0 -129 12 -211q12 -84 38 -130q28 -49 66 -66t98 -17q62 0 100 17q40 18 67 66q26 46 38 130q12 83 12 211q0 129 -12 211q-12 84 -38 130q-26 47 -67 65t-100 18q-58 0 -98 -18q-39 -17 -66 -65q-26 -46 -38 -130 q-12 -82 -12 -211zM1067 588h352v117q0 186 -164 186q-92 -2 -133 -68q-43 -67 -55 -235z" />
<glyph unicode="&#x178;" horiz-adv-x="1345" d="M-86 1493v51h711v-51h-222l388 -670h8l366 670h-278v51h543v-51h-197l-404 -752v-690h246v-51h-766v51h246v651l-459 791h-182zM487 1751q0 47 33 80t80 33t80 -33t33 -80t-33 -80t-80 -33t-80 33t-33 80zM877 1751q0 48 32 80q33 33 80 33t80 -33t33 -80t-33 -80 t-80 -33t-80 33q-32 32 -32 80z" />
<glyph unicode="&#x2c6;" horiz-adv-x="704" d="M20 1135l269 409h127l268 -409h-88l-244 217l-243 -217h-89z" />
<glyph unicode="&#x2dc;" horiz-adv-x="761" d="M20 1235q28 167 150 233q41 23 87 23t82 -15q33 -13 71 -34q89 -49 140 -49q52 0 81 35q31 37 41 69h69q-38 -176 -149 -237q-41 -23 -89 -23t-84 15q-28 12 -69 34q-51 28 -64 34q-32 15 -76 15t-78 -28q-33 -27 -44 -72h-68z" />
<glyph unicode="&#x2000;" horiz-adv-x="946" />
<glyph unicode="&#x2001;" horiz-adv-x="1892" />
<glyph unicode="&#x2002;" horiz-adv-x="946" />
<glyph unicode="&#x2003;" horiz-adv-x="1892" />
<glyph unicode="&#x2004;" horiz-adv-x="630" />
<glyph unicode="&#x2005;" horiz-adv-x="473" />
<glyph unicode="&#x2006;" horiz-adv-x="315" />
<glyph unicode="&#x2007;" horiz-adv-x="315" />
<glyph unicode="&#x2008;" horiz-adv-x="236" />
<glyph unicode="&#x2009;" horiz-adv-x="378" />
<glyph unicode="&#x200a;" horiz-adv-x="105" />
<glyph unicode="&#x2010;" horiz-adv-x="808" d="M102 414v90h605v-90h-605z" />
<glyph unicode="&#x2011;" horiz-adv-x="808" d="M102 414v90h605v-90h-605z" />
<glyph unicode="&#x2012;" horiz-adv-x="808" d="M102 414v90h605v-90h-605z" />
<glyph unicode="&#x2013;" horiz-adv-x="1101" d="M0 414v90h1102v-90h-1102z" />
<glyph unicode="&#x2014;" horiz-adv-x="1695" d="M0 414v90h1696v-90h-1696z" />
<glyph unicode="&#x2018;" horiz-adv-x="509" d="M55 1196q0 110 69 204q71 98 173 163l35 -43q-104 -73 -157 -159q-54 -87 -54 -140q0 -55 17 -78q19 -25 30 -25q12 0 19 18q7 17 22 38q39 55 104 55q66 0 95 -38q28 -37 28 -93t-46 -101t-135 -45q-88 0 -144 68t-56 176z" />
<glyph unicode="&#x2019;" horiz-adv-x="518" d="M55 1417q0 56 46 101q47 45 136 45q88 0 144 -68q55 -67 55 -176q0 -111 -68 -204q-71 -98 -173 -163l-35 43q102 72 156 159q55 89 55 140q0 54 -18 78q-19 25 -29 25q-12 0 -20 -18q-9 -21 -21 -38q-39 -55 -105 -55q-65 0 -94 38t-29 93z" />
<glyph unicode="&#x201a;" horiz-adv-x="518" d="M55 152q0 55 46 100q47 45 136 45q88 0 144 -68q55 -67 55 -176q0 -111 -68 -204q-70 -96 -173 -162l-35 43q103 73 156 158q55 89 55 141q0 53 -18 77q-19 25 -29 25q-13 0 -20 -17q-9 -21 -21 -38q-39 -56 -105 -56q-65 0 -94 38t-29 94z" />
<glyph unicode="&#x201c;" horiz-adv-x="1015" d="M55 1196q0 110 69 204q71 98 173 163l35 -43q-104 -73 -157 -159q-54 -87 -54 -140q0 -55 17 -78q19 -25 30 -25q12 0 19 18q6 15 22 37q39 56 104 56q66 0 95 -38q28 -37 28 -93t-46 -101t-135 -45q-88 0 -144 68t-56 176zM559 1196q0 110 69 204q71 98 173 163l35 -43 q-104 -73 -157 -159q-54 -87 -54 -140q0 -55 17 -78q19 -25 30 -25q12 0 19 18q7 17 22 38q39 55 104 55t94 -38t29 -93q0 -56 -46 -101t-135 -45t-145 68q-55 67 -55 176z" />
<glyph unicode="&#x201d;" horiz-adv-x="1024" d="M55 1417q0 56 46 101q47 45 136 45q88 0 144 -68q55 -67 55 -176q0 -111 -68 -204q-71 -98 -173 -163l-35 43q102 72 156 159q55 89 55 140q0 54 -18 78q-19 25 -29 25q-12 0 -20 -18q-9 -21 -21 -38q-39 -55 -105 -55q-65 0 -94 38t-29 93zM559 1417q0 56 46 101 q47 45 135 45q89 0 145 -68q55 -67 55 -176t-69 -204q-71 -98 -173 -163l-34 43q102 72 156 159t54 140q0 55 -17 78q-19 25 -30 25t-19 -18q-7 -17 -22 -38q-39 -55 -104 -55t-94 38t-29 93z" />
<glyph unicode="&#x201e;" horiz-adv-x="1024" d="M55 152q0 55 46 100q47 45 136 45q88 0 144 -68q55 -67 55 -176q0 -111 -68 -204q-70 -96 -173 -162l-35 43q103 73 156 158q55 89 55 141q0 54 -18 78t-29 24q-13 0 -20 -17q-9 -21 -21 -38q-39 -56 -105 -56q-65 0 -94 38t-29 94zM559 152q0 55 46 100q47 45 135 45 q89 0 145 -68q55 -67 55 -176t-69 -204q-70 -96 -173 -162l-34 43q103 73 156 158q54 87 54 141t-17 77q-19 25 -30 25q-12 0 -19 -17t-22 -38q-39 -56 -104 -56t-94 38t-29 94z" />
<glyph unicode="&#x2022;" horiz-adv-x="839" d="M184 778q0 48 17 91q16 41 47 75q29 32 75 51t97 19t97 -19t75 -51q31 -34 47 -75t16 -91t-16 -91t-47 -75q-29 -32 -75 -51q-44 -18 -97 -18q-54 0 -97 18q-46 19 -75 51q-31 34 -47 75q-17 43 -17 91z" />
<glyph unicode="&#x2026;" horiz-adv-x="1511" d="M102 123q0 61 44 105t106 44q61 0 105 -44t44 -105q0 -62 -44 -106t-105 -44q-62 0 -106 44t-44 106zM606 123q0 61 44 105t106 44q61 0 105 -44t44 -105q0 -62 -44 -106t-105 -44q-62 0 -106 44t-44 106zM1110 123q0 61 44 105t106 44q61 0 105 -44t44 -105 q0 -62 -44 -106t-105 -44q-62 0 -106 44t-44 106z" />
<glyph unicode="&#x202f;" horiz-adv-x="378" />
<glyph unicode="&#x2039;" horiz-adv-x="706" d="M143 428v45l410 350l31 -22l-228 -350l228 -342l-31 -31z" />
<glyph unicode="&#x203a;" horiz-adv-x="706" d="M123 109l227 342l-227 350l31 22l409 -350v-45l-409 -350z" />
<glyph unicode="&#x205f;" horiz-adv-x="473" />
<glyph unicode="&#x20ac;" horiz-adv-x="1189" d="M53 571v95h154v120q0 18 2 48h-156v90h172q40 235 164 395q139 184 342 184q97 0 164 -38q66 -38 94 -74l78 110h51v-395h-69q-40 233 -183 307q-53 26 -110 27q-242 0 -242 -516h479v-90h-479v-168h479v-95h-479q0 -349 109 -485q41 -51 108 -51t123 24q53 23 94 70 q74 86 101 238h69v-367h-51l-82 82q-29 -40 -97 -75q-65 -34 -169 -34q-101 0 -190 54q-86 51 -150 137q-120 161 -158 407h-168z" />
<glyph unicode="&#x2122;" horiz-adv-x="1730" d="M55 1296v248h658v-248h-56q-1 89 -43 147q-40 56 -116 56h-21v-674h131v-47h-440v47h131v674h-35q-71 0 -111 -58t-42 -145h-56zM762 778v47h90v674h-90v45h315l158 -532h8l166 532h266v-45h-71v-674h71v-47h-360v47h112v629h-8l-209 -684h-75l-215 684h-9v-629h113v-47 h-262z" />
<glyph unicode="&#x25fc;" horiz-adv-x="921" d="M0 0v922h922v-922h-922z" />
</font>
</defs>
</svg>
