<?xml version="1.0" standalone="no"?>
<!DOCTYPE svg PUBLIC "-//W3C//DTD SVG 1.1//EN" "http://www.w3.org/Graphics/SVG/1.1/DTD/svg11.dtd" >
<svg xmlns="http://www.w3.org/2000/svg">
<metadata></metadata>
<defs>
<font id="bodoni_6bold_italic" horiz-adv-x="1224" >
<font-face units-per-em="2048" ascent="1638" descent="-410" />
<missing-glyph horiz-adv-x="421" />
<glyph unicode="&#xfb01;" horiz-adv-x="1253" d="M-395 -481q0 55 31 92t96 37q62 0 92 -33q31 -34 31 -74q0 -31 -14 -53q-13 -20 -13 -45q0 -35 47 -35q24 0 46 17q23 18 46 81q27 75 58 198q21 84 81 364l166 792h-190v62h203q39 168 107 287q70 123 155 202q86 80 180 119q95 39 184 39q55 0 105 -15t87 -42 q39 -28 59 -67q22 -42 22 -89q0 -56 -32 -96q-32 -39 -97 -39q-60 0 -94 31q-35 32 -35 89q0 28 7 45q1 2 6 15t8 19q7 15 15 27q7 11 7 23q0 16 -17 27q-16 10 -51 10q-45 0 -84 -23q-42 -25 -81 -80q-38 -53 -74 -149q-38 -100 -66 -229l-23 -104h576l-172 -744 q-7 -33 -8 -46q-2 -24 -2 -25q0 -31 28 -31q35 0 94 52q61 53 123 191l52 -18q-56 -171 -161 -248q-103 -76 -224 -76q-94 0 -141 40q-48 41 -48 126q0 17 1 26q2 22 5 32q9 36 11 45q8 37 16 67l135 547h-297l-102 -502q-55 -272 -128 -468q-70 -187 -156 -316 q-82 -122 -175 -180t-188 -58q-53 0 -95 16q-39 15 -63 42q-26 29 -37 58q-12 32 -12 67z" />
<glyph unicode="&#xfb02;" horiz-adv-x="1261" d="M-395 -481q0 55 31 92t96 37q62 0 92 -33q31 -34 31 -74q0 -31 -14 -53q-13 -20 -13 -45q0 -35 47 -35q24 0 46 17q23 18 46 81q27 75 58 198q21 84 81 364l166 792h-194v62h207q39 166 103 287q66 124 144 202q80 80 166 119t168 39q46 0 88 -14q44 -15 74 -35l277 49 l-332 -1391q-7 -31 -8 -44q0 -5 -0.5 -10t-1 -8t-0.5 -5q0 -27 24 -27q30 0 79 52q50 53 101 194l52 -19q-51 -167 -138 -251q-86 -83 -190 -83q-88 0 -129 49t-41 111q0 21 5 61q2 19 13 72l213 959q-46 6 -75 38t-29 81q0 26 7 43q10 23 14 31q5 9 15 25q7 11 7 23 q0 16 -12 27q-11 10 -41 10q-38 0 -70 -23q-33 -24 -63 -79q-33 -61 -60 -148t-55 -231l-21 -104h248v-62h-260l-100 -502q-52 -266 -125 -463q-71 -192 -155 -318q-81 -122 -175 -182q-92 -59 -190 -59q-53 0 -95 16q-39 15 -63 42q-26 29 -37 58q-12 32 -12 67z" />
<glyph unicode="&#xfb03;" horiz-adv-x="1806" d="M-395 -481q0 55 31 92t96 37q62 0 92 -33q31 -34 31 -74q0 -31 -14 -53q-13 -20 -13 -45q0 -35 47 -35q17 0 32 6t32 31q15 22 34 74q20 56 41 133q20 75 49 210q32 148 62 306l131 692h-201v62h215q38 153 100 264q64 114 139 186q77 74 162 110t165 36q85 0 147 -38 q61 -37 84 -104q91 99 195 146q103 47 200 47q56 0 105 -15t87 -42q39 -28 59 -67q22 -42 22 -89q0 -56 -32 -96q-31 -39 -97 -39q-61 0 -95 31t-34 89q0 29 7 46q12 30 14 33q12 23 14 27q8 13 8 23q0 16 -17 27q-16 10 -51 10q-45 0 -84 -23q-42 -25 -80 -80 q-40 -58 -74 -149q-35 -93 -65 -229l-23 -104h576l-172 -744q-7 -33 -8 -46q-2 -24 -2 -25q0 -31 28 -31q34 0 93 52q62 55 124 191l52 -18q-56 -171 -161 -248q-103 -76 -224 -76q-94 0 -141 40q-48 41 -48 126q0 17 1 26q2 22 5 32q9 36 11 45q8 37 16 67l135 547h-299 l-90 -430q-55 -266 -130 -466q-69 -186 -156 -317q-82 -124 -175 -182q-91 -57 -186 -57q-94 0 -144 44q-49 43 -61 104q-83 -115 -171 -167q-89 -53 -185 -53q-53 0 -96 16q-40 15 -64 42q-26 29 -37 58q-12 32 -12 67zM266 -283q10 2 29 2q63 0 92 -33q31 -36 31 -73 q0 -31 -14 -53q-13 -20 -13 -45q0 -35 47 -35q25 0 45 16q21 17 45 82q26 71 59 198q29 111 83 363l155 721h-278l-90 -502q-38 -206 -85 -363q-47 -155 -106 -278zM557 922h283q34 146 92 256q-54 5 -83 35q-30 32 -30 83q0 26 7 43q8 20 15 32q13 23 14 25q7 11 7 23 q0 13 -12 25t-43 12q-38 0 -71 -23t-63 -80q-30 -56 -57 -149q-25 -86 -49 -229z" />
<glyph unicode="&#xfb04;" horiz-adv-x="1812" d="M-395 -481q0 55 31 92t96 37q62 0 92 -33q31 -34 31 -74q0 -31 -14 -53q-13 -20 -13 -45q0 -35 47 -35q17 0 32 6t32 31q15 22 34 74q20 56 41 133q20 75 49 210q32 148 62 306l131 692h-205v62h219q37 150 101 264q62 111 140 186q77 74 162 110t165 36q79 0 141 -35 t86 -94q84 93 174 136q93 44 178 44q46 0 88 -14q44 -15 74 -35l276 49l-331 -1391q-7 -31 -8 -44q-1 -6 -2 -13.5t-1 -9.5q0 -27 25 -27q30 0 79 52q50 53 101 194l51 -19q-51 -168 -137 -251t-190 -83q-88 0 -129 49t-41 111q0 21 5 61q2 19 13 72l213 959q-47 6 -76 38 q-28 31 -28 81q0 26 7 43q10 23 14 31q5 9 15 25q7 11 7 23q0 16 -12 27q-11 10 -41 10q-38 0 -70 -23q-35 -26 -64 -79q-30 -56 -59 -148q-27 -87 -55 -231l-21 -104h248v-62h-260l-84 -430q-51 -262 -123 -464q-68 -190 -152 -317q-81 -123 -177 -183q-92 -58 -193 -58 q-100 0 -147 46q-48 46 -58 106q-84 -119 -173 -170q-94 -54 -187 -54q-53 0 -96 16q-40 15 -64 42q-26 29 -37 58q-12 32 -12 67zM266 -283q14 2 33 2q62 0 92 -34q31 -36 31 -72q0 -35 -13 -55q-14 -22 -14 -43q0 -35 47 -35q26 0 46 16q24 19 47 82q24 66 57 198 q30 118 82 363l149 721h-276l-90 -502q-38 -206 -85 -363q-47 -155 -106 -278zM557 922h279q33 143 90 256q-47 8 -76 40t-29 78q0 26 7 43q8 20 15 32q13 23 14 25q7 11 7 23q0 13 -12 25t-43 12q-38 0 -71 -23q-35 -24 -64 -80q-32 -61 -58 -149q-25 -86 -49 -229z" />
<glyph horiz-adv-x="0" />
<glyph unicode="&#xd;" horiz-adv-x="421" />
<glyph horiz-adv-x="0" />
<glyph horiz-adv-x="0" />
<glyph unicode=" "  horiz-adv-x="421" />
<glyph unicode="&#x09;" horiz-adv-x="421" />
<glyph unicode="&#xa0;" horiz-adv-x="421" />
<glyph unicode="!" horiz-adv-x="671" d="M86 152q0 76 51 127t125 51q76 0 127 -51t51 -127q0 -74 -51 -125q-52 -52 -127 -52q-73 0 -125 52q-51 51 -51 125zM299 459q32 160 43 306q10 136 10 263q0 57 -1 85t-1 80q0 48 -1 67t-1 45q0 67 16 120q16 51 40 80q26 31 60 44q36 14 71 14q73 0 114 -45 q41 -46 41 -111q0 -63 -36 -143q-83 -183 -87 -192q-51 -111 -108 -261q-60 -159 -99 -352h-61z" />
<glyph unicode="&#x22;" horiz-adv-x="849" d="M272 1372q0 42 18 76t45 60q26 25 64 40q37 15 76 15q61 0 102 -35q39 -33 39 -101q0 -39 -13 -68q-15 -33 -36 -61q-26 -35 -50 -68q-28 -39 -56 -92q-28 -52 -55 -130q-27 -76 -48 -183h-63q15 69 22 131q7 66 7 105q0 48 -9 102q-6 37 -17 82q-3 14 -9.5 37.5 t-7.5 29.5q-9 36 -9 60zM688 1372q0 42 18 76t45 60q26 25 64 40q37 15 76 15q60 0 101 -35q40 -34 40 -101q0 -39 -13 -68q-15 -33 -36 -61q-26 -35 -50 -68q-28 -39 -56 -92q-31 -58 -56 -130q-25 -70 -47 -183h-63q15 69 22 131q6 57 6 105q0 54 -8 102q-6 37 -17 82 q-3 14 -9.5 36.5t-8.5 30.5q-8 32 -8 60z" />
<glyph unicode="#" horiz-adv-x="1159" d="M80 475v100h231l62 388h-193v102h209l78 498h131l-78 -498h314l77 498h115l-78 -498h252v-102h-268l-62 -388h230v-100h-246l-74 -475h-114l73 475h-313l-74 -475h-131l74 475h-215zM442 575h314l61 388h-313z" />
<glyph unicode="$" d="M49 272q0 73 40 123q41 51 122 51q70 0 108 -38q39 -39 39 -103q0 -52 -23 -74t-51 -34q-36 -16 -51 -22q-22 -9 -22 -30q0 -27 38 -51t113 -39l125 555q-60 24 -100 46q-46 25 -83 64q-34 35 -56 89q-21 51 -21 121q0 84 32 162q31 75 89 136q56 59 137 102 q80 42 177 59l34 155h62l-33 -147q15 0 23 1t24 1q58 0 123 -13l35 158h61l-39 -172q102 -30 168 -99t66 -173q0 -72 -33 -115t-98 -43q-61 0 -98 34t-37 89q0 41 18 62q17 20 41 36q13 9 41 25q18 10 18 29q0 20 -27 44q-24 21 -73 44l-111 -494q56 -23 103 -48 q45 -24 86 -69q36 -39 58 -98q22 -60 22 -137q0 -89 -30 -169q-30 -79 -87 -142q-55 -61 -142 -105q-83 -42 -196 -59l-49 -220h-62l48 213q-6 -1 -18.5 -2t-18.5 -1q-12 -1 -37 -1q-46 0 -98 7l-48 -216h-61l49 224q-78 15 -134 43q-55 28 -92 66q-34 35 -53 83 q-18 45 -18 92zM389 1073q0 -71 45 -111q46 -41 117 -65l94 424q-48 -11 -97 -35q-45 -22 -82 -54q-34 -30 -56 -72q-21 -40 -21 -87zM422 47q24 -2 38 -2h42q32 0 47 1l45 3l111 492q-15 6 -80 25q-14 4 -41 12t-41 12zM608 877l162 -46l111 492q-61 12 -113 12h-30 q-7 0 -27 -2zM657 59q140 28 209 99q68 70 68 159q0 82 -49 128q-49 47 -123 75z" />
<glyph unicode="%" horiz-adv-x="1910" d="M328 1032q0 97 37 187q39 95 95 164q61 75 132 117q74 44 149 44q61 0 103 -26t71 -70q28 -42 43 -96q15 -52 15 -105q0 -79 -31 -172q-29 -86 -85 -166q-53 -75 -129 -125q-74 -49 -163 -49q-59 0 -106 25q-46 24 -74 66q-27 40 -43 96q-14 49 -14 110zM342 -2 l1208 1542h121l-1208 -1542h-121zM502 885q0 -35 5 -60q4 -21 14 -34t21 -17t21 -4q41 0 74 35q32 33 58 90q26 56 45 124q20 71 33 137q15 75 20 130q6 61 6 103q0 67 -17 93q-16 25 -45 25q-36 0 -69 -34q-34 -35 -59 -92q-24 -54 -46 -126q-19 -63 -34 -139 q-11 -55 -20 -131q-7 -57 -7 -100zM1094 287q0 98 36 186q39 95 96 165q61 75 132 117q74 44 149 44q59 0 103 -27q42 -26 71 -70q28 -42 43 -96q15 -53 15 -104q0 -79 -31 -172q-29 -86 -85 -166q-53 -75 -129 -125q-74 -49 -163 -49q-61 0 -106 24t-74 67q-27 40 -43 95 q-14 49 -14 111zM1268 139q0 -34 5 -59q4 -22 14 -35q8 -11 21 -16q11 -4 21 -4q41 0 74 34q31 33 58 91t45 123q20 69 33 138q15 75 20 130q6 61 6 102q0 67 -17 93t-45 26q-36 0 -69 -35q-34 -36 -59 -91q-24 -54 -46 -126q-19 -63 -34 -139q-11 -55 -20 -131 q-7 -57 -7 -101z" />
<glyph unicode="&#x26;" horiz-adv-x="1777" d="M55 358q0 93 38 177q36 80 107 149q69 68 165 120t213 87q-23 80 -39 156q-15 69 -15 120q0 71 31 145q30 71 91 131q59 57 152 94q92 36 214 36q82 0 156 -19q72 -18 120 -52q50 -35 77 -81q28 -48 28 -104q0 -65 -36 -121q-34 -52 -100 -101q-62 -46 -152 -84 q-97 -41 -196 -69q22 -61 64 -159q23 -54 69 -158q32 -70 39 -86q12 -27 37 -74q47 75 91 170q41 88 90 166q46 74 110 125q61 49 152 49t141 -49q51 -50 51 -123q0 -57 -35 -107q-34 -49 -112 -49q-52 0 -86 29q-32 28 -37 92q-1 24 -3 51t-24 27q-28 0 -58 -42 q-28 -39 -66 -109l-79 -146q-47 -85 -98 -156q42 -79 83 -136q37 -51 71 -81q33 -28 62 -40q27 -11 61 -11q64 0 137 41q71 40 131 139l47 -41q-69 -135 -185 -210q-114 -74 -300 -74q-104 0 -182 31q-75 30 -154 124q-73 -64 -177 -110q-108 -48 -247 -48q-100 0 -183 27 q-80 26 -140 77q-57 48 -91 121q-33 70 -33 156zM420 551q0 -88 20 -165q21 -82 58 -145q38 -65 88 -105t110 -40q48 0 96 27t89 74q-49 72 -89 156q-57 120 -96 214q-33 79 -53 133q-27 74 -45 127q-97 -38 -138 -103q-40 -64 -40 -173zM817 1323q0 -56 19 -143 q18 -82 51 -174q125 50 189 144q63 93 63 200q0 29 -6 56q-6 28 -23 49q-18 23 -46 34q-30 12 -75 12q-90 0 -131 -47t-41 -131z" />
<glyph unicode="'" horiz-adv-x="499" d="M293 1372q0 43 17 76q18 34 45 60q26 24 65 40q38 15 76 15q60 0 101 -35q40 -34 40 -101q0 -39 -13 -68q-15 -33 -36 -61q-26 -35 -50 -68q-32 -44 -57 -92q-28 -52 -55 -130q-25 -70 -47 -183h-64q17 77 23 131q6 57 6 105q0 54 -8 102q-4 23 -18 82q-3 14 -9.5 37.5 t-7.5 29.5q-8 32 -8 60z" />
<glyph unicode="(" horiz-adv-x="673" d="M102 416q0 178 58 344t154 311q97 147 227 281q123 128 270 254l45 -33q-119 -145 -210 -310q-87 -159 -153 -345q-64 -181 -95 -362q-31 -180 -31 -359q0 -141 20 -257q21 -120 68 -233l-56 -26q-164 199 -230 378q-67 183 -67 357z" />
<glyph unicode=")" horiz-adv-x="673" d="M-90 -287q118 143 210 311q87 159 153 345q64 182 95 361q31 180 31 360q0 141 -20 257q-21 119 -68 232l56 27q164 -202 230 -381q67 -183 67 -355q0 -178 -58 -344t-154 -311q-100 -150 -227 -282q-129 -133 -270 -252z" />
<glyph unicode="*" horiz-adv-x="964" d="M193 940q0 58 39 87q40 30 96 45q66 18 116 24q62 8 105 24l14 8q-43 20 -82 28q-34 7 -68 10q-42 4 -60 6q-26 3 -52 16q-35 17 -50 45q-15 29 -15 59q0 56 38 87q40 32 86 32q43 0 66 -22q25 -23 46 -58t48 -75q25 -37 76 -76l6 4q0 49 -7 84q-6 30 -15 66 q-3 11 -16 56q-7 24 -7 52q0 60 38 90q39 31 91 31q51 0 79 -26t28 -71q0 -31 -16 -68q-13 -29 -37 -69q-14 -23 -42 -71q-19 -32 -30 -74l6 -4q55 33 91 73q14 15 36 41t29 35q31 36 60 59t71 23q30 0 48 -11t30 -29q13 -19 17 -37q5 -22 5 -38q0 -52 -36 -78 q-36 -25 -89 -39q-59 -15 -115 -22q-59 -7 -112 -29l-15 -8q50 -27 106 -33q41 -4 105 -14q47 -7 81 -30q32 -21 32 -78q0 -48 -28 -88q-27 -39 -87 -39q-46 0 -72 23q-23 21 -50 59q-16 23 -50 74q-27 40 -72 75l-6 -4q0 -45 11 -83q15 -51 20 -65q7 -19 19 -55 q10 -30 10 -53q0 -52 -35 -87q-34 -34 -88 -34q-51 0 -81 30t-30 81q0 31 13 60q15 34 29 56q17 27 36 65q20 40 31 85l-6 4q-58 -35 -93 -76q-41 -48 -62 -75q-28 -36 -56 -58t-74 -22q-51 0 -78 28q-26 27 -26 74z" />
<glyph unicode="+" d="M145 647v111h455v495h111v-495h454v-111h-454v-495h-111v495h-455z" />
<glyph unicode="," horiz-adv-x="491" d="M-20 -354q151 84 249 181q97 95 97 183q0 30 -11 44t-20 14q-13 0 -22 -15q-6 -11 -24 -30q-14 -15 -39 -31q-24 -15 -63 -15q-37 0 -64 15q-29 16 -44 38q-18 27 -25 52q-8 30 -8 57q0 43 18 77q17 32 45 57q25 22 63 35q33 11 75 11q59 0 100 -24q40 -24 67 -63 q25 -36 37 -81q11 -40 11 -83q0 -126 -109 -252q-109 -125 -307 -217z" />
<glyph unicode="-" horiz-adv-x="849" d="M119 373v131h604v-131h-604z" />
<glyph unicode="." horiz-adv-x="491" d="M10 152q0 76 51 127t125 51q76 0 127 -51q52 -52 52 -127q0 -73 -52 -125t-127 -52q-73 0 -125 52q-51 51 -51 125z" />
<glyph unicode="/" horiz-adv-x="561" d="M-88 0l717 1542h162l-717 -1542h-162z" />
<glyph unicode="0" horiz-adv-x="1282" d="M125 514q0 177 65 341q67 168 171 298q105 131 239 212t268 81q107 0 184 -48q77 -49 128 -126q51 -78 75 -174q25 -100 25 -191q0 -96 -26 -206q-26 -112 -71 -211q-47 -104 -112 -196q-69 -97 -146 -164q-83 -72 -176 -112q-96 -41 -200 -41q-110 0 -191 46t-132 120 q-52 76 -76 172q-25 100 -25 199zM420 252q0 -72 11 -110q12 -42 28 -65t38 -31q20 -7 44 -7q74 0 136 62q61 61 111 163q47 95 86 225q39 129 62 249q26 136 37 236q12 111 12 185q0 123 -32 173t-89 50q-72 0 -132 -63q-58 -61 -109 -166q-49 -102 -87 -228 q-41 -137 -64 -252q-25 -124 -39 -238q-13 -107 -13 -183z" />
<glyph unicode="1" horiz-adv-x="884" d="M-25 0v72h254l273 1302h-279v72h606l-297 -1374h271v-72h-828z" />
<glyph unicode="2" horiz-adv-x="1167" d="M-12 0l45 190l413 310q119 89 186 163q75 83 113 153q42 78 58 147q16 70 16 139q0 147 -55 209q-56 63 -150 63q-61 0 -108 -20q-50 -21 -84 -48q-30 -24 -55 -59q-21 -30 -21 -49q0 -26 32 -38q12 -4 35.5 -12.5t32.5 -11.5q36 -13 69 -41q32 -27 32 -87 q0 -72 -45 -110q-46 -38 -105 -38q-24 0 -55 7q-30 7 -62 29q-30 21 -51 59q-20 36 -20 100q0 65 29 135q28 69 87 126q56 55 148 93q89 37 213 37q98 0 188 -26t153 -73q62 -46 101 -116q37 -67 37 -152q0 -51 -16 -102q-17 -55 -55 -110q-37 -54 -105 -116 q-72 -65 -164 -124l-538 -351v-8h571q25 0 45 5q16 4 33 24q15 18 27 54q13 37 24 95h66l-115 -446h-950z" />
<glyph unicode="3" horiz-adv-x="1157" d="M37 233q0 66 34 115t103 49q55 0 91 -32q38 -33 38 -86q0 -42 -19 -62q-18 -19 -44 -34q-9 -5 -24 -13t-20 -10q-20 -11 -20 -31q0 -19 22 -38q21 -18 54 -30q30 -11 74 -19q38 -7 77 -7q64 0 120 22q55 22 100 73q43 49 67 129q25 83 25 192q0 151 -49 216 q-50 66 -164 66q-26 0 -41 -3q-13 -3 -25 -6q-7 -2 -19 -6q-9 -3 -24 -3q-36 0 -50 14q-15 15 -15 37q0 26 16 41q15 14 39 14q16 0 50 -6q35 -6 69 -6q78 0 136 42q59 42 97 104q39 64 59 136q19 70 19 134q0 98 -45 134t-125 36q-76 0 -118 -24t-42 -60q0 -20 12 -32 l24 -24q13 -12 25 -28q11 -15 11 -45q0 -49 -36 -85t-91 -36q-46 0 -86 31q-39 30 -39 98q0 53 31 104q29 48 86 85q56 36 130 57q71 20 161 20q97 0 169 -24q68 -23 121 -66q49 -40 75 -94t26 -113q0 -123 -107 -222q-108 -101 -311 -157v-10q69 0 136 -26t119 -72t84 -112 t32 -140q0 -91 -47 -173q-47 -81 -130 -142q-82 -60 -197 -96q-114 -36 -249 -36q-100 0 -180 22q-76 21 -123 57q-48 37 -70 83q-22 45 -22 98z" />
<glyph unicode="4" horiz-adv-x="1171" d="M29 391v68l913 987h152l-213 -987h192l35 133h61l-92 -371h-61l41 170h-191l-71 -330h166v-61h-625v61h156l69 330h-532zM119 459h456l136 641h-9z" />
<glyph unicode="5" horiz-adv-x="1230" d="M68 256q0 37 10 71q11 37 31 63q21 27 51 45t71 18q59 0 103 -38q43 -37 43 -104q0 -41 -19 -70q-18 -27 -40 -46q-6 -5 -18.5 -16t-19.5 -17q-18 -15 -18 -29q0 -13 12 -29q11 -16 36 -31q26 -16 57 -26t73 -10q94 0 157 54q61 53 101 132t56 164q16 83 16 152 q0 73 -18 121q-18 47 -52 77q-33 28 -75 40q-40 11 -95 11q-61 0 -130 -15q-65 -14 -134 -44l-37 41l193 676h555q53 0 87 3q33 3 56 12q22 9 39 29q15 17 37 54h61l-163 -366h-670l-98 -336l8 -8q70 21 137 32q64 11 127 11q115 0 216 -28q95 -26 165 -79q65 -49 104 -121 q37 -68 37 -153q0 -97 -48 -190q-49 -95 -135 -166q-87 -72 -208 -117q-124 -46 -264 -46q-109 0 -187 26q-75 25 -123 67q-46 40 -67 90q-20 47 -20 96z" />
<glyph unicode="6" horiz-adv-x="1259" d="M113 467q0 143 49 272q51 134 132 246q83 114 194 209q109 93 238 162q121 65 257 104q129 37 256 37v-72q-141 -16 -254 -69q-120 -57 -206 -134q-88 -79 -148 -175q-59 -94 -82 -193l6 -6q70 54 128 76q59 22 130 22q89 0 165 -32q74 -31 129 -86q53 -53 84 -127 q30 -72 30 -154q0 -108 -53 -211q-53 -104 -140 -183q-88 -80 -205 -130q-118 -50 -248 -50q-107 0 -193 36q-84 35 -145 101q-63 68 -93 155q-31 90 -31 202zM434 252q0 -106 27 -162q27 -55 104 -55q65 0 114 36q50 37 86 93q35 56 60 130q26 79 40 146q17 82 22 143 q6 69 6 117q0 74 -23 125q-22 49 -98 49q-127 0 -256 -153q-11 -26 -29 -86q-12 -41 -26 -114q-13 -69 -20 -132q-7 -64 -7 -137z" />
<glyph unicode="7" horiz-adv-x="1069" d="M156 1020l206 426h904l-6 -72l-457 -600q-56 -72 -84 -125q-33 -63 -46 -103q-17 -54 -21 -84q-5 -42 -5 -69q0 -35 3 -62q3 -23 8 -52l9 -48q3 -23 3 -47q0 -96 -57 -150t-152 -54q-78 0 -123 39q-47 41 -47 139q0 32 9 64q10 34 43 86q46 72 99 143q76 102 176 233 l371 487v9h-526q-40 0 -75 -5q-30 -4 -58 -23q-28 -18 -48 -49q-22 -33 -44 -83h-82z" />
<glyph unicode="8" horiz-adv-x="1290" d="M78 326q0 77 38 148q37 69 104 127q63 55 158 95q92 39 195 54v8q-134 34 -214 120q-78 84 -78 187q0 79 47 150q46 70 127 125q82 56 183 85q107 31 214 31q102 0 181 -25t137 -69q57 -43 86 -99q30 -57 30 -118q0 -65 -33 -130q-34 -66 -91 -119t-138 -94 q-75 -38 -176 -54v-9q79 -18 142 -51q64 -34 107 -78t67 -97t24 -110q0 -80 -47 -159q-47 -78 -129 -138q-78 -57 -194 -96q-110 -37 -243 -37q-110 0 -202 27t-158 75q-65 47 -101 112t-36 139zM403 258q0 -115 43 -164t123 -49q86 0 143 45q55 44 91 112q34 65 49 142 q14 71 14 137q0 109 -39 166q-40 58 -114 58q-62 0 -118 -37q-55 -36 -98 -99t-68 -142q-26 -83 -26 -169zM598 961q0 -93 30 -134t93 -41q78 0 129 53q51 52 81 125q30 72 42 149t12 128q0 93 -33 128q-33 34 -86 34q-69 0 -121 -44q-48 -41 -83 -111q-35 -69 -49 -144 q-15 -78 -15 -143z" />
<glyph unicode="9" horiz-adv-x="1259" d="M180 -27v72q139 15 254 70q120 57 206 134q88 79 148 175q59 95 82 192l-6 7q-70 -54 -128 -76q-61 -23 -130 -23q-89 0 -165 32q-74 31 -129 86q-53 53 -84 127q-29 70 -29 155q0 107 52 210q53 104 140 184q88 80 205 130q116 49 248 49q106 0 192 -36q89 -37 147 -100 q61 -65 92 -156q32 -93 32 -201q0 -141 -50 -273q-51 -134 -132 -246q-83 -114 -194 -209q-106 -90 -238 -161q-125 -67 -257 -105q-129 -37 -256 -37zM526 770q0 -41 4 -70q4 -32 18 -55t37 -36t62 -13q126 0 256 154q13 28 29 85q13 45 26 114t20 132q7 64 7 138 q0 105 -27 161t-104 56q-65 0 -115 -36q-49 -35 -85 -93q-35 -56 -60 -130q-26 -77 -40 -147q-17 -82 -22 -142q-6 -69 -6 -118z" />
<glyph unicode=":" horiz-adv-x="491" d="M10 152q0 76 51 127t125 51q76 0 127 -51q52 -52 52 -127q0 -73 -52 -125t-127 -52q-73 0 -125 52q-51 51 -51 125zM129 743q0 76 51 127q52 52 125 52q75 0 127 -52q51 -51 51 -127q0 -74 -51 -125t-127 -51q-74 0 -125 51t-51 125z" />
<glyph unicode=";" horiz-adv-x="491" d="M-18 -354q151 84 249 181q97 95 97 183q0 30 -11 44t-20 14q-13 0 -22 -15q-6 -11 -24 -30q-14 -15 -39 -31q-24 -15 -62 -15t-65 15q-29 16 -44 38q-18 27 -25 52q-8 30 -8 57q0 43 18 77q17 32 45 57q25 22 63 35q33 11 75 11q59 0 100 -24q40 -24 67 -63 q25 -36 37 -81q11 -40 11 -83q0 -126 -109 -252q-109 -125 -307 -217zM131 743q0 76 51 127q52 52 125 52q75 0 127 -52q51 -51 51 -127q0 -74 -51 -125t-127 -51q-74 0 -125 51t-51 125z" />
<glyph unicode="&#x3c;" horiz-adv-x="1245" d="M143 637v137l959 479v-131l-828 -413l828 -414v-137z" />
<glyph unicode="=" horiz-adv-x="1265" d="M129 459v110h1020v-110h-1020zM231 860v111h1020v-111h-1020z" />
<glyph unicode="&#x3e;" horiz-adv-x="1245" d="M256 158v137l827 414l-827 413v131l958 -479v-137z" />
<glyph unicode="?" horiz-adv-x="980" d="M168 152q0 76 51 127t125 51q76 0 127 -51t51 -127q0 -74 -51 -125q-52 -52 -127 -52q-73 0 -125 52q-51 51 -51 125zM266 1278q0 50 26 102t73 93t116 65q72 25 158 25q91 0 167 -29q73 -28 127 -80q52 -50 81 -124q28 -71 28 -159q0 -117 -46 -193q-48 -79 -114 -132 t-150 -95q-74 -37 -149 -81q-68 -40 -115 -90q-46 -49 -46 -121h-51q-6 51 -6 98q0 132 36 214q37 84 92 142t117 98q78 50 118 79q52 37 91 86q37 46 37 120q0 38 -12 76q-12 37 -41 66q-27 27 -74 46q-43 17 -111 17q-79 0 -124 -22q-48 -23 -48 -54q0 -16 16 -29 q5 -4 17 -12.5t18 -13.5q20 -15 34 -38q16 -26 16 -64t-13 -64t-35 -43q-18 -14 -46 -23q-26 -8 -47 -8q-53 0 -97 38q-43 37 -43 110z" />
<glyph unicode="@" horiz-adv-x="1685" d="M172 408q0 209 68 375t183 278t266 171q149 58 317 58q149 0 269 -47q118 -46 198 -128q79 -81 121 -191q42 -111 42 -238q0 -123 -37 -230q-38 -109 -101 -190q-64 -82 -153 -129t-192 -47q-81 0 -130 32t-50 103h-15q-28 -49 -85 -91q-59 -44 -144 -44q-46 0 -97 19 q-47 18 -87 56q-39 37 -63 96q-23 56 -23 138q0 107 42 204q42 98 109 169q66 70 151 115q82 43 167 43q64 0 102 -29q37 -28 66 -92h10l25 98h262l-148 -618q-6 -23 -6 -35q0 -41 49 -41q45 0 91 34q47 35 84 94q38 61 62 144q23 80 23 185q0 133 -43 234q-44 103 -116 169 q-73 67 -175 102q-96 33 -215 33q-155 0 -287 -58q-134 -59 -235 -164q-100 -104 -159 -253q-58 -146 -58 -325q0 -137 38 -257q37 -116 112 -202q75 -85 181 -131q109 -47 247 -47q54 0 117 9t126 36q69 30 128 72q64 46 124 118l47 -72q-130 -134 -261 -190 q-129 -55 -281 -55q-140 0 -260 43q-121 43 -211 132t-143 224q-52 134 -52 320zM715 324q0 -82 18 -111t55 -29q50 0 112 49q63 50 104 164l61 244q0 13 2 29t2 28q0 54 -29 98t-75 44q-48 0 -93 -47q-43 -45 -79 -121q-37 -79 -57 -166q-21 -91 -21 -182z" />
<glyph unicode="A" horiz-adv-x="1271" d="M-135 0v61h108l1024 1512h119l-110 -1512h159v-61h-653v61h182l33 373h-414l-254 -373h195v-61h-389zM360 502h373l58 618h-9z" />
<glyph unicode="B" horiz-adv-x="1421" d="M-57 0v63h174l309 1420h-201v61h658q136 0 233 -25t161 -72q63 -47 93 -111q31 -67 31 -140q0 -150 -105 -249q-104 -98 -303 -142v-8q173 -40 250 -123q76 -82 76 -215q0 -109 -45 -195q-45 -85 -122 -144q-78 -60 -178 -89q-105 -31 -216 -31h-815zM420 63h176 q80 0 149 29q68 29 117 85t76 144q27 87 27 203q0 49 -9 105q-7 46 -29 80q-20 31 -58 50q-34 17 -93 17h-198zM592 838h158q74 0 132 30q56 29 98 86q38 53 60 133q21 78 21 173q0 111 -41 167t-162 56h-123z" />
<glyph unicode="C" horiz-adv-x="1394" d="M131 580q0 118 36 238t99 231q58 103 150 204q86 95 185 164t208 110q107 40 217 40q84 0 154 -28q65 -26 133 -91l90 96h72l-97 -477h-61q0 101 -24 180q-25 82 -65 135q-41 54 -98 85q-56 30 -116 30q-85 0 -158 -53q-70 -51 -130 -142q-56 -84 -101 -203 q-42 -111 -73 -235q-28 -114 -44 -239q-14 -111 -14 -215q0 -102 15 -171q15 -67 46 -111q29 -41 75 -60t101 -19q49 0 114 17q62 16 130 57q63 38 139 114q70 70 139 185h62l-109 -422h-61l-62 70q-92 -44 -178 -69q-95 -28 -200 -28q-136 0 -247 51q-107 49 -180 134 t-110 193t-37 229z" />
<glyph unicode="D" horiz-adv-x="1576" d="M-84 0v66h197l307 1417h-215v61h688q317 0 478 -173t161 -474q0 -175 -65 -338t-180 -287q-116 -125 -274 -198q-160 -74 -347 -74h-750zM414 66h192q139 0 248 68q108 67 189 197q78 125 122 312q43 182 43 418q0 90 -10 163q-11 79 -44 134q-35 57 -99 91 q-65 34 -176 34h-150z" />
<glyph unicode="E" horiz-adv-x="1413" d="M-27 0v61h201l309 1422h-221v61h1223l-74 -422h-82q0 107 -15 176q-15 71 -54 111t-103 57q-65 17 -158 17h-206l-146 -656h94q105 0 179 62q74 61 120 207h72l-133 -631h-70q0 95 -14 151q-15 61 -40 93q-25 33 -63 45t-83 12h-76l-158 -705h324q67 0 127 18t114 63 q57 47 110 126q54 80 114 207h82l-123 -475h-1250z" />
<glyph unicode="F" horiz-adv-x="1349" d="M-41 0v63h191l309 1420h-221v61h1222l-74 -422h-81q0 102 -16 176q-15 71 -54 111q-39 41 -102 57q-65 17 -158 17h-207l-145 -656h94q104 0 178 62q75 63 121 207h71l-133 -631h-69q0 91 -15 151q-15 61 -40 93q-26 33 -63 45t-83 12h-76l-155 -703h262v-63h-756z" />
<glyph unicode="G" horiz-adv-x="1560" d="M147 588q0 120 36 241q35 119 100 230q64 109 149 202q83 91 185 160q99 68 208 107q108 39 217 39q84 0 154 -28q65 -26 133 -91l90 96h72l-96 -477h-62q0 102 -23 178q-24 79 -66 136q-41 56 -97 86q-55 30 -119 30q-87 0 -158 -52q-72 -53 -129 -138 q-57 -86 -101 -199q-45 -116 -74 -231q-28 -111 -44 -237q-14 -111 -14 -216q0 -102 15 -174q15 -70 46 -117q29 -43 75 -64q45 -20 99 -20q49 0 100 19q47 18 91 66q42 46 77 133q33 82 56 218h-201v62h717v-62h-158l-51 -219q-79 -72 -162 -131q-79 -56 -153 -91 q-72 -34 -153 -53q-76 -18 -161 -18q-152 0 -266 53q-113 52 -186 138q-75 87 -110 196q-36 111 -36 228z" />
<glyph unicode="H" horiz-adv-x="1652" d="M-27 0v63h191l309 1420h-190v61h694v-61h-195l-149 -674h532l146 674h-191v61h695v-61h-195l-315 -1420h221v-63h-715v63h190l150 685h-533l-151 -685h221v-63h-715z" />
<glyph unicode="I" horiz-adv-x="798" d="M-14 0v63h149l309 1420h-149v61h612v-61h-153l-316 -1420h180v-63h-632z" />
<glyph unicode="J" horiz-adv-x="901" d="M-207 -6q0 34 10 64q11 34 31 58q22 27 50 41q30 15 67 15q57 0 101 -38t44 -109q0 -33 -9 -57q-10 -26 -19 -42q-4 -7 -11 -17.5t-9 -14.5q-9 -15 -9 -27q0 -17 12 -27q11 -10 41 -10q20 0 40 9q19 9 36 35q16 24 33 73q14 39 32 123l310 1413h-211v61h674v-61h-152 l-248 -1192q-30 -145 -87 -247q-57 -103 -127 -165q-71 -63 -151 -93q-81 -30 -157 -30q-70 0 -124 21q-56 22 -91 54q-36 33 -56 76t-20 87z" />
<glyph unicode="K" horiz-adv-x="1511" d="M14 0v63h150l309 1420h-149v61h612v-61h-154l-315 -1420h180v-63h-633zM672 809l764 674h-308v61h543v-61h-129l-600 -531l418 -891h176v-61h-729v61h192z" />
<glyph unicode="L" horiz-adv-x="1282" d="M-59 0v61h200l310 1422h-232v61h776v-61h-235l-318 -1422h263q61 0 122 21t123 69q61 48 121 127q58 78 119 197h82l-123 -475h-1208z" />
<glyph unicode="M" horiz-adv-x="1857" d="M25 0v61h170l309 1422h-168v61h524l115 -987h8l547 987h508v-61h-195l-315 -1420h221v-63h-715v63h191l266 1219h-10l-731 -1282h-43l-156 1282h-8l-267 -1221h203v-61h-454z" />
<glyph unicode="N" horiz-adv-x="1533" d="M-31 0v61h191l309 1422h-209v61h526l457 -960h8l195 899h-193v61h447v-61h-172l-328 -1510h-63l-615 1332h-8l2 16l-274 -1260h213v-61h-486z" />
<glyph unicode="O" horiz-adv-x="1615" d="M133 623q0 170 74 341q73 169 196 302q121 131 284 215q160 82 337 82q132 0 244 -48q111 -47 193 -134q81 -85 127 -200q46 -114 46 -251q0 -175 -73 -345q-73 -171 -198 -306q-127 -138 -285 -219q-161 -83 -335 -83q-130 0 -244 51q-112 50 -194 138t-127 205t-45 252 zM487 379q0 -9 2 -31q10 -151 65 -228q54 -77 177 -77q107 0 189 54q80 53 142 145q60 90 102 204q44 119 67 236q24 122 36 237q11 106 11 209q0 66 -7 126q-8 65 -33 119q-26 55 -75 89q-50 35 -133 35q-104 0 -185 -54q-82 -54 -142 -145q-61 -92 -101 -205 q-40 -114 -66 -238q-24 -116 -37 -242q-12 -120 -12 -216v-18z" />
<glyph unicode="P" horiz-adv-x="1398" d="M-10 0v63h149l310 1420h-201v61h657q279 0 419 -100t140 -275q0 -103 -50 -188q-49 -82 -147 -143q-97 -60 -240 -93q-138 -32 -327 -32h-114l-144 -650h181v-63h-633zM598 764h160q176 0 271 116t95 357q0 67 -9 113t-36 76t-74 43q-50 14 -124 14h-123z" />
<glyph unicode="Q" horiz-adv-x="1615" d="M139 586q0 118 37 235q39 122 102 228q64 107 153 202q86 91 193 163q101 68 218 109q113 40 233 40q133 0 244 -51q107 -49 183 -134t116 -193q41 -111 41 -231q0 -161 -68 -321q-68 -161 -179 -294t-259 -227q-148 -93 -307 -122q-4 -39 -6 -78q-2 -52 -2 -86 q0 -123 62 -179q63 -57 177 -57q31 0 67 3q34 3 77 14l14 -82q-62 -10 -121 -15q-76 -6 -108 -6q-242 0 -371 105t-129 309q0 28 1 46q2 35 5 50q-89 33 -158 90t-116 133q-49 78 -73 163q-26 90 -26 186zM483 348q0 -83 17 -145q17 -60 46 -94q32 -37 73 -51q43 -15 96 -15 q109 0 198 63q89 64 155 165q69 107 114 230q48 131 77 258q29 126 43 249q13 114 13 202q0 58 -9 110q-8 50 -34 91q-24 38 -70 63q-43 23 -119 23q-113 0 -200 -62q-91 -65 -155 -164q-68 -104 -113 -229q-42 -116 -75 -255q-29 -123 -43 -243t-14 -196z" />
<glyph unicode="R" horiz-adv-x="1480" d="M-2 0v63h149l310 1420h-201v61h657q142 0 243 -26q107 -27 175 -75q71 -49 106 -114q36 -66 36 -145q0 -158 -138 -257q-137 -97 -399 -126v-8q92 -27 151 -67q61 -41 96 -95q35 -53 53 -130q18 -75 24 -171q4 -52 6 -99q1 -39 10 -79q8 -34 28 -55q19 -19 60 -19 q26 0 52 8q19 6 50 25l33 -60q-36 -32 -98 -53q-61 -21 -148 -21q-123 0 -190 43q-66 42 -101 113q-34 69 -42 160q-10 119 -13 184q-1 52 -8 116q-6 52 -28 99q-20 42 -65 70q-42 26 -122 26h-72l-161 -725h180v-63h-633zM625 850h141q177 0 271 108q96 110 96 299 q0 55 -11 101q-10 42 -38 70q-28 27 -74 41q-48 14 -121 14h-123z" />
<glyph unicode="S" horiz-adv-x="1189" d="M31 0l75 436h62q73 -391 393 -391q85 0 151 26t108 65q46 42 67 91q22 50 22 103q0 80 -48 131q-46 49 -122 91t-157 78q-84 37 -158 92t-122 132q-48 78 -48 201q0 96 35 189q35 92 99 162t156 114q90 43 206 43q99 0 183 -32t136 -81l82 94h51l-69 -407h-62 q0 85 -28 153q-27 67 -73 111q-45 44 -110 67q-64 23 -133 23q-66 0 -117 -18q-48 -17 -86 -50q-35 -30 -53 -71q-18 -40 -18 -86q0 -78 49 -126q50 -48 123 -87q79 -42 159 -77q86 -38 160 -95q72 -56 123 -144q49 -85 49 -219q0 -121 -42 -220q-42 -100 -116 -172 q-74 -73 -176 -113q-101 -40 -221 -40q-115 0 -205 35q-87 34 -151 92l-103 -100h-71z" />
<glyph unicode="T" horiz-adv-x="1435" d="M180 1051l148 493h1257l-67 -493h-72q0 136 -11 212q-12 84 -43 132t-88 68q-58 20 -147 20h-55l-316 -1420h263v-63h-777v63h211l310 1420h-88q-119 0 -242 -105t-211 -327h-72z" />
<glyph unicode="U" horiz-adv-x="1540" d="M233 348q0 48 13 115l219 1020h-232v61h736v-61h-195l-227 -1020q-8 -32 -11 -62q-4 -40 -4 -57q0 -137 77 -209t206 -72q72 0 138 24q67 24 122 72t97 124q43 79 65 180l219 1020h-205v61h465v-61h-178l-219 -1020q-27 -120 -69 -212q-43 -93 -109 -152 q-69 -61 -164 -91q-99 -31 -229 -31q-126 0 -227 28q-97 27 -161 77t-95 117q-32 69 -32 149z" />
<glyph unicode="V" horiz-adv-x="1261" d="M199 1483v61h653v-61h-162l-67 -1024h8l774 1024h-213v61h450v-61h-161l-1125 -1510h-67l69 1510h-159z" />
<glyph unicode="W" horiz-adv-x="1888" d="M139 1483v61h1553v-61h-121l-354 -469l-37 -584h8l823 1053h-244v61h451v-61h-127l-1165 -1510h-80l33 699l-572 -699h-67l69 1510h-170zM573 430h9l301 356l32 697h-274zM1225 1128l270 355h-248z" />
<glyph unicode="X" horiz-adv-x="1300" d="M-111 0v61h197l498 644l-295 778h-160v61h653v-61h-155l186 -502h8l406 502h-228v61h502v-61h-203l-456 -576l317 -846h174v-61h-674v61h168l-211 566h-8l-440 -566h248v-61h-527z" />
<glyph unicode="Y" horiz-adv-x="1325" d="M137 1483v61h725v-61h-237l266 -717h8l451 717h-230v61h461v-61h-158l-528 -846l-131 -574h242v-63h-777v63h232l131 599l-287 821h-168z" />
<glyph unicode="Z" horiz-adv-x="1370" d="M-2 0v61l1114 1414v8h-309q-116 0 -232 -94q-115 -93 -200 -297h-72l127 452h1049v-61l-1086 -1411v-11h326q67 0 127 18t114 63q57 47 110 126q54 80 114 207h82l-123 -475h-1141z" />
<glyph unicode="[" horiz-adv-x="694" d="M-8 -266l6 61l369 1749h469l-13 -61h-196l-357 -1688h195l-12 -61h-461z" />
<glyph unicode="\" horiz-adv-x="460" d="M160 1544h162l102 -1544h-162z" />
<glyph unicode="]" horiz-adv-x="694" d="M-47 -266l12 61h195l358 1688h-194l12 61h461l-4 -61l-371 -1749h-469z" />
<glyph unicode="^" horiz-adv-x="1067" d="M31 354l440 967h100l445 -967h-152l-344 754l-338 -754h-151z" />
<glyph unicode="_" horiz-adv-x="1142" d="M-186 -143h1196v-111h-1196v111z" />
<glyph unicode="`" horiz-adv-x="614" d="M252 1442q0 60 37 87t90 27q40 0 70 -18t65 -68l240 -335h-129l-301 194q-48 29 -61 63q-11 29 -11 50z" />
<glyph unicode="a" horiz-adv-x="1200" d="M59 340q0 115 51 228q49 109 131 194q83 86 182 134q103 50 202 50q76 0 124 -36q47 -36 80 -111h13l30 123h275l-178 -744q-7 -31 -8 -44l-2 -14t-1 -9q0 -27 25 -27q31 0 87 52q57 52 114 194l51 -19q-24 -72 -54 -124q-35 -61 -80 -106q-47 -47 -106 -75 q-61 -29 -129 -29q-80 0 -129 40t-49 126h-14q-15 -23 -46 -58q-22 -25 -63 -53q-34 -23 -79 -39q-46 -16 -93 -16q-63 0 -126 25q-58 23 -106 71t-74 113q-28 70 -28 154zM350 219q0 -91 20 -125q20 -33 66 -33q31 0 70 15q41 16 79 48q40 34 77 86q36 50 65 130l70 279 q1 6 2.5 17.5t1.5 16.5q2 22 2 29q0 80 -43 132t-92 52q-64 0 -121 -58q-59 -61 -102 -151q-43 -91 -69 -207q-26 -118 -26 -231z" />
<glyph unicode="b" horiz-adv-x="1105" d="M66 276q0 17 3 56q3 43 13 86l254 1065h-191v61h465l-172 -747h8q37 63 106 107q66 42 148 42q56 0 113 -21t106 -67q46 -43 77 -114q30 -69 30 -162q0 -118 -50 -229q-48 -107 -134 -194q-84 -85 -197 -135q-116 -51 -235 -51q-161 0 -253 84q-91 84 -91 219zM313 190 q0 -70 31 -104q30 -33 78 -33q65 0 122 59q57 58 97 152q42 97 65 214q23 115 23 241q0 86 -15 119q-15 32 -59 32q-62 0 -130 -56q-70 -58 -122 -169l-77 -342q-4 -23 -9 -54q-4 -28 -4 -59z" />
<glyph unicode="c" horiz-adv-x="980" d="M45 362q0 107 50 213q49 104 133 188q84 83 193 133q111 50 230 50q73 0 128 -17q60 -18 102 -46q41 -27 66 -69q24 -40 24 -83q0 -53 -36 -98t-118 -45q-68 0 -105 35q-36 34 -36 79q0 36 16 69q17 36 17 63t-21 39t-49 12q-43 0 -81 -26q-37 -25 -75 -98 q-35 -67 -71 -204q-37 -140 -70 -342q-2 -14 -3 -22t-1 -23q0 -62 40 -86q42 -25 109 -25q100 0 206 53q108 54 202 191l51 -39q-82 -135 -208 -211q-125 -76 -281 -76q-101 0 -179 32q-76 31 -128 85q-50 51 -78 123q-27 69 -27 145z" />
<glyph unicode="d" horiz-adv-x="1247" d="M74 344q0 117 50 228q50 110 131 193q82 83 182 132q101 49 202 49q83 0 135 -36q55 -37 88 -113h8l166 686h-225v61h516l-323 -1366q-9 -38 -9 -44q0 -5 -0.5 -10t-1 -8t-0.5 -5q0 -27 25 -27q31 0 87 52q57 52 114 194l51 -19q-22 -67 -55 -124q-37 -64 -79 -106 q-47 -47 -106 -75q-61 -29 -129 -29q-80 0 -129 40t-49 126h-14q-20 -27 -51 -58q-28 -28 -67 -53q-37 -24 -84 -39q-50 -16 -99 -16q-64 0 -126 25q-60 24 -107 71q-48 48 -74 114q-27 69 -27 157zM365 219q0 -93 19 -125q20 -33 67 -33q29 0 74 16q42 15 85 49 q42 33 83 88t71 134l70 289q0 4 1 11.5t2 11.5q1 8 1 24q0 37 -14 73q-13 34 -36 58q-23 25 -51 38q-27 13 -57 13q-62 0 -119 -60t-101 -154q-45 -96 -70 -208t-25 -225z" />
<glyph unicode="e" horiz-adv-x="1032" d="M55 362q0 109 50 215q48 102 136 187q86 83 193 132q109 50 225 50q73 0 131 -19q60 -19 105 -54q48 -36 70 -80q24 -47 24 -103q0 -59 -28 -111q-29 -54 -85 -92q-54 -37 -141 -62q-84 -24 -194 -24q-51 0 -78 1q-41 2 -78 6q-7 -31 -17 -92q-1 -7 -7 -43.5t-9 -57.5 q-2 -14 -3 -22t-1 -23q0 -62 40 -86q42 -25 110 -25q99 0 205 53q108 54 202 191l51 -39q-83 -136 -207 -211q-125 -76 -282 -76q-101 0 -179 32q-76 31 -128 85q-50 51 -78 123q-27 69 -27 145zM397 475h80q71 0 125 20q55 20 88 52q34 33 51 78q17 46 17 96q0 71 -30 117 q-30 47 -87 47q-28 0 -59 -17q-32 -18 -63 -60q-32 -44 -62 -124q-33 -88 -60 -209z" />
<glyph unicode="f" horiz-adv-x="655" d="M-395 -481q0 55 31 92t96 37q62 0 92 -33q31 -34 31 -74q0 -31 -14 -53q-13 -20 -13 -45q0 -35 47 -35q24 0 46 17q23 18 46 81q27 75 58 198q21 84 81 364l166 792h-194v62h207q39 165 103 285q67 126 143 202q79 79 165 120q84 40 168 40q100 0 170 -56t70 -147 q0 -58 -32 -98q-32 -39 -97 -39q-59 0 -94 33t-35 86q0 26 7 43q10 23 14 31q5 9 15 25q7 11 7 23q0 16 -12 27q-11 10 -41 10q-38 0 -70 -23q-35 -26 -64 -79q-32 -58 -58 -148q-27 -91 -54 -231l-21 -104h248v-62h-260l-100 -502q-52 -266 -125 -463q-71 -192 -155 -318 q-81 -122 -175 -182q-92 -59 -190 -59q-53 0 -95 16q-39 15 -63 42q-26 29 -37 58q-12 32 -12 67z" />
<glyph unicode="g" horiz-adv-x="1083" d="M-121 -360q0 36 10 69q11 36 37 69q27 34 73 64q51 33 118 58v8q-46 28 -80 76q-35 50 -35 125q0 56 19 98q19 43 50 75q30 32 65 55q31 21 69 38q-36 38 -53 89q-17 49 -17 99q0 85 42 155q43 72 111 121q73 52 156 79q87 28 181 28q69 0 120 -15t89 -41q36 -24 61 -59 q30 -42 43 -65h10q29 88 64 137q33 47 92 47q48 0 70 -24q22 -23 22 -60q0 -29 -19 -58q-19 -30 -67 -30q-30 0 -47 12q-15 11 -27 11q-15 0 -30 -34q-14 -33 -31 -124q-5 -90 -43 -158q-39 -68 -104 -117q-66 -49 -150 -74q-87 -26 -180 -26q-81 0 -141 18t-103 46 q-109 -29 -109 -111q0 -17 9 -37q7 -15 29 -26q21 -10 62 -18t101 -9l369 -12q108 -5 167 -74q58 -68 58 -188q0 -92 -37 -182q-38 -93 -111 -163q-76 -73 -192 -119t-276 -46q-212 0 -328 79q-117 80 -117 214zM55 -356q0 -226 291 -226q120 0 212 33q93 34 152 82 q62 51 91 106q30 57 30 103q0 54 -38 77q-36 22 -111 27l-471 31q-5 0 -6 1t-6 1q-84 -50 -113 -107q-31 -60 -31 -128zM385 451q0 -69 18 -100q18 -32 70 -32q68 0 116 50q49 50 78 119q28 65 44 151q14 74 14 143q0 55 -14 83q-15 30 -68 30q-65 0 -114 -44 q-45 -41 -80 -111q-35 -69 -49 -144q-15 -78 -15 -145z" />
<glyph unicode="h" horiz-adv-x="1196" d="M27 0l360 1483h-176v61h473l-201 -803h13q27 35 68 76q37 37 83 66q43 27 99 46q51 17 118 17q46 0 85 -10t70 -32q29 -20 47 -55q17 -33 17 -81q0 -39 -12 -90l-127 -496q-7 -31 -8 -43q-2 -22 -2 -26q0 -41 33 -41q40 0 93 56q54 57 109 189l52 -18q-34 -94 -77 -159 q-41 -61 -87 -98q-43 -35 -94 -50q-49 -15 -99 -15q-94 0 -148 46q-52 45 -52 131q0 15 2 35q2 15 6 30l131 510q4 13 7 38q3 24 3 38q0 47 -49 47q-30 0 -77 -24q-50 -26 -93 -66q-48 -45 -92 -105q-47 -64 -74 -137l-129 -520h-272z" />
<glyph unicode="i" horiz-adv-x="675" d="M98 860v62h473l-172 -744q-7 -33 -8 -45q0 -3 -0.5 -7t-1 -6.5t-0.5 -5v-3.5q0 -35 27 -35q17 0 41 12q21 11 54 40q26 24 61 75q35 52 63 116l51 -18q-57 -168 -156 -246t-239 -78q-80 0 -129 40t-49 126q0 17 1 26q2 22 5 32q1 5 2.5 12t4 17t3.5 16q8 37 16 67 l136 547h-183zM342 1343q0 68 47 115t115 47q67 0 114 -47q48 -48 48 -115q0 -66 -48 -114q-47 -47 -114 -47q-68 0 -115 47t-47 114z" />
<glyph unicode="j" horiz-adv-x="587" d="M-387 -485q0 54 34 85t93 31q54 0 84 -27q31 -28 31 -87q0 -22 -5 -42q-4 -16 -4 -32q0 -12 8 -22q8 -9 25 -9q9 0 22 7q12 7 30 43q14 28 41 109q25 74 53 204l241 1085h-178v62h473l-207 -928q-44 -196 -103 -322q-59 -124 -129 -201q-69 -75 -139 -105 q-71 -30 -137 -30q-45 0 -90 14q-42 13 -74 36q-34 25 -51 55q-18 33 -18 74zM322 1343q0 68 47 115t114 47q68 0 115 -47t47 -115q0 -67 -47 -114t-115 -47q-67 0 -114 47t-47 114z" />
<glyph unicode="k" horiz-adv-x="1112" d="M27 0l360 1483h-176v61h473l-246 -989q31 17 73 23t71 6q53 58 86 118q38 70 69 118q33 52 79 90q44 36 114 36q48 0 80 -16t53 -40t30 -52t9 -54q0 -46 -31 -83q-29 -35 -94 -35q-49 0 -83 24t-34 78q0 11 2 31t2 24q0 25 -16 25q-19 0 -43 -34q-34 -48 -52 -80 q-9 -16 -27.5 -46t-27.5 -46q-29 -50 -47 -73q75 -23 118 -51q44 -29 68 -59q23 -28 31 -63q9 -38 9 -64q0 -52 -11 -107q-10 -50 -10 -94q0 -29 7 -40t24 -11q34 0 81 53q46 52 93 164l55 -27q-73 -154 -155 -225q-84 -72 -187 -72q-37 0 -76 11q-37 10 -66 32 q-28 21 -47 58q-18 34 -18 84q0 41 12 80q18 57 24 75q9 25 25 73q11 33 11 71q0 41 -31 63q-26 -26 -62 -41q-34 -14 -69 -14q-34 0 -59 14l-119 -479h-272z" />
<glyph unicode="l" horiz-adv-x="638" d="M98 137q0 21 5 61q1 5 14 72l270 1213h-145v61h434l-326 -1366q-7 -31 -8 -44q0 -5 -0.5 -10t-1 -8t-0.5 -5q0 -27 25 -27q29 0 78 52q52 55 102 194l51 -19q-51 -168 -137 -251t-191 -83q-88 0 -129 49t-41 111z" />
<glyph unicode="m" horiz-adv-x="1640" d="M72 0l196 860h-178v62h473l-39 -162h11q56 79 130 132q75 54 175 54q91 0 138 -53q45 -51 50 -174h10q26 41 62 84q36 42 77 73t92 51q48 19 107 19q38 0 76 -9t66 -30q28 -20 46 -51q17 -28 17 -74q0 -39 -12 -90l-131 -510q-7 -31 -8 -43q0 -5 -1.5 -13.5t-1.5 -12.5 q0 -41 33 -41q34 0 75 47q39 45 89 157l51 -18q-34 -88 -68 -138q-37 -56 -76 -86q-42 -33 -83 -44q-47 -13 -90 -13q-95 0 -149 46q-52 45 -52 131q0 15 2 35q1 15 6 30l131 510q6 19 8 38q3 24 3 40q0 45 -37 45q-22 0 -60 -24q-35 -22 -76 -65q-39 -41 -77 -101 q-38 -61 -62 -134l-104 -528h-279l158 729q4 13 7 38q3 24 3 40q0 45 -37 45q-23 0 -58 -18q-31 -16 -71 -53q-36 -33 -71 -82q-38 -53 -60 -105l-139 -594h-272z" />
<glyph unicode="n" horiz-adv-x="1212" d="M72 0l207 860h-179v62h473l-51 -203h15q29 41 68 84q40 43 84 73q46 31 101 51q53 19 115 19q41 0 79 -9q39 -9 67 -30q28 -20 46 -51q17 -28 17 -74q0 -39 -12 -90l-131 -510q-7 -31 -8 -43q-2 -22 -2 -26q0 -41 32 -41q40 0 93 56q56 59 110 189l51 -18 q-34 -94 -77 -159q-41 -61 -87 -98q-43 -35 -94 -50q-49 -15 -98 -15q-95 0 -149 46q-52 45 -52 131q0 15 2 35q2 15 6 30l131 510q6 19 8 38q3 24 3 40q0 45 -39 45q-26 0 -71 -25q-43 -24 -92 -68q-43 -39 -94 -108q-45 -61 -73 -143l-127 -508h-272z" />
<glyph unicode="o" horiz-adv-x="1138" d="M47 346q0 111 52 218q52 106 140 193q85 84 201 137q113 52 242 52q91 0 166 -28q74 -28 130 -79q53 -49 84 -118q30 -67 30 -148q0 -109 -53 -218q-52 -107 -140 -192q-87 -84 -204 -137t-240 -53q-88 0 -166 29q-75 28 -129 79q-53 50 -83 118q-30 67 -30 147zM352 229 q0 -89 22 -138q21 -46 87 -46q78 0 138 61q61 62 101 156q43 100 63 209q21 114 21 219q0 92 -21 138t-87 46q-78 0 -138 -61q-63 -64 -102 -156q-42 -97 -62 -208q-22 -119 -22 -220z" />
<glyph unicode="p" d="M-236 -571h152l340 1431h-178v62h473l-35 -138h8q20 31 48 58q29 28 67 52q35 22 82 38q42 14 98 14q69 0 128 -25q60 -26 107 -74q45 -47 73 -119q28 -73 28 -161q0 -111 -44 -219q-42 -104 -119 -188q-75 -83 -175 -132q-104 -51 -211 -51q-98 0 -154 40 q-57 40 -87 110h-9l-170 -698h201v-62h-623v62zM397 262q0 -84 45 -144q46 -61 119 -61q53 0 97 35q43 34 78 92t59 128q26 76 40 145q14 68 22 141q7 63 7 117q0 83 -20 114q-21 33 -66 33q-33 0 -71 -14q-42 -16 -84 -46q-41 -30 -83 -84t-71 -126l-72 -297v-33z" />
<glyph unicode="q" horiz-adv-x="1163" d="M72 340q0 118 51 228t132 194q83 86 182 134q103 50 202 50q83 0 132 -36q51 -37 85 -109h8l29 121h281l-365 -1493h172v-62h-621v62h177l170 714h-11q-19 -26 -48 -58q-26 -28 -64 -53q-38 -24 -81 -39q-46 -16 -97 -16q-64 0 -126 25q-60 24 -107 71q-48 48 -74 113 q-27 67 -27 154zM362 221q0 -91 20 -126q19 -34 67 -34q35 0 78 18q48 20 88 57q43 40 84 104q40 63 69 155l55 240l2.5 15t1.5 12q2 16 2 26q0 77 -46 127q-47 51 -105 51q-61 0 -118 -58q-55 -57 -100 -151q-44 -93 -71 -206q-27 -114 -27 -230z" />
<glyph unicode="r" horiz-adv-x="894" d="M86 0l207 860h-178v62h473l-43 -170h12q78 103 134 147q59 47 126 47q42 0 67 -14q29 -16 46 -36q19 -22 26 -47q9 -31 9 -46q0 -20 -10 -47q-10 -26 -25 -44q-17 -20 -41 -32t-55 -12q-34 0 -57 13q-22 12 -42 29q-7 5 -18.5 14.5t-16.5 13.5q-17 14 -32 14 q-25 0 -54 -31q-28 -30 -56 -79q-31 -56 -52 -106q-28 -68 -43 -112l-105 -424h-272z" />
<glyph unicode="s" horiz-adv-x="843" d="M0 184q0 65 39 95t92 30q64 0 94 -36q31 -37 31 -76q0 -36 -15 -54q-16 -19 -16 -41t28 -39q26 -16 99 -16q98 0 142 33q43 33 43 74q0 38 -30 70t-74 65q-21 16 -95 66q-54 37 -95 76q-45 44 -74 94q-30 53 -30 120q0 61 27 117q27 55 74 96q48 42 112 65q63 23 144 23 q59 0 108 -13q50 -13 90 -38t62 -57t22 -72q0 -44 -27 -75q-27 -32 -83 -32q-54 0 -85 31q-30 30 -30 70q0 23 6 41t6 35q0 28 -28 38q-30 11 -64 11q-24 0 -52 -5q-25 -4 -47 -17q-25 -14 -35 -28q-13 -17 -13 -40q0 -36 29 -64q32 -30 75 -59q9 -6 43 -29t54 -36 q54 -36 98 -78q43 -42 74 -100q30 -57 30 -130q0 -71 -31 -133q-29 -57 -85 -101q-55 -43 -129 -65q-77 -23 -162 -23q-147 0 -235 59q-87 58 -87 148z" />
<glyph unicode="t" horiz-adv-x="712" d="M102 135q0 23 7 68q6 37 12 67l133 590h-123v62h137l58 254h274l-59 -254h196v-62h-211l-155 -682q-9 -39 -9 -43l-2 -22q0 -39 41 -39q39 0 102 51t126 184l51 -18q-29 -74 -74 -137q-44 -61 -94 -99q-49 -38 -110 -58q-60 -20 -115 -20q-100 0 -143 49q-42 48 -42 109z " />
<glyph unicode="u" d="M84 860v62h489l-186 -727q-4 -13 -7 -38q-3 -24 -3 -40q0 -45 39 -45q24 0 67 22q42 22 90 65q54 49 92 101q45 62 74 133l131 529h275l-178 -744q-9 -38 -9 -44q0 -5 -0.5 -10t-1 -8t-0.5 -5q0 -27 25 -27q31 0 87 52q57 52 114 194l51 -19q-24 -72 -54 -124 q-35 -61 -80 -106q-47 -47 -106 -75q-61 -29 -129 -29q-80 0 -129 40t-49 126q0 17 1 25q3 23 5 33h-12q-25 -36 -70 -83q-41 -43 -85 -71q-48 -31 -99 -50q-54 -20 -115 -20q-37 0 -79 10q-40 9 -66 29q-27 20 -46 52q-18 30 -18 73q0 33 13 90l161 629h-192z" />
<glyph unicode="v" horiz-adv-x="1048" d="M57 631q66 155 144 235t192 80q94 0 137 -49t43 -127q0 -22 -3 -39q0 -1 -2.5 -15.5t-4.5 -23.5l-110 -459q-9 -41 -9 -59q0 -92 80 -92q51 0 98 34q51 37 89 86q41 54 75 115q39 71 60 125q25 65 38 114q13 51 13 81q0 43 -31 55q-37 15 -66 22q-38 9 -67 30 q-31 22 -31 83t34 95t100 34q69 0 110 -47t41 -161q0 -74 -16 -157q-17 -86 -49 -170t-81 -166q-47 -80 -111 -142q-66 -64 -140 -100q-79 -38 -168 -38q-103 0 -173 55q-69 54 -69 171q0 38 13 92l118 440q7 31 8 43q0 4 1.5 13.5t1.5 13.5q0 39 -33 39q-36 0 -79 -52 q-45 -55 -106 -182z" />
<glyph unicode="w" horiz-adv-x="1589" d="M70 631q66 157 143 235q78 80 193 80q94 0 137 -49t43 -121q0 -21 -3 -39q-1 -5 -3.5 -20t-4.5 -25l-102 -499q-8 -37 -8 -58q0 -33 11 -43t26 -10q38 0 87 52q48 51 106 158q56 104 114 263q55 152 106 367h283l-98 -482q-18 -88 -23 -145q-6 -63 -6 -92q0 -121 76 -121 q39 0 79 33q39 32 76 84q37 53 66 113q33 69 53 124q21 59 36 112q13 48 13 79q0 29 -14 43q-13 13 -36 21q-21 7 -47 12q-22 4 -47 18q-20 11 -36 34q-14 20 -14 62q0 60 34 94q35 35 99 35q67 0 107 -43t40 -153q0 -66 -15 -148q-14 -77 -46 -168q-30 -86 -74 -169 q-45 -86 -98 -147q-56 -65 -123 -104q-68 -39 -143 -39q-109 0 -173 78q-65 79 -65 205q0 36 6 76l15 96h-9q-29 -72 -56 -131q-36 -77 -88 -149q-52 -71 -122 -123t-157 -52q-42 0 -81 14t-67 39t-46 64q-17 37 -17 88q0 40 12 90l115 463q7 27 8 42q2 24 2 28q0 39 -33 39 q-36 0 -79 -52t-105 -182z" />
<glyph unicode="x" horiz-adv-x="1052" d="M-37 98q0 47 32 88t93 41q32 0 49 -10q21 -12 32 -22q18 -16 27 -23q13 -10 31 -10q10 0 22 6q11 5 30 28q25 29 49 64q59 85 78 115l-70 377q-6 35 -17 56q-7 15 -24 15q-29 0 -65 -48q-34 -45 -95 -175l-47 18q30 75 63 133q35 62 74 103q41 44 91 68t112 24 q72 0 121 -42t72 -159l8 -45h10q87 133 149 189q63 57 130 57q55 0 88 -34q32 -33 32 -85q0 -48 -29 -86q-30 -39 -87 -39q-28 0 -48 10q-18 9 -33 21q-20 16 -29 22q-13 9 -28 9q-19 0 -36 -14q-22 -18 -37 -37q-19 -23 -35 -53q-19 -35 -29 -62l88 -461q7 -49 41 -49 q39 0 78 52q36 48 104 186l48 -25q-34 -72 -69 -132q-35 -62 -74 -103q-42 -45 -88 -68q-50 -25 -111 -25q-84 0 -143 53t-83 181l-16 86h-8q-57 -90 -107 -156q-42 -56 -86 -98q-37 -36 -71 -51q-33 -15 -66 -15q-61 0 -91 40q-30 41 -30 85z" />
<glyph unicode="y" horiz-adv-x="1120" d="M-131 -485q0 57 37 90q38 33 92 33q49 0 74 -25q23 -23 39 -55q6 -12 14.5 -33t9.5 -23q11 -24 33 -24q25 0 70 39q43 38 100 108q52 64 117 163q53 81 120 204l-262 725q-18 50 -26 63q-11 19 -29 19q-27 0 -57 -47q-32 -49 -88 -172l-62 28q37 76 73 137t77 107t91 70 q49 24 118 24q61 0 103 -26q45 -28 73 -107l149 -440h8l152 403q37 101 84 136q46 34 102 34q68 0 98 -35q29 -33 29 -88q0 -57 -34 -94t-95 -37q-31 0 -52 15q-20 14 -38 14q-14 0 -26 -13q-13 -15 -31 -59l-199 -479q-73 -177 -162 -328t-179 -257q-92 -109 -181 -168 q-90 -60 -172 -60q-83 0 -126 48q-44 49 -44 110z" />
<glyph unicode="z" horiz-adv-x="1011" d="M18 49q0 10 6 30q4 14 20 36q12 17 43 48q19 19 75 66l536 453l-4 6q-79 -23 -155 -33q-74 -10 -133 -10q-45 0 -84 3q-38 3 -80 20l-76 -150l-55 23l178 381h51q116 -36 249 -52q134 -16 277 -16q17 0 21 14q6 20 9 32q4 17 16 32q11 14 42 14q54 0 54 -45 q0 -40 -52 -84l-630 -526v-8q118 0 193 -12q88 -14 122 -24q53 -15 77 -25q28 -11 58 -11q46 0 64 26q18 25 18 42q0 18 -22 24q-1 0 -20 5t-29 8q-25 8 -48 24q-22 16 -22 57q0 47 31 70q29 22 67 22q54 0 82 -43q29 -44 29 -114q0 -63 -25 -129q-24 -64 -68 -115 q-43 -50 -105 -83q-61 -32 -134 -32q-59 0 -113 20q-58 22 -103 42q-45 21 -98 42q-47 19 -98 19q-12 0 -18 -3t-6 -15q0 -10 3 -24t3 -25q0 -24 -19 -40t-49 -16q-36 0 -57 21t-21 55z" />
<glyph unicode="{" horiz-adv-x="655" d="M70 -70q0 32 8 80q8 45 18 96q19 88 42 198q19 91 23 112q8 39 9 55q2 22 2 29q0 60 -20 86t-82 26l10 56q41 0 67 11q31 13 51 39q22 28 38 74q13 36 30 115l58 264q24 119 54 190q31 75 85 114q55 40 146 55q85 14 241 14l-12 -61q-47 0 -88 -13q-36 -11 -64 -43 q-27 -30 -45 -81q-19 -55 -35 -129l-65 -316q-16 -68 -35 -110q-22 -48 -52 -76q-32 -31 -75 -47q-45 -17 -103 -23l-2 -8q90 -12 129 -54t39 -114q0 -6 -2 -26q-1 -14 -9 -55q-12 -66 -23 -116q-2 -10 -18.5 -84t-27.5 -127q-10 -51 -15 -81q-5 -33 -5 -60q0 -71 32 -98 t105 -27l-12 -61q-213 0 -305 45t-92 151z" />
<glyph unicode="|" horiz-adv-x="792" d="M377 -322v1885h162v-1885h-162z" />
<glyph unicode="}" horiz-adv-x="655" d="M-86 -266l12 61q50 0 88 12q34 11 64 44q27 30 45 81q19 55 35 129l65 316q16 68 35 110q22 48 52 76q32 31 75 47q46 17 102 23l2 8q-90 12 -129 54q-38 41 -38 114q0 6 2 26q1 14 9 55q12 66 23 116q21 100 45 211q14 69 16 81q5 33 5 60q0 71 -32 98t-105 27l12 61 q213 0 305 -45t92 -151q0 -32 -8 -80q-8 -50 -18 -97q-24 -112 -42 -197q-19 -91 -23 -112q-8 -39 -9 -55q-2 -22 -2 -29q0 -60 20 -86t82 -26l-10 -56q-44 0 -69 -11q-29 -13 -49 -39q-22 -28 -38 -74q-13 -36 -30 -115l-58 -264q-24 -119 -54 -190q-31 -75 -85 -114 q-55 -40 -146 -55q-85 -14 -241 -14z" />
<glyph unicode="~" horiz-adv-x="1013" d="M55 528q21 33 55 72q35 40 64 63q35 27 79 44q42 16 99 16q51 0 102 -20q58 -23 97 -43q37 -19 94 -43q45 -19 94 -19q71 0 109 37q40 38 76 92l104 -92l-54 -69q-24 -31 -62 -59t-73 -41q-41 -15 -91 -15q-53 0 -101 19q-52 20 -97 43q-43 21 -96 43q-47 19 -98 19 q-41 0 -67 -11q-32 -13 -51 -30q-20 -18 -42 -46q-20 -27 -38 -56z" />
<glyph unicode="&#xa1;" horiz-adv-x="671" d="M-59 -500q0 67 35 144q52 114 87 191q57 124 109 261q58 152 98 353h62q-32 -159 -43 -307q-10 -136 -10 -263q0 -57 1 -85t1 -80q0 -47 1 -67t1 -44q0 -68 -16 -121q-15 -49 -41 -80q-27 -31 -59 -44q-33 -13 -71 -13q-74 0 -114 45q-41 46 -41 110zM190 756 q0 73 52 125q51 51 127 51q74 0 125 -51t51 -125q0 -76 -51 -127t-125 -51q-76 0 -127 51q-52 52 -52 127z" />
<glyph unicode="&#xa2;" horiz-adv-x="995" d="M129 659q0 101 47 203q45 97 127 179q78 78 185 130q106 52 223 56l71 276h60l-72 -276q60 -4 114 -23q51 -18 90 -47q38 -29 58 -65q21 -38 21 -78q0 -54 -36 -99t-118 -45q-68 0 -105 35q-36 35 -36 80q0 36 16 69q17 36 17 62q0 37 -37 47l-211 -805h28q100 0 206 53 q108 54 202 191l51 -39q-82 -135 -208 -211q-125 -76 -281 -76h-21l-67 -264h-60l70 269q-82 12 -145 48q-60 34 -104 86q-42 49 -63 113q-22 66 -22 131zM422 469q0 -76 65 -98l207 794q-36 -6 -71 -38q-34 -31 -69 -104q-34 -71 -66 -196q-33 -129 -62 -313q-2 -14 -3 -22 t-1 -23z" />
<glyph unicode="&#xa3;" horiz-adv-x="1210" d="M-47 102q0 41 17 74q19 36 49 62q31 26 76 42q43 15 98 15q28 0 71 -5q35 -4 70 -11q0 1 13 50q11 43 11 105q0 70 -14 139q-14 68 -22 154h-187l23 100h161q6 109 47 222q40 110 116 198t190 144q111 55 262 55q140 0 220 -51q79 -51 79 -150q0 -61 -36 -110 q-36 -50 -110 -50q-63 0 -90 35q-26 33 -26 74q0 30 11 48q13 21 25 33l24 24q11 11 11 24q0 18 -27 30q-25 11 -75 11q-79 0 -131 -32t-82 -85q-30 -52 -42 -127q-11 -67 -11 -155v-138h291l-23 -100h-270q-4 -71 -18 -136q-14 -67 -34 -124q-15 -43 -53 -119 q-29 -58 -69 -121q45 -12 98 -18q52 -6 100 -6q129 0 211 49q83 50 117 166h80q-16 -75 -45 -157q-27 -77 -76 -148q-45 -66 -117 -111q-68 -43 -170 -43q-83 0 -150 35t-122 117q-48 -66 -126 -108q-80 -44 -169 -44q-77 0 -127 38q-49 37 -49 105zM41 113q0 -37 27 -60 q26 -22 63 -22q29 0 54 13q25 14 45 33q20 20 35 44t26 49q-16 15 -57 31q-35 14 -72 14q-46 0 -84 -30q-37 -30 -37 -72z" />
<glyph unicode="&#xa4;" horiz-adv-x="1411" d="M287 352l108 127q-40 60 -64 128q-24 69 -24 147q0 152 86 274l-106 127l106 96l103 -116q60 47 133 72q75 26 157 26q81 0 156 -26q74 -25 135 -72l105 116l106 -96l-108 -127q39 -58 64 -129q24 -69 24 -145q0 -78 -24 -147q-24 -68 -64 -128l108 -127l-106 -96 l-105 117q-65 -49 -135 -72q-77 -25 -156 -25q-78 0 -155 25q-69 23 -133 72l-105 -117zM471 754q0 -64 25 -123t67 -100q43 -42 101 -66q59 -25 122 -25t124 25q58 24 102 66q42 41 67 100t25 123t-25 123q-24 57 -67 100t-102 67q-61 25 -124 25t-122 -25t-101 -67 q-43 -43 -67 -100q-25 -59 -25 -123z" />
<glyph unicode="&#xa5;" horiz-adv-x="1284" d="M82 1337v62h725v-62h-236l265 -653h8l450 653h-229v62h461v-62h-160l-448 -665h301l-25 -101h-344l-14 -24l-35 -133h364l-24 -101h-367l-63 -250h239v-63h-776v63h234l61 250h-336l25 101h336l38 157h-346l25 101h289l-248 665h-170z" />
<glyph unicode="&#xa6;" horiz-adv-x="792" d="M395 -322v832h162v-832h-162zM395 711v852h162v-852h-162z" />
<glyph unicode="&#xa7;" horiz-adv-x="1062" d="M72 -115q0 69 40 116q40 48 109 48q53 0 79 -27q26 -28 26 -71q0 -34 -15 -55q-15 -22 -32 -34q-18 -14 -33 -27t-15 -36q0 -34 35 -46q32 -11 78 -11q36 0 77 7q46 8 83 25t65 48q27 30 27 80q0 52 -35 101q-35 48 -86 95q-74 68 -111 98q-62 51 -112 110 q-52 61 -86 132q-35 73 -35 162q0 130 73 224q72 93 191 132q-26 45 -42 97q-15 50 -15 106q0 81 35 153q34 70 95 123q60 53 141 81q80 28 175 28q76 0 129 -18t87 -48t51 -69q16 -38 16 -78q0 -63 -37 -109t-108 -46q-55 0 -81 25q-28 26 -28 67q0 34 14 51q15 18 33 33 q4 3 15.5 12.5t17.5 14.5q14 13 14 36q0 34 -34 46t-80 12q-50 0 -95 -12q-42 -11 -78 -33q-34 -21 -54 -54q-19 -32 -19 -76q0 -58 35 -108q33 -47 87 -95q66 -58 113 -94q62 -47 114 -102t87 -123t35 -155q0 -126 -72 -219q-73 -94 -190 -134q27 -48 40 -91 q15 -48 15 -103q0 -86 -36 -160q-37 -75 -97 -128q-63 -56 -144 -85q-85 -31 -180 -31q-74 0 -129 19q-53 18 -87 48q-34 29 -50 68q-16 38 -16 80zM358 776q0 -61 38 -114q42 -59 93 -107q78 -73 118 -109q65 -57 112 -120q31 23 51 55q21 33 21 74q0 56 -37 106 q-39 53 -90 104q-32 32 -116 108q-64 58 -112 122q-30 -18 -53 -43q-25 -28 -25 -76z" />
<glyph unicode="&#xa8;" horiz-adv-x="696" d="M242 1366q0 55 40 95t95 40t95 -40t40 -95t-40 -95t-95 -40t-95 40t-40 95zM631 1366q0 55 40 95t95 40t95 -40t40 -95t-40 -95t-95 -40t-95 40t-40 95z" />
<glyph unicode="&#xa9;" horiz-adv-x="1746" d="M174 604q0 196 79 366q80 172 210 299t301 201t352 74q141 0 261 -47q118 -46 201 -131q84 -85 128 -202q45 -118 45 -259q0 -185 -76 -352q-78 -171 -206 -296q-132 -129 -302 -203t-364 -74q-147 0 -263 45t-198 127q-81 82 -125 197q-43 114 -43 255zM274 614 q0 -113 38 -212q36 -94 108 -169q68 -71 170 -112t223 -41q166 0 314 68q151 69 267 184q116 114 185 263q70 151 70 308q0 120 -40 218q-41 99 -111 171t-169 112q-98 40 -217 40q-105 0 -210 -32t-195 -88q-97 -60 -172 -134q-83 -81 -138 -170q-56 -90 -90 -196 q-33 -104 -33 -210zM494 690q0 106 48 207q47 99 128 178q80 79 186 125q108 47 223 47q63 0 115 -15q54 -15 100 -54l60 59h28l-57 -272h-39q0 43 -9 82q-9 38 -30 68q-22 31 -54 48q-36 19 -83 19q-64 0 -118 -31q-50 -29 -91 -82q-39 -50 -66 -116q-28 -67 -44 -132 q-18 -75 -25 -132q-8 -69 -8 -114q0 -103 36 -149q36 -47 132 -47q115 0 182 58t106 147h41l-55 -256h-31l-28 55q-64 -36 -130 -53q-73 -19 -137 -19q-88 0 -158 30t-120 81q-48 49 -76 121q-26 66 -26 147z" />
<glyph unicode="&#xaa;" horiz-adv-x="823" d="M252 1174q0 73 31 146q30 69 82 125q53 56 113 86q64 32 128 32q58 0 86 -28q26 -26 43 -71h8l19 78h180l-98 -391q-10 -35 -15 -57q-4 -20 -4 -41q0 -37 21 -37q46 0 106 141l47 -12q-35 -99 -87 -153t-126 -54q-40 0 -81 23q-42 23 -46 88h-8q-30 -55 -74 -82 q-47 -29 -108 -29q-89 0 -153 61t-64 175zM451 1126q0 -106 65 -106q36 0 80 37q45 38 82 141l39 158q0 52 -20 90q-19 37 -62 37t-77 -39q-34 -38 -58 -94q-26 -60 -37 -117q-12 -61 -12 -107z" />
<glyph unicode="&#xab;" horiz-adv-x="1081" d="M117 428l10 45l528 371l27 -23l-264 -370l108 -363l-37 -31zM492 428l10 45l528 371l27 -23l-264 -370l108 -363l-37 -31z" />
<glyph unicode="&#xac;" horiz-adv-x="1142" d="M61 567v101h1020v-555h-190v454h-830z" />
<glyph unicode="&#xad;" horiz-adv-x="849" d="M123 373v131h604v-131h-604z" />
<glyph unicode="&#xae;" horiz-adv-x="1746" d="M152 604q0 198 78 366q80 172 210 299t301 201t353 74q141 0 261 -47q116 -46 200 -131t128 -202q46 -121 46 -259q0 -185 -76 -352q-78 -171 -206 -296q-132 -129 -302 -203t-365 -74q-148 0 -263 45q-116 45 -198 127q-80 80 -124 197q-43 114 -43 255zM252 614 q0 -113 38 -212q37 -96 107 -169q68 -71 170 -112t224 -41q166 0 314 68q149 69 266 184q116 114 185 263q70 151 70 308q0 120 -40 218q-41 101 -110 171q-70 72 -169 112q-98 40 -217 40q-105 0 -210 -32q-107 -33 -196 -88q-97 -60 -172 -134q-80 -78 -137 -170 q-56 -90 -90 -196q-33 -104 -33 -210zM446 330l9 65h80l167 772h-77l6 66h385q167 0 252 -55q86 -56 86 -148q0 -101 -92 -167t-250 -77v-8q77 -28 115 -50q43 -25 63 -53q20 -29 25 -70q8 -71 10 -99q1 -39 10 -81q7 -36 49 -36q30 0 51 21l19 -39q-16 -18 -39 -30 q-21 -11 -86 -11q-95 0 -144 23q-50 24 -76 63t-33 91q-5 37 -11 109q-5 61 -19 108q-15 50 -59 60h-39l-86 -389h137l-8 -65h-445zM862 844h96q78 0 120 53t42 147q0 59 -22 91t-97 32h-67z" />
<glyph unicode="&#xaf;" horiz-adv-x="768" d="M236 1284l38 176h697l-39 -176h-696z" />
<glyph unicode="&#xb0;" horiz-adv-x="784" d="M281 1249q0 74 24 131q24 58 67 99q43 42 97 62q58 22 119 22q68 0 125 -26q54 -25 95 -69q40 -43 61 -100q22 -60 22 -123q0 -69 -25 -128q-23 -54 -65 -96q-38 -38 -98 -60q-57 -21 -117 -21q-61 0 -118 21q-59 22 -97 60q-43 43 -66 97q-24 57 -24 131zM410 1253 q0 -88 48 -145t132 -57q82 0 128 55t46 145q0 84 -44 142q-44 57 -130 57t-133 -54q-47 -55 -47 -143z" />
<glyph unicode="&#xb1;" d="M141 78v110h1020v-110h-1020zM141 831v111h455v496h111v-496h454v-111h-454v-495h-111v495h-455z" />
<glyph unicode="&#xb2;" horiz-adv-x="757" d="M227 938l27 119l215 149q68 47 110 92q41 44 64 87q23 42 30 81q7 36 7 74q0 82 -31 118q-30 34 -82 34q-30 0 -57 -12q-32 -14 -45 -25q-19 -16 -29 -30t-10 -23q0 -15 17 -21q7 -2 21.5 -7.5t17.5 -6.5q22 -8 40 -26q19 -19 19 -52q0 -41 -27 -65q-26 -23 -61 -23 q-15 0 -31 4q-19 5 -36 16t-30 34q-12 21 -12 56q0 37 15 76q14 36 48 72q31 33 81 54q52 22 122 22q58 0 107 -15q48 -14 86 -42q37 -26 58 -66q22 -41 22 -86q0 -54 -39 -121q-39 -68 -152 -131l-286 -164v-8h317q12 0 21 3q10 3 17 12q6 7 13 28q6 18 12 51h37l-65 -258 h-531z" />
<glyph unicode="&#xb3;" horiz-adv-x="731" d="M236 1067q0 37 17 65q17 29 56 29q31 0 52 -18q22 -19 22 -49q0 -23 -11 -34q-13 -13 -24 -20q-20 -12 -23 -14q-12 -6 -12 -16q0 -12 13 -22q12 -9 30 -15q12 -4 40 -10q23 -5 40 -5q24 0 58 9q28 7 52 31q23 23 38 67q14 41 14 115q0 84 -24 122q-24 37 -82 37 q-14 0 -26 -2q-10 -2 -14 -3q-2 0 -5 -1t-5 -2q-6 -2 -12 -2q-22 0 -29 9q-8 10 -8 22q0 16 9 24q11 9 22 9q10 0 28 -3q24 -4 35 -4q41 0 73 23t52 56q21 34 31 74q10 39 10 75q0 58 -23 74t-65 16q-41 0 -62 -12q-22 -13 -22 -31q0 -13 7 -20l15 -14q4 -4 14 -16 q7 -8 7 -26q0 -29 -20 -49t-53 -20q-29 0 -49 17q-21 18 -21 56q0 65 63 109q62 43 160 43q108 0 161 -49q54 -50 54 -117q0 -69 -57 -121q-59 -54 -170 -84v-8q41 0 76 -14q37 -15 65 -40q27 -24 46 -62q18 -36 18 -79q0 -53 -26 -97t-72 -77q-48 -34 -108 -51 q-63 -18 -136 -18q-120 0 -169 43q-50 44 -50 100z" />
<glyph unicode="&#xb4;" horiz-adv-x="614" d="M209 1135l315 335q53 56 89 71t65 15q60 0 90 -34q31 -36 31 -84q0 -41 -23 -67t-82 -54l-358 -182h-127z" />
<glyph unicode="&#xb5;" d="M-100 -451q0 33 8 67q7 29 31 79q4 10 9.5 22t12 29t11.5 28q23 55 41 110q27 83 47 150q34 113 55 197l161 629h-192v62h489l-186 -727q-4 -13 -7 -38q-3 -24 -3 -40q0 -45 39 -45q24 0 67 22q42 22 90 65q54 49 92 101q45 62 74 133l131 529h275l-178 -744 q-9 -38 -9 -44q0 -5 -0.5 -10t-1 -8t-0.5 -5q0 -27 25 -27q31 0 87 52q57 52 114 194l51 -19q-24 -72 -54 -124q-35 -61 -80 -106q-47 -47 -106 -75q-61 -29 -129 -29q-80 0 -129 40t-49 126q0 17 1 25q3 23 5 33h-12q-25 -36 -70 -83q-41 -43 -85 -71q-48 -31 -99 -50 q-54 -20 -115 -20q-88 0 -145 39h-8q-2 -52 -2 -71v-62q0 -71 5 -136t5 -103q0 -112 -45 -161q-45 -50 -111 -50q-61 0 -85 33q-25 34 -25 83z" />
<glyph unicode="&#xb6;" horiz-adv-x="1286" d="M197 1020q0 118 48 216q47 96 128 166q77 67 184 105q104 37 219 37h729l-30 -151h-195l-365 -1715h-167l364 1715h-199l-364 -1715h-168l203 955q-198 15 -292 118q-95 104 -95 269z" />
<glyph unicode="&#xb7;" horiz-adv-x="438" d="M53 520q0 74 52 126t126 52t126 -52q53 -53 53 -126t-53 -126q-52 -52 -126 -52t-126 52t-52 126z" />
<glyph unicode="&#xb8;" horiz-adv-x="542" d="M-174 -446l35 79q10 -10 44 -16q35 -6 68 -6q67 0 108 27q40 27 40 75q0 35 -29 58q-28 22 -115 24l136 225h96l-88 -155h39q82 0 125 -36t43 -97q0 -55 -32 -96q-30 -38 -82 -65q-49 -25 -112 -39q-59 -13 -118 -13q-66 0 -104 12q-36 11 -54 23z" />
<glyph unicode="&#xb9;" horiz-adv-x="610" d="M197 940v43h145l145 711h-155v43h350l-164 -754h152v-43h-473z" />
<glyph unicode="&#xba;" horiz-adv-x="765" d="M242 1180q0 72 33 138q35 70 91 123q57 54 131 88t156 34q125 0 200 -69t75 -173q0 -70 -34 -138q-34 -69 -91 -124q-55 -54 -132 -89q-74 -34 -157 -34q-62 0 -113 18q-50 18 -86 52q-35 34 -54 77q-19 44 -19 97zM442 1124q0 -63 19 -99q18 -34 65 -34q50 0 87 36 q40 39 63 91q26 60 37 124q12 69 12 134q0 52 -18 93q-18 40 -62 40q-51 0 -89 -38t-63 -94q-26 -59 -38 -124q-13 -73 -13 -129z" />
<glyph unicode="&#xbb;" horiz-adv-x="1081" d="M45 88l264 363l-108 370l35 23l372 -371l-10 -45l-528 -371zM420 88l264 363l-109 370l35 23l373 -371l-10 -45l-529 -371z" />
<glyph unicode="&#xbc;" horiz-adv-x="1910" d="M301 735v43h145l146 711h-156v43h350l-163 -754h151v-43h-473zM379 0l1208 1542h121l-1208 -1542h-121zM1069 213v39l500 545h88l-117 -545h102l19 74h35l-51 -203h-35l22 90h-100l-39 -178h88v-35h-344v35h78l39 178h-285zM1118 252h244l72 344h-11z" />
<glyph unicode="&#xbd;" horiz-adv-x="1910" d="M301 735v43h145l146 711h-156v43h350l-163 -754h151v-43h-473zM328 0l1208 1542h121l-1208 -1542h-121zM1055 0l26 119l215 149q68 47 110 92q41 44 64 87q22 42 30 81q7 36 7 74q0 84 -30 118t-82 34q-31 0 -58 -12q-32 -14 -45 -25q-17 -14 -28 -30t-11 -23 q0 -15 18 -21q7 -2 21.5 -7.5t17.5 -6.5q22 -8 40 -26t18 -52q0 -41 -27 -65q-26 -23 -61 -23q-15 0 -31 4q-19 5 -36 16q-15 10 -29 34q-13 23 -13 56q0 34 16 76q15 38 47 72q31 32 82 54q52 22 122 22q56 0 106 -15q48 -14 86 -42t59 -66q21 -39 21 -86q0 -54 -39 -121 q-40 -69 -151 -131l-287 -164v-8h317q13 0 22 3q8 3 16 12t14 28q6 18 12 51h37l-66 -258h-530z" />
<glyph unicode="&#xbe;" horiz-adv-x="1910" d="M319 862q0 35 18 65q17 29 56 29q31 0 52 -18q22 -19 22 -49q0 -23 -11 -34t-24 -19q-2 -1 -10 -7t-13 -8q-12 -6 -12 -16q0 -12 13 -22q12 -9 30 -15q12 -4 40 -10q19 -4 40 -4q28 0 58 8q27 7 52 32q23 23 38 66q14 41 14 115q0 85 -24 122q-24 38 -83 38q-13 0 -25 -2 q-4 -1 -14 -4q-1 -1 -4.5 -2t-5.5 -1q-6 -2 -12 -2q-21 0 -29 10t-8 21q0 17 9 25q10 8 22 8q10 0 28 -3t35 -3q42 0 73 22t52 57t31 73q10 39 10 75q0 58 -23 74t-65 16q-41 0 -62 -12q-22 -13 -22 -31q0 -12 7 -19l15 -15q4 -4 14 -16q7 -8 7 -26q0 -29 -20 -49t-53 -20 q-29 0 -49 17q-21 18 -21 56q0 66 63 109q62 43 160 43q108 0 161 -49q54 -49 54 -117t-57 -121q-59 -54 -170 -84v-8q41 0 76 -14q37 -15 65 -40q27 -24 46 -62q18 -36 18 -78q0 -54 -26 -98t-72 -77q-48 -34 -108 -51q-63 -18 -136 -18q-120 0 -169 43q-51 45 -51 100z M422 0l1208 1542h121l-1208 -1542h-121zM1069 213v39l500 545h88l-117 -545h103l18 74h35l-51 -203h-35l22 90h-100l-39 -178h88v-35h-344v35h78l39 178h-285zM1118 252h244l72 344h-11z" />
<glyph unicode="&#xbf;" horiz-adv-x="980" d="M-102 -266q0 115 46 192q47 79 114 133q69 55 150 96q74 37 149 81q67 39 115 89q46 47 46 121h51q6 -52 6 -98q0 -132 -36 -214q-37 -84 -92 -142q-53 -56 -117 -97q-78 -50 -118 -79q-52 -37 -91 -86q-37 -46 -37 -121q0 -39 12 -76q11 -35 41 -65q29 -29 74 -47 q42 -17 111 -17q76 0 124 23t48 53q0 16 -16 29q-5 4 -17 12.5t-18 13.5q-20 15 -34 38q-16 26 -16 65q0 35 14 63q13 27 34 43q20 16 46 24q22 7 48 7q52 0 96 -38q43 -37 43 -110q0 -53 -26 -103t-73 -91q-49 -43 -116 -66q-69 -24 -158 -24q-93 0 -167 28q-73 28 -127 80 q-52 50 -81 124q-28 71 -28 159zM418 754q0 74 51 125t127 51q74 0 125 -51t51 -125q0 -76 -51 -127q-52 -52 -125 -52q-75 0 -127 52q-51 51 -51 127z" />
<glyph unicode="&#xc0;" horiz-adv-x="1271" d="M-135 0v61h108l1024 1512h119l-110 -1512h159v-61h-653v61h182l33 373h-414l-254 -373h195v-61h-389zM360 502h373l58 618h-9zM727 1792q0 39 31 70q30 30 88 30q42 0 80 -15q30 -12 96 -50l360 -223h-141l-405 79q-58 11 -83 42q-26 32 -26 67z" />
<glyph unicode="&#xc1;" horiz-adv-x="1271" d="M-135 0v61h108l1024 1512h119l-110 -1512h159v-61h-653v61h182l33 373h-414l-254 -373h195v-61h-389zM360 502h373l58 618h-9zM748 1604l360 223q66 38 96 50q37 15 80 15q58 0 88 -30q31 -31 31 -70q0 -35 -26 -67q-25 -31 -83 -42l-405 -79h-141z" />
<glyph unicode="&#xc2;" horiz-adv-x="1271" d="M-135 0v61h108l1024 1512h119l-110 -1512h159v-61h-653v61h182l33 373h-414l-254 -373h195v-61h-389zM360 502h373l58 618h-9zM705 1620l364 270h115l252 -270h-97l-249 92l-291 -92h-94z" />
<glyph unicode="&#xc3;" horiz-adv-x="1271" d="M-135 0v61h108l1024 1512h119l-110 -1512h159v-61h-653v61h182l33 373h-414l-254 -373h195v-61h-389zM360 502h373l58 618h-9zM717 1616q17 52 42 102q27 52 62 87q39 39 84 61t105 22q51 0 82 -14q36 -16 60 -31q18 -11 56 -31q27 -14 68 -14q62 0 106 32t60 60h74 q-43 -121 -116 -197q-72 -75 -181 -75q-51 0 -82 14q-39 18 -62 31q-19 11 -57 31q-27 14 -70 14q-56 0 -99 -27q-46 -29 -63 -65h-69z" />
<glyph unicode="&#xc4;" horiz-adv-x="1271" d="M-135 0v61h108l1024 1512h119l-110 -1512h159v-61h-653v61h182l33 373h-414l-254 -373h195v-61h-389zM360 502h373l58 618h-9zM776 1761q0 53 39 91q40 38 92 38q53 0 91 -38t38 -91t-38 -91t-91 -38q-52 0 -92 38q-39 37 -39 91zM1151 1761q0 53 38 91t91 38 q52 0 92 -38q39 -37 39 -91q0 -53 -39 -91q-40 -38 -92 -38q-53 0 -91 38t-38 91z" />
<glyph unicode="&#xc5;" horiz-adv-x="1271" d="M-135 0v61h108l1024 1512h119l-110 -1512h159v-61h-653v61h182l33 373h-414l-254 -373h195v-61h-389zM360 502h373l58 618h-9zM928 1749q0 67 39 105q40 38 106 38q67 0 107 -38q39 -38 39 -105q0 -68 -39 -107q-38 -38 -107 -38q-68 0 -106 38q-39 39 -39 107zM999 1749 q0 -35 19 -60q18 -24 55 -24t55 24q19 25 19 60q0 36 -19 58t-55 22t-55 -22t-19 -58z" />
<glyph unicode="&#xc6;" horiz-adv-x="2043" d="M-209 0v61h111l1106 1422h-197v61h1305l-74 -422h-82q0 107 -15 176q-15 70 -55 111q-39 41 -102 57q-65 17 -158 17h-207l-145 -656h94q104 0 178 62q75 63 121 207h72l-133 -631h-70q0 95 -14 151q-15 61 -40 93q-25 33 -64 45q-37 12 -83 12h-75l-158 -705h324 q66 0 126 18q62 19 115 63q57 47 110 126q51 75 113 207h82l-123 -475h-1249v61h201l82 373h-611l-288 -373h192v-61h-389zM330 502h569v-13l215 994h-20z" />
<glyph unicode="&#xc7;" horiz-adv-x="1394" d="M131 580q0 118 36 238t99 231q58 103 150 204q86 95 185 164t208 110q107 40 217 40q84 0 154 -28q65 -26 133 -91l90 96h72l-97 -477h-61q0 101 -24 180q-25 82 -65 135q-41 54 -98 85q-56 30 -116 30q-85 0 -158 -53q-70 -51 -130 -142q-56 -84 -101 -203 q-42 -111 -73 -235q-28 -114 -44 -239q-14 -111 -14 -215q0 -102 15 -171q15 -67 46 -111q29 -41 75 -60t101 -19q49 0 114 17q62 16 130 57q63 38 139 114q70 70 139 185h62l-109 -422h-61l-62 70q-76 -36 -160 -64q-80 -26 -180 -31l-61 -110h39q81 0 125 -36 q43 -36 43 -97q0 -55 -32 -96q-30 -38 -82 -65q-49 -25 -111 -39q-59 -13 -119 -13q-67 0 -104 12q-36 11 -54 23l35 79q10 -10 44 -16t69 -6q67 0 107 27t40 75q0 35 -29 58t-114 24l108 180q-125 10 -223 64q-96 52 -161 136q-63 81 -98 187q-34 103 -34 218z" />
<glyph unicode="&#xc8;" horiz-adv-x="1413" d="M-27 0v61h201l309 1422h-221v61h1223l-74 -422h-82q0 107 -15 176q-15 71 -54 111t-103 57q-65 17 -158 17h-206l-146 -656h94q105 0 179 62q74 61 120 207h72l-133 -631h-70q0 95 -14 151q-15 61 -40 93q-25 33 -63 45t-83 12h-76l-158 -705h324q67 0 127 18t114 63 q57 47 110 126q54 80 114 207h82l-123 -475h-1250zM616 1792q0 39 31 70q30 30 88 30q43 0 80 -15q30 -12 96 -50l361 -223h-142l-405 79q-58 11 -83 42q-26 32 -26 67z" />
<glyph unicode="&#xc9;" horiz-adv-x="1413" d="M-27 0v61h201l309 1422h-221v61h1223l-74 -422h-82q0 107 -15 176q-15 71 -54 111t-103 57q-65 17 -158 17h-206l-146 -656h94q105 0 179 62q74 61 120 207h72l-133 -631h-70q0 95 -14 151q-15 61 -40 93q-25 33 -63 45t-83 12h-76l-158 -705h324q67 0 127 18t114 63 q57 47 110 126q54 80 114 207h82l-123 -475h-1250zM705 1604l360 223q66 38 96 50q37 15 80 15q58 0 88 -30q31 -31 31 -70q0 -35 -26 -67q-25 -31 -83 -42l-405 -79h-141z" />
<glyph unicode="&#xca;" horiz-adv-x="1413" d="M-27 0v61h201l309 1422h-221v61h1223l-74 -422h-82q0 107 -15 176q-15 71 -54 111t-103 57q-65 17 -158 17h-206l-146 -656h94q105 0 179 62q74 61 120 207h72l-133 -631h-70q0 95 -14 151q-15 61 -40 93q-25 33 -63 45t-83 12h-76l-158 -705h324q67 0 127 18t114 63 q57 47 110 126q54 80 114 207h82l-123 -475h-1250zM592 1620l364 270h115l252 -270h-96l-250 92l-291 -92h-94z" />
<glyph unicode="&#xcb;" horiz-adv-x="1413" d="M-27 0v61h201l309 1422h-221v61h1223l-74 -422h-82q0 107 -15 176q-15 71 -54 111t-103 57q-65 17 -158 17h-206l-146 -656h94q105 0 179 62q74 61 120 207h72l-133 -631h-70q0 95 -14 151q-15 61 -40 93q-25 33 -63 45t-83 12h-76l-158 -705h324q67 0 127 18t114 63 q57 47 110 126q54 80 114 207h82l-123 -475h-1250zM670 1761q0 53 39 91q40 38 92 38q53 0 91 -38t38 -91t-38 -91t-91 -38q-52 0 -92 38q-39 37 -39 91zM1044 1761q0 53 38 91t92 38q52 0 92 -38q39 -37 39 -91q0 -53 -39 -91q-40 -38 -92 -38q-54 0 -92 38t-38 91z" />
<glyph unicode="&#xcc;" horiz-adv-x="798" d="M-14 0v63h149l309 1420h-149v61h612v-61h-153l-316 -1420h180v-63h-632zM350 1792q0 39 31 70q30 30 88 30q43 0 80 -15q30 -12 96 -50l361 -223h-142l-405 79q-58 11 -83 42q-26 32 -26 67z" />
<glyph unicode="&#xcd;" horiz-adv-x="798" d="M-14 0v63h149l309 1420h-149v61h612v-61h-153l-316 -1420h180v-63h-632zM348 1604l361 223q66 38 96 50q37 15 80 15q58 0 88 -30q31 -31 31 -70q0 -35 -26 -67q-25 -31 -83 -42l-406 -79h-141z" />
<glyph unicode="&#xce;" horiz-adv-x="798" d="M-14 0v63h149l309 1420h-149v61h612v-61h-153l-316 -1420h180v-63h-632zM297 1620l365 270h114l252 -270h-96l-250 92l-291 -92h-94z" />
<glyph unicode="&#xcf;" horiz-adv-x="798" d="M-14 0v63h149l309 1420h-149v61h612v-61h-153l-316 -1420h180v-63h-632zM375 1761q0 53 39 91q40 38 92 38q53 0 91 -38t38 -91t-38 -91t-91 -38q-52 0 -92 38q-39 37 -39 91zM750 1761q0 54 37 91q38 38 92 38q52 0 92 -38q39 -37 39 -91q0 -53 -39 -91q-40 -38 -92 -38 q-54 0 -92 38q-37 37 -37 91z" />
<glyph unicode="&#xd0;" horiz-adv-x="1576" d="M-84 0v66h197l145 675h-178v82h196l144 660h-215v61h688q317 0 478 -173t161 -474q0 -175 -65 -338t-180 -287q-116 -125 -274 -198q-160 -74 -347 -74h-750zM414 66h192q139 0 248 68q108 67 189 197q78 125 122 312q43 182 43 418q0 90 -10 163q-11 79 -44 134 q-35 57 -99 91q-65 34 -176 34h-150l-147 -660h245v-82h-264z" />
<glyph unicode="&#xd1;" horiz-adv-x="1533" d="M-31 0v61h191l309 1422h-209v61h526l457 -960h8l195 899h-193v61h447v-61h-172l-328 -1510h-63l-615 1332h-8l2 16l-274 -1260h213v-61h-486zM700 1616q16 52 42 102t63 87q39 39 84 61t104 22q51 0 82 -14q40 -18 61 -31q18 -11 56 -31q27 -14 68 -14q62 0 106 32 q42 30 59 60h74q-43 -121 -116 -197q-72 -75 -181 -75q-51 0 -82 14q-35 16 -61 31q-9 5 -58 31q-27 14 -69 14q-56 0 -99 -27q-46 -29 -63 -65h-70z" />
<glyph unicode="&#xd2;" horiz-adv-x="1615" d="M133 623q0 170 74 341q73 169 196 302q121 131 284 215q160 82 337 82q132 0 244 -48q111 -47 193 -134q81 -85 127 -200q46 -114 46 -251q0 -175 -73 -345q-73 -171 -198 -306q-127 -138 -285 -219q-161 -83 -335 -83q-130 0 -244 51q-112 50 -194 138t-127 205t-45 252 zM487 379q0 -9 2 -31q10 -151 65 -228q54 -77 177 -77q107 0 189 54q80 53 142 145q60 90 102 204q44 119 67 236q24 122 36 237q11 106 11 209q0 66 -7 126q-8 65 -33 119q-26 55 -75 89q-50 35 -133 35q-104 0 -185 -54q-82 -54 -142 -145q-61 -92 -101 -205 q-40 -114 -66 -238q-24 -116 -37 -242q-12 -120 -12 -216v-18zM709 1792q0 40 30 70t88 30q43 0 80 -15q33 -13 97 -50l360 -223h-141l-406 79q-58 11 -83 42t-25 67z" />
<glyph unicode="&#xd3;" horiz-adv-x="1615" d="M133 623q0 170 74 341q73 169 196 302q121 131 284 215q160 82 337 82q132 0 244 -48q111 -47 193 -134q81 -85 127 -200q46 -114 46 -251q0 -175 -73 -345q-73 -171 -198 -306q-127 -138 -285 -219q-161 -83 -335 -83q-130 0 -244 51q-112 50 -194 138t-127 205t-45 252 zM487 379q0 -9 2 -31q10 -151 65 -228q54 -77 177 -77q107 0 189 54q80 53 142 145q60 90 102 204q44 119 67 236q24 122 36 237q11 106 11 209q0 66 -7 126q-8 65 -33 119q-26 55 -75 89q-50 35 -133 35q-104 0 -185 -54q-82 -54 -142 -145q-61 -92 -101 -205 q-40 -114 -66 -238q-24 -116 -37 -242q-12 -120 -12 -216v-18zM795 1604l360 223q66 38 96 50q37 15 80 15q58 0 88 -30q31 -31 31 -70q0 -35 -26 -67q-25 -31 -83 -42l-405 -79h-141z" />
<glyph unicode="&#xd4;" horiz-adv-x="1615" d="M133 623q0 170 74 341q73 169 196 302q121 131 284 215q160 82 337 82q132 0 244 -48q111 -47 193 -134q81 -85 127 -200q46 -114 46 -251q0 -175 -73 -345q-73 -171 -198 -306q-127 -138 -285 -219q-161 -83 -335 -83q-130 0 -244 51q-112 50 -194 138t-127 205t-45 252 zM487 379q0 -9 2 -31q10 -151 65 -228q54 -77 177 -77q107 0 189 54q80 53 142 145q60 90 102 204q44 119 67 236q24 122 36 237q11 106 11 209q0 66 -7 126q-8 65 -33 119q-26 55 -75 89q-50 35 -133 35q-104 0 -185 -54q-82 -54 -142 -145q-61 -92 -101 -205 q-40 -114 -66 -238q-24 -116 -37 -242q-12 -120 -12 -216v-18zM694 1620l365 270h114l252 -270h-96l-250 92l-291 -92h-94z" />
<glyph unicode="&#xd5;" horiz-adv-x="1615" d="M133 623q0 170 74 341q73 169 196 302q121 131 284 215q160 82 337 82q132 0 244 -48q111 -47 193 -134q81 -85 127 -200q46 -114 46 -251q0 -175 -73 -345q-73 -171 -198 -306q-127 -138 -285 -219q-161 -83 -335 -83q-130 0 -244 51q-112 50 -194 138t-127 205t-45 252 zM487 379q0 -9 2 -31q10 -151 65 -228q54 -77 177 -77q107 0 189 54q80 53 142 145q60 90 102 204q44 119 67 236q24 122 36 237q11 106 11 209q0 66 -7 126q-8 65 -33 119q-26 55 -75 89q-50 35 -133 35q-104 0 -185 -54q-82 -54 -142 -145q-61 -92 -101 -205 q-40 -114 -66 -238q-24 -116 -37 -242q-12 -120 -12 -216v-18zM711 1616q17 52 42 102q27 52 62 87q39 39 84 61t105 22q50 0 81 -14q40 -18 61 -31q18 -11 56 -31q27 -14 68 -14q62 0 106 32t60 60h73q-43 -122 -115 -197t-182 -75q-51 0 -82 14q-35 16 -61 31 q-19 11 -57 31q-27 14 -70 14q-56 0 -99 -27q-46 -29 -63 -65h-69z" />
<glyph unicode="&#xd6;" horiz-adv-x="1615" d="M133 623q0 170 74 341q73 169 196 302q121 131 284 215q160 82 337 82q132 0 244 -48q111 -47 193 -134q81 -85 127 -200q46 -114 46 -251q0 -175 -73 -345q-73 -171 -198 -306q-127 -138 -285 -219q-161 -83 -335 -83q-130 0 -244 51q-112 50 -194 138t-127 205t-45 252 zM487 379q0 -9 2 -31q10 -151 65 -228q54 -77 177 -77q107 0 189 54q80 53 142 145q60 90 102 204q44 119 67 236q24 122 36 237q11 106 11 209q0 66 -7 126q-8 65 -33 119q-26 55 -75 89q-50 35 -133 35q-104 0 -185 -54q-82 -54 -142 -145q-61 -92 -101 -205 q-40 -114 -66 -238q-24 -116 -37 -242q-12 -120 -12 -216v-18zM805 1761q0 53 39 91q40 38 92 38q53 0 91 -38t38 -91t-38 -91t-91 -38q-52 0 -92 38q-39 37 -39 91zM1180 1761q0 53 38 91t91 38q52 0 92 -38q39 -37 39 -91q0 -53 -39 -91q-40 -38 -92 -38q-53 0 -91 38 t-38 91z" />
<glyph unicode="&#xd7;" d="M197 1079l82 97l383 -385l387 387l90 -88l-387 -388l366 -366l-82 -96l-374 372l-363 -362l-90 88l364 364z" />
<glyph unicode="&#xd8;" horiz-adv-x="1615" d="M111 -109l217 252q-94 91 -144 211q-51 123 -51 269q0 170 74 341q73 169 196 302q121 131 284 215q160 82 337 82q116 0 219 -38q99 -36 180 -108l199 230h119l-254 -295q69 -84 108 -192t39 -230q0 -175 -73 -345q-73 -171 -198 -306q-127 -138 -285 -219 q-161 -83 -335 -83q-96 0 -188 28q-84 26 -160 81l-166 -195h-118zM487 379q0 -9 2 -31v-16l783 909q-5 45 -20 95q-13 45 -41 82t-71 58q-44 21 -110 21q-104 0 -185 -54q-82 -54 -142 -145q-61 -92 -101 -205q-40 -114 -66 -238q-24 -116 -37 -242q-12 -120 -12 -216v-18z M510 217q23 -86 76 -130t145 -44q105 0 185 52q83 54 142 139q60 86 102 200q43 116 68 231t37 233q11 110 13 210z" />
<glyph unicode="&#xd9;" horiz-adv-x="1540" d="M233 348q0 48 13 115l219 1020h-232v61h736v-61h-195l-227 -1020q-8 -32 -11 -62q-4 -40 -4 -57q0 -137 77 -209t206 -72q72 0 138 24q67 24 122 72t97 124q43 79 65 180l219 1020h-205v61h465v-61h-178l-219 -1020q-27 -120 -69 -212q-43 -93 -109 -152 q-69 -61 -164 -91q-99 -31 -229 -31q-126 0 -227 28q-97 27 -161 77t-95 117q-32 69 -32 149zM754 1792q0 40 30 70t88 30q43 0 80 -15q33 -13 97 -50l360 -223h-141l-406 79q-58 11 -83 42t-25 67z" />
<glyph unicode="&#xda;" horiz-adv-x="1540" d="M233 348q0 48 13 115l219 1020h-232v61h736v-61h-195l-227 -1020q-8 -32 -11 -62q-4 -40 -4 -57q0 -137 77 -209t206 -72q72 0 138 24q67 24 122 72t97 124q43 79 65 180l219 1020h-205v61h465v-61h-178l-219 -1020q-27 -120 -69 -212q-43 -93 -109 -152 q-69 -61 -164 -91q-99 -31 -229 -31q-126 0 -227 28q-97 27 -161 77t-95 117q-32 69 -32 149zM840 1604l360 223q66 38 96 50q38 15 80 15q58 0 88 -30q31 -31 31 -70q0 -35 -26 -67q-25 -31 -83 -42l-405 -79h-141z" />
<glyph unicode="&#xdb;" horiz-adv-x="1540" d="M233 348q0 48 13 115l219 1020h-232v61h736v-61h-195l-227 -1020q-8 -32 -11 -62q-4 -40 -4 -57q0 -137 77 -209t206 -72q72 0 138 24q67 24 122 72t97 124q43 79 65 180l219 1020h-205v61h465v-61h-178l-219 -1020q-27 -120 -69 -212q-43 -93 -109 -152 q-69 -61 -164 -91q-99 -31 -229 -31q-126 0 -227 28q-97 27 -161 77t-95 117q-32 69 -32 149zM705 1620l364 270h115l252 -270h-97l-249 92l-291 -92h-94z" />
<glyph unicode="&#xdc;" horiz-adv-x="1540" d="M233 348q0 48 13 115l219 1020h-232v61h736v-61h-195l-227 -1020q-8 -32 -11 -62q-4 -40 -4 -57q0 -137 77 -209t206 -72q72 0 138 24q67 24 122 72t97 124q43 79 65 180l219 1020h-205v61h465v-61h-178l-219 -1020q-27 -120 -69 -212q-43 -93 -109 -152 q-69 -61 -164 -91q-99 -31 -229 -31q-126 0 -227 28q-97 27 -161 77t-95 117q-32 69 -32 149zM848 1761q0 53 39 91q40 38 92 38q53 0 91 -38t38 -91t-38 -91t-91 -38q-52 0 -92 38q-39 37 -39 91zM1223 1761q0 53 38 91t91 38q52 0 92 -38q39 -37 39 -91q0 -53 -39 -91 q-40 -38 -92 -38q-53 0 -91 38t-38 91z" />
<glyph unicode="&#xdd;" horiz-adv-x="1325" d="M137 1483v61h725v-61h-237l266 -717h8l451 717h-230v61h461v-61h-158l-528 -846l-131 -574h242v-63h-777v63h232l131 599l-287 821h-168zM799 1604l360 223q66 38 96 50q37 15 80 15q58 0 88 -30q31 -31 31 -70q0 -35 -26 -67t-82 -42l-406 -79h-141z" />
<glyph unicode="&#xde;" horiz-adv-x="1314" d="M-20 0v63h149l309 1418h-143v63h633v-63h-180l-66 -291h143q279 0 419 -100t140 -275q0 -103 -50 -188q-50 -84 -147 -144q-95 -58 -240 -92q-143 -33 -326 -33h-123l-66 -295h180v-63h-632zM508 410h170q177 0 271 115q95 116 95 358q0 65 -9 112t-36 77t-74 43 q-46 13 -124 13h-133z" />
<glyph unicode="&#xdf;" horiz-adv-x="1206" d="M-479 -483q0 56 32 94q31 37 95 37q62 0 92 -33q31 -34 31 -74q0 -31 -14 -53q-13 -20 -13 -45q0 -35 47 -35q24 0 46 17q23 18 46 81q27 75 58 198q28 112 82 364l225 1058q22 102 76 187q50 79 130 137q76 55 173 84q98 29 204 29q178 0 286 -75t108 -214 q0 -67 -28 -129q-26 -58 -76 -108t-112 -83q-63 -33 -141 -55v-8q64 -6 117 -35t92 -77t60 -109q20 -59 20 -131q0 -93 -36 -190q-36 -98 -103 -178t-163 -132q-95 -51 -214 -51q-115 0 -160 45t-45 106q0 57 33 97t92 40q37 0 60 -16q24 -16 24 -53q0 -26 -11 -41 q-13 -18 -25 -30q-8 -8 -24 -26q-12 -14 -12 -32q0 -29 31 -29q56 0 101 63q43 60 78 153q35 94 53 192q18 101 18 176q0 223 -168 223h-76l15 66h77q72 0 121 48t79 115t42 140q12 72 12 118q0 89 -35 121q-36 33 -96 33q-175 0 -225 -237l-190 -902q-57 -270 -132 -462 q-76 -195 -162 -318q-87 -124 -185 -183t-199 -59q-55 0 -98 16q-38 14 -65 41q-25 25 -37 58q-11 30 -11 66z" />
<glyph unicode="&#xe0;" horiz-adv-x="1200" d="M59 340q0 115 51 228q49 109 131 194q83 86 182 134q103 50 202 50q76 0 124 -36q47 -36 80 -111h13l30 123h275l-178 -744q-7 -31 -8 -44l-2 -14t-1 -9q0 -27 25 -27q31 0 87 52q57 52 114 194l51 -19q-24 -72 -54 -124q-35 -61 -80 -106q-47 -47 -106 -75 q-61 -29 -129 -29q-80 0 -129 40t-49 126h-14q-15 -23 -46 -58q-22 -25 -63 -53q-34 -23 -79 -39q-46 -16 -93 -16q-63 0 -126 25q-58 23 -106 71t-74 113q-28 70 -28 154zM350 219q0 -91 20 -125q20 -33 66 -33q31 0 70 15q41 16 79 48q40 34 77 86q36 50 65 130l70 279 q1 6 2.5 17.5t1.5 16.5q2 22 2 29q0 80 -43 132t-92 52q-64 0 -121 -58q-59 -61 -102 -151q-43 -91 -69 -207q-26 -118 -26 -231zM555 1442q0 60 37 87q38 27 90 27q40 0 70 -18t65 -68l240 -335h-129l-301 194q-48 29 -61 63q-11 29 -11 50z" />
<glyph unicode="&#xe1;" horiz-adv-x="1200" d="M59 340q0 115 51 228q49 109 131 194q83 86 182 134q103 50 202 50q76 0 124 -36q47 -36 80 -111h13l30 123h275l-178 -744q-7 -31 -8 -44l-2 -14t-1 -9q0 -27 25 -27q31 0 87 52q57 52 114 194l51 -19q-24 -72 -54 -124q-35 -61 -80 -106q-47 -47 -106 -75 q-61 -29 -129 -29q-80 0 -129 40t-49 126h-14q-15 -23 -46 -58q-22 -25 -63 -53q-34 -23 -79 -39q-46 -16 -93 -16q-63 0 -126 25q-58 23 -106 71t-74 113q-28 70 -28 154zM350 219q0 -91 20 -125q20 -33 66 -33q31 0 70 15q41 16 79 48q40 34 77 86q36 50 65 130l70 279 q1 6 2.5 17.5t1.5 16.5q2 22 2 29q0 80 -43 132t-92 52q-64 0 -121 -58q-59 -61 -102 -151q-43 -91 -69 -207q-26 -118 -26 -231zM596 1135l315 335q53 56 89 71t65 15q60 0 90 -34q31 -36 31 -84q0 -41 -23 -67t-82 -54l-358 -182h-127z" />
<glyph unicode="&#xe2;" horiz-adv-x="1200" d="M59 340q0 115 51 228q49 109 131 194q83 86 182 134q103 50 202 50q76 0 124 -36q47 -36 80 -111h13l30 123h275l-178 -744q-7 -31 -8 -44l-2 -14t-1 -9q0 -27 25 -27q31 0 87 52q57 52 114 194l51 -19q-24 -72 -54 -124q-35 -61 -80 -106q-47 -47 -106 -75 q-61 -29 -129 -29q-80 0 -129 40t-49 126h-14q-15 -23 -46 -58q-22 -25 -63 -53q-34 -23 -79 -39q-46 -16 -93 -16q-63 0 -126 25q-58 23 -106 71t-74 113q-28 70 -28 154zM350 219q0 -91 20 -125q20 -33 66 -33q31 0 70 15q41 16 79 48q40 34 77 86q36 50 65 130l70 279 q1 6 2.5 17.5t1.5 16.5q2 22 2 29q0 80 -43 132t-92 52q-64 0 -121 -58q-59 -61 -102 -151q-43 -91 -69 -207q-26 -118 -26 -231zM399 1135l396 409h127l221 -409h-88l-246 176l-324 -176h-86z" />
<glyph unicode="&#xe3;" horiz-adv-x="1200" d="M59 340q0 115 51 228q49 109 131 194q83 86 182 134q103 50 202 50q76 0 124 -36q47 -36 80 -111h13l30 123h275l-178 -744q-7 -31 -8 -44l-2 -14t-1 -9q0 -27 25 -27q31 0 87 52q57 52 114 194l51 -19q-24 -72 -54 -124q-35 -61 -80 -106q-47 -47 -106 -75 q-61 -29 -129 -29q-80 0 -129 40t-49 126h-14q-15 -23 -46 -58q-22 -25 -63 -53q-34 -23 -79 -39q-46 -16 -93 -16q-63 0 -126 25q-58 23 -106 71t-74 113q-28 70 -28 154zM350 219q0 -91 20 -125q20 -33 66 -33q31 0 70 15q41 16 79 48q40 34 77 86q36 50 65 130l70 279 q1 6 2.5 17.5t1.5 16.5q2 22 2 29q0 80 -43 132t-92 52q-64 0 -121 -58q-59 -61 -102 -151q-43 -91 -69 -207q-26 -118 -26 -231zM352 1194q17 60 45 111q28 52 68 95q39 42 90 66q53 25 115 25q51 0 87 -15q27 -11 65 -34q35 -21 61 -34q30 -15 73 -15q71 0 117 37 q50 40 66 67h78q-47 -136 -126 -218q-80 -83 -196 -83q-53 0 -89 15q-34 14 -67 34q-35 21 -61 34q-30 15 -76 15q-61 0 -106 -29q-48 -31 -70 -71h-74z" />
<glyph unicode="&#xe4;" horiz-adv-x="1200" d="M59 340q0 115 51 228q49 109 131 194q83 86 182 134q103 50 202 50q76 0 124 -36q47 -36 80 -111h13l30 123h275l-178 -744q-7 -31 -8 -44l-2 -14t-1 -9q0 -27 25 -27q31 0 87 52q57 52 114 194l51 -19q-24 -72 -54 -124q-35 -61 -80 -106q-47 -47 -106 -75 q-61 -29 -129 -29q-80 0 -129 40t-49 126h-14q-15 -23 -46 -58q-22 -25 -63 -53q-34 -23 -79 -39q-46 -16 -93 -16q-63 0 -126 25q-58 23 -106 71t-74 113q-28 70 -28 154zM350 219q0 -91 20 -125q20 -33 66 -33q31 0 70 15q41 16 79 48q40 34 77 86q36 50 65 130l70 279 q1 6 2.5 17.5t1.5 16.5q2 22 2 29q0 80 -43 132t-92 52q-64 0 -121 -58q-59 -61 -102 -151q-43 -91 -69 -207q-26 -118 -26 -231zM489 1366q0 55 40 95t96 40q55 0 95 -40t40 -95t-40 -95t-95 -40q-56 0 -96 40t-40 95zM879 1366q0 55 40 95t95 40t95 -40t40 -95t-40 -95 t-95 -40t-95 40t-40 95z" />
<glyph unicode="&#xe5;" horiz-adv-x="1200" d="M59 340q0 115 51 228q49 109 131 194q83 86 182 134q103 50 202 50q76 0 124 -36q47 -36 80 -111h13l30 123h275l-178 -744q-7 -31 -8 -44l-2 -14t-1 -9q0 -27 25 -27q31 0 87 52q57 52 114 194l51 -19q-24 -72 -54 -124q-35 -61 -80 -106q-47 -47 -106 -75 q-61 -29 -129 -29q-80 0 -129 40t-49 126h-14q-15 -23 -46 -58q-22 -25 -63 -53q-34 -23 -79 -39q-46 -16 -93 -16q-63 0 -126 25q-58 23 -106 71t-74 113q-28 70 -28 154zM350 219q0 -91 20 -125q20 -33 66 -33q31 0 70 15q41 16 79 48q40 34 77 86q36 50 65 130l70 279 q1 6 2.5 17.5t1.5 16.5q2 22 2 29q0 80 -43 132t-92 52q-64 0 -121 -58q-59 -61 -102 -151q-43 -91 -69 -207q-26 -118 -26 -231zM643 1356q0 44 16 80q15 34 46 65q29 29 66 45q39 17 81 17t81 -17q37 -16 66 -44q28 -27 45 -65q17 -39 17 -81t-17 -81t-45 -67 q-29 -28 -66 -45q-36 -16 -81 -16t-81 16q-37 17 -66 45q-29 30 -46 67q-16 36 -16 81zM760 1356q0 -39 26 -66q27 -28 66 -28t66 27q26 26 26 67q0 35 -28 63q-27 27 -64 27q-38 0 -65 -27t-27 -63z" />
<glyph unicode="&#xe6;" horiz-adv-x="1734" d="M59 340q0 115 51 228q49 109 131 194q83 86 182 134q103 50 202 50q76 0 124 -36q47 -36 80 -111h13l30 123h275l-8 -31q53 26 111 41q53 14 112 14q73 0 130 -17q63 -19 104 -50q45 -34 70 -77q26 -44 26 -97q0 -59 -29 -114q-28 -53 -86 -96t-141 -68q-86 -26 -197 -26 q-49 0 -76 1q-41 2 -78 6q-10 -43 -18 -92q-1 -7 -7 -43.5t-9 -57.5q-2 -14 -3 -22t-1 -23q0 -63 39 -86q42 -25 110 -25q100 0 206 53q108 54 202 191l51 -39q-82 -135 -208 -211q-125 -76 -282 -76q-146 0 -243 65q-98 66 -138 163h-12q-33 -49 -62 -82q-38 -43 -84 -73 q-45 -30 -106 -52q-57 -21 -127 -21q-63 0 -126 25q-58 23 -106 71t-74 113q-28 70 -28 154zM350 219q0 -91 20 -125q20 -33 66 -33q31 0 70 15q41 16 79 48q40 34 77 86q36 50 65 130l70 278q1 6 2.5 18t1.5 17q2 22 2 29q0 80 -43 132t-92 52q-64 0 -121 -58 q-59 -61 -102 -151q-43 -91 -69 -207q-26 -118 -26 -231zM1098 475h78q72 0 127 22q52 21 89 56q35 33 52 82q16 45 16 100q0 66 -30 108t-95 42q-32 0 -63 -17q-32 -18 -61 -61t-58 -125q-27 -76 -55 -207z" />
<glyph unicode="&#xe7;" horiz-adv-x="980" d="M45 362q0 107 50 213q49 104 133 188q84 83 193 133q111 50 230 50q73 0 128 -17q60 -18 102 -46q41 -27 66 -69q24 -40 24 -83q0 -53 -36 -98t-118 -45q-68 0 -105 35q-36 34 -36 79q0 36 16 69q17 36 17 63t-21 39t-49 12q-43 0 -81 -26q-37 -25 -75 -98 q-35 -67 -71 -204q-37 -140 -70 -342q-2 -14 -3 -22t-1 -23q0 -62 40 -86q42 -25 109 -25q100 0 206 53q108 54 202 191l51 -39q-79 -130 -198 -204q-120 -74 -269 -80l-63 -115h39q81 0 125 -36q43 -36 43 -97q0 -55 -32 -96q-30 -38 -82 -65q-49 -25 -112 -39 q-59 -13 -118 -13q-67 0 -104 12q-36 11 -54 23l35 79q10 -10 44 -16t68 -6q68 0 108 27t40 75q0 35 -29 58q-28 22 -115 24l111 187q-83 10 -146 45q-62 34 -106 87q-43 52 -64 115q-22 66 -22 133z" />
<glyph unicode="&#xe8;" horiz-adv-x="1032" d="M55 362q0 109 50 215q48 102 136 187q86 83 193 132q109 50 225 50q73 0 131 -19q60 -19 105 -54q48 -36 70 -80q24 -47 24 -103q0 -59 -28 -111q-29 -54 -85 -92q-54 -37 -141 -62q-84 -24 -194 -24q-51 0 -78 1q-41 2 -78 6q-7 -31 -17 -92q-1 -7 -7 -43.5t-9 -57.5 q-2 -14 -3 -22t-1 -23q0 -62 40 -86q42 -25 110 -25q99 0 205 53q108 54 202 191l51 -39q-83 -136 -207 -211q-125 -76 -282 -76q-101 0 -179 32q-76 31 -128 85q-50 51 -78 123q-27 69 -27 145zM397 475h80q71 0 125 20q55 20 88 52q34 33 51 78q17 46 17 96q0 71 -30 117 q-30 47 -87 47q-28 0 -59 -17q-32 -18 -63 -60q-32 -44 -62 -124q-33 -88 -60 -209zM449 1442q0 61 36 87q37 27 90 27q40 0 70 -18q32 -19 66 -68l239 -335h-129l-301 194q-47 28 -60 63q-11 29 -11 50z" />
<glyph unicode="&#xe9;" horiz-adv-x="1032" d="M55 362q0 109 50 215q48 102 136 187q86 83 193 132q109 50 225 50q73 0 131 -19q60 -19 105 -54q48 -36 70 -80q24 -47 24 -103q0 -59 -28 -111q-29 -54 -85 -92q-54 -37 -141 -62q-84 -24 -194 -24q-51 0 -78 1q-41 2 -78 6q-7 -31 -17 -92q-1 -7 -7 -43.5t-9 -57.5 q-2 -14 -3 -22t-1 -23q0 -62 40 -86q42 -25 110 -25q99 0 205 53q108 54 202 191l51 -39q-83 -136 -207 -211q-125 -76 -282 -76q-101 0 -179 32q-76 31 -128 85q-50 51 -78 123q-27 69 -27 145zM397 475h80q71 0 125 20q55 20 88 52q34 33 51 78q17 46 17 96q0 71 -30 117 q-30 47 -87 47q-28 0 -59 -17q-32 -18 -63 -60q-32 -44 -62 -124q-33 -88 -60 -209zM487 1135l316 335q53 56 89 71t64 15q61 0 91 -34t30 -84q0 -42 -22 -67q-23 -26 -82 -54l-359 -182h-127z" />
<glyph unicode="&#xea;" horiz-adv-x="1032" d="M55 362q0 109 50 215q48 102 136 187q86 83 193 132q109 50 225 50q73 0 131 -19q60 -19 105 -54q48 -36 70 -80q24 -47 24 -103q0 -59 -28 -111q-29 -54 -85 -92q-54 -37 -141 -62q-84 -24 -194 -24q-51 0 -78 1q-41 2 -78 6q-7 -31 -17 -92q-1 -7 -7 -43.5t-9 -57.5 q-2 -14 -3 -22t-1 -23q0 -62 40 -86q42 -25 110 -25q99 0 205 53q108 54 202 191l51 -39q-83 -136 -207 -211q-125 -76 -282 -76q-101 0 -179 32q-76 31 -128 85q-50 51 -78 123q-27 69 -27 145zM297 1135l395 409h127l221 -409h-88l-245 176l-324 -176h-86zM397 475h80 q71 0 125 20q55 20 88 52q34 33 51 78q17 46 17 96q0 71 -30 117q-30 47 -87 47q-28 0 -59 -17q-32 -18 -63 -60q-32 -44 -62 -124q-33 -88 -60 -209z" />
<glyph unicode="&#xeb;" horiz-adv-x="1032" d="M55 362q0 109 50 215q48 102 136 187q86 83 193 132q109 50 225 50q73 0 131 -19q60 -19 105 -54q48 -36 70 -80q24 -47 24 -103q0 -59 -28 -111q-29 -54 -85 -92q-54 -37 -141 -62q-84 -24 -194 -24q-51 0 -78 1q-41 2 -78 6q-7 -31 -17 -92q-1 -7 -7 -43.5t-9 -57.5 q-2 -14 -3 -22t-1 -23q0 -62 40 -86q42 -25 110 -25q99 0 205 53q108 54 202 191l51 -39q-83 -136 -207 -211q-125 -76 -282 -76q-101 0 -179 32q-76 31 -128 85q-50 51 -78 123q-27 69 -27 145zM397 475h80q71 0 125 20q55 20 88 52q34 33 51 78q17 46 17 96q0 71 -30 117 q-30 47 -87 47q-28 0 -59 -17q-32 -18 -63 -60q-32 -44 -62 -124q-33 -88 -60 -209zM420 1366q0 55 40 95t95 40t95 -40t40 -95t-40 -95t-95 -40t-95 40t-40 95zM809 1366q0 55 40 95t95 40t95 -40t40 -95t-40 -95t-95 -40t-95 40t-40 95z" />
<glyph unicode="&#xec;" horiz-adv-x="675" d="M98 860v62h473l-172 -744q-7 -33 -8 -45q0 -3 -0.5 -7t-1 -6.5t-0.5 -5v-3.5q0 -35 27 -35q17 0 41 12q21 11 54 40q26 24 61 75q35 52 63 116l51 -18q-57 -168 -156 -246t-239 -78q-80 0 -129 40t-49 126q0 17 1 26q2 22 5 32q1 5 2.5 12t4 17t3.5 16q8 37 16 67 l136 547h-183zM131 1442q0 60 37 87q38 27 90 27q40 0 70 -18t65 -68l240 -335h-129l-301 194q-48 29 -61 63q-11 29 -11 50z" />
<glyph unicode="&#xed;" horiz-adv-x="675" d="M98 860v62h473l-172 -744q-7 -33 -8 -45q0 -3 -0.5 -7t-1 -6.5t-0.5 -5v-3.5q0 -35 27 -35q17 0 41 12q21 11 54 40q26 24 61 75q35 52 63 116l51 -18q-57 -168 -156 -246t-239 -78q-80 0 -129 40t-49 126q0 17 1 26q2 22 5 32q1 5 2.5 12t4 17t3.5 16q8 37 16 67 l136 547h-183zM401 1135l316 335q53 56 89 71t64 15q61 0 91 -34t30 -84q0 -42 -22 -67q-23 -26 -82 -54l-359 -182h-127z" />
<glyph unicode="&#xee;" horiz-adv-x="675" d="M80 1135l395 409h127l221 -409h-88l-246 176l-323 -176h-86zM98 860v62h473l-172 -744q-7 -33 -8 -45q0 -3 -0.5 -7t-1 -6.5t-0.5 -5v-3.5q0 -35 27 -35q17 0 41 12q21 11 54 40q26 24 61 75q35 52 63 116l51 -18q-57 -168 -156 -246t-239 -78q-80 0 -129 40t-49 126 q0 17 1 26q2 22 5 32q1 5 2.5 12t4 17t3.5 16q8 37 16 67l136 547h-183z" />
<glyph unicode="&#xef;" horiz-adv-x="675" d="M98 860v62h473l-172 -744q-7 -33 -8 -45q0 -3 -0.5 -7t-1 -6.5t-0.5 -5v-3.5q0 -35 27 -35q17 0 41 12q21 11 54 40q26 24 61 75q35 52 63 116l51 -18q-57 -168 -156 -246t-239 -78q-80 0 -129 40t-49 126q0 17 1 26q2 22 5 32q1 5 2.5 12t4 17t3.5 16q8 37 16 67 l136 547h-183zM209 1366q0 55 40 95t95 40t95 -40t40 -95t-40 -95t-95 -40t-95 40t-40 95zM598 1366q0 55 40 95t95 40t95 -40t40 -95t-40 -95t-95 -40t-95 40t-40 95z" />
<glyph unicode="&#xf0;" horiz-adv-x="1193" d="M45 367q0 114 53 217q51 100 141 180q87 78 199 123t234 45q68 0 121 -13q55 -13 90 -36l8 2q0 9 1 18t2 17.5t1 12.5q2 24 2 52q0 75 -13 139q-13 65 -36 121l-303 -104l-27 88l285 98q-95 130 -264 158l32 59q118 -5 216 -46q100 -42 182 -114l293 101l22 -88l-246 -86 q81 -97 128 -228q46 -128 46 -278q0 -154 -53 -304q-51 -145 -148 -265q-94 -116 -228 -188q-133 -71 -289 -71q-96 0 -179 27q-79 26 -141 77q-59 48 -94 122q-35 73 -35 164zM369 260q0 -106 39 -158q39 -53 131 -53q53 0 95 21q43 21 78 67q36 47 66 126q34 90 60 194 q14 55 28 133q13 75 13 155q-15 41 -56 73t-102 32q-80 0 -144 -58q-65 -58 -111 -147q-47 -89 -72 -191q-25 -101 -25 -194z" />
<glyph unicode="&#xf1;" horiz-adv-x="1212" d="M72 0l207 860h-179v62h473l-51 -203h15q29 41 68 84q40 43 84 73q46 31 101 51q53 19 115 19q41 0 79 -9q39 -9 67 -30q28 -20 46 -51q17 -28 17 -74q0 -39 -12 -90l-131 -510q-7 -31 -8 -43q-2 -22 -2 -26q0 -41 32 -41q40 0 93 56q56 59 110 189l51 -18 q-34 -94 -77 -159q-41 -61 -87 -98q-43 -35 -94 -50q-49 -15 -98 -15q-95 0 -149 46q-52 45 -52 131q0 15 2 35q2 15 6 30l131 510q6 19 8 38q3 24 3 40q0 45 -39 45q-26 0 -71 -25q-43 -24 -92 -68q-43 -39 -94 -108q-45 -61 -73 -143l-127 -508h-272zM322 1194 q17 60 45 111q30 55 67 95q39 42 90 66q53 25 115 25q51 0 87 -15q31 -13 66 -34q40 -24 60 -34q30 -15 74 -15q70 0 116 37q50 40 66 67h78q-47 -136 -126 -218q-80 -83 -196 -83q-53 0 -89 15q-31 13 -66 34q-30 18 -62 34q-30 15 -76 15q-61 0 -106 -29q-48 -31 -70 -71 h-73z" />
<glyph unicode="&#xf2;" horiz-adv-x="1138" d="M47 346q0 111 52 218q52 106 140 193q85 84 201 137q113 52 242 52q91 0 166 -28q74 -28 130 -79q53 -49 84 -118q30 -67 30 -148q0 -109 -53 -218q-52 -107 -140 -192q-87 -84 -204 -137t-240 -53q-88 0 -166 29q-75 28 -129 79q-53 50 -83 118q-30 67 -30 147zM352 229 q0 -89 22 -138q21 -46 87 -46q78 0 138 61q61 62 101 156q43 100 63 209q21 114 21 219q0 92 -21 138t-87 46q-78 0 -138 -61q-63 -64 -102 -156q-42 -97 -62 -208q-22 -119 -22 -220zM432 1442q0 60 37 87t90 27q40 0 70 -18t65 -68l240 -335h-129l-301 194q-48 29 -61 63 q-11 29 -11 50z" />
<glyph unicode="&#xf3;" horiz-adv-x="1138" d="M47 346q0 111 52 218q52 106 140 193q85 84 201 137q113 52 242 52q91 0 166 -28q74 -28 130 -79q53 -49 84 -118q30 -67 30 -148q0 -109 -53 -218q-52 -107 -140 -192q-87 -84 -204 -137t-240 -53q-88 0 -166 29q-75 28 -129 79q-53 50 -83 118q-30 67 -30 147zM352 229 q0 -89 22 -138q21 -46 87 -46q78 0 138 61q61 62 101 156q43 100 63 209q21 114 21 219q0 92 -21 138t-87 46q-78 0 -138 -61q-63 -64 -102 -156q-42 -97 -62 -208q-22 -119 -22 -220zM498 1135l315 335q53 56 89 71t65 15q60 0 90 -34t30 -84q0 -42 -22 -67 q-23 -26 -82 -54l-358 -182h-127z" />
<glyph unicode="&#xf4;" horiz-adv-x="1138" d="M47 346q0 111 52 218q52 106 140 193q85 84 201 137q113 52 242 52q91 0 166 -28q74 -28 130 -79q53 -49 84 -118q30 -67 30 -148q0 -109 -53 -218q-52 -107 -140 -192q-87 -84 -204 -137t-240 -53q-88 0 -166 29q-75 28 -129 79q-53 50 -83 118q-30 67 -30 147zM352 229 q0 -89 22 -138q21 -46 87 -46q78 0 138 61q61 62 101 156q43 100 63 209q21 114 21 219q0 92 -21 138t-87 46q-78 0 -138 -61q-63 -64 -102 -156q-42 -97 -62 -208q-22 -119 -22 -220zM356 1135l396 409h127l221 -409h-88l-246 176l-324 -176h-86z" />
<glyph unicode="&#xf5;" horiz-adv-x="1138" d="M47 346q0 111 52 218q52 106 140 193q85 84 201 137q113 52 242 52q91 0 166 -28q74 -28 130 -79q53 -49 84 -118q30 -67 30 -148q0 -109 -53 -218q-52 -107 -140 -192q-87 -84 -204 -137t-240 -53q-88 0 -166 29q-75 28 -129 79q-53 50 -83 118q-30 67 -30 147z M332 1194q17 60 45 111q30 55 67 95q38 41 91 66t114 25q51 0 87 -15q31 -13 66 -34q40 -24 60 -34q30 -15 74 -15q71 0 117 37q48 39 65 67h78q-47 -136 -126 -218q-80 -83 -196 -83q-53 0 -89 15q-31 13 -66 34q-30 18 -62 34q-30 15 -75 15q-62 0 -107 -29 q-46 -30 -69 -71h-74zM352 229q0 -89 22 -138q21 -46 87 -46q78 0 138 61q61 62 101 156q43 100 63 209q21 114 21 219q0 92 -21 138t-87 46q-78 0 -138 -61q-63 -64 -102 -156q-42 -97 -62 -208q-22 -119 -22 -220z" />
<glyph unicode="&#xf6;" horiz-adv-x="1138" d="M47 346q0 111 52 218q52 106 140 193q85 84 201 137q113 52 242 52q91 0 166 -28q74 -28 130 -79q53 -49 84 -118q30 -67 30 -148q0 -109 -53 -218q-52 -107 -140 -192q-87 -84 -204 -137t-240 -53q-88 0 -166 29q-75 28 -129 79q-53 50 -83 118q-30 67 -30 147zM352 229 q0 -89 22 -138q21 -46 87 -46q78 0 138 61q61 62 101 156q43 100 63 209q21 114 21 219q0 92 -21 138t-87 46q-78 0 -138 -61q-63 -64 -102 -156q-42 -97 -62 -208q-22 -119 -22 -220zM444 1366q0 55 40 95t96 40q55 0 95 -40t40 -95t-40 -95t-95 -40q-56 0 -96 40t-40 95z M834 1366q0 56 39 95q40 40 96 40q55 0 95 -40t40 -95t-40 -95t-95 -40q-56 0 -96 40q-39 39 -39 95z" />
<glyph unicode="&#xf7;" d="M164 647v111h1020v-111h-1020zM526 291q0 65 46 111q47 47 112 47t112 -47q46 -46 46 -111q0 -66 -46 -112t-112 -46t-112 46t-46 112zM526 1114q0 66 46 112t112 46t112 -46t46 -112t-46 -112t-112 -46t-112 46t-46 112z" />
<glyph unicode="&#xf8;" horiz-adv-x="1138" d="M-70 -109l209 209q-92 100 -92 246q0 111 52 218q52 106 140 193q85 84 201 137q113 52 242 52q141 0 242 -67l110 110h119l-164 -162q103 -103 103 -254q0 -109 -53 -218q-52 -107 -140 -192q-87 -84 -204 -137t-240 -53q-71 0 -138 19q-62 18 -114 53l-156 -154h-117z M352 195q5 -75 27 -112q23 -38 82 -38q73 0 129 52q58 53 98 135q41 83 65 186q23 96 29 203zM354 313l428 426q-5 69 -27 101q-24 34 -79 34q-71 0 -127 -50q-55 -49 -96 -131q-44 -87 -66 -181q-26 -110 -33 -199z" />
<glyph unicode="&#xf9;" d="M84 860v62h489l-186 -727q-4 -13 -7 -38q-3 -24 -3 -40q0 -45 39 -45q24 0 67 22q42 22 90 65q54 49 92 101q45 62 74 133l131 529h275l-178 -744q-9 -38 -9 -44q0 -5 -0.5 -10t-1 -8t-0.5 -5q0 -27 25 -27q31 0 87 52q57 52 114 194l51 -19q-24 -72 -54 -124 q-35 -61 -80 -106q-47 -47 -106 -75q-61 -29 -129 -29q-80 0 -129 40t-49 126q0 17 1 25q3 23 5 33h-12q-25 -36 -70 -83q-41 -43 -85 -71q-48 -31 -99 -50q-54 -20 -115 -20q-37 0 -79 10q-40 9 -66 29q-27 20 -46 52q-18 30 -18 73q0 33 13 90l161 629h-192zM432 1442 q0 60 37 87t90 27q40 0 70 -18t65 -68l240 -335h-129l-301 194q-48 29 -61 63q-11 29 -11 50z" />
<glyph unicode="&#xfa;" d="M84 860v62h489l-186 -727q-4 -13 -7 -38q-3 -24 -3 -40q0 -45 39 -45q24 0 67 22q42 22 90 65q54 49 92 101q45 62 74 133l131 529h275l-178 -744q-9 -38 -9 -44q0 -5 -0.5 -10t-1 -8t-0.5 -5q0 -27 25 -27q31 0 87 52q57 52 114 194l51 -19q-24 -72 -54 -124 q-35 -61 -80 -106q-47 -47 -106 -75q-61 -29 -129 -29q-80 0 -129 40t-49 126q0 17 1 25q3 23 5 33h-12q-25 -36 -70 -83q-41 -43 -85 -71q-48 -31 -99 -50q-54 -20 -115 -20q-37 0 -79 10q-40 9 -66 29q-27 20 -46 52q-18 30 -18 73q0 33 13 90l161 629h-192zM612 1135 l316 335q53 56 89 71t64 15q60 0 90 -34q31 -36 31 -84q0 -42 -22 -67q-23 -26 -82 -54l-359 -182h-127z" />
<glyph unicode="&#xfb;" d="M84 860v62h489l-186 -727q-4 -13 -7 -38q-3 -24 -3 -40q0 -45 39 -45q24 0 67 22q42 22 90 65q54 49 92 101q45 62 74 133l131 529h275l-178 -744q-9 -38 -9 -44q0 -5 -0.5 -10t-1 -8t-0.5 -5q0 -27 25 -27q31 0 87 52q57 52 114 194l51 -19q-24 -72 -54 -124 q-35 -61 -80 -106q-47 -47 -106 -75q-61 -29 -129 -29q-80 0 -129 40t-49 126q0 17 1 25q3 23 5 33h-12q-25 -36 -70 -83q-41 -43 -85 -71q-48 -31 -99 -50q-54 -20 -115 -20q-37 0 -79 10q-40 9 -66 29q-27 20 -46 52q-18 30 -18 73q0 33 13 90l161 629h-192zM389 1135 l395 409h127l222 -409h-89l-245 176l-324 -176h-86z" />
<glyph unicode="&#xfc;" d="M84 860v62h489l-186 -727q-4 -13 -7 -38q-3 -24 -3 -40q0 -45 39 -45q24 0 67 22q42 22 90 65q54 49 92 101q45 62 74 133l131 529h275l-178 -744q-9 -38 -9 -44q0 -5 -0.5 -10t-1 -8t-0.5 -5q0 -27 25 -27q31 0 87 52q57 52 114 194l51 -19q-24 -72 -54 -124 q-35 -61 -80 -106q-47 -47 -106 -75q-61 -29 -129 -29q-80 0 -129 40t-49 126q0 17 1 25q3 23 5 33h-12q-25 -36 -70 -83q-41 -43 -85 -71q-48 -31 -99 -50q-54 -20 -115 -20q-37 0 -79 10q-40 9 -66 29q-27 20 -46 52q-18 30 -18 73q0 33 13 90l161 629h-192zM489 1366 q0 55 40 95t96 40q55 0 95 -40t40 -95t-40 -95t-95 -40q-56 0 -96 40t-40 95zM879 1366q0 55 40 95t95 40t95 -40t40 -95t-40 -95t-95 -40t-95 40t-40 95z" />
<glyph unicode="&#xfd;" horiz-adv-x="1120" d="M-131 -485q0 57 37 90q38 33 92 33q49 0 74 -25q23 -23 39 -55q6 -12 14.5 -33t9.5 -23q11 -24 33 -24q25 0 70 39q43 38 100 108q52 64 117 163q53 81 120 204l-262 725q-18 50 -26 63q-11 19 -29 19q-27 0 -57 -47q-32 -49 -88 -172l-62 28q37 76 73 137t77 107t91 70 q49 24 118 24q61 0 103 -26q45 -28 73 -107l149 -440h8l152 403q37 101 84 136q46 34 102 34q68 0 98 -35q29 -33 29 -88q0 -57 -34 -94t-95 -37q-31 0 -52 15q-20 14 -38 14q-14 0 -26 -13q-13 -15 -31 -59l-199 -479q-73 -177 -162 -328t-179 -257q-92 -109 -181 -168 q-90 -60 -172 -60q-83 0 -126 48q-44 49 -44 110zM664 1135l315 335q53 56 89 71t65 15q60 0 90 -34t30 -84q0 -42 -22 -67q-23 -26 -82 -54l-358 -182h-127z" />
<glyph unicode="&#xfe;" horiz-adv-x="1165" d="M-233 -571h149l489 2054h-190v61h465l-172 -745h10q38 62 106 105q66 42 148 42q56 0 113 -21q54 -20 105 -66q48 -43 78 -111t30 -160q0 -121 -50 -233q-48 -108 -136 -196q-86 -86 -197 -135q-116 -51 -238 -51q-43 0 -83 8q-41 8 -72 19l-134 -571h201v-62h-622v62z M383 190q0 -70 31 -104q30 -33 78 -33q64 0 121 60t99 154q40 90 65 215q24 120 24 239q0 84 -16 118q-15 31 -58 31q-64 0 -133 -57q-71 -59 -123 -174l-76 -336q-1 -5 -8 -54q-4 -28 -4 -59z" />
<glyph unicode="&#xff;" horiz-adv-x="1120" d="M-131 -485q0 57 37 90q38 33 92 33q49 0 74 -25q23 -23 39 -55q6 -12 14.5 -33t9.5 -23q11 -24 33 -24q25 0 70 39q43 38 100 108q52 64 117 163q53 81 120 204l-262 725q-18 50 -26 63q-11 19 -29 19q-27 0 -57 -47q-32 -49 -88 -172l-62 28q37 76 73 137t77 107t91 70 q49 24 118 24q61 0 103 -26q45 -28 73 -107l149 -440h8l152 403q37 101 84 136q46 34 102 34q68 0 98 -35q29 -33 29 -88q0 -57 -34 -94t-95 -37q-31 0 -52 15q-20 14 -38 14q-14 0 -26 -13q-13 -15 -31 -59l-199 -479q-73 -177 -162 -328t-179 -257q-92 -109 -181 -168 q-90 -60 -172 -60q-83 0 -126 48q-44 49 -44 110zM434 1366q0 55 40 95t95 40q56 0 96 -40t40 -95t-40 -95t-96 -40q-55 0 -95 40t-40 95zM823 1366q0 55 40 95t95 40q56 0 96 -40t40 -95t-40 -95t-96 -40q-55 0 -95 40t-40 95z" />
<glyph unicode="&#x152;" horiz-adv-x="2281" d="M133 586q0 114 36 230q37 118 98 223q63 108 149 200q87 93 186 161q98 67 211 107q111 39 225 39h393q221 0 321 -1t294 -1h307l-74 -422h-81q0 102 -16 176q-15 71 -54 111t-103 57q-65 17 -157 17h-207l-148 -656h97q104 0 178 62q75 63 121 207h71l-133 -631h-69 q0 91 -15 151q-15 61 -40 93q-25 33 -63 45t-83 12h-76l-158 -705h324q67 0 127 18q62 19 115 63q54 46 109 126q54 80 114 207h82l-123 -475h-1405q-129 0 -231 48t-174 129t-110 187t-38 222zM477 348q0 -159 53 -221q52 -61 148 -61q107 0 189 61q85 64 147 162 q64 102 107 225q46 131 73 253q29 131 41 245q12 117 12 198q0 59 -7 104q-7 46 -29 85q-21 37 -61 58q-42 22 -103 22q-107 0 -191 -63q-82 -62 -146 -162q-63 -98 -108 -224q-47 -130 -73 -250q-29 -133 -40 -239q-12 -114 -12 -193z" />
<glyph unicode="&#x153;" horiz-adv-x="1712" d="M47 350q0 110 54 218q53 105 144 192q89 84 202 135q114 51 233 51q95 0 175 -34q82 -35 138 -97q81 62 171 97q87 34 182 34q71 0 129 -19q55 -18 102 -55q45 -35 68 -82q24 -48 24 -104q0 -64 -33 -116q-33 -53 -91 -90t-142 -58t-184 -21q-15 0 -65 2q-18 1 -89 7 q-4 -22 -11 -54.5t-9 -43.5q-3 -14 -6.5 -35.5t-4.5 -26.5q-2 -10 -5 -38q-1 -9 -1 -24q0 -69 33 -99t115 -30q240 0 409 244l51 -39q-86 -137 -212 -212t-273 -75q-99 0 -178 33q-81 34 -133 99q-90 -67 -187 -101q-100 -35 -196 -35q-87 0 -165 28q-72 26 -129 78 q-55 50 -85 120q-31 71 -31 151zM354 240q0 -100 23 -148q23 -47 82 -47q64 0 125 50q58 48 103 136q45 89 70 200q25 112 25 241q0 114 -23 157q-24 45 -79 45q-66 0 -125 -52t-104 -140q-46 -90 -71 -203q-26 -116 -26 -239zM1079 475h78q130 0 206 65q75 64 75 181 q0 73 -31 119q-30 45 -84 45q-73 0 -134 -100q-61 -101 -110 -310z" />
<glyph unicode="&#x178;" horiz-adv-x="1325" d="M137 1483v61h725v-61h-237l266 -717h8l451 717h-230v61h461v-61h-158l-528 -846l-131 -574h242v-63h-777v63h232l131 599l-287 821h-168zM748 1761q0 54 38 91q40 38 93 38t91 -38t38 -91t-38 -91t-91 -38t-93 38q-38 37 -38 91zM1122 1761q0 53 38 91t91 38q52 0 92 -38 q39 -37 39 -91q0 -53 -39 -91q-40 -38 -92 -38q-53 0 -91 38t-38 91z" />
<glyph unicode="&#x2c6;" horiz-adv-x="743" d="M164 1135l395 409h127l221 -409h-88l-246 176l-323 -176h-86z" />
<glyph unicode="&#x2dc;" horiz-adv-x="835" d="M195 1194q17 60 45 111q30 55 67 95q39 42 90 66q53 25 115 25q51 0 87 -15q31 -13 66 -34q40 -24 60 -34q30 -15 74 -15q70 0 116 37q50 40 66 67h78q-47 -136 -126 -218q-80 -83 -196 -83q-53 0 -89 15q-31 13 -66 34q-30 18 -62 34q-30 15 -76 15q-61 0 -106 -29 q-48 -31 -70 -71h-73z" />
<glyph unicode="&#x2000;" horiz-adv-x="946" />
<glyph unicode="&#x2001;" horiz-adv-x="1892" />
<glyph unicode="&#x2002;" horiz-adv-x="946" />
<glyph unicode="&#x2003;" horiz-adv-x="1892" />
<glyph unicode="&#x2004;" horiz-adv-x="630" />
<glyph unicode="&#x2005;" horiz-adv-x="473" />
<glyph unicode="&#x2006;" horiz-adv-x="315" />
<glyph unicode="&#x2007;" horiz-adv-x="315" />
<glyph unicode="&#x2008;" horiz-adv-x="236" />
<glyph unicode="&#x2009;" horiz-adv-x="378" />
<glyph unicode="&#x200a;" horiz-adv-x="105" />
<glyph unicode="&#x2010;" horiz-adv-x="849" d="M119 373v131h604v-131h-604z" />
<glyph unicode="&#x2011;" horiz-adv-x="849" d="M119 373v131h604v-131h-604z" />
<glyph unicode="&#x2012;" horiz-adv-x="849" d="M119 373v131h604v-131h-604z" />
<glyph unicode="&#x2013;" horiz-adv-x="1142" d="M-29 393v111h1196v-111h-1196z" />
<glyph unicode="&#x2014;" horiz-adv-x="1736" d="M-35 393v111h1792v-111h-1792z" />
<glyph unicode="&#x2018;" horiz-adv-x="538" d="M221 1149q0 111 103 223q102 111 292 189l27 -48q-153 -79 -236 -159q-85 -82 -85 -160q0 -31 10 -44t20 -13q12 0 19 12q9 14 20 28t33 28t55 14q37 0 63 -15t42 -37q17 -23 24 -49q8 -29 8 -53q0 -38 -15 -68q-15 -31 -41 -52t-58 -33q-30 -11 -70 -11q-53 0 -95 25 q-40 24 -66 62q-26 39 -38 81q-12 43 -12 80z" />
<glyph unicode="&#x2019;" horiz-adv-x="542" d="M258 950q153 79 237 160q85 82 85 160q0 30 -11 44q-10 13 -20 13q-12 0 -19 -13t-20 -29q-13 -17 -33 -28q-21 -12 -55 -12q-38 0 -63 15q-27 16 -42 36q-16 22 -24 50q-8 29 -8 53q0 37 15 67q16 33 41 53q24 20 58 32q33 12 70 12q53 0 95 -25q40 -24 66 -62 q26 -39 38 -81q12 -43 12 -80q0 -112 -102 -223t-293 -189z" />
<glyph unicode="&#x201a;" horiz-adv-x="542" d="M-25 -264q153 79 237 160q85 82 85 159q0 31 -10 44q-11 14 -21 14t-18 -14q-3 -6 -21 -28q-14 -18 -32 -28q-21 -12 -56 -12q-38 0 -62 14q-26 15 -42 37q-18 25 -25 49q-8 29 -8 53q0 38 15 68q16 31 41 52t59 33q30 11 69 11q56 0 96 -24q37 -22 65 -63q26 -39 38 -81 q12 -43 12 -80q0 -112 -102 -223q-100 -109 -293 -188z" />
<glyph unicode="&#x201c;" horiz-adv-x="983" d="M207 1151q0 112 102 223t293 189l27 -47q-153 -79 -237 -160q-85 -82 -85 -160q0 -31 10 -44t21 -13q10 0 18 12q5 8 21 28q11 14 33 28t55 14q36 0 62 -15t42 -37q18 -25 25 -49q8 -29 8 -53q0 -38 -15 -68q-15 -31 -41 -52q-25 -21 -59 -33q-30 -11 -69 -11 q-53 0 -95 25q-40 24 -66 62q-26 39 -38 81q-12 43 -12 80zM721 1151q0 112 102 223t293 189l27 -47q-153 -79 -237 -160q-85 -82 -85 -160q0 -31 10 -44t21 -13q10 0 18 12q5 8 21 28q11 14 33 28t55 14q37 0 62 -15q26 -15 42 -37q18 -25 25 -49q8 -29 8 -53 q0 -38 -15 -68q-15 -31 -41 -52q-25 -21 -59 -33q-30 -11 -69 -11q-53 0 -95 25q-40 24 -66 62q-26 39 -38 81q-12 43 -12 80z" />
<glyph unicode="&#x201d;" horiz-adv-x="980" d="M227 950q153 79 237 160q85 82 85 160q0 31 -10 44t-21 13t-18 -13q-5 -9 -21 -29q-13 -17 -33 -28q-21 -12 -55 -12q-37 0 -62 15q-27 16 -42 36q-18 24 -25 50q-8 29 -8 53q0 37 15 67q16 33 41 53q23 19 59 32q33 12 69 12q54 0 96 -25q38 -23 65 -62q26 -39 38 -81 q12 -43 12 -80q0 -112 -102 -223t-293 -189zM741 950q153 79 237 160q85 82 85 160q0 31 -10 44t-21 13t-18 -13q-5 -9 -21 -29q-14 -18 -32 -28q-21 -12 -56 -12q-37 0 -62 15q-27 16 -42 36q-18 24 -25 50q-8 29 -8 53q0 37 15 67q16 33 41 53q23 19 59 32q33 12 69 12 q54 0 96 -25q38 -23 65 -62q26 -39 38 -81q12 -43 12 -80q0 -112 -102 -223t-293 -189z" />
<glyph unicode="&#x201e;" horiz-adv-x="980" d="M-70 -264q153 79 237 160q85 82 85 159q0 31 -10 44q-11 14 -21 14t-18 -14q-3 -6 -21 -28q-14 -18 -32 -28q-21 -12 -56 -12q-38 0 -62 14q-26 15 -42 37q-18 25 -25 49q-8 29 -8 53q0 38 15 68q15 31 41 52q25 21 59 33q30 11 69 11q55 0 96 -24q37 -22 65 -63 q26 -39 38 -81q12 -43 12 -80q0 -112 -102 -223q-100 -109 -293 -188zM444 -264q153 79 237 160q85 82 85 159q0 31 -10 44q-11 14 -21 14t-18 -14q-3 -6 -21 -28q-14 -18 -32 -28q-21 -12 -56 -12q-38 0 -62 14q-26 15 -42 37q-18 25 -25 49q-8 29 -8 53q0 38 15 68 q16 31 41 52t59 33q30 11 69 11q55 0 96 -24q37 -22 65 -63q26 -39 38 -81q12 -44 12 -80q0 -112 -102 -223q-100 -109 -293 -188z" />
<glyph unicode="&#x2022;" horiz-adv-x="880" d="M276 778q0 48 17 91q16 41 47 75q29 32 75 51t97 19t97 -19t75 -51q31 -34 47 -75q17 -43 17 -91t-17 -91q-16 -41 -47 -75q-29 -32 -75 -51q-43 -18 -97 -18t-97 18q-46 19 -75 51q-31 34 -47 75q-17 43 -17 91z" />
<glyph unicode="&#x2026;" horiz-adv-x="1474" d="M10 152q0 76 51 127t125 51q76 0 127 -51q52 -52 52 -127q0 -73 -52 -125t-127 -52q-73 0 -125 52q-51 51 -51 125zM502 152q0 76 51 127t125 51q76 0 127 -51t51 -127q0 -74 -51 -125q-52 -52 -127 -52q-73 0 -125 52q-51 51 -51 125zM993 152q0 76 51 127t125 51 q76 0 127 -51q52 -52 52 -127q0 -73 -52 -125t-127 -52q-73 0 -125 52q-51 51 -51 125z" />
<glyph unicode="&#x202f;" horiz-adv-x="378" />
<glyph unicode="&#x2039;" horiz-adv-x="747" d="M129 428l10 45l508 371l27 -23l-244 -370l88 -363l-37 -31z" />
<glyph unicode="&#x203a;" horiz-adv-x="747" d="M66 88l264 363l-109 370l35 23l373 -371l-11 -45l-528 -371z" />
<glyph unicode="&#x205f;" horiz-adv-x="473" />
<glyph unicode="&#x20ac;" horiz-adv-x="1298" d="M117 571l20 95h162l41 168h-168l21 90h184q44 93 111 187q63 89 150 168q80 73 178 121q93 46 200 46q54 0 90 -11q40 -12 65 -29q31 -21 46 -37q18 -19 30 -36l74 113h55l-65 -397h-84q0 64 -13 131q-12 61 -36 106q-23 44 -60 71q-34 25 -80 25q-55 0 -103 -35 q-51 -37 -94 -98q-44 -63 -84 -145q-42 -87 -71 -180h508l-20 -90h-510l-46 -168h521l-21 -95h-520q-18 -77 -26 -149q-9 -78 -9 -143q0 -114 36 -177t128 -63q57 0 110 24q50 23 96 69q44 44 79 105q34 59 57 130h90l-98 -367h-51l-33 66q-46 -38 -107 -65 q-64 -28 -153 -28q-116 0 -199 47q-80 45 -134 128q-51 79 -76 190q-23 104 -23 233h-168z" />
<glyph unicode="&#x2122;" horiz-adv-x="1771" d="M252 1296l53 248h658l-54 -248h-55q6 33 6 80q0 46 -31 85q-30 38 -92 38h-20l-144 -674h132l-11 -47h-440l10 47h131l144 674h-35q-73 0 -125 -58q-54 -60 -72 -145h-55zM848 778l10 47h90l144 674h-91l11 45h315l43 -532h8l281 532h266l-10 -45h-72l-143 -674h72 l-11 -47h-360l10 47h113l133 629h-8l-355 -684h-75l-68 684h-8l-135 -629h112l-10 -47h-262z" />
<glyph unicode="&#x25fc;" horiz-adv-x="942" d="M0 0v942h942v-942h-942z" />
</font>
</defs>
</svg>
