<?xml version="1.0" standalone="no"?>
<!DOCTYPE svg PUBLIC "-//W3C//DTD SVG 1.1//EN" "http://www.w3.org/Graphics/SVG/1.1/DTD/svg11.dtd" >
<svg xmlns="http://www.w3.org/2000/svg">
<metadata></metadata>
<defs>
<font id="jones-lightlight" horiz-adv-x="1228" >
<font-face units-per-em="2048" ascent="1638" descent="-410" />
<missing-glyph horiz-adv-x="768" />
<glyph horiz-adv-x="0" />
<glyph horiz-adv-x="682" />
<glyph unicode=" "  horiz-adv-x="768" />
<glyph unicode="&#x09;" horiz-adv-x="768" />
<glyph unicode="&#xa0;" horiz-adv-x="768" />
<glyph unicode="!" horiz-adv-x="430" d="M166 61q0 34 23 57t57 23t57 -23t23 -57t-23 -56.5t-57 -22.5t-57 22.5t-23 56.5zM184 1063v352h121v-352l-26 -606h-68z" />
<glyph unicode="&#x22;" horiz-adv-x="778" d="M166 1466q0 32 19 51t51 19t50.5 -19t18.5 -51q0 -18 -1 -36.5t-2.5 -33t-6 -45.5t-7.5 -50.5t-11.5 -74.5t-14.5 -91h-57q-39 249 -39 331zM471 1466q0 32 19 51t51 19t50.5 -19t18.5 -51q0 -18 -1 -36.5t-2.5 -33t-6 -45.5t-7.5 -50.5t-11.5 -74.5t-14.5 -91h-57 q-39 249 -39 331z" />
<glyph unicode="#" horiz-adv-x="1484" d="M57 375l6 135h314l53 401h-305l6 136h311l54 387h133l-54 -387h404l53 387h133l-53 -387h305l-4 -136h-313l-56 -401h308l-6 -135h-312l-47 -375h-131l45 375h-403l-47 -375h-132l46 375h-308zM508 510h405l54 401h-404z" />
<glyph unicode="$" horiz-adv-x="1345" d="M96 219l74 84q109 -95 232.5 -152t242.5 -61v586q-57 13 -91 21.5t-88.5 26.5t-87.5 35.5t-73 47t-62 63t-37.5 81t-15.5 104.5q0 154 124.5 263t330.5 124v268h98v-268q124 -7 244 -49t217 -107l-61 -88q-197 119 -400 135v-569q178 -37 250 -66q179 -70 218 -217 q12 -44 12 -96q0 -164 -133.5 -275t-346.5 -126v-271h-98v269q-152 7 -295.5 72t-253.5 165zM291 1049q0 -48 21 -87.5t53 -66t82 -49t94.5 -36t103.5 -26.5v549q-148 -9 -251 -86.5t-103 -197.5zM743 94q165 16 268 94t103 203q0 30 -8 56.5t-19.5 46.5t-33.5 39 t-39.5 31.5t-50 25.5t-51.5 20t-57.5 17t-55.5 14t-56 12v-559z" />
<glyph unicode="%" horiz-adv-x="2033" d="M33 1010q0 182 120 302t304 120t304 -120t120 -302t-120 -302t-304 -120q-182 0 -303 120.5t-121 301.5zM141 1010q0 -133 92 -225.5t224 -92.5t223.5 92.5t91.5 225.5q0 132 -92.5 225.5t-222.5 93.5t-223 -94t-93 -225zM420 0l1055 1434h143l-1053 -1434h-145z M1153 418q0 182 120 302t304 120t304 -120t120 -302t-120 -302t-304 -120q-182 0 -303 120.5t-121 301.5zM1262 418q0 -133 91.5 -225.5t223.5 -92.5t223.5 92.5t91.5 225.5q0 132 -92.5 225.5t-222.5 93.5t-222.5 -94t-92.5 -225z" />
<glyph unicode="&#x26;" horiz-adv-x="1357" d="M147 391q0 67 21 125t62 106.5t83.5 84.5t102.5 77l26 17l-18 26q-125 167 -125 334q0 134 105.5 239t257.5 105q145 0 235 -93t90 -218q0 -36 -12 -71.5t-29 -64.5t-49.5 -63t-58.5 -57t-72 -56t-74.5 -52t-79.5 -52l-30 -20l24 -27q202 -226 359 -381l26 -24l21 30 q91 140 129 226l80 -52q-52 -119 -136 -235l-16 -23l229 -211l-57 -57l-221 197l-21 -19q-95 -91 -210.5 -146.5t-221.5 -55.5q-117 0 -215 59t-151.5 153t-53.5 199zM250 401q0 -135 101 -230t224 -95q86 0 179.5 41.5t165.5 111.5l22 23l-20 22q-212 212 -410 437l-18 22 l-23 -18q-102 -80 -140 -123q-81 -92 -81 -191zM393 1153q0 -128 123 -299l19 -25l24 19q20 14 66 44.5t75.5 50.5t69.5 52t63.5 59t40.5 61.5t17 68.5q0 93 -69 162t-160 69q-104 0 -186.5 -74.5t-82.5 -187.5z" />
<glyph unicode="'" horiz-adv-x="425" d="M104 1245l80 139q-41 23 -41 70q0 34 23 57t57 23t57 -23t23 -57q0 -24 -14 -45l-92 -164h-93z" />
<glyph unicode="(" horiz-adv-x="653" d="M250 633q0 260 60 487.5t179 399.5h101q-115 -178 -178.5 -407t-63.5 -480t63.5 -480t178.5 -407h-101q-119 172 -179 399.5t-60 487.5z" />
<glyph unicode=")" horiz-adv-x="706" d="M29 -254q114 178 177.5 407t63.5 480t-63.5 480t-177.5 407h100q119 -172 179.5 -399.5t60.5 -487.5t-60.5 -487.5t-179.5 -399.5h-100z" />
<glyph unicode="*" horiz-adv-x="712" d="M57 1032l222 123l-222 125l41 72l219 -129l-2 254h82l-2 -254l219 129l41 -72l-221 -125l221 -123l-41 -71l-219 129l2 -254h-82l2 254l-219 -129z" />
<glyph unicode="+" horiz-adv-x="1019" d="M72 614v101h383v389h112v-389h381v-101h-381v-389h-112v389h-383z" />
<glyph unicode="," horiz-adv-x="438" d="M104 -147l80 139q-41 23 -41 69q0 34 23 57t57 23t57 -23t23 -57q0 -24 -14 -45l-92 -163h-93z" />
<glyph unicode="-" horiz-adv-x="753" d="M125 543v162h504v-162h-504z" />
<glyph unicode="." horiz-adv-x="446" d="M143 61q0 34 23 57t57 23t57 -23t23 -57t-23 -56.5t-57 -22.5t-57 22.5t-23 56.5z" />
<glyph unicode="/" horiz-adv-x="677" d="M-2 -240l649 1911h119l-649 -1911h-119z" />
<glyph unicode="0" d="M68 717q0 212 65 375t190 255.5t293 92.5q167 0 291.5 -92.5t189 -255.5t64.5 -375q0 -160 -35 -292t-102 -228.5t-171.5 -149.5t-236.5 -53q-177 0 -302 93t-185.5 254t-60.5 376zM172 717q0 -281 125.5 -448t318.5 -167q192 0 316.5 167t124.5 448q0 147 -36.5 266 t-98.5 194t-140.5 114.5t-165.5 39.5q-88 0 -167 -39.5t-141.5 -114.5t-99 -194t-36.5 -266z" />
<glyph unicode="1" d="M283 1167v123l565 180v-1470h-107v1315z" />
<glyph unicode="2" d="M102 1229q264 215 512 215q200 0 328.5 -112.5t128.5 -278.5q0 -40 -13.5 -82t-29.5 -73t-53.5 -78t-58.5 -70.5t-74.5 -80t-73.5 -77.5l-516 -498h885v-94h-1020v94l631 619q45 45 65.5 67t58 66.5t55.5 75t33 71.5t15 78q0 120 -104.5 197.5t-282.5 77.5 q-93 0 -216 -56.5t-214 -140.5z" />
<glyph unicode="3" d="M111 145l61 78q75 -62 190.5 -101.5t215.5 -39.5q196 0 315 100t119 262q0 148 -115.5 224.5t-298.5 76.5h-180v70l516 524h-758v93h873v-111l-484 -483l148 -9q184 -15 294.5 -117t110.5 -268q0 -203 -143 -328.5t-381 -125.5q-131 0 -260.5 42t-222.5 113z" />
<glyph unicode="4" d="M55 362v68l731 1004h148v-979h240v-93h-240v-362h-92v362h-787zM190 455h652v903z" />
<glyph unicode="5" d="M94 156l66 77q87 -58 209.5 -97.5t218.5 -39.5q196 0 321 101t125 266q0 75 -34 131.5t-95 90t-137 49.5t-168 16q-69 0 -199 -6t-198 -13v703h872l2 -95h-774v-499l320 2q241 0 376.5 -92.5t135.5 -276.5q0 -218 -145 -349.5t-386 -131.5q-126 0 -264.5 45t-245.5 119z " />
<glyph unicode="6" d="M70 688q0 344 167.5 550t450.5 206q106 0 224.5 -30t205.5 -79l-53 -102q-66 43 -172 73.5t-188 30.5q-243 0 -382 -176.5t-139 -482.5v-25q64 113 185.5 189t289.5 76q220 0 360 -121t140 -326q0 -222 -137 -351.5t-367 -129.5q-273 0 -429 184.5t-156 513.5zM221 467 q0 -146 121 -258.5t301 -112.5q181 0 295.5 101.5t114.5 275.5q0 163 -116.5 249.5t-301.5 86.5q-97 0 -192.5 -46t-158.5 -126t-63 -170z" />
<glyph unicode="7" d="M94 1339v95h1041v-82l-590 -1352h-111l590 1339h-930z" />
<glyph unicode="8" d="M61 397q0 132 75.5 229t211.5 140q-104 47 -158.5 128.5t-54.5 186.5q0 168 129.5 265.5t349.5 97.5q221 0 350.5 -99.5t129.5 -271.5q0 -105 -51 -184t-150 -123q130 -43 202 -138.5t72 -226.5q0 -191 -148.5 -301t-404.5 -110q-254 0 -403.5 109.5t-149.5 297.5z M160 424q0 -149 124.5 -242.5t329.5 -93.5q215 0 335 95t120 241q0 131 -128 204.5t-327 73.5q-129 0 -230.5 -31.5t-162.5 -95.5t-61 -151zM229 1079q0 -110 110.5 -190t274.5 -80q165 0 275 80t110 190q0 47 -26 94.5t-73.5 88t-122.5 65.5t-163 25q-186 0 -285.5 -68.5 t-99.5 -204.5z" />
<glyph unicode="9" d="M70 963q0 222 136.5 351.5t366.5 129.5q273 0 429.5 -185t156.5 -514q0 -344 -167.5 -549.5t-450.5 -205.5q-107 0 -225 29.5t-205 78.5l53 103q66 -43 172.5 -74t187.5 -31q243 0 381.5 176.5t138.5 483.5v24q-64 -113 -185.5 -188.5t-289.5 -75.5q-220 0 -359.5 121 t-139.5 326zM176 961q0 -163 116.5 -249.5t301.5 -86.5q97 0 192.5 46t158.5 126t63 170q0 146 -121 258t-301 112q-181 0 -295.5 -101t-114.5 -275z" />
<glyph unicode=":" horiz-adv-x="434" d="M143 61q0 34 23 57t57 23t57 -23t23 -57t-23 -56.5t-57 -22.5t-57 22.5t-23 56.5zM143 719q0 34 23 57t57 23t57 -23t23 -57t-23 -57t-57 -23t-57 23t-23 57z" />
<glyph unicode=";" horiz-adv-x="442" d="M104 -147l80 139q-41 23 -41 69q0 34 23 57t57 23t57 -23t23 -57q0 -24 -14 -45l-92 -163h-93zM143 719q0 34 23 57t57 23t57 -23t23 -57t-23 -57t-57 -23t-57 23t-23 57z" />
<glyph unicode="&#x3c;" horiz-adv-x="1019" d="M72 563v207l876 381v-182l-719 -301l719 -303v-183z" />
<glyph unicode="=" horiz-adv-x="1019" d="M72 369v161h876v-161h-876zM72 799v162h876v-162h-876z" />
<glyph unicode="&#x3e;" horiz-adv-x="1019" d="M72 193v182l719 301l-719 303v182l876 -381v-207z" />
<glyph unicode="?" horiz-adv-x="907" d="M25 1014q0 197 111 303t298 106q175 0 292.5 -113.5t117.5 -269.5q0 -91 -29.5 -164t-80 -120t-113 -74t-134.5 -33l-14 -243h-88l-20 331h32q145 0 243.5 88.5t98.5 214.5q0 114 -88.5 195.5t-220.5 81.5q-290 0 -299 -303h-106zM348 61q0 34 23 57t57 23t57 -23t23 -57 t-23 -56.5t-57 -22.5t-57 22.5t-23 56.5z" />
<glyph unicode="@" horiz-adv-x="1994" d="M70 547q0 186 73 351.5t198.5 283.5t299.5 187t369 69t364.5 -66.5t290.5 -182.5t190.5 -280t69.5 -352q0 -230 -109 -370t-282 -140q-88 0 -164 47t-102 121q-54 -69 -139.5 -106t-188.5 -37q-125 0 -232.5 59t-174 170t-66.5 250q0 135 55.5 246t159 177t236.5 66 q77 0 144.5 -17.5t109 -43.5t66.5 -49.5t34 -42.5v133h129v-746q0 -54 44 -87t91 -33q121 0 197.5 111.5t76.5 285.5q0 216 -104.5 395.5t-288 283t-407.5 103.5q-225 0 -415 -105t-300.5 -286t-110.5 -395q0 -158 62 -298t168.5 -239.5t254.5 -157t314 -57.5 q101 0 218.5 35.5t201.5 95.5l59 -98q-89 -63 -224 -102t-255 -39q-192 0 -361.5 65.5t-290.5 179t-191 273.5t-70 342zM584 561q0 -165 102.5 -275t257.5 -110q81 0 142.5 31t98 85.5t54.5 121.5t18 145q0 75 -18.5 140.5t-56 118.5t-99.5 83.5t-143 30.5q-152 0 -254 -106 t-102 -265z" />
<glyph unicode="A" horiz-adv-x="1699" d="M135 0l656 1434h114l656 -1434h-109l-186 408v-9h-840l-182 -399h-109zM471 498h754l-377 823z" />
<glyph unicode="B" horiz-adv-x="1429" d="M150 0v1434h622q223 0 352 -96t129 -263q0 -124 -68.5 -218.5t-183.5 -121.5q147 -25 227.5 -112t80.5 -230q0 -184 -139.5 -288.5t-383.5 -104.5h-636zM248 92h532q196 0 310 77t114 234q0 148 -111 211.5t-313 63.5h-532v-586zM248 778h532q177 0 278 79t101 216 q0 132 -107.5 200t-291.5 68h-512v-563z" />
<glyph unicode="C" horiz-adv-x="1521" d="M123 719q0 151 57 284.5t155 229.5t236.5 151.5t294.5 55.5q151 0 295.5 -59t249.5 -162l-72 -84q-82 89 -204.5 143.5t-264.5 54.5q-131 0 -249 -47t-204.5 -127.5t-137 -194.5t-50.5 -243q0 -172 86 -316.5t233.5 -227.5t321.5 -83q136 0 259 60t217 149l67 -78 q-110 -109 -257.5 -172t-297.5 -63q-207 0 -375.5 96t-264 263t-95.5 370z" />
<glyph unicode="D" horiz-adv-x="1605" d="M150 0v1434h587q159 0 297 -54t235.5 -148t153.5 -227.5t56 -287.5q0 -204 -96 -368t-267 -256.5t-385 -92.5h-581zM258 109h485q129 0 245 47t199 127.5t132 193t49 238.5q0 179 -85 320t-229.5 217.5t-320.5 76.5h-475v-1220z" />
<glyph unicode="E" horiz-adv-x="1323" d="M150 0v1434h1024v-95h-926v-571h844v-102h-844v-564h950v-102h-1048z" />
<glyph unicode="F" horiz-adv-x="1222" d="M150 0v1434h962l-2 -95h-862v-598h794v-92h-794v-649h-98z" />
<glyph unicode="G" horiz-adv-x="1566" d="M123 717q0 152 58 286t158 230t241 151.5t301 55.5q152 0 298 -54t253 -147l-56 -92q-86 79 -228.5 135.5t-273.5 56.5q-184 0 -331.5 -82t-229.5 -224t-82 -316q0 -128 49 -242t134 -197t207 -131.5t262 -48.5q213 0 444 138v409h-455v100h551v-569 q-110 -84 -260.5 -135t-296.5 -51q-156 0 -294.5 56.5t-236.5 153t-155 231t-57 286.5z" />
<glyph unicode="H" horiz-adv-x="1548" d="M150 0v1434h108v-684h1026v684h109v-1434h-109v645h-1026v-645h-108z" />
<glyph unicode="I" horiz-adv-x="546" d="M217 0v1434h107v-1434h-107z" />
<glyph unicode="J" horiz-adv-x="1118" d="M100 197l70 71q82 -86 168.5 -136t189.5 -50q153 0 246.5 93t93.5 255v1004h101v-992q0 -215 -119 -333.5t-328 -118.5q-255 0 -422 207z" />
<glyph unicode="K" horiz-adv-x="1492" d="M150 0v1434h114v-1053l969 1053h135l-563 -611l594 -823h-125l-541 748l-469 -510v-238h-114z" />
<glyph unicode="L" horiz-adv-x="1134" d="M150 0v1434h108v-1338h754v-96h-862z" />
<glyph unicode="M" horiz-adv-x="1820" d="M150 0v1434h122l637 -1168l635 1168h121v-1434h-100l-2 1245l-596 -1095h-117l-596 1095v-1245h-104z" />
<glyph unicode="N" horiz-adv-x="1507" d="M147 0v1434h136l962 -1287v1287h105v-1434h-136l-958 1284v-1284h-109z" />
<glyph unicode="O" horiz-adv-x="1759" d="M147 715q0 196 97.5 363t264.5 264.5t363 97.5t363 -97.5t264.5 -264.5t97.5 -363t-97.5 -363t-264.5 -264.5t-363 -97.5t-363 97.5t-264.5 264.5t-97.5 363zM256 713q0 -168 82 -310t224 -224.5t310 -82.5q162 0 304.5 83.5t227.5 226t85 307.5q0 168 -82.5 310 t-224.5 224t-310 82q-126 0 -240 -48.5t-196.5 -131t-131 -196.5t-48.5 -240z" />
<glyph unicode="P" horiz-adv-x="1370" d="M150 0v1434h591q238 0 372 -117.5t134 -321.5q0 -212 -133.5 -331t-372.5 -119h-493v-545h-98zM248 649h524q170 0 269.5 92.5t99.5 249.5q0 152 -101.5 245t-267.5 93h-524v-680z" />
<glyph unicode="Q" horiz-adv-x="1759" d="M147 715q0 196 97.5 363t264.5 264.5t363 97.5t363 -97.5t264.5 -264.5t97.5 -363q0 -144 -52.5 -272t-147.5 -228l186 -176l-78 -80l-190 182q-198 -151 -443 -151q-196 0 -363 97.5t-264.5 264.5t-97.5 363zM256 713q0 -168 82 -310t224 -224.5t310 -82.5 q201 0 365 119l-373 350l76 80l379 -358q80 86 125 195t45 231q0 168 -82.5 310t-224.5 224t-310 82q-126 0 -240 -48.5t-196.5 -131t-131 -196.5t-48.5 -240z" />
<glyph unicode="R" horiz-adv-x="1421" d="M150 0v1434h632q238 0 372 -117.5t134 -321.5q0 -181 -101 -275.5t-296 -113.5l420 -606h-123l-416 602h-524v-602h-98zM248 694h534q74 0 132 7.5t111 28t88.5 54t56 87.5t20.5 126q0 64 -26 124.5t-75 109.5t-129 78.5t-178 29.5h-534v-645z" />
<glyph unicode="S" horiz-adv-x="1345" d="M96 219l74 84q113 -99 243.5 -156t254.5 -57q126 0 226 34.5t160 103.5t60 163q0 37 -12.5 69t-29.5 54.5t-49.5 43t-57.5 33t-69 25.5t-68.5 19t-72.5 16.5t-65 14.5q-175 40 -234 60q-193 68 -245 204q-21 56 -21 125q0 165 142 277t370 112q133 0 264 -43.5 t238 -114.5l-61 -88q-227 137 -459 137q-160 0 -276.5 -79t-116.5 -207q0 -44 16.5 -81t50.5 -64.5t68.5 -47t88.5 -36.5t91.5 -26.5t95.5 -21.5q17 -4 53 -11q87 -18 133.5 -29t121 -40.5t113 -65t69.5 -98t31 -143.5q0 -177 -152 -290t-389 -113q-162 0 -316 65t-270 172z " />
<glyph unicode="T" horiz-adv-x="1359" d="M100 1335v99h1149v-99h-522v-1335h-106v1335h-521z" />
<glyph unicode="U" horiz-adv-x="1452" d="M139 594v840h109v-840q0 -227 130 -363.5t347 -136.5q215 0 343 135.5t128 364.5v840h109v-840q0 -285 -150.5 -444.5t-431.5 -159.5t-432.5 160t-151.5 444z" />
<glyph unicode="V" horiz-adv-x="1583" d="M109 1434h116l566 -1313l559 1313h118l-608 -1434h-139z" />
<glyph unicode="W" horiz-adv-x="2320" d="M88 1434h115l426 -1295l487 1258h90l484 -1243l419 1280h115l-471 -1434h-119l-473 1217l-473 -1217h-129z" />
<glyph unicode="X" horiz-adv-x="1525" d="M109 0l577 735l-549 699h148l475 -605l475 605h147l-548 -699l577 -735h-147l-504 641l-504 -641h-147z" />
<glyph unicode="Y" horiz-adv-x="1476" d="M86 1434h121l532 -781l525 781h122l-593 -893v-541h-105v541z" />
<glyph unicode="Z" horiz-adv-x="1456" d="M139 0v102l1008 1227h-981v105h1132v-103l-1005 -1227h1016v-104h-1170z" />
<glyph unicode="[" horiz-adv-x="706" d="M188 -254v1774h465v-127h-315v-1520h315v-127h-465z" />
<glyph unicode="\" horiz-adv-x="1116" d="M266 1671h201l649 -1911h-201z" />
<glyph unicode="]" horiz-adv-x="968" d="M315 -127h316v1520h-316v127h465v-1774h-465v127z" />
<glyph unicode="^" horiz-adv-x="1101" d="M66 270l380 807h207l381 -807h-182l-301 662l-303 -662h-182z" />
<glyph unicode="_" horiz-adv-x="1159" d="M0 -274h1159v-144h-1159v144z" />
<glyph unicode="`" horiz-adv-x="716" d="M166 1468l160 82l217 -303h-148z" />
<glyph unicode="a" horiz-adv-x="1220" d="M113 328q0 283 411 286h453v115q0 85 -53 146.5t-131 89.5t-168 28q-93 0 -202.5 -35.5t-191.5 -91.5l-55 95q125 74 224 105.5t245 31.5q202 0 315 -101.5t115 -281.5l2 -715h-98v133q-54 -67 -201 -105t-282 -38q-174 0 -278.5 95t-104.5 243zM213 324 q0 -110 83.5 -173t215.5 -63q66 0 144 14t151 39t121.5 67.5t48.5 92.5v213h-418q-62 0 -111 -4.5t-94.5 -17.5t-75.5 -33.5t-47.5 -54.5t-17.5 -80z" />
<glyph unicode="b" horiz-adv-x="1402" d="M201 0v1520h102v-660q29 63 96.5 117.5t155 87.5t170.5 33q233 0 381.5 -154.5t148.5 -402.5q0 -244 -146.5 -396.5t-379.5 -152.5q-130 0 -255.5 70.5t-170.5 166.5v-229h-102zM303 549q0 -123 58.5 -227t153.5 -163t202 -59q187 0 310.5 124.5t123.5 324.5 q0 196 -123.5 320t-310.5 124q-106 0 -201.5 -59t-154 -162t-58.5 -223z" />
<glyph unicode="c" horiz-adv-x="1236" d="M113 543q0 117 43.5 220t118.5 176.5t180 116t225 42.5q128 0 239 -48.5t189 -134.5l-72 -71q-57 65 -156.5 109t-199.5 44q-122 0 -227.5 -57t-170.5 -162.5t-65 -234.5q0 -126 62.5 -230.5t169 -164.5t231.5 -60q120 0 221.5 52.5t161.5 125.5l65 -73 q-78 -97 -194 -151t-254 -54q-117 0 -222 42.5t-180.5 116t-120 176.5t-44.5 220z" />
<glyph unicode="d" horiz-adv-x="1398" d="M147 541q0 248 149 402.5t382 154.5q83 0 170.5 -33t155 -87.5t96.5 -117.5v660h102v-1520h-102v229q-45 -96 -170.5 -166.5t-255.5 -70.5q-234 0 -380.5 152.5t-146.5 396.5zM252 549q0 -200 123.5 -324.5t310.5 -124.5q107 0 202 59t153.5 163t58.5 227 q0 120 -58.5 223t-154 162t-201.5 59q-187 0 -310.5 -124t-123.5 -320z" />
<glyph unicode="e" horiz-adv-x="1271" d="M113 543q0 83 22.5 163.5t67.5 151t108 124.5t150.5 85t187.5 31t185.5 -31t145.5 -84.5t102 -125t62.5 -151t20.5 -163.5q0 -37 -2 -51h-944q19 -171 145.5 -285.5t297.5 -114.5q124 0 225 52t157 120l72 -84q-77 -90 -195 -141t-251 -51q-104 0 -195 31t-156.5 85 t-112.5 124.5t-70 151t-23 163.5zM219 596h832v18q0 57 -28.5 121.5t-78 122t-128 95.5t-167.5 38q-167 0 -289 -114t-141 -281z" />
<glyph unicode="f" horiz-adv-x="888" d="M104 924v94h185v178q0 169 83 251.5t230 82.5q70 0 143 -19.5t123 -56.5l-47 -94q-30 30 -90 48.5t-115 18.5q-120 0 -173.5 -54.5t-53.5 -174.5v-180h377v-94h-377v-924h-100v924h-185z" />
<glyph unicode="g" horiz-adv-x="1351" d="M145 580q0 229 142 373.5t362 144.5q122 0 221 -56t158 -149v197h100v-984q0 -247 -108 -378t-354 -131q-242 0 -453 143l39 88q79 -59 192.5 -99t210.5 -40q176 0 274.5 97t98.5 294v178q-58 -93 -155 -149t-216 -56q-223 0 -367.5 147t-144.5 380zM244 573 q0 -181 116.5 -301t282.5 -120q71 0 138 27t123 78t90 133t34 183t-34 184.5t-89.5 136t-123.5 81.5t-138 29q-77 0 -149.5 -32t-127.5 -87.5t-88.5 -137t-33.5 -174.5z" />
<glyph unicode="h" horiz-adv-x="1296" d="M160 0v1520h108v-633q34 64 82 107t107.5 65t119.5 30.5t136 8.5q193 0 311.5 -113.5t118.5 -306.5v-678h-107v674q0 152 -96.5 233.5t-267.5 81.5q-201 0 -302.5 -105t-101.5 -286v-598h-108z" />
<glyph unicode="i" horiz-adv-x="546" d="M193 1464q0 34 22.5 57t56.5 23t57 -23t23 -57t-23 -57t-57 -23t-56.5 23t-22.5 57zM219 0v1090h107v-1090h-107z" />
<glyph unicode="j" horiz-adv-x="815" d="M90 -334l49 103q102 -66 178 -66q89 0 151 66t62 178v1143h107v-1121q0 -184 -90.5 -280.5t-229.5 -96.5q-128 0 -227 74zM504 1464q0 34 23 57t57 23t57 -23t23 -57t-23 -57t-57 -23t-57 23t-23 57z" />
<glyph unicode="k" horiz-adv-x="1263" d="M150 0v1520h102v-1190l733 760h152l-406 -418l436 -672h-129l-383 592l-403 -418v-174h-102z" />
<glyph unicode="l" horiz-adv-x="540" d="M211 0v1520h113v-1520h-113z" />
<glyph unicode="m" horiz-adv-x="1855" d="M150 0v1090h110v-172q78 180 354 180q131 0 217 -59t121 -152q37 107 127.5 159t245.5 52q190 0 284.5 -110t94.5 -310v-678h-113v674q0 169 -67 244t-211 75q-79 0 -135.5 -18t-102.5 -62.5t-69 -127.5t-23 -205v-580h-123v674q0 76 -11 129t-40 97.5t-85 66.5t-140 22 q-162 0 -243 -83.5t-81 -243.5v-662h-110z" />
<glyph unicode="n" horiz-adv-x="1241" d="M145 0v1090h107v-203q34 64 80 107t103.5 65t116 30.5t134.5 8.5q190 0 300 -112.5t110 -307.5v-678h-107v674q0 154 -87.5 234.5t-256.5 80.5q-200 0 -296.5 -104t-96.5 -287v-598h-107z" />
<glyph unicode="o" horiz-adv-x="1339" d="M113 543q0 157 71 283.5t199 199t287 72.5t287 -72.5t199 -199t71 -283.5t-71 -283.5t-199 -199t-287 -72.5q-117 0 -220.5 42.5t-177 116t-116.5 176.5t-43 220zM217 543q0 -187 132.5 -320t320.5 -133q187 0 319.5 132.5t132.5 320.5q0 187 -132 319.5t-320 132.5 t-320.5 -132.5t-132.5 -319.5z" />
<glyph unicode="p" horiz-adv-x="1409" d="M186 -397v1487h103v-230q45 96 170.5 167t255.5 71q233 0 379.5 -152.5t146.5 -396.5q0 -248 -148.5 -402.5t-381.5 -154.5q-83 0 -170.5 32.5t-155 87t-96.5 117.5v-626h-103zM289 541q0 -90 34.5 -173t91 -142t132.5 -94.5t155 -35.5q187 0 311 124.5t124 320.5 q0 200 -124 324t-311 124q-80 0 -155 -35t-132 -94t-91.5 -143t-34.5 -176z" />
<glyph unicode="q" horiz-adv-x="1409" d="M145 549q0 244 146.5 396.5t380.5 152.5q130 0 255.5 -71t170.5 -167v230h102v-1487h-102v626q-29 -63 -96.5 -117.5t-155 -87t-170.5 -32.5q-233 0 -382 154.5t-149 402.5zM250 541q0 -196 123.5 -320.5t310.5 -124.5q106 0 201.5 59t154 162.5t58.5 223.5 q0 92 -34.5 176t-91.5 143t-132.5 94t-155.5 35q-187 0 -310.5 -124t-123.5 -324z" />
<glyph unicode="r" horiz-adv-x="925" d="M145 0v1090h103v-187q47 81 157 137t246 56q67 0 148 -19v-102q-68 18 -137 18q-107 0 -202 -41t-153.5 -115.5t-58.5 -164.5v-672h-103z" />
<glyph unicode="s" horiz-adv-x="1079" d="M100 143l43 86q74 -66 183 -108.5t223 -42.5q124 0 209.5 61.5t85.5 159.5q0 34 -16.5 62.5t-37 45.5t-59.5 33.5t-63.5 23.5t-70.5 18.5t-60 15.5q-69 19 -128.5 44t-117.5 62t-91.5 88.5t-33.5 112.5q0 73 33 130.5t88.5 92.5t124.5 53.5t145 18.5q103 0 200 -29 t171 -82l-37 -82q-82 50 -157 74.5t-185 24.5q-109 0 -193 -53t-84 -144q0 -37 22 -70t52 -55t76.5 -42.5t77.5 -30.5t73 -21q9 -3 29 -8q36 -10 55 -15.5t54.5 -16.5t55 -20t49 -23t46.5 -27.5t37.5 -33t31 -39.5t18 -46.5t7.5 -55.5q0 -107 -59.5 -183t-152 -110.5 t-205.5 -34.5q-118 0 -237 45.5t-202 120.5z" />
<glyph unicode="t" horiz-adv-x="944" d="M102 934v94h205v320h111v-320h393v-94h-393v-594q0 -131 44.5 -190.5t143.5 -59.5q42 0 80.5 11.5t58.5 23t62 39.5l22 -94q-135 -80 -268 -80q-116 0 -185 96t-69 262v586h-205z" />
<glyph unicode="u" d="M135 412v678h107v-674q0 -155 86 -235.5t254 -80.5q199 0 295 104.5t96 287.5v598h106v-1090h-106v203q-34 -64 -79.5 -107t-103 -65t-115.5 -30.5t-134 -8.5q-190 0 -298 112t-108 308z" />
<glyph unicode="v" horiz-adv-x="1284" d="M94 1090h115l426 -988l428 988h115l-476 -1090h-133z" />
<glyph unicode="w" horiz-adv-x="1839" d="M96 1090h105l321 -959l332 959h121l364 -959l277 959h113l-316 -1090h-141l-359 961l-317 -961h-139z" />
<glyph unicode="x" horiz-adv-x="1267" d="M96 0l469 561l-442 529h135l375 -449l375 449h135l-443 -529l469 -561h-135l-401 479l-402 -479h-135z" />
<glyph unicode="y" horiz-adv-x="1308" d="M94 1090h115l500 -963l383 963h110l-495 -1240q-102 -258 -355 -258q-140 0 -252 93l58 73q32 -23 53.5 -36t59 -24t79.5 -11q184 0 266 207l43 106z" />
<glyph unicode="z" horiz-adv-x="1181" d="M123 0v78l756 911h-738v101l895 -3v-75l-755 -912l774 -2v-100z" />
<glyph unicode="{" horiz-adv-x="673" d="M74 535v194h63q46 0 67 25.5t21 83.5v424q0 141 74 200.5t246 59.5h88v-189q-107 0 -151 -33.5t-44 -111.5v-336q0 -99 -32.5 -150t-110.5 -71q78 -19 110.5 -69.5t32.5 -149.5v-336q0 -78 44 -112t151 -34v-188h-88q-172 0 -246 60t-74 202v422q0 58 -21 83.5t-67 25.5 h-63z" />
<glyph unicode="|" horiz-adv-x="550" d="M186 -238v1897h179v-1897h-179z" />
<glyph unicode="}" horiz-adv-x="823" d="M264 -70q107 0 151 34t44 112v336q0 99 32.5 150t110.5 71q-78 19 -110.5 69.5t-32.5 149.5v336q0 78 -44 111.5t-151 33.5v189h88q172 0 246 -59.5t74 -200.5v-424q0 -58 21 -83.5t67 -25.5h63v-194h-63q-46 0 -67 -25.5t-21 -83.5v-422q0 -142 -74 -202t-246 -60h-88 v188z" />
<glyph unicode="~" horiz-adv-x="1019" d="M135 522q0 287 199 287q56 0 116 -29.5t110.5 -58.5t84.5 -29q80 0 80 103h162q0 -287 -199 -287q-47 0 -95 18.5t-80.5 40t-69.5 40t-64 18.5q-80 0 -80 -103h-164z" />
<glyph unicode="&#xa1;" horiz-adv-x="428" d="M160 1026q0 34 23 57t57 23t56.5 -23t22.5 -57t-22.5 -57t-56.5 -23t-57 23t-23 57zM180 25l27 606h67l27 -606v-353h-121v353z" />
<glyph unicode="&#xa2;" horiz-adv-x="1155" d="M72 543q0 220 141 374t360 177v305h101v-301q238 -12 393 -183l-72 -71q-53 59 -140.5 101.5t-180.5 49.5v-905q110 8 202.5 59t145.5 117l65 -73q-74 -91 -180 -145t-233 -60v-285h-101v289q-216 23 -358.5 177.5t-142.5 373.5zM176 543q0 -173 114 -300t283 -151v901 q-168 -24 -282.5 -148.5t-114.5 -301.5z" />
<glyph unicode="&#xa3;" horiz-adv-x="1120" d="M76 0v197h170v413h-170v172h170v207q0 218 113.5 336.5t322.5 118.5q117 0 222 -47.5t183 -136.5l-96 -189q-132 156 -284 156q-107 0 -163.5 -62t-56.5 -182v-201h361v-172h-361v-413h574v-197h-985z" />
<glyph unicode="&#xa4;" horiz-adv-x="1456" d="M72 133l209 209q-103 144 -103 311q0 169 98 310l-204 204l133 142l211 -211q142 96 311 96q170 0 313 -94l211 209l133 -142l-204 -204q100 -140 100 -310q0 -172 -104 -311l208 -209l-133 -141l-217 215q-139 -90 -307 -90q-166 0 -305 90l-217 -215zM367 653 q0 -138 105.5 -237t254.5 -99q152 0 259.5 99t107.5 237q0 141 -107.5 241.5t-259.5 100.5q-149 0 -254.5 -100.5t-105.5 -241.5z" />
<glyph unicode="&#xa5;" horiz-adv-x="1286" d="M2 1434h244l409 -699l402 699h246l-426 -775h301v-102h-357l-43 -78v-92h400v-102h-400v-285h-241v285h-383v102h383v82l-50 88h-333v102h278z" />
<glyph unicode="&#xa6;" horiz-adv-x="550" d="M186 -238v709h179v-709h-179zM186 950v709h179v-709h-179z" />
<glyph unicode="&#xa7;" horiz-adv-x="1021" d="M43 -18l72 151q177 -139 374 -139q94 0 155 37t61 92q0 36 -21 65t-57 48.5t-82.5 36.5t-97.5 33t-102.5 34t-98 43.5t-82.5 57.5t-57 80t-21 108q0 96 66.5 164t183.5 96q-115 47 -161 100.5t-46 136.5q0 130 110 212.5t291 82.5q208 0 388 -108l-74 -152 q-166 94 -312 94q-90 0 -144 -33t-54 -87q0 -41 27 -72.5t70.5 -50.5t100 -38.5t114.5 -36t114.5 -43.5t100 -59.5t70.5 -86t27 -121.5q0 -88 -63.5 -162.5t-157.5 -102.5q95 -41 136.5 -93.5t41.5 -139.5q0 -133 -116 -218t-303 -85q-125 0 -243 40.5t-210 115.5zM291 645 q0 -71 75 -117.5t185 -46.5q96 0 147.5 36t51.5 95q0 70 -71.5 114t-182.5 44q-97 0 -151 -33.5t-54 -91.5z" />
<glyph unicode="&#xa8;" horiz-adv-x="794" d="M98 1462q0 34 23 57t57 23t57 -23t23 -57t-23 -57t-57 -23t-57 23t-23 57zM461 1462q0 34 23 57t57 23t57 -23t23 -57t-23 -57t-57 -23t-57 23t-23 57z" />
<glyph unicode="&#xa9;" horiz-adv-x="1525" d="M70 713q0 140 54 268.5t146 223t221 150.5t273 56q143 0 271.5 -55t220.5 -148.5t146 -221.5t54 -269q0 -140 -54.5 -268.5t-146.5 -223t-221.5 -151t-273.5 -56.5q-143 0 -271.5 55.5t-220 149.5t-145 222t-53.5 268zM186 713q0 -155 75 -286t207 -208.5t292 -77.5 q161 0 294.5 78.5t209 210.5t75.5 287t-75 286t-207.5 208t-292.5 77q-161 0 -294 -78t-208.5 -210t-75.5 -287zM406 715q0 149 106 249.5t262 100.5q73 0 144 -29t124 -80l-71 -86q-86 86 -195 86q-104 0 -176 -69.5t-72 -169.5q0 -102 72 -173t176 -71q51 0 103 22t92 60 l71 -80q-55 -53 -126.5 -84t-145.5 -31q-154 0 -259 102t-105 253z" />
<glyph unicode="&#xaa;" horiz-adv-x="1220" d="M68 1126q0 89 66.5 137t189.5 50h198v28q0 58 -39 89.5t-116 31.5q-98 0 -220 -61l-41 115q156 75 300 75q133 0 206.5 -61t73.5 -170v-422h-162v102q-76 -108 -235 -108q-102 0 -161.5 53.5t-59.5 140.5zM223 1141q0 -45 33 -72t88 -27q125 0 178 101v86h-166 q-63 0 -98 -23t-35 -65z" />
<glyph unicode="&#xab;" horiz-adv-x="933" d="M47 532l238 357h196l-219 -357l219 -356h-196zM416 532l237 357h197l-219 -357l219 -356h-197z" />
<glyph unicode="&#xac;" horiz-adv-x="1150" d="M72 666v161h923v-530h-172v369h-751z" />
<glyph unicode="&#xad;" horiz-adv-x="753" d="M125 543v162h504v-162h-504z" />
<glyph unicode="&#xae;" horiz-adv-x="1525" d="M70 713q0 140 54 268.5t146 223t221 150.5t273 56q143 0 271.5 -55t220.5 -148.5t146 -221.5t54 -269q0 -140 -54.5 -268.5t-146.5 -223t-221.5 -151t-273.5 -56.5q-143 0 -271.5 55.5t-220 149.5t-145 222t-53.5 268zM186 713q0 -155 75 -286t207 -208.5t292 -77.5 q161 0 294.5 78.5t209 210.5t75.5 287t-75 286t-207.5 208t-292.5 77q-161 0 -294 -78t-208.5 -210t-75.5 -287zM500 389v692h278q135 0 208 -61.5t73 -175.5q0 -166 -146 -223l160 -232h-135l-129 209h-193v-209h-116zM616 696h162q80 0 125 38.5t45 107.5q0 68 -45 104.5 t-125 36.5h-162v-287z" />
<glyph unicode="&#xaf;" horiz-adv-x="716" d="M98 1313v170h523v-170h-523z" />
<glyph unicode="&#xb0;" horiz-adv-x="708" d="M166 1423q0 97 69.5 166.5t167.5 69.5t168 -69.5t70 -166.5t-70 -166t-168 -69q-97 0 -167 69t-70 166zM266 1423q0 -53 40 -91t97 -38t97.5 38t40.5 91t-40.5 92t-97.5 39t-97 -39t-40 -92z" />
<glyph unicode="&#xb1;" horiz-adv-x="1019" d="M72 41v164h876v-164h-876zM72 721v160h362v350h154v-350h360v-160h-360v-350h-154v350h-362z" />
<glyph unicode="&#xb2;" d="M57 1317q162 123 334 123q127 0 206 -59t79 -156q0 -122 -164 -279l-221 -223h422v-135h-637v114l321 330q45 44 73 89.5t28 78.5q0 46 -35 71t-98 25q-55 0 -119 -28t-121 -78z" />
<glyph unicode="&#xb3;" d="M23 674l71 135q98 -98 223 -98q79 0 124.5 37t45.5 100q0 62 -44.5 94.5t-127.5 32.5h-127v94l230 234h-355v127h551v-101l-243 -246l45 -4q108 -11 173.5 -71t65.5 -158q0 -120 -88.5 -195t-236.5 -75q-83 0 -166 26t-141 68z" />
<glyph unicode="&#xb4;" horiz-adv-x="716" d="M178 1245l217 303l119 -61l-229 -242h-107z" />
<glyph unicode="&#xb5;" horiz-adv-x="1382" d="M201 -397v1487h159v-664q0 -123 83.5 -203t213.5 -80q140 0 228 90.5t88 225.5v631h170v-1090h-170v168q-42 -82 -145.5 -129t-235.5 -47q-140 0 -232 65v-454h-159z" />
<glyph unicode="&#xb6;" horiz-adv-x="1259" d="M-2 1116q0 80 26 150t79 128t144.5 92t211.5 34h612v-1743h-180v1595h-268v-1595h-179v952h-63q-87 0 -156.5 26t-110.5 66t-68.5 93.5t-37.5 102.5t-10 99z" />
<glyph unicode="&#xb7;" horiz-adv-x="434" d="M94 588q0 57 35 93t88 36t88 -36t35 -93q0 -55 -35 -92t-88 -37t-88 37t-35 92z" />
<glyph unicode="&#xb8;" horiz-adv-x="716" d="M160 -401l45 90q53 -41 119 -41q55 0 84.5 33.5t29.5 70.5q0 44 -33.5 71t-85.5 27q-33 0 -71 -10l86 183h119l-80 -125q73 -14 128.5 -56.5t55.5 -105.5q0 -87 -62 -141t-155 -54q-102 0 -180 58z" />
<glyph unicode="&#xb9;" d="M33 1231v162l342 82v-887h-172v684z" />
<glyph unicode="&#xba;" horiz-adv-x="1339" d="M61 1262q0 147 98 237t257 90t257.5 -90t98.5 -237t-98.5 -237.5t-257.5 -90.5t-257 90.5t-98 237.5zM227 1260q0 -87 52.5 -141t136.5 -54q83 0 134.5 53.5t51.5 141.5t-51.5 141t-134.5 53q-84 0 -136.5 -53.5t-52.5 -140.5z" />
<glyph unicode="&#xbb;" horiz-adv-x="958" d="M156 178l219 357l-219 356h196l238 -356l-238 -357h-196zM524 178l219 357l-219 356h197l237 -356l-237 -357h-197z" />
<glyph unicode="&#xbc;" horiz-adv-x="1673" d="M33 1292v142h342v-846h-172v704h-170zM102 0l1055 1434h225l-1052 -1434h-228zM924 199v120l293 527h163l-284 -520h245v209h162v-209h125v-127h-125v-199h-162v199h-417z" />
<glyph unicode="&#xbd;" horiz-adv-x="1718" d="M33 1292v142h342v-846h-172v704h-170zM102 0l1055 1434h225l-1052 -1434h-228zM991 729q158 123 334 123q127 0 206 -59t79 -156q0 -122 -164 -279l-221 -221h422v-137h-637v117l321 327q101 101 101 170q0 45 -35.5 71t-98.5 26q-55 0 -118 -28.5t-121 -78.5z" />
<glyph unicode="&#xbe;" horiz-adv-x="1798" d="M23 674l71 135q98 -98 223 -98q79 0 124.5 37t45.5 100q0 62 -44.5 94.5t-127.5 32.5h-127v94l230 234h-355v127h551v-101l-243 -246l45 -4q108 -11 173.5 -71t65.5 -158q0 -120 -88.5 -195t-236.5 -75q-83 0 -166 26t-141 68zM229 0l1055 1434h225l-1052 -1434h-228z M1051 199v120l292 527h164l-284 -520h245v209h162v-209h125v-127h-125v-199h-162v199h-417z" />
<glyph unicode="&#xbf;" horiz-adv-x="907" d="M63 47q0 91 29.5 164t80 120t113 74t134.5 33l14 244h88l21 -332h-33q-145 0 -243.5 -88.5t-98.5 -214.5q0 -114 88.5 -195t220.5 -81q290 0 299 303h107q0 -197 -111.5 -303.5t-298.5 -106.5q-175 0 -292.5 113.5t-117.5 269.5zM399 1026q0 34 23 57t57 23t57 -23 t23 -57t-23 -57t-57 -23t-57 23t-23 57z" />
<glyph unicode="&#xc0;" horiz-adv-x="1699" d="M135 0l656 1434h114l656 -1434h-109l-186 408v-9h-840l-182 -399h-109zM471 498h754l-377 823zM549 1784l160 82l217 -303h-148z" />
<glyph unicode="&#xc1;" horiz-adv-x="1699" d="M135 0l656 1434h114l656 -1434h-109l-186 408v-9h-840l-182 -399h-109zM471 498h754l-377 823zM799 1563l217 303l119 -62l-230 -241h-106z" />
<glyph unicode="&#xc2;" horiz-adv-x="1699" d="M135 0l656 1434h114l656 -1434h-109l-186 408v-9h-840l-182 -399h-109zM471 498h754l-377 823zM573 1563l209 288h136l212 -288h-131l-147 200l-147 -200h-132z" />
<glyph unicode="&#xc3;" horiz-adv-x="1699" d="M135 0l656 1434h114l656 -1434h-109l-186 408v-9h-840l-182 -399h-109zM471 498h754l-377 823zM520 1575q0 133 48 200.5t141 67.5q31 0 64 -19t60.5 -46t54 -54t54.5 -46t53 -19q33 0 57 30t33 67.5t9 74.5h86q0 -268 -185 -268q-34 0 -67.5 19t-60.5 46t-52.5 54 t-53 46t-52.5 19q-33 0 -56.5 -30t-33 -67.5t-9.5 -74.5h-90z" />
<glyph unicode="&#xc4;" horiz-adv-x="1699" d="M135 0l656 1434h114l656 -1434h-109l-186 408v-9h-840l-182 -399h-109zM471 498h754l-377 823zM590 1704q0 34 23 57t57 23t57 -23t23 -57t-23 -57t-57 -23t-57 23t-23 57zM952 1704q0 34 23 57t57 23t57 -23t23 -57t-23 -57t-57 -23t-57 23t-23 57z" />
<glyph unicode="&#xc5;" horiz-adv-x="1699" d="M135 0l656 1432q-79 21 -130 84t-51 145q0 97 71 167t171 70t171 -70t71 -167q0 -84 -53 -148t-134 -83l654 -1430h-109l-186 408v-9h-840l-182 -399h-109zM471 498h754l-377 823zM692 1661q0 -54 51.5 -103t108.5 -49t108.5 49t51.5 103t-51.5 102.5t-108.5 48.5 t-108.5 -48.5t-51.5 -102.5z" />
<glyph unicode="&#xc6;" horiz-adv-x="2154" d="M0 0l838 1434h1187v-146h-864v-493h783v-156h-783v-485h889v-154h-1049v373h-616l-215 -373h-170zM469 518h532v770h-88z" />
<glyph unicode="&#xc7;" horiz-adv-x="1521" d="M123 719q0 151 57 284.5t155 229.5t236.5 151.5t294.5 55.5q151 0 295.5 -59t249.5 -162l-72 -84q-82 89 -204.5 143.5t-264.5 54.5q-131 0 -249 -47t-204.5 -127.5t-137 -194.5t-50.5 -243q0 -172 86 -316.5t233.5 -227.5t321.5 -83q136 0 259 60t217 149l67 -78 q-103 -101 -239 -163.5t-277 -69.5l-70 -111q73 -14 129 -56.5t56 -105.5q0 -87 -62 -140.5t-155 -53.5q-104 0 -181 57l45 90q53 -41 119 -41q55 0 85 34t30 71q0 44 -33.5 71t-85.5 27q-34 0 -72 -10l80 170q-188 17 -338.5 116t-235.5 258.5t-85 350.5z" />
<glyph unicode="&#xc8;" horiz-adv-x="1323" d="M150 0v1434h1024v-95h-926v-571h844v-102h-844v-564h950v-102h-1048zM358 1784l160 82l217 -303h-147z" />
<glyph unicode="&#xc9;" horiz-adv-x="1323" d="M150 0v1434h1024v-95h-926v-571h844v-102h-844v-564h950v-102h-1048zM608 1563l217 303l119 -62l-229 -241h-107z" />
<glyph unicode="&#xca;" horiz-adv-x="1323" d="M150 0v1434h1024v-95h-926v-571h844v-102h-844v-564h950v-102h-1048zM383 1563l211 288h135l211 -288h-131l-147 200l-148 -200h-131z" />
<glyph unicode="&#xcb;" horiz-adv-x="1323" d="M150 0v1434h1024v-95h-926v-571h844v-102h-844v-564h950v-102h-1048zM401 1704q0 34 22 57t56 23t58 -23t24 -57t-24 -57t-58 -23t-56 23t-22 57zM762 1704q0 34 24 57t58 23t56 -23t22 -57t-22 -57t-56 -23t-58 23t-24 57z" />
<glyph unicode="&#xcc;" horiz-adv-x="546" d="M-33 1784l160 82l217 -303h-147zM217 0v1434h107v-1434h-107z" />
<glyph unicode="&#xcd;" horiz-adv-x="546" d="M217 0v1434h107v-1434h-107zM217 1563l217 303l119 -62l-229 -241h-107z" />
<glyph unicode="&#xce;" horiz-adv-x="546" d="M-8 1563l211 288h135l211 -288h-131l-148 200l-147 -200h-131zM217 0v1434h107v-1434h-107z" />
<glyph unicode="&#xcf;" horiz-adv-x="546" d="M8 1704q0 34 24 57t58 23t56 -23t22 -57t-22 -57t-56 -23t-58 23t-24 57zM217 0v1434h107v-1434h-107zM373 1704q0 34 22 57t56 23t57.5 -23t23.5 -57t-23.5 -57t-57.5 -23t-56 23t-22 57z" />
<glyph unicode="&#xd0;" horiz-adv-x="1605" d="M0 649v142h233v643h588q159 0 297 -54t235.5 -148t153.5 -227.5t56 -287.5q0 -204 -96 -368t-267 -256.5t-385 -92.5h-582v649h-233zM342 109h485q129 0 245 47t199 127.5t132 193t49 238.5q0 179 -85 320t-229.5 217.5t-320.5 76.5h-475v-538h535v-142h-535v-540z" />
<glyph unicode="&#xd1;" horiz-adv-x="1507" d="M147 0v1434h136l962 -1287v1287h105v-1434h-136l-958 1284v-1284h-109zM418 1575q0 268 188 268q31 0 64 -19t60.5 -46t54.5 -54t55 -46t53 -19q26 0 45.5 17.5t30.5 44.5t16.5 55t5.5 55h86q0 -268 -184 -268q-34 0 -67.5 19t-60.5 46t-53 54t-53.5 46t-52.5 19 q-47 0 -72.5 -55.5t-25.5 -116.5h-90z" />
<glyph unicode="&#xd2;" horiz-adv-x="1759" d="M147 715q0 196 97.5 363t264.5 264.5t363 97.5t363 -97.5t264.5 -264.5t97.5 -363t-97.5 -363t-264.5 -264.5t-363 -97.5t-363 97.5t-264.5 264.5t-97.5 363zM256 713q0 -168 82 -310t224 -224.5t310 -82.5q162 0 304.5 83.5t227.5 226t85 307.5q0 168 -82.5 310 t-224.5 224t-310 82q-126 0 -240 -48.5t-196.5 -131t-131 -196.5t-48.5 -240zM569 1784l160 82l217 -303h-147z" />
<glyph unicode="&#xd3;" horiz-adv-x="1759" d="M147 715q0 196 97.5 363t264.5 264.5t363 97.5t363 -97.5t264.5 -264.5t97.5 -363t-97.5 -363t-264.5 -264.5t-363 -97.5t-363 97.5t-264.5 264.5t-97.5 363zM256 713q0 -168 82 -310t224 -224.5t310 -82.5q162 0 304.5 83.5t227.5 226t85 307.5q0 168 -82.5 310 t-224.5 224t-310 82q-126 0 -240 -48.5t-196.5 -131t-131 -196.5t-48.5 -240zM819 1563l217 303l119 -62l-229 -241h-107z" />
<glyph unicode="&#xd4;" horiz-adv-x="1759" d="M147 715q0 196 97.5 363t264.5 264.5t363 97.5t363 -97.5t264.5 -264.5t97.5 -363t-97.5 -363t-264.5 -264.5t-363 -97.5t-363 97.5t-264.5 264.5t-97.5 363zM256 713q0 -168 82 -310t224 -224.5t310 -82.5q162 0 304.5 83.5t227.5 226t85 307.5q0 168 -82.5 310 t-224.5 224t-310 82q-126 0 -240 -48.5t-196.5 -131t-131 -196.5t-48.5 -240zM594 1563l211 288h135l211 -288h-131l-148 200l-147 -200h-131z" />
<glyph unicode="&#xd5;" horiz-adv-x="1759" d="M147 715q0 196 97.5 363t264.5 264.5t363 97.5t363 -97.5t264.5 -264.5t97.5 -363t-97.5 -363t-264.5 -264.5t-363 -97.5t-363 97.5t-264.5 264.5t-97.5 363zM256 713q0 -168 82 -310t224 -224.5t310 -82.5q162 0 304.5 83.5t227.5 226t85 307.5q0 168 -82.5 310 t-224.5 224t-310 82q-126 0 -240 -48.5t-196.5 -131t-131 -196.5t-48.5 -240zM543 1575q0 268 188 268q31 0 63.5 -19t60 -46t54 -54t54.5 -46t53 -19q26 0 45.5 17.5t30.5 44.5t16.5 55t5.5 55h88q0 -268 -186 -268q-34 0 -67.5 19t-60.5 46t-53 54t-53.5 46t-52.5 19 q-47 0 -71.5 -55.5t-24.5 -116.5h-90z" />
<glyph unicode="&#xd6;" horiz-adv-x="1759" d="M147 715q0 196 97.5 363t264.5 264.5t363 97.5t363 -97.5t264.5 -264.5t97.5 -363t-97.5 -363t-264.5 -264.5t-363 -97.5t-363 97.5t-264.5 264.5t-97.5 363zM256 713q0 -168 82 -310t224 -224.5t310 -82.5q162 0 304.5 83.5t227.5 226t85 307.5q0 168 -82.5 310 t-224.5 224t-310 82q-126 0 -240 -48.5t-196.5 -131t-131 -196.5t-48.5 -240zM610 1704q0 34 24 57t58 23t56 -23t22 -57t-22 -57t-56 -23t-58 23t-24 57zM975 1704q0 34 22 57t56 23t58 -23t24 -57t-24 -57t-58 -23t-56 23t-22 57z" />
<glyph unicode="&#xd7;" horiz-adv-x="1019" d="M147 412l252 254l-252 252l109 114l256 -256l254 256l108 -114l-251 -252l251 -254l-108 -115l-254 256l-256 -256z" />
<glyph unicode="&#xd8;" horiz-adv-x="1759" d="M104 715q0 196 97.5 363t264.5 264.5t363 97.5q56 0 140 -15l80 236h143l-92 -272q202 -81 328 -264.5t126 -409.5q0 -196 -97.5 -363t-264.5 -264.5t-363 -97.5q-108 0 -196 26l-90 -266h-144l107 316q-181 91 -291.5 265.5t-110.5 383.5zM213 713q0 -176 89.5 -321.5 t238.5 -223.5l393 1153q-44 8 -105 8q-126 0 -240 -48.5t-196.5 -131t-131 -196.5t-48.5 -240zM668 117q76 -21 161 -21q162 0 304.5 83.5t227.5 226t85 307.5q0 191 -106 346t-277 225z" />
<glyph unicode="&#xd9;" horiz-adv-x="1452" d="M139 594v840h109v-840q0 -227 130 -363.5t347 -136.5q215 0 343 135.5t128 364.5v840h109v-840q0 -285 -150.5 -444.5t-431.5 -159.5t-432.5 160t-151.5 444zM418 1784l160 82l217 -303h-148z" />
<glyph unicode="&#xda;" horiz-adv-x="1452" d="M139 594v840h109v-840q0 -227 130 -363.5t347 -136.5q215 0 343 135.5t128 364.5v840h109v-840q0 -285 -150.5 -444.5t-431.5 -159.5t-432.5 160t-151.5 444zM668 1563l217 303l119 -62l-230 -241h-106z" />
<glyph unicode="&#xdb;" horiz-adv-x="1452" d="M139 594v840h109v-840q0 -227 130 -363.5t347 -136.5q215 0 343 135.5t128 364.5v840h109v-840q0 -285 -150.5 -444.5t-431.5 -159.5t-432.5 160t-151.5 444zM442 1563l213 288h136l208 -288h-131l-147 200l-148 -200h-131z" />
<glyph unicode="&#xdc;" horiz-adv-x="1452" d="M139 594v840h109v-840q0 -227 130 -363.5t347 -136.5q215 0 343 135.5t128 364.5v840h109v-840q0 -285 -150.5 -444.5t-431.5 -159.5t-432.5 160t-151.5 444zM461 1704q0 34 23 57t57 23t57 -23t23 -57t-23 -57t-57 -23t-57 23t-23 57zM823 1704q0 34 23 57t57 23t57 -23 t23 -57t-23 -57t-57 -23t-57 23t-23 57z" />
<glyph unicode="&#xdd;" horiz-adv-x="1476" d="M86 1434h121l532 -781l525 781h122l-593 -893v-541h-105v541zM684 1563l217 303l119 -62l-229 -241h-107z" />
<glyph unicode="&#xde;" horiz-adv-x="1390" d="M188 0v1434h181v-203h362q291 0 448.5 -125t157.5 -354q0 -240 -157.5 -371t-448.5 -131h-362v-250h-181zM369 410h352q200 0 316 88t116 247q0 154 -116 240t-316 86h-352v-661z" />
<glyph unicode="&#xdf;" horiz-adv-x="1339" d="M160 0v999q0 243 139.5 387t382.5 144q212 0 344.5 -108t132.5 -287q0 -120 -64.5 -217t-172.5 -138q145 -29 232 -118.5t87 -231.5q0 -190 -148 -310t-391 -120h-104v182h123q131 0 211 67.5t80 174.5q0 114 -92.5 178t-249.5 64h-27v180q132 0 210.5 68.5t78.5 183.5 q0 111 -69.5 176t-184.5 65q-132 0 -208.5 -87t-76.5 -236v-1016h-233z" />
<glyph unicode="&#xe0;" horiz-adv-x="1220" d="M113 328q0 283 411 286h453v115q0 85 -53 146.5t-131 89.5t-168 28q-93 0 -202.5 -35.5t-191.5 -91.5l-55 95q125 74 224 105.5t245 31.5q202 0 315 -101.5t115 -281.5l2 -715h-98v133q-54 -67 -201 -105t-282 -38q-174 0 -278.5 95t-104.5 243zM213 324 q0 -110 83.5 -173t215.5 -63q66 0 144 14t151 39t121.5 67.5t48.5 92.5v213h-418q-62 0 -111 -4.5t-94.5 -17.5t-75.5 -33.5t-47.5 -54.5t-17.5 -80zM342 1442l160 82l217 -303h-148z" />
<glyph unicode="&#xe1;" horiz-adv-x="1220" d="M113 328q0 283 411 286h453v115q0 85 -53 146.5t-131 89.5t-168 28q-93 0 -202.5 -35.5t-191.5 -91.5l-55 95q125 74 224 105.5t245 31.5q202 0 315 -101.5t115 -281.5l2 -715h-98v133q-54 -67 -201 -105t-282 -38q-174 0 -278.5 95t-104.5 243zM213 324 q0 -110 83.5 -173t215.5 -63q66 0 144 14t151 39t121.5 67.5t48.5 92.5v213h-418q-62 0 -111 -4.5t-94.5 -17.5t-75.5 -33.5t-47.5 -54.5t-17.5 -80zM592 1221l217 303l119 -62l-230 -241h-106z" />
<glyph unicode="&#xe2;" horiz-adv-x="1220" d="M113 328q0 283 411 286h453v115q0 85 -53 146.5t-131 89.5t-168 28q-93 0 -202.5 -35.5t-191.5 -91.5l-55 95q125 74 224 105.5t245 31.5q202 0 315 -101.5t115 -281.5l2 -715h-98v133q-54 -67 -201 -105t-282 -38q-174 0 -278.5 95t-104.5 243zM213 324 q0 -110 83.5 -173t215.5 -63q66 0 144 14t151 39t121.5 67.5t48.5 92.5v213h-418q-62 0 -111 -4.5t-94.5 -17.5t-75.5 -33.5t-47.5 -54.5t-17.5 -80zM367 1221l211 288h135l211 -288h-131l-148 200l-147 -200h-131z" />
<glyph unicode="&#xe3;" horiz-adv-x="1220" d="M113 328q0 283 411 286h453v115q0 85 -53 146.5t-131 89.5t-168 28q-93 0 -202.5 -35.5t-191.5 -91.5l-55 95q125 74 224 105.5t245 31.5q202 0 315 -101.5t115 -281.5l2 -715h-98v133q-54 -67 -201 -105t-282 -38q-174 0 -278.5 95t-104.5 243zM213 324 q0 -110 83.5 -173t215.5 -63q66 0 144 14t151 39t121.5 67.5t48.5 92.5v213h-418q-62 0 -111 -4.5t-94.5 -17.5t-75.5 -33.5t-47.5 -54.5t-17.5 -80zM315 1233q0 133 48 200.5t141 67.5q31 0 63.5 -19t60 -46t53.5 -54t54 -46t53 -19q33 0 57 30t33 67.5t9 74.5h88 q0 -268 -187 -268q-34 0 -67.5 19t-60.5 46t-52.5 54t-53 46t-52.5 19q-47 0 -71.5 -55.5t-24.5 -116.5h-91z" />
<glyph unicode="&#xe4;" horiz-adv-x="1220" d="M113 328q0 283 411 286h453v115q0 85 -53 146.5t-131 89.5t-168 28q-93 0 -202.5 -35.5t-191.5 -91.5l-55 95q125 74 224 105.5t245 31.5q202 0 315 -101.5t115 -281.5l2 -715h-98v133q-54 -67 -201 -105t-282 -38q-174 0 -278.5 95t-104.5 243zM213 324 q0 -110 83.5 -173t215.5 -63q66 0 144 14t151 39t121.5 67.5t48.5 92.5v213h-418q-62 0 -111 -4.5t-94.5 -17.5t-75.5 -33.5t-47.5 -54.5t-17.5 -80zM385 1362q0 34 22 57t56 23t58 -23t24 -57t-24 -57t-58 -23t-56 23t-22 57zM745 1362q0 34 24 57t58 23t56 -23t22 -57 t-22 -57t-56 -23t-58 23t-24 57z" />
<glyph unicode="&#xe5;" horiz-adv-x="1220" d="M113 328q0 283 411 286h453v115q0 85 -53 146.5t-131 89.5t-168 28q-93 0 -202.5 -35.5t-191.5 -91.5l-55 95q125 74 224 105.5t245 31.5q202 0 315 -101.5t115 -281.5l2 -715h-98v133q-54 -67 -201 -105t-282 -38q-174 0 -278.5 95t-104.5 243zM213 324 q0 -110 83.5 -173t215.5 -63q66 0 144 14t151 39t121.5 67.5t48.5 92.5v213h-418q-62 0 -111 -4.5t-94.5 -17.5t-75.5 -33.5t-47.5 -54.5t-17.5 -80zM403 1458q0 97 71.5 167.5t170.5 70.5t170.5 -70.5t71.5 -167.5q0 -98 -71 -167.5t-171 -69.5t-171 69.5t-71 167.5z M485 1458q0 -54 51.5 -102.5t108.5 -48.5t108.5 48.5t51.5 102.5t-51.5 103t-108.5 49t-108.5 -49t-51.5 -103z" />
<glyph unicode="&#xe6;" horiz-adv-x="1994" d="M84 317q0 147 109 227.5t305 82.5h383v123q0 98 -88 148t-226 50q-90 0 -191 -28.5t-190 -81.5l-39 129q240 131 469 131q269 0 383 -164q145 164 387 164q246 0 393.5 -158.5t147.5 -417.5v-28h-891q18 -141 125.5 -226.5t249.5 -85.5q183 0 307 127l127 -133 q-171 -184 -452 -184q-160 0 -279.5 69t-183.5 193q-65 -131 -183.5 -197.5t-281.5 -66.5q-173 0 -277 90.5t-104 236.5zM244 338q0 -81 78 -142t176 -61q76 0 153 26.5t146.5 84.5t101.5 137l45 -39q-6 17 -14 55l-47 11v90h-340q-121 0 -210 -44t-89 -118zM1036 621h713 q-3 87 -55.5 165t-134.5 124t-170 46q-129 0 -231.5 -99.5t-121.5 -235.5z" />
<glyph unicode="&#xe7;" horiz-adv-x="1236" d="M113 543q0 117 43.5 220t118.5 176.5t180 116t225 42.5q128 0 239 -48.5t189 -134.5l-72 -71q-57 65 -156.5 109t-199.5 44q-122 0 -227.5 -57t-170.5 -162.5t-65 -234.5q0 -126 62.5 -230.5t169 -164.5t231.5 -60q120 0 221.5 52.5t161.5 125.5l65 -73 q-71 -90 -176.5 -143t-232.5 -60l-70 -111q73 -14 129 -56.5t56 -105.5q0 -87 -62.5 -140.5t-155.5 -53.5q-103 0 -180 57l45 90q53 -41 119 -41q55 0 85 34t30 71q0 44 -33.5 71t-85.5 27q-34 0 -72 -10l80 170q-213 27 -352 180t-139 371z" />
<glyph unicode="&#xe8;" horiz-adv-x="1271" d="M113 543q0 83 22.5 163.5t67.5 151t108 124.5t150.5 85t187.5 31t185.5 -31t145.5 -84.5t102 -125t62.5 -151t20.5 -163.5q0 -37 -2 -51h-944q19 -171 145.5 -285.5t297.5 -114.5q124 0 225 52t157 120l72 -84q-77 -90 -195 -141t-251 -51q-104 0 -195 31t-156.5 85 t-112.5 124.5t-70 151t-23 163.5zM219 596h832v18q0 57 -28.5 121.5t-78 122t-128 95.5t-167.5 38q-167 0 -289 -114t-141 -281zM346 1442l160 82l217 -303h-148z" />
<glyph unicode="&#xe9;" horiz-adv-x="1271" d="M113 543q0 83 22.5 163.5t67.5 151t108 124.5t150.5 85t187.5 31t185.5 -31t145.5 -84.5t102 -125t62.5 -151t20.5 -163.5q0 -37 -2 -51h-944q19 -171 145.5 -285.5t297.5 -114.5q124 0 225 52t157 120l72 -84q-77 -90 -195 -141t-251 -51q-104 0 -195 31t-156.5 85 t-112.5 124.5t-70 151t-23 163.5zM219 596h832v18q0 57 -28.5 121.5t-78 122t-128 95.5t-167.5 38q-167 0 -289 -114t-141 -281zM596 1221l217 303l119 -62l-230 -241h-106z" />
<glyph unicode="&#xea;" horiz-adv-x="1271" d="M113 543q0 83 22.5 163.5t67.5 151t108 124.5t150.5 85t187.5 31t185.5 -31t145.5 -84.5t102 -125t62.5 -151t20.5 -163.5q0 -37 -2 -51h-944q19 -171 145.5 -285.5t297.5 -114.5q124 0 225 52t157 120l72 -84q-77 -90 -195 -141t-251 -51q-104 0 -195 31t-156.5 85 t-112.5 124.5t-70 151t-23 163.5zM219 596h832v18q0 57 -28.5 121.5t-78 122t-128 95.5t-167.5 38q-167 0 -289 -114t-141 -281zM371 1221l211 288h135l211 -288h-131l-148 200l-147 -200h-131z" />
<glyph unicode="&#xeb;" horiz-adv-x="1271" d="M113 543q0 83 22.5 163.5t67.5 151t108 124.5t150.5 85t187.5 31t185.5 -31t145.5 -84.5t102 -125t62.5 -151t20.5 -163.5q0 -37 -2 -51h-944q19 -171 145.5 -285.5t297.5 -114.5q124 0 225 52t157 120l72 -84q-77 -90 -195 -141t-251 -51q-104 0 -195 31t-156.5 85 t-112.5 124.5t-70 151t-23 163.5zM219 596h832v18q0 57 -28.5 121.5t-78 122t-128 95.5t-167.5 38q-167 0 -289 -114t-141 -281zM389 1362q0 34 22 57t56 23t58 -23t24 -57t-24 -57t-58 -23t-56 23t-22 57zM750 1362q0 34 23.5 57t57.5 23t56 -23t22 -57t-22 -57t-56 -23 t-57.5 23t-23.5 57z" />
<glyph unicode="&#xec;" horiz-adv-x="581" d="M-12 1442l159 82l218 -303h-148zM238 0v1090h106v-1090h-106z" />
<glyph unicode="&#xed;" horiz-adv-x="581" d="M238 0v1090h106v-1090h-106zM238 1221l217 303l118 -62l-229 -241h-106z" />
<glyph unicode="&#xee;" horiz-adv-x="581" d="M12 1221l211 288h135l211 -288h-131l-147 200l-148 -200h-131zM238 0v1090h106v-1090h-106z" />
<glyph unicode="&#xef;" horiz-adv-x="581" d="M29 1362q0 34 24 57t58 23q33 0 55 -23t22 -57t-22 -57t-55 -23q-34 0 -58 23t-24 57zM238 0v1090h106v-1090h-106zM393 1362q0 34 22 57t56 23t58 -23t24 -57t-24 -57t-58 -23t-56 23t-22 57z" />
<glyph unicode="&#xf0;" horiz-adv-x="1208" d="M74 459q0 204 126.5 326t338.5 122q117 0 215.5 -45.5t148.5 -120.5q-68 220 -285 424l-311 -102l-39 123l236 78q-131 99 -252 157l156 109q170 -77 313 -195l272 90l37 -122l-201 -66q148 -151 229 -330t81 -364q0 -252 -153 -402.5t-408 -150.5q-229 0 -366.5 127.5 t-137.5 341.5zM299 473q0 -125 80 -199.5t213 -74.5q135 0 216 72t81 192q0 124 -81 198t-216 74q-134 0 -213.5 -71t-79.5 -191z" />
<glyph unicode="&#xf1;" horiz-adv-x="1241" d="M145 0v1090h107v-203q34 64 80 107t103.5 65t116 30.5t134.5 8.5q190 0 300 -112.5t110 -307.5v-678h-107v674q0 154 -87.5 234.5t-256.5 80.5q-200 0 -296.5 -104t-96.5 -287v-598h-107zM291 1233q0 268 188 268q31 0 63.5 -19t60 -46t54 -54t54.5 -46t53 -19 q26 0 45.5 17.5t30.5 44.5t16.5 55t5.5 55h88q0 -268 -186 -268q-34 0 -67.5 19t-60.5 46t-53 54t-53.5 46t-52.5 19q-47 0 -71.5 -55.5t-24.5 -116.5h-90z" />
<glyph unicode="&#xf2;" horiz-adv-x="1339" d="M113 543q0 157 71 283.5t199 199t287 72.5t287 -72.5t199 -199t71 -283.5t-71 -283.5t-199 -199t-287 -72.5q-117 0 -220.5 42.5t-177 116t-116.5 176.5t-43 220zM217 543q0 -187 132.5 -320t320.5 -133q187 0 319.5 132.5t132.5 320.5q0 187 -132 319.5t-320 132.5 t-320.5 -132.5t-132.5 -319.5zM367 1442l159 82l217 -303h-147z" />
<glyph unicode="&#xf3;" horiz-adv-x="1339" d="M113 543q0 157 71 283.5t199 199t287 72.5t287 -72.5t199 -199t71 -283.5t-71 -283.5t-199 -199t-287 -72.5q-117 0 -220.5 42.5t-177 116t-116.5 176.5t-43 220zM217 543q0 -187 132.5 -320t320.5 -133q187 0 319.5 132.5t132.5 320.5q0 187 -132 319.5t-320 132.5 t-320.5 -132.5t-132.5 -319.5zM616 1221l218 303l118 -62l-229 -241h-107z" />
<glyph unicode="&#xf4;" horiz-adv-x="1339" d="M113 543q0 157 71 283.5t199 199t287 72.5t287 -72.5t199 -199t71 -283.5t-71 -283.5t-199 -199t-287 -72.5q-117 0 -220.5 42.5t-177 116t-116.5 176.5t-43 220zM217 543q0 -187 132.5 -320t320.5 -133q187 0 319.5 132.5t132.5 320.5q0 187 -132 319.5t-320 132.5 t-320.5 -132.5t-132.5 -319.5zM391 1221l211 288h135l211 -288h-131l-147 200l-148 -200h-131z" />
<glyph unicode="&#xf5;" horiz-adv-x="1339" d="M113 543q0 157 71 283.5t199 199t287 72.5t287 -72.5t199 -199t71 -283.5t-71 -283.5t-199 -199t-287 -72.5q-117 0 -220.5 42.5t-177 116t-116.5 176.5t-43 220zM217 543q0 -187 132.5 -320t320.5 -133q187 0 319.5 132.5t132.5 320.5q0 187 -132 319.5t-320 132.5 t-320.5 -132.5t-132.5 -319.5zM340 1233q0 268 188 268q31 0 63.5 -19t60 -46t54 -54t54.5 -46t53 -19q26 0 45.5 17.5t30.5 44.5t16.5 55t5.5 55h88q0 -268 -186 -268q-34 0 -67.5 19t-60.5 46t-53 54t-53.5 46t-52.5 19q-47 0 -71.5 -55.5t-24.5 -116.5h-90z" />
<glyph unicode="&#xf6;" horiz-adv-x="1339" d="M113 543q0 157 71 283.5t199 199t287 72.5t287 -72.5t199 -199t71 -283.5t-71 -283.5t-199 -199t-287 -72.5q-117 0 -220.5 42.5t-177 116t-116.5 176.5t-43 220zM217 543q0 -187 132.5 -320t320.5 -133q187 0 319.5 132.5t132.5 320.5q0 187 -132 319.5t-320 132.5 t-320.5 -132.5t-132.5 -319.5zM410 1362q0 34 22 57t55 23q34 0 58 -23t24 -57t-24 -57t-58 -23q-33 0 -55 23t-22 57zM770 1362q0 34 24 57t58 23t56 -23t22 -57t-22 -57t-56 -23t-58 23t-24 57z" />
<glyph unicode="&#xf7;" horiz-adv-x="1019" d="M72 584v161h876v-161h-876zM375 315q0 56 34.5 92.5t88.5 36.5t89.5 -36.5t35.5 -92.5q0 -57 -35.5 -94t-89.5 -37t-88.5 37t-34.5 94zM375 1042q0 56 34.5 92.5t88.5 36.5t89.5 -36.5t35.5 -92.5q0 -57 -35.5 -94t-89.5 -37t-88.5 37t-34.5 94z" />
<glyph unicode="&#xf8;" horiz-adv-x="1280" d="M82 543q0 157 71 283.5t199 199t287 72.5q60 0 123 -13l90 277h106l-98 -305q154 -62 245 -199t91 -315q0 -157 -71 -283.5t-199 -199t-287 -72.5q-63 0 -121 12l-96 -299h-107l107 328q-155 63 -247.5 200t-92.5 314zM242 543q0 -118 64 -214t167 -143l238 742 q-37 6 -72 6q-165 0 -281 -113.5t-116 -277.5zM569 158q34 -6 70 -6q165 0 281 113.5t116 277.5q0 117 -62 212.5t-165 141.5z" />
<glyph unicode="&#xf9;" d="M135 412v678h107v-674q0 -155 86 -235.5t254 -80.5q199 0 295 104.5t96 287.5v598h106v-1090h-106v203q-34 -64 -79.5 -107t-103 -65t-115.5 -30.5t-134 -8.5q-190 0 -298 112t-108 308zM303 1442l160 82l217 -303h-148z" />
<glyph unicode="&#xfa;" d="M135 412v678h107v-674q0 -155 86 -235.5t254 -80.5q199 0 295 104.5t96 287.5v598h106v-1090h-106v203q-34 -64 -79.5 -107t-103 -65t-115.5 -30.5t-134 -8.5q-190 0 -298 112t-108 308zM553 1221l217 303l119 -62l-230 -241h-106z" />
<glyph unicode="&#xfb;" d="M135 412v678h107v-674q0 -155 86 -235.5t254 -80.5q199 0 295 104.5t96 287.5v598h106v-1090h-106v203q-34 -64 -79.5 -107t-103 -65t-115.5 -30.5t-134 -8.5q-190 0 -298 112t-108 308zM328 1221l211 288h135l211 -288h-131l-148 200l-147 -200h-131z" />
<glyph unicode="&#xfc;" d="M135 412v678h107v-674q0 -155 86 -235.5t254 -80.5q199 0 295 104.5t96 287.5v598h106v-1090h-106v203q-34 -64 -79.5 -107t-103 -65t-115.5 -30.5t-134 -8.5q-190 0 -298 112t-108 308zM344 1362q0 34 24 57t58 23t56 -23t22 -57t-22 -57t-56 -23t-58 23t-24 57z M709 1362q0 34 22 57t55 23q34 0 58 -23t24 -57t-24 -57t-58 -23q-33 0 -55 23t-22 57z" />
<glyph unicode="&#xfd;" horiz-adv-x="1308" d="M94 1090h115l500 -963l383 963h110l-495 -1240q-102 -258 -355 -258q-140 0 -252 93l58 73q32 -23 53.5 -36t59 -24t79.5 -11q184 0 266 207l43 106zM594 1221l217 303l119 -62l-230 -241h-106z" />
<glyph unicode="&#xfe;" horiz-adv-x="1392" d="M211 -397v1917h154v-619q59 94 166 145.5t239 51.5q233 0 379.5 -152.5t146.5 -396.5q0 -248 -148.5 -402.5t-381.5 -154.5q-129 0 -235.5 51t-165.5 145v-585h-154zM365 541q0 -181 109 -292.5t274 -111.5q171 0 282 111.5t111 292.5q0 185 -110.5 296t-282.5 111 q-165 0 -274 -111t-109 -296z" />
<glyph unicode="&#xff;" horiz-adv-x="1308" d="M94 1090h115l500 -963l383 963h110l-495 -1240q-102 -258 -355 -258q-140 0 -252 93l58 73q32 -23 53.5 -36t59 -24t79.5 -11q184 0 266 207l43 106zM387 1362q0 34 23 57t57 23t57 -23t23 -57t-23 -57t-57 -23t-57 23t-23 57zM750 1362q0 34 22.5 57t56.5 23t57 -23 t23 -57t-23 -57t-57 -23t-56.5 23t-22.5 57z" />
<glyph unicode="&#x152;" horiz-adv-x="2246" d="M74 717q0 203 97.5 367.5t269 257t382.5 92.5h1293v-146h-865v-493h783v-156h-783v-485h889v-154h-1317q-211 0 -382.5 93t-269 257.5t-97.5 366.5zM244 717q0 -154 80 -287t214 -210t287 -77h267v1135h-267q-155 0 -288.5 -74t-213 -203.5t-79.5 -283.5z" />
<glyph unicode="&#x153;" horiz-adv-x="2129" d="M84 543q0 157 71 283.5t199 199t287 72.5q156 0 281 -68t196 -188q68 118 185 187t272 69q100 0 185.5 -31t145.5 -84.5t102 -125t62.5 -151t20.5 -163.5q0 -36 -4 -72h-881q23 -144 126.5 -237t244.5 -93q114 0 212 45.5t150 108.5l103 -115q-77 -90 -195.5 -141 t-251.5 -51q-162 0 -283 70.5t-192 189.5q-72 -121 -197.5 -190.5t-281.5 -69.5q-117 0 -220.5 42.5t-177 116t-116.5 176.5t-43 220zM244 543q0 -164 116 -277.5t281 -113.5t281 113.5t116 277.5t-116 277.5t-281 113.5t-281 -113.5t-116 -277.5zM1204 606h721v8 q0 52 -22.5 108t-64.5 106t-111 82t-152 32q-150 0 -250 -93.5t-121 -242.5z" />
<glyph unicode="&#x178;" horiz-adv-x="1476" d="M86 1434h121l532 -781l525 781h122l-593 -893v-541h-105v541zM475 1704q0 34 23 57t57 23t57 -23t23 -57t-23 -57t-57 -23t-57 23t-23 57zM838 1704q0 34 23 57t57 23t56.5 -23t22.5 -57t-22.5 -57t-56.5 -23t-57 23t-23 57z" />
<glyph unicode="&#x2c6;" horiz-adv-x="1101" d="M80 1257l211 289h135l211 -289h-131l-148 201l-147 -201h-131z" />
<glyph unicode="&#x2dc;" horiz-adv-x="716" d="M29 1284q0 268 188 268q38 0 79.5 -29t71.5 -63t67 -63t67 -29q26 0 45.5 17.5t30.5 44.5t16.5 55t5.5 55h88q0 -268 -186 -268q-41 0 -83.5 29t-71.5 63t-65.5 63t-66.5 29q-47 0 -71.5 -55.5t-24.5 -116.5h-90z" />
<glyph unicode="&#x2000;" horiz-adv-x="949" />
<glyph unicode="&#x2001;" horiz-adv-x="1898" />
<glyph unicode="&#x2002;" horiz-adv-x="949" />
<glyph unicode="&#x2003;" horiz-adv-x="1898" />
<glyph unicode="&#x2004;" horiz-adv-x="632" />
<glyph unicode="&#x2005;" horiz-adv-x="474" />
<glyph unicode="&#x2006;" horiz-adv-x="316" />
<glyph unicode="&#x2007;" horiz-adv-x="316" />
<glyph unicode="&#x2008;" horiz-adv-x="237" />
<glyph unicode="&#x2009;" horiz-adv-x="379" />
<glyph unicode="&#x200a;" horiz-adv-x="105" />
<glyph unicode="&#x2010;" horiz-adv-x="753" d="M125 543v162h504v-162h-504z" />
<glyph unicode="&#x2011;" horiz-adv-x="753" d="M125 543v162h504v-162h-504z" />
<glyph unicode="&#x2012;" horiz-adv-x="753" d="M125 543v162h504v-162h-504z" />
<glyph unicode="&#x2013;" horiz-adv-x="829" d="M0 461v162h829v-162h-829z" />
<glyph unicode="&#x2014;" horiz-adv-x="1415" d="M0 461v162h1415v-162h-1415z" />
<glyph unicode="&#x2018;" horiz-adv-x="716" d="M106 1206q0 30 19 60l100 180h111l-80 -135q32 -12 52 -41t20 -64q0 -46 -32.5 -78t-78.5 -32t-78.5 32t-32.5 78z" />
<glyph unicode="&#x2019;" horiz-adv-x="425" d="M104 1083l80 136q-32 12 -51.5 40.5t-19.5 63.5q0 46 32 78.5t78 32.5t78.5 -32.5t32.5 -78.5q0 -29 -19 -59l-100 -181h-111z" />
<glyph unicode="&#x201a;" horiz-adv-x="438" d="M104 -102l80 135q-32 12 -51.5 40.5t-19.5 63.5q0 46 32 78.5t78 32.5t78.5 -32.5t32.5 -78.5q0 -29 -19 -59l-100 -180h-111z" />
<glyph unicode="&#x201c;" horiz-adv-x="778" d="M109 1206q0 31 18 60l100 180h111l-80 -135q32 -12 52 -41t20 -64q0 -46 -32.5 -78t-78.5 -32t-78 32t-32 78zM414 1206q0 31 18 60l100 180h111l-80 -135q32 -12 52 -41t20 -64q0 -46 -32.5 -78t-78.5 -32t-78 32t-32 78z" />
<glyph unicode="&#x201d;" horiz-adv-x="778" d="M104 1085l80 136q-32 12 -51.5 40.5t-19.5 63.5q0 46 32 78.5t78 32.5t78.5 -32.5t32.5 -78.5q0 -29 -19 -59l-100 -181h-111zM410 1085l79 136q-32 12 -51.5 40.5t-19.5 63.5q0 46 32 78.5t78 32.5t78.5 -32.5t32.5 -78.5q0 -30 -18 -59l-101 -181h-110z" />
<glyph unicode="&#x201e;" horiz-adv-x="743" d="M84 -168l80 135q-32 12 -52 41t-20 64q0 46 32.5 78t78.5 32t78 -32t32 -78q0 -31 -18 -60l-100 -180h-111zM389 -168l80 135q-32 12 -52 41t-20 64q0 46 32.5 78t78.5 32t78 -32t32 -78q0 -31 -18 -60l-100 -180h-111z" />
<glyph unicode="&#x2022;" horiz-adv-x="575" d="M94 549q0 88 55 144.5t138 56.5q85 0 139.5 -56.5t54.5 -144.5t-55 -146.5t-139 -58.5q-83 0 -138 58.5t-55 146.5z" />
<glyph unicode="&#x2026;" horiz-adv-x="1245" d="M94 113q0 57 35 93t88 36t88 -36t35 -93t-35 -94t-88 -37t-88 37t-35 94zM500 113q0 57 35 93t88 36t87.5 -36t34.5 -93t-34.5 -94t-87.5 -37t-88 37t-35 94zM905 113q0 57 35 93t88 36t88 -36t35 -93t-35 -94t-88 -37t-88 37t-35 94z" />
<glyph unicode="&#x202f;" horiz-adv-x="379" />
<glyph unicode="&#x2039;" horiz-adv-x="1019" d="M47 532l238 357h196l-219 -357l219 -356h-196z" />
<glyph unicode="&#x203a;" horiz-adv-x="1019" d="M156 176l219 359l-219 356h196l238 -356l-238 -359h-196z" />
<glyph unicode="&#x205f;" horiz-adv-x="474" />
<glyph unicode="&#x20ac;" horiz-adv-x="1617" d="M76 481v131h192q-8 47 -8 107q0 61 8 108h-192v131h225q76 216 270 349t445 133q152 0 296 -59t247 -162l-140 -177q-80 86 -186 134.5t-215 48.5q-146 0 -267 -72.5t-186 -194.5h514v-131h-563q-10 -58 -10 -106q0 -57 12 -109h561v-131h-514q65 -122 186 -194t267 -72 q106 0 211 45.5t190 124.5l142 -160q-109 -109 -256 -172t-299 -63q-248 0 -440.5 135.5t-266.5 355.5h-223z" />
<glyph unicode="&#x2122;" horiz-adv-x="1814" d="M-10 1282v152h676v-152h-252v-709h-174v709h-250zM782 573v861h201l262 -547l262 547h201v-861h-158v609l-247 -520h-115l-246 520v-609h-160z" />
<glyph unicode="&#x25fc;" horiz-adv-x="1085" d="M0 0v1085h1085v-1085h-1085z" />
<glyph unicode="&#xfb01;" horiz-adv-x="1345" d="M76 893v145h143v117q0 75 21.5 138.5t58 106.5t85 73t101.5 43.5t109 13.5q118 0 203 -49l-9 -164q-86 67 -198 67q-79 0 -144 -63.5t-65 -142.5v-140h356v-145h-356v-893h-162v893h-143zM963 1434q0 46 32 78t78 32t78.5 -32t32.5 -78t-32.5 -78.5t-78.5 -32.5t-78 32.5 t-32 78.5zM989 0v1090h168v-1090h-168z" />
<glyph unicode="&#xfb02;" horiz-adv-x="1333" d="M76 893v145h143v117q0 75 21.5 138.5t58 106.5t85 73t101.5 43.5t109 13.5q118 0 203 -49l-9 -164q-86 67 -198 67q-79 0 -144 -63.5t-65 -142.5v-140h356v-145h-356v-893h-162v893h-143zM989 0v1520h168v-1520h-168z" />
</font>
</defs>
</svg>
