<?xml version="1.0" standalone="no"?>
<!DOCTYPE svg PUBLIC "-//W3C//DTD SVG 1.1//EN" "http://www.w3.org/Graphics/SVG/1.1/DTD/svg11.dtd" >
<svg xmlns="http://www.w3.org/2000/svg">
<metadata></metadata>
<defs>
<font id="jones_blackblack" horiz-adv-x="1228" >
<font-face units-per-em="2048" ascent="1606" descent="-442" />
<missing-glyph horiz-adv-x="614" />
<glyph horiz-adv-x="0" />
<glyph horiz-adv-x="682" />
<glyph unicode=" "  horiz-adv-x="614" />
<glyph unicode="&#x09;" horiz-adv-x="614" />
<glyph unicode="&#xa0;" horiz-adv-x="614" />
<glyph unicode="!" horiz-adv-x="471" d="M20 195q0 89 63.5 152t152.5 63t152 -63t63 -152t-63 -152t-152 -63t-152.5 63t-63.5 152zM53 1004v491h365v-491l-56 -492h-253z" />
<glyph unicode="&#x22;" horiz-adv-x="696" d="M18 1341q0 72 46 123.5t110 51.5t110 -51.5t46 -123.5q0 -36 -8 -63l-89 -295h-118l-88 295q-9 30 -9 63zM367 1341q0 72 45.5 123.5t109.5 51.5t110 -51.5t46 -123.5q0 -36 -8 -63l-88 -295h-119l-88 295q-8 27 -8 63z" />
<glyph unicode="#" horiz-adv-x="1658" d="M82 276v318h276l41 246h-235v317h291l47 277h327l-47 -277h246l47 277h328l-47 -277h221v-317h-277l-40 -246h235v-318h-291l-47 -276h-328l48 276h-246l-47 -276h-328l47 276h-221zM686 594h246l41 246h-246z" />
<glyph unicode="$" d="M20 252l201 237q100 -92 179.5 -144t174.5 -64v323h-4q-456 94 -456 412q0 193 126.5 303.5t333.5 130.5v147h144v-145q282 -16 465 -199l-174 -243q-67 65 -130.5 99t-160.5 44v-287q83 -17 147 -36.5t129 -54t107.5 -78t69 -109.5t26.5 -148q0 -204 -132.5 -322 t-346.5 -136v-146h-144v148q-93 8 -178.5 35t-156 69.5t-119 79t-101.5 84.5zM442 1026q0 -46 33 -76t100 -51v252q-66 -10 -99.5 -43t-33.5 -82zM719 283q84 12 123 47t39 96q0 55 -39 86.5t-123 56.5v-286z" />
<glyph unicode="%" horiz-adv-x="1925" d="M61 1065q0 161 114.5 275t275.5 114t275 -114t114 -275t-114 -275t-275 -114t-275.5 114t-114.5 275zM348 0l901 1434h328l-901 -1434h-328zM369 1065q0 -38 24 -65t58 -27t57.5 27t23.5 65t-23.5 65t-57.5 27t-58 -27t-24 -65zM1085 369q0 161 114.5 275t275.5 114 t275 -114t114 -275t-114 -275t-275 -114t-275.5 114t-114.5 275zM1393 369q0 -38 24 -65.5t58 -27.5t57.5 27.5t23.5 65.5t-23.5 65t-57.5 27t-58 -27t-24 -65z" />
<glyph unicode="&#x26;" horiz-adv-x="1464" d="M82 369q0 273 309 405q-69 95 -102 173t-33 159q0 107 61.5 188t158 120.5t210.5 39.5q85 0 161.5 -24t137 -68.5t96 -116t35.5 -160.5q0 -111 -93.5 -207.5t-227.5 -154.5q4 -5 12 -14.5t12 -14.5l191 -227q83 109 125 268l237 -194q-70 -183 -172 -299l203 -242h-369 l-55 66q-163 -86 -365 -86q-116 0 -212 24t-168 71t-112 122t-40 172zM430 430q0 -75 63.5 -114.5t182.5 -39.5q51 0 110 19l-254 301q-2 3 -7 9t-7 9q-88 -65 -88 -184zM584 1085q0 -76 84 -198q55 40 87.5 91.5t32.5 86.5q0 53 -26.5 83t-75.5 30q-41 0 -71.5 -28 t-30.5 -65z" />
<glyph unicode="'" horiz-adv-x="348" d="M0 1341q0 72 51 123.5t123 51.5t123 -51.5t51 -123.5q0 -43 -8 -63l-100 -295h-131l-101 295q-8 20 -8 63z" />
<glyph unicode="(" horiz-adv-x="563" d="M10 542.5q0 517.5 338 993.5l205 -102q-122 -263 -164 -577t0 -628t164 -577l-205 -103q-338 476 -338 993.5z" />
<glyph unicode=")" horiz-adv-x="563" d="M41 -348q122 263 164 577t0 628t-164 577l205 102q338 -476 338 -993.5t-338 -993.5z" />
<glyph unicode="*" horiz-adv-x="663" d="M14 1122l144 66l-144 65l103 177l129 -93l-17 158h205l-16 -158l129 93l102 -177l-143 -65l143 -66l-102 -176l-129 92l16 -157h-205l17 157l-129 -92z" />
<glyph unicode="+" horiz-adv-x="1044" d="M61 582v317h297v307h328v-307h297v-317h-297v-308h-328v308h-297z" />
<glyph unicode="," horiz-adv-x="520" d="M20 -266l127 268q-53 32 -79.5 84.5t-26.5 108.5q0 90 65 152.5t160 62.5q98 0 162 -60.5t64 -150.5q0 -96 -86 -203l-201 -262h-185z" />
<glyph unicode="-" horiz-adv-x="880" d="M133 451v317h615v-317h-615z" />
<glyph unicode="." horiz-adv-x="471" d="M20 195q0 89 63.5 152t152.5 63t152 -63t63 -152t-63 -152t-152 -63t-152.5 63t-63.5 152z" />
<glyph unicode="/" horiz-adv-x="880" d="M-41 -164l655 1761h308l-656 -1761h-307z" />
<glyph unicode="0" d="M31 717q0 205 70 371.5t204.5 266t308.5 99.5t308.5 -99.5t205 -266t70.5 -371.5t-70.5 -371.5t-205 -266t-308.5 -99.5t-308.5 99.5t-204.5 266t-70 371.5zM379 717q0 -100 10.5 -174t36 -134t73 -91t115.5 -31q69 0 116 31t72.5 91t36.5 134t11 174t-11 174t-36.5 134 t-72.5 91t-116 31q-68 0 -115.5 -31t-73 -91t-36 -134t-10.5 -174z" />
<glyph unicode="1" d="M164 1106l450 328h328v-1434h-348v1049l-244 -177z" />
<glyph unicode="2" d="M102 0v276l404 359q158 137 210 207.5t52 161.5q0 153 -164 153q-88 0 -147 -59.5t-115 -192.5l-240 166q68 172 198 277.5t304 105.5q211 0 346 -126t135 -312q0 -137 -57 -236t-217 -245l-260 -238h575v-297h-1024z" />
<glyph unicode="3" d="M102 203l203 200q57 -77 128.5 -103t160.5 -26q83 0 138.5 48t55.5 122q0 80 -62.5 120t-213.5 40v297q104 0 159.5 37t55.5 98q0 59 -34.5 90t-98.5 31q-72 0 -125 -27t-113 -98l-202 201q42 49 83 85.5t96 69t126 49.5t155 17q201 0 326 -106.5t125 -262.5 q0 -191 -143 -313q204 -114 204 -369q0 -104 -43 -186.5t-116 -133t-163 -77t-190 -26.5q-339 0 -512 223z" />
<glyph unicode="4" d="M82 215v297l584 922h358v-922h143v-297h-143v-215h-338v215h-604zM365 512h321v502z" />
<glyph unicode="5" d="M102 203l215 231q64 -86 126.5 -120.5t158.5 -34.5q83 0 134.5 51.5t51.5 140.5q0 205 -174 205q-41 0 -74 -8.5t-59 -27.5t-37.5 -29.5t-33.5 -35.5l-246 62l102 797h778v-297h-499l-35 -263q91 78 227 78q170 0 279.5 -128.5t109.5 -352.5q0 -119 -43 -214.5 t-115.5 -154.5t-163.5 -90.5t-190 -31.5q-339 0 -512 223z" />
<glyph unicode="6" d="M102 451q0 80 30.5 155t88.5 166l412 662h368l-368 -533q58 10 104 10q101 0 190 -59t144 -166t55 -235q0 -201 -143 -336t-369 -135t-369 135t-143 336zM430 451q0 -74 49.5 -129.5t134.5 -55.5t135 55.5t50 129.5t-50 129t-135 55t-134.5 -55t-49.5 -129z" />
<glyph unicode="7" d="M102 1137v297h1026v-267l-471 -1167h-342l459 1137h-672z" />
<glyph unicode="8" d="M102 403q0 117 55.5 208.5t153.5 148.5q-79 57 -123.5 136t-44.5 169q0 109 64.5 199t172.5 140t234 50t234 -50t172.5 -140t64.5 -199q0 -90 -44.5 -169t-122.5 -136q98 -57 153 -148.5t55 -208.5q0 -129 -70 -226.5t-185 -147t-257 -49.5t-257 49.5t-185 147t-70 226.5 zM440 440q0 -69 51 -117.5t123 -48.5t123 48.5t51 117.5t-51 117.5t-123 48.5t-123 -48.5t-51 -117.5zM471 1030q0 -56 37.5 -92.5t105.5 -36.5t106 36.5t38 92.5t-38 92.5t-106 36.5t-105.5 -36.5t-37.5 -92.5z" />
<glyph unicode="9" d="M102 983q0 201 143 336t369 135t369 -135t143 -336q0 -81 -30.5 -155.5t-87.5 -165.5l-412 -662h-369l369 532q-58 -10 -104 -10q-101 0 -190.5 59.5t-144.5 166.5t-55 235zM430 983q0 -74 49.5 -129t134.5 -55t135 55t50 129t-50 129t-135 55t-134.5 -55t-49.5 -129z " />
<glyph unicode=":" horiz-adv-x="471" d="M20 195q0 89 63.5 152t152.5 63t152 -63t63 -152t-63 -152t-152 -63t-152.5 63t-63.5 152zM20 1042q0 89 63.5 152t152.5 63t152 -63t63 -152t-63 -152t-152 -63t-152.5 63t-63.5 152z" />
<glyph unicode=";" horiz-adv-x="520" d="M20 -266l127 268q-53 32 -79.5 84.5t-26.5 108.5q0 90 65 152.5t160 62.5q98 0 162 -60.5t64 -150.5q0 -96 -86 -203l-201 -262h-185zM41 1042q0 89 63 152t152 63t152 -63t63 -152t-63 -152t-152 -63t-152 63t-63 152z" />
<glyph unicode="&#x3c;" horiz-adv-x="1044" d="M61 614v236l922 389v-235l-643 -271l643 -272v-236z" />
<glyph unicode="=" horiz-adv-x="1044" d="M61 369v235h922v-235h-922zM61 850v235h922v-235h-922z" />
<glyph unicode="&#x3e;" horiz-adv-x="1044" d="M74 225v236l643 272l-643 271v235l921 -389v-236z" />
<glyph unicode="?" horiz-adv-x="1136" d="M82 1214q68 140 194.5 221t307.5 81q213 0 336.5 -109t123.5 -268q0 -153 -36 -233.5t-138 -131.5q-31 -15 -51 -27.5t-34.5 -31t-21 -31.5t-10.5 -44t-4.5 -54t-0.5 -74h-328q-9 70 -10 123.5t8 90.5t20.5 62.5t35 45t43 31.5t51.5 28q5 2 8 3.5t7.5 4t8.5 4.5 q115 61 115 172q0 52 -42 86.5t-114 34.5q-84 0 -135.5 -33t-104.5 -127zM367 195q0 89 63 152t152 63t152 -63t63 -152t-63 -152t-152 -63t-152 63t-63 152z" />
<glyph unicode="@" horiz-adv-x="2150" d="M113 532q0 197 71 373.5t195.5 307t305.5 206.5t390 76q198 0 374 -64t306.5 -177t206.5 -279.5t76 -360.5q0 -140 -25.5 -251t-68 -181.5t-101.5 -117t-120.5 -65.5t-129.5 -19q-107 0 -179 26.5t-103 66t-39 93.5q-92 -186 -309 -186q-91 0 -176.5 41t-150.5 112 t-104.5 175.5t-39.5 223.5t39.5 223.5t104.5 176t150.5 112.5t176.5 41q219 0 307 -167v147h327v-819q0 -94 21.5 -136t75.5 -42q32 0 69 20t74.5 64t68 106t49.5 155t19 201q0 183 -70.5 338t-192 260.5t-286 164.5t-350.5 59q-198 0 -367.5 -71.5t-285 -193.5t-181 -287.5 t-65.5 -351.5q0 -147 45 -284.5t128.5 -249t193.5 -195t247.5 -129t284.5 -45.5v-59q-195 0 -373 76.5t-307 205.5t-205.5 307t-76.5 373zM829 532q0 -117 63 -186.5t152 -69.5q90 0 158 70t68 186t-68 186t-158 70q-89 0 -152 -69.5t-63 -186.5z" />
<glyph unicode="A" horiz-adv-x="1638" d="M20 0l635 1434h328l635 -1434h-369l-102 256h-655l-103 -256h-369zM612 553h414l-207 514z" />
<glyph unicode="B" horiz-adv-x="1423" d="M123 0v1434h665q81 0 156.5 -14t143.5 -45t118.5 -76t80.5 -111t30 -146q0 -191 -170 -303q104 -59 164.5 -150t60.5 -210q0 -83 -29.5 -148.5t-79.5 -108t-120 -70.5t-147.5 -40t-166.5 -12h-706zM471 276h317q124 0 180 40.5t56 119.5q0 164 -236 164h-317v-324z M471 866h277q125 0 173 29.5t48 99.5q0 71 -48 101t-173 30h-277v-260z" />
<glyph unicode="C" horiz-adv-x="1499" d="M82 717q0 151 59 287t161.5 235t250.5 157t317 58q370 0 588 -252l-194 -235q-138 180 -394 180q-203 0 -321.5 -122.5t-118.5 -307.5t118.5 -307.5t321.5 -122.5q256 0 394 180l194 -236q-217 -251 -588 -251q-169 0 -317 58t-250.5 157t-161.5 235t-59 287z" />
<glyph unicode="D" horiz-adv-x="1658" d="M164 0v1434h614q163 0 307 -55t247.5 -150t163.5 -228t60 -284t-60 -284t-163.5 -228t-247.5 -150t-307 -55h-614zM512 307h266q200 0 315 111.5t115 298.5t-115 298t-315 111h-266v-819z" />
<glyph unicode="E" horiz-adv-x="1372" d="M123 0v1434h1208v-308h-860v-239h758v-307h-758v-252h860v-328h-1208z" />
<glyph unicode="F" horiz-adv-x="1361" d="M123 0v1434h1188v-308h-840v-280h737v-307h-737v-539h-348z" />
<glyph unicode="G" horiz-adv-x="1601" d="M82 717q0 151 59 287t161.5 235t250.5 157t317 58q189 0 342 -66.5t256 -185.5l-235 -215q-73 86 -157.5 123t-205.5 37q-198 0 -319 -120.5t-121 -309.5q0 -186 119.5 -298t320.5 -112q186 0 314 82v143h-293v287h618v-588q-100 -115 -272.5 -183t-366.5 -68 q-169 0 -317 58t-250.5 157t-161.5 235t-59 287z" />
<glyph unicode="H" horiz-adv-x="1566" d="M123 0v1434h348v-547h625v547h348v-1434h-348v580h-625v-580h-348z" />
<glyph unicode="I" horiz-adv-x="614" d="M133 0v1434h348v-1434h-348z" />
<glyph unicode="J" horiz-adv-x="1226" d="M0 322l264 182q45 -102 119.5 -167t148.5 -65q111 0 182.5 65.5t71.5 194.5v902h338v-902q0 -113 -31.5 -205.5t-86.5 -156t-131.5 -107t-164.5 -63.5t-188 -20q-173 0 -309 84.5t-213 257.5z" />
<glyph unicode="K" horiz-adv-x="1525" d="M123 0v1434h348v-594l543 594h420l-557 -586l659 -848h-397l-480 621l-188 -197v-424h-348z" />
<glyph unicode="L" horiz-adv-x="1341" d="M123 0v1434h348v-1127h819v-307h-1167z" />
<glyph unicode="M" horiz-adv-x="1908" d="M123 0v1434h328l503 -727l504 727h328v-1434h-348v858l-414 -592h-139l-414 592v-858h-348z" />
<glyph unicode="N" horiz-adv-x="1617" d="M123 0v1434h328l696 -871v871h348v-1434h-328l-696 870v-870h-348z" />
<glyph unicode="O" horiz-adv-x="1740" d="M102 717q0 151 58.5 287t160 235t244.5 157t305 58t305 -58t244.5 -157t160 -235t58.5 -287t-58.5 -287t-160 -235t-244.5 -157t-305 -58t-305 58t-244.5 157t-160 235t-58.5 287zM451 717q0 -182 116.5 -306t302.5 -124t303 124t117 306t-117 306t-303 124t-302.5 -124 t-116.5 -306z" />
<glyph unicode="P" horiz-adv-x="1316" d="M133 0v1434h615q228 0 378 -138t150 -346q0 -101 -40 -192t-109.5 -157.5t-168 -105t-210.5 -38.5h-267v-457h-348zM481 764h226q103 0 162 50.5t59 135.5q0 84 -58 130t-163 46h-226v-362z" />
<glyph unicode="Q" horiz-adv-x="1738" d="M102 717q0 151 58.5 287t160 235t244.5 157t305 58t305 -58t244.5 -157t160 -235t58.5 -287q0 -226 -127 -412l175 -172l-242 -244l-187 187q-178 -96 -387 -96q-162 0 -305 58t-244.5 157t-160 235t-58.5 287zM451 717q0 -182 116.5 -306t302.5 -124q84 0 152 24 l-188 189l241 241l187 -186q28 76 28 162q0 182 -117 306t-303 124t-302.5 -124t-116.5 -306z" />
<glyph unicode="R" horiz-adv-x="1470" d="M133 0v1434h696q228 0 378.5 -137.5t150.5 -344.5q0 -153 -84.5 -275t-226.5 -179l403 -498h-379l-371 457h-219v-457h-348zM481 764h307q103 0 162.5 51t59.5 137q0 84 -58.5 129t-163.5 45h-307v-362z" />
<glyph unicode="S" horiz-adv-x="1280" d="M41 252l201 237q54 -50 92 -81.5t91 -65.5t109 -50t117 -16q250 0 250 150q0 73 -70 108.5t-239 69.5q-457 94 -457 412q0 109 43 194t118.5 137.5t174.5 79.5t215 27q317 0 518 -201l-174 -243q-78 77 -155 112t-209 35q-101 0 -152 -35t-51 -96q0 -62 60 -95.5 t194 -60.5q87 -17 152.5 -36t134.5 -53.5t113.5 -78t73 -111t28.5 -151.5q0 -148 -74 -253.5t-195.5 -156t-277.5 -50.5q-108 0 -206.5 24.5t-178.5 69t-134 85t-112 93.5z" />
<glyph unicode="T" horiz-adv-x="1413" d="M41 1126v308h1331v-308h-491v-1126h-349v1126h-491z" />
<glyph unicode="U" horiz-adv-x="1556" d="M102 573v861h338v-820q0 -132 99.5 -214.5t238.5 -82.5t238.5 82.5t99.5 214.5v820h338v-861q0 -169 -92.5 -306t-246.5 -212t-337 -75t-337 75t-246.5 212t-92.5 306z" />
<glyph unicode="V" horiz-adv-x="1597" d="M20 1434h369l410 -1055l409 1055h369l-614 -1434h-328z" />
<glyph unicode="W" horiz-adv-x="2181" d="M31 1434h348l268 -881l275 881h338l274 -881l268 881h348l-450 -1434h-328l-282 944l-281 -944h-328z" />
<glyph unicode="X" horiz-adv-x="1536" d="M31 0l538 745l-497 689h399l297 -412l297 412h399l-497 -689l538 -745h-399l-338 469l-338 -469h-399z" />
<glyph unicode="Y" horiz-adv-x="1597" d="M41 1434h369l389 -574l389 574h368l-583 -869v-565h-348v565z" />
<glyph unicode="Z" horiz-adv-x="1392" d="M92 0v246l750 880h-709v308h1127v-246l-750 -881h790v-307h-1208z" />
<glyph unicode="[" horiz-adv-x="645" d="M92 -410v1905h512v-299h-203v-1307h203v-299h-512z" />
<glyph unicode="\" horiz-adv-x="880" d="M-41 1597h307l656 -1761h-308z" />
<glyph unicode="]" horiz-adv-x="604" d="M0 -111h203v1307h-203v299h512v-1905h-512v299z" />
<glyph unicode="^" horiz-adv-x="1044" d="M41 881l307 614h348l308 -614h-308l-174 307l-174 -307h-307z" />
<glyph unicode="_" d="M-4 -82h1237v-328h-1237v328z" />
<glyph unicode="`" horiz-adv-x="655" d="M61 1495h369l164 -287h-287z" />
<glyph unicode="a" horiz-adv-x="1187" d="M47 307q0 58 15.5 104t42 78.5t70.5 56t92 37.5t117 22t136 10.5t156 2.5h82v17q0 83 -56.5 128.5t-152.5 45.5q-44 0 -81.5 -7t-60 -14t-51.5 -27t-38.5 -27.5t-38.5 -33.5l-177 222q95 81 206.5 122t273.5 41q147 0 263 -48.5t183.5 -142.5t67.5 -218v-676h-338v135 q-54 -74 -143 -114.5t-205 -40.5q-161 0 -262 83.5t-101 243.5zM406 322q0 -50 36 -78.5t90 -28.5q49 0 86 8t70.5 28t51.5 60t18 99v36h-21q-172 0 -251.5 -28.5t-79.5 -95.5z" />
<glyph unicode="b" horiz-adv-x="1341" d="M102 0v1495h338v-580q96 170 348 170q95 0 184 -41t157.5 -112.5t109.5 -176t41 -223.5t-41 -223.5t-109.5 -175.5t-157.5 -112t-184 -41q-250 0 -348 182v-162h-338zM440 532q0 -120 69.5 -188t186.5 -68q116 0 181 67.5t65 188.5t-65 188.5t-181 67.5 q-117 0 -186.5 -68t-69.5 -188z" />
<glyph unicode="c" horiz-adv-x="1173" d="M82 532q0 152 74 278t208.5 200.5t301.5 74.5q148 0 269.5 -55t194.5 -153l-219 -222q-44 64 -100.5 93.5t-144.5 29.5q-115 0 -180.5 -70.5t-65.5 -175.5q0 -103 66 -174t180 -71q88 0 144.5 29.5t100.5 93.5l222 -222q-72 -98 -195 -153t-272 -55q-126 0 -235.5 43.5 t-185.5 118t-119.5 176t-43.5 214.5z" />
<glyph unicode="d" horiz-adv-x="1341" d="M61 532q0 119 41 223.5t109.5 176t157.5 112.5t184 41q252 0 348 -170v580h338v-1495h-338v162q-98 -182 -348 -182q-95 0 -184 41t-157.5 112t-109.5 175.5t-41 223.5zM399 532q0 -121 65 -188.5t181 -67.5q117 0 186.5 68t69.5 188t-69.5 188t-186.5 68 q-116 0 -181 -67.5t-65 -188.5z" />
<glyph unicode="e" horiz-adv-x="1259" d="M61 532q0 247 161 400t433 153q242 0 387.5 -153t145.5 -400v-81h-774q30 -82 104.5 -138.5t140.5 -56.5q129 0 228 106l246 -174q-70 -95 -205 -151.5t-273 -56.5q-162 0 -297.5 69t-216 196.5t-80.5 286.5zM412 649h428q-17 93 -66 134.5t-133 41.5q-183 0 -229 -176z " />
<glyph unicode="f" horiz-adv-x="768" d="M20 768v297h144v143q0 128 103.5 218t279.5 90q179 0 272 -107l-164 -227q-13 13 -20 19t-22 12t-33 6q-21 0 -36 -6.5t-23 -16t-12.5 -25.5t-5.5 -30t-1 -35v-41h241v-297h-241v-768h-338v768h-144z" />
<glyph unicode="g" horiz-adv-x="1341" d="M61 532q0 119 41 223.5t109.5 176t157.5 112.5t184 41q252 0 348 -170v150h338v-1024q0 -104 -47.5 -196.5t-126.5 -157t-184.5 -101.5t-218.5 -37q-427 0 -596 230l278 155q39 -39 120.5 -66.5t174.5 -27.5q60 0 119.5 24.5t101 71.5t41.5 105v121q-98 -182 -348 -182 q-95 0 -184 41t-157.5 112t-109.5 175.5t-41 223.5zM399 532q0 -121 65 -188.5t181 -67.5q117 0 186.5 68t69.5 188t-69.5 188t-186.5 68q-116 0 -181 -67.5t-65 -188.5z" />
<glyph unicode="h" horiz-adv-x="1300" d="M102 0v1495h338v-606q113 196 379 196q193 0 291 -113.5t98 -316.5v-655h-338v614q0 57 -35.5 98t-80.5 58.5t-90 17.5q-40 0 -77.5 -11t-71.5 -34.5t-54.5 -67t-20.5 -102.5v-573h-338z" />
<glyph unicode="i" horiz-adv-x="522" d="M59 1397q0 83 59 141.5t142 58.5t142 -58.5t59 -141.5t-59 -142t-142 -59t-142 59t-59 142zM92 0v1065h338v-1065h-338z" />
<glyph unicode="j" horiz-adv-x="522" d="M-229 -324l143 248q51 -57 111 -57q42 0 58.5 15.5t16.5 56.5v1126h338v-1188q0 -307 -352 -307q-94 0 -185 28t-130 78zM68 1397q0 83 58.5 141.5t141.5 58.5t142 -58.5t59 -141.5t-59 -142t-142 -59t-141.5 59t-58.5 142z" />
<glyph unicode="k" horiz-adv-x="1259" d="M102 0v1495h338v-870l408 440h381l-424 -451l465 -614h-365l-301 399l-164 -174v-225h-338z" />
<glyph unicode="l" horiz-adv-x="542" d="M102 0v1495h338v-1495h-338z" />
<glyph unicode="m" horiz-adv-x="1843" d="M102 0v1065h338v-180q111 200 328 200q133 0 203.5 -44.5t99.5 -133.5q63 84 151.5 131t190.5 47q81 0 140.5 -20t97 -55t60.5 -90t31.5 -118t8.5 -147v-655h-338v614q0 88 -32 136.5t-111 48.5q-96 0 -134 -51t-38 -175v-573h-326v614q0 185 -147 185q-185 0 -185 -226 v-573h-338z" />
<glyph unicode="n" horiz-adv-x="1300" d="M102 0v1065h338v-176q113 196 379 196q193 0 291 -113.5t98 -316.5v-655h-338v614q0 57 -35.5 98t-80.5 58.5t-90 17.5q-40 0 -77.5 -11t-71.5 -34.5t-54.5 -67t-20.5 -102.5v-573h-338z" />
<glyph unicode="o" horiz-adv-x="1331" d="M82 532q0 113 43 214.5t118.5 176.5t185.5 118.5t237 43.5t236.5 -43.5t185 -118.5t118.5 -176.5t43 -214.5t-43 -214.5t-118.5 -176t-185 -118t-236.5 -43.5q-169 0 -303.5 74.5t-207.5 200t-73 277.5zM420 532q0 -108 70.5 -182t175.5 -74t175 74t70 182t-70 182 t-175 74t-175.5 -74t-70.5 -182z" />
<glyph unicode="p" horiz-adv-x="1341" d="M102 -410v1475h338v-162q98 182 348 182q95 0 184 -41t157.5 -112.5t109.5 -176t41 -223.5t-41 -223.5t-109.5 -175.5t-157.5 -112t-184 -41q-252 0 -348 170v-560h-338zM440 532q0 -120 69.5 -188t186.5 -68q116 0 181 67.5t65 188.5t-65 188.5t-181 67.5 q-117 0 -186.5 -68t-69.5 -188z" />
<glyph unicode="q" horiz-adv-x="1341" d="M61 532q0 119 41 223.5t109.5 176t157.5 112.5t184 41q250 0 348 -182v162h338v-1475h-338v560q-96 -170 -348 -170q-95 0 -184 41t-157.5 112t-109.5 175.5t-41 223.5zM399 532q0 -121 65 -188.5t181 -67.5q117 0 186.5 68t69.5 188t-69.5 188t-186.5 68 q-116 0 -181 -67.5t-65 -188.5z" />
<glyph unicode="r" horiz-adv-x="839" d="M102 0v1065h338v-172q100 172 369 172v-297h-51q-148 0 -233 -55t-85 -160v-553h-338z" />
<glyph unicode="s" horiz-adv-x="1064" d="M16 176l164 230q66 -67 158.5 -102.5t173.5 -35.5q164 0 164 74q0 15 -4.5 25.5t-16.5 18t-25 12.5t-36.5 9.5t-44 7t-56 7.5t-63.5 10q-69 12 -127 33.5t-110 57t-81.5 92t-29.5 128.5q0 86 37 153t101.5 107.5t145.5 61t175 20.5q149 0 270.5 -45.5t187.5 -121.5 l-147 -211q-55 48 -131.5 75t-138.5 27q-162 0 -162 -61q0 -18 12 -29.5t40 -18.5t53.5 -11t72.5 -10t78 -11q157 -24 247.5 -111t90.5 -235q0 -164 -126.5 -253t-344.5 -89q-365 0 -527 196z" />
<glyph unicode="t" horiz-adv-x="860" d="M20 768v297h144v313h338v-313h276v-297h-276v-420q0 -72 71 -72q21 0 42.5 15t33.5 37l174 -242q-99 -106 -315 -106q-172 0 -258 87.5t-86 219.5v481h-144z" />
<glyph unicode="u" horiz-adv-x="1300" d="M92 410v655h338v-614q0 -57 35.5 -98.5t81 -59t90.5 -17.5q40 0 77.5 11t71 35t54 67.5t20.5 102.5v573h338v-1065h-338v176q-113 -196 -379 -196q-193 0 -291 113.5t-98 316.5z" />
<glyph unicode="v" horiz-adv-x="1208" d="M31 1065h348l225 -645l225 645h349l-430 -1065h-287z" />
<glyph unicode="w" horiz-adv-x="1628" d="M61 1065h338l123 -604l164 604h297l164 -604l123 604h338l-287 -1065h-317l-168 547l-170 -547h-318zM504 31l18 -2l-14 4z" />
<glyph unicode="x" horiz-adv-x="1259" d="M31 0l403 561l-362 504h389l170 -234l168 234h389l-365 -504l406 -561h-389l-209 291l-211 -291h-389z" />
<glyph unicode="y" horiz-adv-x="1185" d="M18 1065h349l251 -674l199 674h338l-379 -1188q-47 -147 -150 -227t-241 -80q-89 0 -180.5 35.5t-132.5 87.5l106 221q61 -68 135 -68q48 0 104.5 37.5t80.5 102.5z" />
<glyph unicode="z" horiz-adv-x="1167" d="M82 0v236l532 532h-491v297h942v-236l-533 -532h553v-297h-1003z" />
<glyph unicode="{" horiz-adv-x="755" d="M113 420v246q101 0 134.5 24t33.5 88v410q0 126 112 216.5t289 90.5l12 -235q-57 0 -93 -11.5t-51.5 -36t-19.5 -46.5t-4 -60v-328q0 -157 -116 -235q116 -78 116 -236v-327q0 -38 4 -60t19.5 -46.5t51.5 -36t93 -11.5l-12 -236q-177 0 -289 91t-112 217v409 q0 64 -33.5 88.5t-134.5 24.5z" />
<glyph unicode="|" horiz-adv-x="655" d="M236 -164v1761h184v-1761h-184z" />
<glyph unicode="}" horiz-adv-x="714" d="M72 -174q57 0 93 11.5t51.5 36t19.5 46.5t4 60v327q0 158 116 236q-116 78 -116 235v328q0 38 -4 60t-19.5 46.5t-51.5 36t-93 11.5l12 235q177 0 289 -90.5t112 -216.5v-410q0 -64 33.5 -88t134.5 -24v-246q-101 0 -134.5 -24.5t-33.5 -88.5v-409q0 -126 -112 -217 t-289 -91z" />
<glyph unicode="~" horiz-adv-x="962" d="M92 397q7 116 68.5 188t142.5 72q44 0 91.5 -20.5t81.5 -45t73 -45t69 -20.5q63 0 86 36t23 102l143 -62q-7 -128 -65.5 -194t-140.5 -66q-43 0 -88.5 20.5t-77.5 45t-69.5 45t-66.5 20.5q-62 0 -84 -35.5t-22 -101.5z" />
<glyph unicode="&#xa1;" horiz-adv-x="389" d="M-61 870q0 89 63 152t152 63t152 -63t63 -152t-63 -152t-152 -63t-152 63t-63 152zM-29 61l56 492h254l55 -492v-491h-365v491z" />
<glyph unicode="&#xa2;" d="M102 532q0 212 139.5 366.5t362.5 182.5v148h123v-146q135 -7 245.5 -61t178.5 -145l-219 -222q-40 56 -87.5 85.5t-117.5 35.5v-487q70 6 117.5 35.5t87.5 85.5l221 -222q-67 -92 -178.5 -145t-247.5 -61v-146h-123v148q-223 28 -362.5 182t-139.5 366zM440 532 q0 -82 43 -145.5t121 -87.5v467q-78 -23 -121 -86t-43 -148z" />
<glyph unicode="&#xa3;" d="M92 502v317h94q-32 132 -32 266q0 170 120.5 269.5t337.5 99.5q123 0 224.5 -56t160.5 -149l-155 -231q-82 119 -217 119q-80 0 -112 -34t-32 -99q0 -84 19 -185h202v-317h-149q-13 -112 -111 -242q74 31 127 31q71 0 137.5 -24.5t106.5 -24.5q66 0 91.5 18.5t58.5 79.5 l174 -197q-59 -209 -289 -209q-72 0 -146.5 17.5t-133.5 35t-93 17.5q-67 0 -107 -12.5t-71 -42.5l-180 49q106 170 139 286.5t20 217.5h-184z" />
<glyph unicode="&#xa4;" d="M35 252l188 188q-51 94 -51 205t51 205l-188 188l186 187l189 -189q94 51 204 51q111 0 205 -51l189 189l186 -187l-188 -188q51 -94 51 -205q0 -113 -51 -207l186 -186l-184 -186l-189 188q-94 -51 -205 -51q-110 0 -204 51l-189 -188zM469 645q0 -66 41 -111t104 -45 q64 0 105 45t41 111t-41 111t-105 45q-63 0 -104 -45t-41 -111z" />
<glyph unicode="&#xa5;" d="M-59 1434h323l342 -574l342 574h324l-457 -772h352v-152h-407v-160h407v-151h-407v-199h-307v199h-392v151h392v160h-392v152h336z" />
<glyph unicode="&#xa6;" horiz-adv-x="614" d="M236 -164v737h143v-737h-143zM236 942v655h143v-655h-143z" />
<glyph unicode="&#xa7;" horiz-adv-x="1064" d="M66 188l163 207q61 -53 162 -96t172 -43q62 0 108 15t46 40q0 31 -60 48t-227 34q-73 8 -135.5 34.5t-104 73t-53.5 106t20 139.5t111 167q-104 87 -104 240q0 143 112.5 222t286.5 79q105 0 188.5 -26t130 -58.5t97.5 -83.5l-164 -207q-114 99 -252 99q-112 0 -112 -56 q0 -29 72.5 -50.5t172.5 -31.5q73 -8 135 -34t103.5 -72t54.5 -104.5t-17 -137t-106 -164.5q138 -94 138 -247q0 -71 -37.5 -129.5t-100 -95.5t-140.5 -56.5t-163 -19.5q-151 0 -284 64t-213 144zM346.5 777q-1.5 -34 18 -58.5t57.5 -44t85.5 -32.5t106.5 -21q68 -8 140 -35 q26 39 27 72t-18.5 57.5t-57.5 44t-86 32.5t-107 21q-60 7 -137 37q-27 -39 -28.5 -73z" />
<glyph unicode="&#xa8;" horiz-adv-x="1024" d="M111 1364q0 72 52 124t124 52t124 -52t52 -124t-52 -124t-124 -52t-124 52t-52 124zM561 1364q0 72 52 124t124 52t124 -52t52 -124t-52 -124t-124 -52t-124 52t-52 124z" />
<glyph unicode="&#xa9;" horiz-adv-x="1740" d="M143 717q0 200 98 370t265.5 268.5t363.5 98.5t363.5 -98.5t265.5 -268.5t98 -370t-98 -370t-265.5 -268.5t-363.5 -98.5t-363.5 98.5t-265.5 268.5t-98 370zM231 717q0 -133 51 -254t137 -209t204 -140.5t247 -52.5t247 52.5t204 140.5t137 209t51 254t-51 254t-137 209 t-204 140t-247 52t-247 -52t-204 -140t-137 -209t-51 -254zM492 717q0 155 112.5 261.5t282.5 106.5q186 0 293 -127l-97 -116q-71 90 -196 90q-101 0 -160 -61.5t-59 -153.5t59 -153.5t160 -61.5q125 0 196 90l97 -117q-107 -127 -293 -127q-170 0 -282.5 107t-112.5 262z " />
<glyph unicode="&#xaa;" horiz-adv-x="1095" d="M133 872q0 51 14.5 89t45 63.5t68.5 42t95.5 25t114 11.5t135.5 3h62v12q0 62 -43 95.5t-115 33.5q-54 0 -95 -13.5t-58 -26t-50 -40.5l-131 164q71 61 154 92t205 31q168 0 276.5 -83.5t108.5 -223.5v-506h-252v102q-85 -116 -262 -116q-121 0 -197 62t-76 183zM184 346 v240h682v-240h-682zM401 883q0 -38 28 -59t69 -21q79 0 124.5 30.5t45.5 114.5v27h-17q-130 0 -190 -20.5t-60 -71.5z" />
<glyph unicode="&#xab;" horiz-adv-x="1212" d="M61 614v236l578 389v-235l-403 -271l403 -272v-236zM573 614v236l578 389v-235l-403 -271l403 -272v-236z" />
<glyph unicode="&#xac;" horiz-adv-x="1105" d="M133 655v318h840v-410h-144v92h-696z" />
<glyph unicode="&#xad;" horiz-adv-x="962" d="M133 451v317h696v-317h-696z" />
<glyph unicode="&#xae;" horiz-adv-x="1740" d="M143 717q0 200 98 370t265.5 268.5t363.5 98.5t363.5 -98.5t265.5 -268.5t98 -370t-98 -370t-265.5 -268.5t-363.5 -98.5t-363.5 98.5t-265.5 268.5t-98 370zM231 717q0 -133 51 -254t137 -209t204 -140.5t247 -52.5t247 52.5t204 140.5t137 209t51 254t-51 254t-137 209 t-204 140t-247 52t-247 -52t-204 -140t-137 -209t-51 -254zM582 358v717h348q114 0 190 -67.5t76 -171.5q0 -76 -43.5 -138t-114.5 -92l203 -248h-188l-187 228h-108v-228h-176zM758 741h151q52 0 81.5 26t29.5 69q0 86 -111 86h-151v-181z" />
<glyph unicode="&#xaf;" horiz-adv-x="614" d="M-4 1475v163h622v-163h-622z" />
<glyph unicode="&#xb0;" horiz-adv-x="819" d="M205 1393q0 85 60 144.5t145 59.5t144.5 -59.5t59.5 -144.5t-59.5 -145t-144.5 -60t-145 60t-60 145zM266 1393q0 -60 42 -102t102 -42t101.5 42t41.5 102t-41.5 101.5t-101.5 41.5t-102 -41.5t-42 -101.5z" />
<glyph unicode="&#xb1;" horiz-adv-x="1044" d="M61 20v318h922v-318h-922zM61 698v258h297v250h328v-250h297v-258h-297v-249h-328v249h-297z" />
<glyph unicode="&#xb2;" horiz-adv-x="614" d="M51 729v137l203 178q78 68 104.5 104t26.5 81q0 78 -82 78q-44 0 -73 -29.5t-58 -97.5l-121 84q34 86 99.5 138t152.5 52q106 0 173 -62t67 -155q0 -68 -29 -118.5t-108 -123.5l-132 -118h289v-148h-512z" />
<glyph unicode="&#xb3;" horiz-adv-x="614" d="M51 827l101 103q47 -66 145 -66q40 0 68 25t28 61q0 39 -30.5 58.5t-106.5 19.5v150q52 0 80.5 18.5t28.5 48.5q0 29 -18 45.5t-50 16.5q-35 0 -62 -14t-57 -50l-100 100q43 52 96 81.5t133 29.5q101 0 163 -53t62 -131q0 -97 -71 -156q102 -57 102 -184 q0 -102 -75 -157.5t-181 -55.5q-169 0 -256 110z" />
<glyph unicode="&#xb4;" horiz-adv-x="655" d="M82 1208l164 287h327l-245 -287h-246z" />
<glyph unicode="&#xb5;" horiz-adv-x="1300" d="M92 410v655h338v-614h51v-115q31 -29 73.5 -44.5t82.5 -15.5t77.5 11t71 35t54 67.5t20.5 102.5v573h338v-1065h-338v176q-113 -196 -379 -196v-386h-338v568q-51 99 -51 248z" />
<glyph unicode="&#xb6;" d="M154 983q0 95 41.5 181t107 144t145.5 92t156 34h471v-1434h-164v1343h-143v-1343h-164v532q-76 0 -156 34t-145.5 92t-107 144t-41.5 181z" />
<glyph unicode="&#xb7;" horiz-adv-x="389" d="M20 707q0 89 63.5 152t152.5 63t152 -63t63 -152t-63 -152t-152 -63t-152.5 63t-63.5 152z" />
<glyph unicode="&#xb8;" horiz-adv-x="655" d="M111 -338l45 143q62 -51 116 -51q72 0 72 64q0 39 -50.5 111.5t-121.5 131.5h82q13 -9 45.5 -30.5t50.5 -34t47 -34.5t45.5 -41t34 -43.5t25.5 -51t8 -55.5q0 -94 -45 -141.5t-158 -47.5q-17 0 -34.5 2.5t-30.5 5.5t-28.5 9.5t-24 10.5t-23.5 13.5t-19.5 12.5t-19 14 t-16.5 12z" />
<glyph unicode="&#xb9;" d="M336 1270l225 164h164v-717h-174v524l-123 -88z" />
<glyph unicode="&#xba;" horiz-adv-x="1095" d="M104 1044q0 175 123.5 294.5t315.5 119.5t315 -119.5t123 -294.5t-123 -294t-315 -119t-315.5 119t-123.5 294zM147 346v240h791v-240h-791zM358 1044q0 -80 53 -136t132 -56t131.5 56t52.5 136t-52.5 136.5t-131.5 56.5t-132 -56.5t-53 -136.5z" />
<glyph unicode="&#xbb;" horiz-adv-x="1212" d="M61 225v236l404 272l-404 271v235l578 -389v-236zM573 225v236l404 272l-404 271v235l578 -389v-236z" />
<glyph unicode="&#xbf;" horiz-adv-x="1136" d="M92 -74q0 153 36 233.5t138 131.5q31 15 51 27.5t34.5 30.5t21.5 32t11 44t4.5 54t0.5 74h328q9 -70 10 -123.5t-8 -90.5t-20.5 -62.5t-35 -45t-43 -31.5t-51.5 -28q-5 -2 -8 -3.5t-7.5 -4t-8.5 -4.5q-115 -61 -115 -172q0 -52 42 -86.5t114 -34.5q84 0 135 33t104 127 l230 -177q-68 -139 -194.5 -220t-307.5 -81q-213 0 -337 109t-124 268zM340 870q0 89 63 152t152 63t152 -63t63 -152t-63 -152t-152 -63t-152 63t-63 152z" />
<glyph unicode="&#xc0;" horiz-adv-x="1638" d="M20 0l635 1434h328l635 -1434h-369l-102 256h-655l-103 -256h-369zM385 1864h369l164 -287h-287zM612 553h414l-207 514z" />
<glyph unicode="&#xc1;" horiz-adv-x="1638" d="M20 0l635 1434h328l635 -1434h-369l-102 256h-655l-103 -256h-369zM612 553h414l-207 514zM651 1577l164 287h328l-246 -287h-246z" />
<glyph unicode="&#xc2;" horiz-adv-x="1638" d="M20 0l635 1434h328l635 -1434h-369l-102 256h-655l-103 -256h-369zM496 1577l204 205h226l204 -205h-184l-131 133l-135 -133h-184zM612 553h414l-207 514z" />
<glyph unicode="&#xc3;" horiz-adv-x="1638" d="M20 0l635 1434h328l635 -1434h-369l-102 256h-655l-103 -256h-369zM360 1618q7 114 79.5 187t156.5 73q56 0 110 -22.5t100.5 -45t82.5 -22.5q58 0 94.5 18.5t36.5 57.5l184 -41q-7 -124 -84.5 -192t-165.5 -68q-54 0 -105 22.5t-94 45t-79 22.5q-57 0 -92 -18.5 t-35 -57.5zM612 553h414l-207 514z" />
<glyph unicode="&#xc4;" horiz-adv-x="1638" d="M20 0l635 1434h328l635 -1434h-369l-102 256h-655l-103 -256h-369zM414 1753q0 72 52 124t124 52t124 -52t52 -124t-52 -124t-124 -52t-124 52t-52 124zM612 553h414l-207 514zM864 1753q0 72 52 124t124 52t124.5 -52t52.5 -124t-52.5 -124t-124.5 -52t-124 52t-52 124z " />
<glyph unicode="&#xc5;" horiz-adv-x="1638" d="M20 0l633 1430q-43 52 -43 126q0 85 60 145t145 60t145 -60t60 -145q0 -66 -43 -122h6l635 -1434h-369l-102 256h-655l-103 -256h-369zM612 553h414l-207 514zM713 1556q0 -44 29 -73t73 -29t73.5 29t29.5 73t-29.5 73.5t-73.5 29.5t-73 -29.5t-29 -73.5z" />
<glyph unicode="&#xc6;" horiz-adv-x="2232" d="M82 0l819 1434h1311v-308h-860v-239h757v-307h-757v-252h860v-328h-1208v236h-451l-133 -236h-338zM721 532h283v500z" />
<glyph unicode="&#xc7;" horiz-adv-x="1499" d="M82 717q0 151 59 287t161.5 235t250.5 157t317 58q370 0 588 -252l-194 -235q-138 180 -394 180q-203 0 -321.5 -122.5t-118.5 -307.5t118.5 -307.5t321.5 -122.5q256 0 394 180l194 -236q-200 -229 -528 -249q5 -3 33.5 -22.5t37.5 -25.5t34.5 -25t35.5 -29t29.5 -28.5 t28 -33.5t19.5 -34.5t15 -39.5t4 -41q0 -94 -44.5 -141t-157.5 -47q-16 0 -30.5 1.5t-28.5 5.5t-24.5 6.5t-24.5 9.5t-20.5 10t-20.5 12t-16.5 11t-17.5 13l-14 10l45 144q62 -51 117 -51q38 0 54.5 15.5t16.5 47.5q0 37 -45 104.5t-110 125.5q-220 6 -395.5 106.5 t-272 266.5t-96.5 364z" />
<glyph unicode="&#xc8;" horiz-adv-x="1372" d="M123 0v1434h1208v-308h-860v-239h758v-307h-758v-252h860v-328h-1208zM338 1864h369l163 -287h-286z" />
<glyph unicode="&#xc9;" horiz-adv-x="1372" d="M123 0v1434h1208v-308h-860v-239h758v-307h-758v-252h860v-328h-1208zM604 1577l164 287h328l-246 -287h-246z" />
<glyph unicode="&#xca;" horiz-adv-x="1372" d="M123 0v1434h1208v-308h-860v-239h758v-307h-758v-252h860v-328h-1208zM410 1577l204 205h226l204 -205h-184l-133 133l-133 -133h-184z" />
<glyph unicode="&#xcb;" horiz-adv-x="1372" d="M123 0v1434h1208v-308h-860v-239h758v-307h-758v-252h860v-328h-1208zM326 1753q0 72 52 124t124 52t124 -52t52 -124t-52 -124t-124 -52t-124 52t-52 124zM776 1753q0 72 52 124t124 52t124 -52t52 -124t-52 -124t-124 -52t-124 52t-52 124z" />
<glyph unicode="&#xcc;" horiz-adv-x="614" d="M-127 1864h369l164 -287h-287zM133 0v1434h348v-1434h-348z" />
<glyph unicode="&#xcd;" horiz-adv-x="614" d="M133 0v1434h348v-1434h-348zM139 1577l164 287h328l-246 -287h-246z" />
<glyph unicode="&#xce;" horiz-adv-x="614" d="M-57 1577l204 205h226l205 -205h-185l-131 133l-135 -133h-184zM133 0v1434h348v-1434h-348z" />
<glyph unicode="&#xcf;" horiz-adv-x="614" d="M-139 1753q0 72 52 124t124 52t124 -52t52 -124t-52 -124t-124 -52t-124 52t-52 124zM133 0v1434h348v-1434h-348zM311 1753q0 72 52 124t124 52t124.5 -52t52.5 -124t-52.5 -124t-124.5 -52t-124 52t-52 124z" />
<glyph unicode="&#xd1;" horiz-adv-x="1617" d="M123 0v1434h328l696 -871v871h348v-1434h-328l-696 870v-870h-348zM346 1618q7 114 79 187t155 73q56 0 110.5 -22.5t101 -45t82.5 -22.5q58 0 94 18.5t36 57.5l184 -41q-7 -124 -83.5 -192t-164.5 -68q-54 0 -105.5 22.5t-95.5 45t-80 22.5q-57 0 -92 -18.5t-35 -57.5z " />
<glyph unicode="&#xd2;" horiz-adv-x="1740" d="M102 717q0 151 58.5 287t160 235t244.5 157t305 58t305 -58t244.5 -157t160 -235t58.5 -287t-58.5 -287t-160 -235t-244.5 -157t-305 -58t-305 58t-244.5 157t-160 235t-58.5 287zM451 717q0 -182 116.5 -306t302.5 -124t303 124t117 306t-117 306t-303 124t-302.5 -124 t-116.5 -306zM481 1864h369l164 -287h-287z" />
<glyph unicode="&#xd3;" horiz-adv-x="1740" d="M102 717q0 151 58.5 287t160 235t244.5 157t305 58t305 -58t244.5 -157t160 -235t58.5 -287t-58.5 -287t-160 -235t-244.5 -157t-305 -58t-305 58t-244.5 157t-160 235t-58.5 287zM451 717q0 -182 116.5 -306t302.5 -124t303 124t117 306t-117 306t-303 124t-302.5 -124 t-116.5 -306zM748 1577l163 287h328l-246 -287h-245z" />
<glyph unicode="&#xd4;" horiz-adv-x="1740" d="M102 717q0 151 58.5 287t160 235t244.5 157t305 58t305 -58t244.5 -157t160 -235t58.5 -287t-58.5 -287t-160 -235t-244.5 -157t-305 -58t-305 58t-244.5 157t-160 235t-58.5 287zM451 717q0 -182 116.5 -306t302.5 -124t303 124t117 306t-117 306t-303 124t-302.5 -124 t-116.5 -306zM553 1577l205 205h225l205 -205h-184l-134 133l-133 -133h-184z" />
<glyph unicode="&#xd5;" horiz-adv-x="1740" d="M102 717q0 151 58.5 287t160 235t244.5 157t305 58t305 -58t244.5 -157t160 -235t58.5 -287t-58.5 -287t-160 -235t-244.5 -157t-305 -58t-305 58t-244.5 157t-160 235t-58.5 287zM451 717q0 -182 116.5 -306t302.5 -124t303 124t117 306t-117 306t-303 124t-302.5 -124 t-116.5 -306zM459 1618q7 114 78.5 187t154.5 73q56 0 110.5 -22.5t101.5 -45t83 -22.5q129 0 129 76l184 -41q-7 -124 -83 -192t-164 -68q-54 0 -105.5 22.5t-95.5 45t-80 22.5q-57 0 -92 -18.5t-35 -57.5z" />
<glyph unicode="&#xd6;" horiz-adv-x="1740" d="M102 717q0 151 58.5 287t160 235t244.5 157t305 58t305 -58t244.5 -157t160 -235t58.5 -287t-58.5 -287t-160 -235t-244.5 -157t-305 -58t-305 58t-244.5 157t-160 235t-58.5 287zM451 717q0 -182 116.5 -306t302.5 -124t303 124t117 306t-117 306t-303 124t-302.5 -124 t-116.5 -306zM469 1753q0 72 52 124t124 52t124 -52t52 -124t-52 -124t-124 -52t-124 52t-52 124zM920 1753q0 72 52 124t124 52t124 -52t52 -124t-52 -124t-124 -52t-124 52t-52 124z" />
<glyph unicode="&#xd9;" horiz-adv-x="1556" d="M102 573v861h338v-820q0 -132 99.5 -214.5t238.5 -82.5t238.5 82.5t99.5 214.5v820h338v-861q0 -169 -92.5 -306t-246.5 -212t-337 -75t-337 75t-246.5 212t-92.5 306zM348 1864h369l164 -287h-287z" />
<glyph unicode="&#xda;" horiz-adv-x="1556" d="M102 573v861h338v-820q0 -132 99.5 -214.5t238.5 -82.5t238.5 82.5t99.5 214.5v820h338v-861q0 -169 -92.5 -306t-246.5 -212t-337 -75t-337 75t-246.5 212t-92.5 306zM614 1577l164 287h328l-246 -287h-246z" />
<glyph unicode="&#xdb;" horiz-adv-x="1556" d="M102 573v861h338v-820q0 -132 99.5 -214.5t238.5 -82.5t238.5 82.5t99.5 214.5v820h338v-861q0 -169 -92.5 -306t-246.5 -212t-337 -75t-337 75t-246.5 212t-92.5 306zM420 1577l205 205h225l205 -205h-185l-133 133l-133 -133h-184z" />
<glyph unicode="&#xdc;" horiz-adv-x="1556" d="M102 573v861h338v-820q0 -132 99.5 -214.5t238.5 -82.5t238.5 82.5t99.5 214.5v820h338v-861q0 -169 -92.5 -306t-246.5 -212t-337 -75t-337 75t-246.5 212t-92.5 306zM336 1753q0 72 52 124t124 52t124 -52t52 -124t-52 -124t-124 -52t-124 52t-52 124zM786 1753 q0 72 52.5 124t124.5 52t124 -52t52 -124t-52 -124t-124 -52t-124.5 52t-52.5 124z" />
<glyph unicode="&#xdd;" horiz-adv-x="1597" d="M41 1434h369l389 -574l389 574h368l-583 -869v-565h-348v565zM631 1577l164 287h327l-245 -287h-246z" />
<glyph unicode="&#xe0;" horiz-adv-x="1187" d="M47 307q0 58 15.5 104t42 78.5t70.5 56t92 37.5t117 22t136 10.5t156 2.5h82v17q0 83 -56.5 128.5t-152.5 45.5q-44 0 -81.5 -7t-60 -14t-51.5 -27t-38.5 -27.5t-38.5 -33.5l-177 222q95 81 206.5 122t273.5 41q147 0 263 -48.5t183.5 -142.5t67.5 -218v-676h-338v135 q-54 -74 -143 -114.5t-205 -40.5q-161 0 -262 83.5t-101 243.5zM193 1495h368l164 -287h-287zM406 322q0 -50 36 -78.5t90 -28.5q49 0 86 8t70.5 28t51.5 60t18 99v36h-21q-172 0 -251.5 -28.5t-79.5 -95.5z" />
<glyph unicode="&#xe1;" horiz-adv-x="1187" d="M47 307q0 58 15.5 104t42 78.5t70.5 56t92 37.5t117 22t136 10.5t156 2.5h82v17q0 83 -56.5 128.5t-152.5 45.5q-44 0 -81.5 -7t-60 -14t-51.5 -27t-38.5 -27.5t-38.5 -33.5l-177 222q95 81 206.5 122t273.5 41q147 0 263 -48.5t183.5 -142.5t67.5 -218v-676h-338v135 q-54 -74 -143 -114.5t-205 -40.5q-161 0 -262 83.5t-101 243.5zM406 322q0 -50 36 -78.5t90 -28.5q49 0 86 8t70.5 28t51.5 60t18 99v36h-21q-172 0 -251.5 -28.5t-79.5 -95.5zM459 1208l164 287h327l-245 -287h-246z" />
<glyph unicode="&#xe2;" horiz-adv-x="1187" d="M47 307q0 58 15.5 104t42 78.5t70.5 56t92 37.5t117 22t136 10.5t156 2.5h82v17q0 83 -56.5 128.5t-152.5 45.5q-44 0 -81.5 -7t-60 -14t-51.5 -27t-38.5 -27.5t-38.5 -33.5l-177 222q95 81 206.5 122t273.5 41q147 0 263 -48.5t183.5 -142.5t67.5 -218v-676h-338v135 q-54 -74 -143 -114.5t-205 -40.5q-161 0 -262 83.5t-101 243.5zM264 1208l205 205h225l205 -205h-184l-133 133l-133 -133h-185zM406 322q0 -50 36 -78.5t90 -28.5q49 0 86 8t70.5 28t51.5 60t18 99v36h-21q-172 0 -251.5 -28.5t-79.5 -95.5z" />
<glyph unicode="&#xe3;" horiz-adv-x="1187" d="M47 307q0 58 15.5 104t42 78.5t70.5 56t92 37.5t117 22t136 10.5t156 2.5h82v17q0 83 -56.5 128.5t-152.5 45.5q-44 0 -81.5 -7t-60 -14t-51.5 -27t-38.5 -27.5t-38.5 -33.5l-177 222q95 81 206.5 122t273.5 41q147 0 263 -48.5t183.5 -142.5t67.5 -218v-676h-338v135 q-54 -74 -143 -114.5t-205 -40.5q-161 0 -262 83.5t-101 243.5zM170 1249q7 114 78.5 187t154.5 73q56 0 110.5 -22.5t101.5 -45t83 -22.5q129 0 129 76l185 -41q-7 -124 -83.5 -192t-164.5 -68q-54 0 -105.5 22.5t-95.5 45t-80 22.5q-57 0 -92 -18.5t-35 -57.5zM406 322 q0 -50 36 -78.5t90 -28.5q49 0 86 8t70.5 28t51.5 60t18 99v36h-21q-172 0 -251.5 -28.5t-79.5 -95.5z" />
<glyph unicode="&#xe4;" horiz-adv-x="1187" d="M47 307q0 58 15.5 104t42 78.5t70.5 56t92 37.5t117 22t136 10.5t156 2.5h82v17q0 83 -56.5 128.5t-152.5 45.5q-44 0 -81.5 -7t-60 -14t-51.5 -27t-38.5 -27.5t-38.5 -33.5l-177 222q95 81 206.5 122t273.5 41q147 0 263 -48.5t183.5 -142.5t67.5 -218v-676h-338v135 q-54 -74 -143 -114.5t-205 -40.5q-161 0 -262 83.5t-101 243.5zM180 1384q0 72 52 124.5t124 52.5t124 -52.5t52 -124.5t-52 -124t-124 -52t-124 52t-52 124zM406 322q0 -50 36 -78.5t90 -28.5q49 0 86 8t70.5 28t51.5 60t18 99v36h-21q-172 0 -251.5 -28.5t-79.5 -95.5z M631 1384q0 72 52 124.5t124 52.5t124 -52.5t52 -124.5t-52 -124t-124 -52t-124 52t-52 124z" />
<glyph unicode="&#xe5;" horiz-adv-x="1187" d="M47 307q0 58 15.5 104t42 78.5t70.5 56t92 37.5t117 22t136 10.5t156 2.5h82v17q0 83 -56.5 128.5t-152.5 45.5q-44 0 -81.5 -7t-60 -14t-51.5 -27t-38.5 -27.5t-38.5 -33.5l-177 222q95 81 206.5 122t273.5 41q147 0 263 -48.5t183.5 -142.5t67.5 -218v-676h-338v135 q-54 -74 -143 -114.5t-205 -40.5q-161 0 -262 83.5t-101 243.5zM377 1413q0 85 60 145t145 60t144.5 -60t59.5 -145t-59.5 -145t-144.5 -60t-145 60t-60 145zM406 322q0 -50 36 -78.5t90 -28.5q49 0 86 8t70.5 28t51.5 60t18 99v36h-21q-172 0 -251.5 -28.5t-79.5 -95.5z M479 1413q0 -44 29.5 -73t73.5 -29t73 29t29 73t-29 73.5t-73 29.5t-73.5 -29.5t-29.5 -73.5z" />
<glyph unicode="&#xe7;" horiz-adv-x="1173" d="M82 532q0 152 74 278t208.5 200.5t301.5 74.5q148 0 269.5 -55t194.5 -153l-219 -222q-44 64 -100.5 93.5t-144.5 29.5q-115 0 -180.5 -70.5t-65.5 -175.5q0 -103 66 -174t180 -71q88 0 144.5 29.5t100.5 93.5l222 -222q-64 -89 -170.5 -142t-237.5 -64q107 -72 141 -101 q97 -85 97 -178q0 -94 -45 -141t-158 -47q-16 0 -30.5 1.5t-28.5 5.5t-24.5 6.5t-24.5 9.5t-20.5 10t-20.5 12t-16.5 11t-16.5 13l-15 10l45 144q62 -51 117 -51q39 0 55.5 15.5t16.5 47.5q0 37 -45.5 104.5t-110.5 125.5q-244 9 -401.5 167.5t-157.5 384.5z" />
<glyph unicode="&#xe8;" horiz-adv-x="1259" d="M61 532q0 247 161 400t433 153q242 0 387.5 -153t145.5 -400v-81h-774q30 -82 104.5 -138.5t140.5 -56.5q129 0 228 106l246 -174q-70 -95 -205 -151.5t-273 -56.5q-162 0 -297.5 69t-216 196.5t-80.5 286.5zM236 1495h368l164 -287h-287zM412 649h428q-17 93 -66 134.5 t-133 41.5q-183 0 -229 -176z" />
<glyph unicode="&#xe9;" horiz-adv-x="1259" d="M61 532q0 247 161 400t433 153q242 0 387.5 -153t145.5 -400v-81h-774q30 -82 104.5 -138.5t140.5 -56.5q129 0 228 106l246 -174q-70 -95 -205 -151.5t-273 -56.5q-162 0 -297.5 69t-216 196.5t-80.5 286.5zM412 649h428q-17 93 -66 134.5t-133 41.5q-183 0 -229 -176z M502 1208l164 287h327l-245 -287h-246z" />
<glyph unicode="&#xea;" horiz-adv-x="1259" d="M61 532q0 247 161 400t433 153q242 0 387.5 -153t145.5 -400v-81h-774q30 -82 104.5 -138.5t140.5 -56.5q129 0 228 106l246 -174q-70 -95 -205 -151.5t-273 -56.5q-162 0 -297.5 69t-216 196.5t-80.5 286.5zM307 1208l205 205h225l205 -205h-184l-133 133l-133 -133 h-185zM412 649h428q-17 93 -66 134.5t-133 41.5q-183 0 -229 -176z" />
<glyph unicode="&#xeb;" horiz-adv-x="1259" d="M61 532q0 247 161 400t433 153q242 0 387.5 -153t145.5 -400v-81h-774q30 -82 104.5 -138.5t140.5 -56.5q129 0 228 106l246 -174q-70 -95 -205 -151.5t-273 -56.5q-162 0 -297.5 69t-216 196.5t-80.5 286.5zM223 1384q0 72 52 124.5t124 52.5t124 -52.5t52 -124.5 t-52 -124t-124 -52t-124 52t-52 124zM412 649h428q-17 93 -66 134.5t-133 41.5q-183 0 -229 -176zM674 1384q0 72 52 124.5t124 52.5t124 -52.5t52 -124.5t-52 -124t-124 -52t-124 52t-52 124z" />
<glyph unicode="&#xec;" horiz-adv-x="552" d="M-133 1495h369l163 -287h-286zM113 0v1065h327v-1065h-327z" />
<glyph unicode="&#xed;" horiz-adv-x="552" d="M113 0v1065h327v-1065h-327zM133 1208l164 287h328l-246 -287h-246z" />
<glyph unicode="&#xee;" horiz-adv-x="552" d="M-61 1208l204 205h226l204 -205h-184l-133 133l-133 -133h-184zM113 0v1065h327v-1065h-327z" />
<glyph unicode="&#xef;" horiz-adv-x="552" d="M-145 1384q0 72 52 124.5t124 52.5t124 -52.5t52 -124.5t-52 -124t-124 -52t-124 52t-52 124zM113 0v1065h327v-1065h-327zM305 1384q0 72 52 124.5t124 52.5t124 -52.5t52 -124.5t-52 -124t-124 -52t-124 52t-52 124z" />
<glyph unicode="&#xf1;" horiz-adv-x="1300" d="M102 0v1065h338v-176q113 196 379 196q193 0 291 -113.5t98 -316.5v-655h-338v614q0 57 -35.5 98t-80.5 58.5t-90 17.5q-40 0 -77.5 -11t-71.5 -34.5t-54.5 -67t-20.5 -102.5v-573h-338zM238 1249q7 114 79 187t156 73q56 0 110 -22.5t100.5 -45t82.5 -22.5 q58 0 94.5 18.5t36.5 57.5l184 -41q-7 -124 -84.5 -192t-165.5 -68q-54 0 -105 22.5t-94 45t-79 22.5q-57 0 -92 -18.5t-35 -57.5z" />
<glyph unicode="&#xf2;" horiz-adv-x="1331" d="M82 532q0 113 43 214.5t118.5 176.5t185.5 118.5t237 43.5t236.5 -43.5t185 -118.5t118.5 -176.5t43 -214.5t-43 -214.5t-118.5 -176t-185 -118t-236.5 -43.5q-169 0 -303.5 74.5t-207.5 200t-73 277.5zM276 1495h369l164 -287h-287zM420 532q0 -108 70.5 -182t175.5 -74 t175 74t70 182t-70 182t-175 74t-175.5 -74t-70.5 -182z" />
<glyph unicode="&#xf3;" horiz-adv-x="1331" d="M82 532q0 113 43 214.5t118.5 176.5t185.5 118.5t237 43.5t236.5 -43.5t185 -118.5t118.5 -176.5t43 -214.5t-43 -214.5t-118.5 -176t-185 -118t-236.5 -43.5q-169 0 -303.5 74.5t-207.5 200t-73 277.5zM420 532q0 -108 70.5 -182t175.5 -74t175 74t70 182t-70 182 t-175 74t-175.5 -74t-70.5 -182zM543 1208l164 287h327l-246 -287h-245z" />
<glyph unicode="&#xf4;" horiz-adv-x="1331" d="M82 532q0 113 43 214.5t118.5 176.5t185.5 118.5t237 43.5t236.5 -43.5t185 -118.5t118.5 -176.5t43 -214.5t-43 -214.5t-118.5 -176t-185 -118t-236.5 -43.5q-169 0 -303.5 74.5t-207.5 200t-73 277.5zM348 1208l205 205h225l205 -205h-184l-133 133l-134 -133h-184z M420 532q0 -108 70.5 -182t175.5 -74t175 74t70 182t-70 182t-175 74t-175.5 -74t-70.5 -182z" />
<glyph unicode="&#xf5;" horiz-adv-x="1331" d="M82 532q0 113 43 214.5t118.5 176.5t185.5 118.5t237 43.5t236.5 -43.5t185 -118.5t118.5 -176.5t43 -214.5t-43 -214.5t-118.5 -176t-185 -118t-236.5 -43.5q-169 0 -303.5 74.5t-207.5 200t-73 277.5zM254 1249q7 114 78.5 187t154.5 73q56 0 110.5 -22.5t101.5 -45 t83 -22.5q129 0 129 76l185 -41q-7 -124 -83.5 -192t-164.5 -68q-54 0 -105.5 22.5t-95.5 45t-80 22.5q-57 0 -92 -18.5t-35 -57.5zM420 532q0 -108 70.5 -182t175.5 -74t175 74t70 182t-70 182t-175 74t-175.5 -74t-70.5 -182z" />
<glyph unicode="&#xf6;" horiz-adv-x="1331" d="M82 532q0 113 43 214.5t118.5 176.5t185.5 118.5t237 43.5t236.5 -43.5t185 -118.5t118.5 -176.5t43 -214.5t-43 -214.5t-118.5 -176t-185 -118t-236.5 -43.5q-169 0 -303.5 74.5t-207.5 200t-73 277.5zM264 1384q0 72 52 124.5t124 52.5t124 -52.5t52 -124.5t-52 -124 t-124 -52t-124 52t-52 124zM420 532q0 -108 70.5 -182t175.5 -74t175 74t70 182t-70 182t-175 74t-175.5 -74t-70.5 -182zM715 1384q0 72 52 124.5t124 52.5t124 -52.5t52 -124.5t-52 -124t-124 -52t-124 52t-52 124z" />
<glyph unicode="&#xf9;" horiz-adv-x="1300" d="M92 410v655h338v-614q0 -57 35.5 -98.5t81 -59t90.5 -17.5q40 0 77.5 11t71 35t54 67.5t20.5 102.5v573h338v-1065h-338v176q-113 -196 -379 -196q-193 0 -291 113.5t-98 316.5zM250 1495h368l164 -287h-286z" />
<glyph unicode="&#xfa;" horiz-adv-x="1300" d="M92 410v655h338v-614q0 -57 35.5 -98.5t81 -59t90.5 -17.5q40 0 77.5 11t71 35t54 67.5t20.5 102.5v573h338v-1065h-338v176q-113 -196 -379 -196q-193 0 -291 113.5t-98 316.5zM516 1208l164 287h328l-246 -287h-246z" />
<glyph unicode="&#xfb;" horiz-adv-x="1300" d="M92 410v655h338v-614q0 -57 35.5 -98.5t81 -59t90.5 -17.5q40 0 77.5 11t71 35t54 67.5t20.5 102.5v573h338v-1065h-338v176q-113 -196 -379 -196q-193 0 -291 113.5t-98 316.5zM324 1208l204 205h226l204 -205h-184l-135 133l-131 -133h-184z" />
<glyph unicode="&#xfc;" horiz-adv-x="1300" d="M92 410v655h338v-614q0 -57 35.5 -98.5t81 -59t90.5 -17.5q40 0 77.5 11t71 35t54 67.5t20.5 102.5v573h338v-1065h-338v176q-113 -196 -379 -196q-193 0 -291 113.5t-98 316.5zM238 1384q0 72 52 124.5t124 52.5t124 -52.5t52 -124.5t-52 -124t-124 -52t-124 52t-52 124 zM688 1384q0 72 52 124.5t124 52.5t124 -52.5t52 -124.5t-52 -124t-124 -52t-124 52t-52 124z" />
<glyph unicode="&#xfd;" horiz-adv-x="1185" d="M18 1065h349l251 -674l199 674h338l-379 -1188q-47 -147 -150 -227t-241 -80q-89 0 -180.5 35.5t-132.5 87.5l106 221q61 -68 135 -68q48 0 104.5 37.5t80.5 102.5zM449 1208l163 287h328l-246 -287h-245z" />
<glyph unicode="&#xff;" horiz-adv-x="1185" d="M18 1065h349l251 -674l199 674h338l-379 -1188q-47 -147 -150 -227t-241 -80q-89 0 -180.5 35.5t-132.5 87.5l106 221q61 -68 135 -68q48 0 104.5 37.5t80.5 102.5zM170 1384q0 72 52 124.5t124 52.5t124 -52.5t52 -124.5t-52 -124t-124 -52t-124 52t-52 124zM621 1384 q0 72 52 124.5t124 52.5t124 -52.5t52 -124.5t-52 -124t-124 -52t-124 52t-52 124z" />
<glyph unicode="&#x178;" horiz-adv-x="1597" d="M41 1434h369l389 -574l389 574h368l-583 -869v-565h-348v565zM352 1753q0 72 52 124t124 52t124.5 -52t52.5 -124t-52.5 -124t-124.5 -52t-124 52t-52 124zM803 1753q0 72 52 124t124 52t124 -52t52 -124t-52 -124t-124 -52t-124 52t-52 124z" />
<glyph unicode="&#x2c6;" horiz-adv-x="1024" d="M195 1290l204 205h226l204 -205h-184l-133 133l-133 -133h-184z" />
<glyph unicode="&#x2dc;" horiz-adv-x="1024" d="M100 1270q7 114 79 187t155 73q56 0 110.5 -22.5t101.5 -45t83 -22.5q129 0 129 76l184 -41q-7 -124 -83.5 -192.5t-164.5 -68.5q-54 0 -105.5 23t-95 45.5t-79.5 22.5q-57 0 -92 -18.5t-35 -57.5z" />
<glyph unicode="&#x2000;" horiz-adv-x="964" />
<glyph unicode="&#x2001;" horiz-adv-x="1929" />
<glyph unicode="&#x2002;" horiz-adv-x="964" />
<glyph unicode="&#x2003;" horiz-adv-x="1929" />
<glyph unicode="&#x2004;" horiz-adv-x="643" />
<glyph unicode="&#x2005;" horiz-adv-x="482" />
<glyph unicode="&#x2006;" horiz-adv-x="321" />
<glyph unicode="&#x2007;" horiz-adv-x="321" />
<glyph unicode="&#x2008;" horiz-adv-x="241" />
<glyph unicode="&#x2009;" horiz-adv-x="385" />
<glyph unicode="&#x200a;" horiz-adv-x="107" />
<glyph unicode="&#x2010;" horiz-adv-x="880" d="M133 451v317h615v-317h-615z" />
<glyph unicode="&#x2011;" horiz-adv-x="880" d="M133 451v317h615v-317h-615z" />
<glyph unicode="&#x2012;" horiz-adv-x="880" d="M133 451v317h615v-317h-615z" />
<glyph unicode="&#x2013;" horiz-adv-x="1289" d="M133 451v317h1024v-317h-1024z" />
<glyph unicode="&#x2014;" horiz-adv-x="2313" d="M133 451v317h2048v-317h-2048z" />
<glyph unicode="&#x2018;" horiz-adv-x="438" d="M-53 1030q0 96 86 203l200 262h185l-127 -268q53 -32 79.5 -84.5t26.5 -108.5q0 -90 -65 -152.5t-160 -62.5q-98 0 -161.5 60.5t-63.5 150.5z" />
<glyph unicode="&#x2019;" horiz-adv-x="438" d="M20 1004l127 268q-53 32 -79.5 84t-26.5 108q0 90 65 152.5t160 62.5q98 0 162 -60.5t64 -150.5q0 -95 -86 -202l-201 -262h-185z" />
<glyph unicode="&#x201c;" horiz-adv-x="847" d="M-53 1030q0 96 86 203l200 262h185l-127 -268q61 -40 86 -101q19 49 65 107l201 262h184l-127 -268q53 -32 80 -84.5t27 -108.5q0 -90 -65 -152.5t-160 -62.5q-71 0 -125.5 33.5t-81.5 89.5q-27 -55 -81 -89t-122 -34q-98 0 -161.5 60.5t-63.5 150.5z" />
<glyph unicode="&#x201d;" horiz-adv-x="847" d="M20 1004l127 268q-53 32 -79.5 84t-26.5 108q0 90 65 152.5t160 62.5q71 0 125.5 -33.5t81.5 -89.5q27 55 81 89t122 34q98 0 161.5 -60.5t63.5 -150.5q0 -95 -86 -202l-201 -262h-184l127 268q-62 41 -86 100q-18 -47 -65 -106l-201 -262h-185z" />
<glyph unicode="&#x202f;" horiz-adv-x="385" />
<glyph unicode="&#x205f;" horiz-adv-x="482" />
<glyph unicode="&#x25fc;" horiz-adv-x="1064" d="M0 0v1065h1065v-1065h-1065z" />
<glyph unicode="&#xfb01;" horiz-adv-x="829" d="M92 829v236h144v143q0 122 103 215t239 93q117 0 170 -46v-227q-58 37 -138 37q-52 0 -85 -33.5t-33 -79.5v-102h282v-236h-282v-829h-256v829h-144z" />
</font>
</defs>
</svg>
