<?xml version="1.0" standalone="no"?>
<!DOCTYPE svg PUBLIC "-//W3C//DTD SVG 1.1//EN" "http://www.w3.org/Graphics/SVG/1.1/DTD/svg11.dtd" >
<svg xmlns="http://www.w3.org/2000/svg">
<metadata></metadata>
<defs>
<font id="jonesbook" horiz-adv-x="1228" >
<font-face units-per-em="2048" ascent="1606" descent="-442" />
<missing-glyph horiz-adv-x="614" />
<glyph horiz-adv-x="0" />
<glyph horiz-adv-x="682" />
<glyph unicode=" "  horiz-adv-x="614" />
<glyph unicode="&#x09;" horiz-adv-x="614" />
<glyph unicode="&#xa0;" horiz-adv-x="614" />
<glyph unicode="!" horiz-adv-x="471" d="M102 113q0 55 39 94t95 39t94.5 -39t38.5 -94t-38.5 -94t-94.5 -39t-95 39t-39 94zM135 1004v491h201v-491l-55 -492h-91z" />
<glyph unicode="&#x22;" horiz-adv-x="696" d="M61 1403q0 46 33.5 79.5t79.5 33.5t79.5 -33.5t33.5 -79.5q0 -11 -4 -35l-64 -385h-90l-63 385q-5 30 -5 35zM410 1403q0 46 33 79.5t79 33.5t79.5 -33.5t33.5 -79.5q0 -11 -4 -35l-64 -385h-90l-63 385q-4 24 -4 35z" />
<glyph unicode="#" horiz-adv-x="1658" d="M123 338v154h299l78 450h-295v154h321l58 338h164l-58 -338h410l57 338h164l-57 -338h272v-154h-299l-78 -450h295v-154h-321l-58 -338h-164l58 338h-410l-57 -338h-164l57 338h-272zM586 492h409l78 450h-409z" />
<glyph unicode="$" d="M82 231l111 129q59 -53 102.5 -88t123 -77.5t156.5 -55.5v539q-183 36 -297 133.5t-114 251.5q0 155 120 264.5t291 124.5v145h144v-149q235 -26 383 -174l-103 -115q-54 53 -128.5 88t-151.5 47v-479q418 -96 418 -416q0 -182 -109.5 -291t-308.5 -126v-146h-144v148 q-80 8 -153 32.5t-136 62t-108 72t-96 80.5zM338 1073q0 -165 237 -229v452q-116 -16 -176.5 -78.5t-60.5 -144.5zM719 137q244 29 244 262q0 92 -64 156.5t-180 95.5v-514z" />
<glyph unicode="%" horiz-adv-x="1925" d="M61 1126q0 161 114.5 275.5t275.5 114.5t275 -114.5t114 -275.5t-114 -275t-275 -114t-275.5 114t-114.5 275zM205 1126q0 -106 72.5 -181t173.5 -75t173 75t72 181t-72 181t-173 75t-173.5 -75t-72.5 -181zM348 0l1065 1495h164l-1065 -1495h-164zM1085 369 q0 161 114.5 275t275.5 114t275 -114t114 -275t-114 -275t-275 -114t-275.5 114t-114.5 275zM1229 369q0 -106 72.5 -181t173.5 -75t173 75t72 181t-72 181t-173 75t-173.5 -75t-72.5 -181z" />
<glyph unicode="&#x26;" horiz-adv-x="1464" d="M143 389q0 79 25.5 141.5t73.5 106t100.5 72.5t122.5 53q-78 92 -113 163t-35 160q0 167 101 268t268 101t268 -101t101 -268q0 -130 -96.5 -228.5t-237.5 -141.5q9 -9 18 -21l320 -356q96 131 129 297l143 -53q-39 -214 -166 -363l197 -219h-205l-102 113 q-176 -133 -400 -133q-229 0 -370.5 113t-141.5 296zM307 389q0 -108 103.5 -182t265.5 -74q151 0 274 94l-334 369q-12 14 -35 38t-32 34q-116 -39 -179 -103.5t-63 -175.5zM481 1085q0 -67 33 -122t119 -152q111 33 184.5 114.5t73.5 159.5q0 91 -59 153t-146 62t-146 -62 t-59 -153z" />
<glyph unicode="'" horiz-adv-x="348" d="M61 1403q0 46 33.5 79.5t79.5 33.5t79.5 -33.5t33.5 -79.5q0 -11 -4 -35l-64 -385h-90l-63 385q-5 30 -5 35z" />
<glyph unicode="(" horiz-adv-x="563" d="M92 543q0 497 307 973l123 -41q-121 -196 -184 -440.5t-63 -491.5t63 -491.5t184 -440.5l-123 -41q-307 476 -307 973z" />
<glyph unicode=")" horiz-adv-x="563" d="M41 -389q121 196 184 440.5t63 491.5t-63 491.5t-184 440.5l123 41q308 -476 308 -973t-308 -973z" />
<glyph unicode="*" horiz-adv-x="663" d="M41 1079l188 109l-188 108l51 90l189 -108v217h102v-217l188 108l52 -90l-189 -108l189 -109l-52 -90l-188 109v-217h-102v217l-189 -109z" />
<glyph unicode="+" horiz-adv-x="1044" d="M61 664v153h379v389h164v-389h379v-153h-379v-390h-164v390h-379z" />
<glyph unicode="," horiz-adv-x="520" d="M102 -266l123 256q-34 13 -58 47.5t-24 75.5q0 56 40 94.5t98 38.5t97.5 -38.5t39.5 -94.5q0 -49 -27 -93l-186 -286h-103z" />
<glyph unicode="-" horiz-adv-x="880" d="M133 532v154h615v-154h-615z" />
<glyph unicode="." horiz-adv-x="471" d="M102 113q0 55 39 94t95 39t94.5 -39t38.5 -94t-38.5 -94t-94.5 -39t-95 39t-39 94z" />
<glyph unicode="/" horiz-adv-x="880" d="M-41 -164l819 1761h144l-820 -1761h-143z" />
<glyph unicode="0" d="M31 717q0 205 70 371.5t204.5 266t308.5 99.5t308.5 -99.5t205 -266t70.5 -371.5t-70.5 -371.5t-205 -266t-308.5 -99.5t-308.5 99.5t-204.5 266t-70 371.5zM215 717q0 -165 42.5 -292t134 -204.5t222.5 -77.5t223 77.5t134.5 204.5t42.5 292q0 122 -25 225.5 t-73.5 181.5t-125.5 122t-176 44q-131 0 -222.5 -77t-134 -204t-42.5 -292z" />
<glyph unicode="1" d="M246 1167l368 267h164v-1434h-184v1219l-275 -193z" />
<glyph unicode="2" d="M102 0v133l519 481q149 137 209.5 236t60.5 207q0 97 -75 170t-202 73t-213.5 -82t-146.5 -225l-152 78q68 170 202.5 276.5t309.5 106.5q192 0 321.5 -120t129.5 -277q0 -83 -19 -151t-63.5 -134t-97 -121.5t-140.5 -136.5l-395 -360h776v-154h-1024z" />
<glyph unicode="3" d="M102 203l113 108q61 -82 175.5 -131t223.5 -49q88 0 163 29t125 92.5t50 150.5q0 273 -440 273v153q192 0 285.5 63.5t93.5 172.5q0 107 -71.5 171t-205.5 64q-117 0 -196 -45.5t-150 -130.5l-114 109q42 49 83 85.5t96 69t126 49.5t155 17q201 0 326 -106.5t125 -262.5 q0 -240 -246 -325q152 -34 229.5 -118.5t77.5 -238.5q0 -104 -43 -186.5t-116 -133t-163 -77t-190 -26.5q-339 0 -512 223z" />
<glyph unicode="4" d="M82 297v133l686 1004h195v-983h163v-154h-163v-297h-175v297h-706zM270 451h518v772z" />
<glyph unicode="5" d="M102 203l123 119q63 -85 169.5 -136t219.5 -51q87 0 163 35.5t125.5 109.5t49.5 171q0 144 -86 235.5t-252 91.5q-120 0 -203.5 -33.5t-144.5 -107.5h-123l123 797h778v-154h-645l-61 -434q109 86 317 86q130 0 237 -59.5t170.5 -170.5t63.5 -251q0 -90 -28 -167 t-77 -132t-114.5 -94.5t-139.5 -58.5t-153 -19q-339 0 -512 223z" />
<glyph unicode="6" d="M102 451q0 148 119 321l453 662h205l-408 -566q97 43 205 43q197 0 323.5 -130.5t126.5 -329.5q0 -201 -143 -336t-369 -135t-369 135t-143 336zM266 451q0 -142 93.5 -235t254.5 -93t255 93t94 235t-94 234.5t-255 92.5t-254.5 -92.5t-93.5 -234.5z" />
<glyph unicode="7" d="M102 1280v154h1026v-123l-634 -1311h-179l621 1280h-834z" />
<glyph unicode="8" d="M102 383q0 148 76.5 240.5t210.5 132.5q-105 43 -165 126.5t-60 202.5q0 153 130.5 261t319.5 108t320 -108t131 -261q0 -119 -60 -202.5t-165 -126.5q134 -40 210 -132.5t76 -240.5q0 -120 -69.5 -213t-185.5 -141.5t-257 -48.5t-257 48.5t-185.5 141.5t-69.5 213z M276 403q0 -131 94.5 -201.5t243.5 -70.5t243.5 70.5t94.5 201.5q0 132 -94.5 202.5t-243.5 70.5t-243.5 -70.5t-94.5 -202.5zM338 1065q0 -104 76.5 -170t199.5 -66t200 66t77 170t-77 169.5t-200 65.5t-199.5 -65.5t-76.5 -169.5z" />
<glyph unicode="9" d="M102 983q0 201 143 336t369 135t369 -135t143 -336q0 -149 -118 -321l-453 -662h-205l408 565q-97 -43 -205 -43q-197 0 -324 131t-127 330zM266 983q0 -142 93.5 -235t254.5 -93t255 93t94 235t-94 235t-255 93t-254.5 -93t-93.5 -235z" />
<glyph unicode=":" horiz-adv-x="471" d="M102 113q0 55 39 94t95 39t94.5 -39t38.5 -94t-38.5 -94t-94.5 -39t-95 39t-39 94zM102 961q0 55 39 94t95 39t94.5 -39t38.5 -94q0 -56 -39 -95t-94 -39q-56 0 -95 39.5t-39 94.5z" />
<glyph unicode=";" horiz-adv-x="520" d="M82 -266l123 256q-34 13 -58 47.5t-24 75.5q0 56 39.5 94.5t97.5 38.5t97.5 -38.5t39.5 -94.5q0 -51 -26 -93l-187 -286h-102zM123 961q0 55 38.5 94t94.5 39t94.5 -39t38.5 -94q0 -56 -39 -95t-94 -39t-94 39t-39 95z" />
<glyph unicode="&#x3c;" horiz-adv-x="1044" d="M61 655v154l922 410v-154l-750 -332l750 -334v-153z" />
<glyph unicode="=" horiz-adv-x="1044" d="M61 410v153h922v-153h-922zM61 891v153h922v-153h-922z" />
<glyph unicode="&#x3e;" horiz-adv-x="1044" d="M74 246v153l749 334l-749 332v154l921 -410v-154z" />
<glyph unicode="?" horiz-adv-x="1136" d="M82 1214q68 140 194.5 221t307.5 81q199 0 319.5 -109.5t120.5 -267.5q0 -141 -60 -226.5t-186 -146.5q-54 -25 -80 -41t-51 -44.5t-34 -68t-9 -100.5h-164q-7 50 -7.5 91.5t6 73t15 55.5t25 43t32 32.5t39 26t42 21t46 20.5t46.5 22q166 82 166 242q0 96 -69 159.5 t-197 63.5q-229 0 -361 -236zM399 113q0 55 38.5 94t94.5 39t95 -39t39 -94t-39 -94t-95 -39t-94.5 39t-38.5 94z" />
<glyph unicode="@" horiz-adv-x="2150" d="M113 532q0 197 71 373.5t195.5 307t305.5 206.5t390 76q198 0 374 -64t306.5 -177t206.5 -279.5t76 -360.5q0 -116 -19 -214t-51.5 -165.5t-73 -118.5t-87 -79.5t-89.5 -42.5t-84 -14q-55 0 -95 18.5t-62.5 50.5t-32.5 71t-10 85q-56 -107 -151.5 -166t-227.5 -59 q-98 0 -189.5 41t-160.5 112.5t-110.5 175.5t-41.5 223t41.5 223.5t110.5 176t160.5 112.5t189.5 41q132 0 227.5 -59t151.5 -166v205h163v-819q0 -94 21.5 -136t75.5 -42q32 0 69 20t74.5 64t68 106t49.5 155t19 201q0 183 -70.5 338t-192 260.5t-286 164.5t-350.5 59 q-198 0 -367.5 -71.5t-285 -193.5t-181 -287.5t-65.5 -351.5q0 -147 45 -284.5t128.5 -249t193.5 -195t247.5 -129t284.5 -45.5v-59q-195 0 -373 76.5t-307 205.5t-205.5 307t-76.5 373zM717 532q0 -179 102.5 -289t255.5 -110t256 110t103 289t-103 289.5t-256 110.5 t-255.5 -110.5t-102.5 -289.5z" />
<glyph unicode="A" horiz-adv-x="1638" d="M82 0l655 1434h164l655 -1434h-184l-170 379h-766l-170 -379h-184zM506 532h627l-314 699z" />
<glyph unicode="B" horiz-adv-x="1423" d="M205 0v1434h532q134 0 243.5 -45t177 -136.5t67.5 -214.5q0 -213 -203 -295q138 -36 218.5 -121t80.5 -223q0 -127 -71.5 -219.5t-183 -136t-247.5 -43.5h-614zM389 164h430q318 0 318 235q0 67 -25.5 117t-70.5 78.5t-100.5 42.5t-121.5 14h-430v-487zM389 815h348 q67 0 119.5 10.5t95 35t65.5 69.5t23 108q0 123 -82 177.5t-221 54.5h-348v-455z" />
<glyph unicode="C" horiz-adv-x="1499" d="M143 717q0 200 98 370t265.5 268.5t363.5 98.5q160 0 302.5 -67t244.5 -185l-119 -119q-85 97 -194.5 152t-233.5 55q-152 0 -276.5 -76.5t-195 -207.5t-70.5 -289t70.5 -289.5t195 -208t276.5 -76.5q124 0 233.5 55t194.5 152l119 -119q-102 -118 -244.5 -184.5 t-302.5 -66.5q-196 0 -363.5 98.5t-265.5 268.5t-98 370z" />
<glyph unicode="D" horiz-adv-x="1658" d="M205 0v1434h573q148 0 283.5 -55t235.5 -149.5t159.5 -228.5t59.5 -284t-59.5 -284t-159.5 -228.5t-235.5 -149.5t-283.5 -55h-573zM389 164h389q153 0 279.5 71t200 198t73.5 284t-73.5 284t-200 198t-279.5 71h-389v-1106z" />
<glyph unicode="E" horiz-adv-x="1372" d="M205 0v1434h1044v-164h-860v-455h758v-164h-758v-487h860v-164h-1044z" />
<glyph unicode="F" horiz-adv-x="1361" d="M205 0v1434h1044v-164h-860v-496h758v-164h-758v-610h-184z" />
<glyph unicode="G" horiz-adv-x="1601" d="M143 717q0 200 98 370t265.5 268.5t363.5 98.5q160 0 302.5 -67t244.5 -185l-119 -119q-85 97 -194.5 152t-233.5 55q-152 0 -276.5 -76.5t-195 -207.5t-70.5 -289t70.5 -289.5t195 -208t276.5 -76.5q103 0 203.5 38.5t179.5 105.5v307h-383v164h568v-527 q-100 -116 -253 -183.5t-315 -67.5q-196 0 -363.5 98.5t-265.5 268.5t-98 370z" />
<glyph unicode="H" horiz-adv-x="1566" d="M205 0v1434h184v-619h789v619h184v-1434h-184v651h-789v-651h-184z" />
<glyph unicode="I" horiz-adv-x="614" d="M215 0v1434h184v-1434h-184z" />
<glyph unicode="J" horiz-adv-x="1226" d="M61 322l140 75q112 -264 342 -264q147 0 226 106.5t79 292.5v902h174v-902q0 -256 -131 -404t-348 -148q-166 0 -291.5 89.5t-190.5 252.5z" />
<glyph unicode="K" horiz-adv-x="1525" d="M205 0v1434h184v-785l768 785h215l-573 -588l676 -846h-213l-580 725l-293 -301v-424h-184z" />
<glyph unicode="L" horiz-adv-x="1341" d="M205 0v1434h184v-1270h860v-164h-1044z" />
<glyph unicode="M" horiz-adv-x="1908" d="M205 0v1434h164l585 -945l586 945h164v-1434h-184v1087l-516 -821h-99l-516 821v-1087h-184z" />
<glyph unicode="N" horiz-adv-x="1617" d="M205 0v1434h164l860 -1123v1123h184v-1434h-164l-860 1122v-1122h-184z" />
<glyph unicode="O" horiz-adv-x="1740" d="M143 717q0 200 98 370t265.5 268.5t363.5 98.5t363.5 -98.5t265.5 -268.5t98 -370t-98 -370t-265.5 -268.5t-363.5 -98.5t-363.5 98.5t-265.5 268.5t-98 370zM328 717q0 -158 70.5 -289.5t195 -208t276.5 -76.5q114 0 215 45t173 122t113.5 183t41.5 224q0 158 -70.5 289 t-195.5 207.5t-277 76.5t-276.5 -76.5t-195 -207.5t-70.5 -289z" />
<glyph unicode="P" horiz-adv-x="1316" d="M205 0v1434h532q130 0 242.5 -60.5t179 -166t66.5 -230.5q0 -124 -66.5 -228t-178.5 -162.5t-243 -58.5h-348v-528h-184zM389 692h348q136 0 219.5 77.5t83.5 207.5q0 131 -84 212t-219 81h-348v-578z" />
<glyph unicode="Q" horiz-adv-x="1738" d="M143 717q0 200 98 370t265.5 268.5t363.5 98.5t363.5 -98.5t265.5 -268.5t98 -370q0 -136 -46.5 -261t-131.5 -223l205 -202l-119 -121l-209 209q-191 -139 -426 -139q-196 0 -363.5 98.5t-265.5 268.5t-98 370zM328 717q0 -158 70.5 -289.5t195 -208t276.5 -76.5 q169 0 306 97l-220 219l119 119l221 -222q117 155 117 361q0 158 -70.5 289t-195.5 207.5t-277 76.5t-276.5 -76.5t-195 -207.5t-70.5 -289z" />
<glyph unicode="R" horiz-adv-x="1470" d="M205 0v1434h614q130 0 242.5 -60.5t179 -166t66.5 -230.5q0 -151 -95.5 -267.5t-244.5 -160.5l411 -549h-215l-397 528h-377v-528h-184zM389 692h430q135 0 219 78t84 207q0 130 -84.5 211.5t-218.5 81.5h-430v-578z" />
<glyph unicode="S" horiz-adv-x="1280" d="M102 231l111 129q48 -44 87.5 -75t101 -70.5t130.5 -60.5t140 -21q147 0 229 66t82 200q0 107 -87 177t-241 92q-98 14 -180.5 44t-149 77.5t-104 117.5t-37.5 156q0 110 64.5 201t169.5 140.5t227 49.5q147 0 270.5 -48.5t206.5 -131.5l-102 -115q-67 66 -164.5 103.5 t-189.5 37.5q-149 0 -228.5 -66t-79.5 -161q0 -191 318 -246q81 -14 149.5 -36t131 -57.5t106 -81.5t69 -110.5t25.5 -142.5q0 -198 -128 -308.5t-357 -110.5q-94 0 -180.5 21.5t-158 61.5t-123.5 78.5t-108 89.5z" />
<glyph unicode="T" horiz-adv-x="1413" d="M102 1270v164h1209v-164h-512v-1270h-185v1270h-512z" />
<glyph unicode="U" horiz-adv-x="1556" d="M184 573v861h174v-861q0 -184 120.5 -312t299.5 -128t299.5 128t120.5 312v861h174v-861q0 -169 -80.5 -306t-216 -212t-297.5 -75t-297.5 75t-216 212t-80.5 306z" />
<glyph unicode="V" horiz-adv-x="1597" d="M82 1434h194l523 -1186l522 1186h195l-635 -1434h-164z" />
<glyph unicode="W" horiz-adv-x="2181" d="M92 1434h184l369 -1153l359 1153h174l358 -1153l369 1153h184l-471 -1434h-164l-364 1161l-363 -1161h-164z" />
<glyph unicode="X" horiz-adv-x="1536" d="M92 0l567 743l-526 691h215l420 -549l420 549h215l-526 -691l567 -743h-215l-461 602l-461 -602h-215z" />
<glyph unicode="Y" horiz-adv-x="1392" d="M61 1434h205l430 -684l430 684h205l-543 -861v-573h-184v573z" />
<glyph unicode="Z" horiz-adv-x="1392" d="M133 0v143l864 1127h-823v164h1045v-144l-865 -1126h906v-164h-1127z" />
<glyph unicode="[" horiz-adv-x="604" d="M92 -410v1905h471v-156h-307v-1593h307v-156h-471z" />
<glyph unicode="\" horiz-adv-x="880" d="M-41 1597h143l820 -1761h-144z" />
<glyph unicode="]" horiz-adv-x="604" d="M41 -254h307v1593h-307v156h471v-1905h-471v156z" />
<glyph unicode="^" horiz-adv-x="1044" d="M41 881l410 614h143l410 -614h-144l-338 508l-338 -508h-143z" />
<glyph unicode="_" d="M-4 -164h1237v-164h-1237v164z" />
<glyph unicode="`" horiz-adv-x="655" d="M143 1495h205l164 -287h-123z" />
<glyph unicode="a" horiz-adv-x="1187" d="M88 328q0 67 21.5 118.5t63.5 85t92 55.5t119 33t131 15t140 4h205v37q0 132 -57.5 194t-212.5 62q-106 0 -177.5 -30.5t-154.5 -98.5l-94 119q97 83 194.5 123t243.5 40q213 0 322.5 -110t109.5 -299v-676h-174v137q-118 -157 -368 -157q-79 0 -149.5 20.5t-128.5 61.5 t-92 109.5t-34 156.5zM262 317q0 -92 68.5 -138t222.5 -46q130 0 218.5 60t88.5 176v139h-143q-85 0 -140.5 -2t-112 -8.5t-90 -19.5t-61.5 -34t-39.5 -52.5t-11.5 -74.5z" />
<glyph unicode="b" horiz-adv-x="1341" d="M174 0v1495h174v-635q56 107 151.5 166t227.5 59q98 0 189.5 -41t160.5 -112.5t110.5 -176t41.5 -223.5t-41.5 -223t-110.5 -175.5t-160.5 -112.5t-189.5 -41q-132 0 -227.5 59t-151.5 166v-205h-174zM348 532q0 -179 103 -289t256 -110q152 0 250 109.5t98 289.5 t-98 290t-250 110q-153 0 -256 -110.5t-103 -289.5z" />
<glyph unicode="c" horiz-adv-x="1173" d="M113 532q0 112 44 214.5t118 176.5t176.5 118t214.5 44q132 0 241.5 -55t182.5 -153l-107 -109q-125 164 -317 164q-163 0 -271 -115.5t-108 -284.5t108 -284t271 -115q192 0 317 164l109 -109q-73 -99 -183.5 -153.5t-242.5 -54.5q-150 0 -277.5 74t-201.5 201t-74 277z " />
<glyph unicode="d" horiz-adv-x="1341" d="M113 532q0 119 41.5 223.5t110 176t160 112.5t189.5 41q132 0 227.5 -59t151.5 -166v635h174v-1495h-174v205q-56 -107 -151.5 -166t-227.5 -59q-98 0 -189.5 41t-160 112.5t-110 175.5t-41.5 223zM287 532q0 -180 98 -289.5t250 -109.5q153 0 255.5 110t102.5 289 t-102.5 289.5t-255.5 110.5q-152 0 -250 -110t-98 -290z" />
<glyph unicode="e" horiz-adv-x="1259" d="M113 532q0 159 71 286.5t190 197t261 69.5t261 -69.5t190 -197t71 -286.5v-61h-866q17 -157 115 -247.5t249 -90.5q97 0 186.5 46t147.5 122l113 -113q-71 -97 -191.5 -152.5t-255.5 -55.5q-152 0 -275.5 69.5t-195 196t-71.5 286.5zM291 608h688q-19 152 -109 238 t-235 86t-235 -86t-109 -238z" />
<glyph unicode="f" horiz-adv-x="768" d="M92 911v154h144v143q0 126 84.5 217t216.5 91q179 0 272 -107l-82 -125q-71 78 -178 78q-139 0 -139 -154v-143h303v-154h-303v-911h-174v911h-144z" />
<glyph unicode="g" horiz-adv-x="1341" d="M113 532q0 119 41.5 223.5t110 176t160 112.5t189.5 41q132 0 227.5 -59t151.5 -166v205h174v-1024q0 -104 -42 -196.5t-111.5 -156.5t-161.5 -101.5t-190 -37.5q-376 0 -545 230l114 115q145 -191 431 -191q126 0 228.5 96.5t102.5 241.5v164q-56 -107 -151.5 -166 t-227.5 -59q-98 0 -189.5 41t-160 112.5t-110 175.5t-41.5 223zM287 532q0 -180 98 -289.5t250 -109.5q153 0 255.5 110t102.5 289t-102.5 289.5t-255.5 110.5q-152 0 -250 -110t-98 -290z" />
<glyph unicode="h" horiz-adv-x="1300" d="M174 0v1495h174v-621q56 100 149.5 155.5t219.5 55.5q193 0 306.5 -133.5t113.5 -337.5v-614h-174v614q0 150 -64.5 234t-222.5 84q-153 0 -240.5 -95.5t-87.5 -263.5v-573h-174z" />
<glyph unicode="i" horiz-adv-x="522" d="M141 1397q0 49 34.5 84t84.5 35t84.5 -35t34.5 -84t-34.5 -84t-84.5 -35t-84.5 35t-34.5 84zM174 0v1065h174v-1065h-174z" />
<glyph unicode="j" horiz-adv-x="522" d="M-209 -324l82 125q69 -77 180 -77q56 0 92.5 45t36.5 108v1188h174v-1188q0 -127 -79 -217t-211 -90q-90 0 -162.5 27t-112.5 79zM150 1397q0 50 34.5 84.5t83.5 34.5q50 0 84.5 -35t34.5 -84t-34.5 -84t-84.5 -35q-49 0 -83.5 34.5t-34.5 84.5z" />
<glyph unicode="k" horiz-adv-x="1259" d="M174 0v1495h174v-1053l602 623h217l-456 -469l497 -596h-200l-410 481l-250 -256v-225h-174z" />
<glyph unicode="l" horiz-adv-x="542" d="M184 0v1495h174v-1495h-174z" />
<glyph unicode="m" horiz-adv-x="1843" d="M174 0v1065h174v-166q99 186 307 186q129 0 212 -66t120 -185q43 118 127.5 184.5t206.5 66.5q182 0 275.5 -131t93.5 -340v-614h-174v614q0 75 -10 130t-34.5 102t-72.5 71.5t-119 24.5q-126 0 -194 -99t-68 -270v-573h-172v614q0 60 -5.5 105.5t-20.5 89t-40 71.5 t-67 45t-99 17q-126 0 -196 -99t-70 -270v-573h-174z" />
<glyph unicode="n" horiz-adv-x="1300" d="M174 0v1065h174v-191q56 100 149.5 155.5t219.5 55.5q193 0 306.5 -133.5t113.5 -337.5v-614h-174v614q0 73 -13.5 128t-45 99.5t-89 67.5t-139.5 23q-152 0 -240 -95.5t-88 -263.5v-573h-174z" />
<glyph unicode="o" horiz-adv-x="1331" d="M113 532q0 112 44 214.5t118 176.5t176.5 118t214.5 44t214.5 -44t176.5 -118t118 -176.5t44 -214.5q0 -150 -74 -277t-201.5 -201t-277.5 -74t-277.5 74t-201.5 201t-74 277zM287 532q0 -169 108 -284t271 -115t270.5 115t107.5 284t-107.5 284.5t-270.5 115.5 t-271 -115.5t-108 -284.5z" />
<glyph unicode="p" horiz-adv-x="1341" d="M174 -410v1475h174v-205q56 107 151.5 166t227.5 59q98 0 189.5 -41t160.5 -112.5t110.5 -176t41.5 -223.5t-41.5 -223t-110.5 -175.5t-160.5 -112.5t-189.5 -41q-132 0 -227.5 59t-151.5 166v-615h-174zM348 532q0 -179 103 -289t256 -110q152 0 250 109.5t98 289.5 t-98 290t-250 110q-153 0 -256 -110.5t-103 -289.5z" />
<glyph unicode="q" horiz-adv-x="1341" d="M113 532q0 119 41.5 223.5t110 176t160 112.5t189.5 41q132 0 227.5 -59t151.5 -166v205h174v-1475h-174v615q-56 -107 -151.5 -166t-227.5 -59q-98 0 -189.5 41t-160 112.5t-110 175.5t-41.5 223zM287 532q0 -180 98 -289.5t250 -109.5q153 0 255.5 110t102.5 289 t-102.5 289.5t-255.5 110.5q-152 0 -250 -110t-98 -290z" />
<glyph unicode="r" horiz-adv-x="839" d="M174 0v1065h174v-217q129 217 430 217v-154h-41q-189 0 -289 -94t-100 -264v-553h-174z" />
<glyph unicode="s" horiz-adv-x="1064" d="M92 213l119 111q41 -45 73.5 -74t76.5 -58.5t94 -44t108 -14.5q236 0 236 174q0 77 -60.5 115t-226.5 61q-369 54 -369 312q0 120 107.5 205t271.5 85q156 0 250 -42.5t166 -124.5l-107 -119q-35 35 -53 50.5t-56.5 39t-87 33.5t-112.5 10q-110 0 -157.5 -39.5 t-47.5 -97.5q0 -65 55.5 -103.5t200.5 -62.5q79 -13 134.5 -27t109 -38.5t85.5 -57.5t51.5 -83t19.5 -116q0 -63 -24.5 -120t-73 -104t-129 -75t-183.5 -28q-157 0 -267.5 60t-203.5 173z" />
<glyph unicode="t" horiz-adv-x="860" d="M82 911v154h143v313h174v-313h359v-154h-359v-624q0 -66 36 -110t106 -44q110 0 180 78l82 -125q-99 -106 -275 -106q-133 0 -218 90.5t-85 216.5v624h-143z" />
<glyph unicode="u" horiz-adv-x="1300" d="M164 451v614h174v-614q0 -73 13.5 -128t45 -99.5t89 -67.5t139.5 -23q151 0 239 95.5t88 263.5v573h174v-1065h-174v190q-56 -100 -149 -155t-219 -55q-193 0 -306.5 133.5t-113.5 337.5z" />
<glyph unicode="v" horiz-adv-x="1208" d="M72 1065h174l358 -858l359 858h174l-451 -1065h-164z" />
<glyph unicode="w" horiz-adv-x="1628" d="M82 1065h174l221 -813l271 813h133l270 -813l221 813h174l-307 -1065h-154l-270 823l-272 -823h-154z" />
<glyph unicode="x" horiz-adv-x="1259" d="M82 0l446 559l-405 506h205l303 -379l301 379h205l-404 -506l445 -559h-205l-342 430l-344 -430h-205z" />
<glyph unicode="y" horiz-adv-x="1185" d="M72 -307l82 125q84 -94 180 -94q55 0 98 43t68 110l47 129l-467 1059h184l367 -838l309 838h174l-389 -1053v-2h-2l-49 -133q-24 -68 -51 -118.5t-66 -95.5t-92 -69t-119 -24q-85 0 -158 34t-116 89z" />
<glyph unicode="z" horiz-adv-x="1167" d="M113 0v133l698 778h-657v154h880v-133l-698 -778h719v-154h-942z" />
<glyph unicode="{" horiz-adv-x="714" d="M92 461v164q65 0 108 12t64 34.5t29 47.5t8 59v410q0 130 93.5 218.5t267.5 88.5l12 -154q-112 0 -160.5 -42t-48.5 -111v-410q0 -171 -164 -235q164 -64 164 -236v-409q0 -69 48.5 -111.5t160.5 -42.5l-12 -154q-174 0 -267.5 89t-93.5 219v409q0 69 -48.5 111.5 t-160.5 42.5z" />
<glyph unicode="|" horiz-adv-x="614" d="M236 -164v1761h143v-1761h-143z" />
<glyph unicode="}" horiz-adv-x="714" d="M92 -256q112 0 160.5 42.5t48.5 111.5v409q0 172 164 236q-164 64 -164 235v410q0 69 -48.5 111t-160.5 42l12 154q174 0 267.5 -88.5t93.5 -218.5v-410q0 -69 48.5 -111t160.5 -42v-164q-65 0 -108 -12t-64 -35t-29 -48t-8 -59v-409q0 -130 -93.5 -219t-267.5 -89z" />
<glyph unicode="~" horiz-adv-x="962" d="M92 397q7 114 67.5 177t143.5 63q44 0 95 -20.5t88.5 -45t80 -45t72.5 -20.5q64 0 86.5 35.5t22.5 101.5l122 -41q-7 -126 -64 -183t-142 -57q-43 0 -91.5 20.5t-84.5 45.5t-76.5 45.5t-69.5 20.5q-62 0 -84 -36t-22 -102z" />
<glyph unicode="&#xa1;" horiz-adv-x="389" d="M61 952q0 55 39 94t95 39q55 0 94 -38.5t39 -94.5t-39 -94.5t-94 -38.5q-56 0 -95 39t-39 94zM94 61l56 492h90l55 -492v-491h-201v491z" />
<glyph unicode="&#xa2;" d="M133 532q0 107 40 205.5t108 172t163 120t201 53.5v146h82v-146q119 -9 217.5 -62.5t165.5 -143.5l-102 -105q-108 143 -281 158v-795q173 15 281 158l104 -105q-66 -91 -166 -145t-219 -61v-146h-82v146q-142 10 -259.5 85.5t-185 198.5t-67.5 266zM297 532 q0 -156 99 -269t249 -128v795q-149 -15 -248.5 -128t-99.5 -270z" />
<glyph unicode="&#xa3;" d="M92 625v153h180q-36 148 -36 307q0 155 106 262t270 107q123 0 224.5 -56t160.5 -149l-86 -121q-49 71 -122.5 121.5t-163.5 50.5q-111 0 -168.5 -59.5t-57.5 -155.5q0 -120 39 -307h264v-153h-235q10 -78 11.5 -149t-24 -151.5t-79.5 -158.5q57 22 153 22q44 0 90 -17 t78.5 -38t70 -38t67.5 -17q67 0 109.5 28.5t74.5 88.5l119 -52q-59 -209 -289 -209q-57 0 -116.5 20.5t-100 45.5t-84 45.5t-72.5 20.5q-65 0 -105.5 -28.5t-72.5 -88.5l-139 49q74 119 115.5 211t53.5 166t8 127.5t-22 122.5h-221z" />
<glyph unicode="&#xa4;" d="M76 211l178 178q-82 116 -82 256t82 256l-178 178l104 105l178 -178q114 81 256 81t256 -81l179 178l104 -105l-178 -178q82 -116 82 -256t-82 -256l178 -178l-104 -105l-179 179q-116 -82 -256 -82t-256 82l-178 -179zM303 645q0 -134 89.5 -226.5t221.5 -92.5t222 92.5 t90 226.5t-90 227t-222 93q-131 0 -221 -93t-90 -227z" />
<glyph unicode="&#xa5;" d="M61 225v99h478v213h-478v98h443l-443 799h181l376 -684l379 684h179l-443 -799h434v-98h-467v-213h467v-99h-467v-225h-161v225h-478z" />
<glyph unicode="&#xa6;" horiz-adv-x="614" d="M236 -164v737h143v-737h-143zM236 942v655h143v-655h-143z" />
<glyph unicode="&#xa7;" horiz-adv-x="1064" d="M92 213l113 104q81 -88 164.5 -136t193.5 -48q115 0 180.5 39.5t65.5 114.5q0 62 -65.5 97t-231.5 58q-54 7 -107 28t-101 53t-78 78t-39 98.5t18.5 119.5t91.5 137q-113 76 -113 218q0 119 107 199.5t272 80.5q105 0 188.5 -26t130 -58.5t97.5 -83.5l-100 -112 q-72 63 -140 94.5t-176 31.5q-112 0 -163.5 -35.5t-51.5 -90.5q0 -73 52.5 -100.5t213.5 -53.5q62 -10 119.5 -30t110.5 -50t84 -72.5t40.5 -93t-18.5 -117t-94 -139.5q58 -31 87.5 -85t29.5 -146q0 -131 -104 -219t-306 -88q-157 0 -267.5 60t-203.5 173zM337 795.5 q-11 -51.5 2.5 -85t49.5 -59t80 -39.5t104 -24q136 -20 185 -33q46 67 58.5 119t-1 85t-54.5 56.5t-89.5 36t-118.5 22.5q-87 12 -164 37q-41 -64 -52 -115.5z" />
<glyph unicode="&#xa8;" horiz-adv-x="1024" d="M154 1321q0 55 39 94t94 39t94 -39t39 -94t-39 -94t-94 -39t-94 39t-39 94zM604 1321q0 55 39 94t94 39t94 -39t39 -94t-39 -94t-94 -39t-94 39t-39 94z" />
<glyph unicode="&#xa9;" horiz-adv-x="1740" d="M143 717q0 200 98 370t265.5 268.5t363.5 98.5t363.5 -98.5t265.5 -268.5t98 -370t-98 -370t-265.5 -268.5t-363.5 -98.5t-363.5 98.5t-265.5 268.5t-98 370zM231 717q0 -133 51 -254t137 -209t204 -140.5t247 -52.5t247 52.5t204 140.5t137 209t51 254t-51 254t-137 209 t-204 140t-247 52t-247 -52t-204 -140t-137 -209t-51 -254zM524 717q0 154 106 261t257 107q80 0 151 -33.5t121 -93.5l-57 -57q-89 103 -215 103q-116 0 -194.5 -83t-78.5 -204t78.5 -204t194.5 -83q126 0 215 102l57 -57q-50 -60 -121 -93.5t-151 -33.5q-151 0 -257 107.5 t-106 261.5z" />
<glyph unicode="&#xaa;" horiz-adv-x="1095" d="M164 887q0 60 25 103.5t63 68t97.5 39t114 18.5t126.5 4h153v27q0 99 -42.5 145.5t-159.5 46.5q-80 0 -133 -22.5t-117 -73.5l-70 88q73 63 145.5 93t182.5 30q160 0 242.5 -83t82.5 -224v-506h-131v102q-83 -116 -276 -116q-80 0 -146.5 26t-111.5 86.5t-45 147.5z M184 408v116h682v-116h-682zM295 879q0 -70 51 -104t166 -34q97 0 164 45t67 132v104h-108q-64 0 -105.5 -1.5t-84 -6.5t-67 -14.5t-45.5 -25t-29.5 -39t-8.5 -56.5z" />
<glyph unicode="&#xab;" horiz-adv-x="1212" d="M61 655v154l578 410v-154l-469 -332l469 -334v-153zM573 655v154l578 410v-154l-469 -332l469 -334v-153z" />
<glyph unicode="&#xac;" horiz-adv-x="1105" d="M133 737v154h696h144v-328h-144v174h-696z" />
<glyph unicode="&#xad;" horiz-adv-x="962" d="M133 532v154h696v-154h-696z" />
<glyph unicode="&#xae;" horiz-adv-x="1740" d="M143 717q0 200 98 370t265.5 268.5t363.5 98.5t363.5 -98.5t265.5 -268.5t98 -370t-98 -370t-265.5 -268.5t-363.5 -98.5t-363.5 98.5t-265.5 268.5t-98 370zM231 717q0 -133 51 -254t137 -209t204 -140.5t247 -52.5t247 52.5t204 140.5t137 209t51 254t-51 254t-137 209 t-204 140t-247 52t-247 -52t-204 -140t-137 -209t-51 -254zM618 358v717h308q99 0 171 -66.5t72 -160.5q0 -75 -47.5 -134t-122.5 -81l205 -275h-106l-199 265h-188v-265h-93zM711 705h215q68 0 109.5 39.5t41.5 103.5q0 65 -42 105t-109 40h-215v-288z" />
<glyph unicode="&#xaf;" horiz-adv-x="614" d="M-4 1475v163h622v-163h-622z" />
<glyph unicode="&#xb0;" horiz-adv-x="819" d="M205 1393q0 85 60 144.5t145 59.5t144.5 -59.5t59.5 -144.5t-59.5 -145t-144.5 -60t-145 60t-60 145zM266 1393q0 -60 42 -102t102 -42t101.5 42t41.5 102t-41.5 101.5t-101.5 41.5t-102 -41.5t-42 -101.5z" />
<glyph unicode="&#xb1;" horiz-adv-x="1044" d="M61 143v154h922v-154h-922zM61 729v135h379v342h164v-342h379v-135h-379v-342h-164v342h-379z" />
<glyph unicode="&#xb2;" horiz-adv-x="614" d="M51 729v66l260 241q75 68 105 117t30 104q0 49 -37.5 85t-101.5 36q-114 0 -180 -153l-76 39q34 85 101 137.5t155 52.5q96 0 160.5 -59t64.5 -138q0 -80 -36 -136.5t-123 -135.5l-199 -180h389v-76h-512z" />
<glyph unicode="&#xb3;" horiz-adv-x="614" d="M51 827l55 56q29 -41 87.5 -65.5t113.5 -24.5q69 0 118.5 36.5t49.5 100.5q0 135 -219 135v78q96 0 143 31t47 86q0 54 -35.5 85t-103.5 31q-59 0 -98 -22t-74 -64l-57 53q43 52 96 81.5t133 29.5q101 0 163 -53t62 -131q0 -118 -122 -162q153 -31 153 -178 q0 -102 -75 -157.5t-181 -55.5q-169 0 -256 110z" />
<glyph unicode="&#xb4;" horiz-adv-x="655" d="M143 1208l164 287h205l-246 -287h-123z" />
<glyph unicode="&#xb5;" horiz-adv-x="1300" d="M164 -406v1471h174v-614q0 -73 13.5 -128t45 -99.5t89 -67.5t139.5 -23q151 0 239 95.5t88 263.5v573h174v-1065h-174v190q-56 -100 -149 -155t-219 -55q-150 0 -256 83v-469h-164z" />
<glyph unicode="&#xb6;" d="M154 983q0 95 41.5 181t107 144t145.5 92t156 34h471v-1434h-164v1343h-143v-1343h-164v532q-76 0 -156 34t-145.5 92t-107 144t-41.5 181z" />
<glyph unicode="&#xb7;" horiz-adv-x="389" d="M102 625q0 55 39 94t95 39t94.5 -39t38.5 -94t-38.5 -94t-94.5 -39t-95 39t-39 94z" />
<glyph unicode="&#xb8;" horiz-adv-x="655" d="M111 -317l41 61q3 -1 17.5 -7t27 -11t33.5 -9t42 -4q113 0 113 84q0 87 -213 264h82q4 -3 30.5 -21t33.5 -23t31 -22.5t32.5 -25t28 -24.5t27 -28t20.5 -28t18 -31t9.5 -32t4.5 -35q0 -168 -182 -168q-54 0 -107.5 17.5t-88.5 42.5z" />
<glyph unicode="&#xb9;" d="M377 1300l184 134h82v-717h-92v608l-137 -96z" />
<glyph unicode="&#xba;" horiz-adv-x="1095" d="M127 1044q0 172 122 293t294 121t293.5 -121t121.5 -293t-121.5 -292.5t-293.5 -120.5t-294 121t-122 292zM147 408v116h791v-116h-791zM258 1044q0 -127 81.5 -213t203.5 -86t203 86t81 213t-81 213t-203 86t-203.5 -86t-81.5 -213z" />
<glyph unicode="&#xbb;" horiz-adv-x="1212" d="M61 246v153l469 334l-469 332v154l578 -410v-154zM573 246v153l469 334l-469 332v154l578 -410v-154z" />
<glyph unicode="&#xbf;" horiz-adv-x="1136" d="M113 -74q0 141 59.5 226.5t185.5 146.5q54 25 80 41t51 44.5t34 68t9 100.5h164q7 -50 7.5 -91.5t-5.5 -73t-15 -55.5t-25.5 -43t-31.5 -32.5t-38.5 -26t-42 -21t-46 -20.5t-46.5 -22q-166 -82 -166 -242q0 -96 69 -159.5t197 -63.5q228 0 360 236l142 -89 q-68 -139 -194.5 -220t-307.5 -81q-199 0 -319.5 109.5t-120.5 267.5zM471 952q0 56 38.5 94.5t94.5 38.5t94.5 -38.5t38.5 -94.5t-38.5 -94.5t-94.5 -38.5t-94.5 38.5t-38.5 94.5z" />
<glyph unicode="&#xc0;" horiz-adv-x="1638" d="M82 0l655 1434h164l655 -1434h-184l-170 379h-766l-170 -379h-184zM506 532h627l-314 699zM508 1864h205l164 -287h-123z" />
<glyph unicode="&#xc1;" horiz-adv-x="1638" d="M82 0l655 1434h164l655 -1434h-184l-170 379h-766l-170 -379h-184zM506 532h627l-314 699zM754 1577l164 287h204l-245 -287h-123z" />
<glyph unicode="&#xc2;" horiz-adv-x="1638" d="M82 0l655 1434h164l655 -1434h-184l-170 379h-766l-170 -379h-184zM506 532h627l-314 699zM537 1577l204 205h144l205 -205h-144l-131 133l-135 -133h-143z" />
<glyph unicode="&#xc3;" horiz-adv-x="1638" d="M82 0l655 1434h164l655 -1434h-184l-170 379h-766l-170 -379h-184zM426 1618q7 114 67.5 177t143.5 63q44 0 94.5 -20.5t88 -45.5t79.5 -45.5t72 -20.5q64 0 87 36.5t23 101.5l123 -41q-7 -126 -65.5 -183t-143.5 -57q-43 0 -91 20.5t-83 45t-75.5 45t-69.5 20.5 q-62 0 -84.5 -36t-22.5 -101zM506 532h627l-314 699z" />
<glyph unicode="&#xc4;" horiz-adv-x="1638" d="M82 0l655 1434h164l655 -1434h-184l-170 379h-766l-170 -379h-184zM455 1710q0 55 39.5 94t95.5 39q55 0 93 -38.5t38 -94.5t-38 -94.5t-93 -38.5q-56 0 -95.5 39t-39.5 94zM506 532h627l-314 699zM905 1710q0 55 39.5 94t95.5 39q55 0 93 -38.5t38 -94.5t-38 -94.5 t-93 -38.5q-56 0 -95.5 39t-39.5 94z" />
<glyph unicode="&#xc5;" horiz-adv-x="1638" d="M82 0l631 1380q-47 27 -75 73.5t-28 102.5q0 85 60 145t145 60t145 -60t60 -145q0 -53 -26 -98.5t-70 -73.5l632 -1384h-184l-170 379h-766l-170 -379h-184zM506 532h627l-314 699zM713 1556q0 -44 29 -73t73 -29t73.5 29t29.5 73t-29.5 73.5t-73.5 29.5t-73 -29.5 t-29 -73.5z" />
<glyph unicode="&#xc6;" horiz-adv-x="2232" d="M82 0l819 1434h1229v-164h-860v-455h758v-164h-758v-487h860v-164h-1045v379h-614l-215 -379h-174zM557 532h528v738h-112z" />
<glyph unicode="&#xc7;" horiz-adv-x="1499" d="M143 717q0 200 98 370t265.5 268.5t363.5 98.5q160 0 302.5 -67t244.5 -185l-119 -119q-85 97 -194.5 152t-233.5 55q-152 0 -276.5 -76.5t-195 -207.5t-70.5 -289t70.5 -289.5t195 -208t276.5 -76.5q124 0 233.5 55t194.5 152l119 -119q-92 -106 -218.5 -171.5 t-268.5 -77.5q4 -3 13 -9q49 -34 74.5 -53.5t61 -53.5t52 -69t16.5 -73q0 -168 -182 -168q-54 0 -108.5 17t-88.5 42l41 61q3 -1 17.5 -7t27 -10.5t34 -8.5t42.5 -4q112 0 112 84t-196 250q-192 6 -353.5 106t-255.5 267.5t-94 363.5z" />
<glyph unicode="&#xc8;" horiz-adv-x="1372" d="M205 0v1434h1044v-164h-860v-455h758v-164h-758v-487h860v-164h-1044zM420 1864h205l163 -287h-122z" />
<glyph unicode="&#xc9;" horiz-adv-x="1372" d="M205 0v1434h1044v-164h-860v-455h758v-164h-758v-487h860v-164h-1044zM666 1577l163 287h205l-246 -287h-122z" />
<glyph unicode="&#xca;" horiz-adv-x="1372" d="M205 0v1434h1044v-164h-860v-455h758v-164h-758v-487h860v-164h-1044zM451 1577l204 205h144l205 -205h-144l-133 133l-133 -133h-143z" />
<glyph unicode="&#xcb;" horiz-adv-x="1372" d="M205 0v1434h1044v-164h-860v-455h758v-164h-758v-487h860v-164h-1044zM369 1710q0 56 38.5 94.5t94.5 38.5t94.5 -38.5t38.5 -94.5t-38.5 -94.5t-94.5 -38.5t-94.5 38.5t-38.5 94.5zM819 1710q0 56 38.5 94.5t94.5 38.5t94.5 -38.5t38.5 -94.5t-38.5 -94.5t-94.5 -38.5 t-94.5 38.5t-38.5 94.5z" />
<glyph unicode="&#xcc;" horiz-adv-x="614" d="M-4 1864h205l164 -287h-123zM215 0v1434h184v-1434h-184z" />
<glyph unicode="&#xcd;" horiz-adv-x="614" d="M215 0v1434h184v-1434h-184zM242 1577l164 287h204l-245 -287h-123z" />
<glyph unicode="&#xce;" horiz-adv-x="614" d="M25 1577l204 205h144l205 -205h-144l-131 133l-135 -133h-143zM215 0v1434h184v-1434h-184z" />
<glyph unicode="&#xcf;" horiz-adv-x="614" d="M-57 1710q0 55 39.5 94t95.5 39q55 0 93 -38.5t38 -94.5t-38 -94.5t-93 -38.5q-56 0 -95.5 39t-39.5 94zM215 0v1434h184v-1434h-184zM393 1710q0 55 39.5 94t95.5 39q55 0 93 -38.5t38 -94.5t-38 -94.5t-93 -38.5q-56 0 -95.5 39t-39.5 94z" />
<glyph unicode="&#xd1;" horiz-adv-x="1617" d="M205 0v1434h164l860 -1123v1123h184v-1434h-164l-860 1122v-1122h-184zM410 1618q7 114 67.5 177t143.5 63q44 0 95 -20.5t88.5 -45.5t79.5 -45.5t72 -20.5q63 0 86 36t23 102l123 -41q-7 -126 -64.5 -183t-142.5 -57q-43 0 -91.5 20.5t-84 45t-76.5 45t-70 20.5 q-62 0 -84 -35.5t-22 -101.5z" />
<glyph unicode="&#xd2;" horiz-adv-x="1740" d="M143 717q0 200 98 370t265.5 268.5t363.5 98.5t363.5 -98.5t265.5 -268.5t98 -370t-98 -370t-265.5 -268.5t-363.5 -98.5t-363.5 98.5t-265.5 268.5t-98 370zM328 717q0 -158 70.5 -289.5t195 -208t276.5 -76.5q114 0 215 45t173 122t113.5 183t41.5 224q0 158 -70.5 289 t-195.5 207.5t-277 76.5t-276.5 -76.5t-195 -207.5t-70.5 -289zM563 1864h205l164 -287h-123z" />
<glyph unicode="&#xd3;" horiz-adv-x="1740" d="M143 717q0 200 98 370t265.5 268.5t363.5 98.5t363.5 -98.5t265.5 -268.5t98 -370t-98 -370t-265.5 -268.5t-363.5 -98.5t-363.5 98.5t-265.5 268.5t-98 370zM328 717q0 -158 70.5 -289.5t195 -208t276.5 -76.5q114 0 215 45t173 122t113.5 183t41.5 224q0 158 -70.5 289 t-195.5 207.5t-277 76.5t-276.5 -76.5t-195 -207.5t-70.5 -289zM809 1577l164 287h205l-246 -287h-123z" />
<glyph unicode="&#xd4;" horiz-adv-x="1740" d="M143 717q0 200 98 370t265.5 268.5t363.5 98.5t363.5 -98.5t265.5 -268.5t98 -370t-98 -370t-265.5 -268.5t-363.5 -98.5t-363.5 98.5t-265.5 268.5t-98 370zM328 717q0 -158 70.5 -289.5t195 -208t276.5 -76.5q114 0 215 45t173 122t113.5 183t41.5 224q0 158 -70.5 289 t-195.5 207.5t-277 76.5t-276.5 -76.5t-195 -207.5t-70.5 -289zM594 1577l205 205h143l205 -205h-143l-134 133l-133 -133h-143z" />
<glyph unicode="&#xd5;" horiz-adv-x="1740" d="M143 717q0 200 98 370t265.5 268.5t363.5 98.5t363.5 -98.5t265.5 -268.5t98 -370t-98 -370t-265.5 -268.5t-363.5 -98.5t-363.5 98.5t-265.5 268.5t-98 370zM328 717q0 -158 70.5 -289.5t195 -208t276.5 -76.5q114 0 215 45t173 122t113.5 183t41.5 224q0 158 -70.5 289 t-195.5 207.5t-277 76.5t-276.5 -76.5t-195 -207.5t-70.5 -289zM481 1618q7 114 67.5 177t143.5 63q44 0 95 -20.5t88.5 -45.5t80 -45.5t72.5 -20.5q63 0 86 36t23 102l123 -41q-7 -126 -64.5 -183t-142.5 -57q-43 0 -91.5 20.5t-84 45t-76.5 45t-70 20.5q-62 0 -84 -35.5 t-22 -101.5z" />
<glyph unicode="&#xd6;" horiz-adv-x="1740" d="M143 717q0 200 98 370t265.5 268.5t363.5 98.5t363.5 -98.5t265.5 -268.5t98 -370t-98 -370t-265.5 -268.5t-363.5 -98.5t-363.5 98.5t-265.5 268.5t-98 370zM328 717q0 -158 70.5 -289.5t195 -208t276.5 -76.5q114 0 215 45t173 122t113.5 183t41.5 224q0 158 -70.5 289 t-195.5 207.5t-277 76.5t-276.5 -76.5t-195 -207.5t-70.5 -289zM512 1710q0 56 39 94.5t94 38.5t94 -38.5t39 -94.5t-39 -94.5t-94 -38.5t-94 38.5t-39 94.5zM963 1710q0 56 38.5 94.5t94.5 38.5t94.5 -38.5t38.5 -94.5t-38.5 -94.5t-94.5 -38.5t-94.5 38.5t-38.5 94.5z" />
<glyph unicode="&#xd9;" horiz-adv-x="1556" d="M184 573v861h174v-861q0 -184 120.5 -312t299.5 -128t299.5 128t120.5 312v861h174v-861q0 -169 -80.5 -306t-216 -212t-297.5 -75t-297.5 75t-216 212t-80.5 306zM471 1864h205l164 -287h-123z" />
<glyph unicode="&#xda;" horiz-adv-x="1556" d="M184 573v861h174v-861q0 -184 120.5 -312t299.5 -128t299.5 128t120.5 312v861h174v-861q0 -169 -80.5 -306t-216 -212t-297.5 -75t-297.5 75t-216 212t-80.5 306zM717 1577l164 287h204l-245 -287h-123z" />
<glyph unicode="&#xdb;" horiz-adv-x="1556" d="M184 573v861h174v-861q0 -184 120.5 -312t299.5 -128t299.5 128t120.5 312v861h174v-861q0 -169 -80.5 -306t-216 -212t-297.5 -75t-297.5 75t-216 212t-80.5 306zM502 1577l205 205h143l205 -205h-144l-133 133l-133 -133h-143z" />
<glyph unicode="&#xdc;" horiz-adv-x="1556" d="M184 573v861h174v-861q0 -184 120.5 -312t299.5 -128t299.5 128t120.5 312v861h174v-861q0 -169 -80.5 -306t-216 -212t-297.5 -75t-297.5 75t-216 212t-80.5 306zM420 1710q0 56 39 94.5t94 38.5t94 -38.5t39 -94.5t-39 -94.5t-94 -38.5t-94 38.5t-39 94.5zM870 1710 q0 55 39 94t95 39t94.5 -38.5t38.5 -94.5t-38.5 -94.5t-94.5 -38.5t-95 39t-39 94z" />
<glyph unicode="&#xdd;" horiz-adv-x="1392" d="M61 1434h205l430 -684l430 684h205l-543 -861v-573h-184v573zM631 1577l164 287h204l-245 -287h-123z" />
<glyph unicode="&#xe0;" horiz-adv-x="1187" d="M88 328q0 67 21.5 118.5t63.5 85t92 55.5t119 33t131 15t140 4h205v37q0 132 -57.5 194t-212.5 62q-106 0 -177.5 -30.5t-154.5 -98.5l-94 119q97 83 194.5 123t243.5 40q213 0 322.5 -110t109.5 -299v-676h-174v137q-118 -157 -368 -157q-79 0 -149.5 20.5t-128.5 61.5 t-92 109.5t-34 156.5zM262 317q0 -92 68.5 -138t222.5 -46q130 0 218.5 60t88.5 176v139h-143q-85 0 -140.5 -2t-112 -8.5t-90 -19.5t-61.5 -34t-39.5 -52.5t-11.5 -74.5zM295 1495h205l164 -287h-123z" />
<glyph unicode="&#xe1;" horiz-adv-x="1187" d="M88 328q0 67 21.5 118.5t63.5 85t92 55.5t119 33t131 15t140 4h205v37q0 132 -57.5 194t-212.5 62q-106 0 -177.5 -30.5t-154.5 -98.5l-94 119q97 83 194.5 123t243.5 40q213 0 322.5 -110t109.5 -299v-676h-174v137q-118 -157 -368 -157q-79 0 -149.5 20.5t-128.5 61.5 t-92 109.5t-34 156.5zM262 317q0 -92 68.5 -138t222.5 -46q130 0 218.5 60t88.5 176v139h-143q-85 0 -140.5 -2t-112 -8.5t-90 -19.5t-61.5 -34t-39.5 -52.5t-11.5 -74.5zM541 1208l164 287h204l-245 -287h-123z" />
<glyph unicode="&#xe2;" horiz-adv-x="1187" d="M88 328q0 67 21.5 118.5t63.5 85t92 55.5t119 33t131 15t140 4h205v37q0 132 -57.5 194t-212.5 62q-106 0 -177.5 -30.5t-154.5 -98.5l-94 119q97 83 194.5 123t243.5 40q213 0 322.5 -110t109.5 -299v-676h-174v137q-118 -157 -368 -157q-79 0 -149.5 20.5t-128.5 61.5 t-92 109.5t-34 156.5zM262 317q0 -92 68.5 -138t222.5 -46q130 0 218.5 60t88.5 176v139h-143q-85 0 -140.5 -2t-112 -8.5t-90 -19.5t-61.5 -34t-39.5 -52.5t-11.5 -74.5zM326 1208l204 205h144l205 -205h-144l-133 133l-133 -133h-143z" />
<glyph unicode="&#xe3;" horiz-adv-x="1187" d="M88 328q0 67 21.5 118.5t63.5 85t92 55.5t119 33t131 15t140 4h205v37q0 132 -57.5 194t-212.5 62q-106 0 -177.5 -30.5t-154.5 -98.5l-94 119q97 83 194.5 123t243.5 40q213 0 322.5 -110t109.5 -299v-676h-174v137q-118 -157 -368 -157q-79 0 -149.5 20.5t-128.5 61.5 t-92 109.5t-34 156.5zM213 1249q7 114 67.5 177t143.5 63q44 0 95 -20.5t88.5 -45t80 -45t72.5 -20.5q63 0 85.5 35.5t22.5 101.5l123 -41q-7 -126 -64.5 -183t-142.5 -57q-54 0 -115.5 33t-115.5 66t-90 33q-62 0 -84.5 -36t-22.5 -102zM262 317q0 -92 68.5 -138t222.5 -46 q130 0 218.5 60t88.5 176v139h-143q-85 0 -140.5 -2t-112 -8.5t-90 -19.5t-61.5 -34t-39.5 -52.5t-11.5 -74.5z" />
<glyph unicode="&#xe4;" horiz-adv-x="1187" d="M88 328q0 67 21.5 118.5t63.5 85t92 55.5t119 33t131 15t140 4h205v37q0 132 -57.5 194t-212.5 62q-106 0 -177.5 -30.5t-154.5 -98.5l-94 119q97 83 194.5 123t243.5 40q213 0 322.5 -110t109.5 -299v-676h-174v137q-118 -157 -368 -157q-79 0 -149.5 20.5t-128.5 61.5 t-92 109.5t-34 156.5zM244 1341q0 56 39 95t94 39t94 -39t39 -95q0 -55 -39 -94t-94 -39t-94 39t-39 94zM262 317q0 -92 68.5 -138t222.5 -46q130 0 218.5 60t88.5 176v139h-143q-85 0 -140.5 -2t-112 -8.5t-90 -19.5t-61.5 -34t-39.5 -52.5t-11.5 -74.5zM694 1341 q0 56 39 95t94 39t94.5 -39.5t39.5 -94.5t-39 -94t-95 -39q-55 0 -94 39t-39 94z" />
<glyph unicode="&#xe5;" horiz-adv-x="1187" d="M88 328q0 67 21.5 118.5t63.5 85t92 55.5t119 33t131 15t140 4h205v37q0 132 -57.5 194t-212.5 62q-106 0 -177.5 -30.5t-154.5 -98.5l-94 119q97 83 194.5 123t243.5 40q213 0 322.5 -110t109.5 -299v-676h-174v137q-118 -157 -368 -157q-79 0 -149.5 20.5t-128.5 61.5 t-92 109.5t-34 156.5zM262 317q0 -92 68.5 -138t222.5 -46q130 0 218.5 60t88.5 176v139h-143q-85 0 -140.5 -2t-112 -8.5t-90 -19.5t-61.5 -34t-39.5 -52.5t-11.5 -74.5zM397 1413q0 85 60 145t145 60t145 -60t60 -145t-60 -145t-145 -60t-145 60t-60 145zM500 1413 q0 -44 29 -73t73 -29t73.5 29t29.5 73t-29.5 73.5t-73.5 29.5t-73 -29.5t-29 -73.5z" />
<glyph unicode="&#xe7;" horiz-adv-x="1173" d="M113 532q0 112 44 214.5t118 176.5t176.5 118t214.5 44q132 0 241.5 -55t182.5 -153l-107 -109q-125 164 -317 164q-163 0 -271 -115.5t-108 -284.5t108 -284t271 -115q192 0 317 164l109 -109q-65 -89 -160 -142.5t-209 -63.5q35 -24 44.5 -30.5t41.5 -30t43.5 -35 t33.5 -34.5t31 -40t17 -40.5t8 -47.5q0 -168 -182 -168q-54 0 -108.5 17t-88.5 42l41 61q3 -1 17.5 -7t27 -10.5t34 -8.5t42.5 -4q113 0 113 84q0 83 -197 250q-145 6 -266.5 81t-191.5 200t-70 271z" />
<glyph unicode="&#xe8;" horiz-adv-x="1259" d="M113 532q0 159 71 286.5t190 197t261 69.5t261 -69.5t190 -197t71 -286.5v-61h-866q17 -157 115 -247.5t249 -90.5q97 0 186.5 46t147.5 122l113 -113q-71 -97 -191.5 -152.5t-255.5 -55.5q-152 0 -275.5 69.5t-195 196t-71.5 286.5zM291 608h688q-19 152 -109 238 t-235 86t-235 -86t-109 -238zM317 1495h205l164 -287h-123z" />
<glyph unicode="&#xe9;" horiz-adv-x="1259" d="M113 532q0 159 71 286.5t190 197t261 69.5t261 -69.5t190 -197t71 -286.5v-61h-866q17 -157 115 -247.5t249 -90.5q97 0 186.5 46t147.5 122l113 -113q-71 -97 -191.5 -152.5t-255.5 -55.5q-152 0 -275.5 69.5t-195 196t-71.5 286.5zM291 608h688q-19 152 -109 238 t-235 86t-235 -86t-109 -238zM563 1208l164 287h205l-246 -287h-123z" />
<glyph unicode="&#xea;" horiz-adv-x="1259" d="M113 532q0 159 71 286.5t190 197t261 69.5t261 -69.5t190 -197t71 -286.5v-61h-866q17 -157 115 -247.5t249 -90.5q97 0 186.5 46t147.5 122l113 -113q-71 -97 -191.5 -152.5t-255.5 -55.5q-152 0 -275.5 69.5t-195 196t-71.5 286.5zM291 608h688q-19 152 -109 238 t-235 86t-235 -86t-109 -238zM348 1208l205 205h143l205 -205h-143l-133 133l-133 -133h-144z" />
<glyph unicode="&#xeb;" horiz-adv-x="1259" d="M113 532q0 159 71 286.5t190 197t261 69.5t261 -69.5t190 -197t71 -286.5v-61h-866q17 -157 115 -247.5t249 -90.5q97 0 186.5 46t147.5 122l113 -113q-71 -97 -191.5 -152.5t-255.5 -55.5q-152 0 -275.5 69.5t-195 196t-71.5 286.5zM266 1341q0 56 39 95t94 39t94 -39 t39 -95q0 -55 -39 -94t-94 -39t-94 39t-39 94zM291 608h688q-19 152 -109 238t-235 86t-235 -86t-109 -238zM717 1341q0 56 39 95t94 39t94 -39t39 -95q0 -55 -38.5 -94t-94.5 -39t-94.5 39t-38.5 94z" />
<glyph unicode="&#xec;" horiz-adv-x="512" d="M-51 1495h205l163 -287h-122zM174 0v1065h164v-1065h-164z" />
<glyph unicode="&#xed;" horiz-adv-x="512" d="M174 0v1065h164v-1065h-164zM195 1208l163 287h205l-246 -287h-122z" />
<glyph unicode="&#xee;" horiz-adv-x="512" d="M-20 1208l204 205h144l204 -205h-143l-133 133l-133 -133h-143zM174 0v1065h164v-1065h-164z" />
<glyph unicode="&#xef;" horiz-adv-x="512" d="M-102 1341q0 56 39 95t94 39t94 -39t39 -95q0 -55 -39 -94t-94 -39t-94 39t-39 94zM174 0v1065h164v-1065h-164zM348 1341q0 56 39 95t94 39t94 -39t39 -95q0 -55 -39 -94t-94 -39t-94 39t-39 94z" />
<glyph unicode="&#xf1;" horiz-adv-x="1300" d="M174 0v1065h174v-191q56 100 149.5 155.5t219.5 55.5q193 0 306.5 -133.5t113.5 -337.5v-614h-174v614q0 73 -13.5 128t-45 99.5t-89 67.5t-139.5 23q-152 0 -240 -95.5t-88 -263.5v-573h-174zM262 1249q7 114 67.5 177t143.5 63q44 0 94.5 -20.5t88 -45t79.5 -45 t72 -20.5q64 0 87.5 36t23.5 101l122 -41q-7 -126 -65.5 -183t-143.5 -57q-54 0 -115 33t-114.5 66t-89.5 33q-62 0 -84 -36t-22 -102z" />
<glyph unicode="&#xf2;" horiz-adv-x="1331" d="M113 532q0 112 44 214.5t118 176.5t176.5 118t214.5 44t214.5 -44t176.5 -118t118 -176.5t44 -214.5q0 -150 -74 -277t-201.5 -201t-277.5 -74t-277.5 74t-201.5 201t-74 277zM287 532q0 -169 108 -284t271 -115t270.5 115t107.5 284t-107.5 284.5t-270.5 115.5 t-271 -115.5t-108 -284.5zM358 1495h205l164 -287h-123z" />
<glyph unicode="&#xf3;" horiz-adv-x="1331" d="M113 532q0 112 44 214.5t118 176.5t176.5 118t214.5 44t214.5 -44t176.5 -118t118 -176.5t44 -214.5q0 -150 -74 -277t-201.5 -201t-277.5 -74t-277.5 74t-201.5 201t-74 277zM287 532q0 -169 108 -284t271 -115t270.5 115t107.5 284t-107.5 284.5t-270.5 115.5 t-271 -115.5t-108 -284.5zM604 1208l164 287h205l-246 -287h-123z" />
<glyph unicode="&#xf4;" horiz-adv-x="1331" d="M113 532q0 112 44 214.5t118 176.5t176.5 118t214.5 44t214.5 -44t176.5 -118t118 -176.5t44 -214.5q0 -150 -74 -277t-201.5 -201t-277.5 -74t-277.5 74t-201.5 201t-74 277zM287 532q0 -169 108 -284t271 -115t270.5 115t107.5 284t-107.5 284.5t-270.5 115.5 t-271 -115.5t-108 -284.5zM389 1208l205 205h143l205 -205h-143l-133 133l-134 -133h-143z" />
<glyph unicode="&#xf5;" horiz-adv-x="1331" d="M113 532q0 112 44 214.5t118 176.5t176.5 118t214.5 44t214.5 -44t176.5 -118t118 -176.5t44 -214.5q0 -150 -74 -277t-201.5 -201t-277.5 -74t-277.5 74t-201.5 201t-74 277zM276 1249q7 114 67.5 177t143.5 63q44 0 95 -20.5t88.5 -45t80 -45t72.5 -20.5 q64 0 86.5 35.5t22.5 101.5l123 -41q-7 -126 -64.5 -183t-142.5 -57q-43 0 -91.5 20.5t-84.5 45.5t-76.5 45.5t-69.5 20.5q-62 0 -84 -36t-22 -102zM287 532q0 -169 108 -284t271 -115t270.5 115t107.5 284t-107.5 284.5t-270.5 115.5t-271 -115.5t-108 -284.5z" />
<glyph unicode="&#xf6;" horiz-adv-x="1331" d="M113 532q0 112 44 214.5t118 176.5t176.5 118t214.5 44t214.5 -44t176.5 -118t118 -176.5t44 -214.5q0 -150 -74 -277t-201.5 -201t-277.5 -74t-277.5 74t-201.5 201t-74 277zM287 532q0 -169 108 -284t271 -115t270.5 115t107.5 284t-107.5 284.5t-270.5 115.5 t-271 -115.5t-108 -284.5zM307 1341q0 56 39 95t94 39t94 -39t39 -95q0 -55 -38.5 -94t-94.5 -39t-94.5 39t-38.5 94zM758 1341q0 56 39 95t94 39t94 -39t39 -95q0 -55 -39 -94t-94 -39t-94 39t-39 94z" />
<glyph unicode="&#xf9;" horiz-adv-x="1300" d="M164 451v614h174v-614q0 -73 13.5 -128t45 -99.5t89 -67.5t139.5 -23q151 0 239 95.5t88 263.5v573h174v-1065h-174v190q-56 -100 -149 -155t-219 -55q-193 0 -306.5 133.5t-113.5 337.5zM332 1495h205l163 -287h-122z" />
<glyph unicode="&#xfa;" horiz-adv-x="1300" d="M164 451v614h174v-614q0 -73 13.5 -128t45 -99.5t89 -67.5t139.5 -23q151 0 239 95.5t88 263.5v573h174v-1065h-174v190q-56 -100 -149 -155t-219 -55q-193 0 -306.5 133.5t-113.5 337.5zM578 1208l163 287h205l-246 -287h-122z" />
<glyph unicode="&#xfb;" horiz-adv-x="1300" d="M164 451v614h174v-614q0 -73 13.5 -128t45 -99.5t89 -67.5t139.5 -23q151 0 239 95.5t88 263.5v573h174v-1065h-174v190q-56 -100 -149 -155t-219 -55q-193 0 -306.5 133.5t-113.5 337.5zM365 1208l204 205h144l205 -205h-144l-135 133l-131 -133h-143z" />
<glyph unicode="&#xfc;" horiz-adv-x="1300" d="M164 451v614h174v-614q0 -73 13.5 -128t45 -99.5t89 -67.5t139.5 -23q151 0 239 95.5t88 263.5v573h174v-1065h-174v190q-56 -100 -149 -155t-219 -55q-193 0 -306.5 133.5t-113.5 337.5zM283 1341q0 56 38 95t93 39q56 0 95.5 -39.5t39.5 -94.5t-39.5 -94t-95.5 -39 q-55 0 -93 38.5t-38 94.5zM733 1341q0 56 38 95t93 39q56 0 95.5 -39.5t39.5 -94.5t-39.5 -94t-95.5 -39q-55 0 -93 38.5t-38 94.5z" />
<glyph unicode="&#xfd;" horiz-adv-x="1185" d="M72 -307l82 125q84 -94 180 -94q55 0 98 43t68 110l47 129l-467 1059h184l367 -838l309 838h174l-389 -1053v-2h-2l-49 -133q-24 -68 -51 -118.5t-66 -95.5t-92 -69t-119 -24q-85 0 -158 34t-116 89zM530 1208l164 287h205l-246 -287h-123z" />
<glyph unicode="&#xff;" horiz-adv-x="1185" d="M72 -307l82 125q84 -94 180 -94q55 0 98 43t68 110l47 129l-467 1059h184l367 -838l309 838h174l-389 -1053v-2h-2l-49 -133q-24 -68 -51 -118.5t-66 -95.5t-92 -69t-119 -24q-85 0 -158 34t-116 89zM233 1341q0 55 39.5 94.5t94.5 39.5t94 -39t39 -95q0 -55 -39 -94 t-94 -39q-56 0 -95 39t-39 94zM684 1341q0 56 39 95t94 39t94 -39t39 -95q0 -55 -39 -94t-94 -39t-94 39t-39 94z" />
<glyph unicode="&#x178;" horiz-adv-x="1392" d="M61 1434h205l430 -684l430 684h205l-543 -861v-573h-184v573zM332 1710q0 55 39.5 94t95.5 39q55 0 93 -38.5t38 -94.5t-38 -94.5t-93 -38.5q-56 0 -95.5 39t-39.5 94zM782 1710q0 55 40 94t96 39q55 0 93 -38.5t38 -94.5t-38 -94.5t-93 -38.5q-56 0 -96 39t-40 94z" />
<glyph unicode="&#x2c6;" horiz-adv-x="1024" d="M236 1290l204 205h144l204 -205h-143l-133 133l-133 -133h-143z" />
<glyph unicode="&#x2dc;" horiz-adv-x="1024" d="M123 1270q7 114 67.5 176.5t143.5 62.5q44 0 95 -20.5t88.5 -45t80 -45t72.5 -20.5q63 0 85.5 36t22.5 102l123 -41q-7 -126 -64.5 -183t-142.5 -57q-43 0 -91.5 20.5t-84 45t-76 45t-69.5 20.5q-62 0 -84.5 -36t-22.5 -101z" />
<glyph unicode="&#x2000;" horiz-adv-x="932" />
<glyph unicode="&#x2001;" horiz-adv-x="1864" />
<glyph unicode="&#x2002;" horiz-adv-x="932" />
<glyph unicode="&#x2003;" horiz-adv-x="1864" />
<glyph unicode="&#x2004;" horiz-adv-x="621" />
<glyph unicode="&#x2005;" horiz-adv-x="466" />
<glyph unicode="&#x2006;" horiz-adv-x="310" />
<glyph unicode="&#x2007;" horiz-adv-x="310" />
<glyph unicode="&#x2008;" horiz-adv-x="233" />
<glyph unicode="&#x2009;" horiz-adv-x="372" />
<glyph unicode="&#x200a;" horiz-adv-x="103" />
<glyph unicode="&#x2010;" horiz-adv-x="880" d="M133 532v154h615v-154h-615z" />
<glyph unicode="&#x2011;" horiz-adv-x="880" d="M133 532v154h615v-154h-615z" />
<glyph unicode="&#x2012;" horiz-adv-x="880" d="M133 532v154h615v-154h-615z" />
<glyph unicode="&#x2013;" horiz-adv-x="1289" d="M133 532v154h1024v-154h-1024z" />
<glyph unicode="&#x2014;" horiz-adv-x="2313" d="M133 532v154h2048v-154h-2048z" />
<glyph unicode="&#x2018;" horiz-adv-x="438" d="M20 1116q0 48 27 92l186 287h103l-123 -256q34 -13 58 -47.5t24 -75.5q0 -56 -39.5 -94.5t-97.5 -38.5t-98 38.5t-40 94.5z" />
<glyph unicode="&#x2019;" horiz-adv-x="438" d="M102 1004l123 256q-34 13 -58 47t-24 75q0 56 40 95t98 39t97.5 -39t39.5 -95q0 -48 -27 -92l-186 -286h-103z" />
<glyph unicode="&#x201c;" horiz-adv-x="786" d="M20 1116q0 48 27 92l186 287h103l-123 -256q34 -13 58 -47.5t24 -75.5q0 -56 -39.5 -94.5t-97.5 -38.5t-98 38.5t-40 94.5zM369 1116q0 50 26 92l187 287h102l-123 -256q34 -13 58 -47.5t24 -75.5q0 -56 -39.5 -94.5t-97.5 -38.5t-97.5 38.5t-39.5 94.5z" />
<glyph unicode="&#x201d;" horiz-adv-x="786" d="M102 1004l123 256q-34 13 -58 47t-24 75q0 56 40 95t98 39t97.5 -39t39.5 -95q0 -48 -27 -92l-186 -286h-103zM451 1004l122 256q-34 12 -57.5 46.5t-23.5 75.5q0 56 39.5 95t97.5 39t97.5 -39t39.5 -95q0 -48 -27 -92l-186 -286h-102z" />
<glyph unicode="&#x202f;" horiz-adv-x="372" />
<glyph unicode="&#x205f;" horiz-adv-x="466" />
<glyph unicode="&#x25fc;" horiz-adv-x="1064" d="M0 0v1065h1065v-1065h-1065z" />
<glyph unicode="&#xfb01;" horiz-adv-x="768" d="M92 911v154h144v143q0 125 86 216.5t219 91.5q127 0 196 -64v-160q-84 70 -184 70q-143 0 -143 -154v-143h303v-154h-303v-911h-174v911h-144z" />
</font>
</defs>
</svg>
