<?xml version="1.0" standalone="no"?>
<!DOCTYPE svg PUBLIC "-//W3C//DTD SVG 1.1//EN" "http://www.w3.org/Graphics/SVG/1.1/DTD/svg11.dtd" >
<svg xmlns="http://www.w3.org/2000/svg">
<metadata></metadata>
<defs>
<font id="jones-mediummedium" horiz-adv-x="1228" >
<font-face units-per-em="2048" ascent="1638" descent="-410" />
<missing-glyph horiz-adv-x="768" />
<glyph horiz-adv-x="0" />
<glyph horiz-adv-x="682" />
<glyph unicode=" "  horiz-adv-x="768" />
<glyph unicode="&#x09;" horiz-adv-x="768" />
<glyph unicode="&#xa0;" horiz-adv-x="768" />
<glyph unicode="!" horiz-adv-x="446" d="M82 123q0 59 41 100t100 41t100.5 -41.5t41.5 -99.5t-41.5 -99.5t-100.5 -41.5t-100 41t-41 100zM111 1063v352h223v-352l-37 -606h-150z" />
<glyph unicode="&#x22;" horiz-adv-x="778" d="M92 1415q0 51 35 86t86 35t86 -35t35 -86q0 -91 -34.5 -257.5t-37.5 -186.5h-98q-3 20 -37.5 186.5t-34.5 257.5zM440 1415q0 51 35 86t86 35t86 -35t35 -86q0 -91 -34.5 -257.5t-37.5 -186.5h-98q-3 20 -37.5 186.5t-34.5 257.5z" />
<glyph unicode="#" horiz-adv-x="1484" d="M55 354l17 176h293l43 361h-285l16 176h291l45 367h174l-45 -367h363l45 367h174l-45 -367h284l-14 -176h-293l-45 -361h287l-17 -176h-290l-45 -354h-172l43 354h-363l-45 -354h-172l43 354h-287zM537 530h364l43 361h-362z" />
<glyph unicode="$" horiz-adv-x="1345" d="M96 219l129 215q198 -173 379 -209v393q-72 22 -124 42.5t-112.5 56.5t-98.5 78.5t-63.5 106.5t-25.5 142q0 162 115 267t309 127v272h180v-270q237 -21 420 -144l-100 -213q-159 96 -320 123v-397q167 -49 232 -80q159 -76 195 -217q12 -49 12 -106 q0 -168 -120.5 -280.5t-318.5 -137.5v-275h-180v273q-142 14 -273.5 76.5t-234.5 156.5zM422 1042q0 -64 47.5 -105.5t134.5 -72.5v344q-80 -18 -131 -63.5t-51 -102.5zM784 225q88 15 139.5 59t51.5 109q0 64 -50 103t-141 69v-340z" />
<glyph unicode="%" horiz-adv-x="2033" d="M33 1010q0 182 120 302t304 120t304 -120t120 -302t-120 -302t-304 -120q-182 0 -303 120.5t-121 301.5zM203 1010q0 -110 72.5 -183t181.5 -73t181.5 73t72.5 183t-72.5 184t-181.5 74t-181.5 -74t-72.5 -184zM358 0l1055 1434h246l-1053 -1434h-248zM1153 418 q0 182 120 302t304 120t304 -120t120 -302t-120 -302t-304 -120q-182 0 -303 120.5t-121 301.5zM1323 418q0 -110 72.5 -183t181.5 -73t181.5 73t72.5 183t-72.5 184t-181.5 74t-181.5 -74t-72.5 -184z" />
<glyph unicode="&#x26;" horiz-adv-x="1357" d="M117 391q0 73 21 136t61 114t83.5 89.5t102.5 78.5q-117 158 -117 332q0 144 114.5 249t279.5 105q158 0 257 -93t99 -228q0 -57 -20.5 -110t-49 -92.5t-79.5 -83.5t-91.5 -72.5t-105.5 -70.5q35 -40 73 -78.5t107.5 -105t103.5 -100.5q74 111 129 258l175 -135 q-28 -66 -41.5 -96.5t-37.5 -74.5t-51 -81l234 -228l-141 -143l-224 219q-199 -190 -432 -190q-193 0 -321.5 114t-128.5 287zM330 406q0 -105 66 -161.5t179 -56.5q77 0 131 26t123 93q-215 215 -327 342q-47 -38 -70 -58t-51 -51.5t-39.5 -63.5t-11.5 -70zM469 1133 q0 -60 20 -114.5t72 -125.5q133 92 168 122q88 76 88 144q0 62 -47 104t-113 42q-72 0 -130 -57t-58 -115z" />
<glyph unicode="'" horiz-adv-x="425" d="M74 1102l73 172q-65 42 -65 119q0 59 41 100t100 41t100.5 -41.5t41.5 -99.5q0 -40 -23 -78l-147 -213h-121z" />
<glyph unicode="(" horiz-adv-x="653" d="M158 633q0 255 64.5 483.5t185.5 403.5h213q-115 -178 -178.5 -407t-63.5 -480t63.5 -480t178.5 -407h-213q-121 175 -185.5 403.5t-64.5 483.5z" />
<glyph unicode=")" horiz-adv-x="653" d="M33 -254q114 178 177.5 407t63.5 480t-63.5 480t-177.5 407h213q121 -175 185.5 -403.5t64.5 -483.5t-64.5 -483.5t-185.5 -403.5h-213z" />
<glyph unicode="*" horiz-adv-x="712" d="M51 1053l185 104l-185 100l64 117l182 -108l-2 211h123l-2 -211l182 106l61 -115l-184 -100l184 -104l-61 -115l-182 109l2 -211h-123l2 211l-182 -107z" />
<glyph unicode="+" horiz-adv-x="1019" d="M72 584v161h362v359h154v-359h360v-161h-360v-359h-154v359h-362z" />
<glyph unicode="," horiz-adv-x="438" d="M74 -168l73 172q-65 42 -65 119q0 59 41 100t100 41t100.5 -41.5t41.5 -99.5q0 -40 -23 -78l-147 -213h-121z" />
<glyph unicode="-" horiz-adv-x="753" d="M125 543v162h504v-162h-504z" />
<glyph unicode="." horiz-adv-x="446" d="M82 123q0 59 41 100t100 41t100.5 -41.5t41.5 -99.5t-41.5 -99.5t-100.5 -41.5t-100 41t-41 100z" />
<glyph unicode="/" horiz-adv-x="677" d="M-43 -240l649 1911h201l-649 -1911h-201z" />
<glyph unicode="0" d="M68 717q0 349 142 536t406 187q263 0 404 -187t141 -536q0 -354 -135.5 -538.5t-409.5 -184.5q-276 0 -412 184.5t-136 538.5zM315 717q0 -253 78 -382.5t223 -129.5q143 0 220 129.5t77 382.5q0 266 -75.5 389t-221.5 123q-147 0 -224 -123t-77 -389z" />
<glyph unicode="1" d="M283 1055v235l602 180v-1470h-242v1153z" />
<glyph unicode="2" d="M92 1239q252 205 522 205q204 0 330.5 -99t126.5 -262q0 -188 -262 -471l-373 -395h701v-217h-1020v176l528 567q79 81 126.5 163t47.5 143q0 86 -63.5 135t-175.5 49q-93 0 -196.5 -48t-195.5 -132z" />
<glyph unicode="3" d="M111 145l102 197q76 -72 171 -110.5t194 -38.5q141 0 222 67t81 178q0 116 -79.5 176t-223.5 60h-201v141l373 402h-574v215h873v-152l-410 -442l74 -9q184 -15 294.5 -117t110.5 -268q0 -203 -143 -328.5t-381 -125.5q-131 0 -260.5 42t-222.5 113z" />
<glyph unicode="4" d="M55 352v180l592 902h318v-867h209v-215h-209v-352h-226v352h-684zM334 567h405v619z" />
<glyph unicode="5" d="M94 156l117 209q106 -70 197 -111t178 -41q141 0 216 60t75 180q0 108 -79.5 169.5t-217.5 61.5q-204 0 -377 -18v768h872l2 -217h-651v-310l197 2q231 0 371.5 -122.5t140.5 -313.5q0 -218 -145 -349.5t-386 -131.5q-126 0 -264.5 45t-245.5 119z" />
<glyph unicode="6" d="M70 688q0 344 167.5 550t450.5 206q106 0 224.5 -30t205.5 -79l-94 -182q-65 42 -150.5 66t-168.5 24q-203 0 -304.5 -139.5t-95.5 -378.5q116 203 391 203q214 0 338.5 -123.5t124.5 -333.5q0 -222 -137 -351.5t-367 -129.5q-273 0 -429 184.5t-156 513.5zM344 465 q-1 -48 17 -94.5t53.5 -85.5t95 -62.5t133.5 -23.5q132 0 211.5 72.5t79.5 201.5q0 123 -76 193.5t-207 70.5q-142 0 -225.5 -78.5t-81.5 -193.5z" />
<glyph unicode="7" d="M94 1217v217h1041v-185l-570 -1249h-258l557 1217h-770z" />
<glyph unicode="8" d="M61 397q0 136 67 231.5t200 137.5q-193 87 -193 315q0 168 129.5 265.5t349.5 97.5q222 0 352 -100t130 -271q0 -226 -183 -307q127 -42 190.5 -136.5t63.5 -228.5q0 -191 -148.5 -301t-404.5 -110q-254 0 -403.5 109.5t-149.5 297.5zM303 424q0 -108 85.5 -171 t225.5 -63t226 63t86 171q0 102 -85.5 159.5t-226.5 57.5q-140 0 -225.5 -57.5t-85.5 -159.5zM340 1059q0 -89 77.5 -139t196.5 -50q120 0 197.5 50t77.5 139t-77.5 139.5t-197.5 50.5q-118 0 -196 -51t-78 -139z" />
<glyph unicode="9" d="M70 963q0 222 136.5 351.5t366.5 129.5q273 0 428.5 -185t155.5 -514q0 -344 -166.5 -549.5t-449.5 -205.5q-107 0 -225 29.5t-205 78.5l94 183q66 -42 151.5 -66.5t167.5 -24.5q203 0 303.5 139.5t94.5 379.5q-116 -203 -390 -203q-214 0 -338 123.5t-124 333.5z M295 961q0 -123 76 -194t207 -71q142 0 225.5 79t81.5 194q1 48 -17 94.5t-53.5 85.5t-95 62.5t-133.5 23.5q-132 0 -211.5 -72.5t-79.5 -201.5z" />
<glyph unicode=":" horiz-adv-x="434" d="M82 123q0 59 41 100t100 41t100.5 -41.5t41.5 -99.5t-41.5 -99.5t-100.5 -41.5t-100 41t-41 100zM82 719q0 59 41 100t100 41t100.5 -41.5t41.5 -99.5t-41.5 -99.5t-100.5 -41.5t-100 41t-41 100z" />
<glyph unicode=";" horiz-adv-x="442" d="M74 -168l78 178q-56 38 -56 107q0 57 36 94t91 37q52 0 88.5 -36t36.5 -95q0 -56 -37 -109l-116 -176h-121zM82 719q0 59 41 100t100 41t100.5 -41.5t41.5 -99.5t-41.5 -99.5t-100.5 -41.5t-100 41t-41 100z" />
<glyph unicode="&#x3c;" horiz-adv-x="1019" d="M72 563v207l876 381v-182l-719 -301l719 -303v-183z" />
<glyph unicode="=" horiz-adv-x="1019" d="M72 369v161h876v-161h-876zM72 799v162h876v-162h-876z" />
<glyph unicode="&#x3e;" horiz-adv-x="1019" d="M72 193v182l719 301l-719 303v182l876 -381v-207z" />
<glyph unicode="?" horiz-adv-x="907" d="M25 1014q0 198 108 303.5t301 105.5q119 0 214 -53.5t145.5 -140.5t50.5 -189q0 -171 -86.5 -275.5t-222.5 -127.5l-11 -191h-190l-21 353h84q116 0 172 69t56 179q0 76 -54 126t-147 50q-98 0 -144 -51.5t-51 -157.5h-204zM287 123q0 59 41.5 100t99.5 41t99.5 -41 t41.5 -100t-41.5 -100t-99.5 -41t-99.5 41t-41.5 100z" />
<glyph unicode="@" horiz-adv-x="1994" d="M70 547q0 186 73 351.5t198.5 283.5t299.5 187t369 69t364.5 -66.5t290.5 -182.5t190.5 -280t69.5 -352q0 -230 -109 -370t-282 -140q-97 0 -159 41t-79 125l-4 41q-62 -90 -153 -136t-199 -46q-125 0 -232.5 59t-174 170t-66.5 250q0 135 55.5 246t159 177t236.5 66 q119 0 210.5 -54t112.5 -99v133h221v-715q0 -56 25 -83t69 -27q78 0 135.5 101t57.5 255q0 152 -52 284.5t-146 229t-234 152t-307 55.5q-210 0 -385.5 -96t-277 -262.5t-101.5 -366.5q0 -147 56.5 -275.5t154.5 -219.5t234.5 -143t291.5 -52q97 0 205 31t190 89l84 -149 q-89 -63 -224 -102t-255 -39q-192 0 -361.5 65.5t-290.5 179t-191 273.5t-70 342zM707 561q0 -121 72 -205t186 -84q119 0 190.5 82t71.5 205q0 118 -73.5 197.5t-192.5 79.5q-112 0 -183 -79.5t-71 -195.5z" />
<glyph unicode="A" horiz-adv-x="1695" d="M94 0l633 1434h248l627 -1434h-259l-137 322h-725l-135 -322h-252zM573 539h541l-270 637z" />
<glyph unicode="B" horiz-adv-x="1429" d="M150 0v1434h622q223 0 352 -96t129 -263q0 -121 -67.5 -206t-184.5 -113q144 -25 226 -121.5t82 -241.5q0 -184 -139.5 -288.5t-383.5 -104.5h-636zM391 215h369q142 0 221.5 54.5t79.5 154.5q0 95 -80 149t-221 54h-369v-412zM391 840h369q116 0 181 50.5t65 141.5 q0 90 -65 138.5t-181 48.5h-369v-379z" />
<glyph unicode="C" horiz-adv-x="1521" d="M113 719q0 150 58.5 284t158.5 230t239.5 151.5t296.5 55.5q151 0 295.5 -59t249.5 -162l-141 -177q-78 85 -185 134t-215 49q-215 0 -363.5 -146t-148.5 -358t148.5 -359t363.5 -147q106 0 211.5 45.5t188.5 124.5l143 -160q-110 -109 -257.5 -172t-297.5 -63 q-155 0 -293 56.5t-237 153t-157 232t-58 287.5z" />
<glyph unicode="D" horiz-adv-x="1605" d="M150 0v1434h587q159 0 297 -54t235.5 -148t153.5 -227.5t56 -287.5q0 -204 -96 -368t-267 -256.5t-385 -92.5h-581zM391 217h352q211 0 351.5 140.5t140.5 357.5q0 218 -144 360t-358 142h-342v-1000z" />
<glyph unicode="E" horiz-adv-x="1323" d="M150 0v1434h1024v-217h-783v-388h701v-217h-701v-395h807v-217h-1048z" />
<glyph unicode="F" horiz-adv-x="1222" d="M150 0v1434h962l-2 -217h-719v-414h651v-215h-651v-588h-241z" />
<glyph unicode="G" horiz-adv-x="1566" d="M113 717q0 202 101 368t277 260.5t390 94.5q152 0 298 -54t253 -147l-138 -178q-84 77 -192.5 120.5t-220.5 43.5q-144 0 -264.5 -67t-189.5 -184t-69 -257q0 -106 41 -200.5t111 -162.5t167.5 -107.5t205.5 -39.5q160 0 315 90v287h-326v202h551v-610 q-110 -84 -260.5 -135t-296.5 -51q-156 0 -296 56.5t-240 153t-158.5 231.5t-58.5 286z" />
<glyph unicode="H" horiz-adv-x="1529" d="M143 0v1434h242v-623h760v623h241v-1434h-241v594h-760v-594h-242z" />
<glyph unicode="I" horiz-adv-x="548" d="M154 0v1434h241v-1434h-241z" />
<glyph unicode="J" horiz-adv-x="1118" d="M100 197l115 184q70 -76 150.5 -117t154.5 -41q97 0 151 59t54 169v983h244v-992q0 -215 -119 -333.5t-328 -118.5q-255 0 -422 207z" />
<glyph unicode="K" horiz-adv-x="1492" d="M150 0v1434h241v-723l674 723h303l-563 -611l594 -823h-293l-465 645l-250 -272v-373h-241z" />
<glyph unicode="L" horiz-adv-x="1134" d="M150 0v1434h241v-1215h621v-219h-862z" />
<glyph unicode="M" horiz-adv-x="1820" d="M150 0v1434h286l473 -953l471 953h287v-1434h-225l-2 1071l-453 -921h-158l-452 921v-1071h-227z" />
<glyph unicode="N" horiz-adv-x="1507" d="M147 0v1434h238l727 -1031v1031h238v-1434h-238l-723 1028v-1028h-242z" />
<glyph unicode="O" horiz-adv-x="1757" d="M119 717q0 152 59 286.5t160 230t242 151t299 55.5q211 0 385 -94.5t274 -260.5t100 -368t-100 -369t-274 -262.5t-385 -95.5q-158 0 -299 56.5t-242 153t-160 231.5t-59 286zM365 717q0 -140 70 -257.5t188.5 -185t257.5 -67.5t256 67.5t185.5 185t68.5 257.5 t-68.5 256.5t-185.5 183t-256 66.5q-140 0 -258.5 -66.5t-188 -183t-69.5 -256.5z" />
<glyph unicode="P" horiz-adv-x="1370" d="M150 0v1434h591q235 0 370.5 -126.5t135.5 -332.5q0 -216 -135.5 -348.5t-370.5 -132.5h-350v-494h-241zM391 711h340q133 0 209 70.5t76 187.5q0 112 -76 180t-209 68h-340v-506z" />
<glyph unicode="Q" horiz-adv-x="1753" d="M117 717q0 152 59 286.5t160 230t242 151t299 55.5q211 0 385 -94.5t274 -260.5t100 -368q0 -137 -48 -260.5t-136 -220.5l176 -166l-160 -172l-200 190q-176 -98 -391 -98q-158 0 -299 56.5t-242 153t-160 231.5t-59 286zM362 717q0 -140 70.5 -257.5t189 -185 t257.5 -67.5q113 0 213 47l-265 250l158 172l293 -277q111 136 111 318q0 140 -68.5 256.5t-185.5 183t-256 66.5q-140 0 -258.5 -66.5t-188.5 -183t-70 -256.5z" />
<glyph unicode="R" horiz-adv-x="1421" d="M150 0v1434h632q238 0 372 -117.5t134 -321.5q0 -174 -90.5 -290t-255.5 -154l369 -551h-277l-358 535h-285v-535h-241zM391 752h381q136 0 210.5 61t74.5 176q0 110 -74.5 169t-210.5 59h-381v-465z" />
<glyph unicode="S" horiz-adv-x="1325" d="M96 219l129 215q247 -217 461 -217q126 0 197 46.5t71 129.5q0 58 -46.5 100.5t-91 59t-151.5 47.5q-8 3 -12 4q-58 17 -95.5 29t-92 34.5t-90.5 44t-76.5 56t-64 72.5t-39 90.5t-15.5 113.5q0 183 143.5 291.5t378.5 108.5q136 0 267.5 -40t234.5 -108l-100 -213 q-111 67 -222 100.5t-198 33.5q-104 0 -173 -51t-69 -124q0 -32 10 -58t34 -47.5t46 -36t64 -30.5t68.5 -25t78.5 -24q21 -6 66 -19.5t68.5 -21t65.5 -22t65 -26t57 -31t53.5 -39t42.5 -47t34.5 -57.5t19.5 -69t8 -83q0 -190 -151.5 -307t-389.5 -117q-162 0 -316 65 t-270 172z" />
<glyph unicode="T" horiz-adv-x="1357" d="M104 1217v217h1149v-217h-454v-1217h-242v1217h-453z" />
<glyph unicode="U" horiz-adv-x="1452" d="M139 594v840h242v-840q0 -184 88 -285.5t256 -101.5q167 0 252.5 100.5t85.5 286.5v840h242v-840q0 -285 -150.5 -444.5t-431.5 -159.5t-432.5 160t-151.5 444z" />
<glyph unicode="V" horiz-adv-x="1585" d="M92 1434h270l433 -1125l436 1125h262l-580 -1434h-249z" />
<glyph unicode="W" horiz-adv-x="2320" d="M92 1434h258l332 -1055l373 1018h213l358 -1018l346 1055h258l-471 -1434h-258l-344 995l-356 -995h-258z" />
<glyph unicode="X" horiz-adv-x="1525" d="M90 0l522 735l-485 699h281l350 -498l352 498h283l-482 -689l523 -745h-289l-387 541l-385 -541h-283z" />
<glyph unicode="Y" horiz-adv-x="1464" d="M82 1434h264l389 -699l381 699h266l-526 -957v-477h-240v469z" />
<glyph unicode="Z" horiz-adv-x="1456" d="M119 0v174l874 1043h-848v217h1174v-174l-873 -1043h883v-217h-1210z" />
<glyph unicode="[" horiz-adv-x="706" d="M188 -254v1774h465v-189h-254v-1397h254v-188h-465z" />
<glyph unicode="\" horiz-adv-x="1116" d="M266 1671h201l649 -1911h-201z" />
<glyph unicode="]" horiz-adv-x="968" d="M315 -66h254v1397h-254v189h465v-1774h-465v188z" />
<glyph unicode="^" horiz-adv-x="1101" d="M66 721l380 807h207l381 -807h-182l-301 661l-303 -661h-182z" />
<glyph unicode="_" horiz-adv-x="1159" d="M0 -274h1159v-144h-1159v144z" />
<glyph unicode="`" horiz-adv-x="716" d="M115 1448l241 102l217 -303h-208z" />
<glyph unicode="a" horiz-adv-x="1220" d="M113 328q0 151 108 238.5t303 88.5h330v33q0 104 -66.5 161.5t-193.5 57.5q-160 0 -322 -110l-96 164q125 74 224 105.5t245 31.5q202 0 315 -101.5t115 -281.5l2 -715h-221v133q-116 -143 -360 -143q-174 0 -278.5 95t-104.5 243zM334 338q0 -74 56.5 -118t154.5 -44 q126 0 213 58.5t96 148.5v100h-295q-117 0 -171 -34t-54 -111z" />
<glyph unicode="b" horiz-adv-x="1388" d="M150 0v1520h225v-619q124 197 381 197q232 0 376 -154t144 -403q0 -245 -142 -397t-374 -152q-262 0 -385 196v-188h-225zM375 549q0 -158 92.5 -257t239.5 -99q146 0 238.5 99.5t92.5 256.5q0 153 -92.5 252.5t-238.5 99.5t-239 -99t-93 -253z" />
<glyph unicode="c" horiz-adv-x="1236" d="M113 543q0 117 43.5 220t118.5 176.5t180 116t225 42.5q128 0 239 -48.5t189 -134.5l-143 -159q-110 125 -285 125q-145 0 -239.5 -96t-94.5 -242t94.5 -242t239.5 -96q91 0 170.5 35.5t132.5 99.5l145 -147q-78 -97 -194 -151t-254 -54q-117 0 -222 42.5t-180.5 116 t-120 176.5t-44.5 220z" />
<glyph unicode="d" horiz-adv-x="1398" d="M113 549q0 121 41 224t112.5 174.5t171 112t213.5 40.5q127 0 228.5 -58t138.5 -141v619h225v-1520h-225v186q-120 -196 -383 -196q-234 0 -378 154.5t-144 404.5zM348 541q2 -156 95 -255.5t241 -99.5q147 0 240.5 99.5t93.5 255.5q0 158 -93 258t-241 100 q-147 0 -240.5 -100.5t-95.5 -257.5z" />
<glyph unicode="e" horiz-adv-x="1271" d="M113 543q0 83 22.5 163.5t67.5 151t108 124.5t150.5 85t187.5 31t185.5 -31t145.5 -84.5t102 -125t62.5 -151t20.5 -163.5q0 -46 -6 -92h-811q23 -113 100 -179.5t201 -66.5q106 0 175 28.5t126 83.5l166 -137q-77 -90 -195 -141t-251 -51q-104 0 -195 31t-156.5 85 t-112.5 124.5t-70 151t-23 163.5zM350 627h584q-14 111 -82.5 182.5t-202.5 71.5q-117 0 -195.5 -74t-103.5 -180z" />
<glyph unicode="f" horiz-adv-x="888" d="M104 893v197h144v65q0 91 33 165t87.5 118.5t120 68t134.5 23.5q141 0 245 -76l-92 -168q-48 35 -147 35q-65 0 -106.5 -35.5t-41.5 -107.5v-88h285v-197h-285v-893h-233v893h-144z" />
<glyph unicode="g" horiz-adv-x="1351" d="M115 580q0 230 133 373.5t350 144.5h8q243 0 361 -185v177h233v-984q0 -234 -154 -371.5t-411 -137.5q-242 0 -453 143l101 170q160 -119 342 -119q155 0 248.5 84t93.5 225v138q-115 -185 -361 -185q-221 0 -356 146t-135 381zM336 573q2 -148 89.5 -241.5t227.5 -93.5 q138 0 226 93.5t88 241.5t-88 241t-226 93q-139 0 -227 -93.5t-90 -240.5z" />
<glyph unicode="h" horiz-adv-x="1296" d="M150 0v1520h235v-623q42 98 142 149.5t241 51.5q188 0 286.5 -111t98.5 -309v-678h-235v612q0 126 -61 195.5t-181 69.5q-141 -1 -216 -95t-75 -245v-537h-235z" />
<glyph unicode="i" horiz-adv-x="548" d="M133 1403q0 59 41.5 100t99.5 41q59 0 100.5 -41.5t41.5 -99.5t-41.5 -99.5t-100.5 -41.5q-58 0 -99.5 41t-41.5 100zM158 0v1090h233v-1090h-233z" />
<glyph unicode="j" horiz-adv-x="815" d="M74 -334l78 182q68 -49 139 -49q58 0 93.5 37t35.5 111v1143h233v-1121q0 -93 -30 -167t-81 -119t-112.5 -68t-128.5 -23q-128 0 -227 74zM395 1403q0 58 41.5 99.5t100.5 41.5t100 -41t41 -100t-41 -100t-100 -41t-100.5 41.5t-41.5 99.5z" />
<glyph unicode="k" horiz-adv-x="1263" d="M150 0v1520h235v-918l481 488h271l-404 -422l434 -668h-278l-320 500l-184 -195v-305h-235z" />
<glyph unicode="l" horiz-adv-x="540" d="M150 0v1520h235v-1520h-235z" />
<glyph unicode="m" horiz-adv-x="1855" d="M145 0v1090h224v-201q91 209 333 209q66 0 117 -17.5t85 -50.5t55.5 -69t39.5 -84q39 96 138.5 158.5t234.5 62.5q338 0 338 -420v-678h-235v612q0 132 -44.5 199.5t-152.5 67.5q-85 0 -139.5 -46.5t-76.5 -120t-22 -173.5v-539h-235v612q0 133 -44 200t-151 67 q-86 0 -141 -46.5t-77.5 -120t-22.5 -173.5v-539h-224z" />
<glyph unicode="n" horiz-adv-x="1241" d="M145 0v1090h226v-189q42 97 135 147t225 50q180 0 272.5 -110.5t92.5 -309.5v-678h-236v612q0 127 -54.5 196t-166.5 69q-122 0 -188.5 -81t-79.5 -216v-580h-226z" />
<glyph unicode="o" horiz-adv-x="1339" d="M113 543q0 157 71 283.5t199 199t287 72.5t287 -72.5t199 -199t71 -283.5t-71 -283.5t-199 -199t-287 -72.5q-117 0 -220.5 42.5t-177 116t-116.5 176.5t-43 220zM336 543q0 -146 94.5 -242t239.5 -96t239.5 96t94.5 242t-94.5 242t-239.5 96t-239.5 -96t-94.5 -242z" />
<glyph unicode="p" horiz-adv-x="1394" d="M145 -397v1487h236v-189q124 197 381 197q232 0 376 -154t144 -403q0 -245 -142 -397t-374 -152q-262 0 -385 196v-585h-236zM381 549q0 -158 92.5 -257t239.5 -99q146 0 238.5 99.5t92.5 256.5q0 153 -92.5 252.5t-238.5 99.5t-239 -99t-93 -253z" />
<glyph unicode="q" horiz-adv-x="1409" d="M115 549q0 246 144 398.5t374 152.5q262 0 387 -199v189h235v-1487h-235v583q-120 -196 -383 -196q-234 0 -378 154.5t-144 404.5zM350 541q2 -156 95 -255.5t241 -99.5q147 0 240.5 99.5t93.5 255.5q0 158 -93 258t-241 100q-147 0 -240.5 -100.5t-95.5 -257.5z" />
<glyph unicode="r" horiz-adv-x="921" d="M145 0v1090h236v-218q114 226 418 226v-226q-16 1 -31 1q-146 -1 -254 -79q-120 -86 -133 -225v-569h-236z" />
<glyph unicode="s" horiz-adv-x="1058" d="M100 143l84 189q73 -65 176 -110.5t189 -45.5q78 0 133 36t55 95q0 29 -16.5 52.5t-50.5 41t-66 29t-82 25.5q-58 16 -101 31t-94.5 43t-84 60.5t-54.5 82.5q-22 48 -22 107v5q1 80 33.5 142t88.5 99t124 56t145 19q103 0 200 -29t171 -82l-86 -174q-140 86 -303 86 q-160 0 -160 -106q0 -49 53.5 -86.5t140.5 -61.5q143 -40 187 -58q149 -62 184 -182q12 -42 12 -92q-1 -81 -35 -146.5t-92 -106.5t-132.5 -63t-157.5 -22q-118 0 -237 45.5t-202 120.5z" />
<glyph unicode="t" horiz-adv-x="944" d="M102 893v197h164v258h223v-258h322v-197h-322v-522q0 -84 31.5 -131t85.5 -47q68 0 164 47l59 -170q-135 -80 -268 -80q-121 0 -208 98.5t-87 259.5v545h-164z" />
<glyph unicode="u" d="M135 412v678h236v-613q0 -129 49.5 -196.5t163.5 -67.5q134 3 196 95t62 245v537h235v-1090h-235v193q-80 -198 -348 -201q-182 0 -270.5 109.5t-88.5 310.5z" />
<glyph unicode="v" horiz-adv-x="1288" d="M102 1090h246l303 -859l299 859h236l-418 -1090h-244z" />
<glyph unicode="w" horiz-adv-x="1839" d="M96 1090h238l203 -721l258 721h237l256 -717l203 717h238l-308 -1090h-217l-291 815l-290 -815h-220z" />
<glyph unicode="x" horiz-adv-x="1267" d="M96 0l385 559l-358 531h270l244 -373l248 373h258l-350 -531l374 -559h-270l-260 399l-279 -399h-262z" />
<glyph unicode="y" horiz-adv-x="1308" d="M94 1090h244l326 -826l303 826h235l-495 -1240q-102 -258 -355 -258q-140 0 -252 93l93 157q73 -53 141 -53q52 0 98.5 40.5t75.5 104.5l37 82z" />
<glyph unicode="z" horiz-adv-x="1181" d="M123 0v160l622 737h-604v193l895 -3v-157l-622 -737l641 -3v-192z" />
<glyph unicode="{" horiz-adv-x="673" d="M74 535v194h63q46 0 67 25.5t21 83.5v424q0 141 74 200.5t246 59.5h88v-189q-107 0 -151 -33.5t-44 -111.5v-336q0 -99 -32.5 -150t-110.5 -71q78 -19 110.5 -69.5t32.5 -149.5v-336q0 -78 44 -112t151 -34v-188h-88q-172 0 -246 60t-74 202v422q0 58 -21 83.5t-67 25.5 h-63z" />
<glyph unicode="|" horiz-adv-x="550" d="M186 -238v1897h179v-1897h-179z" />
<glyph unicode="}" horiz-adv-x="823" d="M264 -70q107 0 151 34t44 112v336q0 99 32.5 150t110.5 71q-78 19 -110.5 69.5t-32.5 149.5v336q0 78 -44 111.5t-151 33.5v189h88q172 0 246 -59.5t74 -200.5v-424q0 -58 21 -83.5t67 -25.5h63v-194h-63q-46 0 -67 -25.5t-21 -83.5v-422q0 -142 -74 -202t-246 -60h-88 v188z" />
<glyph unicode="~" horiz-adv-x="1019" d="M135 522q0 287 199 287q56 0 116 -29.5t110.5 -58.5t84.5 -29q80 0 80 103h162q0 -287 -199 -287q-47 0 -95 18.5t-80.5 40t-69.5 40t-64 18.5q-80 0 -80 -103h-164z" />
<glyph unicode="&#xa1;" horiz-adv-x="428" d="M111 969q0 60 36.5 98.5t92.5 38.5t92.5 -38.5t36.5 -98.5q0 -58 -36.5 -95.5t-92.5 -37.5t-92.5 37.5t-36.5 95.5zM129 27l37 604h149l37 -604v-355h-223v355z" />
<glyph unicode="&#xa2;" horiz-adv-x="1155" d="M72 543q0 223 125.5 371.5t332.5 177.5v309h179v-307q230 -24 362 -174l-129 -152q-95 98 -233 119v-686q153 18 243 125l131 -131q-130 -172 -374 -199v-287h-179v289q-207 28 -332.5 176t-125.5 369zM307 543q0 -125 60.5 -214t162.5 -120v668q-102 -31 -162.5 -120 t-60.5 -214z" />
<glyph unicode="&#xa3;" horiz-adv-x="1120" d="M76 0v197h170v413h-170v172h170v207q0 218 113.5 336.5t322.5 118.5q117 0 222 -47.5t183 -136.5l-96 -189q-132 156 -284 156q-107 0 -163.5 -62t-56.5 -182v-201h361v-172h-361v-413h574v-197h-985z" />
<glyph unicode="&#xa4;" horiz-adv-x="1456" d="M72 133l209 209q-103 144 -103 311q0 169 98 310l-204 204l133 142l211 -211q142 96 311 96q170 0 313 -94l211 209l133 -142l-204 -204q100 -140 100 -310q0 -172 -104 -311l208 -209l-133 -141l-217 215q-139 -90 -307 -90q-166 0 -305 90l-217 -215zM367 653 q0 -138 105.5 -237t254.5 -99q152 0 259.5 99t107.5 237q0 141 -107.5 241.5t-259.5 100.5q-149 0 -254.5 -100.5t-105.5 -241.5z" />
<glyph unicode="&#xa5;" horiz-adv-x="1286" d="M2 1434h244l409 -699l402 699h246l-426 -775h301v-102h-357l-43 -78v-92h400v-102h-400v-285h-241v285h-383v102h383v82l-50 88h-333v102h278z" />
<glyph unicode="&#xa6;" horiz-adv-x="550" d="M186 -238v709h179v-709h-179zM186 950v709h179v-709h-179z" />
<glyph unicode="&#xa7;" horiz-adv-x="1021" d="M43 -18l72 151q177 -139 374 -139q94 0 155 37t61 92q0 36 -21 65t-57 48.5t-82.5 36.5t-97.5 33t-102.5 34t-98 43.5t-82.5 57.5t-57 80t-21 108q0 96 66.5 164t183.5 96q-115 47 -161 100.5t-46 136.5q0 130 110 212.5t291 82.5q208 0 388 -108l-74 -152 q-166 94 -312 94q-90 0 -144 -33t-54 -87q0 -41 27 -72.5t70.5 -50.5t100 -38.5t114.5 -36t114.5 -43.5t100 -59.5t70.5 -86t27 -121.5q0 -88 -63.5 -162.5t-157.5 -102.5q95 -41 136.5 -93.5t41.5 -139.5q0 -133 -116 -218t-303 -85q-125 0 -243 40.5t-210 115.5zM291 645 q0 -71 75 -117.5t185 -46.5q96 0 147.5 36t51.5 95q0 70 -71.5 114t-182.5 44q-97 0 -151 -33.5t-54 -91.5z" />
<glyph unicode="&#xa8;" horiz-adv-x="794" d="M53 1411q0 57 35.5 94t89.5 37t88.5 -37t34.5 -94q0 -56 -34.5 -92.5t-88.5 -36.5t-89.5 36.5t-35.5 92.5zM416 1411q0 57 35.5 94t89.5 37t88.5 -37t34.5 -94q0 -56 -34.5 -92.5t-88.5 -36.5t-89.5 36.5t-35.5 92.5z" />
<glyph unicode="&#xa9;" horiz-adv-x="1525" d="M70 713q0 140 54 268.5t146 223t221 150.5t273 56q143 0 271.5 -55t220.5 -148.5t146 -221.5t54 -269q0 -140 -54.5 -268.5t-146.5 -223t-221.5 -151t-273.5 -56.5q-143 0 -271.5 55.5t-220 149.5t-145 222t-53.5 268zM186 713q0 -155 75 -286t207 -208.5t292 -77.5 q161 0 294.5 78.5t209 210.5t75.5 287t-75 286t-207.5 208t-292.5 77q-161 0 -294 -78t-208.5 -210t-75.5 -287zM406 715q0 149 106 249.5t262 100.5q73 0 144 -29t124 -80l-71 -86q-86 86 -195 86q-104 0 -176 -69.5t-72 -169.5q0 -102 72 -173t176 -71q51 0 103 22t92 60 l71 -80q-55 -53 -126.5 -84t-145.5 -31q-154 0 -259 102t-105 253z" />
<glyph unicode="&#xaa;" horiz-adv-x="788" d="M68 1126q0 89 66.5 137t189.5 50h198v28q0 58 -39 89.5t-116 31.5q-98 0 -220 -61l-41 115q156 75 300 75q133 0 206.5 -61t73.5 -170v-422h-162v102q-76 -108 -235 -108q-102 0 -161.5 53.5t-59.5 140.5zM223 1141q0 -45 33 -72t88 -27q125 0 178 101v86h-166 q-63 0 -98 -23t-35 -65z" />
<glyph unicode="&#xab;" horiz-adv-x="933" d="M47 532l238 357h196l-219 -357l219 -356h-196zM416 532l237 357h197l-219 -357l219 -356h-197z" />
<glyph unicode="&#xac;" horiz-adv-x="1150" d="M72 666v161h923v-530h-172v369h-751z" />
<glyph unicode="&#xad;" horiz-adv-x="753" d="M125 543v162h504v-162h-504z" />
<glyph unicode="&#xae;" horiz-adv-x="1525" d="M70 713q0 140 54 268.5t146 223t221 150.5t273 56q143 0 271.5 -55t220.5 -148.5t146 -221.5t54 -269q0 -140 -54.5 -268.5t-146.5 -223t-221.5 -151t-273.5 -56.5q-143 0 -271.5 55.5t-220 149.5t-145 222t-53.5 268zM186 713q0 -155 75 -286t207 -208.5t292 -77.5 q161 0 294.5 78.5t209 210.5t75.5 287t-75 286t-207.5 208t-292.5 77q-161 0 -294 -78t-208.5 -210t-75.5 -287zM500 389v692h278q135 0 208 -61.5t73 -175.5q0 -166 -146 -223l160 -232h-135l-129 209h-193v-209h-116zM616 696h162q80 0 125 38.5t45 107.5q0 68 -45 104.5 t-125 36.5h-162v-287z" />
<glyph unicode="&#xaf;" horiz-adv-x="716" d="M98 1313v170h523v-170h-523z" />
<glyph unicode="&#xb0;" horiz-adv-x="708" d="M166 1423q0 97 69.5 166.5t167.5 69.5t168 -69.5t70 -166.5t-70 -166t-168 -69q-97 0 -167 69t-70 166zM266 1423q0 -53 40 -91t97 -38t97.5 38t40.5 91t-40.5 92t-97.5 39t-97 -39t-40 -92z" />
<glyph unicode="&#xb1;" horiz-adv-x="1019" d="M72 41v164h876v-164h-876zM72 721v160h362v350h154v-350h360v-160h-360v-350h-154v350h-362z" />
<glyph unicode="&#xb2;" horiz-adv-x="784" d="M57 1317q162 123 334 123q127 0 206 -59t79 -156q0 -122 -164 -279l-221 -223h422v-135h-637v114l321 330q45 44 73 89.5t28 78.5q0 46 -35 71t-98 25q-55 0 -119 -28t-121 -78z" />
<glyph unicode="&#xb3;" horiz-adv-x="727" d="M23 674l71 135q98 -98 223 -98q79 0 124.5 37t45.5 100q0 62 -44.5 94.5t-127.5 32.5h-127v94l230 234h-355v127h551v-101l-243 -246l45 -4q108 -11 173.5 -71t65.5 -158q0 -120 -88.5 -195t-236.5 -75q-83 0 -166 26t-141 68z" />
<glyph unicode="&#xb4;" horiz-adv-x="716" d="M127 1245l217 303l242 -102l-250 -201h-209z" />
<glyph unicode="&#xb5;" horiz-adv-x="1382" d="M184 -397v1487h236v-613q0 -123 68 -193.5t186 -70.5q138 3 218.5 98.5t80.5 241.5v537h235v-1090h-235v213q-106 -218 -389 -221q-84 0 -164 26v-415h-236z" />
<glyph unicode="&#xb6;" horiz-adv-x="1259" d="M-2 1116q0 80 26 150t79 128t144.5 92t211.5 34h612v-1743h-180v1595h-268v-1595h-179v952h-63q-87 0 -156.5 26t-110.5 66t-68.5 93.5t-37.5 102.5t-10 99z" />
<glyph unicode="&#xb7;" horiz-adv-x="434" d="M94 588q0 57 35 93t88 36t88 -36t35 -93q0 -55 -35 -92t-88 -37t-88 37t-35 92z" />
<glyph unicode="&#xb8;" horiz-adv-x="716" d="M160 -401l45 110q53 -41 119 -41q42 0 68 25.5t26 58.5q0 32 -25.5 55t-73.5 23q-33 0 -71 -10l86 203h139l-59 -125q66 -12 104.5 -54t38.5 -108q0 -87 -62 -141t-155 -54q-102 0 -180 58z" />
<glyph unicode="&#xb9;" horiz-adv-x="536" d="M33 1231v162l342 82v-887h-172v684z" />
<glyph unicode="&#xba;" horiz-adv-x="833" d="M61 1262q0 147 98 237t257 90t257.5 -90t98.5 -237t-98.5 -237.5t-257.5 -90.5t-257 90.5t-98 237.5zM227 1260q0 -87 52.5 -141t136.5 -54q83 0 134.5 53.5t51.5 141.5t-51.5 141t-134.5 53q-84 0 -136.5 -53.5t-52.5 -140.5z" />
<glyph unicode="&#xbb;" horiz-adv-x="958" d="M156 178l219 357l-219 356h196l238 -356l-238 -357h-196zM524 178l219 357l-219 356h197l237 -356l-237 -357h-197z" />
<glyph unicode="&#xbc;" horiz-adv-x="1673" d="M33 1292v142h342v-846h-172v704h-170zM102 0l1055 1434h225l-1052 -1434h-228zM924 199v120l293 527h163l-284 -520h245v209h162v-209h125v-127h-125v-199h-162v199h-417z" />
<glyph unicode="&#xbd;" horiz-adv-x="1718" d="M33 1292v142h342v-846h-172v704h-170zM102 0l1055 1434h225l-1052 -1434h-228zM991 729q158 123 334 123q127 0 206 -59t79 -156q0 -122 -164 -279l-221 -221h422v-137h-637v117l321 327q101 101 101 170q0 45 -35.5 71t-98.5 26q-55 0 -118 -28.5t-121 -78.5z" />
<glyph unicode="&#xbe;" horiz-adv-x="1798" d="M23 674l71 135q98 -98 223 -98q79 0 124.5 37t45.5 100q0 62 -44.5 94.5t-127.5 32.5h-127v94l230 234h-355v127h551v-101l-243 -246l45 -4q108 -11 173.5 -71t65.5 -158q0 -120 -88.5 -195t-236.5 -75q-83 0 -166 26t-141 68zM229 0l1055 1434h225l-1052 -1434h-228z M1051 199v120l292 527h164l-284 -520h245v209h162v-209h125v-127h-125v-199h-162v199h-417z" />
<glyph unicode="&#xbf;" horiz-adv-x="907" d="M63 47q0 171 87 276t223 128l10 190h190l21 -352h-84q-116 0 -171.5 -69t-55.5 -179q0 -76 53.5 -126t146.5 -50q98 0 144 51.5t51 157.5h205q0 -198 -108.5 -304t-301.5 -106q-119 0 -214 53.5t-145.5 140.5t-50.5 189zM338 965q0 59 41 100t100 41t100.5 -41.5 t41.5 -99.5q0 -59 -41.5 -100.5t-100.5 -41.5q-58 0 -99.5 41.5t-41.5 100.5z" />
<glyph unicode="&#xc0;" horiz-adv-x="1695" d="M94 0l633 1434h248l627 -1434h-259l-137 322h-725l-135 -322h-252zM496 1763l241 103l217 -303h-209zM573 539h541l-270 637z" />
<glyph unicode="&#xc1;" horiz-adv-x="1695" d="M94 0l633 1434h248l627 -1434h-259l-137 322h-725l-135 -322h-252zM573 539h541l-270 637zM745 1563l218 303l241 -103l-250 -200h-209z" />
<glyph unicode="&#xc2;" horiz-adv-x="1695" d="M94 0l633 1434h248l627 -1434h-259l-137 322h-725l-135 -322h-252zM532 1563l209 288h217l213 -288h-192l-127 180l-127 -180h-193zM573 539h541l-270 637z" />
<glyph unicode="&#xc3;" horiz-adv-x="1695" d="M94 0l633 1434h248l627 -1434h-259l-137 322h-725l-135 -322h-252zM520 1575q0 133 48 200.5t141 67.5q38 0 76 -17.5t63 -38.5t54 -38.5t52 -17.5q78 0 78 100h148q0 -268 -185 -268q-42 0 -80 17.5t-61.5 38.5t-52 38.5t-51.5 17.5q-37 0 -57.5 -25.5t-20.5 -74.5h-152 zM573 539h541l-270 637z" />
<glyph unicode="&#xc4;" horiz-adv-x="1695" d="M94 0l633 1434h248l627 -1434h-259l-137 322h-725l-135 -322h-252zM545 1692q0 57 36.5 94t90.5 37t88.5 -37t34.5 -94q0 -56 -34.5 -92.5t-88.5 -36.5t-90.5 37t-36.5 92zM573 539h541l-270 637zM909 1692q0 57 34.5 94t88.5 37t88.5 -37t34.5 -94q0 -56 -34.5 -92.5 t-88.5 -36.5t-88.5 36.5t-34.5 92.5z" />
<glyph unicode="&#xc5;" horiz-adv-x="1511" d="M2 0l612 1384q-48 34 -76 87t-28 114q0 103 73.5 176.5t176.5 73.5q104 0 178 -73.5t74 -176.5q0 -60 -29.5 -114t-77.5 -89l604 -1382h-258l-137 324h-723l-137 -324h-252zM481 539h541l-270 637zM618 1585q0 -55 41.5 -94t100.5 -39t101 39t42 94t-42 95t-101 40 q-58 0 -100 -39.5t-42 -95.5z" />
<glyph unicode="&#xc6;" horiz-adv-x="2154" d="M2 0l832 1434h1187v-217h-782v-390h703v-215h-703v-395h807v-217h-1047v354h-544l-201 -354h-252zM561 543h438v690h-49z" />
<glyph unicode="&#xc7;" horiz-adv-x="1521" d="M113 719q0 150 58.5 284t158.5 230t239.5 151.5t296.5 55.5q151 0 295.5 -59t249.5 -162l-141 -177q-78 85 -185 134t-215 49q-215 0 -363.5 -146t-148.5 -358t148.5 -359t363.5 -147q106 0 211.5 45.5t188.5 124.5l143 -160q-100 -98 -228 -159.5t-263 -73.5l-54 -111 q66 -12 105 -54t39 -108q0 -87 -62 -140.5t-155 -53.5q-104 0 -181 57l45 111q53 -41 119 -41q42 0 68 25.5t26 58.5q0 32 -25 55t-73 23q-30 0 -72 -11l80 191q-142 13 -266 74t-212.5 156t-139.5 223.5t-51 271.5z" />
<glyph unicode="&#xc8;" horiz-adv-x="1323" d="M150 0v1434h1024v-217h-783v-388h701v-217h-701v-395h807v-217h-1048zM307 1763l242 103l217 -303h-209z" />
<glyph unicode="&#xc9;" horiz-adv-x="1323" d="M150 0v1434h1024v-217h-783v-388h701v-217h-701v-395h807v-217h-1048zM557 1563l217 303l242 -103l-250 -200h-209z" />
<glyph unicode="&#xca;" horiz-adv-x="1323" d="M150 0v1434h1024v-217h-783v-388h701v-217h-701v-395h807v-217h-1048zM342 1563l211 288h217l211 -288h-193l-126 180l-127 -180h-193z" />
<glyph unicode="&#xcb;" horiz-adv-x="1323" d="M150 0v1434h1024v-217h-783v-388h701v-217h-701v-395h807v-217h-1048zM356 1692q0 57 35.5 94t89.5 37t88.5 -37t34.5 -94q0 -56 -34.5 -92.5t-88.5 -36.5t-89.5 36.5t-35.5 92.5zM719 1692q0 57 35.5 94t89.5 37t88.5 -37t34.5 -94q0 -56 -34.5 -92.5t-88.5 -36.5 t-89.5 36.5t-35.5 92.5z" />
<glyph unicode="&#xcc;" horiz-adv-x="548" d="M-80 1763l242 103l217 -303h-209zM154 0v1434h241v-1434h-241z" />
<glyph unicode="&#xcd;" horiz-adv-x="548" d="M154 0v1434h241v-1434h-241zM170 1563l217 303l242 -103l-250 -200h-209z" />
<glyph unicode="&#xce;" horiz-adv-x="548" d="M-45 1563l211 288h217l211 -288h-193l-127 180l-127 -180h-192zM154 0v1434h241v-1434h-241z" />
<glyph unicode="&#xcf;" horiz-adv-x="548" d="M-31 1692q0 57 35.5 94t89.5 37t88.5 -37t34.5 -94q0 -56 -34.5 -92.5t-88.5 -36.5t-89.5 36.5t-35.5 92.5zM154 0v1434h241v-1434h-241zM332 1692q0 57 35.5 94t89.5 37t88.5 -37t34.5 -94q0 -56 -34.5 -92.5t-88.5 -36.5t-89.5 36.5t-35.5 92.5z" />
<glyph unicode="&#xd0;" horiz-adv-x="1628" d="M0 649v142h229v643h588q211 0 381 -92t265.5 -256t95.5 -369t-96 -368.5t-267.5 -256t-386.5 -92.5h-580v649h-229zM469 217h354q211 0 350.5 140.5t139.5 357.5q0 218 -143 360t-357 142h-344v-426h408v-142h-408v-432z" />
<glyph unicode="&#xd1;" horiz-adv-x="1507" d="M147 0v1434h238l727 -1031v1031h238v-1434h-238l-723 1028v-1028h-242zM418 1575q0 268 188 268q38 0 76 -17.5t63 -38.5t54.5 -38.5t52.5 -17.5q78 0 78 100h147q0 -268 -184 -268q-42 0 -80.5 17.5t-62 38.5t-52 38.5t-51.5 17.5q-37 0 -57.5 -25.5t-20.5 -74.5h-151z " />
<glyph unicode="&#xd2;" horiz-adv-x="1757" d="M119 717q0 152 59 286.5t160 230t242 151t299 55.5q211 0 385 -94.5t274 -260.5t100 -368t-100 -369t-274 -262.5t-385 -95.5q-158 0 -299 56.5t-242 153t-160 231.5t-59 286zM365 717q0 -140 70 -257.5t188.5 -185t257.5 -67.5t256 67.5t185.5 185t68.5 257.5 t-68.5 256.5t-185.5 183t-256 66.5q-140 0 -258.5 -66.5t-188 -183t-69.5 -256.5zM524 1763l242 103l217 -303h-209z" />
<glyph unicode="&#xd3;" horiz-adv-x="1757" d="M119 717q0 152 59 286.5t160 230t242 151t299 55.5q211 0 385 -94.5t274 -260.5t100 -368t-100 -369t-274 -262.5t-385 -95.5q-158 0 -299 56.5t-242 153t-160 231.5t-59 286zM365 717q0 -140 70 -257.5t188.5 -185t257.5 -67.5t256 67.5t185.5 185t68.5 257.5 t-68.5 256.5t-185.5 183t-256 66.5q-140 0 -258.5 -66.5t-188 -183t-69.5 -256.5zM774 1563l217 303l242 -103l-250 -200h-209z" />
<glyph unicode="&#xd4;" horiz-adv-x="1757" d="M119 717q0 152 59 286.5t160 230t242 151t299 55.5q211 0 385 -94.5t274 -260.5t100 -368t-100 -369t-274 -262.5t-385 -95.5q-158 0 -299 56.5t-242 153t-160 231.5t-59 286zM365 717q0 -140 70 -257.5t188.5 -185t257.5 -67.5t256 67.5t185.5 185t68.5 257.5 t-68.5 256.5t-185.5 183t-256 66.5q-140 0 -258.5 -66.5t-188 -183t-69.5 -256.5zM559 1563l211 288h217l211 -288h-192l-127 180l-127 -180h-193z" />
<glyph unicode="&#xd5;" horiz-adv-x="1757" d="M119 717q0 152 59 286.5t160 230t242 151t299 55.5q211 0 385 -94.5t274 -260.5t100 -368t-100 -369t-274 -262.5t-385 -95.5q-158 0 -299 56.5t-242 153t-160 231.5t-59 286zM365 717q0 -140 70 -257.5t188.5 -185t257.5 -67.5t256 67.5t185.5 185t68.5 257.5 t-68.5 256.5t-185.5 183t-256 66.5q-140 0 -258.5 -66.5t-188 -183t-69.5 -256.5zM549 1575q0 268 188 268q38 0 75.5 -17.5t62.5 -38.5t54 -38.5t52 -17.5q78 0 78 100h149q0 -268 -186 -268q-42 0 -80.5 17.5t-62 38.5t-52 38.5t-51.5 17.5q-76 0 -76 -100h-151z" />
<glyph unicode="&#xd6;" horiz-adv-x="1757" d="M119 717q0 152 59 286.5t160 230t242 151t299 55.5q211 0 385 -94.5t274 -260.5t100 -368t-100 -369t-274 -262.5t-385 -95.5q-158 0 -299 56.5t-242 153t-160 231.5t-59 286zM365 717q0 -140 70 -257.5t188.5 -185t257.5 -67.5t256 67.5t185.5 185t68.5 257.5 t-68.5 256.5t-185.5 183t-256 66.5q-140 0 -258.5 -66.5t-188 -183t-69.5 -256.5zM573 1692q0 57 35.5 94t89.5 37t88.5 -37t34.5 -94q0 -56 -34.5 -92.5t-88.5 -36.5t-89.5 36.5t-35.5 92.5zM936 1692q0 57 35.5 94t89.5 37t88.5 -37t34.5 -94q0 -56 -34.5 -92.5 t-88.5 -36.5t-89.5 36.5t-35.5 92.5z" />
<glyph unicode="&#xd7;" horiz-adv-x="1019" d="M147 412l252 254l-252 252l109 114l256 -256l254 256l108 -114l-251 -252l251 -254l-108 -115l-254 256l-256 -256z" />
<glyph unicode="&#xd8;" horiz-adv-x="1658" d="M70 717q0 203 100 369t274 260t385 94q66 0 142 -13l78 234h143l-90 -266q219 -76 353 -259.5t134 -418.5q0 -151 -59 -286t-160 -231.5t-242 -153t-299 -56.5q-100 0 -196 22l-90 -262h-142l105 305q-198 88 -317 265t-119 397zM315 717q0 -142 71.5 -259.5 t191.5 -185.5l321 947q-46 4 -68 4q-140 0 -258.5 -66.5t-188 -183t-69.5 -256.5zM702 223q66 -16 129 -16q139 0 256 67.5t185.5 185t68.5 257.5q0 157 -86.5 283t-226.5 184z" />
<glyph unicode="&#xd9;" horiz-adv-x="1452" d="M139 594v840h242v-840q0 -184 88 -285.5t256 -101.5q167 0 252.5 100.5t85.5 286.5v840h242v-840q0 -285 -150.5 -444.5t-431.5 -159.5t-432.5 160t-151.5 444zM369 1763l241 103l217 -303h-209z" />
<glyph unicode="&#xda;" horiz-adv-x="1452" d="M139 594v840h242v-840q0 -184 88 -285.5t256 -101.5q167 0 252.5 100.5t85.5 286.5v840h242v-840q0 -285 -150.5 -444.5t-431.5 -159.5t-432.5 160t-151.5 444zM618 1563l218 303l241 -103l-250 -200h-209z" />
<glyph unicode="&#xdb;" horiz-adv-x="1452" d="M139 594v840h242v-840q0 -184 88 -285.5t256 -101.5q167 0 252.5 100.5t85.5 286.5v840h242v-840q0 -285 -150.5 -444.5t-431.5 -159.5t-432.5 160t-151.5 444zM401 1563l213 288h217l209 -288h-192l-127 180l-127 -180h-193z" />
<glyph unicode="&#xdc;" horiz-adv-x="1452" d="M139 594v840h242v-840q0 -184 88 -285.5t256 -101.5q167 0 252.5 100.5t85.5 286.5v840h242v-840q0 -285 -150.5 -444.5t-431.5 -159.5t-432.5 160t-151.5 444zM418 1692q0 57 34.5 94t88.5 37t88.5 -37t34.5 -94q0 -56 -34.5 -92.5t-88.5 -36.5t-88.5 36.5t-34.5 92.5z M778 1692q0 57 36.5 94t90.5 37t88.5 -37t34.5 -94q0 -56 -34.5 -92.5t-88.5 -36.5t-90.5 37t-36.5 92z" />
<glyph unicode="&#xdd;" horiz-adv-x="1464" d="M82 1434h264l389 -699l381 699h266l-526 -957v-477h-240v469zM627 1563l217 303l241 -103l-249 -200h-209z" />
<glyph unicode="&#xde;" horiz-adv-x="1390" d="M188 0v1434h242v-203h301q291 0 448.5 -125t157.5 -354q0 -240 -157.5 -371t-448.5 -131h-301v-250h-242zM430 451h291q183 0 277 74t94 220q0 140 -94 212.5t-277 72.5h-291v-579z" />
<glyph unicode="&#xdf;" horiz-adv-x="1339" d="M160 0v999q0 243 139.5 387t382.5 144q212 0 344.5 -108t132.5 -287q0 -120 -64.5 -217t-172.5 -138q145 -29 232 -118.5t87 -231.5q0 -190 -148 -310t-391 -120h-104v182h123q131 0 211 67.5t80 174.5q0 114 -92.5 178t-249.5 64h-27v180q132 0 210.5 68.5t78.5 183.5 q0 111 -69.5 176t-184.5 65q-132 0 -208.5 -87t-76.5 -236v-1016h-233z" />
<glyph unicode="&#xe0;" horiz-adv-x="1220" d="M113 328q0 151 108 238.5t303 88.5h330v33q0 104 -66.5 161.5t-193.5 57.5q-160 0 -322 -110l-96 164q125 74 224 105.5t245 31.5q202 0 315 -101.5t115 -281.5l2 -715h-221v133q-116 -143 -360 -143q-174 0 -278.5 95t-104.5 243zM291 1421l241 103l218 -303h-209z M334 338q0 -74 56.5 -118t154.5 -44q126 0 213 58.5t96 148.5v100h-295q-117 0 -171 -34t-54 -111z" />
<glyph unicode="&#xe1;" horiz-adv-x="1220" d="M113 328q0 151 108 238.5t303 88.5h330v33q0 104 -66.5 161.5t-193.5 57.5q-160 0 -322 -110l-96 164q125 74 224 105.5t245 31.5q202 0 315 -101.5t115 -281.5l2 -715h-221v133q-116 -143 -360 -143q-174 0 -278.5 95t-104.5 243zM334 338q0 -74 56.5 -118t154.5 -44 q126 0 213 58.5t96 148.5v100h-295q-117 0 -171 -34t-54 -111zM541 1221l217 303l241 -103l-249 -200h-209z" />
<glyph unicode="&#xe2;" horiz-adv-x="1220" d="M113 328q0 151 108 238.5t303 88.5h330v33q0 104 -66.5 161.5t-193.5 57.5q-160 0 -322 -110l-96 164q125 74 224 105.5t245 31.5q202 0 315 -101.5t115 -281.5l2 -715h-221v133q-116 -143 -360 -143q-174 0 -278.5 95t-104.5 243zM326 1221l211 288h217l211 -288h-193 l-127 180l-127 -180h-192zM334 338q0 -74 56.5 -118t154.5 -44q126 0 213 58.5t96 148.5v100h-295q-117 0 -171 -34t-54 -111z" />
<glyph unicode="&#xe3;" horiz-adv-x="1220" d="M113 328q0 151 108 238.5t303 88.5h330v33q0 104 -66.5 161.5t-193.5 57.5q-160 0 -322 -110l-96 164q125 74 224 105.5t245 31.5q202 0 315 -101.5t115 -281.5l2 -715h-221v133q-116 -143 -360 -143q-174 0 -278.5 95t-104.5 243zM315 1233q0 133 48 200.5t141 67.5 q38 0 75.5 -17.5t62.5 -38.5t54 -38.5t52 -17.5q77 0 77 100h150q0 -268 -187 -268q-42 0 -80 17.5t-61.5 38.5t-52 38.5t-51.5 17.5q-76 0 -76 -100h-152zM334 338q0 -74 56.5 -118t154.5 -44q126 0 213 58.5t96 148.5v100h-295q-117 0 -171 -34t-54 -111z" />
<glyph unicode="&#xe4;" horiz-adv-x="1220" d="M113 328q0 151 108 238.5t303 88.5h330v33q0 104 -66.5 161.5t-193.5 57.5q-160 0 -322 -110l-96 164q125 74 224 105.5t245 31.5q202 0 315 -101.5t115 -281.5l2 -715h-221v133q-116 -143 -360 -143q-174 0 -278.5 95t-104.5 243zM334 338q0 -74 56.5 -118t154.5 -44 q126 0 213 58.5t96 148.5v100h-295q-117 0 -171 -34t-54 -111zM340 1350q0 57 35.5 94t89.5 37t88.5 -37t34.5 -94q0 -56 -34.5 -92.5t-88.5 -36.5t-89.5 36.5t-35.5 92.5zM702 1350q0 57 35.5 94t89.5 37t88.5 -37t34.5 -94q0 -56 -34.5 -92.5t-88.5 -36.5t-89.5 36.5 t-35.5 92.5z" />
<glyph unicode="&#xe5;" horiz-adv-x="1220" d="M113 328q0 151 108 238.5t303 88.5h330v33q0 104 -66.5 161.5t-193.5 57.5q-160 0 -322 -110l-96 164q125 74 224 105.5t245 31.5q202 0 315 -101.5t115 -281.5l2 -715h-221v133q-116 -143 -360 -143q-174 0 -278.5 95t-104.5 243zM334 338q0 -74 56.5 -118t154.5 -44 q126 0 213 58.5t96 148.5v100h-295q-117 0 -171 -34t-54 -111zM403 1458q0 97 71.5 167.5t170.5 70.5t170.5 -70.5t71.5 -167.5q0 -98 -71 -167.5t-171 -69.5t-171 69.5t-71 167.5zM506 1458q0 -54 41 -92.5t98 -38.5t98 38.5t41 92.5t-41 92.5t-98 38.5t-98 -38.5 t-41 -92.5z" />
<glyph unicode="&#xe6;" horiz-adv-x="1994" d="M84 317q0 147 109 227.5t305 82.5h331v61q0 104 -67 161.5t-195 57.5q-175 0 -360 -110l-60 170q240 131 469 131q269 0 383 -164q145 164 387 164q254 0 402 -166.5t139 -437.5h-860q19 -144 112 -228t232 -84q183 0 307 127l127 -133q-171 -184 -452 -184 q-160 0 -279.5 69t-183.5 193q-65 -131 -183.5 -197.5t-281.5 -66.5q-173 0 -277 90.5t-104 236.5zM305 338q0 -82 58.5 -132t154.5 -50q237 0 330 227l45 -39q-6 17 -14 55l-48 11v90h-288q-114 0 -176 -42t-62 -120zM1067 621h625q-5 135 -88 220t-215 85 q-129 0 -216 -84.5t-106 -220.5z" />
<glyph unicode="&#xe7;" horiz-adv-x="1236" d="M113 543q0 117 43.5 220t118.5 176.5t180 116t225 42.5q128 0 239 -48.5t189 -134.5l-143 -159q-110 125 -285 125q-145 0 -239.5 -96t-94.5 -242t94.5 -242t239.5 -96q91 0 170.5 35.5t132.5 99.5l145 -147q-68 -85 -167 -137t-218 -64l-53 -113q66 -12 105 -54t39 -108 q0 -87 -62.5 -140.5t-155.5 -53.5q-103 0 -180 57l45 111q53 -41 119 -41q42 0 68 25.5t26 58.5q0 32 -25 55t-73 23q-30 0 -72 -11l82 191q-213 27 -353 180.5t-140 370.5z" />
<glyph unicode="&#xe8;" horiz-adv-x="1271" d="M113 543q0 83 22.5 163.5t67.5 151t108 124.5t150.5 85t187.5 31t185.5 -31t145.5 -84.5t102 -125t62.5 -151t20.5 -163.5q0 -46 -6 -92h-811q23 -113 100 -179.5t201 -66.5q106 0 175 28.5t126 83.5l166 -137q-77 -90 -195 -141t-251 -51q-104 0 -195 31t-156.5 85 t-112.5 124.5t-70 151t-23 163.5zM295 1421l242 103l217 -303h-209zM350 627h584q-14 111 -82.5 182.5t-202.5 71.5q-117 0 -195.5 -74t-103.5 -180z" />
<glyph unicode="&#xe9;" horiz-adv-x="1271" d="M113 543q0 83 22.5 163.5t67.5 151t108 124.5t150.5 85t187.5 31t185.5 -31t145.5 -84.5t102 -125t62.5 -151t20.5 -163.5q0 -46 -6 -92h-811q23 -113 100 -179.5t201 -66.5q106 0 175 28.5t126 83.5l166 -137q-77 -90 -195 -141t-251 -51q-104 0 -195 31t-156.5 85 t-112.5 124.5t-70 151t-23 163.5zM350 627h584q-14 111 -82.5 182.5t-202.5 71.5q-117 0 -195.5 -74t-103.5 -180zM545 1221l217 303l242 -103l-250 -200h-209z" />
<glyph unicode="&#xea;" horiz-adv-x="1271" d="M113 543q0 83 22.5 163.5t67.5 151t108 124.5t150.5 85t187.5 31t185.5 -31t145.5 -84.5t102 -125t62.5 -151t20.5 -163.5q0 -46 -6 -92h-811q23 -113 100 -179.5t201 -66.5q106 0 175 28.5t126 83.5l166 -137q-77 -90 -195 -141t-251 -51q-104 0 -195 31t-156.5 85 t-112.5 124.5t-70 151t-23 163.5zM330 1221l211 288h217l211 -288h-193l-127 180l-127 -180h-192zM350 627h584q-14 111 -82.5 182.5t-202.5 71.5q-117 0 -195.5 -74t-103.5 -180z" />
<glyph unicode="&#xeb;" horiz-adv-x="1271" d="M113 543q0 83 22.5 163.5t67.5 151t108 124.5t150.5 85t187.5 31t185.5 -31t145.5 -84.5t102 -125t62.5 -151t20.5 -163.5q0 -46 -6 -92h-811q23 -113 100 -179.5t201 -66.5q106 0 175 28.5t126 83.5l166 -137q-77 -90 -195 -141t-251 -51q-104 0 -195 31t-156.5 85 t-112.5 124.5t-70 151t-23 163.5zM344 1350q0 57 35.5 94t89.5 37t88.5 -37t34.5 -94q0 -56 -34.5 -92.5t-88.5 -36.5t-89.5 36.5t-35.5 92.5zM350 627h584q-14 111 -82.5 182.5t-202.5 71.5q-117 0 -195.5 -74t-103.5 -180zM707 1350q0 57 35 94t89 37t88.5 -37t34.5 -94 q0 -56 -34.5 -92.5t-88.5 -36.5t-89 36.5t-35 92.5z" />
<glyph unicode="&#xec;" horiz-adv-x="581" d="M-63 1421l241 103l217 -303h-209zM174 0v1090h234v-1090h-234z" />
<glyph unicode="&#xed;" horiz-adv-x="581" d="M174 0v1090h234v-1090h-234zM186 1221l217 303l242 -103l-250 -200h-209z" />
<glyph unicode="&#xee;" horiz-adv-x="581" d="M-29 1221l211 288h217l211 -288h-192l-127 180l-127 -180h-193zM174 0v1090h234v-1090h-234z" />
<glyph unicode="&#xef;" horiz-adv-x="581" d="M-14 1350q0 57 35.5 94t89.5 37t88 -37t34 -94q0 -56 -34 -92.5t-88 -36.5t-89.5 36.5t-35.5 92.5zM174 0v1090h234v-1090h-234zM348 1350q0 57 35.5 94t89.5 37t88.5 -37t34.5 -94q0 -56 -34.5 -92.5t-88.5 -36.5t-89.5 36.5t-35.5 92.5z" />
<glyph unicode="&#xf0;" horiz-adv-x="1208" d="M74 459q0 204 126.5 326t338.5 122q117 0 215.5 -45.5t148.5 -120.5q-68 220 -285 424l-311 -102l-39 123l236 78q-131 99 -252 157l156 109q170 -77 313 -195l272 90l37 -122l-201 -66q148 -151 229 -330t81 -364q0 -252 -153 -402.5t-408 -150.5q-229 0 -366.5 127.5 t-137.5 341.5zM299 473q0 -125 80 -199.5t213 -74.5q135 0 216 72t81 192q0 124 -81 198t-216 74q-134 0 -213.5 -71t-79.5 -191z" />
<glyph unicode="&#xf1;" horiz-adv-x="1357" d="M174 0v1090h236v-209q111 217 401 217q190 0 298 -112t108 -308v-678h-236v612q0 123 -69.5 194t-192.5 71q-132 -1 -214.5 -83.5t-94.5 -213.5v-580h-236zM379 1284q0 268 188 268q38 0 75.5 -17.5t62.5 -38.5t54 -38.5t52 -17.5q78 0 78 100h149q0 -268 -186 -268 q-42 0 -80.5 17.5t-62 38.5t-52 38.5t-51.5 17.5q-76 0 -76 -100h-151z" />
<glyph unicode="&#xf2;" horiz-adv-x="1339" d="M113 543q0 157 71 283.5t199 199t287 72.5t287 -72.5t199 -199t71 -283.5t-71 -283.5t-199 -199t-287 -72.5q-117 0 -220.5 42.5t-177 116t-116.5 176.5t-43 220zM315 1421l242 103l217 -303h-209zM336 543q0 -146 94.5 -242t239.5 -96t239.5 96t94.5 242t-94.5 242 t-239.5 96t-239.5 -96t-94.5 -242z" />
<glyph unicode="&#xf3;" horiz-adv-x="1339" d="M113 543q0 157 71 283.5t199 199t287 72.5t287 -72.5t199 -199t71 -283.5t-71 -283.5t-199 -199t-287 -72.5q-117 0 -220.5 42.5t-177 116t-116.5 176.5t-43 220zM336 543q0 -146 94.5 -242t239.5 -96t239.5 96t94.5 242t-94.5 242t-239.5 96t-239.5 -96t-94.5 -242z M565 1221l217 303l242 -103l-250 -200h-209z" />
<glyph unicode="&#xf4;" horiz-adv-x="1339" d="M113 543q0 157 71 283.5t199 199t287 72.5t287 -72.5t199 -199t71 -283.5t-71 -283.5t-199 -199t-287 -72.5q-117 0 -220.5 42.5t-177 116t-116.5 176.5t-43 220zM336 543q0 -146 94.5 -242t239.5 -96t239.5 96t94.5 242t-94.5 242t-239.5 96t-239.5 -96t-94.5 -242z M350 1221l211 288h217l211 -288h-192l-127 180l-127 -180h-193z" />
<glyph unicode="&#xf5;" horiz-adv-x="1339" d="M113 543q0 157 71 283.5t199 199t287 72.5t287 -72.5t199 -199t71 -283.5t-71 -283.5t-199 -199t-287 -72.5q-117 0 -220.5 42.5t-177 116t-116.5 176.5t-43 220zM336 543q0 -146 94.5 -242t239.5 -96t239.5 96t94.5 242t-94.5 242t-239.5 96t-239.5 -96t-94.5 -242z M340 1233q0 268 188 268q38 0 75.5 -17.5t62.5 -38.5t54 -38.5t52 -17.5q78 0 78 100h149q0 -268 -186 -268q-42 0 -80.5 17.5t-62 38.5t-52 38.5t-51.5 17.5q-75 0 -75 -100h-152z" />
<glyph unicode="&#xf6;" horiz-adv-x="1339" d="M113 543q0 157 71 283.5t199 199t287 72.5t287 -72.5t199 -199t71 -283.5t-71 -283.5t-199 -199t-287 -72.5q-117 0 -220.5 42.5t-177 116t-116.5 176.5t-43 220zM336 543q0 -146 94.5 -242t239.5 -96t239.5 96t94.5 242t-94.5 242t-239.5 96t-239.5 -96t-94.5 -242z M365 1350q0 57 35 94t89 37t88.5 -37t34.5 -94q0 -56 -34.5 -92.5t-88.5 -36.5t-89 36.5t-35 92.5zM727 1350q0 57 35.5 94t89.5 37t88.5 -37t34.5 -94q0 -56 -34.5 -92.5t-88.5 -36.5t-89.5 36.5t-35.5 92.5z" />
<glyph unicode="&#xf7;" horiz-adv-x="1019" d="M72 584v161h876v-161h-876zM375 315q0 56 34.5 92.5t88.5 36.5t89.5 -36.5t35.5 -92.5q0 -57 -35.5 -94t-89.5 -37t-88.5 37t-34.5 94zM375 1042q0 56 34.5 92.5t88.5 36.5t89.5 -36.5t35.5 -92.5q0 -57 -35.5 -94t-89.5 -37t-88.5 37t-34.5 94z" />
<glyph unicode="&#xf8;" horiz-adv-x="1280" d="M72 545q0 247 157.5 400t411.5 153q51 0 123 -11l88 275h106l-96 -301q160 -58 253 -193.5t93 -322.5q0 -246 -157.5 -399.5t-409.5 -153.5q-59 0 -121 10l-98 -301h-107l107 328q-163 58 -256.5 194t-93.5 322zM295 543q0 -118 48.5 -205.5t135.5 -130.5l228 702 q-30 6 -66 6q-154 0 -250 -103t-96 -269zM575 176q30 -6 66 -6q153 0 249.5 103t96.5 270q0 116 -49 204.5t-135 131.5z" />
<glyph unicode="&#xf9;" d="M135 412v678h236v-613q0 -129 49.5 -196.5t163.5 -67.5q134 3 196 95t62 245v537h235v-1090h-235v193q-80 -198 -348 -201q-182 0 -270.5 109.5t-88.5 310.5zM252 1421l242 103l217 -303h-209z" />
<glyph unicode="&#xfa;" d="M135 412v678h236v-613q0 -129 49.5 -196.5t163.5 -67.5q134 3 196 95t62 245v537h235v-1090h-235v193q-80 -198 -348 -201q-182 0 -270.5 109.5t-88.5 310.5zM502 1221l217 303l242 -103l-250 -200h-209z" />
<glyph unicode="&#xfb;" d="M135 412v678h236v-613q0 -129 49.5 -196.5t163.5 -67.5q134 3 196 95t62 245v537h235v-1090h-235v193q-80 -198 -348 -201q-182 0 -270.5 109.5t-88.5 310.5zM287 1221l211 288h217l211 -288h-193l-127 180l-127 -180h-192z" />
<glyph unicode="&#xfc;" d="M135 412v678h236v-613q0 -129 49.5 -196.5t163.5 -67.5q134 3 196 95t62 245v537h235v-1090h-235v193q-80 -198 -348 -201q-182 0 -270.5 109.5t-88.5 310.5zM301 1350q0 57 35.5 94t89.5 37t88.5 -37t34.5 -94q0 -56 -34.5 -92.5t-88.5 -36.5t-89.5 36.5t-35.5 92.5z M664 1350q0 57 35 94t89 37t88.5 -37t34.5 -94q0 -56 -34.5 -92.5t-88.5 -36.5t-89 36.5t-35 92.5z" />
<glyph unicode="&#xfd;" horiz-adv-x="1308" d="M94 1090h244l326 -826l303 826h235l-495 -1240q-102 -258 -355 -258q-140 0 -252 93l93 157q73 -53 141 -53q52 0 98.5 40.5t75.5 104.5l37 82zM545 1221l217 303l242 -103l-250 -200h-209z" />
<glyph unicode="&#xfe;" horiz-adv-x="1392" d="M184 -397v1917h236v-619q124 197 381 197q232 0 376 -154t144 -403q0 -245 -142 -397t-374 -152q-262 0 -385 196v-585h-236zM420 549q0 -158 92.5 -257t239.5 -99q146 0 238.5 99.5t92.5 256.5q0 153 -92.5 252.5t-238.5 99.5t-239 -99t-93 -253z" />
<glyph unicode="&#xff;" horiz-adv-x="1308" d="M94 1090h244l326 -826l303 826h235l-495 -1240q-102 -258 -355 -258q-140 0 -252 93l93 157q73 -53 141 -53q52 0 98.5 40.5t75.5 104.5l37 82zM344 1350q0 57 34.5 94t88.5 37t88.5 -37t34.5 -94q0 -56 -34.5 -92.5t-88.5 -36.5t-88.5 36.5t-34.5 92.5zM705 1350 q0 57 36 94t90 37t88.5 -37t34.5 -94q0 -56 -34.5 -92.5t-88.5 -36.5t-90 37t-36 92z" />
<glyph unicode="&#x152;" horiz-adv-x="2246" d="M70 717q0 148 58.5 281t159 228.5t241 151.5t298.5 56h1289v-217h-783v-390h701v-215h-701v-395h807v-217h-1313q-210 0 -383.5 94t-273.5 258.5t-100 364.5zM315 715q0 -140 68 -254.5t185.5 -179t260.5 -64.5h263v997h-263q-143 0 -260.5 -65t-185.5 -179.5t-68 -254.5 z" />
<glyph unicode="&#x153;" horiz-adv-x="2129" d="M72 545q0 247 157.5 400t411.5 153q152 0 266 -63.5t178 -178.5q66 115 178 178.5t257 63.5q254 0 402 -166.5t140 -437.5h-866q19 -144 113 -228t235 -84q182 0 309 127l125 -133q-171 -184 -454 -184q-150 0 -262.5 63t-176.5 178q-65 -115 -179 -178t-265 -63 q-253 0 -411 153.5t-158 399.5zM307 543q0 -158 93 -256.5t241 -98.5q147 0 239.5 98.5t92.5 256.5q0 156 -92.5 254t-239.5 98q-148 0 -241 -97.5t-93 -254.5zM1196 621h631q-5 134 -88.5 218.5t-216.5 84.5q-131 0 -219 -83.5t-107 -219.5z" />
<glyph unicode="&#x178;" horiz-adv-x="1464" d="M82 1434h264l389 -699l381 699h266l-526 -957v-477h-240v469zM426 1692q0 57 36.5 94t90.5 37t88.5 -37t34.5 -94q0 -56 -34.5 -92.5t-88.5 -36.5t-90.5 37t-36.5 92zM791 1692q0 57 34 94t88 37t88.5 -37t34.5 -94q0 -56 -34.5 -92.5t-88.5 -36.5t-88 36.5t-34 92.5z " />
<glyph unicode="&#x2c6;" horiz-adv-x="716" d="M39 1257l211 289h217l211 -289h-193l-127 181l-127 -181h-192z" />
<glyph unicode="&#x2dc;" horiz-adv-x="716" d="M29 1284q0 268 188 268q38 0 75.5 -17.5t62.5 -38.5t54 -38.5t52 -17.5q78 0 78 100h149q0 -268 -186 -268q-42 0 -80.5 17.5t-62 38.5t-52 38.5t-51.5 17.5q-76 0 -76 -100h-151z" />
<glyph unicode="&#x2000;" horiz-adv-x="933" />
<glyph unicode="&#x2001;" horiz-adv-x="1866" />
<glyph unicode="&#x2002;" horiz-adv-x="933" />
<glyph unicode="&#x2003;" horiz-adv-x="1866" />
<glyph unicode="&#x2004;" horiz-adv-x="622" />
<glyph unicode="&#x2005;" horiz-adv-x="466" />
<glyph unicode="&#x2006;" horiz-adv-x="311" />
<glyph unicode="&#x2007;" horiz-adv-x="311" />
<glyph unicode="&#x2008;" horiz-adv-x="233" />
<glyph unicode="&#x2009;" horiz-adv-x="373" />
<glyph unicode="&#x200a;" horiz-adv-x="103" />
<glyph unicode="&#x2010;" horiz-adv-x="753" d="M125 543v162h504v-162h-504z" />
<glyph unicode="&#x2011;" horiz-adv-x="753" d="M125 543v162h504v-162h-504z" />
<glyph unicode="&#x2012;" horiz-adv-x="753" d="M125 543v162h504v-162h-504z" />
<glyph unicode="&#x2013;" horiz-adv-x="829" d="M0 461v162h829v-162h-829z" />
<glyph unicode="&#x2014;" horiz-adv-x="1415" d="M0 461v162h1415v-162h-1415z" />
<glyph unicode="&#x2018;" horiz-adv-x="438" d="M74 1161q0 54 37 107l116 178h121l-78 -178q56 -38 56 -107q0 -58 -35.5 -94.5t-91.5 -36.5q-52 0 -88.5 35.5t-36.5 95.5z" />
<glyph unicode="&#x2019;" horiz-adv-x="438" d="M74 1020l78 176q-56 38 -56 107q0 58 35.5 94.5t91.5 36.5q52 0 88.5 -35.5t36.5 -95.5q0 -54 -37 -107l-116 -176h-121z" />
<glyph unicode="&#x201a;" horiz-adv-x="438" d="M74 -168l78 178q-56 38 -56 107q0 57 36 94t91 37q52 0 88.5 -36t36.5 -95q0 -56 -37 -109l-116 -176h-121z" />
<glyph unicode="&#x201c;" horiz-adv-x="606" d="M74 1161q0 56 37 109l116 176h121l-78 -178q56 -38 56 -107q0 -57 -36 -94t-91 -37q-52 0 -88.5 36t-36.5 95zM379 1161q0 56 37 109l116 176h121l-78 -178q56 -38 56 -107q0 -57 -36 -94t-91 -37q-52 0 -88.5 36t-36.5 95z" />
<glyph unicode="&#x201d;" horiz-adv-x="681" d="M74 1020l78 178q-56 38 -56 107q0 57 36 94t91 37q52 0 88.5 -36t36.5 -95q0 -56 -37 -109l-116 -176h-121zM379 1020l78 178q-56 38 -56 107q0 57 36 94t91 37q52 0 88.5 -36t36.5 -95q0 -56 -37 -109l-116 -176h-121z" />
<glyph unicode="&#x201e;" horiz-adv-x="743" d="M74 -168l78 178q-56 38 -56 107q0 57 36 94t91 37q52 0 88.5 -36t36.5 -95q0 -56 -37 -109l-116 -176h-121zM379 -168l78 178q-56 38 -56 107q0 57 36 94t91 37q52 0 88.5 -36t36.5 -95q0 -56 -37 -109l-116 -176h-121z" />
<glyph unicode="&#x2022;" horiz-adv-x="575" d="M94 549q0 88 55 144.5t138 56.5q85 0 139.5 -56.5t54.5 -144.5t-55 -146.5t-139 -58.5q-83 0 -138 58.5t-55 146.5z" />
<glyph unicode="&#x2026;" horiz-adv-x="1245" d="M94 113q0 57 35 93t88 36t88 -36t35 -93t-35 -94t-88 -37t-88 37t-35 94zM500 113q0 57 35 93t88 36t87.5 -36t34.5 -93t-34.5 -94t-87.5 -37t-88 37t-35 94zM905 113q0 57 35 93t88 36t88 -36t35 -93t-35 -94t-88 -37t-88 37t-35 94z" />
<glyph unicode="&#x202f;" horiz-adv-x="373" />
<glyph unicode="&#x2039;" horiz-adv-x="565" d="M47 532l238 357h196l-219 -357l219 -356h-196z" />
<glyph unicode="&#x203a;" horiz-adv-x="589" d="M156 176l219 359l-219 356h196l238 -356l-238 -359h-196z" />
<glyph unicode="&#x205f;" horiz-adv-x="466" />
<glyph unicode="&#x20ac;" horiz-adv-x="1617" d="M76 481v131h192q-8 47 -8 107q0 61 8 108h-192v131h225q76 216 270 349t445 133q152 0 296 -59t247 -162l-140 -177q-80 86 -186 134.5t-215 48.5q-146 0 -267 -72.5t-186 -194.5h514v-131h-563q-10 -58 -10 -106q0 -57 12 -109h561v-131h-514q65 -122 186 -194t267 -72 q106 0 211 45.5t190 124.5l142 -160q-109 -109 -256 -172t-299 -63q-248 0 -440.5 135.5t-266.5 355.5h-223z" />
<glyph unicode="&#x2122;" horiz-adv-x="1814" d="M-10 1282v152h676v-152h-252v-709h-174v709h-250zM782 573v861h201l262 -547l262 547h201v-861h-158v609l-247 -520h-115l-246 520v-609h-160z" />
<glyph unicode="&#x25fc;" horiz-adv-x="1085" d="M0 0v1085h1085v-1085h-1085z" />
<glyph unicode="&#xfb01;" horiz-adv-x="1345" d="M76 893v197h143v65q0 75 21.5 138.5t58 106.5t85 73t101.5 43.5t109 13.5q118 0 203 -49l-9 -205q-102 47 -188 47q-68 0 -107.5 -35t-39.5 -110v-88h284v-197h-284v-893h-234v893h-143zM936 1401q0 63 39 103t98 40t98 -40t39 -103q0 -61 -39 -101t-98 -40t-98 40 t-39 101zM956 0v1090h234v-1090h-234z" />
<glyph unicode="&#xfb02;" horiz-adv-x="1333" d="M76 893l2 197h141v94q0 158 105.5 258t271.5 98q123 -3 203 -47l-6 -205q-68 53 -152 53q-82 2 -135 -52t-53 -140v-59h286l-2 -197h-284v-893h-234v893h-143zM954 0v1520h236v-1520h-236z" />
</font>
</defs>
</svg>
