<?xml version="1.0" standalone="no"?>
<!DOCTYPE svg PUBLIC "-//W3C//DTD SVG 1.1//EN" "http://www.w3.org/Graphics/SVG/1.1/DTD/svg11.dtd" >
<svg xmlns="http://www.w3.org/2000/svg">
<metadata></metadata>
<defs>
<font id="jones_mediummedium_italic" horiz-adv-x="1228" >
<font-face units-per-em="2048" ascent="1606" descent="-442" />
<missing-glyph horiz-adv-x="614" />
<glyph horiz-adv-x="0" />
<glyph horiz-adv-x="682" />
<glyph unicode=" "  horiz-adv-x="614" />
<glyph unicode="&#x09;" horiz-adv-x="614" />
<glyph unicode="&#xa0;" horiz-adv-x="614" />
<glyph unicode="!" horiz-adv-x="471" d="M104 109q0 18 2 26q10 64 64 110t117 46q57 0 93 -36.5t36 -92.5q0 -19 -2 -27q-10 -64 -64.5 -109.5t-118.5 -45.5q-56 0 -91.5 36.5t-35.5 92.5zM260 512l31 492l88 491h242l-89 -491l-141 -492h-131z" />
<glyph unicode="&#x22;" horiz-adv-x="696" d="M283 1348q0 77 43.5 122.5t113.5 45.5q55 0 84 -29.5t29 -75.5q0 -29 -12 -63l-148 -365h-90zM631 1348q0 77 43.5 122.5t113.5 45.5q55 0 84 -29.5t29 -75.5q0 -29 -12 -63l-148 -365h-90z" />
<glyph unicode="#" horiz-adv-x="1658" d="M162 338l35 194h305l129 369h-287l33 195h321l117 338h205l-117 -338h369l117 338h204l-116 -338h272l-33 -195h-307l-129 -369h289l-35 -194h-322l-116 -338h-205l117 338h-369l-117 -338h-205l117 338h-272zM707 532h368l129 369h-368z" />
<glyph unicode="$" d="M123 231l149 158q36 -39 66 -66.5t77 -62.5t102.5 -56.5t117.5 -27.5l82 473q-165 31 -268 121t-103 227q0 31 6 66q29 161 177 272t329 119l25 143h143l-27 -151q213 -34 328 -172l-143 -150q-79 95 -219 125l-72 -420q147 -43 234 -130.5t87 -221.5q0 -20 -8 -78 q-31 -176 -151 -283t-310 -130l-26 -150h-144l25 146q-84 5 -158 28t-133 61t-101 75t-85 85zM563 1034q0 -124 191 -174l69 397q-110 -10 -176.5 -62t-79.5 -122q-4 -24 -4 -39zM780 186q86 23 142.5 80.5t68.5 132.5q4 32 4 45q0 123 -139 177z" />
<glyph unicode="%" horiz-adv-x="1925" d="M254 1057q0 31 6 69q19 106 86.5 195.5t166 142t204.5 52.5q144 0 235.5 -91t91.5 -229q0 -36 -6 -70q-29 -161 -163 -275t-295 -114q-142 0 -234 91.5t-92 228.5zM348 0l1288 1495h205l-1288 -1495h-205zM440 1085q0 -76 47 -125t123 -49q87 0 158 62.5t86 152.5 q4 28 4 39q0 76 -48 126t-124 50q-86 0 -156.5 -62t-85.5 -153q-4 -28 -4 -41zM1145 299q0 33 6 70q29 161 162.5 275t294.5 114q144 0 235.5 -91t91.5 -229q0 -34 -6 -69q-29 -161 -163.5 -275t-295.5 -114q-142 0 -233.5 91t-91.5 228zM1331 328q0 -76 47 -125t123 -49 q87 0 158 62.5t86 152.5q4 28 4 39q0 76 -48 126t-124 50q-86 0 -156.5 -62t-85.5 -153q-4 -28 -4 -41z" />
<glyph unicode="&#x26;" horiz-adv-x="1464" d="M207 317q0 35 6 72q11 64 39 118t64 92.5t86 70.5t98 53.5t108 40.5q-60 89 -90.5 157.5t-30.5 135.5q0 9 5 49q29 163 153.5 255.5t296.5 92.5q152 0 242 -74t90 -213q0 -43 -8 -82q-22 -122 -132 -217t-255 -143q3 -5 11 -15.5t11 -15.5l215 -323q94 108 156 272 l162 -61q-69 -199 -222 -355l150 -227h-246l-65 98q-188 -118 -400 -118q-205 0 -324.5 91.5t-119.5 245.5zM416 360q0 -81 78.5 -133.5t212.5 -52.5q129 0 249 66l-235 356q-19 30 -47 70q-222 -83 -256 -277q-2 -10 -2 -29zM694 1077q0 -49 27 -102.5t92 -151.5 q100 38 167.5 113.5t80.5 148.5q4 28 4 39q0 72 -44 114t-110 42q-76 0 -138.5 -47t-76.5 -127q-2 -10 -2 -29z" />
<glyph unicode="'" horiz-adv-x="348" d="M283 1348q0 77 43.5 122.5t113.5 45.5q55 0 84 -29.5t29 -75.5q0 -29 -12 -63l-148 -365h-90z" />
<glyph unicode="(" horiz-adv-x="563" d="M141 250q0 327 128.5 653.5t379.5 632.5l150 -82q-210 -264 -323.5 -590.5t-113.5 -648.5q0 -325 115 -584l-178 -82q-158 335 -158 701z" />
<glyph unicode=")" horiz-adv-x="563" d="M-236 -369q210 264 323.5 590.5t113.5 648.5q0 325 -115 584l178 82q158 -335 158 -700q0 -327 -128.5 -654t-379.5 -633z" />
<glyph unicode="*" horiz-adv-x="663" d="M227 1087l191 101l-156 100l80 107l156 -101l37 201h122l-36 -201l192 101l43 -107l-192 -100l157 -101l-82 -106l-155 100l-35 -200h-123l35 200l-193 -100z" />
<glyph unicode="+" horiz-adv-x="1044" d="M174 643l35 195h358l66 368h205l-66 -368h358l-34 -195h-359l-63 -369h-205l63 369h-358z" />
<glyph unicode="," horiz-adv-x="520" d="M35 -266l198 270q-29 9 -48 40.5t-19 68.5q0 14 2 22q10 64 63.5 110t116.5 46q67 0 103 -35.5t36 -91.5q0 -19 -2 -29q-8 -41 -59 -100l-248 -301h-143z" />
<glyph unicode="-" horiz-adv-x="880" d="M223 512l35 195h614l-34 -195h-615z" />
<glyph unicode="." horiz-adv-x="471" d="M82 135q0 64 45.5 110t108.5 46t108 -46t45 -110t-45 -109.5t-108 -45.5t-108.5 45.5t-45.5 109.5z" />
<glyph unicode="/" horiz-adv-x="880" d="M-70 -164l1090 1761h184l-1089 -1761h-185z" />
<glyph unicode="0" d="M141 537q0 76 17 180q27 153 92 287.5t156.5 234t212 157.5t251.5 58q148 0 255.5 -72.5t161.5 -197.5t54 -287q0 -82 -16 -180q-36 -204 -136 -371t-252.5 -266.5t-326.5 -99.5q-148 0 -255.5 73t-160.5 198t-53 286zM367 539q0 -165 69 -260t211 -95q91 0 168 40.5 t132.5 113.5t94 168.5t58.5 210.5q16 101 16 178q0 164 -69 259t-211 95q-179 0 -295 -146.5t-158 -385.5q-16 -101 -16 -178z" />
<glyph unicode="1" d="M408 1147l438 287h205q-126 -718 -252 -1434h-226l207 1171l-307 -186z" />
<glyph unicode="2" d="M102 0l31 174l596 440q175 129 238.5 212.5t85.5 209.5q4 24 4 37q0 81 -59 134t-162 53q-218 0 -390 -287l-155 98q98 171 251 277t328 106q177 0 288.5 -103t111.5 -261q0 -36 -6 -74q-27 -151 -110.5 -257.5t-276.5 -244.5l-449 -319h733l-35 -195h-1024z" />
<glyph unicode="3" d="M137 203l158 129q45 -80 141 -120t209 -40q135 0 226 57.5t112 173.5q4 32 4 48q0 204 -360 204l8 41q2 17 5 35.5t7 41t6 34.5l9 43q174 0 267 59.5t109 155.5q4 28 4 43q0 152 -206 152q-108 0 -191.5 -39t-161.5 -117l-112 129q106 104 222.5 162.5t276.5 58.5 q181 0 285.5 -86.5t104.5 -222.5q0 -35 -5 -60q-41 -221 -258 -321q209 -71 209 -272q0 -48 -8 -89q-18 -104 -76 -186.5t-140 -133t-177 -77t-195 -26.5q-340 0 -473 223z" />
<glyph unicode="4" d="M131 276l31 175l837 983h236q-28 -161 -84 -481.5t-84 -481.5h143l-34 -195h-144l-49 -276h-215l49 276h-645h-41zM393 471h459l119 680z" />
<glyph unicode="5" d="M137 203l168 139q45 -80 140.5 -123t199.5 -43q77 0 148.5 30t126.5 94t71 151q6 37 6 67q0 101 -62.5 160t-191.5 59q-97 0 -166.5 -20.5t-136.5 -79.5h-184l262 797h778l-32 -195h-613l-116 -375q104 68 284 68q174 0 284.5 -106t110.5 -279q0 -52 -8 -96 q-19 -111 -78.5 -202.5t-142.5 -149t-179.5 -88.5t-195.5 -31q-340 0 -473 223z" />
<glyph unicode="6" d="M174 365q0 47 8 86q25 149 174 321l570 662h245l-489 -547q73 24 154 24q172 0 275 -102t103 -266q0 -48 -8 -92q-36 -201 -203 -336t-393 -135q-199 0 -317.5 108t-118.5 277zM381 391q0 -103 67 -165t195 -62q146 0 240.5 80t117.5 207q7 35 7 59q0 103 -68.5 165 t-196.5 62q-146 0 -239.5 -79t-116.5 -207q-6 -30 -6 -60z" />
<glyph unicode="7" d="M315 0l799 1239h-792l32 195h1026l-28 -164l-817 -1270h-220z" />
<glyph unicode="8" d="M164 319q0 29 6 64q27 148 119 240.5t233 132.5q-174 75 -174 260q0 32 6 69q17 100 91.5 185t187 134.5t237.5 49.5q171 0 280.5 -90t109.5 -225q0 -31 -5 -54q-21 -119 -95 -202.5t-187 -126.5q229 -72 229 -291q0 -43 -8 -82q-21 -120 -107 -213t-211 -141.5 t-266 -48.5q-195 0 -320.5 92.5t-125.5 246.5zM385 356q0 -93 70 -138.5t190 -45.5q135 0 226 57.5t112 173.5q4 32 4 50q0 96 -70.5 149t-187.5 53q-131 0 -225 -66.5t-115 -185.5q-4 -32 -4 -47zM563 1026q0 -77 54 -126.5t147 -49.5q105 0 182 62t92 153q4 24 4 35 q0 74 -55 117t-151 43q-107 0 -180.5 -53t-88.5 -142q-4 -24 -4 -39z" />
<glyph unicode="9" d="M57 0l586 547q-80 -25 -160 -25q-150 0 -233.5 79t-83.5 212q0 75 31 170q70 201 260.5 336t416.5 135q178 0 276.5 -86t98.5 -227q0 -72 -28 -158q-51 -145 -234 -321l-684 -662h-246zM381 874q0 -83 56.5 -130.5t168.5 -47.5q147 0 256.5 80t153.5 207q20 56 20 107 q0 83 -57.5 131.5t-169.5 48.5q-146 0 -255 -80t-153 -207q-20 -56 -20 -109z" />
<glyph unicode=":" horiz-adv-x="471" d="M104 109q0 18 2 26q10 64 64 110t117 46q57 0 93 -36.5t36 -92.5q0 -19 -2 -27q-10 -64 -64.5 -109.5t-118.5 -45.5q-56 0 -91.5 36.5t-35.5 92.5zM254 956q0 19 2 27q10 64 63.5 110t116.5 46q57 0 93 -36.5t36 -92.5q0 -19 -2 -27q-10 -64 -64.5 -110t-117.5 -46 q-56 0 -91.5 36.5t-35.5 92.5z" />
<glyph unicode=";" horiz-adv-x="520" d="M-12 -266l248 270q-24 7 -38 32.5t-14 57.5q0 20 6 41q23 64 84.5 110t124.5 46q58 0 88.5 -27t30.5 -71q0 -25 -10 -58q-13 -37 -76 -100l-301 -301h-143zM254 956q0 19 2 27q10 64 63.5 110t116.5 46q57 0 93 -36.5t36 -92.5q0 -19 -2 -27q-10 -64 -64.5 -110 t-117.5 -46q-56 0 -91.5 36.5t-35.5 92.5z" />
<glyph unicode="&#x3c;" horiz-adv-x="1044" d="M174 635l33 194l991 390l-35 -195l-741 -291l639 -293l-35 -194z" />
<glyph unicode="=" horiz-adv-x="1044" d="M131 389l33 195h921l-32 -195h-922zM215 870l35 195h921l-34 -195h-922z" />
<glyph unicode="&#x3e;" horiz-adv-x="1044" d="M-98 246l69 194l795 293l-590 291l70 195l784 -390l-69 -194z" />
<glyph unicode="?" horiz-adv-x="1136" d="M297 1214q93 140 232.5 221t320.5 81q191 0 296 -89t105 -227q0 -31 -6 -61q-25 -138 -107.5 -223.5t-224.5 -149.5q-54 -24 -83 -41t-53.5 -45t-37.5 -66.5t-24 -101.5h-205q2 45 8.5 84.5t15 69.5t24 57t28.5 46.5t35 38t38 30t43 25.5t44 21.5t46.5 20.5t45.5 21 q169 77 192 213q2 10 2 28q0 67 -56.5 110.5t-158.5 43.5q-215 0 -375 -219zM401 109q0 18 2 26q10 64 64 110t117 46q57 0 93 -36.5t36 -92.5q0 -19 -2 -27q-10 -64 -64.5 -109.5t-118.5 -45.5q-56 0 -91.5 36.5t-35.5 92.5z" />
<glyph unicode="@" horiz-adv-x="2150" d="M193 365q0 87 14 167q35 197 137 373.5t249.5 307t342 206.5t403.5 76q237 0 423 -87.5t292.5 -252t106.5 -379.5q0 -80 -15 -162q-25 -139 -72 -251t-101.5 -181.5t-118 -116.5t-119 -66t-105.5 -19q-207 0 -207 167q0 5 1 14.5t1 14.5q-136 -196 -374 -196 q-177 0 -295.5 123.5t-118.5 318.5q0 45 10 110q21 119 80.5 223.5t141 176t180 112.5t196.5 41q238 0 305 -194l31 174h205l-146 -819q-8 -44 -8 -86q0 -47 17.5 -69.5t56.5 -22.5q41 0 94 33.5t108 97t103.5 172.5t71.5 243q14 74 14 152q0 202 -99.5 355.5t-273 234 t-395.5 80.5q-198 0 -380 -71.5t-319.5 -193.5t-232 -287.5t-127.5 -351.5q-14 -74 -14 -159q0 -157 56 -294t154 -236.5t239 -156.5t305 -57l-11 -59q-174 0 -325 61t-256 167t-165 253t-60 314zM844 449q0 -128 72 -201.5t190 -73.5q137 0 244.5 97.5t136.5 260.5 q8 39 8 84q0 128 -72 201.5t-190 73.5q-137 0 -244.5 -98t-136.5 -261q-8 -39 -8 -83z" />
<glyph unicode="A" horiz-adv-x="1638" d="M61 0l908 1434h205l403 -1434h-225l-99 358h-743l-223 -358h-226zM633 553h567l-172 633z" />
<glyph unicode="B" horiz-adv-x="1423" d="M205 0q20 114 60 344t61 344q13 72 60 336.5t71 409.5h532q188 0 307 -83.5t119 -242.5q0 -22 -8 -80q-37 -211 -229 -285q221 -59 221 -258q0 -35 -6 -75q-19 -103 -74 -183.5t-134 -129t-171.5 -73t-194.5 -24.5h-614zM467 205h389q138 0 214 44.5t97 160.5q4 18 4 53 q0 89 -61.5 128.5t-179.5 39.5h-389zM578 836h307q136 0 207 41t90 151q4 18 4 51q0 82 -57.5 116t-174.5 34h-307z" />
<glyph unicode="C" horiz-adv-x="1499" d="M258 586q0 64 12 131q35 200 163 370t312.5 268.5t380.5 98.5q160 0 291.5 -67t212.5 -185l-164 -139q-126 186 -374 186q-142 0 -269.5 -70.5t-214 -192t-112.5 -269.5q-11 -68 -11 -107q0 -187 115 -306.5t303 -119.5q246 0 440 187l115 -140q-122 -117 -277 -184 t-315 -67q-265 0 -436.5 172.5t-171.5 433.5z" />
<glyph unicode="D" horiz-adv-x="1658" d="M205 0q234 1326 252 1434h573q269 0 446 -167.5t177 -424.5q0 -66 -11 -125q-26 -150 -109.5 -284t-200 -228.5t-261.5 -149.5t-293 -55h-573zM467 205h348q143 0 271.5 65t216.5 182.5t114 264.5q8 47 8 100q0 184 -119 298t-311 114h-348z" />
<glyph unicode="E" horiz-adv-x="1372" d="M205 0q20 114 60 344t61 344q13 72 60 336.5t71 409.5h1044l-35 -205h-819l-69 -393h716l-37 -205h-716l-74 -426h819l-37 -205h-1044z" />
<glyph unicode="F" horiz-adv-x="1361" d="M205 0q234 1326 252 1434h1044l-35 -205h-819l-78 -434h717l-35 -205h-716l-105 -590h-225z" />
<glyph unicode="G" horiz-adv-x="1601" d="M258 586q0 64 12 131q35 200 163 370t312.5 268.5t380.5 98.5q160 0 291.5 -67t212.5 -185l-164 -139q-126 186 -374 186q-142 0 -269.5 -70.5t-214 -192t-112.5 -269.5q-11 -68 -11 -107q0 -187 115 -306.5t303 -119.5q199 0 361 107l47 262h-342l35 205h567 q-23 -141 -92 -527q-120 -116 -285 -183.5t-328 -67.5q-265 0 -436.5 172.5t-171.5 433.5z" />
<glyph unicode="H" horiz-adv-x="1566" d="M205 0q20 114 60 344t61 344l131 746h225l-104 -598h706l105 598h225l-252 -1434h-225l110 631h-706l-111 -631h-225z" />
<glyph unicode="I" horiz-adv-x="614" d="M195 0l251 1434h226l-252 -1434h-225z" />
<glyph unicode="J" horiz-adv-x="1226" d="M98 322l187 104q30 -125 105 -188.5t183 -63.5q137 0 227 89.5t122 268.5l157 902h215l-157 -902q-48 -266 -212 -409t-386 -143q-346 0 -441 342z" />
<glyph unicode="K" horiz-adv-x="1525" d="M184 0l252 1434h226l-132 -744l859 744h256l-676 -588l526 -846h-254l-436 702l-322 -278l-73 -424h-226z" />
<glyph unicode="L" horiz-adv-x="1341" d="M205 0l252 1434h225l-215 -1229h819l-37 -205h-1044z" />
<glyph unicode="M" horiz-adv-x="1908" d="M184 0l246 1393l6 41h205l410 -885l721 885h204q-48 -283 -142.5 -817t-109.5 -617h-225l178 1016l-626 -750h-99l-364 750l-178 -1016h-226z" />
<glyph unicode="N" horiz-adv-x="1617" d="M184 0l252 1434h205l633 -1061l186 1061h226l-248 -1405l-4 -29h-205l-633 1061l-186 -1061h-226z" />
<glyph unicode="O" horiz-adv-x="1740" d="M258 586q0 64 12 131q35 200 163 370t312.5 268.5t380.5 98.5q175 0 315 -79.5t218 -218.5t78 -310q0 -56 -13 -129q-35 -200 -163.5 -370t-313.5 -268.5t-381 -98.5q-265 0 -436.5 172.5t-171.5 433.5zM485 610q0 -187 115 -306.5t303 -119.5q215 0 385.5 153.5 t210.5 379.5q10 62 10 106q0 187 -114.5 306.5t-302.5 119.5q-142 0 -269.5 -70.5t-214 -192t-112.5 -269.5q-11 -68 -11 -107z" />
<glyph unicode="P" horiz-adv-x="1316" d="M184 0l252 1434h533q195 0 323.5 -108.5t128.5 -281.5q0 -36 -6 -77q-24 -133 -115 -239t-221 -163t-272 -57h-307l-90 -508h-226zM535 713h307q136 0 232 69.5t116 184.5q4 32 4 47q0 98 -70 156.5t-190 58.5h-307z" />
<glyph unicode="Q" horiz-adv-x="1738" d="M258 586q0 64 12 131q35 200 163 370t312.5 268.5t380.5 98.5q175 0 315 -79.5t218 -218.5t78 -310q0 -56 -13 -129q-46 -256 -241 -461l170 -205l-164 -141l-172 209q-213 -139 -451 -139q-265 0 -436.5 172.5t-171.5 433.5zM485 610q0 -187 115 -306.5t303 -119.5 q152 0 291 84l-158 191l164 139l158 -188q111 132 141 307q10 62 10 106q0 187 -114.5 306.5t-302.5 119.5q-142 0 -269.5 -70.5t-214 -192t-112.5 -269.5q-11 -68 -11 -107z" />
<glyph unicode="R" horiz-adv-x="1470" d="M205 0l252 1434h573q127 0 230 -48.5t163 -138t60 -203.5q0 -36 -6 -77q-25 -147 -131.5 -258t-258.5 -164l312 -545h-256l-291 508h-332l-90 -508h-225zM555 713h348q136 0 232 69.5t116 184.5q4 32 4 47q0 98 -70 156.5t-190 58.5h-348z" />
<glyph unicode="S" horiz-adv-x="1280" d="M143 231l150 158q30 -33 55 -57.5t66 -56.5t81 -52t94.5 -34.5t112.5 -14.5q123 0 207.5 64.5t102.5 160.5q4 28 4 45q0 165 -246 201q-177 25 -290 116.5t-113 235.5q0 31 6 66q20 111 99.5 201.5t193 140t235.5 49.5q147 0 262.5 -48.5t184.5 -131.5l-144 -150 q-56 66 -140.5 101t-176.5 35q-128 0 -207 -54.5t-92 -132.5q-4 -24 -4 -39q0 -71 57.5 -116t183.5 -68q184 -33 296 -125.5t112 -247.5q0 -37 -6 -78q-35 -198 -182.5 -308.5t-376.5 -110.5q-76 0 -146 15.5t-122 38.5t-102.5 58.5t-84.5 67t-70 71.5z" />
<glyph unicode="T" horiz-adv-x="1413" d="M319 1229l35 205h1209l-35 -205h-492l-217 -1229h-225l217 1229h-492z" />
<glyph unicode="U" horiz-adv-x="1556" d="M254 463q0 45 10 110l152 861h215l-152 -861q-6 -38 -6 -69q0 -142 94.5 -236t241.5 -94q108 0 209 53t171 145t89 201l152 861h215l-152 -861q-30 -170 -135 -306t-259 -211.5t-325 -75.5q-231 0 -375.5 134t-144.5 349z" />
<glyph unicode="V" horiz-adv-x="1597" d="M313 1434h236l301 -1139l702 1139h236l-887 -1434h-205z" />
<glyph unicode="W" horiz-adv-x="2181" d="M303 1434h225l156 -1088l530 1088h256l148 -1088l539 1088h225l-723 -1434h-205l-160 1161l-567 -1161h-205z" />
<glyph unicode="X" horiz-adv-x="1536" d="M72 0l700 743l-407 691h256l307 -523l491 523h256l-647 -691l436 -743h-256l-338 575l-542 -575h-256z" />
<glyph unicode="Y" horiz-adv-x="1392" d="M293 1434h246l295 -652l524 652h246l-695 -861l-100 -573h-225l100 573z" />
<glyph unicode="Z" horiz-adv-x="1392" d="M133 0l33 184l1008 1045h-783l35 205h1024h20l-30 -185l-1008 -1044h864l-36 -205h-1106h-21z" />
<glyph unicode="[" horiz-adv-x="624" d="M20 -410l336 1905h492l-35 -197h-287l-266 -1511h287l-35 -197h-492z" />
<glyph unicode="\" horiz-adv-x="880" d="M242 1597h184l467 -1761h-184z" />
<glyph unicode="]" horiz-adv-x="604" d="M-315 -410l69 197h287l532 1511h-286l69 197h492l-672 -1905h-491z" />
<glyph unicode="^" horiz-adv-x="1044" d="M197 881l477 614h225l260 -614h-184l-219 446l-375 -446h-184z" />
<glyph unicode="_" d="M-66 -348l37 205h1237l-37 -205h-1237z" />
<glyph unicode="`" horiz-adv-x="655" d="M387 1495h246l112 -287h-163z" />
<glyph unicode="a" horiz-adv-x="1187" d="M129 258q0 32 6 70q11 62 37 111.5t60.5 84t83.5 59.5t97.5 39.5t111 23t116.5 11t121 2.5h184l2 17q8 54 8 74q0 76 -49.5 108.5t-169.5 32.5q-178 0 -331 -109l-91 140q112 83 216.5 123t250.5 40q190 0 289.5 -83t99.5 -234q0 -48 -8 -92l-119 -676h-215l23 127 q-134 -147 -375 -147q-70 0 -131.5 16.5t-110.5 49t-77.5 87t-28.5 125.5zM346 287q0 -133 223 -133q288 0 326 215l25 139h-123q-416 0 -449 -191q-2 -10 -2 -30z" />
<glyph unicode="b" horiz-adv-x="1341" d="M174 0l264 1495h215l-108 -608q141 198 393 198q165 0 280 -123.5t115 -318.5q0 -46 -10 -111q-21 -119 -80.5 -223.5t-139.5 -175.5t-174.5 -112t-185.5 -41q-247 0 -321 210l-33 -190h-215zM475 449q0 -128 72 -201.5t190 -73.5q136 0 239 97t132 261q8 41 8 89 q0 127 -68 198.5t-184 71.5q-137 0 -244.5 -98t-136.5 -261q-8 -39 -8 -83z" />
<glyph unicode="c" horiz-adv-x="1173" d="M199 436q0 52 8 96q20 112 81.5 214.5t148.5 176.5t197 118t222 44q131 0 230.5 -55t156.5 -153l-149 -129q-37 67 -108.5 105t-162.5 38q-148 0 -261.5 -102.5t-139.5 -256.5q-6 -38 -6 -71q0 -127 76 -207t204 -80q91 0 175.5 37.5t146.5 105.5l106 -129 q-90 -99 -210 -153.5t-252 -54.5q-203 0 -333 130t-130 326z" />
<glyph unicode="d" horiz-adv-x="1341" d="M197 422q0 45 10 110q21 119 80 223.5t138.5 176t173.5 112.5t185 41q254 0 324 -198l109 608h215l-265 -1495h-215l31 178q-141 -198 -393 -198q-165 0 -279 124t-114 318zM414 444q0 -127 68 -198.5t184 -71.5q137 0 244.5 97.5t136.5 260.5q8 39 8 84q0 128 -72 201.5 t-190 73.5q-136 0 -239 -97.5t-132 -261.5q-8 -41 -8 -88z" />
<glyph unicode="e" horiz-adv-x="1259" d="M197 422q0 45 10 110q28 159 121 286.5t224 197t273 69.5q191 0 314 -122t123 -320q0 -39 -11 -111l-10 -61h-827v-25q0 -129 71.5 -200.5t200.5 -71.5q201 0 340 148l109 -134q-88 -97 -218.5 -152.5t-265.5 -55.5q-203 0 -328.5 121.5t-125.5 320.5zM446 629h598v8 q0 120 -62 186q-64 68 -189 68t-214.5 -68.5t-132.5 -193.5z" />
<glyph unicode="f" horiz-adv-x="768" d="M215 0l154 870h-144l35 195h143l25 143q22 124 131.5 216t243.5 92q91 0 155.5 -29t98.5 -78l-127 -145q-41 57 -148 57q-52 0 -91.5 -33.5t-47.5 -79.5l-25 -143h304l-35 -195h-303l-154 -870h-215z" />
<glyph unicode="g" horiz-adv-x="1341" d="M78 -221l160 135q94 -170 378 -170q127 0 223.5 76t121.5 221l22 133q-137 -194 -373 -194q-177 0 -295 123.5t-118 318.5q0 45 10 110q21 119 80.5 223.5t141 176t180 112.5t196.5 41q238 0 305 -194l31 174h215l-180 -1024q-19 -104 -77.5 -196.5t-139.5 -156.5 t-180 -101.5t-197 -37.5q-374 0 -504 230zM414 444q0 -127 68 -198.5t184 -71.5q137 0 244.5 97.5t136.5 260.5q8 39 8 84q0 128 -72 201.5t-190 73.5q-136 0 -239 -97.5t-132 -261.5q-8 -41 -8 -88z" />
<glyph unicode="h" horiz-adv-x="1300" d="M174 0l264 1495h215l-104 -594q134 184 358 184q166 0 257 -99.5t91 -262.5q0 -47 -10 -109l-108 -614h-215l108 614q10 62 10 101q0 86 -46 131t-160 45q-137 0 -227 -81.5t-118 -234.5l-100 -575h-215z" />
<glyph unicode="i" horiz-adv-x="522" d="M154 0l188 1065h215l-188 -1065h-215zM365 1370q0 19 2 27q11 59 58 99t105 40q52 0 84.5 -31.5t32.5 -81.5q0 -18 -2 -26q-11 -59 -58.5 -99.5t-105.5 -40.5q-52 0 -84 31.5t-32 81.5z" />
<glyph unicode="j" horiz-adv-x="522" d="M-274 -324l129 146q43 -58 149 -58q108 0 131 134l207 1167h215l-211 -1188q-22 -125 -126.5 -216t-237.5 -91q-89 0 -156.5 27t-99.5 79zM365 1370q0 19 2 27q11 59 58 99t105 40q52 0 84.5 -31.5t32.5 -81.5q0 -18 -2 -26q-11 -59 -58.5 -99.5t-105.5 -40.5 q-52 0 -84 31.5t-32 81.5z" />
<glyph unicode="k" horiz-adv-x="1259" d="M154 0l264 1495h215l-178 -1010l663 580h258l-540 -469l393 -596h-242l-309 459l-270 -234l-39 -225h-215z" />
<glyph unicode="l" horiz-adv-x="542" d="M164 0l264 1495h215l-264 -1495h-215z" />
<glyph unicode="m" horiz-adv-x="1843" d="M154 0l188 1065h215l-25 -141q119 161 334 161q251 0 289 -231q123 231 377 231q151 0 225 -90t74 -245q0 -66 -12 -136l-109 -614h-215l109 614q10 65 10 109q0 86 -39.5 132t-134.5 46q-113 0 -193 -86.5t-108 -239.5l-101 -575h-213l109 614q12 82 12 113 q0 84 -39.5 129t-132.5 45q-113 0 -195 -86.5t-110 -239.5l-100 -575h-215z" />
<glyph unicode="n" horiz-adv-x="1300" d="M174 0l188 1065h216l-31 -166q136 186 381 186q153 0 240 -100.5t87 -261.5q0 -47 -10 -109l-108 -614h-215l108 614q10 62 10 101q0 86 -46 131t-160 45q-136 0 -226.5 -82t-118.5 -234l-100 -575h-215z" />
<glyph unicode="o" horiz-adv-x="1331" d="M199 436q0 52 8 96q20 112 81.5 214.5t148.5 176.5t197 118t222 44q203 0 334 -130t131 -326q0 -53 -8 -97q-26 -150 -123 -277t-237.5 -201t-290.5 -74q-203 0 -333 130t-130 326zM416 461q0 -127 76 -207t204 -80q148 0 262 102.5t140 255.5q6 38 6 72q0 127 -76.5 207 t-204.5 80q-148 0 -261.5 -102.5t-139.5 -256.5q-6 -38 -6 -71z" />
<glyph unicode="p" horiz-adv-x="1341" d="M102 -410l260 1475h216l-33 -178q141 198 393 198q165 0 280 -123.5t115 -318.5q0 -46 -10 -111q-21 -119 -80.5 -223.5t-139.5 -175.5t-174.5 -112t-185.5 -41q-253 0 -323 198l-103 -588h-215zM475 449q0 -128 72 -201.5t190 -73.5q136 0 239 97t132 261q8 41 8 89 q0 127 -68 198.5t-184 71.5q-137 0 -244.5 -98t-136.5 -261q-8 -39 -8 -83z" />
<glyph unicode="q" horiz-adv-x="1341" d="M197 422q0 45 10 110q21 119 80.5 223.5t141 176t180 112.5t196.5 41q238 0 305 -194l31 174h215l-260 -1475h-215l102 584q-137 -194 -373 -194q-177 0 -295 123.5t-118 318.5zM414 444q0 -127 68 -198.5t184 -71.5q137 0 244.5 97.5t136.5 260.5q8 39 8 84 q0 128 -72 201.5t-190 73.5q-136 0 -239 -97.5t-132 -261.5q-8 -41 -8 -88z" />
<glyph unicode="r" horiz-adv-x="839" d="M174 0l188 1065h216l-35 -193q145 193 424 193l-35 -195h-41q-178 0 -276.5 -75.5t-127.5 -241.5l-98 -553h-215z" />
<glyph unicode="s" horiz-adv-x="1064" d="M129 213l164 131q62 -83 132.5 -126.5t168.5 -43.5q196 0 217 123q4 20 4 33q0 47 -47.5 80.5t-173.5 52.5q-59 9 -104.5 20.5t-87.5 31.5t-69 46.5t-43 65.5t-16 88q0 23 7 67q21 121 145 212t287 91q107 0 184 -22.5t121 -56.5t82 -88l-152 -140q-91 113 -268 113 q-81 0 -128 -33.5t-54 -73.5q-2 -10 -2 -28q0 -38 39.5 -63t152.5 -44q169 -29 256.5 -92t87.5 -186q0 -33 -6 -70q-26 -145 -144.5 -233t-322.5 -88q-157 0 -257.5 60t-172.5 173z" />
<glyph unicode="t" horiz-adv-x="880" d="M236 870l34 195h144l55 313h215l-55 -313h338l-35 -195h-338l-102 -583q-3 -12 -3 -21q0 -40 27 -66t76 -26q101 0 166 62l80 -150q-119 -106 -293 -106q-120 0 -196.5 75t-76.5 183q0 17 4 49l103 583h-143z" />
<glyph unicode="u" horiz-adv-x="1300" d="M233 340q0 40 11 111l108 614h215l-108 -614q-10 -62 -10 -101q0 -86 46 -131t160 -45q136 0 225 82.5t117 235.5l103 573h215l-189 -1065h-215l29 166q-136 -186 -381 -186q-153 0 -239.5 99.5t-86.5 260.5z" />
<glyph unicode="v" horiz-adv-x="1208" d="M240 1065h215l194 -809l481 809h216l-639 -1065h-205z" />
<glyph unicode="w" horiz-adv-x="1628" d="M250 1065h215l43 -768l407 768h175l135 -768l315 768h215l-475 -1065h-195l-135 772l-407 -772h-195z" />
<glyph unicode="x" horiz-adv-x="1259" d="M61 0l545 559l-315 506h246l219 -352l344 352h246l-494 -506l346 -559h-246l-252 403l-393 -403h-246z" />
<glyph unicode="y" horiz-adv-x="1185" d="M29 -307l131 149q58 -78 143 -78q102 0 164 113l72 129l-281 1059h225l205 -786l430 786h215l-575 -1053v-2h-2l-74 -133q-168 -307 -401 -307q-85 0 -151.5 34t-100.5 89z" />
<glyph unicode="z" horiz-adv-x="1167" d="M113 0l30 174l781 696h-617l35 195h881l-31 -174l-780 -696h678l-35 -195h-942z" />
<glyph unicode="{" horiz-adv-x="755" d="M190 440l37 205q53 0 90 6.5t58 16t34.5 28.5t18.5 36t10 46l72 410q23 128 141.5 217.5t294.5 89.5l-22 -195q-110 0 -156.5 -40.5t-58.5 -112.5l-66 -369q-14 -74 -62.5 -135.5t-125.5 -99.5q108 -65 108 -187q0 -33 -4 -49l-63 -368q-4 -28 -4 -43q0 -52 36 -81.5 t127 -29.5l-45 -195q-158 0 -244.5 73.5t-86.5 184.5q0 18 4 50l71 409q4 28 4 39q0 47 -36.5 70.5t-131.5 23.5z" />
<glyph unicode="|" horiz-adv-x="655" d="M207 -164l311 1761h184l-311 -1761h-184z" />
<glyph unicode="}" horiz-adv-x="714" d="M-180 -410l22 195q110 0 156.5 41t58.5 113l66 368q14 75 62.5 136.5t125.5 99.5q-108 64 -108 186q0 33 4 49l63 369q4 28 4 43q0 51 -36 80.5t-127 29.5l45 195q158 0 244.5 -73.5t86.5 -184.5q0 -17 -4 -49l-71 -410q-4 -28 -4 -39q0 -48 36 -71t131 -23l-36 -205 q-53 0 -90 -6.5t-58 -16t-34.5 -28.5t-18.5 -36t-10 -46l-72 -409q-23 -128 -141.5 -218t-294.5 -90z" />
<glyph unicode="~" horiz-adv-x="962" d="M162 397q26 114 98.5 177t155.5 63q44 0 91 -20.5t80 -45t71.5 -45t68.5 -20.5q63 0 92 35.5t41 101.5l117 -41q-29 -126 -97 -183t-153 -57q-43 0 -87.5 20.5t-75.5 45.5t-68 45.5t-66 20.5q-62 0 -90.5 -36t-40.5 -102z" />
<glyph unicode="&#xa1;" horiz-adv-x="389" d="M-190 -430l88 491l141 492h131l-31 -492l-88 -491h-241zM14 903q0 19 2 27q10 64 64.5 109.5t118.5 45.5q56 0 91.5 -36.5t35.5 -92.5q0 -18 -2 -26q-10 -64 -64 -110t-117 -46q-57 0 -93 36.5t-36 92.5z" />
<glyph unicode="&#xa2;" d="M219 436q0 52 8 96q25 141 112.5 263t215 198.5t268.5 89.5l27 146h123l-27 -148q107 -13 189 -66t129 -138l-150 -129q-29 54 -82 89.5t-121 47.5l-123 -705q147 24 250 137l107 -129q-163 -177 -391 -204l-27 -148h-123l27 146q-182 17 -297 144.5t-115 309.5zM436 459 q0 -112 61 -189t167 -92l127 709q-130 -19 -227 -118t-122 -237q-6 -40 -6 -73z" />
<glyph unicode="&#xa3;" d="M117 -2q114 143 176.5 252.5t82 180.5t19.5 151v22h-196l34 195h152v45q0 118 21 241q29 168 154.5 268.5t307.5 100.5q123 0 216 -56t135 -149l-134 -141q-33 65 -96.5 108.5t-142.5 43.5q-207 0 -236 -175q-18 -102 -18 -286h252l-35 -195h-221q-8 -118 -47.5 -222.5 t-132.5 -211.5q76 18 153 18q71 0 162 -34.5t131 -34.5q66 0 114 28.5t91 88.5l102 -93q-95 -209 -325 -209q-72 0 -142.5 23t-125.5 45.5t-89 22.5q-67 0 -109 -17t-81 -59z" />
<glyph unicode="&#xa4;" d="M104 221l211 180q-36 68 -36 162q0 90 34 177t88 149l-147 180l147 125l148 -180q121 73 258 73q134 0 229 -73l213 180l103 -125l-211 -180q37 -73 37 -164q0 -89 -35 -175.5t-90 -150.5l147 -178l-145 -125l-148 180q-121 -73 -258 -73q-134 0 -229 73l-213 -180z M455 590q0 -98 61.5 -160.5t163.5 -62.5q116 0 206.5 79.5t112.5 198.5q5 22 5 55q0 98 -62 161t-164 63q-116 0 -206.5 -80t-112.5 -199q-4 -18 -4 -55z" />
<glyph unicode="&#xa5;" d="M180 213l64 125h387l61 184h-354l63 125h293l-176 787h215l146 -652l575 652h215l-696 -787h534l-63 -125h-553l-62 -184h521l-64 -125h-498l-71 -213h-197l70 213h-410z" />
<glyph unicode="&#xa6;" horiz-adv-x="614" d="M207 -164l129 737h143l-129 -737h-143zM401 942l117 655h144l-117 -655h-144z" />
<glyph unicode="&#xa7;" horiz-adv-x="1064" d="M129 213l131 104q31 -42 61 -72.5t69.5 -57t88.5 -40.5t107 -14q115 0 188 39.5t86 114.5q2 6 2 20q0 52 -61.5 82.5t-210.5 52.5q-70 9 -132 40t-105.5 85.5t-43.5 120.5q0 127 156 268q-80 64 -80 162q0 26 6 56q21 119 142 199.5t286 80.5q80 0 143 -13.5t108.5 -39.5 t74.5 -51.5t61 -63.5l-121 -112q-61 63 -122.5 94.5t-169.5 31.5q-112 0 -170 -35.5t-68 -90.5q-2 -10 -2 -31q0 -54 50 -76.5t192 -46.5q81 -13 148.5 -42t115 -80.5t47.5 -115.5q0 -121 -158 -264q84 -49 84 -156q0 -17 -8 -75q-24 -131 -143.5 -219t-321.5 -88 q-157 0 -257.5 60t-172.5 173zM463 733q0 -109 215 -145q129 -20 178 -33q94 108 94 180q0 61 -64 92.5t-179 46.5q-86 12 -156 37q-88 -110 -88 -178z" />
<glyph unicode="&#xa8;" horiz-adv-x="1024" d="M596 1292q0 21 10 51q23 64 84.5 110t124.5 46q49 0 79 -28.5t30 -73.5q0 -21 -11 -54q-23 -65 -83 -110t-123 -45q-49 0 -80 29t-31 75zM1047 1292q0 21 10 51q23 64 84.5 110t124.5 46q49 0 78.5 -28.5t29.5 -73.5q0 -24 -10 -54q-23 -65 -83.5 -110t-123.5 -45 q-49 0 -79.5 29t-30.5 75z" />
<glyph unicode="&#xa9;" horiz-adv-x="1740" d="M143 717q0 200 98 370t265.5 268.5t363.5 98.5t363.5 -98.5t265.5 -268.5t98 -370t-98 -370t-265.5 -268.5t-363.5 -98.5t-363.5 98.5t-265.5 268.5t-98 370zM231 717q0 -133 51 -254t137 -209t204 -140.5t247 -52.5t247 52.5t204 140.5t137 209t51 254t-51 254t-137 209 t-204 140t-247 52t-247 -52t-204 -140t-137 -209t-51 -254zM580 651q0 31 6 66q28 153 153.5 260.5t276.5 107.5q80 0 144.5 -33.5t105.5 -93.5l-82 -69q-64 94 -187 94q-107 0 -193 -76.5t-106 -189.5q-4 -18 -4 -51q0 -94 57.5 -154.5t151.5 -60.5q122 0 219 94l58 -70 q-61 -60 -138 -93.5t-157 -33.5q-133 0 -219 86.5t-86 216.5z" />
<glyph unicode="&#xaa;" horiz-adv-x="1095" d="M197 836q0 33 4 51q9 54 32.5 95.5t60 68t76.5 44t94 26t100 11.5t106 3h137q6 37 6 65q0 58 -35.5 83.5t-126.5 25.5q-135 0 -248 -80l-67 102q82 63 161 93t189 30q143 0 217 -63t74 -177q0 -30 -6 -67l-90 -506h-160l16 96q-99 -110 -280 -110q-111 0 -185.5 53 t-74.5 156zM285 393l39 146h682l-39 -146h-682zM358 854q0 -98 168 -98q212 0 242 162l20 104h-92q-311 0 -336 -143q-2 -8 -2 -25z" />
<glyph unicode="&#xab;" horiz-adv-x="1212" d="M131 635l23 194l620 390l-22 -195l-465 -291l401 -293l-22 -194zM643 635l23 194l620 390l-22 -195l-465 -291l401 -293l-22 -194z" />
<glyph unicode="&#xac;" horiz-adv-x="1105" d="M362 717l72 194h696l-6 -20h6l-59 -328h-143l28 154h-594z" />
<glyph unicode="&#xad;" horiz-adv-x="962" d="M326 512l73 195h697l-74 -195h-696z" />
<glyph unicode="&#xae;" horiz-adv-x="1740" d="M143 717q0 200 98 370t265.5 268.5t363.5 98.5t363.5 -98.5t265.5 -268.5t98 -370t-98 -370t-265.5 -268.5t-363.5 -98.5t-363.5 98.5t-265.5 268.5t-98 370zM231 717q0 -133 51 -254t137 -209t204 -140.5t247 -52.5t247 52.5t204 140.5t137 209t51 254t-51 254t-137 209 t-204 140t-247 52t-247 -52t-204 -140t-137 -209t-51 -254zM618 358l127 717h287q98 0 163 -54t65 -140q0 -4 -5 -39q-13 -73 -66.5 -129.5t-129.5 -81.5l158 -273h-130l-145 254h-166l-45 -254h-113zM795 715h174q68 0 116 34.5t58 92.5q2 8 2 24q0 48 -36 77.5t-95 29.5 h-174z" />
<glyph unicode="&#xaf;" horiz-adv-x="614" d="M256 1475l29 163h622l-28 -163h-623z" />
<glyph unicode="&#xb0;" horiz-adv-x="819" d="M446 1356q0 7 5 37q15 85 85.5 144.5t155.5 59.5q75 0 123.5 -47.5t48.5 -119.5q0 -13 -4 -37q-15 -85 -86 -145t-156 -60q-75 0 -123.5 48t-48.5 120zM510 1366q0 -51 33.5 -84t87.5 -33q60 0 108.5 42t59.5 102q2 8 2 26q0 51 -33.5 84t-87.5 33q-60 0 -108.5 -41.5 t-59.5 -101.5q-2 -8 -2 -27z" />
<glyph unicode="&#xb1;" horiz-adv-x="1044" d="M174 711l35 172h358l66 323h205l-66 -323h358l-34 -172h-359l-63 -324h-205l63 324h-358zM197 123l51 194h921l-51 -194h-921z" />
<glyph unicode="&#xb2;" horiz-adv-x="614" d="M51 729l15 86l299 221q87 64 118.5 105.5t42.5 103.5q2 6 2 19q0 41 -29.5 67.5t-80.5 26.5q-110 0 -195 -144l-78 50q47 85 125 137.5t166 52.5t143.5 -51.5t55.5 -130.5q0 -23 -2 -35q-13 -75 -55.5 -129t-139.5 -123l-223 -160h365l-17 -96h-491h-21z" />
<glyph unicode="&#xb3;" horiz-adv-x="614" d="M70 827l77 66q23 -40 70.5 -60t104.5 -20q68 0 114 29t56 88q2 8 2 22q0 103 -181 103q2 12 7.5 36.5t7.5 38.5l4 21q87 0 132.5 30.5t53.5 78.5q2 8 2 22q0 74 -102 74q-98 0 -176 -78l-56 65q54 52 112 81.5t138 29.5q90 0 142.5 -43t52.5 -111q0 -20 -2 -30 q-18 -109 -129 -160q102 -34 102 -135q0 -13 -4 -45q-18 -102 -102.5 -157.5t-190.5 -55.5q-167 0 -235 110z" />
<glyph unicode="&#xb4;" horiz-adv-x="655" d="M336 1208l215 287h246l-297 -287h-164z" />
<glyph unicode="&#xb5;" horiz-adv-x="1300" d="M82 -406l156 809l6 48l108 614h215l-108 -614q-10 -62 -10 -101q0 -86 46 -131t160 -45q136 0 225 82.5t117 235.5l103 573h215l-189 -1065h-215l29 166q-136 -186 -381 -186q-108 0 -188 55l-84 -441h-205z" />
<glyph unicode="&#xb6;" d="M322 909q0 37 6 74q17 95 73.5 181t132 144t161 92t161.5 34h471l-252 -1434h-164l238 1343h-143l-238 -1343h-164l93 532q-93 1 -178.5 47t-141 134t-55.5 196zM723 678l6 37q-4 -24 -6 -37z" />
<glyph unicode="&#xb7;" horiz-adv-x="389" d="M195 621q0 18 2 26q10 64 63.5 110t116.5 46q57 0 93 -36.5t36 -92.5q0 -19 -2 -27q-10 -64 -64 -109.5t-118 -45.5q-56 0 -91.5 36.5t-35.5 92.5z" />
<glyph unicode="&#xb8;" horiz-adv-x="655" d="M51 -338l62 123q55 -51 112 -51q94 0 105 63q0 2 1 8t1 9q0 51 -43.5 118.5t-106.5 128.5h82q10 -8 52 -39.5t60.5 -47.5t46.5 -44.5t40 -57t12 -58.5q0 -15 -2 -23q-16 -94 -69 -141t-166 -47q-54 0 -106 17t-81 42z" />
<glyph unicode="&#xb9;" d="M666 717l206 586l-170 -95l-18 82l246 144h102l-254 -717h-112z" />
<glyph unicode="&#xba;" horiz-adv-x="1095" d="M193 971q0 35 6 73q31 172 173 293t314 121q153 0 250.5 -96.5t97.5 -243.5q0 -36 -6 -74q-31 -172 -173 -292.5t-314 -120.5q-153 0 -250.5 96.5t-97.5 243.5zM264 393l43 146h791l-43 -146h-791zM356 989q0 -94 56.5 -153.5t152.5 -59.5q111 0 196 76.5t105 191.5 q4 18 4 56q0 94 -56 153.5t-152 59.5q-111 0 -196.5 -77t-105.5 -192q-4 -18 -4 -55z" />
<glyph unicode="&#xbb;" horiz-adv-x="1212" d="M-74 246l23 194l465 291l-402 293l23 195l534 -390l-22 -194zM438 246l23 194l465 291l-402 293l23 195l534 -390l-22 -194z" />
<glyph unicode="&#xbf;" horiz-adv-x="1136" d="M-115 -135q0 31 6 61q25 138 107.5 223.5t224.5 149.5q72 31 105.5 55.5t56 70t37.5 128.5h205q-2 -45 -8.5 -84.5t-15 -69.5t-24 -57t-28.5 -46.5t-35 -38t-38 -30t-43 -25.5t-44 -21.5t-46.5 -20.5t-45.5 -21q-170 -77 -193 -213q-2 -10 -2 -28q0 -67 56.5 -110.5 t158.5 -43.5q215 0 375 219l146 -113q-93 -140 -232.5 -220.5t-320.5 -80.5q-191 0 -296.5 89t-105.5 227zM424 903q0 19 2 27q10 64 64 109.5t118 45.5q56 0 91.5 -36.5t35.5 -92.5q0 -18 -2 -26q-10 -64 -63.5 -110t-116.5 -46q-57 0 -93 36.5t-36 92.5z" />
<glyph unicode="&#xc0;" horiz-adv-x="1638" d="M61 0l908 1434h205l403 -1434h-225l-99 358h-743l-223 -358h-226zM633 553h567l-172 633zM729 1864h246l115 -287h-164z" />
<glyph unicode="&#xc1;" horiz-adv-x="1638" d="M61 0l908 1434h205l403 -1434h-225l-99 358h-743l-223 -358h-226zM633 553h567l-172 633zM926 1577l213 287h245l-294 -287h-164z" />
<glyph unicode="&#xc2;" horiz-adv-x="1638" d="M61 0l908 1434h205l403 -1434h-225l-99 358h-743l-223 -358h-226zM633 553h567l-172 633zM705 1577l239 205h225l170 -205h-184l-111 133l-155 -133h-184z" />
<glyph unicode="&#xc3;" horiz-adv-x="1638" d="M61 0l908 1434h205l403 -1434h-225l-99 358h-743l-223 -358h-226zM606 1618q26 112 108.5 176t168.5 64q56 0 116 -23t112.5 -45.5t88.5 -22.5q57 0 87 21t40 76l156 -41q-12 -52 -36 -94t-54 -68.5t-65.5 -44.5t-68.5 -25.5t-65 -7.5q-54 0 -111.5 22.5t-107.5 45 t-86 22.5q-56 0 -85.5 -20.5t-39.5 -75.5zM633 553h567l-172 633z" />
<glyph unicode="&#xc4;" horiz-adv-x="1638" d="M61 0l908 1434h205l403 -1434h-225l-99 358h-743l-223 -358h-226zM633 553h567l-172 633zM879 1679q0 24 10 54q23 64 84.5 109.5t124.5 45.5q49 0 78.5 -28.5t29.5 -73.5q0 -23 -10 -53q-23 -64 -84.5 -110t-124.5 -46q-49 0 -78.5 28.5t-29.5 73.5zM1329 1679 q0 24 10 54q23 64 84.5 109.5t124.5 45.5q49 0 79 -28.5t30 -73.5q0 -23 -10 -53q-23 -64 -84.5 -110t-124.5 -46q-49 0 -79 28.5t-30 73.5z" />
<glyph unicode="&#xc5;" horiz-adv-x="1638" d="M61 0l867 1368q-45 20 -71 61t-26 93q0 16 3 34q15 85 85.5 145t155.5 60q75 0 123.5 -48t48.5 -120q0 -13 -4 -37q-12 -71 -67 -126l401 -1430h-225l-99 358h-743l-223 -358h-226zM633 553h567l-172 633zM934 1538q0 -37 24.5 -60.5t63.5 -23.5q44 0 77.5 29t41.5 73 q2 6 2 21q0 37 -23.5 59.5t-62.5 22.5q-44 0 -79 -29.5t-42 -73.5q-2 -6 -2 -18z" />
<glyph unicode="&#xc6;" horiz-adv-x="2232" d="M82 0l819 1434h256l-10 -205h-156l-393 -697h582q18 117 26 156q13 72 60 336.5t71 409.5h1045l-35 -205h-819l-70 -393h717l-37 -205h-717l-73 -426h819l-37 -205h-1045l60 338h-658l-190 -338h-215z" />
<glyph unicode="&#xc7;" horiz-adv-x="1499" d="M258 586q0 64 12 131q35 200 163 370t312.5 268.5t380.5 98.5q160 0 291.5 -67t212.5 -185l-164 -139q-126 186 -374 186q-142 0 -269.5 -70.5t-214 -192t-112.5 -269.5q-11 -68 -11 -107q0 -187 115 -306.5t303 -119.5q246 0 440 187l115 -140q-109 -104 -243 -169 t-277 -78q5 -4 28.5 -21t31 -23t28 -22.5t29 -25.5t24.5 -25t23 -28t15.5 -27.5t12 -31.5t3.5 -32q0 -12 -3 -24q-16 -94 -69 -141.5t-166 -47.5q-54 0 -105.5 17t-80.5 42l61 123q55 -51 113 -51q93 0 104 64q0 3 1 8t1 8q0 48 -38.5 111.5t-96.5 122.5q-172 3 -308.5 83 t-212 217.5t-75.5 305.5z" />
<glyph unicode="&#xc8;" horiz-adv-x="1372" d="M205 0q20 114 60 344t61 344q13 72 60 336.5t71 409.5h1044l-35 -205h-819l-69 -393h716l-37 -205h-716l-74 -426h819l-37 -205h-1044zM664 1864h245l113 -287h-164z" />
<glyph unicode="&#xc9;" horiz-adv-x="1372" d="M205 0q20 114 60 344t61 344q13 72 60 336.5t71 409.5h1044l-35 -205h-819l-69 -393h716l-37 -205h-716l-74 -426h819l-37 -205h-1044zM858 1577l215 287h246l-297 -287h-164z" />
<glyph unicode="&#xca;" horiz-adv-x="1372" d="M205 0q20 114 60 344t61 344q13 72 60 336.5t71 409.5h1044l-35 -205h-819l-69 -393h716l-37 -205h-716l-74 -426h819l-37 -205h-1044zM637 1577l242 205h225l168 -205h-185l-108 133l-158 -133h-184z" />
<glyph unicode="&#xcb;" horiz-adv-x="1372" d="M205 0q20 114 60 344t61 344q13 72 60 336.5t71 409.5h1044l-35 -205h-819l-69 -393h716l-37 -205h-716l-74 -426h819l-37 -205h-1044zM811 1681q0 22 10 52q23 64 84.5 109.5t124.5 45.5q49 0 79 -28.5t30 -73.5q0 -20 -11 -53q-23 -65 -83 -110.5t-123 -45.5 q-49 0 -80 29t-31 75zM1262 1681q0 22 10 52q23 64 84.5 109.5t124.5 45.5q49 0 78.5 -28.5t29.5 -73.5q0 -23 -10 -53q-23 -65 -83.5 -110.5t-123.5 -45.5q-49 0 -79.5 29t-30.5 75z" />
<glyph unicode="&#xcc;" horiz-adv-x="614" d="M195 0l251 1434h226l-252 -1434h-225zM217 1864h246l115 -287h-164z" />
<glyph unicode="&#xcd;" horiz-adv-x="614" d="M195 0l251 1434h226l-252 -1434h-225zM414 1577l213 287h245l-294 -287h-164z" />
<glyph unicode="&#xce;" horiz-adv-x="614" d="M193 1577l239 205h225l170 -205h-184l-111 133l-155 -133h-184zM195 0l251 1434h226l-252 -1434h-225z" />
<glyph unicode="&#xcf;" horiz-adv-x="614" d="M195 0l251 1434h226l-252 -1434h-225zM367 1679q0 24 10 54q23 64 84.5 109.5t124.5 45.5q49 0 78.5 -28.5t29.5 -73.5q0 -23 -10 -53q-23 -64 -84.5 -110t-124.5 -46q-49 0 -78.5 28.5t-29.5 73.5zM817 1679q0 24 10 54q23 64 84.5 109.5t124.5 45.5q49 0 79 -28.5 t30 -73.5q0 -23 -10 -53q-23 -64 -84.5 -110t-124.5 -46q-49 0 -79 28.5t-30 73.5z" />
<glyph unicode="&#xd1;" horiz-adv-x="1617" d="M184 0l252 1434h205l633 -1061l186 1061h226l-248 -1405l-4 -29h-205l-633 1061l-186 -1061h-226zM590 1618q26 112 108 176t168 64q56 0 117 -23t114 -45.5t89 -22.5q56 0 85.5 21t39.5 76l157 -41q-15 -64 -48 -113t-75 -75.5t-84 -39t-83 -12.5q-54 0 -112 22.5 t-108 45t-86 22.5q-55 0 -83.5 -20.5t-38.5 -75.5z" />
<glyph unicode="&#xd2;" horiz-adv-x="1740" d="M258 586q0 64 12 131q35 200 163 370t312.5 268.5t380.5 98.5q175 0 315 -79.5t218 -218.5t78 -310q0 -56 -13 -129q-35 -200 -163.5 -370t-313.5 -268.5t-381 -98.5q-265 0 -436.5 172.5t-171.5 433.5zM485 610q0 -187 115 -306.5t303 -119.5q215 0 385.5 153.5 t210.5 379.5q10 62 10 106q0 187 -114.5 306.5t-302.5 119.5q-142 0 -269.5 -70.5t-214 -192t-112.5 -269.5q-11 -68 -11 -107zM807 1864h246l112 -287h-164z" />
<glyph unicode="&#xd3;" horiz-adv-x="1740" d="M258 586q0 64 12 131q35 200 163 370t312.5 268.5t380.5 98.5q175 0 315 -79.5t218 -218.5t78 -310q0 -56 -13 -129q-35 -200 -163.5 -370t-313.5 -268.5t-381 -98.5q-265 0 -436.5 172.5t-171.5 433.5zM485 610q0 -187 115 -306.5t303 -119.5q215 0 385.5 153.5 t210.5 379.5q10 62 10 106q0 187 -114.5 306.5t-302.5 119.5q-142 0 -269.5 -70.5t-214 -192t-112.5 -269.5q-11 -68 -11 -107zM1001 1577l216 287h245l-297 -287h-164z" />
<glyph unicode="&#xd4;" horiz-adv-x="1740" d="M258 586q0 64 12 131q35 200 163 370t312.5 268.5t380.5 98.5q175 0 315 -79.5t218 -218.5t78 -310q0 -56 -13 -129q-35 -200 -163.5 -370t-313.5 -268.5t-381 -98.5q-265 0 -436.5 172.5t-171.5 433.5zM485 610q0 -187 115 -306.5t303 -119.5q215 0 385.5 153.5 t210.5 379.5q10 62 10 106q0 187 -114.5 306.5t-302.5 119.5q-142 0 -269.5 -70.5t-214 -192t-112.5 -269.5q-11 -68 -11 -107zM780 1577l242 205h225l168 -205h-184l-109 133l-157 -133h-185z" />
<glyph unicode="&#xd5;" horiz-adv-x="1740" d="M258 586q0 64 12 131q35 200 163 370t312.5 268.5t380.5 98.5q175 0 315 -79.5t218 -218.5t78 -310q0 -56 -13 -129q-35 -200 -163.5 -370t-313.5 -268.5t-381 -98.5q-265 0 -436.5 172.5t-171.5 433.5zM485 610q0 -187 115 -306.5t303 -119.5q215 0 385.5 153.5 t210.5 379.5q10 62 10 106q0 187 -114.5 306.5t-302.5 119.5q-142 0 -269.5 -70.5t-214 -192t-112.5 -269.5q-11 -68 -11 -107zM682 1618q26 112 108 176t168 64q56 0 117 -23t114 -45.5t89 -22.5q56 0 85.5 21t39.5 76l158 -41q-15 -64 -48 -113t-75 -75.5t-84.5 -39 t-83.5 -12.5q-54 0 -111.5 22.5t-107.5 45t-86 22.5q-55 0 -84 -20.5t-39 -75.5z" />
<glyph unicode="&#xd6;" horiz-adv-x="1740" d="M258 586q0 64 12 131q35 200 163 370t312.5 268.5t380.5 98.5q175 0 315 -79.5t218 -218.5t78 -310q0 -56 -13 -129q-35 -200 -163.5 -370t-313.5 -268.5t-381 -98.5q-265 0 -436.5 172.5t-171.5 433.5zM485 610q0 -187 115 -306.5t303 -119.5q215 0 385.5 153.5 t210.5 379.5q10 62 10 106q0 187 -114.5 306.5t-302.5 119.5q-142 0 -269.5 -70.5t-214 -192t-112.5 -269.5q-11 -68 -11 -107zM954 1681q0 19 11 52q23 64 84.5 109.5t124.5 45.5q49 0 78.5 -28.5t29.5 -73.5q0 -23 -10 -53q-23 -65 -83.5 -110.5t-123.5 -45.5 q-49 0 -80 29t-31 75zM1405 1681q0 22 10 52q23 64 84.5 109.5t124.5 45.5q49 0 79 -28.5t30 -73.5q0 -20 -11 -53q-23 -65 -83 -110.5t-123 -45.5q-49 0 -80 29t-31 75z" />
<glyph unicode="&#xd9;" horiz-adv-x="1556" d="M254 463q0 45 10 110l152 861h215l-152 -861q-6 -38 -6 -69q0 -142 94.5 -236t241.5 -94q108 0 209 53t171 145t89 201l152 861h215l-152 -861q-30 -170 -135 -306t-259 -211.5t-325 -75.5q-231 0 -375.5 134t-144.5 349zM694 1864h246l113 -287h-164z" />
<glyph unicode="&#xda;" horiz-adv-x="1556" d="M254 463q0 45 10 110l152 861h215l-152 -861q-6 -38 -6 -69q0 -142 94.5 -236t241.5 -94q108 0 209 53t171 145t89 201l152 861h215l-152 -861q-30 -170 -135 -306t-259 -211.5t-325 -75.5q-231 0 -375.5 134t-144.5 349zM889 1577l215 287h246l-297 -287h-164z" />
<glyph unicode="&#xdb;" horiz-adv-x="1556" d="M254 463q0 45 10 110l152 861h215l-152 -861q-6 -38 -6 -69q0 -142 94.5 -236t241.5 -94q108 0 209 53t171 145t89 201l152 861h215l-152 -861q-30 -170 -135 -306t-259 -211.5t-325 -75.5q-231 0 -375.5 134t-144.5 349zM668 1577l241 205h226l168 -205h-185l-108 133 l-158 -133h-184z" />
<glyph unicode="&#xdc;" horiz-adv-x="1556" d="M254 463q0 45 10 110l152 861h215l-152 -861q-6 -38 -6 -69q0 -142 94.5 -236t241.5 -94q108 0 209 53t171 145t89 201l152 861h215l-152 -861q-30 -170 -135 -306t-259 -211.5t-325 -75.5q-231 0 -375.5 134t-144.5 349zM842 1681q0 22 10 52q23 64 84.5 109.5 t124.5 45.5q49 0 78.5 -28.5t29.5 -73.5q0 -23 -10 -53q-23 -65 -83.5 -110.5t-123.5 -45.5q-49 0 -79.5 29t-30.5 75zM1292 1681q0 19 11 52q23 64 84 109.5t124 45.5q49 0 79 -28.5t30 -73.5q0 -23 -10 -53q-23 -65 -83.5 -110.5t-123.5 -45.5q-49 0 -80 29t-31 75z" />
<glyph unicode="&#xdd;" horiz-adv-x="1392" d="M293 1434h246l295 -652l524 652h246l-695 -861l-100 -573h-225l100 573zM803 1577l213 287h246l-295 -287h-164z" />
<glyph unicode="&#xe0;" horiz-adv-x="1187" d="M129 258q0 32 6 70q11 62 37 111.5t60.5 84t83.5 59.5t97.5 39.5t111 23t116.5 11t121 2.5h184l2 17q8 54 8 74q0 76 -49.5 108.5t-169.5 32.5q-178 0 -331 -109l-91 140q112 83 216.5 123t250.5 40q190 0 289.5 -83t99.5 -234q0 -48 -8 -92l-119 -676h-215l23 127 q-134 -147 -375 -147q-70 0 -131.5 16.5t-110.5 49t-77.5 87t-28.5 125.5zM346 287q0 -133 223 -133q288 0 326 215l25 139h-123q-416 0 -449 -191q-2 -10 -2 -30zM528 1495h246l113 -287h-164z" />
<glyph unicode="&#xe1;" horiz-adv-x="1187" d="M129 258q0 32 6 70q11 62 37 111.5t60.5 84t83.5 59.5t97.5 39.5t111 23t116.5 11t121 2.5h184l2 17q8 54 8 74q0 76 -49.5 108.5t-169.5 32.5q-178 0 -331 -109l-91 140q112 83 216.5 123t250.5 40q190 0 289.5 -83t99.5 -234q0 -48 -8 -92l-119 -676h-215l23 127 q-134 -147 -375 -147q-70 0 -131.5 16.5t-110.5 49t-77.5 87t-28.5 125.5zM346 287q0 -133 223 -133q288 0 326 215l25 139h-123q-416 0 -449 -191q-2 -10 -2 -30zM723 1208l215 287h246l-297 -287h-164z" />
<glyph unicode="&#xe2;" horiz-adv-x="1187" d="M129 258q0 32 6 70q11 62 37 111.5t60.5 84t83.5 59.5t97.5 39.5t111 23t116.5 11t121 2.5h184l2 17q8 54 8 74q0 76 -49.5 108.5t-169.5 32.5q-178 0 -331 -109l-91 140q112 83 216.5 123t250.5 40q190 0 289.5 -83t99.5 -234q0 -48 -8 -92l-119 -676h-215l23 127 q-134 -147 -375 -147q-70 0 -131.5 16.5t-110.5 49t-77.5 87t-28.5 125.5zM346 287q0 -133 223 -133q288 0 326 215l25 139h-123q-416 0 -449 -191q-2 -10 -2 -30zM502 1208l241 205h226l168 -205h-185l-108 133l-158 -133h-184z" />
<glyph unicode="&#xe3;" horiz-adv-x="1187" d="M129 258q0 32 6 70q11 62 37 111.5t60.5 84t83.5 59.5t97.5 39.5t111 23t116.5 11t121 2.5h184l2 17q8 54 8 74q0 76 -49.5 108.5t-169.5 32.5q-178 0 -331 -109l-91 140q112 83 216.5 123t250.5 40q190 0 289.5 -83t99.5 -234q0 -48 -8 -92l-119 -676h-215l23 127 q-134 -147 -375 -147q-70 0 -131.5 16.5t-110.5 49t-77.5 87t-28.5 125.5zM346 287q0 -133 223 -133q288 0 326 215l25 139h-123q-416 0 -449 -191q-2 -10 -2 -30zM403 1249q26 112 108.5 176t168.5 64q56 0 116.5 -22.5t113.5 -45t89 -22.5q57 0 86 20.5t39 75.5l158 -41 q-15 -64 -48 -113t-75 -75.5t-84.5 -39t-83.5 -12.5q-54 0 -111.5 23t-107.5 45.5t-86 22.5q-55 0 -84 -21t-39 -76z" />
<glyph unicode="&#xe4;" horiz-adv-x="1187" d="M129 258q0 32 6 70q11 62 37 111.5t60.5 84t83.5 59.5t97.5 39.5t111 23t116.5 11t121 2.5h184l2 17q8 54 8 74q0 76 -49.5 108.5t-169.5 32.5q-178 0 -331 -109l-91 140q112 83 216.5 123t250.5 40q190 0 289.5 -83t99.5 -234q0 -48 -8 -92l-119 -676h-215l23 127 q-134 -147 -375 -147q-70 0 -131.5 16.5t-110.5 49t-77.5 87t-28.5 125.5zM346 287q0 -133 223 -133q288 0 326 215l25 139h-123q-416 0 -449 -191q-2 -10 -2 -30zM676 1313q0 21 10 51q23 64 84.5 110t124.5 46q49 0 79 -29t30 -74q0 -20 -11 -53q-23 -65 -83.5 -110.5 t-123.5 -45.5q-49 0 -79.5 29.5t-30.5 75.5zM1126 1313q0 18 11 51q23 64 84.5 110t124.5 46q49 0 78.5 -29t29.5 -74q0 -23 -10 -53q-23 -65 -83.5 -110.5t-123.5 -45.5q-49 0 -80 29.5t-31 75.5z" />
<glyph unicode="&#xe5;" horiz-adv-x="1187" d="M129 258q0 32 6 70q11 62 37 111.5t60.5 84t83.5 59.5t97.5 39.5t111 23t116.5 11t121 2.5h184l2 17q8 54 8 74q0 76 -49.5 108.5t-169.5 32.5q-178 0 -331 -109l-91 140q112 83 216.5 123t250.5 40q190 0 289.5 -83t99.5 -234q0 -48 -8 -92l-119 -676h-215l23 127 q-134 -147 -375 -147q-70 0 -131.5 16.5t-110.5 49t-77.5 87t-28.5 125.5zM346 287q0 -133 223 -133q288 0 326 215l25 139h-123q-416 0 -449 -191q-2 -10 -2 -30zM629 1376q0 13 4 37q15 85 85.5 145t155.5 60q75 0 124 -48t49 -120q0 -7 -5 -37q-15 -85 -85.5 -145 t-155.5 -60q-75 0 -123.5 48t-48.5 120zM733 1393q0 -37 23.5 -59.5t62.5 -22.5q44 0 79 29t42 73q2 6 2 21q0 37 -23.5 59.5t-62.5 22.5q-44 0 -79 -29.5t-42 -73.5q-2 -6 -2 -20z" />
<glyph unicode="&#xe7;" horiz-adv-x="1173" d="M199 436q0 52 8 96q20 112 81.5 214.5t148.5 176.5t197 118t222 44q131 0 230.5 -55t156.5 -153l-149 -129q-37 67 -108.5 105t-162.5 38q-148 0 -261.5 -102.5t-139.5 -256.5q-6 -38 -6 -71q0 -127 76 -207t204 -80q91 0 175.5 37.5t146.5 105.5l106 -129 q-163 -180 -393 -204q5 -4 31.5 -23.5t35.5 -26.5t31.5 -25.5t32 -29t25.5 -29t22.5 -33t12.5 -33t6 -36.5q0 -16 -2 -24q-16 -94 -69.5 -141.5t-166.5 -47.5q-54 0 -105.5 17t-80.5 42l61 123q55 -51 113 -51q93 0 104 64q0 3 1 8t1 8q0 48 -38.5 111.5t-96.5 122.5 q-198 4 -324 133.5t-126 322.5z" />
<glyph unicode="&#xe8;" horiz-adv-x="1259" d="M197 422q0 45 10 110q28 159 121 286.5t224 197t273 69.5q191 0 314 -122t123 -320q0 -39 -11 -111l-10 -61h-827v-25q0 -129 71.5 -200.5t200.5 -71.5q201 0 340 148l109 -134q-88 -97 -218.5 -152.5t-265.5 -55.5q-203 0 -328.5 121.5t-125.5 320.5zM446 629h598 q2 126 -62 194t-189 68t-214.5 -68.5t-132.5 -193.5zM561 1495h246l113 -287h-164z" />
<glyph unicode="&#xe9;" horiz-adv-x="1259" d="M197 422q0 45 10 110q28 159 121 286.5t224 197t273 69.5q191 0 314 -122t123 -320q0 -39 -11 -111l-10 -61h-827v-25q0 -129 71.5 -200.5t200.5 -71.5q201 0 340 148l109 -134q-88 -97 -218.5 -152.5t-265.5 -55.5q-203 0 -328.5 121.5t-125.5 320.5zM446 629h598 q2 126 -62 194t-189 68t-214.5 -68.5t-132.5 -193.5zM756 1208l215 287h246l-297 -287h-164z" />
<glyph unicode="&#xea;" horiz-adv-x="1259" d="M197 422q0 45 10 110q28 159 121 286.5t224 197t273 69.5q191 0 314 -122t123 -320q0 -39 -11 -111l-10 -61h-827v-25q0 -129 71.5 -200.5t200.5 -71.5q201 0 340 148l109 -134q-88 -97 -218.5 -152.5t-265.5 -55.5q-203 0 -328.5 121.5t-125.5 320.5zM446 629h598 q2 126 -62 194t-189 68t-214.5 -68.5t-132.5 -193.5zM535 1208l241 205h225l168 -205h-184l-108 133l-158 -133h-184z" />
<glyph unicode="&#xeb;" horiz-adv-x="1259" d="M197 422q0 45 10 110q28 159 121 286.5t224 197t273 69.5q191 0 314 -122t123 -320q0 -39 -11 -111l-10 -61h-827v-25q0 -129 71.5 -200.5t200.5 -71.5q201 0 340 148l109 -134q-88 -97 -218.5 -152.5t-265.5 -55.5q-203 0 -328.5 121.5t-125.5 320.5zM446 629h598 q2 126 -62 194t-189 68t-214.5 -68.5t-132.5 -193.5zM709 1313q0 21 10 51q23 64 84.5 110t124.5 46q49 0 78.5 -29t29.5 -74q0 -23 -10 -53q-23 -65 -83.5 -110.5t-123.5 -45.5q-49 0 -79.5 29.5t-30.5 75.5zM1159 1313q0 21 10 51q23 64 84.5 110t124.5 46q49 0 79 -29 t30 -74q0 -23 -10 -53q-23 -65 -83.5 -110.5t-123.5 -45.5q-49 0 -80 29.5t-31 75.5z" />
<glyph unicode="&#xec;" horiz-adv-x="552" d="M174 0l188 1065h205l-188 -1065h-205zM193 1495h245l113 -287h-164z" />
<glyph unicode="&#xed;" horiz-adv-x="552" d="M174 0l188 1065h205l-188 -1065h-205zM387 1208l215 287h246l-297 -287h-164z" />
<glyph unicode="&#xee;" horiz-adv-x="552" d="M166 1208l242 205h225l168 -205h-185l-108 133l-158 -133h-184zM174 0l188 1065h205l-188 -1065h-205z" />
<glyph unicode="&#xef;" horiz-adv-x="552" d="M174 0l188 1065h205l-188 -1065h-205zM340 1313q0 21 10 51q23 64 84.5 110t124.5 46q49 0 79 -29t30 -74q0 -20 -11 -53q-23 -65 -83 -110.5t-123 -45.5q-49 0 -80 29.5t-31 75.5zM791 1313q0 21 10 51q23 64 84.5 110t124.5 46q49 0 78.5 -29t29.5 -74q0 -23 -10 -53 q-23 -65 -83.5 -110.5t-123.5 -45.5q-49 0 -79.5 29.5t-30.5 75.5z" />
<glyph unicode="&#xf1;" horiz-adv-x="1300" d="M174 0l188 1065h216l-31 -166q136 186 381 186q153 0 240 -100.5t87 -261.5q0 -47 -10 -109l-108 -614h-215l108 614q10 62 10 101q0 86 -46 131t-160 45q-136 0 -226.5 -82t-118.5 -234l-100 -575h-215zM463 1249q26 112 108 176t168 64q56 0 116.5 -22.5t113 -45 t88.5 -22.5q57 0 87 20.5t40 75.5l155 -41q-12 -52 -36 -94t-53.5 -68.5t-65 -44.5t-68.5 -25.5t-65 -7.5q-54 0 -112 23t-108 45.5t-86 22.5q-55 0 -84.5 -21t-39.5 -76z" />
<glyph unicode="&#xf2;" horiz-adv-x="1331" d="M199 436q0 52 8 96q20 112 81.5 214.5t148.5 176.5t197 118t222 44q203 0 334 -130t131 -326q0 -53 -8 -97q-26 -150 -123 -277t-237.5 -201t-290.5 -74q-203 0 -333 130t-130 326zM416 461q0 -127 76 -207t204 -80q148 0 262 102.5t140 255.5q6 38 6 72q0 127 -76.5 207 t-204.5 80q-148 0 -261.5 -102.5t-139.5 -256.5q-6 -38 -6 -71zM602 1495h246l113 -287h-164z" />
<glyph unicode="&#xf3;" horiz-adv-x="1331" d="M199 436q0 52 8 96q20 112 81.5 214.5t148.5 176.5t197 118t222 44q203 0 334 -130t131 -326q0 -53 -8 -97q-26 -150 -123 -277t-237.5 -201t-290.5 -74q-203 0 -333 130t-130 326zM416 461q0 -127 76 -207t204 -80q148 0 262 102.5t140 255.5q6 38 6 72q0 127 -76.5 207 t-204.5 80q-148 0 -261.5 -102.5t-139.5 -256.5q-6 -38 -6 -71zM797 1208l215 287h245l-296 -287h-164z" />
<glyph unicode="&#xf4;" horiz-adv-x="1331" d="M199 436q0 52 8 96q20 112 81.5 214.5t148.5 176.5t197 118t222 44q203 0 334 -130t131 -326q0 -53 -8 -97q-26 -150 -123 -277t-237.5 -201t-290.5 -74q-203 0 -333 130t-130 326zM416 461q0 -127 76 -207t204 -80q148 0 262 102.5t140 255.5q6 38 6 72q0 127 -76.5 207 t-204.5 80q-148 0 -261.5 -102.5t-139.5 -256.5q-6 -38 -6 -71zM575 1208l242 205h225l168 -205h-184l-108 133l-158 -133h-185z" />
<glyph unicode="&#xf5;" horiz-adv-x="1331" d="M199 436q0 52 8 96q20 112 81.5 214.5t148.5 176.5t197 118t222 44q203 0 334 -130t131 -326q0 -53 -8 -97q-26 -150 -123 -277t-237.5 -201t-290.5 -74q-203 0 -333 130t-130 326zM416 461q0 -127 76 -207t204 -80q148 0 262 102.5t140 255.5q6 38 6 72q0 127 -76.5 207 t-204.5 80q-148 0 -261.5 -102.5t-139.5 -256.5q-6 -38 -6 -71zM477 1249q26 112 108.5 176t168.5 64q56 0 116.5 -22.5t113.5 -45t89 -22.5q57 0 86 20.5t39 75.5l158 -41q-15 -64 -48 -113t-75 -75.5t-84.5 -39t-83.5 -12.5q-54 0 -111.5 23t-107.5 45.5t-86 22.5 q-55 0 -84 -21t-39 -76z" />
<glyph unicode="&#xf6;" horiz-adv-x="1331" d="M199 436q0 52 8 96q20 112 81.5 214.5t148.5 176.5t197 118t222 44q203 0 334 -130t131 -326q0 -53 -8 -97q-26 -150 -123 -277t-237.5 -201t-290.5 -74q-203 0 -333 130t-130 326zM416 461q0 -127 76 -207t204 -80q148 0 262 102.5t140 255.5q6 38 6 72q0 127 -76.5 207 t-204.5 80q-148 0 -261.5 -102.5t-139.5 -256.5q-6 -38 -6 -71zM750 1313q0 21 10 51q23 64 84.5 110t124.5 46q49 0 78.5 -29t29.5 -74q0 -23 -10 -53q-23 -65 -83.5 -110.5t-123.5 -45.5q-49 0 -79.5 29.5t-30.5 75.5zM1200 1313q0 21 10 51q23 64 84.5 110t124.5 46 q49 0 79 -29t30 -74q0 -23 -10 -53q-23 -65 -83.5 -110.5t-123.5 -45.5q-49 0 -80 29.5t-31 75.5z" />
<glyph unicode="&#xf9;" horiz-adv-x="1300" d="M233 340q0 40 11 111l108 614h215l-108 -614q-10 -62 -10 -101q0 -86 46 -131t160 -45q136 0 225 82.5t117 235.5l103 573h215l-189 -1065h-215l29 166q-136 -186 -381 -186q-153 0 -239.5 99.5t-86.5 260.5zM575 1495h246l115 -287h-164z" />
<glyph unicode="&#xfa;" horiz-adv-x="1300" d="M233 340q0 40 11 111l108 614h215l-108 -614q-10 -62 -10 -101q0 -86 46 -131t160 -45q136 0 225 82.5t117 235.5l103 573h215l-189 -1065h-215l29 166q-136 -186 -381 -186q-153 0 -239.5 99.5t-86.5 260.5zM772 1208l213 287h246l-295 -287h-164z" />
<glyph unicode="&#xfb;" horiz-adv-x="1300" d="M233 340q0 40 11 111l108 614h215l-108 -614q-10 -62 -10 -101q0 -86 46 -131t160 -45q136 0 225 82.5t117 235.5l103 573h215l-189 -1065h-215l29 166q-136 -186 -381 -186q-153 0 -239.5 99.5t-86.5 260.5zM551 1208l240 205h225l170 -205h-185l-110 133l-156 -133 h-184z" />
<glyph unicode="&#xfc;" horiz-adv-x="1300" d="M233 340q0 40 11 111l108 614h215l-108 -614q-10 -62 -10 -101q0 -86 46 -131t160 -45q136 0 225 82.5t117 235.5l103 573h215l-189 -1065h-215l29 166q-136 -186 -381 -186q-153 0 -239.5 99.5t-86.5 260.5zM725 1311q0 23 10 53q23 64 84.5 110t124.5 46q49 0 79 -29 t30 -74q0 -20 -11 -53q-23 -65 -84 -110.5t-124 -45.5q-49 0 -79 29t-30 74zM1176 1311q0 23 10 53q23 64 84.5 110t124.5 46q49 0 78.5 -29t29.5 -74q0 -23 -10 -53q-23 -64 -84.5 -110t-124.5 -46q-49 0 -78.5 29t-29.5 74z" />
<glyph unicode="&#xfd;" horiz-adv-x="1185" d="M29 -307l131 149q58 -78 143 -78q102 0 164 113l72 129l-281 1059h225l205 -786l430 786h215l-575 -1053v-2h-2l-74 -133q-168 -307 -401 -307q-85 0 -151.5 34t-100.5 89zM713 1208l215 287h246l-297 -287h-164z" />
<glyph unicode="&#xff;" horiz-adv-x="1185" d="M29 -307l131 149q58 -78 143 -78q102 0 164 113l72 129l-281 1059h225l205 -786l430 786h215l-575 -1053v-2h-2l-74 -133q-168 -307 -401 -307q-85 0 -151.5 34t-100.5 89zM666 1313q0 21 10 51q23 64 84.5 110t124.5 46q49 0 78.5 -29t29.5 -74q0 -23 -10 -53 q-23 -65 -83.5 -110.5t-123.5 -45.5q-49 0 -79.5 29.5t-30.5 75.5zM1116 1313q0 21 10 51q23 64 84.5 110t124.5 46q49 0 79 -29t30 -74q0 -23 -10 -53q-23 -65 -83.5 -110.5t-123.5 -45.5q-49 0 -80 29.5t-31 75.5z" />
<glyph unicode="&#x178;" horiz-adv-x="1392" d="M293 1434h246l295 -652l524 652h246l-695 -861l-100 -573h-225l100 573zM756 1679q0 24 10 54q23 64 84.5 109.5t124.5 45.5q49 0 78.5 -28.5t29.5 -73.5q0 -23 -10 -53q-23 -64 -84.5 -110t-124.5 -46q-49 0 -78.5 28.5t-29.5 73.5zM1206 1679q0 21 11 54 q23 64 84 109.5t124 45.5q49 0 79 -28.5t30 -73.5q0 -23 -10 -53q-23 -64 -84.5 -110t-124.5 -46q-49 0 -79 28.5t-30 73.5z" />
<glyph unicode="&#x2c6;" horiz-adv-x="1024" d="M422 1290l242 205h225l168 -205h-185l-108 133l-158 -133h-184z" />
<glyph unicode="&#x2dc;" horiz-adv-x="1024" d="M324 1270q26 112 108 175.5t168 63.5q56 0 117 -22.5t114 -45t89 -22.5q56 0 85 21t39 76l158 -41q-15 -64 -48 -113t-75 -75.5t-84.5 -39t-83.5 -12.5q-54 0 -111.5 22.5t-107.5 45t-86 22.5q-55 0 -84 -20.5t-39 -75.5z" />
<glyph unicode="&#x2000;" horiz-adv-x="944" />
<glyph unicode="&#x2001;" horiz-adv-x="1888" />
<glyph unicode="&#x2002;" horiz-adv-x="944" />
<glyph unicode="&#x2003;" horiz-adv-x="1888" />
<glyph unicode="&#x2004;" horiz-adv-x="629" />
<glyph unicode="&#x2005;" horiz-adv-x="472" />
<glyph unicode="&#x2006;" horiz-adv-x="314" />
<glyph unicode="&#x2007;" horiz-adv-x="314" />
<glyph unicode="&#x2008;" horiz-adv-x="236" />
<glyph unicode="&#x2009;" horiz-adv-x="377" />
<glyph unicode="&#x200a;" horiz-adv-x="104" />
<glyph unicode="&#x2010;" horiz-adv-x="880" d="M223 512l35 195h614l-34 -195h-615z" />
<glyph unicode="&#x2011;" horiz-adv-x="880" d="M223 512l35 195h614l-34 -195h-615z" />
<glyph unicode="&#x2012;" horiz-adv-x="880" d="M223 512l35 195h614l-34 -195h-615z" />
<glyph unicode="&#x2013;" horiz-adv-x="1255" d="M223 512l55 195h969l-54 -195h-970z" />
<glyph unicode="&#x2014;" horiz-adv-x="2279" d="M223 512l110 195h1938l-107 -195h-1941z" />
<glyph unicode="&#x2018;" horiz-adv-x="438" d="M-49 1065q0 19 2 29q8 41 59 100l248 301h143l-198 -270q29 -9 48 -40.5t19 -68.5q0 -14 -2 -22q-10 -64 -63.5 -110t-116.5 -46q-67 0 -103 35.5t-36 91.5z" />
<glyph unicode="&#x2019;" horiz-adv-x="438" d="M35 1004l198 270q-29 9 -48 40t-19 68q0 15 2 23q10 64 63.5 110t116.5 46q67 0 103 -35.5t36 -91.5q0 -19 -2 -29q-8 -41 -59 -100l-248 -301h-143z" />
<glyph unicode="&#x201c;" horiz-adv-x="847" d="M-49 1065q0 19 2 29q8 41 59 100l248 301h143l-198 -270q29 -9 48 -40.5t19 -68.5q0 -14 -2 -22q-10 -64 -63.5 -110t-116.5 -46q-67 0 -103 35.5t-36 91.5zM360 1065q0 19 2 29q8 39 60 100l248 301h143l-199 -270q29 -9 48.5 -40.5t19.5 -68.5q0 -14 -2 -22 q-10 -64 -63.5 -110t-116.5 -46q-67 0 -103.5 35.5t-36.5 91.5z" />
<glyph unicode="&#x201d;" horiz-adv-x="847" d="M35 1004l198 270q-29 9 -48 40t-19 68q0 15 2 23q10 64 63.5 110t116.5 46q67 0 103 -35.5t36 -91.5q0 -19 -2 -29q-8 -41 -59 -100l-248 -301h-143zM444 1004l199 270q-29 9 -48.5 40t-19.5 68q0 11 3 23q10 64 63.5 110t116.5 46q67 0 103 -35.5t36 -91.5q0 -19 -2 -29 q-8 -41 -59 -100l-248 -301h-144z" />
<glyph unicode="&#x202f;" horiz-adv-x="377" />
<glyph unicode="&#x205f;" horiz-adv-x="472" />
<glyph unicode="&#x25fc;" horiz-adv-x="1064" d="M0 0v1065h1065v-1065h-1065z" />
<glyph unicode="&#xfb01;" horiz-adv-x="788" d="M236 0l153 870h-143l35 195h143l25 143q23 127 127 217.5t251 90.5q128 0 187 -64l-35 -201q-75 70 -172 70q-64 0 -99.5 -32t-43.5 -81l-25 -143h283l-35 -195h-283l-153 -870h-215z" />
</font>
</defs>
</svg>
