<?xml version="1.0" standalone="no"?>
<!DOCTYPE svg PUBLIC "-//W3C//DTD SVG 1.1//EN" "http://www.w3.org/Graphics/SVG/1.1/DTD/svg11.dtd" >
<svg xmlns="http://www.w3.org/2000/svg">
<metadata></metadata>
<defs>
<font id="jonesbold_italic" horiz-adv-x="1228" >
<font-face units-per-em="2048" ascent="1606" descent="-442" />
<missing-glyph horiz-adv-x="614" />
<glyph horiz-adv-x="0" />
<glyph horiz-adv-x="682" />
<glyph unicode=" "  horiz-adv-x="614" />
<glyph unicode="&#x09;" horiz-adv-x="614" />
<glyph unicode="&#xa0;" horiz-adv-x="614" />
<glyph unicode="!" horiz-adv-x="471" d="M88 154q12 72 72.5 123t132.5 51t113.5 -51t29.5 -123t-72.5 -123t-132.5 -51t-113.5 51t-29.5 123zM240 512l30 492l88 491h283l-88 -491l-141 -492h-172z" />
<glyph unicode="&#x22;" horiz-adv-x="696" d="M193 1278q-6 28 2 63q12 72 72 123.5t132 51.5q60 0 99.5 -37t45 -90t-19.5 -111l-151 -295h-131zM623 1278q-6 28 2 63q12 72 72 123.5t132 51.5q60 0 99.5 -37t45 -90t-19.5 -111l-151 -295h-131z" />
<glyph unicode="#" horiz-adv-x="1658" d="M137 317l43 236h309l115 328h-285l41 235h326l109 318h245l-108 -318h328l108 318h246l-109 -318h269l-41 -235h-310l-114 -328h284l-43 -236h-323l-111 -317h-246l111 317h-328l-110 -317h-246l111 317h-271zM735 553h328l115 328h-328z" />
<glyph unicode="$" d="M123 231l178 183q72 -80 150.5 -132.5t185.5 -64.5l68 414q-186 35 -286.5 136.5t-70.5 274.5q31 176 170.5 286.5t319.5 123.5l24 145h144l-25 -149q228 -30 346 -174l-172 -174q-77 92 -213 112l-57 -358q83 -22 147 -59t110 -91.5t63 -132t1 -172.5 q-31 -176 -152 -283.5t-311 -129.5l-24 -150h-144l25 146q-84 6 -158 29.5t-133 61.5t-100.5 74t-85.5 84zM608 1063q-12 -69 14.5 -110.5t122.5 -67.5l56 329q-85 -11 -134 -54t-59 -97zM782 225q75 19 117 68.5t53 116.5q12 71 -10 118t-98 74z" />
<glyph unicode="%" horiz-adv-x="1925" d="M250 1065q29 161 162.5 275t294.5 114t255.5 -114t65.5 -275t-163.5 -275t-295.5 -114t-254.5 114t-64.5 275zM348 0l1235 1434h246l-1235 -1434h-246zM475 1065q-13 -75 24.5 -124.5t108.5 -49.5t126.5 49.5t68.5 124.5t-24.5 124.5t-108.5 49.5t-126.5 -49.5 t-68.5 -124.5zM1151 369q29 161 162.5 275t294.5 114t255.5 -114t65.5 -275t-163.5 -275t-295.5 -114t-254.5 114t-64.5 275zM1376 369q-13 -75 24.5 -124.5t108.5 -49.5t126.5 49.5t68.5 124.5t-24.5 124.5t-108.5 49.5t-126.5 -49.5t-68.5 -124.5z" />
<glyph unicode="&#x26;" horiz-adv-x="1464" d="M213 389q26 143 121 232t239 143q-55 98 -75 178t-6 164q29 163 153.5 255.5t296.5 92.5q174 0 264.5 -96t59.5 -273q-21 -119 -128.5 -220t-248.5 -154q2 -3 6 -8.5t6 -8.5l195 -293q100 118 157 273l181 -92q-69 -199 -222 -355l150 -227h-287l-53 80 q-179 -100 -371 -100q-229 0 -349.5 113t-88.5 296zM461 410q-15 -91 53 -143t201 -52q97 0 190 41l-227 340q-6 8 -16 23.5t-11 17.5q-165 -74 -190 -227zM737 1106q-16 -97 76 -266q92 36 144 107t63 138q13 74 -18 114t-97 40q-61 0 -109 -34.5t-59 -98.5z" />
<glyph unicode="'" horiz-adv-x="348" d="M233 1278q-5 26 3 63q12 72 72 123.5t132 51.5q60 0 99.5 -37t45 -90t-19.5 -111l-151 -295h-131z" />
<glyph unicode="(" horiz-adv-x="563" d="M136 542.5q91 517.5 482 993.5l187 -102q-209 -263 -320 -577t-109.5 -628t116.5 -577l-224 -103q-223 476 -132 993.5z" />
<glyph unicode=")" horiz-adv-x="563" d="M-242 -348q209 263 320.5 577t110 628t-116.5 577l223 102q223 -476 132 -993.5t-482 -993.5z" />
<glyph unicode="*" horiz-adv-x="663" d="M223 1096l176 92l-143 92l94 123l142 -92l32 184h144l-33 -184l174 92l49 -123l-174 -92l141 -92l-92 -123l-141 92l-33 -184h-143l33 184l-175 -92z" />
<glyph unicode="+" horiz-adv-x="1044" d="M172 623l41 235h338l61 348h246l-61 -348h338l-41 -235h-338l-62 -349h-245l61 349h-338z" />
<glyph unicode="," horiz-adv-x="520" d="M14 -266l156 268q-36 24 -53 64t-8 88q12 72 72 123t132 51q85 0 125.5 -49.5t28.5 -124.5q-10 -63 -80 -146l-229 -274h-144z" />
<glyph unicode="-" horiz-adv-x="880" d="M219 492l43 235h615l-43 -235h-615z" />
<glyph unicode="." horiz-adv-x="471" d="M61 154q0 72 51.5 123t123.5 51t123 -51t51 -123t-51 -123t-123 -51t-123.5 51t-51.5 123z" />
<glyph unicode="/" horiz-adv-x="880" d="M-70 -164l1049 1761h225l-1048 -1761h-226z" />
<glyph unicode="0" d="M158 717q27 153 92 287.5t156.5 234t212 157.5t251.5 58q174 0 291.5 -99.5t158.5 -266.5t5 -371t-136 -371t-252.5 -266.5t-326.5 -99.5t-290.5 99.5t-157 266t-4.5 371.5zM406.5 522q3.5 -90 27.5 -156t79.5 -103.5t139.5 -37.5t153 37t118 104t82.5 155t52.5 196 q21 105 17 195t-28.5 156t-80.5 103t-140 37q-163 0 -263.5 -133t-139.5 -358q-21 -105 -17.5 -195z" />
<glyph unicode="1" d="M399 1106l488 328h246q-126 -718 -252 -1434h-267l197 1112l-319 -199z" />
<glyph unicode="2" d="M102 0l39 215l559 420q174 131 232 203.5t78 181.5q15 81 -34 140t-157 59q-100 0 -183 -70t-165 -207l-180 129q99 172 247 277.5t322 105.5q139 0 239.5 -58.5t143 -158.5t21.5 -221q-28 -153 -99 -247.5t-260 -233.5l-393 -299h655l-41 -236h-1024z" />
<glyph unicode="3" d="M137 203l191 159q83 -149 323 -149q257 0 291 190q20 110 -57 171t-260 61q7 50 28 164l4 28l9 43q299 0 331 195q13 77 -25.5 115.5t-142.5 38.5q-175 0 -321 -146l-137 160q106 104 222.5 162.5t276.5 58.5q201 0 306.5 -106.5t78.5 -262.5q-39 -209 -229 -317 q220 -100 172 -365q-18 -104 -76 -186.5t-140 -133t-177 -77t-195 -26.5q-340 0 -473 223z" />
<glyph unicode="4" d="M127 256l41 236l790 942h277q-31 -178 -88.5 -503t-77.5 -439h143l-41 -236h-143l-45 -256h-256l45 256h-645zM412 492h401l107 600z" />
<glyph unicode="5" d="M137 203l205 170q87 -156 311 -156q50 0 97 14t88.5 41.5t71.5 73.5t40 105q43 245 -213 245q-130 0 -215 -59h-266l262 797h778l-41 -236h-575l-105 -334q104 68 285 68q82 0 153.5 -35.5t121 -97t70 -153t1.5 -195.5q-19 -111 -78.5 -202.5t-142.5 -149t-179.5 -88.5 t-195.5 -31q-340 0 -473 223z" />
<glyph unicode="6" d="M182 451q25 149 174 321l570 662h286l-518 -560q98 37 203 37q156 0 249.5 -133t59.5 -327q-36 -201 -203 -336t-393 -135q-149 0 -255.5 62.5t-151 170t-21.5 238.5zM428 451q-20 -112 36 -179t187 -67t210.5 67t99.5 179q19 111 -37 178t-187 67t-210.5 -66.5 t-98.5 -178.5z" />
<glyph unicode="7" d="M313 1198l41 236h1026l-34 -205l-771 -1229h-260l750 1198h-752z" />
<glyph unicode="8" d="M170 383q24 138 108 233.5t209 143.5q-81 51 -117 133.5t-16 191.5q17 100 91.5 185t187 134.5t237.5 49.5q189 0 300 -108t85 -261q-39 -218 -245 -325q108 -48 158 -143.5t26 -233.5q-21 -120 -107 -213t-211 -141.5t-266 -48.5t-248 48.5t-160 141.5t-32 213zM434 424 q-18 -103 41.5 -157t175.5 -54q117 0 197 54t98 157t-42 157t-177 54q-116 0 -195.5 -54t-97.5 -157zM604 1044q-12 -76 31 -125t133 -49t151.5 49.5t73.5 124.5q12 76 -31 125.5t-133 49.5t-151.5 -49.5t-73.5 -125.5z" />
<glyph unicode="9" d="M16 0l519 559q-98 -37 -203 -37q-101 0 -180 59.5t-115.5 166.5t-13.5 235q36 201 202.5 336t392.5 135q149 0 256 -62.5t151.5 -170t21.5 -238.5q-25 -147 -175 -321l-569 -662h-287zM268 983q-20 -112 36.5 -179t187.5 -67t210 67t99 179t-36 179t-187 67t-210.5 -67 t-99.5 -179z" />
<glyph unicode=":" horiz-adv-x="471" d="M88 154q12 72 72.5 123t132.5 51t113.5 -51t29.5 -123t-72.5 -123t-132.5 -51t-113.5 51t-29.5 123zM238 1001q12 72 72 123.5t132 51.5t114 -51.5t30 -123.5t-72.5 -123t-132.5 -51t-113.5 51t-29.5 123z" />
<glyph unicode=";" horiz-adv-x="520" d="M-33 -266l205 268q-33 24 -43 63t6 89q26 72 95 123t141 51q85 0 117.5 -50t5.5 -124q-23 -64 -105 -146l-278 -274h-144zM238 1001q12 72 72 123.5t132 51.5t114 -51.5t30 -123.5t-72.5 -123t-132.5 -51t-113.5 51t-29.5 123z" />
<glyph unicode="&#x3c;" horiz-adv-x="1044" d="M170 614l41 236l991 389l-43 -235l-690 -273l596 -270l-43 -236z" />
<glyph unicode="=" horiz-adv-x="1044" d="M127 369l41 235h922l-41 -235h-922zM211 850l41 235h922l-41 -235h-922z" />
<glyph unicode="&#x3e;" horiz-adv-x="1044" d="M-145 225l43 236l690 272l-596 271l43 235l852 -389l-41 -236z" />
<glyph unicode="?" horiz-adv-x="1136" d="M297 1214q93 140 232.5 221t320.5 81q213 0 317.5 -109t77.5 -268q-26 -145 -92.5 -229.5t-198.5 -143.5q-54 -24 -83 -41t-53.5 -45t-37.5 -66.5t-24 -101.5h-246q2 45 8 84.5t13 69.5t22 57.5t25.5 46t32.5 38t34.5 30t40.5 25.5t40.5 21.5t45.5 21t45 20.5 q87 40 121.5 83.5t46.5 108.5q11 68 -38 115t-150 47q-107 0 -184 -49t-152 -152zM410 154q12 72 72 123t132 51t114 -51t30 -123t-72.5 -123t-132.5 -51t-113.5 51t-29.5 123z" />
<glyph unicode="@" horiz-adv-x="2150" d="M207 532q35 197 137 373.5t249.5 307t342 206.5t403.5 76q198 0 363 -64t275 -177t156.5 -279.5t12.5 -360.5q-25 -139 -72 -251t-101.5 -181.5t-118 -116.5t-119 -66t-105.5 -19q-117 0 -179 48.5t-67 125.5q-121 -174 -354 -174q-91 0 -170.5 41t-134 112t-77 175.5 t-1.5 223.5q28 157 120 286t213.5 198t244.5 69q224 0 288 -163l27 143h246l-146 -819q-17 -91 -2.5 -134.5t68.5 -43.5q41 0 94 33.5t108 97t103.5 172.5t71.5 243q32 183 -11 338t-146 260.5t-257 164.5t-340 59q-198 0 -380 -71.5t-319.5 -193.5t-232 -287.5 t-127.5 -351.5q-32 -184 9.5 -351t140.5 -288t253 -192.5t337 -71.5l-11 -59q-195 0 -360 76.5t-271 205.5t-151 307t-10 373zM893 532q-26 -149 36.5 -233t184.5 -84t214 84.5t118 232.5q26 149 -36.5 233.5t-184.5 84.5t-214 -85t-118 -233z" />
<glyph unicode="A" horiz-adv-x="1638" d="M41 0l907 1434h246l403 -1434h-286l-78 317h-717l-188 -317h-287zM657 553h519l-150 616z" />
<glyph unicode="B" horiz-adv-x="1423" d="M164 0l252 1434h573q100 0 183.5 -27t142 -78t83.5 -131q15 -47 15 -100q0 -38 -8 -80q-32 -186 -184 -268q182 -69 182 -251q0 -37 -8 -79q-25 -138 -109 -234.5t-202.5 -141t-264.5 -44.5h-655zM473 246h348q140 0 214.5 36.5t92.5 137.5q4 23 4 43q0 69 -48 103 q-62 44 -197 44h-348zM582 856h266q137 0 206 33.5t85 128.5q4 22 4 40q0 62 -45 92q-58 38 -193 38h-266z" />
<glyph unicode="C" horiz-adv-x="1499" d="M270 717q35 200 163 370t312.5 268.5t380.5 98.5q160 0 291.5 -67t212.5 -185l-194 -164q-115 170 -353 170q-200 0 -354.5 -140t-191.5 -351q-9 -53 -9 -102q0 -79 24 -149q38 -112 131.5 -176.5t225.5 -64.5q238 0 414 170l135 -164q-122 -117 -277 -184t-315 -67 q-196 0 -346 98.5t-218 268.5q-44 112 -44 237q0 65 12 133z" />
<glyph unicode="D" horiz-adv-x="1658" d="M205 0q42 239 126 717.5t126 716.5h573q148 0 274 -55t209 -149.5t119 -228.5q21 -78 21 -161q0 -60 -11 -123q-26 -150 -109.5 -284t-200 -228.5t-261.5 -149.5t-293 -55h-573zM514 246h307q203 0 361 132t194 339q9 51 9 97q0 142 -84 242q-111 132 -314 132h-307z" />
<glyph unicode="E" horiz-adv-x="1372" d="M205 0q42 239 126 717.5t126 716.5h1044l-43 -246h-778l-57 -332h675l-43 -246h-675l-66 -364h778l-43 -246h-1044z" />
<glyph unicode="F" horiz-adv-x="1361" d="M205 0q23 136 71 407.5t72 407.5l109 619h1044l-43 -246h-778l-66 -373h676l-43 -246h-676l-100 -569h-266z" />
<glyph unicode="G" horiz-adv-x="1601" d="M270 717q35 200 163 370t312.5 268.5t380.5 98.5q160 0 291.5 -67t212.5 -185l-194 -164q-115 170 -353 170q-200 0 -354.5 -140t-191.5 -351q-9 -53 -9 -102q0 -79 24 -149q38 -112 131.5 -176.5t225.5 -64.5q169 0 320 97l33 190h-301l43 246h567q-16 -88 -46.5 -263.5 t-45.5 -263.5q-120 -116 -285 -183.5t-328 -67.5q-196 0 -346 98.5t-218 268.5q-44 112 -44 237q0 65 12 133z" />
<glyph unicode="H" horiz-adv-x="1566" d="M205 0l252 1434h266l-100 -578h624l101 578h266l-252 -1434h-266l108 610h-624l-109 -610h-266z" />
<glyph unicode="I" horiz-adv-x="614" d="M174 0l252 1434h266l-252 -1434h-266z" />
<glyph unicode="J" horiz-adv-x="1226" d="M78 322l219 133q30 -122 99 -181t165 -59q127 0 219.5 79t120.5 238l158 902h256l-158 -902q-49 -280 -216.5 -416t-422.5 -136q-345 0 -440 342z" />
<glyph unicode="K" horiz-adv-x="1525" d="M164 0l252 1434h266l-123 -701l809 701h297l-676 -588l527 -846h-295l-422 678l-295 -254l-74 -424h-266z" />
<glyph unicode="L" horiz-adv-x="1341" d="M205 0q42 239 126 717.5t126 716.5h266l-209 -1188h778l-43 -246h-1044z" />
<glyph unicode="M" horiz-adv-x="1908" d="M164 0l246 1393l6 41h246l393 -865l696 865h246q-48 -283 -142.5 -817t-109.5 -617h-266l170 969l-578 -703h-139l-332 703l-170 -969h-266z" />
<glyph unicode="N" horiz-adv-x="1617" d="M164 0l252 1434h246l602 -1000l176 1000h266l-248 -1405l-4 -29h-246l-602 999l-176 -999h-266z" />
<glyph unicode="O" horiz-adv-x="1740" d="M270 717q35 200 163 370t312.5 268.5t380.5 98.5t346.5 -98.5t218.5 -268.5q45 -112 45 -238q0 -64 -12 -132q-35 -200 -163.5 -370t-313.5 -268.5t-381 -98.5t-346 98.5t-218 268.5q-44 112 -44 237q0 65 12 133zM537 717q-9 -53 -9 -102q0 -79 24 -149 q38 -112 131.5 -176.5t225.5 -64.5q200 0 356 141t193 351q10 54 10 104q0 143 -79 247q-106 140 -306 140t-354.5 -140t-191.5 -351z" />
<glyph unicode="P" horiz-adv-x="1316" d="M174 0l252 1434h553q151 0 261 -62q110 -60 158 -170q32 -73 33 -159q0 -42 -8 -87q-37 -205 -209 -337t-401 -132h-287l-86 -487h-266zM569 733h246q141 0 231.5 55.5t110.5 167.5q4 25 4 47q1 79 -55 125q-72 60 -211 60h-246z" />
<glyph unicode="Q" horiz-adv-x="1738" d="M270 717q35 200 163 370t312.5 268.5t380.5 98.5t346.5 -98.5t218.5 -268.5q45 -112 45 -238q0 -64 -12 -132q-43 -240 -219 -436l172 -209l-188 -162l-172 209q-213 -139 -451 -139q-196 0 -346 98.5t-218 268.5q-44 112 -44 237q0 65 12 133zM537 717q-9 -53 -9 -102 q0 -79 24 -149q38 -112 131.5 -176.5t225.5 -64.5q137 0 262 72l-135 162l189 159l127 -153q84 122 106 252q10 54 10 104q0 142 -79 247q-106 140 -306 140t-354.5 -140t-191.5 -351z" />
<glyph unicode="R" horiz-adv-x="1470" d="M195 0l251 1434h594q151 0 261 -62q110 -60 159 -170q33 -74 33 -159q0 -42 -8 -87q-26 -149 -127.5 -263t-251.5 -167l303 -526h-297l-281 487h-284l-86 -487h-266zM590 733h287q141 0 231.5 55.5t110.5 167.5q4 25 4 47q0 79 -56 125q-72 60 -211 60h-286z" />
<glyph unicode="S" horiz-adv-x="1280" d="M143 231l179 183q37 -41 70.5 -70.5t82 -61.5t108.5 -49.5t128 -17.5q119 0 183 55t79 140q5 23 5 45q0 15 -2 29q-6 34 -26 61.5t-66 48t-118 31.5q-96 14 -172.5 44t-134.5 79.5t-82 124.5q-14 45 -14 97q0 35 6 72q16 94 67.5 172.5t124 130.5t160.5 80.5t180 28.5 q147 0 262.5 -48.5t184.5 -131.5l-172 -174q-100 119 -295 119q-112 0 -176 -46t-76 -110q-5 -21 -5 -40q0 -12 2 -24q5 -30 24 -54t63.5 -43t115.5 -32q99 -18 176.5 -52.5t135.5 -90t81 -139.5q13 -47 13 -100q0 -42 -8 -89q-35 -198 -182.5 -308.5t-376.5 -110.5 q-76 0 -146 15.5t-122 38.5t-102.5 58.5t-84.5 67t-70 71.5z" />
<glyph unicode="T" horiz-adv-x="1413" d="M311 1188l43 246h1209l-43 -246h-471l-209 -1188h-267l209 1188h-471z" />
<glyph unicode="U" horiz-adv-x="1556" d="M244 573l151 861h256l-143 -820q-6 -37 -6 -71q0 -113 72 -189q94 -98 249 -98q101 0 194 42t161.5 125t87.5 191l143 820h256l-152 -861q-46 -259 -254.5 -426t-484.5 -167q-136 0 -246 44.5t-180 122t-98 187.5q-16 61 -16 128q0 54 10 111z" />
<glyph unicode="V" horiz-adv-x="1597" d="M293 1434h297l270 -1084l651 1084h297l-886 -1434h-246z" />
<glyph unicode="W" horiz-adv-x="2181" d="M283 1434h266l131 -1024l514 1024h297l154 -1024l491 1024h266l-702 -1434h-246l-160 1161l-567 -1161h-246z" />
<glyph unicode="X" horiz-adv-x="1536" d="M51 0l701 743l-408 691h297l293 -496l465 496h297l-647 -691l436 -743h-297l-324 549l-516 -549h-297z" />
<glyph unicode="Y" horiz-adv-x="1392" d="M272 1434h287l281 -619l497 619h287l-694 -861l-101 -573h-266l101 573z" />
<glyph unicode="Z" horiz-adv-x="1392" d="M133 0l39 225l942 963h-731l43 246h1044l-38 -226l-943 -962h814l-43 -246h-1127z" />
<glyph unicode="[" horiz-adv-x="645" d="M20 -410l336 1905h512l-43 -238h-266l-252 -1429h266l-41 -238h-512z" />
<glyph unicode="\" horiz-adv-x="880" d="M242 1597h225l426 -1761h-225z" />
<glyph unicode="]" horiz-adv-x="604" d="M-264 -410l43 238h266l252 1429h-266l41 238h512l-336 -1905h-512z" />
<glyph unicode="^" horiz-adv-x="1044" d="M197 881l456 614h267l239 -614h-225l-184 403l-328 -403h-225z" />
<glyph unicode="_" d="M-70 -369l43 246h1237l-43 -246h-1237z" />
<glyph unicode="`" horiz-adv-x="655" d="M367 1495h286l113 -287h-205z" />
<glyph unicode="a" horiz-adv-x="1187" d="M121 307q12 67 43 118.5t78.5 85t101.5 55.5t124.5 33t133.5 15t141 4h164l11 58q5 26 5 48q0 58 -33 87q-45 39 -151 39q-175 0 -305 -88l-129 160q112 83 216.5 123t250.5 40q220 1 328 -109q82 -83 82 -214q0 -41 -8 -86l-119 -676h-256l20 117q-127 -137 -352 -137 q-78 0 -145.5 20t-118 59t-73.5 103q-14 40 -14 86q0 28 5 59zM379 317q-2 -10 -1 -19q0 -45 41 -71q50 -32 148 -32q48 0 94 11t90.5 34.5t76.5 67t42 102.5l7 36h-103q-190 0 -285.5 -25.5t-109.5 -103.5z" />
<glyph unicode="b" horiz-adv-x="1341" d="M174 0l264 1495h256l-102 -577q125 167 366 167q84 0 159 -41.5t129 -112.5t76 -176q12 -54 11 -112q0 -54 -10 -111q-27 -156 -119.5 -285.5t-209.5 -198t-230 -68.5q-239 0 -305 180l-29 -160h-256zM524 532q-8 -44 -8 -82q0 -92 44 -151q62 -84 185 -84 q121 0 208.5 84t113.5 233q8 46 8 87q0 89 -40 147q-58 84 -179 84q-122 0 -213.5 -84.5t-118.5 -233.5z" />
<glyph unicode="c" horiz-adv-x="1173" d="M207 532q20 112 81.5 214.5t148.5 176.5t197 118t222 44q131 0 230.5 -55t156.5 -153l-184 -160q-70 133 -244 133q-132 0 -229.5 -90t-122.5 -228q-7 -37 -7 -71q0 -91 50 -157q68 -90 199 -89q171 0 288 133l131 -160q-90 -99 -210 -153.5t-252 -54.5q-150 0 -264 74 t-166 201q-34 84 -34 179q0 48 9 98z" />
<glyph unicode="d" horiz-adv-x="1341" d="M207 532q21 118 80 223t136.5 176t167 112.5t173.5 41.5q243 0 309 -167l103 577h256l-265 -1495h-256l27 147q-125 -167 -369 -167q-84 0 -158.5 41t-127.5 112t-75 176q-11 54 -11 111q0 54 10 112zM463 532q-8 -46 -8 -86q0 -90 40 -148q58 -84 179 -83 q122 0 214 84.5t118 232.5q8 43 8 81q0 92 -45 152q-63 85 -185 85q-121 0 -208 -84t-113 -234z" />
<glyph unicode="e" horiz-adv-x="1259" d="M207 532q21 119 84 223.5t150 176t193 112.5t212 41q216 1 332 -155q85 -114 84 -275q0 -58 -11 -123l-10 -61h-786q-1 -11 0 -22q-1 -106 53 -167q60 -67 170 -67q104 0 177.5 27.5t141.5 99.5l138 -154q-88 -97 -218.5 -152.5t-265.5 -55.5q-231 0 -359 155 q-96 117 -95 282q0 55 10 115zM498 649h508q-2 100 -50 150.5t-151 50.5q-106 0 -185 -52t-122 -149z" />
<glyph unicode="f" horiz-adv-x="768" d="M205 0l145 829h-143l43 236h143l25 143q22 122 140.5 215t254.5 93q91 0 155.5 -29t98.5 -78l-152 -166q-53 37 -110 37q-52 0 -90.5 -33.5t-46.5 -79.5l-19 -102h283l-43 -236h-283l-145 -829h-256z" />
<glyph unicode="g" horiz-adv-x="1341" d="M78 -221l201 135q52 -69 128.5 -99t215.5 -30q111 0 192.5 63.5t104.5 192.5l16 102q-121 -163 -346 -163q-91 0 -170.5 41t-134 112t-77.5 175q-11 55 -11 112q0 55 10 112q21 119 80 223.5t138.5 176t173.5 112.5t185 41q225 0 289 -163l27 143h256l-180 -1024 q-19 -104 -77.5 -196.5t-139.5 -156.5t-180 -101.5t-197 -37.5q-374 0 -504 230zM463 532q-8 -46 -8 -86q0 -90 40 -148q58 -83 179 -83q122 0 214 84.5t118 232.5q8 43 8 81q0 92 -45 152q-63 85 -185 85q-121 0 -208 -84t-113 -234z" />
<glyph unicode="h" horiz-adv-x="1300" d="M174 0l264 1495h256l-100 -561q112 151 313 151q129 0 214.5 -63t116.5 -169q17 -60 17 -128q0 -53 -10 -111l-108 -614h-256l108 614q7 43 7 78q0 60 -21 98q-34 60 -150 60q-246 0 -295 -275l-100 -575h-256z" />
<glyph unicode="i" horiz-adv-x="522" d="M133 0l189 1065h256l-189 -1065h-256zM342 1376q12 66 67 113t121 47t105 -47q30 -36 30 -83q0 -14 -3 -30q-12 -66 -66.5 -112.5t-120.5 -46.5q-65 1 -105 47q-30 36 -31 82q0 15 3 30z" />
<glyph unicode="j" horiz-adv-x="522" d="M-295 -324l156 187q23 -31 51.5 -44.5t77.5 -13.5q46 0 82.5 28t46.5 85l203 1147h256l-211 -1188q-22 -121 -145.5 -214t-260.5 -93q-89 0 -156.5 27t-99.5 79zM342 1376q12 66 67 113t121 47t105 -47q30 -36 30 -83q0 -14 -3 -30q-12 -66 -66.5 -112.5t-120.5 -46.5 t-105 47q-31 35 -31 82q0 15 3 30z" />
<glyph unicode="k" horiz-adv-x="1259" d="M133 0l264 1495h256l-172 -969l617 539h299l-541 -469l393 -596h-282l-295 436l-244 -211l-39 -225h-256z" />
<glyph unicode="l" horiz-adv-x="542" d="M143 0l265 1495h256l-265 -1495h-256z" />
<glyph unicode="m" horiz-adv-x="1843" d="M113 0l188 1065h256l-25 -133q117 153 324 153q273 0 318 -231q116 231 368 231q100 0 172 -36.5t108 -100.5q34 -63 46 -149q4 -31 4 -65q0 -58 -12 -120l-109 -614h-256l109 614q7 43 7 78q0 168 -169 168q-104 0 -180.5 -70t-102.5 -215l-100 -575h-254l108 614 q7 43 7 79q0 61 -21 103q-34 64 -143 64q-101 0 -182 -76t-105 -209l-100 -575h-256z" />
<glyph unicode="n" horiz-adv-x="1300" d="M174 0l188 1065h256l-24 -135q119 155 334 155q119 0 200 -63q80 -62 110 -169q17 -60 17 -128q0 -53 -10 -111l-108 -614h-256l108 614q7 43 7 79q0 59 -21 97q-34 60 -150 60q-246 0 -295 -275l-100 -575h-256z" />
<glyph unicode="o" horiz-adv-x="1331" d="M207 532q20 112 81.5 214.5t148.5 176.5t197 118t222 44q150 0 264 -74q115 -73 167 -201q35 -84 35 -180q0 -48 -9 -98q-26 -150 -123 -277t-237.5 -201t-290.5 -74t-264 74t-166 201q-34 84 -34 179q0 48 9 98zM463 532q-7 -37 -7 -71q0 -91 50 -157 q68 -90 199.5 -89.5t229 90t122.5 227.5q7 37 7 71q0 91 -50 157q-68 90 -199.5 90t-229 -90t-122.5 -228z" />
<glyph unicode="p" horiz-adv-x="1341" d="M102 -410l260 1475h256l-26 -147q125 167 366 167q84 0 159 -41.5t128.5 -112.5t76.5 -176q11 -54 11 -112q0 -54 -10 -111q-27 -156 -119.5 -285.5t-209.5 -198t-230 -68.5q-241 0 -307 167l-99 -557h-256zM524 532q-8 -44 -8 -82q0 -92 44 -151q63 -84 185 -84 q121 0 208.5 84t113.5 233q8 46 8 87q0 89 -40 147q-58 84 -179 84q-122 0 -213.5 -84.5t-118.5 -233.5z" />
<glyph unicode="q" horiz-adv-x="1341" d="M207 532q21 118 80 223t136.5 176t167 112.5t173.5 41.5q243 0 309 -167l27 147h256l-260 -1475h-256l98 557q-125 -167 -369 -167q-84 0 -158.5 41t-127.5 112t-75 176q-11 54 -11 111q0 54 10 112zM463 532q-8 -46 -8 -86q0 -90 40 -148q58 -83 179 -83q122 0 214 84.5 t118 232.5q8 43 8 81q0 92 -45 152q-63 85 -185 85q-121 0 -208 -84t-113 -234z" />
<glyph unicode="r" horiz-adv-x="839" d="M154 0l188 1065h256l-31 -170q134 170 420 170l-43 -236h-41q-179 0 -273.5 -63t-121.5 -213l-98 -553h-256z" />
<glyph unicode="s" horiz-adv-x="1064" d="M129 213l217 152q61 -82 117.5 -116t148.5 -34q82 0 127.5 25.5t51.5 66.5q7 20 0.5 40t-23.5 37t-62 32.5t-116 25.5q-82 12 -142 33.5t-105 57t-63 91.5q-10 32 -10 69q0 28 6 59q24 136 149 234.5t288 98.5q107 0 184 -22.5t121 -56.5t82 -88l-176 -160 q-42 53 -93.5 77.5t-136.5 24.5q-68 0 -110 -26.5t-47 -59.5q-6 -15 -1.5 -30.5t17.5 -28.5t48 -25t91 -20q93 -13 157.5 -36t112.5 -63q50 -40 66 -105q8 -33 8 -72q0 -38 -8 -83q-26 -146 -146 -238.5t-323 -92.5q-157 0 -257.5 60t-172.5 173z" />
<glyph unicode="t" horiz-adv-x="860" d="M207 829l43 236h143l56 313h256l-56 -313h318l-43 -236h-318l-88 -501q-3 -18 -3 -33q0 -80 85 -80q86 0 133 51l105 -180q-119 -106 -293 -106q-149 0 -230 91q-64 72 -64 164q0 25 5 52l94 542h-143z" />
<glyph unicode="u" horiz-adv-x="1300" d="M244 451l108 614h256l-108 -614q-7 -43 -8 -79q0 -60 22 -98q34 -60 150 -59q242 0 292 277l103 573h256l-189 -1065h-256l25 135q-119 -155 -336 -155q-179 0 -265 134q-61 95 -61 224q0 53 11 113z" />
<glyph unicode="v" horiz-adv-x="1208" d="M219 1065h266l174 -754l441 754h266l-639 -1065h-246z" />
<glyph unicode="w" horiz-adv-x="1628" d="M250 1065h256l41 -750l368 750h215l103 -750l307 750h256l-475 -1065h-277l-90 680l-329 -680h-277z" />
<glyph unicode="x" horiz-adv-x="1259" d="M31 0l544 559l-315 506h307l195 -313l307 313h307l-493 -506l346 -559h-307l-228 367l-356 -367h-307z" />
<glyph unicode="y" horiz-adv-x="1185" d="M39 -307l137 180q25 -34 56.5 -51t86.5 -17t94 30.5t74 94.5l41 76l-280 1059h266l191 -735l403 735h256l-576 -1053v-2h-2l-73 -133q-74 -134 -183.5 -220.5t-238.5 -86.5q-85 0 -151.5 34t-100.5 89z" />
<glyph unicode="z" horiz-adv-x="1167" d="M113 0l39 215l692 614h-545l43 236h881l-39 -215l-692 -614h604l-41 -236h-942z" />
<glyph unicode="{" horiz-adv-x="755" d="M186 420l43 246q101 0 139.5 24t49.5 88l71 410q23 126 151 216.5t306 90.5l-31 -235q-57 0 -95 -11.5t-57.5 -36t-27.5 -46.5t-14 -60l-57 -328q-27 -154 -160 -235q103 -80 76 -236l-58 -327q-8 -31 -6.5 -59t12 -49t45 -33.5t91.5 -12.5l-54 -236q-178 0 -274.5 91 t-73.5 217l72 409q11 64 -18 88.5t-130 24.5z" />
<glyph unicode="|" horiz-adv-x="655" d="M207 -164l311 1761h184l-311 -1761h-184z" />
<glyph unicode="}" horiz-adv-x="714" d="M-180 -410l30 236q46 0 80 8.5t53.5 21.5t32.5 35t18.5 40.5t10.5 48.5l57 327q27 155 160 236q-103 80 -76 235l58 328q8 31 6.5 59t-12 49t-45 33.5t-91.5 12.5l54 235q178 0 274.5 -90.5t73.5 -216.5l-72 -410q-11 -64 18 -88t130 -24l-43 -246q-101 0 -139.5 -24.5 t-49.5 -88.5l-72 -409q-23 -126 -151 -217t-305 -91z" />
<glyph unicode="~" horiz-adv-x="962" d="M162 397q27 116 102 188t156 72q44 0 88 -20.5t73 -45t64.5 -45t65.5 -20.5q63 0 92 36t41 102l133 -62q-29 -128 -100 -194t-154 -66q-43 0 -84.5 20.5t-69 45t-61 45t-62.5 20.5q-62 0 -90.5 -35.5t-40.5 -101.5z" />
<glyph unicode="&#xa1;" horiz-adv-x="389" d="M-211 -430l88 491l141 492h172l-30 -492l-88 -491h-283zM-6 911q12 72 72.5 123t132.5 51t113.5 -51t29.5 -123t-72.5 -123t-132.5 -51t-113.5 51t-29.5 123z" />
<glyph unicode="&#xa2;" d="M227 532q37 210 202.5 366.5t375.5 182.5l24 148h123l-24 -146q114 -10 200 -63.5t136 -142.5l-185 -160q-59 112 -188 129l-103 -625q134 21 226 127l131 -160q-163 -180 -393 -204l-25 -148h-123l25 146q-207 22 -323.5 179t-78.5 371zM483 532q-22 -122 27.5 -206.5 t155.5 -104.5l102 623q-108 -23 -185.5 -108t-99.5 -204z" />
<glyph unicode="&#xa3;" d="M117 -2q87 108 142.5 195t82.5 156.5t36 122t7 112.5h-190l43 235h129q-4 138 18 266q30 170 156 269.5t327 99.5q123 0 216 -56t135 -149l-166 -170q-32 62 -89.5 101t-123.5 39q-86 0 -142 -40t-69 -114q-19 -105 -19 -246h238l-43 -235h-195q-7 -105 -39.5 -197.5 t-109.5 -187.5q58 10 104 10q71 0 162 -35t131 -35q64 0 104.5 28t86.5 91l112 -115q-95 -209 -325 -209q-72 0 -143 17.5t-126.5 35t-89.5 17.5q-67 0 -109.5 -12.5t-78.5 -42.5z" />
<glyph unicode="&#xa4;" d="M96 231l215 183q-37 82 -31.5 169.5t34.5 160.5t77 133l-149 182l172 145l149 -182q117 65 244 65q125 0 219 -65l215 182l119 -145l-215 -182q38 -83 32 -171t-35.5 -159.5t-78.5 -134.5l149 -181l-170 -145l-149 182q-117 -65 -244 -65q-125 0 -219 65l-215 -182z M500 645q-19 -103 33 -170t153 -67q113 0 182.5 65t89.5 172q19 103 -34 170.5t-154 67.5q-100 0 -175.5 -67t-94.5 -171z" />
<glyph unicode="&#xa5;" d="M139 199l49 151h369l25 160h-340l49 152h266l-309 772h252l245 -619l437 619h252l-547 -772h510l-49 -152h-533l-24 -160h503l-49 -151h-479l-31 -199h-233l30 199h-393z" />
<glyph unicode="&#xa6;" horiz-adv-x="614" d="M207 -164l129 737h143l-129 -737h-143zM401 942l117 655h144l-117 -655h-144z" />
<glyph unicode="&#xa7;" horiz-adv-x="1064" d="M129 213l164 166q57 -77 138.5 -120.5t170.5 -43.5q184 0 197 72q1 13 1.5 25t-11.5 24t-33.5 23t-65 22t-106.5 20q-44 6 -86.5 23.5t-79.5 46t-65 64.5t-39 82.5t-4 96t41 108.5t95 118q-101 76 -79 213q17 96 83 165t161 102.5t208 33.5q80 0 143 -13.5t108.5 -39.5 t74.5 -51.5t61 -63.5l-174 -166q-96 99 -254 99q-195 0 -209 -76q-6 -33 42 -56t188 -47q71 -12 134 -38t109.5 -71t61.5 -100.5t-18 -132.5t-119 -161q109 -79 77 -250q-23 -129 -152 -218t-333 -89q-157 0 -257.5 60t-172.5 173zM499 787q-11 -45 11 -75.5t65.5 -51 t108.5 -31.5q92 -15 176 -41q62 72 56 126.5t-61.5 90t-149.5 49.5q-81 12 -148 33q-47 -55 -58 -100z" />
<glyph unicode="&#xa8;" horiz-adv-x="1024" d="M592 1364q26 72 95.5 124t141.5 52t106.5 -52t8.5 -124t-95.5 -124t-141.5 -52t-106.5 52t-8.5 124zM1042 1364q26 72 96 124t142 52t106.5 -52t8.5 -124t-96 -124t-142 -52t-106.5 52t-8.5 124z" />
<glyph unicode="&#xa9;" horiz-adv-x="1740" d="M143 717q0 200 98 370t265.5 268.5t363.5 98.5t363.5 -98.5t265.5 -268.5t98 -370t-98 -370t-265.5 -268.5t-363.5 -98.5t-363.5 98.5t-265.5 268.5t-98 370zM231 717q0 -133 51 -254t137 -209t204 -140.5t247 -52.5t247 52.5t204 140.5t137 209t51 254t-51 254t-137 209 t-204 140t-247 52t-247 -52t-204 -140t-137 -209t-51 -254zM586 717q28 153 153.5 260.5t276.5 107.5q80 0 144.5 -33.5t105.5 -93.5l-97 -81q-59 86 -176 86q-100 0 -177.5 -70.5t-96.5 -175.5t34 -175.5t154 -70.5q118 0 207 86l66 -82q-61 -60 -138 -93.5t-157 -33.5 q-151 0 -239 108t-60 261z" />
<glyph unicode="&#xaa;" horiz-adv-x="1095" d="M190 872q13 74 56.5 123t113 72t137 31t158.5 8h123l8 41q13 72 -20 101.5t-113 29.5q-129 0 -229 -66l-96 119q82 63 161 93t189 30q164 0 245 -82.5t56 -224.5l-90 -506h-193l17 86q-90 -100 -264 -100q-124 0 -201.5 63t-57.5 182zM281 377l45 178h682l-45 -178h-682z M383 879q-7 -43 31 -68t110 -25q49 0 93.5 14t84 52t50.5 96l4 27h-76q-143 0 -215 -19t-82 -77z" />
<glyph unicode="&#xab;" horiz-adv-x="1212" d="M129 614l27 236l620 389l-26 -235l-433 -273l373 -270l-26 -236zM641 614l27 236l620 389l-26 -235l-433 -273l373 -270l-26 -236z" />
<glyph unicode="&#xac;" horiz-adv-x="1105" d="M354 696l88 236h697l-4 -10l-64 -359h-143l24 133h-598z" />
<glyph unicode="&#xad;" horiz-adv-x="962" d="M317 492l91 235h696l-90 -235h-697z" />
<glyph unicode="&#xae;" horiz-adv-x="1740" d="M143 717q0 200 98 370t265.5 268.5t363.5 98.5t363.5 -98.5t265.5 -268.5t98 -370t-98 -370t-265.5 -268.5t-363.5 -98.5t-363.5 98.5t-265.5 268.5t-98 370zM231 717q0 -133 51 -254t137 -209t204 -140.5t247 -52.5t247 52.5t204 140.5t137 209t51 254t-51 254t-137 209 t-204 140t-247 52t-247 -52t-204 -140t-137 -209t-51 -254zM614 358l125 717h297q115 0 179 -67.5t45 -171.5q-13 -74 -64.5 -130t-126.5 -83l152 -265h-148l-141 244h-144l-43 -244h-131zM811 725h143q152 0 172 111q10 57 -25.5 86.5t-105.5 29.5h-143z" />
<glyph unicode="&#xaf;" horiz-adv-x="614" d="M256 1475l29 163h622l-28 -163h-623z" />
<glyph unicode="&#xb0;" horiz-adv-x="819" d="M451 1393q15 85 85.5 144.5t155.5 59.5t134 -59.5t34 -144.5t-86 -145t-156 -60t-133.5 60t-33.5 145zM512 1393q-10 -60 24.5 -102t94.5 -42t108.5 42t59.5 102q10 60 -24.5 101.5t-94.5 41.5t-108.5 -41.5t-59.5 -101.5z" />
<glyph unicode="&#xb1;" horiz-adv-x="1044" d="M172 692l41 209h338l61 305h246l-61 -305h338l-41 -209h-338l-62 -305h-245l61 305h-338zM190 102l64 236h922l-64 -236h-922z" />
<glyph unicode="&#xb2;" horiz-adv-x="614" d="M51 729l19 107l280 208q88 66 116.5 102t37.5 91q7 41 -17 70.5t-77 29.5q-93 0 -174 -137l-91 64q48 85 122.5 137.5t162.5 52.5q106 0 162 -61.5t41 -155.5q-13 -76 -49.5 -124.5t-130.5 -117.5l-197 -149h328l-21 -117h-512z" />
<glyph unicode="&#xb3;" horiz-adv-x="614" d="M70 827l94 82q43 -75 162 -75q129 0 145 96q9 55 -29.5 84.5t-130.5 29.5l19 97l2 22q150 0 166 97q6 38 -13 56.5t-71 18.5q-89 0 -160 -71l-68 79q54 52 112 81.5t138 29.5q101 0 154 -53t39 -131q-18 -103 -115 -160q107 -47 84 -180q-18 -102 -102.5 -157.5 t-190.5 -55.5q-167 0 -235 110z" />
<glyph unicode="&#xb4;" horiz-adv-x="655" d="M336 1208l215 287h246l-297 -287h-164z" />
<glyph unicode="&#xb5;" horiz-adv-x="1300" d="M82 -406l156 809l6 48l108 614h256l-108 -614q-20 -117 14 -176.5t150 -59.5q242 0 292 277l103 573h256l-189 -1065h-256l25 135q-119 -155 -336 -155q-82 0 -151 32l-80 -418h-246z" />
<glyph unicode="&#xb6;" d="M328 983q17 95 73.5 181t132 144t161 92t161.5 34h471l-252 -1434h-164l238 1343h-143l-238 -1343h-164l92 532q-76 0 -149.5 34t-128.5 92t-81 144t-9 181zM723 678l6 37z" />
<glyph unicode="&#xb7;" horiz-adv-x="389" d="M178 666q12 72 72.5 123t132.5 51t113.5 -51t29.5 -123t-72 -123t-132 -51t-114 51t-30 123z" />
<glyph unicode="&#xb8;" horiz-adv-x="655" d="M51 -338l70 143q55 -51 108 -51q70 0 82 64q6 39 -31.5 112t-97.5 131h82q8 -6 46.5 -35t53.5 -41.5t44 -42t40.5 -51.5t19 -54.5t1.5 -65.5q-16 -94 -69.5 -141.5t-166.5 -47.5q-16 0 -30 1.5t-27.5 5.5t-24 7t-22 9.5t-18.5 10t-18 12t-15 11.5t-14.5 12.5t-12.5 10.5z " />
<glyph unicode="&#xb9;" d="M453 1270l243 164h123l-125 -717h-133l98 555l-159 -98z" />
<glyph unicode="&#xba;" horiz-adv-x="1095" d="M199 1044q31 172 173 293t314 121q113 0 199 -55.5t124.5 -150.5t18.5 -208q-31 -172 -173 -292.5t-314 -120.5t-272.5 121t-69.5 292zM258 377l55 178h791l-55 -178h-791zM391 1044q-19 -103 31 -170t149 -67t172.5 66.5t92.5 170.5q19 103 -31.5 170.5t-149.5 67.5 t-172 -67t-92 -171z" />
<glyph unicode="&#xbb;" horiz-adv-x="1212" d="M-76 225l27 236l432 272l-373 271l27 235l534 -389l-26 -236zM436 225l27 236l432 272l-373 271l27 235l534 -389l-26 -236z" />
<glyph unicode="&#xbf;" horiz-adv-x="1136" d="M-109 -74q26 145 92.5 229.5t198.5 143.5q72 31 105.5 55.5t56 70t37.5 128.5h246q-3 -81 -20 -143t-38 -99t-60.5 -68.5t-68.5 -47t-81 -38.5q-27 -12 -40 -18q-87 -40 -121 -83.5t-46 -108.5q-11 -68 38 -115t150 -47q107 0 184 49t152 152l164 -136 q-93 -140 -232.5 -220.5t-320.5 -80.5q-213 0 -318 109t-78 268zM379 911q12 72 72.5 123t132.5 51t113.5 -51t29.5 -123t-72.5 -123t-132.5 -51t-113.5 51t-29.5 123z" />
<glyph unicode="&#xc0;" horiz-adv-x="1638" d="M41 0l907 1434h246l403 -1434h-286l-78 317h-717l-188 -317h-287zM657 553h519l-150 616zM688 1864h287l115 -287h-205z" />
<glyph unicode="&#xc1;" horiz-adv-x="1638" d="M41 0l907 1434h246l403 -1434h-286l-78 317h-717l-188 -317h-287zM657 553h519l-150 616zM905 1577l213 287h246l-295 -287h-164z" />
<glyph unicode="&#xc2;" horiz-adv-x="1638" d="M41 0l907 1434h246l403 -1434h-286l-78 317h-717l-188 -317h-287zM657 553h519l-150 616zM725 1577l240 205h225l170 -205h-184l-111 133l-156 -133h-184z" />
<glyph unicode="&#xc3;" horiz-adv-x="1638" d="M41 0l907 1434h246l403 -1434h-286l-78 317h-717l-188 -317h-287zM586 1618q26 114 110.5 187t167.5 73q56 0 106.5 -22.5t93.5 -45t79 -22.5q129 0 143 76l176 -41q-19 -85 -71.5 -146.5t-109.5 -87.5t-112 -26q-54 0 -101.5 22.5t-87 45t-75.5 22.5q-127 0 -141 -76z M657 553h519l-150 616z" />
<glyph unicode="&#xc4;" horiz-adv-x="1638" d="M41 0l907 1434h246l403 -1434h-286l-78 317h-717l-188 -317h-287zM657 553h519l-150 616zM893 1753q26 72 97 124t143 52t105 -52t7 -124t-95.5 -124t-141.5 -52t-106.5 52t-8.5 124zM1343 1753q26 72 97 124t143 52t105.5 -52t7.5 -124t-96 -124t-142 -52t-106.5 52 t-8.5 124z" />
<glyph unicode="&#xc5;" horiz-adv-x="1638" d="M41 0l877 1384q-38 28 -55.5 73.5t-8.5 98.5q15 85 86 145t156 60t134 -60t34 -145q-11 -69 -68 -126l401 -1430h-286l-78 317h-717l-188 -317h-287zM657 553h519l-150 616zM956 1556q-7 -44 17.5 -73t68.5 -29t77.5 29t41.5 73t-16 73.5t-68 29.5t-79 -29.5t-42 -73.5z " />
<glyph unicode="&#xc6;" horiz-adv-x="2232" d="M82 0l1003 1434h1297l-43 -246h-778l-58 -332h676l-43 -246h-676l-65 -364h778l-43 -246h-1045l43 246l11 51h-594l-207 -297h-256zM709 532h471l114 656h-131z" />
<glyph unicode="&#xc7;" horiz-adv-x="1499" d="M270 717q35 200 163 370t312.5 268.5t380.5 98.5q160 0 291.5 -67t212.5 -185l-194 -164q-115 170 -353 170q-200 0 -354.5 -140t-191.5 -351q-24 -138 14.5 -250.5t132 -177t225.5 -64.5q238 0 414 170l135 -164q-109 -104 -244 -169t-278 -78q91 -69 120 -98 q87 -88 70 -183q-16 -94 -69 -141t-166 -47q-44 0 -84.5 16t-53 26t-44.5 37l69 144q55 -51 109 -51q38 0 57 15.5t25 47.5q6 37 -27 104.5t-88 125.5q-145 2 -266.5 61.5t-200 158t-111.5 234t-6 283.5z" />
<glyph unicode="&#xc8;" horiz-adv-x="1372" d="M205 0q42 239 126 717.5t126 716.5h1044l-43 -246h-778l-57 -332h675l-43 -246h-675l-66 -364h778l-43 -246h-1044zM643 1864h287l112 -287h-204z" />
<glyph unicode="&#xc9;" horiz-adv-x="1372" d="M205 0q42 239 126 717.5t126 716.5h1044l-43 -246h-778l-57 -332h675l-43 -246h-675l-66 -364h778l-43 -246h-1044zM858 1577l215 287h246l-297 -287h-164z" />
<glyph unicode="&#xca;" horiz-adv-x="1372" d="M205 0q42 239 126 717.5t126 716.5h1044l-43 -246h-778l-57 -332h675l-43 -246h-675l-66 -364h778l-43 -246h-1044zM637 1577l242 205h225l168 -205h-185l-108 133l-158 -133h-184z" />
<glyph unicode="&#xcb;" horiz-adv-x="1372" d="M205 0q42 239 126 717.5t126 716.5h1044l-43 -246h-778l-57 -332h675l-43 -246h-675l-66 -364h778l-43 -246h-1044zM807 1753q26 72 95.5 124t141.5 52t106.5 -52t8.5 -124t-95.5 -124t-141.5 -52t-106.5 52t-8.5 124zM1257 1753q26 72 96 124t142 52t106.5 -52t8.5 -124 t-96 -124t-142 -52t-106.5 52t-8.5 124z" />
<glyph unicode="&#xcc;" horiz-adv-x="614" d="M174 0l252 1434h266l-252 -1434h-266zM176 1864h287l115 -287h-205z" />
<glyph unicode="&#xcd;" horiz-adv-x="614" d="M174 0l252 1434h266l-252 -1434h-266zM393 1577l213 287h246l-295 -287h-164z" />
<glyph unicode="&#xce;" horiz-adv-x="614" d="M172 1577l240 205h225l170 -205h-184l-111 133l-156 -133h-184zM174 0l252 1434h266l-252 -1434h-266z" />
<glyph unicode="&#xcf;" horiz-adv-x="614" d="M174 0l252 1434h266l-252 -1434h-266zM340 1753q26 72 97 124t143 52t105 -52t7 -124t-95.5 -124t-141.5 -52t-106.5 52t-8.5 124zM791 1753q26 72 96.5 124t142.5 52t105.5 -52t7.5 -124t-96 -124t-142 -52t-106 52t-8 124z" />
<glyph unicode="&#xd1;" horiz-adv-x="1617" d="M164 0l252 1434h246l602 -1000l176 1000h266l-248 -1405l-4 -29h-246l-602 999l-176 -999h-266zM569 1618q26 114 111.5 187t169.5 73q44 0 86 -14t68.5 -31t60 -31t63.5 -14q128 0 142 76l178 -41q-19 -85 -72 -146.5t-110.5 -87.5t-112.5 -26q-54 0 -101 22.5t-86 45 t-75 22.5q-127 0 -141 -76z" />
<glyph unicode="&#xd2;" horiz-adv-x="1740" d="M270 717q35 200 163 370t312.5 268.5t380.5 98.5t346.5 -98.5t218.5 -268.5t33 -370t-163.5 -370t-313.5 -268.5t-381 -98.5t-346 98.5t-217.5 268.5t-32.5 370zM537 717q-24 -138 14.5 -250.5t132 -177t225.5 -64.5q200 0 356 141t193 351t-69 350.5t-306 140.5 t-354.5 -140t-191.5 -351zM786 1864h287l113 -287h-205z" />
<glyph unicode="&#xd3;" horiz-adv-x="1740" d="M270 717q35 200 163 370t312.5 268.5t380.5 98.5t346.5 -98.5t218.5 -268.5t33 -370t-163.5 -370t-313.5 -268.5t-381 -98.5t-346 98.5t-217.5 268.5t-32.5 370zM537 717q-24 -138 14.5 -250.5t132 -177t225.5 -64.5q200 0 356 141t193 351t-69 350.5t-306 140.5 t-354.5 -140t-191.5 -351zM1001 1577l216 287h245l-297 -287h-164z" />
<glyph unicode="&#xd4;" horiz-adv-x="1740" d="M270 717q35 200 163 370t312.5 268.5t380.5 98.5t346.5 -98.5t218.5 -268.5t33 -370t-163.5 -370t-313.5 -268.5t-381 -98.5t-346 98.5t-217.5 268.5t-32.5 370zM537 717q-24 -138 14.5 -250.5t132 -177t225.5 -64.5q200 0 356 141t193 351t-69 350.5t-306 140.5 t-354.5 -140t-191.5 -351zM780 1577l242 205h225l168 -205h-184l-109 133l-157 -133h-185z" />
<glyph unicode="&#xd5;" horiz-adv-x="1740" d="M270 717q35 200 163 370t312.5 268.5t380.5 98.5t346.5 -98.5t218.5 -268.5t33 -370t-163.5 -370t-313.5 -268.5t-381 -98.5t-346 98.5t-217.5 268.5t-32.5 370zM537 717q-24 -138 14.5 -250.5t132 -177t225.5 -64.5q200 0 356 141t193 351t-69 350.5t-306 140.5 t-354.5 -140t-191.5 -351zM682 1618q26 114 111.5 187t169.5 73q44 0 86 -14t68.5 -31t60 -31t63.5 -14q127 0 141 76l179 -41q-19 -85 -72 -146.5t-110.5 -87.5t-112.5 -26q-54 0 -101 22.5t-86 45t-75 22.5q-128 0 -142 -76z" />
<glyph unicode="&#xd6;" horiz-adv-x="1740" d="M270 717q35 200 163 370t312.5 268.5t380.5 98.5t346.5 -98.5t218.5 -268.5t33 -370t-163.5 -370t-313.5 -268.5t-381 -98.5t-346 98.5t-217.5 268.5t-32.5 370zM537 717q-24 -138 14.5 -250.5t132 -177t225.5 -64.5q200 0 356 141t193 351t-69 350.5t-306 140.5 t-354.5 -140t-191.5 -351zM950 1753q26 72 96 124t142 52t106.5 -52t8.5 -124t-96 -124t-142 -52t-106.5 52t-8.5 124zM1401 1753q26 72 95.5 124t141.5 52t106.5 -52t8.5 -124t-95.5 -124t-141.5 -52t-106.5 52t-8.5 124z" />
<glyph unicode="&#xd9;" horiz-adv-x="1556" d="M244 573l151 861h256l-143 -820q-28 -161 65.5 -259.5t249.5 -98.5q101 0 194 42t161.5 125t87.5 191l143 820h256l-152 -861q-46 -259 -254.5 -426t-484.5 -167q-136 0 -246 44.5t-180 122t-98.5 188t-5.5 238.5zM653 1864h287l113 -287h-205z" />
<glyph unicode="&#xda;" horiz-adv-x="1556" d="M244 573l151 861h256l-143 -820q-28 -161 65.5 -259.5t249.5 -98.5q101 0 194 42t161.5 125t87.5 191l143 820h256l-152 -861q-46 -259 -254.5 -426t-484.5 -167q-136 0 -246 44.5t-180 122t-98.5 188t-5.5 238.5zM868 1577l215 287h246l-297 -287h-164z" />
<glyph unicode="&#xdb;" horiz-adv-x="1556" d="M244 573l151 861h256l-143 -820q-28 -161 65.5 -259.5t249.5 -98.5q101 0 194 42t161.5 125t87.5 191l143 820h256l-152 -861q-46 -259 -254.5 -426t-484.5 -167q-136 0 -246 44.5t-180 122t-98.5 188t-5.5 238.5zM647 1577l242 205h225l168 -205h-184l-109 133 l-158 -133h-184z" />
<glyph unicode="&#xdc;" horiz-adv-x="1556" d="M244 573l151 861h256l-143 -820q-28 -161 65.5 -259.5t249.5 -98.5q101 0 194 42t161.5 125t87.5 191l143 820h256l-152 -861q-46 -259 -254.5 -426t-484.5 -167q-136 0 -246 44.5t-180 122t-98.5 188t-5.5 238.5zM817 1753q26 72 96 124t142 52t106 -52t8 -124 t-95.5 -124t-141.5 -52t-106.5 52t-8.5 124zM1268 1753q26 72 95.5 124t141.5 52t106.5 -52t8.5 -124t-96 -124t-142 -52t-106 52t-8 124z" />
<glyph unicode="&#xdd;" horiz-adv-x="1392" d="M272 1434h287l281 -619l497 619h287l-694 -861l-101 -573h-266l101 573zM782 1577l213 287h246l-295 -287h-164z" />
<glyph unicode="&#xe0;" horiz-adv-x="1187" d="M121 307q12 67 43 118.5t78.5 85t101.5 55.5t124.5 33t133.5 15t141 4h164l11 58q17 96 -28 135t-151 39q-175 0 -305 -88l-129 160q112 83 216.5 123t250.5 40q220 0 328 -109.5t74 -299.5l-119 -676h-256l20 117q-127 -137 -352 -137q-78 0 -145.5 20t-118 59 t-73.5 103t-9 145zM379 317q-10 -58 40 -90t148 -32q48 0 94 11t90.5 34.5t76.5 67t42 102.5l7 36h-103q-190 0 -285.5 -25.5t-109.5 -103.5zM498 1495h286l113 -287h-205z" />
<glyph unicode="&#xe1;" horiz-adv-x="1187" d="M121 307q12 67 43 118.5t78.5 85t101.5 55.5t124.5 33t133.5 15t141 4h164l11 58q17 96 -28 135t-151 39q-175 0 -305 -88l-129 160q112 83 216.5 123t250.5 40q220 0 328 -109.5t74 -299.5l-119 -676h-256l20 117q-127 -137 -352 -137q-78 0 -145.5 20t-118 59 t-73.5 103t-9 145zM379 317q-10 -58 40 -90t148 -32q48 0 94 11t90.5 34.5t76.5 67t42 102.5l7 36h-103q-190 0 -285.5 -25.5t-109.5 -103.5zM713 1208l215 287h246l-297 -287h-164z" />
<glyph unicode="&#xe2;" horiz-adv-x="1187" d="M121 307q12 67 43 118.5t78.5 85t101.5 55.5t124.5 33t133.5 15t141 4h164l11 58q17 96 -28 135t-151 39q-175 0 -305 -88l-129 160q112 83 216.5 123t250.5 40q220 0 328 -109.5t74 -299.5l-119 -676h-256l20 117q-127 -137 -352 -137q-78 0 -145.5 20t-118 59 t-73.5 103t-9 145zM379 317q-10 -58 40 -90t148 -32q48 0 94 11t90.5 34.5t76.5 67t42 102.5l7 36h-103q-190 0 -285.5 -25.5t-109.5 -103.5zM492 1208l241 205h225l168 -205h-184l-108 133l-158 -133h-184z" />
<glyph unicode="&#xe3;" horiz-adv-x="1187" d="M121 307q12 67 43 118.5t78.5 85t101.5 55.5t124.5 33t133.5 15t141 4h164l11 58q17 96 -28 135t-151 39q-175 0 -305 -88l-129 160q112 83 216.5 123t250.5 40q220 0 328 -109.5t74 -299.5l-119 -676h-256l20 117q-127 -137 -352 -137q-78 0 -145.5 20t-118 59 t-73.5 103t-9 145zM379 317q-10 -58 40 -90t148 -32q48 0 94 11t90.5 34.5t76.5 67t42 102.5l7 36h-103q-190 0 -285.5 -25.5t-109.5 -103.5zM393 1249q26 114 111.5 187t169.5 73q44 0 86 -14t68.5 -31t60 -31t63.5 -14q128 0 142 76l178 -41q-19 -85 -72 -146.5 t-110.5 -87.5t-112.5 -26q-54 0 -101 22.5t-86 45t-75 22.5q-128 0 -142 -76z" />
<glyph unicode="&#xe4;" horiz-adv-x="1187" d="M121 307q12 67 43 118.5t78.5 85t101.5 55.5t124.5 33t133.5 15t141 4h164l11 58q17 96 -28 135t-151 39q-175 0 -305 -88l-129 160q112 83 216.5 123t250.5 40q220 0 328 -109.5t74 -299.5l-119 -676h-256l20 117q-127 -137 -352 -137q-78 0 -145.5 20t-118 59 t-73.5 103t-9 145zM379 317q-10 -58 40 -90t148 -32q48 0 94 11t90.5 34.5t76.5 67t42 102.5l7 36h-103q-190 0 -285.5 -25.5t-109.5 -103.5zM662 1384q26 72 95.5 124.5t141.5 52.5t106.5 -52.5t8.5 -124.5t-96 -124t-142 -52t-106 52t-8 124zM1112 1384q26 72 96 124.5 t142 52.5t106 -52.5t8 -124.5t-95.5 -124t-141.5 -52t-106.5 52t-8.5 124z" />
<glyph unicode="&#xe5;" horiz-adv-x="1187" d="M121 307q12 67 43 118.5t78.5 85t101.5 55.5t124.5 33t133.5 15t141 4h164l11 58q17 96 -28 135t-151 39q-175 0 -305 -88l-129 160q112 83 216.5 123t250.5 40q220 0 328 -109.5t74 -299.5l-119 -676h-256l20 117q-127 -137 -352 -137q-78 0 -145.5 20t-118 59 t-73.5 103t-9 145zM379 317q-10 -58 40 -90t148 -32q48 0 94 11t90.5 34.5t76.5 67t42 102.5l7 36h-103q-190 0 -285.5 -25.5t-109.5 -103.5zM623 1413q15 85 85.5 145t155.5 60t134 -60t34 -145t-85.5 -145t-155.5 -60t-134 60t-34 145zM725 1413q-8 -44 16 -73t68 -29 t79 29t42 73q8 44 -16 73.5t-68 29.5t-79 -29.5t-42 -73.5z" />
<glyph unicode="&#xe7;" horiz-adv-x="1173" d="M207 532q20 112 81.5 214.5t148.5 176.5t197 118t222 44q131 0 230.5 -55t156.5 -153l-184 -160q-70 133 -244 133q-132 0 -229.5 -90t-122.5 -228t42.5 -227.5t199.5 -89.5q171 0 288 133l131 -160q-163 -180 -393 -204q90 -68 115 -92q93 -90 76 -189 q-16 -94 -69.5 -141t-166.5 -47q-44 0 -84.5 16t-53 26t-44.5 37l69 144q55 -51 109 -51q38 0 57 15.5t25 47.5q6 37 -27 104.5t-88 125.5q-147 3 -258 77.5t-160.5 200.5t-23.5 274z" />
<glyph unicode="&#xe8;" horiz-adv-x="1259" d="M207 532q21 119 84 223.5t150 176t193 112.5t212 41q216 0 331.5 -155.5t73.5 -397.5l-10 -61h-786q-6 -122 53.5 -189t169.5 -67q104 0 177.5 27.5t141.5 99.5l138 -154q-88 -97 -218.5 -152.5t-265.5 -55.5q-231 0 -358.5 155t-85.5 397zM498 649h508q-2 100 -50 150.5 t-151 50.5q-106 0 -185 -52t-122 -149zM541 1495h286l113 -287h-205z" />
<glyph unicode="&#xe9;" horiz-adv-x="1259" d="M207 532q21 119 84 223.5t150 176t193 112.5t212 41q216 0 331.5 -155.5t73.5 -397.5l-10 -61h-786q-6 -122 53.5 -189t169.5 -67q104 0 177.5 27.5t141.5 99.5l138 -154q-88 -97 -218.5 -152.5t-265.5 -55.5q-231 0 -358.5 155t-85.5 397zM498 649h508q-2 100 -50 150.5 t-151 50.5q-106 0 -185 -52t-122 -149zM756 1208l215 287h246l-297 -287h-164z" />
<glyph unicode="&#xea;" horiz-adv-x="1259" d="M207 532q21 119 84 223.5t150 176t193 112.5t212 41q216 0 331.5 -155.5t73.5 -397.5l-10 -61h-786q-6 -122 53.5 -189t169.5 -67q104 0 177.5 27.5t141.5 99.5l138 -154q-88 -97 -218.5 -152.5t-265.5 -55.5q-231 0 -358.5 155t-85.5 397zM498 649h508q-2 100 -50 150.5 t-151 50.5q-106 0 -185 -52t-122 -149zM535 1208l241 205h225l168 -205h-184l-108 133l-158 -133h-184z" />
<glyph unicode="&#xeb;" horiz-adv-x="1259" d="M207 532q21 119 84 223.5t150 176t193 112.5t212 41q216 0 331.5 -155.5t73.5 -397.5l-10 -61h-786q-6 -122 53.5 -189t169.5 -67q104 0 177.5 27.5t141.5 99.5l138 -154q-88 -97 -218.5 -152.5t-265.5 -55.5q-231 0 -358.5 155t-85.5 397zM498 649h508q-2 100 -50 150.5 t-151 50.5q-106 0 -185 -52t-122 -149zM705 1384q26 72 95.5 124.5t141.5 52.5t106.5 -52.5t8.5 -124.5t-96 -124t-142 -52t-106 52t-8 124zM1155 1384q26 72 96 124.5t142 52.5t106 -52.5t8 -124.5t-95.5 -124t-141.5 -52t-106.5 52t-8.5 124z" />
<glyph unicode="&#xec;" horiz-adv-x="552" d="M154 0l188 1065h246l-189 -1065h-245zM172 1495h287l112 -287h-204z" />
<glyph unicode="&#xed;" horiz-adv-x="552" d="M154 0l188 1065h246l-189 -1065h-245zM387 1208l215 287h246l-297 -287h-164z" />
<glyph unicode="&#xee;" horiz-adv-x="552" d="M154 0l188 1065h246l-189 -1065h-245zM166 1208l242 205h225l168 -205h-185l-108 133l-158 -133h-184z" />
<glyph unicode="&#xef;" horiz-adv-x="552" d="M154 0l188 1065h246l-189 -1065h-245zM336 1384q26 72 95.5 124.5t141.5 52.5t106.5 -52.5t8.5 -124.5t-95.5 -124t-141.5 -52t-106.5 52t-8.5 124zM786 1384q26 72 96 124.5t142 52.5t106.5 -52.5t8.5 -124.5t-96 -124t-142 -52t-106.5 52t-8.5 124z" />
<glyph unicode="&#xf1;" horiz-adv-x="1300" d="M174 0l188 1065h256l-24 -135q119 155 334 155q119 0 200 -62.5t110.5 -169.5t6.5 -239l-108 -614h-256l108 614q20 117 -14 176.5t-150 59.5q-246 0 -295 -275l-100 -575h-256zM463 1249q26 114 110.5 187t167.5 73q56 0 106.5 -22.5t93.5 -45t79 -22.5q129 0 143 76 l176 -41q-15 -64 -48.5 -116t-75 -82t-85 -46t-83.5 -16q-54 0 -101.5 22.5t-87.5 45t-76 22.5q-127 0 -141 -76z" />
<glyph unicode="&#xf2;" horiz-adv-x="1331" d="M207 532q20 112 81.5 214.5t148.5 176.5t197 118t222 44q150 0 264.5 -74t166.5 -201.5t26 -277.5t-123 -277t-237.5 -201t-290.5 -74t-264 74t-165.5 201t-25.5 277zM463 532q-25 -138 42.5 -227.5t199.5 -89.5t229.5 89.5t122.5 227.5t-42.5 228t-199.5 90t-229.5 -90 t-122.5 -228zM582 1495h286l113 -287h-205z" />
<glyph unicode="&#xf3;" horiz-adv-x="1331" d="M207 532q20 112 81.5 214.5t148.5 176.5t197 118t222 44q150 0 264.5 -74t166.5 -201.5t26 -277.5t-123 -277t-237.5 -201t-290.5 -74t-264 74t-165.5 201t-25.5 277zM463 532q-25 -138 42.5 -227.5t199.5 -89.5t229.5 89.5t122.5 227.5t-42.5 228t-199.5 90t-229.5 -90 t-122.5 -228zM797 1208l215 287h245l-296 -287h-164z" />
<glyph unicode="&#xf4;" horiz-adv-x="1331" d="M207 532q20 112 81.5 214.5t148.5 176.5t197 118t222 44q150 0 264.5 -74t166.5 -201.5t26 -277.5t-123 -277t-237.5 -201t-290.5 -74t-264 74t-165.5 201t-25.5 277zM463 532q-25 -138 42.5 -227.5t199.5 -89.5t229.5 89.5t122.5 227.5t-42.5 228t-199.5 90t-229.5 -90 t-122.5 -228zM575 1208l242 205h225l168 -205h-184l-108 133l-158 -133h-185z" />
<glyph unicode="&#xf5;" horiz-adv-x="1331" d="M207 532q20 112 81.5 214.5t148.5 176.5t197 118t222 44q150 0 264.5 -74t166.5 -201.5t26 -277.5t-123 -277t-237.5 -201t-290.5 -74t-264 74t-165.5 201t-25.5 277zM463 532q-25 -138 42.5 -227.5t199.5 -89.5t229.5 89.5t122.5 227.5t-42.5 228t-199.5 90t-229.5 -90 t-122.5 -228zM477 1249q26 114 111.5 187t169.5 73q44 0 86 -14t68.5 -31t60 -31t63.5 -14q128 0 142 76l178 -41q-19 -85 -72 -146.5t-110.5 -87.5t-112.5 -26q-54 0 -101 22.5t-86 45t-75 22.5q-128 0 -142 -76z" />
<glyph unicode="&#xf6;" horiz-adv-x="1331" d="M207 532q20 112 81.5 214.5t148.5 176.5t197 118t222 44q150 0 264.5 -74t166.5 -201.5t26 -277.5t-123 -277t-237.5 -201t-290.5 -74t-264 74t-165.5 201t-25.5 277zM463 532q-25 -138 42.5 -227.5t199.5 -89.5t229.5 89.5t122.5 227.5t-42.5 228t-199.5 90t-229.5 -90 t-122.5 -228zM745 1384q26 72 96 124.5t142 52.5t106.5 -52.5t8.5 -124.5t-96 -124t-142 -52t-106.5 52t-8.5 124zM1196 1384q26 72 96 124.5t142 52.5t106 -52.5t8 -124.5t-95.5 -124t-141.5 -52t-106.5 52t-8.5 124z" />
<glyph unicode="&#xf9;" horiz-adv-x="1300" d="M244 451l108 614h256l-108 -614q-20 -117 14 -176.5t150 -59.5q242 0 292 277l103 573h256l-189 -1065h-256l25 135q-119 -155 -336 -155q-179 0 -265 134.5t-50 336.5zM555 1495h287l114 -287h-204z" />
<glyph unicode="&#xfa;" horiz-adv-x="1300" d="M244 451l108 614h256l-108 -614q-20 -117 14 -176.5t150 -59.5q242 0 292 277l103 573h256l-189 -1065h-256l25 135q-119 -155 -336 -155q-179 0 -265 134.5t-50 336.5zM772 1208l213 287h246l-295 -287h-164z" />
<glyph unicode="&#xfb;" horiz-adv-x="1300" d="M244 451l108 614h256l-108 -614q-20 -117 14 -176.5t150 -59.5q242 0 292 277l103 573h256l-189 -1065h-256l25 135q-119 -155 -336 -155q-179 0 -265 134.5t-50 336.5zM551 1208l240 205h225l170 -205h-185l-110 133l-156 -133h-184z" />
<glyph unicode="&#xfc;" horiz-adv-x="1300" d="M244 451l108 614h256l-108 -614q-20 -117 14 -176.5t150 -59.5q242 0 292 277l103 573h256l-189 -1065h-256l25 135q-119 -155 -336 -155q-179 0 -265 134.5t-50 336.5zM719 1384q26 72 96.5 124.5t142.5 52.5t105.5 -52.5t7.5 -124.5t-95.5 -124t-141.5 -52t-106.5 52 t-8.5 124zM1169 1384q26 72 97 124.5t143 52.5t105.5 -52.5t7.5 -124.5t-96 -124t-142 -52t-106.5 52t-8.5 124z" />
<glyph unicode="&#xfd;" horiz-adv-x="1185" d="M39 -307l137 180q25 -34 56.5 -51t86.5 -17t94 30.5t74 94.5l41 76l-280 1059h266l191 -735l403 735h256l-576 -1053v-2h-2l-73 -133q-74 -134 -183.5 -220.5t-238.5 -86.5q-85 0 -151.5 34t-100.5 89zM702 1208l216 287h245l-297 -287h-164z" />
<glyph unicode="&#xff;" horiz-adv-x="1185" d="M39 -307l137 180q25 -34 56.5 -51t86.5 -17t94 30.5t74 94.5l41 76l-280 1059h266l191 -735l403 735h256l-576 -1053v-2h-2l-73 -133q-74 -134 -183.5 -220.5t-238.5 -86.5q-85 0 -151.5 34t-100.5 89zM651 1384q26 72 96 124.5t142 52.5t106.5 -52.5t8.5 -124.5 t-96 -124t-142 -52t-106.5 52t-8.5 124zM1102 1384q26 72 95.5 124.5t141.5 52.5t106.5 -52.5t8.5 -124.5t-95.5 -124t-141.5 -52t-106.5 52t-8.5 124z" />
<glyph unicode="&#x178;" horiz-adv-x="1392" d="M272 1434h287l281 -619l497 619h287l-694 -861l-101 -573h-266l101 573zM729 1753q26 72 97 124t143 52t105 -52t7 -124t-95.5 -124t-141.5 -52t-106.5 52t-8.5 124zM1180 1753q26 72 96.5 124t142.5 52t105.5 -52t7.5 -124t-96 -124t-142 -52t-106 52t-8 124z" />
<glyph unicode="&#x2c6;" horiz-adv-x="1024" d="M422 1290l242 205h225l168 -205h-185l-108 133l-158 -133h-184z" />
<glyph unicode="&#x2dc;" horiz-adv-x="1024" d="M324 1270q26 114 111 187t169 73q56 0 106.5 -22.5t93.5 -45t79 -22.5q127 0 141 76l178 -41q-19 -85 -72 -146.5t-110.5 -88t-112.5 -26.5q-54 0 -101 23t-86 45.5t-75 22.5q-127 0 -141 -76z" />
<glyph unicode="&#x2000;" horiz-adv-x="964" />
<glyph unicode="&#x2001;" horiz-adv-x="1929" />
<glyph unicode="&#x2002;" horiz-adv-x="964" />
<glyph unicode="&#x2003;" horiz-adv-x="1929" />
<glyph unicode="&#x2004;" horiz-adv-x="643" />
<glyph unicode="&#x2005;" horiz-adv-x="482" />
<glyph unicode="&#x2006;" horiz-adv-x="321" />
<glyph unicode="&#x2007;" horiz-adv-x="321" />
<glyph unicode="&#x2008;" horiz-adv-x="241" />
<glyph unicode="&#x2009;" horiz-adv-x="385" />
<glyph unicode="&#x200a;" horiz-adv-x="107" />
<glyph unicode="&#x2010;" horiz-adv-x="880" d="M219 492l43 235h615l-43 -235h-615z" />
<glyph unicode="&#x2011;" horiz-adv-x="880" d="M219 492l43 235h615l-43 -235h-615z" />
<glyph unicode="&#x2012;" horiz-adv-x="880" d="M219 492l43 235h615l-43 -235h-615z" />
<glyph unicode="&#x2013;" horiz-adv-x="1246" d="M219 492l67 235h957l-67 -235h-957z" />
<glyph unicode="&#x2014;" horiz-adv-x="2270" d="M219 492l134 235h1914l-134 -235h-1914z" />
<glyph unicode="&#x2018;" horiz-adv-x="438" d="M-29 1075q10 63 80 146l230 274h143l-156 -268q36 -24 53.5 -64t8.5 -88q-12 -72 -72.5 -123t-132.5 -51q-85 0 -125.5 49.5t-28.5 124.5z" />
<glyph unicode="&#x2019;" horiz-adv-x="438" d="M14 1004l156 268q-36 24 -53 63.5t-8 87.5q12 72 72 123t132 51q85 0 125.5 -49.5t28.5 -124.5q-9 -61 -80 -145l-229 -274h-144z" />
<glyph unicode="&#x201c;" horiz-adv-x="847" d="M-29 1075q10 63 80 146l230 274h143l-156 -268q36 -24 53.5 -64t8.5 -88q-12 -72 -72.5 -123t-132.5 -51q-85 0 -125.5 49.5t-28.5 124.5zM381 1075q10 63 80 146l229 274h144l-156 -268q36 -24 53 -64t8 -88q-12 -72 -72 -123t-132 -51q-85 0 -125.5 49.5t-28.5 124.5z " />
<glyph unicode="&#x201d;" horiz-adv-x="847" d="M14 1004l156 268q-36 24 -53 63.5t-8 87.5q12 72 72 123t132 51q85 0 125.5 -49.5t28.5 -124.5q-9 -61 -80 -145l-229 -274h-144zM424 1004l156 268q-36 24 -53.5 63.5t-8.5 87.5q12 72 72.5 123t132.5 51q85 0 125.5 -49.5t28.5 -124.5q-9 -61 -80 -145l-230 -274h-143z " />
<glyph unicode="&#x202f;" horiz-adv-x="385" />
<glyph unicode="&#x205f;" horiz-adv-x="482" />
<glyph unicode="&#x25fc;" horiz-adv-x="1064" d="M0 0v1065h1065v-1065h-1065z" />
<glyph unicode="&#xfb01;" horiz-adv-x="829" d="M236 0l145 829h-143l43 236h143l25 143q22 122 140.5 215t254.5 93q118 0 164 -46l-41 -227q-53 37 -131 37q-52 0 -91 -33.5t-47 -79.5l-18 -102h283l-43 -236h-283l-145 -829h-256z" />
</font>
</defs>
</svg>
