<?xml version="1.0" standalone="no"?>
<!DOCTYPE svg PUBLIC "-//W3C//DTD SVG 1.1//EN" "http://www.w3.org/Graphics/SVG/1.1/DTD/svg11.dtd" >
<svg xmlns="http://www.w3.org/2000/svg">
<metadata></metadata>
<defs>
<font id="jones_lightlight" horiz-adv-x="1228" >
<font-face units-per-em="2048" ascent="1606" descent="-442" />
<missing-glyph horiz-adv-x="614" />
<glyph horiz-adv-x="0" />
<glyph horiz-adv-x="682" />
<glyph unicode=" "  horiz-adv-x="614" />
<glyph unicode="&#x09;" horiz-adv-x="614" />
<glyph unicode="&#xa0;" horiz-adv-x="614" />
<glyph unicode="!" horiz-adv-x="471" d="M125 92q0 46 32.5 79.5t78.5 33.5q45 0 77.5 -33.5t32.5 -79.5t-32 -79t-78 -33t-78.5 33t-32.5 79zM156 1004v491h159v-491l-45 -492h-69z" />
<glyph unicode="&#x22;" horiz-adv-x="696" d="M72 1411q0 46 28.5 75.5t73.5 29.5t73.5 -29.5t28.5 -75.5q0 -11 -4 -35l-63 -393h-70l-63 393q-4 24 -4 35zM420 1411q0 46 28.5 75.5t73.5 29.5q46 0 74.5 -29.5t28.5 -75.5q0 -11 -4 -35l-64 -393h-70l-63 393q-4 24 -4 35z" />
<glyph unicode="#" horiz-adv-x="1658" d="M123 358v113h315l86 492h-319v112h338l61 359h123l-61 -359h450l62 359h122l-61 -359h297v-112h-315l-86 -492h319v-113h-338l-61 -358h-123l61 358h-450l-62 -358h-123l62 358h-297zM561 471h451l86 492h-451z" />
<glyph unicode="$" d="M82 231l90 109q45 -41 79.5 -69t91 -65t121 -60.5t132.5 -30.5v573q-194 34 -313 133.5t-119 257.5q0 159 126.5 263t305.5 112v143h102v-147q252 -24 404 -176l-86 -98q-58 57 -145 94.5t-173 46.5v-512q76 -14 138 -34.5t119.5 -53.5t96.5 -76t62 -104.5t23 -137.5 q0 -187 -115.5 -296t-323.5 -121v-146h-102v146q-83 6 -160 29.5t-142 61.5t-112.5 74t-99.5 84zM295 1090q0 -114 76.5 -175.5t224.5 -91.5v496q-137 -11 -219 -72.5t-82 -156.5zM698 115q137 10 221.5 80t84.5 204q0 108 -83 176.5t-223 96.5v-557z" />
<glyph unicode="%" horiz-adv-x="1925" d="M61 1126q0 161 114.5 275.5t275.5 114.5t275 -114.5t114 -275.5t-114 -275t-275 -114t-275.5 114t-114.5 275zM164 1126q0 -124 82.5 -210.5t204.5 -86.5t204 86.5t82 210.5t-82 210.5t-204 86.5t-204.5 -86.5t-82.5 -210.5zM348 0l1106 1495h123l-1106 -1495h-123z M1085 369q0 161 114.5 275t275.5 114t275 -114t114 -275t-114 -275t-275 -114t-275.5 114t-114.5 275zM1188 369q0 -124 82.5 -210.5t204.5 -86.5t204 86.5t82 210.5t-82 210.5t-204 86.5t-204.5 -86.5t-82.5 -210.5z" />
<glyph unicode="&#x26;" horiz-adv-x="1464" d="M143 389q0 65 18.5 118t48 89.5t75 66.5t90 48.5t102.5 36.5q-85 97 -122.5 170.5t-37.5 166.5q0 167 101 268t268 101t268 -101t101 -268q0 -93 -53.5 -173.5t-135.5 -131t-180 -73.5q-1 0 -4 -1t-4 -1q10 -12 35 -37l358 -369q97 129 146 330l114 -47 q-38 -216 -174 -371l205 -211h-164l-125 127q-180 -147 -418 -147q-229 0 -370.5 113t-141.5 296zM266 389q0 -123 115.5 -205t294.5 -82t313 113l-373 381q-44 47 -67 74q-62 -19 -109 -42t-88.5 -55.5t-63.5 -79t-22 -104.5zM440 1085q0 -46 9 -83t34.5 -75.5t48.5 -65 t72 -79.5q3 1 10.5 3t10.5 3q127 35 217 115t90 182q0 116 -68.5 176t-177.5 60t-177.5 -60t-68.5 -176z" />
<glyph unicode="'" horiz-adv-x="348" d="M72 1411q0 46 28.5 75.5t73.5 29.5t73.5 -29.5t28.5 -75.5q0 -11 -4 -35l-63 -393h-70l-63 393q-4 24 -4 35z" />
<glyph unicode="(" horiz-adv-x="563" d="M102 543q0 497 338 973l82 -41q-182 -262 -246 -597t0 -670t246 -597l-82 -41q-338 476 -338 973z" />
<glyph unicode=")" horiz-adv-x="563" d="M41 -389q182 262 246 597t0 670t-246 597l82 41q338 -476 338 -973t-338 -973z" />
<glyph unicode="*" horiz-adv-x="663" d="M45 1069l207 119l-207 119l41 69l205 -119v238h82v-238l205 119l40 -69l-206 -119l206 -119l-40 -70l-205 119v-237h-82v237l-205 -119z" />
<glyph unicode="+" horiz-adv-x="1044" d="M61 684v113h400v409h123v-409h399v-113h-399v-410h-123v410h-400z" />
<glyph unicode="," horiz-adv-x="520" d="M133 -266l113 250q-36 11 -58 40.5t-22 67.5q0 46 33 79.5t82 33.5q48 0 81 -30.5t33 -82.5q0 -35 -24 -78l-166 -280h-72z" />
<glyph unicode="-" horiz-adv-x="880" d="M133 553v113h615v-113h-615z" />
<glyph unicode="." horiz-adv-x="471" d="M125 92q0 46 32.5 79.5t78.5 33.5q45 0 77.5 -33.5t32.5 -79.5t-32 -79t-78 -33t-78.5 33t-32.5 79z" />
<glyph unicode="/" horiz-adv-x="880" d="M-41 -164l860 1761h103l-861 -1761h-102z" />
<glyph unicode="0" d="M31 717q0 205 70 371.5t204.5 266t308.5 99.5t308.5 -99.5t205 -266t70.5 -371.5t-70.5 -371.5t-205 -266t-308.5 -99.5t-308.5 99.5t-204.5 266t-70 371.5zM174 717q0 -162 53 -296.5t154.5 -216t232.5 -81.5t233 81.5t155 216t53 296.5t-53 296.5t-155 216t-233 81.5 t-232.5 -81.5t-154.5 -216t-53 -296.5z" />
<glyph unicode="1" d="M246 1167l409 267h123v-1434h-143v1257l-320 -206z" />
<glyph unicode="2" d="M102 0v113l539 501q156 144 221.5 241.5t65.5 201.5q0 111 -85 187.5t-229 76.5q-267 0 -395 -303l-117 53q68 170 202.5 276.5t309.5 106.5q192 0 321.5 -120t129.5 -277q0 -48 -8 -91t-20 -79t-36.5 -75t-46.5 -68.5t-62 -71t-71.5 -71.5t-85.5 -79l-426 -389h817v-133 h-1024z" />
<glyph unicode="3" d="M102 203l97 92q62 -83 177.5 -133.5t237.5 -50.5q97 0 182.5 33.5t141 101.5t55.5 157q0 149 -120 216t-361 67v133q195 0 307.5 69.5t112.5 176.5q0 121 -82.5 188.5t-235.5 67.5q-211 0 -362 -180l-98 92q42 49 83 85.5t96 69t126 49.5t155 17q201 0 326 -106.5 t125 -262.5q0 -126 -57.5 -205.5t-173.5 -119.5q144 -32 218 -116t74 -241q0 -104 -43 -186.5t-116 -133t-163 -77t-190 -26.5q-339 0 -512 223z" />
<glyph unicode="4" d="M82 297v113l727 1024h154v-1004h163v-133h-163v-297h-134v297h-747zM250 430h579v813z" />
<glyph unicode="5" d="M102 203l95 96q63 -85 176 -134.5t241 -49.5q98 0 182.5 36.5t140.5 114.5t56 185q0 158 -97.5 253t-281.5 95q-245 0 -378 -162h-93l123 797h778v-134h-673l-68 -485q111 117 352 117q130 0 237 -59.5t170.5 -170.5t63.5 -251q0 -90 -28 -167t-77 -132t-114.5 -94.5 t-139.5 -58.5t-153 -19q-339 0 -512 223z" />
<glyph unicode="6" d="M102 451q0 148 119 321l453 662h172l-412 -570q109 47 242 47q197 0 323.5 -130.5t126.5 -329.5q0 -201 -143 -336t-369 -135t-369 135t-143 336zM225 451q0 -151 114.5 -250t274.5 -99q172 0 281 97.5t109 251.5t-109 251t-281 97q-160 0 -274.5 -98.5t-114.5 -249.5z " />
<glyph unicode="7" d="M102 1300v134h1026v-103l-634 -1331h-146l621 1300h-867z" />
<glyph unicode="8" d="M102 383q0 148 76.5 240.5t210.5 132.5q-105 43 -165 126.5t-60 202.5q0 153 130.5 261t319.5 108t320 -108t131 -261q0 -119 -60 -202.5t-165 -126.5q134 -40 210 -132.5t76 -240.5q0 -120 -69.5 -213t-185.5 -141.5t-257 -48.5t-257 48.5t-185.5 141.5t-69.5 213z M236 403q0 -145 105 -218.5t273 -73.5t273.5 73.5t105.5 218.5t-105.5 219t-273.5 74t-273 -74t-105 -219zM297 1065q0 -115 94 -185.5t223 -70.5q141 0 229.5 69t88.5 187t-88.5 187t-229.5 69t-229 -69t-88 -187z" />
<glyph unicode="9" d="M102 983q0 201 143 336t369 135t369 -135t143 -336q0 -149 -118 -321l-453 -662h-172l412 569q-109 -47 -242 -47q-197 0 -324 131t-127 330zM225 983q0 -154 108.5 -251t280.5 -97q160 0 275 98.5t115 249.5t-115 249.5t-275 98.5q-172 0 -280.5 -97t-108.5 -251z" />
<glyph unicode=":" horiz-adv-x="471" d="M125 92q0 46 32.5 79.5t78.5 33.5q45 0 77.5 -33.5t32.5 -79.5t-32 -79t-78 -33t-78.5 33t-32.5 79zM125 940q0 46 32.5 79.5t78.5 33.5q45 0 77.5 -33.5t32.5 -79.5t-32.5 -79.5t-77.5 -33.5q-46 0 -78.5 33.5t-32.5 79.5z" />
<glyph unicode=";" horiz-adv-x="520" d="M113 -266l112 250q-36 11 -58 40.5t-22 67.5q0 46 33 79.5t82 33.5q48 0 81.5 -30.5t33.5 -82.5q0 -33 -25 -78l-166 -280h-71zM145 940q0 46 32.5 79.5t78.5 33.5t78.5 -33.5t32.5 -79.5t-32.5 -79.5t-78.5 -33.5t-78.5 33.5t-32.5 79.5z" />
<glyph unicode="&#x3c;" horiz-adv-x="1044" d="M61 655v154l922 410v-154l-750 -332l750 -334v-153z" />
<glyph unicode="=" horiz-adv-x="1044" d="M61 430v113h922v-113h-922zM61 911v113h922v-113h-922z" />
<glyph unicode="&#x3e;" horiz-adv-x="1044" d="M74 246v153l749 334l-749 332v154l921 -410v-154z" />
<glyph unicode="?" horiz-adv-x="1136" d="M82 1214q68 140 194.5 221t307.5 81q199 0 319.5 -109.5t120.5 -267.5q0 -71 -18 -125.5t-56 -95.5t-81.5 -70.5t-110.5 -61.5q-66 -31 -100.5 -60.5t-54 -80.5t-19.5 -133h-123q-8 56 -7.5 101.5t5.5 77t19 58t27.5 42t38.5 31.5t43 24t49.5 22.5t51.5 24.5 q48 24 81 45.5t63 50.5t44.5 66.5t14.5 83.5q0 109 -80.5 176t-226.5 67q-97 0 -173.5 -33.5t-123.5 -82t-86 -119.5zM422 92q0 46 32.5 79.5t77.5 33.5q46 0 78.5 -33.5t32.5 -79.5t-32.5 -79t-78.5 -33t-78 33t-32 79z" />
<glyph unicode="@" horiz-adv-x="2150" d="M113 532q0 197 71 373.5t195.5 307t305.5 206.5t390 76q198 0 374 -64t306.5 -177t206.5 -279.5t76 -360.5q0 -139 -25 -251t-64.5 -181.5t-91.5 -116.5t-102 -66t-100 -19q-92 0 -136 64t-44 161v6q-126 -231 -420 -231q-98 0 -189.5 41t-160.5 112.5t-110.5 175.5 t-41.5 223t41.5 223.5t110.5 176t160.5 112.5t189.5 41q294 0 420 -231v211h122v-819q0 -94 21.5 -136t75.5 -42q49 0 97 33.5t89.5 97t67.5 172t26 243.5q0 183 -70.5 338t-192 260.5t-286 164.5t-350.5 59q-198 0 -367.5 -71.5t-285 -193.5t-181 -287.5t-65.5 -351.5 q0 -147 45 -284.5t128.5 -249t193.5 -195t247.5 -129t284.5 -45.5v-59q-195 0 -373 76.5t-307 205.5t-205.5 307t-76.5 373zM686 532q0 -194 110.5 -312t278.5 -118q169 0 284.5 118.5t115.5 311.5t-115.5 312t-284.5 119q-168 0 -278.5 -118.5t-110.5 -312.5z" />
<glyph unicode="A" horiz-adv-x="1638" d="M82 0l676 1434h123l675 -1434h-161l-178 389h-795l-178 -389h-162zM487 532h664l-332 730z" />
<glyph unicode="B" horiz-adv-x="1423" d="M205 0v1434h532q134 0 243.5 -45t177 -136.5t67.5 -214.5q0 -207 -176 -299q129 -37 200.5 -121.5t71.5 -218.5q0 -191 -139.5 -295t-362.5 -104h-614zM348 143h471q359 0 359 256q0 74 -28.5 125.5t-81 78t-112.5 37.5t-137 11h-471v-508zM348 795h389q60 0 109 6.5 t94 23t75 43.5t48 70t18 100q0 252 -344 252h-389v-495z" />
<glyph unicode="C" horiz-adv-x="1499" d="M143 717q0 200 98 370t265.5 268.5t363.5 98.5q160 0 302.5 -67t244.5 -185l-98 -98q-84 96 -200.5 151.5t-248.5 55.5q-163 0 -296.5 -77t-210 -213.5t-76.5 -303.5t76.5 -303.5t210 -213.5t296.5 -77q132 0 248.5 55.5t200.5 151.5l98 -99q-102 -118 -244.5 -184.5 t-302.5 -66.5q-196 0 -363.5 98.5t-265.5 268.5t-98 370z" />
<glyph unicode="D" horiz-adv-x="1658" d="M205 0v1434h573q148 0 283.5 -55t235.5 -149.5t159.5 -228.5t59.5 -284t-59.5 -284t-159.5 -228.5t-235.5 -149.5t-283.5 -55h-573zM348 143h430q123 0 232 42.5t189 117t126.5 182t46.5 232.5q0 166 -79.5 298t-215 203.5t-299.5 71.5h-430v-1147z" />
<glyph unicode="E" horiz-adv-x="1372" d="M205 0v1434h1044v-144h-901v-485h799v-143h-799v-519h901v-143h-1044z" />
<glyph unicode="F" horiz-adv-x="1361" d="M205 0v1434h1044v-144h-880v-526h778v-143h-778v-621h-164z" />
<glyph unicode="G" horiz-adv-x="1601" d="M143 717q0 200 98 370t265.5 268.5t363.5 98.5q160 0 302.5 -67t244.5 -185l-98 -98q-83 95 -203 151t-246 56q-163 0 -296.5 -77t-210 -213.5t-76.5 -303.5t76.5 -303.5t210 -213.5t296.5 -77q113 0 225.5 49t198.5 131v311h-424v144h568v-527q-100 -116 -253 -183.5 t-315 -67.5q-196 0 -363.5 98.5t-265.5 268.5t-98 370z" />
<glyph unicode="H" horiz-adv-x="1566" d="M205 0v1434h143v-629h871v629h143v-1434h-143v662h-871v-662h-143z" />
<glyph unicode="I" horiz-adv-x="614" d="M236 0v1434h143v-1434h-143z" />
<glyph unicode="J" horiz-adv-x="1226" d="M61 322l115 61q115 -272 367 -272q153 0 249.5 113.5t96.5 307.5v902h133v-902q0 -256 -131 -404t-348 -148q-166 0 -291.5 89.5t-190.5 252.5z" />
<glyph unicode="K" horiz-adv-x="1525" d="M205 0v1434h143v-832l850 832h174l-598 -590l701 -844h-162l-627 758l-338 -334v-424h-143z" />
<glyph unicode="L" horiz-adv-x="1341" d="M205 0v1434h143v-1291h901v-143h-1044z" />
<glyph unicode="M" horiz-adv-x="1908" d="M205 0v1434h123l626 -988l627 988h123v-1434h-143v1153l-557 -887h-99l-557 887v-1153h-143z" />
<glyph unicode="N" horiz-adv-x="1617" d="M205 0v1434h123l942 -1182v1182h143v-1434h-123l-942 1182v-1182h-143z" />
<glyph unicode="O" horiz-adv-x="1740" d="M143 717q0 200 98 370t265.5 268.5t363.5 98.5t363.5 -98.5t265.5 -268.5t98 -370t-98 -370t-265.5 -268.5t-363.5 -98.5t-363.5 98.5t-265.5 268.5t-98 370zM287 717q0 -121 45.5 -231t123 -189.5t185.5 -126.5t229 -47q161 0 295.5 79.5t211.5 216t77 298.5t-77 298.5 t-211.5 216t-295.5 79.5q-121 0 -229 -47t-185.5 -126.5t-123 -189.5t-45.5 -231z" />
<glyph unicode="P" horiz-adv-x="1316" d="M205 0v1434h532q130 0 242.5 -60.5t179 -166t66.5 -230.5q0 -124 -67 -225t-178.5 -157t-242.5 -56h-389v-539h-143zM348 682h389q153 0 248.5 79.5t95.5 215.5q0 138 -96.5 225.5t-247.5 87.5h-389v-608z" />
<glyph unicode="Q" horiz-adv-x="1738" d="M143 717q0 200 98 370t265.5 268.5t363.5 98.5t363.5 -98.5t265.5 -268.5t98 -370q0 -136 -46.5 -261t-131.5 -223l205 -202l-98 -101l-207 207q-197 -157 -449 -157q-196 0 -363.5 98.5t-265.5 268.5t-98 370zM287 717q0 -121 45.5 -231t123 -189.5t185.5 -126.5 t229 -47q196 0 349 115l-242 241l98 99l244 -244q135 164 135 383q0 162 -77 298.5t-211.5 216t-295.5 79.5q-121 0 -229 -47t-185.5 -126.5t-123 -189.5t-45.5 -231z" />
<glyph unicode="R" horiz-adv-x="1470" d="M205 0v1434h614q130 0 242.5 -60.5t179 -166t66.5 -230.5q0 -152 -96.5 -265.5t-249.5 -154.5l417 -557h-174l-403 539h-453v-539h-143zM348 682h471q153 0 248.5 79.5t95.5 215.5q0 138 -96.5 225.5t-247.5 87.5h-471v-608z" />
<glyph unicode="S" horiz-adv-x="1280" d="M102 231l91 109q37 -34 66.5 -59t80 -59t97 -55.5t109.5 -37.5t126 -16q74 0 135.5 16.5t111 49.5t77.5 89.5t28 130.5q0 118 -98.5 188.5t-261.5 92.5q-138 18 -243 65.5t-171 133.5t-66 200q0 110 64.5 197t169 132.5t227.5 45.5q147 0 270.5 -48.5t206.5 -131.5 l-86 -98q-67 65 -172 105t-198 40q-158 0 -254.5 -64t-96.5 -167q0 -123 90.5 -186t266.5 -91q106 -17 187 -44t151.5 -74t108.5 -121.5t38 -174.5q0 -198 -128 -308.5t-357 -110.5q-94 0 -180.5 21.5t-158 61.5t-123.5 78.5t-108 89.5z" />
<glyph unicode="T" horiz-adv-x="1413" d="M102 1290v144h1209v-144h-533v-1290h-143v1290h-533z" />
<glyph unicode="U" horiz-adv-x="1556" d="M184 573v861h133v-861q0 -197 132.5 -328.5t328.5 -131.5t328.5 131.5t132.5 328.5v861h133v-861q0 -169 -80.5 -306t-216 -212t-297.5 -75t-297.5 75t-216 212t-80.5 306z" />
<glyph unicode="V" horiz-adv-x="1597" d="M82 1434h154l581 -1260l561 1260h138l-635 -1434h-123z" />
<glyph unicode="W" horiz-adv-x="2181" d="M92 1434h144l407 -1223l381 1223h133l381 -1223l408 1223h143l-492 -1434h-122l-385 1227l-383 -1227h-123z" />
<glyph unicode="X" horiz-adv-x="1536" d="M92 0l588 743l-547 691h174l461 -582l461 582h174l-547 -691l588 -743h-174l-502 633l-502 -633h-174z" />
<glyph unicode="Y" horiz-adv-x="1392" d="M61 1434h164l471 -748l471 748h164l-563 -891v-543h-143v543z" />
<glyph unicode="Z" horiz-adv-x="1392" d="M133 0v123l895 1167h-854v144h1045v-123l-895 -1168h936v-143h-1127z" />
<glyph unicode="[" horiz-adv-x="604" d="M92 -410v1905h471v-115h-348v-1675h348v-115h-471z" />
<glyph unicode="\" horiz-adv-x="880" d="M-41 1597h102l861 -1761h-103z" />
<glyph unicode="]" horiz-adv-x="604" d="M41 -295h348v1675h-348v115h471v-1905h-471v115z" />
<glyph unicode="^" horiz-adv-x="1044" d="M41 881l430 614h102l431 -614h-103l-379 540l-379 -540h-102z" />
<glyph unicode="_" d="M-4 -184h1237v-123h-1237v123z" />
<glyph unicode="`" horiz-adv-x="655" d="M143 1495h185l164 -287h-103z" />
<glyph unicode="a" horiz-adv-x="1187" d="M88 328q0 67 21.5 118.5t63.5 85t92 55.5t119 33t131 15t140 4h246v37q0 147 -70.5 222t-240.5 75q-114 0 -189.5 -36t-167.5 -112l-69 97q97 83 194.5 123t243.5 40q213 0 322.5 -110t109.5 -299v-676h-133v147q-60 -79 -165 -123t-244 -44q-79 0 -149.5 20.5 t-128.5 61.5t-92 109.5t-34 156.5zM221 317q0 -215 332 -215q91 0 169.5 32t128.5 94t50 141v170h-184q-83 0 -143.5 -3t-120 -11t-99.5 -24t-71.5 -40t-46.5 -60t-15 -84z" />
<glyph unicode="b" horiz-adv-x="1341" d="M174 0v1495h133v-641q126 231 420 231q98 0 189.5 -41t160.5 -112.5t110.5 -176t41.5 -223.5t-41.5 -223t-110.5 -175.5t-160.5 -112.5t-189.5 -41q-294 0 -420 231v-211h-133zM307 532q0 -193 115.5 -311.5t284.5 -118.5q168 0 278.5 118t110.5 312t-110.5 312.5 t-278.5 118.5q-169 0 -284.5 -119t-115.5 -312z" />
<glyph unicode="c" horiz-adv-x="1173" d="M113 532q0 112 44 214.5t118 176.5t176.5 118t214.5 44q132 0 241.5 -55t182.5 -153l-84 -86q-60 79 -147 125.5t-193 46.5q-180 0 -300 -124t-120 -307t120 -306.5t300 -123.5q106 0 193 46.5t147 125.5l86 -86q-73 -99 -183.5 -153.5t-242.5 -54.5q-150 0 -277.5 74 t-201.5 201t-74 277z" />
<glyph unicode="d" horiz-adv-x="1341" d="M113 532q0 119 41.5 223.5t110 176t160 112.5t189.5 41q294 0 420 -231v641h133v-1495h-133v211q-126 -231 -420 -231q-98 0 -189.5 41t-160 112.5t-110 175.5t-41.5 223zM246 532q0 -194 110.5 -312t278.5 -118q169 0 284 118.5t115 311.5t-115 312t-284 119 q-168 0 -278.5 -118.5t-110.5 -312.5z" />
<glyph unicode="e" horiz-adv-x="1259" d="M113 532q0 159 71 286.5t190 197t261 69.5t261 -69.5t190 -197t71 -286.5v-40h-909q12 -179 123.5 -284.5t283.5 -105.5q111 0 206.5 47t154.5 125l86 -86q-71 -97 -191.5 -152.5t-255.5 -55.5q-152 0 -275.5 69.5t-195 196t-71.5 286.5zM250 608h770q-20 165 -122.5 260 t-262.5 95t-262.5 -95t-122.5 -260z" />
<glyph unicode="f" horiz-adv-x="768" d="M92 942v123h164v143q0 127 79.5 217.5t211.5 90.5q169 0 262 -107l-57 -100q-76 84 -193 84q-170 0 -170 -185v-143h324v-123h-324v-942h-133v942h-164z" />
<glyph unicode="g" horiz-adv-x="1341" d="M113 532q0 119 41.5 223.5t110 176t160 112.5t189.5 41q294 0 420 -231v211h133v-1024q0 -104 -42 -196.5t-111.5 -156.5t-161.5 -101.5t-190 -37.5q-376 0 -545 230l84 86q37 -40 74 -70t92 -60t130 -46.5t165 -16.5q91 0 175 44.5t140.5 131t56.5 193.5v170 q-126 -231 -420 -231q-98 0 -189.5 41t-160 112.5t-110 175.5t-41.5 223zM246 532q0 -194 110.5 -312t278.5 -118q169 0 284 118.5t115 311.5t-115 312t-284 119q-168 0 -278.5 -118.5t-110.5 -312.5z" />
<glyph unicode="h" horiz-adv-x="1300" d="M174 0v1495h133v-637q59 105 159 166t241 61q194 0 312 -134t118 -337v-614h-133v614q0 72 -18.5 133t-56.5 110.5t-103 77.5t-150 28q-164 0 -266.5 -110t-102.5 -280v-573h-133z" />
<glyph unicode="i" horiz-adv-x="522" d="M162 1417q0 40 29 69.5t69 29.5t69 -29.5t29 -69.5t-29 -69t-69 -29t-69 29t-29 69zM195 0v1065h133v-1065h-133z" />
<glyph unicode="j" horiz-adv-x="522" d="M-209 -324l59 103q30 -33 86 -59.5t117 -26.5q70 0 110 52.5t40 131.5v1188h133v-1188q0 -130 -70 -218.5t-200 -88.5q-90 0 -162.5 27t-112.5 79zM170 1417q0 40 29 69.5t69 29.5t69.5 -29.5t29.5 -69.5t-29.5 -69t-69.5 -29t-69 29t-29 69z" />
<glyph unicode="k" horiz-adv-x="1259" d="M174 0v1495h133v-1100l684 670h176l-467 -457l508 -608h-155l-443 520l-303 -295v-225h-133z" />
<glyph unicode="l" horiz-adv-x="542" d="M205 0v1495h133v-1495h-133z" />
<glyph unicode="m" horiz-adv-x="1843" d="M174 0v1065h133v-176q107 196 338 196q249 0 324 -254q46 118 138 186t224 68q93 0 163 -36t112 -101t63 -148.5t21 -185.5v-614h-134v614q0 359 -266 359q-127 0 -210 -115t-83 -285v-573h-131v614q0 59 -6.5 108t-24 97t-46 81t-76 53t-109.5 20q-127 0 -212 -115.5 t-85 -284.5v-573h-133z" />
<glyph unicode="n" horiz-adv-x="1300" d="M174 0v1065h133v-207q59 105 159 166t241 61q194 0 312 -134t118 -337v-614h-133v614q0 72 -18.5 133t-56.5 110.5t-103 77.5t-150 28q-164 0 -266.5 -110t-102.5 -280v-573h-133z" />
<glyph unicode="o" horiz-adv-x="1331" d="M113 532q0 112 44 214.5t118 176.5t176.5 118t214.5 44t214.5 -44t176.5 -118t118 -176.5t44 -214.5q0 -150 -74 -277t-201.5 -201t-277.5 -74t-277.5 74t-201.5 201t-74 277zM246 532q0 -178 123 -304t297 -126q173 0 296 126t123 304t-123 304.5t-296 126.5 t-296.5 -126.5t-123.5 -304.5z" />
<glyph unicode="p" horiz-adv-x="1341" d="M174 -410v1475h133v-211q126 231 420 231q98 0 189.5 -41t160.5 -112.5t110.5 -176t41.5 -223.5t-41.5 -223t-110.5 -175.5t-160.5 -112.5t-189.5 -41q-294 0 -420 231v-621h-133zM307 532q0 -193 115.5 -311.5t284.5 -118.5q168 0 278.5 118t110.5 312t-110.5 312.5 t-278.5 118.5q-169 0 -284.5 -119t-115.5 -312z" />
<glyph unicode="q" horiz-adv-x="1341" d="M113 532q0 119 41.5 223.5t110 176t160 112.5t189.5 41q294 0 420 -231v211h133v-1475h-133v621q-126 -231 -420 -231q-98 0 -189.5 41t-160 112.5t-110 175.5t-41.5 223zM246 532q0 -194 110.5 -312t278.5 -118q169 0 284 118.5t115 311.5t-115 312t-284 119 q-168 0 -278.5 -118.5t-110.5 -312.5z" />
<glyph unicode="r" horiz-adv-x="839" d="M174 0v1065h133v-221q134 221 471 221v-123h-41q-190 0 -310 -109.5t-120 -279.5v-553h-133z" />
<glyph unicode="s" horiz-adv-x="1064" d="M92 213l98 90q44 -48 74.5 -76t77.5 -61t102 -48.5t119 -15.5q132 0 204.5 50.5t72.5 154.5q0 88 -70.5 126t-247.5 63q-85 12 -149.5 32.5t-118.5 55t-82.5 87.5t-28.5 124q0 120 107.5 205t271.5 85q156 0 250 -42.5t166 -124.5l-86 -99q-32 32 -56 51.5t-64.5 44 t-93 36.5t-116.5 12q-126 0 -186 -48t-60 -120q0 -74 69.5 -112.5t227.5 -64.5q57 -9 98 -17.5t86 -21.5t75 -28.5t58.5 -38.5t45.5 -51.5t27 -67.5t10 -86q0 -63 -24.5 -120t-73 -104t-129 -75t-183.5 -28q-157 0 -267.5 60t-203.5 173z" />
<glyph unicode="t" horiz-adv-x="860" d="M82 942v123h164v313h133v-313h379v-123h-379v-655q0 -83 39 -134t123 -51q121 0 200 88l62 -104q-99 -106 -275 -106q-97 0 -162.5 44t-92.5 111t-27 152v655h-164z" />
<glyph unicode="u" horiz-adv-x="1300" d="M164 451v614h133v-614q0 -72 18.5 -133t56.5 -110.5t103 -77.5t150 -28q164 0 266 110t102 280v573h133v-1065h-133v207q-59 -105 -158.5 -166t-240.5 -61q-194 0 -312 134t-118 337z" />
<glyph unicode="v" horiz-adv-x="1208" d="M72 1065h143l389 -932l389 932h144l-451 -1065h-164z" />
<glyph unicode="w" horiz-adv-x="1628" d="M82 1065h143l228 -848l325 848h72l326 -848l227 848h143l-307 -1065h-102l-322 842l-323 -842h-103z" />
<glyph unicode="x" horiz-adv-x="1259" d="M82 0l461 557l-420 508h174l334 -403l332 403h174l-420 -508l461 -557h-174l-373 453l-375 -453h-174z" />
<glyph unicode="y" horiz-adv-x="1185" d="M72 -307l61 104q93 -104 213 -104q42 0 75.5 16t56 46.5t35.5 56.5t28 65l39 103l-500 1085h143l418 -918l340 918h133l-399 -1079v-2h-2l-39 -107q-24 -68 -51 -118.5t-66 -95.5t-92 -69t-119 -24q-85 0 -158 34t-116 89z" />
<glyph unicode="z" horiz-adv-x="1167" d="M113 0v102l739 840h-698v123h880v-102l-739 -840h760v-123h-942z" />
<glyph unicode="{" horiz-adv-x="714" d="M92 481v123q64 0 108 15t64.5 42t28.5 54.5t8 62.5v410q0 130 93.5 218.5t267.5 88.5l12 -113q-120 0 -185 -51t-65 -143v-410q0 -177 -133 -235q133 -58 133 -236v-409q0 -93 65 -144t185 -51l-12 -113q-174 0 -267.5 89t-93.5 219v409q0 72 -49.5 123t-159.5 51z" />
<glyph unicode="|" horiz-adv-x="614" d="M236 -164v1761h143v-1761h-143z" />
<glyph unicode="}" horiz-adv-x="714" d="M92 -297q120 0 185 51t65 144v409q0 178 133 236q-133 58 -133 235v410q0 92 -65 143t-185 51l12 113q174 0 267.5 -88.5t93.5 -218.5v-410q0 -72 49.5 -123t159.5 -51v-123q-64 0 -108 -15t-64.5 -42t-28.5 -54.5t-8 -62.5v-409q0 -130 -93.5 -219t-267.5 -89z" />
<glyph unicode="~" horiz-adv-x="962" d="M92 397q7 114 67.5 177t143.5 63q44 0 95 -20.5t88.5 -45t80 -45t72.5 -20.5q64 0 86.5 35.5t22.5 101.5l122 -41q-7 -126 -64 -183t-142 -57q-43 0 -91.5 20.5t-84.5 45.5t-76.5 45.5t-69.5 20.5q-62 0 -84 -36t-22 -102z" />
<glyph unicode="&#xa1;" horiz-adv-x="389" d="M84 973q0 46 32.5 79t78.5 33t78 -33t32 -79t-32.5 -79.5t-77.5 -33.5q-46 0 -78.5 33.5t-32.5 79.5zM115 61l45 492h69l45 -492v-491h-159v491z" />
<glyph unicode="&#xa2;" d="M133 532q0 107 40 205.5t108 172t163 120t201 53.5v146h82v-146q119 -9 217.5 -62.5t165.5 -143.5l-84 -86q-119 153 -299 170v-857q180 17 299 170l86 -86q-66 -91 -166 -145t-219 -61v-146h-82v146q-142 10 -259.5 85.5t-185 198.5t-67.5 266zM266 532q0 -171 107 -292 t272 -136v857q-164 -15 -271.5 -136t-107.5 -293z" />
<glyph unicode="&#xa3;" d="M92 645v123h182q-38 160 -38 317q0 155 106 262t270 107q123 0 224.5 -56t160.5 -149l-65 -100q-50 72 -126.5 122t-180.5 50q-124 0 -195.5 -69.5t-71.5 -166.5q0 -121 45 -317h299v-123h-272q19 -92 23 -160.5t-16 -155t-72 -167.5q64 26 163 26q44 0 90 -20.5 t78.5 -45t70 -45t67.5 -20.5q78 0 122.5 33t79.5 98l101 -45q-59 -209 -289 -209q-57 0 -116.5 24t-100 52t-84 52t-72.5 24q-62 0 -102 -35.5t-76 -101.5l-139 49q62 99 100.5 181.5t56.5 142.5t19.5 120.5t-5 101.5t-22.5 101h-215z" />
<glyph unicode="&#xa4;" d="M86 201l176 176q-90 117 -90 268t90 268l-176 177l84 84l176 -177q117 90 268 90q152 0 269 -90l176 177l84 -84l-176 -177q90 -117 90 -268t-90 -268l176 -176l-84 -84l-176 176q-117 -90 -269 -90q-151 0 -268 90l-176 -176zM276 647q0 -139 99 -238.5t239 -99.5 t239 99.5t99 238.5t-99 238.5t-239 99.5t-239 -99.5t-99 -238.5z" />
<glyph unicode="&#xa5;" d="M61 238v73h494v232l-4 6h-490v74h451l-451 811h144l413 -748l414 748h144l-449 -811h440v-74h-481l-4 -6v-232h485v-73h-485v-238h-127v238h-494z" />
<glyph unicode="&#xa6;" horiz-adv-x="614" d="M236 -164v737h143v-737h-143zM236 942v655h143v-655h-143z" />
<glyph unicode="&#xa7;" horiz-adv-x="1064" d="M92 213l88 80q80 -87 169 -133.5t214 -46.5q134 0 210.5 42.5t76.5 131.5q0 26 -7.5 46.5t-17.5 35.5t-34 27t-44 19.5t-62 15.5t-72 13t-89 13q-55 8 -109.5 28.5t-104.5 52t-81 76t-40 97t20 120t98 138.5q-123 66 -123 205q0 119 107 199.5t272 80.5q105 0 188.5 -26 t130 -58.5t97.5 -83.5l-80 -92q-38 34 -62 51.5t-66 40.5t-93 33t-115 10q-124 0 -190 -48.5t-66 -106.5q0 -72 66 -104.5t231 -59.5q53 -9 103.5 -24t97.5 -39.5t82.5 -54.5t55.5 -71t19.5 -87t-29.5 -104.5t-87 -121.5q64 -28 95.5 -79t31.5 -142q0 -131 -104 -219 t-306 -88q-157 0 -267.5 60t-203.5 173zM316 710.5q12 -39.5 47.5 -69.5t82.5 -47t107 -27q143 -22 209 -35q50 71 66 128.5t3.5 96t-51 67.5t-89 45t-118.5 26q-114 17 -188 41q-49 -70 -65 -128t-4 -97.5z" />
<glyph unicode="&#xa8;" horiz-adv-x="1024" d="M176 1300q0 46 32.5 79.5t78.5 33.5q45 0 77.5 -33.5t32.5 -79.5t-32 -79t-78 -33t-78.5 33t-32.5 79zM627 1300q0 46 32.5 79.5t77.5 33.5q46 0 78.5 -33.5t32.5 -79.5t-32.5 -79t-78.5 -33t-78 33t-32 79z" />
<glyph unicode="&#xa9;" horiz-adv-x="1740" d="M143 717q0 200 98 370t265.5 268.5t363.5 98.5t363.5 -98.5t265.5 -268.5t98 -370t-98 -370t-265.5 -268.5t-363.5 -98.5t-363.5 98.5t-265.5 268.5t-98 370zM231 717q0 -133 51 -254t137 -209t204 -140.5t247 -52.5t247 52.5t204 140.5t137 209t51 254t-51 254t-137 209 t-204 140t-247 52t-247 -52t-204 -140t-137 -209t-51 -254zM524 717q0 154 106 261t257 107q80 0 151 -33.5t121 -93.5l-49 -49q-42 48 -100 76.5t-123 28.5q-124 0 -208.5 -85t-84.5 -212t84.5 -212t208.5 -85q65 0 123.5 28t99.5 76l49 -49q-50 -60 -121 -93.5t-151 -33.5 q-151 0 -257 107.5t-106 261.5z" />
<glyph unicode="&#xaa;" horiz-adv-x="1095" d="M164 887q0 60 25 103.5t63 68t97.5 39t114 18.5t126.5 4h184v27q0 111 -52.5 167t-180.5 56q-60 0 -110.5 -16.5t-79.5 -36t-77 -57.5l-53 71q73 63 145.5 93t182.5 30q160 0 242.5 -83t82.5 -224v-506h-100v111q-95 -125 -307 -125q-80 0 -146.5 26t-111.5 86.5 t-45 147.5zM184 424v84h682v-84h-682zM264 879q0 -162 248 -162q106 0 184 56t78 145v126h-139q-76 0 -127.5 -3t-101 -13t-78.5 -28t-46.5 -48t-17.5 -73z" />
<glyph unicode="&#xab;" horiz-adv-x="1212" d="M61 655v154l578 410v-154l-469 -332l469 -334v-153zM573 655v154l578 410v-154l-469 -332l469 -334v-153z" />
<glyph unicode="&#xac;" horiz-adv-x="1105" d="M133 758v112h840v-307h-144v195h-696z" />
<glyph unicode="&#xad;" horiz-adv-x="962" d="M133 553v113h696v-113h-696z" />
<glyph unicode="&#xae;" horiz-adv-x="1740" d="M143 717q0 200 98 370t265.5 268.5t363.5 98.5t363.5 -98.5t265.5 -268.5t98 -370t-98 -370t-265.5 -268.5t-363.5 -98.5t-363.5 98.5t-265.5 268.5t-98 370zM231 717q0 -133 51 -254t137 -209t204 -140.5t247 -52.5t247 52.5t204 140.5t137 209t51 254t-51 254t-137 209 t-204 140t-247 52t-247 -52t-204 -140t-137 -209t-51 -254zM618 358v717h308q99 0 171 -66.5t72 -160.5q0 -76 -48 -133t-124 -78l207 -279h-86l-203 269h-225v-269h-72zM690 700h236q76 0 124 40t48 108q0 69 -48.5 112.5t-123.5 43.5h-236v-304z" />
<glyph unicode="&#xaf;" horiz-adv-x="614" d="M-4 1495v123h622v-123h-622z" />
<glyph unicode="&#xb0;" horiz-adv-x="819" d="M205 1393q0 85 60 144.5t145 59.5t144.5 -59.5t59.5 -144.5t-59.5 -145t-144.5 -60t-145 60t-60 145zM266 1393q0 -60 42 -102t102 -42t101.5 42t41.5 102t-41.5 101.5t-101.5 41.5t-102 -41.5t-42 -101.5z" />
<glyph unicode="&#xb1;" horiz-adv-x="1044" d="M61 164v112h922v-112h-922zM61 748v98h400v360h123v-360h399v-98h-399v-361h-123v361h-400z" />
<glyph unicode="&#xb2;" horiz-adv-x="614" d="M51 729v55l268 252q78 72 111 120t33 101q0 55 -42.5 93.5t-113.5 38.5q-131 0 -196 -152l-60 27q34 85 101 137.5t155 52.5q96 0 160.5 -59t64.5 -138q0 -78 -36 -132t-127 -136l-215 -194h409v-66h-512z" />
<glyph unicode="&#xb3;" horiz-adv-x="614" d="M51 827l47 47q30 -42 88.5 -67t120.5 -25q75 0 132 40.5t57 107.5q0 74 -59.5 106.5t-180.5 32.5v68q97 0 154 34.5t57 88.5q0 60 -42 94.5t-118 34.5q-104 0 -180 -91l-49 45q43 52 96 81.5t133 29.5q101 0 163 -53t62 -131q0 -121 -116 -162q72 -16 109.5 -58 t37.5 -120q0 -102 -75 -157.5t-181 -55.5q-169 0 -256 110z" />
<glyph unicode="&#xb4;" horiz-adv-x="655" d="M164 1208l164 287h184l-246 -287h-102z" />
<glyph unicode="&#xb5;" horiz-adv-x="1300" d="M164 -406v1471h133v-614h31v-168q34 -84 108 -132.5t189 -48.5q164 0 266 110t102 280v573h133v-1065h-133v207q-59 -105 -158.5 -166t-240.5 -61q-155 0 -266 90v-476h-164z" />
<glyph unicode="&#xb6;" d="M154 983q0 95 41.5 181t107 144t145.5 92t156 34h471v-1434h-123v1343h-225v-1343h-123v532q-76 0 -156 34t-145.5 92t-107 144t-41.5 181z" />
<glyph unicode="&#xb7;" horiz-adv-x="389" d="M125 604q0 46 32.5 79.5t78.5 33.5q45 0 77.5 -33.5t32.5 -79.5t-32 -79t-78 -33t-78.5 33t-32.5 79z" />
<glyph unicode="&#xb8;" horiz-adv-x="655" d="M111 -317l41 61q3 -1 17.5 -7t27 -11t33.5 -9t42 -4q113 0 113 84q0 87 -213 264h82q4 -3 30.5 -21t33.5 -23t31 -22.5t32.5 -25t28 -24.5t27 -28t20.5 -28t18 -31t9.5 -32t4.5 -35q0 -168 -182 -168q-54 0 -107.5 17.5t-88.5 42.5z" />
<glyph unicode="&#xb9;" d="M377 1300l205 134h61v-717h-72v629l-159 -105z" />
<glyph unicode="&#xba;" horiz-adv-x="1095" d="M127 1044q0 172 122 293t294 121t293.5 -121t121.5 -293t-121.5 -292.5t-293.5 -120.5t-294 121t-122 292zM147 424v84h791v-84h-791zM227 1044q0 -133 92.5 -228t223.5 -95q130 0 222.5 94.5t92.5 228.5t-92.5 229t-222.5 95t-223 -95t-93 -229z" />
<glyph unicode="&#xbb;" horiz-adv-x="1212" d="M61 246v153l469 334l-469 332v154l578 -410v-154zM573 246v153l469 334l-469 332v154l578 -410v-154z" />
<glyph unicode="&#xbf;" horiz-adv-x="1136" d="M113 -74q0 71 18 125.5t56 95.5t81.5 70.5t110.5 61.5q66 31 100.5 60.5t54 80.5t19.5 133h123q8 -56 7.5 -101.5t-5.5 -77t-19 -58t-27.5 -42t-38.5 -31.5t-43 -24t-49.5 -22.5t-51.5 -24.5q-48 -24 -81 -45.5t-63 -50.5t-44.5 -66.5t-14.5 -83.5q0 -109 80.5 -176 t226.5 -67q97 0 173.5 33.5t123.5 82t86 119.5l119 -68q-68 -139 -194.5 -220t-307.5 -81q-199 0 -319.5 109.5t-120.5 267.5zM494 973q0 46 32 79t78 33t78.5 -33t32.5 -79t-32.5 -79.5t-78.5 -33.5q-45 0 -77.5 33.5t-32.5 79.5z" />
<glyph unicode="&#xc0;" horiz-adv-x="1638" d="M82 0l676 1434h123l675 -1434h-161l-178 389h-795l-178 -389h-162zM487 532h664l-332 730zM508 1864h184l164 -287h-102z" />
<glyph unicode="&#xc1;" horiz-adv-x="1638" d="M82 0l676 1434h123l675 -1434h-161l-178 389h-795l-178 -389h-162zM487 532h664l-332 730zM774 1577l164 287h184l-245 -287h-103z" />
<glyph unicode="&#xc2;" horiz-adv-x="1638" d="M82 0l676 1434h123l675 -1434h-161l-178 389h-795l-178 -389h-162zM487 532h664l-332 730zM537 1577l204 205h144l205 -205h-144l-131 133l-135 -133h-143z" />
<glyph unicode="&#xc3;" horiz-adv-x="1638" d="M82 0l676 1434h123l675 -1434h-161l-178 389h-795l-178 -389h-162zM426 1618q7 114 67.5 177t143.5 63q44 0 97.5 -24t95 -52t86.5 -52t75 -24q111 0 111 158l102 -41q-7 -126 -65.5 -183t-143.5 -57q-43 0 -94.5 23.5t-90.5 52.5t-82.5 52.5t-72.5 23.5 q-106 0 -106 -158zM487 532h664l-332 730z" />
<glyph unicode="&#xc4;" horiz-adv-x="1638" d="M82 0l676 1434h123l675 -1434h-161l-178 389h-795l-178 -389h-162zM479 1690q0 46 32.5 79t78.5 33t78 -33t32 -79t-32.5 -79.5t-77.5 -33.5q-46 0 -78.5 33.5t-32.5 79.5zM487 532h664l-332 730zM930 1690q0 46 32 79t78 33t78.5 -33t32.5 -79t-32.5 -79.5t-78.5 -33.5 q-45 0 -77.5 33.5t-32.5 79.5z" />
<glyph unicode="&#xc5;" horiz-adv-x="1638" d="M82 0l647 1372q-54 25 -86.5 74.5t-32.5 109.5q0 85 60 145t145 60t145 -60t60 -145q0 -57 -31 -105t-82 -75l649 -1376h-161l-178 389h-795l-178 -389h-162zM487 532h664l-332 730zM713 1556q0 -44 29 -73t73 -29t73.5 29t29.5 73t-29.5 73.5t-73.5 29.5t-73 -29.5 t-29 -73.5z" />
<glyph unicode="&#xc6;" horiz-adv-x="2232" d="M82 0l819 1434h1229v-144h-901v-485h799v-143h-799v-519h901v-143h-1045v399h-624l-225 -399h-154zM537 532h548v758h-120z" />
<glyph unicode="&#xc7;" horiz-adv-x="1499" d="M143 717q0 200 98 370t265.5 268.5t363.5 98.5q160 0 302.5 -67t244.5 -185l-98 -98q-84 96 -200.5 151.5t-248.5 55.5q-163 0 -296.5 -77t-210 -213.5t-76.5 -303.5t76.5 -303.5t210 -213.5t296.5 -77q132 0 248.5 55.5t200.5 151.5l98 -99q-92 -106 -218.5 -171.5 t-268.5 -77.5q4 -3 13 -9q49 -34 74.5 -53.5t61 -53.5t52 -69t16.5 -73q0 -168 -182 -168q-54 0 -108.5 17t-88.5 42l41 61q3 -1 17.5 -7t27 -10.5t34 -8.5t42.5 -4q112 0 112 84t-196 250q-192 6 -353.5 106t-255.5 267.5t-94 363.5z" />
<glyph unicode="&#xc8;" horiz-adv-x="1372" d="M205 0v1434h1044v-144h-901v-485h799v-143h-799v-519h901v-143h-1044zM420 1864h184l164 -287h-102z" />
<glyph unicode="&#xc9;" horiz-adv-x="1372" d="M205 0v1434h1044v-144h-901v-485h799v-143h-799v-519h901v-143h-1044zM686 1577l164 287h184l-246 -287h-102z" />
<glyph unicode="&#xca;" horiz-adv-x="1372" d="M205 0v1434h1044v-144h-901v-485h799v-143h-799v-519h901v-143h-1044zM451 1577l204 205h144l205 -205h-144l-133 133l-133 -133h-143z" />
<glyph unicode="&#xcb;" horiz-adv-x="1372" d="M205 0v1434h1044v-144h-901v-485h799v-143h-799v-519h901v-143h-1044zM391 1690q0 46 32.5 79t78.5 33t78 -33t32 -79t-32.5 -79.5t-77.5 -33.5q-46 0 -78.5 33.5t-32.5 79.5zM842 1690q0 46 32 79t78 33t78.5 -33t32.5 -79t-32.5 -79.5t-78.5 -33.5q-45 0 -77.5 33.5 t-32.5 79.5z" />
<glyph unicode="&#xcc;" horiz-adv-x="614" d="M-4 1864h184l164 -287h-102zM236 0v1434h143v-1434h-143z" />
<glyph unicode="&#xcd;" horiz-adv-x="614" d="M236 0v1434h143v-1434h-143zM262 1577l164 287h184l-245 -287h-103z" />
<glyph unicode="&#xce;" horiz-adv-x="614" d="M25 1577l204 205h144l205 -205h-144l-131 133l-135 -133h-143zM236 0v1434h143v-1434h-143z" />
<glyph unicode="&#xcf;" horiz-adv-x="614" d="M-33 1690q0 46 32.5 79t78.5 33t78 -33t32 -79t-32.5 -79.5t-77.5 -33.5q-46 0 -78.5 33.5t-32.5 79.5zM236 0v1434h143v-1434h-143zM418 1690q0 46 32 79t78 33t78.5 -33t32.5 -79t-32.5 -79.5t-78.5 -33.5q-45 0 -77.5 33.5t-32.5 79.5z" />
<glyph unicode="&#xd1;" horiz-adv-x="1617" d="M205 0v1434h123l942 -1182v1182h143v-1434h-123l-942 1182v-1182h-143zM410 1618q7 114 67.5 177t143.5 63q44 0 98 -24t95.5 -52t87 -52t75.5 -24q108 0 108 158l103 -41q-7 -126 -64.5 -183t-142.5 -57q-43 0 -94.5 23.5t-91 52.5t-83.5 52.5t-73 23.5 q-107 0 -107 -158z" />
<glyph unicode="&#xd2;" horiz-adv-x="1740" d="M143 717q0 200 98 370t265.5 268.5t363.5 98.5t363.5 -98.5t265.5 -268.5t98 -370t-98 -370t-265.5 -268.5t-363.5 -98.5t-363.5 98.5t-265.5 268.5t-98 370zM287 717q0 -121 45.5 -231t123 -189.5t185.5 -126.5t229 -47q161 0 295.5 79.5t211.5 216t77 298.5t-77 298.5 t-211.5 216t-295.5 79.5q-121 0 -229 -47t-185.5 -126.5t-123 -189.5t-45.5 -231zM563 1864h185l163 -287h-102z" />
<glyph unicode="&#xd3;" horiz-adv-x="1740" d="M143 717q0 200 98 370t265.5 268.5t363.5 98.5t363.5 -98.5t265.5 -268.5t98 -370t-98 -370t-265.5 -268.5t-363.5 -98.5t-363.5 98.5t-265.5 268.5t-98 370zM287 717q0 -121 45.5 -231t123 -189.5t185.5 -126.5t229 -47q161 0 295.5 79.5t211.5 216t77 298.5t-77 298.5 t-211.5 216t-295.5 79.5q-121 0 -229 -47t-185.5 -126.5t-123 -189.5t-45.5 -231zM829 1577l164 287h185l-246 -287h-103z" />
<glyph unicode="&#xd4;" horiz-adv-x="1740" d="M143 717q0 200 98 370t265.5 268.5t363.5 98.5t363.5 -98.5t265.5 -268.5t98 -370t-98 -370t-265.5 -268.5t-363.5 -98.5t-363.5 98.5t-265.5 268.5t-98 370zM287 717q0 -121 45.5 -231t123 -189.5t185.5 -126.5t229 -47q161 0 295.5 79.5t211.5 216t77 298.5t-77 298.5 t-211.5 216t-295.5 79.5q-121 0 -229 -47t-185.5 -126.5t-123 -189.5t-45.5 -231zM594 1577l205 205h143l205 -205h-143l-134 133l-133 -133h-143z" />
<glyph unicode="&#xd5;" horiz-adv-x="1740" d="M143 717q0 200 98 370t265.5 268.5t363.5 98.5t363.5 -98.5t265.5 -268.5t98 -370t-98 -370t-265.5 -268.5t-363.5 -98.5t-363.5 98.5t-265.5 268.5t-98 370zM287 717q0 -121 45.5 -231t123 -189.5t185.5 -126.5t229 -47q161 0 295.5 79.5t211.5 216t77 298.5t-77 298.5 t-211.5 216t-295.5 79.5q-121 0 -229 -47t-185.5 -126.5t-123 -189.5t-45.5 -231zM481 1618q7 114 67.5 177t143.5 63q44 0 98 -24t96 -52t87.5 -52t75.5 -24q108 0 108 158l103 -41q-7 -126 -64.5 -183t-142.5 -57q-43 0 -94.5 23.5t-91 52.5t-83.5 52.5t-73 23.5 q-107 0 -107 -158z" />
<glyph unicode="&#xd6;" horiz-adv-x="1740" d="M143 717q0 200 98 370t265.5 268.5t363.5 98.5t363.5 -98.5t265.5 -268.5t98 -370t-98 -370t-265.5 -268.5t-363.5 -98.5t-363.5 98.5t-265.5 268.5t-98 370zM287 717q0 -121 45.5 -231t123 -189.5t185.5 -126.5t229 -47q161 0 295.5 79.5t211.5 216t77 298.5t-77 298.5 t-211.5 216t-295.5 79.5q-121 0 -229 -47t-185.5 -126.5t-123 -189.5t-45.5 -231zM535 1690q0 46 32 79t78 33t78.5 -33t32.5 -79t-32.5 -79.5t-78.5 -33.5q-45 0 -77.5 33.5t-32.5 79.5zM985 1690q0 46 32.5 79t78.5 33t78 -33t32 -79t-32.5 -79.5t-77.5 -33.5 q-46 0 -78.5 33.5t-32.5 79.5z" />
<glyph unicode="&#xd9;" horiz-adv-x="1556" d="M184 573v861h133v-861q0 -197 132.5 -328.5t328.5 -131.5t328.5 131.5t132.5 328.5v861h133v-861q0 -169 -80.5 -306t-216 -212t-297.5 -75t-297.5 75t-216 212t-80.5 306zM471 1864h184l164 -287h-102z" />
<glyph unicode="&#xda;" horiz-adv-x="1556" d="M184 573v861h133v-861q0 -197 132.5 -328.5t328.5 -131.5t328.5 131.5t132.5 328.5v861h133v-861q0 -169 -80.5 -306t-216 -212t-297.5 -75t-297.5 75t-216 212t-80.5 306zM737 1577l164 287h184l-245 -287h-103z" />
<glyph unicode="&#xdb;" horiz-adv-x="1556" d="M184 573v861h133v-861q0 -197 132.5 -328.5t328.5 -131.5t328.5 131.5t132.5 328.5v861h133v-861q0 -169 -80.5 -306t-216 -212t-297.5 -75t-297.5 75t-216 212t-80.5 306zM502 1577l205 205h143l205 -205h-144l-133 133l-133 -133h-143z" />
<glyph unicode="&#xdc;" horiz-adv-x="1556" d="M184 573v861h133v-861q0 -197 132.5 -328.5t328.5 -131.5t328.5 131.5t132.5 328.5v861h133v-861q0 -169 -80.5 -306t-216 -212t-297.5 -75t-297.5 75t-216 212t-80.5 306zM442 1690q0 46 32.5 79t78.5 33t78.5 -33t32.5 -79t-32.5 -79.5t-78.5 -33.5t-78.5 33.5 t-32.5 79.5zM893 1690q0 46 32.5 79t78.5 33t78 -33t32 -79t-32.5 -79.5t-77.5 -33.5q-46 0 -78.5 33.5t-32.5 79.5z" />
<glyph unicode="&#xdd;" horiz-adv-x="1392" d="M61 1434h164l471 -748l471 748h164l-563 -891v-543h-143v543zM651 1577l164 287h184l-245 -287h-103z" />
<glyph unicode="&#xe0;" horiz-adv-x="1187" d="M88 328q0 67 21.5 118.5t63.5 85t92 55.5t119 33t131 15t140 4h246v37q0 147 -70.5 222t-240.5 75q-114 0 -189.5 -36t-167.5 -112l-69 97q97 83 194.5 123t243.5 40q213 0 322.5 -110t109.5 -299v-676h-133v147q-60 -79 -165 -123t-244 -44q-79 0 -149.5 20.5 t-128.5 61.5t-92 109.5t-34 156.5zM221 317q0 -215 332 -215q91 0 169.5 32t128.5 94t50 141v170h-184q-83 0 -143.5 -3t-120 -11t-99.5 -24t-71.5 -40t-46.5 -60t-15 -84zM295 1495h184l164 -287h-102z" />
<glyph unicode="&#xe1;" horiz-adv-x="1187" d="M88 328q0 67 21.5 118.5t63.5 85t92 55.5t119 33t131 15t140 4h246v37q0 147 -70.5 222t-240.5 75q-114 0 -189.5 -36t-167.5 -112l-69 97q97 83 194.5 123t243.5 40q213 0 322.5 -110t109.5 -299v-676h-133v147q-60 -79 -165 -123t-244 -44q-79 0 -149.5 20.5 t-128.5 61.5t-92 109.5t-34 156.5zM221 317q0 -215 332 -215q91 0 169.5 32t128.5 94t50 141v170h-184q-83 0 -143.5 -3t-120 -11t-99.5 -24t-71.5 -40t-46.5 -60t-15 -84zM561 1208l164 287h184l-245 -287h-103z" />
<glyph unicode="&#xe2;" horiz-adv-x="1187" d="M88 328q0 67 21.5 118.5t63.5 85t92 55.5t119 33t131 15t140 4h246v37q0 147 -70.5 222t-240.5 75q-114 0 -189.5 -36t-167.5 -112l-69 97q97 83 194.5 123t243.5 40q213 0 322.5 -110t109.5 -299v-676h-133v147q-60 -79 -165 -123t-244 -44q-79 0 -149.5 20.5 t-128.5 61.5t-92 109.5t-34 156.5zM221 317q0 -215 332 -215q91 0 169.5 32t128.5 94t50 141v170h-184q-83 0 -143.5 -3t-120 -11t-99.5 -24t-71.5 -40t-46.5 -60t-15 -84zM326 1208l204 205h144l205 -205h-144l-133 133l-133 -133h-143z" />
<glyph unicode="&#xe3;" horiz-adv-x="1187" d="M88 328q0 67 21.5 118.5t63.5 85t92 55.5t119 33t131 15t140 4h246v37q0 147 -70.5 222t-240.5 75q-114 0 -189.5 -36t-167.5 -112l-69 97q97 83 194.5 123t243.5 40q213 0 322.5 -110t109.5 -299v-676h-133v147q-60 -79 -165 -123t-244 -44q-79 0 -149.5 20.5 t-128.5 61.5t-92 109.5t-34 156.5zM213 1249q7 114 67.5 177t143.5 63q44 0 98 -23.5t95.5 -52.5t87 -52.5t75.5 -23.5q109 0 109 158l102 -41q-7 -126 -64.5 -183t-142.5 -57q-43 0 -94.5 24t-91 52t-83.5 52t-73 24q-106 0 -106 -158zM221 317q0 -215 332 -215 q91 0 169.5 32t128.5 94t50 141v170h-184q-83 0 -143.5 -3t-120 -11t-99.5 -24t-71.5 -40t-46.5 -60t-15 -84z" />
<glyph unicode="&#xe4;" horiz-adv-x="1187" d="M88 328q0 67 21.5 118.5t63.5 85t92 55.5t119 33t131 15t140 4h246v37q0 147 -70.5 222t-240.5 75q-114 0 -189.5 -36t-167.5 -112l-69 97q97 83 194.5 123t243.5 40q213 0 322.5 -110t109.5 -299v-676h-133v147q-60 -79 -165 -123t-244 -44q-79 0 -149.5 20.5 t-128.5 61.5t-92 109.5t-34 156.5zM221 317q0 -215 332 -215q91 0 169.5 32t128.5 94t50 141v170h-184q-83 0 -143.5 -3t-120 -11t-99.5 -24t-71.5 -40t-46.5 -60t-15 -84zM266 1321q0 46 32.5 79.5t78.5 33.5q45 0 77.5 -33.5t32.5 -79.5t-32.5 -79.5t-77.5 -33.5 q-46 0 -78.5 33.5t-32.5 79.5zM717 1321q0 46 32.5 79.5t77.5 33.5q46 0 78.5 -33.5t32.5 -79.5t-32.5 -79.5t-78.5 -33.5q-45 0 -77.5 33.5t-32.5 79.5z" />
<glyph unicode="&#xe5;" horiz-adv-x="1187" d="M88 328q0 67 21.5 118.5t63.5 85t92 55.5t119 33t131 15t140 4h246v37q0 147 -70.5 222t-240.5 75q-114 0 -189.5 -36t-167.5 -112l-69 97q97 83 194.5 123t243.5 40q213 0 322.5 -110t109.5 -299v-676h-133v147q-60 -79 -165 -123t-244 -44q-79 0 -149.5 20.5 t-128.5 61.5t-92 109.5t-34 156.5zM221 317q0 -215 332 -215q91 0 169.5 32t128.5 94t50 141v170h-184q-83 0 -143.5 -3t-120 -11t-99.5 -24t-71.5 -40t-46.5 -60t-15 -84zM397 1413q0 85 60 145t145 60t145 -60t60 -145t-60 -145t-145 -60t-145 60t-60 145zM500 1413 q0 -44 29 -73t73 -29t73.5 29t29.5 73t-29.5 73.5t-73.5 29.5t-73 -29.5t-29 -73.5z" />
<glyph unicode="&#xe7;" horiz-adv-x="1173" d="M113 532q0 112 44 214.5t118 176.5t176.5 118t214.5 44q132 0 241.5 -55t182.5 -153l-84 -86q-60 79 -147 125.5t-193 46.5q-180 0 -300 -124t-120 -307t120 -306.5t300 -123.5q106 0 193 46.5t147 125.5l86 -86q-65 -89 -160 -142.5t-209 -63.5q35 -24 44.5 -30.5 t41.5 -30t43.5 -35t33.5 -34.5t31 -40t17 -40.5t8 -47.5q0 -168 -182 -168q-54 0 -108.5 17t-88.5 42l41 61q3 -1 17.5 -7t27 -10.5t34 -8.5t42.5 -4q113 0 113 84q0 83 -197 250q-145 6 -266.5 81t-191.5 200t-70 271z" />
<glyph unicode="&#xe8;" horiz-adv-x="1259" d="M113 532q0 159 71 286.5t190 197t261 69.5t261 -69.5t190 -197t71 -286.5v-40h-909q12 -179 123.5 -284.5t283.5 -105.5q111 0 206.5 47t154.5 125l86 -86q-71 -97 -191.5 -152.5t-255.5 -55.5q-152 0 -275.5 69.5t-195 196t-71.5 286.5zM250 608h770q-20 165 -122.5 260 t-262.5 95t-262.5 -95t-122.5 -260zM317 1495h185l164 -287h-103z" />
<glyph unicode="&#xe9;" horiz-adv-x="1259" d="M113 532q0 159 71 286.5t190 197t261 69.5t261 -69.5t190 -197t71 -286.5v-40h-909q12 -179 123.5 -284.5t283.5 -105.5q111 0 206.5 47t154.5 125l86 -86q-71 -97 -191.5 -152.5t-255.5 -55.5q-152 0 -275.5 69.5t-195 196t-71.5 286.5zM250 608h770q-20 165 -122.5 260 t-262.5 95t-262.5 -95t-122.5 -260zM584 1208l164 287h184l-246 -287h-102z" />
<glyph unicode="&#xea;" horiz-adv-x="1259" d="M113 532q0 159 71 286.5t190 197t261 69.5t261 -69.5t190 -197t71 -286.5v-40h-909q12 -179 123.5 -284.5t283.5 -105.5q111 0 206.5 47t154.5 125l86 -86q-71 -97 -191.5 -152.5t-255.5 -55.5q-152 0 -275.5 69.5t-195 196t-71.5 286.5zM250 608h770q-20 165 -122.5 260 t-262.5 95t-262.5 -95t-122.5 -260zM348 1208l205 205h143l205 -205h-143l-133 133l-133 -133h-144z" />
<glyph unicode="&#xeb;" horiz-adv-x="1259" d="M113 532q0 159 71 286.5t190 197t261 69.5t261 -69.5t190 -197t71 -286.5v-40h-909q12 -179 123.5 -284.5t283.5 -105.5q111 0 206.5 47t154.5 125l86 -86q-71 -97 -191.5 -152.5t-255.5 -55.5q-152 0 -275.5 69.5t-195 196t-71.5 286.5zM250 608h770q-20 165 -122.5 260 t-262.5 95t-262.5 -95t-122.5 -260zM289 1321q0 46 32.5 79.5t77.5 33.5q46 0 78.5 -33.5t32.5 -79.5t-32.5 -79.5t-78.5 -33.5q-45 0 -77.5 33.5t-32.5 79.5zM739 1321q0 46 32.5 79.5t78.5 33.5t78.5 -33.5t32.5 -79.5t-32.5 -79.5t-78.5 -33.5t-78.5 33.5t-32.5 79.5z " />
<glyph unicode="&#xec;" horiz-adv-x="512" d="M-51 1495h184l164 -287h-102zM174 0v1065h164v-1065h-164z" />
<glyph unicode="&#xed;" horiz-adv-x="512" d="M174 0v1065h164v-1065h-164zM215 1208l164 287h184l-246 -287h-102z" />
<glyph unicode="&#xee;" horiz-adv-x="512" d="M-20 1208l204 205h144l204 -205h-143l-133 133l-133 -133h-143zM174 0v1065h164v-1065h-164z" />
<glyph unicode="&#xef;" horiz-adv-x="512" d="M-80 1321q0 46 32.5 79.5t78.5 33.5q45 0 77.5 -33.5t32.5 -79.5t-32.5 -79.5t-77.5 -33.5q-46 0 -78.5 33.5t-32.5 79.5zM174 0v1065h164v-1065h-164zM371 1321q0 46 32.5 79.5t77.5 33.5q46 0 78.5 -33.5t32.5 -79.5t-32.5 -79.5t-78.5 -33.5q-45 0 -77.5 33.5 t-32.5 79.5z" />
<glyph unicode="&#xf1;" horiz-adv-x="1300" d="M174 0v1065h133v-207q59 105 159 166t241 61q194 0 312 -134t118 -337v-614h-133v614q0 72 -18.5 133t-56.5 110.5t-103 77.5t-150 28q-164 0 -266.5 -110t-102.5 -280v-573h-133zM262 1249q7 114 67.5 177t143.5 63q44 0 97.5 -23.5t95 -52.5t86.5 -52.5t75 -23.5 q111 0 111 158l102 -41q-7 -126 -65.5 -183t-143.5 -57q-54 0 -120 38t-124.5 76t-94.5 38q-107 0 -107 -158z" />
<glyph unicode="&#xf2;" horiz-adv-x="1331" d="M113 532q0 112 44 214.5t118 176.5t176.5 118t214.5 44t214.5 -44t176.5 -118t118 -176.5t44 -214.5q0 -150 -74 -277t-201.5 -201t-277.5 -74t-277.5 74t-201.5 201t-74 277zM246 532q0 -178 123 -304t297 -126q173 0 296 126t123 304t-123 304.5t-296 126.5 t-296.5 -126.5t-123.5 -304.5zM358 1495h185l164 -287h-103z" />
<glyph unicode="&#xf3;" horiz-adv-x="1331" d="M113 532q0 112 44 214.5t118 176.5t176.5 118t214.5 44t214.5 -44t176.5 -118t118 -176.5t44 -214.5q0 -150 -74 -277t-201.5 -201t-277.5 -74t-277.5 74t-201.5 201t-74 277zM246 532q0 -178 123 -304t297 -126q173 0 296 126t123 304t-123 304.5t-296 126.5 t-296.5 -126.5t-123.5 -304.5zM625 1208l163 287h185l-246 -287h-102z" />
<glyph unicode="&#xf4;" horiz-adv-x="1331" d="M113 532q0 112 44 214.5t118 176.5t176.5 118t214.5 44t214.5 -44t176.5 -118t118 -176.5t44 -214.5q0 -150 -74 -277t-201.5 -201t-277.5 -74t-277.5 74t-201.5 201t-74 277zM246 532q0 -178 123 -304t297 -126q173 0 296 126t123 304t-123 304.5t-296 126.5 t-296.5 -126.5t-123.5 -304.5zM389 1208l205 205h143l205 -205h-143l-133 133l-134 -133h-143z" />
<glyph unicode="&#xf5;" horiz-adv-x="1331" d="M113 532q0 112 44 214.5t118 176.5t176.5 118t214.5 44t214.5 -44t176.5 -118t118 -176.5t44 -214.5q0 -150 -74 -277t-201.5 -201t-277.5 -74t-277.5 74t-201.5 201t-74 277zM246 532q0 -178 123 -304t297 -126q173 0 296 126t123 304t-123 304.5t-296 126.5 t-296.5 -126.5t-123.5 -304.5zM276 1249q7 114 67.5 177t143.5 63q44 0 98 -23.5t96 -52.5t87.5 -52.5t75.5 -23.5q108 0 108 158l103 -41q-7 -126 -64.5 -183t-142.5 -57q-43 0 -94.5 24t-91 52t-83.5 52t-73 24q-107 0 -107 -158z" />
<glyph unicode="&#xf6;" horiz-adv-x="1331" d="M113 532q0 112 44 214.5t118 176.5t176.5 118t214.5 44t214.5 -44t176.5 -118t118 -176.5t44 -214.5q0 -150 -74 -277t-201.5 -201t-277.5 -74t-277.5 74t-201.5 201t-74 277zM246 532q0 -178 123 -304t297 -126q173 0 296 126t123 304t-123 304.5t-296 126.5 t-296.5 -126.5t-123.5 -304.5zM330 1321q0 46 32.5 79.5t77.5 33.5q46 0 78.5 -33.5t32.5 -79.5t-32.5 -79.5t-78.5 -33.5q-45 0 -77.5 33.5t-32.5 79.5zM780 1321q0 46 32.5 79.5t78.5 33.5q45 0 77.5 -33.5t32.5 -79.5t-32.5 -79.5t-77.5 -33.5q-46 0 -78.5 33.5 t-32.5 79.5z" />
<glyph unicode="&#xf9;" horiz-adv-x="1300" d="M164 451v614h133v-614q0 -72 18.5 -133t56.5 -110.5t103 -77.5t150 -28q164 0 266 110t102 280v573h133v-1065h-133v207q-59 -105 -158.5 -166t-240.5 -61q-194 0 -312 134t-118 337zM332 1495h184l164 -287h-102z" />
<glyph unicode="&#xfa;" horiz-adv-x="1300" d="M164 451v614h133v-614q0 -72 18.5 -133t56.5 -110.5t103 -77.5t150 -28q164 0 266 110t102 280v573h133v-1065h-133v207q-59 -105 -158.5 -166t-240.5 -61q-194 0 -312 134t-118 337zM598 1208l164 287h184l-246 -287h-102z" />
<glyph unicode="&#xfb;" horiz-adv-x="1300" d="M164 451v614h133v-614q0 -72 18.5 -133t56.5 -110.5t103 -77.5t150 -28q164 0 266 110t102 280v573h133v-1065h-133v207q-59 -105 -158.5 -166t-240.5 -61q-194 0 -312 134t-118 337zM365 1208l204 205h144l205 -205h-144l-135 133l-131 -133h-143z" />
<glyph unicode="&#xfc;" horiz-adv-x="1300" d="M164 451v614h133v-614q0 -72 18.5 -133t56.5 -110.5t103 -77.5t150 -28q164 0 266 110t102 280v573h133v-1065h-133v207q-59 -105 -158.5 -166t-240.5 -61q-194 0 -312 134t-118 337zM303 1321q0 46 32.5 79.5t78.5 33.5q45 0 77.5 -33.5t32.5 -79.5t-32.5 -79.5 t-77.5 -33.5q-46 0 -78.5 33.5t-32.5 79.5zM754 1321q0 46 32.5 79.5t77.5 33.5q46 0 78.5 -33.5t32.5 -79.5t-32.5 -79.5t-78.5 -33.5q-45 0 -77.5 33.5t-32.5 79.5z" />
<glyph unicode="&#xfd;" horiz-adv-x="1185" d="M72 -307l61 104q93 -104 213 -104q42 0 75.5 16t56 46.5t35.5 56.5t28 65l39 103l-500 1085h143l418 -918l340 918h133l-399 -1079v-2h-2l-39 -107q-24 -68 -51 -118.5t-66 -95.5t-92 -69t-119 -24q-85 0 -158 34t-116 89zM551 1208l164 287h184l-246 -287h-102z" />
<glyph unicode="&#xff;" horiz-adv-x="1185" d="M72 -307l61 104q93 -104 213 -104q42 0 75.5 16t56 46.5t35.5 56.5t28 65l39 103l-500 1085h143l418 -918l340 918h133l-399 -1079v-2h-2l-39 -107q-24 -68 -51 -118.5t-66 -95.5t-92 -69t-119 -24q-85 0 -158 34t-116 89zM256 1321q0 46 32.5 79.5t78.5 33.5 q45 0 77.5 -33.5t32.5 -79.5t-32.5 -79.5t-77.5 -33.5q-46 0 -78.5 33.5t-32.5 79.5zM707 1321q0 46 32.5 79.5t77.5 33.5q46 0 78.5 -33.5t32.5 -79.5t-32.5 -79.5t-78.5 -33.5q-45 0 -77.5 33.5t-32.5 79.5z" />
<glyph unicode="&#x178;" horiz-adv-x="1392" d="M61 1434h164l471 -748l471 748h164l-563 -891v-543h-143v543zM356 1690q0 46 32.5 79t78.5 33t78.5 -33t32.5 -79t-32.5 -79.5t-78.5 -33.5t-78.5 33.5t-32.5 79.5zM807 1690q0 46 32.5 79t78.5 33t78 -33t32 -79t-32.5 -79.5t-77.5 -33.5q-46 0 -78.5 33.5t-32.5 79.5z " />
<glyph unicode="&#x2c6;" horiz-adv-x="1024" d="M236 1290l204 205h144l204 -205h-143l-133 133l-133 -133h-143z" />
<glyph unicode="&#x2dc;" horiz-adv-x="1024" d="M123 1270q7 114 67.5 176.5t143.5 62.5q44 0 98 -23.5t95.5 -52t87 -52t75.5 -23.5q109 0 109 158l102 -41q-7 -126 -64.5 -183t-142.5 -57q-43 0 -94.5 23.5t-91 52t-83.5 52t-73 23.5q-106 0 -106 -157z" />
<glyph unicode="&#x2000;" horiz-adv-x="932" />
<glyph unicode="&#x2001;" horiz-adv-x="1864" />
<glyph unicode="&#x2002;" horiz-adv-x="932" />
<glyph unicode="&#x2003;" horiz-adv-x="1864" />
<glyph unicode="&#x2004;" horiz-adv-x="621" />
<glyph unicode="&#x2005;" horiz-adv-x="466" />
<glyph unicode="&#x2006;" horiz-adv-x="310" />
<glyph unicode="&#x2007;" horiz-adv-x="310" />
<glyph unicode="&#x2008;" horiz-adv-x="233" />
<glyph unicode="&#x2009;" horiz-adv-x="372" />
<glyph unicode="&#x200a;" horiz-adv-x="103" />
<glyph unicode="&#x2010;" horiz-adv-x="880" d="M133 553v113h615v-113h-615z" />
<glyph unicode="&#x2011;" horiz-adv-x="880" d="M133 553v113h615v-113h-615z" />
<glyph unicode="&#x2012;" horiz-adv-x="880" d="M133 553v113h615v-113h-615z" />
<glyph unicode="&#x2013;" horiz-adv-x="1289" d="M133 553v113h1024v-113h-1024z" />
<glyph unicode="&#x2014;" horiz-adv-x="2313" d="M133 553v113h2048v-113h-2048z" />
<glyph unicode="&#x2018;" horiz-adv-x="438" d="M43 1137q0 32 25 77l165 281h72l-112 -250q35 -11 57 -40.5t22 -67.5q0 -47 -32.5 -80t-81.5 -33q-48 0 -81.5 30.5t-33.5 82.5z" />
<glyph unicode="&#x2019;" horiz-adv-x="438" d="M133 1004l113 249q-35 11 -57.5 41t-22.5 68q0 46 33 79.5t82 33.5q48 0 81 -30.5t33 -82.5q0 -35 -24 -78l-166 -280h-72z" />
<glyph unicode="&#x201c;" horiz-adv-x="786" d="M43 1137q0 32 25 77l165 281h72l-112 -250q35 -11 57 -40.5t22 -67.5q0 -47 -32.5 -80t-81.5 -33q-48 0 -81.5 30.5t-33.5 82.5zM391 1137q0 32 25 77l166 281h71l-112 -250q36 -11 58 -40.5t22 -67.5q0 -46 -33 -79.5t-82 -33.5q-48 0 -81.5 30.5t-33.5 82.5z" />
<glyph unicode="&#x201d;" horiz-adv-x="786" d="M133 1004l113 249q-35 11 -57.5 41t-22.5 68q0 46 33 79.5t82 33.5q48 0 81 -30.5t33 -82.5q0 -35 -24 -78l-166 -280h-72zM481 1004l113 249q-35 11 -57.5 41t-22.5 68q0 46 33 79.5t82 33.5q48 0 81 -30.5t33 -82.5q0 -35 -24 -78l-166 -280h-72z" />
<glyph unicode="&#x202f;" horiz-adv-x="372" />
<glyph unicode="&#x205f;" horiz-adv-x="466" />
<glyph unicode="&#x25fc;" horiz-adv-x="1064" d="M0 0v1065h1065v-1065h-1065z" />
<glyph unicode="&#xfb01;" horiz-adv-x="768" d="M92 942v123h164v143q0 128 77 218t208 90q127 0 196 -64v-139q-28 23 -45 35.5t-57.5 28.5t-81.5 16q-164 0 -164 -185v-143h324v-123h-324v-942h-133v942h-164z" />
</font>
</defs>
</svg>
