<?xml version="1.0" standalone="no"?>
<!DOCTYPE svg PUBLIC "-//W3C//DTD SVG 1.1//EN" "http://www.w3.org/Graphics/SVG/1.1/DTD/svg11.dtd" >
<svg xmlns="http://www.w3.org/2000/svg">
<metadata></metadata>
<defs>
<font id="miedingerbook" horiz-adv-x="1093" >
<font-face units-per-em="2048" ascent="1638" descent="-410" />
<missing-glyph horiz-adv-x="512" />
<glyph unicode="&#xfb01;" horiz-adv-x="942" d="M25 934v139h143v182q0 115 66 180q65 64 186 64h366v-209h-141q-6 17 -83 38q-80 22 -105 22q-119 0 -119 -109v-168h287h16h154v-1073h-170v934h-287v-934h-170v934h-143z" />
<glyph unicode="&#xfb02;" horiz-adv-x="952" d="M37 934v139h143v182q0 115 67 180q65 64 185 64q160 0 207 -10v4h170v-1493h-170v934h-289v-934h-170v934h-143zM350 1073h289v275q-52 2 -170 2q-119 0 -119 -109v-168z" />
<glyph unicode="&#xfb03;" horiz-adv-x="1335" d="M37 934v139h143v182q0 115 67 180q65 64 185 64q49 0 96 -10v-141q-52 2 -59 2q-119 0 -119 -109v-168h248v182q0 115 67 180q65 64 185 64q20 0 101 -3t83 -3h154v-215h-170v70q-60 2 -131 2q-119 0 -119 -109v-168h420v-1073h-170v934h-250v-934h-170v934h-248v-934 h-170v934h-143z" />
<glyph unicode="&#xfb04;" horiz-adv-x="1320" d="M37 934v139h143v182q0 115 67 180q65 64 185 64q49 0 96 -10v-141q-52 2 -59 2q-119 0 -119 -109v-168h248v182q0 115 67 180q65 64 185 64q10 0 57 -3q46 -3 101 -3h170v-1493h-170v934h-240v-934h-170v934h-248v-934h-170v934h-143zM768 1073h240v275q-112 2 -121 2 q-119 0 -119 -109v-168z" />
<glyph horiz-adv-x="0" />
<glyph unicode="&#xd;" horiz-adv-x="1228" />
<glyph unicode=" "  horiz-adv-x="512" />
<glyph unicode="&#x09;" horiz-adv-x="512" />
<glyph unicode="&#xa0;" horiz-adv-x="512" />
<glyph unicode="!" horiz-adv-x="686" d="M211 102q0 56 39 95t94 39t94 -39t39 -95t-38.5 -94.5t-94.5 -38.5t-94.5 38.5t-38.5 94.5zM256 829v666h176v-666l-41 -430h-94z" />
<glyph unicode="&#x22;" horiz-adv-x="727" d="M82 1352q0 57 34 95t89 38t89 -38t34 -95q0 -8 -5 -36l-78 -367q-8 -36 -40 -36q-16 0 -27 10t-14 26l-77 367q-5 23 -5 36zM410 1352q0 57 34 95t88 38q55 0 89 -38t34 -95q0 -14 -4 -36l-78 -367q-8 -36 -41 -36t-40 36l-78 367q-4 19 -4 36z" />
<glyph unicode="#" horiz-adv-x="1138" d="M29 391v139h233l65 357h-223v139h249l73 401h154l-74 -401h256l74 401h153l-73 -401h194v-139h-220l-65 -357h219v-139h-244l-79 -432h-154l79 432h-256l-79 -432h-153l79 432h-208zM416 530h256l65 357h-256z" />
<glyph unicode="$" horiz-adv-x="1138" d="M72 492h174q0 -147 67 -233t185 -111v517q-49 10 -84.5 19.5t-80 26t-75 36t-62.5 50t-51 68t-31 89.5t-12 115q0 61 24.5 121.5t71 114t124.5 92t176 51.5v129h120v-123q206 -6 325 -113.5t112 -306.5h-185q0 119 -57 181.5t-195 69.5v-464q172 -34 248 -69 q170 -76 208 -251q11 -54 11 -118q0 -197 -130 -303.5t-337 -110.5v-227h-120v234q-212 27 -322.5 161t-103.5 355zM287 1069q0 -95 54.5 -144t156.5 -77v430q-103 -20 -157 -81t-54 -128zM618 137q124 4 203.5 70t79.5 176q0 51 -15.5 91.5t-39 66t-63 45.5t-76.5 31.5 t-89 22.5v-503z" />
<glyph unicode="%" horiz-adv-x="1820" d="M59 1053q0 142 103.5 246t245.5 104q147 0 248.5 -103t101.5 -251q0 -141 -103.5 -244t-244.5 -103q-142 0 -246.5 104.5t-104.5 246.5zM201 1053q0 -84 62 -145.5t147 -61.5q83 0 144.5 61t61.5 144q0 88 -60 148.5t-148 60.5q-84 0 -145.5 -61t-61.5 -146zM438 -41 l809 1493h135l-809 -1493h-135zM1061 311q0 143 102.5 245.5t245.5 102.5q146 0 248 -103t102 -249q0 -140 -104 -243t-244 -103q-143 0 -246.5 103.5t-103.5 246.5zM1202 311q0 -85 61.5 -146t147.5 -61q83 0 145 60.5t62 142.5q0 88 -60.5 148.5t-148.5 60.5 q-83 0 -145 -61t-62 -144z" />
<glyph unicode="&#x26;" horiz-adv-x="1366" d="M108 348q0 77 22 143.5t51 110t79.5 87.5t83.5 65.5t88 53.5q-3 3 -32 38t-35.5 44.5t-29.5 41t-31 49t-21 46.5t-17.5 55.5t-4.5 54.5q0 121 105 216.5t248 95.5q150 0 246.5 -89.5t96.5 -222.5q0 -56 -16.5 -106.5t-41 -88t-63 -75t-70.5 -61.5t-77 -53l254 -304 q66 94 66 237h163q0 -218 -119 -379l250 -307h-222l-126 157q-81 -94 -192 -148.5t-241 -54.5q-80 0 -154 26.5t-132 75t-93 124.5t-35 168zM282 348q0 -103 79.5 -166.5t170.5 -63.5q189 0 306 163l-311 386q-57 -33 -95 -61t-75.5 -66.5t-56 -86.5t-18.5 -105zM435 1137 q0 -33 21.5 -75t45.5 -74.5t68 -85.5q4 -4 5.5 -6t4.5 -5.5t5 -6.5q108 71 158.5 126t50.5 127t-50 120.5t-130 48.5q-74 0 -126.5 -47.5t-52.5 -121.5z" />
<glyph unicode="'" horiz-adv-x="501" d="M143 1352q0 57 34 95t89 38t89 -38t34 -95q0 -8 -5 -36l-77 -367q-8 -36 -41 -36t-40 36l-78 367q-5 23 -5 36z" />
<glyph unicode="(" horiz-adv-x="681" d="M150 530q0 262 95.5 519.5t237.5 443.5h113q-281 -454 -281 -963q0 -507 281 -964h-113q-142 185 -237.5 443t-95.5 521z" />
<glyph unicode=")" horiz-adv-x="681" d="M78 -434q280 452 280 962t-280 965h112q142 -186 238 -444t96 -521q0 -261 -96 -518.5t-238 -443.5h-112z" />
<glyph unicode="*" horiz-adv-x="796" d="M82 1221l39 120l217 -77l-10 229h129l-11 -229l218 77l38 -120l-221 -62l144 -182l-105 -74l-127 191l-129 -191l-102 74l141 182z" />
<glyph unicode="+" horiz-adv-x="1196" d="M102 403v144h424v424h144v-424h424v-144h-424v-423h-144v423h-424z" />
<glyph unicode="," horiz-adv-x="522" d="M133 102q0 56 39 95t94 39q61 0 107.5 -48.5t46.5 -136.5q0 -83 -34.5 -164.5t-81.5 -135t-92 -87t-69 -33.5v93q43 14 99 101t64 151q-23 -7 -40 -7q-56 0 -94.5 38.5t-38.5 94.5z" />
<glyph unicode="-" horiz-adv-x="675" d="M92 492v143h492v-143h-492z" />
<glyph unicode="." horiz-adv-x="501" d="M133 102q0 56 39 95t94 39t94 -39t39 -95t-38.5 -94.5t-94.5 -38.5t-94.5 38.5t-38.5 94.5z" />
<glyph unicode="/" horiz-adv-x="569" d="M-16 -41l485 1534h113l-486 -1534h-112z" />
<glyph unicode="0" horiz-adv-x="1138" d="M88 702q0 750 475 750t475 -762q0 -125 -14.5 -230.5t-49 -201t-88 -161.5t-136 -105t-187.5 -39q-107 0 -189.5 39.5t-135.5 106.5t-87.5 164.5t-48.5 204.5t-14 234zM272 700q0 -598 287 -598q62 0 110.5 22.5t80 66.5t53 97t32 125.5t15 140.5t4.5 153q0 585 -291 585 t-291 -592z" />
<glyph unicode="1" horiz-adv-x="1136" d="M205 1014v153q182 15 269 81t118 206h115v-1454h-175v1088q-109 -74 -327 -74z" />
<glyph unicode="2" horiz-adv-x="1136" d="M92 0v133l477 477q17 17 53 52.5t49.5 49t42 43t39 43t31 38.5t28 40t20 38t16.5 42t8 41.5t4 46.5q-8 110 -79 173t-203 63q-127 0 -214.5 -93.5t-87.5 -254.5h-174q0 227 137 374.5t359 147.5q107 0 195 -39t141 -101t81.5 -134t28.5 -144q0 -61 -17.5 -119 t-43.5 -104.5t-69 -99t-81.5 -91.5t-92.5 -92q-14 -13 -21 -20l-343 -336h668v-174h-747h-205z" />
<glyph unicode="3" horiz-adv-x="1136" d="M61 428h185q0 -123 81.5 -214t194.5 -91q149 0 234.5 74.5t85.5 191.5q0 256 -381 256h-41v41v133q68 0 129.5 13.5t114.5 41t84.5 77t31.5 114.5q0 102 -67 158.5t-170 56.5q-98 0 -177 -79t-79 -208h-185q0 208 123 334.5t318 126.5q191 0 305.5 -98.5t114.5 -280.5 q0 -242 -209 -334q280 -85 280 -372q0 -186 -140 -298t-372 -112q-208 0 -334.5 129.5t-126.5 339.5z" />
<glyph unicode="4" horiz-adv-x="1138" d="M59 348v29v133v31l658 911h143v-215v-727h205v-162h-205v-348h-190v348h-611zM227 510h443v617z" />
<glyph unicode="5" horiz-adv-x="1136" d="M84 354h174q15 -116 86 -183t184 -67q161 0 246.5 89.5t85.5 263.5q0 173 -85.5 262.5t-246.5 89.5q-37 0 -74 -15.5t-63.5 -37.5t-48 -44t-32.5 -38l-11 -15h-6h-107h-69l106 793h146h30h574v-178h-598l-52 -387q97 76 226 76q485 0 485 -506q0 -247 -129 -376.5 t-377 -129.5q-185 0 -303 108t-141 295z" />
<glyph unicode="6" horiz-adv-x="1136" d="M88 674q0 158 27 292t84.5 245.5t158.5 175.5t238 65q91 -1 164 -28t117.5 -66.5t77 -93.5t46.5 -99t21 -92h-186q-17 89 -78 154.5t-162 66.5q-158 -1 -235 -135.5t-85 -409.5q55 74 132 113.5t167 40.5q224 -2 350 -126.5t126 -348.5q0 -220 -132 -346.5t-344 -128.5 q-111 1 -195.5 38t-139.5 100.5t-89.5 156.5t-48.5 196.5t-14 229.5zM285 436q0 -142 84 -233.5t206 -91.5q120 0 204 89t87 228v8q0 141 -83.5 224t-207.5 83q-74 0 -136 -31.5t-102 -89.5q-52 -77 -52 -186z" />
<glyph unicode="7" horiz-adv-x="1136" d="M94 1274v178h785h186v-152l-594 -1300h-186l581 1274h-772z" />
<glyph unicode="8" horiz-adv-x="1136" d="M76 399q0 121 66.5 217t179.5 148q-90 46 -142.5 124.5t-52.5 176.5q0 160 127.5 273.5t308.5 113.5t308.5 -113.5t127.5 -273.5q0 -98 -52 -176.5t-142 -124.5q113 -52 179.5 -148t66.5 -217q0 -184 -143.5 -315t-344.5 -131t-344 131t-143 315zM260 399 q0 -118 88.5 -201t214.5 -83t214.5 83t88.5 201q0 119 -88.5 202t-214.5 83t-214.5 -83t-88.5 -202zM311 1065q0 -94 74 -160.5t178 -66.5t178 66.5t74 160.5t-74 160.5t-178 66.5t-178 -66.5t-74 -160.5z" />
<glyph unicode="9" horiz-adv-x="1136" d="M78 977q0 220 131.5 346.5t343.5 128.5q111 -1 195.5 -38t139.5 -100.5t89.5 -156.5t48.5 -196.5t14 -229.5q0 -158 -27 -292t-84.5 -245.5t-158.5 -175.5t-238 -65q-91 1 -164 28t-117.5 66.5t-77 93.5t-46.5 99t-21 92h187q17 -89 77.5 -154.5t161.5 -66.5 q158 1 235.5 135.5t85.5 409.5q-54 -74 -132 -113.5t-168 -40.5q-224 2 -349.5 126.5t-125.5 348.5zM262 969q0 -141 83.5 -224t207.5 -83q74 0 136 31.5t102 89.5q53 79 53 186q0 142 -84.5 233.5t-206.5 91.5q-120 0 -204 -89t-87 -228v-8z" />
<glyph unicode=":" horiz-adv-x="501" d="M133 102q0 56 39 95t94 39t94 -39t39 -95t-38.5 -94.5t-94.5 -38.5t-94.5 38.5t-38.5 94.5zM133 932q0 56 38.5 94.5t94.5 38.5t94.5 -38.5t38.5 -94.5t-38.5 -94.5t-94.5 -38.5t-94.5 38.5t-38.5 94.5z" />
<glyph unicode=";" horiz-adv-x="522" d="M133 102q0 56 39 95t94 39q61 0 107.5 -48.5t46.5 -136.5q0 -83 -34.5 -164.5t-81.5 -135t-92 -87t-69 -33.5v93q43 14 99 101t64 151q-23 -7 -40 -7q-56 0 -94.5 38.5t-38.5 94.5zM133 932q0 56 38.5 94.5t94.5 38.5t94.5 -38.5t38.5 -94.5t-38.5 -94.5t-94.5 -38.5 t-94.5 38.5t-38.5 94.5z" />
<glyph unicode="&#x3c;" horiz-adv-x="1196" d="M92 406v141l1002 424v-162l-807 -330l807 -336v-161z" />
<glyph unicode="=" horiz-adv-x="1167" d="M92 236v143h983v-143h-983zM92 584v143h983v-143h-983z" />
<glyph unicode="&#x3e;" horiz-adv-x="1196" d="M102 -18v161l807 330l-807 336v162l1002 -424v-141z" />
<glyph unicode="?" horiz-adv-x="1136" d="M154 1024q0 69 9.5 131t39.5 130.5t77.5 117.5t131 81t192.5 32q99 0 176 -24t126 -64t80.5 -95t44.5 -113.5t13 -123.5q0 -77 -21 -138t-54 -99.5t-73.5 -70.5t-81 -60t-73.5 -58.5t-54 -75.5t-21 -102h-2v-82h-172v82q0 82 20.5 146t53 103.5t71.5 71t78 59t71.5 57 t53 74.5t20.5 103q0 40 -5 71t-21 63.5t-43.5 53t-74.5 34t-112 13.5q-276 0 -276 -317h-174zM461 102q0 56 39 95t94 39t94 -39t39 -95t-38.5 -94.5t-94.5 -38.5t-94.5 38.5t-38.5 94.5z" />
<glyph unicode="@" horiz-adv-x="2078" d="M68 530q0 198 79.5 380t214.5 315t321.5 212t391.5 79q113 0 222.5 -26.5t206 -74.5t178.5 -118.5t141 -155.5t92 -189t33 -215q0 -138 -46.5 -256.5t-123.5 -196.5t-175.5 -121.5t-203.5 -43.5q-203 0 -237 157q-142 -151 -296 -151q-140 0 -230.5 107t-90.5 276 q0 143 70.5 271.5t192.5 207t263 78.5q175 0 246 -176l45 135h174l-204 -620q-15 -62 7.5 -103t81.5 -41q80 0 148.5 47t111.5 119.5t67 154.5t24 156q0 170 -93 313.5t-253.5 226.5t-350.5 83q-232 0 -421.5 -103t-298.5 -288.5t-109 -415.5q0 -113 40 -219.5t110.5 -189.5 t161.5 -146.5t198.5 -97t216.5 -33.5q106 0 215 19t165 38l56 19l53 -148q-8 -4 -23 -9.5t-65.5 -21t-105.5 -27t-140.5 -21t-173.5 -9.5q-129 0 -258.5 39.5t-241.5 114t-199 174t-137 228t-50 267.5zM725 500q0 -111 58.5 -176.5t144.5 -65.5q53 0 101 30t81.5 77t61 103 t44 111t25 98t8.5 66q0 20 -5 43t-19 51t-34.5 49.5t-55.5 36.5t-78 15q-93 0 -170.5 -65.5t-119.5 -165.5t-42 -207z" />
<glyph unicode="A" horiz-adv-x="1372" d="M31 0l532 1495h62h123h61l532 -1495h-204l-155 451h-592l-154 -451h-205zM442 604h488l-244 712z" />
<glyph unicode="B" horiz-adv-x="1361" d="M164 0v1495h194h410q209 0 324.5 -92.5t115.5 -286.5q0 -242 -208 -334q280 -85 280 -372q0 -209 -135 -309.5t-377 -100.5h-410h-194zM358 174h410q149 0 233 65t84 191q0 256 -378 256h-349v-512zM358 860h308q71 0 131 10.5t116.5 35t88.5 73t32 117.5q0 225 -266 225 h-410v-461z" />
<glyph unicode="C" horiz-adv-x="1468" d="M82 737q0 368 184 573.5t512 205.5q234 0 397.5 -127.5t210.5 -356.5h-194q-50 155 -155 237.5t-259 82.5q-249 0 -380.5 -162.5t-131.5 -452.5q0 -281 144.5 -442.5t377.5 -161.5q175 0 282.5 109t129.5 311h182q-15 -282 -170 -438t-413 -156q-330 0 -523.5 206 t-193.5 572z" />
<glyph unicode="D" horiz-adv-x="1423" d="M164 0v1495h194h267q150 0 279 -48.5t227 -140t154 -235t56 -323.5q0 -144 -36.5 -266t-102 -210t-155 -150t-196.5 -92t-226 -30h-267h-194zM358 174h267q112 0 208 36.5t168.5 107t114 181t41.5 249.5t-41.5 249.5t-114 180.5t-168.5 106.5t-208 36.5h-267v-1147z" />
<glyph unicode="E" horiz-adv-x="1320" d="M184 0v1495h195h881v-174h-881v-461h819v-174h-819v-512h881v-174h-881h-195z" />
<glyph unicode="F" horiz-adv-x="1320" d="M184 0v1495h195h881v-174h-881v-461h819v-174h-819v-686h-195z" />
<glyph unicode="G" horiz-adv-x="1509" d="M82 737q0 368 184 573.5t512 205.5q234 0 397.5 -127.5t210.5 -356.5h-184q-50 153 -159.5 236.5t-264.5 83.5q-237 0 -374.5 -165t-137.5 -450t137.5 -449.5t374.5 -164.5q167 0 295.5 149t134.5 351h-450v163h624v-163v-623h-122l-41 250q-73 -134 -191.5 -212.5 t-269.5 -78.5q-314 0 -495 205.5t-181 572.5z" />
<glyph unicode="H" horiz-adv-x="1484" d="M164 0v1495h194v-635h768v635h195v-1495h-195v686h-768v-686h-194z" />
<glyph unicode="I" horiz-adv-x="563" d="M184 0v1495h195v-1495h-195z" />
<glyph unicode="J" horiz-adv-x="1085" d="M72 473h194q0 -63 5 -111t19.5 -94.5t38.5 -76t65.5 -48t97.5 -18.5t97 18.5t65.5 48t39 76t19 94.5t4.5 111v1022h194v-1022q0 -90 -12.5 -165.5t-43 -142.5t-78 -113.5t-120 -73.5t-165.5 -27q-116 0 -199.5 40t-130.5 113.5t-68.5 164t-21.5 204.5z" />
<glyph unicode="K" horiz-adv-x="1382" d="M164 0v1495h174v-762l788 762h215l-643 -627l654 -868h-215l-566 744l-233 -227v-517h-174z" />
<glyph unicode="L" horiz-adv-x="1177" d="M184 0v1495h195v-1321h737v-174h-737h-195z" />
<glyph unicode="M" horiz-adv-x="1710" d="M164 0v1495h72h122h72l425 -1217l425 1217h72h123h71v-1495h-194v1143l-400 -1143h-194l-400 1143v-1143h-194z" />
<glyph unicode="N" horiz-adv-x="1495" d="M184 0v1495h31h164h31l727 -1220v1220h194v-1495h-31h-163h-31l-727 1220v-1220h-195z" />
<glyph unicode="O" horiz-adv-x="1597" d="M82 737q0 180 56.5 328.5t154 246t228 151t278.5 53.5t278.5 -53.5t228 -151t154 -246t56.5 -328.5t-56.5 -328.5t-154 -246t-227.5 -150.5t-279 -53t-279 53t-227.5 150.5t-154 246t-56.5 328.5zM266 737q0 -140 42 -256.5t114 -194t169 -120.5t208 -43t208 43 t169 120.5t113.5 194t41.5 256.5t-41.5 256.5t-113.5 194.5t-169.5 121t-207.5 43t-207.5 -43t-169.5 -121t-114 -194.5t-42 -256.5z" />
<glyph unicode="P" horiz-adv-x="1320" d="M164 0v1495h194h369q239 0 375.5 -107.5t136.5 -318.5q0 -150 -75.5 -251.5t-201.5 -147t-296 -45.5h-308v-625h-194zM358 799h308q83 0 149.5 14t119 43.5t81 81t28.5 121.5q0 127 -84.5 194.5t-232.5 67.5h-369v-522z" />
<glyph unicode="Q" horiz-adv-x="1597" d="M82 737q0 180 56.5 328.5t154 246t228 151t278.5 53.5t278.5 -53.5t228 -151t154 -246t56.5 -328.5q0 -187 -59.5 -336.5t-166.5 -252.5l176 -148l-98 -119l-205 172q-162 -94 -364 -94q-149 0 -279 53t-227.5 150.5t-154 246t-56.5 328.5zM266 737q0 -140 42 -256.5 t114 -194t169 -120.5t208 -43q118 0 222 49l-163 137l98 119l197 -165q178 172 178 474q0 140 -41.5 256.5t-113.5 194.5t-169.5 121t-207.5 43t-207.5 -43t-169.5 -121t-114 -194.5t-42 -256.5z" />
<glyph unicode="R" horiz-adv-x="1382" d="M164 0v1495h194h430q239 0 375.5 -107.5t136.5 -318.5q0 -274 -258 -361q85 -39 129 -110.5t55 -153t17 -162.5t33 -159t86 -123h-205q-45 24 -69.5 73t-32.5 105t-14 119.5t-21.5 120.5t-47 104t-98 75t-167.5 28h-349v-625h-194zM358 799h369q83 0 149.5 14t119.5 43.5 t81.5 81t28.5 121.5q0 127 -85 194.5t-233 67.5h-430v-522z" />
<glyph unicode="S" horiz-adv-x="1361" d="M92 492h174q0 -72 26.5 -132t70.5 -100.5t100.5 -68.5t115.5 -41t117 -13q54 0 105 6.5t104 23.5t92 44t63.5 71t24.5 101q0 70 -33 121t-88.5 81t-127.5 52t-152 39.5t-160 37t-152 51.5t-127.5 76.5t-88.5 118t-33 170.5q0 55 18.5 109t60 106.5t101.5 92t151 64 t201 24.5q244 0 397 -126q146 -120 146 -317v-18h-184q0 126 -98 209.5t-271 83.5q-89 0 -157.5 -22t-106 -57t-56 -73t-18.5 -76q0 -65 33 -112t88.5 -75t128 -49t152.5 -38.5t159.5 -38.5t152 -55t128 -80.5t88.5 -123t33 -175.5q0 -136 -75.5 -230.5t-203 -139 t-295.5 -44.5q-172 0 -310 61q-137 62 -218 182q-76 113 -76 262v18z" />
<glyph unicode="T" horiz-adv-x="1300" d="M61 1321v174h1178v-174h-491v-1321h-195v1321h-492z" />
<glyph unicode="U" horiz-adv-x="1454" d="M164 451v1044h194v-1044q0 -82 30 -146.5t82 -103t117.5 -58.5t139.5 -20t139.5 20t117.5 58.5t82 103t30 146.5v1044h194v-1044q0 -107 -30.5 -192.5t-82.5 -140.5t-125.5 -91.5t-153.5 -52t-171 -15.5t-171 15.5t-153.5 52t-125.5 91.5t-82.5 140.5t-30.5 192.5z" />
<glyph unicode="V" horiz-adv-x="1372" d="M31 1495h205l450 -1316l451 1316h204l-532 -1495h-61h-123h-62z" />
<glyph unicode="W" horiz-adv-x="1925" d="M31 1495h215l278 -1196l336 1196h41h123h41l336 -1196l278 1196h215l-378 -1495h-31h-154h-20l-348 1271l-349 -1271h-20h-154h-30z" />
<glyph unicode="X" horiz-adv-x="1341" d="M31 0l527 770l-497 725h226l384 -561l384 561h225l-497 -725l528 -770h-226l-414 605l-415 -605h-225z" />
<glyph unicode="Y" horiz-adv-x="1402" d="M31 1495h235l435 -717l436 717h235l-573 -911v-584h-195v584z" />
<glyph unicode="Z" horiz-adv-x="1259" d="M61 0v164l871 1167h-840v164h1075v-164l-870 -1167h901v-164h-1137z" />
<glyph unicode="[" horiz-adv-x="569" d="M131 -434v1927h381v-147h-211v-1633h211v-147h-381z" />
<glyph unicode="\" horiz-adv-x="569" d="M-16 1493h112l486 -1534h-113z" />
<glyph unicode="]" horiz-adv-x="567" d="M45 -287h211v1633h-211v147h381v-1927h-381v147z" />
<glyph unicode="^" horiz-adv-x="960" d="M90 674l313 778h13h129h12l313 -778h-141l-249 618l-249 -618h-141z" />
<glyph unicode="_" horiz-adv-x="1138" d="M-45 -258h1229v-102h-1229v102z" />
<glyph unicode="`" horiz-adv-x="512" d="M45 1516h231l197 -304h-123z" />
<glyph unicode="a" horiz-adv-x="1116" d="M61 289q0 95 39 159.5t101.5 94.5t137.5 46t150.5 22t138 14t101.5 30.5t39 63.5v55q0 69 -60.5 123.5t-179.5 54.5q-122 0 -176.5 -49t-62.5 -139h-174q0 72 24.5 132.5t73 108t129.5 74.5t186 27q104 0 186 -26.5t130.5 -71t73 -99t24.5 -114.5v-539q0 -78 28 -116 q18 -24 57 -25q21 0 48 8v-143q-69 -14 -118 -14h-3q-50 0 -85 19.5t-55 48t-31 70.5q-53 -70 -128.5 -111.5t-167.5 -41.5q-96 0 -171.5 18.5t-134 57.5t-89.5 105t-31 157zM236 289q0 -55 22 -92.5t63 -57t88 -27.5t109 -8q101 0 175.5 65t74.5 161v196 q-41 -20 -103 -32.5t-117.5 -16.5t-114 -14.5t-101 -26.5t-69.5 -53.5t-27 -93.5z" />
<glyph unicode="b" horiz-adv-x="1155" d="M133 0v1495h174v-553q116 164 322 164q150 0 256.5 -76.5t157.5 -205t51 -296.5t-51 -296.5t-157.5 -204.5t-256.5 -76q-207 0 -322 163v-114h-174zM307 528q0 -91 16 -165.5t49.5 -133.5t91 -92t134.5 -33q103 0 177 58t109.5 152.5t35.5 213.5t-35.5 213.5 t-109.5 152.5t-177 58q-77 0 -134.5 -33t-91 -92t-49.5 -133.5t-16 -165.5z" />
<glyph unicode="c" horiz-adv-x="1062" d="M61 528q0 126 30 230t88.5 182.5t152.5 122t215 43.5q210 0 319 -105.5t125 -298.5h-174q-33 250 -270 250q-152 0 -231.5 -119t-79.5 -305t79.5 -305t231.5 -119q237 0 270 250h174q-24 -195 -130 -299t-314 -104q-121 0 -214.5 43.5t-152.5 121.5t-89 182t-30 230z" />
<glyph unicode="d" horiz-adv-x="1155" d="M61 528q0 168 51 296.5t157.5 205t256.5 76.5q206 0 322 -164v553h174v-1495h-174v114q-115 -163 -322 -163q-150 0 -256.5 76t-157.5 204.5t-51 296.5zM236 528q0 -184 84 -304t237 -120q77 0 134.5 33t91 92t49.5 133.5t16 165.5t-16 165.5t-49.5 133.5t-91 92 t-134.5 33q-153 0 -237 -120t-84 -304z" />
<glyph unicode="e" d="M61 528q0 126 30 230t88.5 182.5t152.5 122t215 43.5q240 0 362.5 -165.5t122.5 -453.5h-174h-621q9 -170 88 -276.5t222 -106.5q110 0 191.5 63t113.5 167h162q-36 -176 -157.5 -279.5t-309.5 -103.5q-121 0 -214.5 43.5t-152.5 121.5t-89 182t-30 230zM242 631h606 q-23 151 -99 236t-202 85q-130 0 -207 -87.5t-98 -233.5z" />
<glyph unicode="f" horiz-adv-x="573" d="M41 932v133h143v174q0 150 78 217q55 48 165 48q48 0 105 -9v-143q-21 2 -39 2q-66 0 -97 -20q-38 -26 -38 -95v-174h174v-133h-174v-932h-174v932h-143z" />
<glyph unicode="g" horiz-adv-x="1124" d="M61 528q0 126 28 230t83 182.5t143 122t201 43.5q198 0 311 -156v125h174v-948q0 -127 -26.5 -230t-81 -182t-145 -122.5t-211.5 -43.5q-198 0 -303.5 84t-120.5 242h174q31 -172 250 -172q91 0 156.5 54.5t98 144t35.5 204.5q-112 -155 -311 -155q-113 0 -201 43.5 t-143 121.5t-83 182t-28 230zM236 528q0 -186 79.5 -305t231.5 -119q77 0 133 32.5t87.5 92.5t45.5 133.5t14 165.5t-14 165.5t-45.5 133.5t-87.5 92.5t-133 32.5q-152 0 -231.5 -119t-79.5 -305z" />
<glyph unicode="h" horiz-adv-x="1105" d="M131 0v1495h174v-532q118 143 311 143q181 0 273 -99t92 -274v-733h-174v733q0 102 -55.5 160.5t-165.5 58.5q-152 0 -216.5 -83t-64.5 -238v-631h-174z" />
<glyph unicode="i" horiz-adv-x="440" d="M113 1409q0 44 32 75.5t76 31.5t75.5 -31.5t31.5 -75.5t-31.5 -76.5t-75.5 -32.5t-76 32.5t-32 76.5zM133 0v1075h174v-1075h-174z" />
<glyph unicode="j" horiz-adv-x="440" d="M-41 -297q21 -2 39 -2q66 0 96 21q39 25 39 94v1259h174v-1259q0 -150 -79 -218q-54 -47 -164 -47q-48 0 -105 9v143zM113 1368q0 44 32 75.5t76 31.5t75.5 -31.5t31.5 -75.5t-31.5 -76t-75.5 -32t-76 32t-32 76z" />
<glyph unicode="k" horiz-adv-x="1044" d="M133 0v1495h174v-862l451 442h215l-373 -365l424 -710h-205l-348 583l-164 -161v-422h-174z" />
<glyph unicode="l" horiz-adv-x="440" d="M133 0v1495h174v-1495h-174z" />
<glyph unicode="m" horiz-adv-x="1679" d="M133 0v1075h174v-104q112 135 291 135q231 0 302 -179q53 84 135.5 131.5t187.5 47.5q333 0 333 -373v-733h-174v733q0 219 -190 219q-138 0 -199 -83.5t-61 -237.5v-631h-174v733q0 219 -191 219q-138 0 -199 -83.5t-61 -237.5v-631h-174z" />
<glyph unicode="n" horiz-adv-x="1105" d="M133 0v1075h174v-112q118 143 311 143q181 0 273 -99t92 -274v-733h-174v733q0 102 -55.5 160.5t-165.5 58.5q-152 0 -216.5 -83t-64.5 -238v-631h-174z" />
<glyph unicode="o" d="M61 528q0 126 30 230t88.5 182.5t152.5 122t215 43.5q160 0 271 -76.5t162.5 -204.5t51.5 -297q0 -126 -30 -230t-88.5 -182t-152 -121.5t-214.5 -43.5t-214.5 43.5t-152.5 121.5t-89 182t-30 230zM236 528q0 -186 79.5 -305t231.5 -119t231.5 119t79.5 305t-79.5 305 t-231.5 119t-231.5 -119t-79.5 -305z" />
<glyph unicode="p" horiz-adv-x="1155" d="M133 -449v1506h174v-115q116 164 322 164q150 0 256.5 -76.5t157.5 -205t51 -296.5t-51 -296.5t-157.5 -204.5t-256.5 -76q-207 0 -322 163v-563h-174zM307 528q0 -91 16 -165.5t49.5 -133.5t91 -92t134.5 -33q103 0 177 58t109.5 152.5t35.5 213.5t-35.5 213.5 t-109.5 152.5t-177 58q-77 0 -134.5 -33t-91 -92t-49.5 -133.5t-16 -165.5z" />
<glyph unicode="q" horiz-adv-x="1155" d="M61 528q0 168 51 296.5t157.5 205t256.5 76.5q206 0 322 -164v115h174v-1506h-174v563q-115 -163 -322 -163q-150 0 -256.5 76t-157.5 204.5t-51 296.5zM236 528q0 -184 84 -304t237 -120q77 0 134.5 33t91 92t49.5 133.5t16 165.5t-16 165.5t-49.5 133.5t-91 92 t-134.5 33q-153 0 -237 -120t-84 -304z" />
<glyph unicode="r" horiz-adv-x="690" d="M133 0v1075h174v-115q54 68 124.5 107t146.5 39q38 0 71 -5v-163q-33 14 -82 14q-126 0 -193 -86.5t-67 -234.5v-631h-174z" />
<glyph unicode="s" horiz-adv-x="1013" d="M72 311h174q8 -85 80.5 -136.5t191.5 -51.5q110 0 180 37t70 121q0 61 -36.5 100.5t-95 59t-129.5 34.5t-142 35.5t-129.5 53t-95 96t-36.5 155.5q0 53 23.5 103t69.5 93t126.5 69t184.5 26q105 0 183 -27t123.5 -75t67 -108t21.5 -132h-174q-8 94 -54.5 141t-166.5 47 q-117 0 -173 -42t-56 -95q0 -44 28.5 -75.5t75 -49t106 -35.5t122 -32.5t122 -42t106 -62.5t75 -96t28.5 -141q0 -157 -114.5 -234.5t-309.5 -77.5q-203 0 -324.5 98.5t-121.5 243.5z" />
<glyph unicode="t" horiz-adv-x="573" d="M41 932v133h143v297h174v-297h174v-133h-174v-676q0 -68 38 -94q30 -20 97 -21q18 0 39 2v-143q-57 -9 -105 -9q-111 -1 -165 47q-78 68 -78 218v676h-143z" />
<glyph unicode="u" horiz-adv-x="1105" d="M123 342v733h174v-733q0 -102 55.5 -160.5t165.5 -58.5q152 0 216.5 83t64.5 238v631h174v-1075h-174v112q-118 -143 -312 -143q-181 0 -272.5 99t-91.5 274z" />
<glyph unicode="v" horiz-adv-x="983" d="M20 1075h195l277 -854l276 854h195l-379 -1075h-21h-143h-21z" />
<glyph unicode="w" horiz-adv-x="1474" d="M20 1075h195l206 -801l214 801h51h102h52l213 -801l207 801h194l-307 -1075h-21h-143h-20l-226 876l-225 -876h-20h-144h-20z" />
<glyph unicode="x" horiz-adv-x="972" d="M20 0l369 553l-348 522h195l250 -376l251 376h195l-348 -522l368 -553h-194l-272 407l-271 -407h-195z" />
<glyph unicode="y" horiz-adv-x="1054" d="M61 1075h195l268 -827l285 827h184l-440 -1259q-13 -38 -24.5 -65.5t-27 -57.5t-32.5 -50t-39 -39t-49 -29.5t-61 -17.5q-29 -6 -64 -6h-10q-42 1 -92 9v174q21 -2 41 -2q70 0 113 23q56 29 81 102l50 146z" />
<glyph unicode="z" horiz-adv-x="993" d="M61 0v154l635 768h-604v153h809v-153l-635 -768h666v-154h-871z" />
<glyph unicode="{" horiz-adv-x="681" d="M88 459v141q90 18 125 79t35 204v342q0 127 58 197q59 71 165 71h94v-133h-30q-76 0 -103 -29q-26 -27 -26 -108v-371q0 -142 -37 -213q-37 -72 -131 -109q168 -78 168 -323v-371q0 -81 26 -108q27 -29 103 -29h30v-133h-94q-107 0 -165 70t-58 198v342q0 141 -35 203 t-125 80z" />
<glyph unicode="|" horiz-adv-x="512" d="M195 -434v1927h122v-1927h-122z" />
<glyph unicode="}" horiz-adv-x="681" d="M117 -301h33q76 0 103 29q28 30 28 108v371q0 245 168 321q-168 78 -168 324v371q0 78 -28 108q-27 29 -103 29h-33v133h96q106 0 166 -71q59 -69 59 -197v-342q0 -142 34 -203q35 -62 122 -80v-141q-87 -18 -122 -80q-34 -61 -34 -203v-342q0 -129 -59 -198 q-60 -70 -166 -70h-96v133z" />
<glyph unicode="~" horiz-adv-x="1024" d="M68 600q8 144 64 220q57 77 157 77q55 0 110 -33l240 -141q58 -35 102 -35q62 0 83 38q22 39 22 116h108q0 -293 -215 -293q-80 0 -166 53l-200 129q-47 29 -88 29q-97 0 -109 -160h-108z" />
<glyph unicode="&#xa1;" horiz-adv-x="681" d="M199 971q0 55 38.5 94t94.5 39t94.5 -39t38.5 -94t-38.5 -94t-94.5 -39t-94.5 39t-38.5 94zM244 244l41 430h94l41 -430v-666h-176v666z" />
<glyph unicode="&#xa2;" horiz-adv-x="1138" d="M102 528q0 163 48 287.5t151 203t252 86.5v181h86v-182q362 -26 393 -402h-174q-29 222 -219 247v-841q190 25 219 246h174q-23 -183 -116.5 -285.5t-276.5 -115.5v-199h-86v198q-149 8 -252 86t-151 203t-48 287zM276 528q0 -113 29 -203t93 -149.5t155 -69.5v845 q-91 -10 -155 -70t-93 -150t-29 -203z" />
<glyph unicode="&#xa3;" horiz-adv-x="1361" d="M53 657v113h175q-8 12 -29 42.5t-29.5 44t-24 40.5t-22 45.5t-12 44.5t-5.5 51q0 57 13.5 115.5t49 121t88.5 110.5t140.5 79t196.5 31q233 0 351 -130t110 -349h-185q0 66 -11.5 117t-41 97.5t-88.5 71.5t-145 25q-71 0 -125 -19.5t-83 -47.5t-47 -66.5t-23 -70 t-5 -64.5q0 -37 6.5 -69t22 -63.5t27 -51.5t35.5 -54.5t34 -50.5h324v-113h-270q22 -68 22 -141q0 -51 -18.5 -101t-58 -102.5t-74.5 -91t-95 -97.5q145 81 242 81q74 0 182 -32t154 -32q45 0 88.5 15t64.5 30l21 15l92 -133q-5 -5 -14.5 -12.5t-38.5 -27.5t-59 -35 t-72.5 -27.5t-81.5 -12.5q-72 0 -226.5 47t-216.5 47q-58 0 -114 -20t-83 -40l-26 -20l-96 139q124 106 190 202t66 167q0 95 -37 182h-238z" />
<glyph unicode="&#xa4;" horiz-adv-x="1138" d="M137 1020l115 108l112 -111q91 52 197 52q116 0 213 -62l115 113l108 -114l-111 -112q58 -89 58 -198q0 -110 -59 -199l106 -108l-114 -108l-106 105q-95 -60 -210 -60q-103 0 -190 50l-105 -104l-108 115l94 94q-72 99 -72 219q0 116 66 209zM344 696q0 -88 65 -150.5 t154 -62.5q87 0 152 62.5t65 148.5q0 90 -64 153.5t-155 63.5q-89 0 -153 -63.5t-64 -151.5z" />
<glyph unicode="&#xa5;" horiz-adv-x="1138" d="M27 1454h174l373 -673l374 673h174l-411 -729h303v-104h-342v-158h342v-105h-342v-358h-195v358h-344v105h344v158h-344v104h305z" />
<glyph unicode="&#xa6;" horiz-adv-x="532" d="M205 387h123v-821h-123v821zM205 672v821h123v-821h-123z" />
<glyph unicode="&#xa7;" horiz-adv-x="1138" d="M82 637q0 98 64.5 178t163.5 124l-7 7q-90 90 -90 209q0 144 112.5 241t266.5 97q159 0 258.5 -101t99.5 -262v-57h-172v53q0 95 -53.5 152t-144.5 57q-77 0 -130 -49t-53 -125q0 -24 7 -45t14.5 -33.5t27.5 -29.5t30 -24t38 -25l299 -193q59 -37 93.5 -64.5t67.5 -68 t47.5 -91.5t14.5 -118q0 -132 -65.5 -210.5t-171.5 -109.5q26 -24 32 -30q91 -91 91 -209q0 -86 -35 -155.5t-93 -113t-129.5 -67t-148.5 -23.5q-159 0 -258.5 101t-99.5 262v57h172v-53q0 -95 53.5 -152t144.5 -57q86 0 147.5 48t61.5 147q0 97 -116 178l-306 213 q-3 2 -10 7q-43 30 -65 46.5t-57.5 50.5t-53.5 64.5t-32.5 76t-14.5 97.5zM252 659q0 -59 35 -104.5t116 -103.5l312 -226q13 -12 32 -29q56 49 91.5 109t35.5 121q0 128 -149 229l-354 241q-52 -52 -85.5 -115t-33.5 -122z" />
<glyph unicode="&#xa8;" horiz-adv-x="702" d="M25 1364q0 56 38.5 94.5t94.5 38.5t94.5 -38.5t38.5 -94.5t-38.5 -94.5t-94.5 -38.5t-94.5 38.5t-38.5 94.5zM412 1364q0 56 39 94.5t94 38.5t94 -38.5t39 -94.5t-39 -94.5t-94 -38.5t-94 38.5t-39 94.5z" />
<glyph unicode="&#xa9;" horiz-adv-x="1638" d="M80 717q0 305 219 519q218 214 532 214q297 0 512 -218q216 -219 216 -521q0 -305 -218 -523q-217 -217 -522 -217q-307 0 -523 218q-216 217 -216 528zM203 717q0 -242 185 -433q186 -192 431 -192q253 0 435 186q182 187 182 433q0 247 -182 437q-182 189 -425 189 t-435 -189q-191 -188 -191 -431zM420 718q0 223 110 347.5t306 124.5q140 0 238 -77t126 -216h-116q-62 194 -248 194q-149 0 -227.5 -98.5t-78.5 -274.5q0 -170 86 -268.5t226 -98.5q105 0 169.5 66t77.5 189h109q-9 -171 -101.5 -265.5t-247.5 -94.5q-198 0 -313.5 125 t-115.5 347z" />
<glyph unicode="&#xaa;" horiz-adv-x="757" d="M70 1023q0 67 32.5 109.5t80.5 57.5t105 24t105 11.5t80.5 17t32.5 43.5v33q0 42 -37.5 75.5t-110.5 33.5q-138 0 -148 -115h-107q0 92 64 150.5t191 58.5q126 0 191 -55.5t65 -134.5v-329q0 -48 17.5 -71t64.5 -10v-87q-151 -34 -180 76q-73 -94 -183 -94 q-263 0 -263 206zM88 621v104h567v-104h-567zM177 1023q0 -33 13.5 -56t39 -34.5t55 -16.5t67.5 -5q62 0 108 39t46 98v120q-35 -17 -98.5 -25.5t-110.5 -13t-83.5 -30.5t-36.5 -76z" />
<glyph unicode="&#xab;" horiz-adv-x="1024" d="M145 467v10v160v10l312 250v-170l-212 -170l212 -170v-170zM565 467v10v160v10l312 250v-170l-212 -170l212 -170v-170z" />
<glyph unicode="&#xac;" horiz-adv-x="1196" d="M82 625v143h889h143v-143v-449h-143v449h-889z" />
<glyph unicode="&#xad;" horiz-adv-x="681" d="M92 492v143h492v-143h-492z" />
<glyph unicode="&#xae;" horiz-adv-x="1638" d="M80 717q0 305 219 519q218 214 532 214q297 0 512 -218q216 -219 216 -521q0 -305 -218 -523q-217 -217 -522 -217q-307 0 -523 218q-216 217 -216 528zM203 717q0 -242 185 -433q186 -192 431 -192q253 0 435 186q182 187 182 433q0 247 -182 437q-182 189 -425 189 t-435 -189q-191 -188 -191 -431zM543 320v798h103h227q126 0 198.5 -57.5t72.5 -169.5q0 -146 -137 -193q45 -21 68.5 -59t29 -81.5t8.5 -87t17.5 -85t45.5 -65.5h-108q-32 18 -45 59.5t-16.5 86.5t-14 88t-50 71t-112.5 28h-184v-333h-103zM646 746h194q201 0 201 139 q0 68 -45 104t-123 36h-227v-279z" />
<glyph unicode="&#xaf;" horiz-adv-x="681" d="M57 1292v144h561v-144h-561z" />
<glyph unicode="&#xb0;" horiz-adv-x="1241" d="M309 1096q0 127 92 218t220 91q126 0 217.5 -91.5t91.5 -217.5q0 -130 -92 -221t-222 -91q-124 0 -215.5 93t-91.5 219zM426 1096q0 -78 56 -136.5t134 -58.5q81 0 139 57t58 138q0 80 -56.5 136t-135.5 56q-78 0 -136.5 -57t-58.5 -135z" />
<glyph unicode="&#xb1;" horiz-adv-x="1196" d="M102 -23v144h992v-144h-992zM102 709v143h424v424h144v-424h424v-143h-424v-424h-144v424h-424z" />
<glyph unicode="&#xb2;" horiz-adv-x="739" d="M49 790v80l306 290q10 9 34 32t31.5 30t26.5 26t25.5 26.5t20 23t18 24.5t12.5 23t10.5 25.5t5 25.5t2.5 28q-5 67 -50.5 105t-130.5 38q-82 0 -137.5 -56.5t-55.5 -154.5h-111q0 138 87.5 227.5t229.5 89.5q69 0 125 -23.5t90.5 -61.5t52.5 -81.5t18 -87.5 q0 -45 -14 -85.5t-47 -82t-57.5 -66.5t-74.5 -72q-3 -3 -5 -4.5t-5 -4.5l-5 -5l-220 -204h428v-105h-479h-131z" />
<glyph unicode="&#xb3;" horiz-adv-x="704" d="M33 1057h120q0 -74 53 -129.5t127 -55.5q97 0 152 45t55 116q0 155 -247 155h-27v25v81q44 0 84 8t74.5 24.5t55 46.5t20.5 70q0 62 -43.5 96.5t-110.5 34.5q-64 0 -115.5 -47.5t-51.5 -126.5h-120q0 126 80 202.5t207 76.5q124 0 198.5 -60t74.5 -170q0 -147 -136 -202 q183 -53 183 -226q0 -113 -91 -181t-242 -68q-135 0 -217.5 79t-82.5 206z" />
<glyph unicode="&#xb4;" horiz-adv-x="681" d="M188 1212l197 304h231l-305 -304h-123z" />
<glyph unicode="&#xb5;" horiz-adv-x="1138" d="M133 342v733h174v-733q0 -102 55.5 -160.5t165.5 -58.5q152 0 216.5 83t64.5 238v310v319h176v-319h-2v-518q0 -79 28.5 -117t104.5 -17v-143q-79 -15 -132.5 -13t-88.5 28t-53 61t-26 86q-121 -152 -318 -152q-110 0 -191 39v-463h-174v797z" />
<glyph unicode="&#xb6;" horiz-adv-x="1099" d="M98 1001q0 208 133 350t326 142h512v-131h-117v-1724h-131v1724h-168v-1724h-131v892q-198 10 -311 145q-113 134 -113 326z" />
<glyph unicode="&#xb7;" horiz-adv-x="512" d="M152 575q0 56 39 95t94 39t94 -39t39 -95q0 -55 -39 -94t-94 -39t-94 39t-39 94z" />
<glyph unicode="&#xb8;" horiz-adv-x="681" d="M80 -369l43 82q14 -6 52 -24q45 -21 51 -24q17 -7 44 -13t54 -6q48 0 78 26q32 27 32 66q0 76 -94 76q-30 0 -64 -17l-24 15l86 188h78l-47 -115q24 4 57 4q79 0 120 -35q42 -36 42 -102q0 -88 -68 -139q-67 -51 -184 -51q-97 0 -256 69z" />
<glyph unicode="&#xb9;" horiz-adv-x="716" d="M160 1405v92q121 9 178.5 48.5t78.5 123.5h77v-872h-116v653q-75 -45 -218 -45z" />
<glyph unicode="&#xba;" horiz-adv-x="747" d="M82 1164q0 349 290 349t290 -354q0 -73 -15 -132.5t-47 -108.5t-90 -76t-138 -27q-81 0 -139 27.5t-90 77t-46.5 109.5t-14.5 135zM82 1166q0 317 290 317t290 -322q0 -140 -68 -225.5t-222 -85.5q-81 0 -139 24.5t-90 70t-46.5 99.5t-14.5 122zM104 621v104h539v-104 h-539zM194 1163q0 -278 175 -278q45 0 78.5 16t52.5 41t30.5 63.5t15 75.5t3.5 85q0 273 -177 273q-178 0 -178 -276zM194 1165q0 -252 175 -252q45 0 78.5 14.5t52.5 37.5t30.5 57.5t15 68.5t3.5 77q0 247 -177 247q-178 0 -178 -250z" />
<glyph unicode="&#xbb;" horiz-adv-x="1024" d="M147 217v170l212 170l-212 170v170l312 -250v-10v-160v-10zM567 217v170l212 170l-212 170v170l312 -250v-10v-160v-10z" />
<glyph unicode="&#xbc;" horiz-adv-x="1779" d="M117 1227v93q121 9 178 48.5t78 124.5h76v-879h-116v658q-73 -45 -216 -45zM393 -41l927 1497h124l-926 -1497h-125zM1087 210v17v81v18l428 551h93v-130v-439h133v-98h-133v-210h-124v210h-397zM1196 308h288v372z" />
<glyph unicode="&#xbd;" horiz-adv-x="1779" d="M117 1227v93q121 9 178 48.5t78 124.5h76v-879h-116v658q-73 -45 -216 -45zM342 -41l926 1497h125l-927 -1497h-124zM1110 0v80l306 285q11 10 37 34.5t35 33t28.5 28t26.5 28t20 25t17.5 27t11 25.5t8.5 29t2 30q-5 66 -50.5 103.5t-130.5 37.5q-82 0 -137.5 -55.5 t-55.5 -152.5h-111q0 136 87.5 224t229.5 88q69 0 125 -23t90.5 -60t52.5 -80.5t18 -86.5q0 -45 -16 -86.5t-44.5 -78t-61 -69t-72.5 -69.5q-3 -2 -5 -3.5t-4.5 -4l-4.5 -4.5l-220 -201h428v-104h-479h-131z" />
<glyph unicode="&#xbe;" horiz-adv-x="1800" d="M57 885h119q0 -75 52.5 -131t124.5 -56q95 0 150 45.5t55 117.5q0 156 -244 156h-27v25v82q60 0 110 13.5t86 49t36 87.5q0 62 -43.5 96.5t-109.5 34.5q-63 0 -113.5 -48t-50.5 -127h-118q0 127 78.5 204t203.5 77q122 0 196 -60t74 -171q0 -149 -134 -204 q180 -52 180 -228q0 -113 -90 -181.5t-239 -68.5q-134 0 -215 79.5t-81 207.5zM393 -41l927 1497h124l-926 -1497h-125zM1061 210v17v81v18l427 551h93v-130v-439h133v-98h-133v-210h-124v210h-396zM1170 308h287v372z" />
<glyph unicode="&#xbf;" horiz-adv-x="1138" d="M195 -23q0 77 21 138t54 99.5t73.5 70.5t81 60.5t73.5 59t54 75.5t21 102h2v82h173v-82q0 -82 -20.5 -146t-53 -103.5t-71.5 -71.5t-78.5 -59.5t-72 -57t-53 -74.5t-20.5 -103q0 -40 5 -71t21 -63.5t43.5 -53t74.5 -34t112 -13.5q276 0 276 317h174q0 -69 -9.5 -131 t-39.5 -130.5t-77.5 -117t-131 -80.5t-192.5 -32q-99 0 -176 24t-126 63.5t-80.5 95t-44.5 113.5t-13 123zM512 971q0 55 39 94t94 39t94 -39t39 -94t-39 -94t-94 -39t-94 39t-39 94z" />
<glyph unicode="&#xc0;" horiz-adv-x="1372" d="M31 0l532 1495h62h123h61l532 -1495h-204l-155 451h-592l-154 -451h-205zM393 1843h252l217 -258h-133zM442 604h488l-244 712z" />
<glyph unicode="&#xc1;" horiz-adv-x="1372" d="M31 0l532 1495h62h123h61l532 -1495h-204l-155 451h-592l-154 -451h-205zM442 604h488l-244 712zM551 1587l217 256h252l-336 -256h-133z" />
<glyph unicode="&#xc2;" horiz-adv-x="1372" d="M31 0l532 1495h62h123h61l532 -1495h-204l-155 451h-592l-154 -451h-205zM389 1587l197 256h194l197 -256h-129l-166 125l-162 -125h-131zM442 604h488l-244 712z" />
<glyph unicode="&#xc3;" horiz-adv-x="1372" d="M31 0l532 1495h62h123h61l532 -1495h-204l-155 451h-592l-154 -451h-205zM369 1606q17 101 62 155q47 56 114 56q50 0 141 -38t131 -38q52 0 76 76h119q-30 -213 -183 -213q-44 0 -143 38q-102 39 -131 39q-47 0 -68 -75h-118zM442 604h488l-244 712z" />
<glyph unicode="&#xc4;" horiz-adv-x="1372" d="M31 2l532 1495h62h123h61l532 -1495h-204l-155 451h-592l-154 -451h-205zM381 1702q0 56 38.5 94.5t94.5 38.5t94.5 -38.5t38.5 -94.5t-38.5 -94.5t-94.5 -38.5t-94.5 38.5t-38.5 94.5zM442 606h488l-244 712zM768 1702q0 56 39 94.5t94 38.5t94 -38.5t39 -94.5 t-39 -94.5t-94 -38.5t-94 38.5t-39 94.5z" />
<glyph unicode="&#xc5;" horiz-adv-x="1372" d="M31 0l532 1495h62h123h61l532 -1495h-204l-155 451h-592l-154 -451h-205zM442 604h488l-244 712zM469 1763q0 86 65 151q64 64 152 64q91 0 154 -63t63 -154q0 -87 -64 -150q-65 -63 -153 -63q-86 0 -152 64q-65 63 -65 151zM596 1763q0 -36 27 -63t63 -27q37 0 64 27 q26 26 26 61q0 40 -25 65t-65 25q-37 0 -63 -26q-27 -27 -27 -62z" />
<glyph unicode="&#xc6;" horiz-adv-x="2015" d="M31 0l612 1493h1274v-168h-760v-477h721v-168h-721v-512h797v-168h-987v438h-551l-174 -438h-211zM479 606h488v719h-205z" />
<glyph unicode="&#xc7;" horiz-adv-x="1452" d="M82 729q0 108 17 203q18 103 67 209q49 107 122 189t196 134q128 54 280 54q486 0 575 -488h-194q-33 159 -127 239q-95 81 -275 81q-219 0 -345 -166t-126 -453q0 -279 131 -446q130 -166 355 -166q183 0 281 102q97 102 135 324h196q-67 -592 -610 -592l-27 -68 q24 4 58 4q78 0 119 -35q42 -36 42 -102q0 -88 -67 -139q-68 -51 -185 -51q-98 0 -256 69l43 82q18 -7 47 -21l19 -9.5t18.5 -9t12.5 -5.5q17 -7 47 -15q27 -7 57 -7q49 0 79 26q32 27 32 66q0 76 -94 76q-30 0 -64 -17l-23 15l64 141q-112 16 -176 38q-60 21 -129 68 q-138 99 -217 277q-78 176 -78 393z" />
<glyph unicode="&#xc8;" horiz-adv-x="1320" d="M184 0v1495h195h881v-174h-881v-461h819v-174h-819v-512h881v-174h-881h-195zM414 1843h252l217 -258h-133z" />
<glyph unicode="&#xc9;" horiz-adv-x="1320" d="M184 0v1495h195h881v-174h-881v-461h819v-174h-819v-512h881v-174h-881h-195zM489 1587l218 256h251l-335 -256h-134z" />
<glyph unicode="&#xca;" horiz-adv-x="1320" d="M184 0v1495h195h881v-174h-881v-461h819v-174h-819v-512h881v-174h-881h-195zM389 1587l197 256h194l197 -256h-129l-166 125l-162 -125h-131z" />
<glyph unicode="&#xcb;" horiz-adv-x="1320" d="M184 0v1495h195h881v-174h-881v-461h819v-174h-819v-512h881v-174h-881h-195zM373 1708q0 56 38.5 94.5t94.5 38.5t94.5 -38.5t38.5 -94.5t-38.5 -94.5t-94.5 -38.5t-94.5 38.5t-38.5 94.5zM760 1708q0 56 39 94.5t94 38.5t94 -38.5t39 -94.5t-39 -94.5t-94 -38.5 t-94 38.5t-39 94.5z" />
<glyph unicode="&#xcc;" horiz-adv-x="569" d="M0 1843h252l217 -258h-133zM184 0v1495h195v-1495h-195z" />
<glyph unicode="&#xcd;" horiz-adv-x="569" d="M100 1587l217 256h252l-336 -256h-133zM184 0v1495h195v-1495h-195z" />
<glyph unicode="&#xce;" horiz-adv-x="614" d="M20 1587l197 256h195l196 -256h-129l-166 125l-161 -125h-132zM195 0v1495h194v-1495h-194z" />
<glyph unicode="&#xcf;" horiz-adv-x="614" d="M-10 1704q0 56 39 94.5t94 38.5t94 -38.5t39 -94.5t-39 -94.5t-94 -38.5t-94 38.5t-39 94.5zM184 0v1495h195v-1495h-195zM377 1704q0 56 38.5 94.5t94.5 38.5t94.5 -38.5t38.5 -94.5t-38.5 -94.5t-94.5 -38.5t-94.5 38.5t-38.5 94.5z" />
<glyph unicode="&#xd0;" horiz-adv-x="1447" d="M41 694v137h141v662h578q281 0 444 -199q162 -198 162 -546t-162 -548t-444 -200h-578v694h-141zM373 168h354q220 0 334 147q115 148 115 433q0 283 -115 431q-113 146 -334 146h-354v-494h350v-137h-350v-526z" />
<glyph unicode="&#xd1;" horiz-adv-x="1495" d="M184 0v1495h31h164h31l727 -1220v1220h194v-1495h-31h-163h-31l-727 1220v-1220h-195zM418 1571q17 101 62 155q47 56 114 56q50 0 141 -38t131 -38q52 0 76 76h119q-30 -213 -182 -213q-42 0 -144 39t-131 39q-46 0 -67 -76h-119z" />
<glyph unicode="&#xd2;" horiz-adv-x="1597" d="M82 737q0 180 56.5 328.5t154 246t228 151t278.5 53.5t278.5 -53.5t228 -151t154 -246t56.5 -328.5t-56.5 -328.5t-154 -246t-227.5 -150.5t-279 -53t-279 53t-227.5 150.5t-154 246t-56.5 328.5zM266 737q0 -140 42 -256.5t114 -194t169 -120.5t208 -43t208 43 t169 120.5t113.5 194t41.5 256.5t-41.5 256.5t-113.5 194.5t-169.5 121t-207.5 43t-207.5 -43t-169.5 -121t-114 -194.5t-42 -256.5zM496 1843h252l217 -258h-134z" />
<glyph unicode="&#xd3;" horiz-adv-x="1597" d="M82 737q0 180 56.5 328.5t154 246t228 151t278.5 53.5t278.5 -53.5t228 -151t154 -246t56.5 -328.5t-56.5 -328.5t-154 -246t-227.5 -150.5t-279 -53t-279 53t-227.5 150.5t-154 246t-56.5 328.5zM266 737q0 -140 42 -256.5t114 -194t169 -120.5t208 -43t208 43 t169 120.5t113.5 194t41.5 256.5t-41.5 256.5t-113.5 194.5t-169.5 121t-207.5 43t-207.5 -43t-169.5 -121t-114 -194.5t-42 -256.5zM653 1587l217 256h252l-336 -256h-133z" />
<glyph unicode="&#xd4;" horiz-adv-x="1597" d="M82 737q0 180 56.5 328.5t154 246t228 151t278.5 53.5t278.5 -53.5t228 -151t154 -246t56.5 -328.5t-56.5 -328.5t-154 -246t-227.5 -150.5t-279 -53t-279 53t-227.5 150.5t-154 246t-56.5 328.5zM266 737q0 -140 42 -256.5t114 -194t169 -120.5t208 -43t208 43 t169 120.5t113.5 194t41.5 256.5t-41.5 256.5t-113.5 194.5t-169.5 121t-207.5 43t-207.5 -43t-169.5 -121t-114 -194.5t-42 -256.5zM512 1587l197 256h194l197 -256h-129l-166 125l-162 -125h-131z" />
<glyph unicode="&#xd5;" horiz-adv-x="1597" d="M82 737q0 180 56.5 328.5t154 246t228 151t278.5 53.5t278.5 -53.5t228 -151t154 -246t56.5 -328.5t-56.5 -328.5t-154 -246t-227.5 -150.5t-279 -53t-279 53t-227.5 150.5t-154 246t-56.5 328.5zM266 737q0 -140 42 -256.5t114 -194t169 -120.5t208 -43t208 43 t169 120.5t113.5 194t41.5 256.5t-41.5 256.5t-113.5 194.5t-169.5 121t-207.5 43t-207.5 -43t-169.5 -121t-114 -194.5t-42 -256.5zM475 1595q17 101 63 156t113 55q51 0 142 -38q89 -37 131 -37q51 0 75 75h119q-30 -213 -182 -213q-41 0 -143 39t-131 39q-47 0 -68 -76 h-119z" />
<glyph unicode="&#xd6;" horiz-adv-x="1597" d="M82 737q0 180 56.5 328.5t154 246t228 151t278.5 53.5t278.5 -53.5t228 -151t154 -246t56.5 -328.5t-56.5 -328.5t-154 -246t-227.5 -150.5t-279 -53t-279 53t-227.5 150.5t-154 246t-56.5 328.5zM266 737q0 -140 42 -256.5t114 -194t169 -120.5t208 -43t208 43 t169 120.5t113.5 194t41.5 256.5t-41.5 256.5t-113.5 194.5t-169.5 121t-207.5 43t-207.5 -43t-169.5 -121t-114 -194.5t-42 -256.5zM487 1708q0 55 39 94t95 39q55 0 94 -38.5t39 -94.5t-39 -94.5t-94 -38.5q-56 0 -95 39t-39 94zM874 1708q0 55 39 94t95 39t94.5 -38.5 t38.5 -94.5t-38.5 -94.5t-94.5 -38.5t-95 39t-39 94z" />
<glyph unicode="&#xd7;" horiz-adv-x="1196" d="M195 172l301 301l-299 299l100 100l299 -297l301 299l100 -102l-299 -299l301 -301l-102 -102l-301 301l-299 -299z" />
<glyph unicode="&#xd8;" horiz-adv-x="1615" d="M72 39l1380 1507l82 -73l-1382 -1508zM82 737q0 180 56.5 328.5t154 246t228 151t278.5 53.5t278.5 -53.5t228 -151t154 -246t56.5 -328.5t-56.5 -328.5t-154 -246t-227.5 -150.5t-279 -53t-279 53t-227.5 150.5t-154 246t-56.5 328.5zM266 737q0 -140 42 -256.5 t114 -194t169 -120.5t208 -43t208 43t169 120.5t113.5 194t41.5 256.5t-41.5 256.5t-113.5 194.5t-169.5 121t-207.5 43t-207.5 -43t-169.5 -121t-114 -194.5t-42 -256.5z" />
<glyph unicode="&#xd9;" horiz-adv-x="1454" d="M164 451v1044h194v-1044q0 -82 30 -146.5t82 -103t117.5 -58.5t139.5 -20t139.5 20t117.5 58.5t82 103t30 146.5v1044h194v-1044q0 -107 -30.5 -192.5t-82.5 -140.5t-125.5 -91.5t-153.5 -52t-171 -15.5t-171 15.5t-153.5 52t-125.5 91.5t-82.5 140.5t-30.5 192.5z M455 1843h252l217 -258h-133z" />
<glyph unicode="&#xda;" horiz-adv-x="1454" d="M164 451v1044h194v-1044q0 -82 30 -146.5t82 -103t117.5 -58.5t139.5 -20t139.5 20t117.5 58.5t82 103t30 146.5v1044h194v-1044q0 -107 -30.5 -192.5t-82.5 -140.5t-125.5 -91.5t-153.5 -52t-171 -15.5t-171 15.5t-153.5 52t-125.5 91.5t-82.5 140.5t-30.5 192.5z M571 1587l217 256h252l-335 -256h-134z" />
<glyph unicode="&#xdb;" horiz-adv-x="1454" d="M164 451v1044h194v-1044q0 -82 30 -146.5t82 -103t117.5 -58.5t139.5 -20t139.5 20t117.5 58.5t82 103t30 146.5v1044h194v-1044q0 -107 -30.5 -192.5t-82.5 -140.5t-125.5 -91.5t-153.5 -52t-171 -15.5t-171 15.5t-153.5 52t-125.5 91.5t-82.5 140.5t-30.5 192.5z M451 1587l196 256h195l196 -256h-129l-166 125l-161 -125h-131z" />
<glyph unicode="&#xdc;" horiz-adv-x="1454" d="M164 451v1044h194v-1044q0 -82 30 -146.5t82 -103t117.5 -58.5t139.5 -20t139.5 20t117.5 58.5t82 103t30 146.5v1044h194v-1044q0 -107 -30.5 -192.5t-82.5 -140.5t-125.5 -91.5t-153.5 -52t-171 -15.5t-171 15.5t-153.5 52t-125.5 91.5t-82.5 140.5t-30.5 192.5z M438 1702q0 56 39 94.5t94 38.5q56 0 95 -39t39 -94t-39 -94t-95 -39q-55 0 -94 38.5t-39 94.5zM825 1702q0 56 38.5 94.5t94.5 38.5t95 -39t39 -94t-39 -94t-95 -39t-94.5 38.5t-38.5 94.5z" />
<glyph unicode="&#xdd;" horiz-adv-x="1402" d="M31 1495h235l435 -717l436 717h235l-573 -911v-584h-195v584zM530 1587l218 256h251l-335 -256h-134z" />
<glyph unicode="&#xde;" horiz-adv-x="1320" d="M164 0v1493h190v-246h426q214 0 336 -115q123 -116 123 -319q0 -186 -117 -306t-299 -120h-469v-387h-190zM354 555h398q131 0 207 70q75 69 75 192q0 124 -75 193t-207 69h-398v-524z" />
<glyph unicode="&#xdf;" horiz-adv-x="1216" d="M164 0v1090q0 179 120 290t332 111q210 0 329 -100q120 -101 120 -269q0 -73 -17 -125q-18 -55 -52 -92q-34 -36 -51 -51q-11 -9 -48 -35q106 -28 172 -133t66 -207q0 -256 -135 -393q-134 -135 -341 -135q-65 0 -149 33v153q62 -22 131 -22q136 0 222 86q85 85 85 237 q0 164 -96 226q-95 61 -285 61v149q318 0 318 232q0 100 -75 165q-74 64 -196 64q-270 0 -270 -291v-1044h-180z" />
<glyph unicode="&#xe0;" horiz-adv-x="1116" d="M61 289q0 95 39 159.5t101.5 94.5t137.5 46t150.5 22t138 14t101.5 30.5t39 63.5v55q0 69 -60.5 123.5t-179.5 54.5q-122 0 -176.5 -49t-62.5 -139h-174q0 72 24.5 132.5t73 108t129.5 74.5t186 27q104 0 186 -26.5t130.5 -71t73 -99t24.5 -114.5v-539q0 -79 28.5 -116.5 t104.5 -16.5v-143q-71 -14 -121 -13.5t-85 19.5t-55 47.5t-31 70.5q-53 -70 -128.5 -111.5t-167.5 -41.5q-96 0 -171.5 18.5t-134 57.5t-89.5 105t-31 157zM236 289q0 -55 22 -92.5t63 -57t88 -27.5t109 -8q101 0 175.5 65t74.5 161v196q-41 -20 -103 -32.5t-117.5 -16.5 t-114 -14.5t-101 -26.5t-69.5 -53.5t-27 -93.5zM264 1516h232l196 -304h-123z" />
<glyph unicode="&#xe1;" horiz-adv-x="1116" d="M61 289q0 95 39 159.5t101.5 94.5t137.5 46t150.5 22t138 14t101.5 30.5t39 63.5v55q0 69 -60.5 123.5t-179.5 54.5q-122 0 -176.5 -49t-62.5 -139h-174q0 72 24.5 132.5t73 108t129.5 74.5t186 27q104 0 186 -26.5t130.5 -71t73 -99t24.5 -114.5v-539q0 -79 28.5 -116.5 t104.5 -16.5v-143q-71 -14 -121 -13.5t-85 19.5t-55 47.5t-31 70.5q-53 -70 -128.5 -111.5t-167.5 -41.5q-96 0 -171.5 18.5t-134 57.5t-89.5 105t-31 157zM236 289q0 -55 22 -92.5t63 -57t88 -27.5t109 -8q101 0 175.5 65t74.5 161v196q-41 -20 -103 -32.5t-117.5 -16.5 t-114 -14.5t-101 -26.5t-69.5 -53.5t-27 -93.5zM377 1212l196 304h232l-305 -304h-123z" />
<glyph unicode="&#xe2;" horiz-adv-x="1116" d="M61 289q0 95 39 159.5t101.5 94.5t137.5 46t150.5 22t138 14t101.5 30.5t39 63.5v55q0 69 -60.5 123.5t-179.5 54.5q-122 0 -176.5 -49t-62.5 -139h-174q0 72 24.5 132.5t73 108t129.5 74.5t186 27q104 0 186 -26.5t130.5 -71t73 -99t24.5 -114.5v-539q0 -79 28.5 -116.5 t104.5 -16.5v-143q-71 -14 -121 -13.5t-85 19.5t-55 47.5t-31 70.5q-53 -70 -128.5 -111.5t-167.5 -41.5q-96 0 -171.5 18.5t-134 57.5t-89.5 105t-31 157zM236 289q0 -55 22 -92.5t63 -57t88 -27.5t109 -8q101 0 175.5 65t74.5 161v196q-41 -20 -103 -32.5t-117.5 -16.5 t-114 -14.5t-101 -26.5t-69.5 -53.5t-27 -93.5zM270 1182l197 307h195l196 -307h-129l-166 196l-162 -196h-131z" />
<glyph unicode="&#xe3;" horiz-adv-x="1116" d="M61 289q0 95 39 159.5t101.5 94.5t137.5 46t150.5 22t138 14t101.5 30.5t39 63.5v55q0 69 -60.5 123.5t-179.5 54.5q-122 0 -176.5 -49t-62.5 -139h-174q0 72 24.5 132.5t73 108t129.5 74.5t186 27q104 0 186 -26.5t130.5 -71t73 -99t24.5 -114.5v-539q0 -79 28.5 -116.5 t104.5 -16.5v-143q-71 -14 -121 -13.5t-85 19.5t-55 47.5t-31 70.5q-53 -70 -128.5 -111.5t-167.5 -41.5q-96 0 -171.5 18.5t-134 57.5t-89.5 105t-31 157zM236 289q0 -55 22 -92.5t63 -57t88 -27.5t109 -8q101 0 175.5 65t74.5 161v196q-41 -20 -103 -32.5t-117.5 -16.5 t-114 -14.5t-101 -26.5t-69.5 -53.5t-27 -93.5zM242 1241q17 102 62 156q46 55 114 55q50 0 141 -38t131 -38q52 0 76 76h119q-30 -213 -183 -213q-41 0 -143 39t-131 39q-47 0 -68 -76h-118z" />
<glyph unicode="&#xe4;" horiz-adv-x="1116" d="M61 289q0 95 39 159.5t101.5 94.5t137.5 46t150.5 22t138 14t101.5 30.5t39 63.5v55q0 69 -60.5 123.5t-179.5 54.5q-122 0 -176.5 -49t-62.5 -139h-174q0 72 24.5 132.5t73 108t129.5 74.5t186 27q104 0 186 -26.5t130.5 -71t73 -99t24.5 -114.5v-539q0 -79 28.5 -116.5 t104.5 -16.5v-143q-71 -14 -121 -13.5t-85 19.5t-55 47.5t-31 70.5q-53 -70 -128.5 -111.5t-167.5 -41.5q-96 0 -171.5 18.5t-134 57.5t-89.5 105t-31 157zM236 289q0 -55 22 -92.5t63 -57t88 -27.5t109 -8q101 0 175.5 65t74.5 161v196q-41 -20 -103 -32.5t-117.5 -16.5 t-114 -14.5t-101 -26.5t-69.5 -53.5t-27 -93.5zM254 1386q0 56 39 95t94 39t94 -39t39 -95t-39 -94.5t-94 -38.5t-94 38.5t-39 94.5zM641 1386q0 56 39 95t94 39t94 -39t39 -95t-38.5 -94.5t-94.5 -38.5t-94.5 38.5t-38.5 94.5z" />
<glyph unicode="&#xe5;" horiz-adv-x="1116" d="M61 289q0 95 39 159.5t101.5 94.5t137.5 46t150.5 22t138 14t101.5 30.5t39 63.5v55q0 69 -60.5 123.5t-179.5 54.5q-122 0 -176.5 -49t-62.5 -139h-174q0 72 24.5 132.5t73 108t129.5 74.5t186 27q104 0 186 -26.5t130.5 -71t73 -99t24.5 -114.5v-539q0 -79 28.5 -116.5 t104.5 -16.5v-143q-71 -14 -121 -13.5t-85 19.5t-55 47.5t-31 70.5q-53 -70 -128.5 -111.5t-167.5 -41.5q-96 0 -171.5 18.5t-134 57.5t-89.5 105t-31 157zM236 289q0 -55 22 -92.5t63 -57t88 -27.5t109 -8q101 0 175.5 65t74.5 161v196q-41 -20 -103 -32.5t-117.5 -16.5 t-114 -14.5t-101 -26.5t-69.5 -53.5t-27 -93.5zM346 1366q0 86 65 151q64 64 152 64q91 0 154 -63t63 -154q0 -88 -64 -151q-63 -62 -153 -62q-87 0 -152 63t-65 152zM473 1366q0 -36 27 -63t63 -27q37 0 64 27q26 26 26 61q0 39 -25 64q-26 26 -65 26q-36 0 -63 -27 t-27 -61z" />
<glyph unicode="&#xe6;" horiz-adv-x="1783" d="M61 270q0 78 27 137q27 58 70 95q44 38 114 61q77 26 145 37q88 15 177 21q104 7 141 34t37 86v45q0 160 -242 160q-228 0 -249 -190h-172q12 348 426 348q262 0 358 -168q56 79 149 123q94 45 205 45q151 0 264 -76q116 -78 168 -207q43 -111 43 -342h-790 q1 -103 33 -183q31 -78 79 -115q49 -37 100 -54q48 -16 103 -16q206 0 283 215h172q-33 -176 -154 -274q-122 -99 -303 -99q-279 0 -393 219q-4 4 -4 6q-115 -120 -218 -172q-104 -53 -224 -53q-155 0 -250 86t-95 231zM240 274q0 -80 55 -126t149 -46q144 0 236 83t92 137 v206q-57 -25 -167 -44q-41 -7 -178 -27q-72 -11 -130 -56q-57 -45 -57 -127zM936 618h602q0 146 -82 237t-213 91q-129 0 -213 -89q-83 -88 -94 -239z" />
<glyph unicode="&#xe7;" horiz-adv-x="1036" d="M61 518q0 268 130 426q131 160 348 160q188 0 298 -100q111 -100 126 -291h-172q-17 114 -82 173q-66 60 -172 60q-140 0 -219 -113q-78 -112 -78 -317q0 -192 79 -299q80 -108 222 -108q218 0 262 260h172q-11 -193 -129 -304q-120 -112 -307 -112l-27 -68q25 4 57 4 q77 0 119 -35q43 -36 43 -102q0 -88 -67 -139q-68 -51 -185 -51q-98 0 -256 67l43 84q12 -5 46 -21q9 -4 25.5 -12.5t23.5 -11.5q18 -8 48 -15q28 -7 58 -7q49 0 79 26q32 27 32 66q0 76 -95 76q-29 0 -63 -17l-25 15l64 145q-110 21 -189 78q-79 56 -118 120 q-41 67 -61 144q-20 80 -25 127q-5 50 -5 92z" />
<glyph unicode="&#xe8;" d="M61 528q0 126 30 230t88.5 182.5t152.5 122t215 43.5q240 0 362.5 -165.5t122.5 -453.5h-174h-621q9 -170 88 -276.5t222 -106.5q110 0 191.5 63t113.5 167h162q-36 -176 -157.5 -279.5t-309.5 -103.5q-121 0 -214.5 43.5t-152.5 121.5t-89 182t-30 230zM242 631h606 q-23 151 -99 236t-202 85q-130 0 -207 -87.5t-98 -233.5zM272 1516h232l196 -304h-122z" />
<glyph unicode="&#xe9;" d="M61 528q0 126 30 230t88.5 182.5t152.5 122t215 43.5q240 0 362.5 -165.5t122.5 -453.5h-174h-621q9 -170 88 -276.5t222 -106.5q110 0 191.5 63t113.5 167h162q-36 -176 -157.5 -279.5t-309.5 -103.5q-121 0 -214.5 43.5t-152.5 121.5t-89 182t-30 230zM242 631h606 q-23 151 -99 236t-202 85q-130 0 -207 -87.5t-98 -233.5zM406 1212l196 304h232l-306 -304h-122z" />
<glyph unicode="&#xea;" d="M61 528q0 126 30 230t88.5 182.5t152.5 122t215 43.5q240 0 362.5 -165.5t122.5 -453.5h-174h-621q9 -170 88 -276.5t222 -106.5q110 0 191.5 63t113.5 167h162q-36 -176 -157.5 -279.5t-309.5 -103.5q-121 0 -214.5 43.5t-152.5 121.5t-89 182t-30 230zM242 631h606 q-23 151 -99 236t-202 85q-130 0 -207 -87.5t-98 -233.5zM272 1182l197 307h195l196 -307h-129l-166 196l-162 -196h-131z" />
<glyph unicode="&#xeb;" d="M61 528q0 126 30 230t88.5 182.5t152.5 122t215 43.5q240 0 362.5 -165.5t122.5 -453.5h-174h-621q9 -170 88 -276.5t222 -106.5q110 0 191.5 63t113.5 167h162q-36 -176 -157.5 -279.5t-309.5 -103.5q-121 0 -214.5 43.5t-152.5 121.5t-89 182t-30 230zM242 631h606 q-23 151 -99 236t-202 85q-130 0 -207 -87.5t-98 -233.5zM244 1386q0 56 39 95t94 39t94 -39t39 -95t-39 -94.5t-94 -38.5t-94 38.5t-39 94.5zM631 1386q0 56 39 95t94 39t94 -39t39 -95t-38.5 -94.5t-94.5 -38.5t-94.5 38.5t-38.5 94.5z" />
<glyph unicode="&#xec;" horiz-adv-x="454" d="M0 1516h231l197 -304h-123zM143 0v1073h170v-1073h-170z" />
<glyph unicode="&#xed;" horiz-adv-x="454" d="M27 1212l196 304h232l-305 -304h-123zM143 0v1073h170v-1073h-170z" />
<glyph unicode="&#xee;" horiz-adv-x="536" d="M-25 1182l197 307h195l196 -307h-129l-166 196l-162 -196h-131zM184 0v1073h170v-1073h-170z" />
<glyph unicode="&#xef;" horiz-adv-x="536" d="M-49 1389q0 55 38.5 94t94.5 39t94.5 -39t38.5 -94q0 -56 -39 -95t-94 -39t-94 39t-39 95zM184 0v1073h170v-1073h-170zM338 1389q0 55 39 94t94 39t94 -39t39 -94q0 -56 -39 -95t-94 -39t-94 39t-39 95z" />
<glyph unicode="&#xf0;" d="M61 528q0 132 30 235q30 105 76 165q46 61 107 101q60 39 119 55q61 16 115 16q50 0 129 -27q-75 78 -201 182l-198 -92l-74 80l174 82q-64 48 -168 107l90 90q73 -32 227 -129l199 92l82 -76l-184 -84q43 -32 104 -83q43 -36 115 -115q75 -83 116 -156q44 -79 78 -196 q35 -120 35 -245q0 -278 -127 -427q-127 -150 -358 -150t-359 150q-127 149 -127 425zM240 528q0 -196 82 -306q82 -111 225 -111q141 0 224 111q83 112 83 300q0 200 -81 312t-226 112q-143 0 -225 -111q-82 -110 -82 -307z" />
<glyph unicode="&#xf1;" horiz-adv-x="1105" d="M133 0v1075h174v-112q118 143 311 143q181 0 273 -99t92 -274v-733h-174v733q0 102 -55.5 160.5t-165.5 58.5q-152 0 -216.5 -83t-64.5 -238v-631h-174zM248 1235q17 102 62 156q46 55 114 55q50 0 141 -38t131 -38q52 0 76 76h119q-30 -213 -182 -213q-42 0 -144 39 t-131 39q-46 0 -67 -76h-119z" />
<glyph unicode="&#xf2;" d="M61 528q0 126 30 230t88.5 182.5t152.5 122t215 43.5q160 0 271 -76.5t162.5 -204.5t51.5 -297q0 -126 -30 -230t-88.5 -182t-152 -121.5t-214.5 -43.5t-214.5 43.5t-152.5 121.5t-89 182t-30 230zM236 528q0 -186 79.5 -305t231.5 -119t231.5 119t79.5 305t-79.5 305 t-231.5 119t-231.5 -119t-79.5 -305zM274 1516h232l196 -304h-122z" />
<glyph unicode="&#xf3;" d="M61 528q0 126 30 230t88.5 182.5t152.5 122t215 43.5q160 0 271 -76.5t162.5 -204.5t51.5 -297q0 -126 -30 -230t-88.5 -182t-152 -121.5t-214.5 -43.5t-214.5 43.5t-152.5 121.5t-89 182t-30 230zM236 528q0 -186 79.5 -305t231.5 -119t231.5 119t79.5 305t-79.5 305 t-231.5 119t-231.5 -119t-79.5 -305zM389 1212l197 304h231l-305 -304h-123z" />
<glyph unicode="&#xf4;" d="M61 528q0 126 30 230t88.5 182.5t152.5 122t215 43.5q160 0 271 -76.5t162.5 -204.5t51.5 -297q0 -126 -30 -230t-88.5 -182t-152 -121.5t-214.5 -43.5t-214.5 43.5t-152.5 121.5t-89 182t-30 230zM236 528q0 -186 79.5 -305t231.5 -119t231.5 119t79.5 305t-79.5 305 t-231.5 119t-231.5 -119t-79.5 -305zM246 1188l196 307h195l197 -307h-129l-166 196l-162 -196h-131z" />
<glyph unicode="&#xf5;" d="M61 528q0 126 30 230t88.5 182.5t152.5 122t215 43.5q160 0 271 -76.5t162.5 -204.5t51.5 -297q0 -126 -30 -230t-88.5 -182t-152 -121.5t-214.5 -43.5t-214.5 43.5t-152.5 121.5t-89 182t-30 230zM236 528q0 -186 79.5 -305t231.5 -119t231.5 119t79.5 305t-79.5 305 t-231.5 119t-231.5 -119t-79.5 -305zM236 1239q17 102 62 156q46 55 114 55q50 0 141 -38t131 -38q52 0 76 76h119q-30 -213 -183 -213q-41 0 -143 39t-131 39q-47 0 -68 -76h-118z" />
<glyph unicode="&#xf6;" d="M61 528q0 126 30 230t88.5 182.5t152.5 122t215 43.5q160 0 271 -76.5t162.5 -204.5t51.5 -297q0 -126 -30 -230t-88.5 -182t-152 -121.5t-214.5 -43.5t-214.5 43.5t-152.5 121.5t-89 182t-30 230zM227 1391q0 55 38.5 94t94.5 39t95 -39t39 -94t-39 -94.5t-95 -39.5 q-55 0 -94 39t-39 95zM236 528q0 -186 79.5 -305t231.5 -119t231.5 119t79.5 305t-79.5 305t-231.5 119t-231.5 -119t-79.5 -305zM614 1391q0 55 39 94t95 39t94.5 -39t38.5 -94q0 -56 -39 -95t-94 -39q-56 0 -95 39.5t-39 94.5z" />
<glyph unicode="&#xf7;" horiz-adv-x="1196" d="M102 412v143h992v-143h-992zM461 102q0 56 39 95t94 39t94 -39t39 -95t-38.5 -94.5t-94.5 -38.5t-94.5 38.5t-38.5 94.5zM465 858q0 56 38.5 94.5t94.5 38.5t94.5 -38.5t38.5 -94.5t-38.5 -94.5t-94.5 -38.5t-94.5 38.5t-38.5 94.5z" />
<glyph unicode="&#xf8;" d="M20 -4l136 151q-99 145 -99 381q0 270 129 423t357 153q207 0 340 -133l118 133l66 -57l-129 -146q90 -150 90 -373q0 -269 -128 -423q-127 -152 -355 -152q-211 0 -334 127l-125 -141zM236 528q0 -140 43 -239l489 551q-84 106 -225 106q-143 0 -226 -111 q-81 -109 -81 -307zM326 209q88 -98 217 -98q143 0 225 111q82 110 82 306q0 137 -37 232z" />
<glyph unicode="&#xf9;" horiz-adv-x="1105" d="M123 342v733h174v-733q0 -102 55.5 -160.5t165.5 -58.5q152 0 216.5 83t64.5 238v631h174v-1075h-174v112q-118 -143 -312 -143q-181 0 -272.5 99t-91.5 274zM252 1516h231l197 -304h-123z" />
<glyph unicode="&#xfa;" horiz-adv-x="1105" d="M123 342v733h174v-733q0 -102 55.5 -160.5t165.5 -58.5q152 0 216.5 83t64.5 238v631h174v-1075h-174v112q-118 -143 -312 -143q-181 0 -272.5 99t-91.5 274zM424 1212l197 304h231l-305 -304h-123z" />
<glyph unicode="&#xfb;" horiz-adv-x="1105" d="M123 342v733h174v-733q0 -102 55.5 -160.5t165.5 -58.5q152 0 216.5 83t64.5 238v631h174v-1075h-174v112q-118 -143 -312 -143q-181 0 -272.5 99t-91.5 274zM256 1186l197 307h194l197 -307h-129l-166 196l-162 -196h-131z" />
<glyph unicode="&#xfc;" horiz-adv-x="1105" d="M123 342v733h174v-733q0 -102 55.5 -160.5t165.5 -58.5q152 0 216.5 83t64.5 238v631h174v-1075h-174v112q-118 -143 -312 -143q-181 0 -272.5 99t-91.5 274zM238 1391q0 55 39 94t94 39t94 -39t39 -94q0 -56 -39 -95t-94 -39t-94 39t-39 95zM625 1391q0 55 38.5 94 t94.5 39t94.5 -39t38.5 -94q0 -56 -39 -95t-94 -39t-94 39t-39 95z" />
<glyph unicode="&#xfd;" horiz-adv-x="1054" d="M61 1075h195l268 -827l285 827h184l-440 -1259q-13 -38 -24.5 -65.5t-27 -57.5t-32.5 -50t-39 -39t-49 -29.5t-60.5 -17.5t-75 -6t-91.5 9v174q99 -8 154.5 21t80.5 102l50 146zM371 1212l196 304h232l-305 -304h-123z" />
<glyph unicode="&#xfe;" horiz-adv-x="1142" d="M123 -446v1908h170v-522q114 164 330 164q208 0 333 -160t125 -426q0 -256 -126 -410q-126 -155 -332 -155q-199 0 -330 160v-559h-170zM293 528q0 -189 82 -302t217 -113q140 0 225 113q86 115 86 296q0 194 -85 307q-86 115 -226 115q-134 0 -217 -114 q-82 -113 -82 -302z" />
<glyph unicode="&#xff;" horiz-adv-x="1054" d="M61 1075h195l268 -827l285 827h184l-440 -1259q-13 -38 -24.5 -65.5t-27 -57.5t-32.5 -50t-39 -39t-49 -29.5t-60.5 -17.5t-75 -6t-91.5 9v174q99 -8 154.5 21t80.5 102l50 146zM201 1391q0 55 38.5 94t94.5 39t94.5 -39t38.5 -94q0 -56 -39 -95t-94 -39t-94 39t-39 95z M588 1391q0 55 39 94t94 39t94 -39t39 -94q0 -56 -39 -95t-94 -39t-94 39t-39 95z" />
<glyph unicode="&#x152;" horiz-adv-x="2019" d="M82 729q0 179 41 323t103 228q63 86 147 141q83 55 163 76t158 21q247 0 375 -181v156h879v-168h-688v-487h671v-168h-671v-502h698v-168h-889v152q-137 -193 -377 -193q-82 0 -161 21q-80 21 -162 74q-84 54 -146 137q-59 80 -101 223q-40 138 -40 315zM272 737 q0 -149 27 -262t69 -177q41 -63 100 -104q58 -40 112 -54q51 -13 112 -13q256 0 377 246v731q-121 246 -375 246q-63 0 -117 -15q-58 -16 -113 -54q-58 -40 -98 -105q-39 -64 -67 -179q-27 -113 -27 -260z" />
<glyph unicode="&#x153;" horiz-adv-x="1882" d="M61 530q0 275 127 424q128 150 359 150q277 0 401 -217q64 103 167 160t228 57q153 0 268 -76q116 -77 167 -207q43 -111 43 -342h-791q1 -103 33 -183q30 -77 80 -115q49 -37 99 -54q48 -16 104 -16q208 0 280 215h172q-33 -178 -153 -275q-120 -98 -304 -98 q-270 0 -397 211q-129 -211 -397 -211q-231 0 -359 150q-127 149 -127 427zM240 530q0 -198 82 -308q82 -111 225 -111q142 0 224 110q83 112 83 303q0 201 -82 311q-82 111 -225 111t-225 -111q-82 -110 -82 -305zM1034 618h602q0 146 -82 237t-213 91q-129 0 -213 -89 q-83 -88 -94 -239z" />
<glyph unicode="&#x178;" horiz-adv-x="1402" d="M31 1495h235l435 -717l436 717h235l-573 -911v-584h-195v584zM381 1702q0 56 38.5 94.5t94.5 38.5t94.5 -38.5t38.5 -94.5t-38.5 -94.5t-94.5 -38.5t-94.5 38.5t-38.5 94.5zM768 1702q0 56 39 94.5t94 38.5t94 -38.5t39 -94.5t-39 -94.5t-94 -38.5t-94 38.5t-39 94.5z " />
<glyph unicode="&#x2c6;" horiz-adv-x="681" d="M41 1210l197 308h194l197 -308h-129l-166 197l-162 -197h-131z" />
<glyph unicode="&#x2dc;" horiz-adv-x="681" d="M10 1257q16 101 63 156q46 55 113 55q53 0 142 -37q91 -38 131 -38q52 0 76 75h118q-30 -213 -182 -213q-41 0 -143 39t-131 39q-47 0 -68 -76h-119z" />
<glyph unicode="&#x2000;" horiz-adv-x="989" />
<glyph unicode="&#x2001;" horiz-adv-x="1978" />
<glyph unicode="&#x2002;" horiz-adv-x="989" />
<glyph unicode="&#x2003;" horiz-adv-x="1978" />
<glyph unicode="&#x2004;" horiz-adv-x="659" />
<glyph unicode="&#x2005;" horiz-adv-x="494" />
<glyph unicode="&#x2006;" horiz-adv-x="329" />
<glyph unicode="&#x2007;" horiz-adv-x="329" />
<glyph unicode="&#x2008;" horiz-adv-x="247" />
<glyph unicode="&#x2009;" horiz-adv-x="395" />
<glyph unicode="&#x200a;" horiz-adv-x="109" />
<glyph unicode="&#x2010;" horiz-adv-x="675" d="M92 492v143h492v-143h-492z" />
<glyph unicode="&#x2011;" horiz-adv-x="675" d="M92 492v143h492v-143h-492z" />
<glyph unicode="&#x2012;" horiz-adv-x="675" d="M92 492v143h492v-143h-492z" />
<glyph unicode="&#x2013;" horiz-adv-x="1024" d="M82 492v147h860v-147h-860z" />
<glyph unicode="&#x2014;" horiz-adv-x="2048" d="M82 492v147h1884v-147h-1884z" />
<glyph unicode="&#x2018;" horiz-adv-x="512" d="M199 1020v207q0 252 190 268v-78q-96 -21 -96 -184h96v-213h-190z" />
<glyph unicode="&#x2019;" horiz-adv-x="512" d="M133 1391q0 47 33 80.5t79 33.5q52 0 91 -41t39 -116q0 -70 -29 -140t-68.5 -116t-77 -74.5t-58.5 -28.5v79q37 13 84 87t53 129q-16 -6 -34 -6q-47 0 -79.5 33t-32.5 80z" />
<glyph unicode="&#x201a;" horiz-adv-x="512" d="M164 0v213h190v-207q0 -252 -190 -268v78q96 15 96 184h-96z" />
<glyph unicode="&#x201c;" horiz-adv-x="819" d="M182 1020v207q0 251 191 268v-78q-97 -21 -97 -184h97v-213h-191zM506 1020v207q0 252 190 268v-78q-96 -21 -96 -184h96v-213h-190z" />
<glyph unicode="&#x201d;" horiz-adv-x="819" d="M133 1391q0 47 33 80.5t79 33.5q52 0 91 -41t39 -116q0 -70 -29 -140t-68.5 -116t-77 -74.5t-58.5 -28.5v79q37 13 84 87t53 129q-16 -6 -34 -6q-47 0 -79.5 33t-32.5 80zM461 1391q0 47 33 80.5t79 33.5q51 0 90 -41t39 -116q0 -70 -29 -140t-68.5 -116t-77 -74.5 t-58.5 -28.5v79q37 13 84.5 87t53.5 129q-17 -6 -34 -6q-47 0 -79.5 33t-32.5 80z" />
<glyph unicode="&#x201e;" horiz-adv-x="819" d="M164 0v213h190v-207q0 -252 -190 -268v78q96 15 96 184h-96zM492 0v213h190v-207q0 -252 -190 -268v78q96 15 96 184h-96z" />
<glyph unicode="&#x2022;" horiz-adv-x="819" d="M154 707q0 107 74 181q75 75 182 75q106 0 181 -76q75 -77 75 -185q0 -102 -76 -177q-75 -74 -180 -74q-108 0 -182 74t-74 182z" />
<glyph unicode="&#x2026;" horiz-adv-x="1392" d="M133 102q0 56 39 95t94 39t94 -39t39 -95t-38.5 -94.5t-94.5 -38.5t-94.5 38.5t-38.5 94.5zM559 102q0 56 39 95t94 39t94 -39t39 -95t-38.5 -94.5t-94.5 -38.5t-94.5 38.5t-38.5 94.5zM985 102q0 56 39 95t94 39t94 -39t39 -95t-38.5 -94.5t-94.5 -38.5t-94.5 38.5 t-38.5 94.5z" />
<glyph unicode="&#x202f;" horiz-adv-x="395" />
<glyph unicode="&#x2039;" horiz-adv-x="512" d="M100 465v182l312 250v-170l-217 -170l217 -170v-170z" />
<glyph unicode="&#x203a;" horiz-adv-x="512" d="M100 217v170l217 170l-217 170v170l312 -248v-182z" />
<glyph unicode="&#x205f;" horiz-adv-x="494" />
<glyph unicode="&#x20ac;" horiz-adv-x="1341" d="M74 520l45 121h112q-2 44 -2 66q0 3 1 11t2.5 25t3.5 33h-162l45 121h129q6 44 25 101q20 59 68 142q49 84 114 149q69 69 176 115q111 48 241 48q203 0 396 -137l-62 -150q-105 78 -181 105q-74 26 -167 26q-138 0 -257 -102q-117 -101 -167 -297h666l-47 -121h-637 q-4 -39 -4 -74q0 -21 2 -61h587l-49 -121h-522q45 -188 168 -298q122 -109 262 -109q88 0 155 20q69 21 187 90v-182q-145 -88 -342 -88q-128 0 -232 46t-171 113q-65 65 -114 149q-50 86 -70 146q-22 66 -29 113h-170z" />
<glyph unicode="&#x2122;" horiz-adv-x="2048" d="M41 1348v143h844v-143h-340v-932h-160v932h-344zM967 418v1075h223l297 -895l293 895h223v-1075h-152v839l-272 -839h-184l-277 839v-839h-151z" />
<glyph unicode="&#x25fc;" horiz-adv-x="1075" d="M0 0v1075h1075v-1075h-1075z" />
</font>
</defs>
</svg>
