<?xml version="1.0" standalone="no"?>
<!DOCTYPE svg PUBLIC "-//W3C//DTD SVG 1.1//EN" "http://www.w3.org/Graphics/SVG/1.1/DTD/svg11.dtd" >
<svg xmlns="http://www.w3.org/2000/svg">
<metadata></metadata>
<defs>
<font id="renner-lightlight-italic" horiz-adv-x="1290" >
<font-face units-per-em="2048" ascent="1638" descent="-410" />
<missing-glyph horiz-adv-x="485" />
<glyph horiz-adv-x="0" />
<glyph horiz-adv-x="682" />
<glyph unicode=" "  horiz-adv-x="485" />
<glyph unicode="&#x09;" horiz-adv-x="485" />
<glyph unicode="&#xa0;" horiz-adv-x="485" />
<glyph unicode="!" horiz-adv-x="479" d="M158 72q6 38 36 65t68 27q39 0 63.5 -27t18.5 -65q-6 -39 -37 -67t-69 -28t-62 28.5t-18 66.5zM285 575l118 1086h142l-185 -1086h-75z" />
<glyph unicode="&#x22;" horiz-adv-x="489" d="M258 1227l29 434h119l-95 -434h-53zM524 1227l29 434h119l-94 -434h-54z" />
<glyph unicode="#" horiz-adv-x="1431" d="M129 442l39 111h266l150 399h-267l41 111h267l151 410h121l-154 -410h402l151 410h121l-151 -410h264l-39 -111h-266l-150 -399h266l-38 -111h-267l-157 -419h-121l157 419h-399l-158 -419h-120l157 419h-266zM555 553h399l150 399h-399z" />
<glyph unicode="$" horiz-adv-x="1163" d="M113 201l90 104q5 -8 15.5 -20.5t47 -45.5t77.5 -59t107 -49t136 -27l86 605q-79 25 -142.5 60.5t-113.5 85t-72.5 117t-11.5 146.5q22 153 150 264t302 131l21 148h100l-20 -143q68 -3 130 -20.5t101 -40.5t68 -45t42 -37l13 -15l-61 -98q-4 5 -12 14t-37 32.5t-62 42 t-86.5 34.5t-112.5 18l-82 -592q178 -51 274.5 -156t74.5 -268q-22 -157 -151.5 -271t-313.5 -134l-29 -203h-100l28 198q-84 4 -162 28.5t-129 56.5t-90 64t-57 54zM465 1124q-29 -193 225 -284l78 557q-122 -22 -206 -102t-97 -171zM688 111q128 21 216 101.5t100 174.5 q15 101 -48 175t-188 118z" />
<glyph unicode="%" horiz-adv-x="2306" d="M369 1110q15 111 83 205t169.5 148.5t212.5 54.5q169 0 271 -119.5t79 -288.5q-15 -111 -83 -205t-169.5 -148.5t-212.5 -54.5q-169 0 -271 119.5t-79 288.5zM457 1110q-20 -136 59.5 -232t210.5 -96t238 96t127 232t-61 232t-212 96q-130 0 -236 -95.5t-126 -232.5z M500 0l1382 1495h121l-1382 -1495h-121zM1319 385q15 111 83 205t169.5 148.5t212.5 54.5q169 0 271 -119.5t79 -288.5q-15 -111 -83 -205t-169.5 -148.5t-212.5 -54.5q-169 0 -271 119.5t-79 288.5zM1409 385q-20 -136 59.5 -232t210.5 -96t238 96t127 232t-60.5 232 t-211.5 96t-237 -96t-126 -232z" />
<glyph unicode="&#x26;" horiz-adv-x="1761" d="M313 401q33 221 322 398l168 90l28 14l-16 21q-51 61 -80.5 107.5t-48 120.5t-6.5 157q6 44 25 88.5t54 88t80.5 77t110 54.5t137.5 21q160 0 239.5 -92.5t59.5 -230.5q-5 -38 -21 -74.5t-33 -64.5t-50.5 -62.5t-55 -54.5t-67.5 -53.5t-66 -47t-72 -47.5q-10 -7 -15 -10 l-25 -14l377 -414l18 16q14 11 23 25l186 207l92 -64l-186 -204q-40 -45 -57 -62l151 -174l-22 -162l-220 246l-16 -14q-326 -287 -639 -287q-121 0 -213.5 57t-134 149t-27.5 195zM434 401q-16 -117 72.5 -201.5t198.5 -84.5q149 0 279.5 64.5t270.5 189.5l17 14l-383 451 l-19 -13q-100 -67 -159 -102q-115 -64 -190 -147.5t-87 -170.5zM788 1309q-13 -94 17 -166t108 -166l11 -14l18 12q79 52 126 86t99 79t78.5 88t32.5 87q15 105 -44 165t-161 60q-64 0 -118 -24t-88 -61t-54 -75t-25 -71z" />
<glyph unicode="'" horiz-adv-x="221" d="M244 1227l30 434h142l-99 -434h-73z" />
<glyph unicode="(" horiz-adv-x="374" d="M133.5 85q-16.5 275 22.5 552.5t132.5 548.5t227.5 471l76 -10q-227 -487 -300 -1011t15 -1021l-80 -12q-77 207 -93.5 482z" />
<glyph unicode=")" horiz-adv-x="370" d="M-27 -385q225 483 294 1011t-21 1021l80 10q77 -207 95.5 -482t-18 -552.5t-128.5 -549t-226 -470.5z" />
<glyph unicode="*" horiz-adv-x="602" d="M211 1487l43 92l231 -102l13 266h98l-61 -266l262 108l16 -92l-270 -61l151 -201l-88 -57l-104 229l-168 -234l-72 58l203 205z" />
<glyph unicode="+" horiz-adv-x="1093" d="M197 655l16 109h383l59 430h121l-59 -430h383l-17 -109h-383l-61 -434h-121l62 434h-383z" />
<glyph unicode="," horiz-adv-x="526" d="M10 -225l215 434h144l-285 -434h-74z" />
<glyph unicode="-" horiz-adv-x="862" d="M303 655l14 109h443l-15 -109h-442z" />
<glyph unicode="." horiz-adv-x="479" d="M158 72q6 38 36 65t68 27q39 0 63.5 -27t18.5 -65q-6 -39 -37 -67t-69 -28t-62 28.5t-18 66.5z" />
<glyph unicode="/" horiz-adv-x="890" d="M-68 -219l1078 1933h143l-1077 -1933h-144z" />
<glyph unicode="0" horiz-adv-x="1220" d="M155.5 587q0.5 80 12.5 163q16 117 51.5 226.5t93.5 209t131 173.5t171.5 117.5t209.5 43.5q93 0 169 -30.5t127 -84.5t88 -127t52 -159t19 -180t-12 -189q-16 -117 -52 -227t-94 -209.5t-132 -174t-172.5 -118.5t-209.5 -44q-80 0 -147 23t-116 63.5t-86.5 97.5 t-59.5 124.5t-33 144.5t-10.5 157zM291.5 614.5q-0.5 -69.5 8.5 -144t33.5 -139.5t61.5 -117.5t96 -83t134 -30.5q89 0 168.5 44t135.5 112.5t100.5 157t69.5 172.5t36 164q9 65 9 135t-9.5 143.5t-34 139t-62 117t-97 82t-134.5 30.5q-89 0 -168 -43.5t-134.5 -112 t-99.5 -156.5t-68.5 -171.5t-35.5 -163.5q-9 -66 -9.5 -135.5z" />
<glyph unicode="1" horiz-adv-x="1185" d="M549 1206l16 111l428 211q-25 -183 -215 -1528h-123l185 1315z" />
<glyph unicode="2" horiz-adv-x="1218" d="M113 0l825 754q162 150 182 290q24 166 -65.5 254t-251.5 88q-62 0 -135 -26.5t-132.5 -64t-110 -75t-78.5 -64.5l-28 -26l25 175q9 9 25 23.5t67 51.5t104 65.5t130.5 51.5t150.5 23q223 0 342 -124.5t88 -351.5q-16 -113 -89 -222t-171 -195l-577 -506h751l-16 -121 h-1036z" />
<glyph unicode="3" horiz-adv-x="1210" d="M180 43l19 141q47 -48 129.5 -73t167.5 -25q167 0 298 102.5t154 266.5q12 86 -17.5 157t-89 116t-139.5 69t-170 24h-43l533 563h-598l14 111h819l-561 -594q188 -25 292 -149.5t81 -296.5q-30 -211 -190 -344.5t-398 -133.5v-2q-78 0 -160 17.5t-141 50.5z" />
<glyph unicode="4" horiz-adv-x="1218" d="M133 354l1055 1196l-23 -168l-2 -2h2l-129 -915h166l-16 -111h-166l-49 -354h-123l49 354h-764zM385 465h528l105 743z" />
<glyph unicode="5" horiz-adv-x="1212" d="M156 57l18 140q48 -49 150 -79t202 -30q183 0 321 98.5t161 255.5q24 172 -75.5 263.5t-285.5 91.5q-132 0 -276 -64l-76 62l-2 2l209 698h696l-14 -111h-596l-158 -528q136 51 254 51q241 0 357.5 -125.5t86.5 -339.5q-29 -209 -200.5 -337t-417.5 -128q-91 0 -191.5 23 t-162.5 57z" />
<glyph unicode="6" horiz-adv-x="1212" d="M205 442q14 112 84 217l518 836h119l-428 -682q46 34 118 54t138 20q88 0 164.5 -34t129 -92t77 -141.5t10.5 -177.5q-28 -192 -183.5 -328.5t-347.5 -136.5q-126 0 -224.5 62.5t-145.5 169.5t-29 233zM319 442q-20 -146 67 -250t232 -104t263.5 104t138.5 250t-68 250.5 t-233 104.5t-262.5 -104.5t-137.5 -250.5z" />
<glyph unicode="7" horiz-adv-x="1214" d="M324 0l770 1384h-762l14 111h942l-829 -1495h-135z" />
<glyph unicode="8" horiz-adv-x="1212" d="M205 455q20 131 113 230.5t225 145.5q-85 46 -133 126t-35 178q23 163 153 277t293 114t262 -114.5t76 -276.5q-13 -98 -85.5 -178t-172.5 -126q120 -48 187 -152.5t47 -236.5q-28 -192 -184.5 -328.5t-348.5 -136.5q-125 0 -223.5 65.5t-145 176t-28.5 236.5zM313 442 q-20 -143 71 -242.5t237 -99.5t264.5 99t138.5 243q12 84 -24.5 163.5t-112.5 130t-170 50.5q-146 0 -265 -100t-139 -244zM498 1135q-15 -109 53 -190t176 -81q109 0 201.5 81t107.5 190t-54.5 189.5t-178.5 80.5t-199.5 -80.5t-105.5 -189.5z" />
<glyph unicode="9" horiz-adv-x="1212" d="M291 1053q28 192 182 328.5t346 136.5q126 0 225 -62.5t147 -169.5t30 -233q-15 -115 -82 -217l-521 -836h-120l430 682q-46 -34 -118 -54t-138 -20q-88 0 -164.5 34t-129 92t-77 141.5t-10.5 177.5zM406 1053q-20 -147 67.5 -251t231.5 -104q145 0 263 104.5t138 250.5 t-68 250t-233 104t-262 -104t-137 -250z" />
<glyph unicode=":" horiz-adv-x="479" d="M178 217q6 38 36.5 65t68.5 27q39 0 63.5 -27t18.5 -65t-37.5 -65t-69.5 -27t-62 27t-18 65zM272 881q6 39 36.5 66.5t68.5 27.5q39 0 63.5 -28t18.5 -66t-38.5 -65.5t-70.5 -27.5t-61 27.5t-17 65.5z" />
<glyph unicode=";" horiz-adv-x="485" d="M29 -102l215 434h143l-285 -434h-73zM276 881q6 38 37.5 66t69.5 28t62 -28t18 -66t-37.5 -65.5t-69.5 -27.5t-62 27.5t-18 65.5z" />
<glyph unicode="&#x3c;" horiz-adv-x="1097" d="M152 709l993 366l-15 -108l-757 -258l686 -254l-17 -109z" />
<glyph unicode="=" horiz-adv-x="1093" d="M176 500l14 108h887l-14 -108h-887zM219 811l14 109h887l-14 -109h-887z" />
<glyph unicode="&#x3e;" horiz-adv-x="1097" d="M154 344l14 109l758 256l-686 254l16 108l891 -362z" />
<glyph unicode="?" horiz-adv-x="1028" d="M354 1475l21 141q140 67 297 67q104 0 192.5 -40.5t147 -108.5t85.5 -162t13 -198q-26 -190 -171.5 -333t-334.5 -171l-53 -260h-96l16 376q20 -10 94 -10q32 0 62 6q132 25 237 138t125 254q23 161 -75 280t-259 119q-177 0 -301 -98zM375 72q6 38 36 65t68 27 q39 0 63.5 -27t18.5 -65q-6 -39 -37 -67t-69 -28t-62 28.5t-18 66.5z" />
<glyph unicode="@" horiz-adv-x="1888" d="M166.5 297q-5.5 123 26.5 252q58 251 224.5 451t391.5 308.5t463 108.5q100 0 191.5 -26.5t165 -75.5t134 -116t100.5 -149.5t62 -173t21.5 -190.5t-23.5 -199q-57 -247 -167 -382.5t-240 -135.5q-91 0 -141.5 56.5t-55.5 160.5q-155 -209 -379 -209q-128 0 -221 68.5 t-129 186t-4 255.5q50 211 222.5 360.5t367.5 149.5q107 0 176.5 -49t99.5 -137l23 96h102l-133 -581q-40 -246 96 -246q88 0 164.5 116.5t116.5 290.5q28 136 20.5 258t-56.5 225t-124.5 178t-182.5 117t-231 42q-157 0 -311.5 -55.5t-283 -153.5t-224 -241t-133.5 -308 q-28 -113 -23 -222t32 -207t81 -181t124.5 -143t163 -94t195.5 -34l-26 -110q-117 0 -222 37.5t-184.5 105t-141.5 160.5t-92 203t-35.5 233zM698 487q-37 -162 40 -280.5t227 -118.5q137 0 247 102.5t156 255.5l16 78q15 98 -9 181t-83.5 132.5t-142.5 49.5 q-150 0 -282 -119t-169 -281z" />
<glyph unicode="A" horiz-adv-x="1286" d="M20 0l840 1550l406 -1550h-140l-122 479h-588l-256 -479h-140zM479 598h496l-160 627z" />
<glyph unicode="B" horiz-adv-x="1107" d="M135 0l211 1495h387q167 0 269 -113q83 -92 83 -219q0 -29 -4 -59q-15 -107 -82.5 -193t-167.5 -133q125 -36 191 -134q51 -75 52 -173q0 -29 -5 -61q-25 -174 -164 -292t-315 -118h-455zM283 119h325q127 0 218 81.5t110 209.5q4 28 4 53q0 93 -54 159q-69 84 -196 85 h-323zM383 825h256q119 0 205.5 79t103.5 200q4 25 4 48q0 88 -51 148q-64 76 -184 76h-256z" />
<glyph unicode="C" horiz-adv-x="1392" d="M164 750q29 209 157.5 386.5t320.5 280.5t402 103q224 0 410 -119l-20 -148q-157 136 -408 136q-175 0 -332 -84t-260.5 -231t-128.5 -324q-7 -49 -7 -96q0 -81 20 -156q32 -119 104 -204t182.5 -135t241.5 -50q250 0 444 135l-20 -148q-218 -119 -443 -119 q-157 0 -291 61.5t-223 165t-130 246.5q-27 93 -27 192q0 53 8 108z" />
<glyph unicode="D" horiz-adv-x="1400" d="M135 0l211 1495h416q158 0 292 -57t224 -155t132 -237q28 -91 27 -190q0 -52 -7 -106q-22 -157 -102.5 -296.5t-198 -238.5t-268 -157t-308.5 -58h-418zM285 129h284q174 0 330 80t260.5 223t128.5 318q6 46 6 90q0 82 -22 156q-34 115 -106.5 196t-182.5 127.5 t-240 46.5h-284z" />
<glyph unicode="E" horiz-adv-x="1130" d="M135 0l211 1495h897l-16 -119h-766l-78 -553h545l-17 -118h-544l-84 -586h768l-19 -119h-897z" />
<glyph unicode="F" horiz-adv-x="1130" d="M135 0l211 1495h897l-16 -119h-766l-78 -553h545l-17 -118h-544l-101 -705h-131z" />
<glyph unicode="G" horiz-adv-x="1675" d="M164 750q29 209 157.5 386.5t320.5 280.5t402 103q151 0 279 -55.5t219 -155.5l-94 -99q-72 79 -183 129t-239 50q-175 0 -332 -84t-260.5 -231t-128.5 -324q-7 -49 -7 -96q0 -81 20 -156q33 -119 104.5 -204t182 -135t241.5 -50q244 0 431.5 158t248.5 401h-547l16 118 h693q-1 -6 -2.5 -18t-2.5 -18q-22 -158 -99.5 -300.5t-190.5 -246.5t-261 -165t-305 -61t-291 61.5t-223 165t-130 246.5q-27 93 -27 192q0 53 8 108z" />
<glyph unicode="H" horiz-adv-x="1382" d="M156 0l211 1495h131l-95 -672h809l-16 -118h-809l-100 -705h-131zM1098 0l211 1495h129l-211 -1495h-129z" />
<glyph unicode="I" horiz-adv-x="442" d="M156 0l211 1495h131l-211 -1495h-131z" />
<glyph unicode="J" horiz-adv-x="1026" d="M-20 274l116 52q15 -49 35.5 -85.5t56.5 -71.5t94.5 -54t137.5 -19q96 0 169 33t116.5 91t68 123t35.5 144l141 1008h131l-141 -1008q-15 -109 -54 -199t-102.5 -161t-161 -110.5t-219.5 -39.5q-186 0 -292 82.5t-131 214.5z" />
<glyph unicode="K" horiz-adv-x="1083" d="M156 0l211 1495h131l-105 -735l742 735h159l-780 -776l569 -719h-172l-530 670l-94 -670h-131z" />
<glyph unicode="L" horiz-adv-x="1052" d="M135 0l211 1495h131l-194 -1376h768l-19 -119h-897z" />
<glyph unicode="M" horiz-adv-x="1703" d="M20 0l586 1550l285 -1274l661 1274l131 -1550h-143l-84 1130l-612 -1185l-271 1222l-430 -1167h-123z" />
<glyph unicode="N" horiz-adv-x="1484" d="M156 0q30 216 103.5 740.5t113.5 809.5l872 -1241l166 1186h129q-27 -191 -101.5 -725.5t-117.5 -824.5l-868 1239l-166 -1184h-131z" />
<glyph unicode="O" horiz-adv-x="1658" d="M164 750q29 209 157.5 386.5t320.5 280.5t402 103q157 0 291 -61t222.5 -164t129.5 -245q27 -93 27 -192q0 -53 -8 -108q-22 -157 -103 -300t-198.5 -246.5t-269 -165t-308.5 -61.5t-291 61.5t-223 165t-130 246.5q-27 93 -27 192q0 53 8 108zM305 750q-7 -48 -7 -93 q0 -121 46 -229q64 -148 197.5 -233.5t304.5 -85.5t328 86t262 233.5t129 321.5q7 48 7 94q0 121 -46 227q-63 147 -196 232.5t-304 85.5t-328.5 -85t-263 -232.5t-129.5 -321.5z" />
<glyph unicode="P" horiz-adv-x="1030" d="M135 0l211 1495h367q213 1 323 -125q87 -99 86 -253q0 -41 -6 -85q-29 -211 -174 -335t-358 -124h-236l-82 -573h-131zM365 692h227q159 0 264.5 89t128.5 251q5 36 5 68q0 114 -62 185q-80 91 -240 91h-227z" />
<glyph unicode="Q" horiz-adv-x="1691" d="M164 750q29 209 157.5 386.5t320.5 280.5t402 103q157 0 291 -61t222.5 -164t129.5 -245q27 -93 27 -192q0 -53 -8 -108q-40 -289 -266 -512l194 -238h-159l-129 158q-240 -181 -519 -181q-157 0 -291 61.5t-223 165t-130 246.5q-27 93 -27 192q0 53 8 108zM305 750 q-7 -48 -7 -93q0 -121 46 -229q64 -147 197.5 -233t304.5 -86q229 0 420 145l-299 367h157l234 -285q173 179 207 414q7 48 7 94q0 121 -46 227q-63 147 -196 232.5t-304 85.5t-328.5 -85t-263 -232.5t-129.5 -321.5z" />
<glyph unicode="R" horiz-adv-x="1159" d="M135 0l211 1495h432q213 1 323 -125q87 -99 87 -253q0 -40 -6 -85q-24 -181 -137.5 -299t-284.5 -149l321 -584h-147l-320 573h-266l-82 -573h-131zM365 692h292q160 0 266.5 89t129.5 251q5 36 5 68q0 114 -64 185q-82 91 -240 91h-293z" />
<glyph unicode="S" horiz-adv-x="1075" d="M106 201l93 112q6 -8 17.5 -21.5t51 -48t84 -61t115.5 -48t147 -21.5q151 0 256 83t119 191q3 19 3 38q0 187 -296 269q-84 23 -153.5 59.5t-124 88t-79.5 122.5q-17 48 -17 101q0 26 4 53q15 111 89.5 203t188.5 144.5t242 52.5q74 0 141.5 -16.5t110.5 -39.5t75 -46 t46 -40l14 -16l-64 -119q-4 6 -12.5 16t-39 36t-65.5 46t-93 36t-121 16q-149 0 -253 -80t-118 -187q-3 -19 -3 -36q0 -87 62 -149q74 -74 232 -116q187 -51 291 -159q85 -89 85 -218q0 -29 -4 -59q-24 -171 -176 -290.5t-360 -119.5q-90 0 -173.5 23t-138 56t-96.5 66 t-61 56z" />
<glyph unicode="T" horiz-adv-x="1202" d="M215 1384l14 111h1164l-15 -111h-520l-194 -1384h-123l194 1384h-520z" />
<glyph unicode="U" horiz-adv-x="1380" d="M211 526l135 969h131l-135 -967q-5 -33 -5 -65q0 -133 87 -235q107 -126 281 -126t316 125.5t167 300.5l135 967h131l-135 -969q-21 -149 -114 -275.5t-231.5 -200t-287.5 -73.5t-266 73q-118 74 -174 200q-41 92 -41 197q0 39 6 79z" />
<glyph unicode="V" horiz-adv-x="1368" d="M229 1495h146l348 -1212l690 1212h146l-883 -1550z" />
<glyph unicode="W" horiz-adv-x="1824" d="M229 1495h142l166 -1128l593 1183l250 -1210l512 1155h123l-688 -1550l-250 1226l-614 -1226z" />
<glyph unicode="X" horiz-adv-x="1308" d="M20 0l664 776l-414 719h158l350 -608l522 608h158l-616 -719l448 -776h-160l-382 666l-572 -666h-156z" />
<glyph unicode="Y" horiz-adv-x="1267" d="M229 1495h152l354 -758l572 758h151l-678 -897l-84 -598h-127l82 594z" />
<glyph unicode="Z" horiz-adv-x="1320" d="M20 0l1211 1376h-963l17 119h1208l-1208 -1376h960l-16 -119h-1209z" />
<glyph unicode="[" horiz-adv-x="495" d="M119 -276l256 1826h487l-6 -55l-385 -43l-227 -1630l370 -43l-8 -55h-487z" />
<glyph unicode="\" horiz-adv-x="890" d="M256 1714h143l467 -1769h-143z" />
<glyph unicode="]" horiz-adv-x="495" d="M-186 -276l8 55l383 43l229 1630l-373 43l9 55h487l-14 -110h-2l-240 -1716h-487z" />
<glyph unicode="^" horiz-adv-x="708" d="M242 1282l354 434l231 -434h-141l-119 231l-182 -231h-143z" />
<glyph unicode="_" horiz-adv-x="1105" d="M-51 -365l20 144h1108l-20 -144h-1108z" />
<glyph unicode="`" horiz-adv-x="387" d="M281 1993h254l71 -434z" />
<glyph unicode="a" horiz-adv-x="1394" d="M143 541q21 150 114 281t224 206.5t264 75.5q167 0 274 -78t155 -205l36 256h136l-152 -1077h-135l37 258q-82 -126 -212 -203.5t-296 -77.5q-99 0 -188.5 45t-151 120.5t-91.5 180.5q-20 68 -20 140q0 39 6 78zM279 539q-5 -36 -6 -69q0 -138 87 -242q107 -130 285 -130 t321 129.5t169 311.5v4q4 33 4 64q0 82 -30 155q-42 101 -132 160t-207 59q-178 0 -321.5 -130t-169.5 -312z" />
<glyph unicode="b" horiz-adv-x="1394" d="M135 0l258 1831h135l-143 -1012q83 127 213 205t297 78q99 0 188 -45t150 -120t91 -180q19 -68 19 -140q0 -39 -6 -78q-21 -150 -113.5 -281.5t-223 -207t-263.5 -75.5q-167 0 -274.5 78t-155.5 205l-37 -258h-135zM344 526q-3 -28 -3 -54q1 -142 91 -248 q108 -126 281 -126q178 0 320.5 129.5t168.5 311.5q5 34 5 67q0 81 -30 154q-42 102 -132 161.5t-207 59.5q-174 0 -317.5 -126.5t-172.5 -305.5z" />
<glyph unicode="c" horiz-adv-x="1097" d="M143 539q21 152 115.5 282t235 205.5t292.5 75.5q171 0 310 -74l-21 -145q-57 46 -138 72t-167 26q-178 0 -322 -131.5t-169 -310.5q-4 -32 -5 -63q0 -82 31 -155q42 -101 132.5 -162t207.5 -61q87 0 176 26t158 71l-21 -146q-157 -74 -329 -74q-152 0 -271.5 76 t-177.5 206q-43 95 -43 203q0 39 6 79z" />
<glyph unicode="d" horiz-adv-x="1394" d="M143 541q21 150 114 281t224 206.5t264 75.5q167 0 275 -78t156 -205l141 1010h135l-258 -1831h-135l37 260q-83 -127 -212 -205t-296 -78q-99 0 -188.5 45t-151 120.5t-91.5 180.5q-20 68 -20 140q0 39 6 78zM279 539q-5 -36 -6 -69q0 -138 87 -242q107 -130 285 -130 t321 129.5t169 311.5q5 34 5 67q0 82 -30 154q-42 102 -132.5 161.5t-207.5 59.5q-178 0 -321.5 -130t-169.5 -312z" />
<glyph unicode="e" horiz-adv-x="1280" d="M143 539q21 152 115.5 282t235 205.5t292.5 75.5q151 0 264.5 -76t164.5 -205q36 -91 36 -195q0 -43 -6 -87q-5 -36 -8 -50h-977v-9q0 -157 108 -268q111 -114 277 -114q98 0 210 46t185 116l56 -106q-100 -83 -223 -131t-244 -48q-152 0 -271.5 76t-177.5 206 q-43 95 -43 203q0 39 6 79zM281 610h831q0 159 -92.5 265t-249.5 106q-159 0 -299 -107.5t-190 -263.5z" />
<glyph unicode="f" horiz-adv-x="747" d="M172 954l18 123h209l54 387q29 203 120 297t252 94q60 0 106.5 -18.5t63.5 -36.5l17 -18l-17 -119q-8 8 -23 19.5t-63.5 31t-99.5 19.5q-103 0 -153 -65.5t-70 -203.5l-54 -387h330l-18 -123h-330l-133 -954h-133l133 954h-209z" />
<glyph unicode="g" horiz-adv-x="1333" d="M47 -260l121 57q13 -44 28 -76.5t43.5 -69.5t65 -61t95 -39.5t132.5 -15.5q100 0 183.5 35.5t140.5 96.5t92.5 139.5t48.5 168.5l43 316q-76 -111 -196 -176.5t-281 -65.5q-100 0 -185.5 39t-143.5 107.5t-84 167.5q-17 62 -17 129q0 40 6 83q32 227 199.5 377t372.5 150 q161 0 262 -65.5t147 -176.5l31 217h135l-153 -1102q-16 -118 -63 -218.5t-122.5 -178.5t-187 -122t-246.5 -44q-205 0 -322 91t-145 237zM272 575q-5 -36 -5 -70q0 -130 77 -220q97 -113 277 -113q174 0 301.5 107.5t156.5 277.5l4 37q3 26 3 50q0 136 -82 228 q-96 109 -269 109q-179 0 -308.5 -114t-154.5 -292z" />
<glyph unicode="h" horiz-adv-x="1310" d="M135 0l258 1831h135l-139 -985q75 116 184.5 186t249.5 70q192 0 291 -118q77 -91 77 -234q0 -42 -7 -88l-94 -662h-136l95 662q5 31 5 60q0 98 -54 168q-68 91 -214 91q-170 0 -289.5 -124t-148.5 -304l-78 -553h-135z" />
<glyph unicode="i" horiz-adv-x="563" d="M172 0l152 1077h131l-152 -1077h-131zM356 1563q6 42 40 71t77 29t69 -29q22 -24 22 -56q0 -7 -1 -15q-6 -43 -41 -73t-78 -30q-42 0 -68 30q-21 24 -21 57q0 8 1 16z" />
<glyph unicode="j" horiz-adv-x="530" d="M-219 -512l16 119q8 -8 23 -20t64 -32t100 -20q103 0 152 65t69 203l180 1274h131l-180 -1274q-29 -204 -119.5 -297.5t-251.5 -93.5q-38 0 -71 8t-52.5 19t-34 22t-20.5 19zM416 1563q6 43 39.5 71.5t76.5 28.5t69 -29q21 -24 21 -56q0 -7 -1 -15q-6 -43 -40 -73 t-77 -30t-68 30q-21 24 -21 57q0 8 1 16z" />
<glyph unicode="k" horiz-adv-x="1019" d="M135 0l258 1831h135l-166 -1176l523 422h194l-606 -489l506 -588h-197l-440 510l-72 -510h-135z" />
<glyph unicode="l" horiz-adv-x="491" d="M135 0l258 1831h135l-258 -1831h-135z" />
<glyph unicode="m" horiz-adv-x="1886" d="M135 0l152 1077h135l-27 -192q136 217 369 217q121 0 196.5 -61.5t98.5 -176.5q141 238 401 238q168 0 248 -118q59 -86 59 -219q0 -48 -8 -103l-92 -662h-135l92 662q4 46 6 91v10q0 40 -11 76q-12 41 -33.5 72.5t-63.5 50.5t-99 19q-79 0 -144.5 -33.5t-110.5 -92 t-74.5 -127t-44.5 -146.5l-82 -582h-136l95 662q4 46 6 91v13q0 38 -10 73q-12 41 -33 72.5t-63 50.5t-99 19q-68 0 -126 -25.5t-99.5 -67t-73.5 -98.5t-51 -117.5t-29 -125.5q-14 -93 -39.5 -276.5t-38.5 -270.5h-135z" />
<glyph unicode="n" horiz-adv-x="1310" d="M135 0l152 1077h135l-33 -235q140 260 455 260q192 0 280 -116q67 -88 68 -227q0 -46 -8 -97l-94 -662h-136l95 662q5 31 5 60q0 98 -54 168q-68 91 -214 91q-87 0 -165.5 -39t-134 -103t-92.5 -142t-48 -158l-76 -539h-135z" />
<glyph unicode="o" horiz-adv-x="1282" d="M133 539q21 152 115.5 282t235 205.5t292.5 75.5q114 0 211.5 -45t162.5 -121q66 -75 96 -179q20 -68 20 -141q0 -38 -6 -77q-21 -152 -115 -282t-234.5 -206t-292.5 -76q-114 0 -212 45t-163 121t-95 180q-20 68 -21 141q0 38 6 77zM268 539q-5 -35 -6 -69 q0 -138 88 -242q108 -130 285.5 -130t320 129.5t168.5 311.5q5 34 5 67q0 81 -30 154q-42 102 -132 161.5t-207 59.5q-178 0 -322 -130t-170 -312z" />
<glyph unicode="p" horiz-adv-x="1382" d="M57 -563l230 1640h135l-37 -258q83 127 213 205t297 78q99 0 188 -45t150 -120t91 -180q19 -68 19 -140q0 -38 -6 -78q-21 -150 -113.5 -281.5t-223 -207t-263.5 -75.5q-166 0 -274 77.5t-156 203.5l-114 -819h-136zM344 516q-2 -24 -2 -47q0 -144 92 -249 q108 -122 279 -122q178 0 320.5 129.5t168.5 311.5q5 34 5 67q0 81 -30 154q-42 102 -132 161.5t-207 59.5q-113 0 -218 -57t-177 -154.5t-93 -212.5z" />
<glyph unicode="q" horiz-adv-x="1382" d="M135 541q21 150 113.5 281t223 206.5t263.5 75.5q165 0 273.5 -78t156.5 -203l35 254h135l-229 -1640h-135l114 821q-82 -126 -212 -203.5t-295 -77.5q-99 0 -188 45t-150.5 120.5t-91.5 180.5q-19 68 -19 140q0 38 6 78zM268 539q-5 -35 -5 -69q0 -138 87 -242 q107 -130 285 -130t320.5 129.5t168.5 311.5q5 34 5 67q0 81 -30 154q-42 102 -132 161.5t-207 59.5q-178 0 -322 -130t-170 -312z" />
<glyph unicode="r" horiz-adv-x="872" d="M135 0l152 1077h135l-23 -157q102 182 320 182q49 0 93 -12.5t71.5 -30t48 -35.5t28.5 -30l9 -13l-62 -107q-4 4 -10.5 11.5t-30 26t-50 32.5t-68.5 25.5t-86 11.5q-81 0 -147.5 -55t-106 -142.5t-54.5 -195.5h-2l-82 -588h-135z" />
<glyph unicode="s" horiz-adv-x="1011" d="M82 172l92 98q6 -7 16 -19t44.5 -42.5t71.5 -53.5t93.5 -42t112.5 -19q125 0 211 52.5t100 152.5q2 12 2 24q0 27 -10 50q-14 33 -38.5 54t-64 37.5t-73.5 25t-80 16.5q-41 7 -69 13t-69.5 18t-69.5 25.5t-58.5 36t-47 49t-24.5 64.5q-5 22 -5 46q0 18 3 37 q20 139 149 223t310 84q52 0 105.5 -13t94 -31t73.5 -36.5t50 -31.5l17 -13l-72 -119q-4 5 -12.5 13t-37.5 28.5t-61 36t-82.5 28.5t-103.5 13q-116 0 -199.5 -47.5t-93.5 -122.5q-5 -35 7.5 -62t28 -43t55.5 -31t60.5 -20t72.5 -16q24 -5 36 -8q65 -14 104.5 -25t95.5 -37 t85 -57.5t47 -85.5q12 -36 11 -78q0 -22 -3 -45q-23 -158 -143.5 -241t-304.5 -83q-79 0 -152 20.5t-121 49.5t-84 57.5t-53 49.5z" />
<glyph unicode="t" horiz-adv-x="552" d="M154 954l16 123h186l50 357h133l-52 -357h187l-17 -123h-186l-135 -954h-131l133 954h-184z" />
<glyph unicode="u" horiz-adv-x="1308" d="M195 416l92 661h133l-92 -661q-5 -31 -4 -61q0 -97 51 -167q67 -90 213 -90q87 0 166 39t135 102.5t93 141.5t48 158l76 538h133l-149 -1077h-136l27 193q-160 -218 -410 -218q-219 0 -313 115q-71 87 -70 229q0 46 7 97z" />
<glyph unicode="v" horiz-adv-x="1142" d="M162 1077h155l289 -827l524 827h156l-721 -1138z" />
<glyph unicode="w" horiz-adv-x="1792" d="M170 1077h156l217 -821l510 883l256 -883l448 821h156l-637 -1138l-272 862l-517 -862z" />
<glyph unicode="x" horiz-adv-x="989" d="M0 0l494 539l-342 538h167l267 -428l385 428h170l-494 -538l342 -539h-170l-266 428l-385 -428h-168z" />
<glyph unicode="y" horiz-adv-x="989" d="M8 -588l418 707l-274 958h131l231 -811l481 811h146l-987 -1665h-146z" />
<glyph unicode="z" horiz-adv-x="1028" d="M20 0l863 954h-670l16 123h920l-862 -954h667l-16 -123h-918z" />
<glyph unicode="{" horiz-adv-x="501" d="M63 598l3 23q2 13 5 38t5 39h2l2 21q45 0 76.5 4.5t54.5 19t37 30.5t25 49.5t16.5 65t13.5 87.5l27 176q29 211 136 305t318 94l-14 -100q-289 0 -330 -299l-26 -176q-20 -145 -51 -218t-95 -104q54 -40 63.5 -130t-12.5 -224l-24 -178q-44 -299 246 -299l-13 -98 q-211 0 -292 93.5t-52 303.5l25 178q14 100 13 166t-38.5 99.5t-120.5 33.5z" />
<glyph unicode="|" horiz-adv-x="434" d="M111 -332l280 1993h123l-281 -1993h-122z" />
<glyph unicode="}" horiz-adv-x="501" d="M-98 -262l12 100q289 0 330 299l24 178q20 145 50.5 217.5t95.5 104.5q-54 40 -64 129t12 223l27 178q44 299 -246 299l15 101q210 0 290.5 -94.5t51.5 -305.5l-27 -178q-14 -100 -12.5 -166t39 -99.5t121.5 -33.5l-3 -20l-14 -101q-45 0 -76.5 -4.5t-55 -18.5t-37.5 -30 t-25 -49t-17 -65t-14 -87l-25 -178q-29 -211 -135.5 -305t-316.5 -94z" />
<glyph unicode="~" horiz-adv-x="1087" d="M233 545l19 131q77 71 139 108t104 42t76.5 -6t62 -32.5t55 -42.5t61 -30.5t74 -2t100 47.5t133.5 114l-19 -131q-74 -71 -133.5 -108t-100.5 -42t-75.5 6t-63 32.5t-57 42.5t-63 30.5t-76 2.5t-102 -47.5t-134.5 -114.5z" />
<glyph unicode="&#xa1;" horiz-adv-x="479" d="M125 -166l186 1086h76l-121 -1086h-141zM326 1423q6 39 37 67t69 28t62 -28.5t18 -66.5t-37 -65t-69 -27t-62 27t-18 65z" />
<glyph unicode="&#xa2;" horiz-adv-x="962" d="M152 487q26 183 163 323.5t318 176.5l29 209h100l-29 -199q159 0 281 -67l-19 -131q-51 41 -124.5 64.5t-151.5 23.5l-113 -799q78 0 158 23.5t143 64.5l-18 -131q-142 -68 -297 -68l-29 -198h-100l29 209q-172 36 -269 176t-71 323zM274 487q-20 -133 46 -241.5 t188 -143.5l108 770q-130 -35 -226 -143t-116 -242z" />
<glyph unicode="&#xa3;" horiz-adv-x="970" d="M20 0l17 111h188l107 753h-189l15 111h188l43 299q29 202 147.5 305.5t307.5 103.5q50 0 96.5 -12.5t77 -30.5t53.5 -36t34 -30l11 -13l-18 -129q-5 6 -13 15.5t-36 33.5t-57.5 43t-74.5 34t-90 15q-135 0 -215.5 -79t-101.5 -220l-43 -299h299l-14 -111h-299l-107 -753 h643l-16 -111h-953z" />
<glyph unicode="&#xa4;" horiz-adv-x="1193" d="M-39 -211l307 326q-66 72 -95.5 168t-14.5 204t71.5 204.5t143.5 168.5l-215 326h153l168 -254q121 65 260 65q132 0 240 -65l242 254h153l-307 -326q67 -72 96.5 -168t14.5 -205q-15 -108 -72 -205t-145 -169l217 -324h-154l-170 254q-129 -66 -258 -66q-138 0 -242 66 l-239 -254h-154zM281 487q-15 -114 27.5 -208t129.5 -146q76 -45 172 -45q97 0 185 45h2q102 52 172.5 146.5t85.5 207.5q15 114 -28.5 208.5t-131.5 146.5q-76 45 -172 45t-184 -45q-102 -52 -172.5 -147t-85.5 -208z" />
<glyph unicode="&#xa5;" horiz-adv-x="1267" d="M231 1495h144l352 -735h27l563 735h143l-563 -735h260l-12 -78h-307l-58 -74l-6 -47h354l-10 -78h-356l-68 -483h-121l68 483h-352l10 78h354l6 47l-34 74h-310l13 78h260z" />
<glyph unicode="&#xa6;" horiz-adv-x="434" d="M111 -332l108 774h123l-109 -774h-122zM283 887l108 774h123l-108 -774h-123z" />
<glyph unicode="&#xa7;" horiz-adv-x="894" d="M133 156l82 86q22 -29 50 -55t83.5 -52t116.5 -26q99 0 167.5 50t76.5 111q9 75 -46.5 127t-144.5 66q-49 9 -97 32.5t-88.5 59.5t-62 88t-14.5 111q12 74 69 135t138 86q-65 36 -107 109t-32 149q18 110 121 187t247 77q83 0 152 -32t106 -64l-55 -103q-100 95 -227 95 q-83 0 -147 -49t-72 -107q-8 -63 44 -118.5t138 -67.5q56 -8 106.5 -31.5t90 -60t59 -90t10.5 -115.5q-12 -76 -62.5 -135t-121.5 -84q60 -33 94 -105t22 -154q-17 -124 -119 -200t-251 -76q-71 0 -131 18t-99.5 46.5t-60 49.5t-35.5 42zM381 760q-8 -69 45 -129t139 -60h17 q46 3 83 21.5t59 46.5t35 56t17 55q9 79 -37.5 132.5t-136.5 53.5q-4 0 -10 1t-10 1l-2 -2q-76 -7 -133.5 -63t-65.5 -113z" />
<glyph unicode="&#xa8;" horiz-adv-x="972" d="M434 1878q6 39 36.5 66.5t68.5 27.5t61.5 -28t17.5 -66t-37 -65t-69 -27t-61 27t-17 65zM885 1878q6 39 37 66.5t69 27.5t62 -28t18 -66t-37 -65t-69 -27t-62 27t-18 65z" />
<glyph unicode="&#xa9;" horiz-adv-x="1708" d="M188 750q29 209 157.5 386.5t321 280.5t402.5 103q157 0 291 -61t222.5 -164t129.5 -245.5t19 -299.5t-103 -300t-198.5 -246.5t-269 -165t-308.5 -61.5t-291.5 61.5t-223 165t-130 246.5t-19.5 300zM367 750q-23 -167 36 -306.5t184.5 -220t289.5 -80.5t311 81t244 220 t120 306t-34.5 305.5t-182 218.5t-288.5 80t-312.5 -80t-246.5 -219t-121 -305zM600 750q23 160 151.5 272.5t288.5 112.5q113 0 205 -60l-20 -137q-82 70 -203 70q-109 0 -192.5 -74t-98.5 -184t47.5 -184t171.5 -74q123 0 221 67l-18 -137q-114 -60 -221 -60 q-160 0 -257.5 114t-74.5 274z" />
<glyph unicode="&#xaa;" horiz-adv-x="716" d="M342 1317q10 76 68 116t153 40h121l4 22q6 44 -25 72t-90 28q-93 0 -149 -43l12 86q72 35 150 35q98 0 148.5 -44t37.5 -134l-47 -321h-84l8 59q-60 -70 -141 -70q-94 0 -135.5 38.5t-30.5 115.5zM418 1317q-6 -39 20.5 -57.5t79.5 -18.5t99 37.5t53 95.5l4 27h-121 q-53 0 -91 -22.5t-44 -61.5z" />
<glyph unicode="&#xab;" horiz-adv-x="1097" d="M152 709l600 409l-21 -151l-369 -256l297 -256l-22 -154zM551 709l600 409l-21 -151l-370 -256l299 -256l-23 -154z" />
<glyph unicode="&#xac;" horiz-adv-x="1425" d="M195 633l20 153h1219q-5 -43 -68 -485h-156l47 332h-1062z" />
<glyph unicode="&#xad;" horiz-adv-x="1083" d="M303 655l14 109h666l-14 -109h-666z" />
<glyph unicode="&#xae;" horiz-adv-x="1708" d="M188 750q29 209 157.5 386.5t321 280.5t402.5 103q157 0 291 -61t222.5 -164t129.5 -245.5t19 -299.5t-103 -300t-198.5 -246.5t-269 -165t-308.5 -61.5t-291.5 61.5t-223 165t-130 246.5t-19.5 300zM367 750q-23 -167 36 -306.5t184.5 -220t289.5 -80.5t311 81t244 220 t120 306t-34.5 305.5t-182 218.5t-288.5 80t-312.5 -80t-246.5 -219t-121 -305zM659 373l107 749h283q56 0 102 -13t82.5 -41t52.5 -77.5t6 -116.5q-27 -183 -200 -231l129 -270h-138l-122 256h-138l-37 -256h-127zM840 752h155q153 0 170 122q9 64 -27 94.5t-108 30.5h-156 z" />
<glyph unicode="&#xaf;" horiz-adv-x="1093" d="M354 1772l15 108h886l-14 -108h-887z" />
<glyph unicode="&#xb0;" horiz-adv-x="1159" d="M541 1528q15 106 99.5 181t190.5 75t169.5 -75t48.5 -181t-99 -180t-190 -74t-170 74t-49 180zM666 1528q-8 -56 24 -94.5t86 -38.5t97.5 39t50.5 94q8 56 -23.5 94.5t-85.5 38.5t-98 -39t-51 -94z" />
<glyph unicode="&#xb1;" horiz-adv-x="1093" d="M104 0l17 109h887l-17 -109h-887zM203 700l16 109h383l53 385h121l-53 -385h383l-16 -109h-383l-52 -368h-120l51 368h-383z" />
<glyph unicode="&#xb4;" horiz-adv-x="387" d="M219 1559l195 434h254z" />
<glyph unicode="&#xb5;" horiz-adv-x="1208" d="M129 -399l190 1351h123l-102 -716q34 -52 100.5 -86t141.5 -39q143 9 254 111.5t139 242.5l69 487h121l-131 -929h-121l35 247q-56 -111 -159 -187t-224 -83q-75 4 -139.5 37t-99.5 84l-74 -520h-123z" />
<glyph unicode="&#xb6;" horiz-adv-x="1191" d="M309 1151q19 138 103.5 255.5t211.5 186t265 68.5h432l-234 -1661h-143l211 1505h-143l-211 -1505h-146l90 643q-138 0 -245.5 68t-158.5 185t-32 255zM475 1151q-21 -144 64 -249t229 -105l98 708q-144 0 -257 -104.5t-134 -249.5z" />
<glyph unicode="&#xb7;" horiz-adv-x="522" d="M240 647q6 47 44 81t85 34t76.5 -34t23.5 -81t-45 -81t-86 -34t-75.5 34t-22.5 81z" />
<glyph unicode="&#xb8;" horiz-adv-x="485" d="M-18 -442l206 387h144l-277 -387h-73z" />
<glyph unicode="&#xba;" horiz-adv-x="821" d="M365 1473q15 106 99.5 181t190.5 75t170 -75t49 -181t-99.5 -180t-190.5 -74t-170 74t-49 180zM449 1473q-11 -73 30.5 -125t114.5 -52t129.5 52t67.5 125t-32 125.5t-116 52.5q-72 0 -127.5 -52.5t-66.5 -125.5z" />
<glyph unicode="&#xbb;" horiz-adv-x="1097" d="M94 301l23 154l368 258l-297 254l21 151l485 -407zM494 301l22 154l369 258l-297 254l20 151l486 -407z" />
<glyph unicode="&#xbf;" horiz-adv-x="1028" d="M90 -109q26 191 171 334.5t335 169.5l51 260h98l-16 -376q-20 10 -94 10q-32 0 -62 -6q-132 -25 -237 -138t-125 -254q-23 -161 74 -280t258 -119q179 0 303 98l-21 -141q-140 -67 -299 -67q-103 0 -191.5 40.5t-147 108.5t-85 162t-12.5 198zM639 993q6 39 37 66.5 t69 27.5t62 -28t18 -66t-36 -65t-68 -27q-39 0 -63.5 27t-18.5 65z" />
<glyph unicode="&#xc0;" horiz-adv-x="1288" d="M20 0l840 1550l406 -1550h-140l-122 479h-588l-256 -479h-140zM479 598h496l-160 627zM596 2118h254l72 -435z" />
<glyph unicode="&#xc1;" horiz-adv-x="1288" d="M20 0l840 1550l406 -1550h-140l-122 479h-588l-256 -479h-140zM479 598h496l-160 627zM922 1683l194 435h254z" />
<glyph unicode="&#xc2;" horiz-adv-x="1288" d="M20 0l840 1550l406 -1550h-140l-122 479h-588l-256 -479h-140zM479 598h496l-160 627zM625 1683l354 435l231 -435h-141l-121 232l-180 -232h-143z" />
<glyph unicode="&#xc3;" horiz-adv-x="1288" d="M20 0l840 1550l406 -1550h-140l-122 479h-588l-256 -479h-140zM479 598h496l-160 627zM528 1706l19 131q77 71 139 108t104 42t76.5 -6t62 -32l55 -42t61 -30.5t74 -2.5t100 47.5t133.5 114.5l-19 -131q-74 -71 -133.5 -108t-100.5 -42t-75.5 6t-63 32l-57 42t-63 30.5 t-76 2.5t-102 -47.5t-134.5 -114.5z" />
<glyph unicode="&#xc4;" horiz-adv-x="1288" d="M20 0l840 1550l406 -1550h-140l-122 479h-588l-256 -479h-140zM479 598h496l-160 627zM608 1776q6 39 36.5 66.5t68.5 27.5t62 -28t18 -66t-37.5 -65.5t-69.5 -27.5t-61 27.5t-17 65.5zM1059 1776q6 39 37 66.5t69 27.5t62 -28t18 -66t-37 -65.5t-69 -27.5t-62 27.5 t-18 65.5z" />
<glyph unicode="&#xc5;" horiz-adv-x="1288" d="M20 0l832 1536q-94 11 -147.5 82.5t-40.5 169.5q15 106 99.5 181t190.5 75q105 0 168.5 -75t48.5 -181t-98.5 -180t-189.5 -74h-19l402 -1534h-140l-122 479h-588l-256 -479h-140zM479 598h496l-160 627zM788 1788q-8 -56 24.5 -94.5t86.5 -38.5t97.5 39t50.5 94 q8 56 -23.5 94.5t-85.5 38.5t-98.5 -39t-51.5 -94z" />
<glyph unicode="&#xc6;" horiz-adv-x="1812" d="M33 23l948 1450h1057l-15 -111h-757l-76 -543h534l-14 -110h-536l-80 -576h755l-14 -110h-877l66 464h-555l-309 -464h-127zM539 598h499l109 764h-111z" />
<glyph unicode="&#xc7;" horiz-adv-x="1402" d="M164 750q29 209 157.5 386.5t320.5 280.5t402 103q224 0 410 -119l-20 -148q-157 136 -408 136q-175 0 -332 -84t-260.5 -231t-128.5 -324q-19 -133 13.5 -252t104 -204t182 -135t241.5 -50q250 0 444 135l-20 -148q-188 -104 -400 -116l-268 -375h-74l203 379 q-184 23 -323.5 130t-205 275t-38.5 361z" />
<glyph unicode="&#xc8;" horiz-adv-x="1142" d="M135 0l211 1495h897l-16 -119h-766l-78 -553h545l-17 -118h-544l-84 -586h768l-19 -119h-897zM631 2085h254l71 -434z" />
<glyph unicode="&#xc9;" horiz-adv-x="1142" d="M135 0l211 1495h897l-16 -119h-766l-78 -553h545l-17 -118h-544l-84 -586h768l-19 -119h-897zM735 1651l195 434h254z" />
<glyph unicode="&#xca;" horiz-adv-x="1142" d="M135 0l211 1495h897l-16 -119h-766l-78 -553h545l-17 -118h-544l-84 -586h768l-19 -119h-897zM549 1653l354 434l232 -434h-142l-119 231l-182 -231h-143z" />
<glyph unicode="&#xcb;" horiz-adv-x="1142" d="M135 0l211 1495h897l-16 -119h-766l-78 -553h545l-17 -118h-544l-84 -586h768l-19 -119h-897zM535 1745q6 39 36 66.5t68 27.5t62 -28t18 -66t-37.5 -65t-69.5 -27t-60.5 27t-16.5 65zM985 1745q6 38 37.5 66t69.5 28t61.5 -28t17.5 -66t-37 -65t-69 -27t-62 27t-18 65z " />
<glyph unicode="&#xcc;" horiz-adv-x="458" d="M152 2085h254l71 -434zM156 0l211 1495h131l-211 -1495h-131z" />
<glyph unicode="&#xcd;" horiz-adv-x="458" d="M156 0l211 1495h131l-211 -1495h-131zM479 1651l195 434h254z" />
<glyph unicode="&#xce;" horiz-adv-x="458" d="M156 0l211 1495h131l-211 -1495h-131zM180 1653l355 434l231 -434h-141l-119 231l-182 -231h-144z" />
<glyph unicode="&#xcf;" horiz-adv-x="458" d="M156 0l211 1495h131l-211 -1495h-131zM166 1745q6 39 36 66.5t68 27.5t62 -28t18 -66t-37 -65t-69 -27t-61 27t-17 65zM616 1745q6 38 37.5 66t69.5 28t62 -28t18 -66t-37.5 -65t-69.5 -27t-62 27t-18 65z" />
<glyph unicode="&#xd0;" horiz-adv-x="1390" d="M98 698l13 88h165l97 687h444q141 -4 261.5 -61.5t201 -152.5t117.5 -228t16 -281q-28 -199 -145.5 -364t-290.5 -260.5t-363 -102.5h-444l94 675h-166zM307 143h322q243 8 428.5 179.5t222.5 427.5q18 126 -10.5 237t-94 189.5t-163 125t-213.5 50.5h-322l-80 -566h420 l-12 -88h-420z" />
<glyph unicode="&#xd1;" horiz-adv-x="1501" d="M156 0q30 216 103.5 740.5t113.5 809.5l872 -1241l166 1186h129q-27 -191 -101.5 -725.5t-117.5 -824.5l-868 1239l-166 -1184h-131zM629 1706l18 131q77 71 139 108t104 42t76.5 -6t62 -32l55 -42t61 -30.5t74 -2.5t100 47.5t133.5 114.5l-18 -131q-74 -71 -133.5 -108 t-100.5 -42t-75.5 6t-63 32l-57 42t-63 30.5t-76 2.5t-102 -47.5t-134.5 -114.5z" />
<glyph unicode="&#xd2;" horiz-adv-x="1665" d="M164 750q29 209 157.5 386.5t320.5 280.5t402 103q157 0 291 -61t222.5 -164t129.5 -245.5t19 -299.5t-103 -300t-198.5 -246.5t-269 -165t-308.5 -61.5t-291 61.5t-223 165t-130 246.5t-19 300zM305 750q-24 -174 39.5 -321.5t197 -233.5t304.5 -86t328 86t262 233.5 t129 321.5t-39 321t-196 232.5t-304 85.5t-328.5 -85t-263 -232.5t-129.5 -321.5zM737 2085h254l72 -434z" />
<glyph unicode="&#xd3;" horiz-adv-x="1665" d="M164 750q29 209 157.5 386.5t320.5 280.5t402 103q157 0 291 -61t222.5 -164t129.5 -245.5t19 -299.5t-103 -300t-198.5 -246.5t-269 -165t-308.5 -61.5t-291 61.5t-223 165t-130 246.5t-19 300zM305 750q-24 -174 39.5 -321.5t197 -233.5t304.5 -86t328 86t262 233.5 t129 321.5t-39 321t-196 232.5t-304 85.5t-328.5 -85t-263 -232.5t-129.5 -321.5zM1065 1651l195 434h253z" />
<glyph unicode="&#xd4;" horiz-adv-x="1665" d="M164 750q29 209 157.5 386.5t320.5 280.5t402 103q157 0 291 -61t222.5 -164t129.5 -245.5t19 -299.5t-103 -300t-198.5 -246.5t-269 -165t-308.5 -61.5t-291 61.5t-223 165t-130 246.5t-19 300zM305 750q-24 -174 39.5 -321.5t197 -233.5t304.5 -86t328 86t262 233.5 t129 321.5t-39 321t-196 232.5t-304 85.5t-328.5 -85t-263 -232.5t-129.5 -321.5zM766 1653l354 434l232 -434h-142l-118 231l-183 -231h-143z" />
<glyph unicode="&#xd5;" horiz-adv-x="1665" d="M164 750q29 209 157.5 386.5t320.5 280.5t402 103q157 0 291 -61t222.5 -164t129.5 -245.5t19 -299.5t-103 -300t-198.5 -246.5t-269 -165t-308.5 -61.5t-291 61.5t-223 165t-130 246.5t-19 300zM305 750q-24 -174 39.5 -321.5t197 -233.5t304.5 -86t328 86t262 233.5 t129 321.5t-39 321t-196 232.5t-304 85.5t-328.5 -85t-263 -232.5t-129.5 -321.5zM672 1675l18 131q77 71 139 108t104 42t76.5 -6t62 -32l55 -42t61 -30.5t74 -2.5t100 47.5t133.5 114.5l-18 -131q-74 -71 -133.5 -108t-100.5 -42t-75.5 6t-63 32l-57 42t-63 30.5t-76 2.5 t-102 -47.5t-134.5 -114.5z" />
<glyph unicode="&#xd6;" horiz-adv-x="1665" d="M164 750q29 209 157.5 386.5t320.5 280.5t402 103q157 0 291 -61t222.5 -164t129.5 -245.5t19 -299.5t-103 -300t-198.5 -246.5t-269 -165t-308.5 -61.5t-291 61.5t-223 165t-130 246.5t-19 300zM305 750q-24 -174 39.5 -321.5t197 -233.5t304.5 -86t328 86t262 233.5 t129 321.5t-39 321t-196 232.5t-304 85.5t-328.5 -85t-263 -232.5t-129.5 -321.5zM752 1745q6 39 36 66.5t68 27.5t62 -28t18 -66t-37.5 -65t-69.5 -27t-60.5 27t-16.5 65zM1202 1745q6 38 37.5 66t69.5 28t62 -28t18 -66t-37.5 -65t-69.5 -27t-62 27t-18 65z" />
<glyph unicode="&#xd7;" horiz-adv-x="1251" d="M205 332l448 432l-327 432h163l259 -340l354 340h164l-449 -432l328 -432h-164l-258 340l-354 -340h-164z" />
<glyph unicode="&#xd8;" horiz-adv-x="1708" d="M188 750q29 209 157.5 386.5t321 280.5t402.5 103q71 0 158 -17l65 158h123l-78 -191q208 -84 317.5 -280t76.5 -440q-22 -157 -103 -300t-198.5 -246.5t-269 -165t-308.5 -61.5q-50 0 -125 11l-86 -209h-123l98 237q-223 78 -343 279.5t-85 454.5zM322 750 q-30 -209 66.5 -377.5t277.5 -235.5l512 1247q-67 13 -125 13q-173 0 -332.5 -86.5t-266.5 -235.5t-132 -325zM776 109q70 -9 94 -9q173 0 331.5 87t264.5 237t131 326q29 201 -57.5 364t-253.5 236z" />
<glyph unicode="&#xd9;" horiz-adv-x="1394" d="M211 526l135 969h131l-135 -967q-25 -175 82 -300.5t281 -125.5t316 125.5t167 300.5l135 967h131l-135 -969q-21 -149 -114 -275.5t-231.5 -200t-287.5 -73.5t-266 73.5t-173.5 200t-35.5 275.5zM598 2085h254l72 -434z" />
<glyph unicode="&#xda;" horiz-adv-x="1394" d="M211 526l135 969h131l-135 -967q-25 -175 82 -300.5t281 -125.5t316 125.5t167 300.5l135 967h131l-135 -969q-21 -149 -114 -275.5t-231.5 -200t-287.5 -73.5t-266 73.5t-173.5 200t-35.5 275.5zM924 1651l194 434h254z" />
<glyph unicode="&#xdb;" horiz-adv-x="1394" d="M211 526l135 969h131l-135 -967q-25 -175 82 -300.5t281 -125.5t316 125.5t167 300.5l135 967h131l-135 -969q-21 -149 -114 -275.5t-231.5 -200t-287.5 -73.5t-266 73.5t-173.5 200t-35.5 275.5zM627 1653l354 434l231 -434h-141l-119 231l-182 -231h-143z" />
<glyph unicode="&#xdc;" horiz-adv-x="1394" d="M211 526l135 969h131l-135 -967q-25 -175 82 -300.5t281 -125.5t316 125.5t167 300.5l135 967h131l-135 -969q-21 -149 -114 -275.5t-231.5 -200t-287.5 -73.5t-266 73.5t-173.5 200t-35.5 275.5zM612 1745q6 39 36.5 66.5t68.5 27.5t62 -28t18 -66t-37.5 -65t-69.5 -27 t-61 27t-17 65zM1063 1745q6 39 37 66.5t69 27.5t62 -28t18 -66t-37 -65t-69 -27t-62 27t-18 65z" />
<glyph unicode="&#xdd;" horiz-adv-x="1269" d="M229 1495h152l354 -758l572 758h151l-678 -897l-84 -598h-127l82 594zM866 1651l195 434h254z" />
<glyph unicode="&#xde;" horiz-adv-x="1030" d="M160 23l205 1450h122l-36 -254h268l-17 -111h-266l-96 -674h268q126 8 216.5 98.5t111.5 237.5t-45 237.5t-189 98.5l17 113q178 -8 272 -130t66 -319q-27 -197 -156 -317.5t-309 -128.5h-266l-43 -301h-123z" />
<glyph unicode="&#xe0;" horiz-adv-x="1409" d="M143 541q21 150 114 281t224 206.5t264 75.5q167 0 274 -78t155 -205l36 256h136l-152 -1077h-135l37 258q-82 -126 -212 -203.5t-296 -77.5q-99 0 -188.5 45t-151 120.5t-91.5 180.5t-14 218zM279 539q-26 -182 81 -311.5t285 -129.5t321 129.5t169 311.5v4 q16 118 -26 219t-132 160t-207 59q-178 0 -321.5 -130t-169.5 -312zM469 1595h254l72 -434z" />
<glyph unicode="&#xe1;" horiz-adv-x="1409" d="M143 541q21 150 114 281t224 206.5t264 75.5q167 0 274 -78t155 -205l36 256h136l-152 -1077h-135l37 258q-82 -126 -212 -203.5t-296 -77.5q-99 0 -188.5 45t-151 120.5t-91.5 180.5t-14 218zM279 539q-26 -182 81 -311.5t285 -129.5t321 129.5t169 311.5v4 q16 118 -26 219t-132 160t-207 59q-178 0 -321.5 -130t-169.5 -312zM465 1128l194 435h254z" />
<glyph unicode="&#xe2;" horiz-adv-x="1409" d="M143 541q21 150 114 281t224 206.5t264 75.5q167 0 274 -78t155 -205l36 256h136l-152 -1077h-135l37 258q-82 -126 -212 -203.5t-296 -77.5q-99 0 -188.5 45t-151 120.5t-91.5 180.5t-14 218zM279 539q-26 -182 81 -311.5t285 -129.5t321 129.5t169 311.5v4 q16 118 -26 219t-132 160t-207 59q-178 0 -321.5 -130t-169.5 -312zM385 1174l354 434l232 -434h-142l-120 231l-181 -231h-143z" />
<glyph unicode="&#xe3;" horiz-adv-x="1409" d="M143 541q21 150 114 281t224 206.5t264 75.5q167 0 274 -78t155 -205l36 256h136l-152 -1077h-135l37 258q-82 -126 -212 -203.5t-296 -77.5q-99 0 -188.5 45t-151 120.5t-91.5 180.5t-14 218zM260 1225l19 131q77 71 139 108t104 42t76.5 -6t62 -32.5t54.5 -42.5 t60.5 -30.5t74 -2t100 47.5t133.5 114l-18 -131q-74 -71 -133.5 -108t-100.5 -42t-75.5 6t-63 32.5t-57 42.5t-63 30.5t-76 2.5t-102 -47.5t-134.5 -114.5zM279 539q-26 -182 81 -311.5t285 -129.5t321 129.5t169 311.5v4q16 118 -26 219t-132 160t-207 59 q-178 0 -321.5 -130t-169.5 -312z" />
<glyph unicode="&#xe4;" horiz-adv-x="1409" d="M143 541q21 150 114 281t224 206.5t264 75.5q167 0 274 -78t155 -205l36 256h136l-152 -1077h-135l37 258q-82 -126 -212 -203.5t-296 -77.5q-99 0 -188.5 45t-151 120.5t-91.5 180.5t-14 218zM279 539q-26 -182 81 -311.5t285 -129.5t321 129.5t169 311.5v4 q16 118 -26 219t-132 160t-207 59q-178 0 -321.5 -130t-169.5 -312zM399 1374q6 39 36.5 66.5t68.5 27.5t62 -28t18 -66t-37.5 -65t-69.5 -27t-61 27t-17 65zM850 1374q6 39 37 66.5t69 27.5t62 -28t18 -66t-37 -65t-69 -27t-62 27t-18 65z" />
<glyph unicode="&#xe5;" horiz-adv-x="1409" d="M143 541q21 150 114 281t224 206.5t264 75.5q167 0 274 -78t155 -205l36 256h136l-152 -1077h-135l37 258q-82 -126 -212 -203.5t-296 -77.5q-99 0 -188.5 45t-151 120.5t-91.5 180.5t-14 218zM279 539q-26 -182 81 -311.5t285 -129.5t321 129.5t169 311.5v4 q16 118 -26 219t-132 160t-207 59q-178 0 -321.5 -130t-169.5 -312zM467 1458q15 106 100 181t191 75q105 0 168.5 -75t48.5 -181t-99 -180t-190 -74t-170 74t-49 180zM592 1458q-8 -56 24 -94.5t86 -38.5t97.5 39t50.5 94q8 56 -23.5 94.5t-85.5 38.5t-98 -39t-51 -94z" />
<glyph unicode="&#xe6;" horiz-adv-x="1910" d="M123 276q20 146 127.5 222.5t286.5 76.5h254l10 72q14 105 -48.5 172.5t-181.5 67.5q-159 0 -272 -66l16 117q136 59 271 59q139 0 211 -49t84 -153l6 -50l33 43q74 98 177 153.5t220 55.5q128 0 223.5 -68t138.5 -185.5t23 -258.5q0 -2 -1 -6t-1 -6h-807l-2 -27 q-8 -150 76 -254t223 -104q85 0 169.5 29t151.5 86l48 -82q-90 -67 -190 -105.5t-195 -38.5q-125 0 -217 65t-134 175l-16 41l-25 -45q-51 -102 -147 -169t-205 -67q-177 0 -252 75t-55 224zM233 276q-13 -94 46.5 -141t166.5 -47q109 0 205 85.5t115 219.5l12 84h-254 q-108 0 -193 -53.5t-98 -147.5zM920 598h669l-4 29q-16 114 -91 187t-191 73q-117 0 -217.5 -73t-151.5 -187z" />
<glyph unicode="&#xe7;" horiz-adv-x="1110" d="M143 539q21 152 115.5 282t235 205.5t292.5 75.5q171 0 310 -74l-21 -145q-57 46 -138 72t-167 26q-178 0 -322 -131.5t-169 -310.5q-16 -117 26 -218t132.5 -162t207.5 -61q87 0 176 26t158 71l-21 -146q-157 -74 -329 -74h-23l-266 -370h-74l207 387h23 q-180 46 -280.5 199t-72.5 348z" />
<glyph unicode="&#xe8;" d="M143 539q21 152 115.5 282t235 205.5t292.5 75.5q151 0 264.5 -76t164.5 -205t30 -282q-5 -36 -8 -50h-977q-3 -163 108 -277t277 -114q98 0 210 46t185 116l56 -106q-100 -83 -223 -131t-244 -48q-152 0 -271.5 76t-177.5 206t-37 282zM281 610h831q0 159 -92.5 265 t-249.5 106q-159 0 -299 -107.5t-190 -263.5zM514 1563h254l72 -435z" />
<glyph unicode="&#xe9;" d="M143 539q21 152 115.5 282t235 205.5t292.5 75.5q151 0 264.5 -76t164.5 -205t30 -282q-5 -36 -8 -50h-977q-3 -163 108 -277t277 -114q98 0 210 46t185 116l56 -106q-100 -83 -223 -131t-244 -48q-152 0 -271.5 76t-177.5 206t-37 282zM281 610h831q0 159 -92.5 265 t-249.5 106q-159 0 -299 -107.5t-190 -263.5zM618 1128l195 435h254z" />
<glyph unicode="&#xea;" d="M143 539q21 152 115.5 282t235 205.5t292.5 75.5q151 0 264.5 -76t164.5 -205t30 -282q-5 -36 -8 -50h-977q-3 -163 108 -277t277 -114q98 0 210 46t185 116l56 -106q-100 -83 -223 -131t-244 -48q-152 0 -271.5 76t-177.5 206t-37 282zM281 610h831q0 159 -92.5 265 t-249.5 106q-159 0 -299 -107.5t-190 -263.5zM432 1128l354 435l232 -435h-141l-119 232l-183 -232h-143z" />
<glyph unicode="&#xeb;" d="M143 539q21 152 115.5 282t235 205.5t292.5 75.5q151 0 264.5 -76t164.5 -205t30 -282q-5 -36 -8 -50h-977q-3 -163 108 -277t277 -114q98 0 210 46t185 116l56 -106q-100 -83 -223 -131t-244 -48q-152 0 -271.5 76t-177.5 206t-37 282zM281 610h831q0 159 -92.5 265 t-249.5 106q-159 0 -299 -107.5t-190 -263.5zM418 1223q6 39 36 66.5t68 27.5t62 -28t18 -66t-37 -65.5t-69 -27.5t-61 27.5t-17 65.5zM868 1223q6 38 37.5 66t69.5 28t62 -28t18 -66t-37.5 -65.5t-69.5 -27.5t-62 27.5t-18 65.5z" />
<glyph unicode="&#xec;" horiz-adv-x="495" d="M100 1696h254l72 -434zM188 0l138 975h118l-137 -975h-119z" />
<glyph unicode="&#xed;" horiz-adv-x="495" d="M188 0l138 975h118l-137 -975h-119zM426 1262l195 434h253z" />
<glyph unicode="&#xee;" horiz-adv-x="495" d="M129 1262l354 434l232 -434h-142l-120 231l-181 -231h-143zM188 0l138 975l118 4l-137 -975z" />
<glyph unicode="&#xef;" horiz-adv-x="495" d="M106 1311q6 39 36.5 66.5t68.5 27.5t62 -28t18 -66t-37.5 -65t-69.5 -27t-61 27t-17 65zM188 0l138 975h118l-137 -975h-119zM557 1311q6 38 37.5 66t69.5 28t61.5 -28t17.5 -66t-37 -65t-69 -27t-62 27t-18 65z" />
<glyph unicode="&#xf0;" horiz-adv-x="1175" d="M152 487q14 103 65.5 198t125 163t165.5 108.5t184 40.5q192 0 269 -163l51 -93l-8 109q-10 206 -117 418l-412 -56l8 64l373 49l-22 31q-115 178 -289 305h135q18 -11 42.5 -29t68 -55.5t91.5 -96.5t87 -128l4 -11l325 39l-10 -63l-284 -35l14 -29q132 -285 80 -655 q-20 -145 -74 -264t-129 -196t-164 -119t-182 -42q-92 0 -172.5 40.5t-134.5 108.5t-79 163t-11 198zM274 487q-23 -160 63 -279.5t228 -119.5q141 0 256.5 118.5t139.5 280.5q23 161 -59.5 280.5t-223.5 119.5q-93 0 -181 -55.5t-148 -147.5t-75 -197z" />
<glyph unicode="&#xf1;" horiz-adv-x="1331" d="M135 0l152 1077h135l-33 -235q140 260 455 260q192 0 280.5 -116.5t59.5 -323.5l-94 -662h-136l95 662q20 137 -48.5 228t-214.5 91q-87 0 -165.5 -39t-134 -103t-92.5 -142t-48 -158l-76 -539h-135zM344 1151l18 131q77 71 139 108t104 42t76.5 -6t62 -32l55 -42 t61 -30.5t74 -2.5t100 47.5t133.5 114.5l-18 -131q-74 -71 -133.5 -108t-100.5 -42t-75.5 6t-63 32l-57 42t-63 30.5t-76 2.5t-102 -47.5t-134.5 -114.5z" />
<glyph unicode="&#xf2;" d="M133 539q21 152 115.5 282t235 205.5t292.5 75.5q114 0 211.5 -45t162.5 -120.5t95.5 -179.5t14.5 -218q-21 -152 -115 -282t-234.5 -206t-292.5 -76q-114 0 -212 45t-163 121t-95.5 180t-14.5 218zM268 539q-26 -182 81.5 -311.5t285.5 -129.5t320.5 129.5t168.5 311.5 q17 119 -25 221t-132 161.5t-207 59.5q-178 0 -322 -130t-170 -312zM393 1563h254l72 -435z" />
<glyph unicode="&#xf3;" d="M133 539q21 152 115.5 282t235 205.5t292.5 75.5q114 0 211.5 -45t162.5 -120.5t95.5 -179.5t14.5 -218q-21 -152 -115 -282t-234.5 -206t-292.5 -76q-114 0 -212 45t-163 121t-95.5 180t-14.5 218zM268 539q-26 -182 81.5 -311.5t285.5 -129.5t320.5 129.5t168.5 311.5 q17 119 -25 221t-132 161.5t-207 59.5q-178 0 -322 -130t-170 -312zM719 1128l194 435h254z" />
<glyph unicode="&#xf4;" d="M133 539q21 152 115.5 282t235 205.5t292.5 75.5q114 0 211.5 -45t162.5 -120.5t95.5 -179.5t14.5 -218q-21 -152 -115 -282t-234.5 -206t-292.5 -76q-114 0 -212 45t-163 121t-95.5 180t-14.5 218zM268 539q-26 -182 81.5 -311.5t285.5 -129.5t320.5 129.5t168.5 311.5 q17 119 -25 221t-132 161.5t-207 59.5q-178 0 -322 -130t-170 -312zM422 1128l354 435l232 -435h-142l-118 232l-183 -232h-143z" />
<glyph unicode="&#xf5;" d="M133 539q21 152 115.5 282t235 205.5t292.5 75.5q114 0 211.5 -45t162.5 -120.5t95.5 -179.5t14.5 -218q-21 -152 -115 -282t-234.5 -206t-292.5 -76q-114 0 -212 45t-163 121t-95.5 180t-14.5 218zM268 539q-26 -182 81.5 -311.5t285.5 -129.5t320.5 129.5t168.5 311.5 q17 119 -25 221t-132 161.5t-207 59.5q-178 0 -322 -130t-170 -312zM328 1151l18 131q77 71 139 108t104 42t76.5 -6t62 -32l55 -42t61 -30.5t74 -2.5t100 47.5t133.5 114.5l-18 -131q-74 -71 -133.5 -108t-100.5 -42t-75.5 6t-63 32l-57 42t-63 30.5t-76 2.5t-102 -47.5 t-134.5 -114.5z" />
<glyph unicode="&#xf6;" d="M133 539q21 152 115.5 282t235 205.5t292.5 75.5q114 0 211.5 -45t162.5 -120.5t95.5 -179.5t14.5 -218q-21 -152 -115 -282t-234.5 -206t-292.5 -76q-114 0 -212 45t-163 121t-95.5 180t-14.5 218zM268 539q-26 -182 81.5 -311.5t285.5 -129.5t320.5 129.5t168.5 311.5 q17 119 -25 221t-132 161.5t-207 59.5q-178 0 -322 -130t-170 -312zM408 1223q6 39 36 66.5t68 27.5t62 -28t18 -66t-37.5 -65.5t-69.5 -27.5t-60.5 27.5t-16.5 65.5zM858 1223q6 38 37.5 66t69.5 28t61.5 -28t17.5 -66t-37 -65.5t-69 -27.5t-62 27.5t-18 65.5z" />
<glyph unicode="&#xf7;" horiz-adv-x="1093" d="M197 655l16 109h887l-17 -109h-886zM502 324q6 38 36 65t68 27q39 0 63.5 -27t18.5 -65t-38 -66.5t-70 -28.5t-61 28.5t-17 66.5zM608 1096q6 38 37.5 66t69.5 28t62 -28t18 -66t-37.5 -65t-69.5 -27t-62 27t-18 65z" />
<glyph unicode="&#xf8;" horiz-adv-x="1183" d="M152 487q19 138 104 255.5t212 186t265 68.5q39 0 76 -6l86 205h121l-98 -235q134 -58 204 -187t49 -287q-19 -138 -104 -255.5t-212 -186t-265 -68.5q-37 0 -84 7l-86 -205h-123l100 239q-131 59 -198.5 186t-46.5 283zM274 487q-17 -116 30 -212.5t140 -147.5l320 758 q-14 2 -45 2q-106 0 -203 -54t-162 -146t-80 -200zM551 92q36 -4 55 -4q106 0 202.5 53.5t161 145.5t79.5 200q17 120 -32.5 219.5t-146.5 145.5z" />
<glyph unicode="&#xf9;" horiz-adv-x="1329" d="M195 416l92 661h133l-92 -661q-20 -137 47 -227.5t213 -90.5q87 0 166 39t135 102.5t93 141.5t48 158l76 538h133l-149 -1077h-136l27 193q-160 -218 -410 -218q-219 0 -312.5 115t-63.5 326zM412 1563h254l71 -435z" />
<glyph unicode="&#xfa;" horiz-adv-x="1329" d="M195 416l92 661h133l-92 -661q-20 -137 47 -227.5t213 -90.5q87 0 166 39t135 102.5t93 141.5t48 158l76 538h133l-149 -1077h-136l27 193q-160 -218 -410 -218q-219 0 -312.5 115t-63.5 326zM737 1128l195 435h254z" />
<glyph unicode="&#xfb;" horiz-adv-x="1329" d="M195 416l92 661h133l-92 -661q-20 -137 47 -227.5t213 -90.5q87 0 166 39t135 102.5t93 141.5t48 158l76 538h133l-149 -1077h-136l27 193q-160 -218 -410 -218q-219 0 -312.5 115t-63.5 326zM440 1128l355 435l231 -435h-141l-119 232l-182 -232h-144z" />
<glyph unicode="&#xfc;" horiz-adv-x="1329" d="M195 416l92 661h133l-92 -661q-20 -137 47 -227.5t213 -90.5q87 0 166 39t135 102.5t93 141.5t48 158l76 538h133l-149 -1077h-136l27 193q-160 -218 -410 -218q-219 0 -312.5 115t-63.5 326zM426 1223q6 39 36 66.5t68 27.5t62 -28t18 -66t-37 -65.5t-69 -27.5t-61 27.5 t-17 65.5zM877 1223q6 39 37 66.5t69 27.5t62 -28t18 -66t-37.5 -65.5t-69.5 -27.5t-61.5 27.5t-17.5 65.5z" />
<glyph unicode="&#xfd;" horiz-adv-x="989" d="M8 -588l418 707l-274 958h131l231 -811l481 811h146l-987 -1665h-146zM625 1128l194 435h254z" />
<glyph unicode="&#xfe;" horiz-adv-x="1169" d="M98 -420l293 2081h123l-129 -924q62 121 159 190.5t218 69.5q122 0 219.5 -68t145 -186t28.5 -256q-19 -137 -100 -255.5t-198 -186.5t-239 -68q-121 0 -199.5 70t-105.5 191l-92 -658h-123zM348 487q-23 -160 62.5 -279.5t224.5 -119.5q91 0 178 55t146.5 147t74.5 197 q23 160 -62 280t-224 120q-91 0 -178 -55t-147 -147.5t-75 -197.5z" />
<glyph unicode="&#xff;" horiz-adv-x="989" d="M8 -588l418 707l-274 958h131l231 -811l481 811h146l-987 -1665h-146zM313 1223q6 39 36.5 66.5t68.5 27.5t62 -28t18 -66t-37.5 -65.5t-69.5 -27.5t-61 27.5t-17 65.5zM764 1223q6 39 37 66.5t69 27.5t62 -28t18 -66t-37 -65.5t-69 -27.5t-62 27.5t-18 65.5z" />
<glyph unicode="&#x2000;" horiz-adv-x="1059" />
<glyph unicode="&#x2001;" horiz-adv-x="2118" />
<glyph unicode="&#x2002;" horiz-adv-x="1059" />
<glyph unicode="&#x2003;" horiz-adv-x="2118" />
<glyph unicode="&#x2004;" horiz-adv-x="706" />
<glyph unicode="&#x2005;" horiz-adv-x="529" />
<glyph unicode="&#x2006;" horiz-adv-x="353" />
<glyph unicode="&#x2007;" horiz-adv-x="353" />
<glyph unicode="&#x2008;" horiz-adv-x="264" />
<glyph unicode="&#x2009;" horiz-adv-x="423" />
<glyph unicode="&#x200a;" horiz-adv-x="117" />
<glyph unicode="&#x2010;" horiz-adv-x="862" d="M303 655l14 109h443l-15 -109h-442z" />
<glyph unicode="&#x2011;" horiz-adv-x="862" d="M303 655l14 109h443l-15 -109h-442z" />
<glyph unicode="&#x2012;" horiz-adv-x="862" d="M303 655l14 109h443l-15 -109h-442z" />
<glyph unicode="&#x2013;" horiz-adv-x="1429" d="M303 655l31 109h993l-34 -109h-990z" />
<glyph unicode="&#x2014;" horiz-adv-x="2453" d="M303 655l63 109h1985l-67 -109h-1981z" />
<glyph unicode="&#x2018;" horiz-adv-x="329" d="M193 1204l284 434h74l-215 -434h-143z" />
<glyph unicode="&#x2019;" horiz-adv-x="329" d="M178 1204l215 434h144l-285 -434h-74z" />
<glyph unicode="&#x201c;" horiz-adv-x="653" d="M276 1204l285 434h74l-215 -434h-144zM518 1204l285 434h74l-215 -434h-144z" />
<glyph unicode="&#x201d;" horiz-adv-x="653" d="M197 1204l215 434h143l-285 -434h-73zM438 1204l215 434h144l-285 -434h-74z" />
<glyph unicode="&#x202f;" horiz-adv-x="423" />
<glyph unicode="&#x205f;" horiz-adv-x="529" />
<glyph unicode="&#x25fc;" horiz-adv-x="1075" d="M0 0v1075h1075v-1075h-1075z" />
</font>
</defs>
</svg>
