<?xml version="1.0" standalone="no"?>
<!DOCTYPE svg PUBLIC "-//W3C//DTD SVG 1.1//EN" "http://www.w3.org/Graphics/SVG/1.1/DTD/svg11.dtd" >
<svg xmlns="http://www.w3.org/2000/svg">
<metadata></metadata>
<defs>
<font id="rennerbook-italic" horiz-adv-x="1105" >
<font-face units-per-em="2048" ascent="1638" descent="-410" />
<missing-glyph horiz-adv-x="512" />
<glyph horiz-adv-x="0" />
<glyph horiz-adv-x="682" />
<glyph unicode=" "  horiz-adv-x="512" />
<glyph unicode="&#x09;" horiz-adv-x="512" />
<glyph unicode="&#xa0;" horiz-adv-x="512" />
<glyph unicode="!" horiz-adv-x="458" d="M117 104q7 54 49 90.5t96 36.5t85.5 -36.5t23.5 -90.5q-7 -54 -49.5 -90.5t-96.5 -36.5t-85 36.5t-23 90.5zM240 575l120 1086h215l-186 -1086h-149z" />
<glyph unicode="&#x22;" horiz-adv-x="495" d="M238 1227l28 434h174l-94 -434h-108zM494 1227l28 434h174l-94 -434h-108z" />
<glyph unicode="#" horiz-adv-x="1437" d="M102 420l56 155h266l133 355h-266l55 155h266l154 410h168l-156 -410h355l155 410h166l-156 -410h267l-56 -155h-266l-133 -355h266l-57 -155h-264l-158 -420h-166l156 420h-355l-155 -420h-166l156 420h-265zM590 575h354l133 355h-354z" />
<glyph unicode="$" horiz-adv-x="1173" d="M117 201l102 127q7 -7 20 -19t54 -42.5t83 -55t102.5 -46.5t117.5 -26l74 529q-77 17 -143 54t-114.5 90.5t-70.5 127t-10 156.5q22 149 153 270.5t303 146.5l21 148h100l-20 -145q55 -4 112 -21.5t98.5 -39.5t75 -44t51.5 -37l17 -14l-74 -143q-5 5 -15 14t-41.5 32.5 t-64.5 42t-82.5 36.5t-97.5 24l-77 -555q86 -16 154.5 -50.5t117 -86.5t69.5 -125.5t9 -161.5q-22 -151 -153 -267.5t-314 -137.5l-29 -203h-100l28 198q-84 4 -162 28.5t-129 56.5t-90 64t-57 54zM502 1104q-11 -85 36 -160t154 -110l76 528q-99 -21 -177 -100t-89 -158z M696 143q111 19 189.5 90t89.5 148q28 203 -207 266z" />
<glyph unicode="%" horiz-adv-x="2330" d="M379 1110q15 111 83 205t169.5 148.5t212.5 54.5q169 0 271 -119.5t79 -288.5q-15 -111 -83 -205t-169.5 -148.5t-212.5 -54.5q-169 0 -271 119.5t-79 288.5zM510 0l1317 1495h188l-1317 -1495h-188zM512 1110q-15 -116 53 -200.5t183 -84.5t206.5 84.5t106.5 200.5 t-52 199.5t-182 83.5q-116 0 -208 -84t-107 -199zM1329 385q15 111 83 205t169.5 148.5t212.5 54.5q169 0 271 -119.5t79 -288.5q-15 -111 -83 -205t-169.5 -148.5t-212.5 -54.5q-169 0 -271 119.5t-79 288.5zM1462 385q-15 -116 53 -199.5t183 -83.5q116 0 207 84t106 199 q15 116 -51.5 200.5t-181.5 84.5q-116 0 -208.5 -85t-107.5 -200z" />
<glyph unicode="&#x26;" horiz-adv-x="1785" d="M305 401q33 232 334 416l170 90q-52 61 -82.5 110.5t-49 127t-5.5 164.5q6 47 26.5 95t57.5 94.5t85.5 82.5t117 58t145.5 22q169 0 252.5 -99.5t62.5 -246.5q-10 -67 -41.5 -125.5t-93.5 -114t-101 -85t-122 -84.5q-21 -14 -31 -21l346 -379q1 1 10 8.5t11 11.5l202 226 l123 -90l-200 -224q-7 -9 -23 -25l-22 -22l198 -227l-30 -223l-291 329q-332 -293 -656 -293q-127 0 -224 60.5t-140.5 157.5t-28.5 206zM483 401q-14 -106 62 -180t178 -74q147 0 273.5 58.5t256.5 177.5l-358 422q-103 -70 -164 -105q-106 -60 -171 -138t-77 -161z M836 1309q-13 -92 12 -160t98 -156q146 96 222.5 171t86.5 151q13 97 -33.5 143.5t-140.5 46.5q-59 0 -106.5 -20t-75.5 -51t-43.5 -63t-19.5 -62z" />
<glyph unicode="'" horiz-adv-x="227" d="M221 1227l33 434h186l-100 -434h-119z" />
<glyph unicode="(" horiz-adv-x="423" d="M129.5 85q-16.5 275 22.5 552.5t132.5 548.5t227.5 471l119 -12q-227 -487 -300 -1011t15 -1021l-123 -10q-77 207 -93.5 482z" />
<glyph unicode=")" horiz-adv-x="421" d="M-31 -385q227 487 300 1011t-15 1021l123 10q77 -207 93.5 -482t-22.5 -552.5t-132.5 -548.5t-227.5 -471z" />
<glyph unicode="*" horiz-adv-x="684" d="M221 1470l64 140l221 -99l10 254h146l-58 -254l250 105l27 -139l-258 -58l145 -192l-131 -84l-102 215l-158 -219l-107 86l195 192z" />
<glyph unicode="+" d="M199 633l22 153h361l57 408h164l-58 -408h363l-23 -153h-362l-57 -412h-164l57 412h-360z" />
<glyph unicode="," horiz-adv-x="538" d="M4 -225l213 434h207l-281 -434h-139z" />
<glyph unicode="-" horiz-adv-x="884" d="M309 633l23 153h442l-22 -153h-443z" />
<glyph unicode="." horiz-adv-x="458" d="M117 104q7 54 49 90.5t96 36.5t85.5 -36.5t23.5 -90.5q-7 -54 -49.5 -90.5t-96.5 -36.5t-85 36.5t-23 90.5z" />
<glyph unicode="/" horiz-adv-x="892" d="M-92 -219l1100 1933h188l-1100 -1933h-188z" />
<glyph unicode="0" horiz-adv-x="1228" d="M157.5 587q0.5 80 12.5 163q16 117 51.5 226.5t93.5 209t131 173.5t171.5 117.5t209.5 43.5q93 0 169 -30.5t127 -84.5t88 -127t52 -159t19 -180t-12 -189q-16 -117 -52 -227t-94 -209.5t-132 -174t-172.5 -118.5t-209.5 -44q-80 0 -147 23t-116 63.5t-86.5 97.5 t-59.5 124.5t-33 144.5t-10.5 157zM337.5 626q-1.5 -64 5 -134t27.5 -131t53.5 -110.5t87 -78.5t124.5 -29q83 0 155.5 42t122 106t88 148t59.5 160.5t32 150.5t11.5 150.5t-15 159.5t-47 147t-92.5 105.5t-144 41.5t-155.5 -41.5t-122 -105t-88 -147t-59.5 -160t-32 -150.5 q-9 -60 -10.5 -124z" />
<glyph unicode="1" horiz-adv-x="1228" d="M432 1141l25 166l526 221q-36 -255 -107.5 -764t-107.5 -764h-178l176 1247z" />
<glyph unicode="2" horiz-adv-x="1228" d="M139 0l729 754q72 75 124 163t63 168q17 125 -42 185.5t-198 60.5q-62 0 -130.5 -26.5t-122 -64t-97.5 -75t-68 -63.5l-24 -27l33 230q7 9 20.5 23.5t57.5 51.5t91.5 65.5t120.5 51.5t146 23q220 0 324.5 -110t74.5 -325q-29 -208 -264 -458l-438 -451h620l-24 -176h-996 z" />
<glyph unicode="3" horiz-adv-x="1228" d="M221 43l27 195q46 -48 129.5 -72.5t169.5 -24.5q150 0 259 83t130 231q11 78 -14.5 137.5t-79.5 95t-124 53t-153 17.5h-100l502 571h-510l24 166h819l-526 -600q171 -34 265 -156t71 -284q-30 -211 -190 -344.5t-398 -133.5v-2q-78 0 -160 17.5t-141 50.5z" />
<glyph unicode="4" horiz-adv-x="1228" d="M127 270l1065 1280l-33 -235l-2 -2h2l-123 -877h166l-22 -166h-166l-39 -270h-176l39 270h-711zM463 436h397l86 611z" />
<glyph unicode="5" horiz-adv-x="1228" d="M164 57l26 195q48 -49 149.5 -79t201.5 -30q151 0 254 79.5t123 219.5q20 139 -58 220t-213 81q-119 0 -274 -43l-13 17h-2q-14 22 -55 78v2l207 698h657l-24 -166h-508l-135 -452q98 30 192 30q225 0 329.5 -125t74.5 -340q-29 -210 -189.5 -337.5t-390.5 -127.5 q-91 0 -190.5 23t-161.5 57z" />
<glyph unicode="6" horiz-adv-x="1228" d="M211 442q14 112 84 217l541 836h192l-424 -649q100 41 180 41q79 0 150.5 -34t122 -92t74 -142t10.5 -177q-28 -192 -183.5 -328.5t-347.5 -136.5q-126 0 -224.5 62.5t-145.5 169.5t-29 233zM387 442q-19 -127 51.5 -207.5t198.5 -80.5q127 0 219 80t111 208 q19 127 -51.5 208t-198.5 81q-127 0 -219 -80.5t-111 -208.5z" />
<glyph unicode="7" horiz-adv-x="1228" d="M299 0l713 1319h-682l24 176h942l-809 -1495h-188z" />
<glyph unicode="8" horiz-adv-x="1228" d="M213 455q18 127 106.5 231t212.5 158q-77 47 -119.5 123t-29.5 168q23 163 153 277t293 114t262 -114.5t76 -276.5q-13 -93 -77.5 -169.5t-157.5 -123.5q110 -57 169.5 -165t41.5 -235q-28 -192 -184.5 -328.5t-348.5 -136.5q-125 0 -223.5 65.5t-145 176t-28.5 236.5z M377 442q-19 -126 56 -207t204 -81t225 80.5t115 207.5q19 128 -56 215.5t-202 87.5t-225 -87.5t-117 -215.5zM559 1135q-14 -94 38 -155.5t146 -61.5t164 61.5t84 155.5q13 94 -39.5 154.5t-146.5 60.5t-163.5 -60.5t-82.5 -154.5z" />
<glyph unicode="9" horiz-adv-x="1228" d="M248 1053q28 192 183 328.5t347 136.5q126 0 224.5 -62.5t146 -169.5t29.5 -233q-14 -112 -84 -217l-541 -836h-193l424 649q-100 -41 -180 -41q-106 0 -194 57t-134 160.5t-28 227.5zM422 1053q-19 -127 51.5 -208t198.5 -81q127 0 218.5 80.5t110.5 208.5 q19 127 -51 207.5t-198 80.5q-127 0 -219 -80t-111 -208z" />
<glyph unicode=":" horiz-adv-x="538" d="M174 219q7 54 49 90.5t96 36.5t85.5 -36.5t23.5 -90.5q-7 -54 -49 -90.5t-96 -36.5t-85.5 36.5t-23.5 90.5zM266 870q8 54 49 90.5t95 36.5t85.5 -36.5t24.5 -90.5t-49 -90.5t-96 -36.5t-85.5 36.5t-23.5 90.5z" />
<glyph unicode=";" horiz-adv-x="538" d="M20 -102l216 434h206l-282 -434h-140zM266 870q8 54 49 90.5t95 36.5t85.5 -36.5t24.5 -90.5t-49 -90.5t-96 -36.5t-85.5 36.5t-23.5 90.5z" />
<glyph unicode="&#x3c;" d="M156 709l993 366l-23 -153l-630 -211l571 -213l-20 -152z" />
<glyph unicode="=" d="M174 457l23 151h886l-22 -151h-887zM225 811l21 152h887l-21 -152h-887z" />
<glyph unicode="&#x3e;" d="M160 344l20 152l633 213l-573 211l22 151l891 -362z" />
<glyph unicode="?" horiz-adv-x="980" d="M279 104q7 54 49 90.5t96 36.5t85 -36.5t23 -90.5q-7 -54 -49 -90.5t-96 -36.5t-85 36.5t-23 90.5zM283 1432l26 184q140 67 297 67q104 0 192.5 -40.5t147 -108.5t85.5 -162t13 -198q-26 -185 -164 -326.5t-321 -175.5l-51 -262h-141l22 421q43 -12 117 -12 q129 0 241 106.5t132 248.5q20 144 -65 249t-230 105q-180 0 -301 -96z" />
<glyph unicode="@" horiz-adv-x="1990" d="M102 342q0 159 41 305.5t114 263t173.5 212.5t218 160t249 99t265.5 35q109 0 208 -27t177 -75.5t143.5 -116t107 -148.5t66.5 -173.5t23.5 -190.5t-22.5 -199q-57 -244 -173 -381t-247 -137q-90 0 -141 57t-56 160q-72 -99 -168 -154t-211 -55q-129 0 -222.5 68.5 t-129.5 186t-4 255.5q50 211 223 360.5t369 149.5q107 0 176.5 -49t99.5 -137l23 96h143l-137 -596q-19 -79 -4 -132.5t74 -53.5q70 0 131 101.5t98 260.5q26 107 21 206t-31.5 185t-80.5 157t-125 121.5t-165.5 78t-202.5 27.5q-131 0 -257.5 -41t-235.5 -121.5 t-191.5 -190.5t-130 -256.5t-47.5 -310.5q0 -129 46 -244.5t128 -201t205 -135.5t268 -50l-34 -153q-175 0 -322 62t-245.5 168t-153 249t-54.5 305zM670 487q-33 -145 35 -249.5t202 -104.5q132 0 248 100.5t152 241.5l4 21q30 142 -38.5 244t-201.5 102 q-135 0 -251.5 -105t-149.5 -250z" />
<glyph unicode="A" horiz-adv-x="1306" d="M20 0l850 1550l416 -1550h-188l-121 459h-520l-252 -459h-185zM547 625h385l-125 475z" />
<glyph unicode="B" horiz-adv-x="1159" d="M135 0l211 1495h432q166 0 272 -118q87 -97 87 -225q0 -28 -4 -58q-13 -91 -80 -176.5t-162 -141.5q117 -38 183 -132q52 -74 52 -168q0 -25 -4 -52q-25 -174 -168.5 -299t-318.5 -125h-500zM334 166h323q110 0 193 74t98 184q3 22 3 42q0 82 -50 142q-62 74 -172 74 h-321zM432 850h256q102 0 178 70t90 174q3 21 3 40q0 76 -45 129q-56 66 -158 66h-256z" />
<glyph unicode="C" horiz-adv-x="1392" d="M164 750q29 209 157.5 386.5t320.5 280.5t402 103q224 0 410 -119l-29 -195q-158 137 -405 137q-123 0 -238 -45.5t-203.5 -124t-149 -188.5t-77.5 -235q-7 -48 -7 -94q1 -112 41 -210q56 -136 179 -214t287 -78q248 0 444 137l-26 -195q-218 -119 -443 -119 q-157 0 -291 61.5t-223 165t-130 246.5q-27 93 -27 192q0 53 8 108z" />
<glyph unicode="D" horiz-adv-x="1443" d="M135 0l211 1495h461q158 0 292 -57t223.5 -155t131.5 -237q27 -91 26 -189q0 -52 -7 -107q-22 -157 -102 -296.5t-197.5 -238.5t-268 -157t-307.5 -58h-463zM336 176h287q166 0 309 72.5t237 204t117 297.5q6 46 6 89q0 75 -18 143q-30 106 -97 180t-169 115.5t-226 41.5 h-284z" />
<glyph unicode="E" horiz-adv-x="1175" d="M135 0l211 1495h942l-22 -166h-766l-70 -481h547l-25 -166h-544l-74 -516h768l-25 -166h-942z" />
<glyph unicode="F" horiz-adv-x="1175" d="M135 0l211 1495h942l-22 -166h-766l-70 -481h547l-25 -166h-544l-97 -682h-176z" />
<glyph unicode="G" horiz-adv-x="1675" d="M164 750q29 209 157.5 386.5t320.5 280.5t402 103q151 0 279 -55.5t219 -155.5l-141 -123q-69 75 -166.5 116t-214.5 41q-123 0 -238 -45.5t-203.5 -124t-149 -188.5t-77.5 -235q-7 -48 -7 -94q0 -112 41 -210q56 -136 179 -214t287 -78q215 0 382 131t234 340h-495 l24 166h693q-1 -6 -3.5 -20.5t-3.5 -20.5q-22 -158 -99.5 -300.5t-190.5 -246.5t-261 -165t-305 -61t-291 61.5t-223 165t-130 246.5q-27 93 -27 192q0 53 8 108z" />
<glyph unicode="H" horiz-adv-x="1429" d="M156 0l211 1495h176l-92 -647h766l92 647h176l-211 -1495h-176l96 682h-766l-96 -682h-176z" />
<glyph unicode="I" horiz-adv-x="487" d="M156 0l211 1495h176l-211 -1495h-176z" />
<glyph unicode="J" horiz-adv-x="1048" d="M-20 274l151 84q12 -40 24 -67t34.5 -57.5t52 -48.5t76.5 -30t108 -12q91 0 157.5 26t107 75.5t62.5 108t33 134.5l142 1008h176l-141 -1008q-15 -107 -57.5 -198.5t-110.5 -161.5t-169 -110t-223 -40q-186 0 -292 82.5t-131 214.5z" />
<glyph unicode="K" horiz-adv-x="1148" d="M156 0l211 1495h176l-103 -723l703 723h217l-754 -776l543 -719h-229l-496 657l-92 -657h-176z" />
<glyph unicode="L" horiz-adv-x="1097" d="M135 0l211 1495h176l-188 -1329h768l-25 -166h-942z" />
<glyph unicode="M" horiz-adv-x="1701" d="M20 4l594 1550l295 -1200l774 1200v-1550h-186l29 1018l-682 -1073l-271 1032l-366 -977h-187z" />
<glyph unicode="N" horiz-adv-x="1540" d="M156 0l182 1284l-2 2l37 264l893 -1151l153 1096h176q-37 -258 -109.5 -775t-109.5 -775l-891 1149l-153 -1094h-176z" />
<glyph unicode="O" horiz-adv-x="1658" d="M164 750q29 209 157.5 386.5t320.5 280.5t402 103q157 0 291 -61t222.5 -164t129.5 -245q27 -93 27 -192q0 -53 -8 -108q-22 -157 -103 -300t-198.5 -246.5t-269 -165t-308.5 -61.5t-291 61.5t-223 165t-130 246.5q-27 93 -27 192q0 53 8 108zM352 750q-7 -48 -7 -94 q1 -112 41 -210q56 -136 179 -214t287 -78t309 78t239.5 214.5t117.5 303.5q7 49 7 95q0 111 -40 207q-56 136 -178.5 213.5t-286.5 77.5q-123 0 -238 -45.5t-203.5 -124t-149 -188.5t-77.5 -235z" />
<glyph unicode="P" horiz-adv-x="1073" d="M135 0l211 1495h410q212 1 322 -127q87 -101 87 -255q0 -41 -6 -85q-29 -213 -176.5 -345t-359.5 -132h-234l-78 -551h-176zM412 717h235q139 0 227.5 81.5t108.5 229.5q5 35 5 65q0 100 -50 159q-65 77 -205 77h-233z" />
<glyph unicode="Q" horiz-adv-x="1736" d="M164 750q29 209 157.5 386.5t320.5 280.5t402 103q157 0 291 -61t222.5 -164t129.5 -245q27 -93 27 -192q0 -53 -8 -108q-41 -277 -242 -488l215 -262h-209l-127 156q-242 -179 -516 -179q-157 0 -291 61.5t-223 165t-130 246.5q-27 93 -27 192q0 53 8 108zM352 750 q-7 -48 -7 -94q0 -112 41 -210q56 -136 179 -214t287 -78q212 0 387 129l-276 338h206l189 -230q133 155 160 359q7 49 7 95q0 111 -40 207q-56 136 -178.5 213.5t-286.5 77.5q-123 0 -238 -45.5t-203.5 -124t-149 -188.5t-77.5 -235z" />
<glyph unicode="R" horiz-adv-x="1210" d="M135 0l211 1495h477q213 1 323 -127q88 -101 87 -256q0 -40 -6 -84q-25 -178 -134 -302t-272 -161l314 -565h-205l-305 551h-236l-78 -551h-176zM412 717h303q139 0 227.5 81.5t108.5 229.5q5 35 5 65q0 100 -50 159q-65 77 -205 77h-301z" />
<glyph unicode="S" horiz-adv-x="1153" d="M106 201l127 139q5 -7 15.5 -19.5t46.5 -44t77 -55.5t108.5 -43.5t140.5 -19.5q134 0 222 69t101 160q4 26 4 49q0 80 -46 131q-58 65 -210 107q-69 19 -125 43t-107.5 61.5t-84 83.5t-46.5 112q-8 37 -8 78q0 32 5 66q15 111 89.5 203t188.5 144.5t242 52.5 q74 0 141.5 -16.5t110.5 -39.5t75 -46t46 -40l14 -16l-92 -143q-4 5 -11.5 14t-35.5 31.5t-61 40t-87.5 31.5t-114.5 14q-132 0 -220 -67t-101 -157q-3 -20 -3 -39q0 -77 47 -131q58 -68 208 -108q92 -25 160.5 -59t123 -87t76.5 -132q13 -48 14 -105q0 -36 -6 -76 q-24 -171 -176 -290.5t-360 -119.5q-90 0 -173.5 23t-138 56t-96.5 66t-61 56z" />
<glyph unicode="T" horiz-adv-x="1212" d="M207 1329l22 166h1174l-23 -166h-499l-185 -1329h-180l186 1329h-495z" />
<glyph unicode="U" horiz-adv-x="1372" d="M211 526l135 969h176l-135 -958q-4 -32 -5 -62q0 -123 72 -216q89 -116 251 -116t284 116t144 278l135 958h178l-135 -969q-21 -149 -113 -275.5t-229.5 -200t-286.5 -73.5t-265 73q-115 74 -171 200q-40 92 -41 196q0 39 6 80z" />
<glyph unicode="V" horiz-adv-x="1306" d="M229 1495h187l293 -1104l600 1104h188l-852 -1550z" />
<glyph unicode="W" horiz-adv-x="1906" d="M229 1495h207l148 -1057l587 1112l261 -1110l458 1055h207l-729 -1550l-264 1132l-600 -1132z" />
<glyph unicode="X" horiz-adv-x="1308" d="M20 0l644 776l-394 719h199l315 -573l476 573h198l-596 -717l428 -778h-200l-347 633l-526 -633h-197z" />
<glyph unicode="Y" horiz-adv-x="1216" d="M229 1495h199l293 -692l487 692h199l-621 -852l-90 -643h-176l90 639z" />
<glyph unicode="Z" horiz-adv-x="1320" d="M20 0l1125 1329h-883l23 166h1208l-1124 -1329h882l-22 -166h-1209z" />
<glyph unicode="[" horiz-adv-x="497" d="M127 -276q84 610 256 1826h487l-10 -77l-338 -37l-223 -1598l326 -37l-11 -77h-487z" />
<glyph unicode="\" horiz-adv-x="894" d="M178 1694h189l581 -1749h-188z" />
<glyph unicode="]" horiz-adv-x="497" d="M-195 -276l11 77l340 39l225 1594l-330 39l10 77h488q-84 -610 -256 -1826h-488z" />
<glyph unicode="^" horiz-adv-x="716" d="M246 1282l354 434l231 -434h-141l-119 231l-182 -231h-143z" />
<glyph unicode="_" d="M-51 -365l20 144h1108l-20 -144h-1108z" />
<glyph unicode="`" horiz-adv-x="387" d="M281 1993h254l71 -434z" />
<glyph unicode="a" horiz-adv-x="1388" d="M143 539q21 152 112.5 282.5t221.5 205.5t264 75q143 0 239.5 -64.5t147.5 -173.5l31 213h180l-151 -1077h-180l30 211q-80 -108 -195 -172t-259 -64q-100 0 -188.5 45t-149.5 120t-90 180q-19 68 -19 139q0 39 6 80zM322 539q-4 -29 -4 -57q0 -72 26 -138 q36 -90 117 -145.5t186 -55.5q149 0 271.5 103t158.5 250l13 82v18q0 136 -88 234q-94 104 -244 104q-159 0 -286.5 -117.5t-149.5 -277.5z" />
<glyph unicode="b" horiz-adv-x="1388" d="M135 0l258 1831h178l-135 -969q81 109 197 174.5t260 65.5q100 0 188 -44.5t148.5 -119.5t88.5 -180q18 -67 19 -138q0 -40 -6 -81q-16 -114 -73.5 -219t-139 -180t-182.5 -120t-201 -45q-144 0 -241 65.5t-148 174.5l-31 -215h-180zM385 504q-1 -12 -1 -23 q0 -135 88 -233q95 -106 245 -105q159 0 286.5 118t149.5 278q4 29 4 57q-1 72 -27 138q-36 90 -116 145t-185 55q-150 0 -275 -105.5t-159 -253.5z" />
<glyph unicode="c" horiz-adv-x="1095" d="M143 539q21 153 115 282.5t234.5 205t293.5 75.5q168 0 308 -76l-29 -199q-107 107 -303 107q-160 0 -289 -117.5t-151 -277.5q-4 -30 -4 -58q0 -124 78 -220q96 -118 255 -118q196 0 332 107l-27 -199q-158 -76 -327 -76q-153 0 -273 75q-118 76 -176 206 q-42 95 -43 203q0 39 6 80z" />
<glyph unicode="d" horiz-adv-x="1388" d="M143 539q21 152 112.5 282.5t221.5 205.5t264 75q144 0 241 -64.5t146 -173.5l138 967h180l-258 -1831h-180l30 211q-80 -108 -195 -172t-259 -64q-100 0 -188.5 45t-149.5 120t-90 180q-19 68 -19 139q0 39 6 80zM322 539q-4 -29 -4 -57q0 -72 26 -138 q36 -90 117 -145.5t186 -55.5q148 0 271 104t159 251l13 77v18q0 138 -88 236q-94 105 -244 105q-159 0 -286.5 -117.5t-149.5 -277.5z" />
<glyph unicode="e" horiz-adv-x="1280" d="M143 539q21 153 115 282.5t234.5 205t293.5 75.5q152 0 266 -76q114 -75 164 -204q36 -91 35 -195q0 -43 -6 -88q-5 -36 -8 -50h-920v-6q1 -141 93 -239q94 -100 241 -101q102 0 201 36t170 104l74 -129q-101 -83 -224 -131t-243 -48q-153 0 -273 75q-118 76 -176 206 q-42 95 -43 203q0 39 6 80zM348 641h719q-12 128 -93 210.5t-212 82.5q-132 0 -247 -83.5t-167 -209.5z" />
<glyph unicode="f" horiz-adv-x="747" d="M166 909l24 168h187l53 387q56 391 395 391q60 0 106.5 -18.5t63.5 -36.5l17 -18l-23 -164q-8 8 -23 20t-63.5 32t-99.5 20q-86 0 -133 -55.5t-62 -170.5l-53 -387h309l-24 -168h-310l-127 -909h-178l127 909h-186z" />
<glyph unicode="g" horiz-adv-x="1331" d="M47 -260l158 82q12 -43 26.5 -74.5t40.5 -65t60 -54.5t87 -34.5t120 -13.5q100 0 176 31.5t123 88t73.5 124t38.5 151.5l37 267q-154 -193 -424 -193q-100 0 -186 39t-144 107t-84 167q-16 61 -16 128q0 42 6 85q21 152 106.5 273.5t208 187.5t257.5 66q267 0 370 -191 l23 166h180l-154 -1102q-16 -119 -62.5 -219.5t-121 -178t-185.5 -121.5t-247 -44q-206 0 -323 91t-144 237zM319 575q-5 -33 -5 -63q0 -116 68 -196q85 -99 245 -99q156 0 267.5 94t137.5 246l4 35q2 23 2 45q0 122 -70 203q-83 94 -239 94q-161 0 -274.5 -100t-135.5 -259 z" />
<glyph unicode="h" horiz-adv-x="1355" d="M135 0l273 1933h178l-148 -1046q155 215 389 215q207 0 319 -118q88 -94 89 -242q0 -38 -6 -80l-94 -662h-181l95 662q3 23 3 44q0 88 -52 150q-66 78 -195 78q-147 0 -262 -103t-148 -253l-80 -578h-180z" />
<glyph unicode="i" horiz-adv-x="614" d="M176 0l152 1077h176l-152 -1077h-176zM340 1456q7 54 50 90.5t97 36.5q54 -1 86 -37q26 -30 26 -71q0 -9 -1 -19q-8 -54 -50.5 -92.5t-96.5 -38.5q-55 1 -87 39q-26 31 -26 71q0 10 2 21z" />
<glyph unicode="j" horiz-adv-x="555" d="M-219 -512l22 164q8 -8 23 -20t64 -32t100 -20q86 0 131.5 54t60.5 169l180 1274h177l-181 -1274q-56 -391 -393 -391q-38 0 -71 8t-52.5 19t-34 22t-20.5 19zM377 1456q8 54 48.5 90.5t94.5 36.5t86 -37q26 -29 26 -71q0 -9 -1 -19q-7 -54 -49.5 -90.5t-96.5 -36.5 t-85 37q-25 29 -25 69q0 10 2 21z" />
<glyph unicode="k" horiz-adv-x="1064" d="M135 0l258 1831h178l-163 -1174l479 420h237l-557 -489l457 -588h-266l-375 483l-68 -483h-180z" />
<glyph unicode="l" horiz-adv-x="534" d="M135 0l258 1831h178l-256 -1831h-180z" />
<glyph unicode="m" horiz-adv-x="1931" d="M135 0l152 1077h178l-25 -176q139 201 346 201q110 0 193 -60.5t115 -167.5q74 103 172.5 165.5t216.5 62.5q161 0 255 -120q73 -93 72 -233q0 -41 -6 -87l-92 -662h-180l92 662q4 31 4 59q0 81 -34 137q-46 76 -154 76q-127 0 -221 -103t-125 -256l-82 -575h-181l95 662 q4 31 4 59q0 81 -34 137q-46 76 -153 76q-128 0 -223 -103.5t-125 -255.5l-80 -575h-180z" />
<glyph unicode="n" horiz-adv-x="1355" d="M135 0l152 1077h180l-31 -213q77 107 186.5 172.5t245.5 65.5q180 0 284 -120q82 -95 83 -239q0 -39 -6 -81l-94 -662h-181l95 662q3 23 3 44q0 88 -52 150q-66 78 -195 78q-145 0 -259 -101.5t-149 -248.5l-82 -584h-180z" />
<glyph unicode="o" horiz-adv-x="1280" d="M133 539q21 153 115 282.5t234.5 205t293.5 75.5t272 -76q119 -74 176 -204q42 -95 42 -202q0 -39 -6 -81q-21 -153 -114.5 -283t-234 -205.5t-293.5 -75.5t-272 75q-118 76 -176 206q-42 95 -43 203q0 39 6 80zM311 539q-4 -28 -4 -55q0 -73 28 -140q38 -91 119.5 -146 t186.5 -55q159 0 287.5 118t150.5 278q4 29 4 57q-1 72 -27 138q-36 90 -116.5 145t-185.5 55q-160 0 -290.5 -117.5t-152.5 -277.5z" />
<glyph unicode="p" horiz-adv-x="1376" d="M57 -563l230 1640h178l-31 -217q80 110 197 176t262 66q100 0 188 -44.5t148.5 -119.5t88.5 -180q19 -67 19 -138q0 -40 -6 -81q-16 -114 -73.5 -219t-139 -180t-182.5 -120t-201 -45q-144 0 -242 66t-149 176l-108 -780h-179zM387 520q-2 -20 -2 -39q0 -130 83 -227 q95 -111 249 -111q159 0 287.5 118t150.5 278q4 30 4 59q0 123 -77 218q-94 118 -253 118q-155 0 -280.5 -110.5t-155.5 -264.5z" />
<glyph unicode="q" horiz-adv-x="1376" d="M133 539q21 152 112.5 282.5t221.5 205.5t264 75q144 0 241 -64.5t146 -173.5l31 213h180l-229 -1640h-180l108 776q-81 -109 -196 -173.5t-259 -64.5q-100 0 -188.5 45t-149 120t-89.5 180q-19 68 -19 139q0 39 6 80zM309 539q-4 -30 -4 -58q0 -124 77 -220 q96 -118 255 -118t286.5 118t149.5 278q4 29 4 58q0 72 -26 137q-36 91 -116 145.5t-185 54.5q-160 0 -289.5 -117.5t-151.5 -277.5z" />
<glyph unicode="r" horiz-adv-x="854" d="M135 0l152 1077h178l-19 -133q92 158 267 158q61 0 108 -10.5t70.5 -25t38.5 -29.5t18 -25l4 -11l-73 -155q-1 4 -4 9.5t-17 21t-33 27t-55 21t-80 9.5q-122 0 -196.5 -91.5t-96.5 -254.5l-82 -588h-180z" />
<glyph unicode="s" horiz-adv-x="1009" d="M82 172l125 131q4 -7 13 -17.5t38.5 -38.5t63 -49.5t87 -39t109.5 -17.5q124 0 188 38t76 128q1 9 1 18q0 41 -26 73q-32 38 -82 58t-120 33q-54 10 -97.5 21.5t-94.5 35.5t-83 55q-34 31 -52 81q-12 34 -12 74q0 19 3 39q20 139 149 223t310 84q52 0 105.5 -13t93.5 -31 t72.5 -36.5t49.5 -31.5l17 -13l-82 -143q-5 4 -14.5 11.5t-40.5 26t-63 33t-79.5 26t-93.5 11.5q-95 0 -163.5 -40.5t-76.5 -98.5q-5 -36 8 -62.5t45 -45t68.5 -30.5t91.5 -24q62 -14 104.5 -26.5t96.5 -38.5t84.5 -58t48.5 -84q12 -34 11 -74q0 -21 -3 -43 q-24 -172 -143.5 -257t-306.5 -85q-79 0 -152 20.5t-121 49.5t-84 57.5t-53 49.5z" />
<glyph unicode="t" horiz-adv-x="600" d="M147 909l23 168h186l52 355h178l-49 -355h184l-23 -168h-186l-127 -909h-180l129 909h-187z" />
<glyph unicode="u" horiz-adv-x="1355" d="M195 416l92 661h178l-92 -661q-3 -23 -3 -44q0 -88 53 -151q66 -78 195 -78q157 0 273.5 116.5t138.5 279.5l76 538h180l-151 -1077h-181l31 223q-175 -248 -430 -248q-180 1 -284 121q-82 95 -82 239q0 39 6 81z" />
<glyph unicode="v" horiz-adv-x="1062" d="M162 1077h200l220 -721l422 721h202l-682 -1128z" />
<glyph unicode="w" horiz-adv-x="1628" d="M170 1077h205l151 -694l441 745l231 -743l346 692h205l-594 -1128l-244 778l-462 -778z" />
<glyph unicode="x" horiz-adv-x="1079" d="M0 0l510 565l-317 512h219l227 -366l332 366h219l-461 -512l350 -565h-219l-262 422l-381 -422h-217z" />
<glyph unicode="y" horiz-adv-x="1038" d="M8 -588l418 703l-274 962h200l209 -731l434 731h195l-987 -1665h-195z" />
<glyph unicode="z" horiz-adv-x="1028" d="M20 0l777 905h-588l22 172h918l-776 -905h588l-23 -172h-918z" />
<glyph unicode="{" horiz-adv-x="497" d="M61 598l11 72l6 49q45 0 76.5 5t55 19t37.5 30.5t25 49.5t17 65t14 87l25 176q29 211 136 305t318 94l-18 -143q-101 0 -156.5 -24.5t-83 -77.5t-41.5 -154l-24 -176q-19 -138 -59.5 -214t-116.5 -108q64 -42 83 -130.5t-1 -223.5l-27 -178q-22 -150 20.5 -202t188.5 -52 l-21 -143q-211 0 -292 93.5t-52 303.5l27 178q14 100 12.5 166t-39 99.5t-121.5 33.5z" />
<glyph unicode="|" horiz-adv-x="497" d="M119 -332l280 1993h166l-280 -1993h-166z" />
<glyph unicode="}" horiz-adv-x="497" d="M-102 -262l20 145q101 0 156 24t82 76t41 154l26 178q19 138 59.5 213.5t116.5 108.5q-64 42 -83 129.5t1 222.5l25 178q22 150 -20 202t-187 52l21 146q210 0 289.5 -94.5t50.5 -305.5l-25 -178q-14 -100 -13.5 -166t38 -99.5t120.5 -33.5l-2 -20q-2 -13 -5 -39t-5 -39 l-4 -23q-45 0 -76.5 -4.5t-54.5 -18.5t-37 -30t-25 -49t-16.5 -64.5t-13.5 -87.5l-27 -178q-29 -211 -135.5 -305t-316.5 -94z" />
<glyph unicode="~" d="M240 522l24 176q77 71 139 108t104 42t76.5 -6t62 -32l55 -42t61 -30.5t74 -2.5t100 47.5t133.5 114.5l-25 -174q-74 -71 -133.5 -108t-100.5 -42.5t-75.5 5.5t-62.5 32t-56.5 42t-63 30.5t-76 2t-102 -48t-134.5 -114.5z" />
<glyph unicode="&#xa1;" horiz-adv-x="538" d="M176 -166l186 1086h150l-121 -1086h-215zM381 1391q7 54 49 90.5t96 36.5t85.5 -36.5t23.5 -90.5q-7 -54 -49.5 -90.5t-96.5 -36.5t-85 36.5t-23 90.5z" />
<glyph unicode="&#xa2;" horiz-adv-x="972" d="M156 487q26 183 163 323.5t318 176.5l29 209h100l-29 -199q159 0 281 -67l-27 -187q-96 99 -274 99l-101 -709q180 0 304 98l-27 -186q-142 -68 -297 -68l-29 -198h-100l29 209q-172 36 -269 176t-71 323zM322 487q-17 -117 38 -211.5t158 -128.5l96 680 q-112 -34 -193.5 -128.5t-98.5 -211.5z" />
<glyph unicode="&#xa3;" horiz-adv-x="972" d="M23 0l22 166h166l90 643h-164l23 166h166l41 299q28 200 157.5 304.5t321.5 104.5q50 0 96 -12.5t76.5 -30.5t53.5 -36t34 -30l10 -13l-22 -166l-13.5 13.5t-36.5 29.5t-58 37t-75 29.5t-90 13.5q-243 0 -278 -244l-41 -299h266l-23 -166h-268l-90 -643h610l-22 -166 h-952z" />
<glyph unicode="&#xa4;" horiz-adv-x="1193" d="M-39 -211l305 326q-140 150 -110 372q15 108 72 205.5t145 169.5l-217 324h198l158 -238q111 49 225 49q122 0 213 -49l224 238h198l-307 -326q66 -72 96 -168.5t15 -204.5t-71.5 -204t-143.5 -168l217 -326h-199l-160 238q-109 -50 -225 -50q-113 0 -211 50l-223 -238 h-199zM322 487q-21 -144 64 -249t230 -105q144 0 258.5 105t135.5 249q21 145 -64 250t-229 105t-259 -105.5t-136 -249.5z" />
<glyph unicode="&#xa5;" horiz-adv-x="1271" d="M233 1495h189l323 -713l529 713h188l-549 -713h248l-14 -100h-309l-31 -39l-10 -82h333l-14 -100h-334l-65 -461h-164l65 461h-331l14 100h332l10 82l-18 39h-308l15 100h243z" />
<glyph unicode="&#xa6;" horiz-adv-x="497" d="M119 -332l108 774h166l-108 -774h-166zM291 887l108 774h166l-108 -774h-166z" />
<glyph unicode="&#xa7;" horiz-adv-x="907" d="M111 156l114 120q4 -6 10.5 -15.5t30.5 -34.5t50.5 -44.5t69 -35t87.5 -15.5q100 0 156.5 40.5t64.5 98.5q10 73 -36.5 113.5t-141.5 56.5q-53 9 -102.5 31.5t-94 59.5t-67 95t-12.5 128q24 156 180 225q-61 42 -93 107.5t-22 144.5q19 129 127 209t268 80 q46 0 92.5 -11.5t80 -28t59.5 -33.5t40 -29l13 -11l-80 -147q-3 4 -10 11.5t-29.5 26.5t-48 33.5t-65.5 26.5t-82 12q-84 0 -135.5 -37.5t-59.5 -93.5q-8 -61 36 -108t132 -60q62 -9 114 -30.5t95.5 -57.5t63.5 -94.5t10 -132.5q-20 -155 -162 -224q117 -91 94 -256 q-20 -143 -126.5 -221t-270.5 -78q-72 0 -134.5 18.5t-100 44.5t-65.5 52.5t-39 45.5zM408 760q-8 -64 37 -115t130 -51q48 0 84 14.5t56 39t30.5 49t14.5 53.5q23 165 -154 165q-82 0 -136 -48t-62 -107z" />
<glyph unicode="&#xa8;" horiz-adv-x="950" d="M422 1901q6 47 45 80.5t86 33.5t75.5 -33.5t22.5 -80.5t-44 -81t-85 -34t-76.5 34t-23.5 81zM831 1901q6 47 46 80.5t88 33.5q47 0 75.5 -33.5t22.5 -80.5t-44 -81t-85 -34t-78 34t-25 81z" />
<glyph unicode="&#xa9;" horiz-adv-x="1718" d="M193 750q29 209 157.5 386.5t320.5 280.5t402 103q157 0 291 -61t222.5 -164t129.5 -245.5t19 -299.5t-103 -300t-198.5 -246.5t-269 -165t-308.5 -61.5t-291 61.5t-223 165t-130 246.5t-19 300zM371 750q-23 -167 36 -306.5t184.5 -220t289.5 -80.5t311 81t244 220 t120 306t-34.5 305.5t-182 218.5t-288.5 80t-312.5 -80t-246.5 -219t-121 -305zM604 750q23 160 151.5 272.5t288.5 112.5q113 0 205 -60l-20 -137q-82 70 -203 70q-109 0 -192.5 -74t-98.5 -184t47.5 -184t171.5 -74q124 0 222 67l-19 -137q-114 -60 -221 -60 q-160 0 -257.5 114t-74.5 274z" />
<glyph unicode="&#xaa;" horiz-adv-x="735" d="M350 1317q10 76 68 116t153 40h121l4 22q6 44 -24.5 72t-89.5 28q-92 0 -148 -43l10 86q72 35 150 35q98 0 148.5 -44t37.5 -134l-45 -321h-84l8 61q-59 -72 -143 -72q-94 0 -135.5 38.5t-30.5 115.5zM426 1317q-6 -39 20.5 -57.5t79.5 -18.5t99 37.5t53 95.5h2l4 27 h-123q-53 0 -91 -22.5t-44 -61.5z" />
<glyph unicode="&#xab;" d="M156 709l600 409l-23 -151l-366 -256l295 -256l-21 -154zM555 709l600 409l-22 -151l-369 -256l297 -256l-21 -154z" />
<glyph unicode="&#xac;" horiz-adv-x="1437" d="M199 633l22 153h1219q-15 -94 -39 -272t-29 -213h-155l45 332h-1063z" />
<glyph unicode="&#xad;" d="M309 633l23 153h665l-22 -153h-666z" />
<glyph unicode="&#xae;" horiz-adv-x="1718" d="M193 750q29 209 157.5 386.5t320.5 280.5t402 103q157 0 291 -61t222.5 -164t129.5 -245.5t19 -299.5t-103 -300t-198.5 -246.5t-269 -165t-308.5 -61.5t-291 61.5t-223 165t-130 246.5t-19 300zM371 750q-23 -167 36 -306.5t184.5 -220t289.5 -80.5t311 81t244 220 t120 306t-34.5 305.5t-182 218.5t-288.5 80t-312.5 -80t-246.5 -219t-121 -305zM666 373l104 749h127l-51 -370h155q151 0 168 122q9 64 -26 94.5t-107 30.5h-155l16 123h156q56 0 102 -13t82.5 -41t52.5 -77.5t6 -116.5q-13 -96 -66.5 -152.5t-133.5 -78.5l131 -270h-137 l-125 256h-138l-34 -256h-127z" />
<glyph unicode="&#xaf;" d="M360 1772l21 153h887l-21 -153h-887z" />
<glyph unicode="&#xb0;" horiz-adv-x="1193" d="M559 1528q15 106 99.5 181t189.5 75q106 0 170 -75t49 -181t-100 -180t-191 -74t-169 74t-48 180zM684 1528q-8 -56 24.5 -94.5t86.5 -38.5t96.5 38.5t50.5 94.5t-24.5 94.5t-86.5 38.5t-96.5 -38.5t-50.5 -94.5z" />
<glyph unicode="&#xb1;" d="M111 0l22 154h887l-23 -154h-886zM207 678l20 153h361l51 363h164l-51 -363h362l-20 -153h-363l-49 -346h-164l49 346h-360z" />
<glyph unicode="&#xb4;" horiz-adv-x="387" d="M219 1559l195 434h254z" />
<glyph unicode="&#xb5;" horiz-adv-x="1210" d="M104 -420l123 877q0 10 4 30l70 488h166l-102 -731q77 -111 221 -111q142 0 245.5 103.5t124.5 250.5h2l68 488h166l-137 -975h-166l24 172q-64 -90 -152.5 -142.5t-197.5 -52.5q-139 0 -225 89l-68 -486h-166z" />
<glyph unicode="&#xb6;" horiz-adv-x="1206" d="M317 1151q19 138 103.5 255.5t211.5 186t265 68.5h432l-233 -1661h-144l211 1505h-143l-211 -1505h-145l90 643q-138 0 -245.5 68t-159 185t-32.5 255zM483 1151q-21 -144 64 -249t229 -105l98 708q-144 0 -257 -104.5t-134 -249.5z" />
<glyph unicode="&#xb7;" horiz-adv-x="538" d="M246 647q6 47 45 81t86 34t75.5 -34t22.5 -81t-44 -81t-85 -34t-76.5 34t-23.5 81z" />
<glyph unicode="&#xb8;" horiz-adv-x="538" d="M-16 -442l206 387h187l-275 -387h-118z" />
<glyph unicode="&#xba;" horiz-adv-x="839" d="M373 1473q15 106 100 181t191 75t170 -75t49 -181t-100 -180t-191 -74t-170 74t-49 180zM457 1473q-11 -73 30.5 -125t114.5 -52t129.5 52t67.5 125t-32 125.5t-116 52.5q-72 0 -127.5 -52.5t-66.5 -125.5z" />
<glyph unicode="&#xbb;" d="M98 301l21 154l368 256l-297 256l23 151l485 -407zM498 301l20 154l369 256l-297 256l22 151l486 -407z" />
<glyph unicode="&#xbf;" horiz-adv-x="1040" d="M139 -90q26 185 164.5 326.5t321.5 175.5l51 262h141l-22 -422q-43 12 -117 12q-129 0 -241 -106t-132 -248q-20 -144 65 -249t230 -105q180 0 301 96l-27 -184q-142 -68 -296 -68q-138 0 -246 68.5t-160 186t-33 255.5zM651 979q7 54 49.5 90.5t96.5 36.5t85 -36.5 t23 -90.5q-7 -54 -49 -90.5t-96 -36.5t-85.5 36.5t-23.5 90.5z" />
<glyph unicode="&#xc0;" horiz-adv-x="1308" d="M20 0l850 1550l416 -1550h-188l-121 459h-520l-252 -459h-185zM547 625h385l-125 475zM596 2118h254l72 -435z" />
<glyph unicode="&#xc1;" horiz-adv-x="1308" d="M20 0l850 1550l416 -1550h-188l-121 459h-520l-252 -459h-185zM547 625h385l-125 475zM922 1683l194 435h254z" />
<glyph unicode="&#xc2;" horiz-adv-x="1308" d="M20 0l850 1550l416 -1550h-188l-121 459h-520l-252 -459h-185zM547 625h385l-125 475zM629 1683l354 435l231 -435h-141l-121 232l-180 -232h-143z" />
<glyph unicode="&#xc3;" horiz-adv-x="1308" d="M20 0l850 1550l416 -1550h-188l-121 459h-520l-252 -459h-185zM535 1683l24 177q77 71 139 108t104 42t76.5 -6t62 -32.5t55 -42.5t61 -30.5t74 -2t100 47.5t133.5 114l-25 -174q-74 -71 -133.5 -108t-100.5 -42.5t-75.5 5.5t-62.5 32t-56.5 42t-63 30.5t-76 2t-102 -48 t-134.5 -114.5zM547 625h385l-125 475z" />
<glyph unicode="&#xc4;" horiz-adv-x="1308" d="M20 0l850 1550l416 -1550h-188l-121 459h-520l-252 -459h-185zM547 625h385l-125 475zM596 1798q6 47 45 81t86 34t75.5 -34t22.5 -81t-44 -81t-85 -34t-76.5 34t-23.5 81zM1006 1798q6 47 45.5 81t87.5 34q47 0 75.5 -34t22.5 -81t-44 -81t-85 -34t-77.5 34t-24.5 81z " />
<glyph unicode="&#xc5;" horiz-adv-x="1308" d="M20 0l842 1534q-104 1 -166 75.5t-47 178.5q15 106 99.5 181t189.5 75q106 0 170 -75t49 -181q-15 -104 -97.5 -177.5t-185.5 -76.5l412 -1534h-188l-121 459h-520l-252 -459h-185zM547 625h385l-125 475zM774 1788q-8 -56 24.5 -94.5t86.5 -38.5t96.5 38.5t50.5 94.5 t-24 94.5t-86 38.5t-97.5 -39t-50.5 -94z" />
<glyph unicode="&#xc6;" horiz-adv-x="1904" d="M29 0l987 1495h1128l-22 -156h-774l-70 -497h553l-23 -156h-553l-73 -530h774l-23 -156h-940l66 465h-541l-311 -465h-178zM623 621h458l101 718h-80z" />
<glyph unicode="&#xc7;" horiz-adv-x="1402" d="M164 750q29 209 157.5 386.5t320.5 280.5t402 103q224 0 410 -119l-29 -195q-158 137 -405 137q-123 0 -238 -45.5t-203.5 -124t-149 -188.5t-77.5 -235q-23 -167 33.5 -303.5t179.5 -214.5t287 -78q248 0 444 137l-26 -195q-173 -93 -352 -114l-269 -377h-119l203 379 q-139 17 -254.5 84.5t-191.5 168.5t-109.5 234.5t-13.5 278.5z" />
<glyph unicode="&#xc8;" horiz-adv-x="1187" d="M135 0l211 1495h942l-22 -166h-766l-70 -481h547l-25 -166h-544l-74 -516h768l-25 -166h-942zM631 2085h254l71 -434z" />
<glyph unicode="&#xc9;" horiz-adv-x="1187" d="M135 0l211 1495h942l-22 -166h-766l-70 -481h547l-25 -166h-544l-74 -516h768l-25 -166h-942zM735 1651l195 434h254z" />
<glyph unicode="&#xca;" horiz-adv-x="1187" d="M135 0l211 1495h942l-22 -166h-766l-70 -481h547l-25 -166h-544l-74 -516h768l-25 -166h-942zM553 1653l354 434l232 -434h-142l-118 231l-183 -231h-143z" />
<glyph unicode="&#xcb;" horiz-adv-x="1187" d="M135 0l211 1495h942l-22 -166h-766l-70 -481h547l-25 -166h-544l-74 -516h768l-25 -166h-942zM522 1767q6 47 45 81t86 34t76 -34t23 -81t-44 -80.5t-85 -33.5t-77 33.5t-24 80.5zM932 1767q6 47 45.5 81t87.5 34q47 0 75.5 -34t22.5 -81t-44 -80.5t-85 -33.5t-77.5 33.5 t-24.5 80.5z" />
<glyph unicode="&#xcc;" horiz-adv-x="503" d="M152 2085h254l71 -434zM156 0l211 1495h176l-211 -1495h-176z" />
<glyph unicode="&#xcd;" horiz-adv-x="503" d="M156 0l211 1495h176l-211 -1495h-176zM479 1651l195 434h254z" />
<glyph unicode="&#xce;" horiz-adv-x="503" d="M156 0l211 1495h176l-211 -1495h-176zM184 1653l355 434l231 -434h-141l-119 231l-182 -231h-144z" />
<glyph unicode="&#xcf;" horiz-adv-x="503" d="M154 1767q6 47 45 81t86 34t75.5 -34t22.5 -81t-44 -80.5t-85 -33.5t-76.5 33.5t-23.5 80.5zM156 0l211 1495h176l-211 -1495h-176zM563 1767q6 47 45.5 81t87.5 34q47 0 76 -34t23 -81t-44 -80.5t-85 -33.5q-48 0 -78.5 33.5t-24.5 80.5z" />
<glyph unicode="&#xd0;" horiz-adv-x="1478" d="M94 676l21 133h166l96 686h461q158 0 291.5 -57t222.5 -155.5t130 -237t19 -295.5q-29 -209 -156 -381.5t-317 -270.5t-401 -98h-461l96 676h-168zM354 166h295q165 0 311.5 75t244 209t120.5 300q17 124 -13.5 232.5t-99 184t-172 119t-227.5 43.5h-293l-74 -520h445 l-21 -133h-442z" />
<glyph unicode="&#xd1;" horiz-adv-x="1556" d="M156 0l182 1284l-2 2l37 264l893 -1151l153 1096h176q-37 -258 -109.5 -775t-109.5 -775l-891 1149l-153 -1094h-176zM635 1683l24 177q77 71 139 108t104 42t76.5 -6t62 -32.5t55 -42.5t61 -30.5t74 -2t100 47.5t133.5 114l-24 -174q-93 -89 -164.5 -125t-116 -27.5 t-82.5 34.5t-76 51.5t-83 32t-117 -33t-166 -133.5z" />
<glyph unicode="&#xd2;" horiz-adv-x="1665" d="M164 750q29 209 157.5 386.5t320.5 280.5t402 103q157 0 291 -61t222.5 -164t129.5 -245.5t19 -299.5t-103 -300t-198.5 -246.5t-269 -165t-308.5 -61.5t-291 61.5t-223 165t-130 246.5t-19 300zM352 750q-23 -167 33.5 -303.5t179.5 -214.5t287 -78t309 78t239.5 214.5 t117.5 303.5t-33 302.5t-178.5 213t-286.5 77.5q-123 0 -238 -45.5t-203.5 -124t-149 -188.5t-77.5 -235zM737 2085h254l72 -434z" />
<glyph unicode="&#xd3;" horiz-adv-x="1665" d="M164 750q29 209 157.5 386.5t320.5 280.5t402 103q157 0 291 -61t222.5 -164t129.5 -245.5t19 -299.5t-103 -300t-198.5 -246.5t-269 -165t-308.5 -61.5t-291 61.5t-223 165t-130 246.5t-19 300zM352 750q-23 -167 33.5 -303.5t179.5 -214.5t287 -78t309 78t239.5 214.5 t117.5 303.5t-33 302.5t-178.5 213t-286.5 77.5q-123 0 -238 -45.5t-203.5 -124t-149 -188.5t-77.5 -235zM1065 1651l195 434h253z" />
<glyph unicode="&#xd4;" horiz-adv-x="1665" d="M164 750q29 209 157.5 386.5t320.5 280.5t402 103q157 0 291 -61t222.5 -164t129.5 -245.5t19 -299.5t-103 -300t-198.5 -246.5t-269 -165t-308.5 -61.5t-291 61.5t-223 165t-130 246.5t-19 300zM352 750q-23 -167 33.5 -303.5t179.5 -214.5t287 -78t309 78t239.5 214.5 t117.5 303.5t-33 302.5t-178.5 213t-286.5 77.5q-123 0 -238 -45.5t-203.5 -124t-149 -188.5t-77.5 -235zM770 1653l354 434l232 -434h-142l-118 231l-183 -231h-143z" />
<glyph unicode="&#xd5;" horiz-adv-x="1665" d="M164 750q29 209 157.5 386.5t320.5 280.5t402 103q157 0 291 -61t222.5 -164t129.5 -245.5t19 -299.5t-103 -300t-198.5 -246.5t-269 -165t-308.5 -61.5t-291 61.5t-223 165t-130 246.5t-19 300zM352 750q-23 -167 33.5 -303.5t179.5 -214.5t287 -78t309 78t239.5 214.5 t117.5 303.5t-33 302.5t-178.5 213t-286.5 77.5q-123 0 -238 -45.5t-203.5 -124t-149 -188.5t-77.5 -235zM678 1653l24 176q77 71 139 108t104 42t76.5 -6t62 -32l55 -42t61 -30.5t74 -2.5t100 47.5t133.5 114.5l-24 -175q-74 -71 -133.5 -108t-100.5 -42.5t-75.5 5.5 t-63 32.5t-57 42t-63 30.5t-76 2.5t-102 -48t-134.5 -114.5z" />
<glyph unicode="&#xd6;" horiz-adv-x="1665" d="M164 750q29 209 157.5 386.5t320.5 280.5t402 103q157 0 291 -61t222.5 -164t129.5 -245.5t19 -299.5t-103 -300t-198.5 -246.5t-269 -165t-308.5 -61.5t-291 61.5t-223 165t-130 246.5t-19 300zM352 750q-23 -167 33.5 -303.5t179.5 -214.5t287 -78t309 78t239.5 214.5 t117.5 303.5t-33 302.5t-178.5 213t-286.5 77.5q-123 0 -238 -45.5t-203.5 -124t-149 -188.5t-77.5 -235zM739 1767q6 47 45 81t86 34t76 -34t23 -81t-44 -80.5t-85 -33.5t-77 33.5t-24 80.5zM1149 1767q6 47 45.5 81t87.5 34q47 0 75.5 -34t22.5 -81t-44 -80.5t-85 -33.5 t-77.5 33.5t-24.5 80.5z" />
<glyph unicode="&#xd7;" horiz-adv-x="1269" d="M213 332l449 432l-328 432h164l258 -340l354 340h164l-449 -432l328 -432h-164l-258 340l-354 -340h-164z" />
<glyph unicode="&#xd8;" horiz-adv-x="1708" d="M188 750q29 209 157.5 386.5t321 280.5t402.5 103q71 0 158 -17l65 158h123l-78 -191q208 -84 317.5 -280t76.5 -440q-22 -157 -103 -300t-198.5 -246.5t-269 -165t-308.5 -61.5q-50 0 -125 11l-86 -209h-123l98 237q-223 78 -343 279.5t-85 454.5zM367 750 q-28 -198 60 -355t255 -219l479 1167q-51 11 -114 11q-164 0 -312.5 -80t-246.5 -219t-121 -305zM793 150q47 -7 84 -7q164 0 311 81t244 220t120 306q26 189 -51 340t-231 219z" />
<glyph unicode="&#xd9;" horiz-adv-x="1386" d="M211 526l135 969h176l-135 -958q-22 -162 67 -278t251 -116t284 116t144 278l135 958h178l-135 -969q-21 -149 -113 -275.5t-229.5 -200t-286.5 -73.5t-265 73.5t-171.5 200t-34.5 275.5zM598 2085h254l72 -434z" />
<glyph unicode="&#xda;" horiz-adv-x="1386" d="M211 526l135 969h176l-135 -958q-22 -162 67 -278t251 -116t284 116t144 278l135 958h178l-135 -969q-21 -149 -113 -275.5t-229.5 -200t-286.5 -73.5t-265 73.5t-171.5 200t-34.5 275.5zM924 1651l194 434h254z" />
<glyph unicode="&#xdb;" horiz-adv-x="1386" d="M211 526l135 969h176l-135 -958q-22 -162 67 -278t251 -116t284 116t144 278l135 958h178l-135 -969q-21 -149 -113 -275.5t-229.5 -200t-286.5 -73.5t-265 73.5t-171.5 200t-34.5 275.5zM631 1653l354 434l232 -434h-142l-119 231l-182 -231h-143z" />
<glyph unicode="&#xdc;" horiz-adv-x="1386" d="M211 526l135 969h176l-135 -958q-22 -162 67 -278t251 -116t284 116t144 278l135 958h178l-135 -969q-21 -149 -113 -275.5t-229.5 -200t-286.5 -73.5t-265 73.5t-171.5 200t-34.5 275.5zM600 1767q6 47 45 81t86 34t75.5 -34t22.5 -81t-44 -80.5t-85 -33.5t-76.5 33.5 t-23.5 80.5zM1010 1767q6 47 45.5 81t87.5 34q47 0 75.5 -34t22.5 -81t-44 -80.5t-85 -33.5t-77.5 33.5t-24.5 80.5z" />
<glyph unicode="&#xdd;" horiz-adv-x="1218" d="M229 1495h199l293 -692l487 692h199l-621 -852l-90 -643h-176l90 639zM866 1651l195 434h254z" />
<glyph unicode="&#xde;" horiz-adv-x="1118" d="M158 0l211 1495h166l-35 -254h241q212 0 322.5 -129.5t81.5 -341.5t-176 -340.5t-359 -128.5h-243l-43 -301h-166zM387 457h244q141 0 234.5 83t113.5 230t-50 231t-210 84h-242z" />
<glyph unicode="&#xe0;" horiz-adv-x="1402" d="M143 539q21 152 112.5 282.5t221.5 205.5t264 75q143 0 239.5 -64.5t147.5 -173.5l31 213h180l-151 -1077h-180l30 211q-80 -108 -195 -172t-259 -64q-100 0 -188.5 45t-149.5 120t-90 180t-13 219zM322 539q-14 -105 22.5 -195.5t117 -145.5t185.5 -55q149 0 271.5 103 t158.5 250l13 82q6 149 -88 252.5t-244 103.5q-159 0 -286.5 -117.5t-149.5 -277.5zM373 1563h254l71 -435z" />
<glyph unicode="&#xe1;" horiz-adv-x="1402" d="M143 539q21 152 112.5 282.5t221.5 205.5t264 75q143 0 239.5 -64.5t147.5 -173.5l31 213h180l-151 -1077h-180l30 211q-80 -108 -195 -172t-259 -64q-100 0 -188.5 45t-149.5 120t-90 180t-13 219zM322 539q-14 -105 22.5 -195.5t117 -145.5t185.5 -55q149 0 271.5 103 t158.5 250l13 82q6 149 -88 252.5t-244 103.5q-159 0 -286.5 -117.5t-149.5 -277.5zM477 1128l195 435h254z" />
<glyph unicode="&#xe2;" horiz-adv-x="1402" d="M143 539q21 152 112.5 282.5t221.5 205.5t264 75q143 0 239.5 -64.5t147.5 -173.5l31 213h180l-151 -1077h-180l30 211q-80 -108 -195 -172t-259 -64q-100 0 -188.5 45t-149.5 120t-90 180t-13 219zM322 539q-14 -105 22.5 -195.5t117 -145.5t185.5 -55q149 0 271.5 103 t158.5 250l13 82q6 149 -88 252.5t-244 103.5q-159 0 -286.5 -117.5t-149.5 -277.5zM418 1235l354 434l232 -434h-142l-119 231l-182 -231h-143z" />
<glyph unicode="&#xe3;" horiz-adv-x="1402" d="M143 539q21 152 112.5 282.5t221.5 205.5t264 75q143 0 239.5 -64.5t147.5 -173.5l31 213h180l-151 -1077h-180l30 211q-80 -108 -195 -172t-259 -64q-100 0 -188.5 45t-149.5 120t-90 180t-13 219zM309 1169l25 177q77 71 139 108t104 42t76.5 -6t62 -32.5t55 -42.5 t61 -30.5t74 -2t100 47.5t133.5 114l-25 -174q-93 -89 -164.5 -125t-116 -27.5t-82.5 34.5t-76 51.5t-83 32t-117 -33t-166 -133.5zM322 539q-14 -105 22.5 -195.5t117 -145.5t185.5 -55q149 0 271.5 103t158.5 250l13 82q6 149 -88 252.5t-244 103.5q-159 0 -286.5 -117.5 t-149.5 -277.5z" />
<glyph unicode="&#xe4;" horiz-adv-x="1402" d="M143 539q21 152 112.5 282.5t221.5 205.5t264 75q143 0 239.5 -64.5t147.5 -173.5l31 213h180l-151 -1077h-180l30 211q-80 -108 -195 -172t-259 -64q-100 0 -188.5 45t-149.5 120t-90 180t-13 219zM322 539q-14 -105 22.5 -195.5t117 -145.5t185.5 -55q149 0 271.5 103 t158.5 250l13 82q6 149 -88 252.5t-244 103.5q-159 0 -286.5 -117.5t-149.5 -277.5zM403 1335q6 47 45.5 81t86.5 34t75.5 -34t22.5 -81t-44 -80.5t-85 -33.5t-77 33.5t-24 80.5zM813 1335q6 47 45.5 81t87.5 34q47 0 75.5 -34t22.5 -81t-44 -80.5t-85 -33.5t-77.5 33.5 t-24.5 80.5z" />
<glyph unicode="&#xe5;" horiz-adv-x="1402" d="M143 539q21 152 112.5 282.5t221.5 205.5t264 75q143 0 239.5 -64.5t147.5 -173.5l31 213h180l-151 -1077h-180l30 211q-80 -108 -195 -172t-259 -64q-100 0 -188.5 45t-149.5 120t-90 180t-13 219zM322 539q-14 -105 22.5 -195.5t117 -145.5t185.5 -55q149 0 271.5 103 t158.5 250l13 82q6 149 -88 252.5t-244 103.5q-159 0 -286.5 -117.5t-149.5 -277.5zM502 1450q15 106 99.5 181t189.5 75q106 0 170 -75t49 -181t-100 -180t-191 -74t-169 74t-48 180zM627 1450q-8 -56 24 -94.5t86 -38.5t97.5 39t50.5 94q8 56 -24.5 94.5t-86.5 38.5 t-96.5 -38.5t-50.5 -94.5z" />
<glyph unicode="&#xe6;" horiz-adv-x="1998" d="M125 289q21 150 137.5 229.5t304.5 79.5h244l6 45q12 87 -47.5 143t-177.5 56q-192 0 -301 -86l24 174q140 67 297 67q150 0 231.5 -53.5t96.5 -167.5q80 102 194 161.5t242 59.5q108 0 196 -43.5t140 -117.5t74.5 -172.5t-0.5 -208.5h-830q-6 -134 78.5 -228t220.5 -94 q93 0 181 31.5t153 93.5l66 -119q-93 -75 -203.5 -118.5t-218.5 -43.5q-137 0 -238.5 68.5t-148.5 183.5q-56 -109 -161.5 -180.5t-227.5 -71.5q-185 0 -269.5 79.5t-62.5 232.5zM281 289q-10 -78 42 -117t156 -39q106 0 196 74.5t107 191.5l9 56h-244q-105 0 -180.5 -44.5 t-85.5 -121.5zM993 598h631q-14 108 -84.5 176t-183.5 68q-114 0 -213 -68.5t-150 -175.5z" />
<glyph unicode="&#xe7;" horiz-adv-x="1107" d="M143 539q21 153 115 282.5t234.5 205t293.5 75.5q168 0 308 -76l-29 -199q-107 107 -303 107q-160 0 -289 -117.5t-151 -277.5t74 -278t255 -118q196 0 332 107l-27 -199q-132 -65 -282 -74l-264 -372h-119l207 387q-180 45 -281 198t-74 349z" />
<glyph unicode="&#xe8;" horiz-adv-x="1290" d="M143 539q21 153 115 282.5t234.5 205t293.5 75.5q152 0 265.5 -75.5t164 -204.5t29.5 -283q-5 -36 -8 -50h-920q-2 -145 92.5 -245.5t241.5 -100.5q102 0 201 36t170 104l74 -129q-101 -83 -224 -131t-243 -48q-153 0 -272.5 75.5t-177 205.5t-36.5 283zM348 641h719 q-12 128 -93 210.5t-212 82.5q-132 0 -247 -83.5t-167 -209.5zM537 1563h254l71 -435z" />
<glyph unicode="&#xe9;" horiz-adv-x="1290" d="M143 539q21 153 115 282.5t234.5 205t293.5 75.5q152 0 265.5 -75.5t164 -204.5t29.5 -283q-5 -36 -8 -50h-920q-2 -145 92.5 -245.5t241.5 -100.5q102 0 201 36t170 104l74 -129q-101 -83 -224 -131t-243 -48q-153 0 -272.5 75.5t-177 205.5t-36.5 283zM348 641h719 q-12 128 -93 210.5t-212 82.5q-132 0 -247 -83.5t-167 -209.5zM641 1128l195 435h254z" />
<glyph unicode="&#xea;" horiz-adv-x="1290" d="M143 539q21 153 115 282.5t234.5 205t293.5 75.5q152 0 265.5 -75.5t164 -204.5t29.5 -283q-5 -36 -8 -50h-920q-2 -145 92.5 -245.5t241.5 -100.5q102 0 201 36t170 104l74 -129q-101 -83 -224 -131t-243 -48q-153 0 -272.5 75.5t-177 205.5t-36.5 283zM348 641h719 q-12 128 -93 210.5t-212 82.5q-132 0 -247 -83.5t-167 -209.5zM459 1128l354 435l231 -435h-141l-119 232l-182 -232h-143z" />
<glyph unicode="&#xeb;" horiz-adv-x="1290" d="M143 539q21 153 115 282.5t234.5 205t293.5 75.5q152 0 265.5 -75.5t164 -204.5t29.5 -283q-5 -36 -8 -50h-920q-2 -145 92.5 -245.5t241.5 -100.5q102 0 201 36t170 104l74 -129q-101 -83 -224 -131t-243 -48q-153 0 -272.5 75.5t-177 205.5t-36.5 283zM348 641h719 q-12 128 -93 210.5t-212 82.5q-132 0 -247 -83.5t-167 -209.5zM547 1307q6 47 45 80.5t86 33.5t75.5 -33.5t22.5 -80.5t-44 -81t-85 -34t-76.5 34t-23.5 81zM956 1307q6 47 46 80.5t88 33.5q47 0 75.5 -33.5t22.5 -80.5t-44 -81t-85 -34t-78 34t-25 81z" />
<glyph unicode="&#xec;" horiz-adv-x="538" d="M123 1696h254l72 -434zM188 0l138 975h163l-137 -975h-164z" />
<glyph unicode="&#xed;" horiz-adv-x="538" d="M188 0l138 975h163l-137 -975h-164zM449 1262l194 434h254z" />
<glyph unicode="&#xee;" horiz-adv-x="538" d="M156 1262l354 434l231 -434h-141l-121 231l-180 -231h-143zM188 0l138 975h163l-137 -975h-164z" />
<glyph unicode="&#xef;" horiz-adv-x="538" d="M117 1333q6 47 45 81t86 34t75.5 -34t22.5 -81t-44 -80.5t-85 -33.5t-76.5 33.5t-23.5 80.5zM188 0l138 975h163l-137 -975h-164zM526 1333q6 47 45.5 81t87.5 34q47 0 76 -34t23 -81t-44 -80.5t-85 -33.5q-48 0 -78.5 33.5t-24.5 80.5z" />
<glyph unicode="&#xf0;" horiz-adv-x="1263" d="M152 487q19 138 104 255.5t212 186t265 68.5q221 0 311 -174q-14 211 -118 398l-457 -56l14 109l377 47q-46 63 -101.5 121t-102.5 96.5t-87 67.5t-63 42l-23 13h234q8 -4 21.5 -11.5t53.5 -36t78.5 -62t88 -90t88.5 -118.5l339 41l-16 -108l-268 -33q138 -286 86 -645 q-27 -190 -116.5 -333t-214.5 -215.5t-267 -72.5q-138 0 -246 68.5t-159.5 186t-32.5 255.5zM317 487q-20 -144 65 -249t230 -105q144 0 258.5 105t135.5 249q21 145 -64 250t-229 105q-145 0 -260 -105.5t-136 -249.5z" />
<glyph unicode="&#xf1;" horiz-adv-x="1376" d="M135 0l152 1077h180l-31 -213q77 107 186.5 172.5t245.5 65.5q180 0 284.5 -120t76.5 -320l-94 -662h-181l95 662q16 117 -49.5 194.5t-194.5 77.5q-145 0 -259 -101.5t-149 -248.5l-82 -584h-180zM465 1214l24 177q77 71 139 108t104 42t76.5 -6t62 -32.5t55 -42.5 t61 -30.5t74 -2t100 47.5t133.5 114l-24 -174q-93 -89 -164.5 -125t-116 -27.5t-82.5 34.5t-76 51.5t-83 32t-117 -33t-166 -133.5z" />
<glyph unicode="&#xf2;" horiz-adv-x="1288" d="M133 539q21 153 115 282.5t234.5 205t293.5 75.5t272 -75.5t176 -205t36 -282.5t-114.5 -283t-234 -205.5t-293.5 -75.5t-272 75.5t-176.5 205.5t-36.5 283zM311 539q-14 -104 24 -195t119.5 -146t186.5 -55q159 0 287.5 118t150.5 278q14 105 -22.5 195.5t-117 145 t-185.5 54.5q-160 0 -290.5 -117.5t-152.5 -277.5zM412 1563h254l71 -435z" />
<glyph unicode="&#xf3;" horiz-adv-x="1288" d="M133 539q21 153 115 282.5t234.5 205t293.5 75.5t272 -75.5t176 -205t36 -282.5t-114.5 -283t-234 -205.5t-293.5 -75.5t-272 75.5t-176.5 205.5t-36.5 283zM311 539q-14 -104 24 -195t119.5 -146t186.5 -55q159 0 287.5 118t150.5 278q14 105 -22.5 195.5t-117 145 t-185.5 54.5q-160 0 -290.5 -117.5t-152.5 -277.5zM737 1128l195 435h254z" />
<glyph unicode="&#xf4;" horiz-adv-x="1288" d="M133 539q21 153 115 282.5t234.5 205t293.5 75.5t272 -75.5t176 -205t36 -282.5t-114.5 -283t-234 -205.5t-293.5 -75.5t-272 75.5t-176.5 205.5t-36.5 283zM311 539q-14 -104 24 -195t119.5 -146t186.5 -55q159 0 287.5 118t150.5 278q14 105 -22.5 195.5t-117 145 t-185.5 54.5q-160 0 -290.5 -117.5t-152.5 -277.5zM559 1239l354 434l232 -434h-141l-119 231l-183 -231h-143z" />
<glyph unicode="&#xf5;" horiz-adv-x="1288" d="M133 539q21 153 115 282.5t234.5 205t293.5 75.5t272 -75.5t176 -205t36 -282.5t-114.5 -283t-234 -205.5t-293.5 -75.5t-272 75.5t-176.5 205.5t-36.5 283zM311 539q-14 -104 24 -195t119.5 -146t186.5 -55q159 0 287.5 118t150.5 278q14 105 -22.5 195.5t-117 145 t-185.5 54.5q-160 0 -290.5 -117.5t-152.5 -277.5zM422 1157l24 176q77 71 139 108t104 42t76.5 -6t62 -32l55 -42t61 -30.5t74 -2.5t100 47.5t133.5 114.5l-24 -174q-93 -89 -164.5 -125t-116 -27.5t-82.5 34.5t-76 51.5t-83 32t-117 -33t-166 -133.5z" />
<glyph unicode="&#xf6;" horiz-adv-x="1288" d="M133 539q21 153 115 282.5t234.5 205t293.5 75.5t272 -75.5t176 -205t36 -282.5t-114.5 -283t-234 -205.5t-293.5 -75.5t-272 75.5t-176.5 205.5t-36.5 283zM311 539q-14 -104 24 -195t119.5 -146t186.5 -55q159 0 287.5 118t150.5 278q14 105 -22.5 195.5t-117 145 t-185.5 54.5q-160 0 -290.5 -117.5t-152.5 -277.5zM528 1307q6 47 45 80.5t86 33.5t76 -33.5t23 -80.5t-44 -81t-85 -34t-77 34t-24 81zM938 1307q6 47 45.5 80.5t87.5 33.5q47 0 75.5 -33.5t22.5 -80.5t-44 -81t-85 -34t-77.5 34t-24.5 81z" />
<glyph unicode="&#xf7;" d="M199 633l22 153h887l-23 -153h-886zM481 301q6 47 45 81t86 34t77 -34t24 -81t-45.5 -81t-87.5 -34q-47 0 -76 34t-23 81zM596 1118q6 47 45 81t86 34t76.5 -34t23.5 -81t-45.5 -80.5t-87.5 -33.5q-47 0 -75.5 33.5t-22.5 80.5z" />
<glyph unicode="&#xf8;" horiz-adv-x="1183" d="M152 487q19 138 104 255.5t212 186t265 68.5q39 0 76 -6l86 205h121l-98 -235q134 -58 204 -187t49 -287q-19 -138 -104 -255.5t-212 -186t-265 -68.5q-37 0 -84 7l-86 -205h-123l100 239q-131 59 -198.5 186t-46.5 283zM317 487q-13 -100 27 -186t119 -131l282 670 q-5 0 -16 1t-16 1q-145 0 -260 -105.5t-136 -249.5zM569 135q14 -2 43 -2q144 0 258.5 105t135.5 249q15 103 -27.5 191t-126.5 131z" />
<glyph unicode="&#xf9;" horiz-adv-x="1376" d="M195 416l92 661h178l-92 -661q-16 -117 50 -195t195 -78q157 0 273.5 116.5t138.5 279.5l76 538h180l-151 -1077h-181l31 223q-175 -248 -430 -248q-180 0 -284 120.5t-76 320.5zM649 1620h254l72 -434z" />
<glyph unicode="&#xfa;" horiz-adv-x="1376" d="M195 416l92 661h178l-92 -661q-16 -117 50 -195t195 -78q157 0 273.5 116.5t138.5 279.5l76 538h180l-151 -1077h-181l31 223q-175 -248 -430 -248q-180 0 -284 120.5t-76 320.5zM778 1128l195 435h254z" />
<glyph unicode="&#xfb;" horiz-adv-x="1376" d="M195 416l92 661h178l-92 -661q-16 -117 50 -195t195 -78q157 0 273.5 116.5t138.5 279.5l76 538h180l-151 -1077h-181l31 223q-175 -248 -430 -248q-180 0 -284 120.5t-76 320.5zM485 1128l355 435l231 -435h-141l-119 232l-182 -232h-144z" />
<glyph unicode="&#xfc;" horiz-adv-x="1376" d="M195 416l92 661h178l-92 -661q-16 -117 50 -195t195 -78q157 0 273.5 116.5t138.5 279.5l76 538h180l-151 -1077h-181l31 223q-175 -248 -430 -248q-180 0 -284 120.5t-76 320.5zM455 1245q6 47 45 81t86 34t75.5 -34t22.5 -81t-44 -81t-85 -34t-76.5 34t-23.5 81z M864 1245q6 47 45.5 81t87.5 34q47 0 76 -34t23 -81t-44 -81t-85 -34t-78 34t-25 81z" />
<glyph unicode="&#xfd;" horiz-adv-x="1038" d="M8 -588l418 703l-274 962h200l209 -731l434 731h195l-987 -1665h-195zM625 1128l194 435h254z" />
<glyph unicode="&#xfe;" horiz-adv-x="1257" d="M98 -420l293 2081h166l-119 -850q142 186 369 186q138 0 246 -68.5t159.5 -186t32.5 -255.5t-104 -255.5t-212 -186t-265 -68.5q-115 0 -195 49t-123 138l-82 -584h-166zM389 465q-11 -137 74 -234.5t223 -97.5q144 0 257 104.5t134 249.5t-63 250t-228 105 q-138 0 -250.5 -97.5t-140.5 -234.5z" />
<glyph unicode="&#xff;" horiz-adv-x="1038" d="M8 -588l418 703l-274 962h200l209 -731l434 731h195l-987 -1665h-195zM397 1323q6 47 45 81t86 34t76 -34t23 -81t-44 -81t-85 -34t-77 34t-24 81zM807 1323q6 47 45.5 81t87.5 34q47 0 75.5 -34t22.5 -81t-44 -81t-85 -34t-77.5 34t-24.5 81z" />
<glyph unicode="&#x2000;" horiz-adv-x="1059" />
<glyph unicode="&#x2001;" horiz-adv-x="2118" />
<glyph unicode="&#x2002;" horiz-adv-x="1059" />
<glyph unicode="&#x2003;" horiz-adv-x="2118" />
<glyph unicode="&#x2004;" horiz-adv-x="706" />
<glyph unicode="&#x2005;" horiz-adv-x="529" />
<glyph unicode="&#x2006;" horiz-adv-x="353" />
<glyph unicode="&#x2007;" horiz-adv-x="353" />
<glyph unicode="&#x2008;" horiz-adv-x="264" />
<glyph unicode="&#x2009;" horiz-adv-x="423" />
<glyph unicode="&#x200a;" horiz-adv-x="117" />
<glyph unicode="&#x2010;" horiz-adv-x="884" d="M309 633l23 153h442l-22 -153h-443z" />
<glyph unicode="&#x2011;" horiz-adv-x="884" d="M309 633l23 153h442l-22 -153h-443z" />
<glyph unicode="&#x2012;" horiz-adv-x="884" d="M309 633l23 153h442l-22 -153h-443z" />
<glyph unicode="&#x2013;" horiz-adv-x="1443" d="M309 633l51 153h973l-48 -153h-976z" />
<glyph unicode="&#x2014;" horiz-adv-x="2467" d="M309 633l101 153h1947l-97 -153h-1951z" />
<glyph unicode="&#x2018;" horiz-adv-x="411" d="M219 1204l281 434h139l-213 -434h-207z" />
<glyph unicode="&#x2019;" horiz-adv-x="411" d="M172 1204l213 434h207l-281 -434h-139z" />
<glyph unicode="&#x201c;" horiz-adv-x="714" d="M221 1204l281 434h139l-213 -434h-207zM524 1204l281 434h139l-213 -434h-207z" />
<glyph unicode="&#x201d;" horiz-adv-x="714" d="M170 1204l213 434h207l-281 -434h-139zM473 1204l213 434h207l-281 -434h-139z" />
<glyph unicode="&#x202f;" horiz-adv-x="423" />
<glyph unicode="&#x205f;" horiz-adv-x="529" />
<glyph unicode="&#x25fc;" horiz-adv-x="1075" d="M0 0v1075h1075v-1075h-1075z" />
</font>
</defs>
</svg>
