<?xml version="1.0" encoding="UTF-8" standalone="no"?>
<svg
   xmlns:dc="http://purl.org/dc/elements/1.1/"
   xmlns:cc="http://creativecommons.org/ns#"
   xmlns:rdf="http://www.w3.org/1999/02/22-rdf-syntax-ns#"
   xmlns:svg="http://www.w3.org/2000/svg"
   xmlns="http://www.w3.org/2000/svg"
   viewBox="0 0 1500 600"
   height="640"
   width="1600"
   version="1.1"
   id="svg2">
  <metadata
     id="metadata8">
    <rdf:RDF>
      <cc:Work
         rdf:about="">
        <dc:format>image/svg+xml</dc:format>
        <dc:type
           rdf:resource="http://purl.org/dc/dcmitype/StillImage" />
        <dc:title></dc:title>
      </cc:Work>
    </rdf:RDF>
  </metadata>
  <defs
     id="defs6" />
  <path
     id="rect3354"
     d="M 0,0 H 1500 V 600 H 0 Z"
     style="fill:#f2f2f2" />
  <g
     id="flowRoot3338"
     style="font-style:normal;font-weight:normal;line-height:0.01%;font-family:sans-serif;text-align:center;letter-spacing:0px;word-spacing:0px;text-anchor:middle;fill:#333333;fill-opacity:1;stroke:none;stroke-width:1px;stroke-linecap:butt;stroke-linejoin:miter;stroke-opacity:1"
     transform="matrix(4.9446623,0,0,4.9446623,315.54367,-22.26519)"
     aria-label="Renner*">
    <path
       id="path17"
       style="font-style:normal;font-variant:normal;font-weight:normal;font-stretch:normal;font-size:36.40288925px;line-height:1.25;font-family:'Renner*';-inkscape-font-specification:'Renner*';text-align:center;text-anchor:middle;fill:#333333"
       d="M 28.74369,57.797713 V 67.990522 H 25.649445 V 42.508499 h 6.916549 q 3.749497,0 6.188491,2.111368 2.475397,2.074965 2.475397,5.533239 0,2.803023 -1.674533,4.768779 -1.63813,1.929353 -4.40475,2.584605 l 7.608204,10.484032 H 38.936499 L 31.837936,57.797713 Z m 0,-2.730217 h 3.822304 q 2.511799,0 4.040721,-1.310504 1.528921,-1.310504 1.528921,-3.603886 0,-2.293382 -1.528921,-3.603886 -1.528922,-1.310504 -4.040721,-1.310504 H 28.74369 Z" />
    <path
       id="path19"
       style="font-style:normal;font-variant:normal;font-weight:normal;font-stretch:normal;font-size:36.40288925px;line-height:1.25;font-family:'Renner*';-inkscape-font-specification:'Renner*';text-align:center;text-anchor:middle;fill:#333333"
       d="m 44.41684,59.617857 q 0,-3.895109 2.329785,-6.297699 2.329785,-2.438994 5.970074,-2.438994 3.567483,0 5.715253,2.329785 2.184174,2.329785 2.184174,6.261297 0,0.582446 -0.0364,0.873669 H 47.401877 q 0.182014,2.5118 1.601727,3.895109 1.419713,1.38331 3.713095,1.38331 3.385469,0 5.242016,-3.02144 l 2.366188,1.492519 q -1.38331,2.14777 -3.167052,3.203454 -1.783741,1.055684 -4.805181,1.055684 -3.421872,0 -5.678851,-2.475397 -2.256979,-2.475396 -2.256979,-6.261297 z m 13.032234,-1.747338 q -0.218417,-2.038562 -1.419712,-3.239857 -1.201296,-1.201296 -3.312663,-1.201296 -2.074965,0 -3.567483,1.237698 -1.456116,1.201296 -1.674533,3.203455 z" />
    <path
       id="path21"
       style="font-style:normal;font-variant:normal;font-weight:normal;font-stretch:normal;font-size:36.40288925px;line-height:1.25;font-family:'Renner*';-inkscape-font-specification:'Renner*';text-align:center;text-anchor:middle;fill:#333333"
       d="m 75.382049,57.797713 q 0,-4.186332 -3.567483,-4.186332 -1.892951,0 -3.094246,1.201295 -1.164892,1.164892 -1.164892,2.985037 V 67.990522 H 64.643196 V 51.245193 h 2.912232 v 2.657411 q 1.674532,-3.02144 4.987195,-3.02144 2.657411,0 4.186333,1.710936 1.565324,1.674533 1.565324,4.841584 v 10.556838 h -2.912231 z" />
    <path
       id="path23"
       style="font-style:normal;font-variant:normal;font-weight:normal;font-stretch:normal;font-size:36.40288925px;line-height:1.25;font-family:'Renner*';-inkscape-font-specification:'Renner*';text-align:center;text-anchor:middle;fill:#333333"
       d="m 94.507781,57.797713 q 0,-4.186332 -3.567483,-4.186332 -1.89295,0 -3.094246,1.201295 -1.164892,1.164892 -1.164892,2.985037 V 67.990522 H 83.768929 V 51.245193 h 2.912231 v 2.657411 q 1.674533,-3.02144 4.987196,-3.02144 2.657411,0 4.186332,1.710936 1.565324,1.674533 1.565324,4.841584 v 10.556838 h -2.912231 z" />
    <path
       id="path25"
       style="font-style:normal;font-variant:normal;font-weight:normal;font-stretch:normal;font-size:36.40288925px;line-height:1.25;font-family:'Renner*';-inkscape-font-specification:'Renner*';text-align:center;text-anchor:middle;fill:#333333"
       d="m 101.43855,59.617857 q 0,-3.895109 2.32979,-6.297699 2.32978,-2.438994 5.97007,-2.438994 3.56749,0 5.71526,2.329785 2.18417,2.329785 2.18417,6.261297 0,0.582446 -0.0364,0.873669 h -13.17785 q 0.18201,2.5118 1.60173,3.895109 1.41971,1.38331 3.71309,1.38331 3.38547,0 5.24202,-3.02144 l 2.36619,1.492519 q -1.38331,2.14777 -3.16706,3.203454 -1.78374,1.055684 -4.80518,1.055684 -3.42187,0 -5.67885,-2.475397 -2.25698,-2.475396 -2.25698,-6.261297 z m 13.03224,-1.747338 q -0.21842,-2.038562 -1.41971,-3.239857 -1.2013,-1.201296 -3.31267,-1.201296 -2.07496,0 -3.56748,1.237698 -1.45612,1.201296 -1.67453,3.203455 z" />
    <path
       id="path27"
       style="font-style:normal;font-variant:normal;font-weight:normal;font-stretch:normal;font-size:36.40288925px;line-height:1.25;font-family:'Renner*';-inkscape-font-specification:'Renner*';text-align:center;text-anchor:middle;fill:#333333"
       d="m 129.63714,54.448647 q -1.16489,-0.837266 -2.25698,-0.837266 -2.80302,0 -2.80302,4.186332 v 10.192809 h -2.91223 V 51.245193 h 2.91223 v 1.929353 q 1.52892,-2.293382 3.53108,-2.293382 2.00216,0 3.13065,1.164892 z" />
    <path
       id="path29"
       style="fill:#c83737"
       d="m 140.94934,42.508499 h 2.5482 l -0.29122,5.751657 5.38762,-2.074965 0.76446,2.438994 -5.53324,1.492518 3.60389,4.477556 -2.07496,1.492518 -3.13065,-4.805181 -3.13065,4.805181 -2.07497,-1.492518 3.60389,-4.477556 -5.53324,-1.492518 0.76446,-2.438994 5.38763,2.074965 z" />
  </g>
  <g
     id="flowRoot869"
     style="font-style:normal;font-weight:normal;font-size:14.15667915px;line-height:0.01%;font-family:sans-serif;text-align:center;letter-spacing:0px;word-spacing:0px;text-anchor:middle;fill:#666666;fill-opacity:1;stroke:none;stroke-width:1px;stroke-linecap:butt;stroke-linejoin:miter;stroke-opacity:1"
     transform="matrix(4.9446623,0,0,4.9446623,315.54367,221.48481)"
     aria-label="Perpetually Modern">
    <path
       id="path32"
       style="font-style:italic;font-variant:normal;font-weight:500;font-stretch:normal;font-size:14.15667915px;line-height:1.25;font-family:'Renner*';-inkscape-font-specification:'Renner* Medium Italic';text-align:center;text-anchor:middle;fill:#666666"
       d="m 30.024601,42.506766 h 1.316572 q 0.877714,0 1.458137,-0.410544 0.594581,-0.410543 0.736148,-1.189161 0.141567,-0.778617 -0.311447,-1.189161 -0.438857,-0.4247 -1.316571,-0.4247 h -1.316571 z m -0.25482,1.472295 -0.665364,3.75152 h -1.670488 l 1.741272,-9.909676 h 2.987059 q 1.628018,0 2.449105,0.835244 0.821088,0.835244 0.566268,2.250912 -0.254821,1.415668 -1.373198,2.250912 -1.104221,0.821088 -2.718083,0.821088 z" />
    <path
       id="path34"
       style="font-style:italic;font-variant:normal;font-weight:500;font-stretch:normal;font-size:14.15667915px;line-height:1.25;font-family:'Renner*';-inkscape-font-specification:'Renner* Medium Italic';text-align:center;text-anchor:middle;fill:#666666"
       d="m 40.285761,43.76671 q 0.02831,-0.72199 -0.311447,-1.118377 -0.339761,-0.410544 -1.047595,-0.410544 -0.707834,0 -1.274101,0.410544 -0.566267,0.410543 -0.778617,1.118377 z m -3.609954,1.061751 q -0.07078,0.877714 0.325604,1.330728 0.410544,0.453014 1.175004,0.453014 1.245788,0 2.052719,-1.033438 l 1.231631,0.537954 q -1.387355,1.755428 -3.58164,1.755428 -1.486451,0 -2.236755,-0.948497 -0.750304,-0.962654 -0.481327,-2.449106 0.268977,-1.528921 1.344884,-2.463262 1.090065,-0.934341 2.647299,-0.934341 1.514765,0 2.222599,0.891871 0.707834,0.891871 0.438857,2.434949 -0.01416,0.113253 -0.0991,0.4247 z" />
    <path
       id="path36"
       style="font-style:italic;font-variant:normal;font-weight:500;font-stretch:normal;font-size:14.15667915px;line-height:1.25;font-family:'Renner*';-inkscape-font-specification:'Renner* Medium Italic';text-align:center;text-anchor:middle;fill:#666666"
       d="m 46.997574,42.860683 q -0.38223,-0.353917 -0.80693,-0.353917 -1.061751,0 -1.344885,1.557235 l -0.651207,3.66658 h -1.514765 l 1.146691,-6.512073 h 1.514765 l -0.141567,0.778618 q 0.764461,-0.920185 1.656331,-0.920185 0.778618,0 1.118378,0.481327 z" />
    <path
       id="path38"
       style="font-style:italic;font-variant:normal;font-weight:500;font-stretch:normal;font-size:14.15667915px;line-height:1.25;font-family:'Renner*';-inkscape-font-specification:'Renner* Medium Italic';text-align:center;text-anchor:middle;fill:#666666"
       d="m 54.884835,41.982969 q 0.764461,0.920184 0.481327,2.491575 -0.283133,1.571392 -1.373198,2.505733 -1.075907,0.920184 -2.406635,0.920184 -1.486451,0 -1.996092,-1.274101 l -0.750304,4.21869 h -1.543078 l 1.698802,-9.626542 h 1.543078 l -0.198194,1.090064 q 0.948498,-1.259944 2.449106,-1.259944 1.330728,0 2.095188,0.934341 z m -1.104221,2.491575 q 0.16988,-0.948497 -0.311447,-1.486451 -0.46717,-0.55211 -1.302414,-0.55211 -0.721991,0 -1.373198,0.55211 -0.651207,0.552111 -0.821087,1.486451 -0.169881,0.934341 0.283133,1.486452 0.467171,0.55211 1.189161,0.55211 0.835244,0 1.500608,-0.55211 0.665364,-0.552111 0.835244,-1.486452 z" />
    <path
       id="path40"
       style="font-style:italic;font-variant:normal;font-weight:500;font-stretch:normal;font-size:14.15667915px;line-height:1.25;font-family:'Renner*';-inkscape-font-specification:'Renner* Medium Italic';text-align:center;text-anchor:middle;fill:#666666"
       d="m 61.437831,43.76671 q 0.02831,-0.72199 -0.311447,-1.118377 -0.339761,-0.410544 -1.047595,-0.410544 -0.707834,0 -1.274101,0.410544 -0.566267,0.410543 -0.778617,1.118377 z m -3.609954,1.061751 q -0.07078,0.877714 0.325604,1.330728 0.410544,0.453014 1.175004,0.453014 1.245788,0 2.052719,-1.033438 l 1.231631,0.537954 q -1.387355,1.755428 -3.58164,1.755428 -1.486451,0 -2.236755,-0.948497 -0.750304,-0.962654 -0.481327,-2.449106 0.268977,-1.528921 1.344884,-2.463262 1.090065,-0.934341 2.647299,-0.934341 1.514765,0 2.222599,0.891871 0.707834,0.891871 0.438857,2.434949 -0.01416,0.113253 -0.0991,0.4247 z" />
    <path
       id="path42"
       style="font-style:italic;font-variant:normal;font-weight:500;font-stretch:normal;font-size:14.15667915px;line-height:1.25;font-family:'Renner*';-inkscape-font-specification:'Renner* Medium Italic';text-align:center;text-anchor:middle;fill:#666666"
       d="m 65.558971,38.953439 h 1.514765 l -0.396387,2.265069 h 1.090064 l -0.240664,1.344885 h -1.090064 l -0.906027,5.167188 h -1.514765 l 0.906027,-5.167188 h -1.090064 l 0.240664,-1.344885 h 1.090064 z" />
    <path
       id="path44"
       style="font-style:italic;font-variant:normal;font-weight:500;font-stretch:normal;font-size:14.15667915px;line-height:1.25;font-family:'Renner*';-inkscape-font-specification:'Renner* Medium Italic';text-align:center;text-anchor:middle;fill:#666666"
       d="m 69.69958,45.182378 q -0.25482,1.458138 0.962654,1.458138 0.608738,0 1.061751,-0.368073 0.453014,-0.368074 0.608738,-0.962655 l 0.72199,-4.09128 h 1.528922 l -1.146691,6.512073 H 71.908022 L 72.092059,46.7113 q -0.835244,1.160847 -2.180129,1.160847 -1.090064,0 -1.557234,-0.63705 -0.467171,-0.651207 -0.254821,-1.882839 l 0.721991,-4.13375 h 1.571392 z" />
    <path
       id="path46"
       style="font-style:italic;font-variant:normal;font-weight:500;font-stretch:normal;font-size:14.15667915px;line-height:1.25;font-family:'Renner*';-inkscape-font-specification:'Renner* Medium Italic';text-align:center;text-anchor:middle;fill:#666666"
       d="m 75.474398,44.474544 q 0.268977,-1.571391 1.344885,-2.477418 1.090064,-0.920185 2.420792,-0.920185 1.557235,0 2.038562,1.330728 l 0.21235,-1.189161 h 1.486451 l -1.146691,6.512073 h -1.486451 l 0.21235,-1.189161 q -0.976811,1.330727 -2.519889,1.330727 -1.330728,0 -2.095188,-0.906027 -0.750304,-0.920184 -0.467171,-2.491576 z m 2.406636,-1.486451 q -0.651208,0.537954 -0.821088,1.486451 -0.16988,0.948498 0.283134,1.500608 0.46717,0.537954 1.302414,0.537954 0.721991,0 1.387355,-0.55211 0.665364,-0.552111 0.835244,-1.486452 0.16988,-0.93434 -0.311447,-1.486451 -0.46717,-0.55211 -1.189161,-0.55211 -0.835244,0 -1.486451,0.55211 z" />
    <path
       id="path48"
       style="font-style:italic;font-variant:normal;font-weight:500;font-stretch:normal;font-size:14.15667915px;line-height:1.25;font-family:'Renner*';-inkscape-font-specification:'Renner* Medium Italic';text-align:center;text-anchor:middle;fill:#666666"
       d="m 85.665658,36.688371 h 1.543078 l -1.953621,11.04221 h -1.543078 z" />
    <path
       id="path50"
       style="font-style:italic;font-variant:normal;font-weight:500;font-stretch:normal;font-size:14.15667915px;line-height:1.25;font-family:'Renner*';-inkscape-font-specification:'Renner* Medium Italic';text-align:center;text-anchor:middle;fill:#666666"
       d="m 89.14953,36.688371 h 1.543078 l -1.953622,11.04221 h -1.543078 z" />
    <path
       id="path52"
       style="font-style:italic;font-variant:normal;font-weight:500;font-stretch:normal;font-size:14.15667915px;line-height:1.25;font-family:'Renner*';-inkscape-font-specification:'Renner* Medium Italic';text-align:center;text-anchor:middle;fill:#666666"
       d="m 97.588239,41.218508 -5.945805,9.626542 h -1.628018 l 2.406635,-3.87893 -1.628018,-5.747612 h 1.755428 l 0.962654,4.218691 2.434949,-4.218691 z" />
    <path
       id="path54"
       style="font-style:italic;font-variant:normal;font-weight:500;font-stretch:normal;font-size:14.15667915px;line-height:1.25;font-family:'Renner*';-inkscape-font-specification:'Renner* Medium Italic';text-align:center;text-anchor:middle;fill:#666666"
       d="m 104.65861,41.713992 -1.74127,6.016589 h -1.72711 l 3.1994,-10.40516 2.87381,6.724423 5.26629,-6.724423 -0.48133,10.40516 h -1.74127 l 0.38223,-6.016589 -3.9214,5.096404 z" />
    <path
       id="path56"
       style="font-style:italic;font-variant:normal;font-weight:500;font-stretch:normal;font-size:14.15667915px;line-height:1.25;font-family:'Renner*';-inkscape-font-specification:'Renner* Medium Italic';text-align:center;text-anchor:middle;fill:#666666"
       d="m 114.18319,46.92365 q -0.82109,-0.948498 -0.55211,-2.449106 0.26897,-1.500608 1.42982,-2.449105 1.16085,-0.948498 2.67561,-0.948498 1.51477,0 2.35001,0.948498 0.83525,0.948497 0.56627,2.449105 -0.26898,1.486452 -1.44398,2.449106 -1.16085,0.948497 -2.67562,0.948497 -1.51476,0 -2.35,-0.948497 z m 1.82621,-3.9214 q -0.65121,0.566267 -0.80693,1.472294 -0.15573,0.906028 0.28313,1.486452 0.45301,0.566267 1.28826,0.566267 0.83524,0 1.48645,-0.566267 0.66536,-0.580424 0.82109,-1.486452 0.15572,-0.906027 -0.29729,-1.472294 -0.45302,-0.580424 -1.28826,-0.580424 -0.83525,0 -1.48645,0.580424 z" />
    <path
       id="path58"
       style="font-style:italic;font-variant:normal;font-weight:500;font-stretch:normal;font-size:14.15667915px;line-height:1.25;font-family:'Renner*';-inkscape-font-specification:'Renner* Medium Italic';text-align:center;text-anchor:middle;fill:#666666"
       d="m 122.06137,46.951963 q -0.7503,-0.920184 -0.46717,-2.477419 0.28314,-1.557234 1.35904,-2.477418 1.07591,-0.920185 2.40664,-0.920185 1.45814,0 2.01025,1.217475 l 0.99097,-5.606045 h 1.54307 l -1.95362,11.04221 h -1.54308 l 0.18404,-1.075908 q -0.99097,1.217474 -2.43495,1.217474 -1.33073,0 -2.09519,-0.920184 z m 1.93947,-3.978027 q -0.65121,0.552111 -0.82109,1.500608 -0.16988,0.948498 0.29729,1.514765 0.46717,0.552111 1.28826,0.552111 0.69368,0 1.33073,-0.523798 0.6512,-0.523797 0.86355,-1.401511 l 0.0566,-0.29729 q 0.0991,-0.877714 -0.38223,-1.387355 -0.46717,-0.523797 -1.14669,-0.523797 -0.82109,0 -1.48645,0.566267 z" />
    <path
       id="path60"
       style="font-style:italic;font-variant:normal;font-weight:500;font-stretch:normal;font-size:14.15667915px;line-height:1.25;font-family:'Renner*';-inkscape-font-specification:'Renner* Medium Italic';text-align:center;text-anchor:middle;fill:#666666"
       d="m 135.0415,43.76671 q 0.0283,-0.72199 -0.31145,-1.118377 -0.33976,-0.410544 -1.04759,-0.410544 -0.70784,0 -1.2741,0.410544 -0.56627,0.410543 -0.77862,1.118377 z m -3.60995,1.061751 q -0.0708,0.877714 0.3256,1.330728 0.41054,0.453014 1.175,0.453014 1.24579,0 2.05272,-1.033438 l 1.23163,0.537954 q -1.38735,1.755428 -3.58164,1.755428 -1.48645,0 -2.23675,-0.948497 -0.75031,-0.962654 -0.48133,-2.449106 0.26898,-1.528921 1.34489,-2.463262 1.09006,-0.934341 2.64729,-0.934341 1.51477,0 2.2226,0.891871 0.70784,0.891871 0.43886,2.434949 -0.0142,0.113253 -0.0991,0.4247 z" />
    <path
       id="path62"
       style="font-style:italic;font-variant:normal;font-weight:500;font-stretch:normal;font-size:14.15667915px;line-height:1.25;font-family:'Renner*';-inkscape-font-specification:'Renner* Medium Italic';text-align:center;text-anchor:middle;fill:#666666"
       d="m 141.75332,42.860683 q -0.38223,-0.353917 -0.80693,-0.353917 -1.06175,0 -1.34489,1.557235 l -0.6512,3.66658 h -1.51477 l 1.14669,-6.512073 h 1.51477 l -0.14157,0.778618 q 0.76446,-0.920185 1.65633,-0.920185 0.77862,0 1.11838,0.481327 z" />
    <path
       id="path64"
       style="font-style:italic;font-variant:normal;font-weight:500;font-stretch:normal;font-size:14.15667915px;line-height:1.25;font-family:'Renner*';-inkscape-font-specification:'Renner* Medium Italic';text-align:center;text-anchor:middle;fill:#666666"
       d="m 147.54539,43.76671 q 0.25482,-1.458138 -0.93434,-1.458138 -0.60874,0 -1.07591,0.382231 -0.45302,0.368073 -0.60874,0.962654 l -0.72199,4.077124 h -1.54308 l 1.14669,-6.512073 h 1.54308 l -0.18404,1.019281 q 0.83525,-1.160848 2.16598,-1.160848 1.09006,0 1.55723,0.651208 0.46717,0.63705 0.25482,1.868681 l -0.72199,4.133751 h -1.57139 z" />
  </g>
</svg>
