<?xml version="1.0" encoding="UTF-8" standalone="no"?>
<svg
   xmlns:dc="http://purl.org/dc/elements/1.1/"
   xmlns:cc="http://creativecommons.org/ns#"
   xmlns:rdf="http://www.w3.org/1999/02/22-rdf-syntax-ns#"
   xmlns:svg="http://www.w3.org/2000/svg"
   xmlns="http://www.w3.org/2000/svg"
   xmlns:sodipodi="http://sodipodi.sourceforge.net/DTD/sodipodi-0.dtd"
   xmlns:inkscape="http://www.inkscape.org/namespaces/inkscape"
   viewBox="0 0 1500 600"
   height="640"
   width="1600"
   version="1.1"
   id="svg2"
   sodipodi:docname="1.svg"
   inkscape:version="0.92.3 (unknown)">
  <sodipodi:namedview
     pagecolor="#ffffff"
     bordercolor="#666666"
     borderopacity="1"
     objecttolerance="10"
     gridtolerance="10"
     guidetolerance="10"
     inkscape:pageopacity="0"
     inkscape:pageshadow="2"
     inkscape:window-width="1366"
     inkscape:window-height="716"
     id="namedview33"
     showgrid="false"
     inkscape:zoom="0.31625"
     inkscape:cx="1031.9028"
     inkscape:cy="-25.681897"
     inkscape:window-x="0"
     inkscape:window-y="24"
     inkscape:window-maximized="1"
     inkscape:current-layer="svg2" />
  <metadata
     id="metadata8">
    <rdf:RDF>
      <cc:Work
         rdf:about="">
        <dc:format>image/svg+xml</dc:format>
        <dc:type
           rdf:resource="http://purl.org/dc/dcmitype/StillImage" />
        <dc:title />
      </cc:Work>
    </rdf:RDF>
  </metadata>
  <defs
     id="defs6" />
  <path
     id="rect3354"
     d="M 0,0 H 1500 V 600 H 0 Z"
     style="fill:#f2f2f2" />
  <g
     id="flowRoot28"
     style="font-style:normal;font-variant:normal;font-weight:normal;font-stretch:normal;font-size:192px;line-height:125%;font-family:'Jost*';-inkscape-font-specification:'Jost*';text-align:center;letter-spacing:0px;word-spacing:0px;text-anchor:middle;fill:#000000;fill-opacity:1;stroke:none;stroke-width:1px;stroke-linecap:butt;stroke-linejoin:miter;stroke-opacity:1"
     transform="matrix(0.9375,0,0,0.9375,0,-99.375)" />
  <g
     id="flowRoot50"
     style="font-style:normal;font-variant:normal;font-weight:normal;font-stretch:normal;font-size:192px;line-height:125%;font-family:'Jost*';-inkscape-font-specification:'Jost*';text-align:center;letter-spacing:0px;word-spacing:0px;text-anchor:middle;fill:#000000;fill-opacity:1;stroke:none;stroke-width:1px;stroke-linecap:butt;stroke-linejoin:miter;stroke-opacity:1"
     transform="matrix(1.0816814,0,0,1.0816814,-141.70757,-14.230148)"
     aria-label="Renner*">
    <path
       id="path89"
       style="fill:#333333"
       d="m 542.29816,174.68738 v -51.84 h 20.16 q 13.056,0 21.12,6.912 8.256,6.72 8.256,19.008 0,12.288 -8.256,19.2 -8.064,6.72 -21.12,6.72 z m 0,14.4 h 16.32 l 37.44,53.76 h 20.16 l -40.128,-55.296 q 14.016,-3.456 23.04,-13.44 9.024,-10.176 9.024,-25.344 0,-12.288 -6.144,-21.312 -5.952,-9.216 -16.32,-14.016 -10.176,-4.992 -23.232,-4.992 h -20.16 -7.296 -9.024 v 134.4 h 16.32 z"
       inkscape:connector-curvature="0" />
    <path
       id="path91"
       style="fill:#333333"
       d="m 693.69916,189.47138 h -52.608 q 1.152,-10.752 9.024,-17.088 8.064,-6.336 18.624,-6.336 11.52,0 17.664,6.528 6.144,6.528 7.296,16.896 z m -52.992,13.056 h 69.504 q 0.192,-1.152 0.192,-2.304 0,-1.152 0,-2.304 0,-13.824 -5.184,-24 -5.184,-10.176 -14.592,-15.744 -9.408,-5.568 -21.888,-5.568 -11.328,0 -20.544,4.608 -9.024,4.608 -14.976,12.864 -5.76,8.256 -7.488,19.2 -0.384,2.304 -0.576,4.608 -0.192,2.304 -0.192,4.8 0,13.44 5.376,23.808 5.568,10.368 14.976,16.32 9.408,5.952 21.504,5.952 11.328,0 19.008,-2.688 7.872,-2.88 13.248,-7.872 5.376,-5.184 9.792,-11.904 l -12.48,-7.872 q -4.416,7.296 -11.328,11.712 -6.72,4.224 -16.32,4.224 -12.096,0 -19.584,-7.104 -7.488,-7.296 -8.448,-20.736 z"
       inkscape:connector-curvature="0" />
    <path
       id="path93"
       style="fill:#333333"
       d="m 788.28316,189.08738 v 53.76 h 15.36 v -55.68 q 0,-17.088 -8.448,-25.728 -8.256,-8.832 -21.888,-8.832 -8.64,0 -15.552,4.416 -6.72,4.224 -10.752,11.52 v -14.016 h -15.36 v 88.32 h 15.36 v -53.76 q 0,-9.6 6.144,-15.744 6.336,-6.336 16.32,-6.336 18.816,0 18.816,22.08 z"
       inkscape:connector-curvature="0" />
    <path
       id="path95"
       style="fill:#333333"
       d="m 889.15816,189.08738 v 53.76 h 15.36 v -55.68 q 0,-17.088 -8.448,-25.728 -8.256,-8.832 -21.888,-8.832 -8.64,0 -15.552,4.416 -6.72,4.224 -10.752,11.52 v -14.016 h -15.36 v 88.32 h 15.36 v -53.76 q 0,-9.6 6.144,-15.744 6.336,-6.336 16.32,-6.336 18.816,0 18.816,22.08 z"
       inkscape:connector-curvature="0" />
    <path
       id="path97"
       style="fill:#333333"
       d="m 994.44916,189.47138 h -52.608 q 1.152,-10.752 9.024,-17.088 8.064,-6.336 18.624,-6.336 11.52,0 17.664,6.528 6.144,6.528 7.296,16.896 z m -52.992,13.056 h 69.50404 q 0.192,-1.152 0.192,-2.304 0,-1.152 0,-2.304 0,-13.824 -5.184,-24 -5.184,-10.176 -14.59204,-15.744 -9.408,-5.568 -21.888,-5.568 -11.328,0 -20.544,4.608 -9.024,4.608 -14.976,12.864 -5.76,8.256 -7.488,19.2 -0.384,2.304 -0.576,4.608 -0.192,2.304 -0.192,4.8 0,13.44 5.376,23.808 5.568,10.368 14.976,16.32 9.408,5.952 21.504,5.952 11.328,0 19.008,-2.688 7.872,-2.88 13.248,-7.872 5.37604,-5.184 9.79204,-11.904 l -12.48004,-7.872 q -4.416,7.296 -11.328,11.712 -6.72,4.224 -16.32,4.224 -12.096,0 -19.584,-7.104 -7.488,-7.296 -8.448,-20.736 z"
       inkscape:connector-curvature="0" />
    <path
       id="path99"
       style="fill:#333333"
       d="m 1074.4412,171.42338 8.448,-12.672 q -3.456,-3.648 -7.68,-4.8 -4.032,-1.344 -8.832,-1.344 -4.992,0 -9.984,3.264 -4.992,3.264 -8.64,8.832 v -10.176 h -15.36 v 88.32 h 15.36 v -53.76 q 0,-9.6 3.072,-15.744 3.072,-6.336 11.712,-6.336 3.84,0 6.336,1.152 2.496,0.96 5.568,3.264 z"
       inkscape:connector-curvature="0" />
    <path
       id="path101"
       style="font-style:normal;font-variant:normal;font-weight:normal;font-stretch:normal;font-size:192px;font-family:'Jost*';-inkscape-font-specification:'Jost*';text-align:center;text-anchor:middle;fill:#c83737"
       d="m 1134.1052,108.44738 1.536,30.336 -28.416,-10.944 -4.032,12.864 29.184,7.872 -19.008,23.616 10.944,7.872 16.512,-25.344 16.512,25.344 10.944,-7.872 -19.008,-23.616 29.184,-7.872 -4.032,-12.864 -28.416,10.944 1.536,-30.336 z"
       inkscape:connector-curvature="0" />
  </g>
  <path
     id="rect72"
     d="m 372.22149,165.68058 h 759.42241 v 56.83577 H 372.22149 Z"
     style="opacity:1;fill:#c83737;fill-opacity:1;stroke:none;stroke-width:2.86177111;stroke-linejoin:miter;stroke-miterlimit:4;stroke-dasharray:none;stroke-opacity:1"
     inkscape:connector-curvature="0" />
  <g
     id="flowRoot86"
     style="font-style:normal;font-variant:normal;font-weight:normal;font-stretch:normal;font-size:192px;line-height:125%;font-family:'Jost*';-inkscape-font-specification:'Jost*';text-align:center;letter-spacing:0px;word-spacing:0px;text-anchor:middle;fill:#000000;fill-opacity:1;stroke:none;stroke-width:1px;stroke-linecap:butt;stroke-linejoin:miter;stroke-opacity:1"
     transform="matrix(1.0816814,0,0,1.0816814,-141.70757,223.73976)"
     aria-label="Jost*">
    <path
       id="path126"
       style="fill:#333333"
       d="m 647.19166,262.81538 -8.448,12.672 q 2.112,2.88 8.64,6.144 6.336,3.456 14.016,3.456 13.632,0 21.504,-7.488 7.872,-7.488 7.872,-23.232 v -145.92 h -15.36 v 144 q 0,9.6 -4.416,13.44 -4.416,3.84 -8.64,3.84 -10.944,0 -15.168,-6.912 z"
       inkscape:connector-curvature="0" />
    <path
       id="path128"
       style="fill:#333333"
       d="m 712.90066,198.68738 q 0,13.44 5.952,23.808 6.144,10.368 16.512,16.32 10.368,5.952 23.232,5.952 12.864,0 23.232,-5.952 10.368,-5.952 16.32,-16.32 6.144,-10.368 6.144,-23.808 0,-13.44 -6.144,-23.808 -5.952,-10.368 -16.32,-16.32 -10.368,-5.952 -23.232,-5.952 -12.864,0 -23.232,5.952 -10.368,5.952 -16.512,16.32 -5.952,10.368 -5.952,23.808 z m 15.552,0 q 0,-9.216 3.84,-16.32 4.032,-7.104 10.752,-11.136 6.912,-4.224 15.552,-4.224 8.64,0 15.36,4.224 6.912,4.032 10.752,11.136 4.032,7.104 4.032,16.32 0,9.216 -4.032,16.32 -3.84,7.104 -10.752,11.328 -6.72,4.032 -15.36,4.032 -8.64,0 -15.552,-4.032 -6.72,-4.224 -10.752,-11.328 -3.84,-7.104 -3.84,-16.32 z"
       inkscape:connector-curvature="0" />
    <path
       id="path130"
       style="fill:#333333"
       d="m 828.07666,211.74338 -12.096,7.488 q 4.8,10.752 14.4,18.24 9.792,7.296 22.08,7.296 12.864,0 21.504,-6.336 8.832,-6.336 8.832,-20.544 0,-7.296 -3.456,-12.288 -3.456,-5.184 -9.216,-8.448 -5.568,-3.456 -11.712,-6.144 -4.992,-1.92 -9.984,-3.84 -4.992,-1.92 -8.448,-4.416 -3.456,-2.688 -3.456,-6.912 0,-5.184 4.032,-7.104 4.032,-2.112 9.792,-2.112 5.376,0 10.752,3.456 5.376,3.264 8.64,7.68 l 12.288,-7.872 q -4.032,-7.296 -12.672,-12.288 -8.64,-4.992 -19.2,-4.992 -7.104,0 -13.632,2.496 -6.528,2.496 -10.752,7.872 -4.224,5.184 -4.224,13.44 0,8.448 3.84,13.248 3.84,4.608 9.6,7.488 5.76,2.688 11.904,5.184 4.992,2.112 9.6,4.416 4.608,2.112 7.488,5.184 2.88,3.072 2.88,7.68 0,5.568 -4.224,8.256 -4.032,2.496 -10.176,2.496 -6.336,0 -13.056,-5.184 -6.72,-5.376 -11.328,-13.44 z"
       inkscape:connector-curvature="0" />
    <path
       id="path132"
       style="fill:#333333"
       d="m 903.79066,123.80738 v 30.72 h -14.4 v 14.4 h 14.4 v 73.92 h 15.36 v -73.92 h 14.4 v -14.4 h -14.4 v -30.72 z"
       inkscape:connector-curvature="0" />
    <path
       id="path134"
       style="font-style:normal;font-variant:normal;font-weight:normal;font-stretch:normal;font-size:192px;font-family:'Jost*';-inkscape-font-specification:'Jost*';text-align:center;text-anchor:middle;fill:#c83737"
       d="m 984.66766,108.44738 1.536,30.336 -28.416,-10.944 -4.032,12.864 29.184,7.872 -19.008,23.616 10.944,7.872 16.512,-25.344 16.51204,25.344 10.944,-7.872 -19.00804,-23.616 29.18404,-7.872 -4.032,-12.864 -28.41604,10.944 1.536,-30.336 z"
       inkscape:connector-curvature="0" />
  </g>
</svg>
