<?xml version="1.0" encoding="UTF-8" standalone="no"?>
<svg
   xmlns:dc="http://purl.org/dc/elements/1.1/"
   xmlns:cc="http://creativecommons.org/ns#"
   xmlns:rdf="http://www.w3.org/1999/02/22-rdf-syntax-ns#"
   xmlns:svg="http://www.w3.org/2000/svg"
   xmlns="http://www.w3.org/2000/svg"
   viewBox="0 0 1500 600"
   height="640"
   width="1600"
   version="1.1"
   id="svg2">
  <metadata
     id="metadata8">
    <rdf:RDF>
      <cc:Work
         rdf:about="">
        <dc:format>image/svg+xml</dc:format>
        <dc:type
           rdf:resource="http://purl.org/dc/dcmitype/StillImage" />
        <dc:title></dc:title>
      </cc:Work>
    </rdf:RDF>
  </metadata>
  <defs
     id="defs6" />
  <path
     id="rect3354"
     d="M 0,0 H 1500 V 600 H 0 Z"
     style="fill:#f2f2f2" />
  <g
     id="flowRoot3338"
     style="font-style:normal;font-weight:normal;font-size:12.52019596px;line-height:1;font-family:sans-serif;text-align:end;letter-spacing:0px;word-spacing:0px;text-anchor:end;fill:#333333;fill-opacity:1;stroke:none;stroke-width:1px;stroke-linecap:butt;stroke-linejoin:miter;stroke-opacity:1"
     transform="matrix(5.0630513,0,0,5.0630513,88.760794,-321.07399)"
     aria-label="Renner*
Renner*
Renner*
Renner*
Renner*
Renner*
Renner*
Renner*
Renner*">
    <path
       id="path854"
       style="font-style:normal;font-variant:normal;font-weight:100;font-stretch:normal;font-size:12.52019596px;line-height:1;font-family:'Renner*';-inkscape-font-specification:'Renner* Thin';text-align:end;text-anchor:end;fill:#333333"
       d="m 88.341393,71.030955 v 3.931342 H 88.20367 V 66.19816 h 1.439823 q 1.327141,0 2.140953,0.626009 0.813813,0.62601 0.813813,1.790388 0,1.139338 -0.788772,1.765348 -0.788772,0.62601 -2.065832,0.65105 l 2.754443,3.931342 h -0.175283 l -2.729403,-3.931342 z m 0,-0.125202 h 1.3021 q 1.28958,0 2.053312,-0.588449 0.763732,-0.588449 0.763732,-1.702747 0,-1.114297 -0.776252,-1.690226 -0.763732,-0.588449 -2.040792,-0.588449 h -1.3021 z" />
    <path
       id="path856"
       style="font-style:normal;font-variant:normal;font-weight:100;font-stretch:normal;font-size:12.52019596px;line-height:1;font-family:'Renner*';-inkscape-font-specification:'Renner* Thin';text-align:end;text-anchor:end;fill:#333333"
       d="m 98.529702,71.794687 q 0,-1.089257 -0.713651,-1.840469 -0.713651,-0.751211 -1.677707,-0.751211 -1.001615,0 -1.740307,0.763732 -0.738691,0.763732 -0.763732,2.015751 h 4.895397 z m -5.020599,0.262924 q 0,-1.28958 0.751212,-2.128433 0.751212,-0.851373 1.878029,-0.851373 1.014136,0 1.765348,0.776252 0.763732,0.776252 0.763732,1.92811 0,0.125202 -0.02504,0.325525 h -5.008079 q 0.01252,1.214459 0.713651,2.040792 0.713652,0.813813 1.727787,0.813813 0.525849,0 0.926495,-0.125202 0.413166,-0.125202 0.688611,-0.363086 0.287964,-0.237884 0.438207,-0.425686 0.150242,-0.200324 0.338045,-0.500808 l 0.100161,0.07512 q -0.200323,0.313005 -0.350565,0.500808 -0.137722,0.175282 -0.438207,0.438207 -0.287964,0.262924 -0.726171,0.400646 -0.425687,0.125202 -0.976576,0.125202 -1.089257,0 -1.827948,-0.863894 -0.738692,-0.863893 -0.738692,-2.165994 z" />
    <path
       id="path858"
       style="font-style:normal;font-variant:normal;font-weight:100;font-stretch:normal;font-size:12.52019596px;line-height:1;font-family:'Renner*';-inkscape-font-specification:'Renner* Thin';text-align:end;text-anchor:end;fill:#333333"
       d="m 103.98792,70.955834 q 0,-1.752827 -1.53998,-1.752827 -0.83886,0 -1.43983,0.67609 -0.58845,0.676091 -0.58845,1.577545 v 3.505655 h -0.1252 v -5.75929 h 0.1252 v 1.652666 q 0.17529,-0.788773 0.72618,-1.27706 0.55088,-0.500808 1.3021,-0.500808 1.66518,0 1.66518,1.878029 v 4.006463 h -0.1252 z" />
    <path
       id="path860"
       style="font-style:normal;font-variant:normal;font-weight:100;font-stretch:normal;font-size:12.52019596px;line-height:1;font-family:'Renner*';-inkscape-font-specification:'Renner* Thin';text-align:end;text-anchor:end;fill:#333333"
       d="m 109.93012,70.955834 q 0,-1.752827 -1.53998,-1.752827 -0.83885,0 -1.43982,0.67609 -0.58845,0.676091 -0.58845,1.577545 v 3.505655 h -0.1252 v -5.75929 h 0.1252 v 1.652666 q 0.17528,-0.788773 0.72617,-1.27706 0.55089,-0.500808 1.3021,-0.500808 1.66519,0 1.66519,1.878029 v 4.006463 h -0.12521 z" />
    <path
       id="path862"
       style="font-style:normal;font-variant:normal;font-weight:100;font-stretch:normal;font-size:12.52019596px;line-height:1;font-family:'Renner*';-inkscape-font-specification:'Renner* Thin';text-align:end;text-anchor:end;fill:#333333"
       d="m 116.69866,71.794687 q 0,-1.089257 -0.71365,-1.840469 -0.71365,-0.751211 -1.67771,-0.751211 -1.00161,0 -1.74031,0.763732 -0.73869,0.763732 -0.76373,2.015751 h 4.8954 z m -5.0206,0.262924 q 0,-1.28958 0.75121,-2.128433 0.75121,-0.851373 1.87803,-0.851373 1.01414,0 1.76535,0.776252 0.76373,0.776252 0.76373,1.92811 0,0.125202 -0.025,0.325525 h -5.00808 q 0.0125,1.214459 0.71365,2.040792 0.71365,0.813813 1.72779,0.813813 0.52585,0 0.92649,-0.125202 0.41317,-0.125202 0.68861,-0.363086 0.28797,-0.237884 0.43821,-0.425686 0.15024,-0.200324 0.33805,-0.500808 l 0.10016,0.07512 q -0.20032,0.313005 -0.35057,0.500808 -0.13772,0.175282 -0.4382,0.438207 -0.28797,0.262924 -0.72618,0.400646 -0.42568,0.125202 -0.97657,0.125202 -1.08926,0 -1.82795,-0.863894 -0.73869,-0.863893 -0.73869,-2.165994 z" />
    <path
       id="path864"
       style="font-style:normal;font-variant:normal;font-weight:100;font-stretch:normal;font-size:12.52019596px;line-height:1;font-family:'Renner*';-inkscape-font-specification:'Renner* Thin';text-align:end;text-anchor:end;fill:#333333"
       d="m 120.76714,69.453411 q -0.35057,-0.250404 -0.71366,-0.250404 -0.71365,0 -1.08925,0.65105 -0.37561,0.63853 -0.37561,1.602585 v 3.505655 h -0.1252 v -5.75929 h 0.1252 v 1.452342 q 0.27545,-1.577544 1.46486,-1.577544 0.40065,0 0.78878,0.275444 z" />
    <path
       id="path866"
       style="fill:#c83737"
       d="m 124.64918,66.19816 h 0.15024 l -0.0376,2.128433 2.02827,-0.688611 0.0376,0.150243 -2.04079,0.626009 1.28958,1.702747 -0.1252,0.08764 -1.22698,-1.740307 -1.22698,1.740307 -0.1252,-0.08764 1.28958,-1.702747 -2.04079,-0.626009 0.0376,-0.150243 2.02827,0.688611 z" />
    <path
       id="path868"
       style="font-style:normal;font-variant:normal;font-weight:200;font-stretch:normal;font-size:12.52019596px;line-height:1;font-family:'Renner*';-inkscape-font-specification:'Renner* Ultra-Light';text-align:end;text-anchor:end;fill:#333333"
       d="m 87.431135,84.205135 v 3.781099 h -0.475767 v -8.764137 h 1.777868 q 1.31462,0 2.140953,0.66357 0.826333,0.651051 0.826333,1.827949 0,1.089257 -0.713651,1.740307 -0.701131,0.63853 -1.852989,0.738692 l 2.691842,3.793619 h -0.575929 l -2.641761,-3.781099 z m 0,-0.413166 h 1.302101 q 1.139337,0 1.815428,-0.538369 0.688611,-0.538368 0.688611,-1.539984 0,-1.001616 -0.688611,-1.527464 -0.688611,-0.538368 -1.815428,-0.538368 h -1.302101 z" />
    <path
       id="path870"
       style="font-style:normal;font-variant:normal;font-weight:200;font-stretch:normal;font-size:12.52019596px;line-height:1;font-family:'Renner*';-inkscape-font-specification:'Renner* Ultra-Light';text-align:end;text-anchor:end;fill:#333333"
       d="m 92.676511,85.094069 q 0,-1.314621 0.763732,-2.153474 0.776252,-0.838853 1.95315,-0.838853 1.089257,0 1.840469,0.788773 0.751212,0.788772 0.751212,2.003231 0,0.125202 -0.02504,0.325525 h -4.832795 q 0.03756,1.089257 0.66357,1.790388 0.62601,0.688611 1.565025,0.688611 0.838853,0 1.32714,-0.350566 0.488288,-0.350565 0.851374,-0.939014 l 0.350565,0.237883 q -0.212843,0.325525 -0.388126,0.538369 -0.175283,0.212843 -0.488288,0.450727 -0.300484,0.237884 -0.726171,0.350565 -0.425687,0.125202 -0.976575,0.125202 -1.126818,0 -1.87803,-0.851373 -0.751211,-0.863894 -0.751211,-2.165994 z m 4.870356,-0.300485 q -0.01252,-0.976575 -0.63853,-1.627625 -0.62601,-0.663571 -1.527464,-0.663571 -0.901454,0 -1.552504,0.62601 -0.63853,0.61349 -0.688611,1.665186 z" />
    <path
       id="path872"
       style="font-style:normal;font-variant:normal;font-weight:200;font-stretch:normal;font-size:12.52019596px;line-height:1;font-family:'Renner*';-inkscape-font-specification:'Renner* Ultra-Light';text-align:end;text-anchor:end;fill:#333333"
       d="m 103.20423,84.155054 q 0,-1.640145 -1.4273,-1.640145 -0.76373,0 -1.28958,0.575929 -0.525847,0.575929 -0.525847,1.389741 v 3.505655 h -0.450727 v -5.75929 h 0.450727 v 1.28958 q 0.237887,-0.65105 0.738687,-1.026656 0.51333,-0.388126 1.1769,-0.388126 0.87642,0 1.32714,0.538369 0.45073,0.525848 0.45073,1.477383 v 3.86874 h -0.45073 z" />
    <path
       id="path874"
       style="font-style:normal;font-variant:normal;font-weight:200;font-stretch:normal;font-size:12.52019596px;line-height:1;font-family:'Renner*';-inkscape-font-specification:'Renner* Ultra-Light';text-align:end;text-anchor:end;fill:#333333"
       d="m 109.36652,84.155054 q 0,-1.640145 -1.4273,-1.640145 -0.76374,0 -1.28958,0.575929 -0.52585,0.575929 -0.52585,1.389741 v 3.505655 h -0.45073 v -5.75929 h 0.45073 v 1.28958 q 0.23788,-0.65105 0.73869,-1.026656 0.51333,-0.388126 1.1769,-0.388126 0.87641,0 1.32714,0.538369 0.45073,0.525848 0.45073,1.477383 v 3.86874 h -0.45073 z" />
    <path
       id="path876"
       style="font-style:normal;font-variant:normal;font-weight:200;font-stretch:normal;font-size:12.52019596px;line-height:1;font-family:'Renner*';-inkscape-font-specification:'Renner* Ultra-Light';text-align:end;text-anchor:end;fill:#333333"
       d="m 111.33454,85.094069 q 0,-1.314621 0.76373,-2.153474 0.77625,-0.838853 1.95315,-0.838853 1.08926,0 1.84047,0.788773 0.75121,0.788772 0.75121,2.003231 0,0.125202 -0.025,0.325525 h -4.8328 q 0.0376,1.089257 0.66357,1.790388 0.62601,0.688611 1.56503,0.688611 0.83885,0 1.32714,-0.350566 0.48829,-0.350565 0.85137,-0.939014 l 0.35057,0.237883 q -0.21285,0.325525 -0.38813,0.538369 -0.17528,0.212843 -0.48829,0.450727 -0.30048,0.237884 -0.72617,0.350565 -0.42568,0.125202 -0.97657,0.125202 -1.12682,0 -1.87803,-0.851373 -0.75121,-0.863894 -0.75121,-2.165994 z m 4.87035,-0.300485 q -0.0125,-0.976575 -0.63853,-1.627625 -0.62601,-0.663571 -1.52746,-0.663571 -0.90146,0 -1.55251,0.62601 -0.63853,0.61349 -0.68861,1.665186 z" />
    <path
       id="path878"
       style="font-style:normal;font-variant:normal;font-weight:200;font-stretch:normal;font-size:12.52019596px;line-height:1;font-family:'Renner*';-inkscape-font-specification:'Renner* Ultra-Light';text-align:end;text-anchor:end;fill:#333333"
       d="m 120.63528,82.790353 q -0.40065,-0.275444 -0.73869,-0.275444 -0.65105,0 -0.96406,0.550888 -0.313,0.550889 -0.313,1.414782 v 3.505655 h -0.45073 v -5.75929 h 0.45073 v 0.976575 q 0.41317,-1.101777 1.3647,-1.101777 0.53837,0 0.90145,0.325525 z" />
    <path
       id="path880"
       style="fill:#c83737"
       d="m 124.52398,79.222097 h 0.40064 l -0.0626,2.078353 1.97819,-0.701131 0.11268,0.400646 -1.99071,0.575929 1.27706,1.652666 -0.33804,0.237884 -1.1769,-1.715267 -1.1769,1.715267 -0.33804,-0.237884 1.27706,-1.652666 -1.99072,-0.575929 0.11269,-0.400646 1.97819,0.701131 z" />
    <path
       id="path882"
       style="font-style:normal;font-variant:normal;font-weight:300;font-stretch:normal;font-size:12.52019596px;line-height:1;font-family:'Renner*';-inkscape-font-specification:'Renner* Light';text-align:end;text-anchor:end;fill:#333333"
       d="m 86.763065,97.329238 v 3.680942 h -0.68861 v -8.764142 h 2.003231 q 1.3021,0 2.128433,0.688611 0.838853,0.676091 0.838853,1.852989 0,1.039176 -0.66357,1.702747 -0.65105,0.65105 -1.727787,0.801292 l 2.666802,3.718503 h -0.851374 l -2.55412,-3.680942 z m 0,-0.61349 h 1.314621 q 1.039176,0 1.652666,-0.500808 0.62601,-0.500808 0.62601,-1.427302 0,-0.926495 -0.62601,-1.427302 -0.62601,-0.500808 -1.652666,-0.500808 h -1.314621 z" />
    <path
       id="path884"
       style="font-style:normal;font-variant:normal;font-weight:300;font-stretch:normal;font-size:12.52019596px;line-height:1;font-family:'Renner*';-inkscape-font-specification:'Renner* Light';text-align:end;text-anchor:end;fill:#333333"
       d="m 92.064586,98.11801 q 0,-1.339661 0.776252,-2.165994 0.776252,-0.826333 1.990711,-0.826333 1.139338,0 1.89055,0.801293 0.751212,0.788772 0.751212,2.053312 0,0.112682 -0.02504,0.313005 h -4.720114 q 0.05008,1.014136 0.61349,1.627625 0.575929,0.600972 1.464863,0.600972 1.3021,0 2.040792,-1.189421 l 0.525848,0.338045 q -0.463247,0.701136 -1.039176,1.089256 -0.575929,0.37561 -1.602585,0.37561 -1.139338,0 -1.90307,-0.85138 -0.763732,-0.86389 -0.763732,-2.16599 z m 4.770195,-0.388126 q -0.05008,-0.876414 -0.61349,-1.452343 -0.563409,-0.575929 -1.402262,-0.575929 -0.826333,0 -1.427302,0.550889 -0.60097,0.550888 -0.65105,1.477383 z" />
    <path
       id="path886"
       style="font-style:normal;font-variant:normal;font-weight:300;font-stretch:normal;font-size:12.52019596px;line-height:1;font-family:'Renner*';-inkscape-font-specification:'Renner* Light';text-align:end;text-anchor:end;fill:#333333"
       d="m 102.64122,97.304197 q 0,-1.565024 -1.35218,-1.565024 -0.72618,0 -1.21446,0.513328 -0.475771,0.513328 -0.475771,1.252019 v 3.50566 h -0.65105 v -5.759295 h 0.65105 v 1.126818 q 0.262924,-0.575929 0.738691,-0.913974 0.48829,-0.338046 1.10178,-0.338046 0.88893,0 1.3647,0.550889 0.48829,0.550888 0.48829,1.552504 v 3.781104 h -0.65105 z" />
    <path
       id="path888"
       style="font-style:normal;font-variant:normal;font-weight:300;font-stretch:normal;font-size:12.52019596px;line-height:1;font-family:'Renner*';-inkscape-font-specification:'Renner* Light';text-align:end;text-anchor:end;fill:#333333"
       d="m 108.97467,97.304197 q 0,-1.565024 -1.35218,-1.565024 -0.72617,0 -1.21446,0.513328 -0.47576,0.513328 -0.47576,1.252019 v 3.50566 h -0.65105 v -5.759295 h 0.65105 v 1.126818 q 0.26292,-0.575929 0.73869,-0.913974 0.48829,-0.338046 1.10178,-0.338046 0.88893,0 1.3647,0.550889 0.48829,0.550888 0.48829,1.552504 v 3.781104 h -0.65106 z" />
    <path
       id="path890"
       style="font-style:normal;font-variant:normal;font-weight:300;font-stretch:normal;font-size:12.52019596px;line-height:1;font-family:'Renner*';-inkscape-font-specification:'Renner* Light';text-align:end;text-anchor:end;fill:#333333"
       d="m 111.11387,98.11801 q 0,-1.339661 0.77625,-2.165994 0.77625,-0.826333 1.99071,-0.826333 1.13934,0 1.89055,0.801293 0.75121,0.788772 0.75121,2.053312 0,0.112682 -0.025,0.313005 h -4.72011 q 0.0501,1.014136 0.61349,1.627625 0.57593,0.600972 1.46486,0.600972 1.3021,0 2.04079,-1.189421 l 0.52585,0.338045 q -0.46325,0.701136 -1.03917,1.089256 -0.57593,0.37561 -1.60259,0.37561 -1.13934,0 -1.90307,-0.85138 -0.76373,-0.86389 -0.76373,-2.16599 z m 4.77019,-0.388126 q -0.0501,-0.876414 -0.61349,-1.452343 -0.5634,-0.575929 -1.40226,-0.575929 -0.82633,0 -1.4273,0.550889 -0.60097,0.550888 -0.65105,1.477383 z" />
    <path
       id="path892"
       style="font-style:normal;font-variant:normal;font-weight:300;font-stretch:normal;font-size:12.52019596px;line-height:1;font-family:'Renner*';-inkscape-font-specification:'Renner* Light';text-align:end;text-anchor:end;fill:#333333"
       d="m 120.56368,96.014617 q -0.38812,-0.275444 -0.75121,-0.275444 -0.60097,0 -0.88893,0.488287 -0.27545,0.488288 -0.27545,1.27706 v 3.50566 h -0.65105 v -5.759295 h 0.65105 v 0.838853 q 0.47577,-0.964055 1.31462,-0.964055 0.60097,0 0.96406,0.350566 z" />
    <path
       id="path894"
       style="fill:#c83737"
       d="m 124.43634,92.246038 h 0.57592 l -0.0751,2.040792 1.92811,-0.701131 0.17529,0.563409 -1.96567,0.550889 1.26453,1.602585 -0.47576,0.350565 -1.13934,-1.702747 -1.13934,1.702747 -0.47577,-0.350565 1.26454,-1.602585 -1.96567,-0.550889 0.17529,-0.563409 1.92811,0.701131 z" />
    <path
       id="path896"
       style="font-style:normal;font-variant:normal;font-weight:normal;font-stretch:normal;font-size:12.52019596px;line-height:1;font-family:'Renner*';-inkscape-font-specification:'Renner*';text-align:end;text-anchor:end;fill:#333333"
       d="m 85.694741,110.3496 v 3.50566 h -1.064217 v -8.76414 h 2.378837 q 1.28958,0 2.128433,0.72617 0.851374,0.71365 0.851374,1.90307 0,0.96406 -0.575929,1.64015 -0.563409,0.66357 -1.514944,0.88893 l 2.616721,3.60582 h -1.314621 l -2.441438,-3.50566 z m 0,-0.93901 h 1.31462 q 0.863894,0 1.389742,-0.45073 0.525848,-0.45073 0.525848,-1.2395 0,-0.78877 -0.525848,-1.2395 -0.525848,-0.45073 -1.389742,-0.45073 h -1.31462 z" />
    <path
       id="path898"
       style="font-style:normal;font-variant:normal;font-weight:normal;font-stretch:normal;font-size:12.52019596px;line-height:1;font-family:'Renner*';-inkscape-font-specification:'Renner*';text-align:end;text-anchor:end;fill:#333333"
       d="m 91.085272,110.97561 q 0,-1.33966 0.801292,-2.16599 0.801293,-0.83886 2.053312,-0.83886 1.226979,0 1.965671,0.8013 0.751212,0.80129 0.751212,2.15347 0,0.20032 -0.01252,0.30049 h -4.532311 q 0.0626,0.86389 0.550888,1.33966 0.488288,0.47576 1.27706,0.47576 1.164378,0 1.802908,-1.03917 l 0.813813,0.51333 q -0.475767,0.73869 -1.089257,1.10177 -0.613489,0.36309 -1.652666,0.36309 -1.176898,0 -1.95315,-0.85137 -0.776252,-0.85138 -0.776252,-2.15348 z m 4.48223,-0.60097 q -0.07512,-0.70113 -0.488288,-1.1143 -0.413166,-0.41316 -1.139338,-0.41316 -0.713651,0 -1.226979,0.42568 -0.500808,0.41317 -0.575929,1.10178 z" />
    <path
       id="path900"
       style="font-style:normal;font-variant:normal;font-weight:normal;font-stretch:normal;font-size:12.52019596px;line-height:1;font-family:'Renner*';-inkscape-font-specification:'Renner*';text-align:end;text-anchor:end;fill:#333333"
       d="m 101.73526,110.3496 q 0,-1.43982 -1.22698,-1.43982 -0.651046,0 -1.064212,0.41317 -0.400647,0.40064 -0.400647,1.02665 v 3.50566 h -1.001615 v -5.75929 h 1.001615 v 0.91397 q 0.575929,-1.03918 1.715269,-1.03918 0.91397,0 1.43982,0.58845 0.53837,0.57593 0.53837,1.66519 v 3.63086 h -1.00162 z" />
    <path
       id="path902"
       style="font-style:normal;font-variant:normal;font-weight:normal;font-stretch:normal;font-size:12.52019596px;line-height:1;font-family:'Renner*';-inkscape-font-specification:'Renner*';text-align:end;text-anchor:end;fill:#333333"
       d="m 108.31326,110.3496 q 0,-1.43982 -1.22698,-1.43982 -0.65105,0 -1.06422,0.41317 -0.40065,0.40064 -0.40065,1.02665 v 3.50566 h -1.00161 v -5.75929 h 1.00161 v 0.91397 q 0.57593,-1.03918 1.71527,-1.03918 0.91398,0 1.43982,0.58845 0.53837,0.57593 0.53837,1.66519 v 3.63086 h -1.00161 z" />
    <path
       id="path904"
       style="font-style:normal;font-variant:normal;font-weight:normal;font-stretch:normal;font-size:12.52019596px;line-height:1;font-family:'Renner*';-inkscape-font-specification:'Renner*';text-align:end;text-anchor:end;fill:#333333"
       d="m 110.69698,110.97561 q 0,-1.33966 0.8013,-2.16599 0.80129,-0.83886 2.05331,-0.83886 1.22698,0 1.96567,0.8013 0.75121,0.80129 0.75121,2.15347 0,0.20032 -0.0125,0.30049 h -4.53231 q 0.0626,0.86389 0.55089,1.33966 0.48829,0.47576 1.27706,0.47576 1.16438,0 1.80291,-1.03917 l 0.81381,0.51333 q -0.47577,0.73869 -1.08926,1.10177 -0.61349,0.36309 -1.65266,0.36309 -1.1769,0 -1.95315,-0.85137 -0.77626,-0.85138 -0.77626,-2.15348 z m 4.48223,-0.60097 q -0.0751,-0.70113 -0.48828,-1.1143 -0.41317,-0.41316 -1.13934,-0.41316 -0.71365,0 -1.22698,0.42568 -0.50081,0.41317 -0.57593,1.10178 z" />
    <path
       id="path906"
       style="font-style:normal;font-variant:normal;font-weight:normal;font-stretch:normal;font-size:12.52019596px;line-height:1;font-family:'Renner*';-inkscape-font-specification:'Renner*';text-align:end;text-anchor:end;fill:#333333"
       d="m 120.39544,109.19774 q -0.40065,-0.28796 -0.77625,-0.28796 -0.96406,0 -0.96406,1.43982 v 3.50566 h -1.00161 v -5.75929 h 1.00161 v 0.66357 q 0.52585,-0.78878 1.21446,-0.78878 0.68861,0 1.07674,0.40065 z" />
    <path
       id="path908"
       style="fill:#c83737"
       d="m 124.28609,105.09112 h 0.87641 l -0.10016,1.97819 1.85299,-0.71365 0.26293,0.83885 -1.90307,0.51333 1.2395,1.53998 -0.71366,0.51333 -1.07673,-1.65266 -1.07674,1.65266 -0.71365,-0.51333 1.2395,-1.53998 -1.90307,-0.51333 0.26292,-0.83885 1.85299,0.71365 z" />
    <path
       id="path910"
       style="font-style:normal;font-variant:normal;font-weight:500;font-stretch:normal;font-size:12.52019596px;line-height:1;font-family:'Renner*';-inkscape-font-specification:'Renner* Medium';text-align:end;text-anchor:end;fill:#333333"
       d="m 84.297761,122.34688 h 1.164378 q 0.776252,0 1.226979,-0.38812 0.463247,-0.38813 0.463247,-1.08926 0,-0.70113 -0.463247,-1.08926 -0.450727,-0.38812 -1.226979,-0.38812 h -1.164378 z m 0,1.21446 v 3.31785 h -1.477384 v -8.76413 h 2.704363 q 1.427302,0 2.291196,0.75121 0.863893,0.73869 0.863893,1.97819 0,0.95153 -0.513328,1.6151 -0.513328,0.66358 -1.439822,0.93902 l 2.478998,3.48061 h -1.790388 l -2.216074,-3.31785 z" />
    <path
       id="path912"
       style="font-style:normal;font-variant:normal;font-weight:500;font-stretch:normal;font-size:12.52019596px;line-height:1;font-family:'Renner*';-inkscape-font-specification:'Renner* Medium';text-align:end;text-anchor:end;fill:#333333"
       d="m 94.147438,123.37354 q -0.07512,-0.63853 -0.438207,-0.9891 -0.363086,-0.36308 -0.989096,-0.36308 -0.626009,0 -1.064216,0.36308 -0.425687,0.36309 -0.513328,0.9891 z m -3.029888,0.93901 q 0.07512,0.77626 0.500808,1.1769 0.425687,0.40065 1.114297,0.40065 1.101778,0 1.652666,-0.91398 l 1.176899,0.47577 q -0.475768,0.76373 -1.139338,1.16438 -0.65105,0.38813 -1.752827,0.38813 -1.314621,0 -2.128434,-0.83886 -0.813813,-0.85137 -0.813813,-2.16599 0,-0.35057 0.05008,-0.61349 0.187803,-1.08926 0.964055,-1.74031 0.776252,-0.65105 1.990711,-0.65105 1.327141,0 2.103393,0.78877 0.776253,0.78878 0.776253,2.15348 0,0.10016 -0.02504,0.3756 z" />
    <path
       id="path914"
       style="font-style:normal;font-variant:normal;font-weight:500;font-stretch:normal;font-size:12.52019596px;line-height:1;font-family:'Renner*';-inkscape-font-specification:'Renner* Medium';text-align:end;text-anchor:end;fill:#333333"
       d="m 100.59671,123.37354 q 0,-1.28958 -1.064218,-1.28958 -0.575929,0 -0.926495,0.36308 -0.350565,0.35057 -0.350565,0.9265 v 3.50565 h -1.364701 v -5.75929 h 1.364701 v 0.88894 q 0.550889,-1.01414 1.727787,-1.01414 0.964051,0 1.477381,0.57593 0.52585,0.56341 0.52585,1.65267 v 3.65589 h -1.38974 z" />
    <path
       id="path916"
       style="font-style:normal;font-variant:normal;font-weight:500;font-stretch:normal;font-size:12.52019596px;line-height:1;font-family:'Renner*';-inkscape-font-specification:'Renner* Medium';text-align:end;text-anchor:end;fill:#333333"
       d="m 107.41924,123.37354 q 0,-1.28958 -1.06422,-1.28958 -0.57593,0 -0.92649,0.36308 -0.35057,0.35057 -0.35057,0.9265 v 3.50565 h -1.3647 v -5.75929 h 1.3647 v 0.88894 q 0.55089,-1.01414 1.72779,-1.01414 0.96405,0 1.47738,0.57593 0.52585,0.56341 0.52585,1.65267 v 3.65589 h -1.38974 z" />
    <path
       id="path918"
       style="font-style:normal;font-variant:normal;font-weight:500;font-stretch:normal;font-size:12.52019596px;line-height:1;font-family:'Renner*';-inkscape-font-specification:'Renner* Medium';text-align:end;text-anchor:end;fill:#333333"
       d="m 114.51721,123.37354 q -0.0751,-0.63853 -0.43821,-0.9891 -0.36308,-0.36308 -0.98909,-0.36308 -0.62601,0 -1.06422,0.36308 -0.42569,0.36309 -0.51333,0.9891 z m -3.02989,0.93901 q 0.0751,0.77626 0.50081,1.1769 0.42569,0.40065 1.1143,0.40065 1.10178,0 1.65266,-0.91398 l 1.1769,0.47577 q -0.47576,0.76373 -1.13934,1.16438 -0.65105,0.38813 -1.75282,0.38813 -1.31462,0 -2.12844,-0.83886 -0.81381,-0.85137 -0.81381,-2.16599 0,-0.35057 0.0501,-0.61349 0.18781,-1.08926 0.96406,-1.74031 0.77625,-0.65105 1.99071,-0.65105 1.32714,0 2.10339,0.78877 0.77625,0.78878 0.77625,2.15348 0,0.10016 -0.025,0.3756 z" />
    <path
       id="path920"
       style="font-style:normal;font-variant:normal;font-weight:500;font-stretch:normal;font-size:12.52019596px;line-height:1;font-family:'Renner*';-inkscape-font-specification:'Renner* Medium';text-align:end;text-anchor:end;fill:#333333"
       d="m 120.31543,122.57225 q -0.38813,-0.31301 -0.76373,-0.31301 -0.95154,0 -0.95154,1.37722 v 3.24273 h -1.33966 v -5.75929 h 1.33966 v 0.70113 q 0.53837,-0.82633 1.31462,-0.82633 0.68861,0 1.06422,0.42569 z" />
    <path
       id="path922"
       style="fill:#c83737"
       d="m 124.11081,118.11506 h 1.22698 l -0.1878,2.04079 1.90307,-0.80129 0.3756,1.16437 -2.01575,0.46325 1.3647,1.55251 -1.00161,0.71365 -1.0517,-1.76535 -1.0517,1.76535 -1.00161,-0.71365 1.3647,-1.55251 -2.01575,-0.46325 0.3756,-1.16437 1.90307,0.80129 z" />
    <path
       id="path924"
       style="font-style:normal;font-variant:normal;font-weight:600;font-stretch:normal;font-size:12.52019596px;line-height:1;font-family:'Renner*';-inkscape-font-specification:'Renner* Semi-Bold';text-align:end;text-anchor:end;fill:#333333"
       d="m 83.277756,135.2957 h 1.039176 q 0.701131,0 1.114298,-0.33804 0.413166,-0.35057 0.413166,-0.96406 0,-0.61349 -0.413166,-0.96405 -0.413167,-0.35057 -1.114298,-0.35057 h -1.039176 z m 0,1.42731 v 3.18012 H 81.474848 V 131.139 h 2.954766 q 1.527464,0 2.403877,0.76373 0.876414,0.76373 0.876414,2.04079 0,0.9265 -0.488287,1.60259 -0.475768,0.66357 -1.364702,0.96405 l 2.378837,3.39297 H 86.0948 l -2.053312,-3.18012 z" />
    <path
       id="path926"
       style="font-style:normal;font-variant:normal;font-weight:600;font-stretch:normal;font-size:12.52019596px;line-height:1;font-family:'Renner*';-inkscape-font-specification:'Renner* Semi-Bold';text-align:end;text-anchor:end;fill:#333333"
       d="m 93.144844,136.3474 q -0.200323,-1.12682 -1.339661,-1.12682 -0.563409,0 -0.951535,0.30049 -0.388126,0.30048 -0.488287,0.82633 z m -2.817044,1.02666 q 0.08764,0.67609 0.475767,1.02665 0.400647,0.35057 1.026657,0.35057 1.026656,0 1.452342,-0.78878 l 1.377222,0.50081 q -0.425687,0.76373 -1.101777,1.16438 -0.676091,0.40065 -1.802909,0.40065 -1.352181,0 -2.178514,-0.83886 -0.826333,-0.85137 -0.826333,-2.16599 0,-0.36309 0.05008,-0.62601 0.175283,-1.07674 0.989096,-1.72779 0.826333,-0.65105 2.040792,-0.65105 1.28958,0 2.090872,0.8013 0.813813,0.78877 0.813813,2.12843 0,0.2504 -0.02504,0.42569 z" />
    <path
       id="path928"
       style="font-style:normal;font-variant:normal;font-weight:600;font-stretch:normal;font-size:12.52019596px;line-height:1;font-family:'Renner*';-inkscape-font-specification:'Renner* Semi-Bold';text-align:end;text-anchor:end;fill:#333333"
       d="m 99.727728,136.39748 q 0,-1.1769 -0.951534,-1.1769 -0.513328,0 -0.826333,0.32553 -0.313005,0.313 -0.313005,0.85137 v 3.50565 H 95.99671 v -5.75929 h 1.640146 v 0.87642 q 0.550888,-1.00162 1.740307,-1.00162 2.028267,0 2.028267,2.20356 v 3.68093 h -1.677702 z" />
    <path
       id="path930"
       style="font-style:normal;font-variant:normal;font-weight:600;font-stretch:normal;font-size:12.52019596px;line-height:1;font-family:'Renner*';-inkscape-font-specification:'Renner* Semi-Bold';text-align:end;text-anchor:end;fill:#333333"
       d="m 106.74589,136.39748 q 0,-1.1769 -0.95154,-1.1769 -0.51333,0 -0.82633,0.32553 -0.31301,0.313 -0.31301,0.85137 v 3.50565 h -1.64014 v -5.75929 h 1.64014 v 0.87642 q 0.55089,-1.00162 1.74031,-1.00162 2.02827,0 2.02827,2.20356 v 3.68093 h -1.6777 z" />
    <path
       id="path932"
       style="font-style:normal;font-variant:normal;font-weight:600;font-stretch:normal;font-size:12.52019596px;line-height:1;font-family:'Renner*';-inkscape-font-specification:'Renner* Semi-Bold';text-align:end;text-anchor:end;fill:#333333"
       d="m 114.07705,136.3474 q -0.20033,-1.12682 -1.33966,-1.12682 -0.56341,0 -0.95154,0.30049 -0.38813,0.30048 -0.48829,0.82633 z m -2.81705,1.02666 q 0.0876,0.67609 0.47577,1.02665 0.40065,0.35057 1.02666,0.35057 1.02665,0 1.45234,-0.78878 l 1.37722,0.50081 q -0.42569,0.76373 -1.10178,1.16438 -0.67609,0.40065 -1.80291,0.40065 -1.35218,0 -2.17851,-0.83886 -0.82633,-0.85137 -0.82633,-2.16599 0,-0.36309 0.0501,-0.62601 0.17528,-1.07674 0.98909,-1.72779 0.82634,-0.65105 2.0408,-0.65105 1.28958,0 2.09087,0.8013 0.81381,0.78877 0.81381,2.12843 0,0.2504 -0.025,0.42569 z" />
    <path
       id="path934"
       style="font-style:normal;font-variant:normal;font-weight:600;font-stretch:normal;font-size:12.52019596px;line-height:1;font-family:'Renner*';-inkscape-font-specification:'Renner* Semi-Bold';text-align:end;text-anchor:end;fill:#333333"
       d="m 120.22173,135.84659 q -0.36309,-0.32552 -0.75122,-0.32552 -0.45072,0 -0.70113,0.36308 -0.23788,0.35057 -0.23788,0.97658 v 3.0424 h -1.60259 v -5.75929 h 1.60259 v 0.71366 q 0.57593,-0.83886 1.37722,-0.83886 0.71365,0 1.0517,0.45073 z" />
    <path
       id="path936"
       style="fill:#c83737"
       d="m 123.97309,131.139 h 1.50242 l -0.23788,2.10339 1.91559,-0.87641 0.46325,1.40226 -2.07836,0.43821 1.43983,1.5525 -1.21446,0.86389 -1.03918,-1.82795 -1.03918,1.82795 -1.21445,-0.86389 1.43982,-1.5525 -2.07835,-0.43821 0.46324,-1.40226 1.91559,0.87641 z" />
    <path
       id="path938"
       style="font-style:normal;font-variant:normal;font-weight:bold;font-stretch:normal;font-size:12.52019596px;line-height:1;font-family:'Renner*';-inkscape-font-specification:'Renner* Bold';text-align:end;text-anchor:end;fill:#333333"
       d="m 82.367498,148.24452 h 0.926495 q 0.63853,0 1.001616,-0.30048 0.363085,-0.30049 0.363085,-0.83886 0,-0.53836 -0.363085,-0.83885 -0.363086,-0.30048 -1.001616,-0.30048 h -0.926495 z m 0,1.65267 v 3.02989 h -2.115913 v -8.76414 h 3.205171 q 1.640145,0 2.516559,0.77625 0.888934,0.77625 0.888934,2.09087 0,0.91398 -0.450727,1.59007 -0.450727,0.67609 -1.302101,1.00161 l 2.278676,3.30534 h -2.491519 l -1.878029,-3.02989 z" />
    <path
       id="path940"
       style="font-style:normal;font-variant:normal;font-weight:bold;font-stretch:normal;font-size:12.52019596px;line-height:1;font-family:'Renner*';-inkscape-font-specification:'Renner* Bold';text-align:end;text-anchor:end;fill:#333333"
       d="m 92.251998,149.33378 q -0.212843,-0.90145 -1.226979,-0.90145 -0.513328,0 -0.876414,0.23788 -0.350565,0.22536 -0.463247,0.66357 z m -4.369548,0.71365 q 0,-1.3647 0.888933,-2.17851 0.888934,-0.82634 2.291196,-0.82634 1.26454,0 2.090873,0.8013 0.838853,0.78877 0.838853,2.11591 0,0.28796 -0.02504,0.48829 h -4.319468 q 0.212843,1.16438 1.414782,1.16438 0.939015,0 1.2395,-0.66358 l 1.577544,0.52585 q -0.788772,1.57755 -2.904685,1.57755 -1.377222,0 -2.241115,-0.83886 -0.851373,-0.85137 -0.851373,-2.16599 z" />
    <path
       id="path942"
       style="font-style:normal;font-variant:normal;font-weight:bold;font-stretch:normal;font-size:12.52019596px;line-height:1;font-family:'Renner*';-inkscape-font-specification:'Renner* Bold';text-align:end;text-anchor:end;fill:#333333"
       d="m 98.944043,149.42142 q 0,-0.52585 -0.200324,-0.78877 -0.187802,-0.26293 -0.63853,-0.26293 -0.463247,0 -0.726171,0.27545 -0.262924,0.27544 -0.262924,0.77625 v 3.50566 h -1.90307 v -5.75929 h 1.90307 v 0.86389 q 0.538368,-0.9891 1.752827,-0.9891 2.053309,0 2.053309,2.17852 v 3.70598 h -1.978187 z" />
    <path
       id="path944"
       style="font-style:normal;font-variant:normal;font-weight:bold;font-stretch:normal;font-size:12.52019596px;line-height:1;font-family:'Renner*';-inkscape-font-specification:'Renner* Bold';text-align:end;text-anchor:end;fill:#333333"
       d="m 106.13337,149.42142 q 0,-0.52585 -0.20032,-0.78877 -0.1878,-0.26293 -0.63853,-0.26293 -0.46325,0 -0.72617,0.27545 -0.26292,0.27544 -0.26292,0.77625 v 3.50566 h -1.90307 v -5.75929 h 1.90307 v 0.86389 q 0.53836,-0.9891 1.75282,-0.9891 2.05332,0 2.05332,2.17852 v 3.70598 h -1.9782 z" />
    <path
       id="path946"
       style="font-style:normal;font-variant:normal;font-weight:bold;font-stretch:normal;font-size:12.52019596px;line-height:1;font-family:'Renner*';-inkscape-font-specification:'Renner* Bold';text-align:end;text-anchor:end;fill:#333333"
       d="m 113.67327,149.33378 q -0.21284,-0.90145 -1.22698,-0.90145 -0.51333,0 -0.87641,0.23788 -0.35057,0.22536 -0.46325,0.66357 z m -4.36955,0.71365 q 0,-1.3647 0.88894,-2.17851 0.88893,-0.82634 2.29119,-0.82634 1.26454,0 2.09088,0.8013 0.83885,0.78877 0.83885,2.11591 0,0.28796 -0.025,0.48829 h -4.31947 q 0.21284,1.16438 1.41478,1.16438 0.93902,0 1.2395,-0.66358 l 1.57755,0.52585 q -0.78878,1.57755 -2.90469,1.57755 -1.37722,0 -2.24111,-0.83886 -0.85138,-0.85137 -0.85138,-2.16599 z" />
    <path
       id="path948"
       style="font-style:normal;font-variant:normal;font-weight:bold;font-stretch:normal;font-size:12.52019596px;line-height:1;font-family:'Renner*';-inkscape-font-specification:'Renner* Bold';text-align:end;text-anchor:end;fill:#333333"
       d="m 120.15247,149.13346 q -0.33804,-0.33805 -0.73869,-0.33805 -0.42569,0 -0.67609,0.33805 -0.2504,0.33804 -0.2504,0.95153 v 2.84209 h -1.85299 v -5.75929 h 1.85299 v 0.72617 q 0.58845,-0.8639 1.45234,-0.8639 0.313,0 0.60097,0.13773 0.28796,0.1252 0.43821,0.33804 z" />
    <path
       id="path950"
       style="fill:#c83737"
       d="m 123.84788,144.16294 h 1.75283 l -0.28796,2.14095 1.94063,-0.93901 0.55089,1.65266 -2.14096,0.40065 1.50243,1.56502 -1.41479,1.01414 -1.02665,-1.90307 -1.02666,1.90307 -1.41478,-1.01414 1.50242,-1.56502 -2.14095,-0.40065 0.55089,-1.65266 1.94063,0.93901 z" />
    <path
       id="path952"
       style="font-style:normal;font-variant:normal;font-weight:800;font-stretch:normal;font-size:12.52019596px;line-height:1;font-family:'Renner*';-inkscape-font-specification:'Renner* Ultra-Bold';text-align:end;text-anchor:end;fill:#333333"
       d="m 81.065985,161.19334 h 0.813813 q 0.575929,0 0.888934,-0.2504 0.313005,-0.25041 0.313005,-0.72617 0,-0.47577 -0.313005,-0.72617 -0.313005,-0.25041 -0.888934,-0.25041 h -0.813813 z m 0,1.86551 v 2.89217 h -2.428918 v -8.76414 h 3.455574 q 1.740307,0 2.629241,0.78877 0.901454,0.78877 0.901454,2.14096 0,1.91559 -1.665186,2.61672 l 2.191035,3.21769 H 83.3071 l -1.715267,-2.89217 z" />
    <path
       id="path954"
       style="font-style:normal;font-variant:normal;font-weight:800;font-stretch:normal;font-size:12.52019596px;line-height:1;font-family:'Renner*';-inkscape-font-specification:'Renner* Ultra-Bold';text-align:end;text-anchor:end;fill:#333333"
       d="m 90.879667,162.37024 q -0.175283,-0.85137 -1.001616,-0.85137 -0.939014,0 -1.126817,0.85137 z m -2.165994,1.15186 q 0.200323,1.02666 1.214459,1.02666 0.913974,0 1.214459,-0.62601 l 1.90307,0.45072 q -0.863894,1.70275 -3.105009,1.70275 -1.577544,0 -2.466478,-0.82633 -0.876414,-0.83886 -0.876414,-2.17852 0,-0.36308 0.05008,-0.62601 0.187803,-1.08925 1.039176,-1.72778 0.863894,-0.65106 2.241115,-0.65106 1.464863,0 2.291196,0.77626 0.838853,0.76373 0.838853,2.12843 0,0.32553 -0.02504,0.55089 z" />
    <path
       id="path956"
       style="font-style:normal;font-variant:normal;font-weight:800;font-stretch:normal;font-size:12.52019596px;line-height:1;font-family:'Renner*';-inkscape-font-specification:'Renner* Ultra-Bold';text-align:end;text-anchor:end;fill:#333333"
       d="m 97.940275,162.44536 q 0,-0.47577 -0.162763,-0.70113 -0.162762,-0.23788 -0.563409,-0.23788 -0.851373,0 -0.851373,0.93901 v 3.50566 h -2.165994 v -5.75929 h 2.165994 v 0.86389 q 0.538368,-0.9891 1.777868,-0.9891 1.089257,0 1.577544,0.55089 0.500808,0.53837 0.500808,1.60259 v 3.73102 h -2.278675 z" />
    <path
       id="path958"
       style="font-style:normal;font-variant:normal;font-weight:800;font-stretch:normal;font-size:12.52019596px;line-height:1;font-family:'Renner*';-inkscape-font-specification:'Renner* Ultra-Bold';text-align:end;text-anchor:end;fill:#333333"
       d="m 105.32523,162.44536 q 0,-0.47577 -0.16276,-0.70113 -0.16276,-0.23788 -0.56341,-0.23788 -0.85137,0 -0.85137,0.93901 v 3.50566 h -2.16599 v -5.75929 h 2.16599 v 0.86389 q 0.53837,-0.9891 1.77787,-0.9891 1.08926,0 1.57754,0.55089 0.50081,0.53837 0.50081,1.60259 v 3.73102 h -2.27868 z" />
    <path
       id="path960"
       style="font-style:normal;font-variant:normal;font-weight:800;font-stretch:normal;font-size:12.52019596px;line-height:1;font-family:'Renner*';-inkscape-font-specification:'Renner* Ultra-Bold';text-align:end;text-anchor:end;fill:#333333"
       d="m 112.98564,162.37024 q -0.17529,-0.85137 -1.00162,-0.85137 -0.93901,0 -1.12682,0.85137 z m -2.166,1.15186 q 0.20033,1.02666 1.21446,1.02666 0.91398,0 1.21446,-0.62601 l 1.90307,0.45072 q -0.86389,1.70275 -3.10501,1.70275 -1.57754,0 -2.46648,-0.82633 -0.87641,-0.83886 -0.87641,-2.17852 0,-0.36308 0.0501,-0.62601 0.1878,-1.08925 1.03918,-1.72778 0.86389,-0.65106 2.24111,-0.65106 1.46487,0 2.2912,0.77626 0.83885,0.76373 0.83885,2.12843 0,0.32553 -0.025,0.55089 z" />
    <path
       id="path962"
       style="font-style:normal;font-variant:normal;font-weight:800;font-stretch:normal;font-size:12.52019596px;line-height:1;font-family:'Renner*';-inkscape-font-specification:'Renner* Ultra-Bold';text-align:end;text-anchor:end;fill:#333333"
       d="m 120.05877,162.42032 q -0.31301,-0.35056 -0.72618,-0.35056 -0.40064,0 -0.66357,0.32552 -0.2504,0.32553 -0.2504,0.91398 v 2.64176 h -2.11591 v -5.75929 h 2.11591 v 0.73869 q 0.60097,-0.88894 1.52746,-0.88894 0.30049,0 0.58845,0.15025 0.30049,0.13772 0.43821,0.35056 z" />
    <path
       id="path964"
       style="fill:#c83737"
       d="m 123.72268,157.18688 h 2.00323 l -0.33804,2.17851 1.96567,-0.98909 0.62601,1.89055 -2.19104,0.3756 1.56503,1.56503 -1.61511,1.16438 -1.01413,-1.97819 -1.01414,1.97819 -1.6151,-1.16438 1.56502,-1.56503 -2.19103,-0.3756 0.62601,-1.89055 1.96567,0.98909 z" />
    <path
       id="path966"
       style="font-style:normal;font-variant:normal;font-weight:900;font-stretch:normal;font-size:12.52019596px;line-height:1;font-family:'Renner*';-inkscape-font-specification:'Renner* Heavy';text-align:end;text-anchor:end;fill:#333333"
       d="m 79.801445,176.04165 v 2.75445 h -2.754443 v -8.76414 h 3.693458 q 1.852989,0 2.754443,0.81381 0.913974,0.81382 0.913974,2.19104 0,1.89055 -1.577544,2.61672 l 2.103393,3.14257 h -3.19265 l -1.565025,-2.75445 z m 0,-2.06583 h 0.688611 q 1.039176,0 1.039176,-0.81381 0,-0.81381 -1.039176,-0.81381 h -0.688611 z" />
    <path
       id="path968"
       style="font-style:normal;font-variant:normal;font-weight:900;font-stretch:normal;font-size:12.52019596px;line-height:1;font-family:'Renner*';-inkscape-font-specification:'Renner* Heavy';text-align:end;text-anchor:end;fill:#333333"
       d="m 87.804589,176.41726 q 0.175283,0.87641 0.976575,0.87641 0.901454,0 1.201939,-0.5634 l 2.228595,0.35056 q -0.939015,1.84047 -3.305332,1.84047 -1.765348,0 -2.691842,-0.81381 -0.913974,-0.82634 -0.913974,-2.19104 0,-0.35056 0.05008,-0.61349 0.187803,-1.11429 1.039177,-1.75282 0.863893,-0.63853 2.391357,-0.63853 1.665186,0 2.504039,0.75121 0.838853,0.75121 0.838853,2.14095 0,0.35057 -0.02504,0.61349 z m 1.715267,-1.1769 q -0.112682,-0.82633 -0.801293,-0.82633 -0.751212,0 -0.901454,0.82633 z" />
    <path
       id="path970"
       style="font-style:normal;font-variant:normal;font-weight:900;font-stretch:normal;font-size:12.52019596px;line-height:1;font-family:'Renner*';-inkscape-font-specification:'Renner* Heavy';text-align:end;text-anchor:end;fill:#333333"
       d="m 96.936507,175.29044 q 0,-0.42568 -0.125202,-0.62601 -0.125202,-0.20032 -0.475767,-0.20032 -0.713652,0 -0.713652,0.82633 v 3.50566 h -2.441438 v -5.75929 h 2.441438 v 0.83885 q 0.513328,-0.97657 1.777868,-0.97657 1.126818,0 1.615106,0.53836 0.488287,0.53837 0.488287,1.60259 v 3.75606 h -2.56664 z" />
    <path
       id="path972"
       style="font-style:normal;font-variant:normal;font-weight:900;font-stretch:normal;font-size:12.52019596px;line-height:1;font-family:'Renner*';-inkscape-font-specification:'Renner* Heavy';text-align:end;text-anchor:end;fill:#333333"
       d="m 104.51709,175.29044 q 0,-0.42568 -0.1252,-0.62601 -0.1252,-0.20032 -0.47576,-0.20032 -0.71366,0 -0.71366,0.82633 v 3.50566 h -2.44143 v -5.75929 h 2.44143 v 0.83885 q 0.51333,-0.97657 1.77787,-0.97657 1.12682,0 1.61511,0.53836 0.48828,0.53837 0.48828,1.60259 v 3.75606 h -2.56664 z" />
    <path
       id="path974"
       style="font-style:normal;font-variant:normal;font-weight:900;font-stretch:normal;font-size:12.52019596px;line-height:1;font-family:'Renner*';-inkscape-font-specification:'Renner* Heavy';text-align:end;text-anchor:end;fill:#333333"
       d="m 110.59526,176.41726 q 0.17528,0.87641 0.97657,0.87641 0.90146,0 1.20194,-0.5634 l 2.2286,0.35056 q -0.93902,1.84047 -3.30533,1.84047 -1.76535,0 -2.69185,-0.81381 -0.91397,-0.82634 -0.91397,-2.19104 0,-0.35056 0.0501,-0.61349 0.1878,-1.11429 1.03918,-1.75282 0.86389,-0.63853 2.39135,-0.63853 1.66519,0 2.50404,0.75121 0.83886,0.75121 0.83886,2.14095 0,0.35057 -0.025,0.61349 z m 1.71527,-1.1769 q -0.11269,-0.82633 -0.8013,-0.82633 -0.75121,0 -0.90145,0.82633 z" />
    <path
       id="path976"
       style="font-style:normal;font-variant:normal;font-weight:900;font-stretch:normal;font-size:12.52019596px;line-height:1;font-family:'Renner*';-inkscape-font-specification:'Renner* Heavy';text-align:end;text-anchor:end;fill:#333333"
       d="m 119.96506,175.51581 q -0.26292,-0.35057 -0.71365,-0.35057 -0.36309,0 -0.63853,0.31301 -0.26293,0.30048 -0.26293,0.87641 v 2.44144 h -2.37883 v -5.75929 h 2.37883 v 0.76373 q 0.62601,-0.91397 1.59007,-0.91397 0.30048,0 0.60097,0.16276 0.30048,0.15024 0.41316,0.36308 z" />
    <path
       id="path978"
       style="fill:#c83737"
       d="m 123.59748,170.03196 h 2.25364 l -0.38813,2.2286 2.00323,-1.0517 0.70113,2.14095 -2.25363,0.32553 1.64014,1.57754 -1.82795,1.32714 -1.00161,-2.04079 -1.00162,2.04079 -1.82795,-1.32714 1.64015,-1.57754 -2.25363,-0.32553 0.70113,-2.14095 2.00323,1.0517 z" />
  </g>
  <g
     id="flowRoot876"
     style="font-style:normal;font-weight:normal;font-size:12.52019596px;line-height:1;font-family:sans-serif;text-align:start;letter-spacing:0px;word-spacing:0px;text-anchor:start;fill:#333333;fill-opacity:1;stroke:none;stroke-width:1px;stroke-linecap:butt;stroke-linejoin:miter;stroke-opacity:1"
     transform="matrix(5.0630513,0,0,5.0630513,637.66399,-321.07399)"
     aria-label=" Hairline!
 Thin!
 Light!
 Book!
 Medium!
 Semi!
 Bold
 Heavy!
 Black!">
    <path
       id="path981"
       style="font-style:italic;font-variant:normal;font-weight:100;font-stretch:normal;font-size:12.52019596px;line-height:1;font-family:'Renner*';-inkscape-font-specification:'Renner* Thin';text-align:start;text-anchor:start;fill:#333333"
       d="m 29.161158,66.19816 h 0.137722 l -0.688611,3.918821 h 5.571487 l 0.688611,-3.918821 h 0.137722 l -1.539984,8.764137 h -0.137722 l 0.826333,-4.720114 h -5.571487 l -0.826333,4.720114 h -0.137722 z" />
    <path
       id="path983"
       style="font-style:italic;font-variant:normal;font-weight:100;font-stretch:normal;font-size:12.52019596px;line-height:1;font-family:'Renner*';-inkscape-font-specification:'Renner* Thin';text-align:start;text-anchor:start;fill:#333333"
       d="m 36.879663,69.991779 q -0.863893,0.788772 -1.089257,2.090873 -0.225363,1.3021 0.363086,2.090872 0.588449,0.788773 1.702747,0.788773 0.951535,0 1.777868,-0.801293 0.826333,-0.801292 1.076736,-1.865509 l 0.0626,-0.400646 q 0.125202,-1.076737 -0.413166,-1.87803 -0.538368,-0.813812 -1.489903,-0.813812 -1.114298,0 -1.990712,0.788772 z m -0.851373,4.269387 q -0.600969,-0.826333 -0.363086,-2.178514 0.237884,-1.352181 1.139338,-2.178514 0.901454,-0.826333 2.053312,-0.826333 0.926495,0 1.452343,0.66357 0.525848,0.66357 0.550889,1.640146 l 0.388126,-2.178514 h 0.125202 l -1.014136,5.75929 h -0.125202 l 0.388126,-2.178514 q -0.363086,0.976575 -1.139338,1.640145 -0.763732,0.663571 -1.690226,0.663571 -1.151858,0 -1.765348,-0.826333 z" />
    <path
       id="path985"
       style="font-style:italic;font-variant:normal;font-weight:100;font-stretch:normal;font-size:12.52019596px;line-height:1;font-family:'Renner*';-inkscape-font-specification:'Renner* Thin';text-align:start;text-anchor:start;fill:#333333"
       d="m 43.503043,69.203007 h 0.125202 l -1.014136,5.75929 h -0.125202 z m 0.563408,-2.817044 q -0.150242,0 -0.100161,-0.137723 0.03756,-0.112681 0.137722,-0.112681 0.162763,0 0.112682,0.137722 -0.03756,0.112682 -0.150243,0.112682 z" />
    <path
       id="path987"
       style="font-style:italic;font-variant:normal;font-weight:100;font-stretch:normal;font-size:12.52019596px;line-height:1;font-family:'Renner*';-inkscape-font-specification:'Renner* Thin';text-align:start;text-anchor:start;fill:#333333"
       d="m 48.078587,69.453411 q -0.313005,-0.250404 -0.67609,-0.250404 -0.676091,0 -1.151858,0.588449 -0.475768,0.575929 -0.676091,1.477383 l -0.65105,3.693458 h -0.125202 l 1.014136,-5.75929 h 0.125202 l -0.250404,1.427302 q 0.550889,-1.552504 1.740307,-1.552504 0.388126,0 0.738692,0.275444 z" />
    <path
       id="path989"
       style="font-style:italic;font-variant:normal;font-weight:100;font-stretch:normal;font-size:12.52019596px;line-height:1;font-family:'Renner*';-inkscape-font-specification:'Renner* Thin';text-align:start;text-anchor:start;fill:#333333"
       d="m 50.145203,65.196544 h 0.125202 l -1.727787,9.765753 h -0.125202 z" />
    <path
       id="path991"
       style="font-style:italic;font-variant:normal;font-weight:100;font-stretch:normal;font-size:12.52019596px;line-height:1;font-family:'Renner*';-inkscape-font-specification:'Renner* Thin';text-align:start;text-anchor:start;fill:#333333"
       d="m 51.743874,69.203007 h 0.125202 l -1.014136,5.75929 h -0.125202 z m 0.563409,-2.817044 q -0.150242,0 -0.100162,-0.137723 0.03756,-0.112681 0.137722,-0.112681 0.162763,0 0.112682,0.137722 -0.03756,0.112682 -0.150242,0.112682 z" />
    <path
       id="path993"
       style="font-style:italic;font-variant:normal;font-weight:100;font-stretch:normal;font-size:12.52019596px;line-height:1;font-family:'Renner*';-inkscape-font-specification:'Renner* Thin';text-align:start;text-anchor:start;fill:#333333"
       d="m 57.433716,70.955834 q 0.300485,-1.752827 -1.226979,-1.752827 -0.813813,0 -1.514944,0.63853 -0.688611,0.626009 -0.888934,1.489903 l -0.63853,3.630857 h -0.125202 l 1.014136,-5.75929 h 0.125202 l -0.287964,1.627625 q 0.313005,-0.788772 0.951535,-1.26454 0.63853,-0.488287 1.389741,-0.488287 1.665186,0 1.327141,1.878029 l -0.701131,4.006463 h -0.125202 z" />
    <path
       id="path995"
       style="font-style:italic;font-variant:normal;font-weight:100;font-stretch:normal;font-size:12.52019596px;line-height:1;font-family:'Renner*';-inkscape-font-specification:'Renner* Thin';text-align:start;text-anchor:start;fill:#333333"
       d="m 64.06453,71.794687 q 0.187803,-1.089257 -0.400646,-1.840469 -0.575929,-0.751211 -1.539984,-0.751211 -1.001616,0 -1.878029,0.763732 -0.876414,0.763732 -1.114298,2.015751 h 4.895397 z m -4.957997,0.313005 q -0.200323,1.214459 0.363086,2.040792 0.563408,0.813813 1.577544,0.813813 0.688611,0 1.2395,-0.250404 0.563408,-0.250404 0.813812,-0.500808 0.262925,-0.250404 0.58845,-0.66357 l 0.08764,0.07512 q -0.237884,0.300485 -0.425687,0.500808 -0.187803,0.187803 -0.525848,0.450727 -0.338045,0.250404 -0.801292,0.388126 -0.450728,0.125202 -1.001616,0.125202 -1.089257,0 -1.677706,-0.863894 -0.58845,-0.863893 -0.350566,-2.165994 0.225364,-1.264539 1.114298,-2.115913 0.888933,-0.863893 2.040791,-0.863893 1.014136,0 1.627626,0.776252 0.62601,0.776252 0.425687,1.92811 -0.01252,0.0626 -0.05008,0.187803 -0.03756,0.112682 -0.03756,0.137722 z" />
    <path
       id="path997"
       style="font-style:italic;font-variant:normal;font-weight:100;font-stretch:normal;font-size:12.52019596px;line-height:1;font-family:'Renner*';-inkscape-font-specification:'Renner* Thin';text-align:start;text-anchor:start;fill:#333333"
       d="m 65.816769,75.087499 q -0.150242,0 -0.100161,-0.150243 0.03756,-0.125202 0.150242,-0.125202 0.150242,0 0.100162,0.150243 -0.03756,0.125202 -0.150243,0.125202 z m 1.477383,-8.889339 h 0.175283 l -1.151858,6.260098 h -0.07512 z" />
    <path
       id="path999"
       style="font-style:italic;font-variant:normal;font-weight:200;font-stretch:normal;font-size:12.52019596px;line-height:1;font-family:'Renner*';-inkscape-font-specification:'Renner* Ultra-Light';text-align:start;text-anchor:start;fill:#333333"
       d="m 28.159542,79.672824 0.07512,-0.450727 h 5.145801 l -0.07512,0.450727 h -2.341277 l -1.464863,8.31341 h -0.463247 l 1.464863,-8.31341 z" />
    <path
       id="path1001"
       style="font-style:italic;font-variant:normal;font-weight:200;font-stretch:normal;font-size:12.52019596px;line-height:1;font-family:'Renner*';-inkscape-font-specification:'Renner* Ultra-Light';text-align:start;text-anchor:start;fill:#333333"
       d="m 37.428987,84.155054 q 0.287964,-1.640145 -1.139338,-1.640145 -0.726172,0 -1.339661,0.525848 -0.60097,0.513328 -0.788772,1.26454 l -0.651051,3.680937 h -0.450727 l 1.727787,-9.765753 h 0.450727 l -0.939014,5.283523 q 0.350565,-0.63853 0.926494,-1.014136 0.588449,-0.388126 1.2395,-0.388126 0.876413,0 1.226979,0.538369 0.363085,0.525848 0.187803,1.477383 l -0.676091,3.86874 h -0.450727 z" />
    <path
       id="path1003"
       style="font-style:italic;font-variant:normal;font-weight:200;font-stretch:normal;font-size:12.52019596px;line-height:1;font-family:'Renner*';-inkscape-font-specification:'Renner* Ultra-Light';text-align:start;text-anchor:start;fill:#333333"
       d="m 40.774226,79.722905 q -0.07512,-0.100162 -0.05008,-0.237884 0.02504,-0.137722 0.137722,-0.225363 0.112682,-0.100162 0.250404,-0.100162 0.137722,0 0.212843,0.100162 0.08764,0.08764 0.0626,0.225363 -0.02504,0.137722 -0.137722,0.237884 -0.112682,0.08764 -0.250404,0.08764 -0.137722,0 -0.225364,-0.08764 z m -0.425686,2.504039 h 0.438207 l -1.014136,5.75929 h -0.438207 z" />
    <path
       id="path1005"
       style="font-style:italic;font-variant:normal;font-weight:200;font-stretch:normal;font-size:12.52019596px;line-height:1;font-family:'Renner*';-inkscape-font-specification:'Renner* Ultra-Light';text-align:start;text-anchor:start;fill:#333333"
       d="m 46.281157,84.155054 q 0.287964,-1.640145 -1.139338,-1.640145 -0.738692,0 -1.352181,0.538368 -0.60097,0.538369 -0.788773,1.3021 l -0.63853,3.630857 h -0.450727 l 1.014136,-5.75929 h 0.450727 l -0.225363,1.27706 q 0.350565,-0.65105 0.926494,-1.026656 0.575929,-0.375606 1.2395,-0.375606 0.876413,0 1.226979,0.538369 0.363085,0.525848 0.187803,1.477383 l -0.676091,3.86874 h -0.450727 z" />
    <path
       id="path1007"
       style="font-style:italic;font-variant:normal;font-weight:200;font-stretch:normal;font-size:12.52019596px;line-height:1;font-family:'Renner*';-inkscape-font-specification:'Renner* Ultra-Light';text-align:start;text-anchor:start;fill:#333333"
       d="m 50.052082,79.222097 h 0.550889 l -1.214459,6.260098 h -0.325525 z m -1.514944,8.814218 q -0.07512,-0.100162 -0.05008,-0.237884 0.02504,-0.137722 0.137722,-0.237883 0.112682,-0.100162 0.250404,-0.100162 0.137722,0 0.225363,0.100162 0.08764,0.100161 0.0626,0.237883 -0.02504,0.137722 -0.150242,0.237884 -0.112682,0.100162 -0.250404,0.100162 -0.137722,0 -0.225364,-0.100162 z" />
    <path
       id="path1009"
       style="font-style:italic;font-variant:normal;font-weight:300;font-stretch:normal;font-size:12.52019596px;line-height:1;font-family:'Renner*';-inkscape-font-specification:'Renner* Light';text-align:start;text-anchor:start;fill:#333333"
       d="m 29.086036,92.246038 h 0.688611 l -1.427302,8.113092 h 3.618337 L 31.853,101.01018 h -4.306948 z" />
    <path
       id="path1011"
       style="font-style:italic;font-variant:normal;font-weight:300;font-stretch:normal;font-size:12.52019596px;line-height:1;font-family:'Renner*';-inkscape-font-specification:'Renner* Light';text-align:start;text-anchor:start;fill:#333333"
       d="m 34.549928,92.97221 q -0.100162,-0.137723 -0.0626,-0.325526 0.03756,-0.187803 0.187803,-0.325525 0.162762,-0.137722 0.350565,-0.137722 0.200323,0 0.313005,0.137722 0.112682,0.137722 0.07512,0.325525 -0.03756,0.187803 -0.200323,0.325526 -0.150242,0.137722 -0.350565,0.137722 -0.200323,0 -0.313005,-0.137722 z m -0.388126,2.278675 h 0.65105 l -1.014136,5.759295 h -0.65105 z" />
    <path
       id="path1013"
       style="font-style:italic;font-variant:normal;font-weight:300;font-stretch:normal;font-size:12.52019596px;line-height:1;font-family:'Renner*';-inkscape-font-specification:'Renner* Light';text-align:start;text-anchor:start;fill:#333333"
       d="m 36.333078,100.30904 q -0.63853,-0.826329 -0.400647,-2.17851 0.237884,-1.352181 1.176899,-2.178514 0.939014,-0.826333 2.128433,-0.826333 0.726171,0 1.201939,0.388126 0.488288,0.388126 0.676091,1.076737 l 0.237883,-1.339661 h 0.65105 l -0.989095,5.634085 q -0.250404,1.42731 -1.201939,2.21608 -0.939015,0.78877 -2.090873,0.78877 -1.189418,0 -1.815428,-0.70113 -0.61349,-0.68861 -0.413166,-1.80291 h 0.66357 q -0.137722,0.81381 0.313005,1.35218 0.463247,0.53837 1.364701,0.53837 0.876414,0 1.602585,-0.61349 0.726172,-0.61349 0.926495,-1.77787 l 0.212843,-1.214456 q -0.425687,0.676086 -1.051696,1.076736 -0.62601,0.38813 -1.352182,0.38813 -1.189418,0 -1.840468,-0.82634 z m 0.262924,-2.17851 q -0.187803,1.101777 0.325525,1.752828 0.513328,0.638532 1.452343,0.638532 0.813812,0 1.539984,-0.676093 0.738691,-0.688611 0.926494,-1.702747 l 0.02504,-0.08764 q 0.162762,-0.964055 -0.338046,-1.640146 -0.500808,-0.67609 -1.31462,-0.67609 -0.939015,0 -1.690227,0.65105 -0.738691,0.65105 -0.926494,1.740307 z" />
    <path
       id="path1015"
       style="font-style:italic;font-variant:normal;font-weight:300;font-stretch:normal;font-size:12.52019596px;line-height:1;font-family:'Renner*';-inkscape-font-specification:'Renner* Light';text-align:start;text-anchor:start;fill:#333333"
       d="m 47.258122,97.304197 q 0.275444,-1.565024 -1.076737,-1.565024 -0.688611,0 -1.239499,0.463247 -0.550889,0.450727 -0.726172,1.139338 l -0.65105,3.668422 h -0.65105 l 1.727787,-9.765758 h 0.65105 l -0.901454,5.120761 q 0.363086,-0.575929 0.901454,-0.901454 0.538369,-0.338046 1.151858,-0.338046 0.888934,0 1.26454,0.550889 0.388126,0.550888 0.212843,1.552504 l -0.66357,3.781104 h -0.65105 z" />
    <path
       id="path1017"
       style="font-style:italic;font-variant:normal;font-weight:300;font-stretch:normal;font-size:12.52019596px;line-height:1;font-family:'Renner*';-inkscape-font-specification:'Renner* Light';text-align:start;text-anchor:start;fill:#333333"
       d="m 50.674376,93.247654 h 0.65105 l -0.350565,2.003231 h 0.939015 l -0.112682,0.61349 h -0.939015 l -0.901454,5.145805 h -0.65105 l 0.901454,-5.145805 h -0.939015 l 0.112682,-0.61349 h 0.939015 z" />
    <path
       id="path1019"
       style="font-style:italic;font-variant:normal;font-weight:300;font-stretch:normal;font-size:12.52019596px;line-height:1;font-family:'Renner*';-inkscape-font-specification:'Renner* Light';text-align:start;text-anchor:start;fill:#333333"
       d="m 53.938431,92.246038 h 0.813812 l -1.264539,6.260098 h -0.488288 z m -1.552505,8.463652 q 0.03756,-0.20032 0.200323,-0.33804 0.162763,-0.13773 0.350566,-0.13773 0.187803,0 0.300485,0.13773 0.125202,0.13772 0.08764,0.33804 -0.03756,0.20032 -0.200323,0.32553 -0.162763,0.13772 -0.350566,0.13772 -0.187803,0 -0.313004,-0.13772 -0.112682,-0.13773 -0.07512,-0.32553 z" />
    <path
       id="path1021"
       style="font-style:italic;font-variant:normal;font-weight:normal;font-stretch:normal;font-size:12.52019596px;line-height:1;font-family:'Renner*';-inkscape-font-specification:'Renner*';text-align:start;text-anchor:start;fill:#333333"
       d="m 29.3114,109.56083 -0.588449,3.35541 h 1.31462 q 0.863894,0 1.464863,-0.45073 0.61349,-0.45072 0.751212,-1.23949 0.137722,-0.78878 -0.313005,-1.22698 -0.450727,-0.43821 -1.31462,-0.43821 z m 0.62601,-3.5307 -0.463247,2.6042 h 1.201938 q 0.676091,0 1.164379,-0.33804 0.488287,-0.35057 0.600969,-0.95154 0.112682,-0.60096 -0.262924,-0.95153 -0.375606,-0.36309 -1.051697,-0.36309 z m -0.901454,-0.93901 h 2.253635 q 1.214459,0 1.815428,0.55089 0.60097,0.55089 0.413167,1.64014 -0.112682,0.66357 -0.588449,1.12682 -0.463248,0.46325 -1.189419,0.66357 0.876414,0.1878 1.3021,0.75121 0.425687,0.55089 0.262925,1.46487 -0.225364,1.25202 -1.164379,1.91559 -0.939014,0.65105 -2.266155,0.65105 h -2.378837 z" />
    <path
       id="path1023"
       style="font-style:italic;font-variant:normal;font-weight:normal;font-stretch:normal;font-size:12.52019596px;line-height:1;font-family:'Renner*';-inkscape-font-specification:'Renner*';text-align:start;text-anchor:start;fill:#333333"
       d="m 34.902841,113.12909 q -0.701131,-0.85138 -0.463247,-2.15348 0.237884,-1.3021 1.226979,-2.15347 1.001616,-0.85138 2.278676,-0.85138 1.27706,0 1.978191,0.85138 0.713651,0.85137 0.475767,2.15347 -0.237884,1.3021 -1.239499,2.15348 -1.001616,0.85137 -2.278676,0.85137 -1.27706,0 -1.978191,-0.85137 z m 1.364702,-3.63086 q -0.651051,0.57593 -0.813813,1.47738 -0.162763,0.90146 0.287964,1.4899 0.450727,0.57593 1.302101,0.57593 0.851373,0 1.514943,-0.57593 0.663571,-0.58844 0.826333,-1.4899 0.162763,-0.90145 -0.300484,-1.47738 -0.450727,-0.58845 -1.302101,-0.58845 -0.851373,0 -1.514943,0.58845 z" />
    <path
       id="path1025"
       style="font-style:italic;font-variant:normal;font-weight:normal;font-stretch:normal;font-size:12.52019596px;line-height:1;font-family:'Renner*';-inkscape-font-specification:'Renner*';text-align:start;text-anchor:start;fill:#333333"
       d="m 41.749823,113.12909 q -0.701131,-0.85138 -0.463247,-2.15348 0.237884,-1.3021 1.226979,-2.15347 1.001616,-0.85138 2.278676,-0.85138 1.27706,0 1.978191,0.85138 0.713651,0.85137 0.475767,2.15347 -0.237884,1.3021 -1.239499,2.15348 -1.001616,0.85137 -2.278676,0.85137 -1.27706,0 -1.978191,-0.85137 z m 1.364702,-3.63086 q -0.651051,0.57593 -0.813813,1.47738 -0.162763,0.90146 0.287964,1.4899 0.450727,0.57593 1.302101,0.57593 0.851373,0 1.514943,-0.57593 0.663571,-0.58844 0.826333,-1.4899 0.162763,-0.90145 -0.300484,-1.47738 -0.450727,-0.58845 -1.302101,-0.58845 -0.851373,0 -1.514943,0.58845 z" />
    <path
       id="path1027"
       style="font-style:italic;font-variant:normal;font-weight:normal;font-stretch:normal;font-size:12.52019596px;line-height:1;font-family:'Renner*';-inkscape-font-specification:'Renner*';text-align:start;text-anchor:start;fill:#333333"
       d="m 52.202623,108.09597 h 1.252019 l -2.917205,2.37883 2.153473,3.38046 h -1.252019 l -1.86551,-2.91721 -0.513328,2.91721 h -1.001615 l 1.727787,-9.76576 h 1.001615 l -1.064216,6.03474 z" />
    <path
       id="path1029"
       style="font-style:italic;font-variant:normal;font-weight:normal;font-stretch:normal;font-size:12.52019596px;line-height:1;font-family:'Renner*';-inkscape-font-specification:'Renner*';text-align:start;text-anchor:start;fill:#333333"
       d="m 55.476067,105.09112 h 1.252019 l -1.352181,6.2601 h -0.751212 z m -1.514944,8.26333 q 0.05008,-0.27545 0.287964,-0.47577 0.237884,-0.21284 0.525849,-0.21284 0.275444,0 0.438207,0.20032 0.175282,0.20032 0.125202,0.48829 -0.05008,0.27544 -0.287965,0.48829 -0.237884,0.20032 -0.525848,0.20032 -0.275445,0 -0.450727,-0.20032 -0.162763,-0.20033 -0.112682,-0.48829 z" />
    <path
       id="path1031"
       style="font-style:italic;font-variant:normal;font-weight:500;font-stretch:normal;font-size:12.52019596px;line-height:1;font-family:'Renner*';-inkscape-font-specification:'Renner* Medium';text-align:start;text-anchor:start;fill:#333333"
       d="m 30.037571,121.55811 -1.539984,5.32108 h -1.527464 l 2.829565,-9.20234 2.541599,5.94709 4.657513,-5.94709 -0.425686,9.20234 H 35.03313 l 0.338045,-5.32108 -3.468094,4.50727 z" />
    <path
       id="path1033"
       style="font-style:italic;font-variant:normal;font-weight:500;font-stretch:normal;font-size:12.52019596px;line-height:1;font-family:'Renner*';-inkscape-font-specification:'Renner* Medium';text-align:start;text-anchor:start;fill:#333333"
       d="m 42.505144,123.37354 q 0.02504,-0.63853 -0.275444,-0.9891 -0.300485,-0.36308 -0.926495,-0.36308 -0.62601,0 -1.126818,0.36308 -0.500807,0.36309 -0.68861,0.9891 z m -3.19265,0.93901 q -0.0626,0.77626 0.287964,1.1769 0.363086,0.40065 1.039177,0.40065 1.101777,0 1.815428,-0.91398 l 1.089257,0.47577 q -1.226979,1.55251 -3.167609,1.55251 -1.314621,0 -1.978191,-0.83886 -0.663571,-0.85137 -0.425687,-2.16599 0.237884,-1.35218 1.189419,-2.17852 0.964055,-0.82633 2.341276,-0.82633 1.339661,0 1.965671,0.78877 0.62601,0.78878 0.388126,2.15348 -0.01252,0.10016 -0.08764,0.3756 z" />
    <path
       id="path1035"
       style="font-style:italic;font-variant:normal;font-weight:500;font-stretch:normal;font-size:12.52019596px;line-height:1;font-family:'Renner*';-inkscape-font-specification:'Renner* Medium';text-align:start;text-anchor:start;fill:#333333"
       d="m 45.110715,126.19058 q -0.663571,-0.81381 -0.413167,-2.19103 0.250404,-1.37722 1.201939,-2.19104 0.951535,-0.81381 2.128433,-0.81381 1.28958,0 1.777868,1.07674 l 0.876414,-4.958 h 1.364701 l -1.727787,9.76575 h -1.364701 l 0.162762,-0.95153 q -0.876413,1.07674 -2.153473,1.07674 -1.176899,0 -1.852989,-0.81382 z m 1.715266,-3.51817 q -0.575929,0.48829 -0.726171,1.32714 -0.150242,0.83885 0.262924,1.33966 0.413167,0.48829 1.139338,0.48829 0.61349,0 1.176898,-0.46325 0.57593,-0.46325 0.763732,-1.2395 l 0.05008,-0.26292 q 0.08764,-0.77626 -0.338045,-1.22698 -0.413167,-0.46325 -1.014136,-0.46325 -0.726171,0 -1.314621,0.50081 z" />
    <path
       id="path1037"
       style="font-style:italic;font-variant:normal;font-weight:500;font-stretch:normal;font-size:12.52019596px;line-height:1;font-family:'Renner*';-inkscape-font-specification:'Renner* Medium';text-align:start;text-anchor:start;fill:#333333"
       d="m 53.485357,119.41716 q -0.200324,-0.23789 -0.137723,-0.58845 0.0626,-0.35057 0.350566,-0.58845 0.300485,-0.23789 0.65105,-0.23789 0.363086,0 0.563409,0.23789 0.212843,0.23788 0.150242,0.58845 -0.0626,0.35056 -0.363085,0.58845 -0.287965,0.23788 -0.63853,0.23788 -0.363086,0 -0.575929,-0.23788 z m -0.350566,1.70274 h 1.327141 l -1.014136,5.75929 h -1.327141 z" />
    <path
       id="path1039"
       style="font-style:italic;font-variant:normal;font-weight:500;font-stretch:normal;font-size:12.52019596px;line-height:1;font-family:'Renner*';-inkscape-font-specification:'Renner* Medium';text-align:start;text-anchor:start;fill:#333333"
       d="m 57.098997,124.62556 q -0.225363,1.28958 0.851373,1.28958 0.538369,0 0.939015,-0.32553 0.400646,-0.32552 0.538368,-0.85137 l 0.63853,-3.61834 h 1.352182 l -1.014136,5.75929 h -1.352181 l 0.162762,-0.90145 q -0.738691,1.02666 -1.92811,1.02666 -0.964055,0 -1.377222,-0.56341 -0.413166,-0.57593 -0.225363,-1.66519 l 0.63853,-3.6559 h 1.389742 z" />
    <path
       id="path1041"
       style="font-style:italic;font-variant:normal;font-weight:500;font-stretch:normal;font-size:12.52019596px;line-height:1;font-family:'Renner*';-inkscape-font-specification:'Renner* Medium';text-align:start;text-anchor:start;fill:#333333"
       d="m 71.020479,123.2233 -0.63853,3.65589 h -1.364701 l 0.613489,-3.50565 q 0.112682,-0.65105 -0.05008,-0.96406 -0.162762,-0.32552 -0.67609,-0.32552 -0.513328,0 -0.876414,0.32552 -0.350565,0.31301 -0.475767,0.83886 l -0.63853,3.63085 h -1.364702 l 0.61349,-3.50565 q 0.112682,-0.65105 -0.05008,-0.96406 -0.150242,-0.32552 -0.66357,-0.32552 -0.513328,0 -0.876414,0.32552 -0.350566,0.31301 -0.475767,0.85138 l -0.63853,3.61833 H 62.13114 l 1.014136,-5.75929 h 1.32714 l -0.150242,0.83886 q 0.701131,-0.96406 1.790388,-0.96406 1.26454,0 1.477383,1.01414 0.813813,-1.01414 1.990711,-1.01414 1.827949,0 1.439823,2.2286 z" />
    <path
       id="path1043"
       style="font-style:italic;font-variant:normal;font-weight:500;font-stretch:normal;font-size:12.52019596px;line-height:1;font-family:'Renner*';-inkscape-font-specification:'Renner* Medium';text-align:start;text-anchor:start;fill:#333333"
       d="m 73.923596,118.11506 h 1.690227 l -1.389742,6.10985 h -1.064217 z m -1.314621,8.76413 q -0.212843,-0.2504 -0.150242,-0.61349 0.0626,-0.36308 0.350566,-0.60097 0.300484,-0.23788 0.67609,-0.23788 0.375606,0 0.588449,0.25041 0.225364,0.23788 0.162763,0.58844 -0.0626,0.36309 -0.363086,0.61349 -0.300484,0.23789 -0.67609,0.23789 -0.375606,0 -0.58845,-0.23789 z" />
    <path
       id="path1045"
       style="font-style:italic;font-variant:normal;font-weight:600;font-stretch:normal;font-size:12.52019596px;line-height:1;font-family:'Renner*';-inkscape-font-specification:'Renner* Semi-Bold';text-align:start;text-anchor:start;fill:#333333"
       d="m 28.785552,136.84821 q 0.287964,0.86389 0.726171,1.28958 0.450727,0.41316 1.151858,0.41316 0.575929,0 0.939015,-0.26292 0.363086,-0.27544 0.450727,-0.76373 0.05008,-0.28797 -0.02504,-0.50081 -0.07512,-0.22536 -0.363086,-0.42569 -0.287965,-0.20032 -0.463247,-0.27544 -0.162763,-0.0876 -0.651051,-0.28797 -0.07512,-0.0376 -0.112681,-0.0501 -2.178514,-0.87641 -1.86551,-2.64176 0.187803,-1.06421 1.126818,-1.71526 0.939015,-0.66357 2.228595,-0.66357 1.201939,0 1.878029,0.5634 0.676091,0.56341 0.838853,1.33966 l -1.527463,0.82634 q -0.425687,-1.16438 -1.389742,-1.16438 -0.525848,0 -0.876414,0.23788 -0.350565,0.23789 -0.425687,0.65105 -0.02504,0.16277 0.01252,0.31301 0.03756,0.13772 0.187803,0.27544 0.150242,0.1252 0.250404,0.21285 0.112681,0.0751 0.400646,0.21284 0.300484,0.1252 0.425686,0.17528 0.137723,0.0501 0.500808,0.1878 2.078353,0.78878 1.740308,2.67933 -0.225364,1.26454 -1.176899,1.96567 -0.951535,0.68861 -2.428918,0.68861 -1.164378,0 -1.978191,-0.63853 -0.813813,-0.65105 -1.039176,-1.74031 z" />
    <path
       id="path1047"
       style="font-style:italic;font-variant:normal;font-weight:600;font-stretch:normal;font-size:12.52019596px;line-height:1;font-family:'Renner*';-inkscape-font-specification:'Renner* Semi-Bold';text-align:start;text-anchor:start;fill:#333333"
       d="m 39.497362,136.3474 q 0,-1.12682 -1.139338,-1.12682 -0.563409,0 -1.014136,0.30049 -0.438207,0.30048 -0.63853,0.82633 z m -2.992327,1.02666 q -0.01252,0.66357 0.363086,1.02665 0.375606,0.35057 1.014136,0.35057 0.901454,0 1.464863,-0.78878 l 1.28958,0.50081 q -0.563409,0.77625 -1.25202,1.1769 -0.688611,0.38813 -1.802908,0.38813 -1.364701,0 -2.103393,-0.85138 -0.726171,-0.85137 -0.488288,-2.15347 0.237884,-1.35218 1.214459,-2.17851 0.989096,-0.82634 2.391358,-0.82634 1.3021,0 1.965671,0.8013 0.66357,0.78877 0.425686,2.12843 -0.01252,0.13772 -0.100161,0.42569 z" />
    <path
       id="path1049"
       style="font-style:italic;font-variant:normal;font-weight:600;font-stretch:normal;font-size:12.52019596px;line-height:1;font-family:'Renner*';-inkscape-font-specification:'Renner* Semi-Bold';text-align:start;text-anchor:start;fill:#333333"
       d="m 50.900523,136.2222 -0.651051,3.68093 h -1.640145 l 0.613489,-3.50565 q 0.212844,-1.1769 -0.63853,-1.1769 -0.413166,0 -0.713651,0.26293 -0.300484,0.2504 -0.438207,0.70113 l -0.66357,3.71849 h -1.640146 l 0.61349,-3.50565 q 0.112682,-0.58845 -0.03756,-0.87641 -0.137722,-0.30049 -0.588449,-0.30049 -0.438207,0 -0.751212,0.27545 -0.313005,0.27544 -0.425686,0.76373 l -0.63853,3.64337 h -1.577545 l 1.014136,-5.75929 H 44.3149 l -0.150243,0.85138 q 0.688611,-0.97658 1.815429,-0.97658 1.27706,0 1.477383,0.97658 0.826333,-0.97658 1.990711,-0.97658 1.840469,0 1.452343,2.20356 z" />
    <path
       id="path1051"
       style="font-style:italic;font-variant:normal;font-weight:600;font-stretch:normal;font-size:12.52019596px;line-height:1;font-family:'Renner*';-inkscape-font-specification:'Renner* Semi-Bold';text-align:start;text-anchor:start;fill:#333333"
       d="m 53.174112,131.91525 q 0.0626,-0.38813 0.400647,-0.65105 0.338045,-0.27544 0.751211,-0.27544 0.413167,0 0.63853,0.26292 0.225364,0.26292 0.162763,0.66357 -0.0626,0.38813 -0.400646,0.66357 -0.325525,0.26292 -0.738692,0.26292 -0.413166,0 -0.65105,-0.26292 -0.225364,-0.26292 -0.162763,-0.66357 z m -0.212843,2.22859 h 1.577545 l -1.014136,5.75929 h -1.577545 z" />
    <path
       id="path1053"
       style="font-style:italic;font-variant:normal;font-weight:600;font-stretch:normal;font-size:12.52019596px;line-height:1;font-family:'Renner*';-inkscape-font-specification:'Renner* Semi-Bold';text-align:start;text-anchor:start;fill:#333333"
       d="m 57.036396,131.139 h 2.028272 l -1.414782,5.98465 h -1.302101 z m -1.26454,8.76413 q -0.237883,-0.28796 -0.162762,-0.70113 0.07512,-0.41316 0.413166,-0.67609 0.338045,-0.27544 0.788773,-0.27544 0.450727,0 0.68861,0.27544 0.250404,0.26293 0.175283,0.67609 -0.07512,0.41317 -0.413166,0.70113 -0.338046,0.27545 -0.788773,0.27545 -0.450727,0 -0.701131,-0.27545 z" />
    <path
       id="path1055"
       style="font-style:italic;font-variant:normal;font-weight:bold;font-stretch:normal;font-size:12.52019596px;line-height:1;font-family:'Renner*';-inkscape-font-specification:'Renner* Bold';text-align:start;text-anchor:start;fill:#333333"
       d="m 28.960835,144.16294 h 3.23021 q 1.402262,0 2.153474,0.57593 0.751212,0.57593 0.563409,1.65266 -0.225364,1.25202 -1.590065,1.82795 0.763732,0.27545 1.139338,0.83886 0.388126,0.55088 0.237883,1.40226 -0.438207,2.46648 -3.8437,2.46648 H 27.42085 Z m 1.827948,1.65266 -0.325525,1.82795 h 0.876414 q 0.550888,0 0.901454,-0.2504 0.350565,-0.2504 0.425687,-0.68861 0.07512,-0.43821 -0.187803,-0.66357 -0.262925,-0.22537 -0.813813,-0.22537 z m -0.588449,3.30534 -0.375606,2.15347 h 1.089257 q 1.439823,0 1.640146,-1.10178 0.100161,-0.53837 -0.250404,-0.78877 -0.350566,-0.26292 -1.001616,-0.26292 z" />
    <path
       id="path1057"
       style="font-style:italic;font-variant:normal;font-weight:bold;font-stretch:normal;font-size:12.52019596px;line-height:1;font-family:'Renner*';-inkscape-font-specification:'Renner* Bold';text-align:start;text-anchor:start;fill:#333333"
       d="m 38.251603,148.99573 q -0.450727,0.40065 -0.575929,1.0517 -0.125202,0.65105 0.187803,1.0517 0.313005,0.38812 0.888934,0.38812 0.575929,0 1.026656,-0.38812 0.450727,-0.40065 0.575929,-1.0517 0.125202,-0.65105 -0.200323,-1.0517 -0.313005,-0.40064 -0.888934,-0.40064 -0.563409,0 -1.014136,0.40064 z m -1.990711,3.23021 q -0.776252,-0.82633 -0.538369,-2.17851 0.237884,-1.35218 1.314621,-2.17851 1.076737,-0.82634 2.504039,-0.82634 1.427302,0 2.216075,0.82634 0.788772,0.82633 0.550888,2.17851 -0.237883,1.35218 -1.32714,2.17851 -1.076737,0.82634 -2.50404,0.82634 -1.427302,0 -2.216074,-0.82634 z" />
    <path
       id="path1059"
       style="font-style:italic;font-variant:normal;font-weight:bold;font-stretch:normal;font-size:12.52019596px;line-height:1;font-family:'Renner*';-inkscape-font-specification:'Renner* Bold';text-align:start;text-anchor:start;fill:#333333"
       d="m 44.672507,143.16132 h 1.90307 l -1.727787,9.76576 h -1.90307 z" />
    <path
       id="path1061"
       style="font-style:italic;font-variant:normal;font-weight:bold;font-stretch:normal;font-size:12.52019596px;line-height:1;font-family:'Renner*';-inkscape-font-specification:'Renner* Bold';text-align:start;text-anchor:start;fill:#333333"
       d="m 49.061227,148.98321 q -0.463247,0.40065 -0.588449,1.06422 -0.125202,0.66357 0.200323,1.07674 0.338045,0.40064 0.913974,0.40064 0.488288,0 0.951535,-0.36308 0.475768,-0.37561 0.62601,-0.9891 l 0.03756,-0.23788 q 0.07512,-0.61349 -0.275445,-0.9891 -0.338045,-0.3756 -0.826333,-0.3756 -0.575929,0 -1.039176,0.41316 z m -2.57916,1.06422 q 0.250404,-1.40226 1.189418,-2.20355 0.951535,-0.8013 2.065833,-0.8013 1.28958,0 1.790388,1.0517 l 0.876413,-4.93296 h 1.90307 l -1.727787,9.76576 h -1.90307 l 0.162763,-0.91398 q -0.888934,1.03918 -2.165994,1.03918 -1.126818,0 -1.790388,-0.80129 -0.65105,-0.81382 -0.400646,-2.20356 z" />
    <path
       id="path1063"
       style="font-style:italic;font-variant:normal;font-weight:800;font-stretch:normal;font-size:12.52019596px;line-height:1;font-family:'Renner*';-inkscape-font-specification:'Renner* Ultra-Bold';text-align:start;text-anchor:start;fill:#333333"
       d="m 28.935794,157.18688 h 2.428918 l -0.550888,3.10501 h 3.455574 l 0.550888,-3.10501 h 2.428918 l -1.539984,8.76414 h -2.428918 l 0.61349,-3.49314 h -3.455574 l -0.61349,3.49314 H 27.39581 Z" />
    <path
       id="path1065"
       style="font-style:italic;font-variant:normal;font-weight:800;font-stretch:normal;font-size:12.52019596px;line-height:1;font-family:'Renner*';-inkscape-font-specification:'Renner* Ultra-Bold';text-align:start;text-anchor:start;fill:#333333"
       d="m 39.597915,163.5221 q 0.01252,0.52585 0.287965,0.77625 0.275444,0.25041 0.738691,0.25041 0.926495,0 1.327141,-0.62601 l 1.815429,0.45072 q -1.151858,1.70275 -3.405494,1.70275 -1.577544,0 -2.316236,-0.82633 -0.726171,-0.83886 -0.488288,-2.17852 0.250404,-1.38974 1.26454,-2.19103 1.014136,-0.81382 2.591681,-0.81382 1.464863,0 2.153474,0.77626 0.70113,0.76373 0.463247,2.12843 -0.02504,0.1878 -0.125202,0.55089 z m 2.366317,-1.15186 q -0.02504,-0.85137 -0.863893,-0.85137 -0.939015,0 -1.27706,0.85137 z" />
    <path
       id="path1067"
       style="font-style:italic;font-variant:normal;font-weight:800;font-stretch:normal;font-size:12.52019596px;line-height:1;font-family:'Renner*';-inkscape-font-specification:'Renner* Ultra-Bold';text-align:start;text-anchor:start;fill:#333333"
       d="m 47.635098,162.19496 q -0.388126,0.313 -0.488287,0.87641 -0.100162,0.56341 0.187803,0.88894 0.287964,0.313 0.801292,0.313 0.475768,0 0.876414,-0.313 0.413166,-0.31301 0.513328,-0.88894 0.100161,-0.57593 -0.200323,-0.88893 -0.300485,-0.31301 -0.776252,-0.31301 -0.513328,0 -0.913975,0.32553 z m -2.779483,0.87641 q 0.175283,-0.98909 0.701131,-1.6777 0.525848,-0.70114 1.164378,-1.00162 0.65105,-0.30048 1.364701,-0.30048 1.339661,0 1.790388,1.05169 l 0.162763,-0.95153 h 2.165994 l -1.014136,5.75929 H 49.02484 l 0.175283,-0.97658 q -0.838853,1.07674 -2.203555,1.07674 -1.114297,0 -1.752827,-0.75121 -0.63853,-0.76374 -0.388126,-2.2286 z" />
    <path
       id="path1069"
       style="font-style:italic;font-variant:normal;font-weight:800;font-stretch:normal;font-size:12.52019596px;line-height:1;font-family:'Renner*';-inkscape-font-specification:'Renner* Ultra-Bold';text-align:start;text-anchor:start;fill:#333333"
       d="m 52.743339,160.19173 h 2.303716 l 0.701131,2.92972 1.727787,-2.92972 h 2.303716 l -4.670033,6.5105 z" />
    <path
       id="path1071"
       style="font-style:italic;font-variant:normal;font-weight:800;font-stretch:normal;font-size:12.52019596px;line-height:1;font-family:'Renner*';-inkscape-font-specification:'Renner* Ultra-Bold';text-align:start;text-anchor:start;fill:#333333"
       d="m 67.066834,160.19173 -5.258482,8.51373 h -2.153474 l 1.90307,-3.10501 -1.627625,-5.40872 h 2.353797 l 0.738691,3.21769 1.840469,-3.21769 z" />
    <path
       id="path1073"
       style="font-style:italic;font-variant:normal;font-weight:800;font-stretch:normal;font-size:12.52019596px;line-height:1;font-family:'Renner*';-inkscape-font-specification:'Renner* Ultra-Bold';text-align:start;text-anchor:start;fill:#333333"
       d="m 66.940654,165.09964 q 0.100162,-0.52584 0.525849,-0.86389 0.438207,-0.33805 1.014136,-0.33805 0.575929,0 0.888933,0.33805 0.325526,0.33805 0.225364,0.86389 -0.08764,0.52585 -0.525848,0.85138 -0.425687,0.33804 -1.014136,0.33804 -0.588449,0 -0.901454,-0.33804 -0.300485,-0.32553 -0.212844,-0.85138 z m 1.389742,-7.91276 h 2.679322 l -1.477383,5.75929 h -1.765348 z" />
    <path
       id="path1075"
       style="font-style:italic;font-variant:normal;font-weight:900;font-stretch:normal;font-size:12.52019596px;line-height:1;font-family:'Renner*';-inkscape-font-specification:'Renner* Heavy';text-align:start;text-anchor:start;fill:#333333"
       d="m 28.910754,170.03196 h 3.81866 q 1.514943,0 2.366317,0.58845 0.851373,0.58845 0.66357,1.66519 -0.225364,1.2395 -1.539984,1.85299 1.590065,0.68861 1.31462,2.25363 -0.225363,1.26454 -1.264539,1.84047 -1.026656,0.56341 -2.829565,0.56341 H 27.37077 Z m 2.391357,2.06583 -0.237884,1.37722 h 0.688611 q 0.913975,0 1.039176,-0.72617 0.05008,-0.33804 -0.137722,-0.48828 -0.187803,-0.16277 -0.66357,-0.16277 z m -0.563409,3.19265 -0.250404,1.43983 h 0.939015 q 0.563409,0 0.888934,-0.15025 0.325525,-0.15024 0.413167,-0.62601 0.0626,-0.38812 -0.225364,-0.52584 -0.275444,-0.13773 -0.826333,-0.13773 z" />
    <path
       id="path1077"
       style="font-style:italic;font-variant:normal;font-weight:900;font-stretch:normal;font-size:12.52019596px;line-height:1;font-family:'Renner*';-inkscape-font-specification:'Renner* Heavy';text-align:start;text-anchor:start;fill:#333333"
       d="m 37.969312,169.03035 h 2.441438 l -1.727787,9.76575 h -2.441438 z" />
    <path
       id="path1079"
       style="font-style:italic;font-variant:normal;font-weight:900;font-stretch:normal;font-size:12.52019596px;line-height:1;font-family:'Renner*';-inkscape-font-specification:'Renner* Heavy';text-align:start;text-anchor:start;fill:#333333"
       d="m 43.201776,175.19028 q -0.338046,0.26293 -0.425687,0.72617 -0.08764,0.46325 0.150242,0.73869 0.250404,0.26293 0.688611,0.26293 0.388126,0 0.726172,-0.22536 0.338045,-0.22537 0.463247,-0.65106 l 0.03756,-0.26292 q 0.03756,-0.42569 -0.225363,-0.63853 -0.250404,-0.22536 -0.63853,-0.22536 -0.438207,0 -0.776252,0.27544 z m -3.004847,0.72617 q 0.262924,-1.47738 1.189418,-2.24111 0.926495,-0.76373 2.028272,-0.76373 1.327141,0 1.752828,1.02665 l 0.162762,-0.90145 h 2.441438 l -1.014136,5.75929 h -2.441438 l 0.162763,-0.93902 q -0.826333,1.06422 -2.178514,1.06422 -1.089257,0 -1.727787,-0.75121 -0.63853,-0.76373 -0.375606,-2.25364 z" />
    <path
       id="path1081"
       style="font-style:italic;font-variant:normal;font-weight:900;font-stretch:normal;font-size:12.52019596px;line-height:1;font-family:'Renner*';-inkscape-font-specification:'Renner* Heavy';text-align:start;text-anchor:start;fill:#333333"
       d="m 50.783145,175.91645 q -0.100162,0.55089 0.200323,0.85138 0.313005,0.30048 0.863893,0.30048 0.964055,0 1.640146,-0.73869 l -0.388126,2.20355 q -0.751212,0.38813 -1.827949,0.38813 -1.577545,0 -2.416398,-0.81381 -0.826333,-0.81382 -0.588449,-2.19104 0.237884,-1.37722 1.364701,-2.19103 1.126818,-0.81381 2.704363,-0.81381 0.913974,0 1.690226,0.36308 l -0.388126,2.21608 q -0.200323,-0.36309 -0.600969,-0.53837 -0.400646,-0.18781 -0.776252,-0.18781 -0.513328,0 -0.951535,0.33805 -0.438207,0.33805 -0.525848,0.81381 z" />
    <path
       id="path1083"
       style="font-style:italic;font-variant:normal;font-weight:900;font-stretch:normal;font-size:12.52019596px;line-height:1;font-family:'Renner*';-inkscape-font-specification:'Renner* Heavy';text-align:start;text-anchor:start;fill:#333333"
       d="m 59.721391,173.03681 h 2.867125 l -2.854604,2.37884 2.090872,3.38045 H 59.00774 l -1.865509,-2.92973 -0.513328,2.92973 h -2.316236 l 1.727787,-9.76575 h 2.316236 l -1.064217,6.03473 z" />
    <path
       id="path1085"
       style="font-style:italic;font-variant:normal;font-weight:900;font-stretch:normal;font-size:12.52019596px;line-height:1;font-family:'Renner*';-inkscape-font-specification:'Renner* Heavy';text-align:start;text-anchor:start;fill:#333333"
       d="m 63.191442,178.80862 q -0.338045,-0.36309 -0.237884,-0.95154 0.100162,-0.58845 0.575929,-0.95153 0.475768,-0.36309 1.139338,-0.36309 0.66357,0 1.001616,0.36309 0.338045,0.36308 0.237883,0.95153 -0.100161,0.58845 -0.575929,0.95154 -0.463247,0.36308 -1.126817,0.36308 -0.663571,0 -1.014136,-0.36308 z m 1.114297,-8.77666 h 3.004847 l -1.489903,5.63409 h -2.003231 z" />
  </g>
</svg>
