<?xml version="1.0" encoding="UTF-8" standalone="no"?>
<svg
   xmlns:dc="http://purl.org/dc/elements/1.1/"
   xmlns:cc="http://creativecommons.org/ns#"
   xmlns:rdf="http://www.w3.org/1999/02/22-rdf-syntax-ns#"
   xmlns:svg="http://www.w3.org/2000/svg"
   xmlns="http://www.w3.org/2000/svg"
   id="svg2"
   version="1.1"
   width="1600"
   height="640"
   viewBox="0 0 1500 600">
  <metadata
     id="metadata8">
    <rdf:RDF>
      <cc:Work
         rdf:about="">
        <dc:format>image/svg+xml</dc:format>
        <dc:type
           rdf:resource="http://purl.org/dc/dcmitype/StillImage" />
        <dc:title></dc:title>
      </cc:Work>
    </rdf:RDF>
  </metadata>
  <defs
     id="defs6" />
  <path
     style="fill:#f2f2f2"
     d="M 0,0 H 1500 V 600 H 0 Z"
     id="rect3354" />
  <g
     aria-label="Renner*"
     transform="matrix(4.9446623,0,0,4.9446623,315.54367,-22.26519)"
     style="font-style:normal;font-weight:normal;line-height:0.01%;font-family:sans-serif;text-align:center;letter-spacing:0px;word-spacing:0px;text-anchor:middle;fill:#333333;fill-opacity:1;stroke:none;stroke-width:1px;stroke-linecap:butt;stroke-linejoin:miter;stroke-opacity:1"
     id="flowRoot3338">
    <path
       d="M 28.74369,57.797713 V 67.990522 H 25.649445 V 42.508499 h 6.916549 q 3.749497,0 6.188491,2.111368 2.475397,2.074965 2.475397,5.533239 0,2.803023 -1.674533,4.768779 -1.63813,1.929353 -4.40475,2.584605 l 7.608204,10.484032 H 38.936499 L 31.837936,57.797713 Z m 0,-2.730217 h 3.822304 q 2.511799,0 4.040721,-1.310504 1.528921,-1.310504 1.528921,-3.603886 0,-2.293382 -1.528921,-3.603886 -1.528922,-1.310504 -4.040721,-1.310504 H 28.74369 Z"
       style="font-style:normal;font-variant:normal;font-weight:normal;font-stretch:normal;font-size:36.40288925px;line-height:1.25;font-family:'Renner*';-inkscape-font-specification:'Renner*';text-align:center;text-anchor:middle;fill:#333333"
       id="path134" />
    <path
       d="m 44.41684,59.617857 q 0,-3.895109 2.329785,-6.297699 2.329785,-2.438994 5.970074,-2.438994 3.567483,0 5.715253,2.329785 2.184174,2.329785 2.184174,6.261297 0,0.582446 -0.0364,0.873669 H 47.401877 q 0.182014,2.5118 1.601727,3.895109 1.419713,1.38331 3.713095,1.38331 3.385469,0 5.242016,-3.02144 l 2.366188,1.492519 q -1.38331,2.14777 -3.167052,3.203454 -1.783741,1.055684 -4.805181,1.055684 -3.421872,0 -5.678851,-2.475397 -2.256979,-2.475396 -2.256979,-6.261297 z m 13.032234,-1.747338 q -0.218417,-2.038562 -1.419712,-3.239857 -1.201296,-1.201296 -3.312663,-1.201296 -2.074965,0 -3.567483,1.237698 -1.456116,1.201296 -1.674533,3.203455 z"
       style="font-style:normal;font-variant:normal;font-weight:normal;font-stretch:normal;font-size:36.40288925px;line-height:1.25;font-family:'Renner*';-inkscape-font-specification:'Renner*';text-align:center;text-anchor:middle;fill:#333333"
       id="path136" />
    <path
       d="m 75.382049,57.797713 q 0,-4.186332 -3.567483,-4.186332 -1.892951,0 -3.094246,1.201295 -1.164892,1.164892 -1.164892,2.985037 V 67.990522 H 64.643196 V 51.245193 h 2.912232 v 2.657411 q 1.674532,-3.02144 4.987195,-3.02144 2.657411,0 4.186333,1.710936 1.565324,1.674533 1.565324,4.841584 v 10.556838 h -2.912231 z"
       style="font-style:normal;font-variant:normal;font-weight:normal;font-stretch:normal;font-size:36.40288925px;line-height:1.25;font-family:'Renner*';-inkscape-font-specification:'Renner*';text-align:center;text-anchor:middle;fill:#333333"
       id="path138" />
    <path
       d="m 94.507781,57.797713 q 0,-4.186332 -3.567483,-4.186332 -1.89295,0 -3.094246,1.201295 -1.164892,1.164892 -1.164892,2.985037 V 67.990522 H 83.768929 V 51.245193 h 2.912231 v 2.657411 q 1.674533,-3.02144 4.987196,-3.02144 2.657411,0 4.186332,1.710936 1.565324,1.674533 1.565324,4.841584 v 10.556838 h -2.912231 z"
       style="font-style:normal;font-variant:normal;font-weight:normal;font-stretch:normal;font-size:36.40288925px;line-height:1.25;font-family:'Renner*';-inkscape-font-specification:'Renner*';text-align:center;text-anchor:middle;fill:#333333"
       id="path140" />
    <path
       d="m 101.43855,59.617857 q 0,-3.895109 2.32979,-6.297699 2.32978,-2.438994 5.97007,-2.438994 3.56749,0 5.71526,2.329785 2.18417,2.329785 2.18417,6.261297 0,0.582446 -0.0364,0.873669 h -13.17785 q 0.18201,2.5118 1.60173,3.895109 1.41971,1.38331 3.71309,1.38331 3.38547,0 5.24202,-3.02144 l 2.36619,1.492519 q -1.38331,2.14777 -3.16706,3.203454 -1.78374,1.055684 -4.80518,1.055684 -3.42187,0 -5.67885,-2.475397 -2.25698,-2.475396 -2.25698,-6.261297 z m 13.03224,-1.747338 q -0.21842,-2.038562 -1.41971,-3.239857 -1.2013,-1.201296 -3.31267,-1.201296 -2.07496,0 -3.56748,1.237698 -1.45612,1.201296 -1.67453,3.203455 z"
       style="font-style:normal;font-variant:normal;font-weight:normal;font-stretch:normal;font-size:36.40288925px;line-height:1.25;font-family:'Renner*';-inkscape-font-specification:'Renner*';text-align:center;text-anchor:middle;fill:#333333"
       id="path142" />
    <path
       d="m 129.63714,54.448647 q -1.16489,-0.837266 -2.25698,-0.837266 -2.80302,0 -2.80302,4.186332 v 10.192809 h -2.91223 V 51.245193 h 2.91223 v 1.929353 q 1.52892,-2.293382 3.53108,-2.293382 2.00216,0 3.13065,1.164892 z"
       style="font-style:normal;font-variant:normal;font-weight:normal;font-stretch:normal;font-size:36.40288925px;line-height:1.25;font-family:'Renner*';-inkscape-font-specification:'Renner*';text-align:center;text-anchor:middle;fill:#333333"
       id="path144" />
    <path
       d="m 140.94934,42.508499 h 2.5482 l -0.29122,5.751657 5.38762,-2.074965 0.76446,2.438994 -5.53324,1.492518 3.60389,4.477556 -2.07496,1.492518 -3.13065,-4.805181 -3.13065,4.805181 -2.07497,-1.492518 3.60389,-4.477556 -5.53324,-1.492518 0.76446,-2.438994 5.38763,2.074965 z"
       style="fill:#c83737"
       id="path146" />
  </g>
  <g
     id="flowRoot27"
     style="font-style:italic;font-variant:normal;font-weight:500;font-stretch:normal;font-size:40px;line-height:125%;font-family:'Renner*';-inkscape-font-specification:'Renner* Medium Italic';letter-spacing:0px;word-spacing:0px;fill:#666666;fill-opacity:1;stroke:none;stroke-width:1px;stroke-linecap:butt;stroke-linejoin:miter;stroke-opacity:1"
     transform="matrix(1.7338108,0,0,1.7338108,-140.14875,-261.90951)"
     aria-label="Version 3.1">
    <path
       id="path56"
       style=""
       d="m 431.39531,405.97234 12.72,-19.32 h 5.2 l -19.4,28.8 -9,-28.8 h 4.72 z" />
    <path
       id="path58"
       style=""
       d="m 458.64094,403.49234 q 0,-0.04 0,-0.2 0.04,-0.16 0.04,-0.2 0,-3.64 -3.84,-3.64 -1.96,0 -3.84,1.16 -1.84,1.16 -2.48,2.88 z m -10.72,2.96 v 0.48 q 0,4.32 4.08,4.32 4.2,0 6.48,-2.56 l 3.32,2.08 q -3.8,4.28 -10.08,4.28 -3.96,0 -6.04,-2.04 -2.08,-2.04 -2.08,-5.76 0,-5.08 3.32,-8.24 3.32,-3.16 8.16,-3.16 3.72,0 5.84,1.84 2.12,1.84 2.12,5.2 0,1.88 -0.52,3.56 z" />
    <path
       id="path60"
       style=""
       d="m 477.60719,400.69234 q -1.08,-0.92 -2.52,-0.92 -3.08,0 -3.84,4.12 l -1.88,10.76 h -4.52 l 3.24,-18.4 h 4.52 l -0.48,2.6 q 1.04,-1.32 2.28,-2.08 1.28,-0.8 2.36,-0.8 1.92,0 3.2,1.28 z" />
    <path
       id="path62"
       style=""
       d="m 482.61469,407.81234 q 0.04,1.6 1.12,2.52 1.12,0.92 2.64,0.92 3.2,0 3.2,-1.88 0,-1.76 -3.28,-2.88 -4.88,-1.6 -4.88,-5.32 0,-2.6 2.12,-3.96 2.12,-1.36 5.04,-1.36 2.44,0 4.44,1.24 2,1.2 2.28,2.76 l -3.64,1.64 q -1.08,-2 -3.28,-2 -1.08,0 -1.88,0.36 -0.8,0.36 -0.8,1.04 0,0.68 0.84,1.24 0.88,0.56 2.72,1.32 2.12,0.84 3.4,2.12 1.28,1.24 1.28,3.56 0,2.88 -2.16,4.4 -2.12,1.52 -5.48,1.52 -3.32,0 -5.32,-1.68 -2,-1.68 -2.04,-4.04 z" />
    <path
       id="path64"
       style=""
       d="m 501.51844,390.89234 q -0.8,-0.76 -0.8,-1.84 0,-1.08 0.8,-1.84 0.8,-0.76 1.92,-0.76 1.12,0 1.92,0.76 0.8,0.76 0.8,1.84 0,1.08 -0.8,1.84 -0.8,0.76 -1.92,0.76 -1.12,0 -1.92,-0.76 z m -1.48,5.36 h 4.32 l -3.24,18.4 h -4.32 z" />
    <path
       id="path66"
       style=""
       d="m 517.78094,395.85234 q 4.24,0 6.56,2.2 2.36,2.16 2.36,5.88 0,4.96 -3.4,8.04 -3.36,3.08 -8.28,3.08 -3.64,0 -6.28,-2.16 -2.6,-2.16 -2.6,-5.92 0,-5.08 3.52,-8.08 3.56,-3.04 8.12,-3.04 z m -7.36,10.92 q 0,2.16 1.28,3.32 1.32,1.16 3.6,1.16 2.92,0 5,-1.92 2.12,-1.96 2.12,-5.16 0,-2.16 -1.32,-3.32 -1.32,-1.2 -3.6,-1.2 -2.88,0 -5,1.96 -2.08,1.96 -2.08,5.16 z" />
    <path
       id="path68"
       style=""
       d="m 535.75719,398.61234 q 2.44,-2.76 6.04,-2.76 2.92,0 4.56,1.68 1.68,1.68 1,5.52 l -2.04,11.6 h -4.28 l 1.96,-11.2 q 0.36,-2.2 -0.28,-3 -0.64,-0.8 -2.4,-0.8 -1.92,0 -3.44,0.88 -1.48,0.88 -1.92,2.6 l -2.04,11.52 h -4.28 l 3.24,-18.4 h 4.28 z" />
    <path
       id="path70"
       style=""
       d="m 570.87094,415.45234 q -3.64,0 -5.84,-1.84 -2.16,-1.88 -2.16,-4.8 0,-0.52 0.16,-1.56 h 4.24 q -0.08,0.48 -0.08,0.72 0,1.6 1,2.56 1.04,0.92 3,0.92 2.64,0 4.32,-1.48 1.68,-1.48 1.68,-4.32 0,-3.6 -5.12,-3.6 0.08,-0.64 0.28,-1.88 0.24,-1.28 0.36,-1.92 3.32,0 4.64,-1.36 1.32,-1.4 1.32,-4.08 0,-2.96 -3.08,-2.96 -4.24,0 -4.92,3.76 h -4.04 q 0.6,-3.44 3.16,-5.6 2.56,-2.16 6.12,-2.16 3.2,0 5.12,1.72 1.96,1.72 1.96,4.64 0,6.2 -5.4,7.92 3.84,1.32 3.84,5.32 0,4.56 -2.96,7.28 -2.96,2.72 -7.6,2.72 z" />
    <path
       id="path72"
       style="letter-spacing:-5.40716457px"
       d="m 585.18594,414.89234 q -0.8,-0.76 -0.8,-1.84 0,-1.08 0.8,-1.84 0.8,-0.76 1.92,-0.76 1.12,0 1.92,0.76 0.8,0.76 0.8,1.84 0,1.08 -0.8,1.84 -0.8,0.76 -1.92,0.76 -1.12,0 -1.92,-0.76 z" />
    <path
       id="path74"
       style=""
       d="m 595.0744,392.57234 0.76,-4.32 11.08,-2.6 -5.12,29 h -4.52 l 4.24,-23.96 z" />
  </g>
</svg>
