<?xml version="1.0" encoding="UTF-8" standalone="no"?>
<svg
   xmlns:svg="http://www.w3.org/2000/svg"
   xmlns="http://www.w3.org/2000/svg"
   xmlns:sodipodi="http://sodipodi.sourceforge.net/DTD/sodipodi-0.dtd"
   xmlns:inkscape="http://www.inkscape.org/namespaces/inkscape"
   inkscape:version="1.1-dev (1:0.92.0+devel+202005110039+9ce7266)"
   sodipodi:docname="header.svg"
   viewBox="0 0 233.96027 12.07947"
   height="12.07947"
   width="233.96027"
   id="svg2"
   version="1.1">
  <defs
     id="defs6" />
  <sodipodi:namedview
     inkscape:current-layer="g8"
     inkscape:window-maximized="1"
     inkscape:window-y="30"
     inkscape:window-x="0"
     inkscape:cy="7.531326"
     inkscape:cx="135.31849"
     inkscape:zoom="4.5435065"
     showgrid="false"
     id="namedview4"
     inkscape:window-height="1017"
     inkscape:window-width="1920"
     inkscape:pageshadow="2"
     inkscape:pageopacity="0"
     guidetolerance="10"
     gridtolerance="10"
     objecttolerance="10"
     borderopacity="1"
     bordercolor="#666666"
     pagecolor="#ffffff" />
  <g
     id="g8"
     inkscape:label="Image"
     inkscape:groupmode="layer">
    <path
       id="path1070"
       style="font-style:normal;font-variant:normal;font-weight:500;font-stretch:normal;font-size:13.3333px;font-family:'Jones*';-inkscape-font-specification:'Jones* Medium';text-align:center;letter-spacing:3px;word-spacing:0px;white-space:pre;shape-inside:url(#rect28)"
       d="m 227.7207,0 v 4.44336 l -3.83398,-2.222656 -0.59376,1.009765 3.86915,2.222656 -3.86915,2.222657 0.59376,1.009765 3.83398,-2.222656 v 4.445313 h 1.19141 V 6.462891 l 3.83398,2.222656 0.59375,-1.009765 -3.86914,-2.222657 3.86914,-2.222656 -0.59375,-1.009765 -3.83398,2.222656 V 0 Z M 49.15039,2.673828 c -1.85333,0 -3.171881,1.131407 -3.171881,2.691407 0,1.57333 1.239671,2.200879 2.986331,2.574219 1.45333,0.306659 2.21289,0.654228 2.21289,1.574218 0,0.8 -0.70753,1.31836 -1.88086,1.31836 -1.30667,0 -2.29164,-0.693047 -2.931641,-1.373047 L 45.4707,10.59375 c 0.826659,0.86667 2.18626,1.679688 3.90625,1.679688 1.58667,0 3.22656,-0.881045 3.22656,-2.734375 0,-1.62666 -1.03966,-2.413526 -2.98633,-2.853516 -1.29333,-0.29334 -2.24023,-0.545449 -2.24023,-1.412109 0,-0.76 0.60154,-1.267578 1.9082,-1.267578 0.90667,0 1.63828,0.253174 2.23828,0.839844 l 0.85352,-1 C 51.68362,3.152373 50.73705,2.673828 49.15039,2.673828 Z m 50.75976,0 c -2.73333,0 -4.86719,2.145499 -4.86719,4.798829 0,2.65333 2.13386,4.800781 4.86719,4.800781 1.54666,0 2.8267,-0.640625 3.69336,-1.640625 l -0.90625,-0.90625 c -0.64,0.74666 -1.68045,1.212891 -2.78711,1.212891 -2.01333,0 -3.40039,-1.520137 -3.40039,-3.466797 0,-1.94666 1.38706,-3.466797 3.40039,-3.466797 1.10666,0 2.14711,0.46623 2.78711,1.21289 l 0.90625,-0.90625 c -0.86666,-1 -2.1467,-1.638671 -3.69336,-1.638672 z M 0,2.806641 v 9.332031 H 1.46679 V 2.806641 Z m 6.94336,0 v 9.332031 h 1.46679 v -6.90625 l 5.33399,6.90625 h 1.33398 V 2.806641 h -1.4668 v 6.90625 L 8.27734,2.806641 Z m 13.52148,0 v 9.332031 h 3.86719 c 2.733329,0 4.933589,-2.012685 4.933589,-4.666015 0,-2.65333 -2.20026,-4.666016 -4.933589,-4.666016 z m 13.806639,0 v 9.332031 h 7 v -1.332031 h -5.5332 V 8.033204 h 4.86718 V 6.699219 h -4.86718 V 4.138672 h 5.5332 V 2.806641 Z m 22.599611,0 v 1.332031 h 3.33398 v 8 h 1.4668 v -8 H 65.0039 V 2.806641 Z m 12.85937,0 v 9.332031 h 1.4668 v -3.30664 h 2.35938 l 2.48047,3.30664 h 1.66601 L 75.05078,8.59375 c 1.19999,-0.44 2.05273,-1.428057 2.05273,-2.748046 0,-1.8 -1.58612,-3.039063 -3.43945,-3.039063 z m 12.44922,0 V 8.40625 c 0,2.25333 1.74668,3.867188 4,3.867188 2.25333,0 4,-1.613858 4,-3.867188 V 2.806641 H 88.78125 V 8.40625 c 0,1.45333 -1.1749,2.59961 -2.60157,2.59961 -1.42666,0 -2.59961,-1.14628 -2.59961,-2.59961 V 2.806641 Z m 25.36328,0 v 1.332031 h 3.33399 v 8 h 1.46484 v -8 h 3.33399 V 2.806641 Z m 12.92579,0 v 9.332031 h 1.46679 V 2.806641 Z m 6.94336,0 v 9.332031 h 4.13281 c 1.71999,0 3.26758,-0.812695 3.26758,-2.666015 0,-1.22667 -0.66696,-1.852813 -1.62696,-2.132813 0.76,-0.29334 1.26758,-0.854531 1.26758,-1.894531 0,-1.78666 -1.45383,-2.638672 -3.17383,-2.638672 z m 12.27148,0 v 9.332031 H 146.75 v -1.332031 h -5.59961 v -8 z m 11.72461,0 v 9.332031 h 7 v -1.332031 h -5.53516 V 8.033204 h 4.86719 V 6.699219 h -4.86719 V 4.138672 h 5.53516 V 2.806641 Z m 18.27539,0 v 1.332031 h 3.33398 v 8 h 1.46485 v -8 h 3.33398 V 2.806641 Z m 11.92578,0 3.5332,5.599609 v 3.732422 h 1.4668 V 8.40625 l 3.5332,-5.599609 h -1.66601 L 185.875,6.939454 183.27539,2.806641 Z m 12.99609,0 v 9.332031 h 1.4668 v -3.30664 h 2 c 1.85333,0 3.43945,-1.199668 3.43946,-2.986328 0,-1.8 -1.58613,-3.039063 -3.43946,-3.039063 z m 11.56641,0 v 9.332031 h 7 v -1.332031 h -5.5332 V 8.033204 h 4.86719 V 6.699219 h -4.86719 V 4.138672 h 5.5332 V 2.806641 Z M 21.93164,4.138672 h 2.40039 c 2.01333,0 3.46679,1.387325 3.46679,3.333985 0,1.94666 -1.45346,3.333984 -3.46679,3.333984 h -2.40039 z m 49.26562,0 h 2.4668 c 1.17333,0 1.97265,0.707032 1.97266,1.707032 0,1 -0.79933,1.654296 -1.97266,1.654296 h -2.4668 z m 57.68164,0 h 2.40039 c 1.10666,0 1.70703,0.306641 1.70703,1.306641 0,1 -0.60037,1.253906 -1.70703,1.253906 h -2.40039 z m 67.19336,0 h 2 c 1.17333,0 1.97266,0.707032 1.97266,1.707032 0,1 -0.79933,1.654296 -1.97266,1.654296 h -2 z M 128.8789,8.033204 h 2.66602 c 1.10666,0 1.80078,0.372783 1.80078,1.439453 0,1.06666 -0.69412,1.333984 -1.80078,1.333984 h -2.66602 z"
       inkscape:export-filename="/home/owen/Google Drive/Miscellaneous/Fonts/indestructible type*/Drafting/header.png"
       inkscape:export-xdpi="151.32001"
       inkscape:export-ydpi="151.32001" />
  </g>
</svg>
