<?xml version="1.0" encoding="UTF-8" standalone="no"?>
<svg
   xmlns:osb="http://www.openswatchbook.org/uri/2009/osb"
   xmlns:dc="http://purl.org/dc/elements/1.1/"
   xmlns:cc="http://creativecommons.org/ns#"
   xmlns:rdf="http://www.w3.org/1999/02/22-rdf-syntax-ns#"
   xmlns:svg="http://www.w3.org/2000/svg"
   xmlns="http://www.w3.org/2000/svg"
   xmlns:sodipodi="http://sodipodi.sourceforge.net/DTD/sodipodi-0.dtd"
   xmlns:inkscape="http://www.inkscape.org/namespaces/inkscape"
   viewBox="0 0 1500 600"
   height="640"
   width="1600"
   version="1.1"
   id="svg2"
   sodipodi:docname="Besley.svg"
   inkscape:version="0.92.3 (2405546, 2018-03-11)">
  <sodipodi:namedview
     pagecolor="#ffffff"
     bordercolor="#666666"
     borderopacity="1"
     objecttolerance="10"
     gridtolerance="10"
     guidetolerance="10"
     inkscape:pageopacity="0"
     inkscape:pageshadow="2"
     inkscape:window-width="1920"
     inkscape:window-height="1052"
     id="namedview96"
     showgrid="false"
     inkscape:zoom="0.50027805"
     inkscape:cx="496.28042"
     inkscape:cy="356.35035"
     inkscape:window-x="0"
     inkscape:window-y="0"
     inkscape:window-maximized="1"
     inkscape:current-layer="svg2" />
  <metadata
     id="metadata8">
    <rdf:RDF>
      <cc:Work
         rdf:about="">
        <dc:format>image/svg+xml</dc:format>
        <dc:type
           rdf:resource="http://purl.org/dc/dcmitype/StillImage" />
        <dc:title></dc:title>
      </cc:Work>
    </rdf:RDF>
  </metadata>
  <defs
     id="defs6">
    <linearGradient
       osb:paint="solid"
       id="linearGradient5684">
      <stop
         id="stop5686"
         offset="0"
         style="stop-color:#6f5b14;stop-opacity:1;" />
    </linearGradient>
  </defs>
  <g
     aria-label="Besley*"
     transform="matrix(1.1800817,0,0,1.1800817,-195.45316,-83.843319)"
     style="font-style:normal;font-variant:normal;font-weight:500;font-stretch:normal;font-size:200px;line-height:1.25;font-family:'Besley*';-inkscape-font-specification:'Besley* Medium';text-align:center;letter-spacing:0px;word-spacing:0px;text-anchor:middle;fill:#000000;fill-opacity:1;stroke:none;stroke-width:1.58887304;stroke-miterlimit:4;stroke-dasharray:none;stroke-opacity:1;paint-order:stroke fill markers"
     id="flowRoot892">
    <path
       d="m 466.71979,274.98242 h 27.4 q 26,0 26,-25 0,-25 -26,-25 h -27.2 q -4.2,0 -5,1 -0.8,0.8 -0.8,5.4 v 35.6 q 0,5.2 1,6.6 1,1.4 4.6,1.4 z m 29.4,70 q 12.2,0 20,-7 8,-7 8,-21 0,-14 -7.8,-20.4 -7.8,-6.6 -20.2,-6.6 h -29.8 q -3.2,0 -4.2,1.2 -1,1.2 -1,6.2 v 42.8 q 0,3 1.2,4 1.2,0.8 5.6,0.8 z m 2,15 h -75.8 q -1.2,0 -3.2,0 -1.8,0.2 -2.6,0.2 -2.4,0 -3.4,-1 -1,-1.2 -1,-4.4 v -4.6 q 0,-3.6 0.6,-4.4 0.6,-0.8 3.2,-0.8 h 9.6 q 6.4,0 7.4,-1 1.2,-1.2 1.2,-7.8 v -107.2 q 0,-2.6 -0.6,-3.2 -0.4,-0.8 -2.2,-0.8 h -15 q -3,0 -3.6,-0.4 -0.6,-0.4 -0.6,-2.6 v -6.6 q 0,-3.4 0.8,-4.4 0.8,-1.2 3.2,-1.2 0.6,0 2,0.2 1.6,0 2.6,0 h 73.4 q 24.2,0 39,9.2 15,9.2 15,27.8 0,28.4 -33.2,35.2 18.4,2.6 28.8,11.6 10.4,8.8 10.4,24.2 0,21.4 -15.2,31.8 -15.2,10.2 -40.8,10.2 z"
       id="path908"
       inkscape:connector-curvature="0"
       style="fill:#000000;fill-opacity:1;stroke:none;stroke-width:1.58887304;stroke-miterlimit:4;stroke-dasharray:none;stroke-opacity:1;paint-order:stroke fill markers" />
    <path
       d="m 633.30078,284.98242 q -2.8,-20.2 -17.2,-20.2 -17,0 -21.2,24.2 -0.6,2.6 -0.6,4.2 0,2 1.2,2.6 1.2,0.4 5,0.4 h 27.4 q 6.4,0 6.4,-4.2 0,-0.8 -0.2,-1.8 -0.2,-1.2 -0.4,-2.6 -0.2,-1.6 -0.4,-2.6 z m 23.8,23.8 h -59.6 q -2.2,0 -3,0.8 -0.8,0.6 -0.8,3 v 1.6 q 0.8,16.8 6.4,26 5.8,9 19.2,9 17.6,0 25,-17.4 0,-0.2 0.6,-2.4 0.8,-2.4 1.6,-3.2 0.8,-0.8 2.6,-0.8 h 7.2 q 3.6,0 3.6,2.8 0,1.4 -2,6.8 -11,28 -41,28 -24.4,0 -38,-15.2 -13.6,-15.4 -13.6,-37.8 0,-25.6 12.6,-41.2 12.6,-15.8 38.4,-15.8 10.6,0 18.6,3 8,2.8 12.8,7.4 5,4.4 8,11.2 3.2,6.6 4.4,13.2 1.4,6.4 1.8,14.4 v 2.2 q 0,2.8 -1,3.6 -0.8,0.8 -3.8,0.8 z"
       style="fill:#000000;fill-opacity:1;stroke:none;stroke-width:1.58887304;stroke-miterlimit:4;stroke-dasharray:none;stroke-opacity:1;paint-order:stroke fill markers"
       id="path910"
       inkscape:connector-curvature="0" />
    <path
       d="m 745.37266,278.98242 q -4.2,-6.4 -11.4,-9.8 -7,-3.4 -13.4,-3.4 -17.6,0 -17.6,13 0,6 6.4,9.8 6.6,3.6 15.8,6.2 9.4,2.4 18.6,5.8 9.2,3.4 15.6,11 6.6,7.4 6.6,19 0,32.8 -41.4,32.8 -14.8,0 -26.4,-7 -1,-0.6 -2,-1.2 -0.8,-0.8 -1.4,-1.2 -0.4,-0.4 -0.8,-0.4 -0.8,0 -2.8,3 -0.2,0.6 -0.8,1.6 -0.4,1 -0.6,1.4 -0.2,0.2 -0.6,0.8 -0.2,0.6 -0.6,0.6 -0.2,0.2 -0.6,0.4 -0.4,0.4 -1,0.4 -0.4,0 -1.2,0 -0.6,0.2 -1.6,0.2 h -4.4 q -2.4,0 -3.2,-0.6 -0.6,-0.6 -0.6,-2.2 v -29 q 0,-3.6 0.4,-4.2 0.6,-0.6 4.2,-0.6 h 5.6 q 1.4,0 2.2,0.4 0.8,0.4 1,0.8 0.2,0.4 0.4,1.6 0.4,1 0.6,1.6 3.8,9.6 12.4,15 8.6,5.2 17.8,5.2 10,0 15.4,-4.4 5.4,-4.6 5.4,-11.2 0,-5.4 -4.6,-9 -4.6,-3.8 -11.6,-5.6 -6.8,-1.8 -14.8,-4.4 -8,-2.8 -15,-6 -6.8,-3.2 -11.4,-10 -4.6,-6.8 -4.6,-16.4 0,-14.8 10.8,-22.6 10.8,-7.8 26.2,-7.8 14.2,0 23,6 1.4,1 2.6,2.2 1.2,1 1.6,1.6 0.6,0.4 1,0.4 0.4,0 3.8,-5.4 1.6,-2.6 2.2,-3 0.8,-0.4 4.4,-0.4 h 5.2 q 1.4,0 1.8,1 0.4,0.8 0.4,3.6 v 25.8 q 0,3.2 -0.8,4.4 -0.8,1.2 -3.8,1.2 h -4.8 q -2.4,0 -3.8,-1.8 -1.4,-2 -2.4,-5 -0.8,-3.2 -1.4,-4.2 z"
       style="fill:#000000;fill-opacity:1;stroke:none;stroke-width:1.58887304;stroke-miterlimit:4;stroke-dasharray:none;stroke-opacity:1;paint-order:stroke fill markers"
       id="path912"
       inkscape:connector-curvature="0" />
    <path
       d="m 785.97266,216.98242 h -10 q -2,0 -2.6,-0.6 -0.4,-0.6 -0.4,-3.2 v -6 q 0,-3.4 3.4,-3.4 0.6,0 2,0.2 1.4,0 2.2,0 h 28.8 q 5.2,0 6.4,0.8 1.4,0.8 1.4,4 0,0.8 -0.2,3.2 0,2.4 0,4.2 v 120.6 q 0,1.4 -0.2,3.2 0,1.8 0,2.4 0,2.6 1.2,3.6 1.4,1 5.4,1 h 7.8 q 2.8,0 3.2,0.8 0.6,0.6 0.6,3.8 v 4.8 q 0,3.8 -3,3.8 -0.6,0 -2,-0.2 -1.4,0 -2.2,0 h -49.2 q -4,0 -4.8,-1 -0.8,-1 -0.8,-5.8 0,-0.8 -0.2,-2 0,-1.2 0,-1.6 0,-2.6 3.6,-2.6 h 7.8 q 4.4,0 5.6,-1 1.4,-1.2 1.4,-4 0,-0.6 -0.2,-2.2 0,-1.8 0,-3 v -115.8 q 0,-2.8 -0.8,-3.4 -0.6,-0.6 -4.2,-0.6 z"
       style="fill:#000000;fill-opacity:1;stroke:none;stroke-width:1.58887304;stroke-miterlimit:4;stroke-dasharray:none;stroke-opacity:1;paint-order:stroke fill markers"
       id="path914"
       inkscape:connector-curvature="0" />
    <path
       d="m 909.08203,284.98242 q -2.8,-20.2 -17.2,-20.2 -17,0 -21.2,24.2 -0.6,2.6 -0.6,4.2 0,2 1.2,2.6 1.2,0.4 5,0.4 h 27.4 q 6.4,0 6.4,-4.2 0,-0.8 -0.2,-1.8 -0.2,-1.2 -0.4,-2.6 -0.2,-1.6 -0.4,-2.6 z m 23.8,23.8 h -59.6 q -2.2,0 -3,0.8 -0.8,0.6 -0.8,3 v 1.6 q 0.8,16.8 6.4,26 5.8,9 19.2,9 17.6,0 25,-17.4 0,-0.2 0.6,-2.4 0.8,-2.4 1.6,-3.2 0.8,-0.8 2.6,-0.8 h 7.2 q 3.6,0 3.6,2.8 0,1.4 -2,6.8 -11,28 -41,28 -24.4,0 -38,-15.2 -13.6,-15.4 -13.6,-37.8 0,-25.6 12.6,-41.2 12.6,-15.8 38.4,-15.8 10.6,0 18.6,3 8,2.8 12.8,7.4 5,4.4 8,11.2 3.2,6.6 4.4,13.2 1.4,6.4 1.8,14.4 v 2.2 q 0,2.8 -1,3.6 -0.8,0.8 -3.8,0.8 z"
       style="fill:#000000;fill-opacity:1;stroke:none;stroke-width:1.58887304;stroke-miterlimit:4;stroke-dasharray:none;stroke-opacity:1;paint-order:stroke fill markers"
       id="path916"
       inkscape:connector-curvature="0" />
    <path
       d="m 976.95391,412.98242 q -13.8,0 -21.8,-8.4 -7.8,-8.2 -7.8,-19 0,-9.2 4.2,-15.2 4.4,-5.8 13,-5.8 7.2,0 11,4.2 4,4.2 4,10.6 0,6 -3,9.2 -2.8,3.2 -5.8,4.4 -2.8,1.2 -2.8,2.2 0,2.2 2.2,4 2.2,1.8 6.8,1.8 17,0 28.39999,-29 1.2,-3.4 1.2,-5.4 0,-2 -2.8,-8.6 l -38.39999,-84.4 q -0.2,-0.4 -0.6,-1.4 -0.4,-1 -0.6,-1.2 -0.2,-0.4 -0.6,-0.8 -0.4,-0.6 -1,-0.8 -0.6,-0.2 -1.4,-0.2 -0.8,-0.2 -2.2,-0.2 h -5.2 q -0.8,0 -2.2,0.2 -1.2,0 -1.6,0 -1.8,0 -2.6,-0.8 -0.6,-0.8 -0.6,-3.6 v -5.2 q 0,-2.4 0.4,-3 0.6,-0.6 2.2,-0.6 h 51.59999 q 2.8,0 3.4,0.6 0.6,0.6 0.6,2.6 v 6.8 q 0,2 -0.4,2.6 -0.4,0.4 -2,0.4 h -4.39999 q -6,0 -6,1.6 0,0.2 2.4,5.4 l 15.39999,34.6 q 3.8,8.8 6,14.6 2.2,5.6 4.2,5.6 l 3.6,-4.8 q 6.4,-17.2 6.8,-18.4 l 13.2,-33.6 1.6,-3.8 q 0,-1.2 -2.4,-1.2 h -8.4 q -2,0 -2.6,-0.6 -0.6,-0.8 -0.6,-3.6 v -4.8 q 0,-2.6 0.8,-3.4 0.8,-0.8 2.6,-0.8 0.6,0 2,0.2 1.6,0 2.6,0 h 29.2 q 0.8,0 1.8,0 1.2,-0.2 1.6,-0.2 2.4,0 2.4,3 v 6 q 0,2.8 -0.6,3.6 -0.4,0.6 -2.4,0.6 h -7.2 q -2,0 -3.2,0.8 -1.2,0.6 -1.6,1.2 -0.2,0.4 -0.8,2.2 -0.6,1.8 -0.8,2.4 l -41.6,104.8 q -7,17.8 -17.79999,25.2 -10.8,7.4 -21.4,7.4 z"
       style="fill:#000000;fill-opacity:1;stroke:none;stroke-width:1.58887304;stroke-miterlimit:4;stroke-dasharray:none;stroke-opacity:1;paint-order:stroke fill markers"
       id="path918"
       inkscape:connector-curvature="0" />
    <path
       d="m 1177.6883,221.18242 q 5.2,0 9.6,4.4 4.4,4.4 4.4,10.4 0,7.2 -6.6,11.2 -5.4,3.4 -17.4,5.4 -11.8,1.8 -13.2,2.2 -2.8,0.6 -2.8,1.2 0,0.6 2.8,1.2 2.6,0.8 8.2,1.6 5.6,0.8 10,1.8 4.4,0.8 9,2.6 4.8,1.6 7.4,4.8 2.6,3.2 2.6,8 0,6 -4.4,10.4 -4.4,4.4 -9.6,4.4 -4.2,0 -9.6,-3.8 -5,-4 -10.8,-11.2 -5.8,-7.2 -8,-9.4 -2.4,-2.4 -2.6,-2.2 -0.2,0.2 0.2,2.2 0.8,3.8 4.4,12.6 3.6,8.8 4.4,15.2 0.2,1.4 0.2,3.6 0,5.8 -4,9.6 -4,3.6 -10,3.6 -6,0 -10,-3.6 -4,-3.8 -4,-9.6 0,-2.2 0.2,-3.6 1,-6.2 4.2,-14.8 3.4,-8.8 4.2,-11.8 0.6,-2 0.6,-2.8 0,-0.4 -0.2,-0.4 -0.4,0 -2.4,2 -0.8,0.8 -8.4,10 -7.4,9 -13.4,12.6 -3.4,1.8 -6.6,1.8 -5.2,0 -9.6,-4.4 -4.4,-4.4 -4.4,-10.4 0,-7.2 6.6,-11.2 4,-2.4 9.2,-3.6 5.2,-1.4 11.6,-2.2 6.4,-1 9.2,-1.6 3.4,-1 3.4,-1.4 0,-0.4 -3.6,-1.4 -2.4,-0.6 -8,-1.4 -5.6,-1 -10,-1.8 -4.2,-1 -8.8,-2.6 -4.6,-1.8 -7.2,-5 -2.4,-3.2 -2.4,-7.8 0,-6 4.4,-10.4 4.4,-4.4 9.6,-4.4 4.2,0 9.6,3.8 3.4,2.6 6,5.6 2.8,3 6,7 3.2,4 4.6,5.6 3.4,3.8 4.2,3.8 0.4,0 0.4,-0.8 0,-1 -1.2,-5 -0.8,-2.4 -2.6,-6.8 -1.8,-4.4 -3.2,-8.4 -1.2,-4 -1.8,-8.2 -0.2,-1.4 -0.2,-3.6 0,-5.8 4,-9.4 4,-3.8 10,-3.8 6,0 10,3.8 4,3.6 4,9.4 0,2.2 -0.2,3.6 -0.6,4.2 -2,8.2 -1.2,3.8 -3,8.2 -1.6,4.2 -2.4,6.6 -1.2,4 -1.2,5.2 0,0.8 0.4,0.8 1,0 4.8,-4.4 0.8,-0.8 4.8,-5.8 4,-5.2 7,-8.2 3.2,-3.2 7,-5.4 3.4,-1.8 6.6,-1.8 z"
       style="fill:#000000;fill-opacity:1;stroke:none;stroke-width:1.58887304;stroke-miterlimit:4;stroke-dasharray:none;stroke-opacity:1;paint-order:stroke fill markers"
       id="path920"
       inkscape:connector-curvature="0" />
  </g>
</svg>
