<?xml version="1.0" encoding="UTF-8" standalone="no"?>
<svg
   xmlns:osb="http://www.openswatchbook.org/uri/2009/osb"
   xmlns:dc="http://purl.org/dc/elements/1.1/"
   xmlns:cc="http://creativecommons.org/ns#"
   xmlns:rdf="http://www.w3.org/1999/02/22-rdf-syntax-ns#"
   xmlns:svg="http://www.w3.org/2000/svg"
   xmlns="http://www.w3.org/2000/svg"
   xmlns:sodipodi="http://sodipodi.sourceforge.net/DTD/sodipodi-0.dtd"
   xmlns:inkscape="http://www.inkscape.org/namespaces/inkscape"
   viewBox="0 0 1500 600"
   height="640"
   width="1600"
   version="1.1"
   id="svg2"
   sodipodi:docname="Besley-h.svg"
   inkscape:version="0.92.3 (2405546, 2018-03-11)">
  <sodipodi:namedview
     pagecolor="#ffffff"
     bordercolor="#666666"
     borderopacity="1"
     objecttolerance="10"
     gridtolerance="10"
     guidetolerance="10"
     inkscape:pageopacity="0"
     inkscape:pageshadow="2"
     inkscape:window-width="1920"
     inkscape:window-height="1052"
     id="namedview96"
     showgrid="false"
     inkscape:zoom="2.83"
     inkscape:cx="1164.5184"
     inkscape:cy="364.16542"
     inkscape:window-x="0"
     inkscape:window-y="0"
     inkscape:window-maximized="1"
     inkscape:current-layer="flowRoot892" />
  <metadata
     id="metadata8">
    <rdf:RDF>
      <cc:Work
         rdf:about="">
        <dc:format>image/svg+xml</dc:format>
        <dc:type
           rdf:resource="http://purl.org/dc/dcmitype/StillImage" />
        <dc:title />
      </cc:Work>
    </rdf:RDF>
  </metadata>
  <defs
     id="defs6">
    <linearGradient
       osb:paint="solid"
       id="linearGradient5684">
      <stop
         id="stop5686"
         offset="0"
         style="stop-color:#6f5b14;stop-opacity:1;" />
    </linearGradient>
  </defs>
  <g
     id="flowRoot719"
     style="font-style:normal;font-variant:normal;font-weight:normal;font-stretch:normal;font-size:46.50484467px;line-height:100%;font-family:'Besley*';-inkscape-font-specification:'Besley*';text-align:center;letter-spacing:0px;word-spacing:0px;writing-mode:lr-tb;text-anchor:middle;fill:#558855;fill-opacity:1;stroke:none;stroke-width:1px;stroke-linecap:butt;stroke-linejoin:miter;stroke-opacity:1"
     transform="matrix(0.85232945,0,0,0.85232945,161.43115,461.20724)"
     aria-label="a contemporary antique slab serif">
    <path
       id="path4558"
       style="font-style:italic;font-variant:normal;font-weight:bold;font-stretch:normal;font-size:65.10678101px;font-family:'Besley*';-inkscape-font-specification:'Besley* Bold Italic';text-align:center;text-anchor:middle;fill:#558855;fill-opacity:1"
       d="m 105.72997,54.343733 -5.27365,22.917587 q -0.19532,1.171922 -0.19532,1.302135 0,0.911495 0.91149,0.911495 1.82299,0 4.29705,-3.645979 0.13021,-0.195321 0.32553,-0.520855 0.26043,-0.39064 0.32554,-0.520854 0.13021,-0.130213 0.26042,-0.325534 0.19532,-0.260427 0.26043,-0.325534 0.13021,-0.06511 0.26043,-0.130213 0.13021,-0.130214 0.26043,-0.130214 0.13021,-0.06511 0.26042,-0.06511 0.32554,0 0.9115,0.195321 l 1.56256,0.455747 q 1.49746,0.455748 1.49746,1.041709 0,0.19532 -0.71618,1.627669 -2.66938,5.078329 -6.64089,7.617494 -3.90641,2.539164 -8.203454,2.539164 -5.208543,0 -6.510678,-3.255339 -0.455748,-1.302136 -0.716175,-1.302136 -0.260427,0 -1.367242,1.041709 -3.906407,3.515766 -9.245163,3.515766 -5.66429,0 -9.11495,-3.255339 -3.385552,-3.255339 -3.385552,-9.766017 0,-5.403863 1.757883,-9.896231 1.82299,-4.557474 4.687688,-7.422173 2.864698,-2.864698 6.315358,-4.427261 3.450659,-1.627669 6.901319,-1.627669 5.599183,0 7.87792,3.8413 1.106815,1.82299 1.237029,1.82299 0.325534,0 0.520854,-1.562563 l 0.195321,-1.432349 q 0.130213,-1.041709 0.39064,-1.237029 0.325534,-0.195321 1.62767,-0.195321 h 6.640892 q 1.49746,0 1.8881,0.130214 0.45574,0.06511 0.45574,0.585961 0,0.520854 -0.26042,1.497456 z M 92.057542,65.151459 q 0,-8.138348 -5.273649,-8.138348 -3.711086,0 -6.640892,4.883009 -2.929805,4.883008 -2.929805,11.71922 0,7.552387 4.362155,7.552387 3.906407,0 7.161746,-5.143436 3.320445,-5.208542 3.320445,-10.872832 z"
       inkscape:connector-curvature="0" />
    <path
       id="path4560"
       style="font-style:italic;font-variant:normal;font-weight:bold;font-stretch:normal;font-size:65.10678101px;font-family:'Besley*';-inkscape-font-specification:'Besley* Bold Italic';text-align:center;text-anchor:middle;fill:#558855;fill-opacity:1"
       d="m 170.25486,61.440372 q 0,3.515766 -2.21363,5.273649 -2.14853,1.692777 -5.14344,1.692777 -2.01831,0 -3.71109,-1.562563 -1.62766,-1.562563 -1.62766,-4.166834 0,-1.302136 0.58596,-2.278737 0.58596,-0.976602 1.30213,-1.43235 0.78128,-0.455747 1.36724,-0.911495 0.58597,-0.455747 0.58597,-0.781281 0,-0.651068 -1.10682,-1.171922 -1.04171,-0.585961 -2.60427,-0.585961 -4.68769,0 -8.5941,5.208542 -3.9064,5.208543 -3.9064,12.891143 0,7.877921 4.36215,7.877921 4.88301,0 8.78942,-5.338756 0.0651,-0.130214 0.19532,-0.325534 0.13021,-0.195321 0.19532,-0.260427 0.0651,-0.130214 0.13021,-0.260428 0.13021,-0.130213 0.19532,-0.19532 0.13021,-0.06511 0.26043,-0.130213 0.13021,-0.06511 0.26043,-0.06511 0.13021,-0.06511 0.32553,-0.130214 0.26043,-0.06511 0.45575,-0.06511 0.26042,0 0.58596,0 h 2.9298 q 1.49746,0 1.49746,0.520855 0,0.19532 -0.39064,0.911495 -6.31536,11.133259 -17.18819,11.133259 -14.64903,0 -14.64903,-13.021356 0,-7.161746 3.38556,-12.630716 3.38555,-5.468969 8.59409,-8.138347 5.20854,-2.669378 11.26347,-2.669378 6.31536,0 10.09155,2.994912 3.7762,2.994912 3.7762,7.617493 z"
       inkscape:connector-curvature="0" />
    <path
       id="path4562"
       style="font-style:italic;font-variant:normal;font-weight:bold;font-stretch:normal;font-size:65.10678101px;font-family:'Besley*';-inkscape-font-specification:'Besley* Bold Italic';text-align:center;text-anchor:middle;fill:#558855;fill-opacity:1"
       d="m 184.22738,74.917476 q 0,3.320446 0.9115,4.948115 0.9766,1.562563 3.25534,1.562563 4.36215,0 7.48728,-5.338756 3.19023,-5.403863 3.19023,-12.891143 0,-3.320446 -0.9766,-4.883008 -0.9115,-1.62767 -3.19024,-1.62767 -4.36215,0 -7.55238,5.403863 -3.12513,5.338756 -3.12513,12.826036 z m -12.04475,-0.651068 q 0,-10.221765 6.83621,-16.79755 6.83621,-6.640891 17.18819,-6.640891 7.22685,0 11.06815,3.515766 3.8413,3.515766 3.8413,9.50559 0,10.221765 -6.83621,16.862656 -6.83621,6.575785 -17.18819,6.575785 -7.22685,0 -11.06815,-3.515766 -3.8413,-3.515766 -3.8413,-9.50559 z"
       inkscape:connector-curvature="0" />
    <path
       id="path4564"
       style="font-style:italic;font-variant:normal;font-weight:bold;font-stretch:normal;font-size:65.10678101px;font-family:'Besley*';-inkscape-font-specification:'Besley* Bold Italic';text-align:center;text-anchor:middle;fill:#558855;fill-opacity:1"
       d="m 218.0768,57.664179 h -1.82299 q -1.36725,0 -1.62767,-0.195321 -0.19532,-0.260427 -0.19532,-1.627669 v -2.343844 q 0,-0.846388 0.26042,-1.106815 0.26043,-0.325534 0.84639,-0.325534 0.19532,0 0.58596,0.06511 0.45575,0 0.78128,0 h 12.37029 q 2.21363,0 2.21363,0.846389 0,0.130213 -0.39064,1.562562 l -1.04171,3.385553 q -0.58596,2.01831 -0.58596,2.539164 0,0.260427 0.13022,0.260427 0.26042,0 2.53916,-2.929805 5.33876,-6.901318 13.28178,-6.901318 3.58088,0 5.79451,1.953203 2.21363,1.953203 2.21363,5.85961 0,2.474058 -0.78128,5.078329 l -3.97152,13.737531 q -0.13021,0.781281 -0.13021,0.976602 0,0.976601 0.91149,0.976601 2.21363,0 4.81791,-4.23194 0.78128,-1.367243 1.49745,-1.367243 0.19532,0 0.71618,0.130214 l 1.9532,0.520854 q 1.30214,0.390641 1.30214,0.846388 0,0.325534 -0.39065,1.106815 -2.79959,5.208543 -6.83621,8.008135 -3.97151,2.799591 -8.59409,2.799591 -3.19023,0 -4.94812,-1.432349 -1.75788,-1.497456 -1.75788,-3.971514 0,-1.692776 0.45575,-3.385552 l 3.9064,-13.997958 q 0.84639,-2.994912 0.84639,-4.492368 0,-2.213631 -1.82299,-2.213631 -2.9298,0 -6.706,4.362155 -3.71108,4.362154 -5.92471,10.091551 -0.58596,1.432349 -1.49746,5.338756 l -1.10681,4.817902 q -0.58597,2.539164 -1.17193,3.060018 -0.71617,0.520855 -1.9532,0.520855 h -6.51068 -0.26043 q -1.10681,0 -1.43234,-0.06511 -0.32554,-0.130214 -0.32554,-0.651068 0,-0.520854 0.52086,-2.734485 l 5.27364,-22.65716 q 0.0651,-0.260427 0.13022,-0.585961 0.0651,-0.39064 0.13021,-0.585961 0.0651,-0.260427 0.0651,-0.39064 0,-0.651068 -1.75788,-0.651068 z"
       inkscape:connector-curvature="0" />
    <path
       id="path4566"
       style="font-style:italic;font-variant:normal;font-weight:bold;font-stretch:normal;font-size:65.10678101px;font-family:'Besley*';-inkscape-font-specification:'Besley* Bold Italic';text-align:center;text-anchor:middle;fill:#558855;fill-opacity:1"
       d="m 265.99235,57.664179 h -1.69278 -0.78128 q -0.71617,0 -0.9115,-0.260427 -0.19532,-0.260427 -0.19532,-1.237029 v -2.213631 -0.976601 q 0,-0.455748 0.19532,-0.651068 0.19533,-0.195321 0.9115,-0.195321 h 3.77619 q 0.45575,0 0.78128,-0.06511 0.39065,-0.06511 0.52086,-0.130214 0.19532,-0.06511 0.32553,-0.325534 0.19532,-0.260427 0.19532,-0.325534 0.0651,-0.130213 0.13022,-0.585961 0.0651,-0.455747 0.13021,-0.651068 l 0.65107,-2.734484 q 0.0651,-0.390641 0.19532,-0.585961 0.13021,-0.260428 0.32553,-0.325534 0.26043,-0.130214 0.39064,-0.130214 0.13022,-0.06511 0.58596,-0.06511 0.45575,-0.06511 0.71618,-0.06511 3.45066,-0.325534 5.7294,-1.953204 0.39064,-0.260427 0.65106,-0.520854 0.32554,-0.325534 0.39064,-0.390641 0.13022,-0.06511 0.32554,-0.06511 0.19532,-0.06511 0.58596,-0.06511 h 0.91149 q 1.10682,0 1.10682,0.39064 0,0.260427 -0.19532,0.911495 l -1.49746,6.120038 q -0.13021,0.651067 -0.13021,0.846388 0,0.716174 1.30213,0.716174 h 4.10173 0.9115 q 0.65106,0 0.84638,0.260428 0.19533,0.260427 0.19533,1.171922 v 2.21363 0.325534 q 0,1.106815 -0.26043,1.367242 -0.26043,0.195321 -1.56256,0.195321 h -5.46897 -0.39065 q -0.84638,0 -1.17192,0.19532 -0.26042,0.130214 -0.45574,0.911495 l -4.49237,18.164792 q -0.26043,1.041708 -0.26043,1.627669 0,1.237029 1.17192,1.237029 1.95321,0 4.49237,-4.557474 0.0651,-0.130214 0.19532,-0.390641 0.13021,-0.260427 0.19532,-0.325534 0.0651,-0.130214 0.13021,-0.260427 0.13022,-0.19532 0.19532,-0.19532 0.0651,-0.06511 0.19533,-0.130214 0.13021,-0.06511 0.19532,-0.06511 0.13021,-0.06511 0.32553,-0.06511 0.65107,0 1.10681,0.130214 l 1.43235,0.325534 q 1.75789,0.390641 1.75789,0.846388 0,0.130214 -0.45575,1.302136 -4.88301,10.872832 -15.43031,10.872832 -3.25534,0 -5.07833,-1.302135 -1.75788,-1.367243 -1.75788,-3.776194 0,-0.911495 0.19532,-1.82299 l 4.88301,-20.703956 q 0.0651,-0.260427 0.19532,-0.716175 0.13021,-0.520854 0.13021,-0.716174 0,-0.585961 -1.49745,-0.585961 z"
       inkscape:connector-curvature="0" />
    <path
       id="path4568"
       style="font-style:italic;font-variant:normal;font-weight:bold;font-stretch:normal;font-size:65.10678101px;font-family:'Besley*';-inkscape-font-specification:'Besley* Bold Italic';text-align:center;text-anchor:middle;fill:#558855;fill-opacity:1"
       d="m 314.11643,57.794392 q 0,-1.888096 -2.08342,-1.888096 -2.47406,0 -5.27365,2.539164 -2.79959,2.539165 -4.49237,6.836212 -0.45574,1.106815 -0.45574,1.692776 0,0.520855 0.52085,0.520855 0.39064,0 2.08342,-0.455748 4.36215,-1.106815 7.03153,-3.450659 2.66938,-2.408951 2.66938,-5.794504 z m -13.60732,17.123084 q 0,6.575785 5.01322,6.575785 2.08342,0 4.62258,-1.367243 2.60427,-1.367242 4.42726,-3.385552 0.19533,-0.195321 0.65107,-0.716175 0.45575,-0.585961 0.65107,-0.716175 0.19532,-0.19532 0.71617,-0.39064 0.58597,-0.195321 1.36725,-0.195321 h 1.9532 q 2.01831,0 2.01831,0.520855 0,0.455747 -0.45575,1.171922 -6.31535,10.872832 -19.2716,10.872832 -6.44557,0 -9.96134,-3.320446 -3.45066,-3.385552 -3.45066,-9.70091 0,-10.807726 6.96643,-17.123083 7.03153,-6.315358 17.25329,-6.315358 12.24008,0 12.24008,7.6826 0,3.320446 -2.21363,5.85961 -2.14853,2.539165 -5.85961,4.036621 -3.64598,1.432349 -7.22686,2.278737 -3.51576,0.781281 -7.48728,1.171922 -1.30213,0.06511 -1.62767,0.455748 -0.32553,0.39064 -0.32553,1.497455 z"
       inkscape:connector-curvature="0" />
    <path
       id="path4570"
       style="font-style:italic;font-variant:normal;font-weight:bold;font-stretch:normal;font-size:65.10678101px;font-family:'Besley*';-inkscape-font-specification:'Besley* Bold Italic';text-align:center;text-anchor:middle;fill:#558855;fill-opacity:1"
       d="m 374.29544,57.273538 q -3.25534,0 -6.96643,6.120038 -3.64598,6.120037 -5.01322,12.630715 -0.26043,1.237029 -0.84639,3.711087 -0.52085,2.40895 -0.78128,3.645979 -0.0651,0.260427 -0.19532,0.716175 -0.0651,0.455747 -0.13021,0.585961 0,0.130213 -0.13022,0.455747 -0.0651,0.260427 -0.19532,0.325534 -0.0651,0.06511 -0.26042,0.260427 -0.19532,0.130214 -0.45575,0.195321 -0.26043,0 -0.65107,0.06511 -0.32553,0 -0.84639,0 h -6.7711 q -0.78128,0 -1.10682,0 -0.32553,0 -0.71617,-0.06511 -0.32554,-0.130214 -0.45575,-0.260427 -0.0651,-0.195321 -0.0651,-0.520855 0,-0.325534 0.45575,-2.148523 l 4.62258,-18.490326 q 0.9766,-3.776194 0.9766,-5.208543 0,-2.01831 -1.9532,-2.01831 -2.47406,0 -6.12004,4.492368 -3.58087,4.427261 -5.7945,10.026444 -0.45575,1.106816 -1.10682,3.320446 -0.58596,2.669378 -1.75788,7.877921 -0.52085,2.083417 -0.84639,2.604271 -0.26042,0.455747 -1.23703,0.455747 -0.19532,0 -0.78128,-0.06511 -0.52085,0 -0.91149,0 h -5.98983 q -1.88809,0 -1.88809,-0.781282 0,-0.260427 0.19532,-0.911495 0.26042,-0.651068 0.32553,-1.041708 l 5.46897,-23.829082 q 0.26043,-1.171922 0.26043,-1.237029 0,-0.520854 -1.62767,-0.520854 h -2.21363 -0.32554 q -0.91149,0 -1.10681,-0.195321 -0.13021,-0.260427 -0.13021,-1.302135 v -2.474058 q 0,-1.041708 0.19532,-1.302135 0.19532,-0.260428 0.9766,-0.260428 h 0.78128 12.24007 1.30214 q 1.56256,0 1.56256,0.781282 0,0.130213 -0.13021,0.651068 l -1.10682,3.515766 q -0.65106,2.01831 -0.65106,2.669378 0,0.260427 0.13021,0.260427 0.19532,0 2.27874,-2.669378 4.68768,-6.120038 11.45879,-6.120038 6.706,0 7.6826,5.794504 0.0651,0.390641 0.13021,0.781281 0.0651,0.390641 0.0651,0.716175 0.0651,0.260427 0.0651,0.520854 0.0651,0.260427 0.0651,0.455748 0,0.130213 0,0.260427 0.0651,0.130213 0.13022,0.19532 0.0651,0.06511 0.13021,0.06511 0.19532,0 1.49746,-1.757883 5.01322,-7.031533 11.06815,-7.031533 4.55747,0 7.22685,2.018311 2.66938,1.953203 2.66938,5.989824 0,2.148523 -0.71617,4.557474 l -3.97152,13.737531 q -0.13021,0.781281 -0.13021,0.976602 0,0.976601 0.91149,0.976601 1.95321,0 4.36216,-3.580873 0.0651,-0.130213 0.45575,-0.846388 0.39064,-0.781281 0.65106,-1.041708 0.32554,-0.260427 0.84639,-0.260427 0.0651,0 0.58596,0.130213 l 1.82299,0.585961 q 1.56256,0.455748 1.56256,0.976602 0,0.390641 -0.71617,1.62767 -2.79959,4.948115 -6.706,7.617493 -3.90641,2.604271 -8.39877,2.604271 -3.19024,0 -4.94812,-1.432349 -1.75788,-1.497456 -1.75788,-3.971514 0,-1.692776 0.45575,-3.385552 l 3.9064,-13.997958 q 1.04171,-3.385553 1.04171,-5.143436 0,-2.083417 -1.9532,-2.083417 z"
       inkscape:connector-curvature="0" />
    <path
       id="path4572"
       style="font-style:italic;font-variant:normal;font-weight:bold;font-stretch:normal;font-size:65.10678101px;font-family:'Besley*';-inkscape-font-specification:'Besley* Bold Italic';text-align:center;text-anchor:middle;fill:#558855;fill-opacity:1"
       d="m 404.45614,84.553279 -3.45066,15.104774 q -0.0651,0.260427 -0.13021,0.651067 -0.0651,0.45575 -0.13021,0.65107 0,0.19532 -0.13022,0.45575 -0.0651,0.26042 -0.19532,0.39064 -0.13021,0.13021 -0.39064,0.26042 -0.19532,0.13022 -0.58596,0.13022 -0.32553,0.0651 -0.78128,0.0651 h -6.7711 -0.97661 q -1.36724,0 -1.36724,-0.65106 0,-0.39064 0.19532,-1.17193 l 9.31027,-40.626627 q 0.0651,-0.325534 0.19532,-0.781282 0.13021,-0.520854 0.13021,-0.716174 0,-0.651068 -1.88809,-0.651068 h -1.69278 q -1.36724,0 -1.62767,-0.260427 -0.19532,-0.260427 -0.19532,-1.62767 v -2.343844 q 0,-0.846388 0.19532,-1.041708 0.19532,-0.260428 0.78128,-0.260428 h 1.10682 13.15157 q 1.82299,0 1.82299,0.651068 0,0.130214 -0.13021,0.455748 -0.0651,0.260427 -0.0651,0.455747 -0.45575,1.82299 -0.45575,1.953204 0,0.130213 0.0651,0.130213 0.19532,0 1.23703,-0.976602 4.10172,-3.906406 9.6358,-3.906406 5.66429,0 9.04984,3.255339 3.45066,3.255339 3.45066,9.766017 0,5.403863 -1.82299,9.961337 -1.75788,4.492368 -4.62258,7.357067 -2.8647,2.864698 -6.31536,4.492367 -3.45066,1.562563 -6.90132,1.562563 -5.66429,0 -7.6826,-3.580873 -0.84638,-1.562563 -1.0417,-1.562563 -0.45575,0 -0.97661,2.408951 z m 2.7996,-11.5239 q 0,8.138348 5.27364,8.138348 3.71109,0 6.6409,-4.883009 2.9298,-4.883008 2.9298,-11.71922 0,-7.552387 -4.36215,-7.552387 -3.90641,0 -7.22686,5.208542 -3.25533,5.143436 -3.25533,10.807726 z"
       inkscape:connector-curvature="0" />
    <path
       id="path4574"
       style="font-style:italic;font-variant:normal;font-weight:bold;font-stretch:normal;font-size:65.10678101px;font-family:'Besley*';-inkscape-font-specification:'Besley* Bold Italic';text-align:center;text-anchor:middle;fill:#558855;fill-opacity:1"
       d="m 447.83353,74.917476 q 0,3.320446 0.91149,4.948115 0.97661,1.562563 3.25534,1.562563 4.36216,0 7.48728,-5.338756 3.19024,-5.403863 3.19024,-12.891143 0,-3.320446 -0.97661,-4.883008 -0.91149,-1.62767 -3.19023,-1.62767 -4.36215,0 -7.55238,5.403863 -3.12513,5.338756 -3.12513,12.826036 z m -12.04475,-0.651068 q 0,-10.221765 6.83621,-16.79755 6.83621,-6.640891 17.18819,-6.640891 7.22685,0 11.06815,3.515766 3.8413,3.515766 3.8413,9.50559 0,10.221765 -6.83621,16.862656 -6.83621,6.575785 -17.18819,6.575785 -7.22685,0 -11.06815,-3.515766 -3.8413,-3.515766 -3.8413,-9.50559 z"
       inkscape:connector-curvature="0" />
    <path
       id="path4576"
       style="font-style:italic;font-variant:normal;font-weight:bold;font-stretch:normal;font-size:65.10678101px;font-family:'Besley*';-inkscape-font-specification:'Besley* Bold Italic';text-align:center;text-anchor:middle;fill:#558855;fill-opacity:1"
       d="m 515.01764,57.924606 q 0,3.711086 -1.95321,5.989824 -1.88809,2.21363 -5.66429,2.21363 -2.66937,0 -4.29704,-1.497456 -1.62767,-1.497456 -1.62767,-3.971513 0,-1.237029 0.0651,-1.953204 0.0651,-0.716174 0.13022,-0.976601 0.13021,-0.260428 0.13021,-0.390641 0,-0.520854 -0.65107,-0.520854 -2.01831,0 -5.33875,5.143435 -3.25534,5.078329 -4.7528,11.458794 l -2.40895,10.351978 q -0.26043,1.237029 -0.39064,1.562563 -0.13021,0.260427 -0.65107,0.455747 -0.52085,0.195321 -1.75788,0.195321 h -6.90132 q -1.75788,0 -1.75788,-0.911495 0,-0.06511 0.65107,-2.474058 l 5.27365,-22.787373 q 0.0651,-0.260428 0.13021,-0.585961 0.0651,-0.390641 0.13021,-0.585962 0.0651,-0.260427 0.0651,-0.39064 0,-0.585961 -1.75788,-0.585961 h -2.01831 q -1.23703,0 -1.43235,-0.195321 -0.19532,-0.260427 -0.19532,-1.497456 v -2.474057 q 0,-0.911495 0.19532,-1.171922 0.26042,-0.260427 0.91149,-0.260427 0.19532,0 0.65107,0.06511 0.45575,0 0.78128,0 h 11.84944 q 2.01831,0 2.01831,0.716175 0,0.130214 -0.39065,1.692776 l -0.45574,1.432349 q -0.71618,2.278738 -0.71618,2.864699 0,0.260427 0.13022,0.260427 0.39064,0 1.62767,-2.01831 1.82299,-2.929805 4.883,-4.687688 3.12513,-1.757884 6.96643,-1.757884 4.10173,0 6.31536,2.148524 2.21363,2.083417 2.21363,5.143436 z"
       inkscape:connector-curvature="0" />
    <path
       id="path4578"
       style="font-style:italic;font-variant:normal;font-weight:bold;font-stretch:normal;font-size:65.10678101px;font-family:'Besley*';-inkscape-font-specification:'Besley* Bold Italic';text-align:center;text-anchor:middle;fill:#558855;fill-opacity:1"
       d="m 553.9749,54.343733 -5.27365,22.917587 q -0.19532,1.171922 -0.19532,1.302135 0,0.911495 0.9115,0.911495 1.82299,0 4.29704,-3.645979 0.13022,-0.195321 0.32554,-0.520855 0.26042,-0.39064 0.32553,-0.520854 0.13021,-0.130213 0.26043,-0.325534 0.19532,-0.260427 0.26043,-0.325534 0.13021,-0.06511 0.26042,-0.130213 0.13022,-0.130214 0.26043,-0.130214 0.13021,-0.06511 0.26043,-0.06511 0.32553,0 0.91149,0.195321 l 1.56256,0.455747 q 1.49746,0.455748 1.49746,1.041709 0,0.19532 -0.71617,1.627669 -2.66938,5.078329 -6.6409,7.617494 -3.9064,2.539164 -8.20345,2.539164 -5.20854,0 -6.51068,-3.255339 -0.45575,-1.302136 -0.71617,-1.302136 -0.26043,0 -1.36725,1.041709 -3.9064,3.515766 -9.24516,3.515766 -5.66429,0 -9.11495,-3.255339 -3.38555,-3.255339 -3.38555,-9.766017 0,-5.403863 1.75788,-9.896231 1.82299,-4.557474 4.68769,-7.422173 2.8647,-2.864698 6.31536,-4.427261 3.45066,-1.627669 6.90132,-1.627669 5.59918,0 7.87792,3.8413 1.10681,1.82299 1.23703,1.82299 0.32553,0 0.52085,-1.562563 l 0.19532,-1.432349 q 0.13022,-1.041709 0.39064,-1.237029 0.32554,-0.195321 1.62767,-0.195321 h 6.64089 q 1.49746,0 1.8881,0.130214 0.45575,0.06511 0.45575,0.585961 0,0.520854 -0.26043,1.497456 z m -13.67242,10.807726 q 0,-8.138348 -5.27365,-8.138348 -3.71109,0 -6.64089,4.883009 -2.92981,4.883008 -2.92981,11.71922 0,7.552387 4.36215,7.552387 3.90641,0 7.16175,-5.143436 3.32045,-5.208542 3.32045,-10.872832 z"
       inkscape:connector-curvature="0" />
    <path
       id="path4580"
       style="font-style:italic;font-variant:normal;font-weight:bold;font-stretch:normal;font-size:65.10678101px;font-family:'Besley*';-inkscape-font-specification:'Besley* Bold Italic';text-align:center;text-anchor:middle;fill:#558855;fill-opacity:1"
       d="m 597.54556,57.924606 q 0,3.711086 -1.9532,5.989824 -1.8881,2.21363 -5.66429,2.21363 -2.66938,0 -4.29705,-1.497456 -1.62767,-1.497456 -1.62767,-3.971513 0,-1.237029 0.0651,-1.953204 0.0651,-0.716174 0.13021,-0.976601 0.13022,-0.260428 0.13022,-0.390641 0,-0.520854 -0.65107,-0.520854 -2.01831,0 -5.33876,5.143435 -3.25534,5.078329 -4.75279,11.458794 l -2.40895,10.351978 q -0.26043,1.237029 -0.39065,1.562563 -0.13021,0.260427 -0.65106,0.455747 -0.52086,0.195321 -1.75789,0.195321 h -6.90131 q -1.75789,0 -1.75789,-0.911495 0,-0.06511 0.65107,-2.474058 l 5.27365,-22.787373 q 0.0651,-0.260428 0.13021,-0.585961 0.0651,-0.390641 0.13022,-0.585962 0.0651,-0.260427 0.0651,-0.39064 0,-0.585961 -1.75788,-0.585961 h -2.01831 q -1.23703,0 -1.43235,-0.195321 -0.19532,-0.260427 -0.19532,-1.497456 v -2.474057 q 0,-0.911495 0.19532,-1.171922 0.26043,-0.260427 0.9115,-0.260427 0.19532,0 0.65106,0.06511 0.45575,0 0.78128,0 h 11.84944 q 2.01831,0 2.01831,0.716175 0,0.130214 -0.39064,1.692776 l -0.45575,1.432349 q -0.71617,2.278738 -0.71617,2.864699 0,0.260427 0.13021,0.260427 0.39064,0 1.62767,-2.01831 1.82299,-2.929805 4.88301,-4.687688 3.12512,-1.757884 6.96642,-1.757884 4.10173,0 6.31536,2.148524 2.21363,2.083417 2.21363,5.143436 z"
       inkscape:connector-curvature="0" />
    <path
       id="path4582"
       style="font-style:italic;font-variant:normal;font-weight:bold;font-stretch:normal;font-size:65.10678101px;font-family:'Besley*';-inkscape-font-specification:'Besley* Bold Italic';text-align:center;text-anchor:middle;fill:#558855;fill-opacity:1"
       d="m 636.19663,61.700799 q -2.27873,0 -3.71108,-1.302135 -1.36725,-1.367243 -1.36725,-3.64598 0,-2.734485 2.21364,-4.297048 2.27873,-1.627669 5.14343,-1.627669 2.92981,0 5.14344,2.474057 2.27873,2.474058 2.27873,6.315358 0,4.231941 -2.40895,10.026444 -2.40895,5.729397 -6.57578,11.523901 -4.16684,5.794503 -9.24516,10.807725 -5.07833,5.013223 -11.06816,8.138348 -5.92471,3.12513 -11.26347,3.12513 -6.706,0 -10.15666,-3.450664 -3.51576,-3.450659 -3.51576,-8.203454 0,-3.060019 2.08341,-5.534077 2.01831,-2.474057 5.59919,-2.474057 2.66937,0 4.10172,1.497456 1.43235,1.432349 1.43235,3.971513 0,2.01831 -1.10681,3.190232 -1.04171,1.237029 -2.14853,1.82299 -1.10681,0.585961 -1.10681,1.041709 0,1.171922 1.30213,1.953203 1.36725,0.846388 3.45066,0.846388 4.42726,0 10.09155,-3.450659 1.69278,-1.041708 1.69278,-1.692776 0,-0.130214 -0.9766,-2.539165 -1.75788,-4.297047 -2.92981,-10.872832 -1.10681,-6.575785 -1.75788,-12.109861 -0.58596,-5.534077 -1.17192,-7.09664 -0.52086,-1.497456 -1.62767,-1.497456 -1.62767,0 -4.36216,3.971514 -0.13021,0.19532 -0.32553,0.520854 -0.19532,0.325534 -0.32553,0.520855 -0.0651,0.130213 -0.26043,0.325534 -0.13021,0.19532 -0.32553,0.260427 -0.19532,0.06511 -0.45575,0.06511 -0.32554,0 -0.84639,-0.19532 L 600.12748,63.5889 q -1.62767,-0.520854 -1.62767,-1.041709 0,-0.06511 0.71617,-1.497456 5.59919,-10.351978 13.67243,-10.351978 7.22685,0 8.98473,6.120038 0.45575,1.562562 1.43235,10.351978 1.04171,8.789415 2.73449,13.932851 0.84638,2.539164 1.43235,2.539164 0.39064,0 2.21363,-2.148523 4.55747,-5.534077 7.35706,-11.068153 2.79959,-5.599183 2.79959,-9.440483 0,-0.585961 -0.26042,-0.585961 -0.13022,0 -0.97661,0.651067 -0.78128,0.651068 -2.40895,0.651068 z"
       inkscape:connector-curvature="0" />
    <path
       id="path4584"
       style="font-style:italic;font-variant:normal;font-weight:bold;font-stretch:normal;font-size:65.10678101px;font-family:'Besley*';-inkscape-font-specification:'Besley* Bold Italic';text-align:center;text-anchor:middle;fill:#558855;fill-opacity:1"
       d="m 707.71336,54.343733 -5.27364,22.917587 q -0.19532,1.171922 -0.19532,1.302135 0,0.911495 0.91149,0.911495 1.82299,0 4.29705,-3.645979 0.13021,-0.195321 0.32553,-0.520855 0.26043,-0.39064 0.32554,-0.520854 0.13021,-0.130213 0.26042,-0.325534 0.19532,-0.260427 0.26043,-0.325534 0.13021,-0.06511 0.26043,-0.130213 0.13021,-0.130214 0.26042,-0.130214 0.13022,-0.06511 0.26043,-0.06511 0.32554,0 0.9115,0.195321 l 1.56256,0.455747 q 1.49745,0.455748 1.49745,1.041709 0,0.19532 -0.71617,1.627669 -2.66938,5.078329 -6.64089,7.617494 -3.90641,2.539164 -8.20346,2.539164 -5.20854,0 -6.51067,-3.255339 -0.45575,-1.302136 -0.71618,-1.302136 -0.26043,0 -1.36724,1.041709 -3.90641,3.515766 -9.24516,3.515766 -5.66429,0 -9.11495,-3.255339 -3.38556,-3.255339 -3.38556,-9.766017 0,-5.403863 1.75789,-9.896231 1.82299,-4.557474 4.68769,-7.422173 2.86469,-2.864698 6.31535,-4.427261 3.45066,-1.627669 6.90132,-1.627669 5.59919,0 7.87792,3.8413 1.10682,1.82299 1.23703,1.82299 0.32554,0 0.52086,-1.562563 l 0.19532,-1.432349 q 0.13021,-1.041709 0.39064,-1.237029 0.32553,-0.195321 1.62767,-0.195321 h 6.64089 q 1.49745,0 1.88809,0.130214 0.45575,0.06511 0.45575,0.585961 0,0.520854 -0.26043,1.497456 z m -13.67242,10.807726 q 0,-8.138348 -5.27365,-8.138348 -3.71108,0 -6.64089,4.883009 -2.92981,4.883008 -2.92981,11.71922 0,7.552387 4.36216,7.552387 3.90641,0 7.16175,-5.143436 3.32044,-5.208542 3.32044,-10.872832 z"
       inkscape:connector-curvature="0" />
    <path
       id="path4586"
       style="font-style:italic;font-variant:normal;font-weight:bold;font-stretch:normal;font-size:65.10678101px;font-family:'Besley*';-inkscape-font-specification:'Besley* Bold Italic';text-align:center;text-anchor:middle;fill:#558855;fill-opacity:1"
       d="m 717.94935,57.664179 h -1.82299 q -1.36724,0 -1.62767,-0.195321 -0.19532,-0.260427 -0.19532,-1.627669 v -2.343844 q 0,-0.846388 0.26043,-1.106815 0.26043,-0.325534 0.84639,-0.325534 0.19532,0 0.58596,0.06511 0.45575,0 0.78128,0 h 12.37029 q 2.21363,0 2.21363,0.846389 0,0.130213 -0.39064,1.562562 L 729.929,57.92461 q -0.58596,2.01831 -0.58596,2.539164 0,0.260427 0.13021,0.260427 0.26043,0 2.53917,-2.929805 5.33876,-6.901318 13.28178,-6.901318 3.58088,0 5.79451,1.953203 2.21363,1.953203 2.21363,5.85961 0,2.474058 -0.78129,5.078329 l -3.97151,13.737531 q -0.13021,0.781281 -0.13021,0.976602 0,0.976601 0.91149,0.976601 2.21363,0 4.8179,-4.23194 0.78129,-1.367243 1.49746,-1.367243 0.19532,0 0.71618,0.130214 l 1.9532,0.520854 q 1.30213,0.390641 1.30213,0.846388 0,0.325534 -0.39064,1.106815 -2.79959,5.208543 -6.83621,8.008135 -3.97151,2.799591 -8.59409,2.799591 -3.19024,0 -4.94812,-1.432349 -1.75788,-1.497456 -1.75788,-3.971514 0,-1.692776 0.45575,-3.385552 l 3.9064,-13.997958 q 0.84639,-2.994912 0.84639,-4.492368 0,-2.213631 -1.82299,-2.213631 -2.9298,0 -6.706,4.362155 -3.71108,4.362154 -5.92472,10.091551 -0.58596,1.432349 -1.49745,5.338756 l -1.10682,4.817902 q -0.58596,2.539164 -1.17192,3.060018 -0.71617,0.520855 -1.9532,0.520855 h -6.51068 -0.26043 q -1.10681,0 -1.43235,-0.06511 -0.32553,-0.130214 -0.32553,-0.651068 0,-0.520854 0.52085,-2.734485 l 5.27365,-22.65716 q 0.0651,-0.260427 0.13022,-0.585961 0.0651,-0.39064 0.13021,-0.585961 0.0651,-0.260427 0.0651,-0.39064 0,-0.651068 -1.75789,-0.651068 z"
       inkscape:connector-curvature="0" />
    <path
       id="path4588"
       style="font-style:italic;font-variant:normal;font-weight:bold;font-stretch:normal;font-size:65.10678101px;font-family:'Besley*';-inkscape-font-specification:'Besley* Bold Italic';text-align:center;text-anchor:middle;fill:#558855;fill-opacity:1"
       d="m 765.86492,57.664179 h -1.69278 -0.78128 q -0.71617,0 -0.91149,-0.260427 -0.19532,-0.260427 -0.19532,-1.237029 v -2.213631 -0.976601 q 0,-0.455748 0.19532,-0.651068 0.19532,-0.195321 0.91149,-0.195321 h 3.7762 q 0.45574,0 0.78128,-0.06511 0.39064,-0.06511 0.52085,-0.130214 0.19532,-0.06511 0.32554,-0.325534 0.19532,-0.260427 0.19532,-0.325534 0.0651,-0.130213 0.13021,-0.585961 0.0651,-0.455747 0.13021,-0.651068 l 0.65107,-2.734484 q 0.0651,-0.390641 0.19532,-0.585961 0.13022,-0.260428 0.32554,-0.325534 0.26042,-0.130214 0.39064,-0.130214 0.13021,-0.06511 0.58596,-0.06511 0.45575,-0.06511 0.71617,-0.06511 3.45066,-0.325534 5.7294,-1.953204 0.39064,-0.260427 0.65107,-0.520854 0.32553,-0.325534 0.39064,-0.390641 0.13021,-0.06511 0.32553,-0.06511 0.19532,-0.06511 0.58596,-0.06511 h 0.9115 q 1.10681,0 1.10681,0.39064 0,0.260427 -0.19532,0.911495 l -1.49745,6.120038 q -0.13022,0.651067 -0.13022,0.846388 0,0.716174 1.30214,0.716174 h 4.10173 0.91149 q 0.65107,0 0.84639,0.260428 0.19532,0.260427 0.19532,1.171922 v 2.21363 0.325534 q 0,1.106815 -0.26043,1.367242 -0.26043,0.195321 -1.56256,0.195321 h -5.46897 -0.39064 q -0.84639,0 -1.17192,0.19532 -0.26043,0.130214 -0.45575,0.911495 l -4.49237,18.164792 q -0.26043,1.041708 -0.26043,1.627669 0,1.237029 1.17193,1.237029 1.9532,0 4.49236,-4.557474 0.0651,-0.130214 0.19532,-0.390641 0.13022,-0.260427 0.19532,-0.325534 0.0651,-0.130214 0.13022,-0.260427 0.13021,-0.19532 0.19532,-0.19532 0.0651,-0.06511 0.19532,-0.130214 0.13021,-0.06511 0.19532,-0.06511 0.13021,-0.06511 0.32553,-0.06511 0.65107,0 1.10682,0.130214 l 1.43235,0.325534 q 1.75788,0.390641 1.75788,0.846388 0,0.130214 -0.45575,1.302136 -4.88301,10.872832 -15.4303,10.872832 -3.25534,0 -5.07833,-1.302135 -1.75789,-1.367243 -1.75789,-3.776194 0,-0.911495 0.19532,-1.82299 l 4.88301,-20.703956 q 0.0651,-0.260427 0.19532,-0.716175 0.13022,-0.520854 0.13022,-0.716174 0,-0.585961 -1.49746,-0.585961 z"
       inkscape:connector-curvature="0" />
    <path
       id="path4590"
       style="font-style:italic;font-variant:normal;font-weight:bold;font-stretch:normal;font-size:65.10678101px;font-family:'Besley*';-inkscape-font-specification:'Besley* Bold Italic';text-align:center;text-anchor:middle;fill:#558855;fill-opacity:1"
       d="m 800.69198,44.90325 q -1.88809,-1.757883 -1.88809,-4.492368 0,-2.734485 1.88809,-4.427261 1.8881,-1.757883 4.62259,-1.757883 2.73448,0 4.62258,1.757883 1.88809,1.692776 1.88809,4.427261 0,2.734485 -1.88809,4.492368 -1.8881,1.692776 -4.62258,1.692776 -2.73449,0 -4.62259,-1.692776 z m 7.6175,10.417085 -5.07833,21.940985 q -0.19532,1.171922 -0.19532,1.302135 0,0.911495 0.91149,0.911495 1.8881,0 4.49237,-3.971513 0.0651,-0.130214 0.19532,-0.325534 0.19532,-0.260427 0.26043,-0.390641 0.0651,-0.130213 0.13021,-0.260427 0.13022,-0.19532 0.19532,-0.260427 0.13022,-0.06511 0.19532,-0.19532 0.13022,-0.130214 0.19532,-0.130214 0.13022,-0.06511 0.26043,-0.06511 0.19532,-0.06511 0.32553,-0.06511 0.32554,0 0.9115,0.195321 l 1.69277,0.520854 q 1.10682,0.390641 1.10682,1.171922 0,0.651068 -0.71617,1.888097 -2.66938,4.817902 -6.57579,7.291959 -3.8413,2.408951 -8.00813,2.408951 -6.90132,0 -6.90132,-5.534076 0,-1.62767 0.52085,-3.580873 l 4.16684,-18.555433 q 0.26042,-1.171922 0.26042,-1.302135 0,-0.651068 -1.82299,-0.651068 h -0.39064 -2.34384 q -1.43235,0 -1.82299,-0.325534 -0.32554,-0.325534 -0.32554,-1.367243 v -1.041708 -1.562563 q 0,-1.302135 1.23703,-1.302135 0.19532,0 0.78129,0.06511 0.58596,0 0.91149,0 h 13.54221 q 2.40895,0 2.40895,0.911495 0,0.195321 -0.52085,2.278738 z"
       inkscape:connector-curvature="0" />
    <path
       id="path4592"
       style="font-style:italic;font-variant:normal;font-weight:bold;font-stretch:normal;font-size:65.10678101px;font-family:'Besley*';-inkscape-font-specification:'Besley* Bold Italic';text-align:center;text-anchor:middle;fill:#558855;fill-opacity:1"
       d="m 848.09069,52.130102 h 7.22685 q 1.69278,0 1.69278,0.585961 0,0.195321 -0.13022,0.651068 -0.13021,0.455748 -0.19532,0.716175 l -9.44048,40.626631 q -0.0651,0.260427 -0.19532,0.716175 -0.13021,0.520854 -0.13021,0.716174 0,0.585961 1.43234,0.585961 h 2.01831 q 0.26043,0 0.58597,-0.06511 0.39064,0 0.52085,0 0.84639,0 0.84639,1.171922 v 2.994911 q 0,1.04171 -0.19532,1.23703 -0.19532,0.19532 -1.23703,0.19532 h -13.73753 -0.78128 q -1.04171,0 -1.43235,-0.13021 -0.32554,-0.13021 -0.32554,-0.58596 0,-0.13021 0.26043,-1.30214 l 3.45066,-14.844347 q 0.19532,-0.846388 0.19532,-1.302135 0,-0.455748 -0.26043,-0.455748 -0.26042,0 -1.36724,0.911495 -3.32044,2.734485 -8.00813,2.734485 -5.66429,0 -9.11495,-3.255339 -3.38555,-3.255339 -3.38555,-9.766017 0,-5.403863 1.75788,-9.896231 1.82299,-4.557474 4.68769,-7.422173 2.86469,-2.864698 6.31535,-4.427261 3.45066,-1.627669 6.90132,-1.627669 6.44557,0 8.52899,5.273649 0.45575,1.367242 0.78128,1.367242 0.32554,0 0.58596,-1.562563 l 0.39064,-2.083417 q 0.26043,-1.171922 0.45575,-1.432349 0.26043,-0.325534 0.84639,-0.325534 z m -5.14344,13.021357 q 0,-8.138348 -5.27365,-8.138348 -3.71108,0 -6.64089,4.883009 -2.9298,4.883008 -2.9298,11.71922 0,7.552387 4.36215,7.552387 3.90641,0 7.16175,-5.143436 3.32044,-5.208542 3.32044,-10.872832 z"
       inkscape:connector-curvature="0" />
    <path
       id="path4594"
       style="font-style:italic;font-variant:normal;font-weight:bold;font-stretch:normal;font-size:65.10678101px;font-family:'Besley*';-inkscape-font-specification:'Besley* Bold Italic';text-align:center;text-anchor:middle;fill:#558855;fill-opacity:1"
       d="m 903.23309,53.822879 -5.40386,23.438441 q -0.19533,1.171922 -0.19533,1.302135 0,0.911495 0.9115,0.911495 2.01831,0 4.62258,-4.101727 0.13021,-0.19532 0.39064,-0.585961 0.26043,-0.455747 0.32554,-0.585961 0.13021,-0.130213 0.32553,-0.260427 0.26043,-0.130214 0.52085,-0.130214 0.39064,0 1.04171,0.195321 l 1.69278,0.520854 q 1.30213,0.325534 1.30213,0.976602 0,0.325534 -0.78128,1.692776 -2.66937,5.013222 -6.64089,7.552387 -3.90641,2.539164 -8.13835,2.539164 -3.25534,0 -4.75279,-1.302135 -1.49746,-1.302136 -1.49746,-4.231941 0,-1.82299 0.58596,-3.580873 0.19532,-0.651068 0.19532,-0.911495 0,-0.130214 -0.0651,-0.130214 -0.26043,0 -1.04171,1.171922 -5.59918,8.919629 -14.77924,8.919629 -3.58087,0 -5.7945,-1.953203 -2.21363,-1.953204 -2.21363,-5.85961 0,-2.474058 0.78128,-5.078329 l 3.97151,-13.737531 q 0.13021,-0.781281 0.13021,-0.976602 0,-0.976602 -0.91149,-0.976602 -2.14852,0 -4.7528,4.166834 -0.13021,0.260428 -0.39064,0.651068 -0.19532,0.390641 -0.32553,0.520855 -0.0651,0.06511 -0.32553,0.19532 -0.19532,0.130213 -0.45575,0.130213 -0.45575,0 -1.10682,-0.19532 l -1.82299,-0.585961 q -1.17192,-0.390641 -1.17192,-0.846388 0,-0.06511 0.78128,-1.62767 2.79959,-4.948115 6.706,-7.552386 3.90641,-2.669378 8.39878,-2.669378 3.19023,0 4.94811,1.497456 1.75788,1.432349 1.75788,3.906407 0,1.692776 -0.45574,3.385552 l -3.90641,13.997958 q -0.84639,2.994912 -0.84639,4.492368 0,2.213631 1.82299,2.213631 3.38555,0 7.74771,-5.46897 4.42726,-5.534076 5.7945,-11.849434 l 2.01831,-8.789416 q 0.32554,-1.627669 0.71618,-1.822989 0.52085,-0.260428 1.75788,-0.260428 h 6.90132 q 1.17192,0 1.49745,0.06511 0.32554,0.06511 0.32554,0.455748 0,0.39064 -0.19532,1.171922 z"
       inkscape:connector-curvature="0" />
    <path
       id="path4596"
       style="font-style:italic;font-variant:normal;font-weight:bold;font-stretch:normal;font-size:65.10678101px;font-family:'Besley*';-inkscape-font-specification:'Besley* Bold Italic';text-align:center;text-anchor:middle;fill:#558855;fill-opacity:1"
       d="m 936.31856,57.794392 q 0,-1.888096 -2.08342,-1.888096 -2.47405,0 -5.27365,2.539164 -2.79959,2.539165 -4.49236,6.836212 -0.45575,1.106815 -0.45575,1.692776 0,0.520855 0.52085,0.520855 0.39064,0 2.08342,-0.455748 4.36215,-1.106815 7.03153,-3.450659 2.66938,-2.408951 2.66938,-5.794504 z m -13.60732,17.123084 q 0,6.575785 5.01323,6.575785 2.08341,0 4.62258,-1.367243 2.60427,-1.367242 4.42726,-3.385552 0.19532,-0.195321 0.65107,-0.716175 0.45574,-0.585961 0.65106,-0.716175 0.19532,-0.19532 0.71618,-0.39064 0.58596,-0.195321 1.36724,-0.195321 h 1.9532 q 2.01831,0 2.01831,0.520855 0,0.455747 -0.45574,1.171922 -6.31536,10.872832 -19.27161,10.872832 -6.44557,0 -9.96134,-3.320446 -3.45066,-3.385552 -3.45066,-9.70091 0,-10.807726 6.96643,-17.123083 7.03153,-6.315358 17.2533,-6.315358 12.24007,0 12.24007,7.6826 0,3.320446 -2.21363,5.85961 -2.14852,2.539165 -5.85961,4.036621 -3.64598,1.432349 -7.22685,2.278737 -3.51577,0.781281 -7.48728,1.171922 -1.30214,0.06511 -1.62767,0.455748 -0.32554,0.39064 -0.32554,1.497455 z"
       inkscape:connector-curvature="0" />
    <path
       id="path4598"
       style="font-style:italic;font-variant:normal;font-weight:bold;font-stretch:normal;font-size:65.10678101px;font-family:'Besley*';-inkscape-font-specification:'Besley* Bold Italic';text-align:center;text-anchor:middle;fill:#558855;fill-opacity:1"
       d="m 989.22595,77.521747 q 0,-1.367242 -1.62767,-2.669378 -1.56256,-1.302136 -3.8413,-2.539164 -2.27874,-1.237029 -4.55747,-2.604272 -2.27874,-1.432349 -3.90641,-3.645979 -1.56256,-2.213631 -1.56256,-4.817902 0,-4.752795 4.75279,-7.617494 4.8179,-2.929805 12.37029,-2.929805 6.18514,0 9.57068,2.669378 3.4507,2.669378 3.4507,5.859611 0,2.929805 -1.7579,4.687688 -1.6928,1.757883 -4.6877,1.757883 -2.27873,0 -3.8413,-1.432349 -1.56256,-1.43235 -1.56256,-3.64598 0,-1.106815 0.32553,-1.82299 0.39065,-0.781281 0.78129,-1.041708 0.39064,-0.325534 0.71617,-0.585961 0.39064,-0.260428 0.39064,-0.455748 0,-0.260427 -0.58596,-0.585961 -0.58596,-0.325534 -1.69278,-0.585961 -1.10681,-0.260427 -2.40895,-0.260427 -2.14852,0 -3.58087,0.976602 -1.43235,0.976601 -1.43235,2.669378 0,1.757883 1.69278,3.320445 1.75788,1.562563 4.16683,2.864699 2.40895,1.237029 4.8179,2.734485 2.47406,1.497456 4.16684,3.8413 1.75789,2.343844 1.75789,5.273649 0,4.948115 -5.14345,7.747707 -5.14343,2.734485 -13.54221,2.734485 -6.51067,0 -10.67751,-2.669378 -4.10173,-2.734485 -4.10173,-6.315358 0,-3.450659 1.95321,-5.46897 2.01831,-2.01831 4.8179,-2.01831 5.66429,0 5.66429,4.492368 0,1.497456 -0.78128,2.474058 -0.71618,0.911495 -1.49746,1.432349 -0.71617,0.455747 -0.71617,0.781281 0,2.083417 4.8179,2.083417 3.32045,0 5.27365,-1.302135 2.01831,-1.367243 2.01831,-3.385553 z"
       inkscape:connector-curvature="0" />
    <path
       id="path4600"
       style="font-style:italic;font-variant:normal;font-weight:bold;font-stretch:normal;font-size:65.10678101px;font-family:'Besley*';-inkscape-font-specification:'Besley* Bold Italic';text-align:center;text-anchor:middle;fill:#558855;fill-opacity:1"
       d="m 1025.6624,37.090436 -8.9197,40.170884 q -0.1953,1.171922 -0.1953,1.302135 0,0.911495 0.9115,0.911495 1.9532,0 4.5575,-4.03662 0.1302,-0.19532 0.3255,-0.585961 0.2604,-0.455748 0.3255,-0.585961 0.1303,-0.130214 0.3256,-0.260427 0.2604,-0.195321 0.5859,-0.195321 0.4558,0 0.7813,0.130214 l 1.6928,0.520854 q 1.6277,0.520855 1.6277,0.976602 0,0.325534 -0.6511,1.497456 -2.6694,5.143436 -6.6409,7.747707 -3.9715,2.604271 -8.2686,2.604271 -6.9013,0 -6.9013,-5.534076 0,-1.62767 0.5209,-3.580873 l 7.6175,-34.767021 q 0.2604,-1.302136 0.2604,-1.432349 0,-0.585961 -1.8881,-0.585961 h -2.7345 -0.3255 q -1.1719,0 -1.4324,-0.260428 -0.1953,-0.260427 -0.1953,-1.627669 v -2.864698 q 0,-0.976602 0.1302,-1.171923 0.1954,-0.260427 0.9115,-0.260427 h 0.7813 14.7141 q 1.3022,0 1.7579,0.195321 0.4558,0.130213 0.4558,0.781281 0,0.130214 -0.1302,0.911495 z"
       inkscape:connector-curvature="0" />
    <path
       id="path4602"
       style="font-style:italic;font-variant:normal;font-weight:bold;font-stretch:normal;font-size:65.10678101px;font-family:'Besley*';-inkscape-font-specification:'Besley* Bold Italic';text-align:center;text-anchor:middle;fill:#558855;fill-opacity:1"
       d="m 1070.1242,54.343733 -5.2737,22.917587 q -0.1953,1.171922 -0.1953,1.302135 0,0.911495 0.9115,0.911495 1.823,0 4.2971,-3.645979 0.1302,-0.195321 0.3255,-0.520855 0.2604,-0.39064 0.3255,-0.520854 0.1302,-0.130213 0.2605,-0.325534 0.1953,-0.260427 0.2604,-0.325534 0.1302,-0.06511 0.2604,-0.130213 0.1302,-0.130214 0.2604,-0.130214 0.1303,-0.06511 0.2605,-0.06511 0.3255,0 0.9115,0.195321 l 1.5625,0.455747 q 1.4975,0.455748 1.4975,1.041709 0,0.19532 -0.7162,1.627669 -2.6694,5.078329 -6.6409,7.617494 -3.9064,2.539164 -8.2034,2.539164 -5.2086,0 -6.5107,-3.255339 -0.4558,-1.302136 -0.7162,-1.302136 -0.2604,0 -1.3672,1.041709 -3.9064,3.515766 -9.2452,3.515766 -5.6643,0 -9.1149,-3.255339 -3.3856,-3.255339 -3.3856,-9.766017 0,-5.403863 1.7579,-9.896231 1.823,-4.557474 4.6877,-7.422173 2.8647,-2.864698 6.3153,-4.427261 3.4507,-1.627669 6.9013,-1.627669 5.5992,0 7.878,3.8413 1.1068,1.82299 1.237,1.82299 0.3255,0 0.5209,-1.562563 l 0.1953,-1.432349 q 0.1302,-1.041709 0.3906,-1.237029 0.3255,-0.195321 1.6277,-0.195321 h 6.6409 q 1.4974,0 1.8881,0.130214 0.4557,0.06511 0.4557,0.585961 0,0.520854 -0.2604,1.497456 z m -13.6724,10.807726 q 0,-8.138348 -5.2737,-8.138348 -3.7111,0 -6.6409,4.883009 -2.9298,4.883008 -2.9298,11.71922 0,7.552387 4.3622,7.552387 3.9064,0 7.1617,-5.143436 3.3205,-5.208542 3.3205,-10.872832 z"
       inkscape:connector-curvature="0" />
    <path
       id="path4604"
       style="font-style:italic;font-variant:normal;font-weight:bold;font-stretch:normal;font-size:65.10678101px;font-family:'Besley*';-inkscape-font-specification:'Besley* Bold Italic';text-align:center;text-anchor:middle;fill:#558855;fill-opacity:1"
       d="m 1089.7396,78.823883 q 0.9115,2.929805 3.4507,2.929805 4.1668,0 7.6175,-5.599183 3.4506,-5.599184 3.4506,-12.95625 0,-3.515766 -0.651,-5.078329 -0.586,-1.627669 -2.6043,-1.627669 -2.409,0 -4.8179,2.343844 -2.3439,2.343844 -3.9064,6.315358 -0.7162,1.627669 -1.2371,4.03662 l -1.3021,5.599183 q -0.3255,1.302136 -0.3255,2.213631 0,0.716174 0.3255,1.82299 z m -11.0681,-3.906407 7.357,-32.16275 q 0.3256,-1.106815 0.3256,-1.432349 0,-0.585961 -2.0184,-0.585961 h -2.8647 q -0.9766,0 -1.237,-0.195321 -0.2604,-0.19532 -0.2604,-0.911495 v -0.781281 -1.953203 q 0,-1.237029 0.1953,-1.43235 0.2604,-0.260427 1.5626,-0.260427 h 14.1933 q 0.9766,0 1.3021,0 0.3906,0 0.7813,0.130214 0.3906,0.06511 0.4557,0.19532 0.1302,0.130214 0.1302,0.455748 0,0.39064 -0.3255,1.82299 l -3.4507,15.104773 q -0.5208,2.21363 -0.5208,2.408951 0,0.19532 0.1302,0.19532 0.065,0 0.2604,-0.19532 0.2604,-0.260427 0.7162,-0.716175 0.4557,-0.455747 0.9115,-0.846388 3.3855,-2.864698 7.4873,-2.864698 5.8596,0 8.9847,3.450659 3.1902,3.385553 3.1902,10.156658 0,9.50559 -6.4455,16.146481 -6.4456,6.640892 -16.472,6.640892 -10.352,0 -14.1933,-7.161746 -0.6511,-1.302135 -0.6511,-2.408951 0,-0.846388 0.4558,-2.799591 z"
       inkscape:connector-curvature="0" />
    <path
       id="path4606"
       style="font-style:italic;font-variant:normal;font-weight:bold;font-stretch:normal;font-size:65.10678101px;font-family:'Besley*';-inkscape-font-specification:'Besley* Bold Italic';text-align:center;text-anchor:middle;fill:#558855;fill-opacity:1"
       d="m 1159.1139,77.521747 q 0,-1.367242 -1.6277,-2.669378 -1.5625,-1.302136 -3.8413,-2.539164 -2.2787,-1.237029 -4.5575,-2.604272 -2.2787,-1.432349 -3.9064,-3.645979 -1.5625,-2.213631 -1.5625,-4.817902 0,-4.752795 4.7528,-7.617494 4.8179,-2.929805 12.3703,-2.929805 6.1851,0 9.5707,2.669378 3.4506,2.669378 3.4506,5.859611 0,2.929805 -1.7579,4.687688 -1.6927,1.757883 -4.6877,1.757883 -2.2787,0 -3.8413,-1.432349 -1.5625,-1.43235 -1.5625,-3.64598 0,-1.106815 0.3255,-1.82299 0.3907,-0.781281 0.7813,-1.041708 0.3906,-0.325534 0.7162,-0.585961 0.3906,-0.260428 0.3906,-0.455748 0,-0.260427 -0.586,-0.585961 -0.5859,-0.325534 -1.6927,-0.585961 -1.1068,-0.260427 -2.409,-0.260427 -2.1485,0 -3.5809,0.976602 -1.4323,0.976601 -1.4323,2.669378 0,1.757883 1.6928,3.320445 1.7579,1.562563 4.1668,2.864699 2.409,1.237029 4.8179,2.734485 2.4741,1.497456 4.1668,3.8413 1.7579,2.343844 1.7579,5.273649 0,4.948115 -5.1434,7.747707 -5.1434,2.734485 -13.5422,2.734485 -6.5107,0 -10.6775,-2.669378 -4.1018,-2.734485 -4.1018,-6.315358 0,-3.450659 1.9532,-5.46897 2.0184,-2.01831 4.8179,-2.01831 5.6643,0 5.6643,4.492368 0,1.497456 -0.7812,2.474058 -0.7162,0.911495 -1.4975,1.432349 -0.7162,0.455747 -0.7162,0.781281 0,2.083417 4.8179,2.083417 3.3205,0 5.2737,-1.302135 2.0183,-1.367243 2.0183,-3.385553 z"
       inkscape:connector-curvature="0" />
    <path
       id="path4608"
       style="font-style:italic;font-variant:normal;font-weight:bold;font-stretch:normal;font-size:65.10678101px;font-family:'Besley*';-inkscape-font-specification:'Besley* Bold Italic';text-align:center;text-anchor:middle;fill:#558855;fill-opacity:1"
       d="m 1200.4333,57.794392 q 0,-1.888096 -2.0834,-1.888096 -2.4741,0 -5.2737,2.539164 -2.7996,2.539165 -4.4923,6.836212 -0.4558,1.106815 -0.4558,1.692776 0,0.520855 0.5209,0.520855 0.3906,0 2.0834,-0.455748 4.3622,-1.106815 7.0315,-3.450659 2.6694,-2.408951 2.6694,-5.794504 z m -13.6073,17.123084 q 0,6.575785 5.0132,6.575785 2.0834,0 4.6226,-1.367243 2.6043,-1.367242 4.4273,-3.385552 0.1953,-0.195321 0.651,-0.716175 0.4558,-0.585961 0.6511,-0.716175 0.1953,-0.19532 0.7162,-0.39064 0.5859,-0.195321 1.3672,-0.195321 h 1.9532 q 2.0183,0 2.0183,0.520855 0,0.455747 -0.4557,1.171922 -6.3154,10.872832 -19.2716,10.872832 -6.4456,0 -9.9614,-3.320446 -3.4506,-3.385552 -3.4506,-9.70091 0,-10.807726 6.9664,-17.123083 7.0315,-6.315358 17.2533,-6.315358 12.2401,0 12.2401,7.6826 0,3.320446 -2.2137,5.85961 -2.1485,2.539165 -5.8596,4.036621 -3.646,1.432349 -7.2268,2.278737 -3.5158,0.781281 -7.4873,1.171922 -1.3021,0.06511 -1.6277,0.455748 -0.3255,0.39064 -0.3255,1.497455 z"
       inkscape:connector-curvature="0" />
    <path
       id="path4610"
       style="font-style:italic;font-variant:normal;font-weight:bold;font-stretch:normal;font-size:65.10678101px;font-family:'Besley*';-inkscape-font-specification:'Besley* Bold Italic';text-align:center;text-anchor:middle;fill:#558855;fill-opacity:1"
       d="m 1250.5208,57.924606 q 0,3.711086 -1.9532,5.989824 -1.8881,2.21363 -5.6643,2.21363 -2.6694,0 -4.2971,-1.497456 -1.6276,-1.497456 -1.6276,-3.971513 0,-1.237029 0.065,-1.953204 0.065,-0.716174 0.1302,-0.976601 0.1302,-0.260428 0.1302,-0.390641 0,-0.520854 -0.6511,-0.520854 -2.0183,0 -5.3387,5.143435 -3.2554,5.078329 -4.7528,11.458794 l -2.409,10.351978 q -0.2604,1.237029 -0.3906,1.562563 -0.1302,0.260427 -0.6511,0.455747 -0.5208,0.195321 -1.7579,0.195321 h -6.9013 q -1.7579,0 -1.7579,-0.911495 0,-0.06511 0.6511,-2.474058 l 5.2737,-22.787373 q 0.065,-0.260428 0.1302,-0.585961 0.065,-0.390641 0.1302,-0.585962 0.065,-0.260427 0.065,-0.39064 0,-0.585961 -1.7579,-0.585961 h -2.0183 q -1.237,0 -1.4323,-0.195321 -0.1954,-0.260427 -0.1954,-1.497456 v -2.474057 q 0,-0.911495 0.1954,-1.171922 0.2604,-0.260427 0.9114,-0.260427 0.1954,0 0.6511,0.06511 0.4558,0 0.7813,0 h 11.8494 q 2.0183,0 2.0183,0.716175 0,0.130214 -0.3906,1.692776 l -0.4557,1.432349 q -0.7162,2.278738 -0.7162,2.864699 0,0.260427 0.1302,0.260427 0.3906,0 1.6277,-2.01831 1.8229,-2.929805 4.883,-4.687688 3.1251,-1.757884 6.9664,-1.757884 4.1017,0 6.3154,2.148524 2.2136,2.083417 2.2136,5.143436 z"
       inkscape:connector-curvature="0" />
    <path
       id="path4612"
       style="font-style:italic;font-variant:normal;font-weight:bold;font-stretch:normal;font-size:65.10678101px;font-family:'Besley*';-inkscape-font-specification:'Besley* Bold Italic';text-align:center;text-anchor:middle;fill:#558855;fill-opacity:1"
       d="m 1262.5432,44.90325 q -1.8881,-1.757883 -1.8881,-4.492368 0,-2.734485 1.8881,-4.427261 1.8881,-1.757883 4.6226,-1.757883 2.7344,0 4.6225,1.757883 1.8881,1.692776 1.8881,4.427261 0,2.734485 -1.8881,4.492368 -1.8881,1.692776 -4.6225,1.692776 -2.7345,0 -4.6226,-1.692776 z m 7.6175,10.417085 -5.0784,21.940985 q -0.1953,1.171922 -0.1953,1.302135 0,0.911495 0.9115,0.911495 1.8881,0 4.4924,-3.971513 0.065,-0.130214 0.1953,-0.325534 0.1953,-0.260427 0.2604,-0.390641 0.065,-0.130213 0.1302,-0.260427 0.1303,-0.19532 0.1954,-0.260427 0.1302,-0.06511 0.1953,-0.19532 0.1302,-0.130214 0.1953,-0.130214 0.1302,-0.06511 0.2604,-0.06511 0.1954,-0.06511 0.3256,-0.06511 0.3255,0 0.9115,0.195321 l 1.6927,0.520854 q 1.1069,0.390641 1.1069,1.171922 0,0.651068 -0.7162,1.888097 -2.6694,4.817902 -6.5758,7.291959 -3.8413,2.408951 -8.0081,2.408951 -6.9014,0 -6.9014,-5.534076 0,-1.62767 0.5209,-3.580873 l 4.1668,-18.555433 q 0.2605,-1.171922 0.2605,-1.302135 0,-0.651068 -1.823,-0.651068 h -0.3907 -2.3438 q -1.4324,0 -1.823,-0.325534 -0.3255,-0.325534 -0.3255,-1.367243 v -1.041708 -1.562563 q 0,-1.302135 1.237,-1.302135 0.1953,0 0.7813,0.06511 0.5859,0 0.9115,0 h 13.5422 q 2.4089,0 2.4089,0.911495 0,0.195321 -0.5208,2.278738 z"
       inkscape:connector-curvature="0" />
    <path
       id="path4614"
       style="font-style:italic;font-variant:normal;font-weight:bold;font-stretch:normal;font-size:65.10678101px;font-family:'Besley*';-inkscape-font-specification:'Besley* Bold Italic';text-align:center;text-anchor:middle;fill:#558855;fill-opacity:1"
       d="m 1285.4923,50.046685 0.2605,-1.302135 q 1.3021,-6.575785 6.4455,-10.677512 5.2086,-4.166834 12.8912,-4.166834 6.5106,0 10.3519,2.669378 3.8413,2.669378 3.8413,6.185144 0,3.580873 -2.2136,5.599183 -2.2136,2.01831 -5.1434,2.01831 -2.5392,0 -4.3622,-1.497456 -1.823,-1.562562 -1.823,-4.23194 0,-1.367243 0.7813,-2.994912 0.7813,-1.692777 0.7813,-1.888097 0,-0.651068 -2.0834,-0.651068 -3.06,0 -5.1435,2.539165 -2.0183,2.539164 -3.2553,8.528988 -0.2604,1.302136 -0.2604,1.367242 0,0.585961 1.6276,0.585961 h 4.5575 q 1.3022,0 1.5626,0.260428 0.3255,0.19532 0.3255,1.106815 v 0.846388 1.432349 0.585961 q 0,0.911495 -0.2604,1.106815 -0.1953,0.195321 -1.3673,0.195321 h -5.5991 -0.7162 q -0.9766,0 -1.3021,0.260427 -0.2605,0.19532 -0.4558,1.237029 l -7.0966,34.246167 q -0.065,0.19532 -0.1302,0.651067 -0.065,0.520855 -0.1303,0.651068 0,0.130214 -0.1302,0.390641 -0.1302,0.260427 -0.2604,0.325534 -0.1302,0.06511 -0.3906,0.19532 -0.2605,0.130214 -0.6511,0.130214 -0.3255,0 -0.8464,0 h -7.292 q -1.4323,0 -1.4323,-0.976602 0,-0.455748 0.1953,-1.367242 l 6.8362,-34.115954 q 0.1302,-0.911495 0.1302,-1.041708 0,-0.390641 -0.2604,-0.455748 -0.1953,-0.130213 -0.9766,-0.130213 h -0.7162 -0.651 q -1.3022,0 -1.6277,-0.325534 -0.2604,-0.325534 -0.2604,-1.953204 v -1.692776 q 0,-1.041708 0.1953,-1.302135 0.1953,-0.260428 0.9766,-0.260428 h 0.8464 1.5625 q 1.6928,0 2.0184,-0.260427 0.3255,-0.325534 0.651,-1.82299 z"
       inkscape:connector-curvature="0" />
  </g>
  <g
     id="flowRoot5257"
     style="font-style:normal;font-variant:normal;font-weight:normal;font-stretch:normal;font-size:186.01937866px;line-height:100%;font-family:'Besley*';-inkscape-font-specification:'Besley*';text-align:center;letter-spacing:0px;word-spacing:0px;writing-mode:lr-tb;text-anchor:middle;fill:#558855;fill-opacity:1;stroke:none;stroke-width:1px;stroke-linecap:butt;stroke-linejoin:miter;stroke-opacity:1"
     transform="matrix(1.1779594,0,0,1.1779594,-68.17445,-163.76894)"
     aria-label="I N T R O D U C I N G :">
    <path
       id="path4664"
       style="font-style:normal;font-variant:normal;font-weight:bold;font-stretch:normal;font-size:37.91590118px;font-family:'Besley*';-inkscape-font-specification:'Besley* Bold';text-align:center;text-anchor:middle;fill:#558855;fill-opacity:1"
       d="m 461.26186,168.35715 v 18.46505 q 0,0.90998 0.15167,1.06164 0.15166,0.15167 1.06164,0.15167 h 2.80578 q 0.56874,0 0.75832,0.15166 0.18957,0.15166 0.18957,0.53082 0,0.11375 -0.0379,0.37916 0,0.26541 0,0.45499 v 1.36497 q 0,0.75832 -0.15166,0.9479 -0.11375,0.15166 -0.68249,0.15166 h -14.18055 q -1.09956,0 -1.28914,-0.22749 -0.18958,-0.2275 -0.18958,-1.40289 v -1.59247 q 0,-0.4929 0.0758,-0.60665 0.11375,-0.15166 0.45499,-0.15166 h 2.99536 q 0.64457,0 0.83415,-0.18958 0.2275,-0.18958 0.2275,-0.60666 0,-0.11375 -0.0379,-0.41707 0,-0.34125 0,-0.53083 v -17.51714 q 0,-0.79624 -0.18958,-0.98582 -0.15166,-0.22749 -0.68249,-0.22749 h -2.46453 q -0.90998,0 -1.06164,-0.15167 -0.15167,-0.18957 -0.15167,-1.13747 v -1.6683 q 0,-0.68249 0.18958,-0.83415 0.2275,-0.18958 1.13748,-0.18958 h 13.64972 q 0.18958,0 0.41708,0 0.26541,-0.0379 0.37916,-0.0379 0.37916,0 0.53082,0.18958 0.18958,0.18958 0.18958,0.79624 v 1.97162 q 0,0.72041 -0.15166,0.90998 -0.11375,0.15167 -0.68249,0.15167 h -2.95744 q -0.75832,0 -0.9479,0.15166 -0.18958,0.15167 -0.18958,0.64457 z"
       inkscape:connector-curvature="0" />
    <path
       id="path4666"
       style="font-style:normal;font-variant:normal;font-weight:bold;font-stretch:normal;font-size:37.91590118px;font-family:'Besley*';-inkscape-font-specification:'Besley* Bold';text-align:center;text-anchor:middle;fill:#558855;fill-opacity:1"
       d="m 482.56764,167.56092 h -1.70622 q -0.64457,0 -0.87207,-0.15167 -0.18958,-0.18957 -0.18958,-0.60665 0,-0.11375 0,-0.37916 0.0379,-0.30333 0.0379,-0.49291 v -0.90998 q 0,-1.06164 0.18958,-1.25122 0.18958,-0.18958 1.21331,-0.18958 h 7.81067 q 0.34125,0 0.60666,0.0379 0.26541,0 0.45499,0.0379 0.2275,0 0.41707,0.11375 0.18958,0.0758 0.26542,0.11375 0.11374,0.0379 0.26541,0.22749 0.18958,0.15167 0.22749,0.2275 0.0758,0.0379 0.26541,0.26541 0.18958,0.22749 0.26542,0.30333 l 11.52643,12.96723 q 0.15166,0.18958 0.37916,0.49291 0.26541,0.26541 0.41707,0.41708 0.15167,0.15166 0.30333,0.34124 0.18958,0.18958 0.30333,0.26541 0.11375,0.0758 0.22749,0.0758 0.45499,0 0.45499,-1.81996 v -8.87232 q 0,-0.83415 -0.15166,-1.02373 -0.15166,-0.18958 -0.75832,-0.18958 h -2.50245 q -0.45499,0 -0.60665,-0.18958 -0.15167,-0.18958 -0.15167,-0.87207 v -1.59246 q 0,-0.87207 0.15167,-1.09957 0.18958,-0.22749 0.79623,-0.22749 h 10.27521 q 0.15166,0 0.37916,0 0.26541,-0.0379 0.34124,-0.0379 0.34125,0 0.45499,0.15167 0.11375,0.15166 0.11375,0.64457 v 1.59246 q 0,1.21331 -0.22749,1.44081 -0.18958,0.18958 -1.40289,0.18958 h -1.55455 q -0.49291,0 -0.64457,0.18958 -0.15167,0.18958 -0.15167,0.90998 v 22.06705 q 0,0.2275 0,0.53083 0.0379,0.30332 0.0379,0.37916 0,0.41707 -0.18958,0.56873 -0.18958,0.18958 -0.79624,0.18958 h -2.04745 q -0.49291,0 -0.87207,-0.15166 -0.37916,-0.15166 -0.56874,-0.30333 -0.15166,-0.15166 -0.45499,-0.53082 -0.26541,-0.41707 -0.37916,-0.56874 l -14.6355,-17.5171 q -0.22749,-0.26542 -0.56873,-0.72041 -0.34125,-0.45499 -0.53083,-0.68248 -0.18958,-0.2275 -0.30332,-0.2275 -0.30333,0 -0.30333,1.85788 v 13.1189 q 0,0.90998 0.26541,1.13748 0.26541,0.2275 1.51664,0.2275 h 1.89579 q 0.45499,0 0.56874,0.15166 0.11375,0.11375 0.11375,0.7204 v 2.04746 q 0,0.68249 -0.2275,0.90998 -0.18958,0.18958 -0.68248,0.18958 -0.15167,0 -0.56874,-0.0379 -0.37916,0 -0.64457,0 h -8.75858 q -0.22749,0 -0.56873,0 -0.34125,0.0379 -0.455,0.0379 -0.45499,0 -0.64457,-0.18958 -0.15166,-0.22749 -0.15166,-0.90998 v -2.16121 q 0,-0.4929 0.15166,-0.60665 0.18958,-0.15166 0.87207,-0.15166 h 1.59247 q 0.87206,0 1.13747,-0.2275 0.26542,-0.26541 0.26542,-0.83415 0,-0.15166 -0.0379,-0.53082 0,-0.41708 0,-0.7204 v -17.28966 q 0,-0.53082 -0.2275,-0.68248 -0.18957,-0.18958 -1.02372,-0.18958 z"
       inkscape:connector-curvature="0" />
    <path
       id="path4668"
       style="font-style:normal;font-variant:normal;font-weight:bold;font-stretch:normal;font-size:37.91590118px;font-family:'Besley*';-inkscape-font-specification:'Besley* Bold';text-align:center;text-anchor:middle;fill:#558855;fill-opacity:1"
       d="m 547.03711,192.01667 h -15.16636 q -0.53082,0 -0.68248,-0.15166 -0.11375,-0.18958 -0.11375,-0.90998 v -1.6683 q 0,-0.9479 0.15166,-1.09956 0.15167,-0.15166 1.09956,-0.15166 h 2.57828 q 0.72041,0 0.90999,-0.15167 0.18958,-0.15166 0.18958,-0.64457 v -18.92003 q 0,-0.56874 -0.18958,-0.75832 -0.15167,-0.18958 -0.75832,-0.18958 -2.76786,0 -3.94326,1.13748 -1.13747,1.09956 -1.32705,4.24658 0,0.22749 0,0.53082 0,0.30333 -0.0379,0.45499 0,0.11375 -0.0758,0.30333 -0.0379,0.15166 -0.15166,0.22749 -0.11375,0.0379 -0.34125,0.0758 -0.22749,0.0379 -0.56874,0.0379 h -1.6683 q -0.64457,0 -0.83414,-0.15166 -0.18958,-0.15167 -0.18958,-0.56874 0,-0.11375 0,-0.37916 0.0379,-0.26541 0.0379,-0.45499 v -8.18984 q 0,-0.7204 0.11375,-0.87206 0.15166,-0.18958 0.7204,-0.18958 h 25.63115 q 0.37916,0 0.49291,0.18958 0.15166,0.15166 0.15166,0.7204 v 8.26567 q 0,0.22749 0,0.53082 0.0379,0.30333 0.0379,0.37916 0,0.37916 -0.18958,0.56874 -0.18958,0.15166 -0.79624,0.15166 h -1.81996 q -0.68249,0 -0.87207,-0.18958 -0.18958,-0.22749 -0.18958,-0.7204 v -0.79623 q -0.18957,-3.07119 -1.36497,-4.17075 -1.13747,-1.13748 -3.90534,-1.13748 -0.68248,0 -0.83415,0.11375 -0.11374,0.11374 -0.11374,0.64457 v 18.99586 q 0,0.64457 0.15166,0.79624 0.15166,0.11375 0.90998,0.11375 h 3.26077 q 0.37916,0 0.49291,0.15166 0.11374,0.15166 0.11374,0.7204 v 2.46453 q 0,0.37916 -0.15166,0.53083 -0.15166,0.11374 -0.75832,0.11374 z"
       inkscape:connector-curvature="0" />
    <path
       id="path4670"
       style="font-style:normal;font-variant:normal;font-weight:bold;font-stretch:normal;font-size:37.91590118px;font-family:'Besley*';-inkscape-font-specification:'Besley* Bold';text-align:center;text-anchor:middle;fill:#558855;fill-opacity:1"
       d="m 578.17199,175.71284 h 4.2845 q 1.74413,0 2.95744,-1.09956 1.2133,-1.13748 1.2133,-3.26077 0,-3.79159 -4.17074,-3.79159 h -4.512 q -0.53082,0 -0.68248,0.15166 -0.11375,0.15167 -0.11375,0.87207 v 5.83905 q 0,0.90998 0.15166,1.09956 0.18958,0.18958 0.87207,0.18958 z m 20.39875,12.58808 q -2.76786,4.47407 -7.77276,4.47407 -1.93371,0 -3.18493,-0.7204 -1.21331,-0.7204 -1.70622,-1.81996 -0.4929,-1.13748 -0.75832,-2.50245 -0.22749,-1.40289 -0.45499,-2.76786 -0.22749,-1.40289 -0.64457,-2.50245 -0.41707,-1.13748 -1.47872,-1.85788 -1.02373,-0.7204 -2.76786,-0.7204 h -2.00954 q -0.45499,0 -0.56874,0.11374 -0.0758,0.11375 -0.0758,0.72041 v 6.33195 q 0,0.7204 0.15166,0.87207 0.15167,0.11375 0.9479,0.11375 h 1.74413 q 0.15167,0 0.41708,0 0.26541,-0.0379 0.34124,-0.0379 0.56874,0 0.56874,0.75832 v 2.12329 q 0,0.83415 -0.18958,0.98581 -0.18958,0.15166 -1.13748,0.15166 h -12.96724 q -0.7204,0 -0.90998,-0.11374 -0.15166,-0.15167 -0.15166,-0.72041 v -2.31286 q 0,-0.60666 0.15166,-0.72041 0.15167,-0.11374 0.90998,-0.11374 h 2.16121 q 0.64457,0 0.79623,-0.18958 0.15167,-0.18958 0.15167,-1.06165 v -18.04797 q 0,-0.79623 -0.15167,-0.98581 -0.15166,-0.18958 -0.7204,-0.18958 h -1.85788 q -1.02373,0 -1.25122,-0.18958 -0.18958,-0.18958 -0.18958,-1.09956 v -1.63039 q 0,-0.68248 0.15166,-0.87206 0.15167,-0.18958 0.60666,-0.18958 h 15.7351 q 11.37477,0 11.37477,7.77276 0,2.12329 -1.32706,3.71576 -1.32706,1.55455 -4.057,2.23704 -1.55455,0.37915 -1.55455,0.60665 0,0.15166 1.74413,0.90998 1.47872,0.68249 2.31287,1.85788 0.83415,1.13748 1.06164,2.31287 0.2275,1.17539 0.34125,2.27495 0.15166,1.06165 0.4929,1.74414 0.34125,0.68248 1.09956,0.68248 0.83415,0 1.81997,-1.06164 0.18958,-0.18958 0.37916,-0.45499 0.22749,-0.30333 0.34124,-0.37916 0.11375,-0.0758 0.22749,-0.0758 0.2275,0 0.87207,0.53082 l 0.53082,0.41707 q 0.75832,0.64457 0.75832,0.87207 0,0.30333 -0.30333,0.75832 z"
       inkscape:connector-curvature="0" />
    <path
       id="path4672"
       style="font-style:normal;font-variant:normal;font-weight:bold;font-stretch:normal;font-size:37.91590118px;font-family:'Besley*';-inkscape-font-specification:'Besley* Bold';text-align:center;text-anchor:middle;fill:#558855;fill-opacity:1"
       d="m 625.98275,166.61302 q -7.20402,0 -7.20402,11.18519 0,11.18519 7.20402,11.18519 3.90534,0 5.53572,-2.84369 1.6683,-2.84369 1.6683,-8.3415 0,-11.18519 -7.20402,-11.18519 z m -11.18519,21.87748 q -3.98117,-4.32242 -3.98117,-10.69229 0,-6.36987 3.98117,-10.65437 4.01909,-4.32241 11.18519,-4.32241 7.16611,0 11.14728,4.32241 4.01908,4.2845 4.01908,10.65437 0,6.29404 -4.13283,10.65437 -4.09492,4.32241 -11.03353,4.32241 -7.1661,0 -11.18519,-4.28449 z"
       inkscape:connector-curvature="0" />
    <path
       id="path4674"
       style="font-style:normal;font-variant:normal;font-weight:bold;font-stretch:normal;font-size:37.91590118px;font-family:'Besley*';-inkscape-font-specification:'Besley* Bold';text-align:center;text-anchor:middle;fill:#558855;fill-opacity:1"
       d="m 668.38814,188.03551 h 2.57828 q 4.24658,0 5.91488,-2.42662 1.6683,-2.42662 1.6683,-7.81068 0,-5.27031 -1.78205,-7.73484 -1.78204,-2.50245 -5.80113,-2.50245 h -2.72994 q -1.13748,0 -1.40289,0.30333 -0.2275,0.30332 -0.2275,1.78204 v 17.02424 q 0,0.90998 0.26541,1.13748 0.30333,0.2275 1.51664,0.2275 z m 2.57828,3.98116 h -13.1189 q -0.26541,0 -0.75832,0.0379 -0.45499,0.0379 -0.64457,0.0379 -1.02373,0 -1.02373,-1.06165 v -1.97163 q 0,-0.68248 0.11375,-0.83415 0.15166,-0.18957 0.64457,-0.18957 h 1.97163 q 0.90998,0 1.17539,-0.2275 0.30333,-0.2275 0.30333,-0.83415 0,-0.11375 -0.0379,-0.49291 0,-0.41707 0,-0.68248 V 169.1913 q 0,-1.17539 -0.26541,-1.40289 -0.2275,-0.22749 -1.55455,-0.22749 h -1.06165 q -0.9479,0 -1.13748,-0.18958 -0.15166,-0.2275 -0.15166,-1.28914 v -1.28914 q 0,-0.79624 0.18958,-1.02373 0.18958,-0.2275 0.7204,-0.2275 0.11375,0 0.41708,0.0379 0.34124,0 0.56874,0 h 13.64972 q 3.90534,0 6.93861,1.09956 3.03327,1.06165 4.89115,2.99536 1.85788,1.93371 2.76786,4.51199 0.9479,2.54036 0.9479,5.61155 0,6.33196 -4.01909,10.27521 -4.01908,3.94325 -11.52643,3.94325 z"
       inkscape:connector-curvature="0" />
    <path
       id="path4676"
       style="font-style:normal;font-variant:normal;font-weight:bold;font-stretch:normal;font-size:37.91590118px;font-family:'Besley*';-inkscape-font-specification:'Besley* Bold';text-align:center;text-anchor:middle;fill:#558855;fill-opacity:1"
       d="m 723.2643,167.56092 h -2.88161 q -0.79624,0 -0.9479,-0.15167 -0.11375,-0.15166 -0.11375,-0.94789 v -2.12329 q 0,-0.49291 0.15167,-0.64457 0.15166,-0.15167 0.4929,-0.15167 0.11375,0 0.34125,0.0379 0.26541,0 0.45499,0 h 10.99561 q 0.41707,0 0.53082,0.15166 0.11375,0.15167 0.11375,0.75832 v 1.74413 q 0,0.15167 0,0.41708 0.0379,0.22749 0.0379,0.30332 0,0.34125 -0.15166,0.49291 -0.15166,0.11375 -0.68249,0.11375 h -2.72994 q -0.37916,0 -0.53082,0.15166 -0.11375,0.15167 -0.11375,0.7204 v 12.20892 q 0,5.72531 -3.41243,8.94816 -3.37452,3.18493 -9.09982,3.18493 -3.48826,0 -5.87696,-0.87206 -2.35079,-0.90998 -3.60201,-2.65412 -1.25123,-1.78204 -1.78205,-3.90533 -0.49291,-2.12329 -0.49291,-5.08073 v -11.82977 q 0,-0.56873 -0.11375,-0.7204 -0.11374,-0.15166 -0.4929,-0.15166 h -2.69203 q -0.56874,0 -0.7204,-0.11375 -0.15167,-0.11375 -0.15167,-0.49291 v -2.84369 q 0,-0.56874 0.56874,-0.56874 0.11375,0 0.34124,0.0379 0.26542,0 0.41708,0 h 13.72556 q 0.41707,0 0.53082,0.18958 0.15166,0.15166 0.15166,0.79623 v 2.12329 q 0,0.60666 -0.11375,0.75832 -0.11374,0.11375 -0.53082,0.11375 h -2.69203 q -0.79623,0 -1.02373,0.22749 -0.18958,0.2275 -0.18958,1.09957 v 10.61645 q 0,4.32241 1.28914,6.6732 1.32706,2.35078 4.39825,2.35078 3.26077,0 5.30823,-1.89579 2.08537,-1.93371 2.08537,-5.99072 v -12.05725 q 0,-0.7204 -0.15166,-0.87207 -0.11375,-0.15166 -0.64457,-0.15166 z"
       inkscape:connector-curvature="0" />
    <path
       id="path4678"
       style="font-style:normal;font-variant:normal;font-weight:bold;font-stretch:normal;font-size:37.91590118px;font-family:'Besley*';-inkscape-font-specification:'Besley* Bold';text-align:center;text-anchor:middle;fill:#558855;fill-opacity:1"
       d="m 775.3957,182.61353 q -0.90998,4.43616 -4.66366,7.31777 -3.75367,2.84369 -9.32731,2.84369 -7.73484,0 -11.75393,-4.13283 -3.98117,-4.17075 -3.98117,-10.84395 0,-6.36987 4.51199,-10.65437 4.54991,-4.32241 11.41269,-4.32241 3.3366,0 5.99071,1.81996 0.34125,0.2275 0.64457,0.56874 0.34125,0.30333 0.53083,0.49291 0.22749,0.15166 0.41707,0.15166 0.34124,0 0.90998,-0.79623 l 0.68249,-0.9479 q 0.34124,-0.49291 0.60665,-0.60665 0.30333,-0.11375 1.21331,-0.11375 h 1.59247 q 0.79623,0 0.90998,0.15166 0.15166,0.15167 0.15166,0.98582 v 8.30358 q 0,0.79623 -0.22749,0.98581 -0.2275,0.18958 -1.25123,0.18958 h -1.6683 q -0.60665,0 -0.94789,-0.15166 -0.30333,-0.15167 -0.37916,-0.30333 -0.0758,-0.15166 -0.2275,-0.60665 -0.11374,-0.45499 -0.22749,-0.75832 -1.02373,-2.35079 -3.18494,-3.79159 -2.12329,-1.47872 -4.96698,-1.47872 -3.82951,0 -6.18029,2.99535 -2.35079,2.99536 -2.35079,7.88651 0,4.92907 2.16121,7.88651 2.19912,2.95744 5.99071,2.95744 3.60201,0 5.91488,-1.55455 2.35079,-1.55455 3.18494,-4.24658 0.11374,-0.34125 0.18958,-0.87207 0.0758,-0.53082 0.15166,-0.68249 0.11375,-0.15166 0.45499,-0.30332 0.34124,-0.15167 1.02373,-0.15167 h 1.28914 q 0.9479,0 1.25122,0.15167 0.34125,0.11375 0.34125,0.53082 0,0.26541 -0.18958,1.09956 z"
       inkscape:connector-curvature="0" />
    <path
       id="path4680"
       style="font-style:normal;font-variant:normal;font-weight:bold;font-stretch:normal;font-size:37.91590118px;font-family:'Besley*';-inkscape-font-specification:'Besley* Bold';text-align:center;text-anchor:middle;fill:#558855;fill-opacity:1"
       d="m 800.50551,168.35715 v 18.46505 q 0,0.90998 0.15167,1.06164 0.15166,0.15167 1.06164,0.15167 h 2.80578 q 0.56874,0 0.75832,0.15166 0.18958,0.15166 0.18958,0.53082 0,0.11375 -0.0379,0.37916 0,0.26541 0,0.45499 v 1.36497 q 0,0.75832 -0.15166,0.9479 -0.11375,0.15166 -0.68249,0.15166 H 790.4199 q -1.09956,0 -1.28914,-0.22749 -0.18958,-0.2275 -0.18958,-1.40289 v -1.59247 q 0,-0.4929 0.0758,-0.60665 0.11374,-0.15166 0.45499,-0.15166 h 2.99535 q 0.64457,0 0.83415,-0.18958 0.2275,-0.18958 0.2275,-0.60666 0,-0.11375 -0.0379,-0.41707 0,-0.34125 0,-0.53083 v -17.51714 q 0,-0.79624 -0.18958,-0.98582 -0.15166,-0.22749 -0.68248,-0.22749 h -2.46454 q -0.90998,0 -1.06164,-0.15167 -0.15167,-0.18957 -0.15167,-1.13747 v -1.6683 q 0,-0.68249 0.18958,-0.83415 0.2275,-0.18958 1.13748,-0.18958 h 13.64973 q 0.18957,0 0.41707,0 0.26541,-0.0379 0.37916,-0.0379 0.37916,0 0.53082,0.18958 0.18958,0.18958 0.18958,0.79624 v 1.97162 q 0,0.72041 -0.15166,0.90998 -0.11375,0.15167 -0.68249,0.15167 h -2.95744 q -0.75832,0 -0.9479,0.15166 -0.18958,0.15167 -0.18958,0.64457 z"
       inkscape:connector-curvature="0" />
    <path
       id="path4682"
       style="font-style:normal;font-variant:normal;font-weight:bold;font-stretch:normal;font-size:37.91590118px;font-family:'Besley*';-inkscape-font-specification:'Besley* Bold';text-align:center;text-anchor:middle;fill:#558855;fill-opacity:1"
       d="m 821.81128,167.56092 h -1.70622 q -0.64457,0 -0.87207,-0.15167 -0.18957,-0.18957 -0.18957,-0.60665 0,-0.11375 0,-0.37916 0.0379,-0.30333 0.0379,-0.49291 v -0.90998 q 0,-1.06164 0.18958,-1.25122 0.18958,-0.18958 1.21331,-0.18958 h 7.81068 q 0.34124,0 0.60665,0.0379 0.26541,0 0.45499,0.0379 0.2275,0 0.41708,0.11375 0.18957,0.0758 0.26541,0.11375 0.11374,0.0379 0.26541,0.22749 0.18958,0.15167 0.22749,0.2275 0.0758,0.0379 0.26541,0.26541 0.18958,0.22749 0.26542,0.30333 l 11.52643,12.96723 q 0.15166,0.18958 0.37916,0.49291 0.26541,0.26541 0.41707,0.41708 0.15167,0.15166 0.30333,0.34124 0.18958,0.18958 0.30333,0.26541 0.11375,0.0758 0.22749,0.0758 0.45499,0 0.45499,-1.81996 v -8.87232 q 0,-0.83415 -0.15166,-1.02373 -0.15166,-0.18958 -0.75832,-0.18958 h -2.50245 q -0.45499,0 -0.60665,-0.18958 -0.15166,-0.18958 -0.15166,-0.87207 v -1.59246 q 0,-0.87207 0.15166,-1.09957 0.18958,-0.22749 0.79623,-0.22749 h 10.27521 q 0.15167,0 0.37916,0 0.26541,-0.0379 0.34124,-0.0379 0.34125,0 0.455,0.15167 0.11374,0.15166 0.11374,0.64457 v 1.59246 q 0,1.21331 -0.22749,1.44081 -0.18958,0.18958 -1.40289,0.18958 h -1.55455 q -0.49291,0 -0.64457,0.18958 -0.15167,0.18958 -0.15167,0.90998 v 22.06705 q 0,0.2275 0,0.53083 0.0379,0.30332 0.0379,0.37916 0,0.41707 -0.18958,0.56873 -0.18958,0.18958 -0.79623,0.18958 h -2.04746 q -0.49291,0 -0.87207,-0.15166 -0.37916,-0.15166 -0.56874,-0.30333 -0.15166,-0.15166 -0.45499,-0.53082 -0.26541,-0.41707 -0.37916,-0.56874 L 829.12902,173.3241 q -0.2275,-0.26542 -0.56874,-0.72041 -0.34125,-0.45499 -0.53083,-0.68248 -0.18958,-0.2275 -0.30332,-0.2275 -0.30333,0 -0.30333,1.85788 v 13.1189 q 0,0.90998 0.26541,1.13748 0.26541,0.2275 1.51664,0.2275 h 1.89579 q 0.45499,0 0.56874,0.15166 0.11375,0.11375 0.11375,0.7204 v 2.04746 q 0,0.68249 -0.2275,0.90998 -0.18958,0.18958 -0.68248,0.18958 -0.15167,0 -0.56874,-0.0379 -0.37916,0 -0.64457,0 h -8.75858 q -0.22749,0 -0.56873,0 -0.34125,0.0379 -0.45499,0.0379 -0.455,0 -0.64458,-0.18958 -0.15166,-0.22749 -0.15166,-0.90998 v -2.16121 q 0,-0.4929 0.15166,-0.60665 0.18958,-0.15166 0.87207,-0.15166 h 1.59247 q 0.87206,0 1.13748,-0.2275 0.26541,-0.26541 0.26541,-0.83415 0,-0.15166 -0.0379,-0.53082 0,-0.41708 0,-0.7204 v -17.28966 q 0,-0.53082 -0.22749,-0.68248 -0.18958,-0.18958 -1.02373,-0.18958 z"
       inkscape:connector-curvature="0" />
    <path
       id="path4684"
       style="font-style:normal;font-variant:normal;font-weight:bold;font-stretch:normal;font-size:37.91590118px;font-family:'Besley*';-inkscape-font-specification:'Besley* Bold';text-align:center;text-anchor:middle;fill:#558855;fill-opacity:1"
       d="m 884.0058,177.22947 h 14.74928 q 0.45499,0 0.60666,0.18958 0.15166,0.18958 0.15166,0.90998 v 2.04746 q 0,0.56874 -0.18958,0.72041 -0.15166,0.11374 -0.87207,0.11374 h -1.4408 q -0.9479,0 -1.13748,0.18958 -0.15166,0.18958 -0.15166,1.25123 0,1.25122 -0.15166,1.93371 -0.15167,0.68248 -0.68249,1.59247 -1.55455,2.65411 -5.04282,4.62574 -3.45034,1.97162 -7.96233,1.97162 -7.05236,0 -11.22311,-4.01908 -4.13283,-4.057 -4.13283,-10.9577 0,-6.40779 4.36032,-10.69228 4.36033,-4.2845 11.18519,-4.2845 4.13284,0 6.9007,2.3887 0.75832,0.64457 0.87206,0.64457 0.15167,0 0.72041,-0.79623 l 0.68248,-0.98581 q 0.30333,-0.455 0.56874,-0.56874 0.26541,-0.11375 1.09956,-0.11375 h 1.36497 q 0.72041,0 0.87207,0.15166 0.18958,0.15167 0.18958,0.64457 v 8.07609 q 0,0.18958 0,0.53082 0.0379,0.30333 0.0379,0.41708 0,0.45499 -0.2275,0.64457 -0.18958,0.15166 -0.87207,0.15166 h -1.89579 q -0.49291,0 -0.75832,-0.11375 -0.22749,-0.11374 -0.30333,-0.18958 -0.0758,-0.0758 -0.18957,-0.45499 -0.0758,-0.41707 -0.15167,-0.60665 -0.90998,-2.54037 -3.14702,-4.13283 -2.19912,-1.59247 -5.19448,-1.59247 -3.3366,0 -5.76321,3.07119 -2.38871,3.03327 -2.38871,7.81067 0,4.96698 1.93372,8.00026 1.93371,2.99535 5.27031,2.99535 4.01908,0 6.06654,-2.46453 0.0379,-0.0379 0.15166,-0.15166 0.11375,-0.15167 0.15167,-0.18958 0.0379,-0.0758 0.11374,-0.18958 0.11375,-0.11375 0.15167,-0.18958 0.0379,-0.0758 0.11375,-0.18958 0.0758,-0.11375 0.0758,-0.18958 0.0379,-0.11375 0.0758,-0.26541 0.0379,-0.15167 0.0379,-0.26541 0.0379,-0.15167 0.0379,-0.30333 0.0379,-0.18958 0.0379,-0.37916 v -1.4408 q 0,-0.98582 -0.18958,-1.1754 -0.15167,-0.18958 -1.02373,-0.18958 h -3.26077 q -0.60665,0 -0.83415,-0.22749 -0.18958,-0.26541 -0.18958,-1.21331 v -1.44081 q 0,-0.7204 0.15167,-0.90998 0.15166,-0.18958 0.64457,-0.18958 z"
       inkscape:connector-curvature="0" />
    <path
       id="path4686"
       style="font-style:normal;font-variant:normal;font-weight:bold;font-stretch:normal;font-size:37.91590118px;font-family:'Besley*';-inkscape-font-specification:'Besley* Bold';text-align:center;text-anchor:middle;fill:#558855;fill-opacity:1"
       d="m 913.94277,175.75075 q -1.09956,-1.13747 -1.09956,-2.69203 0,-1.55455 1.09956,-2.65411 1.13748,-1.13748 2.69203,-1.13748 1.55455,0 2.65411,1.13748 1.13748,1.09956 1.13748,2.65411 0,1.55456 -1.13748,2.69203 -1.09956,1.09956 -2.65411,1.09956 -1.55455,0 -2.69203,-1.09956 z m 0,15.92468 q -1.09956,-1.13748 -1.09956,-2.69203 0,-1.55455 1.09956,-2.65411 1.13748,-1.13748 2.69203,-1.13748 1.55455,0 2.65411,1.13748 1.13748,1.09956 1.13748,2.65411 0,1.55455 -1.13748,2.69203 -1.09956,1.09956 -2.65411,1.09956 -1.55455,0 -2.69203,-1.09956 z"
       inkscape:connector-curvature="0" />
  </g>
  <g
     aria-label="Besley*"
     transform="matrix(1.1800817,0,0,1.1800817,-195.45316,-83.843319)"
     style="font-style:normal;font-variant:normal;font-weight:500;font-stretch:normal;font-size:200px;line-height:1.25;font-family:'Besley*';-inkscape-font-specification:'Besley* Medium';text-align:center;letter-spacing:0px;word-spacing:0px;text-anchor:middle;fill:#172517;fill-opacity:1;stroke:#355635;stroke-width:1.58887304;stroke-miterlimit:4;stroke-dasharray:none;stroke-opacity:1;paint-order:stroke fill markers"
     id="flowRoot892">
    <path
       d="m 466.71979,274.98242 h 27.4 q 26,0 26,-25 0,-25 -26,-25 h -27.2 q -4.2,0 -5,1 -0.8,0.8 -0.8,5.4 v 35.6 q 0,5.2 1,6.6 1,1.4 4.6,1.4 z m 29.4,70 q 12.2,0 20,-7 8,-7 8,-21 0,-14 -7.8,-20.4 -7.8,-6.6 -20.2,-6.6 h -29.8 q -3.2,0 -4.2,1.2 -1,1.2 -1,6.2 v 42.8 q 0,3 1.2,4 1.2,0.8 5.6,0.8 z m 2,15 h -75.8 q -1.2,0 -3.2,0 -1.8,0.2 -2.6,0.2 -2.4,0 -3.4,-1 -1,-1.2 -1,-4.4 v -4.6 q 0,-3.6 0.6,-4.4 0.6,-0.8 3.2,-0.8 h 9.6 q 6.4,0 7.4,-1 1.2,-1.2 1.2,-7.8 v -107.2 q 0,-2.6 -0.6,-3.2 -0.4,-0.8 -2.2,-0.8 h -15 q -3,0 -3.6,-0.4 -0.6,-0.4 -0.6,-2.6 v -6.6 q 0,-3.4 0.8,-4.4 0.8,-1.2 3.2,-1.2 0.6,0 2,0.2 1.6,0 2.6,0 h 73.4 q 24.2,0 39,9.2 15,9.2 15,27.8 0,28.4 -33.2,35.2 18.4,2.6 28.8,11.6 10.4,8.8 10.4,24.2 0,21.4 -15.2,31.8 -15.2,10.2 -40.8,10.2 z"
       id="path908"
       inkscape:connector-curvature="0"
       style="fill:#172517;fill-opacity:1;stroke:#355635;stroke-width:1.58887304;stroke-miterlimit:4;stroke-dasharray:none;stroke-opacity:1;paint-order:stroke fill markers" />
    <path
       d="m 633.30078,284.98242 q -2.8,-20.2 -17.2,-20.2 -17,0 -21.2,24.2 -0.6,2.6 -0.6,4.2 0,2 1.2,2.6 1.2,0.4 5,0.4 h 27.4 q 6.4,0 6.4,-4.2 0,-0.8 -0.2,-1.8 -0.2,-1.2 -0.4,-2.6 -0.2,-1.6 -0.4,-2.6 z m 23.8,23.8 h -59.6 q -2.2,0 -3,0.8 -0.8,0.6 -0.8,3 v 1.6 q 0.8,16.8 6.4,26 5.8,9 19.2,9 17.6,0 25,-17.4 0,-0.2 0.6,-2.4 0.8,-2.4 1.6,-3.2 0.8,-0.8 2.6,-0.8 h 7.2 q 3.6,0 3.6,2.8 0,1.4 -2,6.8 -11,28 -41,28 -24.4,0 -38,-15.2 -13.6,-15.4 -13.6,-37.8 0,-25.6 12.6,-41.2 12.6,-15.8 38.4,-15.8 10.6,0 18.6,3 8,2.8 12.8,7.4 5,4.4 8,11.2 3.2,6.6 4.4,13.2 1.4,6.4 1.8,14.4 v 2.2 q 0,2.8 -1,3.6 -0.8,0.8 -3.8,0.8 z"
       style="fill:#172517;fill-opacity:1;stroke:#355635;stroke-width:1.58887304;stroke-miterlimit:4;stroke-dasharray:none;stroke-opacity:1;paint-order:stroke fill markers"
       id="path910"
       inkscape:connector-curvature="0" />
    <path
       d="m 745.37266,278.98242 q -4.2,-6.4 -11.4,-9.8 -7,-3.4 -13.4,-3.4 -17.6,0 -17.6,13 0,6 6.4,9.8 6.6,3.6 15.8,6.2 9.4,2.4 18.6,5.8 9.2,3.4 15.6,11 6.6,7.4 6.6,19 0,32.8 -41.4,32.8 -14.8,0 -26.4,-7 -1,-0.6 -2,-1.2 -0.8,-0.8 -1.4,-1.2 -0.4,-0.4 -0.8,-0.4 -0.8,0 -2.8,3 -0.2,0.6 -0.8,1.6 -0.4,1 -0.6,1.4 -0.2,0.2 -0.6,0.8 -0.2,0.6 -0.6,0.6 -0.2,0.2 -0.6,0.4 -0.4,0.4 -1,0.4 -0.4,0 -1.2,0 -0.6,0.2 -1.6,0.2 h -4.4 q -2.4,0 -3.2,-0.6 -0.6,-0.6 -0.6,-2.2 v -29 q 0,-3.6 0.4,-4.2 0.6,-0.6 4.2,-0.6 h 5.6 q 1.4,0 2.2,0.4 0.8,0.4 1,0.8 0.2,0.4 0.4,1.6 0.4,1 0.6,1.6 3.8,9.6 12.4,15 8.6,5.2 17.8,5.2 10,0 15.4,-4.4 5.4,-4.6 5.4,-11.2 0,-5.4 -4.6,-9 -4.6,-3.8 -11.6,-5.6 -6.8,-1.8 -14.8,-4.4 -8,-2.8 -15,-6 -6.8,-3.2 -11.4,-10 -4.6,-6.8 -4.6,-16.4 0,-14.8 10.8,-22.6 10.8,-7.8 26.2,-7.8 14.2,0 23,6 1.4,1 2.6,2.2 1.2,1 1.6,1.6 0.6,0.4 1,0.4 0.4,0 3.8,-5.4 1.6,-2.6 2.2,-3 0.8,-0.4 4.4,-0.4 h 5.2 q 1.4,0 1.8,1 0.4,0.8 0.4,3.6 v 25.8 q 0,3.2 -0.8,4.4 -0.8,1.2 -3.8,1.2 h -4.8 q -2.4,0 -3.8,-1.8 -1.4,-2 -2.4,-5 -0.8,-3.2 -1.4,-4.2 z"
       style="fill:#172517;fill-opacity:1;stroke:#355635;stroke-width:1.58887304;stroke-miterlimit:4;stroke-dasharray:none;stroke-opacity:1;paint-order:stroke fill markers"
       id="path912"
       inkscape:connector-curvature="0" />
    <path
       d="m 785.97266,216.98242 h -10 q -2,0 -2.6,-0.6 -0.4,-0.6 -0.4,-3.2 v -6 q 0,-3.4 3.4,-3.4 0.6,0 2,0.2 1.4,0 2.2,0 h 28.8 q 5.2,0 6.4,0.8 1.4,0.8 1.4,4 0,0.8 -0.2,3.2 0,2.4 0,4.2 v 120.6 q 0,1.4 -0.2,3.2 0,1.8 0,2.4 0,2.6 1.2,3.6 1.4,1 5.4,1 h 7.8 q 2.8,0 3.2,0.8 0.6,0.6 0.6,3.8 v 4.8 q 0,3.8 -3,3.8 -0.6,0 -2,-0.2 -1.4,0 -2.2,0 h -49.2 q -4,0 -4.8,-1 -0.8,-1 -0.8,-5.8 0,-0.8 -0.2,-2 0,-1.2 0,-1.6 0,-2.6 3.6,-2.6 h 7.8 q 4.4,0 5.6,-1 1.4,-1.2 1.4,-4 0,-0.6 -0.2,-2.2 0,-1.8 0,-3 v -115.8 q 0,-2.8 -0.8,-3.4 -0.6,-0.6 -4.2,-0.6 z"
       style="fill:#172517;fill-opacity:1;stroke:#355635;stroke-width:1.58887304;stroke-miterlimit:4;stroke-dasharray:none;stroke-opacity:1;paint-order:stroke fill markers"
       id="path914"
       inkscape:connector-curvature="0" />
    <path
       d="m 909.08203,284.98242 q -2.8,-20.2 -17.2,-20.2 -17,0 -21.2,24.2 -0.6,2.6 -0.6,4.2 0,2 1.2,2.6 1.2,0.4 5,0.4 h 27.4 q 6.4,0 6.4,-4.2 0,-0.8 -0.2,-1.8 -0.2,-1.2 -0.4,-2.6 -0.2,-1.6 -0.4,-2.6 z m 23.8,23.8 h -59.6 q -2.2,0 -3,0.8 -0.8,0.6 -0.8,3 v 1.6 q 0.8,16.8 6.4,26 5.8,9 19.2,9 17.6,0 25,-17.4 0,-0.2 0.6,-2.4 0.8,-2.4 1.6,-3.2 0.8,-0.8 2.6,-0.8 h 7.2 q 3.6,0 3.6,2.8 0,1.4 -2,6.8 -11,28 -41,28 -24.4,0 -38,-15.2 -13.6,-15.4 -13.6,-37.8 0,-25.6 12.6,-41.2 12.6,-15.8 38.4,-15.8 10.6,0 18.6,3 8,2.8 12.8,7.4 5,4.4 8,11.2 3.2,6.6 4.4,13.2 1.4,6.4 1.8,14.4 v 2.2 q 0,2.8 -1,3.6 -0.8,0.8 -3.8,0.8 z"
       style="fill:#172517;fill-opacity:1;stroke:#355635;stroke-width:1.58887304;stroke-miterlimit:4;stroke-dasharray:none;stroke-opacity:1;paint-order:stroke fill markers"
       id="path916"
       inkscape:connector-curvature="0" />
    <path
       d="m 976.95391,412.98242 q -13.8,0 -21.8,-8.4 -7.8,-8.2 -7.8,-19 0,-9.2 4.2,-15.2 4.4,-5.8 13,-5.8 7.2,0 11,4.2 4,4.2 4,10.6 0,6 -3,9.2 -2.8,3.2 -5.8,4.4 -2.8,1.2 -2.8,2.2 0,2.2 2.2,4 2.2,1.8 6.8,1.8 17,0 28.39999,-29 1.2,-3.4 1.2,-5.4 0,-2 -2.8,-8.6 l -38.39999,-84.4 q -0.2,-0.4 -0.6,-1.4 -0.4,-1 -0.6,-1.2 -0.2,-0.4 -0.6,-0.8 -0.4,-0.6 -1,-0.8 -0.6,-0.2 -1.4,-0.2 -0.8,-0.2 -2.2,-0.2 h -5.2 q -0.8,0 -2.2,0.2 -1.2,0 -1.6,0 -1.8,0 -2.6,-0.8 -0.6,-0.8 -0.6,-3.6 v -5.2 q 0,-2.4 0.4,-3 0.6,-0.6 2.2,-0.6 h 51.59999 q 2.8,0 3.4,0.6 0.6,0.6 0.6,2.6 v 6.8 q 0,2 -0.4,2.6 -0.4,0.4 -2,0.4 h -4.39999 q -6,0 -6,1.6 0,0.2 2.4,5.4 l 15.39999,34.6 q 3.8,8.8 6,14.6 2.2,5.6 4.2,5.6 l 3.6,-4.8 q 6.4,-17.2 6.8,-18.4 l 13.2,-33.6 1.6,-3.8 q 0,-1.2 -2.4,-1.2 h -8.4 q -2,0 -2.6,-0.6 -0.6,-0.8 -0.6,-3.6 v -4.8 q 0,-2.6 0.8,-3.4 0.8,-0.8 2.6,-0.8 0.6,0 2,0.2 1.6,0 2.6,0 h 29.2 q 0.8,0 1.8,0 1.2,-0.2 1.6,-0.2 2.4,0 2.4,3 v 6 q 0,2.8 -0.6,3.6 -0.4,0.6 -2.4,0.6 h -7.2 q -2,0 -3.2,0.8 -1.2,0.6 -1.6,1.2 -0.2,0.4 -0.8,2.2 -0.6,1.8 -0.8,2.4 l -41.6,104.8 q -7,17.8 -17.79999,25.2 -10.8,7.4 -21.4,7.4 z"
       style="fill:#172517;fill-opacity:1;stroke:#355635;stroke-width:1.58887304;stroke-miterlimit:4;stroke-dasharray:none;stroke-opacity:1;paint-order:stroke fill markers"
       id="path918"
       inkscape:connector-curvature="0" />
    <path
       d="m 1177.6883,221.18242 q 5.2,0 9.6,4.4 4.4,4.4 4.4,10.4 0,7.2 -6.6,11.2 -5.4,3.4 -17.4,5.4 -11.8,1.8 -13.2,2.2 -2.8,0.6 -2.8,1.2 0,0.6 2.8,1.2 2.6,0.8 8.2,1.6 5.6,0.8 10,1.8 4.4,0.8 9,2.6 4.8,1.6 7.4,4.8 2.6,3.2 2.6,8 0,6 -4.4,10.4 -4.4,4.4 -9.6,4.4 -4.2,0 -9.6,-3.8 -5,-4 -10.8,-11.2 -5.8,-7.2 -8,-9.4 -2.4,-2.4 -2.6,-2.2 -0.2,0.2 0.2,2.2 0.8,3.8 4.4,12.6 3.6,8.8 4.4,15.2 0.2,1.4 0.2,3.6 0,5.8 -4,9.6 -4,3.6 -10,3.6 -6,0 -10,-3.6 -4,-3.8 -4,-9.6 0,-2.2 0.2,-3.6 1,-6.2 4.2,-14.8 3.4,-8.8 4.2,-11.8 0.6,-2 0.6,-2.8 0,-0.4 -0.2,-0.4 -0.4,0 -2.4,2 -0.8,0.8 -8.4,10 -7.4,9 -13.4,12.6 -3.4,1.8 -6.6,1.8 -5.2,0 -9.6,-4.4 -4.4,-4.4 -4.4,-10.4 0,-7.2 6.6,-11.2 4,-2.4 9.2,-3.6 5.2,-1.4 11.6,-2.2 6.4,-1 9.2,-1.6 3.4,-1 3.4,-1.4 0,-0.4 -3.6,-1.4 -2.4,-0.6 -8,-1.4 -5.6,-1 -10,-1.8 -4.2,-1 -8.8,-2.6 -4.6,-1.8 -7.2,-5 -2.4,-3.2 -2.4,-7.8 0,-6 4.4,-10.4 4.4,-4.4 9.6,-4.4 4.2,0 9.6,3.8 3.4,2.6 6,5.6 2.8,3 6,7 3.2,4 4.6,5.6 3.4,3.8 4.2,3.8 0.4,0 0.4,-0.8 0,-1 -1.2,-5 -0.8,-2.4 -2.6,-6.8 -1.8,-4.4 -3.2,-8.4 -1.2,-4 -1.8,-8.2 -0.2,-1.4 -0.2,-3.6 0,-5.8 4,-9.4 4,-3.8 10,-3.8 6,0 10,3.8 4,3.6 4,9.4 0,2.2 -0.2,3.6 -0.6,4.2 -2,8.2 -1.2,3.8 -3,8.2 -1.6,4.2 -2.4,6.6 -1.2,4 -1.2,5.2 0,0.8 0.4,0.8 1,0 4.8,-4.4 0.8,-0.8 4.8,-5.8 4,-5.2 7,-8.2 3.2,-3.2 7,-5.4 3.4,-1.8 6.6,-1.8 z"
       style="fill:#471313;fill-opacity:1;stroke:#355635;stroke-width:1.58887304;stroke-miterlimit:4;stroke-dasharray:none;stroke-opacity:1;paint-order:stroke fill markers"
       id="path920"
       inkscape:connector-curvature="0" />
  </g>
</svg>
