<?xml version="1.0" encoding="UTF-8" standalone="no"?>
<!-- Created with Inkscape (http://www.inkscape.org/) -->

<svg
   xmlns:dc="http://purl.org/dc/elements/1.1/"
   xmlns:cc="http://creativecommons.org/ns#"
   xmlns:rdf="http://www.w3.org/1999/02/22-rdf-syntax-ns#"
   xmlns:svg="http://www.w3.org/2000/svg"
   xmlns="http://www.w3.org/2000/svg"
   xmlns:sodipodi="http://sodipodi.sourceforge.net/DTD/sodipodi-0.dtd"
   xmlns:inkscape="http://www.inkscape.org/namespaces/inkscape"
   version="1.1"
   id="svg2"
   width="1600"
   height="640"
   viewBox="0 0 1600 640"
   sodipodi:docname="Bodoni.svg"
   inkscape:version="0.92.3 (2405546, 2018-03-11)">
  <metadata
     id="metadata8">
    <rdf:RDF>
      <cc:Work
         rdf:about="">
        <dc:format>image/svg+xml</dc:format>
        <dc:type
           rdf:resource="http://purl.org/dc/dcmitype/StillImage" />
        <dc:title></dc:title>
      </cc:Work>
    </rdf:RDF>
  </metadata>
  <defs
     id="defs6" />
  <sodipodi:namedview
     pagecolor="#ffffff"
     bordercolor="#666666"
     borderopacity="1"
     objecttolerance="10"
     gridtolerance="10"
     guidetolerance="10"
     inkscape:pageopacity="0"
     inkscape:pageshadow="2"
     inkscape:window-width="1920"
     inkscape:window-height="1052"
     id="namedview4"
     showgrid="false"
     inkscape:zoom="0.7075"
     inkscape:cx="683.49697"
     inkscape:cy="245.31935"
     inkscape:window-x="0"
     inkscape:window-y="0"
     inkscape:window-maximized="1"
     inkscape:current-layer="svg2" />
  <g
     aria-label="Bodoni*"
     transform="matrix(7.0802058,0,0,7.0802058,-1583.7725,-264.087)"
     style="font-style:normal;font-variant:normal;font-weight:normal;font-stretch:normal;font-size:40px;line-height:1.25;font-family:'Bodoni*';-inkscape-font-specification:'Bodoni*';letter-spacing:0px;word-spacing:0px;fill:#000000;fill-opacity:1;stroke:none"
     id="flowRoot817">
    <path
       d="m 279.53867,65.333203 h -4.4 v -0.317522 h 4.4 c 1.70667,0 3.13333,-0.789145 4.28,-1.802478 1.14667,-1.04 1.72,-2.666667 1.72,-4.88 0,-2.24 -0.58667,-3.96 -1.76,-5.16 -1.17333,-1.226667 -2.58716,-2.162727 -4.24,-2.122478 h -11.6 v -0.517522 h 11.6 c 3.14667,0 5.6,0.613333 7.36,1.84 1.76,1.2 2.64,3.053333 2.64,5.56 0,4.933333 -3.33333,7.4 -10,7.4 z m -8,-14.8 h 3.8 v 30 h -3.8 z m 8.8,30 h -12.4 v -0.517522 h 12 c 1.78667,0 3.29333,-0.975811 4.52,-2.362478 1.25333,-1.386667 1.88,-3.226667 1.88,-5.52 0,-2.24 -0.6,-3.893333 -1.8,-4.96 -1.2,-1.093333 -2.73333,-1.64 -4.6,-1.64 h -4.8 v -0.317522 h 5.2 c 3.06667,0 5.56,0.304189 7.48,1.477522 1.94667,1.173333 2.92,2.986667 2.92,5.44 0,5.6 -3.46667,8.4 -10.4,8.4 z"
       id="path839"
       inkscape:connector-curvature="0"
       sodipodi:nodetypes="sccscscsccscsscccccsccscscsccscss"
       style="fill:#000000" />
    <path
       d="m 302.93305,62.250725 c -3.30667,0 -4.96,3.215811 -4.96,9.082478 0,5.866667 1.65333,9.082478 4.96,9.082478 3.30667,0 4.96,-3.215811 4.96,-9.082478 0,-5.866667 -1.65333,-9.082478 -4.96,-9.082478 z m -6.64,15.922478 c -1.68,-1.866667 -2.52,-4.146667 -2.52,-6.84 0,-2.693333 0.84,-4.96 2.52,-6.8 1.68,-1.866667 3.89333,-2.8 6.64,-2.8 2.74667,0 4.96,0.933333 6.64,2.8 1.68,1.84 2.52,4.106667 2.52,6.8 0,2.693333 -0.84,4.973333 -2.52,6.84 -1.68,1.84 -3.89333,2.76 -6.64,2.76 -2.74667,0 -4.96,-0.92 -6.64,-2.76 z"
       id="path841"
       inkscape:connector-curvature="0"
       sodipodi:nodetypes="ssssscscscscsc"
       style="fill:#000000" />
    <path
       d="m 329.0518,64.253203 c 1.17333,1.653333 1.76,4.013333 1.76,7.08 0,3.066667 -0.58667,5.44 -1.76,7.12 -1.17333,1.653333 -2.86667,2.48 -5.08,2.48 -2.29333,0 -4.28,-0.88 -5.96,-2.64 -1.68,-1.76 -2.52,-4.08 -2.52,-6.96 0,-2.88 0.84,-5.186667 2.52,-6.92 1.68,-1.76 3.66667,-2.64 5.96,-2.64 2.21333,0 3.90667,0.826667 5.08,2.48 z m -0.15752,13.32 c 1.06666,-1.44 1.31752,-3.52 1.31752,-6.24 0,-2.72 -0.23752,-4.786667 -1.27752,-6.2 -1.04,-1.44 -2.61581,-2.442478 -4.16248,-2.442478 -1.68,0 -2.94667,1.002478 -3.8,2.442478 -0.85333,1.44 -1.28,3.506667 -1.28,6.2 0,2.693333 0.42667,4.773333 1.28,6.24 0.88,1.44 2.14667,2.442478 3.8,2.442478 1.52,0 3.08248,-1.002478 4.12248,-2.442478 z m 7.71752,2.442478 v 0.517522 h -6.4 V 51.050725 h -2.8 v -0.517522 h 6.4 v 29.482478 z"
       id="path843"
       inkscape:connector-curvature="0"
       sodipodi:nodetypes="sscssscsscscssscscccccccccc"
       style="fill:#000000" />
    <path
       d="m 347.93305,62.250725 c -3.30667,0 -4.96,3.215811 -4.96,9.082478 0,5.866667 1.65333,9.082478 4.96,9.082478 3.30667,0 4.96,-3.215811 4.96,-9.082478 0,-5.866667 -1.65333,-9.082478 -4.96,-9.082478 z m -6.64,15.922478 c -1.68,-1.866667 -2.52,-4.146667 -2.52,-6.84 0,-2.693333 0.84,-4.96 2.52,-6.8 1.68,-1.866667 3.89333,-2.8 6.64,-2.8 2.74667,0 4.96,0.933333 6.64,2.8 1.68,1.84 2.52,4.106667 2.52,6.8 0,2.693333 -0.84,4.973333 -2.52,6.84 -1.68,1.84 -3.89333,2.76 -6.64,2.76 -2.74667,0 -4.96,-0.92 -6.64,-2.76 z"
       id="path845"
       inkscape:connector-curvature="0"
       sodipodi:nodetypes="ssssscscscscsc"
       style="fill:#000000" />
    <path
       d="m 374.8918,68.213203 c 0,-3.52 -1.08,-5.562478 -3.24,-5.562478 -1.62667,0 -3.21581,1.175811 -4.20248,2.962478 -0.96,1.76 -1.15752,3.76 -1.15752,6 h -0.6 c 0,-0.88 0.0533,-1.746667 0.16,-2.6 0.13333,-0.853333 0.36,-1.733333 0.68,-2.64 0.34667,-0.906667 0.77333,-1.693333 1.28,-2.36 0.53333,-0.666667 1.22667,-1.213333 2.08,-1.64 0.85333,-0.426667 1.82667,-0.64 2.92,-0.64 3.78667,0 5.68,2.013333 5.68,6.04 v 12.76 h -3.6 z m -2.8,11.802478 h 9.2 v 0.517522 h -9.2 z m -12.2,0 h 9.2 v 0.517522 h -9.2 z m 2.8,-17.364956 h -2.8 v -0.517522 h 6.4 v 18.4 h -3.6 z"
       id="path847"
       inkscape:connector-curvature="0"
       sodipodi:nodetypes="ssccccccsssccsccccccccccccccccc"
       style="fill:#000000" />
    <path
       d="m 383.68555,80.015681 h 9.2 v 0.517522 h -9.2 z m 2.48,-25.762478 c -0.45333,-0.48 -0.68,-1.053333 -0.68,-1.72 0,-0.666667 0.22667,-1.226667 0.68,-1.68 0.48,-0.48 1.05333,-0.72 1.72,-0.72 0.66667,0 1.22667,0.24 1.68,0.72 0.48,0.453333 0.72,1.013333 0.72,1.68 0,0.666667 -0.24,1.24 -0.72,1.72 -0.45333,0.453333 -1.01333,0.68 -1.68,0.68 -0.66667,0 -1.24,-0.226667 -1.72,-0.68 z m 0.32,8.397522 h -2.8 v -0.517522 h 6.4 v 18.4 h -3.6 z"
       id="path849"
       inkscape:connector-curvature="0"
       sodipodi:nodetypes="ccccccssscssscccccccc"
       style="fill:#000000" />
    <path
       d="m 414.88242,57.573203 q -0.84,0.32 -3.08,0.8 -2.2,0.44 -4.4,1.72 l -0.4,-0.68 q 2.2,-1.28 3.68,-2.96 1.52,-1.72 2.24,-2.28 0.2,-0.16 0.56,-0.4 1,-0.56 1.84,-0.36 0.84,0.16 1.28,0.92 0.44,0.76 0.16,1.56 -0.28,0.8 -1.28,1.36 -0.36,0.24 -0.6,0.32 z m -15.44,4.32 q 0.84,-0.32 3.04,-0.76 2.24,-0.48 4.44,-1.76 l 0.4,0.68 q -2.2,1.28 -3.72,3 -1.48,1.68 -2.2,2.24 -0.2,0.16 -0.56,0.4 -1,0.56 -1.84,0.4 -0.84,-0.2 -1.28,-0.96 -0.44,-0.76 -0.16,-1.56 0.28,-0.8 1.28,-1.36 0.36,-0.24 0.6,-0.32 z m 13.4,3.44 q -0.68,-0.56 -2.2,-2.24 -1.48,-1.72 -3.68,-3 l 0.4,-0.68 q 2.2,1.28 4.4,1.76 2.24,0.44 3.04,0.76 0.28,0.08 0.64,0.32 1,0.56 1.28,1.4 0.28,0.8 -0.16,1.56 -0.44,0.76 -1.28,0.92 -0.84,0.16 -1.84,-0.4 -0.36,-0.24 -0.6,-0.4 z m -11.36,-11.2 q 0.68,0.56 2.16,2.28 1.52,1.68 3.72,2.96 l -0.4,0.68 q -2.2,-1.28 -4.44,-1.72 -2.2,-0.48 -3,-0.8 -0.28,-0.08 -0.64,-0.32 -1,-0.56 -1.28,-1.36 -0.28,-0.84 0.16,-1.6 0.44,-0.76 1.28,-0.92 0.84,-0.16 1.84,0.4 0.36,0.24 0.6,0.4 z m 3.68,13.32 q 0.12,-0.88 0.84,-3 0.72,-2.16 0.72,-4.72 h 0.8 q 0,2.56 0.72,4.72 0.72,2.12 0.84,3 0.04,0.28 0.04,0.72 0,1.16 -0.56,1.8 -0.56,0.64 -1.44,0.64 -0.88,0 -1.44,-0.64 -0.56,-0.64 -0.56,-1.8 0,-0.44 0.04,-0.72 z m 4,-15.44 q -0.12,0.88 -0.84,3.04 -0.72,2.12 -0.72,4.68 h -0.8 q 0,-2.56 -0.72,-4.68 -0.72,-2.16 -0.84,-3.04 -0.04,-0.28 -0.04,-0.72 0,-1.16 0.56,-1.8 0.56,-0.64 1.44,-0.64 0.88,0 1.44,0.64 0.56,0.64 0.56,1.8 0,0.44 -0.04,0.72 z"
       style="fill:#000000"
       id="path851" />
  </g>
</svg>
