<?xml version="1.0" encoding="UTF-8" standalone="no"?>
<!-- Created with Inkscape (http://www.inkscape.org/) -->

<svg
   xmlns:dc="http://purl.org/dc/elements/1.1/"
   xmlns:cc="http://creativecommons.org/ns#"
   xmlns:rdf="http://www.w3.org/1999/02/22-rdf-syntax-ns#"
   xmlns:svg="http://www.w3.org/2000/svg"
   xmlns="http://www.w3.org/2000/svg"
   xmlns:sodipodi="http://sodipodi.sourceforge.net/DTD/sodipodi-0.dtd"
   xmlns:inkscape="http://www.inkscape.org/namespaces/inkscape"
   version="1.1"
   id="svg2"
   width="1600"
   height="640"
   viewBox="0 0 1600 640"
   sodipodi:docname="BodoniAbout.svg"
   inkscape:version="0.92.3 (2405546, 2018-03-11)">
  <metadata
     id="metadata8">
    <rdf:RDF>
      <cc:Work
         rdf:about="">
        <dc:format>image/svg+xml</dc:format>
        <dc:type
           rdf:resource="http://purl.org/dc/dcmitype/StillImage" />
        <dc:title></dc:title>
      </cc:Work>
    </rdf:RDF>
  </metadata>
  <defs
     id="defs6" />
  <sodipodi:namedview
     pagecolor="#ffffff"
     bordercolor="#666666"
     borderopacity="1"
     objecttolerance="10"
     gridtolerance="10"
     guidetolerance="10"
     inkscape:pageopacity="0"
     inkscape:pageshadow="2"
     inkscape:window-width="1920"
     inkscape:window-height="1052"
     id="namedview4"
     showgrid="false"
     inkscape:zoom="0.50027805"
     inkscape:cx="708.63606"
     inkscape:cy="285.34058"
     inkscape:window-x="0"
     inkscape:window-y="0"
     inkscape:window-maximized="1"
     inkscape:current-layer="svg2" />
  <path
     style="opacity:1;vector-effect:none;fill:#214478;fill-opacity:1;stroke:none;stroke-width:1.06422758px;stroke-linecap:butt;stroke-linejoin:miter;stroke-miterlimit:4;stroke-dasharray:none;stroke-dashoffset:0;stroke-opacity:1;paint-order:stroke fill markers"
     d="M 0,2.7179718e-5 H 1600 V 640.00003 H 0 Z"
     id="rect830" />
  <g
     aria-label="Bodoni*"
     transform="matrix(7.3393258,0,0,7.3393258,-5054.2597,-412.20587)"
     style="font-style:normal;font-variant:normal;font-weight:normal;font-stretch:normal;font-size:40px;line-height:1.25;font-family:'Bodoni* 48';-inkscape-font-specification:'Bodoni* 48, ';text-align:center;letter-spacing:0px;word-spacing:0px;text-anchor:middle;fill:#e6e6e6;fill-opacity:1;stroke:none;stroke-width:0.28247765;stroke-miterlimit:4;stroke-dasharray:none;stroke-opacity:1;paint-order:stroke fill markers"
     id="flowRoot832">
    <path
       d="m 743.4168,98.908203 c 6.44,0 10.4,-2.4 10.4,-8.4 0,-4.72 -3.92,-6.68 -8.84,-7.04 4.96,-0.48 7.64,-2.64 7.64,-7.16 0,-5.2 -3.96,-7.4 -10,-7.4 h -11.6 v 0.16 h 3.6 v 29.68 h -3.6 v 0.16 z m -0.8,-29.84 c 3.04,0 6,2.88 6,7.64 0,4.76 -2.96,6.72 -6,6.72 h -4.2 v -14.36 z m 6.8,21.44 c 0,4.76 -2.96,8.24 -6.4,8.24 h -4.6 v -15.16 h 4.6 c 3.44,0 6.4,2.16 6.4,6.92 z"
       style=""
       id="path896" />
    <path
       d="m 756.89117,89.708203 c 0,5.2 3.52,9.6 9.16,9.6 5.64,0 9.16,-4.4 9.16,-9.6 0,-5.2 -3.52,-9.6 -9.16,-9.6 -5.64,0 -9.16,4.4 -9.16,9.6 z m 4.2,0 c 0,-3.76 0.6,-9.44 4.96,-9.44 4.36,0 4.96,5.68 4.96,9.44 0,3.76 -0.6,9.44 -4.96,9.44 -4.36,0 -4.96,-5.68 -4.96,-9.44 z"
       style=""
       id="path898" />
    <path
       d="m 798.74492,98.748203 h -2.44 v -29.84 h -6.08 v 0.16 h 2.48 v 18.36 c -0.52,-4.68 -2.72,-7.28 -6.24,-7.28 -4.36,0 -8.48,3.56 -8.48,9.56 0,6 4.12,9.6 8.48,9.6 3.52,0 5.72,-2.64 6.24,-7.32 v 6.92 h 6.04 z m -6.04,-9.04 c 0,6.12 -2.56,9.2 -5.64,9.2 -3.36,0 -4.88,-3.84 -4.88,-9.2 0,-5.36 1.52,-9.16 4.88,-9.16 3.08,0 5.64,3.04 5.64,9.16 z"
       style=""
       id="path900" />
    <path
       d="m 800.32867,89.708203 c 0,5.2 3.52,9.6 9.16,9.6 5.64,0 9.16,-4.4 9.16,-9.6 0,-5.2 -3.52,-9.6 -9.16,-9.6 -5.64,0 -9.16,4.4 -9.16,9.6 z m 4.2,0 c 0,-3.76 0.6,-9.44 4.96,-9.44 4.36,0 4.96,5.68 4.96,9.44 0,3.76 -0.6,9.44 -4.96,9.44 -4.36,0 -4.96,-5.68 -4.96,-9.44 z"
       style=""
       id="path902" />
    <path
       d="m 820.82242,98.748203 v 0.16 h 8.52 v -0.16 h -2.48 v -8.76 c 0,-3.64 0.6,-9.56 6.04,-9.56 2.24,0 2.56,2.8 2.56,6.16 v 12.16 h -2.44 v 0.16 h 8.52 v -0.16 h -2.48 v -12.6 c 0,-3.48 -1.04,-6.04 -5.68,-6.04 -4.84,0 -6.16,3.76 -6.52,7.2 v -6.8 h -6.04 v 0.16 h 2.44 v 18.08 z"
       style=""
       id="path904" />
    <path
       d="m 844.80617,70.908203 c 0,1.32 1.08,2.4 2.4,2.4 1.32,0 2.4,-1.08 2.4,-2.4 0,-1.32 -1.08,-2.4 -2.4,-2.4 -1.32,0 -2.4,1.08 -2.4,2.4 z m -1.44,27.84 v 0.16 h 8.52 v -0.16 h -2.48 v -18.24 h -6.04 v 0.16 h 2.44 v 18.08 z"
       style=""
       id="path906" />
    <path
       d="m 863.55305,85.828203 c -0.04,0.28 -0.04,0.48 -0.04,0.72 0,1.56 0.84,2.44 2,2.44 1.16,0 2,-0.88 2,-2.44 0,-0.24 0,-0.44 -0.04,-0.72 -0.44,-2.96 -1.84,-3.32 -1.88,-7.56 3.72,2.12 3.28,3.56 5.64,5.44 0.24,0.16 0.4,0.24 0.6,0.36 1.36,0.8 2.56,0.52 3.12,-0.48 0.6,-1.04 0.24,-2.2 -1.12,-2.96 -0.2,-0.12 -0.36,-0.24 -0.64,-0.32 -2.76,-1.12 -3.76,-0.08 -7.48,-2.16 3.72,-2.16 4.72,-1.04 7.52,-2.16 0.28,-0.12 0.44,-0.24 0.64,-0.36 1.36,-0.76 1.72,-1.92 1.12,-2.92 -0.56,-1.04 -1.76,-1.32 -3.12,-0.52 -0.2,0.12 -0.36,0.2 -0.6,0.4 -2.32,1.84 -1.92,3.24 -5.6,5.4 0,-4.28 1.44,-4.6 1.88,-7.6 0.04,-0.28 0.04,-0.48 0.04,-0.72 0,-1.56 -0.84,-2.44 -2,-2.44 -1.16,0 -2,0.88 -2,2.44 0,0.24 0,0.44 0.04,0.72 0.44,2.96 1.84,3.32 1.88,7.56 -3.72,-2.12 -3.28,-3.56 -5.64,-5.44 -0.24,-0.16 -0.4,-0.24 -0.6,-0.36 -1.36,-0.8 -2.56,-0.52 -3.12,0.48 -0.6,1.04 -0.24,2.2 1.12,2.96 0.2,0.12 0.36,0.24 0.64,0.32 2.76,1.12 3.76,0.08 7.48,2.16 -3.72,2.16 -4.72,1.04 -7.52,2.16 -0.28,0.12 -0.44,0.24 -0.64,0.36 -1.36,0.76 -1.72,1.92 -1.12,2.92 0.56,1.04 1.76,1.32 3.12,0.52 0.2,-0.12 0.36,-0.2 0.6,-0.4 2.32,-1.84 1.92,-3.24 5.6,-5.4 0,4.28 -1.44,4.6 -1.88,7.6 z"
       style="fill:#ff5555;fill-opacity:1"
       id="path908" />
  </g>
  <g
     aria-label="Reliably Elegant"
     transform="matrix(2.4562121,0,0,2.4562121,-1151.5872,258.96689)"
     style="font-style:italic;font-variant:normal;font-weight:900;font-stretch:normal;font-size:40px;line-height:1.25;font-family:'Bodoni* 16';-inkscape-font-specification:'Bodoni* 16 Heavy Italic';text-align:center;letter-spacing:0px;word-spacing:0px;text-anchor:middle;fill:#122541;fill-opacity:1;stroke:none;stroke-width:0.28247765;stroke-miterlimit:4;stroke-dasharray:none;stroke-opacity:1;paint-order:stroke fill markers"
     id="flowRoot874">
    <path
       d="m 624.51992,98.348203 v 0.56 h 16.6 v -0.56 h -4.28 l 3.4,-14.56 h 0.68 c 9.84,0 -4.12,15.52 8.8,15.52 2.24,0 4.16,-0.32 5.6,-0.88 l -0.16,-0.52 c -0.64,0.24 -1.2,0.48 -1.88,0.48 -4,0 5.6,-14.08 -8.32,-14.84 7.16,-0.4 12.16,-3.44 12.16,-8.64 0,-4.4 -4.56,-6 -9.8,-6 h -16.2 v 0.56 h 3.88 l -6.76,28.88 z m 20,-28.88 c 3.2,0 4,1.88 4,3.84 0,3.16 -1.36,9.92 -7.2,9.92 h -0.96 l 3.24,-13.76 z"
       style=""
       id="path911" />
    <path
       d="m 666.44055,95.268203 c 0,-1.32 0.16,-2.84 0.48,-4.32 4.6,-0.16 12.32,-1.64 12.32,-6.52 0,-2.88 -3.64,-4.32 -7.72,-4.32 -6.44,0 -13.24,5.48 -13.24,12.8 0,4.8 3.92,6.4 8.36,6.4 4.44,0 8.44,-3.04 10.4,-6.12 h -0.52 c -1.96,2.92 -5.32,4.96 -7.48,4.96 -1.56,0 -2.6,-1.12 -2.6,-2.88 z m 5.24,-14.68 c 0.8,0 0.92,1.4 0.92,2.48 0,4.68 -3.56,6.8 -5.6,7.32 1.04,-4.88 3.24,-9.8 4.68,-9.8 z"
       style=""
       id="path913" />
    <path
       d="m 694.68117,92.388203 -0.52,-0.16 c -1.08,3.04 -3.56,5.48 -5.28,5.48 -0.52,0 -0.72,-0.4 -0.72,-0.84 0,-0.2 0.04,-0.48 0.08,-0.72 l 6.24,-27.24 h -11.32 v 0.56 h 3.64 l -5.8,25.24 c -0.04,0.24 -0.08,0.68 -0.08,0.88 0,2.8 1.56,3.72 4.64,3.72 4.44,0 7.6,-2.92 9.12,-6.92 z"
       style=""
       id="path915" />
    <path
       d="m 701.32742,72.908203 c 0,2.52 1.88,4.4 4.4,4.4 2.52,0 4.4,-1.88 4.4,-4.4 0,-2.52 -1.88,-4.4 -4.4,-4.4 -2.52,0 -4.4,1.88 -4.4,4.4 z m 10.16,19.48 -0.52,-0.16 c -1.08,3 -3.52,5.48 -5.28,5.48 -0.52,0 -0.72,-0.4 -0.72,-0.84 0,-0.2 0.04,-0.48 0.08,-0.72 l 3.96,-15.64 h -10.88 v 0.56 h 3.16 l -3.48,13.64 c -0.08,0.24 -0.08,0.68 -0.08,0.88 0,2.8 1.56,3.72 4.64,3.72 4.44,0 7.6,-2.92 9.12,-6.92 z"
       style=""
       id="path917" />
    <path
       d="m 738.53367,92.388203 -0.52,-0.16 c -0.96,2.72 -3.36,5.44 -5.32,5.44 -0.52,0 -0.72,-0.36 -0.72,-0.8 0,-0.2 0.04,-0.48 0.08,-0.72 l 4.4,-15.64 h -7.32 l -1.52,5.32 c -0.12,-3.4 -1.36,-5.68 -4.24,-5.68 -4.36,0 -10.64,4.36 -10.64,12.36 0,5.2 3.6,6.8 6.36,6.8 3.16,0 5.48,-2.72 6.88,-5.88 l -0.36,1.52 c -0.08,0.28 -0.12,0.84 -0.12,1.04 0,2.04 0.84,3.32 3.92,3.32 4.44,0 7.6,-2.92 9.12,-6.92 z m -11.36,-6.04 c 0,4.16 -2.64,10.48 -4.88,10.48 -0.84,0 -1.4,-1.04 -1.4,-2.56 0,-5.36 3,-11.68 4.76,-11.68 1,0 1.52,1.64 1.52,3.76 z"
       style=""
       id="path919" />
    <path
       d="m 746.62367,69.468203 -5.64,24.64 c 2.8,4.12 6,5.2 8.44,5.2 7.16,0 14.08,-4.4 14.08,-12.8 0,-5.12 -3.6,-6.36 -6.28,-6.36 -2.56,0 -5.08,1.68 -6.8,5.76 l 3.92,-17 h -10.72 v 0.56 z m 1.64,25.84 1.4,-6.08 c 1.12,-4.28 3.08,-6.6 4.28,-6.6 0.84,0 1.4,1.36 1.4,2.72 0,5.36 -3.64,13.24 -5.8,13.24 -0.84,0 -1.28,-1.52 -1.28,-3.28 z"
       style=""
       id="path921" />
    <path
       d="m 779.52492,92.388203 -0.52,-0.16 c -1.08,3.04 -3.56,5.48 -5.28,5.48 -0.52,0 -0.72,-0.4 -0.72,-0.84 0,-0.2 0.04,-0.48 0.08,-0.72 l 6.24,-27.24 h -11.32 v 0.56 h 3.64 l -5.8,25.24 c -0.04,0.24 -0.08,0.68 -0.08,0.88 0,2.8 1.56,3.72 4.64,3.72 4.44,0 7.6,-2.92 9.12,-6.92 z"
       style=""
       id="path923" />
    <path
       d="m 786.0793,109.3082 c 7.28,0 20.76,-19.439997 20.76,-24.639997 0,-2.44 -1.68,-4.56 -4.52,-4.56 -2.68,0 -4.12,1.88 -4.12,3.88 0,1.8 1.48,3.88 4.04,3.88 2.24,0 3.68,-1.56 3.96,-3.4 v 0.24 c 0,2.36 -3.08,8 -7.04,13.24 -2.56,-3.96 -3.92,-10.16 -5,-13.68 -0.84,-2.72 -2.52,-4.16 -5.72,-4.16 -3.28,0 -6.4,1.32 -7.72,4.92 l 0.52,0.24 c 0.8,-2.28 2.32,-3.44 3.36,-3.44 0.72,0 1.12,0.6 1.28,1.04 1.08,2.88 4.08,15 7.8,21.359997 -2.76,2.68 -5.52,4.52 -7.68,4.52 -4.12,0 -5.48,-3.16 -5.52,-4.6 0.48,1.36 1.72,2.48 3.56,2.48 2.2,0 3.68,-1.64 3.68,-3.76 0,-2.32 -1.64,-3.759997 -3.84,-3.759997 -2.32,0 -4.08,2.119997 -4.08,4.639997 0,2.2 1.76,5.56 6.28,5.56 z"
       style=""
       id="path925" />
    <path
       d="m 831.88055,83.668203 c 2.28,0 3.6,2.64 4.2,5.32 h 0.56 l 2.56,-11 h -0.56 c -1.8,2.68 -4.48,5.12 -6.76,5.12 h -0.64 l 3.16,-13.64 h 2.72 c 4.68,0 7.12,3.36 7.32,7.64 h 0.56 l 1.92,-8.2 h -24.6 v 0.56 h 3.48 l -6.72,28.88 h -3.52 v 0.56 h 24.8 l 2.08,-9 h -0.56 c -2.36,5.08 -6.24,8.44 -11.72,8.44 h -2.48 l 3.4,-14.68 z"
       style=""
       id="path927" />
    <path
       d="m 859.36867,92.388203 -0.52,-0.16 c -1.08,3.04 -3.56,5.48 -5.28,5.48 -0.52,0 -0.72,-0.4 -0.72,-0.84 0,-0.2 0.04,-0.48 0.08,-0.72 l 6.24,-27.24 h -11.32 v 0.56 h 3.64 l -5.8,25.24 c -0.04,0.24 -0.08,0.68 -0.08,0.88 0,2.8 1.56,3.72 4.64,3.72 4.44,0 7.6,-2.92 9.12,-6.92 z"
       style=""
       id="path929" />
    <path
       d="m 869.56555,95.268203 c 0,-1.32 0.16,-2.84 0.48,-4.32 4.6,-0.16 12.32,-1.64 12.32,-6.52 0,-2.88 -3.64,-4.32 -7.72,-4.32 -6.44,0 -13.24,5.48 -13.24,12.8 0,4.8 3.92,6.4 8.36,6.4 4.44,0 8.44,-3.04 10.4,-6.12 h -0.52 c -1.96,2.92 -5.32,4.96 -7.48,4.96 -1.56,0 -2.6,-1.12 -2.6,-2.88 z m 5.24,-14.68 c 0.8,0 0.92,1.4 0.92,2.48 0,4.68 -3.56,6.8 -5.6,7.32 1.04,-4.88 3.24,-9.8 4.68,-9.8 z"
       style=""
       id="path931" />
    <path
       d="m 894.50742,92.508203 c 5.64,0 10.72,-3 10.72,-7.4 0,-0.92 -0.24,-1.68 -0.64,-2.32 1.36,-1.48 2.68,-1.92 4.08,-1.92 1.28,0 2.52,0.6 2.84,1.88 -0.16,-0.48 -1.28,-1.08 -2.24,-1.08 -1.72,0 -2.88,1.36 -2.88,2.88 0,2.12 1.6,3 3,3 1.4,0 3.04,-0.92 3.04,-3.52 0,-1.8 -1.08,-3.72 -3.76,-3.72 -1.36,0 -2.92,0.52 -4.44,2 -1.32,-1.56 -3.88,-2.2 -6.92,-2.2 -5.64,0 -10.72,3 -10.72,7.4 0,2.68 1.92,4.12 4.72,4.72 -3.4,0.44 -6.64,1.72 -6.64,4.72 0,1.56 1.16,2.88 2.96,3.639997 -2.44,0.24 -6.2,1.08 -6.2,4 0,3.64 6.6,4.72 11.52,4.72 5.2,0 11.88,-2.28 11.88,-8.72 0,-3.439997 -1.96,-5.679997 -6.16,-5.679997 -1.12,0 -4.24,0.04 -5.64,0.04 -2.2,0 -3.6,-0.28 -3.6,-0.96 0,-0.88 1.8,-1.36 3.28,-1.56 0.6,0.04 1.2,0.08 1.8,0.08 z m 0.2,-0.56 c -0.76,0 -0.76,-1.08 -0.76,-2.04 0,-3.76 2,-9.24 3.16,-9.24 0.76,0 0.76,1.08 0.76,2.04 0,3.76 -2,9.24 -3.16,9.24 z m -7.36,12.399997 c 0,-1.6 0.68,-2.72 1.44,-3.36 0.72,0.16 1.56,0.28 2.4,0.28 h 6.72 c 2.2,0 3.68,0.56 3.68,2.72 0,3.84 -5.08,4.76 -8.24,4.76 -3.84,0 -6,-1.44 -6,-4.4 z"
       style=""
       id="path933" />
    <path
       d="m 938.68992,92.388203 -0.52,-0.16 c -0.96,2.72 -3.36,5.44 -5.32,5.44 -0.52,0 -0.72,-0.36 -0.72,-0.8 0,-0.2 0.04,-0.48 0.08,-0.72 l 4.4,-15.64 h -7.32 l -1.52,5.32 c -0.12,-3.4 -1.36,-5.68 -4.24,-5.68 -4.36,0 -10.64,4.36 -10.64,12.36 0,5.2 3.6,6.8 6.36,6.8 3.16,0 5.48,-2.72 6.88,-5.88 l -0.36,1.52 c -0.08,0.28 -0.12,0.84 -0.12,1.04 0,2.04 0.84,3.32 3.92,3.32 4.44,0 7.6,-2.92 9.12,-6.92 z m -11.36,-6.04 c 0,4.16 -2.64,10.48 -4.88,10.48 -0.84,0 -1.4,-1.04 -1.4,-2.56 0,-5.36 3,-11.68 4.76,-11.68 1,0 1.52,1.64 1.52,3.76 z"
       style=""
       id="path935" />
    <path
       d="m 943.93055,81.068203 -4.28,17.84 h 7.6 l 2,-8.24 c 1.52,-5.44 3.72,-9.32 5.32,-9.32 1.04,0 0.6,2.32 -0.44,5.36 l -2.52,7.32 c -0.12,0.44 -0.2,0.92 -0.2,1.52 0,2.52 1.84,3.76 5.32,3.76 4.44,0 6.8,-2.92 8.32,-6.92 l -0.52,-0.16 c -1.08,3.04 -3.2,5.92 -5.24,5.92 -0.52,0 -0.76,-0.28 -0.76,-0.72 0,-0.2 0.04,-0.48 0.12,-0.72 l 3.28,-9.68 c 1.44,-4.28 -1.08,-6.92 -5.36,-6.92 -3.28,0 -4.96,2.56 -6.24,6.08 l 1.36,-5.68 h -10.4 v 0.56 z"
       style=""
       id="path937" />
    <path
       d="m 981.52555,92.388203 -0.52,-0.16 c -0.96,2.64 -3.32,5.4 -5.36,5.4 -0.52,0 -0.72,-0.32 -0.72,-0.76 0,-0.2 0.04,-0.48 0.08,-0.72 l 3.76,-15.08 h 4.04 v -0.56 h -3.88 l 1,-4 h -7.56 l -1,4 h -3.36 v 0.56 h 3.2 l -3.44,13.64 c -0.08,0.24 -0.12,0.68 -0.12,0.88 0,2.8 1.68,3.72 4.76,3.72 4.44,0 7.6,-2.92 9.12,-6.92 z"
       style=""
       id="path939" />
  </g>
</svg>
