<?xml version="1.0" encoding="UTF-8" standalone="no"?>
<!-- Created with Inkscape (http://www.inkscape.org/) -->

<svg
   xmlns:dc="http://purl.org/dc/elements/1.1/"
   xmlns:cc="http://creativecommons.org/ns#"
   xmlns:rdf="http://www.w3.org/1999/02/22-rdf-syntax-ns#"
   xmlns:svg="http://www.w3.org/2000/svg"
   xmlns="http://www.w3.org/2000/svg"
   xmlns:sodipodi="http://sodipodi.sourceforge.net/DTD/sodipodi-0.dtd"
   xmlns:inkscape="http://www.inkscape.org/namespaces/inkscape"
   version="1.1"
   id="svg2"
   width="1600"
   height="640"
   viewBox="0 0 1600 640"
   sodipodi:docname="Bodoni.svg"
   inkscape:version="0.92.3 (2405546, 2018-03-11)">
  <metadata
     id="metadata8">
    <rdf:RDF>
      <cc:Work
         rdf:about="">
        <dc:format>image/svg+xml</dc:format>
        <dc:type
           rdf:resource="http://purl.org/dc/dcmitype/StillImage" />
        <dc:title></dc:title>
      </cc:Work>
    </rdf:RDF>
  </metadata>
  <defs
     id="defs6" />
  <sodipodi:namedview
     pagecolor="#ffffff"
     bordercolor="#666666"
     borderopacity="1"
     objecttolerance="10"
     gridtolerance="10"
     guidetolerance="10"
     inkscape:pageopacity="0"
     inkscape:pageshadow="2"
     inkscape:window-width="1920"
     inkscape:window-height="1052"
     id="namedview4"
     showgrid="false"
     inkscape:zoom="0.50027805"
     inkscape:cx="928.98916"
     inkscape:cy="548.08363"
     inkscape:window-x="0"
     inkscape:window-y="0"
     inkscape:window-maximized="1"
     inkscape:current-layer="svg2" />
  <g
     aria-label="Bodoni*"
     transform="matrix(7.3393258,0,0,7.3393258,-5054.2597,-412.20587)"
     style="font-style:normal;font-variant:normal;font-weight:normal;font-stretch:normal;font-size:40px;line-height:1.25;font-family:'Bodoni* 48';-inkscape-font-specification:'Bodoni* 48, ';text-align:center;letter-spacing:0px;word-spacing:0px;text-anchor:middle;fill:#000000;fill-opacity:1;stroke:none;stroke-width:0.28247765;stroke-miterlimit:4;stroke-dasharray:none;stroke-opacity:1;paint-order:stroke fill markers"
     id="flowRoot832">
    <path
       d="m 743.4168,98.908203 c 6.44,0 10.4,-2.4 10.4,-8.4 0,-4.72 -3.92,-6.68 -8.84,-7.04 4.96,-0.48 7.64,-2.64 7.64,-7.16 0,-5.2 -3.96,-7.4 -10,-7.4 h -11.6 v 0.16 h 3.6 v 29.68 h -3.6 v 0.16 z m -0.8,-29.84 c 3.04,0 6,2.88 6,7.64 0,4.76 -2.96,6.72 -6,6.72 h -4.2 v -14.36 z m 6.8,21.44 c 0,4.76 -2.96,8.24 -6.4,8.24 h -4.6 v -15.16 h 4.6 c 3.44,0 6.4,2.16 6.4,6.92 z"
       style="fill:#000000"
       id="path896" />
    <path
       d="m 756.89117,89.708203 c 0,5.2 3.52,9.6 9.16,9.6 5.64,0 9.16,-4.4 9.16,-9.6 0,-5.2 -3.52,-9.6 -9.16,-9.6 -5.64,0 -9.16,4.4 -9.16,9.6 z m 4.2,0 c 0,-3.76 0.6,-9.44 4.96,-9.44 4.36,0 4.96,5.68 4.96,9.44 0,3.76 -0.6,9.44 -4.96,9.44 -4.36,0 -4.96,-5.68 -4.96,-9.44 z"
       style="fill:#000000"
       id="path898" />
    <path
       d="m 798.74492,98.748203 h -2.44 v -29.84 h -6.08 v 0.16 h 2.48 v 18.36 c -0.52,-4.68 -2.72,-7.28 -6.24,-7.28 -4.36,0 -8.48,3.56 -8.48,9.56 0,6 4.12,9.6 8.48,9.6 3.52,0 5.72,-2.64 6.24,-7.32 v 6.92 h 6.04 z m -6.04,-9.04 c 0,6.12 -2.56,9.2 -5.64,9.2 -3.36,0 -4.88,-3.84 -4.88,-9.2 0,-5.36 1.52,-9.16 4.88,-9.16 3.08,0 5.64,3.04 5.64,9.16 z"
       style="fill:#000000"
       id="path900" />
    <path
       d="m 800.32867,89.708203 c 0,5.2 3.52,9.6 9.16,9.6 5.64,0 9.16,-4.4 9.16,-9.6 0,-5.2 -3.52,-9.6 -9.16,-9.6 -5.64,0 -9.16,4.4 -9.16,9.6 z m 4.2,0 c 0,-3.76 0.6,-9.44 4.96,-9.44 4.36,0 4.96,5.68 4.96,9.44 0,3.76 -0.6,9.44 -4.96,9.44 -4.36,0 -4.96,-5.68 -4.96,-9.44 z"
       style="fill:#000000"
       id="path902" />
    <path
       d="m 820.82242,98.748203 v 0.16 h 8.52 v -0.16 h -2.48 v -8.76 c 0,-3.64 0.6,-9.56 6.04,-9.56 2.24,0 2.56,2.8 2.56,6.16 v 12.16 h -2.44 v 0.16 h 8.52 v -0.16 h -2.48 v -12.6 c 0,-3.48 -1.04,-6.04 -5.68,-6.04 -4.84,0 -6.16,3.76 -6.52,7.2 v -6.8 h -6.04 v 0.16 h 2.44 v 18.08 z"
       style="fill:#000000"
       id="path904" />
    <path
       d="m 844.80617,70.908203 c 0,1.32 1.08,2.4 2.4,2.4 1.32,0 2.4,-1.08 2.4,-2.4 0,-1.32 -1.08,-2.4 -2.4,-2.4 -1.32,0 -2.4,1.08 -2.4,2.4 z m -1.44,27.84 v 0.16 h 8.52 v -0.16 h -2.48 v -18.24 h -6.04 v 0.16 h 2.44 v 18.08 z"
       style="fill:#000000"
       id="path906" />
    <path
       d="m 863.55305,85.828203 c -0.04,0.28 -0.04,0.48 -0.04,0.72 0,1.56 0.84,2.44 2,2.44 1.16,0 2,-0.88 2,-2.44 0,-0.24 0,-0.44 -0.04,-0.72 -0.44,-2.96 -1.84,-3.32 -1.88,-7.56 3.72,2.12 3.28,3.56 5.64,5.44 0.24,0.16 0.4,0.24 0.6,0.36 1.36,0.8 2.56,0.52 3.12,-0.48 0.6,-1.04 0.24,-2.2 -1.12,-2.96 -0.2,-0.12 -0.36,-0.24 -0.64,-0.32 -2.76,-1.12 -3.76,-0.08 -7.48,-2.16 3.72,-2.16 4.72,-1.04 7.52,-2.16 0.28,-0.12 0.44,-0.24 0.64,-0.36 1.36,-0.76 1.72,-1.92 1.12,-2.92 -0.56,-1.04 -1.76,-1.32 -3.12,-0.52 -0.2,0.12 -0.36,0.2 -0.6,0.4 -2.32,1.84 -1.92,3.24 -5.6,5.4 0,-4.28 1.44,-4.6 1.88,-7.6 0.04,-0.28 0.04,-0.48 0.04,-0.72 0,-1.56 -0.84,-2.44 -2,-2.44 -1.16,0 -2,0.88 -2,2.44 0,0.24 0,0.44 0.04,0.72 0.44,2.96 1.84,3.32 1.88,7.56 -3.72,-2.12 -3.28,-3.56 -5.64,-5.44 -0.24,-0.16 -0.4,-0.24 -0.6,-0.36 -1.36,-0.8 -2.56,-0.52 -3.12,0.48 -0.6,1.04 -0.24,2.2 1.12,2.96 0.2,0.12 0.36,0.24 0.64,0.32 2.76,1.12 3.76,0.08 7.48,2.16 -3.72,2.16 -4.72,1.04 -7.52,2.16 -0.28,0.12 -0.44,0.24 -0.64,0.36 -1.36,0.76 -1.72,1.92 -1.12,2.92 0.56,1.04 1.76,1.32 3.12,0.52 0.2,-0.12 0.36,-0.2 0.6,-0.4 2.32,-1.84 1.92,-3.24 5.6,-5.4 0,4.28 -1.44,4.6 -1.88,7.6 z"
       style="fill:#000000;fill-opacity:1"
       id="path908" />
  </g>
</svg>
