<?xml version="1.0" encoding="UTF-8" standalone="no"?>
<svg
   viewBox="0 0 1500 600"
   height="640"
   width="1600"
   version="1.1"
   id="svg2"
   sodipodi:docname="Cooper.svg"
   inkscape:version="1.1.2 (0a00cf5339, 2022-02-04)"
   xmlns:inkscape="http://www.inkscape.org/namespaces/inkscape"
   xmlns:sodipodi="http://sodipodi.sourceforge.net/DTD/sodipodi-0.dtd"
   xmlns="http://www.w3.org/2000/svg"
   xmlns:svg="http://www.w3.org/2000/svg"
   xmlns:rdf="http://www.w3.org/1999/02/22-rdf-syntax-ns#"
   xmlns:cc="http://creativecommons.org/ns#"
   xmlns:dc="http://purl.org/dc/elements/1.1/">
  <sodipodi:namedview
     pagecolor="#ffffff"
     bordercolor="#666666"
     borderopacity="1"
     objecttolerance="10"
     gridtolerance="10"
     guidetolerance="10"
     inkscape:pageopacity="0"
     inkscape:pageshadow="2"
     inkscape:window-width="1920"
     inkscape:window-height="1044"
     id="namedview96"
     showgrid="false"
     inkscape:zoom="0.50027805"
     inkscape:cx="596.66819"
     inkscape:cy="356.80158"
     inkscape:window-x="0"
     inkscape:window-y="0"
     inkscape:window-maximized="1"
     inkscape:current-layer="svg2"
     inkscape:pagecheckerboard="0" />
  <metadata
     id="metadata8">
    <rdf:RDF>
      <cc:Work
         rdf:about="">
        <dc:format>image/svg+xml</dc:format>
        <dc:type
           rdf:resource="http://purl.org/dc/dcmitype/StillImage" />
        <dc:title />
      </cc:Work>
    </rdf:RDF>
  </metadata>
  <defs
     id="defs6">
    <rect
       x="-120.52746"
       y="-395.66831"
       width="1848.0255"
       height="481.78948"
       id="rect2769" />
    <linearGradient
       id="linearGradient5684"
       inkscape:swatch="solid">
      <stop
         id="stop5686"
         offset="0"
         style="stop-color:#6f5b14;stop-opacity:1;" />
    </linearGradient>
  </defs>
  <path
     id="path5639"
     style="font-weight:900;font-size:144px;line-height:1.25;font-family:'Cooper*';-inkscape-font-specification:'Cooper* Heavy';text-align:center;letter-spacing:0px;word-spacing:0px;text-anchor:middle;white-space:pre;stroke-width:1.63383"
     d="m 1165.0397,142.08618 c -4.206,0.0434 -8.5903,1.28364 -12.6929,3.66577 -10.9402,6.35234 -15.8811,18.35124 -9.5288,29.29138 8.3522,14.58689 22.3509,16.82192 40.8197,34.58497 1.294,1.29399 1.294,1.29451 -0.4706,0.82397 -24.4683,-6.46999 -33.5252,-18.35083 -50.2295,-18.35083 -12.7047,0 -20.5865,11.40929 -20.5865,22.93762 0,12.7047 7.8818,22.93946 20.5865,22.93946 16.8221,0 25.7622,-11.99804 50.4657,-18.46802 1.9998,-0.47054 1.9994,-0.47047 0.5878,0.94116 -17.8807,18.23359 -32.8209,19.99809 -41.1731,34.58496 -6.3523,10.94016 -0.4703,23.52722 9.5288,29.29138 10.9401,6.35235 23.8806,4.5864 30.1154,-6.35376 8.4697,-14.58687 2.471,-28.46659 9.4116,-53.17016 0.4705,-1.76454 0.4706,-1.76454 0.9411,0 6.9405,24.70357 0.9401,38.58329 9.4098,53.17016 6.3524,10.94016 20.1163,12.11793 30.1154,6.35376 10.9401,-6.35235 15.8811,-18.35122 9.5288,-29.29138 -8.3522,-14.58687 -23.2919,-16.35276 -41.2903,-34.70398 -1.294,-1.294 -1.2944,-1.29268 0.5877,-0.82214 24.7036,6.46998 33.7611,18.46802 50.583,18.46802 12.7047,0 20.5865,-10.23476 20.5865,-22.93946 0,-12.70469 -7.8818,-22.93762 -20.5865,-22.93762 -16.8219,0 -25.8794,11.05645 -50.583,18.11463 -1.5291,0.47054 -1.5292,0.47096 -0.4705,-0.58777 17.8807,-18.23359 32.8209,-19.99808 41.1731,-34.58497 6.3523,-10.94014 1.4113,-22.93904 -9.5288,-29.29138 -10.9403,-6.35235 -23.763,-4.58822 -30.1154,6.35193 -8.4697,14.58687 -3.4117,27.88021 -9.5288,52.70141 -0.4705,1.76455 -0.4705,1.76455 -0.9411,0 -6.7052,-24.4683 -0.8229,-38.23217 -9.2926,-52.70141 -3.8967,-6.83759 -10.4126,-10.09008 -17.4225,-10.0177 z m -842.73196,7.54761 c -57.05348,0 -88.10852,42.8204 -88.10852,87.16918 0,48.2308 34.34967,84.4629 86.93299,84.4629 31.05591,0 43.17181,-12.82381 50.58287,-13.05908 3.41144,-0.11765 5.99918,-1.05888 8.23426,-1.88233 2.58799,-1.05872 4.35298,-2.70458 5.64697,-4.11621 4.70544,-5.05834 11.76453,-16.35138 11.76453,-28.8208 0,-8.4698 -5.88172,-14.7052 -10.58716,-14.7052 -4.2349,0 -6.94129,1.64812 -9.8822,4.00085 -9.05797,7.17581 -16.46852,13.17445 -34.23156,13.17445 -24.35067,0 -48.58338,-22.58636 -48.58338,-61.40625 0,-16.23377 8.23329,-28.70362 25.29052,-28.70362 13.76342,0 30.1158,10.1175 35.76234,21.8811 5.64652,11.99889 9.17492,17.29249 20.35034,17.29249 11.17543,0 23.29284,-6.3525 23.29284,-25.40955 0,-19.52758 -9.05833,-43.76037 -21.99829,-43.76037 -6.82289,0 -7.41061,2.47008 -11.64551,2.47008 -8.23453,0 -12.23566,-8.58764 -42.82104,-8.58764 z M 1075.8838,192.453 c -12.4694,0 -18.4693,7.29365 -22.9395,14.35181 -1.6469,2.58799 -4.3516,6.47095 -6.4691,6.47095 -1.1763,0 -3.1768,-1.17719 -3.1768,-4.58863 0,-2.94091 -0.1168,-5.64715 -0.2344,-7.99987 -0.1177,-3.17618 -1.4129,-6.23291 -4.942,-6.23291 -3.6467,0 -28.2319,1.88043 -53.99422,12.93823 -5.41125,2.35272 -8.47041,4.58877 -8.47041,12.2351 0,4.58782 1.05891,5.99954 2.35285,7.17591 2.23509,1.99981 7.059,1.5296 9.88228,4.23523 2.94084,2.9409 3.17503,9.64649 3.17503,27.76245 v 9.99756 c 0,1.6469 -1.17609,11.17567 -1.52897,14.82239 -0.23522,3.52909 -1.05844,6.11766 -2.94065,7.5293 -2.94094,2.23508 -4.94091,2.00021 -8.11707,5.17638 -1.76456,1.76455 -2.94065,4.35189 -2.94065,9.29261 0,13.76341 19.17497,14.7052 45.05491,14.7052 25.7623,0 44.8187,-3.88272 44.8187,-15.17578 0,-5.05836 -1.5295,-7.52941 -3.7646,-8.94104 -3.1763,-1.99981 -8.586,-2.82177 -11.4093,-4.23341 -2.3527,-1.29398 -3.9996,-3.05863 -4.8231,-7.17589 -1.4115,-6.94053 -1.8823,-24.70384 -1.8823,-38.34961 0,-5.8818 1.411,-9.05883 3.0579,-10.82337 1.9999,-1.99981 4.2349,-2.1167 5.2936,-2.1167 4.9407,0 0.2356,18.35083 26.8213,18.35083 14.822,0 25.9973,-13.64627 25.9973,-29.64477 0,-17.05723 -10.9401,-29.76197 -28.8208,-29.76197 z m -324.32191,0.3534 c -13.0576,0 -46.46628,11.88072 -59.05335,22.70324 -3.29381,2.82326 -4.70581,5.99932 -4.70581,10.11658 0,5.29362 2.58837,7.41174 4.70581,8.47045 3.52908,1.76456 5.41197,0.94086 8.94104,2.94068 4.11726,2.35272 4.94019,11.17582 4.94019,40.23194 v 10.58716 c 0,21.64504 -0.70547,27.88015 -1.52893,34.46777 -0.47054,3.29381 -1.64679,7.40993 -4.35242,8.93921 -1.99981,1.05872 -3.88246,0.35347 -6.11755,1.29456 -2.11744,0.94108 -3.64746,3.88171 -3.64746,8.23425 0,7.76398 7.17619,13.29296 22.46887,18.70422 12.7047,4.47017 29.99752,5.76416 39.29077,5.76416 11.52833,0 22.23267,-5.52911 22.23267,-14.35181 0,-3.99963 -1.52864,-5.64524 -3.52845,-7.05688 -1.76453,-1.17636 -4.58735,-3.05887 -5.88134,-4.23523 -1.88218,-1.64691 -3.29414,-2.94042 -4.23523,-5.41077 -0.94109,-2.47036 -1.29456,-8.82422 -1.29456,-13.52966 0,-2.588 1.2e-4,-6.11572 1.41175,-6.11572 0.82346,0 2.1183,0.47072 5.0592,2.35291 7.29344,4.82307 17.05734,5.88134 24.93896,5.88134 27.0563,0 49.64173,-32.93814 49.64173,-64.81751 0,-33.76154 -16.58618,-64.34692 -46.23047,-64.34692 -11.05779,0 -22.70463,4.58772 -28.58643,10.58716 -2.82326,2.82326 -3.88105,4.94018 -5.52796,4.94018 -1.88217,0 -2.5891,-2.94085 -2.5891,-5.29357 0,-2.11746 0.11719,-3.52859 0.11719,-5.41077 0,-3.17617 -1.88132,-5.64697 -6.46912,-5.64697 z m 165.51452,0.82397 c -32.58518,0 -67.99438,21.41021 -67.99438,64.22974 0,39.29043 26.23367,64.11072 63.17139,64.11072 27.05633,0 53.75792,-19.64586 53.75792,-31.5271 0,-7.1758 -4.94053,-12.23328 -9.1754,-12.23328 -4.11722,0 -14.93944,10.70434 -31.29089,10.70434 -13.17524,0 -22.23342,-9.64573 -25.88013,-17.88024 -0.70583,-1.64692 -1.17554,-3.41138 -1.17554,-4.82301 0,-3.17617 1.88273,-4.35241 7.05872,-4.35241 l 46.34768,0.23438 c 9.88144,0 11.41078,-0.82279 13.41066,-3.05786 1.29394,-1.41163 4.35234,-7.88194 4.35234,-15.76356 0,-24.11539 -22.46756,-49.64172 -52.58237,-49.64172 z m -439.37073,1.17554 c -41.99606,0 -71.64001,29.99812 -71.64001,64.58313 0,36.93772 27.64441,61.64062 63.40576,61.64062 38.8199,0 70.11109,-29.17384 70.11109,-65.75867 0,-37.29062 -27.5271,-60.46508 -61.87684,-60.46508 z m 141.75111,0 c -41.99608,0 -71.64002,29.99812 -71.64002,64.58313 0,36.93772 27.6444,61.64062 63.40576,61.64062 38.81991,0 70.11109,-29.17384 70.11109,-65.75867 0,-37.29062 -27.52711,-60.46508 -61.87683,-60.46508 z m 293.3844,21.76391 c 8.35216,0 13.41064,6.93965 13.41064,17.99744 0,3.99962 -3.64652,5.29358 -9.17542,5.29358 l -10.94055,-0.23438 c -4.82308,0 -7.76367,-0.58843 -7.76367,-3.29406 0,-2.11745 -0.1189,-5.76401 1.29273,-9.646 1.76453,-5.17598 5.76519,-10.11658 13.17627,-10.11658 z m -444.31092,7.88086 c 14.23397,0 19.76257,36.35016 19.76257,54.58374 0,7.64634 -4.11721,15.17396 -11.05773,15.17396 -13.88105,0 -19.5282,-33.99609 -19.5282,-54.93531 0,-8.70507 4.58865,-14.82239 10.82336,-14.82239 z m 141.75111,0 c 14.23396,0 19.76256,36.35016 19.76257,54.58374 0,7.64634 -4.11721,15.17396 -11.05775,15.17396 -13.88104,0 -19.5282,-33.99609 -19.52819,-54.93531 0,-8.70507 4.58865,-14.82239 10.82337,-14.82239 z m 158.4558,5.99854 c 11.88124,0 17.52686,13.1765 17.52686,33.76281 0,18.23359 -5.17511,26.8213 -17.99743,26.8213 -8.23454,0 -10.35231,-2.00048 -9.9994,-14.23463 l 0.82398,-34.11438 c 0.23528,-8.70507 3.41128,-12.2351 9.64599,-12.2351 z" />
</svg>
