<?xml version="1.0" encoding="UTF-8" standalone="no"?>
<svg
   viewBox="0 0 1500 600"
   height="640"
   width="1600"
   version="1.1"
   id="svg2"
   sodipodi:docname="Cooper-h.svg"
   inkscape:version="1.1.2 (0a00cf5339, 2022-02-04)"
   xmlns:inkscape="http://www.inkscape.org/namespaces/inkscape"
   xmlns:sodipodi="http://sodipodi.sourceforge.net/DTD/sodipodi-0.dtd"
   xmlns="http://www.w3.org/2000/svg"
   xmlns:svg="http://www.w3.org/2000/svg"
   xmlns:rdf="http://www.w3.org/1999/02/22-rdf-syntax-ns#"
   xmlns:cc="http://creativecommons.org/ns#"
   xmlns:dc="http://purl.org/dc/elements/1.1/">
  <sodipodi:namedview
     pagecolor="#ffffff"
     bordercolor="#666666"
     borderopacity="1"
     objecttolerance="10"
     gridtolerance="10"
     guidetolerance="10"
     inkscape:pageopacity="0"
     inkscape:pageshadow="2"
     inkscape:window-width="1832"
     inkscape:window-height="837"
     id="namedview96"
     showgrid="false"
     inkscape:zoom="0.7234236"
     inkscape:cx="394.65121"
     inkscape:cy="269.55162"
     inkscape:window-x="56"
     inkscape:window-y="49"
     inkscape:window-maximized="0"
     inkscape:current-layer="svg2"
     inkscape:pagecheckerboard="0" />
  <metadata
     id="metadata8">
    <rdf:RDF>
      <cc:Work
         rdf:about="">
        <dc:format>image/svg+xml</dc:format>
        <dc:type
           rdf:resource="http://purl.org/dc/dcmitype/StillImage" />
      </cc:Work>
    </rdf:RDF>
  </metadata>
  <defs
     id="defs6">
    <rect
       x="-32.077787"
       y="472.58673"
       width="1734.7551"
       height="545.00426"
       id="rect2438" />
    <rect
       x="-31.685652"
       y="-256.30058"
       width="1629.3677"
       height="395.25297"
       id="rect22412" />
    <rect
       x="2.7332681"
       y="440.35953"
       width="1597.9361"
       height="498.58516"
       id="rect6065" />
    <rect
       x="-120.52746"
       y="-395.66831"
       width="1848.0255"
       height="481.78948"
       id="rect2769" />
    <linearGradient
       id="linearGradient5684"
       inkscape:swatch="solid">
      <stop
         id="stop5686"
         offset="0"
         style="stop-color:#6f5b14;stop-opacity:1;" />
    </linearGradient>
  </defs>
  <g
     id="g6136"
     style="stroke:#f2ecd9;stroke-width:1.875;stroke-miterlimit:4;stroke-dasharray:none;stroke-opacity:1;paint-order:markers stroke fill"
     transform="translate(0,-37.5)">
    <path
       id="path5639"
       style="font-weight:900;font-size:144px;line-height:1.25;font-family:'Cooper*';-inkscape-font-specification:'Cooper* Heavy';text-align:center;letter-spacing:0px;word-spacing:0px;text-anchor:middle;white-space:pre;fill:#224d77;fill-opacity:1;stroke:#f2ecd9;stroke-width:2;stroke-miterlimit:4;stroke-dasharray:none;stroke-opacity:1;paint-order:markers stroke fill"
       d="m 343.79492,199.60938 c -60.85704,0 -93.98242,45.67509 -93.98242,92.98046 0,51.44618 36.63965,90.09375 92.72852,90.09375 33.12631,0 46.04993,-13.67873 53.95507,-13.92968 3.63887,-0.12549 6.39912,-1.12947 8.78321,-2.00782 2.76052,-1.1293 4.64318,-2.88488 6.02343,-4.39062 5.01914,-5.39557 12.54883,-17.44147 12.54883,-30.74219 0,-9.03445 -6.27383,-15.68555 -11.29297,-15.68555 -4.51722,0 -7.40404,1.758 -10.54101,4.26758 -9.66184,7.65419 -17.56642,14.05274 -36.51367,14.05274 -25.97404,0 -51.82227,-24.09211 -51.82227,-65.5 0,-17.31602 8.78218,-30.61719 26.97656,-30.61719 14.68098,0 32.12352,10.792 38.14649,23.33984 6.02296,12.79881 9.78658,18.44532 21.70703,18.44532 11.92046,0 24.8457,-6.776 24.8457,-27.10352 0,-20.82942 -9.66222,-46.67773 -23.46484,-46.67773 -7.27775,0 -7.90465,2.63476 -12.42188,2.63476 -8.7835,0 -13.05137,-9.16015 -45.67578,-9.16015 z m 803.81448,45.67382 c -13.3007,0 -19.7006,7.77989 -24.4688,15.3086 -1.7567,2.76052 -4.6417,6.90234 -6.9004,6.90234 -1.2547,0 -3.3886,-1.25566 -3.3886,-4.89453 0,-3.13697 -0.1246,-6.02363 -0.25,-8.5332 -0.1255,-3.38792 -1.5071,-6.64844 -5.2715,-6.64844 -3.8898,0 -30.114,2.0058 -57.5938,13.80078 -5.772,2.50957 -9.0351,4.89469 -9.0351,13.05078 0,4.89367 1.1295,6.39951 2.5097,7.6543 2.3841,2.13313 7.5296,1.63157 10.5411,4.51758 3.1369,3.13696 3.3867,10.28959 3.3867,29.61328 v 10.66406 c 0,1.7567 -1.2545,11.92072 -1.6309,15.81055 -0.2509,3.76436 -1.129,6.52551 -3.1367,8.03125 -3.137,2.38409 -5.2703,2.13356 -8.6582,5.52148 -1.8822,1.88218 -3.1367,4.64201 -3.1367,9.91211 0,14.68097 20.4533,15.68555 48.0586,15.68555 27.4798,0 47.8066,-4.14157 47.8066,-16.1875 0,-5.39558 -1.6315,-8.03137 -4.0156,-9.53711 -3.388,-2.13313 -9.1584,-3.00988 -12.1699,-4.51563 -2.5096,-1.38025 -4.2662,-3.26254 -5.1446,-7.65429 -1.5057,-7.40323 -2.0078,-26.35076 -2.0078,-40.90625 0,-6.27392 1.505,-9.66275 3.2617,-11.54493 2.1332,-2.13313 4.5172,-2.25781 5.6465,-2.25781 5.2701,0 0.2513,19.57422 28.6094,19.57422 15.8102,0 27.7305,-14.55602 27.7305,-31.62109 0,-18.19438 -11.6695,-31.7461 -30.7422,-31.7461 z m -345.94338,0.37696 c -13.92811,0 -49.56404,12.67277 -62.99024,24.21679 -3.5134,3.01148 -5.01953,6.39927 -5.01953,10.79102 0,5.64653 2.76092,7.90585 5.01953,9.03515 3.76435,1.88219 5.77276,1.00358 9.53711,3.13672 4.39174,2.50957 5.26953,11.92088 5.26953,42.91407 v 11.29297 c 0,23.08804 -0.7525,29.73883 -1.63086,36.76562 -0.50191,3.5134 -1.75657,7.90393 -4.64258,9.53516 -2.13313,1.1293 -4.14129,0.37703 -6.52539,1.38086 -2.2586,1.00382 -3.89062,4.14049 -3.89062,8.7832 0,8.28158 7.6546,14.17916 23.9668,19.95117 13.55168,4.76818 31.99735,6.14844 41.91015,6.14844 12.29689,0 23.71485,-5.89772 23.71485,-15.3086 0,-4.26627 -1.63055,-6.02159 -3.76368,-7.52734 -1.88217,-1.25478 -4.89318,-3.26279 -6.27343,-4.51758 -2.00766,-1.7567 -3.51375,-3.13644 -4.51758,-5.77148 -1.00383,-2.63505 -1.38086,-9.41251 -1.38086,-14.43164 0,-2.76053 1.2e-4,-6.52344 1.50586,-6.52344 0.87836,0 2.25952,0.50211 5.39648,2.50977 7.77967,5.14461 18.1945,6.27343 26.60156,6.27343 28.86005,0 52.95118,-35.13401 52.95118,-69.13867 0,-36.01231 -17.69193,-68.63672 -49.3125,-68.63672 -11.79498,0 -24.21827,4.89357 -30.49219,11.29297 -3.01148,3.01148 -4.13979,5.26953 -5.89649,5.26953 -2.00765,0 -2.76171,-3.13691 -2.76171,-5.64648 0,-2.25862 0.125,-3.76383 0.125,-5.77149 0,-3.38791 -2.00674,-6.02343 -6.90039,-6.02343 z m 176.54882,0.8789 c -34.75753,0 -72.52734,22.83756 -72.52734,68.51172 0,41.9098 27.98258,68.38477 67.38281,68.38477 28.86009,0 57.34179,-20.95558 57.34179,-33.62891 0,-7.65418 -5.2699,-13.04883 -9.7871,-13.04883 -4.3917,0 -15.9354,11.41797 -33.37695,11.41797 -14.05359,0 -23.71564,-10.28878 -27.60547,-19.07226 -0.75288,-1.75671 -1.25391,-3.6388 -1.25391,-5.14454 0,-3.38792 2.00825,-4.64257 7.5293,-4.64257 l 49.43753,0.25 c 10.5402,0 12.1715,-0.87764 14.3047,-3.26172 1.3802,-1.50574 4.6425,-8.4074 4.6425,-16.81446 0,-25.72308 -23.9654,-52.95117 -56.08786,-52.95117 z m -468.66211,1.25391 c -44.7958,0 -76.41601,31.998 -76.41601,68.88867 0,39.40024 29.48736,65.75 67.63281,65.75 41.40789,0 74.78516,-31.11877 74.78516,-70.14258 0,-39.77667 -29.36224,-64.49609 -66.00196,-64.49609 z m 151.20118,0 c -44.79582,0 -76.41602,31.998 -76.41602,68.88867 0,39.40024 29.48736,65.75 67.63281,65.75 41.4079,0 74.78516,-31.11877 74.78516,-70.14258 0,-39.77667 -29.36225,-64.49609 -66.00195,-64.49609 z m 312.94336,23.21484 c 8.90897,0 14.30468,7.40229 14.30468,19.19727 0,4.26626 -3.88962,5.64648 -9.78711,5.64648 l -11.66992,-0.25 c -5.14462,0 -8.28125,-0.62766 -8.28125,-3.51367 0,-2.25861 -0.12683,-6.14827 1.37891,-10.28906 1.88217,-5.52105 6.14954,-10.79102 14.05469,-10.79102 z m -473.93165,8.40625 c 15.1829,0 21.08008,38.7735 21.08008,58.22266 0,8.15609 -4.39169,16.18555 -11.79492,16.18555 -14.80645,0 -20.83008,-36.26249 -20.83008,-58.59766 0,-9.28541 4.89456,-15.81055 11.54492,-15.81055 z m 151.20118,0 c 15.1829,0 21.08007,38.7735 21.08008,58.22266 0,8.15609 -4.39169,16.18555 -11.79493,16.18555 -14.80645,0 -20.83008,-36.26249 -20.83007,-58.59766 0,-9.28541 4.89456,-15.81055 11.54492,-15.81055 z m 169.01953,6.39844 c 12.67332,0 18.69531,14.05494 18.69531,36.01367 0,19.44916 -5.52011,28.60938 -19.19726,28.60938 -8.7835,0 -11.04246,-2.13384 -10.66602,-15.1836 l 0.87891,-36.38867 c 0.25096,-9.28541 3.6387,-13.05078 10.28906,-13.05078 z"
       transform="scale(0.9375)"
       sodipodi:nodetypes="ssscccsscssscsssssscsscscsccssccsssscccscssssscsscsscccscssccssscssscsssssssssscscccssssssssssssssccscssssssssssssssccs" />
    <path
       id="path5891"
       style="font-weight:900;font-size:144px;line-height:1.25;font-family:'Cooper*';-inkscape-font-specification:'Cooper* Heavy';text-align:center;letter-spacing:0px;word-spacing:0px;text-anchor:middle;white-space:pre;fill:#743e3e;fill-opacity:1;stroke:#f2ecd9;stroke-width:1.875;stroke-miterlimit:4;stroke-dasharray:none;stroke-opacity:1;paint-order:markers stroke fill"
       d="m 1165.0397,179.58618 c -4.206,0.0434 -8.5903,1.28364 -12.6929,3.66577 -10.9402,6.35234 -15.8811,18.35124 -9.5288,29.29138 8.3522,14.58689 22.3509,16.82192 40.8197,34.58497 1.294,1.29399 1.294,1.29451 -0.4706,0.82397 -24.4683,-6.46999 -33.5252,-18.35083 -50.2295,-18.35083 -12.7047,0 -20.5865,11.40929 -20.5865,22.93762 0,12.7047 7.8818,22.93946 20.5865,22.93946 16.8221,0 25.7622,-11.99804 50.4657,-18.46802 1.9998,-0.47054 1.9994,-0.47047 0.5878,0.94116 -17.8807,18.23359 -32.8209,19.99809 -41.1731,34.58496 -6.3523,10.94016 -0.4703,23.52722 9.5288,29.29138 10.9401,6.35235 23.8806,4.5864 30.1154,-6.35376 8.4697,-14.58687 2.471,-28.46659 9.4116,-53.17016 0.4705,-1.76454 0.4706,-1.76454 0.9411,0 6.9405,24.70357 0.9401,38.58329 9.4098,53.17016 6.3524,10.94016 20.1163,12.11793 30.1154,6.35376 10.9401,-6.35235 15.8811,-18.35122 9.5288,-29.29138 -8.3522,-14.58687 -23.2919,-16.35276 -41.2903,-34.70398 -1.294,-1.294 -1.2944,-1.29268 0.5877,-0.82214 24.7036,6.46998 33.7611,18.46802 50.583,18.46802 12.7047,0 20.5865,-10.23476 20.5865,-22.93946 0,-12.70469 -7.8818,-22.93762 -20.5865,-22.93762 -16.8219,0 -25.8794,11.05645 -50.583,18.11463 -1.5291,0.47054 -1.5292,0.47096 -0.4705,-0.58777 17.8807,-18.23359 32.8209,-19.99808 41.1731,-34.58497 6.3523,-10.94014 1.4113,-22.93904 -9.5288,-29.29138 -10.9403,-6.35235 -23.763,-4.58822 -30.1154,6.35193 -8.4697,14.58687 -3.4117,27.88021 -9.5288,52.70141 -0.4705,1.76455 -0.4705,1.76455 -0.9411,0 -6.7052,-24.4683 -0.8229,-38.23217 -9.2926,-52.70141 -3.8967,-6.83759 -10.4126,-10.09008 -17.4225,-10.0177 z"
       sodipodi:nodetypes="sscccssscccccccsccccssscccsscccs" />
  </g>
  <path
     id="path11808"
     style="font-weight:900;font-size:12px;line-height:1.25;font-family:'Cooper*';-inkscape-font-specification:'Cooper* Heavy';text-align:center;letter-spacing:0px;word-spacing:0px;text-anchor:middle;white-space:pre;fill:#1b4064;stroke-width:5.64032"
     d="m 329.99633,405.01648 c -2.26741,0 -2.6398,1.0144 -6.80236,1.0144 h -18.34168 c -3.82413,0 -3.89192,-0.6427 -5.82092,-0.6427 -2.80888,0 -7.85156,7.34322 -7.85156,13.7732 0,2.87656 1.38715,5.38146 4.36524,5.38146 1.65826,0 2.91064,-0.30437 4.06128,-1.69188 1.59057,-1.92899 2.63979,-3.48646 3.92578,-5.51698 0.67683,-1.08295 1.59088,-1.15096 2.23388,-0.33874 0.71068,0.84603 0.7782,3.62233 0.7782,7.9541 v 7.78381 c 0,5.88851 -0.27145,8.42576 -0.74524,10.49011 -0.20305,0.87989 -0.40612,1.86088 -0.98145,2.40235 -0.98141,0.91373 -2.63852,0.91461 -3.55224,1.86218 -0.57531,0.60916 -1.01624,1.31941 -1.01624,2.40234 0,0.98143 0.27119,2.36969 2.36939,3.62183 2.23356,1.35368 5.27949,1.75965 11.57409,1.75965 5.38088,0 8.76545,-0.47414 10.86365,-1.3202 2.13205,-0.84604 3.4845,-2.16531 3.4845,-4.16198 0,-1.89515 -0.50696,-2.53829 -1.21765,-3.01209 -0.84604,-0.5753 -2.16611,-0.71014 -3.07983,-1.35315 -0.74453,-0.54147 -1.25169,-1.28722 -1.4209,-3.18237 -0.16921,-1.79362 -0.44129,-3.65437 -0.44129,-8.93372 v -8.79821 c 0,-4.73788 0.33845,-7.64877 0.98144,-8.12257 0.47379,-0.33841 1.1176,-0.30512 1.79444,0.37171 1.65827,1.65826 1.89468,3.31597 3.31604,5.14344 1.08294,1.38752 2.47077,1.89514 4.12903,1.89514 2.63967,0 5.44922,-1.04784 5.44922,-6.29334 0,-6.76839 -5.24593,-12.48779 -8.05482,-12.48779 z m 120.30763,0.40649 c -5.31318,0 -12.2168,1.96279 -12.2168,6.59912 0,3.24883 2.94507,5.0409 6.56616,5.0409 6.32844,0 12.38525,-2.80745 12.38525,-7.07153 0,-2.60582 -2.43668,-4.56849 -6.73461,-4.56849 z m 148.59924,0 c -5.31318,0 -12.2168,1.96279 -12.2168,6.59912 0,3.24883 2.94508,5.0409 6.56616,5.0409 6.32844,0 12.38526,-2.80745 12.38526,-7.07153 0,-2.60582 -2.43669,-4.56849 -6.73462,-4.56849 z m 214.93102,0 c -5.31317,0 -12.21862,1.96279 -12.21862,6.59912 0,3.24883 2.94507,5.0409 6.56617,5.0409 6.32843,0 12.38708,-2.80745 12.38708,-7.07153 0,-2.60582 -2.43669,-4.56849 -6.73463,-4.56849 z m 272.79788,0 c -5.3132,0 -12.2168,1.96279 -12.2168,6.59912 0,3.24883 2.9451,5.0409 6.5662,5.0409 6.3284,0 12.3852,-2.80745 12.3852,-7.07153 0,-2.60582 -2.4368,-4.56849 -6.7346,-4.56849 z m 118.3117,0.7782 c -3.4179,0 -10.1856,1.18394 -15.3295,3.24829 -1.6921,0.67685 -2.4371,1.86084 -2.4371,3.31604 0,1.35368 0.5746,1.89534 1.1498,2.09839 0.8461,0.27074 1.3538,0.16959 1.9629,0.4065 0.5753,0.23688 0.9149,0.43998 1.1518,0.98144 0.3722,0.81221 0.3717,1.69186 0.3717,2.60559 v 0.20325 c 0,0.60916 -5e-4,1.32019 -0.542,1.32019 -0.6769,0 -1.2516,-0.50848 -2.1314,-0.88073 -0.7107,-0.30459 -2.0637,-0.77821 -4.0265,-0.77821 -9.7127,0 -17.362,6.93809 -17.362,18.57972 0,9.27269 6.4297,17.63122 15.0256,17.63122 3.7564,0 5.3142,-0.81223 7.6831,-2.87658 0.8122,-0.71069 1.0488,-1.08216 1.4886,-1.08216 0.6431,0 0.9815,0.53986 0.9815,1.18286 0,0.57532 0.034,1.18515 0.068,1.65894 0.068,1.25215 0.5753,1.38794 2.9444,1.38794 4.264,0 9.001,-1.11613 12.3852,-3.11279 2.2336,-1.31985 3.1147,-2.50492 3.1147,-3.48633 0,-1.21831 -0.1359,-1.89478 -1.3202,-2.4701 -0.8799,-0.43995 -1.1838,-0.27069 -2.1991,-0.9137 -0.846,-0.54146 -1.1517,-1.79389 -1.1517,-3.14758 0,-1.59057 -0.1356,-4.50085 -0.1356,-8.42651 v -9.81445 c 0,-11.03247 0.2033,-13.60538 0.2033,-16.17737 0,-1.01526 -0.7783,-1.45386 -1.8952,-1.45386 z m -526.61312,0.10071 c -5.99002,0 -14.41589,2.63894 -14.41589,11.60705 0,5.04245 2.40235,5.45017 2.40235,7.37915 v 0.10072 c 0,0.64298 -0.30461,0.94848 -0.98144,0.94848 h -0.84596 c -0.5753,0 -0.88093,0.1352 -1.08398,0.77819 -0.4061,1.38753 -0.67566,3.28181 -0.67566,4.80469 0,1.35369 0.67696,1.86219 2.03064,1.86219 h 2.0636 c 1.31984,0 1.52344,0.84631 1.52344,2.16614 v 0.81115 c 0,1.48904 -0.2712,5.00807 -0.47424,7.03858 -0.13538,1.31983 -0.40709,2.06588 -1.01624,2.53967 -0.74452,0.60915 -1.48842,0.71003 -2.1991,1.21765 -0.60915,0.43994 -1.38794,1.35433 -1.38794,2.57263 0,3.48572 4.77276,4.56849 11.54114,4.56849 7.74981,0 13.87391,-0.94861 13.87391,-4.87427 0,-1.15063 -0.50603,-2.06317 -1.18287,-2.5708 -0.91373,-0.64301 -2.06547,-0.60958 -3.04687,-1.38794 -0.74454,-0.57531 -1.21784,-1.35371 -1.4209,-2.87659 -0.1692,-1.25216 -0.43946,-3.04628 -0.43946,-6.22742 v -0.2362 c 0,-1.92899 0.50632,-2.84363 2.43531,-2.84363 h 2.06542 c 1.35369,0 1.38719,-0.44007 1.5564,-2.03064 0.0677,-0.81221 0.3717,-3.6199 0.3717,-4.46594 0,-1.18448 -0.77875,-1.25245 -2.30162,-1.25245 h -3.1128 c -0.84605,0 -1.69121,-0.0677 -1.9281,-0.98144 l -0.0348,-0.13549 c -0.43995,-1.79363 -7.41027,-3.75745 -7.41027,-7.68312 0,-1.59056 0.94681,-2.57079 2.0636,-2.57079 3.65493,0 3.78952,5.95642 9.64417,5.95642 2.74119,0 5.14526,-2.43742 5.14526,-5.58472 0,-4.09488 -4.39984,-8.62976 -12.7588,-8.62976 z m 165.79102,0.0348 c -4.43329,0 -11.98027,1.65706 -16.41357,4.46594 -1.42136,0.91373 -2.09839,1.86205 -2.09839,3.62182 0,1.01527 0.60978,1.89548 1.59119,2.2339 0.64299,0.23689 1.25159,0.202 2.26684,0.81115 1.75978,1.0491 2.36939,4.12925 2.36939,9.10401 v 7.51281 c 0,5.55008 -0.64316,9.94906 -1.11695,11.87805 -0.23689,0.91374 -0.77783,1.45507 -1.35315,1.75965 -0.50763,0.27073 -1.25296,0.54136 -1.79443,0.84595 -0.643,0.37226 -1.2854,1.01658 -1.2854,2.33643 0,2.94424 4.29831,3.68774 12.75879,3.68774 8.08823,0 10.9314,-1.65775 10.9314,-4.22974 0,-0.98142 -0.23747,-1.42217 -0.60974,-1.79443 -0.43994,-0.40611 -1.04972,-0.60831 -1.59119,-1.01441 -0.43994,-0.33842 -0.84622,-0.81283 -1.11694,-1.59119 -0.57532,-1.55672 -0.94666,-3.65396 -0.94666,-12.3175 v -7.85156 c 0,-6.2946 0.6427,-13.50264 0.6427,-17.76672 0,-1.48905 -0.84636,-1.6919 -2.23389,-1.6919 z m -488.10058,0.20141 c -5.41471,0 -11.94589,2.1338 -14.89014,3.72437 -2.13204,1.15063 -2.40418,2.1317 -2.40418,3.45154 0,0.84605 0.47477,1.52295 1.01624,1.96289 0.77836,0.643 1.79331,0.74336 2.53784,1.6571 0.77836,0.98142 1.0492,5.92294 1.0492,13.94349 v 5.68542 c 0,2.43662 -0.20276,5.65083 -0.6427,7.74903 -0.30458,1.52288 -0.81175,2.19962 -1.4209,2.74108 -0.67684,0.57532 -1.35544,0.77872 -1.82922,1.3202 -0.33843,0.37225 -0.54017,0.8459 -0.54017,1.75964 0,2.60583 4.46632,4.23156 10.55786,4.23156 6.73454,0 10.96437,-0.71193 10.96437,-4.16382 0,-0.64299 -0.27032,-1.21709 -0.50721,-1.58935 -0.33842,-0.50763 -0.71009,-0.88038 -1.2854,-1.45569 -0.33843,-0.33842 -0.67661,-0.77904 -0.71045,-1.65893 -0.0677,-1.21831 -0.10254,-3.75561 -0.10254,-7.68128 0,-5.8885 0.10138,-8.1903 3.65479,-8.1903 2.74119,0 4.40002,1.72567 4.40002,8.29101 0,3.18114 -0.068,5.6522 -0.33874,7.27661 -0.20306,1.15063 -0.33717,1.86081 -0.60792,2.33459 -0.40609,0.64301 -0.91395,0.91491 -1.18469,1.21948 -0.33841,0.40611 -0.57495,0.84612 -0.57495,1.9629 0,3.21498 3.95793,3.68775 10.72632,3.68775 7.7498,0 9.91699,-1.99585 9.91699,-3.89099 0,-1.04911 -0.27057,-1.55774 -0.7782,-1.99769 -0.43995,-0.4061 -1.11827,-0.64328 -1.55822,-1.25244 -0.30458,-0.50763 -0.50733,-1.25158 -0.64271,-2.26685 -0.13535,-1.21831 -0.2362,-4.26452 -0.2362,-6.15966 0,-11.74316 -0.54111,-13.43517 -2.4701,-16.07484 -1.48905,-2.03051 -4.80683,-3.68774 -8.93554,-3.68774 -3.58725,0 -6.53075,1.04879 -8.73046,4.43299 -0.67685,1.0491 -1.01575,1.35315 -1.4557,1.35315 -0.67684,0 -1.0144,-0.71048 -1.0144,-1.6919 0,-7.71596 0.30396,-13.97713 0.30396,-15.63538 0,-1.28599 -0.87933,-1.38794 -2.26685,-1.38794 z m 760.18978,3.25013 c -1.7937,0 -2.6741,0.47294 -3.4863,1.0144 l -14.2126,9.54346 c -0.6768,0.43994 -0.6784,0.74481 -0.7123,1.25244 -0.034,0.60915 -0.068,2.13145 -0.068,3.18055 0,0.71067 0.2043,1.04919 1.3549,1.04919 h 3.4845 c 0.7445,0 0.8807,0.3046 0.8807,0.98144 v 14.58619 c 0,2.5043 0.1695,5.10991 1.117,7.37732 1.3875,3.35034 4.5009,5.88867 11.3708,5.88867 6.0916,0 13.2312,-4.70371 13.2312,-8.22327 0,-1.8613 -1.3862,-3.79029 -2.4352,-3.79029 -0.4738,0 -0.8464,0.23741 -1.2525,0.542 -0.6768,0.50763 -1.7608,1.11694 -2.9791,1.11694 -2.4028,0 -3.6548,-2.06428 -3.6548,-5.61767 v -11.8451 c 0,-0.50763 0.136,-0.67749 0.6775,-0.67749 h 6.8353 c 1.523,0 2.2001,7e-5 2.3016,-1.82739 l 0.2033,-3.99353 c 0.034,-0.33842 0.035,-0.67667 0.035,-0.7782 0,-0.91373 -0.5085,-1.11694 -1.93,-1.11694 h -6.9031 c -0.7444,0 -0.9484,-0.0675 -0.9484,-0.7782 0,-0.71068 0.1354,-3.0451 0.1354,-5.00794 0,-2.06435 -1.2853,-2.87658 -3.045,-2.87658 z m -178.24581,8.25622 c -3.58725,0 -5.31313,2.09852 -6.59912,4.12903 -0.47378,0.74453 -1.2512,1.86219 -1.86035,1.86219 -0.33843,0 -0.9137,-0.33878 -0.9137,-1.3202 0,-0.84604 -0.0338,-1.62479 -0.0677,-2.30163 -0.0338,-0.91373 -0.40747,-1.7926 -1.42273,-1.7926 -1.0491,0 -8.12145,0.54139 -15.53284,3.72253 -1.55673,0.67684 -2.43713,1.31957 -2.43713,3.51929 0,1.31984 0.30523,1.72518 0.67749,2.0636 0.64299,0.57531 2.02958,0.44112 2.8418,1.21948 0.84604,0.84605 0.91369,2.77356 0.91369,7.98523 l 0.002,2.87659 c 0,0.47378 -0.33976,3.21542 -0.44128,4.26452 -0.0677,1.01526 -0.30448,1.76004 -0.84594,2.16614 -0.84606,0.643 -1.42087,0.57492 -2.3346,1.48864 -0.50763,0.50763 -0.84595,1.25199 -0.84595,2.67334 0,3.95951 5.51681,4.23158 12.96204,4.23158 7.41138,0 12.89245,-1.11824 12.89245,-4.36708 0,-1.45519 -0.43916,-2.16469 -1.08215,-2.57079 -0.91374,-0.57532 -2.47087,-0.81338 -3.28308,-1.21949 -0.67684,-0.37225 -1.15105,-0.87912 -1.38794,-2.0636 -0.4061,-1.99668 -0.54016,-7.10643 -0.54016,-11.03209 0,-1.69211 0.40512,-2.607 0.8789,-3.11463 0.57532,-0.57533 1.21886,-0.60791 1.52344,-0.60791 1.42136,0 0.0678,5.27893 7.71608,5.27893 4.26404,0 7.47797,-3.92655 7.47797,-8.52905 0,-4.90708 -3.147,-8.56202 -8.29097,-8.56202 z m 81.01691,0.0678 c -3.9935,0 -10.0832,0.54147 -12.486,1.89514 -1.0491,0.57532 -2.6074,1.6919 -2.6074,3.58704 0,0.94758 0.3392,1.49087 0.8129,1.89697 0.5415,0.50763 1.3199,0.91239 1.9629,1.45386 0.44,0.33842 0.8113,0.60951 1.0144,1.32019 0.2369,0.74452 0.238,2.64063 0.238,4.80652 0,2.30125 0.068,3.41687 0.068,5.44739 0,4.87324 -1.0484,6.59912 -3.1805,6.59912 -2.0643,0 -3.7903,-0.2027 -3.7903,-5.34669 0,-10.42331 0.2362,-16.41395 0.2362,-18.7152 0,-1.59057 -1.31962,-2.53784 -2.67337,-2.53784 -3.38419,0 -9.612,0.57488 -14.28216,2.40234 -1.42144,0.57531 -1.99584,1.7598 -1.99584,2.87659 0,1.25215 0.23756,2.06493 0.74521,2.50488 0.64294,0.643 1.65675,0.84539 2.29979,1.21765 0.74456,0.4061 1.28718,0.88109 1.28718,2.20093 v 11.50635 c 0,4.56867 0.3045,8.29114 1.75969,10.32165 1.59056,2.23356 4.36519,3.92578 8.1555,3.92578 4.2641,0 6.2954,-0.98134 9.3073,-3.72253 0.643,-0.57532 0.8456,-1.15174 1.4886,-1.15174 0.5414,0 0.8112,0.64424 0.8112,1.28724 0,0.94756 0,1.7584 0.3058,2.36755 0.406,0.81221 0.7433,1.01624 1.4538,1.01624 4.0949,0 10.5941,-1.18548 14.0461,-3.89283 1.3197,-1.0491 2.0635,-2.63845 2.0635,-3.48449 0,-0.91374 -0.3056,-1.45526 -1.0162,-1.96289 -0.5077,-0.37226 -1.4883,-0.74419 -2.1314,-1.5564 -0.8121,-0.98141 -0.8459,-2.8103 -0.8459,-9.07104 v -2.29981 c 0,-4.70403 0.304,-8.86699 0.304,-11.84509 0,-1.59057 -0.6432,-3.04688 -3.0121,-3.04688 z m -132.62518,0.20324 c -4.39947,0 -8.86598,0.8806 -8.86598,4.53554 0,0.84604 0.23559,1.25281 0.54017,1.65893 0.33842,0.43994 0.88106,0.70901 1.21948,1.11511 0.37225,0.43995 0.6079,0.94749 0.6079,1.82739 0,0.27074 8.2e-4,0.74596 -0.1007,1.49048 -0.0677,0.60916 -0.23646,1.38703 -0.5072,2.3346 -0.47379,1.62441 -1.45604,2.80883 -2.77588,2.80883 -0.50763,0 -0.74413,-0.4398 -1.48865,-1.75964 -0.67684,-1.18446 -1.5907,-3.24952 -2.03064,-4.53552 -0.13537,-0.40611 -0.2362,-0.77845 -0.2362,-1.04919 0,-0.67684 0.43902,-0.94725 0.94666,-1.5564 0.33841,-0.40611 0.60974,-0.98059 0.60974,-1.99586 0,-4.39944 -3.92704,-4.60326 -9.98474,-4.60326 -4.70404,0 -8.83271,0.40685 -11.37086,1.72668 -1.65825,0.84604 -2.60559,2.09832 -2.60559,3.92578 0,0.98142 0.44004,1.59076 1.04919,2.09839 0.643,0.54147 1.79319,0.60749 2.40235,1.11511 0.67684,0.54148 1.25374,0.94838 2.60742,3.68958 3.1473,6.32844 5.78559,12.52144 9.03442,18.95141 1.286,2.53815 1.72669,4.7719 1.72669,5.88868 0,0.643 -0.20351,1.1842 -0.47424,1.62414 -0.2369,0.33842 -0.50658,0.57603 -0.81116,0.74524 -0.30458,0.16921 -0.64303,0.271 -0.98145,0.271 -1.4552,0 -1.28694,-1.96301 -1.92992,-3.99353 -0.54149,-1.75979 -2.26712,-3.58704 -5.41443,-3.58704 -3.41803,0 -6.02418,3.17997 -6.02418,7.34253 0,3.72261 3.99321,7.64831 10.32166,7.64831 6.63302,0 11.23657,-3.38446 14.41773,-8.833 1.55672,-2.67352 3.01141,-7.13982 4.22973,-10.55786 l 3.99353,-11.3031 c 1.62441,-4.53482 3.11354,-8.46012 4.83948,-9.13697 2.16587,-0.84605 4.02648,-1.11657 4.02648,-3.58704 0,-2.67351 -1.72531,-4.29932 -6.97081,-4.29932 z m -481.12977,0.0678 c -9.37422,0 -19.56116,6.16054 -19.56116,18.479 0,11.30322 7.54685,18.44238 18.17322,18.44238 7.78365,0 15.46509,-5.65117 15.46509,-9.0692 0,-2.06437 -1.42024,-3.51929 -2.63855,-3.51929 -1.18446,0 -4.29743,3.07983 -9.00146,3.07982 -3.79031,0 -6.3978,-2.77448 -7.4469,-5.14342 -0.20306,-0.4738 -0.33692,-0.98184 -0.33692,-1.38794 0,-0.91374 0.54159,-1.25245 2.03064,-1.25245 l 13.33374,0.0678 c 2.84273,0 3.28272,-0.23774 3.85803,-0.88075 0.37228,-0.40609 1.25061,-2.26627 1.25061,-4.53368 0,-6.93759 -6.4628,-14.28223 -15.12634,-14.28223 z m 77.76855,0 c -10.05105,0 -20.4071,5.92347 -20.4071,19.2572 0,8.93427 7.47845,17.29248 17.42798,17.29248 9.13733,0 16.17737,-5.82093 16.17737,-10.59265 0,-2.40277 -1.45453,-3.41858 -3.1128,-3.41858 -3.21498,0 -3.62197,1.65894 -6.63391,1.65894 -5.0086,0 -9.27246,-4.06029 -9.27246,-8.73047 0,-3.85798 1.45565,-5.72022 4.26453,-5.72021 2.43662,0 2.77463,2.1316 3.38379,4.29748 0.64299,2.33509 2.97853,3.48633 6.15966,3.48633 3.99336,0 6.29334,-3.62097 6.29334,-6.53138 0,-5.58392 -5.27844,-10.99914 -14.2804,-10.99914 z m 148.59925,0 c -10.05106,0 -20.40711,5.92347 -20.40711,19.2572 0,8.93427 7.48028,17.29248 17.42981,17.29248 9.13733,0 16.17554,-5.82093 16.17554,-10.59265 0,-2.40277 -1.45453,-3.41858 -3.1128,-3.41858 -3.21497,0 -3.62196,1.65894 -6.63391,1.65894 -5.00859,0 -9.27245,-4.06029 -9.27245,-8.73047 0,-3.85798 1.45565,-5.72022 4.26453,-5.72021 2.43662,0 2.77463,2.1316 3.38378,4.29748 0.643,2.33509 2.97853,3.48633 6.15967,3.48633 3.99335,0 6.29517,-3.62097 6.29517,-6.53138 0,-5.58392 -5.28028,-10.99914 -14.28223,-10.99914 z m 333.88371,0 c -9.37425,0 -19.56122,6.16054 -19.56122,18.479 0,11.30322 7.54688,18.44238 18.17325,18.44238 7.7836,0 15.46688,-5.65117 15.46688,-9.0692 0,-2.06437 -1.422,-3.51929 -2.64038,-3.51929 -1.18443,0 -4.2974,3.07983 -9.0014,3.07982 -3.79032,0 -6.396,-2.77448 -7.44507,-5.14342 -0.20306,-0.4738 -0.33881,-0.98184 -0.33881,-1.38794 0,-0.91374 0.5416,-1.25245 2.03063,-1.25245 l 13.33378,0.0678 c 2.84269,0 3.28275,-0.23774 3.858,-0.88075 0.37228,-0.40609 1.2525,-2.26627 1.2525,-4.53368 0,-6.93759 -6.46463,-14.28223 -15.12816,-14.28223 z m 184.94564,0 c -9.3742,0 -19.5612,6.16054 -19.5612,18.479 0,11.30322 7.5468,18.44238 18.1733,18.44238 7.7836,0 15.4669,-5.65117 15.4669,-9.0692 0,-2.06437 -1.4221,-3.51929 -2.6404,-3.51929 -1.1845,0 -4.2974,3.07983 -9.0014,3.07982 -3.7903,0 -6.396,-2.77448 -7.4452,-5.14342 -0.203,-0.4738 -0.3387,-0.98184 -0.3387,-1.38794 0,-0.91374 0.5416,-1.25245 2.0306,-1.25245 l 13.3338,0.0678 c 2.8427,0 3.2828,-0.23774 3.858,-0.88075 0.3722,-0.40609 1.2525,-2.26627 1.2525,-4.53368 0,-6.93759 -6.4647,-14.28223 -15.1282,-14.28223 z m -438.65845,0.17029 c -4.50098,0 -11.36995,1.62375 -15.19409,5.00793 -1.52289,1.35368 -2.23389,2.87672 -2.23389,4.90722 0,2.43662 1.86143,3.7555 3.92578,3.7555 1.86131,0 3.3832,-0.94594 4.66919,-2.09656 0.87989,-0.8122 2.33613,-3.38444 2.97913,-4.06128 0.77837,-0.84605 1.48792,-1.38794 2.63855,-1.38794 1.99667,0 2.97912,2.50441 2.97912,7.71607 v 0.47424 c 0,0.98141 -0.0684,1.21765 -0.67749,1.21765 -0.643,0 -2.06307,-0.16846 -3.41674,-0.16846 -8.69739,0 -15.43214,4.4671 -15.43214,11.37086 0,6.22691 4.66969,9.64416 10.89661,9.64416 2.13204,0 5.27951,-0.10191 7.78381,-2.30164 0.94757,-0.84604 1.62353,-1.21765 1.9281,-1.21765 0.30458,0 0.67782,0.13501 1.01623,0.57495 1.82747,2.53815 3.11344,2.64039 5.68544,2.64039 5.99001,0 10.99914,-4.3324 10.99914,-8.25806 0,-0.67684 -0.23843,-0.9476 -0.64453,-0.98145 -0.30457,-0.0338 -0.74386,-0.0678 -1.21765,-0.13549 -1.31984,-0.2369 -2.09839,-1.86131 -2.09839,-8.56201 v -6.93787 c 0,-7.91902 -7.07327,-11.20056 -14.58618,-11.20056 z m -191.78101,0.16845 c -12.08158,0 -20.61035,8.63019 -20.61035,18.57972 0,10.62636 7.95301,17.73193 18.24097,17.73193 11.16784,0 20.16906,-8.39179 20.16906,-18.91662 0,-10.7279 -7.91784,-17.39503 -17.79968,-17.39503 z m -64.63807,0.0348 c -3.0796,0 -9.64584,1.4883 -13.30078,3.04504 -3.68876,1.59057 -4.56847,2.36964 -4.56847,4.53552 0,0.74452 0.27069,1.35279 0.9137,1.9281 0.5753,0.50763 1.79419,0.54194 2.50487,1.45569 0.84606,1.11678 0.98145,5.21127 0.98145,8.15552 v 1.96289 c 0,2.84272 -0.0682,4.1626 -0.47424,5.75317 -0.13537,0.57532 -0.57547,1.1842 -1.11695,1.62415 -0.60916,0.47378 -1.38662,0.77878 -1.9281,1.38794 -0.50763,0.5753 -0.7782,1.32015 -0.7782,2.23388 0,3.28267 4.7383,4.2627 11.8451,4.2627 6.73455,0 11.3031,-1.04866 11.3031,-4.29749 0,-1.38752 -0.23673,-1.96158 -0.7782,-2.50305 -0.50763,-0.54147 -1.11842,-0.64322 -1.69372,-1.18469 -0.4061,-0.37226 -0.87904,-1.15176 -1.01441,-2.13318 -0.16921,-1.11678 -0.20325,-2.67215 -0.20325,-5.24414 v -6.02417 c 0,-7.98669 0.16846,-10.72879 0.16846,-13.30078 0,-1.25215 -0.47283,-1.6571 -1.86036,-1.6571 z m 148.59925,0 c -3.07961,0 -9.64402,1.4883 -13.29895,3.04504 -3.68877,1.59057 -4.56848,2.36964 -4.56848,4.53552 0,0.74452 0.27069,1.35279 0.9137,1.9281 0.5753,0.50763 1.79237,0.54194 2.50305,1.45569 0.84605,1.11678 0.98145,5.21127 0.98145,8.15552 v 1.96289 c 0,2.84272 -0.0682,4.1626 -0.47425,5.75317 -0.13537,0.57532 -0.57364,1.1842 -1.11511,1.62415 -0.60916,0.47378 -1.38846,0.77878 -1.92993,1.38794 -0.50763,0.5753 -0.7782,1.32015 -0.7782,2.23388 0,3.28267 4.73828,4.2627 11.84509,4.2627 6.73455,0 11.3031,-1.04866 11.3031,-4.29749 0,-1.38752 -0.23672,-1.96158 -0.7782,-2.50305 -0.50762,-0.54147 -1.11658,-0.64322 -1.69189,-1.18469 -0.40611,-0.37226 -0.88088,-1.15176 -1.01623,-2.13318 -0.16921,-1.11678 -0.20325,-2.67215 -0.20325,-5.24414 v -6.02417 c 0,-7.98669 0.17028,-10.72879 0.17028,-13.30078 0,-1.25215 -0.47465,-1.6571 -1.86218,-1.6571 z m 214.92921,0 c -3.07962,0 -9.64403,1.4883 -13.29896,3.04504 -3.68877,1.59057 -4.56848,2.36964 -4.56848,4.53552 0,0.74452 0.2707,1.35279 0.91369,1.9281 0.57532,0.50763 1.79237,0.54194 2.50305,1.45569 0.84605,1.11678 0.98145,5.21127 0.98145,8.15552 v 1.96289 c 0,2.84272 -0.0663,4.1626 -0.47241,5.75317 -0.13536,0.57532 -0.57548,1.1842 -1.11694,1.62415 -0.60915,0.47378 -1.38846,0.77878 -1.92994,1.38794 -0.50762,0.5753 -0.7782,1.32015 -0.7782,2.23388 0,3.28267 4.7383,4.2627 11.8451,4.2627 6.73455,0 11.3031,-1.04866 11.3031,-4.29749 0,-1.38752 -0.23673,-1.96158 -0.7782,-2.50305 -0.50763,-0.54147 -1.11658,-0.64322 -1.69189,-1.18469 -0.4061,-0.37226 -0.88086,-1.15176 -1.01624,-2.13318 -0.16921,-1.11678 -0.20141,-2.67215 -0.20141,-5.24414 v -6.02417 c 0,-7.98669 0.16845,-10.72879 0.16845,-13.30078 0,-1.25215 -0.47466,-1.6571 -1.86217,-1.6571 z m 272.79967,0 c -3.0796,0 -9.644,1.4883 -13.2989,3.04504 -3.6887,1.59057 -4.5686,2.36964 -4.5686,4.53552 0,0.74452 0.2708,1.35279 0.9137,1.9281 0.5754,0.50763 1.7924,0.54194 2.5032,1.45569 0.846,1.11678 0.9813,5.21127 0.9813,8.15552 v 1.96289 c 0,2.84272 -0.068,4.1626 -0.4742,5.75317 -0.1352,0.57532 -0.5736,1.1842 -1.1151,1.62415 -0.6091,0.47378 -1.3885,0.77878 -1.9299,1.38794 -0.5077,0.5753 -0.7782,1.32015 -0.7782,2.23388 0,3.28267 4.7382,4.2627 11.8451,4.2627 6.7345,0 11.3031,-1.04866 11.3031,-4.29749 0,-1.38752 -0.2367,-1.96158 -0.7782,-2.50305 -0.5077,-0.54147 -1.1167,-0.64322 -1.6919,-1.18469 -0.4061,-0.37226 -0.881,-1.15176 -1.0163,-2.13318 -0.1693,-1.11678 -0.2032,-2.67215 -0.2032,-5.24414 v -6.02417 c 0,-7.98669 0.1703,-10.72879 0.1703,-13.30078 0,-1.25215 -0.4747,-1.6571 -1.8622,-1.6571 z m -534.83642,0.033 c -5.41471,0 -11.84518,2.91017 -14.78943,4.50074 -2.13204,1.15061 -2.40234,2.13171 -2.40234,3.45154 0,0.84604 0.47293,1.52294 1.0144,1.96289 0.77837,0.64298 1.79516,0.7452 2.53967,1.65893 0.77837,0.98142 1.04919,2.53728 1.04919,4.80469 v 2.64037 c 0,2.43663 -0.20458,4.63643 -0.64453,6.73463 -0.30456,1.52288 -0.81173,2.19962 -1.42089,2.74109 -0.67684,0.57531 -1.35362,0.77872 -1.82739,1.32019 -0.33842,0.37226 -0.542,0.84591 -0.542,1.75964 0,2.60583 4.46814,4.22974 10.5597,4.22974 6.73455,0 10.96435,-0.71011 10.96435,-4.16199 0,-0.64299 -0.27031,-1.21893 -0.5072,-1.59119 -0.33842,-0.50763 -0.71009,-0.88038 -1.2854,-1.45568 -0.33842,-0.33842 -0.67844,-0.77722 -0.71229,-1.65711 -0.0677,-1.21831 -0.1007,-3.75743 -0.1007,-7.6831 0,-5.88851 0.10139,-8.18848 3.65479,-8.18848 2.7412,0 4.40002,1.72567 4.40002,8.29101 0,3.18114 -0.068,5.65221 -0.33875,7.27661 -0.20305,1.15064 -0.33901,1.86081 -0.60974,2.3346 -0.4061,0.643 -0.91395,0.91307 -1.18469,1.21765 -0.33842,0.4061 -0.57495,0.84611 -0.57495,1.96289 0,3.21499 3.95976,3.68958 10.72815,3.68958 7.74981,0 9.91516,-1.99768 9.91516,-3.89282 0,-1.0491 -0.27058,-1.55591 -0.7782,-1.99586 -0.43995,-0.40609 -1.11646,-0.64328 -1.5564,-1.25244 -0.30457,-0.50763 -0.50733,-1.25158 -0.64269,-2.26685 -0.13538,-1.21831 -0.23804,-4.26452 -0.23804,-6.15966 0,-11.74316 -0.54111,-13.43516 -2.4701,-16.07483 -1.48903,-2.03052 -4.80499,-3.68958 -8.93371,-3.68958 -3.58724,0 -6.53074,1.0488 -8.73047,4.43299 -0.67683,1.0491 -1.01575,1.35498 -1.45569,1.35498 -0.67684,0 -1.01623,-0.71047 -1.01623,-1.6919 0,-0.94756 0.20325,-2.20095 0.20325,-3.18237 0,-1.28599 -0.87933,-1.4209 -2.26685,-1.4209 z m 192.25524,0 c -5.4147,0 -11.84517,2.91017 -14.78942,4.50074 -2.13205,1.15061 -2.40235,2.13171 -2.40235,3.45154 0,0.84604 0.47477,1.52294 1.01624,1.96289 0.77836,0.64298 1.79332,0.7452 2.53784,1.65893 0.77837,0.98142 1.0492,2.53728 1.0492,4.80469 v 2.64037 c 0,2.43663 -0.20276,4.63643 -0.6427,6.73463 -0.30458,1.52288 -0.81358,2.19962 -1.42274,2.74109 -0.67682,0.57531 -1.3536,0.77872 -1.82739,1.32019 -0.33842,0.37226 -0.54016,0.84591 -0.54016,1.75964 0,2.60583 4.46633,4.22974 10.55786,4.22974 6.73455,0 10.96436,-0.71011 10.96436,-4.16199 0,-0.64299 -0.2703,-1.21893 -0.5072,-1.59119 -0.33842,-0.50763 -0.71009,-0.88038 -1.2854,-1.45568 -0.33843,-0.33842 -0.67661,-0.77722 -0.71045,-1.65711 -0.0677,-1.21831 -0.10254,-3.75743 -0.10254,-7.6831 0,-5.88851 0.10138,-8.18848 3.65478,-8.18848 2.7412,0 4.40003,1.72567 4.40003,8.29101 0,3.18114 -0.068,5.65221 -0.33874,7.27661 -0.20306,1.15064 -0.33901,1.86081 -0.60974,2.3346 -0.40611,0.643 -0.91396,0.91307 -1.1847,1.21765 -0.33842,0.4061 -0.57495,0.84611 -0.57495,1.96289 0,3.21499 3.95977,3.68958 10.72815,3.68958 7.74981,0 9.91516,-1.99768 9.91516,-3.89282 0,-1.0491 -0.27057,-1.55591 -0.77819,-1.99586 -0.43995,-0.40609 -1.11646,-0.64328 -1.5564,-1.25244 -0.30459,-0.50763 -0.50733,-1.25158 -0.64271,-2.26685 -0.13536,-1.21831 -0.2362,-4.26452 -0.2362,-6.15966 0,-4.67019 0.33726,-9.20471 3.55224,-9.20471 2.74121,0 4.40003,1.72567 4.40003,8.29101 0,3.18114 -0.068,5.65221 -0.33875,7.27661 -0.20304,1.15064 -0.339,1.86081 -0.60974,2.3346 -0.4061,0.643 -0.91212,0.91307 -1.18286,1.21765 -0.33842,0.4061 -0.57678,0.84611 -0.57678,1.96289 0,3.21499 3.95977,3.68958 10.72815,3.68958 7.74981,0 9.91699,-1.99768 9.91699,-3.89282 0,-1.0491 -0.2724,-1.55591 -0.78003,-1.99586 -0.43995,-0.40609 -1.11645,-0.64328 -1.55639,-1.25244 -0.30459,-0.50763 -0.50734,-1.25158 -0.6427,-2.26685 -0.13538,-1.21831 -0.23621,-4.26452 -0.23621,-6.15966 0,-11.74316 -0.54293,-13.43516 -2.47192,-16.07483 -1.48905,-2.03052 -4.805,-3.68958 -8.93372,-3.68958 -3.58724,0 -7.54699,1.0488 -9.7467,4.43299 -0.67685,1.0491 -0.98007,1.35498 -1.45386,1.35498 -0.87989,0 -1.45641,-0.94776 -2.20093,-2.09839 -1.25216,-1.99668 -3.11257,-3.68958 -8.59497,-3.68958 -4.26408,0 -7.20823,1.0488 -9.40796,4.43299 -0.67683,1.0491 -1.01574,1.35498 -1.45569,1.35498 -0.67684,0 -1.01623,-0.71047 -1.01623,-1.6919 0,-0.94756 0.20324,-2.20095 0.20324,-3.18237 0,-1.28599 -0.87933,-1.4209 -2.26685,-1.4209 z m 295.47368,0 c -5.4147,0 -11.8451,2.91017 -14.7895,4.50074 -2.1319,1.15061 -2.4023,2.13171 -2.4023,3.45154 0,0.84604 0.4729,1.52294 1.0144,1.96289 0.7784,0.64298 1.7952,0.7452 2.5397,1.65893 0.7784,0.98142 1.0491,2.53728 1.0491,4.80469 v 2.64037 c 0,2.43663 -0.2044,4.63643 -0.6445,6.73463 -0.3045,1.52288 -0.8118,2.19962 -1.4209,2.74109 -0.6769,0.57531 -1.3536,0.77872 -1.8274,1.32019 -0.3384,0.37226 -0.5419,0.84591 -0.5419,1.75964 0,2.60583 4.4681,4.22974 10.5596,4.22974 6.7346,0 10.9644,-0.71011 10.9644,-4.16199 0,-0.64299 -0.2703,-1.21893 -0.5073,-1.59119 -0.3383,-0.50763 -0.71,-0.88038 -1.2853,-1.45568 -0.3384,-0.33842 -0.6784,-0.77722 -0.7123,-1.65711 -0.068,-1.21831 -0.1007,-3.75743 -0.1007,-7.6831 0,-5.88851 0.1014,-8.18848 3.6548,-8.18848 2.7411,0 4.4001,1.72567 4.4001,8.29101 0,3.18114 -0.068,5.65221 -0.3389,7.27661 -0.2029,1.15064 -0.339,1.86081 -0.6097,2.3346 -0.406,0.643 -0.9139,0.91307 -1.1846,1.21765 -0.3385,0.4061 -0.575,0.84611 -0.575,1.96289 0,3.21499 3.9597,3.68958 10.7281,3.68958 7.7498,0 9.9152,-1.99768 9.9152,-3.89282 0,-1.0491 -0.2705,-1.55591 -0.7782,-1.99586 -0.4399,-0.40609 -1.1165,-0.64328 -1.5564,-1.25244 -0.3046,-0.50763 -0.5073,-1.25158 -0.6427,-2.26685 -0.1354,-1.21831 -0.2362,-4.26452 -0.2362,-6.15966 0,-11.74316 -0.543,-13.43516 -2.4719,-16.07483 -1.4891,-2.03052 -4.8051,-3.68958 -8.9337,-3.68958 -3.5874,0 -6.5308,1.0488 -8.7305,4.43299 -0.677,1.0491 -1.0158,1.35498 -1.4557,1.35498 -0.6769,0 -1.0162,-0.71047 -1.0163,-1.6919 0,-0.94756 0.2033,-2.20095 0.2033,-3.18237 0,-1.28599 -0.8792,-1.4209 -2.2668,-1.4209 z m -640.55973,6.19263 c 2.40278,0 3.85803,1.99708 3.85803,5.17822 0,1.15063 -1.04797,1.52344 -2.63855,1.52344 l -3.14758,-0.0677 c -1.38753,0 -2.23389,-0.17012 -2.23389,-0.94848 0,-0.60916 -0.0343,-1.65728 0.37171,-2.77405 0.50763,-1.48905 1.65824,-2.91138 3.79028,-2.91138 z m 560.25327,0 c 2.40282,0 3.8581,1.99708 3.8581,5.17822 0,1.15063 -1.04981,1.52344 -2.64038,1.52344 l -3.14765,-0.0677 c -1.3875,0 -2.232,-0.17012 -2.232,-0.94848 0,-0.60916 -0.0344,-1.65728 0.37171,-2.77405 0.50757,-1.48905 1.65816,-2.91138 3.79022,-2.91138 z m 184.94566,0 c 2.4028,0 3.858,1.99708 3.858,5.17822 0,1.15063 -1.0497,1.52344 -2.6403,1.52344 l -3.1476,-0.0677 c -1.3875,0 -2.2339,-0.17012 -2.2339,-0.94848 0,-0.60916 -0.033,-1.65728 0.3735,-2.77405 0.5077,-1.48905 1.6583,-2.91138 3.7903,-2.91138 z m 39.527,1.65893 c 1.7598,0 3.3847,1.0159 3.3508,2.57263 l -0.2709,9.13697 c -0.1692,5.58392 -1.6932,7.17407 -4.0284,7.17407 -2.3351,0 -3.9239,-3.28274 -3.9239,-8.62976 0,-6.56533 2.0637,-10.25391 4.8724,-10.25391 z m -671.38914,0.60975 c 4.09487,0 5.68543,10.45579 5.68543,15.70129 0,2.19973 -1.18388,4.36706 -3.18055,4.36706 -3.99334,0 -5.61767,-9.7818 -5.61767,-15.80566 0,-2.5043 1.31916,-4.26269 3.11279,-4.26269 z m 192.66174,11.94579 c 0.50764,0 0.94779,0.16974 1.1847,0.542 0.27072,0.37226 0.33874,0.98014 0.33874,1.5216 v 1.11695 c 0,4.23024 -1.01475,4.80651 -2.33459,4.80651 -2.13205,0 -2.97913,-1.69228 -2.97913,-3.99352 0,-2.50432 1.82745,-3.99354 3.79028,-3.99354 z" />
</svg>
