<?xml version="1.0" encoding="UTF-8" standalone="no"?>
<svg
   xmlns:dc="http://purl.org/dc/elements/1.1/"
   xmlns:cc="http://creativecommons.org/ns#"
   xmlns:rdf="http://www.w3.org/1999/02/22-rdf-syntax-ns#"
   xmlns:svg="http://www.w3.org/2000/svg"
   xmlns="http://www.w3.org/2000/svg"
   xmlns:sodipodi="http://sodipodi.sourceforge.net/DTD/sodipodi-0.dtd"
   xmlns:inkscape="http://www.inkscape.org/namespaces/inkscape"
   inkscape:version="1.1-dev (1:0.92.0+devel+202005110039+9ce7266)"
   sodipodi:docname="Cowboy-h.svg"
   viewBox="0 0 1600 640"
   height="640"
   width="1600"
   id="svg2"
   version="1.1">
  <metadata
     id="metadata8">
    <rdf:RDF>
      <cc:Work
         rdf:about="">
        <dc:format>image/svg+xml</dc:format>
        <dc:type
           rdf:resource="http://purl.org/dc/dcmitype/StillImage" />
      </cc:Work>
    </rdf:RDF>
  </metadata>
  <defs
     id="defs6">
    <rect
       id="rect1075"
       height="640.00146"
       width="1599.9976"
       y="0"
       x="0" />
    <rect
       id="rect833"
       height="640.00146"
       width="1599.9976"
       y="0"
       x="0" />
  </defs>
  <sodipodi:namedview
     inkscape:current-layer="svg2"
     inkscape:window-maximized="1"
     inkscape:window-y="30"
     inkscape:window-x="0"
     inkscape:cy="327.49433"
     inkscape:cx="849.62481"
     inkscape:zoom="0.60643522"
     showgrid="false"
     id="namedview4"
     inkscape:window-height="1017"
     inkscape:window-width="1920"
     inkscape:pageshadow="2"
     inkscape:pageopacity="0"
     guidetolerance="10"
     gridtolerance="10"
     objecttolerance="10"
     borderopacity="1"
     bordercolor="#666666"
     pagecolor="#ffffff" />
  <g
     style="font-style:normal;font-variant:normal;font-weight:bold;font-stretch:normal;font-size:126.667px;font-family:'Copperplate CC';-inkscape-font-specification:'Copperplate CC Bold';text-align:center;letter-spacing:3px;word-spacing:0px;text-anchor:middle;white-space:pre;fill:#502d16;stroke:#f4e3d7;stroke-opacity:1;stroke-width:1.84075229;stroke-miterlimit:4;stroke-dasharray:none;paint-order:markers stroke fill"
     id="text831"
     transform="matrix(1.0865123,0,0,1.0865123,-69.200766,437.99745)"
     aria-label="Cowboy Fonts">
    <path
       id="path1164"
       style="font-style:normal;font-variant:normal;font-weight:bold;font-stretch:normal;font-size:126.667px;font-family:'Copperplate CC';-inkscape-font-specification:'Copperplate CC Bold';text-align:center;text-anchor:middle;fill:#502d16;stroke:#f4e3d7;stroke-opacity:1;stroke-width:1.84075229;stroke-miterlimit:4;stroke-dasharray:none;paint-order:markers stroke fill"
       d="m 194.38405,-175.80037 q 2.81539,12.73931 12.71482,18.20522 9.8721,5.34223 25.45611,1.89816 9.77093,-2.15937 16.61923,-7.56455 6.97199,-5.43251 11.37534,-11.33514 l -1.2628,-1.01815 1.38921,-1.3448 17.06077,14.39084 -1.3892,1.34481 -1.44115,-1.23819 q -3.61821,4.17243 -8.91331,8.9749 -5.2951,4.80247 -12.69145,8.90181 -7.27266,4.072 -16.9199,6.20404 -16.20243,3.58073 -29.30598,0.63906 -13.00721,-3.09268 -21.65274,-11.68962 -8.52186,-8.62426 -11.44658,-21.8583 -2.92472,-13.23404 1.16905,-24.64636 4.21746,-11.43965 14.73728,-19.60208 10.61618,-8.31345 26.8186,-11.89419 9.64725,-2.13204 17.53288,-1.66946 7.98198,0.31156 14.05269,1.95357 6.1944,1.61468 10.47889,3.392 l 0.61977,-1.30448 1.82655,0.63412 -9.22895,20.46031 -1.82655,-0.63412 0.88149,-1.88121 q -5.42361,-2.82281 -13.12953,-4.23316 -7.60957,-1.56137 -17.3805,0.598 -15.58401,3.44406 -22.28538,12.44902 -6.70138,9.00496 -3.85866,21.86795 z" />
    <path
       id="path1166"
       style="font-style:normal;font-variant:normal;font-weight:bold;font-stretch:normal;font-size:126.667px;font-family:'Copperplate CC';-inkscape-font-specification:'Copperplate CC Bold';text-align:center;text-anchor:middle;fill:#502d16;stroke:#f4e3d7;stroke-opacity:1;stroke-width:1.84075229;stroke-miterlimit:4;stroke-dasharray:none;paint-order:markers stroke fill"
       d="m 284.77119,-195.37422 q -1.90939,-10.98194 0.6303,-20.03752 2.5397,-9.05557 8.55181,-15.88641 6.11522,-6.97732 14.72619,-11.43153 8.58928,-4.579 18.82245,-6.3582 10.23318,-1.77921 19.86394,-0.36806 9.60907,1.28636 17.59566,5.81185 8.0897,4.379 13.53687,12.04593 5.44718,7.66693 7.35657,18.64887 1.90939,10.98195 -0.63031,20.03752 -2.53969,9.05558 -8.6549,16.0329 -6.01212,6.83083 -14.6014,11.40983 -8.61097,4.45421 -18.84415,6.23341 -10.23317,1.77921 -19.84224,0.49285 -9.63076,-1.41115 -17.72046,-5.79015 -7.98659,-4.52549 -13.43377,-12.19242 -5.44717,-7.66693 -7.35656,-18.64887 z m 20.59114,-3.58011 q 1.56223,8.98523 6.61885,14.40585 5.18141,5.39892 12.46277,7.34712 7.40615,1.9265 15.64261,0.49446 8.36125,-1.45374 14.55773,-5.74528 6.19648,-4.29154 9.12673,-11.10081 3.05504,-6.83097 1.49282,-15.81619 -1.56223,-8.98523 -6.74364,-14.38415 -5.05662,-5.42062 -12.33798,-7.36882 -7.28136,-1.9482 -15.64261,-0.49446 -8.23646,1.43204 -14.55773,5.74528 -6.19648,4.29154 -9.25153,11.12251 -2.93025,6.80927 -1.36802,15.79449 z" />
    <path
       id="path1168"
       style="font-style:normal;font-variant:normal;font-weight:bold;font-stretch:normal;font-size:126.667px;font-family:'Copperplate CC';-inkscape-font-specification:'Copperplate CC Bold';text-align:center;text-anchor:middle;fill:#502d16;stroke:#f4e3d7;stroke-opacity:1;stroke-width:1.84075229;stroke-miterlimit:4;stroke-dasharray:none;paint-order:markers stroke fill"
       d="m 439.44444,-204.97202 10.62221,-59.23407 -2.51461,0.30749 -0.23062,-1.88596 25.1461,-3.07491 0.23061,1.88596 -2.5146,0.30749 24.73606,56.1865 12.35442,-60.722 -2.5146,0.30749 -0.23062,-1.88596 26.4034,-3.22865 0.23061,1.88595 -1.88595,0.23062 -19.87436,87.92931 1.88596,-0.23062 0.23062,1.88596 -23.88879,2.92117 -0.23062,-1.88596 1.88596,-0.23062 -26.02412,-56.28421 -11.69502,60.89658 1.88595,-0.23061 0.23062,1.88595 -23.88879,2.92117 -0.23062,-1.88596 1.88596,-0.23061 -40.47627,-80.54952 -1.88596,0.23061 -0.23062,-1.88595 26.4034,-3.22866 0.23062,1.88595 -2.51461,0.3075 z" />
    <path
       id="path1170"
       style="font-style:normal;font-variant:normal;font-weight:bold;font-stretch:normal;font-size:126.667px;font-family:'Copperplate CC';-inkscape-font-specification:'Copperplate CC Bold';text-align:center;text-anchor:middle;fill:#502d16;stroke:#f4e3d7;stroke-opacity:1;stroke-width:1.84075229;stroke-miterlimit:4;stroke-dasharray:none;paint-order:markers stroke fill"
       d="m 553.67137,-188.47256 -0.14148,-1.89473 2.5263,-0.18865 -6.31978,-84.63126 -2.5263,0.18865 -0.14149,-1.89473 55.57873,-4.1503 q 13.76837,-1.02814 21.80948,4.59536 8.16743,5.61406 8.9409,15.97192 0.61311,8.21049 -3.07055,13.31231 -3.56677,4.96608 -9.20749,7.67365 7.87502,1.69829 12.45846,6.94489 4.58343,5.2466 5.20598,13.58341 0.83949,11.24207 -6.25837,18.2501 -6.98098,6.87228 -20.74935,7.90042 z m 47.77023,-74.69823 -31.07357,2.3204 1.17907,15.78941 29.81041,-2.22607 q 6.69471,-0.49992 9.45848,-2.6116 2.89007,-2.12111 2.56937,-6.41583 -0.57538,-7.70523 -11.94376,-6.85631 z m -27.11191,55.37283 31.70514,-2.36756 q 5.68419,-0.42446 9.17755,-2.97168 3.49335,-2.54722 3.03116,-8.73667 -0.39616,-5.30524 -4.23852,-7.43169 -3.84237,-2.12645 -9.52656,-1.70199 l -31.70514,2.36756 z" />
    <path
       id="path1172"
       style="font-style:normal;font-variant:normal;font-weight:bold;font-stretch:normal;font-size:126.667px;font-family:'Copperplate CC';-inkscape-font-specification:'Copperplate CC Bold';text-align:center;text-anchor:middle;fill:#502d16;stroke:#f4e3d7;stroke-opacity:1;stroke-width:1.84075229;stroke-miterlimit:4;stroke-dasharray:none;paint-order:markers stroke fill"
       d="m 654.67546,-240.21716 q -0.38149,-11.14017 3.37903,-19.76061 3.76052,-8.62044 10.65464,-14.55988 7.01637,-6.07037 16.15794,-9.29847 9.13723,-3.35468 19.51784,-3.71016 10.38061,-0.35548 19.72593,2.36629 9.34098,2.59517 16.62959,8.17567 7.41087,5.44958 11.75229,13.79257 4.34142,8.343 4.7229,19.48316 0.38149,11.14017 -3.37903,19.76061 -3.76052,8.62044 -10.77689,14.69081 -6.89412,5.93944 -16.03135,9.29413 -9.14157,3.22809 -19.52218,3.58357 -10.38061,0.35548 -19.72159,-2.23969 -9.34531,-2.72177 -16.75618,-8.17135 -7.28861,-5.5805 -11.63003,-13.92349 -4.34142,-8.343 -4.72291,-19.48316 z m 20.88781,-0.71529 q 0.31213,9.11468 4.57552,15.179 4.38998,6.05999 11.33437,8.99072 7.07098,2.92639 15.4261,2.64027 8.48172,-0.29045 15.20935,-3.68937 6.72764,-3.39891 10.56619,-9.74068 3.96514,-6.3461 3.65301,-15.46079 -0.31212,-9.11468 -4.7021,-15.17467 -4.26339,-6.06432 -11.20778,-8.99505 -6.94439,-2.93072 -15.42611,-2.64027 -8.35512,0.28612 -15.20935,3.68937 -6.72763,3.39891 -10.69278,9.74501 -3.83855,6.34177 -3.52642,15.45646 z" />
    <path
       id="path1174"
       style="font-style:normal;font-variant:normal;font-weight:bold;font-stretch:normal;font-size:126.667px;font-family:'Copperplate CC';-inkscape-font-specification:'Copperplate CC Bold';text-align:center;text-anchor:middle;fill:#502d16;stroke:#f4e3d7;stroke-opacity:1;stroke-width:1.84075229;stroke-miterlimit:4;stroke-dasharray:none;paint-order:markers stroke fill"
       d="m 794.77636,-199.25222 0.006,-1.89999 3.79998,0.0129 0.11039,-32.42657 -33.00806,-52.5528 -1.77333,-0.006 0.006,-1.89999 27.23325,0.0927 -0.006,1.9 -2.65999,-0.009 20.64866,36.67726 22.16454,-36.53152 -3.29333,-0.0112 0.006,-1.9 27.23325,0.0927 -0.006,1.89999 -1.89999,-0.006 -33.87131,52.19848 -0.11081,32.55323 3.79999,0.0129 -0.006,1.9 z" />
    <path
       id="path1176"
       style="font-style:normal;font-variant:normal;font-weight:bold;font-stretch:normal;font-size:126.667px;font-family:'Copperplate CC';-inkscape-font-specification:'Copperplate CC Bold';text-align:center;text-anchor:middle;fill:#502d16;stroke:#f4e3d7;stroke-opacity:1;stroke-width:1.84075229;stroke-miterlimit:4;stroke-dasharray:none;paint-order:markers stroke fill"
       d="m 918.6245,-196.9131 0.10811,-1.89693 2.52923,0.14415 4.82893,-84.72939 -2.52924,-0.14415 0.10811,-1.89693 78.53276,4.47577 0.1081,-1.89693 1.8969,0.10811 -1.2973,22.76312 -1.8969,-0.10811 0.1802,-3.16154 -55.76966,-3.17844 -0.973,17.07234 35.53577,2.02526 0.10811,-1.89693 1.89692,0.10812 -1.18921,20.86619 -1.89693,-0.10811 0.10811,-1.89693 -35.53576,-2.02526 -1.98202,34.77699 3.79385,0.21622 -0.10811,1.89692 z" />
    <path
       id="path1178"
       style="font-style:normal;font-variant:normal;font-weight:bold;font-stretch:normal;font-size:126.667px;font-family:'Copperplate CC';-inkscape-font-specification:'Copperplate CC Bold';text-align:center;text-anchor:middle;fill:#502d16;stroke:#f4e3d7;stroke-opacity:1;stroke-width:1.84075229;stroke-miterlimit:4;stroke-dasharray:none;paint-order:markers stroke fill"
       d="m 1015.1333,-235.72001 q 1.0712,-11.09511 5.9214,-19.15299 4.8501,-8.05788 12.4584,-13.04984 7.7466,-5.10587 17.2304,-7.11711 9.4961,-2.13733 19.8347,-1.13916 10.3386,0.99817 19.2504,4.91271 8.9239,3.78847 15.4244,10.26986 6.6389,6.36748 9.8579,15.20442 3.219,8.83694 2.1478,19.93204 -1.0712,11.09511 -5.9214,19.15299 -4.8501,8.05788 -12.5967,13.16375 -7.6083,4.99196 -17.1043,7.12928 -9.4839,2.01125 -19.8225,1.01308 -10.3386,-0.99817 -19.2625,-4.78663 -8.9118,-3.91455 -15.5506,-10.28203 -6.5006,-6.48139 -9.7196,-15.31833 -3.219,-8.83694 -2.1478,-19.93204 z m 20.8033,2.0085 q -0.8764,9.07781 2.5617,15.6453 3.5642,6.57966 10.0682,10.389 6.6302,3.82153 14.9515,4.62493 8.4474,0.81557 15.5601,-1.67912 7.1127,-2.49469 11.7437,-8.28311 4.7571,-5.77626 5.6336,-14.85407 0.8764,-9.07782 -2.6878,-15.65747 -3.4381,-6.56749 -9.9421,-10.37683 -6.5041,-3.80935 -14.9515,-4.62493 -8.3213,-0.8034 -15.5601,1.67912 -7.1127,2.49469 -11.8698,8.27094 -4.631,5.78843 -5.5075,14.86624 z" />
    <path
       id="path1180"
       style="font-style:normal;font-variant:normal;font-weight:bold;font-stretch:normal;font-size:126.667px;font-family:'Copperplate CC';-inkscape-font-specification:'Copperplate CC Bold';text-align:center;text-anchor:middle;fill:#502d16;stroke:#f4e3d7;stroke-opacity:1;stroke-width:1.84075229;stroke-miterlimit:4;stroke-dasharray:none;paint-order:markers stroke fill"
       d="m 1130.467,-179.57728 0.2651,-1.88143 2.5085,0.35341 11.8392,-84.03703 -2.5086,-0.35341 0.2651,-1.88143 30.1028,4.2409 -0.2651,1.88143 -3.5119,-0.49478 37.1814,61.13823 7.7219,-54.81222 -2.5085,-0.35341 0.265,-1.88142 23.8314,3.35738 -0.265,1.88142 -2.5086,-0.35341 -11.8392,84.03704 2.5086,0.35341 -0.2651,1.88142 -26.3399,-3.71078 0.265,-1.88143 3.7629,0.53011 -40.3823,-67.47338 -8.5348,60.58192 2.5086,0.35341 -0.2651,1.88142 z" />
    <path
       id="path1182"
       style="font-style:normal;font-variant:normal;font-weight:bold;font-stretch:normal;font-size:126.667px;font-family:'Copperplate CC';-inkscape-font-specification:'Copperplate CC Bold';text-align:center;text-anchor:middle;fill:#502d16;stroke:#f4e3d7;stroke-opacity:1;stroke-width:1.84075229;stroke-miterlimit:4;stroke-dasharray:none;paint-order:markers stroke fill"
       d="m 1264.8059,-159.14568 0.34,-1.86934 3.7386,0.68 12.4667,-68.54234 -31.1556,-5.66666 -0.5667,3.11556 -1.8693,-0.34 3.9666,-21.80892 1.8694,0.33999 -0.34,1.86934 81.6277,14.84664 0.34,-1.86934 1.8693,0.34 -3.9666,21.80893 -1.8694,-0.34 0.5667,-3.11556 -31.1556,-5.66666 -12.4667,68.54235 3.7387,0.68 -0.34,1.86933 z" />
    <path
       id="path1184"
       style="font-style:normal;font-variant:normal;font-weight:bold;font-stretch:normal;font-size:126.667px;font-family:'Copperplate CC';-inkscape-font-specification:'Copperplate CC Bold';text-align:center;text-anchor:middle;fill:#502d16;stroke:#f4e3d7;stroke-opacity:1;stroke-width:1.84075229;stroke-miterlimit:4;stroke-dasharray:none;paint-order:markers stroke fill"
       d="m 1343.9879,-174.76649 1.3877,1.34638 -1.3052,1.7861 q 5.2072,5.17945 12.9287,10.13901 7.8725,4.86339 20.6086,7.69328 11.6232,2.58262 17.8057,1.62073 6.21,-1.08555 7.3365,-6.15525 1.1265,-5.06971 -4.589,-8.54552 -5.7155,-3.47581 -19.3172,-7.66583 -19.4271,-6.00341 -27.231,-14.09546 -7.6803,-8.06457 -5.0702,-19.81145 2.1155,-9.52116 8.875,-14.24754 6.9105,-4.82256 16.7888,-5.4823 9.9058,-0.78338 20.9108,1.66187 13.7253,3.04968 22.065,8.14662 8.4908,5.00076 13.6705,10.30386 l 1.0167,-1.07167 1.3876,1.34639 -14.3293,14.8522 -1.3877,-1.34639 1.3739,-1.51132 q -3.847,-3.70942 -11.4173,-7.59734 -7.4466,-3.86046 -17.4624,-6.0859 -9.7685,-2.1705 -15.264,-0.79646 -5.3719,1.40152 -6.2511,5.35836 -0.7693,3.46224 1.2642,5.99016 2.1845,2.43174 7.7489,4.83591 5.7154,2.30799 15.4427,5.24788 18.589,5.68743 26.022,13.69705 7.5841,7.91345 4.6443,21.14415 -2.0331,9.1502 -8.8475,14.12389 -6.787,4.85003 -17.0912,5.67464 -10.3042,0.82462 -22.6418,-2.0465 -16.1434,-3.84648 -25.7608,-9.6166 -9.6175,-5.77011 -13.6569,-10.94959 l -1.4837,2.00593 -1.3877,-1.34638 z" />
  </g>
  <g
     style="font-style:normal;font-variant:normal;font-weight:900;font-stretch:normal;font-size:53.3333px;font-family:'Besley*';-inkscape-font-specification:'Besley* Heavy';text-align:center;letter-spacing:0px;word-spacing:0px;text-anchor:middle;white-space:pre;shape-inside:url(#rect1075);fill:#502d16"
     id="text1073"
     transform="translate(0,420)"
     aria-label="Cowboy Fonts for the Cowboy Collective">
    <path
       id="path1097"
       style="font-style:normal;font-variant:normal;font-weight:900;font-stretch:normal;font-size:53.3333px;font-family:'Besley*';-inkscape-font-specification:'Besley* Heavy';text-align:center;letter-spacing:0px;word-spacing:0px;text-anchor:middle;white-space:pre;shape-inside:url(#rect1075);fill:#502d16"
       d="m 228.53936,35.359979 q -0.90666,6.879996 -5.86666,10.98666 -4.96,4.053331 -13.43999,4.053331 -10.18666,0 -16.42666,-5.706663 -6.23999,-5.706664 -6.23999,-15.359991 0,-8.959995 6.34666,-14.986658 6.39999,-6.0799963 16.05332,-6.0799963 4.74667,0 8.26666,2.3999983 0.32,0.213334 0.64,0.533333 0.37334,0.32 0.58667,0.48 0.21333,0.16 0.42667,0.16 0.32,0 0.85333,-0.586666 l 1.12,-1.3866662 q 0.64,-0.7999995 2.4,-0.7999995 h 2.82666 q 1.01333,0 1.28,0.3733331 0.26667,0.3199998 0.26667,1.3333326 v 12.213326 q 0,1.013333 -0.48,1.279999 -0.48,0.266667 -1.6,0.266667 h -4.58666 q -0.8,0 -1.22667,-0.213333 -0.42667,-0.213334 -0.53333,-0.426667 -0.10667,-0.213333 -0.26667,-0.853333 -0.10667,-0.693333 -0.21333,-1.013332 -2.24,-6.93333 -8.96,-6.93333 -4.26666,0 -6.82666,3.733331 -2.50667,3.733332 -2.50667,10.506661 0,6.773329 2.61334,10.34666 2.61333,3.573332 7.25332,3.573332 3.68,0 6.29333,-2.026666 2.66667,-2.026665 3.52,-5.546663 0.0533,-0.32 0.10667,-0.693333 0.10667,-0.426667 0.10667,-0.586667 0.0533,-0.159999 0.16,-0.319999 0.10666,-0.213334 0.26666,-0.266667 0.21334,-0.106666 0.53334,-0.16 0.31999,-0.05333 0.85333,-0.05333 h 5.01333 q 0.90666,0 1.17333,0.16 0.32,0.106666 0.32,0.533333 0,0.106666 -0.10667,1.066666 z" />
    <path
       id="path1099"
       style="font-style:normal;font-variant:normal;font-weight:900;font-stretch:normal;font-size:53.3333px;font-family:'Besley*';-inkscape-font-specification:'Besley* Heavy';text-align:center;letter-spacing:0px;word-spacing:0px;text-anchor:middle;white-space:pre;shape-inside:url(#rect1075);fill:#502d16"
       d="m 232.69936,36.266645 q 0,-6.666663 4.26666,-11.199993 4.32,-4.533331 11.68,-4.533331 7.30666,0 11.62666,4.266664 4.31999,4.213331 4.31999,10.133328 0,6.666662 -4.26666,11.093326 -4.26666,4.373331 -11.67999,4.373331 -7.36,0 -11.68,-4.106664 -4.26666,-4.159998 -4.26666,-10.026661 z m 11.99999,-1.333332 q 0,10.133327 3.94667,10.133327 3.94666,0 3.94666,-9.066661 0,-10.133328 -3.94666,-10.133328 -3.94667,0 -3.94667,9.066662 z" />
    <path
       id="path1101"
       style="font-style:normal;font-variant:normal;font-weight:900;font-stretch:normal;font-size:53.3333px;font-family:'Besley*';-inkscape-font-specification:'Besley* Heavy';text-align:center;letter-spacing:0px;word-spacing:0px;text-anchor:middle;white-space:pre;shape-inside:url(#rect1075);fill:#502d16"
       d="m 284.616,34.826646 q 0.90667,-2.933332 1.70667,-4.906664 l 2.66666,-6.879996 q 0.0533,-0.106666 0.16,-0.479999 0.16,-0.373334 0.21333,-0.426667 0.0533,-0.106666 0.21334,-0.266666 0.16,-0.213334 0.42666,-0.213334 0.26667,-0.05333 0.69334,-0.05333 h 3.73333 q 1.17333,0 1.44,0.16 0.32,0.106667 0.69333,0.853333 l 2.88,6.399996 q 1.28,2.933332 1.70666,4.053331 1.01334,2.933332 1.22667,2.933332 0.26667,0 0.96,-2.719999 0.32,-1.333332 1.33333,-4.479997 0.0533,-0.213333 0.16,-0.48 0.10667,-0.266666 0.16,-0.426666 0.0533,-0.16 0.0533,-0.266667 0,-0.426666 -1.54666,-0.426666 h -1.17333 q -0.90667,0 -1.17334,-0.213333 -0.26666,-0.213334 -0.26666,-0.8 0,-0.16 0,-0.48 0.0533,-0.373333 0.0533,-0.639999 v -1.919999 q 0,-1.119999 0.16,-1.333333 0.21333,-0.213333 1.17333,-0.213333 h 12.32 q 1.06666,0 1.27999,0.213333 0.21334,0.16 0.21334,1.013333 v 3.466665 q 0,0.533333 -0.26667,0.746666 -0.21333,0.16 -1.01333,0.16 h -1.28 q -1.38667,0 -1.70667,0.213333 -0.32,0.213333 -0.64,1.279999 -1.06666,3.253332 -3.19999,9.813328 -2.08,6.559996 -3.14667,9.866661 -0.42667,1.333332 -0.8,1.546665 -0.48,0.213333 -1.70666,0.213333 h -3.2 q -0.53334,0 -0.90667,-0.106666 -0.37333,-0.05333 -0.64,-0.106667 -0.21333,-0.05333 -0.42666,-0.32 -0.16,-0.213333 -0.26667,-0.319999 -0.0533,-0.16 -0.21333,-0.586667 -0.16,-0.426666 -0.26667,-0.639999 l -2.82667,-6.079997 q -1.59999,-3.519998 -2.18666,-5.439996 -0.48,-1.599999 -0.8,-1.599999 -0.32,0 -0.8,1.599999 -1.01333,3.466664 -1.92,5.759996 -1.76,4.373331 -2.08,5.226664 -0.10666,0.319999 -0.32,0.959999 -0.21333,0.64 -0.32,0.8 -0.10666,0.16 -0.37333,0.426666 -0.26667,0.32 -0.69333,0.373333 -0.42667,0.05333 -1.17334,0.05333 h -3.30666 q -0.96,0 -1.44,-0.213333 -0.42667,-0.213333 -0.53333,-0.426666 -0.10667,-0.213333 -0.42667,-1.119999 l -6.98666,-19.679989 q -0.42667,-1.173332 -0.74667,-1.333332 -0.42666,-0.16 -1.38666,-0.16 h -1.76 q -0.85334,0 -1.01334,-0.213333 -0.16,-0.213334 -0.16,-1.28 v -2.239998 q 0,-1.333333 0.26667,-1.599999 0.21333,-0.266667 1.44,-0.266667 h 16.90666 q 0.8,0 0.96,0.213333 0.21333,0.213334 0.21333,1.226666 v 3.146665 q 0,0.64 -0.21333,0.853333 -0.21334,0.16 -1.17334,0.16 h -1.38666 q -1.22667,0 -1.22667,0.426666 0,0.106667 0.0533,0.32 0.10666,0.16 0.21333,0.48 0.10667,0.266666 0.21333,0.479999 l 0.48,1.546666 q 0.69333,2.133332 1.28,4.479998 0.32,1.866665 0.64,1.866665 0.37333,0 0.8,-1.973332 z" />
    <path
       id="path1103"
       style="font-style:normal;font-variant:normal;font-weight:900;font-stretch:normal;font-size:53.3333px;font-family:'Besley*';-inkscape-font-specification:'Besley* Heavy';text-align:center;letter-spacing:0px;word-spacing:0px;text-anchor:middle;white-space:pre;shape-inside:url(#rect1075);fill:#502d16"
       d="m 318.41765,13.333325 h -2.02667 q -1.01333,0 -1.17333,-0.16 -0.16,-0.159999 -0.16,-1.173332 V 8.5866615 q 0,-0.533333 0.10666,-0.6933329 0.10667,-0.1599999 0.48,-0.1599999 h 13.76 q 1.01333,0 1.33333,0.3733331 0.32,0.3199998 0.32,1.3333326 V 22.45332 q 0,1.973332 0.32,1.973332 0.0533,0 1.01333,-1.066666 2.45333,-2.773332 7.52,-2.773332 5.27999,0 8.53332,3.946665 3.30667,3.893331 3.30667,10.933327 0,6.986662 -3.52,10.98666 -3.52,3.946664 -8.85333,3.946664 -4.69333,0 -6.77333,-2.719998 -0.16,-0.213334 -0.37333,-0.48 -0.16,-0.32 -0.32,-0.48 -0.10667,-0.213333 -0.21333,-0.373333 -0.10667,-0.213333 -0.21334,-0.266666 -0.10666,-0.106667 -0.16,-0.106667 -0.26666,0 -0.26666,1.866665 v 0.586667 q 0,0.586666 -0.21334,0.746666 -0.16,0.16 -1.01333,0.16 h -12.37332 q -0.26667,0 -0.74667,0 -0.48,0.05333 -0.64,0.05333 -0.53333,0 -0.8,-0.213333 -0.21333,-0.266666 -0.21333,-1.013333 v -3.519998 q 0,-0.639999 0.16,-0.746666 0.21333,-0.16 1.06666,-0.16 h 2.13334 q 1.06666,0 1.22666,-0.16 0.21333,-0.213333 0.21333,-1.279999 V 14.613325 q 0,-0.906667 -0.21333,-1.066666 -0.21333,-0.213334 -1.22666,-0.213334 z m 13.97332,16.053324 q -1.33333,2.346665 -1.33333,6.079997 0,3.733331 1.33333,6.079996 1.33333,2.346665 3.36,2.346665 1.81333,0 3.04,-2.346665 1.22666,-2.399999 1.22666,-6.079996 0,-3.679998 -1.22666,-6.026664 -1.22667,-2.399998 -3.04,-2.399998 -2.02667,0 -3.36,2.346665 z" />
    <path
       id="path1105"
       style="font-style:normal;font-variant:normal;font-weight:900;font-stretch:normal;font-size:53.3333px;font-family:'Besley*';-inkscape-font-specification:'Besley* Heavy';text-align:center;letter-spacing:0px;word-spacing:0px;text-anchor:middle;white-space:pre;shape-inside:url(#rect1075);fill:#502d16"
       d="m 355.19929,36.266645 q 0,-6.666663 4.26666,-11.199993 4.32,-4.533331 11.67999,-4.533331 7.30667,0 11.62666,4.266664 4.32,4.213331 4.32,10.133328 0,6.666662 -4.26666,11.093326 -4.26667,4.373331 -11.68,4.373331 -7.35999,0 -11.67999,-4.106664 -4.26666,-4.159998 -4.26666,-10.026661 z m 11.99999,-1.333332 q 0,10.133327 3.94666,10.133327 3.94667,0 3.94667,-9.066661 0,-10.133328 -3.94667,-10.133328 -3.94666,0 -3.94666,9.066662 z" />
    <path
       id="path1107"
       style="font-style:normal;font-variant:normal;font-weight:900;font-stretch:normal;font-size:53.3333px;font-family:'Besley*';-inkscape-font-specification:'Besley* Heavy';text-align:center;letter-spacing:0px;word-spacing:0px;text-anchor:middle;white-space:pre;shape-inside:url(#rect1075);fill:#502d16"
       d="m 398.20926,63.466629 q -4.74666,0 -7.14666,-2.559999 -2.34667,-2.559998 -2.34667,-6.346663 0,-3.733331 2.13334,-6.239996 2.18666,-2.559998 5.11999,-2.559998 2.45334,0 4,1.439999 1.6,1.439999 1.6,3.839998 0,1.973332 -0.85333,3.093331 -0.8,1.119999 -1.76,1.386666 -0.96,0.266666 -1.81333,0.533333 -0.8,0.32 -0.8,0.853333 0,1.226666 1.86666,1.226666 2.13333,0 3.68,-1.546666 1.54667,-1.546666 3.2,-5.226664 0.42666,-0.959999 0.42666,-1.333332 0,-0.48 -0.48,-1.439999 l -9.91999,-19.733322 q -0.42667,-0.853333 -0.58667,-1.066666 -0.16,-0.213333 -0.69333,-0.373333 -0.48,-0.213333 -1.49333,-0.213333 h -0.8 q -0.90667,0 -1.17333,-0.16 -0.21334,-0.213333 -0.21334,-0.853333 v -3.199998 q 0,-0.959999 0.16,-1.173333 0.16,-0.213333 0.96,-0.213333 h 17.91999 q 0.64,0 0.8,0.213333 0.21334,0.213334 0.21334,1.12 v 3.466664 q 0,0.8 -0.58667,0.8 h -2.50667 q -1.12,0 -1.12,0.32 0,0.106666 0.0533,0.266666 0.10666,0.106667 0.21333,0.32 0.10667,0.16 0.21333,0.373333 l 2.45334,5.119997 q 0.85333,1.759999 1.49333,3.679998 0.48,1.439999 0.64,1.439999 0.10666,0 0.58666,-1.439999 0.53334,-1.546666 1.38667,-3.573331 l 2.13333,-4.799998 q 0.10667,-0.213333 0.26667,-0.479999 0.16,-0.32 0.21333,-0.48 0.10667,-0.213333 0.10667,-0.32 0,-0.426666 -1.22667,-0.426666 h -1.06666 q -1.06667,0 -1.06667,-0.8 0,-0.106666 0,-0.426666 0.0533,-0.32 0.0533,-0.533333 v -2.399999 q 0,-1.013332 0.16,-1.226666 0.21334,-0.213333 1.12,-0.213333 h 10.50666 q 0.26667,0 0.64,0 0.37334,-0.05333 0.53334,-0.05333 0.90666,0 0.90666,1.066666 v 2.986665 q 0,0.213333 0,0.533333 0.0533,0.266666 0.0533,0.373333 0,0.693333 -0.90667,0.693333 h -1.44 q -0.26667,0 -0.48,0 -0.16,0 -0.32,0.106666 -0.10667,0.05333 -0.21333,0.05333 -0.0533,0 -0.16,0.16 -0.10667,0.106666 -0.16,0.16 0,0.05333 -0.10667,0.266666 -0.0533,0.213333 -0.10667,0.32 l -11.14666,23.839986 q -1.27999,2.719998 -2.29333,4.426664 -1.01333,1.706665 -2.56,3.466664 -1.54666,1.759999 -3.62666,2.559999 -2.02667,0.853333 -4.64,0.906666 z" />
    <path
       id="path1109"
       style="font-style:normal;font-variant:normal;font-weight:900;font-stretch:normal;font-size:53.3333px;font-family:'Besley*';-inkscape-font-specification:'Besley* Heavy';text-align:center;letter-spacing:0px;word-spacing:0px;text-anchor:middle;white-space:pre;shape-inside:url(#rect1075);fill:#502d16"
       d="m 449.31091,16.533323 h -3.52 q -0.64,0 -0.85333,-0.266666 -0.21333,-0.266667 -0.21333,-1.279999 v -4.266664 q 0,-0.8533332 0.21333,-1.1199997 0.21333,-0.2666665 0.8,-0.2666665 h 37.70664 q 1.01334,0 1.28,0.3199998 0.26667,0.3199998 0.26667,1.7066654 v 13.066659 q 0,0.746666 -0.32,0.96 -0.26667,0.213333 -1.33333,0.213333 h -3.73333 q -1.06667,0 -1.33334,-0.266667 -0.21333,-0.266666 -0.26666,-1.599999 -0.21334,-3.893331 -1.81333,-5.546663 -1.54667,-1.653333 -5.6,-1.653333 h -6.18666 q -0.90667,0 -1.12,0.213334 -0.16,0.213333 -0.16,1.226666 v 6.826662 q 0,1.226666 0.10666,1.653333 0.10667,0.426666 0.64,0.426666 0.42667,0 1.22667,-0.32 2.34666,-0.906666 3.2,-3.146665 0.10666,-0.266666 0.26666,-1.066666 0.16,-0.853332 0.48,-1.119999 0.32,-0.32 1.12,-0.32 h 2.29333 q 0.85334,0 1.12,0.213333 0.26667,0.213334 0.26667,0.746667 0,0.106666 -0.0533,0.533333 0,0.373333 0,0.586666 v 14.399991 0.266667 q 0,1.226666 -0.26667,1.439999 -0.26667,0.213333 -1.6,0.213333 h -1.70666 q -0.74667,0 -1.12,-0.16 -0.32,-0.16 -0.37334,-0.373333 -0.0533,-0.213333 -0.16,-0.746666 -0.0533,-0.533333 -0.16,-0.959999 -0.74666,-2.506666 -3.09333,-3.573332 -1.17333,-0.479999 -1.44,-0.479999 -0.74666,0 -0.74666,1.919999 v 4.85333 q 0,1.546666 0.37333,1.973332 0.37333,0.373333 1.92,0.373333 h 2.77333 q 1.33333,0 1.6,0.32 0.26667,0.32 0.26667,1.866666 v 3.519997 q 0,1.013333 -0.21334,1.28 -0.16,0.213333 -0.90666,0.213333 h -22.87999 q -0.90667,0 -1.12,-0.266667 -0.21333,-0.319999 -0.21333,-1.546665 v -4.319998 q 0,-0.639999 0.26666,-0.853333 0.26667,-0.213333 1.22667,-0.213333 h 2.34666 q 1.44,0 1.70667,-0.266666 0.32,-0.266667 0.32,-1.546666 v -22.13332 q 0,-1.173333 -0.21333,-1.386666 -0.16,-0.266667 -1.06667,-0.266667 z" />
    <path
       id="path1111"
       style="font-style:normal;font-variant:normal;font-weight:900;font-stretch:normal;font-size:53.3333px;font-family:'Besley*';-inkscape-font-specification:'Besley* Heavy';text-align:center;letter-spacing:0px;word-spacing:0px;text-anchor:middle;white-space:pre;shape-inside:url(#rect1075);fill:#502d16"
       d="m 483.11588,36.266645 q 0,-6.666663 4.26667,-11.199993 4.31999,-4.533331 11.67999,-4.533331 7.30666,0 11.62666,4.266664 4.32,4.213331 4.32,10.133328 0,6.666662 -4.26667,11.093326 -4.26666,4.373331 -11.67999,4.373331 -7.36,0 -11.67999,-4.106664 -4.26667,-4.159998 -4.26667,-10.026661 z m 12,-1.333332 q 0,10.133327 3.94666,10.133327 3.94666,0 3.94666,-9.066661 0,-10.133328 -3.94666,-10.133328 -3.94666,0 -3.94666,9.066662 z" />
    <path
       id="path1113"
       style="font-style:normal;font-variant:normal;font-weight:900;font-stretch:normal;font-size:53.3333px;font-family:'Besley*';-inkscape-font-specification:'Besley* Heavy';text-align:center;letter-spacing:0px;word-spacing:0px;text-anchor:middle;white-space:pre;shape-inside:url(#rect1075);fill:#502d16"
       d="M 521.17835,42.613308 V 28.42665 q 0,-0.906666 -0.16,-1.066666 -0.16,-0.16 -1.01333,-0.16 h -2.13333 q -1.01334,0 -1.28,-0.16 -0.21334,-0.213333 -0.21334,-0.96 V 22.77332 q 0,-0.8 0.10667,-0.96 0.16,-0.213333 0.74667,-0.213333 h 12.05332 q 0.16,0 0.48,0 0.32,-0.05333 0.48,-0.05333 1.06667,0 1.06667,0.906666 v 0.959999 q 0,1.813333 0.26666,1.813333 0.10667,0 0.26667,-0.16 0.21333,-0.213333 0.53333,-0.64 0.37334,-0.48 0.64,-0.799999 2.72,-3.093332 8.05333,-3.093332 4.64,0 7.14666,2.399999 2.56,2.399998 2.56,6.719996 v 13.066659 q 0,0.693332 0.21334,0.853332 0.21333,0.16 1.12,0.16 h 2.02666 q 0.90667,0 1.17333,0.213333 0.26667,0.16 0.26667,0.8 v 3.519998 q 0,0.746666 -0.21333,0.906666 -0.16,0.16 -1.12,0.16 h -15.99999 q -0.90667,0 -1.12,-0.16 -0.21334,-0.213333 -0.21334,-0.799999 v -3.199999 q 0,-0.159999 -0.0533,-0.426666 0,-0.266667 0,-0.373333 0,-0.64 0.85333,-0.64 h 1.06667 q 0.8,0 0.8,-0.586666 V 30.506648 q 0,-2.079998 -0.58667,-2.879998 -0.53333,-0.853333 -1.81333,-0.853333 -1.81333,0 -3.30666,1.866666 -1.49334,1.866665 -1.49334,5.599997 v 8.799994 q 0,0.426667 0.16,0.586667 0.16,0.106666 0.8,0.106666 h 0.64 q 0.69334,0 0.90667,0.213333 0.21333,0.16 0.21333,0.64 0,0.106667 -0.0533,0.48 0,0.32 0,0.533333 v 2.026665 q 0,1.12 -0.26667,1.439999 -0.21333,0.266667 -1.01333,0.266667 h -16.21332 q -0.74667,0 -1.01334,-0.213333 -0.21333,-0.213333 -0.21333,-0.746666 0,-0.16 0,-0.533334 0.0533,-0.373333 0.0533,-0.639999 V 45.06664 q 0,-0.906666 0.16,-1.12 0.16,-0.213333 0.8,-0.213333 h 2.34667 q 1.01333,0 1.22666,-0.16 0.26667,-0.213333 0.26667,-0.959999 z" />
    <path
       id="path1115"
       style="font-style:normal;font-variant:normal;font-weight:900;font-stretch:normal;font-size:53.3333px;font-family:'Besley*';-inkscape-font-specification:'Besley* Heavy';text-align:center;letter-spacing:0px;word-spacing:0px;text-anchor:middle;white-space:pre;shape-inside:url(#rect1075);fill:#502d16"
       d="m 578.27749,45.22664 q -3.2,5.01333 -10.29333,5.01333 -4.74667,0 -6.93333,-1.919999 -2.13333,-1.919999 -2.13333,-6.239996 V 28.58665 q 0,-1.013333 -0.21334,-1.173333 -0.21333,-0.213333 -1.33333,-0.213333 h -1.81333 q -1.17333,0 -1.38667,-0.213333 -0.21333,-0.213334 -0.21333,-1.44 v -2.239998 q 0,-0.32 0,-0.533333 0,-0.213333 0.0533,-0.426667 0.0533,-0.213333 0.0533,-0.319999 0,-0.106667 0.10666,-0.16 0.10667,-0.106667 0.16,-0.16 0.0533,-0.05333 0.26667,-0.05333 0.21333,-0.05333 0.32,-0.05333 0.10667,0 0.42667,0 0.37333,-0.05333 0.53333,-0.05333 3.41333,-0.16 5.76,-1.653333 2.34666,-1.546665 3.51999,-5.866663 0.0533,-0.266666 0.16,-0.799999 0.10667,-0.586667 0.21334,-0.746666 0.10666,-0.16 0.42666,-0.32 0.37334,-0.16 1.01334,-0.16 h 1.81333 q 0.90666,0 1.12,0.213333 0.21333,0.16 0.21333,0.746666 v 7.146663 q 0,1.119999 0.16,1.333332 0.21333,0.16 1.28,0.16 h 4.05333 q 0.90667,0 1.06667,0.16 0.21333,0.16 0.21333,0.959999 v 0.266667 3.093331 q 0,0.693333 -0.26667,0.906667 -0.21333,0.213333 -1.22666,0.213333 h -3.84 q -0.96,0 -1.22667,0.32 -0.21333,0.319999 -0.21333,1.653332 v 11.946659 q 0,2.773332 1.92,2.773332 1.12,0 2.08,-1.013333 0.16,-0.159999 0.37333,-0.533333 0.26667,-0.373333 0.48,-0.586666 0.21333,-0.266666 0.48,-0.266666 0.26667,0 0.48,0.16 l 2.13333,1.333332 q 0.90667,0.533333 0.90667,0.906666 0,0.32 -0.69333,1.333333 z" />
    <path
       id="path1117"
       style="font-style:normal;font-variant:normal;font-weight:900;font-stretch:normal;font-size:53.3333px;font-family:'Besley*';-inkscape-font-specification:'Besley* Heavy';text-align:center;letter-spacing:0px;word-spacing:0px;text-anchor:middle;white-space:pre;shape-inside:url(#rect1075);fill:#502d16"
       d="m 602.91999,30.133315 q -0.8,-2.239998 -2.77333,-3.413331 -1.97334,-1.173333 -4,-1.173333 -3.09333,0 -3.09333,1.599999 0,1.12 1.22666,1.973333 1.28,0.853332 3.14667,1.386665 1.86666,0.533333 3.99999,1.386666 2.18667,0.853333 4.05334,1.866666 1.86666,0.959999 3.09333,2.826665 1.28,1.866665 1.28,4.373331 0,9.546661 -12.64,9.546661 -4.37333,0 -7.51999,-2.026666 -0.90667,-0.586666 -1.12,-0.586666 -0.26667,0 -0.85333,0.853333 -0.53334,0.746666 -0.90667,0.906666 -0.32,0.213333 -1.49333,0.213333 h -2.13333 q -1.12,0 -1.38667,-0.213333 -0.21333,-0.213333 -0.21333,-1.173333 v -8.799995 q 0,-0.799999 0.21333,-0.959999 0.26667,-0.213333 1.28,-0.213333 h 2.45333 q 0.48,0 0.74667,0.05333 0.32,0.05333 0.48,0.106667 0.21333,0 0.37333,0.213333 0.16,0.16 0.21333,0.266666 0.0533,0.05333 0.16,0.426667 0.16,0.32 0.21334,0.533333 1.06666,2.453332 3.09333,3.839997 2.02666,1.386666 4.26666,1.386666 3.94667,0 3.94667,-2.293332 0,-1.386665 -1.70667,-2.346665 -1.70667,-1.013333 -4.16,-1.759999 -2.4,-0.746666 -4.85333,-1.706666 -2.4,-1.013332 -4.10666,-2.986664 -1.70667,-2.026666 -1.70667,-4.906664 0,-4.319998 3.25333,-6.61333 3.30667,-2.293332 8.21333,-2.293332 4.16,0 6.61333,1.546666 0.32,0.213333 0.64,0.533333 0.32,0.266667 0.48,0.48 0.21333,0.16 0.37333,0.16 0.26667,0 0.64,-0.64 l 0.42667,-0.746666 q 0.42667,-0.693333 2.13333,-0.693333 h 1.70667 q 0.21333,0 0.58666,0 0.37334,-0.05333 0.48,-0.05333 0.85334,0 0.85334,1.066666 v 8.106662 q 0,1.119999 -0.21334,1.333332 -0.21333,0.213333 -1.28,0.213333 h -3.30666 q -0.53333,0 -0.74667,-0.159999 -0.21333,-0.16 -0.32,-0.693333 -0.0533,-0.586667 -0.10666,-0.746667 z" />
    <path
       id="path1119"
       style="font-style:normal;font-variant:normal;font-weight:900;font-stretch:normal;font-size:53.3333px;font-family:'Besley*';-inkscape-font-specification:'Besley* Heavy';text-align:center;letter-spacing:0px;word-spacing:0px;text-anchor:middle;white-space:pre;shape-inside:url(#rect1075);fill:#502d16"
       d="m 644.04494,27.999983 v 14.079992 0.266666 q 0,1.013333 0.21333,1.226666 0.21334,0.16 1.38667,0.16 h 3.52 q 0.85333,0 1.06666,0.266667 0.21334,0.213333 0.21334,1.119999 v 3.359998 q 0,0.533333 -0.21334,0.693333 -0.21333,0.16 -0.96,0.16 h -20.10665 q -0.69334,0 -0.90667,-0.266667 -0.21333,-0.319999 -0.21333,-1.333332 V 45.06664 q 0,-1.013333 0.16,-1.173333 0.16,-0.16 1.12,-0.16 h 2.13333 q 0.85333,0 1.12,-0.213333 0.26667,-0.213333 0.26667,-0.799999 V 28.42665 q 0,-0.853333 -0.16,-1.013333 -0.10667,-0.213333 -0.8,-0.213333 h -2.88 q -0.64,0 -0.8,-0.106667 -0.16,-0.16 -0.16,-0.586666 v -3.626665 q 0,-0.959999 0.16,-1.119999 0.16,-0.16 1.12,-0.16 h 2.24 q 0.85333,0 1.06666,-0.16 0.21334,-0.16 0.21334,-0.746666 v -1.866666 q 0,-4.85333 4.15999,-8.479995 4.16,-3.6799973 11.68,-3.6799973 6.07999,0 9.22666,2.2399987 3.2,2.2399986 3.2,5.5466636 0,2.986665 -1.76,4.479997 -1.76,1.439999 -4.48,1.439999 -2.88,0 -4.64,-1.386666 -1.76,-1.386665 -1.76,-3.573331 0,-1.119999 0.48,-1.866665 0.48,-0.8 0.96,-1.173333 0.48,-0.426666 0.48,-0.64 0,-0.426666 -1.28,-0.426666 -1.97333,0 -3.52,2.079999 -1.54666,2.026665 -1.54666,6.613329 v 0.746666 q 0,0.64 0.10667,0.746667 0.16,0.106666 0.85333,0.106666 h 4.37333 q 0.64,0 0.85333,0.213333 0.21334,0.16 0.21334,0.853333 v 3.519998 q 0,0.586666 -0.21334,0.8 -0.21333,0.213333 -0.96,0.213333 h -4.15999 q -0.69334,0 -0.90667,0.16 -0.16,0.16 -0.16,0.639999 z" />
    <path
       id="path1121"
       style="font-style:normal;font-variant:normal;font-weight:900;font-stretch:normal;font-size:53.3333px;font-family:'Besley*';-inkscape-font-specification:'Besley* Heavy';text-align:center;letter-spacing:0px;word-spacing:0px;text-anchor:middle;white-space:pre;shape-inside:url(#rect1075);fill:#502d16"
       d="m 652.0741,36.266645 q 0,-6.666663 4.26667,-11.199993 4.32,-4.533331 11.67999,-4.533331 7.30666,0 11.62666,4.266664 4.32,4.213331 4.32,10.133328 0,6.666662 -4.26667,11.093326 -4.26666,4.373331 -11.67999,4.373331 -7.35999,0 -11.67999,-4.106664 -4.26667,-4.159998 -4.26667,-10.026661 z m 12,-1.333332 q 0,10.133327 3.94666,10.133327 3.94667,0 3.94667,-9.066661 0,-10.133328 -3.94667,-10.133328 -3.94666,0 -3.94666,9.066662 z" />
    <path
       id="path1123"
       style="font-style:normal;font-variant:normal;font-weight:900;font-stretch:normal;font-size:53.3333px;font-family:'Besley*';-inkscape-font-specification:'Besley* Heavy';text-align:center;letter-spacing:0px;word-spacing:0px;text-anchor:middle;white-space:pre;shape-inside:url(#rect1075);fill:#502d16"
       d="m 704.21659,49.333304 h -18.02665 q -0.74667,0 -0.96,-0.213333 -0.16,-0.266667 -0.16,-1.333333 v -2.666665 q 0,-0.959999 0.16,-1.173333 0.21333,-0.213333 0.90666,-0.213333 h 2.29334 q 0.96,0 1.17333,-0.16 0.26667,-0.213333 0.26667,-0.959999 V 28.479983 q 0,-0.853333 -0.16,-1.066666 -0.16,-0.213333 -0.74667,-0.213333 h -2.24 q -1.06667,0 -1.38666,-0.266667 -0.32,-0.266666 -0.32,-0.959999 0,-0.16 0,-0.586666 0.0533,-0.48 0.0533,-0.746667 V 22.93332 q 0,-0.853333 0.32,-1.066666 0.32,-0.266667 1.22666,-0.266667 h 13.86666 q 0.37334,0 0.48,0.16 0.10667,0.16 0.10667,0.693333 v 0.373333 q 0,1.279999 0.32,1.279999 0.16,0 0.37333,-0.16 0.21334,-0.213333 0.53333,-0.533333 0.32,-0.373333 0.48,-0.533333 2.88,-2.346665 7.09333,-2.346665 3.89333,0 6.29333,1.866666 2.4,1.866665 2.4,5.279997 0,2.453331 -1.70666,4.586663 -1.70667,2.133332 -4.8,2.133332 -2.56,0 -4.26667,-1.279999 -1.65333,-1.279999 -1.65333,-3.306664 0,-1.493333 0.8,-2.559999 0.8,-1.066666 0.8,-1.173333 0,-0.533333 -0.8,-0.533333 -2.02666,0 -3.94666,2.933332 -1.92,2.879998 -1.92,6.826663 v 6.933329 q 0,1.066666 0.21333,1.279999 0.26667,0.213333 1.54667,0.213333 h 1.70666 q 0.85334,0 1.12,0.266667 0.26667,0.213333 0.26667,0.799999 0,0.16 -0.0533,0.586667 0,0.426666 0,0.693333 v 1.759998 q 0,1.066667 -0.26667,1.28 -0.21333,0.213333 -1.38667,0.213333 z" />
    <path
       id="path1125"
       style="font-style:normal;font-variant:normal;font-weight:900;font-stretch:normal;font-size:53.3333px;font-family:'Besley*';-inkscape-font-specification:'Besley* Heavy';text-align:center;letter-spacing:0px;word-spacing:0px;text-anchor:middle;white-space:pre;shape-inside:url(#rect1075);fill:#502d16"
       d="m 759.94405,45.22664 q -3.2,5.01333 -10.29333,5.01333 -4.74666,0 -6.93333,-1.919999 -2.13333,-1.919999 -2.13333,-6.239996 V 28.58665 q 0,-1.013333 -0.21333,-1.173333 -0.21333,-0.213333 -1.33333,-0.213333 h -1.81334 q -1.17333,0 -1.38666,-0.213333 -0.21334,-0.213334 -0.21334,-1.44 v -2.239998 q 0,-0.32 0,-0.533333 0,-0.213333 0.0533,-0.426667 0.0533,-0.213333 0.0533,-0.319999 0,-0.106667 0.10667,-0.16 0.10666,-0.106667 0.16,-0.16 0.0533,-0.05333 0.26666,-0.05333 0.21334,-0.05333 0.32,-0.05333 0.10667,0 0.42667,0 0.37333,-0.05333 0.53333,-0.05333 3.41334,-0.16 5.76,-1.653333 2.34667,-1.546665 3.52,-5.866663 0.0533,-0.266666 0.16,-0.799999 0.10666,-0.586667 0.21333,-0.746666 0.10667,-0.16 0.42667,-0.32 0.37333,-0.16 1.01333,-0.16 h 1.81333 q 0.90667,0 1.12,0.213333 0.21334,0.16 0.21334,0.746666 v 7.146663 q 0,1.119999 0.16,1.333332 0.21333,0.16 1.27999,0.16 h 4.05334 q 0.90666,0 1.06666,0.16 0.21333,0.16 0.21333,0.959999 v 0.266667 3.093331 q 0,0.693333 -0.26666,0.906667 -0.21334,0.213333 -1.22667,0.213333 h -3.84 q -0.95999,0 -1.22666,0.32 -0.21333,0.319999 -0.21333,1.653332 v 11.946659 q 0,2.773332 1.91999,2.773332 1.12,0 2.08,-1.013333 0.16,-0.159999 0.37334,-0.533333 0.26666,-0.373333 0.48,-0.586666 0.21333,-0.266666 0.48,-0.266666 0.26666,0 0.48,0.16 l 2.13333,1.333332 q 0.90666,0.533333 0.90666,0.906666 0,0.32 -0.69333,1.333333 z" />
    <path
       id="path1127"
       style="font-style:normal;font-variant:normal;font-weight:900;font-stretch:normal;font-size:53.3333px;font-family:'Besley*';-inkscape-font-specification:'Besley* Heavy';text-align:center;letter-spacing:0px;word-spacing:0px;text-anchor:middle;white-space:pre;shape-inside:url(#rect1075);fill:#502d16"
       d="m 766.29323,13.333325 h -3.09333 q -0.48,0 -0.64,-0.16 -0.10667,-0.159999 -0.10667,-0.799999 V 9.1199946 q 0,-0.9599995 0.16,-1.1733327 0.16,-0.2133332 0.96,-0.2133332 h 12.10666 q 1.28,0 1.49333,0.2666665 0.21334,0.2133332 0.21334,1.4933325 V 19.893321 q 0,0.746667 -0.0533,1.706666 0,0.906666 0,1.119999 0,0.853333 0.21334,0.853333 0.26666,0 0.90666,-0.639999 1.12,-1.013333 3.2,-1.706666 2.13333,-0.693333 4.42666,-0.693333 4.64,0 7.14667,2.399999 2.55999,2.399998 2.55999,6.719996 v 12.586659 q 0,1.119999 0.16,1.333332 0.21334,0.16 1.33334,0.16 h 2.50666 q 0.53334,0 0.64,0.16 0.16,0.16 0.16,0.906666 v 3.093332 0.266666 q 0,0.853333 -0.21333,1.013333 -0.16,0.16 -1.17333,0.16 h -15.94666 q -1.01333,0 -1.17333,-0.16 -0.16,-0.16 -0.16,-1.173333 V 44.74664 q 0,-0.64 0.16,-0.8 0.16,-0.213333 0.85333,-0.213333 h 0.90667 q 0.79999,0 0.79999,-0.799999 0,-0.16 -0.0533,-0.533333 0,-0.373333 0,-0.586667 v -11.30666 q 0,-2.079998 -0.58666,-2.879998 -0.53334,-0.853333 -1.81334,-0.853333 -1.81333,0 -3.30666,1.866666 -1.49333,1.866665 -1.49333,5.599997 v 8.906661 q 0,0.586666 0.74666,0.586666 h 0.8 q 0.74667,0 0.90667,0.213333 0.21333,0.213334 0.21333,0.96 v 3.573331 q 0,0.64 -0.16,0.746666 -0.10667,0.106667 -0.74667,0.106667 h -15.35999 q -0.90666,0 -1.12,-0.16 -0.21333,-0.16 -0.21333,-0.853333 v -3.199998 q 0,-1.013333 0.16,-1.173333 0.21333,-0.213333 1.22667,-0.213333 h 1.97333 q 0.90667,0 1.17333,-0.266666 0.32,-0.266667 0.32,-0.853333 0,-0.16 -0.0533,-0.586666 0,-0.48 0,-0.746667 V 14.666658 q 0,-0.906666 -0.16,-1.119999 -0.16,-0.213334 -0.8,-0.213334 z" />
    <path
       id="path1129"
       style="font-style:normal;font-variant:normal;font-weight:900;font-stretch:normal;font-size:53.3333px;font-family:'Besley*';-inkscape-font-specification:'Besley* Heavy';text-align:center;letter-spacing:0px;word-spacing:0px;text-anchor:middle;white-space:pre;shape-inside:url(#rect1075);fill:#502d16"
       d="m 831.19651,37.279978 h -15.67999 q -0.90667,0 -1.28,0.213333 -0.37334,0.16 -0.37334,0.746666 0,0.05333 0,0.16 0.0533,0.05333 0.0533,0.106667 0.26666,3.039998 1.38666,4.746664 1.17333,1.653332 3.73333,1.653332 3.46667,0 5.28,-3.893331 0.21333,-0.48 0.32,-0.586666 0.10667,-0.106667 0.37333,-0.213334 0.26667,-0.106666 0.85334,-0.106666 h 4.63999 q 1.38667,0 1.38667,0.479999 0,0.106667 -0.32,1.173333 -1.38667,4.426664 -5.01333,6.559996 -3.57333,2.079999 -8.69333,2.079999 -7.62666,0 -11.78666,-4.159998 -4.10666,-4.21333 -4.10666,-10.239993 0,-6.719996 4.26666,-11.093327 4.26666,-4.373331 11.99999,-4.373331 3.46667,0 6.02667,0.906666 2.61333,0.906666 4.10666,2.293332 1.49333,1.386666 2.4,3.413331 0.96,2.026666 1.28,3.893331 0.37333,1.813333 0.48,4.053331 0,0.266667 0.0533,0.693333 0.0533,0.426667 0.0533,0.586667 0,0.533333 -0.31999,0.746666 -0.26667,0.16 -1.12,0.16 z m -9.81333,-6.77333 q -0.37333,-4.69333 -3.2,-4.69333 -3.46666,0 -4.16,4.586664 0,0.16 -0.10666,0.48 -0.0533,0.319999 -0.0533,0.426666 0,0.48 0.96,0.48 h 5.28 q 0.58667,0 0.8,0 0.21333,-0.05333 0.32,-0.213333 0.16,-0.16 0.16,-0.48 z" />
    <path
       id="path1131"
       style="font-style:normal;font-variant:normal;font-weight:900;font-stretch:normal;font-size:53.3333px;font-family:'Besley*';-inkscape-font-specification:'Besley* Heavy';text-align:center;letter-spacing:0px;word-spacing:0px;text-anchor:middle;white-space:pre;shape-inside:url(#rect1075);fill:#502d16"
       d="m 894.05981,35.359979 q -0.90667,6.879996 -5.86666,10.98666 -4.96,4.053331 -13.43999,4.053331 -10.18666,0 -16.42666,-5.706663 -6.24,-5.706664 -6.24,-15.359991 0,-8.959995 6.34667,-14.986658 6.39999,-6.0799963 16.05332,-6.0799963 4.74666,0 8.26666,2.3999983 0.32,0.213334 0.64,0.533333 0.37333,0.32 0.58667,0.48 0.21333,0.16 0.42666,0.16 0.32,0 0.85334,-0.586666 l 1.12,-1.3866662 q 0.64,-0.7999995 2.39999,-0.7999995 h 2.82667 q 1.01333,0 1.28,0.3733331 0.26666,0.3199998 0.26666,1.3333326 v 12.213326 q 0,1.013333 -0.48,1.279999 -0.47999,0.266667 -1.59999,0.266667 h -4.58667 q -0.8,0 -1.22666,-0.213333 -0.42667,-0.213334 -0.53334,-0.426667 -0.10666,-0.213333 -0.26666,-0.853333 -0.10667,-0.693333 -0.21334,-1.013332 -2.24,-6.93333 -8.95999,-6.93333 -4.26667,0 -6.82666,3.733331 -2.50667,3.733332 -2.50667,10.506661 0,6.773329 2.61333,10.34666 2.61333,3.573332 7.25333,3.573332 3.68,0 6.29333,-2.026666 2.66667,-2.026665 3.52,-5.546663 0.0533,-0.32 0.10667,-0.693333 0.10666,-0.426667 0.10666,-0.586667 0.0533,-0.159999 0.16,-0.319999 0.10667,-0.213334 0.26667,-0.266667 0.21333,-0.106666 0.53333,-0.16 0.32,-0.05333 0.85333,-0.05333 h 5.01333 q 0.90667,0 1.17334,0.16 0.32,0.106666 0.32,0.533333 0,0.106666 -0.10667,1.066666 z" />
    <path
       id="path1133"
       style="font-style:normal;font-variant:normal;font-weight:900;font-stretch:normal;font-size:53.3333px;font-family:'Besley*';-inkscape-font-specification:'Besley* Heavy';text-align:center;letter-spacing:0px;word-spacing:0px;text-anchor:middle;white-space:pre;shape-inside:url(#rect1075);fill:#502d16"
       d="m 898.2198,36.266645 q 0,-6.666663 4.26666,-11.199993 4.32,-4.533331 11.67999,-4.533331 7.30666,0 11.62666,4.266664 4.32,4.213331 4.32,10.133328 0,6.666662 -4.26666,11.093326 -4.26667,4.373331 -11.68,4.373331 -7.35999,0 -11.67999,-4.106664 -4.26666,-4.159998 -4.26666,-10.026661 z m 11.99999,-1.333332 q 0,10.133327 3.94666,10.133327 3.94667,0 3.94667,-9.066661 0,-10.133328 -3.94667,-10.133328 -3.94666,0 -3.94666,9.066662 z" />
    <path
       id="path1135"
       style="font-style:normal;font-variant:normal;font-weight:900;font-stretch:normal;font-size:53.3333px;font-family:'Besley*';-inkscape-font-specification:'Besley* Heavy';text-align:center;letter-spacing:0px;word-spacing:0px;text-anchor:middle;white-space:pre;shape-inside:url(#rect1075);fill:#502d16"
       d="m 950.13643,34.826646 q 0.90667,-2.933332 1.70667,-4.906664 l 2.66666,-6.879996 q 0.0533,-0.106666 0.16,-0.479999 0.16,-0.373334 0.21334,-0.426667 0.0533,-0.106666 0.21333,-0.266666 0.16,-0.213334 0.42666,-0.213334 0.26667,-0.05333 0.69334,-0.05333 h 3.73333 q 1.17333,0 1.44,0.16 0.32,0.106667 0.69333,0.853333 l 2.88,6.399996 q 1.28,2.933332 1.70666,4.053331 1.01334,2.933332 1.22667,2.933332 0.26667,0 0.96,-2.719999 0.32,-1.333332 1.33333,-4.479997 0.0533,-0.213333 0.16,-0.48 0.10667,-0.266666 0.16,-0.426666 0.0533,-0.16 0.0533,-0.266667 0,-0.426666 -1.54667,-0.426666 h -1.17333 q -0.90667,0 -1.17334,-0.213333 -0.26666,-0.213334 -0.26666,-0.8 0,-0.16 0,-0.48 0.0533,-0.373333 0.0533,-0.639999 v -1.919999 q 0,-1.119999 0.16,-1.333333 0.21333,-0.213333 1.17333,-0.213333 h 12.32 q 1.06666,0 1.28,0.213333 0.21333,0.16 0.21333,1.013333 v 3.466665 q 0,0.533333 -0.26667,0.746666 -0.21333,0.16 -1.01333,0.16 h -1.28 q -1.38666,0 -1.70666,0.213333 -0.32,0.213333 -0.64,1.279999 -1.06667,3.253332 -3.2,9.813328 -2.08,6.559996 -3.14667,9.866661 -0.42666,1.333332 -0.8,1.546665 -0.48,0.213333 -1.70666,0.213333 h -3.2 q -0.53333,0 -0.90667,-0.106666 -0.37333,-0.05333 -0.64,-0.106667 -0.21333,-0.05333 -0.42666,-0.32 -0.16,-0.213333 -0.26667,-0.319999 -0.0533,-0.16 -0.21333,-0.586667 -0.16,-0.426666 -0.26667,-0.639999 l -2.82666,-6.079997 q -1.6,-3.519998 -2.18667,-5.439996 -0.48,-1.599999 -0.8,-1.599999 -0.32,0 -0.8,1.599999 -1.01333,3.466664 -1.92,5.759996 -1.76,4.373331 -2.08,5.226664 -0.10666,0.319999 -0.32,0.959999 -0.21333,0.64 -0.32,0.8 -0.10666,0.16 -0.37333,0.426666 -0.26667,0.32 -0.69333,0.373333 -0.42667,0.05333 -1.17333,0.05333 h -3.30667 q -0.96,0 -1.44,-0.213333 -0.42666,-0.213333 -0.53333,-0.426666 -0.10667,-0.213333 -0.42667,-1.119999 l -6.98666,-19.679989 q -0.42667,-1.173332 -0.74667,-1.333332 -0.42666,-0.16 -1.38666,-0.16 h -1.76 q -0.85333,0 -1.01333,-0.213333 -0.16,-0.213334 -0.16,-1.28 v -2.239998 q 0,-1.333333 0.26666,-1.599999 0.21334,-0.266667 1.44,-0.266667 h 16.90666 q 0.8,0 0.96,0.213333 0.21333,0.213334 0.21333,1.226666 v 3.146665 q 0,0.64 -0.21333,0.853333 -0.21334,0.16 -1.17333,0.16 h -1.38667 q -1.22667,0 -1.22667,0.426666 0,0.106667 0.0533,0.32 0.10666,0.16 0.21333,0.48 0.10667,0.266666 0.21333,0.479999 l 0.48,1.546666 q 0.69334,2.133332 1.28,4.479998 0.32,1.866665 0.64,1.866665 0.37334,0 0.8,-1.973332 z" />
    <path
       id="path1137"
       style="font-style:normal;font-variant:normal;font-weight:900;font-stretch:normal;font-size:53.3333px;font-family:'Besley*';-inkscape-font-specification:'Besley* Heavy';text-align:center;letter-spacing:0px;word-spacing:0px;text-anchor:middle;white-space:pre;shape-inside:url(#rect1075);fill:#502d16"
       d="m 983.93811,13.333325 h -2.02667 q -1.01333,0 -1.17333,-0.16 -0.16,-0.159999 -0.16,-1.173332 V 8.5866615 q 0,-0.533333 0.10667,-0.6933329 0.10666,-0.1599999 0.48,-0.1599999 h 13.75999 q 1.01333,0 1.33333,0.3733331 0.32,0.3199998 0.32,1.3333326 V 22.45332 q 0,1.973332 0.32,1.973332 0.0533,0 1.01333,-1.066666 2.45337,-2.773332 7.51997,-2.773332 5.28,0 8.5334,3.946665 3.3066,3.893331 3.3066,10.933327 0,6.986662 -3.52,10.98666 -3.52,3.946664 -8.8533,3.946664 -4.6933,0 -6.77333,-2.719998 -0.16,-0.213334 -0.37334,-0.48 -0.16,-0.32 -0.32,-0.48 -0.10666,-0.213333 -0.21333,-0.373333 -0.10667,-0.213333 -0.21333,-0.266666 -0.10667,-0.106667 -0.16,-0.106667 -0.26667,0 -0.26667,1.866665 v 0.586667 q 0,0.586666 -0.21333,0.746666 -0.16,0.16 -1.01334,0.16 h -12.37332 q -0.26667,0 -0.74667,0 -0.48,0.05333 -0.64,0.05333 -0.53333,0 -0.8,-0.213333 -0.21333,-0.266666 -0.21333,-1.013333 v -3.519998 q 0,-0.639999 0.16,-0.746666 0.21333,-0.16 1.06667,-0.16 h 2.13333 q 1.06666,0 1.22666,-0.16 0.21334,-0.213333 0.21334,-1.279999 V 14.613325 q 0,-0.906667 -0.21334,-1.066666 -0.21333,-0.213334 -1.22666,-0.213334 z m 13.97332,16.053324 q -1.33333,2.346665 -1.33333,6.079997 0,3.733331 1.33333,6.079996 1.33333,2.346665 3.35997,2.346665 1.8134,0 3.04,-2.346665 1.2267,-2.399999 1.2267,-6.079996 0,-3.679998 -1.2267,-6.026664 -1.2266,-2.399998 -3.04,-2.399998 -2.02664,0 -3.35997,2.346665 z" />
    <path
       id="path1139"
       style="font-style:normal;font-variant:normal;font-weight:900;font-stretch:normal;font-size:53.3333px;font-family:'Besley*';-inkscape-font-specification:'Besley* Heavy';text-align:center;letter-spacing:0px;word-spacing:0px;text-anchor:middle;white-space:pre;shape-inside:url(#rect1075);fill:#502d16"
       d="m 1020.7197,36.266645 q 0,-6.666663 4.2667,-11.199993 4.32,-4.533331 11.68,-4.533331 7.3067,0 11.6267,4.266664 4.3199,4.213331 4.3199,10.133328 0,6.666662 -4.2666,11.093326 -4.2667,4.373331 -11.68,4.373331 -7.36,0 -11.68,-4.106664 -4.2667,-4.159998 -4.2667,-10.026661 z m 12,-1.333332 q 0,10.133327 3.9467,10.133327 3.9467,0 3.9467,-9.066661 0,-10.133328 -3.9467,-10.133328 -3.9467,0 -3.9467,9.066662 z" />
    <path
       id="path1141"
       style="font-style:normal;font-variant:normal;font-weight:900;font-stretch:normal;font-size:53.3333px;font-family:'Besley*';-inkscape-font-specification:'Besley* Heavy';text-align:center;letter-spacing:0px;word-spacing:0px;text-anchor:middle;white-space:pre;shape-inside:url(#rect1075);fill:#502d16"
       d="m 1063.7297,63.466629 q -4.7467,0 -7.1467,-2.559999 -2.3466,-2.559998 -2.3466,-6.346663 0,-3.733331 2.1333,-6.239996 2.1867,-2.559998 5.12,-2.559998 2.4533,0 4,1.439999 1.6,1.439999 1.6,3.839998 0,1.973332 -0.8533,3.093331 -0.8,1.119999 -1.76,1.386666 -0.96,0.266666 -1.8134,0.533333 -0.8,0.32 -0.8,0.853333 0,1.226666 1.8667,1.226666 2.1333,0 3.68,-1.546666 1.5467,-1.546666 3.2,-5.226664 0.4267,-0.959999 0.4267,-1.333332 0,-0.48 -0.48,-1.439999 l -9.92,-19.733322 q -0.4267,-0.853333 -0.5867,-1.066666 -0.16,-0.213333 -0.6933,-0.373333 -0.48,-0.213333 -1.4934,-0.213333 h -0.8 q -0.9066,0 -1.1733,-0.16 -0.2133,-0.213333 -0.2133,-0.853333 v -3.199998 q 0,-0.959999 0.16,-1.173333 0.16,-0.213333 0.96,-0.213333 h 17.92 q 0.64,0 0.8,0.213333 0.2133,0.213334 0.2133,1.12 v 3.466664 q 0,0.8 -0.5867,0.8 h -2.5066 q -1.12,0 -1.12,0.32 0,0.106666 0.053,0.266666 0.1067,0.106667 0.2133,0.32 0.1067,0.16 0.2134,0.373333 l 2.4533,5.119997 q 0.8533,1.759999 1.4933,3.679998 0.48,1.439999 0.64,1.439999 0.1067,0 0.5867,-1.439999 0.5333,-1.546666 1.3867,-3.573331 l 2.1333,-4.799998 q 0.1067,-0.213333 0.2667,-0.479999 0.16,-0.32 0.2133,-0.48 0.1067,-0.213333 0.1067,-0.32 0,-0.426666 -1.2267,-0.426666 h -1.0667 q -1.0666,0 -1.0666,-0.8 0,-0.106666 0,-0.426666 0.053,-0.32 0.053,-0.533333 v -2.399999 q 0,-1.013332 0.16,-1.226666 0.2133,-0.213333 1.12,-0.213333 h 10.5067 q 0.2666,0 0.64,0 0.3733,-0.05333 0.5333,-0.05333 0.9067,0 0.9067,1.066666 v 2.986665 q 0,0.213333 0,0.533333 0.053,0.266666 0.053,0.373333 0,0.693333 -0.9067,0.693333 h -1.44 q -0.2666,0 -0.48,0 -0.16,0 -0.32,0.106666 -0.1066,0.05333 -0.2133,0.05333 -0.053,0 -0.16,0.16 -0.1067,0.106666 -0.16,0.16 0,0.05333 -0.1067,0.266666 -0.053,0.213333 -0.1066,0.32 l -11.1467,23.839986 q -1.28,2.719998 -2.2933,4.426664 -1.0134,1.706665 -2.56,3.466664 -1.5467,1.759999 -3.6267,2.559999 -2.0267,0.853333 -4.64,0.906666 z" />
    <path
       id="path1143"
       style="font-style:normal;font-variant:normal;font-weight:900;font-stretch:normal;font-size:53.3333px;font-family:'Besley*';-inkscape-font-specification:'Besley* Heavy';text-align:center;letter-spacing:0px;word-spacing:0px;text-anchor:middle;white-space:pre;shape-inside:url(#rect1075);fill:#502d16"
       d="m 1153.018,35.359979 q -0.9067,6.879996 -5.8667,10.98666 -4.96,4.053331 -13.44,4.053331 -10.1866,0 -16.4266,-5.706663 -6.24,-5.706664 -6.24,-15.359991 0,-8.959995 6.3467,-14.986658 6.4,-6.0799963 16.0533,-6.0799963 4.7466,0 8.2666,2.3999983 0.32,0.213334 0.64,0.533333 0.3734,0.32 0.5867,0.48 0.2133,0.16 0.4267,0.16 0.32,0 0.8533,-0.586666 l 1.12,-1.3866662 q 0.64,-0.7999995 2.4,-0.7999995 h 2.8267 q 1.0133,0 1.28,0.3733331 0.2666,0.3199998 0.2666,1.3333326 v 12.213326 q 0,1.013333 -0.48,1.279999 -0.48,0.266667 -1.6,0.266667 h -4.5866 q -0.8,0 -1.2267,-0.213333 -0.4267,-0.213334 -0.5333,-0.426667 -0.1067,-0.213333 -0.2667,-0.853333 -0.1067,-0.693333 -0.2133,-1.013332 -2.24,-6.93333 -8.96,-6.93333 -4.2667,0 -6.8267,3.733331 -2.5066,3.733332 -2.5066,10.506661 0,6.773329 2.6133,10.34666 2.6133,3.573332 7.2533,3.573332 3.68,0 6.2933,-2.026666 2.6667,-2.026665 3.52,-5.546663 0.053,-0.32 0.1067,-0.693333 0.1067,-0.426667 0.1067,-0.586667 0.053,-0.159999 0.16,-0.319999 0.1066,-0.213334 0.2666,-0.266667 0.2134,-0.106666 0.5334,-0.16 0.32,-0.05333 0.8533,-0.05333 h 5.0133 q 0.9067,0 1.1734,0.16 0.32,0.106666 0.32,0.533333 0,0.106666 -0.1067,1.066666 z" />
    <path
       id="path1145"
       style="font-style:normal;font-variant:normal;font-weight:900;font-stretch:normal;font-size:53.3333px;font-family:'Besley*';-inkscape-font-specification:'Besley* Heavy';text-align:center;letter-spacing:0px;word-spacing:0px;text-anchor:middle;white-space:pre;shape-inside:url(#rect1075);fill:#502d16"
       d="m 1157.178,36.266645 q 0,-6.666663 4.2667,-11.199993 4.3199,-4.533331 11.6799,-4.533331 7.3067,0 11.6267,4.266664 4.32,4.213331 4.32,10.133328 0,6.666662 -4.2667,11.093326 -4.2666,4.373331 -11.68,4.373331 -7.36,0 -11.6799,-4.106664 -4.2667,-4.159998 -4.2667,-10.026661 z m 12,-1.333332 q 0,10.133327 3.9466,10.133327 3.9467,0 3.9467,-9.066661 0,-10.133328 -3.9467,-10.133328 -3.9466,0 -3.9466,9.066662 z" />
    <path
       id="path1147"
       style="font-style:normal;font-variant:normal;font-weight:900;font-stretch:normal;font-size:53.3333px;font-family:'Besley*';-inkscape-font-specification:'Besley* Heavy';text-align:center;letter-spacing:0px;word-spacing:0px;text-anchor:middle;white-space:pre;shape-inside:url(#rect1075);fill:#502d16"
       d="m 1194.0421,13.333325 h -2.1333 q -0.8,0 -1.0134,-0.16 -0.2133,-0.213333 -0.2133,-0.746666 V 9.3866611 q 0,-1.1199994 0.2133,-1.3866659 0.2667,-0.2666665 1.3334,-0.2666665 h 13.12 q 0.8533,0 1.0666,0.3199998 0.2667,0.3199998 0.2667,1.4933325 v 32.213314 q 0,1.386666 0.2133,1.706666 0.2667,0.266666 1.3867,0.266666 h 2.2933 q 0.64,0 0.7467,0.213333 0.16,0.16 0.16,1.013333 v 2.986665 q 0,1.013333 -0.2133,1.226666 -0.16,0.16 -1.12,0.16 h -17.92 q -1.1734,0 -1.3867,-0.213333 -0.16,-0.213333 -0.16,-1.386666 v -3.093332 q 0,-0.639999 0.16,-0.746666 0.2133,-0.16 1.0667,-0.16 h 2.3466 q 1.3334,0 1.3334,-1.226666 0,-0.213333 -0.053,-0.799999 -0.053,-0.586667 -0.053,-0.906666 V 15.039991 q 0,-1.119999 -0.2133,-1.386666 -0.2134,-0.32 -1.2267,-0.32 z" />
    <path
       id="path1149"
       style="font-style:normal;font-variant:normal;font-weight:900;font-stretch:normal;font-size:53.3333px;font-family:'Besley*';-inkscape-font-specification:'Besley* Heavy';text-align:center;letter-spacing:0px;word-spacing:0px;text-anchor:middle;white-space:pre;shape-inside:url(#rect1075);fill:#502d16"
       d="m 1216.9587,13.333325 h -2.1333 q -0.8,0 -1.0133,-0.16 -0.2134,-0.213333 -0.2134,-0.746666 V 9.3866611 q 0,-1.1199994 0.2134,-1.3866659 0.2666,-0.2666665 1.3333,-0.2666665 h 13.12 q 0.8533,0 1.0667,0.3199998 0.2666,0.3199998 0.2666,1.4933325 v 32.213314 q 0,1.386666 0.2134,1.706666 0.2666,0.266666 1.3866,0.266666 h 2.2934 q 0.64,0 0.7466,0.213333 0.16,0.16 0.16,1.013333 v 2.986665 q 0,1.013333 -0.2133,1.226666 -0.16,0.16 -1.12,0.16 h -17.92 q -1.1733,0 -1.3867,-0.213333 -0.16,-0.213333 -0.16,-1.386666 v -3.093332 q 0,-0.639999 0.16,-0.746666 0.2134,-0.16 1.0667,-0.16 h 2.3467 q 1.3333,0 1.3333,-1.226666 0,-0.213333 -0.053,-0.799999 -0.053,-0.586667 -0.053,-0.906666 V 15.039991 q 0,-1.119999 -0.2133,-1.386666 -0.2133,-0.32 -1.2267,-0.32 z" />
    <path
       id="path1151"
       style="font-style:normal;font-variant:normal;font-weight:900;font-stretch:normal;font-size:53.3333px;font-family:'Besley*';-inkscape-font-specification:'Besley* Heavy';text-align:center;letter-spacing:0px;word-spacing:0px;text-anchor:middle;white-space:pre;shape-inside:url(#rect1075);fill:#502d16"
       d="m 1264.7379,37.279978 h -15.68 q -0.9067,0 -1.28,0.213333 -0.3733,0.16 -0.3733,0.746666 0,0.05333 0,0.16 0.053,0.05333 0.053,0.106667 0.2667,3.039998 1.3867,4.746664 1.1733,1.653332 3.7333,1.653332 3.4667,0 5.28,-3.893331 0.2133,-0.48 0.32,-0.586666 0.1067,-0.106667 0.3733,-0.213334 0.2667,-0.106666 0.8534,-0.106666 h 4.64 q 1.3866,0 1.3866,0.479999 0,0.106667 -0.32,1.173333 -1.3866,4.426664 -5.0133,6.559996 -3.5733,2.079999 -8.6933,2.079999 -7.6267,0 -11.7867,-4.159998 -4.1067,-4.21333 -4.1067,-10.239993 0,-6.719996 4.2667,-11.093327 4.2667,-4.373331 12,-4.373331 3.4667,0 6.0267,0.906666 2.6133,0.906666 4.1066,2.293332 1.4934,1.386666 2.4,3.413331 0.96,2.026666 1.28,3.893331 0.3734,1.813333 0.48,4.053331 0,0.266667 0.053,0.693333 0.053,0.426667 0.053,0.586667 0,0.533333 -0.32,0.746666 -0.2667,0.16 -1.12,0.16 z m -9.8133,-6.77333 q -0.3734,-4.69333 -3.2,-4.69333 -3.4667,0 -4.16,4.586664 0,0.16 -0.1067,0.48 -0.053,0.319999 -0.053,0.426666 0,0.48 0.96,0.48 h 5.28 q 0.5866,0 0.8,0 0.2133,-0.05333 0.32,-0.213333 0.16,-0.16 0.16,-0.48 z" />
    <path
       id="path1153"
       style="font-style:normal;font-variant:normal;font-weight:900;font-stretch:normal;font-size:53.3333px;font-family:'Besley*';-inkscape-font-specification:'Besley* Heavy';text-align:center;letter-spacing:0px;word-spacing:0px;text-anchor:middle;white-space:pre;shape-inside:url(#rect1075);fill:#502d16"
       d="m 1299.5954,29.493316 q 0,3.039998 -1.8666,4.799997 -1.8134,1.706666 -4.6934,1.706666 -2.9866,0 -4.64,-1.44 -1.6,-1.439999 -1.6,-3.786664 0,-1.439999 1.0667,-2.666665 1.12,-1.226666 1.12,-1.493333 0,-1.226665 -2.1867,-1.226665 -2.6133,0 -4.1066,2.506665 -1.44,2.506665 -1.44,7.039996 0,9.973327 4.5333,9.973327 3.2533,0 5.0667,-3.413331 0.053,-0.16 0.16,-0.373334 0.16,-0.213333 0.2133,-0.266666 0.053,-0.106667 0.1067,-0.266667 0.1066,-0.159999 0.16,-0.213333 0.1066,-0.05333 0.2666,-0.106666 0.16,-0.05333 0.32,-0.05333 0.2134,-0.05333 0.4267,-0.05333 0.2667,-0.05333 0.5867,-0.05333 h 3.3066 q 2.1867,0 2.1867,0.693333 0,0.266666 -0.3733,1.386666 -1.44,4.159997 -5.0667,6.186663 -3.5733,2.026665 -8.5333,2.026665 -7.6267,0 -11.7867,-4.159998 -4.1067,-4.21333 -4.1067,-10.239993 0,-6.399997 4.48,-10.933327 4.5334,-4.533331 12.5334,-4.533331 6.24,0 10.0266,2.666665 3.84,2.666665 3.84,6.29333 z" />
    <path
       id="path1155"
       style="font-style:normal;font-variant:normal;font-weight:900;font-stretch:normal;font-size:53.3333px;font-family:'Besley*';-inkscape-font-specification:'Besley* Heavy';text-align:center;letter-spacing:0px;word-spacing:0px;text-anchor:middle;white-space:pre;shape-inside:url(#rect1075);fill:#502d16"
       d="m 1324.0062,45.22664 q -3.2,5.01333 -10.2933,5.01333 -4.7467,0 -6.9334,-1.919999 -2.1333,-1.919999 -2.1333,-6.239996 V 28.58665 q 0,-1.013333 -0.2133,-1.173333 -0.2134,-0.213333 -1.3334,-0.213333 h -1.8133 q -1.1733,0 -1.3867,-0.213333 -0.2133,-0.213334 -0.2133,-1.44 v -2.239998 q 0,-0.32 0,-0.533333 0,-0.213333 0.053,-0.426667 0.053,-0.213333 0.053,-0.319999 0,-0.106667 0.1066,-0.16 0.1067,-0.106667 0.16,-0.16 0.053,-0.05333 0.2667,-0.05333 0.2133,-0.05333 0.32,-0.05333 0.1067,0 0.4267,0 0.3733,-0.05333 0.5333,-0.05333 3.4133,-0.16 5.76,-1.653333 2.3467,-1.546665 3.52,-5.866663 0.053,-0.266666 0.16,-0.799999 0.1067,-0.586667 0.2133,-0.746666 0.1067,-0.16 0.4267,-0.32 0.3733,-0.16 1.0133,-0.16 h 1.8134 q 0.9066,0 1.12,0.213333 0.2133,0.16 0.2133,0.746666 v 7.146663 q 0,1.119999 0.16,1.333332 0.2133,0.16 1.28,0.16 h 4.0533 q 0.9067,0 1.0667,0.16 0.2133,0.16 0.2133,0.959999 v 0.266667 3.093331 q 0,0.693333 -0.2666,0.906667 -0.2134,0.213333 -1.2267,0.213333 h -3.84 q -0.96,0 -1.2267,0.32 -0.2133,0.319999 -0.2133,1.653332 v 11.946659 q 0,2.773332 1.92,2.773332 1.12,0 2.08,-1.013333 0.16,-0.159999 0.3733,-0.533333 0.2667,-0.373333 0.48,-0.586666 0.2134,-0.266666 0.48,-0.266666 0.2667,0 0.48,0.16 l 2.1334,1.333332 q 0.9066,0.533333 0.9066,0.906666 0,0.32 -0.6933,1.333333 z" />
    <path
       id="path1157"
       style="font-style:normal;font-variant:normal;font-weight:900;font-stretch:normal;font-size:53.3333px;font-family:'Besley*';-inkscape-font-specification:'Besley* Heavy';text-align:center;letter-spacing:0px;word-spacing:0px;text-anchor:middle;white-space:pre;shape-inside:url(#rect1075);fill:#502d16"
       d="m 1332.5954,16.63999 q -1.8134,-1.493332 -1.8134,-4.106664 0,-2.6133319 1.8134,-4.1066644 1.8133,-1.4933324 4.5866,-1.4933324 2.7734,0 4.5867,1.4933324 1.8133,1.4933325 1.8133,4.1066644 0,2.613332 -1.8133,4.106664 -1.8133,1.493333 -4.5867,1.493333 -2.7733,0 -4.5866,-1.493333 z m -2.0267,10.559994 h -2.2933 q -0.8,0 -1.0134,-0.16 -0.2133,-0.16 -0.2133,-0.693333 v -3.039998 q 0,-1.173333 0.2133,-1.439999 0.2134,-0.266667 1.0667,-0.266667 h 12.96 q 1.2267,0 1.4933,0.32 0.2667,0.32 0.2667,1.653332 v 19.093322 q 0,0.746666 0.16,0.906666 0.2133,0.16 1.0667,0.16 h 1.6 q 0.2133,0 0.5866,0 0.4267,-0.05333 0.5334,-0.05333 0.48,0 0.64,0.213333 0.2133,0.213333 0.2133,0.96 v 2.666665 q 0,1.279999 -0.2667,1.546665 -0.2133,0.266667 -1.3333,0.266667 h -18.1333 q -0.6934,0 -0.9067,-0.213333 -0.16,-0.213333 -0.16,-1.173333 v -2.773332 q 0,-1.013332 0.16,-1.226666 0.16,-0.213333 0.9067,-0.213333 h 2.6133 q 0.7467,0 0.96,-0.16 0.2133,-0.213333 0.2133,-0.693333 0,-0.106666 -0.053,-0.426666 0,-0.373333 0,-0.586666 V 28.639983 q 0,-1.013333 -0.2133,-1.226666 -0.16,-0.213333 -1.0667,-0.213333 z" />
    <path
       id="path1159"
       style="font-style:normal;font-variant:normal;font-weight:900;font-stretch:normal;font-size:53.3333px;font-family:'Besley*';-inkscape-font-specification:'Besley* Heavy';text-align:center;letter-spacing:0px;word-spacing:0px;text-anchor:middle;white-space:pre;shape-inside:url(#rect1075);fill:#502d16"
       d="m 1368.0136,37.386644 1.6,-4.159997 2.1867,-4.693331 q 0.2667,-0.639999 0.2667,-0.853332 0,-0.48 -1.12,-0.48 h -1.0667 q -0.96,0 -0.96,-0.906666 0,-0.16 0,-0.533333 0.053,-0.426667 0.053,-0.64 v -1.919999 q 0,-1.119999 0.2134,-1.333332 0.2133,-0.266667 1.1733,-0.266667 h 11.04 q 0.8,0 0.96,0.16 0.16,0.106667 0.16,0.746666 v 2.933332 q 0,0.213333 0,0.586666 0.053,0.32 0.053,0.426667 0,0.746666 -0.8533,0.746666 h -1.1733 q -0.8534,0 -1.28,0.213333 -0.4267,0.16 -0.5334,0.32 -0.053,0.106666 -0.4266,0.906666 l -9.5467,19.199988 q -0.1067,0.213334 -0.3733,0.853333 -0.2667,0.64 -0.4267,0.8 -0.1067,0.213333 -0.5867,0.426666 -0.48,0.213333 -1.2266,0.213333 h -2.1334 q -1.12,0 -1.6533,-0.159999 -0.48,-0.16 -0.64,-0.426667 -0.16,-0.213333 -0.64,-1.066666 l -10.56,-19.839988 q -0.3733,-0.746666 -0.5866,-0.959999 -0.16,-0.213334 -0.64,-0.32 -0.48,-0.16 -1.4934,-0.16 h -1.0666 q -1.0134,0 -1.0134,-0.906666 0,-0.16 0.053,-0.533333 0,-0.373333 0,-0.64 v -2.453332 q 0,-0.693333 0.16,-0.906666 0.16,-0.213333 0.64,-0.213333 0.1066,0 0.4266,0.05333 0.3734,0 0.5867,0 h 17.1733 q 1.3333,0 1.6,0.266667 0.2667,0.213333 0.2667,1.386665 v 2.399999 q 0,1.173333 -0.2134,1.386666 -0.16,0.16 -1.3333,0.16 h -0.8533 q -1.6,0 -1.6,0.426666 0,0.106667 0.1066,0.32 0.1067,0.213333 0.2667,0.533333 0.2133,0.32 0.32,0.586666 l 1.76,3.519998 q 1.0667,2.239999 1.76,4.159998 0.32,1.013332 0.8,1.013332 0.2667,0 0.3733,-0.373333 z" />
    <path
       id="path1161"
       style="font-style:normal;font-variant:normal;font-weight:900;font-stretch:normal;font-size:53.3333px;font-family:'Besley*';-inkscape-font-specification:'Besley* Heavy';text-align:center;letter-spacing:0px;word-spacing:0px;text-anchor:middle;white-space:pre;shape-inside:url(#rect1075);fill:#502d16"
       d="m 1412.342,37.279978 h -15.68 q -0.9066,0 -1.28,0.213333 -0.3733,0.16 -0.3733,0.746666 0,0.05333 0,0.16 0.053,0.05333 0.053,0.106667 0.2667,3.039998 1.3867,4.746664 1.1733,1.653332 3.7333,1.653332 3.4667,0 5.28,-3.893331 0.2134,-0.48 0.32,-0.586666 0.1067,-0.106667 0.3734,-0.213334 0.2666,-0.106666 0.8533,-0.106666 h 4.64 q 1.3866,0 1.3866,0.479999 0,0.106667 -0.32,1.173333 -1.3866,4.426664 -5.0133,6.559996 -3.5733,2.079999 -8.6933,2.079999 -7.6267,0 -11.7867,-4.159998 -4.1066,-4.21333 -4.1066,-10.239993 0,-6.719996 4.2666,-11.093327 4.2667,-4.373331 12,-4.373331 3.4667,0 6.0267,0.906666 2.6133,0.906666 4.1066,2.293332 1.4934,1.386666 2.4,3.413331 0.96,2.026666 1.28,3.893331 0.3734,1.813333 0.48,4.053331 0,0.266667 0.053,0.693333 0.053,0.426667 0.053,0.586667 0,0.533333 -0.32,0.746666 -0.2667,0.16 -1.12,0.16 z m -9.8133,-6.77333 q -0.3733,-4.69333 -3.2,-4.69333 -3.4667,0 -4.16,4.586664 0,0.16 -0.1067,0.48 -0.053,0.319999 -0.053,0.426666 0,0.48 0.96,0.48 h 5.28 q 0.5867,0 0.8,0 0.2133,-0.05333 0.32,-0.213333 0.16,-0.16 0.16,-0.48 z" />
  </g>
</svg>
