<?xml version="1.0" encoding="UTF-8" standalone="no"?>
<svg
   xmlns:dc="http://purl.org/dc/elements/1.1/"
   xmlns:cc="http://creativecommons.org/ns#"
   xmlns:rdf="http://www.w3.org/1999/02/22-rdf-syntax-ns#"
   xmlns:svg="http://www.w3.org/2000/svg"
   xmlns="http://www.w3.org/2000/svg"
   xmlns:sodipodi="http://sodipodi.sourceforge.net/DTD/sodipodi-0.dtd"
   xmlns:inkscape="http://www.inkscape.org/namespaces/inkscape"
   inkscape:version="1.1-dev (1:0.92.0+devel+202005110039+9ce7266)"
   sodipodi:docname="Cowboy.svg"
   viewBox="0 0 1600 640"
   height="640"
   width="1600"
   id="svg2"
   version="1.1">
  <metadata
     id="metadata8">
    <rdf:RDF>
      <cc:Work
         rdf:about="">
        <dc:format>image/svg+xml</dc:format>
        <dc:type
           rdf:resource="http://purl.org/dc/dcmitype/StillImage" />
      </cc:Work>
    </rdf:RDF>
  </metadata>
  <defs
     id="defs6">
    <rect
       id="rect1075"
       height="640.00146"
       width="1599.9976"
       y="0"
       x="0" />
    <rect
       id="rect833"
       height="640.00146"
       width="1599.9976"
       y="0"
       x="0" />
  </defs>
  <sodipodi:namedview
     inkscape:current-layer="svg2"
     inkscape:window-maximized="1"
     inkscape:window-y="30"
     inkscape:window-x="0"
     inkscape:cy="327.49433"
     inkscape:cx="849.62481"
     inkscape:zoom="0.60643522"
     showgrid="false"
     id="namedview4"
     inkscape:window-height="1017"
     inkscape:window-width="1920"
     inkscape:pageshadow="2"
     inkscape:pageopacity="0"
     guidetolerance="10"
     gridtolerance="10"
     objecttolerance="10"
     borderopacity="1"
     bordercolor="#666666"
     pagecolor="#ffffff" />
  <g
     style="font-style:normal;font-variant:normal;font-weight:bold;font-stretch:normal;font-size:126.667px;font-family:'Copperplate CC';-inkscape-font-specification:'Copperplate CC Bold';text-align:center;letter-spacing:3px;word-spacing:0px;text-anchor:middle;white-space:pre;fill:#000000;stroke:none;stroke-opacity:1;stroke-width:1.84075229;stroke-miterlimit:4;stroke-dasharray:none;paint-order:markers stroke fill"
     id="text831"
     transform="matrix(1.0865123,0,0,1.0865123,-69.200766,437.99745)"
     aria-label="Cowboy Fonts">
    <path
       id="path1164"
       style="font-style:normal;font-variant:normal;font-weight:bold;font-stretch:normal;font-size:126.667px;font-family:'Copperplate CC';-inkscape-font-specification:'Copperplate CC Bold';text-align:center;text-anchor:middle;fill:#000000;stroke:none;stroke-opacity:1;stroke-width:1.84075229;stroke-miterlimit:4;stroke-dasharray:none;paint-order:markers stroke fill"
       d="m 194.38405,-175.80037 q 2.81539,12.73931 12.71482,18.20522 9.8721,5.34223 25.45611,1.89816 9.77093,-2.15937 16.61923,-7.56455 6.97199,-5.43251 11.37534,-11.33514 l -1.2628,-1.01815 1.38921,-1.3448 17.06077,14.39084 -1.3892,1.34481 -1.44115,-1.23819 q -3.61821,4.17243 -8.91331,8.9749 -5.2951,4.80247 -12.69145,8.90181 -7.27266,4.072 -16.9199,6.20404 -16.20243,3.58073 -29.30598,0.63906 -13.00721,-3.09268 -21.65274,-11.68962 -8.52186,-8.62426 -11.44658,-21.8583 -2.92472,-13.23404 1.16905,-24.64636 4.21746,-11.43965 14.73728,-19.60208 10.61618,-8.31345 26.8186,-11.89419 9.64725,-2.13204 17.53288,-1.66946 7.98198,0.31156 14.05269,1.95357 6.1944,1.61468 10.47889,3.392 l 0.61977,-1.30448 1.82655,0.63412 -9.22895,20.46031 -1.82655,-0.63412 0.88149,-1.88121 q -5.42361,-2.82281 -13.12953,-4.23316 -7.60957,-1.56137 -17.3805,0.598 -15.58401,3.44406 -22.28538,12.44902 -6.70138,9.00496 -3.85866,21.86795 z" />
    <path
       id="path1166"
       style="font-style:normal;font-variant:normal;font-weight:bold;font-stretch:normal;font-size:126.667px;font-family:'Copperplate CC';-inkscape-font-specification:'Copperplate CC Bold';text-align:center;text-anchor:middle;fill:#000000;stroke:none;stroke-opacity:1;stroke-width:1.84075229;stroke-miterlimit:4;stroke-dasharray:none;paint-order:markers stroke fill"
       d="m 284.77119,-195.37422 q -1.90939,-10.98194 0.6303,-20.03752 2.5397,-9.05557 8.55181,-15.88641 6.11522,-6.97732 14.72619,-11.43153 8.58928,-4.579 18.82245,-6.3582 10.23318,-1.77921 19.86394,-0.36806 9.60907,1.28636 17.59566,5.81185 8.0897,4.379 13.53687,12.04593 5.44718,7.66693 7.35657,18.64887 1.90939,10.98195 -0.63031,20.03752 -2.53969,9.05558 -8.6549,16.0329 -6.01212,6.83083 -14.6014,11.40983 -8.61097,4.45421 -18.84415,6.23341 -10.23317,1.77921 -19.84224,0.49285 -9.63076,-1.41115 -17.72046,-5.79015 -7.98659,-4.52549 -13.43377,-12.19242 -5.44717,-7.66693 -7.35656,-18.64887 z m 20.59114,-3.58011 q 1.56223,8.98523 6.61885,14.40585 5.18141,5.39892 12.46277,7.34712 7.40615,1.9265 15.64261,0.49446 8.36125,-1.45374 14.55773,-5.74528 6.19648,-4.29154 9.12673,-11.10081 3.05504,-6.83097 1.49282,-15.81619 -1.56223,-8.98523 -6.74364,-14.38415 -5.05662,-5.42062 -12.33798,-7.36882 -7.28136,-1.9482 -15.64261,-0.49446 -8.23646,1.43204 -14.55773,5.74528 -6.19648,4.29154 -9.25153,11.12251 -2.93025,6.80927 -1.36802,15.79449 z" />
    <path
       id="path1168"
       style="font-style:normal;font-variant:normal;font-weight:bold;font-stretch:normal;font-size:126.667px;font-family:'Copperplate CC';-inkscape-font-specification:'Copperplate CC Bold';text-align:center;text-anchor:middle;fill:#000000;stroke:none;stroke-opacity:1;stroke-width:1.84075229;stroke-miterlimit:4;stroke-dasharray:none;paint-order:markers stroke fill"
       d="m 439.44444,-204.97202 10.62221,-59.23407 -2.51461,0.30749 -0.23062,-1.88596 25.1461,-3.07491 0.23061,1.88596 -2.5146,0.30749 24.73606,56.1865 12.35442,-60.722 -2.5146,0.30749 -0.23062,-1.88596 26.4034,-3.22865 0.23061,1.88595 -1.88595,0.23062 -19.87436,87.92931 1.88596,-0.23062 0.23062,1.88596 -23.88879,2.92117 -0.23062,-1.88596 1.88596,-0.23062 -26.02412,-56.28421 -11.69502,60.89658 1.88595,-0.23061 0.23062,1.88595 -23.88879,2.92117 -0.23062,-1.88596 1.88596,-0.23061 -40.47627,-80.54952 -1.88596,0.23061 -0.23062,-1.88595 26.4034,-3.22866 0.23062,1.88595 -2.51461,0.3075 z" />
    <path
       id="path1170"
       style="font-style:normal;font-variant:normal;font-weight:bold;font-stretch:normal;font-size:126.667px;font-family:'Copperplate CC';-inkscape-font-specification:'Copperplate CC Bold';text-align:center;text-anchor:middle;fill:#000000;stroke:none;stroke-opacity:1;stroke-width:1.84075229;stroke-miterlimit:4;stroke-dasharray:none;paint-order:markers stroke fill"
       d="m 553.67137,-188.47256 -0.14148,-1.89473 2.5263,-0.18865 -6.31978,-84.63126 -2.5263,0.18865 -0.14149,-1.89473 55.57873,-4.1503 q 13.76837,-1.02814 21.80948,4.59536 8.16743,5.61406 8.9409,15.97192 0.61311,8.21049 -3.07055,13.31231 -3.56677,4.96608 -9.20749,7.67365 7.87502,1.69829 12.45846,6.94489 4.58343,5.2466 5.20598,13.58341 0.83949,11.24207 -6.25837,18.2501 -6.98098,6.87228 -20.74935,7.90042 z m 47.77023,-74.69823 -31.07357,2.3204 1.17907,15.78941 29.81041,-2.22607 q 6.69471,-0.49992 9.45848,-2.6116 2.89007,-2.12111 2.56937,-6.41583 -0.57538,-7.70523 -11.94376,-6.85631 z m -27.11191,55.37283 31.70514,-2.36756 q 5.68419,-0.42446 9.17755,-2.97168 3.49335,-2.54722 3.03116,-8.73667 -0.39616,-5.30524 -4.23852,-7.43169 -3.84237,-2.12645 -9.52656,-1.70199 l -31.70514,2.36756 z" />
    <path
       id="path1172"
       style="font-style:normal;font-variant:normal;font-weight:bold;font-stretch:normal;font-size:126.667px;font-family:'Copperplate CC';-inkscape-font-specification:'Copperplate CC Bold';text-align:center;text-anchor:middle;fill:#000000;stroke:none;stroke-opacity:1;stroke-width:1.84075229;stroke-miterlimit:4;stroke-dasharray:none;paint-order:markers stroke fill"
       d="m 654.67546,-240.21716 q -0.38149,-11.14017 3.37903,-19.76061 3.76052,-8.62044 10.65464,-14.55988 7.01637,-6.07037 16.15794,-9.29847 9.13723,-3.35468 19.51784,-3.71016 10.38061,-0.35548 19.72593,2.36629 9.34098,2.59517 16.62959,8.17567 7.41087,5.44958 11.75229,13.79257 4.34142,8.343 4.7229,19.48316 0.38149,11.14017 -3.37903,19.76061 -3.76052,8.62044 -10.77689,14.69081 -6.89412,5.93944 -16.03135,9.29413 -9.14157,3.22809 -19.52218,3.58357 -10.38061,0.35548 -19.72159,-2.23969 -9.34531,-2.72177 -16.75618,-8.17135 -7.28861,-5.5805 -11.63003,-13.92349 -4.34142,-8.343 -4.72291,-19.48316 z m 20.88781,-0.71529 q 0.31213,9.11468 4.57552,15.179 4.38998,6.05999 11.33437,8.99072 7.07098,2.92639 15.4261,2.64027 8.48172,-0.29045 15.20935,-3.68937 6.72764,-3.39891 10.56619,-9.74068 3.96514,-6.3461 3.65301,-15.46079 -0.31212,-9.11468 -4.7021,-15.17467 -4.26339,-6.06432 -11.20778,-8.99505 -6.94439,-2.93072 -15.42611,-2.64027 -8.35512,0.28612 -15.20935,3.68937 -6.72763,3.39891 -10.69278,9.74501 -3.83855,6.34177 -3.52642,15.45646 z" />
    <path
       id="path1174"
       style="font-style:normal;font-variant:normal;font-weight:bold;font-stretch:normal;font-size:126.667px;font-family:'Copperplate CC';-inkscape-font-specification:'Copperplate CC Bold';text-align:center;text-anchor:middle;fill:#000000;stroke:none;stroke-opacity:1;stroke-width:1.84075229;stroke-miterlimit:4;stroke-dasharray:none;paint-order:markers stroke fill"
       d="m 794.77636,-199.25222 0.006,-1.89999 3.79998,0.0129 0.11039,-32.42657 -33.00806,-52.5528 -1.77333,-0.006 0.006,-1.89999 27.23325,0.0927 -0.006,1.9 -2.65999,-0.009 20.64866,36.67726 22.16454,-36.53152 -3.29333,-0.0112 0.006,-1.9 27.23325,0.0927 -0.006,1.89999 -1.89999,-0.006 -33.87131,52.19848 -0.11081,32.55323 3.79999,0.0129 -0.006,1.9 z" />
    <path
       id="path1176"
       style="font-style:normal;font-variant:normal;font-weight:bold;font-stretch:normal;font-size:126.667px;font-family:'Copperplate CC';-inkscape-font-specification:'Copperplate CC Bold';text-align:center;text-anchor:middle;fill:#000000;stroke:none;stroke-opacity:1;stroke-width:1.84075229;stroke-miterlimit:4;stroke-dasharray:none;paint-order:markers stroke fill"
       d="m 918.6245,-196.9131 0.10811,-1.89693 2.52923,0.14415 4.82893,-84.72939 -2.52924,-0.14415 0.10811,-1.89693 78.53276,4.47577 0.1081,-1.89693 1.8969,0.10811 -1.2973,22.76312 -1.8969,-0.10811 0.1802,-3.16154 -55.76966,-3.17844 -0.973,17.07234 35.53577,2.02526 0.10811,-1.89693 1.89692,0.10812 -1.18921,20.86619 -1.89693,-0.10811 0.10811,-1.89693 -35.53576,-2.02526 -1.98202,34.77699 3.79385,0.21622 -0.10811,1.89692 z" />
    <path
       id="path1178"
       style="font-style:normal;font-variant:normal;font-weight:bold;font-stretch:normal;font-size:126.667px;font-family:'Copperplate CC';-inkscape-font-specification:'Copperplate CC Bold';text-align:center;text-anchor:middle;fill:#000000;stroke:none;stroke-opacity:1;stroke-width:1.84075229;stroke-miterlimit:4;stroke-dasharray:none;paint-order:markers stroke fill"
       d="m 1015.1333,-235.72001 q 1.0712,-11.09511 5.9214,-19.15299 4.8501,-8.05788 12.4584,-13.04984 7.7466,-5.10587 17.2304,-7.11711 9.4961,-2.13733 19.8347,-1.13916 10.3386,0.99817 19.2504,4.91271 8.9239,3.78847 15.4244,10.26986 6.6389,6.36748 9.8579,15.20442 3.219,8.83694 2.1478,19.93204 -1.0712,11.09511 -5.9214,19.15299 -4.8501,8.05788 -12.5967,13.16375 -7.6083,4.99196 -17.1043,7.12928 -9.4839,2.01125 -19.8225,1.01308 -10.3386,-0.99817 -19.2625,-4.78663 -8.9118,-3.91455 -15.5506,-10.28203 -6.5006,-6.48139 -9.7196,-15.31833 -3.219,-8.83694 -2.1478,-19.93204 z m 20.8033,2.0085 q -0.8764,9.07781 2.5617,15.6453 3.5642,6.57966 10.0682,10.389 6.6302,3.82153 14.9515,4.62493 8.4474,0.81557 15.5601,-1.67912 7.1127,-2.49469 11.7437,-8.28311 4.7571,-5.77626 5.6336,-14.85407 0.8764,-9.07782 -2.6878,-15.65747 -3.4381,-6.56749 -9.9421,-10.37683 -6.5041,-3.80935 -14.9515,-4.62493 -8.3213,-0.8034 -15.5601,1.67912 -7.1127,2.49469 -11.8698,8.27094 -4.631,5.78843 -5.5075,14.86624 z" />
    <path
       id="path1180"
       style="font-style:normal;font-variant:normal;font-weight:bold;font-stretch:normal;font-size:126.667px;font-family:'Copperplate CC';-inkscape-font-specification:'Copperplate CC Bold';text-align:center;text-anchor:middle;fill:#000000;stroke:none;stroke-opacity:1;stroke-width:1.84075229;stroke-miterlimit:4;stroke-dasharray:none;paint-order:markers stroke fill"
       d="m 1130.467,-179.57728 0.2651,-1.88143 2.5085,0.35341 11.8392,-84.03703 -2.5086,-0.35341 0.2651,-1.88143 30.1028,4.2409 -0.2651,1.88143 -3.5119,-0.49478 37.1814,61.13823 7.7219,-54.81222 -2.5085,-0.35341 0.265,-1.88142 23.8314,3.35738 -0.265,1.88142 -2.5086,-0.35341 -11.8392,84.03704 2.5086,0.35341 -0.2651,1.88142 -26.3399,-3.71078 0.265,-1.88143 3.7629,0.53011 -40.3823,-67.47338 -8.5348,60.58192 2.5086,0.35341 -0.2651,1.88142 z" />
    <path
       id="path1182"
       style="font-style:normal;font-variant:normal;font-weight:bold;font-stretch:normal;font-size:126.667px;font-family:'Copperplate CC';-inkscape-font-specification:'Copperplate CC Bold';text-align:center;text-anchor:middle;fill:#000000;stroke:none;stroke-opacity:1;stroke-width:1.84075229;stroke-miterlimit:4;stroke-dasharray:none;paint-order:markers stroke fill"
       d="m 1264.8059,-159.14568 0.34,-1.86934 3.7386,0.68 12.4667,-68.54234 -31.1556,-5.66666 -0.5667,3.11556 -1.8693,-0.34 3.9666,-21.80892 1.8694,0.33999 -0.34,1.86934 81.6277,14.84664 0.34,-1.86934 1.8693,0.34 -3.9666,21.80893 -1.8694,-0.34 0.5667,-3.11556 -31.1556,-5.66666 -12.4667,68.54235 3.7387,0.68 -0.34,1.86933 z" />
    <path
       id="path1184"
       style="font-style:normal;font-variant:normal;font-weight:bold;font-stretch:normal;font-size:126.667px;font-family:'Copperplate CC';-inkscape-font-specification:'Copperplate CC Bold';text-align:center;text-anchor:middle;fill:#000000;stroke:none;stroke-opacity:1;stroke-width:1.84075229;stroke-miterlimit:4;stroke-dasharray:none;paint-order:markers stroke fill"
       d="m 1343.9879,-174.76649 1.3877,1.34638 -1.3052,1.7861 q 5.2072,5.17945 12.9287,10.13901 7.8725,4.86339 20.6086,7.69328 11.6232,2.58262 17.8057,1.62073 6.21,-1.08555 7.3365,-6.15525 1.1265,-5.06971 -4.589,-8.54552 -5.7155,-3.47581 -19.3172,-7.66583 -19.4271,-6.00341 -27.231,-14.09546 -7.6803,-8.06457 -5.0702,-19.81145 2.1155,-9.52116 8.875,-14.24754 6.9105,-4.82256 16.7888,-5.4823 9.9058,-0.78338 20.9108,1.66187 13.7253,3.04968 22.065,8.14662 8.4908,5.00076 13.6705,10.30386 l 1.0167,-1.07167 1.3876,1.34639 -14.3293,14.8522 -1.3877,-1.34639 1.3739,-1.51132 q -3.847,-3.70942 -11.4173,-7.59734 -7.4466,-3.86046 -17.4624,-6.0859 -9.7685,-2.1705 -15.264,-0.79646 -5.3719,1.40152 -6.2511,5.35836 -0.7693,3.46224 1.2642,5.99016 2.1845,2.43174 7.7489,4.83591 5.7154,2.30799 15.4427,5.24788 18.589,5.68743 26.022,13.69705 7.5841,7.91345 4.6443,21.14415 -2.0331,9.1502 -8.8475,14.12389 -6.787,4.85003 -17.0912,5.67464 -10.3042,0.82462 -22.6418,-2.0465 -16.1434,-3.84648 -25.7608,-9.6166 -9.6175,-5.77011 -13.6569,-10.94959 l -1.4837,2.00593 -1.3877,-1.34638 z" />
  </g>
</svg>
