<?xml version="1.0" encoding="UTF-8" standalone="no"?>
<svg
   xmlns:osb="http://www.openswatchbook.org/uri/2009/osb"
   xmlns:dc="http://purl.org/dc/elements/1.1/"
   xmlns:cc="http://creativecommons.org/ns#"
   xmlns:rdf="http://www.w3.org/1999/02/22-rdf-syntax-ns#"
   xmlns:svg="http://www.w3.org/2000/svg"
   xmlns="http://www.w3.org/2000/svg"
   xmlns:sodipodi="http://sodipodi.sourceforge.net/DTD/sodipodi-0.dtd"
   xmlns:inkscape="http://www.inkscape.org/namespaces/inkscape"
   inkscape:version="1.1-dev (1:0.92.0+devel+202005110039+9ce7266)"
   sodipodi:docname="Drafting-h.svg"
   id="svg2"
   version="1.1"
   width="1600"
   height="640"
   viewBox="0 0 1500 600">
  <sodipodi:namedview
     inkscape:current-layer="svg2"
     inkscape:window-maximized="1"
     inkscape:window-y="30"
     inkscape:window-x="0"
     inkscape:cy="543.44614"
     inkscape:cx="944.68987"
     inkscape:zoom="0.67013317"
     showgrid="false"
     id="namedview96"
     inkscape:window-height="1017"
     inkscape:window-width="1920"
     inkscape:pageshadow="2"
     inkscape:pageopacity="0"
     guidetolerance="10"
     gridtolerance="10"
     objecttolerance="10"
     borderopacity="1"
     bordercolor="#666666"
     pagecolor="#ffffff" />
  <metadata
     id="metadata8">
    <rdf:RDF>
      <cc:Work
         rdf:about="">
        <dc:format>image/svg+xml</dc:format>
        <dc:type
           rdf:resource="http://purl.org/dc/dcmitype/StillImage" />
      </cc:Work>
    </rdf:RDF>
  </metadata>
  <defs
     id="defs6">
    <rect
       id="rect842"
       height="303.32246"
       width="1357.3305"
       y="178.03797"
       x="76.924066" />
    <rect
       x="-0.027532146"
       y="-1.2685316"
       width="1497.6534"
       height="598.80739"
       id="rect28" />
    <rect
       id="rect372"
       height="200.08714"
       width="1494.2503"
       y="410.19059"
       x="1.3795054" />
    <rect
       id="rect23"
       height="76.134397"
       width="277.4917"
       y="46.071558"
       x="666.86887" />
    <linearGradient
       id="linearGradient5684"
       osb:paint="solid">
      <stop
         style="stop-color:#6f5b14;stop-opacity:1;"
         offset="0"
         id="stop5686" />
    </linearGradient>
  </defs>
  <rect
     y="179.53352"
     x="97.354988"
     height="204.99954"
     width="1308.5774"
     id="rect1037"
     style="fill:#ffffff;stroke:#ffffff;stroke-width:1.3125;stroke-linecap:round;stroke-linejoin:round;paint-order:stroke markers fill;stop-color:#000000" />
  <g
     aria-label="Besley*"
     transform="matrix(1.1800817,0,0,1.1800817,-195.45316,-102.59332)"
     style="font-style:normal;font-variant:normal;font-weight:500;font-stretch:normal;font-size:200px;line-height:1.25;font-family:'Besley*';-inkscape-font-specification:'Besley* Medium';text-align:center;letter-spacing:0px;word-spacing:0px;text-anchor:middle;fill:#172517;fill-opacity:1;stroke:#355635;stroke-width:1.58887;stroke-miterlimit:4;stroke-dasharray:none;stroke-opacity:1;paint-order:stroke fill markers"
     id="g368" />
  <path
     transform="scale(0.9375)"
     d="M 493.17969 217.3457 C 485.01969 217.3457 478.32628 218.91974 473.09961 222.06641 C 467.87294 225.15974 463.81945 229.37174 460.93945 234.70508 C 458.11279 240.03841 456.11279 245.98687 454.93945 252.54688 L 453.82031 258.94531 L 432.30078 258.94531 L 430.46094 269.3457 L 452.85938 269.3457 L 440.38086 358.94531 L 453.90039 358.94531 L 466.38086 269.3457 L 501.41992 270.94531 L 503.5 258.94531 L 467.41992 258.94531 L 468.54102 252.54688 C 469.23435 248.49354 470.40721 244.65206 472.06055 241.02539 C 473.71388 237.34539 476.1131 234.35974 479.25977 232.06641 C 482.45977 229.71974 486.70047 228.54688 491.98047 228.54688 C 495.3938 228.54687 498.4062 229.13331 501.01953 230.30664 C 503.6862 231.42664 505.9269 232.67974 507.74023 234.06641 C 509.6069 235.45307 511.02047 236.5457 511.98047 237.3457 L 522.78125 228.4668 C 520.27458 225.64013 516.56682 223.07849 511.66016 220.78516 C 506.80682 218.49182 500.64635 217.3457 493.17969 217.3457 z M 664.41602 222.14648 C 661.48268 222.14648 659.08151 223.07865 657.21484 224.94531 C 655.40151 226.81198 654.49609 229.21315 654.49609 232.14648 C 654.49609 235.07982 655.48174 237.47904 657.45508 239.3457 C 659.42841 241.21237 661.88112 242.14648 664.81445 242.14648 C 667.74779 242.14648 670.06872 241.21237 671.77539 239.3457 C 673.53539 237.47904 674.41602 235.07982 674.41602 232.14648 C 674.41602 229.21315 673.4819 226.81198 671.61523 224.94531 C 669.74857 223.07865 667.34935 222.14648 664.41602 222.14648 z M 946.46875 222.14648 L 947.82812 246.14648 L 954.22852 246.14648 L 963.26758 222.14648 L 946.46875 222.14648 z M 141.84766 228.54688 L 140.00781 238.94531 L 153.60742 238.94531 L 138.96875 322.14648 L 125.36719 322.14648 L 123.52734 332.54688 L 164.48828 332.54688 C 172.96828 332.54688 180.91479 330.38641 188.32812 326.06641 C 195.74146 321.69307 202.0337 315.71982 207.20703 308.14648 C 212.4337 300.57315 215.90076 291.90648 217.60742 282.14648 C 219.36742 272.11982 219.12867 263.05198 216.88867 254.94531 C 214.70201 246.83865 210.70201 240.41268 204.88867 235.66602 C 199.12867 230.91935 191.76859 228.54688 182.80859 228.54688 L 141.84766 228.54688 z M 1098.0234 228.54688 L 1096.1836 238.94531 L 1108.8223 238.94531 L 1092.9023 322.14648 L 1081.543 322.14648 L 1079.7031 332.54688 L 1117.2227 332.54688 L 1119.0625 322.14648 L 1104.4219 322.14648 L 1114.0234 274.625 L 1117.9434 236.22656 L 1131.0625 304.54688 L 1135.8633 304.54688 L 1171.3828 236.22656 L 1161.8633 274.625 L 1154.6621 322.14648 L 1140.0234 322.14648 L 1138.1836 332.54688 L 1175.7031 332.54688 L 1177.543 322.14648 L 1166.1836 322.14648 L 1179.543 238.94531 L 1192.1836 238.94531 L 1194.0234 228.54688 L 1162.582 228.54688 L 1136.4219 282.625 L 1128.6621 228.54688 L 1098.0234 228.54688 z M 924.70703 236.625 L 917.98828 250.22656 L 941.02734 253.90625 L 943.98828 248.625 L 924.70703 236.625 z M 980.70703 236.625 L 957.26758 248.625 L 958.14844 253.90625 L 982.94727 251.02539 L 980.70703 236.625 z M 166.32812 238.94531 L 177.76758 238.94531 C 188.11424 238.94531 195.66154 242.54609 200.4082 249.74609 C 205.15487 256.94609 206.35448 267.21354 204.00781 280.54688 C 202.51448 289.13354 199.74083 296.54516 195.6875 302.78516 C 191.63417 309.02516 186.78029 313.82555 181.12695 317.18555 C 175.47362 320.49221 169.47362 322.14648 163.12695 322.14648 L 151.6875 322.14648 L 166.32812 238.94531 z M 566.07812 238.94531 L 552.31836 242.14648 L 548.1582 258.94531 L 529.03711 258.94531 L 527.03711 270.22656 L 545.35742 270.22656 L 537.59766 301.3457 C 536.05099 307.5857 535.22385 313.13299 535.11719 317.98633 C 535.06385 322.78633 536.39719 326.54563 539.11719 329.26562 C 541.83719 331.98563 546.61083 333.3457 553.4375 333.3457 C 561.33083 333.3457 568.66417 331.53292 575.4375 327.90625 C 582.26417 324.27958 588.42464 320.27958 593.91797 315.90625 L 587.75781 308.54688 C 585.67781 310.41354 583.06464 312.33331 579.91797 314.30664 C 576.82464 316.27997 573.2506 317.95904 569.19727 319.3457 C 565.14393 320.67904 560.61099 321.3457 555.59766 321.3457 C 552.45099 321.3457 550.37076 320.5988 549.35742 319.10547 C 548.39742 317.61214 548.18542 315.18617 548.71875 311.82617 C 549.25208 308.41284 550.21099 303.85315 551.59766 298.14648 L 558.63867 269.42578 L 596.47852 270.94531 L 598.55859 258.94531 L 561.19727 258.94531 L 566.07812 238.94531 z M 296.58594 257.3457 C 292.26594 257.3457 287.945 258.30656 283.625 260.22656 C 279.305 262.09323 275.25151 264.57268 271.46484 267.66602 C 267.73151 270.70602 264.55865 274.03935 261.94531 277.66602 L 261.94531 258.94531 L 233.22461 258.94531 L 231.38477 269.3457 L 250.58594 269.3457 L 239.54492 332.54688 L 253.06445 332.54688 L 259.30469 296.54688 C 260.21135 291.48021 261.9726 287.21276 264.58594 283.74609 C 267.2526 280.27943 270.31849 277.50578 273.78516 275.42578 C 277.25182 273.29245 280.71888 271.74516 284.18555 270.78516 C 287.65221 269.82516 290.66461 269.3457 293.22461 269.3457 C 296.85128 269.3457 299.06523 270.33331 299.86523 272.30664 C 300.66523 274.22664 300.63849 277.47974 299.78516 282.06641 C 299.57182 283.23974 299.38461 284.27888 299.22461 285.18555 C 299.06461 286.03888 298.8526 286.89276 298.58594 287.74609 L 310.02539 289.3457 C 310.23872 288.5457 310.6112 287.02516 311.14453 284.78516 C 311.7312 282.54516 312.29284 279.87849 312.82617 276.78516 C 313.89284 270.91849 313.14594 266.22508 310.58594 262.70508 C 308.07927 259.13174 303.4126 257.3457 296.58594 257.3457 z M 765.47266 257.3457 C 760.35266 257.3457 755.73948 258.30656 751.63281 260.22656 C 747.57948 262.14656 744.05893 264.62602 741.07227 267.66602 C 738.0856 270.65268 735.65964 273.85229 733.79297 277.26562 L 733.79297 258.94531 L 712.11328 258.94531 L 710.19336 270.14648 L 723.71289 270.14648 L 712.75195 332.54688 L 725.87305 332.54688 L 732.11328 297.3457 C 733.12661 291.63904 735.15336 286.57315 738.19336 282.14648 C 741.23336 277.66648 744.83219 274.14594 748.99219 271.58594 C 753.20552 269.02594 757.5532 267.74609 762.0332 267.74609 C 772.21987 267.74609 776.21987 273.87982 774.0332 286.14648 L 765.87305 332.54688 L 778.99219 332.54688 L 787.07227 286.94531 C 788.77893 277.50531 787.82003 270.22547 784.19336 265.10547 C 780.62003 259.93214 774.37932 257.3457 765.47266 257.3457 z M 849.81055 257.3457 C 845.49055 257.3457 841.01109 258.30656 836.37109 260.22656 C 831.73109 262.14656 827.32992 264.89346 823.16992 268.4668 C 819.00992 272.04013 815.43784 276.27888 812.45117 281.18555 C 809.46451 286.03888 807.43776 291.4257 806.37109 297.3457 C 804.98443 305.23904 805.43714 311.93245 807.73047 317.42578 C 810.07714 322.86578 813.62443 327.02625 818.37109 329.90625 C 823.17109 332.73292 828.58271 334.14648 834.60938 334.14648 C 841.64937 334.14648 847.89008 332.43872 853.33008 329.02539 C 858.82341 325.61206 863.27612 320.94539 866.68945 315.02539 L 864.92969 326.70508 C 863.27635 337.53174 859.67753 345.07904 854.13086 349.3457 C 848.63753 353.61237 841.73016 355.74609 833.41016 355.74609 C 829.73016 355.74609 826.28984 355.07943 823.08984 353.74609 C 819.94318 352.46609 817.16953 350.89206 814.76953 349.02539 C 812.36953 347.21206 810.44977 345.50625 809.00977 343.90625 L 800.21094 351.82617 C 802.02427 354.22617 804.47698 356.5719 807.57031 358.86523 C 810.66365 361.2119 814.36945 363.13167 818.68945 364.625 C 823.06279 366.17167 827.9969 366.94531 833.49023 366.94531 C 840.6369 366.94531 847.27682 365.61198 853.41016 362.94531 C 859.54349 360.27865 864.7431 355.98641 869.00977 350.06641 C 873.27643 344.19974 876.15706 336.41174 877.65039 326.70508 L 888.13086 258.94531 L 877.89062 258.94531 L 872.84961 274.54688 C 871.40961 269.37354 868.79643 265.21307 865.00977 262.06641 C 861.2231 258.91974 856.15721 257.3457 849.81055 257.3457 z M 1236.4395 257.3457 C 1229.6128 257.3457 1223.0798 258.83951 1216.8398 261.82617 C 1210.6532 264.81284 1205.3466 269.18531 1200.9199 274.94531 C 1196.5466 280.65198 1193.6412 287.58609 1192.2012 295.74609 C 1189.9612 308.38609 1191.7472 317.96013 1197.5605 324.4668 C 1203.3739 330.92013 1211.7998 334.14648 1222.8398 334.14648 C 1230.1998 334.14648 1237.027 332.70617 1243.3203 329.82617 C 1249.6136 326.94617 1254.9202 322.65198 1259.2402 316.94531 C 1263.6136 311.23865 1266.5477 304.17276 1268.041 295.74609 C 1269.481 287.58609 1268.9194 280.65198 1266.3594 274.94531 C 1263.8527 269.18531 1259.9597 264.81284 1254.6797 261.82617 C 1249.3997 258.83951 1243.3195 257.3457 1236.4395 257.3457 z M 1341.0977 257.3457 C 1335.9777 257.3457 1331.3645 258.30656 1327.2578 260.22656 C 1323.2045 262.14656 1319.6839 264.62602 1316.6973 267.66602 C 1313.7106 270.65268 1311.2846 273.85229 1309.418 277.26562 L 1309.418 258.94531 L 1287.7383 258.94531 L 1285.8184 270.14648 L 1299.3379 270.14648 L 1288.377 332.54688 L 1301.498 332.54688 L 1307.7383 297.3457 C 1308.7516 291.63904 1310.7784 286.57315 1313.8184 282.14648 C 1316.8584 277.66648 1320.4572 274.14594 1324.6172 271.58594 C 1328.8305 269.02594 1333.1782 267.74609 1337.6582 267.74609 C 1347.8449 267.74609 1351.8449 273.87982 1349.6582 286.14648 L 1341.498 332.54688 L 1354.6172 332.54688 L 1362.6973 286.94531 C 1364.4039 277.50531 1363.445 270.22547 1359.8184 265.10547 C 1356.245 259.93214 1350.0043 257.3457 1341.0977 257.3457 z M 1428.3145 257.3457 C 1421.4878 257.3457 1414.9548 258.83951 1408.7148 261.82617 C 1402.5282 264.81284 1397.2216 269.18531 1392.7949 274.94531 C 1388.4216 280.65198 1385.5162 287.58609 1384.0762 295.74609 C 1381.8362 308.38609 1383.6222 317.96013 1389.4355 324.4668 C 1395.2489 330.92013 1403.6748 334.14648 1414.7148 334.14648 C 1422.0748 334.14648 1428.902 332.70617 1435.1953 329.82617 C 1441.4886 326.94617 1446.7952 322.65198 1451.1152 316.94531 C 1455.4886 311.23865 1458.4227 304.17276 1459.916 295.74609 C 1461.356 287.58609 1460.7944 280.65198 1458.2344 274.94531 C 1455.7277 269.18531 1451.8347 264.81284 1446.5547 261.82617 C 1441.2747 258.83951 1435.1945 257.3457 1428.3145 257.3457 z M 372.12305 257.42578 C 365.34971 257.42578 358.81677 259.08005 352.52344 262.38672 C 346.28344 265.69339 340.86987 270.33331 336.2832 276.30664 C 331.74987 282.27997 328.65529 289.29237 327.00195 297.3457 C 324.70862 308.3857 325.48227 317.29307 329.32227 324.06641 C 333.2156 330.78641 339.48305 334.14648 348.12305 334.14648 C 352.81638 334.14648 357.77529 332.75966 363.00195 329.98633 C 368.28195 327.15966 373.2963 322.27904 378.04297 315.3457 L 377.5625 317.3457 C 376.22917 323.2657 376.68188 327.74516 378.92188 330.78516 C 381.16188 333.82516 384.47042 335.3457 388.84375 335.3457 C 393.27042 335.3457 397.3487 334.11935 401.08203 331.66602 C 404.81536 329.15935 408.71034 325.90625 412.76367 321.90625 L 406.52344 315.74609 C 404.17677 317.87943 401.85583 319.7457 399.5625 321.3457 C 397.3225 322.9457 395.00352 323.74609 392.60352 323.74609 C 390.89685 323.74609 389.96273 323.07943 389.80273 321.74609 C 389.69607 320.41276 389.85654 318.81198 390.2832 316.94531 L 403.64258 258.94531 L 390.92188 258.94531 L 389.80273 263.98633 C 387.9894 262.06633 385.45646 260.49229 382.20312 259.26562 C 379.00312 258.03896 375.64305 257.42578 372.12305 257.42578 z M 941.58789 258.70508 L 920.62695 275.3457 L 931.9082 284.70508 L 946.06836 262.4668 L 941.58789 258.70508 z M 956.14844 258.70508 L 951.02734 261.66602 L 957.34766 283.90625 L 971.1875 275.3457 L 956.14844 258.70508 z M 623.375 258.94531 L 621.45508 270.14648 L 651.77539 268.625 L 641.21484 313.3457 C 639.98818 318.57237 639.82771 322.75958 640.73438 325.90625 C 641.69437 328.99958 643.42888 331.21354 645.93555 332.54688 C 648.44221 333.88021 651.42786 334.54688 654.89453 334.54688 C 658.62786 334.54688 662.81508 333.55927 667.45508 331.58594 C 672.09508 329.55927 676.76174 326.91935 681.45508 323.66602 C 686.20174 320.41268 690.60292 316.91888 694.65625 313.18555 L 688.57617 305.90625 C 685.16284 308.89292 681.5888 311.69331 677.85547 314.30664 C 674.17547 316.86664 670.57469 318.94687 667.05469 320.54688 C 663.53469 322.14688 660.30833 322.94531 657.375 322.94531 C 655.295 322.94531 654.14888 321.95966 653.93555 319.98633 C 653.77555 318.01299 654.14802 315.13237 655.05469 311.3457 L 667.29492 258.94531 L 623.375 258.94531 z M 373.80273 267.02539 C 376.73607 267.02539 379.42948 267.37307 381.88281 268.06641 C 384.33615 268.75974 386.44313 269.71865 388.20312 270.94531 L 381.32227 300.70508 C 377.74893 306.62508 374.28188 311.15997 370.92188 314.30664 C 367.61521 317.45331 364.36211 319.61182 361.16211 320.78516 C 357.96211 321.95849 354.78924 322.54688 351.64258 322.54688 C 347.48258 322.54688 344.1225 320.49339 341.5625 316.38672 C 339.05583 312.28005 338.65661 306.03935 340.36328 297.66602 C 341.53661 291.90602 343.74862 286.70641 347.00195 282.06641 C 350.25529 277.42641 354.20375 273.77214 358.84375 271.10547 C 363.48375 268.38547 368.4694 267.02539 373.80273 267.02539 z M 850.29102 268.14648 C 857.43768 268.14648 862.71753 270.62594 866.13086 275.58594 C 869.54419 280.4926 870.47635 287.21276 868.92969 295.74609 C 867.91635 301.66609 865.88961 306.60021 862.84961 310.54688 C 859.86294 314.44021 856.29086 317.34562 852.13086 319.26562 C 847.97086 321.18562 843.64992 322.14648 839.16992 322.14648 C 832.44992 322.14648 827.19682 320.03951 823.41016 315.82617 C 819.67682 311.61284 818.5307 305.45237 819.9707 297.3457 C 820.98404 291.63904 823.03753 286.5999 826.13086 282.22656 C 829.22419 277.85323 832.90326 274.41292 837.16992 271.90625 C 841.43659 269.39958 845.81102 268.14648 850.29102 268.14648 z M 1234.5195 268.14648 C 1238.9995 268.14648 1242.8945 269.26586 1246.2012 271.50586 C 1249.5078 273.74586 1251.9071 276.91872 1253.4004 281.02539 C 1254.8937 285.13206 1255.1344 290.03943 1254.1211 295.74609 C 1252.5744 304.65276 1249.1609 311.4799 1243.8809 316.22656 C 1238.6542 320.97323 1232.2798 323.3457 1224.7598 323.3457 C 1217.2398 323.3457 1211.8529 320.97323 1208.5996 316.22656 C 1205.3996 311.4799 1204.5744 304.65276 1206.1211 295.74609 C 1207.6678 287.21276 1211.1061 280.4926 1216.4395 275.58594 C 1221.7728 270.62594 1227.7995 268.14648 1234.5195 268.14648 z M 1426.3945 268.14648 C 1430.8745 268.14648 1434.7695 269.26586 1438.0762 271.50586 C 1441.3828 273.74586 1443.7821 276.91872 1445.2754 281.02539 C 1446.7687 285.13206 1447.0094 290.03943 1445.9961 295.74609 C 1444.4494 304.65276 1441.0359 311.4799 1435.7559 316.22656 C 1430.5292 320.97323 1424.1548 323.3457 1416.6348 323.3457 C 1409.1148 323.3457 1403.7279 320.97323 1400.4746 316.22656 C 1397.2746 311.4799 1396.4494 304.65276 1397.9961 295.74609 C 1399.5428 287.21276 1402.9811 280.4926 1408.3145 275.58594 C 1413.6478 270.62594 1419.6745 268.14648 1426.3945 268.14648 z "
     style="font-style:italic;font-variant:normal;font-weight:normal;font-stretch:normal;font-size:150px;font-family:'Drafting Mono';-inkscape-font-specification:'Drafting Mono';text-align:center;letter-spacing:0px;word-spacing:0px;text-anchor:middle;white-space:pre;stroke-width:1.06667"
     id="path996" />
</svg>
