<?xml version="1.0" encoding="UTF-8" standalone="no"?>
<svg
   xmlns:osb="http://www.openswatchbook.org/uri/2009/osb"
   xmlns:dc="http://purl.org/dc/elements/1.1/"
   xmlns:cc="http://creativecommons.org/ns#"
   xmlns:rdf="http://www.w3.org/1999/02/22-rdf-syntax-ns#"
   xmlns:svg="http://www.w3.org/2000/svg"
   xmlns="http://www.w3.org/2000/svg"
   xmlns:sodipodi="http://sodipodi.sourceforge.net/DTD/sodipodi-0.dtd"
   xmlns:inkscape="http://www.inkscape.org/namespaces/inkscape"
   inkscape:version="1.1-dev (1:0.92.0+devel+202005110039+9ce7266)"
   sodipodi:docname="Drafting-h.svg"
   id="svg2"
   version="1.1"
   width="1600"
   height="640"
   viewBox="0 0 1500 600">
  <sodipodi:namedview
     inkscape:current-layer="text26"
     inkscape:window-maximized="1"
     inkscape:window-y="30"
     inkscape:window-x="0"
     inkscape:cy="543.44614"
     inkscape:cx="909.0578"
     inkscape:zoom="0.67013317"
     showgrid="false"
     id="namedview96"
     inkscape:window-height="1017"
     inkscape:window-width="1920"
     inkscape:pageshadow="2"
     inkscape:pageopacity="0"
     guidetolerance="10"
     gridtolerance="10"
     objecttolerance="10"
     borderopacity="1"
     bordercolor="#666666"
     pagecolor="#ffffff" />
  <metadata
     id="metadata8">
    <rdf:RDF>
      <cc:Work
         rdf:about="">
        <dc:format>image/svg+xml</dc:format>
        <dc:type
           rdf:resource="http://purl.org/dc/dcmitype/StillImage" />
      </cc:Work>
    </rdf:RDF>
  </metadata>
  <defs
     id="defs6">
    <rect
       x="-0.027532146"
       y="-1.2685316"
       width="1497.6534"
       height="598.80739"
       id="rect28" />
    <rect
       id="rect372"
       height="200.08714"
       width="1494.2503"
       y="410.19059"
       x="1.3795054" />
    <rect
       id="rect23"
       height="76.134397"
       width="277.4917"
       y="46.071558"
       x="666.86887" />
    <linearGradient
       id="linearGradient5684"
       osb:paint="solid">
      <stop
         style="stop-color:#6f5b14;stop-opacity:1;"
         offset="0"
         id="stop5686" />
    </linearGradient>
  </defs>
  <g
     aria-label="Besley*"
     transform="matrix(1.1800817,0,0,1.1800817,-195.45316,-102.59332)"
     style="font-style:normal;font-variant:normal;font-weight:500;font-stretch:normal;font-size:200px;line-height:1.25;font-family:'Besley*';-inkscape-font-specification:'Besley* Medium';text-align:center;letter-spacing:0px;word-spacing:0px;text-anchor:middle;fill:#172517;fill-opacity:1;stroke:#355635;stroke-width:1.58887;stroke-miterlimit:4;stroke-dasharray:none;stroke-opacity:1;paint-order:stroke fill markers"
     id="g368" />
  <g
     aria-label="Drafting Mono"
     transform="translate(0,174.375)"
     id="text26"
     style="font-style:normal;font-variant:normal;font-weight:normal;font-stretch:normal;font-size:150px;font-family:'Drafting Mono';-inkscape-font-specification:'Drafting Mono';text-align:center;letter-spacing:0px;word-spacing:0px;text-anchor:middle;white-space:pre;shape-inside:url(#rect28)">
    <rect
       y="24.756302"
       x="154.04764"
       height="154.82927"
       width="1183.2747"
       id="rect25"
       style="fill:#ffffff;fill-opacity:1;stroke:#ffffff;stroke-width:1.3125;stroke-linecap:round;stroke-linejoin:round;paint-order:stroke markers fill;stop-color:#000000" />
    <path
       d="m 161.17969,137.48242 1.725,-9.75 h 12.75 l 13.725,-77.999998 h -12.75 l 1.725,-9.75 h 38.4 q 12.6,0 20.7,6.675 8.175,6.675 11.25,18.075 3.15,11.4 0.675,25.5 -2.4,13.724998 -9.75,24.374998 -7.275,10.65 -17.7,16.8 -10.425,6.075 -22.35,6.075 z m 26.4,-9.75 h 10.725 q 8.925,0 16.875,-4.65 7.95,-4.725 13.65,-13.5 5.7,-8.775 7.8,-20.849998 3.3,-18.75 -3.375,-28.875 -6.675,-10.125 -21.225,-10.125 h -10.725 z"
       style="font-style:italic"
       id="path247" />
    <path
       d="m 320.27109,78.232422 q -3.6,0 -8.475,1.35 -4.875,1.35 -9.75,4.35 -4.875,2.925 -8.625,7.8 -3.675,4.875 -4.95,11.999998 l -5.85,33.75 h -12.675 l 10.35,-59.249998 h -18 l 1.725,-9.75 h 26.925 v 17.55 q 3.675,-5.1 8.925,-9.375 5.325,-4.35 11.4,-6.975 6.075,-2.7 12.15,-2.7 9.6,0 13.125,5.025 3.6,4.95 2.1,13.2 -0.75,4.35 -1.575,7.5 -0.75,3.15 -1.05,4.275 l -10.725,-1.5 q 0.375,-1.2 0.6,-2.4 0.225,-1.275 0.525,-2.925 1.2,-6.45 0.075,-9.15 -1.125,-2.775 -6.225,-2.775 z"
       style="font-style:italic"
       id="path249" />
    <path
       d="m 423.7875,68.482422 -12.525,54.374998 q -0.6,2.625 -0.45,4.5 0.225,1.875 2.625,1.875 3.375,0 6.525,-2.25 3.225,-2.25 6.525,-5.25 l 5.85,5.775 q -5.7,5.625 -10.95,9.15 -5.25,3.45 -11.475,3.45 -6.15,0 -9.3,-4.275 -3.15,-4.275 -1.275,-12.6 l 0.45,-1.875 q -6.675,9.75 -14.1,13.725 -7.35,3.9 -13.95,3.9 -12.15,0 -17.625,-9.45 -5.4,-9.525 -2.175,-25.05 2.325,-11.324998 8.7,-19.724998 6.45,-8.4 15.225,-13.05 8.85,-4.65 18.375,-4.65 4.95,0 9.45,1.725 4.575,1.725 7.125,4.425 l 1.05,-4.725 z m -59.325,36.299998 q -2.4,11.775 1.125,17.55 3.6,5.775 9.45,5.775 4.425,0 8.925,-1.65 4.5,-1.65 9.15,-6.075 4.725,-4.425 9.75,-12.75 l 6.45,-27.899998 q -2.475,-1.725 -5.925,-2.7 -3.45,-0.975 -7.575,-0.975 -7.5,0 -14.025,3.825 -6.525,3.75 -11.1,10.275 -4.575,6.525 -6.225,14.624998 z"
       style="font-style:italic"
       id="path251" />
    <path
       d="m 458.22891,162.23242 11.7,-83.999998 h -21 l 1.725,-9.75 h 20.175 l 1.05,-6 q 1.65,-9.225 5.625,-16.725 4.05,-7.5 11.4,-11.85 7.35,-4.425 18.825,-4.425 10.5,0 17.325,3.225 6.9,3.225 10.425,7.2 l -10.125,8.325 q -1.35,-1.125 -3.975,-3.075 -2.55,-1.95 -6.3,-3.525 -3.675,-1.65 -8.475,-1.65 -7.425,0 -11.925,3.3 -4.425,3.225 -6.75,8.4 -2.325,5.1 -3.3,10.8 l -1.05,6 h 33.825 l -1.95,11.25 -32.85,-1.5 -11.7,83.999998 z"
       style="font-style:italic"
       id="path253" />
    <path
       d="m 566.24531,126.98242 q 7.05,0 12.75,-1.875 5.7,-1.95 10.05,-4.725 4.425,-2.775 7.35,-5.4 l 5.775,6.9 q -7.725,6.15 -17.325,11.25 -9.525,5.1 -20.625,5.1 -9.6,0 -13.425,-3.825 -3.825,-3.825 -3.75,-10.575 0.15,-6.825 2.325,-15.6 l 7.275,-29.174998 h -17.175 l 1.875,-10.575 h 17.925 l 3.9,-15.75 12.9,-3 -4.575,18.75 h 35.025 l -1.95,11.25 -35.475,-1.425 -6.6,26.924998 q -1.95,8.025 -2.7,12.825 -0.75,4.725 0.6,6.825 1.425,2.1 5.85,2.1 z"
       style="font-style:italic"
       id="path255" />
    <path
       d="m 658.96172,43.357422 q 0,-4.125 2.55,-6.75 2.625,-2.625 6.75,-2.625 4.125,0 6.75,2.625 2.625,2.625 2.625,6.75 0,4.125 -2.475,6.75 -2.4,2.625 -6.525,2.625 -4.125,0 -6.9,-2.625 -2.775,-2.625 -2.775,-6.75 z m 37.65,75.974998 q -5.7,5.25 -12.375,9.825 -6.6,4.575 -13.125,7.425 -6.525,2.775 -11.775,2.775 -4.875,0 -8.4,-1.875 -3.525,-1.875 -4.875,-6.225 -1.275,-4.425 0.45,-11.775 l 9.9,-41.924998 -28.425,1.425 1.8,-10.5 h 41.175 l -11.475,49.124998 q -1.275,5.325 -1.05,8.1 0.3,2.775 3.225,2.775 4.125,0 9.075,-2.25 4.95,-2.25 10.125,-5.85 5.25,-3.675 10.05,-7.875 z"
       style="font-style:italic"
       id="path257" />
    <path
       d="m 783.25312,94.732422 -7.57499,42.749998 h -12.30001 l 7.65001,-43.499998 q 3.07499,-17.25 -11.25,-17.25 -6.30001,0 -12.225,3.6 -5.85001,3.6 -10.125,9.9 -4.275,6.225 -5.70001,14.249998 l -5.85,33 h -12.3 l 10.275,-58.499998 h -12.67499 l 1.79999,-10.5 h 20.32501 v 17.175 q 2.625,-4.8 6.82499,-9 4.2,-4.275 9.90001,-6.975 5.775,-2.7 12.97499,-2.7 12.52501,0 17.55001,7.275 5.1,7.2 2.69999,20.475 z"
       style="font-style:italic"
       id="path259" />
    <path
       d="m 827.81953,138.98242 q -8.475,0 -15.225,-3.975 -6.675,-4.05 -9.975,-11.7 -3.225,-7.725 -1.275,-18.825 1.5,-8.324998 5.7,-15.149998 4.2,-6.9 10.05,-11.925 5.85,-5.025 12.375,-7.725 6.525,-2.7 12.6,-2.7 8.925,0 14.25,4.425 5.325,4.425 7.35,11.7 l 4.725,-14.625 h 9.6 l -9.825,63.524998 q -2.1,13.65 -8.1,21.9 -6,8.325 -14.625,12.075 -8.625,3.75 -18.675,3.75 -7.725,0 -13.875,-2.175 -6.075,-2.1 -10.425,-5.4 -4.35,-3.225 -6.9,-6.6 l 8.25,-7.425 q 2.025,2.25 5.4,4.8 3.375,2.625 7.8,4.425 4.5,1.875 9.675,1.875 11.7,0 19.425,-6 7.8,-6 10.125,-21.225 l 1.65,-10.95 q -4.8,8.325 -12.525,13.125 -7.65,4.8 -17.55,4.8 z m 14.7,-61.874998 q -6.3,0 -12.3,3.525 -6,3.525 -10.35,9.675 -4.35,6.15 -5.775,14.174998 -2.025,11.4 3.225,17.325 5.325,5.925 14.775,5.925 6.3,0 12.15,-2.7 5.85,-2.7 10.05,-8.175 4.275,-5.55 5.7,-13.875 2.175,-11.999998 -2.625,-18.899998 -4.8,-6.975 -14.85,-6.975 z"
       style="font-style:italic"
       id="path261" />
    <path
       d="m 994.95234,49.732422 h -11.85 l 1.725,-9.75 h 28.72496 l 7.275,50.7 24.525,-50.7 h 29.475 l -1.725,9.75 h -11.85 l -12.525,77.999998 h 10.65 l -1.725,9.75 h -35.175 l 1.725,-9.75 h 13.725 l 6.75,-44.549998 8.925,-36 -33.3,64.049998 h -4.5 l -12.3,-64.049998 -3.67496,36 -9,44.549998 h 13.72496 l -1.725,9.75 h -35.17496 l 1.725,-9.75 h 10.65 z"
       style="font-style:italic"
       id="path263" />
    <path
       d="m 1101.8438,138.98242 q -15.525,0 -23.7,-9.075 -8.175,-9.15 -5.025,-26.925 2.025,-11.474998 8.175,-19.499998 6.225,-8.1 14.925,-12.3 8.775,-4.2 18.375,-4.2 9.675,0 17.1,4.2 7.425,4.2 10.95,12.3 3.6,8.025 1.575,19.499998 -2.1,11.85 -8.25,19.875 -6.075,8.025 -14.925,12.075 -8.85,4.05 -19.2,4.05 z m 10.95,-61.874998 q -9.45,0 -16.95,6.975 -7.5,6.9 -9.675,18.899998 -2.175,12.525 2.325,19.2 4.575,6.675 15.15,6.675 10.575,0 17.925,-6.675 7.425,-6.675 9.6,-19.2 1.425,-8.024998 -0.675,-13.799998 -2.1,-5.775 -6.75,-8.925 -4.65,-3.15 -10.95,-3.15 z"
       style="font-style:italic"
       id="path265" />
    <path
       d="m 1232.9602,94.732422 -7.575,42.749998 h -12.3 l 7.65,-43.499998 q 3.075,-17.25 -11.25,-17.25 -6.3,0 -12.225,3.6 -5.85,3.6 -10.125,9.9 -4.275,6.225 -5.7,14.249998 l -5.85,33 h -12.3 l 10.275,-58.499998 h -12.675 l 1.8,-10.5 h 20.325 v 17.175 q 2.625,-4.8 6.825,-9 4.2,-4.275 9.9,-6.975 5.775,-2.7 12.975,-2.7 12.525,0 17.55,7.275 5.1,7.2 2.7,20.475 z"
       style="font-style:italic"
       id="path267" />
    <path
       d="m 1281.7266,138.98242 q -15.525,0 -23.7,-9.075 -8.175,-9.15 -5.025,-26.925 2.025,-11.474998 8.175,-19.499998 6.225,-8.1 14.925,-12.3 8.775,-4.2 18.375,-4.2 9.675,0 17.1,4.2 7.425,4.2 10.95,12.3 3.6,8.025 1.575,19.499998 -2.1,11.85 -8.25,19.875 -6.075,8.025 -14.925,12.075 -8.85,4.05 -19.2,4.05 z m 10.95,-61.874998 q -9.45,0 -16.95,6.975 -7.5,6.9 -9.675,18.899998 -2.175,12.525 2.325,19.2 4.575,6.675 15.15,6.675 10.575,0 17.925,-6.675 7.425,-6.675 9.6,-19.2 1.425,-8.024998 -0.675,-13.799998 -2.1,-5.775 -6.75,-8.925 -4.65,-3.15 -10.95,-3.15 z"
       style="font-style:italic"
       id="path269" />
  </g>
</svg>
