<?xml version="1.0" encoding="UTF-8" standalone="no"?>
<svg
   xmlns:osb="http://www.openswatchbook.org/uri/2009/osb"
   xmlns:dc="http://purl.org/dc/elements/1.1/"
   xmlns:cc="http://creativecommons.org/ns#"
   xmlns:rdf="http://www.w3.org/1999/02/22-rdf-syntax-ns#"
   xmlns:svg="http://www.w3.org/2000/svg"
   xmlns="http://www.w3.org/2000/svg"
   xmlns:sodipodi="http://sodipodi.sourceforge.net/DTD/sodipodi-0.dtd"
   xmlns:inkscape="http://www.inkscape.org/namespaces/inkscape"
   viewBox="0 0 1500 600"
   height="640"
   width="1600"
   version="1.1"
   id="svg2"
   sodipodi:docname="Drafting.svg"
   inkscape:version="1.1-dev (1:0.92.0+devel+202005110039+9ce7266)">
  <g
     style="font-size:150px;font-family:sans-serif;letter-spacing:0px;word-spacing:0px;white-space:pre;fill:#000000"
     id="text13"
     transform="translate(-3.75,-106.875)"
     aria-label="Drafting* Mono">
    <path
       id="path48"
       d="m 125.3252,418.17578 h 38.4 c 23.775,0 41.175,-21.3 41.175,-48.75 0,-28.2 -15.975,-48.75 -41.175,-48.75 h -38.4 v 9.75 h 12.75 v 78 h -12.75 z m 24.675,-9.75 v -78 h 10.725 c 19.35,0 31.425,14.025 31.425,39 0,24.225 -13.575,39 -31.425,39 z"
       style="color:#000000;-inkscape-font-specification:'Drafting Mono'" />
    <path
       id="path52"
       d="m 295.2916,377.67578 v -27 c -1.65,-0.9 -5.4,-3 -10.425,-3 -15.75,0 -27.675,6.675 -34.125,15.075 l -1.8,-13.575 h -28.425 v 9.75 h 18 v 49.5 h -16.5 v 9.75 h 51.675 v -9.75 h -22.875 v -24 c 0,-18.525 15.75,-25.2 33.15,-25.5 l 2.4,19.5 z"
       style="color:#000000;-inkscape-font-specification:'Drafting Mono'" />
    <path
       id="path56"
       d="m 372.85801,370.92578 c 0,-11.775 -6.225,-23.25 -24,-23.25 -12.525,0 -24,5.55 -33,12.75 l 7.425,7.725 c 7.125,-5.475 15.6,-9.975 24.45,-9.975 10.35,0 13.2,5.775 13.2,12.75 v 1.575 c -27.225,6.075 -50.175,10.2 -50.175,29.175 0,10.95 8.475,18 22.425,18 10.875,0 19.725,-5.175 27.75,-11.475 v 0.975 c 0,6.75 5.175,10.875 12.675,10.875 7.5,0 12.525,-3.6 16.275,-8.85 l -6.75,-6 c -1.5,2.25 -3.975,4.725 -6.975,4.725 -2.25,0 -3.3,-1.125 -3.3,-3.375 z m -49.35,30.3 c 0,-10.35 13.95,-14.475 37.425,-19.725 v 16.2 c -7.425,6.225 -17.625,11.85 -27,11.85 -6.6,0 -10.425,-3.375 -10.425,-8.325 z"
       style="color:#000000;-inkscape-font-specification:'Drafting Mono'" />
    <path
       id="path60"
       d="m 407.89941,418.17578 h 59.25 v -9.75 h -30.075 v -49.5 l 33.825,1.5 v -11.25 h -33.825 v -6 c 0,-11.475 1.65,-22.5 16.5,-22.5 9.6,0 18.525,6 21.675,8.25 l 8.7,-8.325 c -5.625,-5.25 -14.85,-10.425 -28.875,-10.425 -23.025,0 -30.75,14.55 -30.75,33 v 6 h -16.425 v 9.75 h 16.5 v 49.5 h -16.5 z"
       style="color:#000000;-inkscape-font-specification:'Drafting Mono'" />
    <path
       id="path64"
       d="m 535.26582,407.67578 c -9.6,0 -15.825,-5.775 -15.825,-21.75 v -27 l 37.575,1.5 v -11.25 h -37.5 v -18.75 h -6.675 l -6,18.75 h -15 v 10.575 h 15 v 29.175 c 0,17.7 8.4,30 27.675,30 13.275,0 22.275,-4.95 27.9,-10.2 l -6.45,-8.7 c -3.15,3 -11.1,7.65 -20.7,7.65 z"
       style="color:#000000;-inkscape-font-specification:'Drafting Mono'" />
    <path
       id="path68"
       d="m 611.03223,324.05078 c 0,5.475 4.2,9.375 9.675,9.375 5.475,0 9,-3.9 9,-9.375 0,-5.475 -3.9,-9.375 -9.375,-9.375 -5.475,0 -9.3,3.9 -9.3,9.375 z m -24,94.125 h 67.5 v -9.75 h -27.45 v -59.25 h -35.55 v 10.5 h 22.8 v 48.75 h -27.3 z"
       style="color:#000000;-inkscape-font-specification:'Drafting Mono'" />
    <path
       id="path72"
       d="m 677.72363,358.92578 v 59.25 h 12.3 v -33 c 0,-15.975 10.575,-27.75 23.175,-27.75 9.6,0 14.325,5.775 14.325,17.25 v 43.5 h 12.3 v -42.75 c 0,-17.7 -8.475,-27.75 -24.375,-27.75 -11.85,0 -20.625,6.15 -25.875,13.575 l -2.55,-12.075 h -22.05 v 9.75 z"
       style="color:#000000;-inkscape-font-specification:'Drafting Mono'" />
    <path
       id="path76"
       d="m 791.81504,395.67578 c 16.95,0 28.5,-8.925 28.5,-24.375 0,-3.675 -0.825,-7.05 -2.325,-10.05 5.025,-2.325 12.375,-3.45 17.85,-4.125 l -1.575,-11.7 c -9,2.55 -15.3,6.15 -20.325,10.05 -5.25,-5.4 -13.275,-8.55 -22.125,-8.55 -15.525,0 -27.675,9.675 -27.675,24.375 0,9.375 3.975,16.35 10.875,20.4 -7.725,2.175 -12.075,6 -12.075,12.6 0,4.425 2.4,8.625 7.5,10.875 -6.75,2.925 -11.4,7.95 -11.4,13.425 0,9.75 6.45,16.5 30.975,16.5 21.9,0 38.925,-6.675 38.925,-20.925 0,-12.225 -9.3,-16.875 -23.25,-16.875 h -24 c -5.7,0 -8.25,-2.1 -8.25,-5.7 0,-2.775 1.875,-5.625 7.5,-7.35 3.225,0.9 6.9,1.425 10.875,1.425 z m 0,-38.625 c 9.6,0 16.125,6.525 16.125,14.25 0,8.475 -5.775,14.25 -16.125,14.25 -10.35,0 -15.3,-5.775 -15.3,-14.25 0,-7.725 5.7,-14.25 15.3,-14.25 z m -21.15,68.55 c 0,-3.9 1.725,-7.05 5.025,-8.925 1.2,0.15 2.55,0.225 3.9,0.225 h 23.25 c 8.55,0 14.1,0.6 14.1,7.275 0,7.8 -10.275,10.425 -25.425,10.425 -14.475,0 -20.85,-3.15 -20.85,-9 z"
       style="color:#000000;-inkscape-font-specification:'Drafting Mono'" />
    <path
       id="path80"
       d="m 883.85645,337.17578 h 6 l 4.5,-22.5 h -15 z m 9.225,2.325 1.8,5.7 22.8,-2.7 -4.575,-14.25 z m -14.25,5.7 1.8,-5.7 -20.025,-11.25 -4.575,14.25 z m 6.075,7.275 -4.875,-3.525 -16.875,15.6 12.15,8.775 z m 8.775,-3.525 -4.875,3.525 9.6,20.85 12.15,-8.775 z"
       style="color:#000000;-inkscape-font-specification:'Drafting Mono'" />
    <path
       id="path84"
       d="m 1033.5893,330.42578 -1.2,78 h -10.65 v 9.75 h 35.175 v -9.75 h -13.725 l 1.125,-44.55 -2.625,-36 22.8,64.05 h 4.5 l 22.8,-64.05 -2.625,36 1.125,44.55 h -13.725 v 9.75 h 35.175 v -9.75 h -10.65 l -1.2,-78 h 11.85 v -9.75 h -28.725 l -16.275,50.925 -16.275,-50.925 h -28.725 v 9.75 z"
       style="color:#000000;-inkscape-font-specification:'Drafting Mono'" />
    <path
       id="path88"
       d="m 1156.2307,419.67578 c 20.7,0 36,-12.3 36,-36 0,-22.95 -16.725,-36 -36,-36 -19.275,0 -35.1,13.05 -35.1,36 0,23.7 14.4,36 35.1,36 z m 0,-61.875 c 12.6,0 23.325,9.15 23.325,25.875 0,17.475 -9.225,25.875 -23.325,25.875 -14.1,0 -22.425,-8.4 -22.425,-25.875 0,-16.725 9.825,-25.875 22.425,-25.875 z"
       style="color:#000000;-inkscape-font-specification:'Drafting Mono'" />
    <path
       id="path92"
       d="m 1217.3721,358.92578 v 59.25 h 12.3 v -33 c 0,-15.975 10.575,-27.75 23.175,-27.75 9.6,0 14.325,5.775 14.325,17.25 v 43.5 h 12.3 v -42.75 c 0,-17.7 -8.475,-27.75 -24.375,-27.75 -11.85,0 -20.625,6.15 -25.875,13.575 l -2.55,-12.075 h -22.05 v 9.75 z"
       style="color:#000000;-inkscape-font-specification:'Drafting Mono'" />
    <path
       id="path96"
       d="m 1336.1135,419.67578 c 20.7,0 36,-12.3 36,-36 0,-22.95 -16.725,-36 -36,-36 -19.275,0 -35.1,13.05 -35.1,36 0,23.7 14.4,36 35.1,36 z m 0,-61.875 c 12.6,0 23.325,9.15 23.325,25.875 0,17.475 -9.225,25.875 -23.325,25.875 -14.1,0 -22.425,-8.4 -22.425,-25.875 0,-16.725 9.825,-25.875 22.425,-25.875 z"
       style="color:#000000;-inkscape-font-specification:'Drafting Mono'" />
  </g>
  <sodipodi:namedview
     showguides="false"
     pagecolor="#ffffff"
     bordercolor="#666666"
     borderopacity="1"
     objecttolerance="10"
     gridtolerance="10"
     guidetolerance="10"
     inkscape:pageopacity="0"
     inkscape:pageshadow="2"
     inkscape:window-width="1920"
     inkscape:window-height="1017"
     id="namedview96"
     showgrid="false"
     inkscape:zoom="0.67013317"
     inkscape:cx="944.68987"
     inkscape:cy="543.44614"
     inkscape:window-x="0"
     inkscape:window-y="30"
     inkscape:window-maximized="1"
     inkscape:current-layer="text13" />
  <metadata
     id="metadata8">
    <rdf:RDF>
      <cc:Work
         rdf:about="">
        <dc:format>image/svg+xml</dc:format>
        <dc:type
           rdf:resource="http://purl.org/dc/dcmitype/StillImage" />
      </cc:Work>
    </rdf:RDF>
  </metadata>
  <defs
     id="defs6">
    <rect
       id="rect15"
       height="399.8081"
       width="1501.3894"
       y="279.42635"
       x="1.2201332" />
    <rect
       x="76.924066"
       y="178.03797"
       width="1357.3305"
       height="303.32246"
       id="rect842" />
    <rect
       id="rect28"
       height="598.80739"
       width="1497.6534"
       y="-1.2685316"
       x="-0.027532146" />
    <rect
       x="1.3795054"
       y="410.19059"
       width="1494.2503"
       height="200.08714"
       id="rect372" />
    <rect
       x="666.86887"
       y="46.071558"
       width="277.4917"
       height="76.134397"
       id="rect23" />
    <linearGradient
       osb:paint="solid"
       id="linearGradient5684">
      <stop
         id="stop5686"
         offset="0"
         style="stop-color:#6f5b14;stop-opacity:1;" />
    </linearGradient>
  </defs>
</svg>
