<?xml version="1.0" encoding="UTF-8" standalone="no"?>
<svg
   xmlns:osb="http://www.openswatchbook.org/uri/2009/osb"
   xmlns:dc="http://purl.org/dc/elements/1.1/"
   xmlns:cc="http://creativecommons.org/ns#"
   xmlns:rdf="http://www.w3.org/1999/02/22-rdf-syntax-ns#"
   xmlns:svg="http://www.w3.org/2000/svg"
   xmlns="http://www.w3.org/2000/svg"
   xmlns:sodipodi="http://sodipodi.sourceforge.net/DTD/sodipodi-0.dtd"
   xmlns:inkscape="http://www.inkscape.org/namespaces/inkscape"
   viewBox="0 0 1500 600"
   height="640"
   width="1600"
   version="1.1"
   id="svg2"
   sodipodi:docname="Drafting.svg"
   inkscape:version="1.1-dev (1:0.92.0+devel+202005110039+9ce7266)">
  <g
     style="font-style:normal;font-variant:normal;font-weight:normal;font-stretch:normal;font-size:150px;font-family:'Drafting Mono';-inkscape-font-specification:'Drafting Mono';text-align:center;letter-spacing:0px;word-spacing:0px;text-anchor:middle;white-space:pre;shape-inside:url(#rect28)"
     id="text26"
     transform="translate(0,174.375)"
     aria-label="Drafting Mono">
    <path
       id="path182"
       style="font-style:normal;font-variant:normal;font-weight:normal;font-stretch:normal;font-size:150px;font-family:'Drafting Mono';-inkscape-font-specification:'Drafting Mono';text-align:center;letter-spacing:0px;word-spacing:0px;text-anchor:middle;white-space:pre;shape-inside:url(#rect28)"
       d="m 167.17969,137.48242 v -9.75 h 12.75 V 49.732422 h -12.75 v -9.75 h 38.4 q 12.6,0 21.825,6.3 9.3,6.3 14.325,17.325 5.025,11.025 5.025,25.125 0,13.724998 -5.325,24.824998 -5.325,11.025 -14.625,17.475 -9.3,6.45 -21.225,6.45 z m 24.675,-9.75 h 10.725 q 8.925,0 16.05,-4.65 7.125,-4.725 11.25,-13.5 4.125,-8.775 4.125,-20.849998 0,-18.75 -8.475,-28.875 -8.4,-10.125 -22.95,-10.125 h -10.725 z" />
    <path
       id="path184"
       style="font-style:normal;font-variant:normal;font-weight:normal;font-stretch:normal;font-size:150px;font-family:'Drafting Mono';-inkscape-font-specification:'Drafting Mono';text-align:center;letter-spacing:0px;word-spacing:0px;text-anchor:middle;white-space:pre;shape-inside:url(#rect28)"
       d="m 337.14609,96.982422 -8.925,0.75 -2.4,-19.5 q -8.7,0.15 -16.2,2.7 -7.425,2.475 -12,8.025 -4.575,5.55 -4.575,14.774998 v 24 h 22.5 v 9.75 h -51.675 v -9.75 h 16.5 V 78.232422 h -18 v -9.75 h 28.425 l 1.8,13.575 q 4.8,-6.3 13.5,-10.65 8.775,-4.425 20.625,-4.425 3.75,0 6.45,1.2 2.775,1.125 3.975,1.8 z" />
    <path
       id="path186"
       style="font-style:normal;font-variant:normal;font-weight:normal;font-stretch:normal;font-size:150px;font-family:'Drafting Mono';-inkscape-font-specification:'Drafting Mono';text-align:center;letter-spacing:0px;word-spacing:0px;text-anchor:middle;white-space:pre;shape-inside:url(#rect28)"
       d="m 414.7125,90.232422 v 35.624998 q 0,3.375 3.3,3.375 2.25,0 4.05,-1.5 1.8,-1.575 2.925,-3.225 l 6.75,6 q -2.775,3.9 -6.75,6.375 -3.9,2.475 -9.525,2.475 -5.625,0 -9.15,-2.925 -3.525,-2.925 -3.525,-7.95 v -0.975 q -6,4.725 -12.825,8.1 -6.75,3.375 -14.925,3.375 -10.425,0 -16.425,-4.875 -6,-4.95 -6,-13.125 0,-7.125 3.9,-11.775 3.975,-4.65 10.875,-7.65 6.975,-2.999998 16.05,-5.249998 9.075,-2.25 19.275,-4.5 l 0.075,0.225 v -1.8 q 0,-5.25 -2.7,-9 -2.7,-3.75 -10.5,-3.75 -6.6,0 -12.9,2.925 -6.225,2.925 -11.55,7.05 l -7.425,-7.725 q 6.75,-5.4 15.15,-9.075 8.475,-3.675 17.85,-3.675 8.925,0 14.175,3.375 5.25,3.375 7.5,8.7 2.325,5.25 2.325,11.175 z m -49.35,30.299998 q 0,3.675 2.7,6 2.775,2.325 7.725,2.325 7.05,0 14.25,-3.6 7.2,-3.6 12.75,-8.25 v -16.2 q -11.7,2.625 -20.1,5.175 -8.4,2.55 -12.9,6 -4.425,3.375 -4.425,8.55 z" />
    <path
       id="path188"
       style="font-style:normal;font-variant:normal;font-weight:normal;font-stretch:normal;font-size:150px;font-family:'Drafting Mono';-inkscape-font-specification:'Drafting Mono';text-align:center;letter-spacing:0px;word-spacing:0px;text-anchor:middle;white-space:pre;shape-inside:url(#rect28)"
       d="m 449.75391,137.48242 v -9.75 h 16.5 V 78.232422 h -16.5 v -9.75 h 16.425 v -6 q 0,-9.225 2.85,-16.725 2.925,-7.5 9.675,-11.85 6.75,-4.425 18.225,-4.425 10.5,0 17.55,3.225 7.125,3.225 11.325,7.2 l -8.7,8.325 q -1.575,-1.125 -4.875,-3.075 -3.3,-1.95 -7.65,-3.525 -4.35,-1.65 -9.15,-1.65 -7.425,0 -10.95,3.225 -3.45,3.225 -4.5,8.4 -1.05,5.1 -1.05,10.875 v 6 h 33.825 v 11.25 l -33.825,-1.5 v 49.499998 h 30.075 v 9.75 z" />
    <path
       id="path190"
       style="font-style:normal;font-variant:normal;font-weight:normal;font-stretch:normal;font-size:150px;font-family:'Drafting Mono';-inkscape-font-specification:'Drafting Mono';text-align:center;letter-spacing:0px;word-spacing:0px;text-anchor:middle;white-space:pre;shape-inside:url(#rect28)"
       d="m 578.62031,126.98242 q 7.2,0 12.75,-2.7 5.625,-2.7 7.95,-4.95 l 6.45,8.7 q -4.2,3.9 -11.1,7.05 -6.825,3.15 -16.8,3.15 -14.475,0 -21.075,-8.325 -6.6,-8.4 -6.6,-21.675 V 79.057422 h -15 v -10.575 h 15 l 6,-18.75 h 6.675 v 18.75 h 37.5 v 11.25 l -37.575,-1.5 v 26.999998 q 0,12 4.275,16.875 4.35,4.875 11.55,4.875 z" />
    <path
       id="path192"
       style="font-style:normal;font-variant:normal;font-weight:normal;font-stretch:normal;font-size:150px;font-family:'Drafting Mono';-inkscape-font-specification:'Drafting Mono';text-align:center;letter-spacing:0px;word-spacing:0px;text-anchor:middle;white-space:pre;shape-inside:url(#rect28)"
       d="m 652.88672,43.357422 q 0,-4.125 2.55,-6.75 2.625,-2.625 6.75,-2.625 4.125,0 6.75,2.625 2.625,2.625 2.625,6.75 0,4.125 -2.475,6.75 -2.4,2.625 -6.525,2.625 -4.125,0 -6.9,-2.625 -2.775,-2.625 -2.775,-6.75 z m -24,94.124998 v -9.75 h 27 V 78.982422 h -22.5 v -10.5 h 35.925 v 59.249998 h 27.075 v 9.75 z" />
    <path
       id="path194"
       style="font-style:normal;font-variant:normal;font-weight:normal;font-stretch:normal;font-size:150px;font-family:'Drafting Mono';-inkscape-font-specification:'Drafting Mono';text-align:center;letter-spacing:0px;word-spacing:0px;text-anchor:middle;white-space:pre;shape-inside:url(#rect28)"
       d="m 719.57812,78.982422 h -12.75 v -10.5 h 22.05 l 2.55001,12.075 q 3.89999,-5.625 10.42499,-9.6 6.6,-3.975 15.45001,-3.975 11.92499,0 18.14999,7.275 6.22501,7.2 6.22501,20.475 V 137.48242 H 769.37812 V 93.982422 q 0,-17.25 -14.32499,-17.25 -6.30001,0 -11.55001,3.6 -5.25,3.6 -8.47499,9.9 -3.15001,6.225 -3.15001,14.249998 v 33 h -12.3 z" />
    <path
       id="path196"
       style="font-style:normal;font-variant:normal;font-weight:normal;font-stretch:normal;font-size:150px;font-family:'Drafting Mono';-inkscape-font-specification:'Drafting Mono';text-align:center;letter-spacing:0px;word-spacing:0px;text-anchor:middle;white-space:pre;shape-inside:url(#rect28)"
       d="m 836.66953,114.98242 q -5.925,0 -10.875,-1.425 -4.275,1.275 -5.925,3.3 -1.575,2.025 -1.575,4.05 0,5.7 8.25,5.7 h 24 q 10.5,0 16.875,3.9 6.375,3.825 6.375,12.975 0,7.125 -5.175,11.775 -5.175,4.65 -14.025,6.9 -8.775,2.25 -19.725,2.25 -12.225,0 -18.975,-2.1 -6.75,-2.1 -9.375,-5.85 -2.625,-3.675 -2.625,-8.55 0,-4.05 3.15,-7.65 3.15,-3.6 8.25,-5.775 -3.825,-1.725 -5.7,-4.65 -1.8,-2.925 -1.8,-6.225 0,-4.95 3.15,-7.95 3.15,-3 8.925,-4.65 -5.175,-3 -8.025,-8.175 -2.85,-5.174998 -2.85,-12.224998 0,-7.35 3.675,-12.825 3.675,-5.475 9.975,-8.475 6.3,-3.075 14.025,-3.075 13.875,0 22.125,8.55 3.75,-2.925 8.625,-5.475 4.95,-2.625 11.7,-4.575 l 1.575,11.7 q -4.125,0.45 -9.15,1.425 -4.95,0.975 -8.7,2.7 2.325,4.65 2.325,10.05 0,11.549998 -7.875,17.999998 -7.875,6.375 -20.625,6.375 z m 0,-38.624998 q -7.2,0 -11.25,4.275 -4.05,4.2 -4.05,9.975 0,6.375 3.75,10.349998 3.825,3.9 11.55,3.9 7.8,0 11.925,-3.9 4.2,-3.974998 4.2,-10.349998 0,-5.775 -4.5,-9.975 -4.425,-4.275 -11.625,-4.275 z m -21.15,68.549998 q 0,4.35 4.95,6.675 5.025,2.325 15.9,2.325 11.4,0 18.375,-2.325 7.05,-2.25 7.05,-8.1 0,-5.025 -3.825,-6.15 -3.825,-1.125 -10.275,-1.125 h -23.25 q -2.025,0 -3.9,-0.225 -5.025,2.925 -5.025,8.925 z" />
    <path
       id="path198"
       style="font-style:normal;font-variant:normal;font-weight:normal;font-stretch:normal;font-size:150px;font-family:'Drafting Mono';-inkscape-font-specification:'Drafting Mono';text-align:center;letter-spacing:0px;word-spacing:0px;text-anchor:middle;white-space:pre;shape-inside:url(#rect28)"
       d="m 985.50234,49.732422 h -11.85 v -9.75 h 28.72496 l 16.275,50.925 16.275,-50.925 h 28.725 v 9.75 h -11.85 l 1.2,77.999998 h 10.65 v 9.75 h -35.175 v -9.75 h 13.725 l -1.125,-44.549998 2.625,-36 -22.8,64.049998 h -4.5 l -22.79996,-64.049998 2.625,36 -1.125,44.549998 h 13.72496 v 9.75 h -35.17496 v -9.75 h 10.65 z" />
    <path
       id="path200"
       style="font-style:normal;font-variant:normal;font-weight:normal;font-stretch:normal;font-size:150px;font-family:'Drafting Mono';-inkscape-font-specification:'Drafting Mono';text-align:center;letter-spacing:0px;word-spacing:0px;text-anchor:middle;white-space:pre;shape-inside:url(#rect28)"
       d="m 1108.1438,138.98242 q -10.35,0 -18.3,-4.05 -7.875,-4.05 -12.375,-12.075 -4.425,-8.025 -4.425,-19.875 0,-11.474998 4.725,-19.499998 4.8,-8.1 12.75,-12.3 8.025,-4.2 17.625,-4.2 9.675,0 17.85,4.2 8.175,4.2 13.125,12.3 5.025,8.025 5.025,19.499998 0,11.85 -4.725,19.875 -4.65,8.025 -12.825,12.075 -8.1,4.05 -18.45,4.05 z m 0,-61.874998 q -9.45,0 -15.75,6.975 -6.3,6.9 -6.3,18.899998 0,12.525 5.7,19.2 5.775,6.675 16.35,6.675 10.575,0 16.725,-6.675 6.225,-6.675 6.225,-19.2 0,-8.024998 -3.15,-13.799998 -3.075,-5.775 -8.325,-8.925 -5.175,-3.15 -11.475,-3.15 z" />
    <path
       id="path202"
       style="font-style:normal;font-variant:normal;font-weight:normal;font-stretch:normal;font-size:150px;font-family:'Drafting Mono';-inkscape-font-specification:'Drafting Mono';text-align:center;letter-spacing:0px;word-spacing:0px;text-anchor:middle;white-space:pre;shape-inside:url(#rect28)"
       d="m 1169.2852,78.982422 h -12.75 v -10.5 h 22.05 l 2.55,12.075 q 3.9,-5.625 10.425,-9.6 6.6,-3.975 15.45,-3.975 11.925,0 18.15,7.275 6.225,7.2 6.225,20.475 v 42.749998 h -12.3 V 93.982422 q 0,-17.25 -14.325,-17.25 -6.3,0 -11.55,3.6 -5.25,3.6 -8.475,9.9 -3.15,6.225 -3.15,14.249998 v 33 h -12.3 z" />
    <path
       id="path204"
       style="font-style:normal;font-variant:normal;font-weight:normal;font-stretch:normal;font-size:150px;font-family:'Drafting Mono';-inkscape-font-specification:'Drafting Mono';text-align:center;letter-spacing:0px;word-spacing:0px;text-anchor:middle;white-space:pre;shape-inside:url(#rect28)"
       d="m 1288.0266,138.98242 q -10.35,0 -18.3,-4.05 -7.875,-4.05 -12.375,-12.075 -4.425,-8.025 -4.425,-19.875 0,-11.474998 4.725,-19.499998 4.8,-8.1 12.75,-12.3 8.025,-4.2 17.625,-4.2 9.675,0 17.85,4.2 8.175,4.2 13.125,12.3 5.025,8.025 5.025,19.499998 0,11.85 -4.725,19.875 -4.65,8.025 -12.825,12.075 -8.1,4.05 -18.45,4.05 z m 0,-61.874998 q -9.45,0 -15.75,6.975 -6.3,6.9 -6.3,18.899998 0,12.525 5.7,19.2 5.775,6.675 16.35,6.675 10.575,0 16.725,-6.675 6.225,-6.675 6.225,-19.2 0,-8.024998 -3.15,-13.799998 -3.075,-5.775 -8.325,-8.925 -5.175,-3.15 -11.475,-3.15 z" />
  </g>
  <sodipodi:namedview
     pagecolor="#ffffff"
     bordercolor="#666666"
     borderopacity="1"
     objecttolerance="10"
     gridtolerance="10"
     guidetolerance="10"
     inkscape:pageopacity="0"
     inkscape:pageshadow="2"
     inkscape:window-width="1920"
     inkscape:window-height="1017"
     id="namedview96"
     showgrid="false"
     inkscape:zoom="0.67013317"
     inkscape:cx="1154.5314"
     inkscape:cy="543.44614"
     inkscape:window-x="0"
     inkscape:window-y="30"
     inkscape:window-maximized="1"
     inkscape:current-layer="text26" />
  <metadata
     id="metadata8">
    <rdf:RDF>
      <cc:Work
         rdf:about="">
        <dc:format>image/svg+xml</dc:format>
        <dc:type
           rdf:resource="http://purl.org/dc/dcmitype/StillImage" />
      </cc:Work>
    </rdf:RDF>
  </metadata>
  <defs
     id="defs6">
    <rect
       id="rect28"
       height="598.80739"
       width="1497.6534"
       y="-1.2685316"
       x="-0.027532146" />
    <rect
       x="1.3795054"
       y="410.19059"
       width="1494.2503"
       height="200.08714"
       id="rect372" />
    <rect
       x="666.86887"
       y="46.071558"
       width="277.4917"
       height="76.134397"
       id="rect23" />
    <linearGradient
       osb:paint="solid"
       id="linearGradient5684">
      <stop
         id="stop5686"
         offset="0"
         style="stop-color:#6f5b14;stop-opacity:1;" />
    </linearGradient>
  </defs>
  <g
     id="g368"
     style="font-style:normal;font-variant:normal;font-weight:500;font-stretch:normal;font-size:200px;line-height:1.25;font-family:'Besley*';-inkscape-font-specification:'Besley* Medium';text-align:center;letter-spacing:0px;word-spacing:0px;text-anchor:middle;fill:#172517;fill-opacity:1;stroke:#355635;stroke-width:1.58887;stroke-miterlimit:4;stroke-dasharray:none;stroke-opacity:1;paint-order:stroke fill markers"
     transform="matrix(1.1800817,0,0,1.1800817,-195.45316,-102.59332)"
     aria-label="Besley*" />
</svg>
