<?xml version="1.0" encoding="UTF-8" standalone="no"?>
<svg
   xmlns:osb="http://www.openswatchbook.org/uri/2009/osb"
   xmlns:dc="http://purl.org/dc/elements/1.1/"
   xmlns:cc="http://creativecommons.org/ns#"
   xmlns:rdf="http://www.w3.org/1999/02/22-rdf-syntax-ns#"
   xmlns:svg="http://www.w3.org/2000/svg"
   xmlns="http://www.w3.org/2000/svg"
   xmlns:sodipodi="http://sodipodi.sourceforge.net/DTD/sodipodi-0.dtd"
   xmlns:inkscape="http://www.inkscape.org/namespaces/inkscape"
   inkscape:version="1.1-dev (1:0.92.0+devel+202005110039+9ce7266)"
   sodipodi:docname="Drafting.svg"
   id="svg2"
   version="1.1"
   width="1600"
   height="640"
   viewBox="0 0 1500 600">
  <path
     transform="scale(0.9375)"
     d="M 481.66016 217.3457 C 473.50016 217.3457 467.0207 218.91974 462.2207 222.06641 C 457.4207 225.15974 453.98039 229.37174 451.90039 234.70508 C 449.87372 240.03841 448.85938 245.98687 448.85938 252.54688 L 448.85938 258.94531 L 431.33984 258.94531 L 431.33984 269.3457 L 448.93945 269.3457 L 448.93945 322.14648 L 431.33984 322.14648 L 431.33984 332.54688 L 494.54102 332.54688 L 494.54102 322.14648 L 462.46094 322.14648 L 462.46094 269.3457 L 498.54102 270.94531 L 498.54102 258.94531 L 462.46094 258.94531 L 462.46094 252.54688 C 462.46094 248.44021 462.83341 244.57198 463.58008 240.94531 C 464.32674 237.26531 465.92753 234.27966 468.38086 231.98633 C 470.88753 229.69299 474.78055 228.54688 480.06055 228.54688 C 483.47388 228.54687 486.72698 229.13331 489.82031 230.30664 C 492.91365 231.42664 495.6338 232.67974 497.98047 234.06641 C 500.32714 235.45307 502.05969 236.5457 503.17969 237.3457 L 512.46094 228.4668 C 509.47427 225.64013 505.44753 223.07849 500.38086 220.78516 C 495.36753 218.49182 489.12682 217.3457 481.66016 217.3457 z M 657.93555 222.14648 C 655.00221 222.14648 652.60104 223.07865 650.73438 224.94531 C 648.92104 226.81198 648.01562 229.21315 648.01562 232.14648 C 648.01562 235.07982 649.00128 237.47904 650.97461 239.3457 C 652.94794 241.21237 655.4026 242.14648 658.33594 242.14648 C 661.26927 242.14648 663.58826 241.21237 665.29492 239.3457 C 667.05492 237.47904 667.93555 235.07982 667.93555 232.14648 C 667.93555 229.21315 667.00143 226.81198 665.13477 224.94531 C 663.2681 223.07865 660.86888 222.14648 657.93555 222.14648 z M 934.22852 222.14648 L 939.02734 246.14648 L 945.42773 246.14648 L 950.22852 222.14648 L 934.22852 222.14648 z M 129.92773 228.54688 L 129.92773 238.94531 L 143.52734 238.94531 L 143.52734 322.14648 L 129.92773 322.14648 L 129.92773 332.54688 L 170.88867 332.54688 C 179.36867 332.54688 186.91401 330.25268 193.52734 325.66602 C 200.14068 321.07935 205.34029 314.86539 209.12695 307.02539 C 212.91362 299.13206 214.80859 290.30687 214.80859 280.54688 C 214.80859 270.52021 213.0206 261.58609 209.44727 253.74609 C 205.87393 245.90609 200.7813 239.74563 194.16797 235.26562 C 187.60797 230.78562 179.84867 228.54688 170.88867 228.54688 L 129.92773 228.54688 z M 1086.1035 228.54688 L 1086.1035 238.94531 L 1098.7422 238.94531 L 1097.4629 322.14648 L 1086.1035 322.14648 L 1086.1035 332.54688 L 1123.623 332.54688 L 1123.623 322.14648 L 1108.9824 322.14648 L 1110.1836 274.625 L 1107.3828 236.22656 L 1131.7031 304.54688 L 1136.502 304.54688 L 1160.8223 236.22656 L 1158.0234 274.625 L 1159.2227 322.14648 L 1144.582 322.14648 L 1144.582 332.54688 L 1182.1035 332.54688 L 1182.1035 322.14648 L 1170.7422 322.14648 L 1169.4629 238.94531 L 1182.1035 238.94531 L 1182.1035 228.54688 L 1151.4629 228.54688 L 1134.1035 282.86523 L 1116.7422 228.54688 L 1086.1035 228.54688 z M 914.22852 236.625 L 909.34766 251.82617 L 933.66797 254.70508 L 935.58789 248.625 L 914.22852 236.625 z M 970.22852 236.625 L 948.86719 248.625 L 950.78711 254.70508 L 975.10742 251.82617 L 970.22852 236.625 z M 156.24805 238.94531 L 167.6875 238.94531 C 178.03417 238.94531 186.19464 242.54609 192.16797 249.74609 C 198.19464 256.94609 201.20703 267.21354 201.20703 280.54688 C 201.20703 289.13354 199.74193 296.54516 196.80859 302.78516 C 193.87526 309.02516 189.87526 313.82555 184.80859 317.18555 C 179.74193 320.49221 174.03417 322.14648 167.6875 322.14648 L 156.24805 322.14648 L 156.24805 238.94531 z M 544.87695 238.94531 L 538.47852 258.94531 L 522.47852 258.94531 L 522.47852 270.22656 L 538.47852 270.22656 L 538.47852 301.3457 C 538.47852 310.7857 540.82424 318.49346 545.51758 324.4668 C 550.21091 330.3868 557.70471 333.3457 567.99805 333.3457 C 575.09138 333.3457 581.06464 332.22633 585.91797 329.98633 C 590.82464 327.74633 594.77115 325.24013 597.75781 322.4668 L 590.87695 313.18555 C 589.22362 314.78555 586.39844 316.5468 582.39844 318.4668 C 578.45177 320.3868 573.91688 321.3457 568.79688 321.3457 C 563.67687 321.3457 559.57185 319.61315 556.47852 316.14648 C 553.43852 312.67982 551.91797 306.67982 551.91797 298.14648 L 551.91797 269.3457 L 591.99805 270.94531 L 591.99805 258.94531 L 551.99805 258.94531 L 551.99805 238.94531 L 544.87695 238.94531 z M 889.33008 254.94531 C 884.53008 256.33198 880.36961 257.95951 876.84961 259.82617 C 873.38294 261.63951 870.31706 263.58602 867.65039 265.66602 C 861.78372 259.58602 853.91745 256.54688 844.05078 256.54688 C 838.55745 256.54688 833.56984 257.63951 829.08984 259.82617 C 824.60984 261.95951 821.06451 264.9719 818.45117 268.86523 C 815.83784 272.75857 814.53125 277.32021 814.53125 282.54688 C 814.53125 287.56021 815.54365 291.90594 817.57031 295.58594 C 819.59698 299.26594 822.45086 302.17331 826.13086 304.30664 C 822.02419 305.47997 818.84938 307.13229 816.60938 309.26562 C 814.36937 311.39896 813.25 314.22609 813.25 317.74609 C 813.25 320.09276 813.88992 322.30672 815.16992 324.38672 C 816.50326 326.46672 818.53 328.11904 821.25 329.3457 C 817.62333 330.89237 814.69117 332.94586 812.45117 335.50586 C 810.21117 338.06586 809.08984 340.78602 809.08984 343.66602 C 809.08984 347.13268 810.02396 350.17182 811.89062 352.78516 C 813.75729 355.45182 817.09062 357.53206 821.89062 359.02539 C 826.69062 360.51872 833.43753 361.26562 842.13086 361.26562 C 849.91753 361.26562 856.92992 360.46523 863.16992 358.86523 C 869.46326 357.26523 874.45086 354.81253 878.13086 351.50586 C 881.81086 348.19919 883.65039 344.01198 883.65039 338.94531 C 883.65039 332.43865 881.38294 327.82547 876.84961 325.10547 C 872.31628 322.33214 866.31628 320.94531 858.84961 320.94531 L 833.25 320.94531 C 827.38333 320.94531 824.45117 318.91857 824.45117 314.86523 C 824.45117 313.42523 825.01086 311.98687 826.13086 310.54688 C 827.30419 309.10687 829.41117 307.93206 832.45117 307.02539 C 835.97117 308.03872 839.83745 308.54687 844.05078 308.54688 C 853.11745 308.54687 860.45078 306.27943 866.05078 301.74609 C 871.65078 297.15943 874.45117 290.76021 874.45117 282.54688 C 874.45117 278.70687 873.62404 275.13284 871.9707 271.82617 C 874.63737 270.59951 877.73 269.63865 881.25 268.94531 C 884.82333 268.25198 888.07643 267.74578 891.00977 267.42578 L 889.33008 254.94531 z M 300.10547 257.3457 C 291.6788 257.3457 284.34547 258.91974 278.10547 262.06641 C 271.9188 265.15974 267.11841 268.94578 263.70508 273.42578 L 261.78516 258.94531 L 231.46484 258.94531 L 231.46484 269.3457 L 250.66602 269.3457 L 250.66602 322.14648 L 233.06445 322.14648 L 233.06445 332.54688 L 288.18555 332.54688 L 288.18555 322.14648 L 264.18555 322.14648 L 264.18555 296.54688 C 264.18555 289.98688 265.81112 284.73182 269.06445 280.78516 C 272.31779 276.83849 276.58523 273.98656 281.86523 272.22656 C 287.19857 270.41323 292.95786 269.45237 299.14453 269.3457 L 301.70508 290.14648 L 311.22461 289.3457 L 311.22461 260.54688 C 310.37128 260.06688 308.95771 259.425 306.98438 258.625 C 305.06438 257.77167 302.77214 257.3457 300.10547 257.3457 z M 368.36328 257.3457 C 361.69661 257.3457 355.34893 258.65229 349.32227 261.26562 C 343.34893 263.87896 337.96211 267.10531 333.16211 270.94531 L 341.08203 279.18555 C 344.8687 276.25221 348.97568 273.74602 353.40234 271.66602 C 357.88234 269.58602 362.46878 268.54688 367.16211 268.54688 C 372.70878 268.54688 376.44328 269.88021 378.36328 272.54688 C 380.28328 275.21354 381.24219 278.41315 381.24219 282.14648 L 381.24219 284.06641 L 381.16211 283.82617 C 373.90878 285.42617 367.05685 287.025 360.60352 288.625 C 354.15018 290.225 348.44242 292.09323 343.48242 294.22656 C 338.57576 296.3599 334.70948 299.08005 331.88281 302.38672 C 329.10948 305.69339 327.72266 309.87865 327.72266 314.94531 C 327.72266 320.75865 329.85638 325.42531 334.12305 328.94531 C 338.38971 332.41198 344.22924 334.14648 351.64258 334.14648 C 357.45591 334.14648 362.7625 332.94688 367.5625 330.54688 C 372.41583 328.14687 376.97552 325.26625 381.24219 321.90625 L 381.24219 322.94531 C 381.24219 326.51865 382.49529 329.34578 385.00195 331.42578 C 387.50862 333.50578 390.76367 334.54688 394.76367 334.54688 C 398.76367 334.54688 402.14854 333.66625 404.92188 331.90625 C 407.74854 330.14625 410.14971 327.8788 412.12305 325.10547 L 404.92188 318.70508 C 404.12187 319.87841 403.08273 321.02648 401.80273 322.14648 C 400.52273 323.21315 399.08242 323.74609 397.48242 323.74609 C 395.13576 323.74609 393.96289 322.54648 393.96289 320.14648 L 393.96289 282.14648 C 393.96289 277.93315 393.13576 273.9599 391.48242 270.22656 C 389.88242 266.4399 387.21576 263.34531 383.48242 260.94531 C 379.74909 258.54531 374.70995 257.3457 368.36328 257.3457 z M 759.39258 257.3457 C 753.09924 257.3457 747.60544 258.75927 742.91211 261.58594 C 738.27211 264.4126 734.5663 267.82617 731.79297 271.82617 L 729.07227 258.94531 L 705.55273 258.94531 L 705.55273 270.14648 L 719.15234 270.14648 L 719.15234 332.54688 L 732.27344 332.54688 L 732.27344 297.3457 C 732.27344 291.63904 733.39281 286.57315 735.63281 282.14648 C 737.92615 277.66648 740.93854 274.14594 744.67188 271.58594 C 748.40521 269.02594 752.51219 267.74609 756.99219 267.74609 C 767.17885 267.74609 772.27344 273.87982 772.27344 286.14648 L 772.27344 332.54688 L 785.39258 332.54688 L 785.39258 286.94531 C 785.39258 277.50531 783.17862 270.22547 778.75195 265.10547 C 774.32529 259.93214 767.87258 257.3457 759.39258 257.3457 z M 1229.5605 257.3457 C 1222.7339 257.3457 1216.4664 258.83951 1210.7598 261.82617 C 1205.1064 264.81284 1200.5735 269.18531 1197.1602 274.94531 C 1193.8002 280.65198 1192.1211 287.58609 1192.1211 295.74609 C 1192.1211 304.17276 1193.6932 311.23865 1196.8398 316.94531 C 1200.0398 322.65198 1204.441 326.94617 1210.041 329.82617 C 1215.6943 332.70617 1222.2005 334.14648 1229.5605 334.14648 C 1236.9205 334.14648 1243.4802 332.70617 1249.2402 329.82617 C 1255.0536 326.94617 1259.6133 322.65198 1262.9199 316.94531 C 1266.2799 311.23865 1267.9609 304.17276 1267.9609 295.74609 C 1267.9609 287.58609 1266.1729 280.65198 1262.5996 274.94531 C 1259.0796 269.18531 1254.4129 264.81284 1248.5996 261.82617 C 1242.7863 258.83951 1236.4405 257.3457 1229.5605 257.3457 z M 1335.0176 257.3457 C 1328.7242 257.3457 1323.2304 258.75927 1318.5371 261.58594 C 1313.8971 264.4126 1310.1913 267.82617 1307.418 271.82617 L 1304.6973 258.94531 L 1281.1777 258.94531 L 1281.1777 270.14648 L 1294.7773 270.14648 L 1294.7773 332.54688 L 1307.8984 332.54688 L 1307.8984 297.3457 C 1307.8984 291.63904 1309.0178 286.57315 1311.2578 282.14648 C 1313.5511 277.66648 1316.5635 274.14594 1320.2969 271.58594 C 1324.0302 269.02594 1328.1372 267.74609 1332.6172 267.74609 C 1342.8039 267.74609 1347.8984 273.87982 1347.8984 286.14648 L 1347.8984 332.54688 L 1361.0176 332.54688 L 1361.0176 286.94531 C 1361.0176 277.50531 1358.8036 270.22547 1354.377 265.10547 C 1349.9503 259.93214 1343.4976 257.3457 1335.0176 257.3457 z M 1421.4355 257.3457 C 1414.6089 257.3457 1408.3414 258.83951 1402.6348 261.82617 C 1396.9814 264.81284 1392.4485 269.18531 1389.0352 274.94531 C 1385.6752 280.65198 1383.9961 287.58609 1383.9961 295.74609 C 1383.9961 304.17276 1385.5682 311.23865 1388.7148 316.94531 C 1391.9148 322.65198 1396.316 326.94617 1401.916 329.82617 C 1407.5693 332.70617 1414.0755 334.14648 1421.4355 334.14648 C 1428.7955 334.14648 1435.3552 332.70617 1441.1152 329.82617 C 1446.9286 326.94617 1451.4883 322.65198 1454.7949 316.94531 C 1458.1549 311.23865 1459.8359 304.17276 1459.8359 295.74609 C 1459.8359 287.58609 1458.0479 280.65198 1454.4746 274.94531 C 1450.9546 269.18531 1446.2879 264.81284 1440.4746 261.82617 C 1434.6613 258.83951 1428.3155 257.3457 1421.4355 257.3457 z M 934.94727 258.70508 L 916.94727 275.3457 L 929.9082 284.70508 L 940.14844 262.4668 L 934.94727 258.70508 z M 949.50781 258.70508 L 944.30859 262.4668 L 954.54688 284.70508 L 967.50781 275.3457 L 949.50781 258.70508 z M 627.21484 258.94531 L 627.21484 270.14648 L 651.21484 270.14648 L 651.21484 322.14648 L 622.41602 322.14648 L 622.41602 332.54688 L 694.41602 332.54688 L 694.41602 322.14648 L 665.53516 322.14648 L 665.53516 258.94531 L 627.21484 258.94531 z M 844.05078 267.3457 C 849.17078 267.3457 853.30451 268.86625 856.45117 271.90625 C 859.65117 274.89292 861.25 278.44021 861.25 282.54688 C 861.25 287.08021 859.7562 290.75927 856.76953 293.58594 C 853.8362 296.35927 849.59745 297.74609 844.05078 297.74609 C 838.55745 297.74609 834.45047 296.35927 831.73047 293.58594 C 829.0638 290.75927 827.73047 287.08021 827.73047 282.54688 C 827.73047 278.44021 829.17078 274.89292 832.05078 271.90625 C 834.93078 268.86625 838.93078 267.3457 844.05078 267.3457 z M 1229.5605 268.14648 C 1234.0405 268.14648 1238.1208 269.26586 1241.8008 271.50586 C 1245.5341 273.74586 1248.493 276.91872 1250.6797 281.02539 C 1252.9197 285.13206 1254.041 290.03943 1254.041 295.74609 C 1254.041 304.65276 1251.8271 311.4799 1247.4004 316.22656 C 1243.0271 320.97323 1237.0805 323.3457 1229.5605 323.3457 C 1222.0405 323.3457 1216.2278 320.97323 1212.1211 316.22656 C 1208.0678 311.4799 1206.041 304.65276 1206.041 295.74609 C 1206.041 287.21276 1208.2798 280.4926 1212.7598 275.58594 C 1217.2398 270.62594 1222.8405 268.14648 1229.5605 268.14648 z M 1421.4355 268.14648 C 1425.9155 268.14648 1429.9958 269.26586 1433.6758 271.50586 C 1437.4091 273.74586 1440.368 276.91872 1442.5547 281.02539 C 1444.7947 285.13206 1445.916 290.03943 1445.916 295.74609 C 1445.916 304.65276 1443.7021 311.4799 1439.2754 316.22656 C 1434.9021 320.97323 1428.9555 323.3457 1421.4355 323.3457 C 1413.9155 323.3457 1408.1028 320.97323 1403.9961 316.22656 C 1399.9428 311.4799 1397.916 304.65276 1397.916 295.74609 C 1397.916 287.21276 1400.1548 280.4926 1404.6348 275.58594 C 1409.1148 270.62594 1414.7155 268.14648 1421.4355 268.14648 z M 381.24219 293.42578 L 381.24219 310.70508 C 377.29552 314.01174 372.76258 316.94586 367.64258 319.50586 C 362.52258 322.06586 357.45669 323.3457 352.44336 323.3457 C 348.92336 323.3457 346.17646 322.51857 344.20312 320.86523 C 342.28312 319.2119 341.32227 317.08013 341.32227 314.4668 C 341.32227 310.7868 342.8963 307.7457 346.04297 305.3457 C 349.24297 302.89237 353.8294 300.75865 359.80273 298.94531 C 365.77607 297.13198 372.92219 295.29245 381.24219 293.42578 z M 826.84961 330.94531 C 828.18294 331.10531 829.56977 331.18555 831.00977 331.18555 L 855.81055 331.18555 C 860.39721 331.18555 864.04953 331.58672 866.76953 332.38672 C 869.48953 333.18672 870.84961 335.37198 870.84961 338.94531 C 870.84961 343.10531 868.34341 345.98594 863.33008 347.58594 C 858.37008 349.23927 851.83714 350.06641 843.73047 350.06641 C 835.99714 350.06641 830.34286 349.23927 826.76953 347.58594 C 823.24953 345.9326 821.49023 343.56013 821.49023 340.4668 C 821.49023 336.20013 823.27628 333.02531 826.84961 330.94531 z "
     style="font-style:normal;font-variant:normal;font-weight:normal;font-stretch:normal;font-size:150px;font-family:'Drafting Mono';-inkscape-font-specification:'Drafting Mono';text-align:center;letter-spacing:0px;word-spacing:0px;text-anchor:middle;white-space:pre;stroke-width:1.06667"
     id="path846" />
  <sodipodi:namedview
     inkscape:current-layer="svg2"
     inkscape:window-maximized="1"
     inkscape:window-y="30"
     inkscape:window-x="0"
     inkscape:cy="543.44614"
     inkscape:cx="944.68987"
     inkscape:zoom="0.67013317"
     showgrid="false"
     id="namedview96"
     inkscape:window-height="1017"
     inkscape:window-width="1920"
     inkscape:pageshadow="2"
     inkscape:pageopacity="0"
     guidetolerance="10"
     gridtolerance="10"
     objecttolerance="10"
     borderopacity="1"
     bordercolor="#666666"
     pagecolor="#ffffff" />
  <metadata
     id="metadata8">
    <rdf:RDF>
      <cc:Work
         rdf:about="">
        <dc:format>image/svg+xml</dc:format>
        <dc:type
           rdf:resource="http://purl.org/dc/dcmitype/StillImage" />
      </cc:Work>
    </rdf:RDF>
  </metadata>
  <defs
     id="defs6">
    <rect
       id="rect842"
       height="303.32246"
       width="1357.3305"
       y="178.03797"
       x="76.924066" />
    <rect
       x="-0.027532146"
       y="-1.2685316"
       width="1497.6534"
       height="598.80739"
       id="rect28" />
    <rect
       id="rect372"
       height="200.08714"
       width="1494.2503"
       y="410.19059"
       x="1.3795054" />
    <rect
       id="rect23"
       height="76.134397"
       width="277.4917"
       y="46.071558"
       x="666.86887" />
    <linearGradient
       id="linearGradient5684"
       osb:paint="solid">
      <stop
         style="stop-color:#6f5b14;stop-opacity:1;"
         offset="0"
         id="stop5686" />
    </linearGradient>
  </defs>
</svg>
