<?xml version="1.0" encoding="UTF-8" standalone="no"?>
<svg
   xmlns:dc="http://purl.org/dc/elements/1.1/"
   xmlns:cc="http://creativecommons.org/ns#"
   xmlns:rdf="http://www.w3.org/1999/02/22-rdf-syntax-ns#"
   xmlns:svg="http://www.w3.org/2000/svg"
   xmlns="http://www.w3.org/2000/svg"
   xmlns:sodipodi="http://sodipodi.sourceforge.net/DTD/sodipodi-0.dtd"
   xmlns:inkscape="http://www.inkscape.org/namespaces/inkscape"
   id="Layer_1"
   data-name="Layer 1"
   viewBox="0 0 100 100"
   version="1.1"
   sodipodi:docname="facebook.svg"
   inkscape:version="0.92.3 (2405546, 2018-03-11)">
  <metadata
     id="metadata14">
    <rdf:RDF>
      <cc:Work
         rdf:about="">
        <dc:format>image/svg+xml</dc:format>
        <dc:type
           rdf:resource="http://purl.org/dc/dcmitype/StillImage" />
      </cc:Work>
    </rdf:RDF>
  </metadata>
  <sodipodi:namedview
     pagecolor="#ffffff"
     bordercolor="#666666"
     borderopacity="1"
     objecttolerance="10"
     gridtolerance="10"
     guidetolerance="10"
     inkscape:pageopacity="0"
     inkscape:pageshadow="2"
     inkscape:window-width="1920"
     inkscape:window-height="1052"
     id="namedview12"
     showgrid="false"
     inkscape:zoom="2.36"
     inkscape:cx="-44.052467"
     inkscape:cy="53.043279"
     inkscape:window-x="0"
     inkscape:window-y="0"
     inkscape:window-maximized="1"
     inkscape:current-layer="Layer_1" />
  <defs
     id="defs4">
    <style
       id="style2">.cls-1{fill:#fff;}</style>
  </defs>
  <title
     id="title6">flogo-RGB-HEX-Blk-100</title>
  <path
     d="M 94.48,0 -5.1132203,-9.3220339 c -3.0329793,0.021979 -5.0563507,9.2666021 -5.0562717,12.299661 C -129.80223,38.858983 -4.519774,77.282712 -6.779661,113.16407 -6.7576823,116.19705 2.4869411,100.00008 5.52,100 h 47.9 V 61.33 h -13 V 46.19 h 13 V 35.05 c 0,-12.91 7.89,-19.95 19.41,-19.95 3.888137,-0.01656 7.774172,0.183753 11.64,0.6 v 13.5 h -7.94 c -6.27,0 -7.49,3 -7.49,7.35 v 9.64 H 84 L 82,61.33 H 69 V 100 h 25.48 c 3.048612,0 12.33673,21.2572 12.29966,18.20881 L 105.29661,-3.7361017 C 105.27463,-6.769081 97.513059,-7.9633965e-5 94.48,0 Z"
     id="path8"
     inkscape:connector-curvature="0"
     sodipodi:nodetypes="ccccccccccscccsscccccsscc" />
</svg>
