<?xml version="1.0" encoding="UTF-8" standalone="no"?>
<svg
   xmlns:dc="http://purl.org/dc/elements/1.1/"
   xmlns:cc="http://creativecommons.org/ns#"
   xmlns:rdf="http://www.w3.org/1999/02/22-rdf-syntax-ns#"
   xmlns:svg="http://www.w3.org/2000/svg"
   xmlns="http://www.w3.org/2000/svg"
   viewBox="0 0 1600 640"
   height="640"
   width="1600"
   id="svg2"
   version="1.1">
  <metadata
     id="metadata8">
    <rdf:RDF>
      <cc:Work
         rdf:about="">
        <dc:format>image/svg+xml</dc:format>
        <dc:type
           rdf:resource="http://purl.org/dc/dcmitype/StillImage" />
        <dc:title></dc:title>
      </cc:Work>
    </rdf:RDF>
  </metadata>
  <defs
     id="defs6" />
  <g
     id="flowRoot1451"
     style="font-style:normal;font-variant:normal;font-weight:normal;font-stretch:normal;font-size:192px;line-height:24px;font-family:Time;-inkscape-font-specification:Time;text-align:center;letter-spacing:0px;word-spacing:0px;writing-mode:lr-tb;text-anchor:middle;fill:#000000;fill-opacity:1;stroke:none;stroke-width:1px;stroke-linecap:butt;stroke-linejoin:miter;stroke-opacity:1"
     transform="matrix(1.5049857,0,0,1.5049857,87.21219,117.61121)"
     aria-label="GNOMON*">
    <path
       id="path865"
       style="fill:#000000;fill-opacity:1"
       d="m 119.14388,63.979656 q -7.87201,7.68 -7.87201,20.16 0,12.48 7.87201,20.160004 7.87199,7.68 17.08799,7.68 9.408,0 16.32,-3.648 V 94.699656 h -21.12 v -18.24 h 46.08 v 41.472004 q -7.87199,7.872 -19.008,13.056 -11.136,4.992 -22.272,4.992 -22.272,0 -37.631995,-15.168 -15.168,-15.168 -15.168,-36.672004 0,-22.08 14.976,-36.864 15.167995,-14.976 39.744005,-14.976 20.35199,0 30.71999,10.368 l -7.68,24.384 q -8.06399,-10.752 -24.96,-10.752 -9.216,0 -17.08799,7.68 z" />
    <path
       id="path867"
       style="fill:#000000;fill-opacity:1"
       d="M 192.81187,132.13966 V 36.139656 h 32.64 l 36.48,60.864 v -60.864 h 26.88 v 96.000004 h -32.64 l -36.48,-60.864004 v 60.864004 z" />
    <path
       id="path869"
       style="fill:#000000;fill-opacity:1"
       d="m 317.38988,121.19566 q -14.20801,-14.784 -14.20801,-37.056004 0,-22.272 14.20801,-37.056 14.20799,-14.784 38.59199,-14.784 24.38401,0 38.592,14.784 14.20801,14.784 14.20801,37.056 0,22.272004 -14.20801,37.056004 -14.20799,14.784 -38.592,14.784 -24.384,0 -38.59199,-14.784 z m 21.31199,-57.216004 q -7.67999,7.488 -7.67999,20.16 0,12.672 7.67999,20.352004 7.68,7.488 17.28,7.488 9.6,0 17.28001,-7.488 7.67999,-7.680004 7.67999,-20.352004 0,-12.672 -7.67999,-20.16 -7.68001,-7.68 -17.28001,-7.68 -9.6,0 -17.28,7.68 z" />
    <path
       id="path871"
       style="fill:#000000;fill-opacity:1"
       d="M 423.06187,132.13966 V 36.139656 h 26.88 l 30.72,51.84 30.72001,-51.84 h 26.88 v 96.000004 h -26.88 V 82.219656 l -30.72001,51.840004 -30.72,-51.840004 v 49.920004 z" />
    <path
       id="path873"
       style="fill:#000000;fill-opacity:1"
       d="m 566.76487,121.19566 q -14.208,-14.784 -14.208,-37.056004 0,-22.272 14.208,-37.056 14.20801,-14.784 38.592,-14.784 24.384,0 38.59201,14.784 14.208,14.784 14.208,37.056 0,22.272004 -14.208,37.056004 -14.20801,14.784 -38.59201,14.784 -24.38399,0 -38.592,-14.784 z m 21.312,-57.216004 q -7.67999,7.488 -7.67999,20.16 0,12.672 7.67999,20.352004 7.68001,7.488 17.28,7.488 9.6,0 17.28001,-7.488 7.67999,-7.680004 7.67999,-20.352004 0,-12.672 -7.67999,-20.16 -7.68001,-7.68 -17.28001,-7.68 -9.59999,0 -17.28,7.68 z" />
    <path
       id="path875"
       style="fill:#000000;fill-opacity:1"
       d="M 672.43687,132.13966 V 36.139656 h 32.64 l 36.48,60.864 v -60.864 h 26.88 v 96.000004 h -32.64 l -36.48,-60.864004 v 60.864004 z" />
    <path
       id="path877"
       style="fill:#000000;fill-opacity:1"
       d="m 813.91088,71.275656 -5.18401,-27.456 h 24.96 l -5.376,27.456 21.50401,-18.048 12.48,21.504 -26.68801,9.408 26.68801,9.408 -12.48,21.504004 -21.50401,-18.048004 5.376,27.456004 h -24.96 l 5.18401,-27.456004 -21.504,18.048004 -12.48001,-21.504004 26.688,-9.408 -26.688,-9.408 12.48001,-21.504 z" />
  </g>
</svg>
