<?xml version="1.0" encoding="UTF-8" standalone="no"?>
<svg
   xmlns:dc="http://purl.org/dc/elements/1.1/"
   xmlns:cc="http://creativecommons.org/ns#"
   xmlns:rdf="http://www.w3.org/1999/02/22-rdf-syntax-ns#"
   xmlns:svg="http://www.w3.org/2000/svg"
   xmlns="http://www.w3.org/2000/svg"
   xmlns:sodipodi="http://sodipodi.sourceforge.net/DTD/sodipodi-0.dtd"
   xmlns:inkscape="http://www.inkscape.org/namespaces/inkscape"
   id="svg2"
   version="1.1"
   width="1600"
   height="640"
   viewBox="0 0 1500 600"
   sodipodi:docname="Jost.svg"
   inkscape:version="0.92.3 (2405546, 2018-03-11)">
  <sodipodi:namedview
     pagecolor="#ffffff"
     bordercolor="#666666"
     borderopacity="1"
     objecttolerance="10"
     gridtolerance="10"
     guidetolerance="10"
     inkscape:pageopacity="0"
     inkscape:pageshadow="2"
     inkscape:window-width="1920"
     inkscape:window-height="1052"
     id="namedview30"
     showgrid="false"
     inkscape:zoom="0.7075"
     inkscape:cx="818.59342"
     inkscape:cy="461.83515"
     inkscape:window-x="0"
     inkscape:window-y="0"
     inkscape:window-maximized="1"
     inkscape:current-layer="svg2" />
  <metadata
     id="metadata8">
    <rdf:RDF>
      <cc:Work
         rdf:about="">
        <dc:format>image/svg+xml</dc:format>
        <dc:type
           rdf:resource="http://purl.org/dc/dcmitype/StillImage" />
        <dc:title></dc:title>
      </cc:Work>
    </rdf:RDF>
  </metadata>
  <defs
     id="defs6" />
  <g
     aria-label="Jost*"
     transform="matrix(7.7699483,0,0,7.7699483,106.22207,-189.67421)"
     style="font-style:normal;font-weight:normal;line-height:0.01%;font-family:sans-serif;text-align:center;letter-spacing:0px;word-spacing:0px;text-anchor:middle;fill:#000000;fill-opacity:1;stroke:none;stroke-width:0.24131435;stroke-linecap:butt;stroke-linejoin:miter;stroke-miterlimit:4;stroke-dasharray:none;stroke-opacity:1;paint-order:stroke fill markers"
     id="flowRoot3338">
    <path
       inkscape:connector-curvature="0"
       d="m 48.631328,71.776422 -1.601727,2.402591 c 0.291223,0.436835 0.87367,0.837267 1.710936,1.237698 0.800864,0.400432 1.674533,0.582447 2.584605,0.582447 1.747339,0 3.094246,-0.473238 4.077124,-1.456116 0.982878,-0.946475 1.492518,-2.402591 1.492518,-4.368347 V 42.508499 h -2.912231 v 27.302167 c 0,1.092087 -0.25482,1.929354 -0.764461,2.475397 -0.50964,0.546043 -1.092086,0.800863 -1.710935,0.800863 -1.38331,0 -2.366188,-0.436834 -2.875829,-1.310504 z"
       style="font-style:normal;font-variant:normal;font-weight:normal;font-stretch:normal;font-size:36.40288925px;line-height:1.25;font-family:'Renner*';-inkscape-font-specification:'Renner*';text-align:center;text-anchor:middle;fill:#000000;stroke:none;stroke-width:0.24131435;stroke-miterlimit:4;stroke-dasharray:none;stroke-opacity:1;paint-order:stroke fill markers"
       id="path67" />
    <path
       inkscape:connector-curvature="0"
       d="m 64.038282,59.617857 c 0,-1.747338 0.50964,-3.167051 1.601727,-4.295541 1.092087,-1.128489 2.438994,-1.710935 4.113527,-1.710935 1.63813,0 2.985037,0.582446 4.077123,1.710935 1.092087,1.12849 1.63813,2.548203 1.63813,4.295541 0,1.747339 -0.546043,3.203455 -1.63813,4.331944 -1.092086,1.12849 -2.438993,1.674533 -4.077123,1.674533 -1.674533,0 -3.02144,-0.546043 -4.113527,-1.674533 -1.092087,-1.128489 -1.601727,-2.584605 -1.601727,-4.331944 z m -2.948634,0 c 0,2.548203 0.800864,4.623167 2.475396,6.261297 1.63813,1.674533 3.713095,2.475397 6.188492,2.475397 2.475396,0 4.513958,-0.800864 6.188491,-2.475397 1.63813,-1.63813 2.475396,-3.713094 2.475396,-6.261297 0,-2.511799 -0.837266,-4.586764 -2.475396,-6.261297 -1.674533,-1.63813 -3.713095,-2.475396 -6.188491,-2.475396 -2.475397,0 -4.550362,0.837266 -6.188492,2.475396 -1.674532,1.674533 -2.475396,3.749498 -2.475396,6.261297 z"
       style="font-style:normal;font-variant:normal;font-weight:normal;font-stretch:normal;font-size:36.40288925px;line-height:1.25;font-family:'Renner*';-inkscape-font-specification:'Renner*';text-align:center;text-anchor:middle;fill:#000000;stroke:none;stroke-width:0.24131435;stroke-miterlimit:4;stroke-dasharray:none;stroke-opacity:1;paint-order:stroke fill markers"
       id="path69" />
    <path
       inkscape:connector-curvature="0"
       d="m 83.036038,62.129657 -2.402591,1.38331 c 0.218418,1.383309 0.982878,2.511799 2.293382,3.458274 1.274102,0.946475 2.693814,1.38331 4.259138,1.38331 1.892951,0 3.385469,-0.400432 4.477556,-1.237698 1.092087,-0.837267 1.63813,-2.111368 1.63813,-3.858707 0,-2.002159 -1.565324,-3.640289 -4.623167,-4.950793 -0.109209,-0.0364 -0.327626,-0.109208 -0.618849,-0.25482 -0.327626,-0.109209 -0.546044,-0.182014 -0.655252,-0.25482 -0.145612,-0.07281 -0.327626,-0.145612 -0.618849,-0.25482 -0.291223,-0.109209 -0.473238,-0.218418 -0.582447,-0.291223 -0.145611,-0.07281 -0.291223,-0.145612 -0.50964,-0.291224 -0.218417,-0.109208 -0.364029,-0.218417 -0.473238,-0.327626 -0.109208,-0.109208 -0.218417,-0.218417 -0.327626,-0.364028 -0.109208,-0.109209 -0.182014,-0.218418 -0.218417,-0.364029 -0.07281,-0.145612 -0.07281,-0.291223 -0.07281,-0.436835 0,-1.201295 0.837267,-1.820144 2.548203,-1.820144 0.655252,0 1.310504,0.218417 2.002158,0.582446 0.691655,0.364029 1.237699,0.837266 1.674533,1.419712 l 2.329785,-1.492518 c -0.327626,-0.910072 -1.092086,-1.674533 -2.256979,-2.329785 -1.201295,-0.618849 -2.475396,-0.946475 -3.7859,-0.946475 -1.456116,0 -2.693814,0.436835 -3.785901,1.237698 -1.092086,0.800864 -1.63813,1.856548 -1.63813,3.167052 0,0.655252 0.109209,1.274101 0.400432,1.783741 0.25482,0.546043 0.655252,1.019281 1.164892,1.38331 0.509641,0.400432 1.019281,0.728058 1.492519,0.946475 0.436835,0.218417 1.019281,0.473238 1.747339,0.764461 0.618849,0.25482 1.092086,0.473237 1.419712,0.618849 0.327626,0.145611 0.691655,0.364029 1.12849,0.655252 0.436835,0.291223 0.728058,0.582446 0.946475,0.910072 0.182014,0.364029 0.291223,0.728058 0.291223,1.164893 0,1.419712 -0.982878,2.111367 -2.912231,2.111367 -1.055684,0 -2.002159,-0.327626 -2.803023,-0.982878 -0.800863,-0.655252 -1.310504,-1.492518 -1.528921,-2.511799 z"
       style="font-style:normal;font-variant:normal;font-weight:normal;font-stretch:normal;font-size:36.40288925px;line-height:1.25;font-family:'Renner*';-inkscape-font-specification:'Renner*';text-align:center;text-anchor:middle;fill:#000000;stroke:none;stroke-width:0.24131435;stroke-miterlimit:4;stroke-dasharray:none;stroke-opacity:1;paint-order:stroke fill markers"
       id="path71" />
    <path
       inkscape:connector-curvature="0"
       d="m 97.282083,45.420731 v 5.824462 h -2.730217 v 2.730217 h 2.730217 v 14.015112 h 2.912227 V 53.97541 h 2.73022 v -2.730217 h -2.73022 v -5.824462 z"
       style="font-style:normal;font-variant:normal;font-weight:normal;font-stretch:normal;font-size:36.40288925px;line-height:1.25;font-family:'Renner*';-inkscape-font-specification:'Renner*';text-align:center;text-anchor:middle;fill:#000000;stroke:none;stroke-width:0.24131435;stroke-miterlimit:4;stroke-dasharray:none;stroke-opacity:1;paint-order:stroke fill markers"
       id="path73" />
    <path
       inkscape:connector-curvature="0"
       d="m 112.61623,42.508499 0.29122,5.751657 -5.38762,-2.074965 -0.76447,2.438994 5.53324,1.492518 -3.60388,4.477556 2.07496,1.492518 3.13065,-4.805181 3.13065,4.805181 2.07496,-1.492518 -3.60388,-4.477556 5.53324,-1.492518 -0.76446,-2.438994 -5.38763,2.074965 0.29122,-5.751657 z"
       style="fill:#000000;stroke:none;stroke-width:0.24131435;stroke-miterlimit:4;stroke-dasharray:none;stroke-opacity:1;paint-order:stroke fill markers"
       id="path75" />
  </g>
</svg>
