<?xml version="1.0" encoding="UTF-8" standalone="no"?>
<svg
   xmlns:dc="http://purl.org/dc/elements/1.1/"
   xmlns:cc="http://creativecommons.org/ns#"
   xmlns:rdf="http://www.w3.org/1999/02/22-rdf-syntax-ns#"
   xmlns:svg="http://www.w3.org/2000/svg"
   xmlns="http://www.w3.org/2000/svg"
   xmlns:sodipodi="http://sodipodi.sourceforge.net/DTD/sodipodi-0.dtd"
   xmlns:inkscape="http://www.inkscape.org/namespaces/inkscape"
   id="svg2"
   version="1.1"
   width="1600"
   height="640"
   viewBox="0 0 1500 600"
   sodipodi:docname="Jost-h.svg"
   inkscape:version="0.92.3 (2405546, 2018-03-11)">
  <sodipodi:namedview
     pagecolor="#ffffff"
     bordercolor="#666666"
     borderopacity="1"
     objecttolerance="10"
     gridtolerance="10"
     guidetolerance="10"
     inkscape:pageopacity="0"
     inkscape:pageshadow="2"
     inkscape:window-width="1920"
     inkscape:window-height="1052"
     id="namedview30"
     showgrid="false"
     inkscape:zoom="0.7075"
     inkscape:cx="818.59342"
     inkscape:cy="461.83515"
     inkscape:window-x="0"
     inkscape:window-y="0"
     inkscape:window-maximized="1"
     inkscape:current-layer="svg2" />
  <metadata
     id="metadata8">
    <rdf:RDF>
      <cc:Work
         rdf:about="">
        <dc:format>image/svg+xml</dc:format>
        <dc:type
           rdf:resource="http://purl.org/dc/dcmitype/StillImage" />
        <dc:title />
      </cc:Work>
    </rdf:RDF>
  </metadata>
  <defs
     id="defs6" />
  <g
     aria-label="Jost*"
     transform="matrix(7.7699483,0,0,7.7699483,106.22207,-189.67421)"
     style="font-style:normal;font-weight:normal;line-height:0.01%;font-family:sans-serif;text-align:center;letter-spacing:0px;word-spacing:0px;text-anchor:middle;fill:#333333;fill-opacity:1;stroke:#d4d4d4;stroke-width:0.24131435;stroke-linecap:butt;stroke-linejoin:miter;stroke-miterlimit:4;stroke-dasharray:none;stroke-opacity:1;paint-order:stroke fill markers"
     id="flowRoot3338">
    <path
       inkscape:connector-curvature="0"
       d="m 48.631328,71.776422 -1.601727,2.402591 c 0.291223,0.436835 0.87367,0.837267 1.710936,1.237698 0.800864,0.400432 1.674533,0.582447 2.584605,0.582447 1.747339,0 3.094246,-0.473238 4.077124,-1.456116 0.982878,-0.946475 1.492518,-2.402591 1.492518,-4.368347 V 42.508499 h -2.912231 v 27.302167 c 0,1.092087 -0.25482,1.929354 -0.764461,2.475397 -0.50964,0.546043 -1.092086,0.800863 -1.710935,0.800863 -1.38331,0 -2.366188,-0.436834 -2.875829,-1.310504 z"
       style="font-style:normal;font-variant:normal;font-weight:normal;font-stretch:normal;font-size:36.40288925px;line-height:1.25;font-family:'Renner*';-inkscape-font-specification:'Renner*';text-align:center;text-anchor:middle;fill:#333333;stroke:#d4d4d4;stroke-width:0.24131435;stroke-miterlimit:4;stroke-dasharray:none;stroke-opacity:1;paint-order:stroke fill markers"
       id="path67" />
    <path
       inkscape:connector-curvature="0"
       d="m 64.038282,59.617857 c 0,-1.747338 0.50964,-3.167051 1.601727,-4.295541 1.092087,-1.128489 2.438994,-1.710935 4.113527,-1.710935 1.63813,0 2.985037,0.582446 4.077123,1.710935 1.092087,1.12849 1.63813,2.548203 1.63813,4.295541 0,1.747339 -0.546043,3.203455 -1.63813,4.331944 -1.092086,1.12849 -2.438993,1.674533 -4.077123,1.674533 -1.674533,0 -3.02144,-0.546043 -4.113527,-1.674533 -1.092087,-1.128489 -1.601727,-2.584605 -1.601727,-4.331944 z m -2.948634,0 c 0,2.548203 0.800864,4.623167 2.475396,6.261297 1.63813,1.674533 3.713095,2.475397 6.188492,2.475397 2.475396,0 4.513958,-0.800864 6.188491,-2.475397 1.63813,-1.63813 2.475396,-3.713094 2.475396,-6.261297 0,-2.511799 -0.837266,-4.586764 -2.475396,-6.261297 -1.674533,-1.63813 -3.713095,-2.475396 -6.188491,-2.475396 -2.475397,0 -4.550362,0.837266 -6.188492,2.475396 -1.674532,1.674533 -2.475396,3.749498 -2.475396,6.261297 z"
       style="font-style:normal;font-variant:normal;font-weight:normal;font-stretch:normal;font-size:36.40288925px;line-height:1.25;font-family:'Renner*';-inkscape-font-specification:'Renner*';text-align:center;text-anchor:middle;fill:#333333;stroke:#d4d4d4;stroke-width:0.24131435;stroke-miterlimit:4;stroke-dasharray:none;stroke-opacity:1;paint-order:stroke fill markers"
       id="path69" />
    <path
       inkscape:connector-curvature="0"
       d="m 83.036038,62.129657 -2.402591,1.38331 c 0.218418,1.383309 0.982878,2.511799 2.293382,3.458274 1.274102,0.946475 2.693814,1.38331 4.259138,1.38331 1.892951,0 3.385469,-0.400432 4.477556,-1.237698 1.092087,-0.837267 1.63813,-2.111368 1.63813,-3.858707 0,-2.002159 -1.565324,-3.640289 -4.623167,-4.950793 -0.109209,-0.0364 -0.327626,-0.109208 -0.618849,-0.25482 -0.327626,-0.109209 -0.546044,-0.182014 -0.655252,-0.25482 -0.145612,-0.07281 -0.327626,-0.145612 -0.618849,-0.25482 -0.291223,-0.109209 -0.473238,-0.218418 -0.582447,-0.291223 -0.145611,-0.07281 -0.291223,-0.145612 -0.50964,-0.291224 -0.218417,-0.109208 -0.364029,-0.218417 -0.473238,-0.327626 -0.109208,-0.109208 -0.218417,-0.218417 -0.327626,-0.364028 -0.109208,-0.109209 -0.182014,-0.218418 -0.218417,-0.364029 -0.07281,-0.145612 -0.07281,-0.291223 -0.07281,-0.436835 0,-1.201295 0.837267,-1.820144 2.548203,-1.820144 0.655252,0 1.310504,0.218417 2.002158,0.582446 0.691655,0.364029 1.237699,0.837266 1.674533,1.419712 l 2.329785,-1.492518 c -0.327626,-0.910072 -1.092086,-1.674533 -2.256979,-2.329785 -1.201295,-0.618849 -2.475396,-0.946475 -3.7859,-0.946475 -1.456116,0 -2.693814,0.436835 -3.785901,1.237698 -1.092086,0.800864 -1.63813,1.856548 -1.63813,3.167052 0,0.655252 0.109209,1.274101 0.400432,1.783741 0.25482,0.546043 0.655252,1.019281 1.164892,1.38331 0.509641,0.400432 1.019281,0.728058 1.492519,0.946475 0.436835,0.218417 1.019281,0.473238 1.747339,0.764461 0.618849,0.25482 1.092086,0.473237 1.419712,0.618849 0.327626,0.145611 0.691655,0.364029 1.12849,0.655252 0.436835,0.291223 0.728058,0.582446 0.946475,0.910072 0.182014,0.364029 0.291223,0.728058 0.291223,1.164893 0,1.419712 -0.982878,2.111367 -2.912231,2.111367 -1.055684,0 -2.002159,-0.327626 -2.803023,-0.982878 -0.800863,-0.655252 -1.310504,-1.492518 -1.528921,-2.511799 z"
       style="font-style:normal;font-variant:normal;font-weight:normal;font-stretch:normal;font-size:36.40288925px;line-height:1.25;font-family:'Renner*';-inkscape-font-specification:'Renner*';text-align:center;text-anchor:middle;fill:#333333;stroke:#d4d4d4;stroke-width:0.24131435;stroke-miterlimit:4;stroke-dasharray:none;stroke-opacity:1;paint-order:stroke fill markers"
       id="path71" />
    <path
       inkscape:connector-curvature="0"
       d="m 97.282083,45.420731 v 5.824462 h -2.730217 v 2.730217 h 2.730217 v 14.015112 h 2.912227 V 53.97541 h 2.73022 v -2.730217 h -2.73022 v -5.824462 z"
       style="font-style:normal;font-variant:normal;font-weight:normal;font-stretch:normal;font-size:36.40288925px;line-height:1.25;font-family:'Renner*';-inkscape-font-specification:'Renner*';text-align:center;text-anchor:middle;fill:#333333;stroke:#d4d4d4;stroke-width:0.24131435;stroke-miterlimit:4;stroke-dasharray:none;stroke-opacity:1;paint-order:stroke fill markers"
       id="path73" />
    <path
       inkscape:connector-curvature="0"
       d="m 112.61623,42.508499 0.29122,5.751657 -5.38762,-2.074965 -0.76447,2.438994 5.53324,1.492518 -3.60388,4.477556 2.07496,1.492518 3.13065,-4.805181 3.13065,4.805181 2.07496,-1.492518 -3.60388,-4.477556 5.53324,-1.492518 -0.76446,-2.438994 -5.38763,2.074965 0.29122,-5.751657 z"
       style="fill:#c83737;stroke:#d4d4d4;stroke-width:0.24131435;stroke-miterlimit:4;stroke-dasharray:none;stroke-opacity:1;paint-order:stroke fill markers"
       id="path75" />
  </g>
  <g
     id="flowRoot869"
     style="font-style:normal;font-weight:normal;font-size:14.15667915px;line-height:0.01%;font-family:sans-serif;text-align:center;letter-spacing:0px;word-spacing:0px;text-anchor:middle;fill:#666666;fill-opacity:1;stroke:none;stroke-width:1px;stroke-linecap:butt;stroke-linejoin:miter;stroke-opacity:1"
     transform="matrix(4.9446623,0,0,4.9446623,315.54368,296.4848)"
     aria-label="Perpetually Modern">
    <path
       inkscape:connector-curvature="0"
       id="path18"
       style="font-style:italic;font-variant:normal;font-weight:500;font-stretch:normal;font-size:14.15667915px;line-height:1.25;font-family:'Renner*';-inkscape-font-specification:'Renner* Medium Italic';text-align:center;text-anchor:middle;fill:#666666"
       d="M 30.024601,42.506766 30.590869,39.2932 h 1.316571 c 0.580424,0 1.019281,0.141567 1.316571,0.4247 0.29729,0.283134 0.396387,0.679521 0.311447,1.189161 -0.0991,0.523797 -0.339761,0.920184 -0.736148,1.189161 -0.396387,0.283134 -0.877714,0.410544 -1.458137,0.410544 z m -0.25482,1.472295 h 1.316571 c 1.075908,0 1.981935,-0.268977 2.718083,-0.821088 0.736147,-0.55211 1.203317,-1.302414 1.373198,-2.250912 0.16988,-0.934341 -0.02831,-1.684645 -0.566268,-2.250912 -0.55211,-0.55211 -1.373197,-0.835244 -2.449105,-0.835244 h -2.987059 l -1.741272,9.909676 h 1.670488 z" />
    <path
       inkscape:connector-curvature="0"
       id="path20"
       style="font-style:italic;font-variant:normal;font-weight:500;font-stretch:normal;font-size:14.15667915px;line-height:1.25;font-family:'Renner*';-inkscape-font-specification:'Renner* Medium Italic';text-align:center;text-anchor:middle;fill:#666666"
       d="m 40.285761,43.76671 h -3.41176 c 0.141567,-0.46717 0.396387,-0.835244 0.778617,-1.118377 0.368074,-0.268977 0.792774,-0.410544 1.274101,-0.410544 0.467171,0 0.821088,0.141567 1.047595,0.410544 0.226507,0.268977 0.325603,0.63705 0.311447,1.118377 z m -3.609954,1.061751 h 5.039778 c 0.05663,-0.198193 0.08494,-0.33976 0.0991,-0.4247 0.16988,-1.019281 0.02831,-1.840368 -0.438857,-2.434949 -0.481327,-0.59458 -1.217475,-0.891871 -2.222599,-0.891871 -1.047594,0 -1.925308,0.311447 -2.647299,0.934341 -0.72199,0.622894 -1.175004,1.443981 -1.344884,2.463262 -0.184037,0.990968 -0.02831,1.812055 0.481327,2.449106 0.495484,0.63705 1.245788,0.948497 2.236755,0.948497 1.458138,0 2.647299,-0.580423 3.58164,-1.755428 l -1.231631,-0.537954 c -0.537954,0.693678 -1.231631,1.033438 -2.052719,1.033438 -0.50964,0 -0.906027,-0.141567 -1.175004,-0.453014 -0.268977,-0.29729 -0.38223,-0.736147 -0.325604,-1.330728 z" />
    <path
       inkscape:connector-curvature="0"
       id="path22"
       style="font-style:italic;font-variant:normal;font-weight:500;font-stretch:normal;font-size:14.15667915px;line-height:1.25;font-family:'Renner*';-inkscape-font-specification:'Renner* Medium Italic';text-align:center;text-anchor:middle;fill:#666666"
       d="m 46.997574,42.860683 0.976811,-1.302415 c -0.226507,-0.311446 -0.608737,-0.481327 -1.118378,-0.481327 -0.59458,0 -1.146691,0.311447 -1.656331,0.920185 l 0.141567,-0.778618 h -1.514765 l -1.146691,6.512073 h 1.514765 l 0.651207,-3.66658 c 0.184037,-1.033438 0.637051,-1.557235 1.344885,-1.557235 0.283133,0 0.55211,0.12741 0.80693,0.353917 z" />
    <path
       inkscape:connector-curvature="0"
       id="path24"
       style="font-style:italic;font-variant:normal;font-weight:500;font-stretch:normal;font-size:14.15667915px;line-height:1.25;font-family:'Renner*';-inkscape-font-specification:'Renner* Medium Italic';text-align:center;text-anchor:middle;fill:#666666"
       d="m 55.366162,44.474544 c 0.184037,-1.047594 0.02831,-1.868681 -0.481327,-2.491575 -0.50964,-0.622894 -1.217474,-0.934341 -2.095188,-0.934341 -1.005125,0 -1.826212,0.4247 -2.449106,1.259944 l 0.198194,-1.090064 h -1.543078 l -1.698802,9.626542 h 1.543078 l 0.750304,-4.21869 c 0.33976,0.8494 1.005124,1.274101 1.996092,1.274101 0.877714,0 1.684645,-0.297291 2.406635,-0.920184 0.721991,-0.622894 1.175005,-1.458138 1.373198,-2.505733 z m -1.585548,0 c -0.113253,0.622894 -0.396387,1.118378 -0.835244,1.486452 -0.453014,0.368073 -0.948497,0.55211 -1.500608,0.55211 -0.481327,0 -0.877714,-0.184037 -1.189161,-0.55211 -0.311447,-0.368074 -0.396387,-0.863558 -0.283133,-1.486452 0.113253,-0.622894 0.38223,-1.118377 0.821087,-1.486451 0.4247,-0.368074 0.891871,-0.55211 1.373198,-0.55211 0.55211,0 0.990967,0.184036 1.302414,0.55211 0.311447,0.368074 0.424701,0.863557 0.311447,1.486451 z" />
    <path
       inkscape:connector-curvature="0"
       id="path26"
       style="font-style:italic;font-variant:normal;font-weight:500;font-stretch:normal;font-size:14.15667915px;line-height:1.25;font-family:'Renner*';-inkscape-font-specification:'Renner* Medium Italic';text-align:center;text-anchor:middle;fill:#666666"
       d="m 61.437831,43.76671 h -3.41176 c 0.141567,-0.46717 0.396387,-0.835244 0.778617,-1.118377 0.368074,-0.268977 0.792774,-0.410544 1.274101,-0.410544 0.467171,0 0.821088,0.141567 1.047595,0.410544 0.226507,0.268977 0.325603,0.63705 0.311447,1.118377 z m -3.609954,1.061751 h 5.039778 c 0.05663,-0.198193 0.08494,-0.33976 0.0991,-0.4247 0.16988,-1.019281 0.02831,-1.840368 -0.438857,-2.434949 -0.481327,-0.59458 -1.217474,-0.891871 -2.222599,-0.891871 -1.047594,0 -1.925308,0.311447 -2.647299,0.934341 -0.72199,0.622894 -1.175004,1.443981 -1.344884,2.463262 -0.184037,0.990968 -0.02831,1.812055 0.481327,2.449106 0.495484,0.63705 1.245788,0.948497 2.236755,0.948497 1.458138,0 2.647299,-0.580423 3.58164,-1.755428 l -1.231631,-0.537954 c -0.537954,0.693678 -1.231631,1.033438 -2.052719,1.033438 -0.50964,0 -0.906027,-0.141567 -1.175004,-0.453014 -0.268977,-0.29729 -0.38223,-0.736147 -0.325604,-1.330728 z" />
    <path
       inkscape:connector-curvature="0"
       id="path28"
       style="font-style:italic;font-variant:normal;font-weight:500;font-stretch:normal;font-size:14.15667915px;line-height:1.25;font-family:'Renner*';-inkscape-font-specification:'Renner* Medium Italic';text-align:center;text-anchor:middle;fill:#666666"
       d="m 65.558971,38.953439 -0.396387,2.265069 H 64.07252 l -0.240664,1.344885 h 1.090064 l -0.906027,5.167188 h 1.514765 l 0.906027,-5.167188 h 1.090064 l 0.240664,-1.344885 h -1.090064 l 0.396387,-2.265069 z" />
    <path
       inkscape:connector-curvature="0"
       id="path30"
       style="font-style:italic;font-variant:normal;font-weight:500;font-stretch:normal;font-size:14.15667915px;line-height:1.25;font-family:'Renner*';-inkscape-font-specification:'Renner* Medium Italic';text-align:center;text-anchor:middle;fill:#666666"
       d="m 69.69958,45.182378 0.693678,-3.96387 h -1.571392 l -0.721991,4.13375 c -0.141566,0.821088 -0.05663,1.458138 0.254821,1.882839 0.311447,0.4247 0.821087,0.63705 1.557234,0.63705 0.891871,0 1.613862,-0.38223 2.180129,-1.160847 l -0.184037,1.019281 h 1.528922 l 1.146691,-6.512073 h -1.528922 l -0.72199,4.09128 c -0.113254,0.396387 -0.311447,0.721991 -0.608738,0.962655 -0.311447,0.25482 -0.665364,0.368073 -1.061751,0.368073 -0.821087,0 -1.132534,-0.481327 -0.962654,-1.458138 z" />
    <path
       inkscape:connector-curvature="0"
       id="path32"
       style="font-style:italic;font-variant:normal;font-weight:500;font-stretch:normal;font-size:14.15667915px;line-height:1.25;font-family:'Renner*';-inkscape-font-specification:'Renner* Medium Italic';text-align:center;text-anchor:middle;fill:#666666"
       d="m 75.474398,44.474544 c -0.198193,1.047595 -0.04247,1.882839 0.467171,2.491576 0.50964,0.608737 1.203317,0.906027 2.095188,0.906027 1.019281,0 1.868682,-0.438857 2.519889,-1.330727 l -0.21235,1.189161 h 1.486451 l 1.146691,-6.512073 h -1.486451 l -0.21235,1.189161 c -0.325604,-0.877714 -1.005125,-1.330728 -2.038562,-1.330728 -0.891871,0 -1.698802,0.311447 -2.420792,0.920185 -0.721991,0.608737 -1.175005,1.429824 -1.344885,2.477418 z m 1.585548,0 c 0.113254,-0.622894 0.382231,-1.118377 0.821088,-1.486451 0.4247,-0.368074 0.920184,-0.55211 1.486451,-0.55211 0.481327,0 0.877714,0.184036 1.189161,0.55211 0.311447,0.368074 0.4247,0.863557 0.311447,1.486451 -0.113253,0.622894 -0.396387,1.118378 -0.835244,1.486452 -0.453014,0.368073 -0.906028,0.55211 -1.387355,0.55211 -0.566267,0 -0.990967,-0.16988 -1.302414,-0.537954 -0.311447,-0.368073 -0.396387,-0.863557 -0.283134,-1.500608 z" />
    <path
       inkscape:connector-curvature="0"
       id="path34"
       style="font-style:italic;font-variant:normal;font-weight:500;font-stretch:normal;font-size:14.15667915px;line-height:1.25;font-family:'Renner*';-inkscape-font-specification:'Renner* Medium Italic';text-align:center;text-anchor:middle;fill:#666666"
       d="m 85.665658,36.688371 -1.953621,11.04221 h 1.543078 l 1.953621,-11.04221 z" />
    <path
       inkscape:connector-curvature="0"
       id="path36"
       style="font-style:italic;font-variant:normal;font-weight:500;font-stretch:normal;font-size:14.15667915px;line-height:1.25;font-family:'Renner*';-inkscape-font-specification:'Renner* Medium Italic';text-align:center;text-anchor:middle;fill:#666666"
       d="m 89.14953,36.688371 -1.953622,11.04221 h 1.543078 l 1.953622,-11.04221 z" />
    <path
       inkscape:connector-curvature="0"
       id="path38"
       style="font-style:italic;font-variant:normal;font-weight:500;font-stretch:normal;font-size:14.15667915px;line-height:1.25;font-family:'Renner*';-inkscape-font-specification:'Renner* Medium Italic';text-align:center;text-anchor:middle;fill:#666666"
       d="m 97.588239,41.218508 h -1.642175 l -2.434949,4.218691 -0.962654,-4.218691 h -1.755428 l 1.628018,5.747612 -2.406635,3.87893 h 1.628018 z" />
    <path
       inkscape:connector-curvature="0"
       id="path40"
       style="font-style:italic;font-variant:normal;font-weight:500;font-stretch:normal;font-size:14.15667915px;line-height:1.25;font-family:'Renner*';-inkscape-font-specification:'Renner* Medium Italic';text-align:center;text-anchor:middle;fill:#666666"
       d="m 104.65861,41.713992 2.10935,5.096404 3.9214,-5.096404 -0.38223,6.016589 h 1.74127 l 0.48133,-10.40516 -5.26629,6.724423 -2.87381,-6.724423 -3.1994,10.40516 h 1.72711 z" />
    <path
       inkscape:connector-curvature="0"
       id="path42"
       style="font-style:italic;font-variant:normal;font-weight:500;font-stretch:normal;font-size:14.15667915px;line-height:1.25;font-family:'Renner*';-inkscape-font-specification:'Renner* Medium Italic';text-align:center;text-anchor:middle;fill:#666666"
       d="m 113.63108,44.474544 c -0.18404,1.005125 0,1.826212 0.55211,2.449106 0.55211,0.63705 1.33072,0.948497 2.35,0.948497 1.00513,0 1.897,-0.311447 2.67562,-0.948497 0.77861,-0.637051 1.25994,-1.458138 1.44398,-2.449106 0.16988,-0.990967 -0.0142,-1.812055 -0.56627,-2.449105 -0.56627,-0.622894 -1.34488,-0.948498 -2.35001,-0.948498 -1.01928,0 -1.91115,0.325604 -2.67561,0.948498 -0.77862,0.63705 -1.25994,1.458138 -1.42982,2.449105 z m 1.57139,0 c 0.0991,-0.59458 0.36807,-1.090064 0.80693,-1.472294 0.4247,-0.382231 0.92018,-0.580424 1.48645,-0.580424 0.55211,0 0.97681,0.198193 1.28826,0.580424 0.29729,0.38223 0.39638,0.877714 0.29729,1.472294 -0.11326,0.608738 -0.38223,1.104221 -0.82109,1.486452 -0.43886,0.38223 -0.93434,0.566267 -1.48645,0.566267 -0.56627,0 -0.99097,-0.184037 -1.28826,-0.566267 -0.29729,-0.382231 -0.39639,-0.877714 -0.28313,-1.486452 z" />
    <path
       inkscape:connector-curvature="0"
       id="path44"
       style="font-style:italic;font-variant:normal;font-weight:500;font-stretch:normal;font-size:14.15667915px;line-height:1.25;font-family:'Renner*';-inkscape-font-specification:'Renner* Medium Italic';text-align:center;text-anchor:middle;fill:#666666"
       d="m 121.5942,44.474544 c -0.19819,1.047595 -0.0425,1.868682 0.46717,2.477419 0.50964,0.622894 1.20332,0.920184 2.09519,0.920184 0.96266,0 1.76959,-0.396387 2.43495,-1.217474 l -0.18404,1.075908 h 1.54308 l 1.95362,-11.04221 h -1.54307 l -0.99097,5.606045 c -0.36808,-0.806931 -1.0476,-1.217475 -2.01025,-1.217475 -0.89187,0 -1.6988,0.311447 -2.40664,0.920185 -0.72199,0.622893 -1.175,1.443981 -1.35904,2.477418 z m 1.58555,0 c 0.11325,-0.622894 0.38223,-1.132534 0.82109,-1.500608 0.43886,-0.368073 0.93434,-0.566267 1.48645,-0.566267 0.45301,0 0.83524,0.184037 1.14669,0.523797 0.31145,0.339761 0.43886,0.806931 0.38223,1.387355 l -0.0566,0.29729 c -0.14156,0.594581 -0.43885,1.061751 -0.86355,1.401511 -0.4247,0.353917 -0.87772,0.523798 -1.33073,0.523798 -0.55211,0 -0.97681,-0.184037 -1.28826,-0.552111 -0.31145,-0.368074 -0.41054,-0.877714 -0.29729,-1.514765 z" />
    <path
       inkscape:connector-curvature="0"
       id="path46"
       style="font-style:italic;font-variant:normal;font-weight:500;font-stretch:normal;font-size:14.15667915px;line-height:1.25;font-family:'Renner*';-inkscape-font-specification:'Renner* Medium Italic';text-align:center;text-anchor:middle;fill:#666666"
       d="m 135.0415,43.76671 h -3.41176 c 0.14157,-0.46717 0.39639,-0.835244 0.77862,-1.118377 0.36807,-0.268977 0.79277,-0.410544 1.2741,-0.410544 0.46717,0 0.82109,0.141567 1.04759,0.410544 0.22651,0.268977 0.32561,0.63705 0.31145,1.118377 z m -3.60995,1.061751 h 5.03977 c 0.0566,-0.198193 0.0849,-0.33976 0.0991,-0.4247 0.16988,-1.019281 0.0283,-1.840368 -0.43886,-2.434949 -0.48132,-0.59458 -1.21747,-0.891871 -2.2226,-0.891871 -1.04759,0 -1.9253,0.311447 -2.64729,0.934341 -0.722,0.622894 -1.17501,1.443981 -1.34489,2.463262 -0.18404,0.990968 -0.0283,1.812055 0.48133,2.449106 0.49548,0.63705 1.24579,0.948497 2.23675,0.948497 1.45814,0 2.6473,-0.580423 3.58164,-1.755428 l -1.23163,-0.537954 c -0.53795,0.693678 -1.23163,1.033438 -2.05272,1.033438 -0.50964,0 -0.90602,-0.141567 -1.175,-0.453014 -0.26898,-0.29729 -0.38223,-0.736147 -0.3256,-1.330728 z" />
    <path
       inkscape:connector-curvature="0"
       id="path48"
       style="font-style:italic;font-variant:normal;font-weight:500;font-stretch:normal;font-size:14.15667915px;line-height:1.25;font-family:'Renner*';-inkscape-font-specification:'Renner* Medium Italic';text-align:center;text-anchor:middle;fill:#666666"
       d="m 141.75332,42.860683 0.97681,-1.302415 c -0.22651,-0.311446 -0.60874,-0.481327 -1.11838,-0.481327 -0.59458,0 -1.14669,0.311447 -1.65633,0.920185 l 0.14157,-0.778618 h -1.51477 l -1.14669,6.512073 h 1.51477 l 0.6512,-3.66658 c 0.18404,-1.033438 0.63705,-1.557235 1.34489,-1.557235 0.28313,0 0.55211,0.12741 0.80693,0.353917 z" />
    <path
       inkscape:connector-curvature="0"
       id="path50"
       style="font-style:italic;font-variant:normal;font-weight:500;font-stretch:normal;font-size:14.15667915px;line-height:1.25;font-family:'Renner*';-inkscape-font-specification:'Renner* Medium Italic';text-align:center;text-anchor:middle;fill:#666666"
       d="m 147.54539,43.76671 -0.69368,3.963871 h 1.57139 l 0.72199,-4.133751 c 0.14157,-0.821087 0.0566,-1.443981 -0.25482,-1.868681 -0.31145,-0.424701 -0.83524,-0.651208 -1.55723,-0.651208 -0.89188,0 -1.61387,0.396387 -2.16598,1.160848 l 0.18404,-1.019281 h -1.54308 l -1.14669,6.512073 h 1.54308 l 0.72199,-4.077124 c 0.0991,-0.396387 0.29729,-0.707834 0.60874,-0.962654 0.31144,-0.25482 0.66536,-0.382231 1.07591,-0.382231 0.79277,0 1.10422,0.495484 0.93434,1.458138 z" />
  </g>
</svg>
