<?xml version="1.0" encoding="UTF-8" standalone="no"?>
<!-- Created with Inkscape (http://www.inkscape.org/) -->

<svg
   xmlns:dc="http://purl.org/dc/elements/1.1/"
   xmlns:cc="http://creativecommons.org/ns#"
   xmlns:rdf="http://www.w3.org/1999/02/22-rdf-syntax-ns#"
   xmlns:svg="http://www.w3.org/2000/svg"
   xmlns="http://www.w3.org/2000/svg"
   xmlns:sodipodi="http://sodipodi.sourceforge.net/DTD/sodipodi-0.dtd"
   xmlns:inkscape="http://www.inkscape.org/namespaces/inkscape"
   version="1.1"
   id="svg2"
   width="1600"
   height="640"
   viewBox="0 0 1600 640"
   sodipodi:docname="Tears-h.svg"
   inkscape:version="0.92.3 (2405546, 2018-03-11)">
  <metadata
     id="metadata8">
    <rdf:RDF>
      <cc:Work
         rdf:about="">
        <dc:format>image/svg+xml</dc:format>
        <dc:type
           rdf:resource="http://purl.org/dc/dcmitype/StillImage" />
        <dc:title />
      </cc:Work>
    </rdf:RDF>
  </metadata>
  <defs
     id="defs6" />
  <sodipodi:namedview
     pagecolor="#ffffff"
     bordercolor="#666666"
     borderopacity="1"
     objecttolerance="10"
     gridtolerance="10"
     guidetolerance="10"
     inkscape:pageopacity="0"
     inkscape:pageshadow="2"
     inkscape:window-width="1920"
     inkscape:window-height="1052"
     id="namedview4"
     showgrid="false"
     inkscape:zoom="4.0022244"
     inkscape:cx="365.97213"
     inkscape:cy="458.56985"
     inkscape:window-x="0"
     inkscape:window-y="0"
     inkscape:window-maximized="1"
     inkscape:current-layer="svg2" />
  <g
     aria-label="No Tears"
     transform="matrix(8.2011838,0,0,8.2011838,-487.99037,-122.76105)"
     style="font-style:normal;font-variant:normal;font-weight:normal;font-stretch:normal;font-size:40px;line-height:1.25;font-family:'No Tears';-inkscape-font-specification:'No Tears';letter-spacing:0px;word-spacing:0px;fill:#1a1a1a;fill-opacity:1;stroke:#e8e8e8;stroke-opacity:1;stroke-width:0.24386723;stroke-miterlimit:4;stroke-dasharray:none;stroke-linejoin:bevel;stroke-linecap:round;paint-order:stroke fill markers"
     id="flowRoot817">
    <path
       d="m 95.658984,61.958203 q 0,0.24 -0.2,0.4 -0.16,0.2 -0.4,0.2 -0.24,0 -0.44,-0.2 -0.16,-0.16 -0.16,-0.4 v -27.2 q 0,-0.44 0.44,-0.56 0.44,-0.16 0.68,0.24 l 14.439996,24.96 v -25.04 q 0,-0.24 0.16,-0.4 0.2,-0.2 0.44,-0.2 0.24,0 0.4,0.2 0.2,0.16 0.2,0.4 v 27.2 q 0,0.44 -0.48,0.6 -0.44,0.12 -0.68,-0.28 l -14.399996,-24.92 z"
       style="stroke:#e8e8e8;stroke-opacity:1;stroke-width:0.24386723;stroke-miterlimit:4;stroke-dasharray:none;stroke-linejoin:bevel;stroke-linecap:round;paint-order:stroke fill markers"
       id="path822" />
    <path
       d="m 119.86461,50.398203 q -1.64,1.76 -1.64,4.56 0,2.8 1.64,4.56 1.64,1.76 4.24,1.76 2.6,0 4.24,-1.76 1.64,-1.76 1.64,-4.56 0,-2.8 -1.64,-4.56 -1.64,-1.76 -4.24,-1.76 -2.6,0 -4.24,1.76 z m -0.88,10 q -1.96,-2.12 -1.96,-5.44 0,-3.32 1.96,-5.4 1.96,-2.12 5.12,-2.12 3.16,0 5.12,2.12 1.96,2.08 1.96,5.4 0,3.32 -1.96,5.44 -1.96,2.08 -5.12,2.08 -3.16,0 -5.12,-2.08 z"
       style="stroke:#e8e8e8;stroke-opacity:1;stroke-width:0.24386723;stroke-miterlimit:4;stroke-dasharray:none;stroke-linejoin:bevel;stroke-linecap:round;paint-order:stroke fill markers"
       id="path824" />
    <path
       d="m 156.19023,61.958203 q 0,0.24 -0.2,0.4 -0.16,0.2 -0.4,0.2 -0.24,0 -0.44,-0.2 -0.16,-0.16 -0.16,-0.4 v -26.6 h -6.6 q -0.24,0 -0.44,-0.16 -0.16,-0.2 -0.16,-0.44 0,-0.24 0.16,-0.4 0.2,-0.2 0.44,-0.2 h 14.4 q 0.24,0 0.4,0.2 0.2,0.16 0.2,0.4 0,0.24 -0.2,0.44 -0.16,0.16 -0.4,0.16 h -6.6 z"
       style="stroke:#e8e8e8;stroke-opacity:1;stroke-width:0.24386723;stroke-miterlimit:4;stroke-dasharray:none;stroke-linejoin:bevel;stroke-linecap:round;paint-order:stroke fill markers"
       id="path826" />
    <path
       d="m 175.93773,54.038203 q -0.04,-2.2 -1.64,-3.8 -1.6,-1.6 -3.48,-1.6 -2.12,0 -3.8,1.6 -1.68,1.6 -1.72,3.8 z m -10.72,1.2 q 0.08,2.8 1.56,4.4 1.52,1.6 4.12,1.6 1.04,0 1.96,-0.52 0.96,-0.52 1.48,-1.12 0.56,-0.64 1.04,-1.04 0.48,-0.4 0.76,-0.24 1,0.6 -0.76,2.12 -1.92,1.64 -3.96,2 -0.32,0.04 -0.6,0.04 -3.08,0 -4.96,-2 -1.88,-2 -1.88,-5.52 0,-3.44 2,-5.48 2,-2.04 4.84,-2.04 2.4,0 4.4,2 2,2 2,4.76 0,1.08 -1.16,1.08 -1.8,0 -6.2,0 -4.36,-0.04 -4.64,-0.04 z"
       style="stroke:#e8e8e8;stroke-opacity:1;stroke-width:0.24386723;stroke-miterlimit:4;stroke-dasharray:none;stroke-linejoin:bevel;stroke-linecap:round;paint-order:stroke fill markers"
       id="path828" />
    <path
       d="m 181.89273,54.958203 q 0,3.08 1.44,4.72 1.48,1.6 3.84,1.6 1.28,0 2.48,-0.76 1.2,-0.76 1.68,-1.36 0.52,-0.6 1.32,-1.68 v -8.08 q -0.28,-0.04 -0.64,-0.2 -1.24,-0.56 -3.24,-0.56 -3,0 -4.96,1.64 -1.92,1.64 -1.92,4.68 z m 11.96,7 q 0,0.24 -0.2,0.4 -0.16,0.2 -0.4,0.2 -0.24,0 -0.44,-0.2 -0.16,-0.16 -0.16,-0.4 v -2.8 q -2.4,3.32 -5.48,3.32 -2.76,0 -4.64,-1.92 -1.88,-1.92 -1.88,-5.6 0,-3.64 2.36,-5.56 2.36,-1.96 5.76,-1.96 2.32,0 3.8,0.64 0.56,0.24 0.8,0.48 0.48,0.12 0.48,0.6 z"
       style="stroke:#e8e8e8;stroke-opacity:1;stroke-width:0.24386723;stroke-miterlimit:4;stroke-dasharray:none;stroke-linejoin:bevel;stroke-linecap:round;paint-order:stroke fill markers"
       id="path830" />
    <path
       d="m 207.79086,49.758203 q -1,-0.6 -2.32,-0.6 -1.72,0 -3,2.04 -1.24,2.04 -1.24,4.16 v 6.6 q 0,0.24 -0.2,0.4 -0.16,0.2 -0.4,0.2 -0.24,0 -0.44,-0.2 -0.16,-0.16 -0.16,-0.4 v -13.64 q 0,-0.24 0.16,-0.4 0.2,-0.2 0.44,-0.2 0.24,0 0.4,0.2 0.2,0.16 0.2,0.4 v 3.8 q 0.48,-2 1.68,-3.12 1.2,-1.16 3,-1.16 1.32,0 2.48,0.72 1.12,0.68 0.64,1.28 -0.36,0.48 -1.24,-0.08 z"
       style="stroke:#e8e8e8;stroke-opacity:1;stroke-width:0.24386723;stroke-miterlimit:4;stroke-dasharray:none;stroke-linejoin:bevel;stroke-linecap:round;paint-order:stroke fill markers"
       id="path832" />
    <path
       d="m 212.55586,60.438203 q 2,0.96 3.8,0.96 1.84,0 2.64,-0.88 0.84,-0.92 0.84,-1.88 0,-1.4 -0.76,-2.16 -0.76,-0.8 -2.72,-1.16 -2.4,-0.44 -3.52,-1.32 -1.08,-0.92 -1.08,-2.8 0,-1.48 1.28,-2.6 1.28,-1.16 3.32,-1.16 1.96,0 3.6,0.88 1.16,0.6 0.76,1.12 -0.44,0.56 -1.16,0.12 -1.52,-0.88 -3.16,-0.88 -1.68,0 -2.48,0.84 -0.8,0.8 -0.8,1.64 0,1.36 0.92,2.08 0.92,0.68 2.88,0.96 4.24,0.56 4.24,4.32 0,1.6 -1.28,2.88 -1.24,1.24 -3.48,1.24 -2.16,0 -4.48,-1.12 -0.92,-0.4 -0.4,-1.04 0.28,-0.36 1.04,-0.04 z"
       style="stroke:#e8e8e8;stroke-opacity:1;stroke-width:0.24386723;stroke-miterlimit:4;stroke-dasharray:none;stroke-linejoin:bevel;stroke-linecap:round;paint-order:stroke fill markers"
       id="path834" />
  </g>
  <g
     aria-label="it's like Comic Sans but with a justification"
     transform="matrix(2.1315506,0,0,2.1315506,-74.262809,398.97382)"
     style="font-style:normal;font-variant:normal;font-weight:normal;font-stretch:normal;font-size:40px;line-height:1.25;font-family:'No Tears';-inkscape-font-specification:'No Tears';letter-spacing:0px;word-spacing:0px;fill:#1a1a1a;fill-opacity:1;stroke:#1a1a1a;stroke-width:1.40742612;stroke-miterlimit:4;stroke-dasharray:none;stroke-opacity:1"
     id="flowRoot831">
    <path
       d="m 95.578984,61.958203 q 0,0.24 -0.2,0.4 -0.16,0.2 -0.4,0.2 -0.24,0 -0.44,-0.2 -0.16,-0.16 -0.16,-0.4 v -13.64 q 0,-0.24 0.16,-0.4 0.2,-0.2 0.44,-0.2 0.24,0 0.4,0.2 0.2,0.16 0.2,0.4 z m -1.44,-21.2 q -0.28,-0.32 -0.28,-0.8 0,-0.48 0.28,-0.8 0.32,-0.32 0.84,-0.32 0.52,0 0.8,0.32 0.32,0.32 0.32,0.8 0,0.48 -0.32,0.8 -0.28,0.32 -0.8,0.32 -0.52,0 -0.84,-0.32 z"
       style=""
       id="path837" />
    <path
       d="m 105.08148,61.958203 q 0,0.24 -0.2,0.4 -0.16,0.2 -0.4,0.2 -0.24,0 -0.44,-0.2 -0.16,-0.16 -0.16,-0.4 v -13.2 h -3.16 q -0.24,0 -0.44,-0.16 -0.16,-0.2 -0.16,-0.44 0,-0.24 0.16,-0.4 0.2,-0.2 0.44,-0.2 h 3.16 v -13.2 q 0,-0.24 0.16,-0.4 0.2,-0.2 0.44,-0.2 0.24,0 0.4,0.2 0.2,0.16 0.2,0.4 v 13.2 h 3.24 q 0.24,0 0.4,0.2 0.2,0.16 0.2,0.4 0,0.24 -0.2,0.44 -0.16,0.16 -0.4,0.16 h -3.24 z"
       style=""
       id="path839" />
    <path
       d="m 114.84148,34.238203 q 0,-0.32 0.32,-0.44 0.32,-0.12 0.56,0 0.4,0.16 0.32,0.84 -0.36,3.04 -1.2,4.88 -0.84,1.84 -2.72,3.84 -0.2,0.2 -0.56,-0.04 -0.24,-0.24 0,-0.56 1.6,-2.04 2.36,-3.96 0.8,-1.92 0.92,-4.56 z"
       style=""
       id="path841" />
    <path
       d="m 121.46211,60.438203 q 2,0.96 3.8,0.96 1.84,0 2.64,-0.88 0.84,-0.92 0.84,-1.88 0,-1.4 -0.76,-2.16 -0.76,-0.8 -2.72,-1.16 -2.4,-0.44 -3.52,-1.32 -1.08,-0.92 -1.08,-2.8 0,-1.48 1.28,-2.6 1.28,-1.16 3.32,-1.16 1.96,0 3.6,0.88 1.16,0.6 0.76,1.12 -0.44,0.56 -1.16,0.12 -1.52,-0.88 -3.16,-0.88 -1.68,0 -2.48,0.84 -0.8,0.8 -0.8,1.64 0,1.36 0.92,2.08 0.92,0.68 2.88,0.96 4.24,0.56 4.24,4.32 0,1.6 -1.28,2.88 -1.24,1.24 -3.48,1.24 -2.16,0 -4.48,-1.12 -0.92,-0.4 -0.4,-1.04 0.28,-0.36 1.04,-0.04 z"
       style=""
       id="path843" />
    <path
       d="m 148.26211,61.958203 q 0,0.24 -0.2,0.4 -0.16,0.2 -0.4,0.2 -0.24,0 -0.44,-0.2 -0.16,-0.16 -0.16,-0.4 v -27.6 q 0,-0.24 0.16,-0.4 0.2,-0.2 0.44,-0.2 0.24,0 0.4,0.2 0.2,0.16 0.2,0.4 z"
       style=""
       id="path845" />
    <path
       d="m 156.75086,61.958203 q 0,0.24 -0.2,0.4 -0.16,0.2 -0.4,0.2 -0.24,0 -0.44,-0.2 -0.16,-0.16 -0.16,-0.4 v -13.64 q 0,-0.24 0.16,-0.4 0.2,-0.2 0.44,-0.2 0.24,0 0.4,0.2 0.2,0.16 0.2,0.4 z m -1.44,-21.2 q -0.28,-0.32 -0.28,-0.8 0,-0.48 0.28,-0.8 0.32,-0.32 0.84,-0.32 0.52,0 0.8,0.32 0.32,0.32 0.32,0.8 0,0.48 -0.32,0.8 -0.28,0.32 -0.8,0.32 -0.52,0 -0.84,-0.32 z"
       style=""
       id="path847" />
    <path
       d="m 165.09336,61.958203 q 0,0.24 -0.2,0.4 -0.16,0.2 -0.4,0.2 -0.24,0 -0.44,-0.2 -0.16,-0.16 -0.16,-0.4 v -27.6 q 0,-0.24 0.16,-0.4 0.2,-0.2 0.44,-0.2 0.24,0 0.4,0.2 0.2,0.16 0.2,0.4 v 19.88 l 5.92,-6.16 q 0.64,-0.64 1.12,-0.12 0.28,0.36 0,0.68 l -5.96,6.2 7.36,6.52 q 0.44,0.48 0,0.88 -0.52,0.44 -1.2,-0.32 l -7.24,-6.16 z"
       style=""
       id="path849" />
    <path
       d="m 187.89086,54.038203 q -0.04,-2.2 -1.64,-3.8 -1.6,-1.6 -3.48,-1.6 -2.12,0 -3.8,1.6 -1.68,1.6 -1.72,3.8 z m -10.72,1.2 q 0.08,2.8 1.56,4.4 1.52,1.6 4.12,1.6 1.04,0 1.96,-0.52 0.96,-0.52 1.48,-1.12 0.56,-0.64 1.04,-1.04 0.48,-0.4 0.76,-0.24 1,0.6 -0.76,2.12 -1.92,1.64 -3.96,2 -0.32,0.04 -0.6,0.04 -3.08,0 -4.96,-2 -1.88,-2 -1.88,-5.52 0,-3.44 2,-5.48 2,-2.04 4.84,-2.04 2.4,0 4.4,2 2,2 2,4.76 0,1.08 -1.16,1.08 -1.8,0 -6.2,0 -4.36,-0.04 -4.64,-0.04 z"
       style=""
       id="path851" />
    <path
       d="m 218.23711,34.158203 h 3.4 q 0.24,0 0.4,0.2 0.2,0.16 0.2,0.4 0,0.24 -0.2,0.44 -0.16,0.16 -0.4,0.16 h -3.4 q -5.4,0 -8.64,3.48 -3.24,3.48 -3.24,9.32 0,5.84 3.24,9.28 3.24,3.44 8.64,3.44 h 3.4 q 0.24,0 0.4,0.2 0.2,0.16 0.2,0.4 0,0.24 -0.2,0.44 -0.16,0.16 -0.4,0.16 h -3.4 q -5.84,0 -9.52,-3.84 -3.68,-3.84 -3.68,-10.08 0,-6.24 3.68,-10.12 3.68,-3.88 9.52,-3.88 z"
       style=""
       id="path853" />
    <path
       d="m 230.88023,50.398203 q -1.64,1.76 -1.64,4.56 0,2.8 1.64,4.56 1.64,1.76 4.24,1.76 2.6,0 4.24,-1.76 1.64,-1.76 1.64,-4.56 0,-2.8 -1.64,-4.56 -1.64,-1.76 -4.24,-1.76 -2.6,0 -4.24,1.76 z m -0.88,10 q -1.96,-2.12 -1.96,-5.44 0,-3.32 1.96,-5.4 1.96,-2.12 5.12,-2.12 3.16,0 5.12,2.12 1.96,2.08 1.96,5.4 0,3.32 -1.96,5.44 -1.96,2.08 -5.12,2.08 -3.16,0 -5.12,-2.08 z"
       style=""
       id="path855" />
    <path
       d="m 248.57461,61.958203 q 0,0.24 -0.2,0.4 -0.16,0.2 -0.4,0.2 -0.24,0 -0.44,-0.2 -0.16,-0.16 -0.16,-0.4 v -13.64 q 0,-0.24 0.16,-0.4 0.2,-0.2 0.44,-0.2 0.24,0 0.4,0.2 0.2,0.16 0.2,0.4 v 4 q 0.68,-2.12 2.32,-3.28 1.64,-1.2 4.16,-1.2 4.16,0 5.08,4.24 0.8,-1.96 2.52,-3.08 1.76,-1.16 4.2,-1.16 5.32,0 5.32,6.72 v 7.4 q 0,0.24 -0.2,0.4 -0.16,0.2 -0.4,0.2 -0.24,0 -0.44,-0.2 -0.16,-0.16 -0.16,-0.4 v -7 q 0,-5.92 -4.52,-5.92 -2.6,0 -4.36,1.96 -1.72,1.96 -1.72,4.36 v 6.6 q 0,0.24 -0.2,0.4 -0.16,0.2 -0.4,0.2 -0.24,0 -0.44,-0.2 -0.16,-0.16 -0.16,-0.4 v -7 q 0,-5.92 -4.52,-5.92 -2.6,0 -4.36,1.96 -1.72,1.96 -1.72,4.36 z"
       style=""
       id="path857" />
    <path
       d="m 280.65711,61.958203 q 0,0.24 -0.2,0.4 -0.16,0.2 -0.4,0.2 -0.24,0 -0.44,-0.2 -0.16,-0.16 -0.16,-0.4 v -13.64 q 0,-0.24 0.16,-0.4 0.2,-0.2 0.44,-0.2 0.24,0 0.4,0.2 0.2,0.16 0.2,0.4 z m -1.44,-21.2 q -0.28,-0.32 -0.28,-0.8 0,-0.48 0.28,-0.8 0.32,-0.32 0.84,-0.32 0.52,0 0.8,0.32 0.32,0.32 0.32,0.8 0,0.48 -0.32,0.8 -0.28,0.32 -0.8,0.32 -0.52,0 -0.84,-0.32 z"
       style=""
       id="path859" />
    <path
       d="m 289.11961,50.278203 q -1.68,1.64 -1.68,4.68 0,3.04 1.68,4.68 1.72,1.64 4.4,1.64 1.8,0 3.48,-0.6 0.4,-0.16 0.84,-0.12 0.48,0 0.48,0.32 0,0.52 -0.92,0.92 -1.48,0.68 -3.88,0.68 -3.08,0 -5.2,-1.92 -2.12,-1.96 -2.12,-5.6 0,-3.64 2.12,-5.56 2.12,-1.96 5.2,-1.96 2.32,0 3.8,0.64 1,0.48 1,0.92 0,0.4 -0.56,0.44 -0.52,0 -1,-0.24 -1.24,-0.56 -3.24,-0.56 -2.68,0 -4.4,1.64 z"
       style=""
       id="path861" />
    <path
       d="m 329.32461,55.678203 q 0,-0.64 -0.2,-1.24 -0.16,-0.6 -0.36,-1.04 -0.16,-0.48 -0.68,-1 -0.48,-0.56 -0.76,-0.84 -0.24,-0.28 -1,-0.84 -0.76,-0.56 -1.04,-0.72 -0.28,-0.16 -1.24,-0.76 -0.92,-0.6 -1.12,-0.72 -1.4,-0.88 -2.36,-1.56 -0.92,-0.68 -2.08,-1.76 -1.16,-1.12 -1.76,-2.36 -0.6,-1.28 -0.6,-2.68 0,-3.04 1.96,-4.68 1.96,-1.64 4.96,-1.64 0.76,0 1.44,0.08 0.68,0.08 1.16,0.16 0.52,0.08 1.04,0.32 0.56,0.2 0.84,0.32 0.28,0.12 0.76,0.44 0.52,0.32 0.64,0.44 0.16,0.12 0.64,0.52 0.48,0.36 0.56,0.44 0.24,0.16 0.24,0.48 0,0.52 -0.64,0.52 -0.28,0 -0.44,-0.12 -0.12,-0.08 -0.76,-0.52 -0.64,-0.48 -0.84,-0.6 -0.2,-0.12 -0.84,-0.44 -0.6,-0.36 -1.08,-0.44 -0.44,-0.12 -1.2,-0.24 -0.72,-0.12 -1.56,-0.12 -2.52,0 -4.04,1.24 -1.48,1.2 -1.48,3.68 0,0.6 0.08,1.16 0.12,0.52 0.4,1.04 0.32,0.52 0.48,0.92 0.2,0.36 0.76,0.88 0.56,0.52 0.76,0.76 0.24,0.24 0.96,0.8 0.76,0.52 0.96,0.68 0.2,0.12 1.08,0.72 0.88,0.56 1,0.64 0.16,0.12 1.08,0.76 0.96,0.6 1.2,0.8 0.28,0.16 1.08,0.76 0.8,0.6 1.08,0.96 0.32,0.32 0.88,0.96 0.56,0.6 0.76,1.12 0.2,0.52 0.4,1.2 0.2,0.68 0.2,1.4 0,2.76 -1.84,4.84 -1.84,2.08 -5.68,2.08 -2.16,0 -3.8,-0.52 -1.6,-0.56 -2.36,-1.12 -0.76,-0.6 -2.04,-1.8 -0.2,-0.2 -0.2,-0.44 0,-0.24 0.16,-0.44 0.2,-0.2 0.44,-0.2 0.28,0 0.44,0.16 1.08,1.08 1.8,1.64 0.76,0.56 2.24,1.04 1.48,0.48 3.44,0.48 3.16,0 4.6,-1.6 1.48,-1.64 1.48,-4 z"
       style=""
       id="path863" />
    <path
       d="m 335.48648,54.958203 q 0,3.08 1.44,4.72 1.48,1.6 3.84,1.6 1.28,0 2.48,-0.76 1.2,-0.76 1.68,-1.36 0.52,-0.6 1.32,-1.68 v -8.08 q -0.28,-0.04 -0.64,-0.2 -1.24,-0.56 -3.24,-0.56 -3,0 -4.96,1.64 -1.92,1.64 -1.92,4.68 z m 11.96,7 q 0,0.24 -0.2,0.4 -0.16,0.2 -0.4,0.2 -0.24,0 -0.44,-0.2 -0.16,-0.16 -0.16,-0.4 v -2.8 q -2.4,3.32 -5.48,3.32 -2.76,0 -4.64,-1.92 -1.88,-1.92 -1.88,-5.6 0,-3.64 2.36,-5.56 2.36,-1.96 5.76,-1.96 2.32,0 3.8,0.64 0.56,0.24 0.8,0.48 0.48,0.12 0.48,0.6 z"
       style=""
       id="path865" />
    <path
       d="m 354.82461,61.958203 q 0,0.24 -0.2,0.4 -0.16,0.2 -0.4,0.2 -0.24,0 -0.44,-0.2 -0.16,-0.16 -0.16,-0.4 v -13.64 q 0,-0.24 0.16,-0.4 0.2,-0.2 0.44,-0.2 0.24,0 0.4,0.2 0.2,0.16 0.2,0.4 v 4 q 0.68,-2.12 2.32,-3.28 1.64,-1.2 4.16,-1.2 5.32,0 5.32,6.72 v 7.4 q 0,0.24 -0.2,0.4 -0.16,0.2 -0.4,0.2 -0.24,0 -0.44,-0.2 -0.16,-0.16 -0.16,-0.4 v -7 q 0,-5.92 -4.52,-5.92 -2.6,0 -4.36,1.96 -1.72,1.96 -1.72,4.36 z"
       style=""
       id="path867" />
    <path
       d="m 372.79023,60.438203 q 2,0.96 3.8,0.96 1.84,0 2.64,-0.88 0.84,-0.92 0.84,-1.88 0,-1.4 -0.76,-2.16 -0.76,-0.8 -2.72,-1.16 -2.4,-0.44 -3.52,-1.32 -1.08,-0.92 -1.08,-2.8 0,-1.48 1.28,-2.6 1.28,-1.16 3.32,-1.16 1.96,0 3.6,0.88 1.16,0.6 0.76,1.12 -0.44,0.56 -1.16,0.12 -1.52,-0.88 -3.16,-0.88 -1.68,0 -2.48,0.84 -0.8,0.8 -0.8,1.64 0,1.36 0.92,2.08 0.92,0.68 2.88,0.96 4.24,0.56 4.24,4.32 0,1.6 -1.28,2.88 -1.24,1.24 -3.48,1.24 -2.16,0 -4.48,-1.12 -0.92,-0.4 -0.4,-1.04 0.28,-0.36 1.04,-0.04 z"
       style=""
       id="path869" />
    <path
       d="m 410.15023,55.238203 q 0,-3.08 -1.48,-4.68 -1.44,-1.64 -3.8,-1.64 -1.28,0 -2.48,0.76 -1.2,0.76 -1.72,1.36 -0.48,0.6 -1.28,1.68 v 8.08 q 0.28,0.04 0.64,0.2 1.24,0.56 3.24,0.56 3,0 4.92,-1.64 1.96,-1.64 1.96,-4.68 z m -11.96,-20.88 q 0,-0.24 0.16,-0.4 0.2,-0.2 0.44,-0.2 0.24,0 0.4,0.2 0.2,0.16 0.2,0.4 v 16.68 q 2.4,-3.32 5.48,-3.32 2.76,0 4.64,1.92 1.88,1.92 1.88,5.6 0,3.64 -2.36,5.6 -2.36,1.92 -5.76,1.92 -2.32,0 -3.8,-0.64 -0.56,-0.24 -0.8,-0.48 -0.48,-0.12 -0.48,-0.6 z"
       style=""
       id="path871" />
    <path
       d="m 428.39336,48.438203 q 0,-0.24 0.16,-0.4 0.2,-0.2 0.44,-0.2 0.24,0 0.4,0.2 0.2,0.16 0.2,0.4 v 13.64 q 0,0.24 -0.2,0.4 -0.16,0.2 -0.4,0.2 -0.24,0 -0.44,-0.2 -0.16,-0.16 -0.16,-0.4 v -4 q -0.68,2.12 -2.32,3.32 -1.64,1.16 -4.16,1.16 -5.32,0 -5.32,-6.72 v -7.4 q 0,-0.24 0.16,-0.4 0.2,-0.2 0.44,-0.2 0.24,0 0.4,0.2 0.2,0.16 0.2,0.4 v 7 q 0,5.92 4.52,5.92 2.6,0 4.32,-1.96 1.76,-1.96 1.76,-4.36 z"
       style=""
       id="path873" />
    <path
       d="m 438.51898,61.958203 q 0,0.24 -0.2,0.4 -0.16,0.2 -0.4,0.2 -0.24,0 -0.44,-0.2 -0.16,-0.16 -0.16,-0.4 v -13.2 h -3.16 q -0.24,0 -0.44,-0.16 -0.16,-0.2 -0.16,-0.44 0,-0.24 0.16,-0.4 0.2,-0.2 0.44,-0.2 h 3.16 v -13.2 q 0,-0.24 0.16,-0.4 0.2,-0.2 0.44,-0.2 0.24,0 0.4,0.2 0.2,0.16 0.2,0.4 v 13.2 h 3.24 q 0.24,0 0.4,0.2 0.2,0.16 0.2,0.4 0,0.24 -0.2,0.44 -0.16,0.16 -0.4,0.16 h -3.24 z"
       style=""
       id="path875" />
    <path
       d="m 455.63023,48.518203 q -0.04,-0.08 -0.04,-0.2 0,-0.24 0.16,-0.4 0.2,-0.2 0.44,-0.2 0.44,0 0.56,0.4 l 3.04,11.72 3.44,-11.72 q 0.12,-0.32 0.44,-0.4 h 0.12 0.12 q 0.32,0.08 0.44,0.4 l 3.48,11.72 3.04,-11.72 q 0.12,-0.4 0.56,-0.4 0.24,0 0.4,0.2 0.2,0.16 0.2,0.4 0,0.12 -0.04,0.2 l -3.56,13.56 q -0.16,0.48 -0.6,0.48 -0.44,0 -0.6,-0.48 l -3.44,-11.64 -3.4,11.64 q -0.16,0.48 -0.6,0.48 -0.44,0 -0.6,-0.48 z"
       style=""
       id="path877" />
    <path
       d="m 477.76648,61.958203 q 0,0.24 -0.2,0.4 -0.16,0.2 -0.4,0.2 -0.24,0 -0.44,-0.2 -0.16,-0.16 -0.16,-0.4 v -13.64 q 0,-0.24 0.16,-0.4 0.2,-0.2 0.44,-0.2 0.24,0 0.4,0.2 0.2,0.16 0.2,0.4 z m -1.44,-21.2 q -0.28,-0.32 -0.28,-0.8 0,-0.48 0.28,-0.8 0.32,-0.32 0.84,-0.32 0.52,0 0.8,0.32 0.32,0.32 0.32,0.8 0,0.48 -0.32,0.8 -0.28,0.32 -0.8,0.32 -0.52,0 -0.84,-0.32 z"
       style=""
       id="path879" />
    <path
       d="m 487.26898,61.958203 q 0,0.24 -0.2,0.4 -0.16,0.2 -0.4,0.2 -0.24,0 -0.44,-0.2 -0.16,-0.16 -0.16,-0.4 v -13.2 h -3.16 q -0.24,0 -0.44,-0.16 -0.16,-0.2 -0.16,-0.44 0,-0.24 0.16,-0.4 0.2,-0.2 0.44,-0.2 h 3.16 v -13.2 q 0,-0.24 0.16,-0.4 0.2,-0.2 0.44,-0.2 0.24,0 0.4,0.2 0.2,0.16 0.2,0.4 v 13.2 h 3.24 q 0.24,0 0.4,0.2 0.2,0.16 0.2,0.4 0,0.24 -0.2,0.44 -0.16,0.16 -0.4,0.16 h -3.24 z"
       style=""
       id="path881" />
    <path
       d="m 496.30898,61.958203 q 0,0.24 -0.2,0.4 -0.16,0.2 -0.4,0.2 -0.24,0 -0.44,-0.2 -0.16,-0.16 -0.16,-0.4 v -27.64 q 0,-0.24 0.16,-0.4 0.2,-0.2 0.44,-0.2 0.24,0 0.4,0.2 0.2,0.16 0.2,0.4 v 18 q 0.68,-2.12 2.32,-3.28 1.64,-1.2 4.16,-1.2 5.32,0 5.32,6.72 v 7.4 q 0,0.24 -0.2,0.4 -0.16,0.2 -0.4,0.2 -0.24,0 -0.44,-0.2 -0.16,-0.16 -0.16,-0.4 v -7 q 0,-5.92 -4.52,-5.92 -2.6,0 -4.36,1.96 -1.72,1.96 -1.72,4.36 z"
       style=""
       id="path883" />
    <path
       d="m 526.34586,54.958203 q 0,3.08 1.44,4.72 1.48,1.6 3.84,1.6 1.28,0 2.48,-0.76 1.2,-0.76 1.68,-1.36 0.52,-0.6 1.32,-1.68 v -8.08 q -0.28,-0.04 -0.64,-0.2 -1.24,-0.56 -3.24,-0.56 -3,0 -4.96,1.64 -1.92,1.64 -1.92,4.68 z m 11.96,7 q 0,0.24 -0.2,0.4 -0.16,0.2 -0.4,0.2 -0.24,0 -0.44,-0.2 -0.16,-0.16 -0.16,-0.4 v -2.8 q -2.4,3.32 -5.48,3.32 -2.76,0 -4.64,-1.92 -1.88,-1.92 -1.88,-5.6 0,-3.64 2.36,-5.56 2.36,-1.96 5.76,-1.96 2.32,0 3.8,0.64 0.56,0.24 0.8,0.48 0.48,0.12 0.48,0.6 z"
       style=""
       id="path885" />
    <path
       d="m 551.27523,70.918203 q 1.32,0.92 2.04,0.92 3.12,0 3.12,-5.2 v -18.32 q 0,-0.24 0.16,-0.4 0.2,-0.2 0.44,-0.2 0.24,0 0.4,0.2 0.2,0.16 0.2,0.4 v 18.32 q 0,6.32 -4.32,6.32 -0.48,0 -0.92,-0.16 -0.48,-0.16 -0.72,-0.32 -0.24,-0.12 -0.72,-0.48 -0.48,-0.36 -0.56,-0.4 -0.48,-0.28 -0.08,-0.72 0.36,-0.36 0.96,0.04 z m 4.92,-30.16 q -0.28,-0.32 -0.28,-0.8 0,-0.48 0.28,-0.8 0.32,-0.32 0.84,-0.32 0.52,0 0.8,0.32 0.32,0.32 0.32,0.8 0,0.48 -0.32,0.8 -0.28,0.32 -0.8,0.32 -0.52,0 -0.84,-0.32 z"
       style=""
       id="path887" />
    <path
       d="m 576.75273,48.438203 q 0,-0.24 0.16,-0.4 0.2,-0.2 0.44,-0.2 0.24,0 0.4,0.2 0.2,0.16 0.2,0.4 v 13.64 q 0,0.24 -0.2,0.4 -0.16,0.2 -0.4,0.2 -0.24,0 -0.44,-0.2 -0.16,-0.16 -0.16,-0.4 v -4 q -0.68,2.12 -2.32,3.32 -1.64,1.16 -4.16,1.16 -5.32,0 -5.32,-6.72 v -7.4 q 0,-0.24 0.16,-0.4 0.2,-0.2 0.44,-0.2 0.24,0 0.4,0.2 0.2,0.16 0.2,0.4 v 7 q 0,5.92 4.52,5.92 2.6,0 4.32,-1.96 1.76,-1.96 1.76,-4.36 z"
       style=""
       id="path889" />
    <path
       d="m 584.11836,60.438203 q 2,0.96 3.8,0.96 1.84,0 2.64,-0.88 0.84,-0.92 0.84,-1.88 0,-1.4 -0.76,-2.16 -0.76,-0.8 -2.72,-1.16 -2.4,-0.44 -3.52,-1.32 -1.08,-0.92 -1.08,-2.8 0,-1.48 1.28,-2.6 1.28,-1.16 3.32,-1.16 1.96,0 3.6,0.88 1.16,0.6 0.76,1.12 -0.44,0.56 -1.16,0.12 -1.52,-0.88 -3.16,-0.88 -1.68,0 -2.48,0.84 -0.8,0.8 -0.8,1.64 0,1.36 0.92,2.08 0.92,0.68 2.88,0.96 4.24,0.56 4.24,4.32 0,1.6 -1.28,2.88 -1.24,1.24 -3.48,1.24 -2.16,0 -4.48,-1.12 -0.92,-0.4 -0.4,-1.04 0.28,-0.36 1.04,-0.04 z"
       style=""
       id="path891" />
    <path
       d="m 599.84711,61.958203 q 0,0.24 -0.2,0.4 -0.16,0.2 -0.4,0.2 -0.24,0 -0.44,-0.2 -0.16,-0.16 -0.16,-0.4 v -13.2 h -3.16 q -0.24,0 -0.44,-0.16 -0.16,-0.2 -0.16,-0.44 0,-0.24 0.16,-0.4 0.2,-0.2 0.44,-0.2 h 3.16 v -13.2 q 0,-0.24 0.16,-0.4 0.2,-0.2 0.44,-0.2 0.24,0 0.4,0.2 0.2,0.16 0.2,0.4 v 13.2 h 3.24 q 0.24,0 0.4,0.2 0.2,0.16 0.2,0.4 0,0.24 -0.2,0.44 -0.16,0.16 -0.4,0.16 h -3.24 z"
       style=""
       id="path893" />
    <path
       d="m 609.40711,61.958203 q 0,0.24 -0.2,0.4 -0.16,0.2 -0.4,0.2 -0.24,0 -0.44,-0.2 -0.16,-0.16 -0.16,-0.4 v -13.64 q 0,-0.24 0.16,-0.4 0.2,-0.2 0.44,-0.2 0.24,0 0.4,0.2 0.2,0.16 0.2,0.4 z m -1.44,-21.2 q -0.28,-0.32 -0.28,-0.8 0,-0.48 0.28,-0.8 0.32,-0.32 0.84,-0.32 0.52,0 0.8,0.32 0.32,0.32 0.32,0.8 0,0.48 -0.32,0.8 -0.28,0.32 -0.8,0.32 -0.52,0 -0.84,-0.32 z"
       style=""
       id="path895" />
    <path
       d="m 625.22961,35.958203 q -1.32,-0.92 -2.04,-0.92 -3.12,0 -3.12,5.2 v 7.32 h 3.48 q 0.24,0 0.4,0.2 0.2,0.16 0.2,0.4 0,0.24 -0.2,0.44 -0.16,0.16 -0.4,0.16 h -3.48 v 13.2 q 0,0.24 -0.2,0.4 -0.16,0.2 -0.4,0.2 -0.24,0 -0.44,-0.2 -0.16,-0.16 -0.16,-0.4 v -13.2 h -2.92 q -0.24,0 -0.44,-0.16 -0.16,-0.2 -0.16,-0.44 0,-0.24 0.16,-0.4 0.2,-0.2 0.44,-0.2 h 2.92 v -7.32 q 0,-6.32 4.32,-6.32 0.48,0 0.92,0.16 0.48,0.16 0.72,0.32 0.24,0.12 0.72,0.48 0.48,0.36 0.56,0.4 0.48,0.28 0.08,0.72 -0.36,0.36 -0.96,-0.04 z"
       style=""
       id="path897" />
    <path
       d="m 631.04773,61.958203 q 0,0.24 -0.2,0.4 -0.16,0.2 -0.4,0.2 -0.24,0 -0.44,-0.2 -0.16,-0.16 -0.16,-0.4 v -13.64 q 0,-0.24 0.16,-0.4 0.2,-0.2 0.44,-0.2 0.24,0 0.4,0.2 0.2,0.16 0.2,0.4 z m -1.44,-21.2 q -0.28,-0.32 -0.28,-0.8 0,-0.48 0.28,-0.8 0.32,-0.32 0.84,-0.32 0.52,0 0.8,0.32 0.32,0.32 0.32,0.8 0,0.48 -0.32,0.8 -0.28,0.32 -0.8,0.32 -0.52,0 -0.84,-0.32 z"
       style=""
       id="path899" />
    <path
       d="m 639.51023,50.278203 q -1.68,1.64 -1.68,4.68 0,3.04 1.68,4.68 1.72,1.64 4.4,1.64 1.8,0 3.48,-0.6 0.4,-0.16 0.84,-0.12 0.48,0 0.48,0.32 0,0.52 -0.92,0.92 -1.48,0.68 -3.88,0.68 -3.08,0 -5.2,-1.92 -2.12,-1.96 -2.12,-5.6 0,-3.64 2.12,-5.56 2.12,-1.96 5.2,-1.96 2.32,0 3.8,0.64 1,0.48 1,0.92 0,0.4 -0.56,0.44 -0.52,0 -1,-0.24 -1.24,-0.56 -3.24,-0.56 -2.68,0 -4.4,1.64 z"
       style=""
       id="path901" />
    <path
       d="m 653.92398,54.958203 q 0,3.08 1.44,4.72 1.48,1.6 3.84,1.6 1.28,0 2.48,-0.76 1.2,-0.76 1.68,-1.36 0.52,-0.6 1.32,-1.68 v -8.08 q -0.28,-0.04 -0.64,-0.2 -1.24,-0.56 -3.24,-0.56 -3,0 -4.96,1.64 -1.92,1.64 -1.92,4.68 z m 11.96,7 q 0,0.24 -0.2,0.4 -0.16,0.2 -0.4,0.2 -0.24,0 -0.44,-0.2 -0.16,-0.16 -0.16,-0.4 v -2.8 q -2.4,3.32 -5.48,3.32 -2.76,0 -4.64,-1.92 -1.88,-1.92 -1.88,-5.6 0,-3.64 2.36,-5.56 2.36,-1.96 5.76,-1.96 2.32,0 3.8,0.64 0.56,0.24 0.8,0.48 0.48,0.12 0.48,0.6 z"
       style=""
       id="path903" />
    <path
       d="m 674.22211,61.958203 q 0,0.24 -0.2,0.4 -0.16,0.2 -0.4,0.2 -0.24,0 -0.44,-0.2 -0.16,-0.16 -0.16,-0.4 v -13.2 h -3.16 q -0.24,0 -0.44,-0.16 -0.16,-0.2 -0.16,-0.44 0,-0.24 0.16,-0.4 0.2,-0.2 0.44,-0.2 h 3.16 v -13.2 q 0,-0.24 0.16,-0.4 0.2,-0.2 0.44,-0.2 0.24,0 0.4,0.2 0.2,0.16 0.2,0.4 v 13.2 h 3.24 q 0.24,0 0.4,0.2 0.2,0.16 0.2,0.4 0,0.24 -0.2,0.44 -0.16,0.16 -0.4,0.16 h -3.24 z"
       style=""
       id="path905" />
    <path
       d="m 683.78211,61.958203 q 0,0.24 -0.2,0.4 -0.16,0.2 -0.4,0.2 -0.24,0 -0.44,-0.2 -0.16,-0.16 -0.16,-0.4 v -13.64 q 0,-0.24 0.16,-0.4 0.2,-0.2 0.44,-0.2 0.24,0 0.4,0.2 0.2,0.16 0.2,0.4 z m -1.44,-21.2 q -0.28,-0.32 -0.28,-0.8 0,-0.48 0.28,-0.8 0.32,-0.32 0.84,-0.32 0.52,0 0.8,0.32 0.32,0.32 0.32,0.8 0,0.48 -0.32,0.8 -0.28,0.32 -0.8,0.32 -0.52,0 -0.84,-0.32 z"
       style=""
       id="path907" />
    <path
       d="m 692.36461,50.398203 q -1.64,1.76 -1.64,4.56 0,2.8 1.64,4.56 1.64,1.76 4.24,1.76 2.6,0 4.24,-1.76 1.64,-1.76 1.64,-4.56 0,-2.8 -1.64,-4.56 -1.64,-1.76 -4.24,-1.76 -2.6,0 -4.24,1.76 z m -0.88,10 q -1.96,-2.12 -1.96,-5.44 0,-3.32 1.96,-5.4 1.96,-2.12 5.12,-2.12 3.16,0 5.12,2.12 1.96,2.08 1.96,5.4 0,3.32 -1.96,5.44 -1.96,2.08 -5.12,2.08 -3.16,0 -5.12,-2.08 z"
       style=""
       id="path909" />
    <path
       d="m 710.05898,61.958203 q 0,0.24 -0.2,0.4 -0.16,0.2 -0.4,0.2 -0.24,0 -0.44,-0.2 -0.16,-0.16 -0.16,-0.4 v -13.64 q 0,-0.24 0.16,-0.4 0.2,-0.2 0.44,-0.2 0.24,0 0.4,0.2 0.2,0.16 0.2,0.4 v 4 q 0.68,-2.12 2.32,-3.28 1.64,-1.2 4.16,-1.2 5.32,0 5.32,6.72 v 7.4 q 0,0.24 -0.2,0.4 -0.16,0.2 -0.4,0.2 -0.24,0 -0.44,-0.2 -0.16,-0.16 -0.16,-0.4 v -7 q 0,-5.92 -4.52,-5.92 -2.6,0 -4.36,1.96 -1.72,1.96 -1.72,4.36 z"
       style=""
       id="path911" />
  </g>
</svg>
