<?xml version="1.0" encoding="UTF-8" standalone="no"?>
<!-- Created with Inkscape (http://www.inkscape.org/) -->

<svg
   xmlns:dc="http://purl.org/dc/elements/1.1/"
   xmlns:cc="http://creativecommons.org/ns#"
   xmlns:rdf="http://www.w3.org/1999/02/22-rdf-syntax-ns#"
   xmlns:svg="http://www.w3.org/2000/svg"
   xmlns="http://www.w3.org/2000/svg"
   xmlns:sodipodi="http://sodipodi.sourceforge.net/DTD/sodipodi-0.dtd"
   xmlns:inkscape="http://www.inkscape.org/namespaces/inkscape"
   version="1.1"
   id="svg2"
   width="1600"
   height="640"
   viewBox="0 0 1600 640"
   sodipodi:docname="Tears.svg"
   inkscape:version="0.92.3 (2405546, 2018-03-11)">
  <metadata
     id="metadata8">
    <rdf:RDF>
      <cc:Work
         rdf:about="">
        <dc:format>image/svg+xml</dc:format>
        <dc:type
           rdf:resource="http://purl.org/dc/dcmitype/StillImage" />
        <dc:title></dc:title>
      </cc:Work>
    </rdf:RDF>
  </metadata>
  <defs
     id="defs6" />
  <sodipodi:namedview
     pagecolor="#ffffff"
     bordercolor="#666666"
     borderopacity="1"
     objecttolerance="10"
     gridtolerance="10"
     guidetolerance="10"
     inkscape:pageopacity="0"
     inkscape:pageshadow="2"
     inkscape:window-width="1920"
     inkscape:window-height="1052"
     id="namedview4"
     showgrid="false"
     inkscape:zoom="0.7075"
     inkscape:cx="782.38629"
     inkscape:cy="515.61197"
     inkscape:window-x="0"
     inkscape:window-y="0"
     inkscape:window-maximized="1"
     inkscape:current-layer="svg2" />
  <g
     aria-label="No Tears"
     transform="matrix(8.2011838,0,0,8.2011838,-487.99037,-122.76105)"
     style="font-style:normal;font-variant:normal;font-weight:normal;font-stretch:normal;font-size:40px;line-height:1.25;font-family:'No Tears';-inkscape-font-specification:'No Tears';letter-spacing:0px;word-spacing:0px;fill:#000000;fill-opacity:1;stroke:none"
     id="flowRoot817">
    <path
       d="m 95.658984,61.958203 q 0,0.24 -0.2,0.4 -0.16,0.2 -0.4,0.2 -0.24,0 -0.44,-0.2 -0.16,-0.16 -0.16,-0.4 v -27.2 q 0,-0.44 0.44,-0.56 0.44,-0.16 0.68,0.24 l 14.439996,24.96 v -25.04 q 0,-0.24 0.16,-0.4 0.2,-0.2 0.44,-0.2 0.24,0 0.4,0.2 0.2,0.16 0.2,0.4 v 27.2 q 0,0.44 -0.48,0.6 -0.44,0.12 -0.68,-0.28 l -14.399996,-24.92 z"
       style="fill:#000000"
       id="path863" />
    <path
       d="m 119.86461,50.398203 q -1.64,1.76 -1.64,4.56 0,2.8 1.64,4.56 1.64,1.76 4.24,1.76 2.6,0 4.24,-1.76 1.64,-1.76 1.64,-4.56 0,-2.8 -1.64,-4.56 -1.64,-1.76 -4.24,-1.76 -2.6,0 -4.24,1.76 z m -0.88,10 q -1.96,-2.12 -1.96,-5.44 0,-3.32 1.96,-5.4 1.96,-2.12 5.12,-2.12 3.16,0 5.12,2.12 1.96,2.08 1.96,5.4 0,3.32 -1.96,5.44 -1.96,2.08 -5.12,2.08 -3.16,0 -5.12,-2.08 z"
       style="fill:#000000"
       id="path865" />
    <path
       d="m 156.19023,61.958203 q 0,0.24 -0.2,0.4 -0.16,0.2 -0.4,0.2 -0.24,0 -0.44,-0.2 -0.16,-0.16 -0.16,-0.4 v -26.6 h -6.6 q -0.24,0 -0.44,-0.16 -0.16,-0.2 -0.16,-0.44 0,-0.24 0.16,-0.4 0.2,-0.2 0.44,-0.2 h 14.4 q 0.24,0 0.4,0.2 0.2,0.16 0.2,0.4 0,0.24 -0.2,0.44 -0.16,0.16 -0.4,0.16 h -6.6 z"
       style="fill:#000000"
       id="path867" />
    <path
       d="m 175.93773,54.038203 q -0.04,-2.2 -1.64,-3.8 -1.6,-1.6 -3.48,-1.6 -2.12,0 -3.8,1.6 -1.68,1.6 -1.72,3.8 z m -10.72,1.2 q 0.08,2.8 1.56,4.4 1.52,1.6 4.12,1.6 1.04,0 1.96,-0.52 0.96,-0.52 1.48,-1.12 0.56,-0.64 1.04,-1.04 0.48,-0.4 0.76,-0.24 1,0.6 -0.76,2.12 -1.92,1.64 -3.96,2 -0.32,0.04 -0.6,0.04 -3.08,0 -4.96,-2 -1.88,-2 -1.88,-5.52 0,-3.44 2,-5.48 2,-2.04 4.84,-2.04 2.4,0 4.4,2 2,2 2,4.76 0,1.08 -1.16,1.08 -1.8,0 -6.2,0 -4.36,-0.04 -4.64,-0.04 z"
       style="fill:#000000"
       id="path869" />
    <path
       d="m 181.89273,54.958203 q 0,3.08 1.44,4.72 1.48,1.6 3.84,1.6 1.28,0 2.48,-0.76 1.2,-0.76 1.68,-1.36 0.52,-0.6 1.32,-1.68 v -8.08 q -0.28,-0.04 -0.64,-0.2 -1.24,-0.56 -3.24,-0.56 -3,0 -4.96,1.64 -1.92,1.64 -1.92,4.68 z m 11.96,7 q 0,0.24 -0.2,0.4 -0.16,0.2 -0.4,0.2 -0.24,0 -0.44,-0.2 -0.16,-0.16 -0.16,-0.4 v -2.8 q -2.4,3.32 -5.48,3.32 -2.76,0 -4.64,-1.92 -1.88,-1.92 -1.88,-5.6 0,-3.64 2.36,-5.56 2.36,-1.96 5.76,-1.96 2.32,0 3.8,0.64 0.56,0.24 0.8,0.48 0.48,0.12 0.48,0.6 z"
       style="fill:#000000"
       id="path871" />
    <path
       d="m 207.79086,49.758203 q -1,-0.6 -2.32,-0.6 -1.72,0 -3,2.04 -1.24,2.04 -1.24,4.16 v 6.6 q 0,0.24 -0.2,0.4 -0.16,0.2 -0.4,0.2 -0.24,0 -0.44,-0.2 -0.16,-0.16 -0.16,-0.4 v -13.64 q 0,-0.24 0.16,-0.4 0.2,-0.2 0.44,-0.2 0.24,0 0.4,0.2 0.2,0.16 0.2,0.4 v 3.8 q 0.48,-2 1.68,-3.12 1.2,-1.16 3,-1.16 1.32,0 2.48,0.72 1.12,0.68 0.64,1.28 -0.36,0.48 -1.24,-0.08 z"
       style="fill:#000000"
       id="path873" />
    <path
       d="m 212.55586,60.438203 q 2,0.96 3.8,0.96 1.84,0 2.64,-0.88 0.84,-0.92 0.84,-1.88 0,-1.4 -0.76,-2.16 -0.76,-0.8 -2.72,-1.16 -2.4,-0.44 -3.52,-1.32 -1.08,-0.92 -1.08,-2.8 0,-1.48 1.28,-2.6 1.28,-1.16 3.32,-1.16 1.96,0 3.6,0.88 1.16,0.6 0.76,1.12 -0.44,0.56 -1.16,0.12 -1.52,-0.88 -3.16,-0.88 -1.68,0 -2.48,0.84 -0.8,0.8 -0.8,1.64 0,1.36 0.92,2.08 0.92,0.68 2.88,0.96 4.24,0.56 4.24,4.32 0,1.6 -1.28,2.88 -1.24,1.24 -3.48,1.24 -2.16,0 -4.48,-1.12 -0.92,-0.4 -0.4,-1.04 0.28,-0.36 1.04,-0.04 z"
       style="fill:#000000"
       id="path875" />
  </g>
</svg>
