<?xml version="1.0" encoding="UTF-8" standalone="no"?>
<svg
   xmlns:dc="http://purl.org/dc/elements/1.1/"
   xmlns:cc="http://creativecommons.org/ns#"
   xmlns:rdf="http://www.w3.org/1999/02/22-rdf-syntax-ns#"
   xmlns:svg="http://www.w3.org/2000/svg"
   xmlns="http://www.w3.org/2000/svg"
   width="196.105mm"
   height="38.119999mm"
   viewBox="0 0 694.86022 135.07086"
   id="svg2"
   version="1.1">
  <defs
     id="defs4" />
  <metadata
     id="metadata7">
    <rdf:RDF>
      <cc:Work
         rdf:about="">
        <dc:format>image/svg+xml</dc:format>
        <dc:type
           rdf:resource="http://purl.org/dc/dcmitype/StillImage" />
        <dc:title></dc:title>
      </cc:Work>
    </rdf:RDF>
  </metadata>
  <g
     id="layer1"
     transform="translate(0,-917.29134)">
    <g
       id="flowRoot3336"
       style="font-style:normal;font-weight:normal;font-size:40px;line-height:125%;font-family:sans-serif;letter-spacing:0px;word-spacing:0px;fill:#000000;fill-opacity:1;stroke:none;stroke-width:1px;stroke-linecap:butt;stroke-linejoin:miter;stroke-opacity:1"
       transform="matrix(3.5205156,0,0,3.5205156,-4.9388009,-283.53733)">
      <path
         id="path3358"
         style="font-style:normal;font-variant:normal;font-weight:500;font-stretch:normal;font-family:'Jones*';-inkscape-font-specification:'Jones* Medium';fill:#241c1c"
         d="m 12.28,345.62253 c 0.96,0 2,0.04 2.88,0.68 l 1.8,-3.28 c -1.36,-1 -3.08,-1.48 -4.8,-1.48 -3.52,0 -7.32,2.36 -7.32,7.32 l 0,1.28 -2.8,0 0,3.84 2.8,0 0,17.44 4.56,0 0,-17.44 5.56,0 0,-3.84 -5.56,0 0,-1.72 c 0,-2 1.32,-2.8 2.88,-2.8 z" />
      <path
         id="path3360"
         style="font-style:normal;font-variant:normal;font-weight:500;font-stretch:normal;font-family:'Jones*';-inkscape-font-specification:'Jones* Medium';fill:#241c1c"
         d="m 25.9525,367.98253 c -2.56,0 -4.12,-1.24 -4.12,-3.16 0,-2.04 1.4,-2.84 4.4,-2.84 l 5.76,0 0,1.96 c -0.24,2.32 -2.76,4.04 -6.04,4.04 z m 6.08,3.44 4.32,0 -0.04,-13.96 c -0.04,-4.68 -3.12,-7.48 -8.4,-7.48 -4.04,0 -6.2,0.92 -9.16,2.68 l 1.88,3.2 c 2.12,-1.44 4.24,-2.16 6.28,-2.16 3.36,0 5.08,1.6 5.08,4.28 l 0,0.64 -6.44,0 c -5.12,0.04 -8.04,2.52 -8.04,6.4 0,3.76 2.88,6.6 7.48,6.6 3.08,0 5.52,-0.92 7.04,-2.8 l 0,2.6 z" />
      <path
         id="path3362"
         style="font-style:normal;font-variant:normal;font-weight:500;font-stretch:normal;font-family:'Jones*';-inkscape-font-specification:'Jones* Medium';fill:#241c1c"
         d="m 53.420625,349.98253 c -3.4,0 -5.92,1.28 -7.04,3.84 l 0,-3.68 -4.4,0 0,21.28 4.4,0 0,-11.32 c 0.32,-3.32 1.92,-5.8 5.24,-5.8 3,0 4.32,1.96 4.32,5.16 l 0,11.96 4.6,0 0,-13.24 c 0,-5.08 -2.36,-8.2 -7.12,-8.2 z" />
      <path
         id="path3364"
         style="font-style:normal;font-variant:normal;font-weight:500;font-stretch:normal;font-family:'Jones*';-inkscape-font-specification:'Jones* Medium';fill:#241c1c"
         d="m 85.399375,367.66253 -2.84,-2.88 c -1.36,1.64 -3.52,2.64 -5.92,2.64 -3.76,0 -6.52,-2.8 -6.52,-6.6 0,-3.8 2.76,-6.6 6.52,-6.6 2.28,0 4.12,0.8 5.56,2.44 l 2.8,-3.12 c -2,-2.2 -4.96,-3.56 -8.36,-3.56 -6.32,0 -11.08,4.64 -11.08,10.84 0,6.2 4.88,10.84 11.08,10.84 3.64,0 6.76,-1.52 8.76,-4 z" />
      <path
         id="path3366"
         style="font-style:normal;font-variant:normal;font-weight:500;font-stretch:normal;font-family:'Jones*';-inkscape-font-specification:'Jones* Medium';fill:#241c1c"
         d="m 109.80812,350.14253 -4.6,0 -5.919995,16.12 -6.36,-16.12 -4.76,0 8.8,20.96 -0.72,1.6 c -0.72,1.6 -2,2.84 -3.4,2.84 -0.96,0 -1.76,-0.32 -2.76,-1.04 l -1.8,3.08 c 1.48,1.24 3,1.8 4.92,1.8 3.2,0 5.6,-1.68 6.919995,-5.04 l 9.68,-24.2 z" />
      <path
         id="path3368"
         style="font-style:normal;font-variant:normal;font-weight:500;font-stretch:normal;font-family:'Jones*';-inkscape-font-specification:'Jones* Medium';fill:#241c1c"
         d="m 131.755,350.14253 -2.8,0 0,3.84 2.8,0 0,17.44 4.56,0 0,-17.44 5.56,0 0,-3.84 -5.56,0 0,-1.72 c 0,-2.08 1.24,-2.84 2.88,-2.84 1.12,0 2.44,0.36 3.68,0.92 l 0.16,-4 c -1.12,-0.64 -2.52,-0.96 -3.96,-0.96 -3.56,0 -7.32,2.24 -7.32,7.32 l 0,1.28 z" />
      <path
         id="path3370"
         style="font-style:normal;font-variant:normal;font-weight:500;font-stretch:normal;font-family:'Jones*';-inkscape-font-specification:'Jones* Medium';fill:#241c1c"
         d="m 151.85875,371.42253 0,-21.28 -4.56,0 0,21.28 4.56,0 z m -5.04,-27.4 c 0,1.52 1.24,2.76 2.76,2.76 1.52,0 2.76,-1.24 2.76,-2.76 0,-1.52 -1.24,-2.76 -2.76,-2.76 -1.52,0 -2.76,1.24 -2.76,2.76 z" />
      <path
         id="path3372"
         style="font-style:normal;font-variant:normal;font-weight:500;font-stretch:normal;font-family:'Jones*';-inkscape-font-specification:'Jones* Medium';fill:#241c1c"
         d="m 165.80187,349.94253 c -3.88,0 -7.6,1.84 -7.64,6.16 -0.04,4.16 3.76,5.56 6.96,6.44 2.16001,0.6 4.2,1.28 4.2,2.88 0,1.6 -1.72,2.56 -3.68,2.56 -2.32,0 -5.28,-1.4 -7.12,-3.04 l -1.64,3.68 c 2.12,1.92 5.44,3.24 8.56,3.24 4.28,0 8.12,-2.24 8.16,-6.6 0.04,-4.72 -4.2,-5.56 -7.48,-6.48 -2.08,-0.56 -3.8,-1.52 -3.8,-2.88 0,-1.52 1.32,-2.08 3.12,-2.08 1.88,0 4.04,0.52 5.92,1.68 l 1.68,-3.4 c -1.92,-1.36 -4.56,-2.16 -7.24,-2.16 z" />
      <path
         id="path3374"
         style="font-style:normal;font-variant:normal;font-weight:500;font-stretch:normal;font-family:'Jones*';-inkscape-font-specification:'Jones* Medium';fill:#241c1c"
         d="m 190.625,349.98253 c -3.64,0 -6.36,1.32 -7.48,3.92 l 0,-12.16 -4.6,0 0,29.68 4.6,0 0,-10.48 c 0,-3.76 1.88,-6.6 5.68,-6.64 3.2,0 4.72,1.96 4.72,5.16 l 0,11.96 4.6,0 0,-13.24 c 0,-5.08 -2.56,-8.2 -7.52,-8.2 z" />
    </g>
  </g>
</svg>
