<?xml version="1.0" encoding="UTF-8" standalone="no"?>
<svg
   xmlns:dc="http://purl.org/dc/elements/1.1/"
   xmlns:cc="http://creativecommons.org/ns#"
   xmlns:rdf="http://www.w3.org/1999/02/22-rdf-syntax-ns#"
   xmlns:svg="http://www.w3.org/2000/svg"
   xmlns="http://www.w3.org/2000/svg"
   id="svg8"
   version="1.1"
   viewBox="0 0 198.43749 52.916665"
   height="200"
   width="750">
  <defs
     id="defs2" />
  <metadata
     id="metadata5">
    <rdf:RDF>
      <cc:Work
         rdf:about="">
        <dc:format>image/svg+xml</dc:format>
        <dc:type
           rdf:resource="http://purl.org/dc/dcmitype/StillImage" />
        <dc:title></dc:title>
      </cc:Work>
    </rdf:RDF>
  </metadata>
  <g
     transform="translate(0,-244.08334)"
     id="layer1">
    <g
       id="flowRoot4491"
       style="font-style:normal;font-variant:normal;font-weight:900;font-stretch:normal;font-size:73.33333588px;line-height:150%;font-family:'Besley*';-inkscape-font-specification:'Besley* Heavy';text-align:start;letter-spacing:0px;word-spacing:0px;writing-mode:lr-tb;text-anchor:start;fill:#000000;fill-opacity:1;stroke:none;stroke-width:1px;stroke-linecap:butt;stroke-linejoin:miter;stroke-opacity:1"
       transform="matrix(0.26458333,0,0,0.26458333,-5.8737499,179.55083)"
       aria-label="Introducing
Besley* Fatface!">
      <path
         id="path4521"
         style="fill:#1f5016;fill-opacity:1"
         d="m 48.233334,265.8862 v 31.38667 q 0,2.2 0.366667,2.64 0.366667,0.44 2.126667,0.44 h 5.06 q 1.32,0 1.613333,0.29333 0.366667,0.22 0.366667,1.17333 v 5.42667 q 0,1.46667 -0.293333,1.90667 -0.293334,0.36666 -1.393334,0.36666 H 24.326667 q -1.466667,0 -1.833334,-0.22 Q 22.2,309.0062 22.2,307.9062 v -5.79333 q 0,-1.1 0.293333,-1.46667 0.366667,-0.36667 1.1,-0.36667 0.22,0 0.806667,0.0733 0.586667,0 0.953334,0 h 3.52 q 1.54,0 1.833333,-0.29334 Q 31,299.69287 31,297.85953 v -32.26666 q 0,-1.32 -0.22,-1.61334 -0.22,-0.29333 -1.246666,-0.29333 h -5.280001 q -1.393333,0 -1.76,-0.22 Q 22.2,263.17287 22.2,262.1462 v -6.30667 q 0,-0.88 0.22,-1.1 0.22,-0.29333 0.806667,-0.29333 0.146666,0 0.586666,0.0733 0.44,0 0.733334,0 h 30.580001 q 0.293333,0 0.806667,0 0.513333,-0.0733 0.733333,-0.0733 1.1,0 1.1,1.02667 v 6.96666 q 0,0.88 -0.293333,1.1 -0.22,0.14667 -1.393334,0.14667 h -6.013333 q -1.32,0 -1.613334,0.29333 -0.22,0.29334 -0.22,1.90667 z" />
      <path
         id="path4523"
         style="fill:#1f5016;fill-opacity:1"
         d="m 68.027604,300.27953 v -19.50666 q 0,-1.24667 -0.22,-1.46667 -0.22,-0.22 -1.393333,-0.22 h -2.933333 q -1.393334,0 -1.76,-0.22 -0.293334,-0.29333 -0.293334,-1.32 v -4.54667 q 0,-1.1 0.146667,-1.32 0.22,-0.29333 1.026667,-0.29333 h 16.573333 q 0.220001,0 0.660001,0 0.44,-0.0733 0.66,-0.0733 1.466666,0 1.466666,1.24666 v 1.32 q 0,2.49334 0.366667,2.49334 0.146667,0 0.366667,-0.22 0.293333,-0.29334 0.733333,-0.88 0.513333,-0.66 0.88,-1.1 3.74,-4.25334 11.073334,-4.25334 6.380001,0 9.826671,3.3 3.52,3.3 3.52,9.24 v 17.96667 q 0,0.95333 0.29333,1.17333 0.29333,0.22 1.54,0.22 h 2.78667 q 1.24666,0 1.61333,0.29334 0.36667,0.22 0.36667,1.1 v 4.84 q 0,1.02666 -0.29334,1.24666 -0.22,0.22 -1.54,0.22 H 91.494272 q -1.246667,0 -1.54,-0.22 -0.293333,-0.29333 -0.293333,-1.1 v -4.4 q 0,-0.22 -0.07333,-0.58666 0,-0.36667 0,-0.51334 0,-0.88 1.173334,-0.88 h 1.466666 q 1.1,0 1.1,-0.80666 v -17.38 q 0,-2.86 -0.806666,-3.96 -0.733334,-1.17334 -2.493334,-1.17334 -2.493333,0 -4.546667,2.56667 -2.053333,2.56667 -2.053333,7.7 v 12.1 q 0,0.58667 0.22,0.80667 0.22,0.14666 1.1,0.14666 h 0.88 q 0.953333,0 1.246667,0.29334 0.293333,0.22 0.293333,0.88 0,0.14666 -0.07333,0.66 0,0.44 0,0.73333 v 2.78667 q 0,1.54 -0.366667,1.98 -0.293333,0.36666 -1.393333,0.36666 H 63.040938 q -1.026667,0 -1.393334,-0.29333 -0.293333,-0.29333 -0.293333,-1.02667 0,-0.22 0,-0.73333 0.07333,-0.51333 0.07333,-0.88 v -2.93333 q 0,-1.24667 0.22,-1.54 0.22,-0.29334 1.1,-0.29334 h 3.226667 q 1.393333,0 1.686667,-0.22 0.366666,-0.29333 0.366666,-1.32 z" />
      <path
         id="path4525"
         style="fill:#1f5016;fill-opacity:1"
         d="m 146.53896,303.87287 q -4.4,6.89333 -14.15333,6.89333 -6.52667,0 -9.53334,-2.64 -2.93333,-2.64 -2.93333,-8.58 v -18.55333 q 0,-1.39334 -0.29333,-1.61334 -0.29334,-0.29333 -1.83334,-0.29333 h -2.49333 q -1.61333,0 -1.90667,-0.29333 -0.29333,-0.29334 -0.29333,-1.98 v -3.08 q 0,-0.44 0,-0.73334 0,-0.29333 0.0733,-0.58666 0.0733,-0.29334 0.0733,-0.44 0,-0.14667 0.14666,-0.22 0.14667,-0.14667 0.22,-0.22 0.0733,-0.0733 0.36667,-0.0733 0.29333,-0.0733 0.44,-0.0733 0.14667,0 0.58667,0 0.51333,-0.0733 0.73333,-0.0733 4.69333,-0.22 7.92,-2.27334 3.22667,-2.12666 4.84,-8.06666 0.0733,-0.36667 0.22,-1.1 0.14667,-0.80667 0.29333,-1.02667 0.14667,-0.22 0.58667,-0.44 0.51333,-0.22 1.39333,-0.22 h 2.49334 q 1.24666,0 1.54,0.29333 0.29333,0.22 0.29333,1.02667 v 9.82667 q 0,1.54 0.22,1.83333 0.29333,0.22 1.76,0.22 h 5.57334 q 1.24666,0 1.46666,0.22 0.29334,0.22 0.29334,1.32 v 0.36667 4.25333 q 0,0.95333 -0.36667,1.24667 -0.29333,0.29333 -1.68667,0.29333 h -5.28 q -1.32,0 -1.68667,0.44 -0.29333,0.44 -0.29333,2.27333 v 16.42667 q 0,3.81333 2.64,3.81333 1.54,0 2.86,-1.39333 0.22,-0.22 0.51334,-0.73333 0.36666,-0.51334 0.66,-0.80667 0.29333,-0.36667 0.66,-0.36667 0.36666,0 0.66,0.22 l 2.93333,1.83334 q 1.24667,0.73333 1.24667,1.24666 0,0.44 -0.95334,1.83334 z" />
      <path
         id="path4527"
         style="fill:#1f5016;fill-opacity:1"
         d="m 175.61678,309.51953 h -24.78667 q -1.02667,0 -1.32,-0.29333 -0.22,-0.36667 -0.22,-1.83333 v -3.66667 q 0,-1.32 0.22,-1.61333 0.29333,-0.29334 1.24667,-0.29334 h 3.15333 q 1.32,0 1.61333,-0.22 0.36667,-0.29333 0.36667,-1.32 V 280.8462 q 0,-1.17333 -0.22,-1.46667 -0.22,-0.29333 -1.02667,-0.29333 h -3.08 q -1.46666,0 -1.90666,-0.36667 -0.44,-0.36666 -0.44,-1.32 0,-0.22 0,-0.80666 0.0733,-0.66 0.0733,-1.02667 v -2.34667 q 0,-1.17333 0.44,-1.46666 0.44,-0.36667 1.68667,-0.36667 h 19.06666 q 0.51334,0 0.66,0.22 0.14667,0.22 0.14667,0.95333 v 0.51334 q 0,1.76 0.44,1.76 0.22,0 0.51333,-0.22 0.29334,-0.29334 0.73334,-0.73334 0.44,-0.51333 0.66,-0.73333 3.96,-3.22667 9.75333,-3.22667 5.35333,0 8.65333,2.56667 3.3,2.56667 3.3,7.26 0,3.37333 -2.34666,6.30667 -2.34667,2.93333 -6.6,2.93333 -3.52,0 -5.86667,-1.76 -2.27333,-1.76 -2.27333,-4.54667 0,-2.05333 1.1,-3.52 1.1,-1.46666 1.1,-1.61333 0,-0.73333 -1.1,-0.73333 -2.78667,0 -5.42667,4.03333 -2.64,3.96 -2.64,9.38667 v 9.53333 q 0,1.46667 0.29333,1.76 0.36667,0.29333 2.12667,0.29333 h 2.34667 q 1.17333,0 1.54,0.36667 0.36666,0.29333 0.36666,1.1 0,0.22 -0.0733,0.80667 0,0.58666 0,0.95333 v 2.42 q 0,1.46667 -0.36667,1.76 -0.29333,0.29333 -1.90666,0.29333 z" />
      <path
         id="path4529"
         style="fill:#1f5016;fill-opacity:1"
         d="m 196.44689,291.55287 q 0,-9.16667 5.86666,-15.4 5.94,-6.23334 16.06,-6.23334 10.04667,0 15.98667,5.86667 5.94,5.79333 5.94,13.93333 0,9.16667 -5.86667,15.25334 -5.86666,6.01333 -16.06,6.01333 -10.12,0 -16.06,-5.64667 -5.86666,-5.72 -5.86666,-13.78666 z m 16.5,-1.83334 q 0,13.93334 5.42666,13.93334 5.42667,0 5.42667,-12.46667 0,-13.93333 -5.42667,-13.93333 -5.42666,0 -5.42666,12.46666 z" />
      <path
         id="path4531"
         style="fill:#1f5016;fill-opacity:1"
         d="m 295.45491,304.3862 v 3.52 q 0,1.1 -0.36667,1.39333 -0.29333,0.22 -1.76,0.22 h -18.18667 q -1.1,0 -1.39333,-0.22 -0.29333,-0.22 -0.29333,-1.02666 v -1.76 q 0,-1.61334 -0.36667,-1.61334 -0.29333,0 -1.17333,1.54 -2.42,4.54667 -10.63334,4.54667 -7.26,0 -11.80666,-5.35333 -4.47334,-5.42667 -4.47334,-15.10667 0,-9.60667 4.84,-15.03333 4.84,-5.5 12.17334,-5.5 6.6,0 9.53333,3.88666 1.32,1.76 1.46667,1.76 0.44,0 0.44,-2.34666 v -11.73334 q 0,-1.1 -0.22,-1.32 -0.14667,-0.22 -0.95334,-0.22 h -3.3 q -1.61333,0 -1.90666,-0.22 -0.22,-0.29333 -0.22,-1.90666 v -3.81334 q 0,-1.24666 0.29333,-1.46666 0.29333,-0.29334 1.83333,-0.29334 h 17.74667 q 1.46667,0 1.76,0.29334 0.36667,0.22 0.36667,1.32 v 45.83333 q 0,1.32 0.36666,1.68667 0.36667,0.36666 1.90667,0.36666 h 1.90667 q 1.76,0 2.05333,0.29334 0.36667,0.29333 0.36667,1.90666 z m -23.83334,-5.5 q 1.83334,-3.22667 1.83334,-8.36 0,-5.13333 -1.83334,-8.36 -1.83333,-3.22667 -4.62,-3.22667 -2.49333,0 -4.18,3.3 -1.68666,3.22667 -1.68666,8.28667 0,5.06 1.68666,8.36 1.68667,3.22667 4.18,3.22667 2.78667,0 4.62,-3.22667 z" />
      <path
         id="path4533"
         style="fill:#1f5016;fill-opacity:1"
         d="M 325.5021,292.13953 V 281.9462 q 0,-0.29333 0,-0.80667 0.0733,-0.58666 0.0733,-0.73333 0,-0.73333 -0.36667,-1.02667 -0.36667,-0.29333 -1.54,-0.29333 h -1.32 q -1.32,0 -1.68667,-0.22 -0.29333,-0.29333 -0.29333,-1.24667 v -3.88666 q 0,-1.61334 0.29333,-1.98 0.29334,-0.36667 1.46667,-0.36667 h 16.94 q 1.32,0 1.54,0.29333 0.29334,0.29334 0.29334,1.90667 v 26.54667 q 0,1.1 0.36666,1.39333 0.44,0.29333 1.90667,0.29333 h 1.90667 q 0.29333,0 0.73333,0 0.44,-0.0733 0.58667,-0.0733 1.1,0 1.1,1.46667 v 4.54666 q 0,1.17334 -0.22,1.46667 -0.22,0.29333 -1.02667,0.29333 H 328.3621 q -0.95333,0 -1.17333,-0.22 -0.22,-0.29333 -0.22,-1.54 v -0.58666 q 0,-2.71334 -0.58667,-2.71334 -0.22,0 -0.88,0.88 -3.59333,5.64667 -11.95333,5.64667 -6.38,0 -9.9,-3.3 -3.44667,-3.3 -3.44667,-9.24 v -17.38 q 0,-1.32 -0.29333,-1.61333 -0.22,-0.36667 -1.17333,-0.36667 h -3.37334 q -1.1,0 -1.46666,-0.29333 -0.36667,-0.36667 -0.36667,-1.1 0,-0.14667 0,-0.73334 0.0733,-0.58666 0.0733,-1.02666 v -2.2 q 0,-1.54 0.29334,-1.90667 0.36666,-0.44 1.39333,-0.44 h 18.62667 q 1.1,0 1.39333,0.44 0.29333,0.36667 0.29333,1.90667 v 23.54 q 0,2.86 0.73334,4.03333 0.80666,1.1 2.56666,1.1 2.49334,0 4.54667,-2.56667 2.05333,-2.56666 2.05333,-7.7 z" />
      <path
         id="path4535"
         style="fill:#1f5016;fill-opacity:1"
         d="m 390.40897,282.23953 q 0,4.18 -2.56667,6.6 -2.49333,2.34667 -6.45333,2.34667 -4.10667,0 -6.38,-1.98 -2.2,-1.98 -2.2,-5.20667 0,-1.98 1.46667,-3.66666 1.54,-1.68667 1.54,-2.05334 0,-1.68666 -3.00667,-1.68666 -3.59333,0 -5.64667,3.44666 -1.98,3.44667 -1.98,9.68 0,13.71334 6.23334,13.71334 4.47333,0 6.96666,-4.69334 0.0733,-0.22 0.22,-0.51333 0.22,-0.29333 0.29334,-0.36667 0.0733,-0.14666 0.14666,-0.36666 0.14667,-0.22 0.22,-0.29334 0.14667,-0.0733 0.36667,-0.14666 0.22,-0.0733 0.44,-0.0733 0.29333,-0.0733 0.58667,-0.0733 0.36666,-0.0733 0.80666,-0.0733 h 4.54667 q 3.00667,0 3.00667,0.95333 0,0.36667 -0.51334,1.90667 -1.98,5.72 -6.96666,8.50666 -4.91334,2.78667 -11.73334,2.78667 -10.48666,0 -16.20666,-5.72 -5.64667,-5.79333 -5.64667,-14.08 0,-8.8 6.16,-15.03333 6.23333,-6.23334 17.23333,-6.23334 8.58,0 13.78667,3.66667 5.28,3.66667 5.28,8.65333 z" />
      <path
         id="path4537"
         style="fill:#1f5016;fill-opacity:1"
         d="m 399.97667,264.5662 q -2.49334,-2.05333 -2.49334,-5.64667 0,-3.59333 2.49334,-5.64666 2.49333,-2.05334 6.30666,-2.05334 3.81334,0 6.30667,2.05334 2.49333,2.05333 2.49333,5.64666 0,3.59334 -2.49333,5.64667 -2.49333,2.05333 -6.30667,2.05333 -3.81333,0 -6.30666,-2.05333 z m -2.78667,14.52 h -3.15333 q -1.1,0 -1.39334,-0.22 -0.29333,-0.22 -0.29333,-0.95333 v -4.18 q 0,-1.61334 0.29333,-1.98 0.29334,-0.36667 1.46667,-0.36667 h 17.82 q 1.68667,0 2.05333,0.44 0.36667,0.44 0.36667,2.27333 v 26.25334 q 0,1.02666 0.22,1.24666 0.29333,0.22 1.46667,0.22 h 2.2 q 0.29333,0 0.80666,0 0.58667,-0.0733 0.73334,-0.0733 0.66,0 0.88,0.29333 0.29333,0.29334 0.29333,1.32 v 3.66667 q 0,1.76 -0.36667,2.12667 -0.29333,0.36666 -1.83333,0.36666 h -24.93333 q -0.95334,0 -1.24667,-0.29333 -0.22,-0.29333 -0.22,-1.61333 v -3.81334 q 0,-1.39333 0.22,-1.68666 0.22,-0.29334 1.24667,-0.29334 H 397.41 q 1.02667,0 1.32,-0.22 0.29333,-0.29333 0.29333,-0.95333 0,-0.14667 -0.0733,-0.58667 0,-0.51333 0,-0.80666 V 281.0662 q 0,-1.39333 -0.29333,-1.68667 -0.22,-0.29333 -1.46667,-0.29333 z" />
      <path
         id="path4539"
         style="fill:#1f5016;fill-opacity:1"
         d="m 429.39479,300.27953 v -19.50666 q 0,-1.24667 -0.22,-1.46667 -0.22,-0.22 -1.39333,-0.22 h -2.93333 q -1.39334,0 -1.76,-0.22 -0.29334,-0.29333 -0.29334,-1.32 v -4.54667 q 0,-1.1 0.14667,-1.32 0.22,-0.29333 1.02667,-0.29333 h 16.57333 q 0.22,0 0.66,0 0.44,-0.0733 0.66,-0.0733 1.46667,0 1.46667,1.24666 v 1.32 q 0,2.49334 0.36666,2.49334 0.14667,0 0.36667,-0.22 0.29333,-0.29334 0.73333,-0.88 0.51334,-0.66 0.88,-1.1 3.74,-4.25334 11.07334,-4.25334 6.38,0 9.82666,3.3 3.52,3.3 3.52,9.24 v 17.96667 q 0,0.95333 0.29334,1.17333 0.29333,0.22 1.54,0.22 h 2.78666 q 1.24667,0 1.61334,0.29334 0.36666,0.22 0.36666,1.1 v 4.84 q 0,1.02666 -0.29333,1.24666 -0.22,0.22 -1.54,0.22 h -22 q -1.24667,0 -1.54,-0.22 -0.29333,-0.29333 -0.29333,-1.1 v -4.4 q 0,-0.22 -0.0733,-0.58666 0,-0.36667 0,-0.51334 0,-0.88 1.17334,-0.88 h 1.46666 q 1.1,0 1.1,-0.80666 v -17.38 q 0,-2.86 -0.80666,-3.96 -0.73334,-1.17334 -2.49334,-1.17334 -2.49333,0 -4.54666,2.56667 -2.05334,2.56667 -2.05334,7.7 v 12.1 q 0,0.58667 0.22,0.80667 0.22,0.14666 1.1,0.14666 h 0.88 q 0.95334,0 1.24667,0.29334 0.29333,0.22 0.29333,0.88 0,0.14666 -0.0733,0.66 0,0.44 0,0.73333 v 2.78667 q 0,1.54 -0.36667,1.98 -0.29333,0.36666 -1.39333,0.36666 h -22.29333 q -1.02667,0 -1.39334,-0.29333 -0.29333,-0.29333 -0.29333,-1.02667 0,-0.22 0,-0.73333 0.0733,-0.51333 0.0733,-0.88 v -2.93333 q 0,-1.24667 0.22,-1.54 0.22,-0.29334 1.1,-0.29334 h 3.22667 q 1.39333,0 1.68667,-0.22 0.36666,-0.29333 0.36666,-1.32 z" />
      <path
         id="path4541"
         style="fill:#1f5016;fill-opacity:1"
         d="m 500.85013,276.51953 q -3.22667,0 -3.22667,6.96667 0,6.96667 3.22667,6.96667 3.22666,0 3.22666,-6.96667 0,-6.96667 -3.22666,-6.96667 z m -2.49334,20.38667 q -1.61333,-0.22 -2.34666,-0.22 -0.73334,0 -1.24667,0.58667 -0.44,0.58666 -0.44,1.46666 0,2.05334 3.08,2.05334 0.88,0 6.16,0 5.35333,-0.0733 6.38,-0.0733 6.38,0 10.04667,3.52 3.66666,3.52 3.66666,9.82667 0,7.40667 -6.52666,11.14667 -6.45334,3.74 -16.94,3.74 -10.19334,0 -15.91334,-2.49334 -5.72,-2.42 -5.72,-7.04 0,-4.32666 5.94,-7.26 2.2,-1.02666 2.2,-1.24666 0,-0.14667 -0.22,-0.36667 -0.22,-0.22 -0.80667,-0.66 -0.51333,-0.44 -0.95333,-0.95333 -2.34667,-2.49334 -2.34667,-5.57334 0,-4.54666 4.54667,-7.48 2.05333,-1.32 2.05333,-1.46666 0,-0.0733 -1.90666,-1.61334 -4.47334,-3.66666 -4.47334,-9.31333 0,-6.30667 5.28,-9.9 5.35334,-3.66667 12.98001,-3.66667 6.52666,0 11.07333,2.64 1.68667,1.02667 1.98,1.02667 0.29333,0 1.90667,-1.02667 3.88666,-2.64 8.8,-2.64 3.59333,0 6.16,1.90667 2.56666,1.90667 2.56666,5.13333 0,3.59334 -2.12666,5.5 -2.05334,1.83334 -5.06,1.83334 -2.71334,0 -4.4,-1.46667 -1.68667,-1.46667 -1.68667,-3.22667 0,-1.39333 0.51333,-2.2 0.51334,-0.88 1.02667,-1.24666 0.51333,-0.36667 0.51333,-0.66 0,-0.44 -0.51333,-0.44 -0.95333,0 -2.42,1.17333 -1.46667,1.17333 -1.46667,2.27333 0,0.73334 0.29334,2.42 0.36666,1.68667 0.36666,2.56667 0,6.38 -4.98666,9.97333 -4.98667,3.59334 -12.54,3.59334 -0.80667,0 -2.49334,-0.14667 z m -0.66,16.94 q -0.44,0 -1.46666,-0.0733 -1.02667,-0.0733 -1.39334,-0.0733 -1.46666,0 -2.2,1.39334 -0.51333,0.80666 -0.51333,1.90666 0,2.49334 2.34667,3.44667 2.34666,1.02667 6.89333,1.02667 9.53333,0 9.53333,-4.54667 0,-1.83333 -1.32,-2.49333 -1.32,-0.58667 -4.98666,-0.58667 z" />
      <path
         id="path4543"
         style="fill:#1f5016;fill-opacity:1"
         d="M 55.933335,419.51953 H 25.866667 q -0.44,0 -1.1,0 -0.586667,0.0733 -0.806667,0.0733 -1.026667,0 -1.393333,-0.44 Q 22.2,418.63953 22.2,417.09953 v -5.20666 q 0,-1.32 0.293333,-1.76 0.293334,-0.51334 1.466667,-0.51334 h 4.546667 q 1.1,0 1.393333,-0.22 0.366667,-0.29333 0.366667,-1.02666 v -31.75334 q 0,-1.54 -0.293333,-1.83333 -0.22,-0.36667 -1.32,-0.36667 h -3.960001 q -1.906666,0 -2.2,-0.29333 Q 22.2,373.75953 22.2,371.9262 v -5.57333 q 0,-1.17334 0.22,-1.46667 0.293333,-0.36667 1.1,-0.36667 h 30.213335 q 12.98,0 18.553333,3.00667 5.646667,3.00667 5.646667,10.56 0,8.36 -9.533333,11.44 -3.08,1.02667 -3.08,1.39333 0,0.36667 3.08,1.02667 12.466667,2.42 12.466667,12.17333 0,8.65334 -5.72,12.02667 -5.720001,3.37333 -19.213334,3.37333 z m -1.466667,-9.9 q 4.473333,0 6.233333,-1.90666 1.833334,-1.90667 1.833334,-5.42667 0,-6.23333 -8.066667,-6.23333 h -4.106667 q -1.906667,0 -2.42,0.44 -0.44,0.44 -0.44,2.27333 v 9.09333 q 0,1.17334 0.293333,1.46667 0.366667,0.29333 1.246667,0.29333 z m -4.4,-23.46666 h 2.933333 q 7.333334,0 7.333334,-6.23334 0,-3.15333 -1.686667,-4.32666 -1.613333,-1.17334 -5.646667,-1.17334 h -3.153333 q -1.613334,0 -1.98,0.36667 -0.366667,0.29333 -0.366667,1.83333 v 6.74667 q 0,1.83333 0.366667,2.34667 0.44,0.44 2.2,0.44 z" />
      <path
         id="path4545"
         style="fill:#1f5016;fill-opacity:1"
         d="m 125.77417,402.9462 h -21.56 q -1.24667,0 -1.76,0.29333 -0.51333,0.22 -0.51333,1.02667 0,0.0733 0,0.22 0.0733,0.0733 0.0733,0.14667 0.36667,4.18 1.90667,6.52666 1.61333,2.27334 5.13333,2.27334 4.76667,0 7.26,-5.35334 0.29333,-0.66 0.44,-0.80666 0.14667,-0.14667 0.51333,-0.29334 0.36667,-0.14666 1.17334,-0.14666 h 6.38 q 1.90666,0 1.90666,0.66 0,0.14666 -0.44,1.61333 -1.90666,6.08667 -6.89333,9.02 -4.91333,2.86 -11.95333,2.86 -10.48667,0 -16.206671,-5.72 -5.646666,-5.79333 -5.646666,-14.08 0,-9.24 5.866667,-15.25333 5.866666,-6.01334 16.5,-6.01334 4.76667,0 8.28667,1.24667 3.59333,1.24667 5.64666,3.15333 2.05334,1.90667 3.3,4.69334 1.32,2.78666 1.76,5.35333 0.51334,2.49333 0.66,5.57333 0,0.36667 0.0733,0.95334 0.0733,0.58666 0.0733,0.80666 0,0.73334 -0.44,1.02667 -0.36667,0.22 -1.54,0.22 z m -13.49333,-9.31333 q -0.51334,-6.45334 -4.4,-6.45334 -4.76667,0 -5.72,6.30667 0,0.22 -0.14667,0.66 -0.0733,0.44 -0.0733,0.58667 0,0.66 1.32,0.66 h 7.26 q 0.80666,0 1.1,0 0.29333,-0.0733 0.44,-0.29334 0.22,-0.22 0.22,-0.66 z" />
      <path
         id="path4547"
         style="fill:#1f5016;fill-opacity:1"
         d="m 161.37292,393.11953 q -1.1,-3.08 -3.81333,-4.69333 -2.71333,-1.61333 -5.5,-1.61333 -4.25333,0 -4.25333,2.2 0,1.54 1.68666,2.71333 1.76,1.17333 4.32667,1.90667 2.56667,0.73333 5.5,1.90666 3.00667,1.17334 5.57333,2.56667 2.56667,1.32 4.25334,3.88667 1.76,2.56666 1.76,6.01333 0,13.12667 -17.38,13.12667 -6.01334,0 -10.34,-2.78667 -1.24667,-0.80667 -1.54,-0.80667 -0.36667,0 -1.17334,1.17334 -0.73333,1.02666 -1.24666,1.24666 -0.44,0.29334 -2.05334,0.29334 h -2.93333 q -1.54,0 -1.90667,-0.29334 -0.29333,-0.29333 -0.29333,-1.61333 v -12.1 q 0,-1.1 0.29333,-1.32 0.36667,-0.29333 1.76,-0.29333 h 3.37334 q 0.66,0 1.02666,0.0733 0.44,0.0733 0.66,0.14667 0.29334,0 0.51334,0.29333 0.22,0.22 0.29333,0.36667 0.0733,0.0733 0.22,0.58666 0.22,0.44 0.29333,0.73334 1.46667,3.37333 4.25334,5.28 2.78666,1.90666 5.86666,1.90666 5.42667,0 5.42667,-3.15333 0,-1.90667 -2.34667,-3.22667 -2.34666,-1.39333 -5.72,-2.42 -3.3,-1.02666 -6.67333,-2.34666 -3.3,-1.39334 -5.64667,-4.10667 -2.34666,-2.78667 -2.34666,-6.74667 0,-5.94 4.47333,-9.09333 4.54667,-3.15333 11.29333,-3.15333 5.72,0 9.09334,2.12666 0.44,0.29334 0.88,0.73334 0.44,0.36666 0.66,0.66 0.29333,0.22 0.51333,0.22 0.36667,0 0.88,-0.88 l 0.58667,-1.02667 q 0.58666,-0.95333 2.93333,-0.95333 h 2.34667 q 0.29333,0 0.80666,0 0.51334,-0.0733 0.66,-0.0733 1.17334,0 1.17334,1.46667 v 11.14667 q 0,1.54 -0.29334,1.83333 -0.29333,0.29333 -1.76,0.29333 h -4.54666 q -0.73334,0 -1.02667,-0.22 -0.29333,-0.22 -0.44,-0.95333 -0.0733,-0.80667 -0.14667,-1.02667 z" />
      <path
         id="path4549"
         style="fill:#1f5016;fill-opacity:1"
         d="m 177.38251,370.01953 h -2.93333 q -1.1,0 -1.39334,-0.22 -0.29333,-0.29333 -0.29333,-1.02666 v -4.18 q 0,-1.54 0.29333,-1.90667 0.36667,-0.36667 1.83334,-0.36667 h 18.04 q 1.17333,0 1.46666,0.44 0.36667,0.44 0.36667,2.05334 v 44.29333 q 0,1.90667 0.29333,2.34667 0.36667,0.36666 1.90667,0.36666 h 3.15333 q 0.88,0 1.02667,0.29334 0.22,0.22 0.22,1.39333 v 4.10667 q 0,1.39333 -0.29333,1.68666 -0.22,0.22 -1.54,0.22 h -24.64 q -1.61334,0 -1.90667,-0.29333 -0.22,-0.29333 -0.22,-1.90667 v -4.25333 q 0,-0.88 0.22,-1.02667 0.29333,-0.22 1.46667,-0.22 h 3.22666 q 1.83334,0 1.83334,-1.68666 0,-0.29334 -0.0733,-1.1 -0.0733,-0.80667 -0.0733,-1.24667 v -35.42 q 0,-1.54 -0.29333,-1.90667 -0.29334,-0.44 -1.68667,-0.44 z" />
      <path
         id="path4551"
         style="fill:#1f5016;fill-opacity:1"
         d="m 243.07887,402.9462 h -21.56 q -1.24667,0 -1.76,0.29333 -0.51334,0.22 -0.51334,1.02667 0,0.0733 0,0.22 0.0733,0.0733 0.0733,0.14667 0.36667,4.18 1.90667,6.52666 1.61334,2.27334 5.13334,2.27334 4.76666,0 7.26,-5.35334 0.29333,-0.66 0.44,-0.80666 0.14666,-0.14667 0.51333,-0.29334 0.36667,-0.14666 1.17333,-0.14666 h 6.38 q 1.90667,0 1.90667,0.66 0,0.14666 -0.44,1.61333 -1.90667,6.08667 -6.89333,9.02 -4.91334,2.86 -11.95334,2.86 -10.48667,0 -16.20667,-5.72 -5.64666,-5.79333 -5.64666,-14.08 0,-9.24 5.86666,-15.25333 5.86667,-6.01334 16.50001,-6.01334 4.76666,0 8.28666,1.24667 3.59334,1.24667 5.64667,3.15333 2.05333,1.90667 3.3,4.69334 1.32,2.78666 1.76,5.35333 0.51333,2.49333 0.66,5.57333 0,0.36667 0.0733,0.95334 0.0733,0.58666 0.0733,0.80666 0,0.73334 -0.44,1.02667 -0.36667,0.22 -1.54,0.22 z m -13.49334,-9.31333 q -0.51333,-6.45334 -4.4,-6.45334 -4.76666,0 -5.72,6.30667 0,0.22 -0.14667,0.66 -0.0733,0.44 -0.0733,0.58667 0,0.66 1.32,0.66 h 7.26 q 0.80667,0 1.1,0 0.29334,-0.0733 0.44,-0.29334 0.22,-0.22 0.22,-0.66 z" />
      <path
         id="path4553"
         style="fill:#1f5016;fill-opacity:1"
         d="m 260.59866,438.95287 q -6.52667,0 -9.82667,-3.52 -3.22666,-3.52 -3.22666,-8.72667 0,-5.13333 2.93333,-8.58 3.00667,-3.52 7.04,-3.52 3.37333,0 5.5,1.98 2.2,1.98 2.2,5.28 0,2.71333 -1.17333,4.25333 -1.1,1.54 -2.42,1.90667 -1.32,0.36667 -2.49334,0.73333 -1.1,0.44 -1.1,1.17334 0,1.68666 2.56667,1.68666 2.93334,0 5.06,-2.12666 2.12667,-2.12667 4.4,-7.18667 0.58667,-1.32 0.58667,-1.83333 0,-0.66 -0.66,-1.98 l -13.64,-27.13334 q -0.58667,-1.17333 -0.80667,-1.46666 -0.22,-0.29334 -0.95333,-0.51334 -0.66,-0.29333 -2.05334,-0.29333 h -1.1 q -1.24666,0 -1.61333,-0.22 -0.29333,-0.29333 -0.29333,-1.17333 v -4.4 q 0,-1.32 0.22,-1.61334 0.22,-0.29333 1.32,-0.29333 h 24.64 q 0.88,0 1.1,0.29333 0.29333,0.29334 0.29333,1.54 v 4.76667 q 0,1.1 -0.80666,1.1 h -3.44667 q -1.54,0 -1.54,0.44 0,0.14667 0.0733,0.36667 0.14667,0.14666 0.29334,0.44 0.14666,0.22 0.29333,0.51333 l 3.37333,7.04 q 1.17334,2.42 2.05334,5.06 0.66,1.98 0.88,1.98 0.14666,0 0.80666,-1.98 0.73334,-2.12667 1.90667,-4.91333 l 2.93333,-6.6 q 0.14667,-0.29334 0.36667,-0.66 0.22,-0.44 0.29333,-0.66 0.14667,-0.29334 0.14667,-0.44 0,-0.58667 -1.68667,-0.58667 H 281.572 q -1.46667,0 -1.46667,-1.1 0,-0.14667 0,-0.58667 0.0733,-0.44 0.0733,-0.73333 v -3.3 q 0,-1.39333 0.22,-1.68667 0.29334,-0.29333 1.54,-0.29333 h 14.44667 q 0.36667,0 0.88,0 0.51333,-0.0733 0.73333,-0.0733 1.24667,0 1.24667,1.46666 v 4.10667 q 0,0.29333 0,0.73333 0.0733,0.36667 0.0733,0.51334 0,0.95333 -1.24666,0.95333 h -1.98 q -0.36667,0 -0.66,0 -0.22,0 -0.44,0.14667 -0.14667,0.0733 -0.29334,0.0733 -0.0733,0 -0.22,0.22 -0.14666,0.14667 -0.22,0.22 0,0.0733 -0.14666,0.36667 -0.0733,0.29333 -0.14667,0.44 l -15.32667,32.78 q -1.76,3.74 -3.15333,6.08666 -1.39333,2.34667 -3.52,4.76667 -2.12667,2.42 -4.98667,3.52 -2.78666,1.17333 -6.38,1.24667 z" />
      <path
         id="path4555"
         style="fill:#660000;fill-opacity:1"
         d="m 327.98052,380.79953 q -2.2,0.36667 -2.2,0.95334 0,0.58666 2.2,0.95333 2.27334,0.36667 3.44667,0.36667 1.02667,0 2.64,-0.14667 1.68667,-0.22 2.42,-0.22 1.98,0 3.52,0.95333 2.86,1.68667 2.86,4.69334 0,2.05333 -1.39333,4.62 -2.42,4.18 -5.86667,4.18 -1.54,0 -2.93333,-0.80667 -1.90667,-1.1 -3.52,-4.62 -1.54,-3.59333 -3.52,-5.57333 -1.24667,-1.24667 -1.54,-1.24667 -0.22,0 -0.22,0.36667 0,0.51333 0.22,1.46666 0.73333,2.78667 3.00666,6.01334 2.34667,3.22666 2.34667,5.42666 0,2.86 -1.98,4.4 -1.98,1.54 -5.35334,1.54 -3.37333,0 -5.35333,-1.54 -1.98,-1.54 -1.98,-4.4 0,-2.27333 2.42,-5.57333 2.42,-3.3 3.08,-6.45333 l 0.14667,-1.02667 q 0,-0.36667 -0.14667,-0.36667 -0.22,0 -1.17333,0.95334 -1.90667,1.76 -3.08,4.03333 -1.1,2.2 -1.98,3.96 -0.88,1.68667 -2.49334,2.64 -1.39333,0.80667 -2.93333,0.80667 -3.44667,0 -5.86667,-4.18 -1.39333,-2.56667 -1.39333,-4.62 0,-3.00667 2.86,-4.69334 1.68667,-0.95333 3.52,-0.95333 0.73333,0 2.34667,0.22 1.68666,0.14667 2.71333,0.14667 2.27333,0 4.32667,-0.66 1.39333,-0.44 1.39333,-0.66 0,-0.29334 -1.61333,-0.73334 -2.05334,-0.58666 -4.10667,-0.58666 -1.02667,0 -2.71333,0.22 -1.61334,0.14666 -2.34667,0.14666 -2.12667,0 -3.52,-0.88 -2.86,-1.68666 -2.86,-4.76666 0,-1.98 1.39333,-4.54667 2.49334,-4.25333 5.86667,-4.25333 1.54,0 2.93333,0.80666 1.90667,1.1 3.52,4.69334 1.61334,3.52 3.37334,5.35333 1.32,1.32 1.68666,1.32 0.22,0 0.22,-0.44 0,-0.51333 -0.44,-1.90667 -0.73333,-2.34666 -2.93333,-5.42666 -2.2,-3.15334 -2.2,-5.42667 0,-2.86 1.98,-4.4 1.98,-1.54 5.35333,-1.54 3.37334,0 5.35334,1.54 1.98,1.54 1.98,4.4 0,2.2 -2.2,5.28 -2.12667,3.08 -2.86,5.28 -0.51333,1.46667 -0.51333,2.12667 0,0.44 0.29333,0.44 0.44,0 1.76,-1.46667 1.46667,-1.61333 2.42,-3.66667 1.02667,-2.12666 1.90667,-3.66666 0.88,-1.61334 2.42,-2.49334 1.39333,-0.80666 2.93333,-0.80666 3.37333,0 5.86667,4.25333 1.39333,2.56667 1.39333,4.54667 0,3.08 -2.86,4.76666 -1.54,0.88 -3.52,0.88 -0.73333,0 -2.42,-0.14666 -1.61333,-0.22 -2.64,-0.22 -1.17333,0 -3.44667,0.36666 z" />
      <path
         id="path4557"
         style="fill:#1f5016;fill-opacity:1"
         d="m 375.98064,374.41953 h -4.84 q -0.88,0 -1.17334,-0.36666 -0.29333,-0.36667 -0.29333,-1.76 v -5.86667 q 0,-1.17333 0.29333,-1.54 0.29334,-0.36667 1.1,-0.36667 h 51.84667 q 1.39333,0 1.76,0.44 0.36667,0.44 0.36667,2.34667 v 17.96667 q 0,1.02666 -0.44,1.32 -0.36667,0.29333 -1.83334,0.29333 h -5.13333 q -1.46667,0 -1.83333,-0.36667 -0.29334,-0.36666 -0.36667,-2.2 -0.29333,-5.35333 -2.49333,-7.62666 -2.12667,-2.27334 -7.7,-2.27334 h -8.50667 q -1.24667,0 -1.54,0.29334 -0.22,0.29333 -0.22,1.68666 v 9.38667 q 0,1.68667 0.14667,2.27333 0.14666,0.58667 0.88,0.58667 0.58666,0 1.68666,-0.44 3.22667,-1.24667 4.4,-4.32667 0.14667,-0.36666 0.36667,-1.46666 0.22,-1.17334 0.66,-1.54 0.44,-0.44 1.54,-0.44 h 3.15333 q 1.17334,0 1.54,0.29333 0.36667,0.29333 0.36667,1.02667 0,0.14666 -0.0733,0.73333 0,0.51333 0,0.80667 v 19.8 0.36666 q 0,1.68667 -0.36667,1.98 -0.36667,0.29334 -2.2,0.29334 h -2.34667 q -1.02666,0 -1.54,-0.22 -0.44,-0.22 -0.51333,-0.51334 -0.0733,-0.29333 -0.22,-1.02666 -0.0733,-0.73334 -0.22,-1.32 -1.02667,-3.44667 -4.25333,-4.91334 -1.61334,-0.66 -1.98,-0.66 -1.02667,0 -1.02667,2.64 v 6.67334 q 0,2.12666 0.51333,2.71333 0.51334,0.51333 2.64,0.51333 h 3.81334 q 1.83333,0 2.2,0.44 0.36666,0.44 0.36666,2.56667 v 4.84 q 0,1.39333 -0.29333,1.76 -0.22,0.29333 -1.24667,0.29333 h -31.46 q -1.24666,0 -1.54,-0.36666 -0.29333,-0.44 -0.29333,-2.12667 v -5.94 q 0,-0.88 0.36667,-1.17333 0.36666,-0.29334 1.68666,-0.29334 h 3.22667 q 1.98,0 2.34667,-0.36666 0.44,-0.36667 0.44,-2.12667 v -30.43333 q 0,-1.61334 -0.29334,-1.90667 -0.22,-0.36667 -1.46666,-0.36667 z" />
      <path
         id="path4559"
         style="fill:#1f5016;fill-opacity:1"
         d="m 443.20323,391.35953 q 0,2.86 -2.27333,4.54667 -2.27334,1.61333 -5.42667,1.61333 -3.66667,0 -5.86667,-1.54 -2.12666,-1.61333 -2.12666,-4.54666 0,-5.13334 5.57333,-8.14 5.57333,-3.00667 13.71333,-3.00667 8.87334,0 13.49334,3.08 4.69333,3.00667 4.69333,10.34 v 15.84 q 0,2.12667 1.98,2.12667 1.32,0 2.27333,-1.24667 0.73334,-1.02667 0.95334,-1.02667 0.22,0 1.24666,0.58667 l 2.49334,1.54 q 1.02666,0.58667 1.02666,1.32 0,0.51333 -0.88,1.90667 -3.66666,5.86666 -12.76,5.86666 -5.72,0 -8.65333,-3.08 -0.29333,-0.36666 -0.73333,-0.80666 -0.36667,-0.51334 -0.51334,-0.58667 -0.14666,-0.14667 -0.29333,-0.14667 -0.14667,0 -1.68667,1.32 -3.96,3.3 -10.56,3.3 -6.38,0 -10.34,-2.42 -3.96,-2.42 -3.96,-7.33333 0,-12.90667 24.12667,-12.90667 0.88,0 0.88,-1.24666 v -3.74 q 0,-2.64 -1.24667,-4.32667 -1.24666,-1.68667 -3.37333,-1.68667 -3.00667,0 -3.00667,0.73334 0,0.14666 0.58667,1.1 0.66,0.95333 0.66,2.56666 z m 6.38,13.93334 q 0,-1.68667 -1.02667,-1.68667 -0.14666,0 -0.88,0.14667 -2.49333,0.58666 -4.10666,2.2 -1.61334,1.54 -1.61334,3.22666 0,3.08 2.78667,3.08 2.64,0 3.74,-1.54 1.1,-1.54 1.1,-5.42666 z" />
      <path
         id="path4561"
         style="fill:#1f5016;fill-opacity:1"
         d="m 504.61188,413.87287 q -4.4,6.89333 -14.15334,6.89333 -6.52666,0 -9.53333,-2.64 -2.93333,-2.64 -2.93333,-8.58 v -18.55333 q 0,-1.39334 -0.29334,-1.61334 -0.29333,-0.29333 -1.83333,-0.29333 h -2.49333 q -1.61334,0 -1.90667,-0.29333 -0.29334,-0.29334 -0.29334,-1.98 v -3.08 q 0,-0.44 0,-0.73334 0,-0.29333 0.0733,-0.58666 0.0733,-0.29334 0.0733,-0.44 0,-0.14667 0.14667,-0.22 0.14667,-0.14667 0.22,-0.22 0.0733,-0.0733 0.36667,-0.0733 0.29333,-0.0733 0.44,-0.0733 0.14666,0 0.58666,0 0.51334,-0.0733 0.73334,-0.0733 4.69333,-0.22 7.92,-2.27334 3.22666,-2.12666 4.84,-8.06666 0.0733,-0.36667 0.22,-1.1 0.14666,-0.80667 0.29333,-1.02667 0.14667,-0.22 0.58667,-0.44 0.51333,-0.22 1.39333,-0.22 h 2.49333 q 1.24667,0 1.54,0.29333 0.29334,0.22 0.29334,1.02667 v 9.82667 q 0,1.54 0.22,1.83333 0.29333,0.22 1.76,0.22 h 5.57333 q 1.24667,0 1.46667,0.22 0.29333,0.22 0.29333,1.32 v 0.36667 4.25333 q 0,0.95333 -0.36667,1.24667 -0.29333,0.29333 -1.68666,0.29333 h -5.28 q -1.32,0 -1.68667,0.44 -0.29333,0.44 -0.29333,2.27333 v 16.42667 q 0,3.81333 2.64,3.81333 1.54,0 2.86,-1.39333 0.22,-0.22 0.51333,-0.73333 0.36667,-0.51334 0.66,-0.80667 0.29333,-0.36667 0.66,-0.36667 0.36667,0 0.66,0.22 l 2.93333,1.83334 q 1.24667,0.73333 1.24667,1.24666 0,0.44 -0.95333,1.83334 z" />
      <path
         id="path4563"
         style="fill:#1f5016;fill-opacity:1"
         d="m 531.16198,390.1862 v 19.36 0.36667 q 0,1.39333 0.29333,1.68666 0.29334,0.22 1.90667,0.22 h 4.84 q 1.17333,0 1.46667,0.36667 0.29333,0.29333 0.29333,1.54 v 4.62 q 0,0.73333 -0.29333,0.95333 -0.29334,0.22 -1.32,0.22 h -27.64667 q -0.95333,0 -1.24667,-0.36666 -0.29333,-0.44 -0.29333,-1.83334 v -3.66666 q 0,-1.39334 0.22,-1.61334 0.22,-0.22 1.54,-0.22 h 2.93333 q 1.17334,0 1.54,-0.29333 0.36667,-0.29333 0.36667,-1.1 v -19.65333 q 0,-1.17334 -0.22,-1.39334 -0.14667,-0.29333 -1.1,-0.29333 h -3.96 q -0.88,0 -1.1,-0.14667 -0.22,-0.22 -0.22,-0.80666 v -4.98667 q 0,-1.32 0.22,-1.54 0.22,-0.22 1.54,-0.22 h 3.08 q 1.17333,0 1.46667,-0.22 0.29333,-0.22 0.29333,-1.02667 v -2.56666 q 0,-6.67334 5.72,-11.66 5.72,-5.06 16.06,-5.06 8.36,0 12.68667,3.08 4.4,3.08 4.4,7.62666 0,4.10667 -2.42,6.16 -2.42,1.98 -6.16,1.98 -3.96,0 -6.38,-1.90666 -2.42,-1.90667 -2.42,-4.91334 0,-1.54 0.66,-2.56666 0.66,-1.1 1.32,-1.61334 0.66,-0.58666 0.66,-0.88 0,-0.58666 -1.76,-0.58666 -2.71334,0 -4.84,2.86 -2.12667,2.78666 -2.12667,9.09333 v 1.02667 q 0,0.88 0.14667,1.02666 0.22,0.14667 1.17333,0.14667 h 6.01333 q 0.88,0 1.17334,0.29333 0.29333,0.22 0.29333,1.17334 v 4.84 q 0,0.80666 -0.29333,1.1 -0.29334,0.29333 -1.32,0.29333 h -5.72 q -0.95334,0 -1.24667,0.22 -0.22,0.22 -0.22,0.88 z" />
      <path
         id="path4565"
         style="fill:#1f5016;fill-opacity:1"
         d="m 561.51054,391.35953 q 0,2.86 -2.27333,4.54667 -2.27333,1.61333 -5.42667,1.61333 -3.66667,0 -5.86667,-1.54 -2.12666,-1.61333 -2.12666,-4.54666 0,-5.13334 5.57333,-8.14 5.57334,-3.00667 13.71334,-3.00667 8.87333,0 13.49333,3.08 4.69333,3.00667 4.69333,10.34 v 15.84 q 0,2.12667 1.98,2.12667 1.32,0 2.27334,-1.24667 0.73333,-1.02667 0.95333,-1.02667 0.22,0 1.24667,0.58667 l 2.49333,1.54 q 1.02667,0.58667 1.02667,1.32 0,0.51333 -0.88,1.90667 -3.66667,5.86666 -12.76,5.86666 -5.72,0 -8.65334,-3.08 -0.29333,-0.36666 -0.73333,-0.80666 -0.36667,-0.51334 -0.51333,-0.58667 -0.14667,-0.14667 -0.29334,-0.14667 -0.14666,0 -1.68666,1.32 -3.96,3.3 -10.56,3.3 -6.38001,0 -10.34001,-2.42 -3.96,-2.42 -3.96,-7.33333 0,-12.90667 24.12667,-12.90667 0.88,0 0.88,-1.24666 v -3.74 q 0,-2.64 -1.24666,-4.32667 -1.24667,-1.68667 -3.37334,-1.68667 -3.00666,0 -3.00666,0.73334 0,0.14666 0.58666,1.1 0.66,0.95333 0.66,2.56666 z m 6.38,13.93334 q 0,-1.68667 -1.02666,-1.68667 -0.14667,0 -0.88,0.14667 -2.49334,0.58666 -4.10667,2.2 -1.61333,1.54 -1.61333,3.22666 0,3.08 2.78666,3.08 2.64,0 3.74,-1.54 1.1,-1.54 1.1,-5.42666 z" />
      <path
         id="path4567"
         style="fill:#1f5016;fill-opacity:1"
         d="m 634.61469,392.23953 q 0,4.18 -2.56667,6.6 -2.49333,2.34667 -6.45333,2.34667 -4.10667,0 -6.38,-1.98 -2.2,-1.98 -2.2,-5.20667 0,-1.98 1.46667,-3.66666 1.54,-1.68667 1.54,-2.05334 0,-1.68666 -3.00667,-1.68666 -3.59334,0 -5.64667,3.44666 -1.98,3.44667 -1.98,9.68 0,13.71334 6.23334,13.71334 4.47333,0 6.96666,-4.69334 0.0733,-0.22 0.22,-0.51333 0.22,-0.29333 0.29334,-0.36667 0.0733,-0.14666 0.14666,-0.36666 0.14667,-0.22 0.22,-0.29334 0.14667,-0.0733 0.36667,-0.14666 0.22,-0.0733 0.44,-0.0733 0.29333,-0.0733 0.58667,-0.0733 0.36666,-0.0733 0.80666,-0.0733 h 4.54667 q 3.00667,0 3.00667,0.95333 0,0.36667 -0.51334,1.90667 -1.98,5.72 -6.96666,8.50666 -4.91334,2.78667 -11.73334,2.78667 -10.48667,0 -16.20667,-5.72 -5.64666,-5.79333 -5.64666,-14.08 0,-8.8 6.16,-15.03333 6.23333,-6.23334 17.23333,-6.23334 8.58,0 13.78667,3.66667 5.28,3.66667 5.28,8.65333 z" />
      <path
         id="path4569"
         style="fill:#1f5016;fill-opacity:1"
         d="m 679.21171,402.9462 h -21.56 q -1.24667,0 -1.76,0.29333 -0.51334,0.22 -0.51334,1.02667 0,0.0733 0,0.22 0.0733,0.0733 0.0733,0.14667 0.36666,4.18 1.90666,6.52666 1.61334,2.27334 5.13334,2.27334 4.76667,0 7.26,-5.35334 0.29333,-0.66 0.44,-0.80666 0.14667,-0.14667 0.51333,-0.29334 0.36667,-0.14666 1.17334,-0.14666 h 6.38 q 1.90666,0 1.90666,0.66 0,0.14666 -0.44,1.61333 -1.90666,6.08667 -6.89333,9.02 -4.91333,2.86 -11.95334,2.86 -10.48666,0 -16.20666,-5.72 -5.64667,-5.79333 -5.64667,-14.08 0,-9.24 5.86667,-15.25333 5.86666,-6.01334 16.5,-6.01334 4.76667,0 8.28667,1.24667 3.59333,1.24667 5.64666,3.15333 2.05334,1.90667 3.3,4.69334 1.32,2.78666 1.76,5.35333 0.51334,2.49333 0.66,5.57333 0,0.36667 0.0733,0.95334 0.0733,0.58666 0.0733,0.80666 0,0.73334 -0.44,1.02667 -0.36667,0.22 -1.54,0.22 z m -13.49333,-9.31333 q -0.51334,-6.45334 -4.40001,-6.45334 -4.76666,0 -5.72,6.30667 0,0.22 -0.14666,0.66 -0.0733,0.44 -0.0733,0.58667 0,0.66 1.32,0.66 h 7.26 q 0.80667,0 1.10001,0 0.29333,-0.0733 0.44,-0.29334 0.22,-0.22 0.22,-0.66 z" />
      <path
         id="path4571"
         style="fill:#1f5016;fill-opacity:1"
         d="m 691.01146,418.41953 q -2.56667,-2.56666 -2.56667,-6.23333 0,-3.66667 2.56667,-6.23333 2.56667,-2.56667 6.23333,-2.56667 3.66667,0 6.23334,2.56667 2.56666,2.56666 2.56666,6.23333 0,3.66667 -2.56666,6.23333 -2.56667,2.56667 -6.23334,2.56667 -3.66666,0 -6.23333,-2.56667 z m 15.62,-44.66 q -0.73333,6.16 -3.3,12.1 -2.56667,5.86667 -2.86,9.9 v 1.17334 q 0,0.80666 -0.29333,1.17333 -0.22,0.29333 -1.32,0.29333 h -2.78667 q -0.66,0 -1.02667,-0.0733 -0.36666,-0.0733 -0.58666,-0.0733 -0.22,0 -0.36667,-0.29334 -0.0733,-0.36666 -0.14667,-0.44 0,-0.0733 -0.0733,-0.73333 0,-0.66 0,-0.88 -0.29333,-4.10667 -2.86,-10.04667 -2.56667,-5.94 -3.3,-12.1 v -1.39333 q 0,-4.47333 2.71333,-6.82 2.78667,-2.34667 6.74667,-2.34667 4.03333,0 6.74667,2.34667 2.78666,2.34667 2.78666,6.82 0,0.88 -0.0733,1.39333 z" />
    </g>
  </g>
</svg>
