<?xml version="1.0" encoding="UTF-8" standalone="no"?>
<svg
   xmlns:dc="http://purl.org/dc/elements/1.1/"
   xmlns:cc="http://creativecommons.org/ns#"
   xmlns:rdf="http://www.w3.org/1999/02/22-rdf-syntax-ns#"
   xmlns:svg="http://www.w3.org/2000/svg"
   xmlns="http://www.w3.org/2000/svg"
   id="svg8"
   version="1.1"
   viewBox="0 0 198.43749 52.916665"
   height="200"
   width="750">
  <defs
     id="defs2" />
  <metadata
     id="metadata5">
    <rdf:RDF>
      <cc:Work
         rdf:about="">
        <dc:format>image/svg+xml</dc:format>
        <dc:type
           rdf:resource="http://purl.org/dc/dcmitype/StillImage" />
        <dc:title></dc:title>
      </cc:Work>
    </rdf:RDF>
  </metadata>
  <g
     transform="translate(0,-244.08334)"
     id="layer1">
    <g
       id="flowRoot4491"
       style="font-style:normal;font-variant:normal;font-weight:900;font-stretch:normal;font-size:73.33333588px;line-height:150%;font-family:'Besley*';-inkscape-font-specification:'Besley* Heavy';text-align:start;letter-spacing:0px;word-spacing:0px;writing-mode:lr-tb;text-anchor:start;fill:#000000;fill-opacity:1;stroke:none;stroke-width:1px;stroke-linecap:butt;stroke-linejoin:miter;stroke-opacity:1"
       transform="matrix(0.26458333,0,0,0.26458333,-5.8737499,179.55083)"
       aria-label="Introducing
Renner* Thin!">
      <path
         id="path851"
         style="font-style:normal;font-variant:normal;font-weight:200;font-stretch:normal;font-family:'Renner*';-inkscape-font-specification:'Renner* Ultra-Light';fill:#333333;fill-opacity:1"
         d="m 26.233334,258.1862 h 2.2 v 51.33333 h -2.2 z" />
      <path
         id="path853"
         style="font-style:normal;font-variant:normal;font-weight:200;font-stretch:normal;font-family:'Renner*';-inkscape-font-specification:'Renner* Ultra-Light';fill:#333333;fill-opacity:1"
         d="m 43.04271,288.9862 v 20.53333 h -2.2 V 275.7862 h 2.2 v 7.62667 q 1.246666,-3.88667 4.253333,-6.01334 3.006667,-2.2 7.626667,-2.2 4.766667,0 7.26,3.37334 2.493334,3.3 2.493334,8.94666 v 22 h -2.2 v -21.26666 q 0,-10.85334 -8.286667,-10.85334 -4.766667,0 -7.993334,3.59334 -3.153333,3.59333 -3.153333,7.99333 z" />
      <path
         id="path855"
         style="font-style:normal;font-variant:normal;font-weight:200;font-stretch:normal;font-family:'Renner*';-inkscape-font-specification:'Renner* Ultra-Light';fill:#333333;fill-opacity:1"
         d="m 76.014063,264.05287 h 2.2 v 11.73333 h 5.5 v 2.2 h -5.5 v 31.53333 h -2.2 V 277.9862 h -5.5 v -2.2 h 5.5 z" />
      <path
         id="path857"
         style="font-style:normal;font-variant:normal;font-weight:200;font-stretch:normal;font-family:'Renner*';-inkscape-font-specification:'Renner* Ultra-Light';fill:#333333;fill-opacity:1"
         d="m 105.41615,279.9662 q -1.76,-2.34667 -5.06,-2.34667 -3.080004,0 -5.060004,3.66667 -1.98,3.66667 -1.98,7.7 v 20.53333 h -2.2 V 275.7862 h 2.2 v 6.67333 q 1.686667,-7.26 7.846664,-7.26 2.71334,0 5.57334,2.71334 z" />
      <path
         id="path859"
         style="font-style:normal;font-variant:normal;font-weight:200;font-stretch:normal;font-family:'Renner*';-inkscape-font-specification:'Renner* Ultra-Light';fill:#333333;fill-opacity:1"
         d="m 115.57282,305.2662 q -4.47334,-4.91333 -4.47334,-12.61333 0,-7.7 4.47334,-12.54 4.54666,-4.91334 11.44,-4.91334 6.89333,0 11.36667,4.91334 4.54666,4.84 4.54666,12.54 0,7.7 -4.54666,12.61333 -4.47334,4.84 -11.36667,4.84 -6.89334,0 -11.44,-4.84 z m 1.61333,-23.61333 q -3.88667,4.25333 -3.88667,11 0,6.74666 3.88667,11 3.88667,4.25333 9.82667,4.25333 5.94,0 9.82667,-4.25333 3.88666,-4.25334 3.88666,-11 0,-6.74667 -3.88666,-11 -3.88667,-4.25334 -9.82667,-4.25334 -5.94,0 -9.82667,4.25334 z" />
      <path
         id="path861"
         style="font-style:normal;font-variant:normal;font-weight:200;font-stretch:normal;font-family:'Renner*';-inkscape-font-specification:'Renner* Ultra-Light';fill:#333333;fill-opacity:1"
         d="m 154.1049,305.33953 q -4.62,-4.76666 -4.62,-12.68666 0,-7.92 4.62,-12.68667 4.69333,-4.76667 11.73333,-4.76667 4.84,0 8.43334,2.86 3.66666,2.86 5.28,7.55334 v -33.29334 h 2.2 v 57.2 h -2.2 v -9.82666 q -1.61334,4.69333 -5.28,7.55333 -3.59334,2.86 -8.43334,2.86 -7.04,0 -11.73333,-4.76667 z m 1.83333,-23.83333 q -4.18,4.10667 -4.18,11.14667 0,7.04 4.18,11.14666 4.25334,4.10667 9.68,4.10667 6.01334,0 9.97334,-4.4 3.96,-4.4 3.96,-10.85333 0,-6.45334 -3.96,-10.85334 -3.96,-4.4 -9.97334,-4.4 -5.42666,0 -9.68,4.10667 z" />
      <path
         id="path863"
         style="font-style:normal;font-variant:normal;font-weight:200;font-stretch:normal;font-family:'Renner*';-inkscape-font-specification:'Renner* Ultra-Light';fill:#333333;fill-opacity:1"
         d="M 215.44479,296.31953 V 275.7862 h 2.2 v 33.73333 h -2.2 v -7.62666 q -1.24666,3.88666 -4.25333,6.08666 -3.00667,2.12667 -7.62667,2.12667 -4.76666,0 -7.26,-3.3 -2.49333,-3.37333 -2.49333,-9.02 v -22 h 2.2 v 21.26667 q 0,10.85333 8.28667,10.85333 4.76666,0 7.92,-3.59333 3.22666,-3.59334 3.22666,-7.99334 z" />
      <path
         id="path865"
         style="font-style:normal;font-variant:normal;font-weight:200;font-stretch:normal;font-family:'Renner*';-inkscape-font-specification:'Renner* Ultra-Light';fill:#333333;fill-opacity:1"
         d="m 232.90844,281.79953 q -3.88666,4.32667 -3.88666,10.85334 0,6.52666 3.88666,10.92666 3.96,4.32667 10.19334,4.32667 3.74,0 6.45333,-1.17333 2.71333,-1.17334 4.54667,-4.54667 v 3.59333 q -3.66667,4.32667 -11,4.32667 -6.96667,0 -11.66,-4.91333 -4.69334,-4.98667 -4.69334,-12.54 0,-7.55334 4.69334,-12.46667 4.69333,-4.98667 11.66,-4.98667 7.26,0 11,4.32667 v 3.59333 q -3.59334,-5.72 -11,-5.72 -6.23334,0 -10.19334,4.4 z" />
      <path
         id="path867"
         style="font-style:normal;font-variant:normal;font-weight:200;font-stretch:normal;font-family:'Renner*';-inkscape-font-specification:'Renner* Ultra-Light';fill:#333333;fill-opacity:1"
         d="m 265.22324,261.4862 q -0.51333,-0.58667 -0.51333,-1.46667 0,-0.88 0.51333,-1.46666 0.58667,-0.58667 1.54,-0.58667 0.95334,0 1.46667,0.58667 0.58667,0.58666 0.58667,1.46666 0,0.88 -0.58667,1.46667 -0.51333,0.58667 -1.46667,0.58667 -0.95333,0 -1.54,-0.58667 z m 0.44,14.3 h 2.2 v 33.73333 h -2.2 z" />
      <path
         id="path869"
         style="font-style:normal;font-variant:normal;font-weight:200;font-stretch:normal;font-family:'Renner*';-inkscape-font-specification:'Renner* Ultra-Light';fill:#333333;fill-opacity:1"
         d="m 283.52449,288.9862 v 20.53333 h -2.2 V 275.7862 h 2.2 v 7.62667 q 1.24667,-3.88667 4.25333,-6.01334 3.00667,-2.2 7.62667,-2.2 4.76667,0 7.26,3.37334 2.49333,3.3 2.49333,8.94666 v 22 h -2.2 v -21.26666 q 0,-10.85334 -8.28666,-10.85334 -4.76667,0 -7.99334,3.59334 -3.15333,3.59333 -3.15333,7.99333 z" />
      <path
         id="path871"
         style="font-style:normal;font-variant:normal;font-weight:200;font-stretch:normal;font-family:'Renner*';-inkscape-font-specification:'Renner* Ultra-Light';fill:#333333;fill-opacity:1"
         d="m 321.08146,281.5062 q -4.18,4.10667 -4.18,11.14667 0,7.04 4.18,11.14666 4.25333,4.10667 9.68,4.10667 6.01333,0 9.97333,-4.4 3.96,-4.4 3.96,-10.85333 0,-6.45334 -3.96,-10.85334 -3.96,-4.4 -9.97333,-4.4 -5.42667,0 -9.68,4.10667 z m -5.42667,30.21333 h 2.2 q 0,5.57334 3.44667,9.02 3.44667,3.44667 9.24,3.44667 6.08667,0 10.12,-4.03333 4.03333,-3.96 4.03333,-11.36667 v -9.09333 q -1.61333,4.69333 -5.28,7.55333 -3.59333,2.86 -8.43333,2.86 -7.04,0 -11.73333,-4.76667 -4.62,-4.76666 -4.62,-12.68666 0,-7.92 4.62,-12.68667 4.69333,-4.76667 11.73333,-4.76667 4.84,0 8.43333,2.86 3.66667,2.86 5.28,7.55334 v -9.82667 h 2.2 v 33 q 0,8.43333 -4.62,12.98 -4.54666,4.62 -11.73333,4.62 -6.82,0 -10.85333,-4.03333 -4.03334,-4.03334 -4.03334,-10.63334 z" />
      <path
         id="path873"
         style="fill:#333333"
         d="m 28.8,368.1862 z m -2.2,0 h 11.000001 q 7.773333,0 12.54,3.81333 4.766667,3.74 4.766667,11.07334 0,6.89333 -4.253334,10.63333 -4.18,3.74 -11.22,4.18 l 16.720001,21.63333 h -2.860001 l -16.353333,-21.56 H 28.8 v 21.56 h -2.2 z m 2.2,2.12667 v 25.52 h 8.800001 q 6.82,0 10.926667,-3.22667 4.106666,-3.3 4.106666,-9.53333 0,-6.23334 -4.106666,-9.46 -4.106667,-3.3 -10.926667,-3.3 z" />
      <path
         id="path875"
         style="fill:#333333"
         d="m 88.046459,400.9662 q -0.07333,-5.5 -3.52,-9.53333 -3.446666,-4.03334 -8.8,-4.03334 -5.353334,0 -9.166667,4.10667 -3.74,4.10667 -3.886667,9.46 z m -25.52,2.2 q 0.146666,6.16 4.033333,10.41333 3.886667,4.25334 9.313334,4.25334 8.14,0 12.393333,-8.06667 l 1.906667,1.17333 q -4.766667,9.16667 -14.446667,9.16667 -6.233334,0 -10.853334,-4.98667 -4.62,-4.98666 -4.62,-12.46666 0,-7.62667 4.4,-12.54 4.4,-4.91334 11.073334,-4.91334 6.526667,0 10.56,4.69334 4.106667,4.62 4.106667,12.46666 0,0.44 -0.07333,0.80667 z" />
      <path
         id="path877"
         style="fill:#333333"
         d="m 102.19636,398.9862 v 20.53333 H 99.996357 V 385.7862 h 2.200003 v 7.62667 q 1.24666,-3.88667 4.25333,-6.01334 3.00667,-2.2 7.62667,-2.2 4.76666,0 7.26,3.37334 2.49333,3.3 2.49333,8.94666 v 22 h -2.2 v -21.26666 q 0,-10.85334 -8.28667,-10.85334 -4.76666,0 -7.99333,3.59334 -3.15333,3.59333 -3.15333,7.99333 z" />
      <path
         id="path879"
         style="fill:#333333"
         d="m 138.43333,398.9862 v 20.53333 h -2.2 V 385.7862 h 2.2 v 7.62667 q 1.24667,-3.88667 4.25334,-6.01334 3.00666,-2.2 7.62666,-2.2 4.76667,0 7.26,3.37334 2.49334,3.3 2.49334,8.94666 v 22 h -2.2 v -21.26666 q 0,-10.85334 -8.28667,-10.85334 -4.76667,0 -7.99333,3.59334 -3.15334,3.59333 -3.15334,7.99333 z" />
      <path
         id="path881"
         style="fill:#333333"
         d="m 197.33032,400.9662 q -0.0733,-5.5 -3.52,-9.53333 -3.44667,-4.03334 -8.8,-4.03334 -5.35334,0 -9.16667,4.10667 -3.74,4.10667 -3.88667,9.46 z m -25.52,2.2 q 0.14666,6.16 4.03333,10.41333 3.88667,4.25334 9.31333,4.25334 8.14001,0 12.39334,-8.06667 l 1.90667,1.17333 q -4.76667,9.16667 -14.44667,9.16667 -6.23334,0 -10.85334,-4.98667 -4.62,-4.98666 -4.62,-12.46666 0,-7.62667 4.4,-12.54 4.4,-4.91334 11.07334,-4.91334 6.52667,0 10.56,4.69334 4.10667,4.62 4.10667,12.46666 0,0.44 -0.0733,0.80667 z" />
      <path
         id="path883"
         style="fill:#333333"
         d="m 223.58021,389.9662 q -1.76,-2.34667 -5.06,-2.34667 -3.08,0 -5.06,3.66667 -1.98,3.66667 -1.98,7.7 v 20.53333 h -2.2 V 385.7862 h 2.2 v 6.67333 q 1.68667,-7.26 7.84667,-7.26 2.71333,0 5.57333,2.71334 z" />
      <path
         id="path885"
         style="font-style:normal;font-variant:normal;font-weight:200;font-stretch:normal;font-family:'Renner*';-inkscape-font-specification:'Renner* Ultra-Light';fill:#660000;fill-opacity:1"
         d="m 246.57021,368.1862 h 2.2 l -0.36666,13.27333 12.54,-4.47333 0.66,2.12667 -12.68667,3.74 8.06667,10.56 -1.83334,1.32 -7.48,-10.92667 -7.48,10.92667 -1.83333,-1.32 8.06667,-10.56 -12.68667,-3.74 0.66,-2.12667 12.54,4.47333 z" />
      <path
         id="path887"
         style="fill:#333333"
         d="m 292.88595,370.31287 v -2.12667 h 28.6 v 2.12667 h -13.2 v 49.20666 h -2.2 v -49.20666 z" />
      <path
         id="path889"
         style="fill:#333333"
         d="m 331.36302,398.9862 v 20.53333 h -2.2 v -57.2 h 2.2 v 31.09334 q 1.24667,-3.88667 4.25333,-6.01334 3.00667,-2.2 7.62667,-2.2 4.76667,0 7.26,3.37334 2.49334,3.3 2.49334,8.94666 v 22 h -2.2 v -21.26666 q 0,-10.85334 -8.28667,-10.85334 -4.76667,0 -7.99334,3.59334 -3.15333,3.59333 -3.15333,7.99333 z" />
      <path
         id="path891"
         style="fill:#333333"
         d="m 365.91335,371.4862 q -0.51333,-0.58667 -0.51333,-1.46667 0,-0.88 0.51333,-1.46666 0.58667,-0.58667 1.54,-0.58667 0.95334,0 1.46667,0.58667 0.58667,0.58666 0.58667,1.46666 0,0.88 -0.58667,1.46667 -0.51333,0.58667 -1.46667,0.58667 -0.95333,0 -1.54,-0.58667 z m 0.44,14.3 h 2.2 v 33.73333 h -2.2 z" />
      <path
         id="path893"
         style="fill:#333333"
         d="m 384.21458,398.9862 v 20.53333 h -2.2 V 385.7862 h 2.2 v 7.62667 q 1.24667,-3.88667 4.25334,-6.01334 3.00666,-2.2 7.62666,-2.2 4.76667,0 7.26,3.37334 2.49334,3.3 2.49334,8.94666 v 22 h -2.2 v -21.26666 q 0,-10.85334 -8.28667,-10.85334 -4.76667,0 -7.99333,3.59334 -3.15334,3.59333 -3.15334,7.99333 z" />
      <path
         id="path895"
         style="fill:#333333"
         d="m 423.01825,420.47287 q -2.2,0 -2.2,-2.2 0,-2.2 2.2,-2.2 2.2,0 2.2,2.2 0,2.2 -2.2,2.2 z m -1.17333,-52.28667 h 2.34666 l -0.51333,36.66667 h -1.32 z" />
    </g>
    <g
       id="flowRoot822"
       style="font-style:normal;font-variant:normal;font-weight:normal;font-stretch:normal;font-size:13.75px;line-height:24px;font-family:'Renner*';-inkscape-font-specification:'Renner*, Normal';text-align:center;letter-spacing:0px;word-spacing:0px;writing-mode:lr-tb;text-anchor:middle;fill:#000000;fill-opacity:1;stroke:none;stroke-width:1px;stroke-linecap:butt;stroke-linejoin:miter;stroke-opacity:1" />
  </g>
</svg>
