<?xml version="1.0" encoding="UTF-8" standalone="no"?>
<svg
   xmlns:dc="http://purl.org/dc/elements/1.1/"
   xmlns:cc="http://creativecommons.org/ns#"
   xmlns:rdf="http://www.w3.org/1999/02/22-rdf-syntax-ns#"
   xmlns:svg="http://www.w3.org/2000/svg"
   xmlns="http://www.w3.org/2000/svg"
   xmlns:sodipodi="http://sodipodi.sourceforge.net/DTD/sodipodi-0.dtd"
   xmlns:inkscape="http://www.inkscape.org/namespaces/inkscape"
   viewBox="0 0 1500 600"
   height="640"
   width="1600"
   version="1.1"
   id="svg2"
   sodipodi:docname="1.svg"
   inkscape:version="0.92.3 (unknown)">
  <sodipodi:namedview
     pagecolor="#ffffff"
     bordercolor="#666666"
     borderopacity="1"
     objecttolerance="10"
     gridtolerance="10"
     guidetolerance="10"
     inkscape:pageopacity="0"
     inkscape:pageshadow="2"
     inkscape:window-width="1920"
     inkscape:window-height="1027"
     id="namedview124"
     showgrid="false"
     inkscape:zoom="0.94045202"
     inkscape:cx="1032.9287"
     inkscape:cy="281.0041"
     inkscape:window-x="0"
     inkscape:window-y="25"
     inkscape:window-maximized="1"
     inkscape:current-layer="svg2" />
  <metadata
     id="metadata8">
    <rdf:RDF>
      <cc:Work
         rdf:about="">
        <dc:format>image/svg+xml</dc:format>
        <dc:type
           rdf:resource="http://purl.org/dc/dcmitype/StillImage" />
        <dc:title />
      </cc:Work>
    </rdf:RDF>
  </metadata>
  <defs
     id="defs6" />
  <path
     id="rect3354"
     d="M 0,0 H 1500 V 600 H 0 Z"
     style="fill:#f2f2f2" />
  <g
     id="flowRoot3338"
     style="font-style:normal;font-weight:normal;font-size:12.52019596px;line-height:1;font-family:sans-serif;text-align:end;letter-spacing:0px;word-spacing:0px;text-anchor:end;fill:#333333;fill-opacity:1;stroke:none;stroke-width:1px;stroke-linecap:butt;stroke-linejoin:miter;stroke-opacity:1"
     transform="matrix(5.0630513,0,0,5.0630513,88.760794,-321.07399)"
     aria-label="Renner* Renner* Renner* Renner* Renner* Renner* Renner* Renner* Renner*">
    <path
       id="path854"
       style="font-style:normal;font-variant:normal;font-weight:100;font-stretch:normal;font-size:12.52019596px;line-height:1;font-family:'Renner*';-inkscape-font-specification:'Renner* Thin';text-align:end;text-anchor:end;fill:#333333"
       d="m 88.341393,71.030955 v 3.931342 H 88.20367 V 66.19816 h 1.439823 q 1.327141,0 2.140953,0.626009 0.813813,0.62601 0.813813,1.790388 0,1.139338 -0.788772,1.765348 -0.788772,0.62601 -2.065832,0.65105 l 2.754443,3.931342 h -0.175283 l -2.729403,-3.931342 z m 0,-0.125202 h 1.3021 q 1.28958,0 2.053312,-0.588449 0.763732,-0.588449 0.763732,-1.702747 0,-1.114297 -0.776252,-1.690226 -0.763732,-0.588449 -2.040792,-0.588449 h -1.3021 z" />
    <path
       id="path856"
       style="font-style:normal;font-variant:normal;font-weight:100;font-stretch:normal;font-size:12.52019596px;line-height:1;font-family:'Renner*';-inkscape-font-specification:'Renner* Thin';text-align:end;text-anchor:end;fill:#333333"
       d="m 98.529702,71.794687 q 0,-1.089257 -0.713651,-1.840469 -0.713651,-0.751211 -1.677707,-0.751211 -1.001615,0 -1.740307,0.763732 -0.738691,0.763732 -0.763732,2.015751 h 4.895397 z m -5.020599,0.262924 q 0,-1.28958 0.751212,-2.128433 0.751212,-0.851373 1.878029,-0.851373 1.014136,0 1.765348,0.776252 0.763732,0.776252 0.763732,1.92811 0,0.125202 -0.02504,0.325525 h -5.008079 q 0.01252,1.214459 0.713651,2.040792 0.713652,0.813813 1.727787,0.813813 0.525849,0 0.926495,-0.125202 0.413166,-0.125202 0.688611,-0.363086 0.287964,-0.237884 0.438207,-0.425686 0.150242,-0.200324 0.338045,-0.500808 l 0.100161,0.07512 q -0.200323,0.313005 -0.350565,0.500808 -0.137722,0.175282 -0.438207,0.438207 -0.287964,0.262924 -0.726171,0.400646 -0.425687,0.125202 -0.976576,0.125202 -1.089257,0 -1.827948,-0.863894 -0.738692,-0.863893 -0.738692,-2.165994 z" />
    <path
       id="path858"
       style="font-style:normal;font-variant:normal;font-weight:100;font-stretch:normal;font-size:12.52019596px;line-height:1;font-family:'Renner*';-inkscape-font-specification:'Renner* Thin';text-align:end;text-anchor:end;fill:#333333"
       d="m 103.98792,70.955834 q 0,-1.752827 -1.53998,-1.752827 -0.83886,0 -1.43983,0.67609 -0.58845,0.676091 -0.58845,1.577545 v 3.505655 h -0.1252 v -5.75929 h 0.1252 v 1.652666 q 0.17529,-0.788773 0.72618,-1.27706 0.55088,-0.500808 1.3021,-0.500808 1.66518,0 1.66518,1.878029 v 4.006463 h -0.1252 z" />
    <path
       id="path860"
       style="font-style:normal;font-variant:normal;font-weight:100;font-stretch:normal;font-size:12.52019596px;line-height:1;font-family:'Renner*';-inkscape-font-specification:'Renner* Thin';text-align:end;text-anchor:end;fill:#333333"
       d="m 109.93012,70.955834 q 0,-1.752827 -1.53998,-1.752827 -0.83885,0 -1.43982,0.67609 -0.58845,0.676091 -0.58845,1.577545 v 3.505655 h -0.1252 v -5.75929 h 0.1252 v 1.652666 q 0.17528,-0.788773 0.72617,-1.27706 0.55089,-0.500808 1.3021,-0.500808 1.66519,0 1.66519,1.878029 v 4.006463 h -0.12521 z" />
    <path
       id="path862"
       style="font-style:normal;font-variant:normal;font-weight:100;font-stretch:normal;font-size:12.52019596px;line-height:1;font-family:'Renner*';-inkscape-font-specification:'Renner* Thin';text-align:end;text-anchor:end;fill:#333333"
       d="m 116.69866,71.794687 q 0,-1.089257 -0.71365,-1.840469 -0.71365,-0.751211 -1.67771,-0.751211 -1.00161,0 -1.74031,0.763732 -0.73869,0.763732 -0.76373,2.015751 h 4.8954 z m -5.0206,0.262924 q 0,-1.28958 0.75121,-2.128433 0.75121,-0.851373 1.87803,-0.851373 1.01414,0 1.76535,0.776252 0.76373,0.776252 0.76373,1.92811 0,0.125202 -0.025,0.325525 h -5.00808 q 0.0125,1.214459 0.71365,2.040792 0.71365,0.813813 1.72779,0.813813 0.52585,0 0.92649,-0.125202 0.41317,-0.125202 0.68861,-0.363086 0.28797,-0.237884 0.43821,-0.425686 0.15024,-0.200324 0.33805,-0.500808 l 0.10016,0.07512 q -0.20032,0.313005 -0.35057,0.500808 -0.13772,0.175282 -0.4382,0.438207 -0.28797,0.262924 -0.72618,0.400646 -0.42568,0.125202 -0.97657,0.125202 -1.08926,0 -1.82795,-0.863894 -0.73869,-0.863893 -0.73869,-2.165994 z" />
    <path
       id="path864"
       style="font-style:normal;font-variant:normal;font-weight:100;font-stretch:normal;font-size:12.52019596px;line-height:1;font-family:'Renner*';-inkscape-font-specification:'Renner* Thin';text-align:end;text-anchor:end;fill:#333333"
       d="m 120.76714,69.453411 q -0.35057,-0.250404 -0.71366,-0.250404 -0.71365,0 -1.08925,0.65105 -0.37561,0.63853 -0.37561,1.602585 v 3.505655 h -0.1252 v -5.75929 h 0.1252 v 1.452342 q 0.27545,-1.577544 1.46486,-1.577544 0.40065,0 0.78878,0.275444 z" />
    <path
       id="path866"
       style="fill:#c83737"
       d="m 124.64918,66.19816 h 0.15024 l -0.0376,2.128433 2.02827,-0.688611 0.0376,0.150243 -2.04079,0.626009 1.28958,1.702747 -0.1252,0.08764 -1.22698,-1.740307 -1.22698,1.740307 -0.1252,-0.08764 1.28958,-1.702747 -2.04079,-0.626009 0.0376,-0.150243 2.02827,0.688611 z" />
    <path
       id="path868"
       style="font-style:normal;font-variant:normal;font-weight:200;font-stretch:normal;font-size:12.52019596px;line-height:1;font-family:'Renner*';-inkscape-font-specification:'Renner* Ultra-Light';text-align:end;text-anchor:end;fill:#333333"
       d="m 87.431135,84.205135 v 3.781099 h -0.475767 v -8.764137 h 1.777868 q 1.31462,0 2.140953,0.66357 0.826333,0.651051 0.826333,1.827949 0,1.089257 -0.713651,1.740307 -0.701131,0.63853 -1.852989,0.738692 l 2.691842,3.793619 h -0.575929 l -2.641761,-3.781099 z m 0,-0.413166 h 1.302101 q 1.139337,0 1.815428,-0.538369 0.688611,-0.538368 0.688611,-1.539984 0,-1.001616 -0.688611,-1.527464 -0.688611,-0.538368 -1.815428,-0.538368 h -1.302101 z" />
    <path
       id="path870"
       style="font-style:normal;font-variant:normal;font-weight:200;font-stretch:normal;font-size:12.52019596px;line-height:1;font-family:'Renner*';-inkscape-font-specification:'Renner* Ultra-Light';text-align:end;text-anchor:end;fill:#333333"
       d="m 92.676511,85.094069 q 0,-1.314621 0.763732,-2.153474 0.776252,-0.838853 1.95315,-0.838853 1.089257,0 1.840469,0.788773 0.751212,0.788772 0.751212,2.003231 0,0.125202 -0.02504,0.325525 h -4.832795 q 0.03756,1.089257 0.66357,1.790388 0.62601,0.688611 1.565025,0.688611 0.838853,0 1.32714,-0.350566 0.488288,-0.350565 0.851374,-0.939014 l 0.350565,0.237883 q -0.212843,0.325525 -0.388126,0.538369 -0.175283,0.212843 -0.488288,0.450727 -0.300484,0.237884 -0.726171,0.350565 -0.425687,0.125202 -0.976575,0.125202 -1.126818,0 -1.87803,-0.851373 -0.751211,-0.863894 -0.751211,-2.165994 z m 4.870356,-0.300485 q -0.01252,-0.976575 -0.63853,-1.627625 -0.62601,-0.663571 -1.527464,-0.663571 -0.901454,0 -1.552504,0.62601 -0.63853,0.61349 -0.688611,1.665186 z" />
    <path
       id="path872"
       style="font-style:normal;font-variant:normal;font-weight:200;font-stretch:normal;font-size:12.52019596px;line-height:1;font-family:'Renner*';-inkscape-font-specification:'Renner* Ultra-Light';text-align:end;text-anchor:end;fill:#333333"
       d="m 103.20423,84.155054 q 0,-1.640145 -1.4273,-1.640145 -0.76373,0 -1.28958,0.575929 -0.525847,0.575929 -0.525847,1.389741 v 3.505655 h -0.450727 v -5.75929 h 0.450727 v 1.28958 q 0.237887,-0.65105 0.738687,-1.026656 0.51333,-0.388126 1.1769,-0.388126 0.87642,0 1.32714,0.538369 0.45073,0.525848 0.45073,1.477383 v 3.86874 h -0.45073 z" />
    <path
       id="path874"
       style="font-style:normal;font-variant:normal;font-weight:200;font-stretch:normal;font-size:12.52019596px;line-height:1;font-family:'Renner*';-inkscape-font-specification:'Renner* Ultra-Light';text-align:end;text-anchor:end;fill:#333333"
       d="m 109.36652,84.155054 q 0,-1.640145 -1.4273,-1.640145 -0.76374,0 -1.28958,0.575929 -0.52585,0.575929 -0.52585,1.389741 v 3.505655 h -0.45073 v -5.75929 h 0.45073 v 1.28958 q 0.23788,-0.65105 0.73869,-1.026656 0.51333,-0.388126 1.1769,-0.388126 0.87641,0 1.32714,0.538369 0.45073,0.525848 0.45073,1.477383 v 3.86874 h -0.45073 z" />
    <path
       id="path876"
       style="font-style:normal;font-variant:normal;font-weight:200;font-stretch:normal;font-size:12.52019596px;line-height:1;font-family:'Renner*';-inkscape-font-specification:'Renner* Ultra-Light';text-align:end;text-anchor:end;fill:#333333"
       d="m 111.33454,85.094069 q 0,-1.314621 0.76373,-2.153474 0.77625,-0.838853 1.95315,-0.838853 1.08926,0 1.84047,0.788773 0.75121,0.788772 0.75121,2.003231 0,0.125202 -0.025,0.325525 h -4.8328 q 0.0376,1.089257 0.66357,1.790388 0.62601,0.688611 1.56503,0.688611 0.83885,0 1.32714,-0.350566 0.48829,-0.350565 0.85137,-0.939014 l 0.35057,0.237883 q -0.21285,0.325525 -0.38813,0.538369 -0.17528,0.212843 -0.48829,0.450727 -0.30048,0.237884 -0.72617,0.350565 -0.42568,0.125202 -0.97657,0.125202 -1.12682,0 -1.87803,-0.851373 -0.75121,-0.863894 -0.75121,-2.165994 z m 4.87035,-0.300485 q -0.0125,-0.976575 -0.63853,-1.627625 -0.62601,-0.663571 -1.52746,-0.663571 -0.90146,0 -1.55251,0.62601 -0.63853,0.61349 -0.68861,1.665186 z" />
    <path
       id="path878"
       style="font-style:normal;font-variant:normal;font-weight:200;font-stretch:normal;font-size:12.52019596px;line-height:1;font-family:'Renner*';-inkscape-font-specification:'Renner* Ultra-Light';text-align:end;text-anchor:end;fill:#333333"
       d="m 120.63528,82.790353 q -0.40065,-0.275444 -0.73869,-0.275444 -0.65105,0 -0.96406,0.550888 -0.313,0.550889 -0.313,1.414782 v 3.505655 h -0.45073 v -5.75929 h 0.45073 v 0.976575 q 0.41317,-1.101777 1.3647,-1.101777 0.53837,0 0.90145,0.325525 z" />
    <path
       id="path880"
       style="fill:#c83737"
       d="m 124.52398,79.222097 h 0.40064 l -0.0626,2.078353 1.97819,-0.701131 0.11268,0.400646 -1.99071,0.575929 1.27706,1.652666 -0.33804,0.237884 -1.1769,-1.715267 -1.1769,1.715267 -0.33804,-0.237884 1.27706,-1.652666 -1.99072,-0.575929 0.11269,-0.400646 1.97819,0.701131 z" />
    <path
       id="path882"
       style="font-style:normal;font-variant:normal;font-weight:300;font-stretch:normal;font-size:12.52019596px;line-height:1;font-family:'Renner*';-inkscape-font-specification:'Renner* Light';text-align:end;text-anchor:end;fill:#333333"
       d="m 86.763065,97.329238 v 3.680942 h -0.68861 v -8.764142 h 2.003231 q 1.3021,0 2.128433,0.688611 0.838853,0.676091 0.838853,1.852989 0,1.039176 -0.66357,1.702747 -0.65105,0.65105 -1.727787,0.801292 l 2.666802,3.718503 h -0.851374 l -2.55412,-3.680942 z m 0,-0.61349 h 1.314621 q 1.039176,0 1.652666,-0.500808 0.62601,-0.500808 0.62601,-1.427302 0,-0.926495 -0.62601,-1.427302 -0.62601,-0.500808 -1.652666,-0.500808 h -1.314621 z" />
    <path
       id="path884"
       style="font-style:normal;font-variant:normal;font-weight:300;font-stretch:normal;font-size:12.52019596px;line-height:1;font-family:'Renner*';-inkscape-font-specification:'Renner* Light';text-align:end;text-anchor:end;fill:#333333"
       d="m 92.064586,98.11801 q 0,-1.339661 0.776252,-2.165994 0.776252,-0.826333 1.990711,-0.826333 1.139338,0 1.89055,0.801293 0.751212,0.788772 0.751212,2.053312 0,0.112682 -0.02504,0.313005 h -4.720114 q 0.05008,1.014136 0.61349,1.627625 0.575929,0.600972 1.464863,0.600972 1.3021,0 2.040792,-1.189421 l 0.525848,0.338045 q -0.463247,0.701136 -1.039176,1.089256 -0.575929,0.37561 -1.602585,0.37561 -1.139338,0 -1.90307,-0.85138 -0.763732,-0.86389 -0.763732,-2.16599 z m 4.770195,-0.388126 q -0.05008,-0.876414 -0.61349,-1.452343 -0.563409,-0.575929 -1.402262,-0.575929 -0.826333,0 -1.427302,0.550889 -0.60097,0.550888 -0.65105,1.477383 z" />
    <path
       id="path886"
       style="font-style:normal;font-variant:normal;font-weight:300;font-stretch:normal;font-size:12.52019596px;line-height:1;font-family:'Renner*';-inkscape-font-specification:'Renner* Light';text-align:end;text-anchor:end;fill:#333333"
       d="m 102.64122,97.304197 q 0,-1.565024 -1.35218,-1.565024 -0.72618,0 -1.21446,0.513328 -0.475771,0.513328 -0.475771,1.252019 v 3.50566 h -0.65105 v -5.759295 h 0.65105 v 1.126818 q 0.262924,-0.575929 0.738691,-0.913974 0.48829,-0.338046 1.10178,-0.338046 0.88893,0 1.3647,0.550889 0.48829,0.550888 0.48829,1.552504 v 3.781104 h -0.65105 z" />
    <path
       id="path888"
       style="font-style:normal;font-variant:normal;font-weight:300;font-stretch:normal;font-size:12.52019596px;line-height:1;font-family:'Renner*';-inkscape-font-specification:'Renner* Light';text-align:end;text-anchor:end;fill:#333333"
       d="m 108.97467,97.304197 q 0,-1.565024 -1.35218,-1.565024 -0.72617,0 -1.21446,0.513328 -0.47576,0.513328 -0.47576,1.252019 v 3.50566 h -0.65105 v -5.759295 h 0.65105 v 1.126818 q 0.26292,-0.575929 0.73869,-0.913974 0.48829,-0.338046 1.10178,-0.338046 0.88893,0 1.3647,0.550889 0.48829,0.550888 0.48829,1.552504 v 3.781104 h -0.65106 z" />
    <path
       id="path890"
       style="font-style:normal;font-variant:normal;font-weight:300;font-stretch:normal;font-size:12.52019596px;line-height:1;font-family:'Renner*';-inkscape-font-specification:'Renner* Light';text-align:end;text-anchor:end;fill:#333333"
       d="m 111.11387,98.11801 q 0,-1.339661 0.77625,-2.165994 0.77625,-0.826333 1.99071,-0.826333 1.13934,0 1.89055,0.801293 0.75121,0.788772 0.75121,2.053312 0,0.112682 -0.025,0.313005 h -4.72011 q 0.0501,1.014136 0.61349,1.627625 0.57593,0.600972 1.46486,0.600972 1.3021,0 2.04079,-1.189421 l 0.52585,0.338045 q -0.46325,0.701136 -1.03917,1.089256 -0.57593,0.37561 -1.60259,0.37561 -1.13934,0 -1.90307,-0.85138 -0.76373,-0.86389 -0.76373,-2.16599 z m 4.77019,-0.388126 q -0.0501,-0.876414 -0.61349,-1.452343 -0.5634,-0.575929 -1.40226,-0.575929 -0.82633,0 -1.4273,0.550889 -0.60097,0.550888 -0.65105,1.477383 z" />
    <path
       id="path892"
       style="font-style:normal;font-variant:normal;font-weight:300;font-stretch:normal;font-size:12.52019596px;line-height:1;font-family:'Renner*';-inkscape-font-specification:'Renner* Light';text-align:end;text-anchor:end;fill:#333333"
       d="m 120.56368,96.014617 q -0.38812,-0.275444 -0.75121,-0.275444 -0.60097,0 -0.88893,0.488287 -0.27545,0.488288 -0.27545,1.27706 v 3.50566 h -0.65105 v -5.759295 h 0.65105 v 0.838853 q 0.47577,-0.964055 1.31462,-0.964055 0.60097,0 0.96406,0.350566 z" />
    <path
       id="path894"
       style="fill:#c83737"
       d="m 124.43634,92.246038 h 0.57592 l -0.0751,2.040792 1.92811,-0.701131 0.17529,0.563409 -1.96567,0.550889 1.26453,1.602585 -0.47576,0.350565 -1.13934,-1.702747 -1.13934,1.702747 -0.47577,-0.350565 1.26454,-1.602585 -1.96567,-0.550889 0.17529,-0.563409 1.92811,0.701131 z" />
    <path
       id="path896"
       style="font-style:normal;font-variant:normal;font-weight:normal;font-stretch:normal;font-size:12.52019596px;line-height:1;font-family:'Renner*';-inkscape-font-specification:'Renner*';text-align:end;text-anchor:end;fill:#333333"
       d="m 85.694741,110.3496 v 3.50566 h -1.064217 v -8.76414 h 2.378837 q 1.28958,0 2.128433,0.72617 0.851374,0.71365 0.851374,1.90307 0,0.96406 -0.575929,1.64015 -0.563409,0.66357 -1.514944,0.88893 l 2.616721,3.60582 h -1.314621 l -2.441438,-3.50566 z m 0,-0.93901 h 1.31462 q 0.863894,0 1.389742,-0.45073 0.525848,-0.45073 0.525848,-1.2395 0,-0.78877 -0.525848,-1.2395 -0.525848,-0.45073 -1.389742,-0.45073 h -1.31462 z" />
    <path
       id="path898"
       style="font-style:normal;font-variant:normal;font-weight:normal;font-stretch:normal;font-size:12.52019596px;line-height:1;font-family:'Renner*';-inkscape-font-specification:'Renner*';text-align:end;text-anchor:end;fill:#333333"
       d="m 91.085272,110.97561 q 0,-1.33966 0.801292,-2.16599 0.801293,-0.83886 2.053312,-0.83886 1.226979,0 1.965671,0.8013 0.751212,0.80129 0.751212,2.15347 0,0.20032 -0.01252,0.30049 h -4.532311 q 0.0626,0.86389 0.550888,1.33966 0.488288,0.47576 1.27706,0.47576 1.164378,0 1.802908,-1.03917 l 0.813813,0.51333 q -0.475767,0.73869 -1.089257,1.10177 -0.613489,0.36309 -1.652666,0.36309 -1.176898,0 -1.95315,-0.85137 -0.776252,-0.85138 -0.776252,-2.15348 z m 4.48223,-0.60097 q -0.07512,-0.70113 -0.488288,-1.1143 -0.413166,-0.41316 -1.139338,-0.41316 -0.713651,0 -1.226979,0.42568 -0.500808,0.41317 -0.575929,1.10178 z" />
    <path
       id="path900"
       style="font-style:normal;font-variant:normal;font-weight:normal;font-stretch:normal;font-size:12.52019596px;line-height:1;font-family:'Renner*';-inkscape-font-specification:'Renner*';text-align:end;text-anchor:end;fill:#333333"
       d="m 101.73526,110.3496 q 0,-1.43982 -1.22698,-1.43982 -0.651046,0 -1.064212,0.41317 -0.400647,0.40064 -0.400647,1.02665 v 3.50566 h -1.001615 v -5.75929 h 1.001615 v 0.91397 q 0.575929,-1.03918 1.715269,-1.03918 0.91397,0 1.43982,0.58845 0.53837,0.57593 0.53837,1.66519 v 3.63086 h -1.00162 z" />
    <path
       id="path902"
       style="font-style:normal;font-variant:normal;font-weight:normal;font-stretch:normal;font-size:12.52019596px;line-height:1;font-family:'Renner*';-inkscape-font-specification:'Renner*';text-align:end;text-anchor:end;fill:#333333"
       d="m 108.31326,110.3496 q 0,-1.43982 -1.22698,-1.43982 -0.65105,0 -1.06422,0.41317 -0.40065,0.40064 -0.40065,1.02665 v 3.50566 h -1.00161 v -5.75929 h 1.00161 v 0.91397 q 0.57593,-1.03918 1.71527,-1.03918 0.91398,0 1.43982,0.58845 0.53837,0.57593 0.53837,1.66519 v 3.63086 h -1.00161 z" />
    <path
       id="path904"
       style="font-style:normal;font-variant:normal;font-weight:normal;font-stretch:normal;font-size:12.52019596px;line-height:1;font-family:'Renner*';-inkscape-font-specification:'Renner*';text-align:end;text-anchor:end;fill:#333333"
       d="m 110.69698,110.97561 q 0,-1.33966 0.8013,-2.16599 0.80129,-0.83886 2.05331,-0.83886 1.22698,0 1.96567,0.8013 0.75121,0.80129 0.75121,2.15347 0,0.20032 -0.0125,0.30049 h -4.53231 q 0.0626,0.86389 0.55089,1.33966 0.48829,0.47576 1.27706,0.47576 1.16438,0 1.80291,-1.03917 l 0.81381,0.51333 q -0.47577,0.73869 -1.08926,1.10177 -0.61349,0.36309 -1.65266,0.36309 -1.1769,0 -1.95315,-0.85137 -0.77626,-0.85138 -0.77626,-2.15348 z m 4.48223,-0.60097 q -0.0751,-0.70113 -0.48828,-1.1143 -0.41317,-0.41316 -1.13934,-0.41316 -0.71365,0 -1.22698,0.42568 -0.50081,0.41317 -0.57593,1.10178 z" />
    <path
       id="path906"
       style="font-style:normal;font-variant:normal;font-weight:normal;font-stretch:normal;font-size:12.52019596px;line-height:1;font-family:'Renner*';-inkscape-font-specification:'Renner*';text-align:end;text-anchor:end;fill:#333333"
       d="m 120.39544,109.19774 q -0.40065,-0.28796 -0.77625,-0.28796 -0.96406,0 -0.96406,1.43982 v 3.50566 h -1.00161 v -5.75929 h 1.00161 v 0.66357 q 0.52585,-0.78878 1.21446,-0.78878 0.68861,0 1.07674,0.40065 z" />
    <path
       id="path908"
       style="fill:#c83737"
       d="m 124.28609,105.09112 h 0.87641 l -0.10016,1.97819 1.85299,-0.71365 0.26293,0.83885 -1.90307,0.51333 1.2395,1.53998 -0.71366,0.51333 -1.07673,-1.65266 -1.07674,1.65266 -0.71365,-0.51333 1.2395,-1.53998 -1.90307,-0.51333 0.26292,-0.83885 1.85299,0.71365 z" />
    <path
       id="path910"
       style="font-style:normal;font-variant:normal;font-weight:500;font-stretch:normal;font-size:12.52019596px;line-height:1;font-family:'Renner*';-inkscape-font-specification:'Renner* Medium';text-align:end;text-anchor:end;fill:#333333"
       d="m 84.297761,122.34688 h 1.164378 q 0.776252,0 1.226979,-0.38812 0.463247,-0.38813 0.463247,-1.08926 0,-0.70113 -0.463247,-1.08926 -0.450727,-0.38812 -1.226979,-0.38812 h -1.164378 z m 0,1.21446 v 3.31785 h -1.477384 v -8.76413 h 2.704363 q 1.427302,0 2.291196,0.75121 0.863893,0.73869 0.863893,1.97819 0,0.95153 -0.513328,1.6151 -0.513328,0.66358 -1.439822,0.93902 l 2.478998,3.48061 h -1.790388 l -2.216074,-3.31785 z" />
    <path
       id="path912"
       style="font-style:normal;font-variant:normal;font-weight:500;font-stretch:normal;font-size:12.52019596px;line-height:1;font-family:'Renner*';-inkscape-font-specification:'Renner* Medium';text-align:end;text-anchor:end;fill:#333333"
       d="m 94.147438,123.37354 q -0.07512,-0.63853 -0.438207,-0.9891 -0.363086,-0.36308 -0.989096,-0.36308 -0.626009,0 -1.064216,0.36308 -0.425687,0.36309 -0.513328,0.9891 z m -3.029888,0.93901 q 0.07512,0.77626 0.500808,1.1769 0.425687,0.40065 1.114297,0.40065 1.101778,0 1.652666,-0.91398 l 1.176899,0.47577 q -0.475768,0.76373 -1.139338,1.16438 -0.65105,0.38813 -1.752827,0.38813 -1.314621,0 -2.128434,-0.83886 -0.813813,-0.85137 -0.813813,-2.16599 0,-0.35057 0.05008,-0.61349 0.187803,-1.08926 0.964055,-1.74031 0.776252,-0.65105 1.990711,-0.65105 1.327141,0 2.103393,0.78877 0.776253,0.78878 0.776253,2.15348 0,0.10016 -0.02504,0.3756 z" />
    <path
       id="path914"
       style="font-style:normal;font-variant:normal;font-weight:500;font-stretch:normal;font-size:12.52019596px;line-height:1;font-family:'Renner*';-inkscape-font-specification:'Renner* Medium';text-align:end;text-anchor:end;fill:#333333"
       d="m 100.59671,123.37354 q 0,-1.28958 -1.064218,-1.28958 -0.575929,0 -0.926495,0.36308 -0.350565,0.35057 -0.350565,0.9265 v 3.50565 h -1.364701 v -5.75929 h 1.364701 v 0.88894 q 0.550889,-1.01414 1.727787,-1.01414 0.964051,0 1.477381,0.57593 0.52585,0.56341 0.52585,1.65267 v 3.65589 h -1.38974 z" />
    <path
       id="path916"
       style="font-style:normal;font-variant:normal;font-weight:500;font-stretch:normal;font-size:12.52019596px;line-height:1;font-family:'Renner*';-inkscape-font-specification:'Renner* Medium';text-align:end;text-anchor:end;fill:#333333"
       d="m 107.41924,123.37354 q 0,-1.28958 -1.06422,-1.28958 -0.57593,0 -0.92649,0.36308 -0.35057,0.35057 -0.35057,0.9265 v 3.50565 h -1.3647 v -5.75929 h 1.3647 v 0.88894 q 0.55089,-1.01414 1.72779,-1.01414 0.96405,0 1.47738,0.57593 0.52585,0.56341 0.52585,1.65267 v 3.65589 h -1.38974 z" />
    <path
       id="path918"
       style="font-style:normal;font-variant:normal;font-weight:500;font-stretch:normal;font-size:12.52019596px;line-height:1;font-family:'Renner*';-inkscape-font-specification:'Renner* Medium';text-align:end;text-anchor:end;fill:#333333"
       d="m 114.51721,123.37354 q -0.0751,-0.63853 -0.43821,-0.9891 -0.36308,-0.36308 -0.98909,-0.36308 -0.62601,0 -1.06422,0.36308 -0.42569,0.36309 -0.51333,0.9891 z m -3.02989,0.93901 q 0.0751,0.77626 0.50081,1.1769 0.42569,0.40065 1.1143,0.40065 1.10178,0 1.65266,-0.91398 l 1.1769,0.47577 q -0.47576,0.76373 -1.13934,1.16438 -0.65105,0.38813 -1.75282,0.38813 -1.31462,0 -2.12844,-0.83886 -0.81381,-0.85137 -0.81381,-2.16599 0,-0.35057 0.0501,-0.61349 0.18781,-1.08926 0.96406,-1.74031 0.77625,-0.65105 1.99071,-0.65105 1.32714,0 2.10339,0.78877 0.77625,0.78878 0.77625,2.15348 0,0.10016 -0.025,0.3756 z" />
    <path
       id="path920"
       style="font-style:normal;font-variant:normal;font-weight:500;font-stretch:normal;font-size:12.52019596px;line-height:1;font-family:'Renner*';-inkscape-font-specification:'Renner* Medium';text-align:end;text-anchor:end;fill:#333333"
       d="m 120.31543,122.57225 q -0.38813,-0.31301 -0.76373,-0.31301 -0.95154,0 -0.95154,1.37722 v 3.24273 h -1.33966 v -5.75929 h 1.33966 v 0.70113 q 0.53837,-0.82633 1.31462,-0.82633 0.68861,0 1.06422,0.42569 z" />
    <path
       id="path922"
       style="fill:#c83737"
       d="m 124.11081,118.11506 h 1.22698 l -0.1878,2.04079 1.90307,-0.80129 0.3756,1.16437 -2.01575,0.46325 1.3647,1.55251 -1.00161,0.71365 -1.0517,-1.76535 -1.0517,1.76535 -1.00161,-0.71365 1.3647,-1.55251 -2.01575,-0.46325 0.3756,-1.16437 1.90307,0.80129 z" />
    <path
       id="path924"
       style="font-style:normal;font-variant:normal;font-weight:600;font-stretch:normal;font-size:12.52019596px;line-height:1;font-family:'Renner*';-inkscape-font-specification:'Renner* Semi-Bold';text-align:end;text-anchor:end;fill:#333333"
       d="m 83.277756,135.2957 h 1.039176 q 0.701131,0 1.114298,-0.33804 0.413166,-0.35057 0.413166,-0.96406 0,-0.61349 -0.413166,-0.96405 -0.413167,-0.35057 -1.114298,-0.35057 h -1.039176 z m 0,1.42731 v 3.18012 H 81.474848 V 131.139 h 2.954766 q 1.527464,0 2.403877,0.76373 0.876414,0.76373 0.876414,2.04079 0,0.9265 -0.488287,1.60259 -0.475768,0.66357 -1.364702,0.96405 l 2.378837,3.39297 H 86.0948 l -2.053312,-3.18012 z" />
    <path
       id="path926"
       style="font-style:normal;font-variant:normal;font-weight:600;font-stretch:normal;font-size:12.52019596px;line-height:1;font-family:'Renner*';-inkscape-font-specification:'Renner* Semi-Bold';text-align:end;text-anchor:end;fill:#333333"
       d="m 93.144844,136.3474 q -0.200323,-1.12682 -1.339661,-1.12682 -0.563409,0 -0.951535,0.30049 -0.388126,0.30048 -0.488287,0.82633 z m -2.817044,1.02666 q 0.08764,0.67609 0.475767,1.02665 0.400647,0.35057 1.026657,0.35057 1.026656,0 1.452342,-0.78878 l 1.377222,0.50081 q -0.425687,0.76373 -1.101777,1.16438 -0.676091,0.40065 -1.802909,0.40065 -1.352181,0 -2.178514,-0.83886 -0.826333,-0.85137 -0.826333,-2.16599 0,-0.36309 0.05008,-0.62601 0.175283,-1.07674 0.989096,-1.72779 0.826333,-0.65105 2.040792,-0.65105 1.28958,0 2.090872,0.8013 0.813813,0.78877 0.813813,2.12843 0,0.2504 -0.02504,0.42569 z" />
    <path
       id="path928"
       style="font-style:normal;font-variant:normal;font-weight:600;font-stretch:normal;font-size:12.52019596px;line-height:1;font-family:'Renner*';-inkscape-font-specification:'Renner* Semi-Bold';text-align:end;text-anchor:end;fill:#333333"
       d="m 99.727728,136.39748 q 0,-1.1769 -0.951534,-1.1769 -0.513328,0 -0.826333,0.32553 -0.313005,0.313 -0.313005,0.85137 v 3.50565 H 95.99671 v -5.75929 h 1.640146 v 0.87642 q 0.550888,-1.00162 1.740307,-1.00162 2.028267,0 2.028267,2.20356 v 3.68093 h -1.677702 z" />
    <path
       id="path930"
       style="font-style:normal;font-variant:normal;font-weight:600;font-stretch:normal;font-size:12.52019596px;line-height:1;font-family:'Renner*';-inkscape-font-specification:'Renner* Semi-Bold';text-align:end;text-anchor:end;fill:#333333"
       d="m 106.74589,136.39748 q 0,-1.1769 -0.95154,-1.1769 -0.51333,0 -0.82633,0.32553 -0.31301,0.313 -0.31301,0.85137 v 3.50565 h -1.64014 v -5.75929 h 1.64014 v 0.87642 q 0.55089,-1.00162 1.74031,-1.00162 2.02827,0 2.02827,2.20356 v 3.68093 h -1.6777 z" />
    <path
       id="path932"
       style="font-style:normal;font-variant:normal;font-weight:600;font-stretch:normal;font-size:12.52019596px;line-height:1;font-family:'Renner*';-inkscape-font-specification:'Renner* Semi-Bold';text-align:end;text-anchor:end;fill:#333333"
       d="m 114.07705,136.3474 q -0.20033,-1.12682 -1.33966,-1.12682 -0.56341,0 -0.95154,0.30049 -0.38813,0.30048 -0.48829,0.82633 z m -2.81705,1.02666 q 0.0876,0.67609 0.47577,1.02665 0.40065,0.35057 1.02666,0.35057 1.02665,0 1.45234,-0.78878 l 1.37722,0.50081 q -0.42569,0.76373 -1.10178,1.16438 -0.67609,0.40065 -1.80291,0.40065 -1.35218,0 -2.17851,-0.83886 -0.82633,-0.85137 -0.82633,-2.16599 0,-0.36309 0.0501,-0.62601 0.17528,-1.07674 0.98909,-1.72779 0.82634,-0.65105 2.0408,-0.65105 1.28958,0 2.09087,0.8013 0.81381,0.78877 0.81381,2.12843 0,0.2504 -0.025,0.42569 z" />
    <path
       id="path934"
       style="font-style:normal;font-variant:normal;font-weight:600;font-stretch:normal;font-size:12.52019596px;line-height:1;font-family:'Renner*';-inkscape-font-specification:'Renner* Semi-Bold';text-align:end;text-anchor:end;fill:#333333"
       d="m 120.22173,135.84659 q -0.36309,-0.32552 -0.75122,-0.32552 -0.45072,0 -0.70113,0.36308 -0.23788,0.35057 -0.23788,0.97658 v 3.0424 h -1.60259 v -5.75929 h 1.60259 v 0.71366 q 0.57593,-0.83886 1.37722,-0.83886 0.71365,0 1.0517,0.45073 z" />
    <path
       id="path936"
       style="fill:#c83737"
       d="m 123.97309,131.139 h 1.50242 l -0.23788,2.10339 1.91559,-0.87641 0.46325,1.40226 -2.07836,0.43821 1.43983,1.5525 -1.21446,0.86389 -1.03918,-1.82795 -1.03918,1.82795 -1.21445,-0.86389 1.43982,-1.5525 -2.07835,-0.43821 0.46324,-1.40226 1.91559,0.87641 z" />
    <path
       id="path938"
       style="font-style:normal;font-variant:normal;font-weight:bold;font-stretch:normal;font-size:12.52019596px;line-height:1;font-family:'Renner*';-inkscape-font-specification:'Renner* Bold';text-align:end;text-anchor:end;fill:#333333"
       d="m 82.367498,148.24452 h 0.926495 q 0.63853,0 1.001616,-0.30048 0.363085,-0.30049 0.363085,-0.83886 0,-0.53836 -0.363085,-0.83885 -0.363086,-0.30048 -1.001616,-0.30048 h -0.926495 z m 0,1.65267 v 3.02989 h -2.115913 v -8.76414 h 3.205171 q 1.640145,0 2.516559,0.77625 0.888934,0.77625 0.888934,2.09087 0,0.91398 -0.450727,1.59007 -0.450727,0.67609 -1.302101,1.00161 l 2.278676,3.30534 h -2.491519 l -1.878029,-3.02989 z" />
    <path
       id="path940"
       style="font-style:normal;font-variant:normal;font-weight:bold;font-stretch:normal;font-size:12.52019596px;line-height:1;font-family:'Renner*';-inkscape-font-specification:'Renner* Bold';text-align:end;text-anchor:end;fill:#333333"
       d="m 92.251998,149.33378 q -0.212843,-0.90145 -1.226979,-0.90145 -0.513328,0 -0.876414,0.23788 -0.350565,0.22536 -0.463247,0.66357 z m -4.369548,0.71365 q 0,-1.3647 0.888933,-2.17851 0.888934,-0.82634 2.291196,-0.82634 1.26454,0 2.090873,0.8013 0.838853,0.78877 0.838853,2.11591 0,0.28796 -0.02504,0.48829 h -4.319468 q 0.212843,1.16438 1.414782,1.16438 0.939015,0 1.2395,-0.66358 l 1.577544,0.52585 q -0.788772,1.57755 -2.904685,1.57755 -1.377222,0 -2.241115,-0.83886 -0.851373,-0.85137 -0.851373,-2.16599 z" />
    <path
       id="path942"
       style="font-style:normal;font-variant:normal;font-weight:bold;font-stretch:normal;font-size:12.52019596px;line-height:1;font-family:'Renner*';-inkscape-font-specification:'Renner* Bold';text-align:end;text-anchor:end;fill:#333333"
       d="m 98.944043,149.42142 q 0,-0.52585 -0.200324,-0.78877 -0.187802,-0.26293 -0.63853,-0.26293 -0.463247,0 -0.726171,0.27545 -0.262924,0.27544 -0.262924,0.77625 v 3.50566 h -1.90307 v -5.75929 h 1.90307 v 0.86389 q 0.538368,-0.9891 1.752827,-0.9891 2.053309,0 2.053309,2.17852 v 3.70598 h -1.978187 z" />
    <path
       id="path944"
       style="font-style:normal;font-variant:normal;font-weight:bold;font-stretch:normal;font-size:12.52019596px;line-height:1;font-family:'Renner*';-inkscape-font-specification:'Renner* Bold';text-align:end;text-anchor:end;fill:#333333"
       d="m 106.13337,149.42142 q 0,-0.52585 -0.20032,-0.78877 -0.1878,-0.26293 -0.63853,-0.26293 -0.46325,0 -0.72617,0.27545 -0.26292,0.27544 -0.26292,0.77625 v 3.50566 h -1.90307 v -5.75929 h 1.90307 v 0.86389 q 0.53836,-0.9891 1.75282,-0.9891 2.05332,0 2.05332,2.17852 v 3.70598 h -1.9782 z" />
    <path
       id="path946"
       style="font-style:normal;font-variant:normal;font-weight:bold;font-stretch:normal;font-size:12.52019596px;line-height:1;font-family:'Renner*';-inkscape-font-specification:'Renner* Bold';text-align:end;text-anchor:end;fill:#333333"
       d="m 113.67327,149.33378 q -0.21284,-0.90145 -1.22698,-0.90145 -0.51333,0 -0.87641,0.23788 -0.35057,0.22536 -0.46325,0.66357 z m -4.36955,0.71365 q 0,-1.3647 0.88894,-2.17851 0.88893,-0.82634 2.29119,-0.82634 1.26454,0 2.09088,0.8013 0.83885,0.78877 0.83885,2.11591 0,0.28796 -0.025,0.48829 h -4.31947 q 0.21284,1.16438 1.41478,1.16438 0.93902,0 1.2395,-0.66358 l 1.57755,0.52585 q -0.78878,1.57755 -2.90469,1.57755 -1.37722,0 -2.24111,-0.83886 -0.85138,-0.85137 -0.85138,-2.16599 z" />
    <path
       id="path948"
       style="font-style:normal;font-variant:normal;font-weight:bold;font-stretch:normal;font-size:12.52019596px;line-height:1;font-family:'Renner*';-inkscape-font-specification:'Renner* Bold';text-align:end;text-anchor:end;fill:#333333"
       d="m 120.15247,149.13346 q -0.33804,-0.33805 -0.73869,-0.33805 -0.42569,0 -0.67609,0.33805 -0.2504,0.33804 -0.2504,0.95153 v 2.84209 h -1.85299 v -5.75929 h 1.85299 v 0.72617 q 0.58845,-0.8639 1.45234,-0.8639 0.313,0 0.60097,0.13773 0.28796,0.1252 0.43821,0.33804 z" />
    <path
       id="path950"
       style="fill:#c83737"
       d="m 123.84788,144.16294 h 1.75283 l -0.28796,2.14095 1.94063,-0.93901 0.55089,1.65266 -2.14096,0.40065 1.50243,1.56502 -1.41479,1.01414 -1.02665,-1.90307 -1.02666,1.90307 -1.41478,-1.01414 1.50242,-1.56502 -2.14095,-0.40065 0.55089,-1.65266 1.94063,0.93901 z" />
    <path
       id="path952"
       style="font-style:normal;font-variant:normal;font-weight:800;font-stretch:normal;font-size:12.52019596px;line-height:1;font-family:'Renner*';-inkscape-font-specification:'Renner* Ultra-Bold';text-align:end;text-anchor:end;fill:#333333"
       d="m 81.065985,161.19334 h 0.813813 q 0.575929,0 0.888934,-0.2504 0.313005,-0.25041 0.313005,-0.72617 0,-0.47577 -0.313005,-0.72617 -0.313005,-0.25041 -0.888934,-0.25041 h -0.813813 z m 0,1.86551 v 2.89217 h -2.428918 v -8.76414 h 3.455574 q 1.740307,0 2.629241,0.78877 0.901454,0.78877 0.901454,2.14096 0,1.91559 -1.665186,2.61672 l 2.191035,3.21769 H 83.3071 l -1.715267,-2.89217 z" />
    <path
       id="path954"
       style="font-style:normal;font-variant:normal;font-weight:800;font-stretch:normal;font-size:12.52019596px;line-height:1;font-family:'Renner*';-inkscape-font-specification:'Renner* Ultra-Bold';text-align:end;text-anchor:end;fill:#333333"
       d="m 90.879667,162.37024 q -0.175283,-0.85137 -1.001616,-0.85137 -0.939014,0 -1.126817,0.85137 z m -2.165994,1.15186 q 0.200323,1.02666 1.214459,1.02666 0.913974,0 1.214459,-0.62601 l 1.90307,0.45072 q -0.863894,1.70275 -3.105009,1.70275 -1.577544,0 -2.466478,-0.82633 -0.876414,-0.83886 -0.876414,-2.17852 0,-0.36308 0.05008,-0.62601 0.187803,-1.08925 1.039176,-1.72778 0.863894,-0.65106 2.241115,-0.65106 1.464863,0 2.291196,0.77626 0.838853,0.76373 0.838853,2.12843 0,0.32553 -0.02504,0.55089 z" />
    <path
       id="path956"
       style="font-style:normal;font-variant:normal;font-weight:800;font-stretch:normal;font-size:12.52019596px;line-height:1;font-family:'Renner*';-inkscape-font-specification:'Renner* Ultra-Bold';text-align:end;text-anchor:end;fill:#333333"
       d="m 97.940275,162.44536 q 0,-0.47577 -0.162763,-0.70113 -0.162762,-0.23788 -0.563409,-0.23788 -0.851373,0 -0.851373,0.93901 v 3.50566 h -2.165994 v -5.75929 h 2.165994 v 0.86389 q 0.538368,-0.9891 1.777868,-0.9891 1.089257,0 1.577544,0.55089 0.500808,0.53837 0.500808,1.60259 v 3.73102 h -2.278675 z" />
    <path
       id="path958"
       style="font-style:normal;font-variant:normal;font-weight:800;font-stretch:normal;font-size:12.52019596px;line-height:1;font-family:'Renner*';-inkscape-font-specification:'Renner* Ultra-Bold';text-align:end;text-anchor:end;fill:#333333"
       d="m 105.32523,162.44536 q 0,-0.47577 -0.16276,-0.70113 -0.16276,-0.23788 -0.56341,-0.23788 -0.85137,0 -0.85137,0.93901 v 3.50566 h -2.16599 v -5.75929 h 2.16599 v 0.86389 q 0.53837,-0.9891 1.77787,-0.9891 1.08926,0 1.57754,0.55089 0.50081,0.53837 0.50081,1.60259 v 3.73102 h -2.27868 z" />
    <path
       id="path960"
       style="font-style:normal;font-variant:normal;font-weight:800;font-stretch:normal;font-size:12.52019596px;line-height:1;font-family:'Renner*';-inkscape-font-specification:'Renner* Ultra-Bold';text-align:end;text-anchor:end;fill:#333333"
       d="m 112.98564,162.37024 q -0.17529,-0.85137 -1.00162,-0.85137 -0.93901,0 -1.12682,0.85137 z m -2.166,1.15186 q 0.20033,1.02666 1.21446,1.02666 0.91398,0 1.21446,-0.62601 l 1.90307,0.45072 q -0.86389,1.70275 -3.10501,1.70275 -1.57754,0 -2.46648,-0.82633 -0.87641,-0.83886 -0.87641,-2.17852 0,-0.36308 0.0501,-0.62601 0.1878,-1.08925 1.03918,-1.72778 0.86389,-0.65106 2.24111,-0.65106 1.46487,0 2.2912,0.77626 0.83885,0.76373 0.83885,2.12843 0,0.32553 -0.025,0.55089 z" />
    <path
       id="path962"
       style="font-style:normal;font-variant:normal;font-weight:800;font-stretch:normal;font-size:12.52019596px;line-height:1;font-family:'Renner*';-inkscape-font-specification:'Renner* Ultra-Bold';text-align:end;text-anchor:end;fill:#333333"
       d="m 120.05877,162.42032 q -0.31301,-0.35056 -0.72618,-0.35056 -0.40064,0 -0.66357,0.32552 -0.2504,0.32553 -0.2504,0.91398 v 2.64176 h -2.11591 v -5.75929 h 2.11591 v 0.73869 q 0.60097,-0.88894 1.52746,-0.88894 0.30049,0 0.58845,0.15025 0.30049,0.13772 0.43821,0.35056 z" />
    <path
       id="path964"
       style="fill:#c83737"
       d="m 123.72268,157.18688 h 2.00323 l -0.33804,2.17851 1.96567,-0.98909 0.62601,1.89055 -2.19104,0.3756 1.56503,1.56503 -1.61511,1.16438 -1.01413,-1.97819 -1.01414,1.97819 -1.6151,-1.16438 1.56502,-1.56503 -2.19103,-0.3756 0.62601,-1.89055 1.96567,0.98909 z" />
    <path
       id="path966"
       style="font-style:normal;font-variant:normal;font-weight:900;font-stretch:normal;font-size:12.52019596px;line-height:1;font-family:'Renner*';-inkscape-font-specification:'Renner* Heavy';text-align:end;text-anchor:end;fill:#333333"
       d="m 79.801445,176.04165 v 2.75445 h -2.754443 v -8.76414 h 3.693458 q 1.852989,0 2.754443,0.81381 0.913974,0.81382 0.913974,2.19104 0,1.89055 -1.577544,2.61672 l 2.103393,3.14257 h -3.19265 l -1.565025,-2.75445 z m 0,-2.06583 h 0.688611 q 1.039176,0 1.039176,-0.81381 0,-0.81381 -1.039176,-0.81381 h -0.688611 z" />
    <path
       id="path968"
       style="font-style:normal;font-variant:normal;font-weight:900;font-stretch:normal;font-size:12.52019596px;line-height:1;font-family:'Renner*';-inkscape-font-specification:'Renner* Heavy';text-align:end;text-anchor:end;fill:#333333"
       d="m 87.804589,176.41726 q 0.175283,0.87641 0.976575,0.87641 0.901454,0 1.201939,-0.5634 l 2.228595,0.35056 q -0.939015,1.84047 -3.305332,1.84047 -1.765348,0 -2.691842,-0.81381 -0.913974,-0.82634 -0.913974,-2.19104 0,-0.35056 0.05008,-0.61349 0.187803,-1.11429 1.039177,-1.75282 0.863893,-0.63853 2.391357,-0.63853 1.665186,0 2.504039,0.75121 0.838853,0.75121 0.838853,2.14095 0,0.35057 -0.02504,0.61349 z m 1.715267,-1.1769 q -0.112682,-0.82633 -0.801293,-0.82633 -0.751212,0 -0.901454,0.82633 z" />
    <path
       id="path970"
       style="font-style:normal;font-variant:normal;font-weight:900;font-stretch:normal;font-size:12.52019596px;line-height:1;font-family:'Renner*';-inkscape-font-specification:'Renner* Heavy';text-align:end;text-anchor:end;fill:#333333"
       d="m 96.936507,175.29044 q 0,-0.42568 -0.125202,-0.62601 -0.125202,-0.20032 -0.475767,-0.20032 -0.713652,0 -0.713652,0.82633 v 3.50566 h -2.441438 v -5.75929 h 2.441438 v 0.83885 q 0.513328,-0.97657 1.777868,-0.97657 1.126818,0 1.615106,0.53836 0.488287,0.53837 0.488287,1.60259 v 3.75606 h -2.56664 z" />
    <path
       id="path972"
       style="font-style:normal;font-variant:normal;font-weight:900;font-stretch:normal;font-size:12.52019596px;line-height:1;font-family:'Renner*';-inkscape-font-specification:'Renner* Heavy';text-align:end;text-anchor:end;fill:#333333"
       d="m 104.51709,175.29044 q 0,-0.42568 -0.1252,-0.62601 -0.1252,-0.20032 -0.47576,-0.20032 -0.71366,0 -0.71366,0.82633 v 3.50566 h -2.44143 v -5.75929 h 2.44143 v 0.83885 q 0.51333,-0.97657 1.77787,-0.97657 1.12682,0 1.61511,0.53836 0.48828,0.53837 0.48828,1.60259 v 3.75606 h -2.56664 z" />
    <path
       id="path974"
       style="font-style:normal;font-variant:normal;font-weight:900;font-stretch:normal;font-size:12.52019596px;line-height:1;font-family:'Renner*';-inkscape-font-specification:'Renner* Heavy';text-align:end;text-anchor:end;fill:#333333"
       d="m 110.59526,176.41726 q 0.17528,0.87641 0.97657,0.87641 0.90146,0 1.20194,-0.5634 l 2.2286,0.35056 q -0.93902,1.84047 -3.30533,1.84047 -1.76535,0 -2.69185,-0.81381 -0.91397,-0.82634 -0.91397,-2.19104 0,-0.35056 0.0501,-0.61349 0.1878,-1.11429 1.03918,-1.75282 0.86389,-0.63853 2.39135,-0.63853 1.66519,0 2.50404,0.75121 0.83886,0.75121 0.83886,2.14095 0,0.35057 -0.025,0.61349 z m 1.71527,-1.1769 q -0.11269,-0.82633 -0.8013,-0.82633 -0.75121,0 -0.90145,0.82633 z" />
    <path
       id="path976"
       style="font-style:normal;font-variant:normal;font-weight:900;font-stretch:normal;font-size:12.52019596px;line-height:1;font-family:'Renner*';-inkscape-font-specification:'Renner* Heavy';text-align:end;text-anchor:end;fill:#333333"
       d="m 119.96506,175.51581 q -0.26292,-0.35057 -0.71365,-0.35057 -0.36309,0 -0.63853,0.31301 -0.26293,0.30048 -0.26293,0.87641 v 2.44144 h -2.37883 v -5.75929 h 2.37883 v 0.76373 q 0.62601,-0.91397 1.59007,-0.91397 0.30048,0 0.60097,0.16276 0.30048,0.15024 0.41316,0.36308 z" />
    <path
       id="path978"
       style="fill:#c83737"
       d="m 123.59748,170.03196 h 2.25364 l -0.38813,2.2286 2.00323,-1.0517 0.70113,2.14095 -2.25363,0.32553 1.64014,1.57754 -1.82795,1.32714 -1.00161,-2.04079 -1.00162,2.04079 -1.82795,-1.32714 1.64015,-1.57754 -2.25363,-0.32553 0.70113,-2.14095 2.00323,1.0517 z" />
  </g>
  <path
     inkscape:connector-curvature="0"
     d="m 789.05843,14.09069 h 0.69729 l -3.48647,19.841192 h 28.20872 l 3.48648,-19.841192 h 0.69729 l -7.79702,44.373275 h -0.69729 l 4.18377,-23.898179 h -28.20873 l -4.18377,23.898179 h -0.69729 z"
     style="font-style:italic;font-variant:normal;font-weight:100;font-stretch:normal;font-size:12.52019596px;line-height:1;font-family:'Renner*';-inkscape-font-specification:'Renner* Thin';text-align:start;letter-spacing:0px;word-spacing:0px;text-anchor:start;fill:#333333;fill-opacity:1;stroke:none;stroke-width:5.06305122px;stroke-linecap:butt;stroke-linejoin:miter;stroke-opacity:1"
     id="path981" />
  <path
     inkscape:connector-curvature="0"
     d="m 828.13762,33.297978 q -4.37394,3.993593 -5.51497,10.586197 -1.14102,6.592599 1.83832,10.586192 2.97935,3.993598 8.6211,3.993598 4.81767,0 9.00144,-4.056987 4.18376,-4.056983 5.45157,-9.445168 l 0.31694,-2.028491 q 0.63391,-5.451575 -2.09188,-9.508563 -2.72578,-4.120371 -7.54345,-4.120371 -5.64175,0 -10.07907,3.993593 z m -4.31055,21.616125 q -3.04274,-4.183766 -1.83832,-11.029928 1.20442,-6.846162 5.76852,-11.029928 4.56411,-4.183767 10.39603,-4.183767 4.69089,0 7.35329,3.359689 2.66239,3.359689 2.78917,8.304144 l 1.96511,-11.029928 h 0.6339 l -5.13462,29.15958 h -0.63391 l 1.96511,-11.029928 q -1.83833,4.944449 -5.76853,8.304138 -3.86682,3.359694 -8.5577,3.359694 -5.83192,0 -8.93805,-4.183766 z"
     style="font-style:italic;font-variant:normal;font-weight:100;font-stretch:normal;font-size:12.52019596px;line-height:1;font-family:'Renner*';-inkscape-font-specification:'Renner* Thin';text-align:start;letter-spacing:0px;word-spacing:0px;text-anchor:start;fill:#333333;fill-opacity:1;stroke:none;stroke-width:5.06305122px;stroke-linecap:butt;stroke-linejoin:miter;stroke-opacity:1"
     id="path983" />
  <path
     inkscape:connector-curvature="0"
     d="m 861.67213,29.304385 h 0.6339 l -5.13462,29.15958 h -0.6339 z m 2.85256,-14.262839 q -0.76068,0 -0.50712,-0.697298 0.19017,-0.57051 0.6973,-0.57051 0.82407,0 0.57051,0.697294 -0.19017,0.570514 -0.76069,0.570514 z"
     style="font-style:italic;font-variant:normal;font-weight:100;font-stretch:normal;font-size:12.52019596px;line-height:1;font-family:'Renner*';-inkscape-font-specification:'Renner* Thin';text-align:start;letter-spacing:0px;word-spacing:0px;text-anchor:start;fill:#333333;fill-opacity:1;stroke:none;stroke-width:5.06305122px;stroke-linecap:butt;stroke-linejoin:miter;stroke-opacity:1"
     id="path985" />
  <path
     inkscape:connector-curvature="0"
     d="m 884.83834,30.572193 q -1.58476,-1.267808 -3.42308,-1.267808 -3.42308,0 -5.83191,2.979347 -2.40884,2.915958 -3.42309,7.480066 l -3.2963,18.700167 h -0.6339 l 5.13462,-29.15958 h 0.63391 l -1.26781,7.226503 q 2.78918,-7.860408 8.81126,-7.860408 1.9651,0 3.74004,1.394588 z"
     style="font-style:italic;font-variant:normal;font-weight:100;font-stretch:normal;font-size:12.52019596px;line-height:1;font-family:'Renner*';-inkscape-font-specification:'Renner* Thin';text-align:start;letter-spacing:0px;word-spacing:0px;text-anchor:start;fill:#333333;fill-opacity:1;stroke:none;stroke-width:5.06305122px;stroke-linecap:butt;stroke-linejoin:miter;stroke-opacity:1"
     id="path987" />
  <path
     inkscape:connector-curvature="0"
     d="m 895.30173,9.0194569 h 0.6339 l -8.74787,49.4445081 h -0.63391 z"
     style="font-style:italic;font-variant:normal;font-weight:100;font-stretch:normal;font-size:12.52019596px;line-height:1;font-family:'Renner*';-inkscape-font-specification:'Renner* Thin';text-align:start;letter-spacing:0px;word-spacing:0px;text-anchor:start;fill:#333333;fill-opacity:1;stroke:none;stroke-width:5.06305122px;stroke-linecap:butt;stroke-linejoin:miter;stroke-opacity:1"
     id="path989" />
  <path
     inkscape:connector-curvature="0"
     d="m 903.39588,29.304385 h 0.6339 l -5.13462,29.15958 h -0.6339 z m 2.85257,-14.262839 q -0.76069,0 -0.50713,-0.697298 0.19017,-0.57051 0.6973,-0.57051 0.82407,0 0.57051,0.697294 -0.19017,0.570514 -0.76068,0.570514 z"
     style="font-style:italic;font-variant:normal;font-weight:100;font-stretch:normal;font-size:12.52019596px;line-height:1;font-family:'Renner*';-inkscape-font-specification:'Renner* Thin';text-align:start;letter-spacing:0px;word-spacing:0px;text-anchor:start;fill:#333333;fill-opacity:1;stroke:none;stroke-width:5.06305122px;stroke-linecap:butt;stroke-linejoin:miter;stroke-opacity:1"
     id="path991" />
  <path
     inkscape:connector-curvature="0"
     d="m 932.20384,38.179038 q 1.52137,-8.874653 -6.21226,-8.874653 -4.12037,0 -7.67024,3.23291 -3.48647,3.169515 -4.50071,7.543455 l -3.23291,18.383215 h -0.63391 l 5.13462,-29.15958 h 0.63391 l -1.45798,8.240748 q 1.58476,-3.993593 4.81767,-6.40243 3.23291,-2.472223 7.03633,-2.472223 8.43092,0 6.71938,9.508558 l -3.54986,20.284927 h -0.6339 z"
     style="font-style:italic;font-variant:normal;font-weight:100;font-stretch:normal;font-size:12.52019596px;line-height:1;font-family:'Renner*';-inkscape-font-specification:'Renner* Thin';text-align:start;letter-spacing:0px;word-spacing:0px;text-anchor:start;fill:#333333;fill-opacity:1;stroke:none;stroke-width:5.06305122px;stroke-linecap:butt;stroke-linejoin:miter;stroke-opacity:1"
     id="path993" />
  <path
     inkscape:connector-curvature="0"
     d="m 965.77599,42.426193 q 0.95086,-5.514964 -2.02849,-9.318389 -2.91596,-3.803419 -7.79702,-3.803419 -5.07123,0 -9.50855,3.866814 -4.43733,3.866814 -5.64175,10.205851 h 24.78564 z m -25.10259,1.584761 q -1.01425,6.148868 1.83832,10.332634 2.85257,4.120377 7.98719,4.120377 3.48647,0 6.27565,-1.267808 2.85256,-1.267808 4.12037,-2.535617 1.3312,-1.267808 2.97935,-3.359689 l 0.44373,0.380337 q -1.20442,1.521371 -2.15527,2.535616 -0.95086,0.950857 -2.6624,2.282054 -1.71154,1.267809 -4.05698,1.965102 -2.28206,0.633904 -5.07124,0.633904 -5.51496,0 -8.49431,-4.373939 -2.97935,-4.373935 -1.77493,-10.966539 1.14103,-6.402426 5.64175,-10.712976 4.50071,-4.373935 10.33263,-4.373935 5.13462,0 8.24075,3.930204 3.16952,3.930204 2.15528,9.76212 -0.0634,0.316947 -0.25356,0.950856 -0.19017,0.570515 -0.19017,0.697294 z"
     style="font-style:italic;font-variant:normal;font-weight:100;font-stretch:normal;font-size:12.52019596px;line-height:1;font-family:'Renner*';-inkscape-font-specification:'Renner* Thin';text-align:start;letter-spacing:0px;word-spacing:0px;text-anchor:start;fill:#333333;fill-opacity:1;stroke:none;stroke-width:5.06305122px;stroke-linecap:butt;stroke-linejoin:miter;stroke-opacity:1"
     id="path995" />
  <path
     inkscape:connector-curvature="0"
     d="m 974.64767,59.097869 q -0.76069,0 -0.50712,-0.760688 0.19017,-0.633904 0.76068,-0.633904 0.76068,0 0.50713,0.760688 -0.19017,0.633904 -0.76069,0.633904 z m 7.48006,-45.007179 h 0.88747 l -5.83192,31.695197 h -0.38033 z"
     style="font-style:italic;font-variant:normal;font-weight:100;font-stretch:normal;font-size:12.52019596px;line-height:1;font-family:'Renner*';-inkscape-font-specification:'Renner* Thin';text-align:start;letter-spacing:0px;word-spacing:0px;text-anchor:start;fill:#333333;fill-opacity:1;stroke:none;stroke-width:5.06305122px;stroke-linecap:butt;stroke-linejoin:miter;stroke-opacity:1"
     id="path997" />
  <path
     inkscape:connector-curvature="0"
     d="m 780.2372,82.313605 0.38033,-2.282054 h 26.05346 l -0.38034,2.282054 h -11.85401 l -7.41667,42.091225 h -2.34545 l 7.41668,-42.091225 z"
     style="font-style:italic;font-variant:normal;font-weight:200;font-stretch:normal;font-size:12.52019596px;line-height:1;font-family:'Renner*';-inkscape-font-specification:'Renner* Ultra-Light';text-align:start;letter-spacing:0px;word-spacing:0px;text-anchor:start;fill:#333333;fill-opacity:1;stroke:none;stroke-width:5.06305122px;stroke-linecap:butt;stroke-linejoin:miter;stroke-opacity:1"
     id="path999" />
  <path
     inkscape:connector-curvature="0"
     d="m 827.16887,105.00737 q 1.45798,-8.304143 -5.76853,-8.304143 -3.67664,0 -6.78277,2.662396 -3.04274,2.599007 -3.99359,6.402427 l -3.29631,18.63678 h -2.28205 l 8.74787,-49.444512 h 2.28206 l -4.75428,26.750752 q 1.77493,-3.232914 4.69089,-5.134627 2.97935,-1.965101 6.27565,-1.965101 4.43733,0 6.21226,2.725789 1.83832,2.662396 0.95086,7.480069 l -3.42309,19.58763 h -2.28205 z"
     style="font-style:italic;font-variant:normal;font-weight:200;font-stretch:normal;font-size:12.52019596px;line-height:1;font-family:'Renner*';-inkscape-font-specification:'Renner* Ultra-Light';text-align:start;letter-spacing:0px;word-spacing:0px;text-anchor:start;fill:#333333;fill-opacity:1;stroke:none;stroke-width:5.06305122px;stroke-linecap:butt;stroke-linejoin:miter;stroke-opacity:1"
     id="path1001" />
  <path
     inkscape:connector-curvature="0"
     d="m 844.10599,82.567168 q -0.38034,-0.507126 -0.25356,-1.204419 0.12678,-0.697294 0.69729,-1.141025 0.57052,-0.507125 1.26781,-0.507125 0.6973,0 1.07764,0.507125 0.44372,0.443726 0.31694,1.141025 -0.12677,0.697293 -0.69729,1.204419 -0.57051,0.443726 -1.26781,0.443726 -0.69729,0 -1.14102,-0.443726 z m -2.15527,12.678078 h 2.21866 l -5.13462,29.159584 h -2.21866 z"
     style="font-style:italic;font-variant:normal;font-weight:200;font-stretch:normal;font-size:12.52019596px;line-height:1;font-family:'Renner*';-inkscape-font-specification:'Renner* Ultra-Light';text-align:start;letter-spacing:0px;word-spacing:0px;text-anchor:start;fill:#333333;fill-opacity:1;stroke:none;stroke-width:5.06305122px;stroke-linecap:butt;stroke-linejoin:miter;stroke-opacity:1"
     id="path1003" />
  <path
     inkscape:connector-curvature="0"
     d="m 871.98786,105.00737 q 1.45798,-8.304143 -5.76852,-8.304143 -3.74004,0 -6.84617,2.725785 -3.04274,2.725788 -3.99359,6.592598 l -3.23291,18.38322 h -2.28206 l 5.13462,-29.159584 h 2.28206 l -1.14103,6.465824 q 1.77493,-3.296304 4.69089,-5.198016 2.91596,-1.901712 6.27565,-1.901712 4.43733,0 6.21226,2.725789 1.83832,2.662396 0.95086,7.480069 l -3.42309,19.58763 h -2.28205 z"
     style="font-style:italic;font-variant:normal;font-weight:200;font-stretch:normal;font-size:12.52019596px;line-height:1;font-family:'Renner*';-inkscape-font-specification:'Renner* Ultra-Light';text-align:start;letter-spacing:0px;word-spacing:0px;text-anchor:start;fill:#333333;fill-opacity:1;stroke:none;stroke-width:5.06305122px;stroke-linecap:butt;stroke-linejoin:miter;stroke-opacity:1"
     id="path1005" />
  <path
     inkscape:connector-curvature="0"
     d="m 891.08025,80.031551 h 2.78918 l -6.14887,31.695199 h -1.64815 z m -7.67024,44.626839 q -0.38034,-0.50713 -0.25356,-1.20442 0.12678,-0.69729 0.6973,-1.20441 0.57051,-0.50713 1.2678,-0.50713 0.6973,0 1.14103,0.50713 0.44372,0.50712 0.31695,1.20441 -0.12678,0.69729 -0.76069,1.20442 -0.57051,0.50712 -1.26781,0.50712 -0.69729,0 -1.14102,-0.50712 z"
     style="font-style:italic;font-variant:normal;font-weight:200;font-stretch:normal;font-size:12.52019596px;line-height:1;font-family:'Renner*';-inkscape-font-specification:'Renner* Ultra-Light';text-align:start;letter-spacing:0px;word-spacing:0px;text-anchor:start;fill:#333333;fill-opacity:1;stroke:none;stroke-width:5.06305122px;stroke-linecap:butt;stroke-linejoin:miter;stroke-opacity:1"
     id="path1007" />
  <path
     inkscape:connector-curvature="0"
     d="m 786.80308,145.97243 h 3.48648 l -7.22651,41.077 h 18.31983 l -0.57052,3.2963 h -21.8063 z"
     style="font-style:italic;font-variant:normal;font-weight:300;font-stretch:normal;font-size:12.52019596px;line-height:1;font-family:'Renner*';-inkscape-font-specification:'Renner* Light';text-align:start;letter-spacing:0px;word-spacing:0px;text-anchor:start;fill:#333333;fill-opacity:1;stroke:none;stroke-width:5.06305122px;stroke-linecap:butt;stroke-linejoin:miter;stroke-opacity:1"
     id="path1009" />
  <path
     inkscape:connector-curvature="0"
     d="m 814.46705,149.64908 q -0.50713,-0.6973 -0.31695,-1.64816 0.19017,-0.95085 0.95086,-1.64815 0.82407,-0.69729 1.77493,-0.69729 1.01424,0 1.58476,0.69729 0.57051,0.6973 0.38033,1.64815 -0.19017,0.95086 -1.01424,1.64816 -0.76069,0.69729 -1.77493,0.69729 -1.01425,0 -1.58476,-0.69729 z m -1.9651,11.53705 h 3.2963 l -5.13463,29.1596 h -3.2963 z"
     style="font-style:italic;font-variant:normal;font-weight:300;font-stretch:normal;font-size:12.52019596px;line-height:1;font-family:'Renner*';-inkscape-font-specification:'Renner* Light';text-align:start;letter-spacing:0px;word-spacing:0px;text-anchor:start;fill:#333333;fill-opacity:1;stroke:none;stroke-width:5.06305122px;stroke-linecap:butt;stroke-linejoin:miter;stroke-opacity:1"
     id="path1011" />
  <path
     inkscape:connector-curvature="0"
     d="m 823.49523,186.79583 q -3.23291,-4.18375 -2.0285,-11.02991 1.20442,-6.84616 5.9587,-11.02993 4.75428,-4.18377 10.77637,-4.18377 3.67664,0 6.08548,1.9651 2.47222,1.96511 3.42308,5.45158 l 1.20441,-6.78277 h 3.2963 l -5.00784,28.52566 q -1.2678,7.22654 -6.08547,11.22013 -4.75429,3.99358 -10.5862,3.99358 -6.02209,0 -9.19161,-3.54986 -3.10613,-3.48647 -2.09188,-9.12822 h 3.35969 q -0.69729,4.12036 1.58476,6.84615 2.34544,2.7258 6.90955,2.7258 4.43733,0 8.11397,-3.10613 3.67665,-3.10614 4.69089,-9.00145 l 1.07764,-6.14885 q -2.15528,3.42305 -5.32479,5.45157 -3.16952,1.96512 -6.84617,1.96512 -6.02208,0 -9.31838,-4.1838 z m 1.3312,-11.02991 q -0.95086,5.57835 1.64815,8.87466 2.599,3.23292 7.35328,3.23292 4.12037,0 7.79702,-3.4231 3.74003,-3.48647 4.69089,-8.62109 l 0.12678,-0.44373 q 0.82407,-4.88106 -1.71155,-8.30414 -2.53561,-3.42308 -6.65599,-3.42308 -4.75428,0 -8.5577,3.2963 -3.74003,3.2963 -4.69089,8.81126 z"
     style="font-style:italic;font-variant:normal;font-weight:300;font-stretch:normal;font-size:12.52019596px;line-height:1;font-family:'Renner*';-inkscape-font-specification:'Renner* Light';text-align:start;letter-spacing:0px;word-spacing:0px;text-anchor:start;fill:#333333;fill-opacity:1;stroke:none;stroke-width:5.06305122px;stroke-linecap:butt;stroke-linejoin:miter;stroke-opacity:1"
     id="path1013" />
  <path
     inkscape:connector-curvature="0"
     d="m 878.80929,171.58215 q 1.39458,-7.9238 -5.45158,-7.9238 -3.48647,0 -6.27565,2.34545 -2.78917,2.28205 -3.67664,5.76852 l -3.2963,18.57341 h -3.2963 l 8.74787,-49.44453 h 3.2963 l -4.5641,25.92668 q 1.83832,-2.91596 4.5641,-4.56411 2.72579,-1.71155 5.83192,-1.71155 4.50072,0 6.40243,2.78918 1.9651,2.78918 1.07763,7.86041 l -3.35968,19.14392 h -3.2963 z"
     style="font-style:italic;font-variant:normal;font-weight:300;font-stretch:normal;font-size:12.52019596px;line-height:1;font-family:'Renner*';-inkscape-font-specification:'Renner* Light';text-align:start;letter-spacing:0px;word-spacing:0px;text-anchor:start;fill:#333333;fill-opacity:1;stroke:none;stroke-width:5.06305122px;stroke-linecap:butt;stroke-linejoin:miter;stroke-opacity:1"
     id="path1015" />
  <path
     inkscape:connector-curvature="0"
     d="m 896.10596,151.04367 h 3.29629 l -1.77492,10.14246 h 4.75428 l -0.57052,3.10613 h -4.75428 l -4.56411,26.05347 h -3.2963 l 4.56411,-26.05347 h -4.75428 l 0.57052,-3.10613 h 4.75428 z"
     style="font-style:italic;font-variant:normal;font-weight:300;font-stretch:normal;font-size:12.52019596px;line-height:1;font-family:'Renner*';-inkscape-font-specification:'Renner* Light';text-align:start;letter-spacing:0px;word-spacing:0px;text-anchor:start;fill:#333333;fill-opacity:1;stroke:none;stroke-width:5.06305122px;stroke-linecap:butt;stroke-linejoin:miter;stroke-opacity:1"
     id="path1017" />
  <path
     inkscape:connector-curvature="0"
     d="m 912.63203,145.97243 h 4.12038 l -6.40243,31.6952 h -2.47223 z m -7.86041,42.85191 q 0.19017,-1.01423 1.01425,-1.71152 0.82407,-0.69733 1.77493,-0.69733 0.95086,0 1.52137,0.69733 0.63391,0.69729 0.44373,1.71152 -0.19017,1.01423 -1.01425,1.64817 -0.82408,0.69729 -1.77493,0.69729 -0.95086,0 -1.58476,-0.69729 -0.57051,-0.69733 -0.38033,-1.64817 z"
     style="font-style:italic;font-variant:normal;font-weight:300;font-stretch:normal;font-size:12.52019596px;line-height:1;font-family:'Renner*';-inkscape-font-specification:'Renner* Light';text-align:start;letter-spacing:0px;word-spacing:0px;text-anchor:start;fill:#333333;fill-opacity:1;stroke:none;stroke-width:5.06305122px;stroke-linecap:butt;stroke-linejoin:miter;stroke-opacity:1"
     id="path1019" />
  <path
     inkscape:connector-curvature="0"
     d="m 786.06911,233.63811 -2.97935,16.98862 h 6.65599 q 4.37394,0 7.41668,-2.28207 3.10613,-2.28202 3.80342,-6.2756 0.6973,-3.99364 -1.58476,-6.21227 -2.28205,-2.21868 -6.65598,-2.21868 z m 3.16952,-17.87611 -2.34544,13.1852 h 6.08547 q 3.42309,0 5.89531,-1.71152 2.47223,-1.77495 3.04274,-4.81769 0.57052,-3.0427 -1.3312,-4.81765 -1.90171,-1.83834 -5.32479,-1.83834 z m -4.56411,-4.75426 h 11.41027 q 6.14887,0 9.19161,2.78919 3.04274,2.78918 2.09189,8.30411 -0.57052,3.35969 -2.97935,5.70515 -2.34545,2.34546 -6.02209,3.35969 4.43733,0.95084 6.5926,3.80341 2.15527,2.78918 1.3312,7.41671 -1.14103,6.33904 -5.89531,9.69873 -4.75428,3.2963 -11.47366,3.2963 h -12.04417 z"
     style="font-style:italic;font-variant:normal;font-weight:normal;font-stretch:normal;font-size:12.52019596px;line-height:1;font-family:'Renner*';-inkscape-font-specification:'Renner*';text-align:start;letter-spacing:0px;word-spacing:0px;text-anchor:start;fill:#333333;fill-opacity:1;stroke:none;stroke-width:5.06305122px;stroke-linecap:butt;stroke-linejoin:miter;stroke-opacity:1"
     id="path1021" />
  <path
     inkscape:connector-curvature="0"
     d="m 814.37886,251.7044 q -3.54986,-4.31058 -2.34544,-10.90318 1.20442,-6.5926 6.21226,-10.90313 5.07123,-4.31058 11.53705,-4.31058 6.46582,0 10.01568,4.31058 3.61326,4.31053 2.40884,10.90313 -1.20442,6.5926 -6.27565,10.90318 -5.07123,4.31053 -11.53705,4.31053 -6.46582,0 -10.01569,-4.31053 z m 6.90956,-18.38323 q -3.2963,2.91596 -4.12038,7.48005 -0.82407,4.56413 1.45798,7.54344 2.28205,2.91596 6.5926,2.91596 4.31055,0 7.67024,-2.91596 3.35969,-2.97931 4.18376,-7.54344 0.82408,-4.56409 -1.52136,-7.48005 -2.28205,-2.97936 -6.59261,-2.97936 -4.31054,0 -7.67023,2.97936 z"
     style="font-style:italic;font-variant:normal;font-weight:normal;font-stretch:normal;font-size:12.52019596px;line-height:1;font-family:'Renner*';-inkscape-font-specification:'Renner*';text-align:start;letter-spacing:0px;word-spacing:0px;text-anchor:start;fill:#333333;fill-opacity:1;stroke:none;stroke-width:5.06305122px;stroke-linecap:butt;stroke-linejoin:miter;stroke-opacity:1"
     id="path1023" />
  <path
     inkscape:connector-curvature="0"
     d="m 849.04549,251.7044 q -3.54987,-4.31058 -2.34545,-10.90318 1.20442,-6.5926 6.21226,-10.90313 5.07123,-4.31058 11.53705,-4.31058 6.46582,0 10.01569,4.31058 3.61325,4.31053 2.40883,10.90313 -1.20442,6.5926 -6.27565,10.90318 -5.07123,4.31053 -11.53705,4.31053 -6.46582,0 -10.01568,-4.31053 z m 6.90955,-18.38323 q -3.2963,2.91596 -4.12038,7.48005 -0.82407,4.56413 1.45798,7.54344 2.28206,2.91596 6.59261,2.91596 4.31054,0 7.67023,-2.91596 3.35969,-2.97931 4.18377,-7.54344 0.82407,-4.56409 -1.52137,-7.48005 -2.28205,-2.97936 -6.5926,-2.97936 -4.31055,0 -7.67024,2.97936 z"
     style="font-style:italic;font-variant:normal;font-weight:normal;font-stretch:normal;font-size:12.52019596px;line-height:1;font-family:'Renner*';-inkscape-font-specification:'Renner*';text-align:start;letter-spacing:0px;word-spacing:0px;text-anchor:start;fill:#333333;fill-opacity:1;stroke:none;stroke-width:5.06305122px;stroke-linecap:butt;stroke-linejoin:miter;stroke-opacity:1"
     id="path1025" />
  <path
     inkscape:connector-curvature="0"
     d="m 901.96855,226.22145 h 6.33903 l -14.76995,12.04414 10.90314,17.11544 h -6.33904 l -9.44517,-14.76998 -2.599,14.76998 h -5.07123 l 8.74787,-49.44454 h 5.07123 l -5.38818,30.5542 z"
     style="font-style:italic;font-variant:normal;font-weight:normal;font-stretch:normal;font-size:12.52019596px;line-height:1;font-family:'Renner*';-inkscape-font-specification:'Renner*';text-align:start;letter-spacing:0px;word-spacing:0px;text-anchor:start;fill:#333333;fill-opacity:1;stroke:none;stroke-width:5.06305122px;stroke-linecap:butt;stroke-linejoin:miter;stroke-opacity:1"
     id="path1027" />
  <path
     inkscape:connector-curvature="0"
     d="m 918.54216,211.00774 h 6.33904 l -6.84616,31.69521 h -3.80343 z m -7.67024,41.83767 q 0.25356,-1.39462 1.45798,-2.40885 1.20442,-1.07762 2.6624,-1.07762 1.39459,0 2.21867,1.01423 0.88746,1.01423 0.6339,2.47224 -0.25356,1.39456 -1.45798,2.47223 -1.20442,1.01423 -2.6624,1.01423 -1.39459,0 -2.28205,-1.01423 -0.82408,-1.01428 -0.57052,-2.47223 z"
     style="font-style:italic;font-variant:normal;font-weight:normal;font-stretch:normal;font-size:12.52019596px;line-height:1;font-family:'Renner*';-inkscape-font-specification:'Renner*';text-align:start;letter-spacing:0px;word-spacing:0px;text-anchor:start;fill:#333333;fill-opacity:1;stroke:none;stroke-width:5.06305122px;stroke-linecap:butt;stroke-linejoin:miter;stroke-opacity:1"
     id="path1029" />
  <path
     inkscape:connector-curvature="0"
     d="m 789.74575,294.38096 -7.79702,26.9409 h -7.73362 l 14.32623,-46.59192 12.86825,30.11042 23.58122,-30.11042 -2.15527,46.59192 h -7.79702 l 1.71154,-26.9409 -17.55913,22.82054 z"
     style="font-style:italic;font-variant:normal;font-weight:500;font-stretch:normal;font-size:12.52019596px;line-height:1;font-family:'Renner*';-inkscape-font-specification:'Renner* Medium';text-align:start;letter-spacing:0px;word-spacing:0px;text-anchor:start;fill:#333333;fill-opacity:1;stroke:none;stroke-width:5.06305122px;stroke-linecap:butt;stroke-linejoin:miter;stroke-opacity:1"
     id="path1031" />
  <path
     inkscape:connector-curvature="0"
     d="m 852.86971,303.57257 q 0.12678,-3.23291 -1.39458,-5.00786 -1.52137,-1.83829 -4.69089,-1.83829 -3.16952,0 -5.70514,1.83829 -2.53561,1.83834 -3.48647,5.00786 z m -16.16455,4.75426 q -0.31694,3.93024 1.45798,5.9587 1.83832,2.02851 5.26141,2.02851 5.57835,0 9.1916,-4.62752 l 5.51497,2.40884 q -6.21226,7.86044 -16.03777,7.86044 -6.65599,0 -10.01568,-4.24719 -3.3597,-4.31053 -2.15528,-10.96652 1.20442,-6.84615 6.02209,-11.02996 4.88106,-4.18375 11.854,-4.18375 6.78277,0 9.95229,3.99359 3.16953,3.99363 1.96511,10.90318 -0.0634,0.50711 -0.44373,1.90168 z"
     style="font-style:italic;font-variant:normal;font-weight:500;font-stretch:normal;font-size:12.52019596px;line-height:1;font-family:'Renner*';-inkscape-font-specification:'Renner* Medium';text-align:start;letter-spacing:0px;word-spacing:0px;text-anchor:start;fill:#333333;fill-opacity:1;stroke:none;stroke-width:5.06305122px;stroke-linecap:butt;stroke-linejoin:miter;stroke-opacity:1"
     id="path1033" />
  <path
     inkscape:connector-curvature="0"
     d="m 866.06185,317.83539 q -3.35969,-4.12036 -2.09188,-11.0933 1.26781,-6.97293 6.08548,-11.09335 4.81767,-4.12036 10.77636,-4.12036 6.52921,0 9.00144,5.45159 l 4.43733,-25.10261 h 6.90955 l -8.74787,49.4445 h -6.90956 l 0.82408,-4.81765 q -4.43733,5.45159 -10.90315,5.45159 -5.9587,0 -9.38178,-4.12041 z m 8.68448,-17.81268 q -2.91595,2.47224 -3.67664,6.71938 -0.76068,4.24714 1.3312,6.78277 2.09189,2.47224 5.76853,2.47224 3.10613,0 5.95869,-2.34546 2.91597,-2.34546 3.86682,-6.27565 l 0.25355,-1.33118 q 0.44373,-3.93024 -1.71153,-6.21226 -2.09189,-2.34546 -5.13463,-2.34546 -3.67664,0 -6.65599,2.53562 z"
     style="font-style:italic;font-variant:normal;font-weight:500;font-stretch:normal;font-size:12.52019596px;line-height:1;font-family:'Renner*';-inkscape-font-specification:'Renner* Medium';text-align:start;letter-spacing:0px;word-spacing:0px;text-anchor:start;fill:#333333;fill-opacity:1;stroke:none;stroke-width:5.06305122px;stroke-linecap:butt;stroke-linejoin:miter;stroke-opacity:1"
     id="path1035" />
  <path
     inkscape:connector-curvature="0"
     d="m 908.4631,283.54122 q -1.01425,-1.20445 -0.6973,-2.97936 0.31694,-1.77495 1.77493,-2.97935 1.52137,-1.20445 3.2963,-1.20445 1.83832,0 2.85257,1.20445 1.07763,1.2044 0.76068,2.97935 -0.31694,1.77491 -1.83832,2.97936 -1.45798,1.2044 -3.23291,1.2044 -1.83832,0 -2.91595,-1.2044 z m -1.77494,8.62106 h 6.71939 l -5.13463,29.15958 h -6.71938 z"
     style="font-style:italic;font-variant:normal;font-weight:500;font-stretch:normal;font-size:12.52019596px;line-height:1;font-family:'Renner*';-inkscape-font-specification:'Renner* Medium';text-align:start;letter-spacing:0px;word-spacing:0px;text-anchor:start;fill:#333333;fill-opacity:1;stroke:none;stroke-width:5.06305122px;stroke-linecap:butt;stroke-linejoin:miter;stroke-opacity:1"
     id="path1037" />
  <path
     inkscape:connector-curvature="0"
     d="m 926.75914,309.91161 q -1.14102,6.52921 4.31055,6.52921 2.72579,0 4.75428,-1.64817 2.02849,-1.64813 2.72578,-4.31053 l 3.23291,-18.31984 h 6.84617 l -5.13462,29.15958 h -6.84617 l 0.82408,-4.56409 q -3.74003,5.19803 -9.76212,5.19803 -4.88106,0 -6.97295,-2.85257 -2.09188,-2.91596 -1.14102,-8.43094 l 3.23291,-18.51001 h 7.03633 z"
     style="font-style:italic;font-variant:normal;font-weight:500;font-stretch:normal;font-size:12.52019596px;line-height:1;font-family:'Renner*';-inkscape-font-specification:'Renner* Medium';text-align:start;letter-spacing:0px;word-spacing:0px;text-anchor:start;fill:#333333;fill-opacity:1;stroke:none;stroke-width:5.06305122px;stroke-linecap:butt;stroke-linejoin:miter;stroke-opacity:1"
     id="path1039" />
  <path
     inkscape:connector-curvature="0"
     d="m 997.24432,302.8119 -3.23291,18.50996 h -6.90955 l 3.10612,-17.74929 q 0.57052,-3.2963 -0.25355,-4.88108 -0.82408,-1.64813 -3.42308,-1.64813 -2.59901,0 -4.43733,1.64813 -1.77493,1.58478 -2.40883,4.24719 l -3.23291,18.38318 h -6.90956 l 3.10613,-17.74929 q 0.57052,-3.2963 -0.25356,-4.88108 -0.76068,-1.64813 -3.35969,-1.64813 -2.599,0 -4.43732,1.64813 -1.77494,1.58478 -2.40884,4.31058 l -3.23291,18.31979 h -6.71939 l 5.13462,-29.15958 h 6.71938 l -0.76068,4.24719 q 3.54986,-4.88109 9.06482,-4.88109 6.40243,0 7.48007,5.13465 4.12038,-5.13465 10.07907,-5.13465 9.255,0 7.2899,11.28352 z"
     style="font-style:italic;font-variant:normal;font-weight:500;font-stretch:normal;font-size:12.52019596px;line-height:1;font-family:'Renner*';-inkscape-font-specification:'Renner* Medium';text-align:start;letter-spacing:0px;word-spacing:0px;text-anchor:start;fill:#333333;fill-opacity:1;stroke:none;stroke-width:5.06305122px;stroke-linecap:butt;stroke-linejoin:miter;stroke-opacity:1"
     id="path1041" />
  <path
     inkscape:connector-curvature="0"
     d="m 1011.9429,276.94862 h 8.5578 l -7.0364,30.93448 h -5.3882 z m -6.6559,44.37324 q -1.0777,-1.26779 -0.7607,-3.10613 0.3169,-1.8383 1.7749,-3.04275 1.5214,-1.20439 3.4231,-1.20439 1.9017,0 2.9793,1.26783 1.1411,1.2044 0.8241,2.97931 -0.3169,1.83834 -1.8383,3.10613 -1.5214,1.20445 -3.4231,1.20445 -1.9017,0 -2.9793,-1.20445 z"
     style="font-style:italic;font-variant:normal;font-weight:500;font-stretch:normal;font-size:12.52019596px;line-height:1;font-family:'Renner*';-inkscape-font-specification:'Renner* Medium';text-align:start;letter-spacing:0px;word-spacing:0px;text-anchor:start;fill:#333333;fill-opacity:1;stroke:none;stroke-width:5.06305122px;stroke-linecap:butt;stroke-linejoin:miter;stroke-opacity:1"
     id="path1043" />
  <path
     inkscape:connector-curvature="0"
     d="m 783.40672,371.79552 q 1.45797,4.37392 3.67664,6.52921 2.28205,2.09185 5.83191,2.09185 2.91596,0 4.75428,-1.33118 1.83833,-1.39457 2.28206,-3.8668 0.25356,-1.45801 -0.12678,-2.53563 -0.38034,-1.14101 -1.83832,-2.15529 -1.45798,-1.01423 -2.34545,-1.39457 -0.82407,-0.44352 -3.2963,-1.458 -0.38034,-0.19038 -0.57051,-0.25366 -11.02993,-4.43731 -9.44517,-13.37537 0.95085,-5.38815 5.70513,-8.68445 4.75428,-3.35969 11.28349,-3.35969 6.08548,0 9.50856,2.85252 3.42309,2.85258 4.24716,6.78277 l -7.73363,4.1838 q -2.15527,-5.89531 -7.03633,-5.89531 -2.6624,0 -4.43733,1.2044 -1.77493,1.20445 -2.15528,3.2963 -0.12677,0.82411 0.0634,1.58478 0.19017,0.69729 0.95086,1.39457 0.76068,0.63389 1.26781,1.07767 0.57051,0.38023 2.02849,1.07762 1.52137,0.63389 2.15527,0.88745 0.6973,0.25366 2.53562,0.95084 10.5228,3.99364 8.81127,13.56559 -1.14103,6.40243 -5.9587,9.95229 -4.81768,3.48646 -12.29774,3.48646 -5.89531,0 -10.01568,-3.23291 -4.12038,-3.2963 -5.26141,-8.81128 z"
     style="font-style:italic;font-variant:normal;font-weight:600;font-stretch:normal;font-size:12.52019596px;line-height:1;font-family:'Renner*';-inkscape-font-specification:'Renner* Semi-Bold';text-align:start;letter-spacing:0px;word-spacing:0px;text-anchor:start;fill:#333333;fill-opacity:1;stroke:none;stroke-width:5.06305122px;stroke-linecap:butt;stroke-linejoin:miter;stroke-opacity:1"
     id="path1045" />
  <path
     inkscape:connector-curvature="0"
     d="m 837.64116,369.25989 q 0,-5.70515 -5.76853,-5.70515 -2.85257,0 -5.13462,1.5214 -2.21866,1.52135 -3.23291,4.18375 z m -15.15031,5.19803 q -0.0634,3.35969 1.83833,5.19798 1.90171,1.77496 5.13462,1.77496 4.56411,0 7.41668,-3.99364 l 6.52921,2.53563 q -2.85257,3.9302 -6.33904,5.95871 -3.48648,1.96512 -9.12822,1.96512 -6.90955,0 -10.64959,-4.31058 -3.67664,-4.31053 -2.47222,-10.90313 1.20441,-6.84616 6.14886,-11.02991 5.00785,-4.1838 12.10757,-4.1838 6.5926,0 9.9523,4.05702 3.35968,3.99359 2.15527,10.77635 -0.0634,0.69729 -0.50712,2.15529 z"
     style="font-style:italic;font-variant:normal;font-weight:600;font-stretch:normal;font-size:12.52019596px;line-height:1;font-family:'Renner*';-inkscape-font-specification:'Renner* Semi-Bold';text-align:start;letter-spacing:0px;word-spacing:0px;text-anchor:start;fill:#333333;fill-opacity:1;stroke:none;stroke-width:5.06305122px;stroke-linecap:butt;stroke-linejoin:miter;stroke-opacity:1"
     id="path1047" />
  <path
     inkscape:connector-curvature="0"
     d="m 895.37595,368.626 -3.29631,18.63673 h -8.30413 l 3.10612,-17.74928 q 1.07764,-5.95871 -3.23291,-5.95871 -2.09188,0 -3.61325,1.33123 -1.52137,1.26779 -2.21866,3.54986 l -3.35969,18.8269 h -8.30415 l 3.10614,-17.74928 q 0.57051,-2.97935 -0.19017,-4.43731 -0.6973,-1.5214 -2.97935,-1.5214 -2.21866,0 -3.80343,1.39462 -1.58476,1.39457 -2.15527,3.86681 l -3.23291,18.44656 h -7.98719 l 5.13463,-29.15958 h 7.98718 l -0.76069,4.31058 q 3.48648,-4.94447 9.19161,-4.94447 6.46582,0 7.48007,4.94447 4.18377,-4.94447 10.07907,-4.94447 9.31839,0 7.35329,11.15674 z"
     style="font-style:italic;font-variant:normal;font-weight:600;font-stretch:normal;font-size:12.52019596px;line-height:1;font-family:'Renner*';-inkscape-font-specification:'Renner* Semi-Bold';text-align:start;letter-spacing:0px;word-spacing:0px;text-anchor:start;fill:#333333;fill-opacity:1;stroke:none;stroke-width:5.06305122px;stroke-linecap:butt;stroke-linejoin:miter;stroke-opacity:1"
     id="path1049" />
  <path
     inkscape:connector-curvature="0"
     d="m 906.88725,346.81969 q 0.31694,-1.96512 2.02849,-3.2963 1.71154,-1.39457 3.80342,-1.39457 2.09189,0 3.23291,1.33118 1.14103,1.33118 0.82408,3.35969 -0.31695,1.96512 -2.02849,3.35969 -1.64815,1.33117 -3.74004,1.33117 -2.09188,0 -3.2963,-1.33117 -1.14103,-1.33118 -0.82407,-3.35969 z m -1.07764,11.28346 h 7.98719 l -5.13462,29.15958 h -7.98719 z"
     style="font-style:italic;font-variant:normal;font-weight:600;font-stretch:normal;font-size:12.52019596px;line-height:1;font-family:'Renner*';-inkscape-font-specification:'Renner* Semi-Bold';text-align:start;letter-spacing:0px;word-spacing:0px;text-anchor:start;fill:#333333;fill-opacity:1;stroke:none;stroke-width:5.06305122px;stroke-linecap:butt;stroke-linejoin:miter;stroke-opacity:1"
     id="path1051" />
  <path
     inkscape:connector-curvature="0"
     d="m 926.44219,342.88949 h 10.26924 l -7.16311,30.30059 h -6.5926 z m -6.40243,44.37324 q -1.20442,-1.45795 -0.82407,-3.54985 0.38033,-2.09185 2.09188,-3.42308 1.71154,-1.39457 3.99359,-1.39457 2.28206,0 3.48647,1.39457 1.26781,1.33123 0.88747,3.42308 -0.38034,2.0919 -2.09188,3.54985 -1.71155,1.39462 -3.9936,1.39462 -2.28205,0 -3.54986,-1.39462 z"
     style="font-style:italic;font-variant:normal;font-weight:600;font-stretch:normal;font-size:12.52019596px;line-height:1;font-family:'Renner*';-inkscape-font-specification:'Renner* Semi-Bold';text-align:start;letter-spacing:0px;word-spacing:0px;text-anchor:start;fill:#333333;fill-opacity:1;stroke:none;stroke-width:5.06305122px;stroke-linecap:butt;stroke-linejoin:miter;stroke-opacity:1"
     id="path1053" />
  <path
     inkscape:connector-curvature="0"
     d="m 784.29418,408.83037 h 16.35472 q 7.09973,0 10.90315,2.91596 3.80343,2.91597 2.85257,8.36751 -1.14103,6.33904 -8.05058,9.255 3.86681,1.39462 5.76853,4.24719 1.9651,2.78914 1.20441,7.09972 -2.21866,12.48791 -19.46085,12.48791 h -17.36897 z m 9.255,8.3675 -1.64815,9.25501 h 4.43733 q 2.78917,0 4.5641,-1.26779 1.77493,-1.26779 2.15528,-3.48647 0.38034,-2.21868 -0.95086,-3.35969 -1.3312,-1.14106 -4.12037,-1.14106 z m -2.97935,16.73511 -1.90171,10.90313 h 5.51496 q 7.2899,0 8.30415,-5.57837 0.50712,-2.7258 -1.26781,-3.99358 -1.77494,-1.33118 -5.07124,-1.33118 z"
     style="font-style:italic;font-variant:normal;font-weight:bold;font-stretch:normal;font-size:12.52019596px;line-height:1;font-family:'Renner*';-inkscape-font-specification:'Renner* Bold';text-align:start;letter-spacing:0px;word-spacing:0px;text-anchor:start;fill:#333333;fill-opacity:1;stroke:none;stroke-width:5.06305122px;stroke-linecap:butt;stroke-linejoin:miter;stroke-opacity:1"
     id="path1055" />
  <path
     inkscape:connector-curvature="0"
     d="m 831.33382,433.29903 q -2.28206,2.02852 -2.91596,5.32482 -0.6339,3.2963 0.95086,5.32481 1.58476,1.96507 4.50071,1.96507 2.91596,0 5.19802,-1.96507 2.28205,-2.02851 2.91595,-5.32481 0.63391,-3.2963 -1.01424,-5.32482 -1.58476,-2.02846 -4.50072,-2.02846 -2.85257,0 -5.13462,2.02846 z m -10.07907,16.35472 q -3.93021,-4.18375 -2.72579,-11.0299 1.20442,-6.84616 6.65599,-11.02991 5.45157,-4.1838 12.67808,-4.1838 7.2265,0 11.2201,4.1838 3.99359,4.18375 2.78917,11.02991 -1.20441,6.84615 -6.71937,11.0299 -5.45158,4.18381 -12.67809,4.18381 -7.2265,0 -11.22009,-4.18381 z"
     style="font-style:italic;font-variant:normal;font-weight:bold;font-stretch:normal;font-size:12.52019596px;line-height:1;font-family:'Renner*';-inkscape-font-specification:'Renner* Bold';text-align:start;letter-spacing:0px;word-spacing:0px;text-anchor:start;fill:#333333;fill-opacity:1;stroke:none;stroke-width:5.06305122px;stroke-linecap:butt;stroke-linejoin:miter;stroke-opacity:1"
     id="path1057" />
  <path
     inkscape:connector-curvature="0"
     d="m 863.84318,403.75912 h 9.63535 l -8.74788,49.44454 h -9.63534 z"
     style="font-style:italic;font-variant:normal;font-weight:bold;font-stretch:normal;font-size:12.52019596px;line-height:1;font-family:'Renner*';-inkscape-font-specification:'Renner* Bold';text-align:start;letter-spacing:0px;word-spacing:0px;text-anchor:start;fill:#333333;fill-opacity:1;stroke:none;stroke-width:5.06305122px;stroke-linecap:butt;stroke-linejoin:miter;stroke-opacity:1"
     id="path1059" />
  <path
     inkscape:connector-curvature="0"
     d="m 886.0635,433.23565 q -2.34544,2.02851 -2.97935,5.3882 -0.6339,3.35968 1.01425,5.45159 1.71154,2.02846 4.62749,2.02846 2.47223,0 4.81768,-1.8383 2.40883,-1.90173 3.16952,-5.00786 l 0.19016,-1.2044 q 0.38034,-3.10613 -1.39459,-5.00786 -1.71154,-1.90169 -4.18376,-1.90169 -2.91596,0 -5.2614,2.09186 z m -13.05842,5.3882 q 1.26781,-7.09972 6.02208,-11.15669 4.81767,-4.05702 10.45942,-4.05702 6.52921,0 9.06483,5.32481 l 4.43732,-24.97583 h 9.63534 l -8.74787,49.44454 h -9.63534 l 0.82408,-4.62753 q -4.50072,5.26143 -10.96654,5.26143 -5.70514,0 -9.06483,-4.05698 -3.2963,-4.12041 -2.02849,-11.15673 z"
     style="font-style:italic;font-variant:normal;font-weight:bold;font-stretch:normal;font-size:12.52019596px;line-height:1;font-family:'Renner*';-inkscape-font-specification:'Renner* Bold';text-align:start;letter-spacing:0px;word-spacing:0px;text-anchor:start;fill:#333333;fill-opacity:1;stroke:none;stroke-width:5.06305122px;stroke-linecap:butt;stroke-linejoin:miter;stroke-opacity:1"
     id="path1061" />
  <path
     inkscape:connector-curvature="0"
     d="m 784.1674,474.77125 h 12.29774 l -2.78918,15.72082 h 17.49575 l 2.78917,-15.72082 h 12.29774 l -7.79702,44.37329 H 806.16387 L 809.27,501.45859 h -17.49575 l -3.10613,17.68595 h -12.29774 z"
     style="font-style:italic;font-variant:normal;font-weight:800;font-stretch:normal;font-size:12.52019596px;line-height:1;font-family:'Renner*';-inkscape-font-specification:'Renner* Ultra-Bold';text-align:start;letter-spacing:0px;word-spacing:0px;text-anchor:start;fill:#333333;fill-opacity:1;stroke:none;stroke-width:5.06305122px;stroke-linecap:butt;stroke-linejoin:miter;stroke-opacity:1"
     id="path1063" />
  <path
     inkscape:connector-curvature="0"
     d="m 838.15027,506.84679 q 0.0634,2.66241 1.45798,3.93019 1.39458,1.26784 3.74003,1.26784 4.69089,0 6.71938,-3.16952 l 9.19161,2.28202 q -5.83192,8.62111 -17.24219,8.62111 -7.98719,0 -11.72722,-4.18375 -3.67664,-4.24719 -2.47223,-11.02996 1.26781,-7.03632 6.40243,-11.0933 5.13462,-4.12041 13.12182,-4.12041 7.41667,0 10.90314,3.93025 3.54986,3.8668 2.34545,10.77635 -0.12678,0.95084 -0.63391,2.78918 z m 11.98078,-5.83193 q -0.12678,-4.31053 -4.37394,-4.31053 -4.75428,0 -6.46582,4.31053 z"
     style="font-style:italic;font-variant:normal;font-weight:800;font-stretch:normal;font-size:12.52019596px;line-height:1;font-family:'Renner*';-inkscape-font-specification:'Renner* Ultra-Bold';text-align:start;letter-spacing:0px;word-spacing:0px;text-anchor:start;fill:#333333;fill-opacity:1;stroke:none;stroke-width:5.06305122px;stroke-linecap:butt;stroke-linejoin:miter;stroke-opacity:1"
     id="path1065" />
  <path
     inkscape:connector-curvature="0"
     d="m 878.84293,500.12741 q -1.9651,1.58474 -2.47222,4.43731 -0.50712,2.85258 0.95086,4.50075 1.45798,1.58474 4.05698,1.58474 2.40884,0 4.43733,-1.58474 2.09188,-1.58478 2.59901,-4.50075 0.50712,-2.91596 -1.01425,-4.5007 -1.52137,-1.58478 -3.9302,-1.58478 -2.59901,0 -4.62751,1.64817 z m -14.07266,4.43731 q 0.88747,-5.00781 3.54986,-8.49428 2.6624,-3.54991 5.89531,-5.07125 3.2963,-1.52135 6.90955,-1.52135 6.78277,0 9.06483,5.32476 l 0.82407,-4.81764 h 10.96654 l -5.13462,29.15958 h -10.96654 l 0.88747,-4.94448 q -4.24716,5.45159 -11.15672,5.45159 -5.64174,0 -8.87465,-3.80341 -3.23291,-3.86686 -1.9651,-11.28352 z"
     style="font-style:italic;font-variant:normal;font-weight:800;font-stretch:normal;font-size:12.52019596px;line-height:1;font-family:'Renner*';-inkscape-font-specification:'Renner* Ultra-Bold';text-align:start;letter-spacing:0px;word-spacing:0px;text-anchor:start;fill:#333333;fill-opacity:1;stroke:none;stroke-width:5.06305122px;stroke-linecap:butt;stroke-linejoin:miter;stroke-opacity:1"
     id="path1067" />
  <path
     inkscape:connector-curvature="0"
     d="m 904.70622,489.98496 h 11.66383 l 3.54987,14.83332 8.74787,-14.83332 h 11.66383 l -23.64461,32.96299 z"
     style="font-style:italic;font-variant:normal;font-weight:800;font-stretch:normal;font-size:12.52019596px;line-height:1;font-family:'Renner*';-inkscape-font-specification:'Renner* Ultra-Bold';text-align:start;letter-spacing:0px;word-spacing:0px;text-anchor:start;fill:#333333;fill-opacity:1;stroke:none;stroke-width:5.06305122px;stroke-linecap:butt;stroke-linejoin:miter;stroke-opacity:1"
     id="path1069" />
  <path
     inkscape:connector-curvature="0"
     d="m 977.22681,489.98496 -26.62396,43.10545 H 939.6997 l 9.63534,-15.72083 -8.24075,-27.38462 h 11.91739 l 3.74004,16.29133 9.31838,-16.29133 z"
     style="font-style:italic;font-variant:normal;font-weight:800;font-stretch:normal;font-size:12.52019596px;line-height:1;font-family:'Renner*';-inkscape-font-specification:'Renner* Ultra-Bold';text-align:start;letter-spacing:0px;word-spacing:0px;text-anchor:start;fill:#333333;fill-opacity:1;stroke:none;stroke-width:5.06305122px;stroke-linecap:butt;stroke-linejoin:miter;stroke-opacity:1"
     id="path1071" />
  <path
     inkscape:connector-curvature="0"
     d="m 976.58796,514.83396 q 0.50712,-2.66236 2.6624,-4.37392 2.21866,-1.71157 5.13462,-1.71157 2.91596,0 4.50071,1.71157 1.64816,1.71156 1.14103,4.37392 -0.44372,2.6624 -2.66239,4.31058 -2.15528,1.71151 -5.13463,1.71151 -2.97934,0 -4.5641,-1.71151 -1.52138,-1.64818 -1.07764,-4.31058 z m 7.03633,-40.06271 h 13.56555 l -7.48007,29.15958 h -8.93805 z"
     style="font-style:italic;font-variant:normal;font-weight:800;font-stretch:normal;font-size:12.52019596px;line-height:1;font-family:'Renner*';-inkscape-font-specification:'Renner* Ultra-Bold';text-align:start;letter-spacing:0px;word-spacing:0px;text-anchor:start;fill:#333333;fill-opacity:1;stroke:none;stroke-width:5.06305122px;stroke-linecap:butt;stroke-linejoin:miter;stroke-opacity:1"
     id="path1073" />
  <path
     inkscape:connector-curvature="0"
     d="m 784.04062,539.80655 h 19.33407 q 7.67024,0 11.98079,2.97935 4.31054,2.97935 3.35969,8.43094 -1.14103,6.27565 -7.79702,9.38178 8.05058,3.48647 6.65599,11.41025 -1.14103,6.40243 -6.40243,9.31839 -5.19801,2.85258 -14.32623,2.85258 H 776.2436 Z m 12.10756,10.4594 -1.20442,6.97293 h 3.48648 q 4.6275,0 5.2614,-3.67663 0.25356,-1.71151 -0.69729,-2.47219 -0.95086,-0.82411 -3.35969,-0.82411 z m -2.85256,16.16455 -1.26781,7.28993 h 4.75428 q 2.85257,0 4.50072,-0.76072 1.64815,-0.76067 2.09188,-3.16952 0.31695,-1.96507 -1.14103,-2.66236 -1.39458,-0.69733 -4.18376,-0.69733 z"
     style="font-style:italic;font-variant:normal;font-weight:900;font-stretch:normal;font-size:12.52019596px;line-height:1;font-family:'Renner*';-inkscape-font-specification:'Renner* Heavy';text-align:start;letter-spacing:0px;word-spacing:0px;text-anchor:start;fill:#333333;fill-opacity:1;stroke:none;stroke-width:5.06305122px;stroke-linecap:butt;stroke-linejoin:miter;stroke-opacity:1"
     id="path1075" />
  <path
     inkscape:connector-curvature="0"
     d="m 829.90456,534.73534 h 12.36113 l -8.74787,49.4445 h -12.36113 z"
     style="font-style:italic;font-variant:normal;font-weight:900;font-stretch:normal;font-size:12.52019596px;line-height:1;font-family:'Renner*';-inkscape-font-specification:'Renner* Heavy';text-align:start;letter-spacing:0px;word-spacing:0px;text-anchor:start;fill:#333333;fill-opacity:1;stroke:none;stroke-width:5.06305122px;stroke-linecap:butt;stroke-linejoin:miter;stroke-opacity:1"
     id="path1077" />
  <path
     inkscape:connector-curvature="0"
     d="m 856.3968,565.92338 q -1.71155,1.33123 -2.15528,3.67664 -0.44372,2.34546 0.76069,3.74003 1.2678,1.33122 3.48647,1.33122 1.9651,0 3.67664,-1.141 1.71154,-1.14106 2.34545,-3.29636 l 0.19017,-1.33117 q 0.19016,-2.15529 -1.14103,-3.23291 -1.26781,-1.14101 -3.23291,-1.14101 -2.21866,0 -3.9302,1.39456 z m -15.2137,3.67664 q 1.3312,-7.48005 6.02209,-11.34685 4.69089,-3.86681 10.26924,-3.86681 6.71939,0 8.87466,5.19798 l 0.82407,-4.56408 h 12.36113 l -5.13462,29.15958 h -12.36113 l 0.82408,-4.75431 q -4.18377,5.3882 -11.02993,5.3882 -5.51496,0 -8.74787,-3.80341 -3.23291,-3.86681 -1.90172,-11.4103 z"
     style="font-style:italic;font-variant:normal;font-weight:900;font-stretch:normal;font-size:12.52019596px;line-height:1;font-family:'Renner*';-inkscape-font-specification:'Renner* Heavy';text-align:start;letter-spacing:0px;word-spacing:0px;text-anchor:start;fill:#333333;fill-opacity:1;stroke:none;stroke-width:5.06305122px;stroke-linecap:butt;stroke-linejoin:miter;stroke-opacity:1"
     id="path1079" />
  <path
     inkscape:connector-curvature="0"
     d="m 894.78166,569.60002 q -0.50713,2.78919 1.01424,4.31058 1.58476,1.52135 4.37394,1.52135 4.88106,0 8.30414,-3.74003 l -1.9651,11.15669 q -3.80342,1.96512 -9.255,1.96512 -7.98719,0 -12.23435,-4.12036 -4.18376,-4.12041 -2.97934,-11.09335 1.20441,-6.97293 6.90955,-11.0933 5.70513,-4.12036 13.69233,-4.12036 4.62749,0 8.5577,1.83829 l -1.96511,11.22013 q -1.01424,-1.83834 -3.04273,-2.72579 -2.02849,-0.9509 -3.93021,-0.9509 -2.599,0 -4.81767,1.71157 -2.21866,1.71156 -2.66239,4.12036 z"
     style="font-style:italic;font-variant:normal;font-weight:900;font-stretch:normal;font-size:12.52019596px;line-height:1;font-family:'Renner*';-inkscape-font-specification:'Renner* Heavy';text-align:start;letter-spacing:0px;word-spacing:0px;text-anchor:start;fill:#333333;fill-opacity:1;stroke:none;stroke-width:5.06305122px;stroke-linecap:butt;stroke-linejoin:miter;stroke-opacity:1"
     id="path1081" />
  <path
     inkscape:connector-curvature="0"
     d="m 940.03646,555.02026 h 14.5164 l -14.45301,12.04418 10.58619,17.1154 H 936.4232 l -9.44516,-14.83338 -2.59901,14.83338 h -11.72722 l 8.74787,-49.4445 h 11.72723 l -5.38819,30.55415 z"
     style="font-style:italic;font-variant:normal;font-weight:900;font-stretch:normal;font-size:12.52019596px;line-height:1;font-family:'Renner*';-inkscape-font-specification:'Renner* Heavy';text-align:start;letter-spacing:0px;word-spacing:0px;text-anchor:start;fill:#333333;fill-opacity:1;stroke:none;stroke-width:5.06305122px;stroke-linecap:butt;stroke-linejoin:miter;stroke-opacity:1"
     id="path1083" />
  <path
     inkscape:connector-curvature="0"
     d="m 957.6055,584.24323 q -1.71154,-1.83835 -1.20442,-4.8177 0.50713,-2.97935 2.91596,-4.81765 2.40884,-1.83834 5.76853,-1.83834 3.35969,0 5.07123,1.83834 1.71154,1.8383 1.20442,4.81765 -0.50712,2.97935 -2.91596,4.8177 -2.34545,1.83829 -5.70513,1.83829 -3.3597,0 -5.13463,-1.83829 z m 5.64175,-44.43668 h 15.21369 l -7.54346,28.52568 h -10.14246 z"
     style="font-style:italic;font-variant:normal;font-weight:900;font-stretch:normal;font-size:12.52019596px;line-height:1;font-family:'Renner*';-inkscape-font-specification:'Renner* Heavy';text-align:start;letter-spacing:0px;word-spacing:0px;text-anchor:start;fill:#333333;fill-opacity:1;stroke:none;stroke-width:5.06305122px;stroke-linecap:butt;stroke-linejoin:miter;stroke-opacity:1"
     id="path1085" />
</svg>
