<?xml version="1.0" encoding="UTF-8" standalone="no"?>
<!-- Created with Inkscape (http://www.inkscape.org/) -->

<svg
   xmlns:dc="http://purl.org/dc/elements/1.1/"
   xmlns:cc="http://creativecommons.org/ns#"
   xmlns:rdf="http://www.w3.org/1999/02/22-rdf-syntax-ns#"
   xmlns:svg="http://www.w3.org/2000/svg"
   xmlns="http://www.w3.org/2000/svg"
   xmlns:sodipodi="http://sodipodi.sourceforge.net/DTD/sodipodi-0.dtd"
   xmlns:inkscape="http://www.inkscape.org/namespaces/inkscape"
   id="svg2"
   version="1.1"
   inkscape:version="0.92.2 (unknown)"
   width="1600"
   height="640"
   viewBox="0 0 1500 600"
   sodipodi:docname="1a.svg">
  <metadata
     id="metadata8">
    <rdf:RDF>
      <cc:Work
         rdf:about="">
        <dc:format>image/svg+xml</dc:format>
        <dc:type
           rdf:resource="http://purl.org/dc/dcmitype/StillImage" />
        <dc:title></dc:title>
      </cc:Work>
    </rdf:RDF>
  </metadata>
  <defs
     id="defs6" />
  <sodipodi:namedview
     pagecolor="#ffffff"
     bordercolor="#666666"
     borderopacity="1"
     objecttolerance="10"
     gridtolerance="10"
     guidetolerance="10"
     inkscape:pageopacity="0"
     inkscape:pageshadow="2"
     inkscape:window-width="1920"
     inkscape:window-height="1027"
     id="namedview4"
     showgrid="false"
     inkscape:zoom="0.65996633"
     inkscape:cx="535.17527"
     inkscape:cy="395.74353"
     inkscape:window-x="0"
     inkscape:window-y="25"
     inkscape:window-maximized="1"
     inkscape:current-layer="svg2" />
  <path
     style="fill:#f2f2f2"
     d="M 0,0 H 1500 V 600 H 0 Z"
     id="rect3354" />
  <g
     aria-label="
Renner* Thin!
Renner* Light!
Renner* Book!
Renner* Medium!
Renner* Bold!
Renner* Black!"
     transform="matrix(2.1964512,0,0,2.1964512,426.49916,-94.406817)"
     style="font-style:normal;font-weight:normal;line-height:0.01%;font-family:sans-serif;text-align:start;letter-spacing:0px;word-spacing:0px;text-anchor:start;fill:#333333;fill-opacity:1;stroke:none;stroke-width:1px;stroke-linecap:butt;stroke-linejoin:miter;stroke-opacity:1"
     id="flowRoot3338">
    <path
       d="m 26.438365,72.082165 z m -0.927463,0 h 4.637312 q 3.277033,0 5.286535,1.607601 2.009501,1.576686 2.009501,4.668227 0,2.906048 -1.793093,4.482734 -1.762179,1.576686 -4.730058,1.762179 l 7.048713,9.120045 h -1.205701 l -6.894136,-9.08913 h -3.43161 v 9.08913 h -0.927463 z m 0.927463,0.896547 v 10.758562 h 3.709849 q 2.875133,0 4.606396,-1.360278 1.731263,-1.391193 1.731263,-4.019003 0,-2.62781 -1.731263,-3.988088 -1.731263,-1.391193 -4.606396,-1.391193 z"
       style="font-style:normal;font-variant:normal;font-weight:300;font-stretch:normal;font-size:30.91540909px;line-height:1.25;font-family:'Renner*';-inkscape-font-specification:'Renner* Light';text-align:start;text-anchor:start;fill:#333333"
       id="path838" />
    <path
       d="m 51.415117,85.901353 q -0.03092,-2.318656 -1.483939,-4.019003 -1.453024,-1.700348 -3.709849,-1.700348 -2.256825,0 -3.864426,1.731263 -1.576686,1.731263 -1.638517,3.988088 z m -10.758562,0.927462 q 0.06183,2.596894 1.700348,4.389988 1.638516,1.793094 3.926256,1.793094 3.431611,0 5.224705,-3.400695 l 0.8038,0.494646 q -2.009501,3.864426 -6.090335,3.864426 -2.62781,0 -4.575481,-2.102247 -1.947671,-2.102248 -1.947671,-5.25562 0,-3.215202 1.854925,-5.286535 1.854924,-2.071332 4.668227,-2.071332 2.751471,0 4.451819,1.978586 1.731262,1.947671 1.731262,5.255619 0,0.185493 -0.03092,0.34007 z"
       style="font-style:normal;font-variant:normal;font-weight:200;font-stretch:normal;font-size:30.91540909px;line-height:1.25;font-family:'Renner*';-inkscape-font-specification:'Renner* Ultra-Light';text-align:start;text-anchor:start;fill:#333333"
       id="path840" />
    <path
       d="m 57.380341,85.066637 v 8.656314 H 56.452879 V 79.501863 h 0.927462 v 3.215203 q 0.525562,-1.638517 1.793094,-2.535064 1.267532,-0.927462 3.215203,-0.927462 2.009501,0 3.060625,1.422109 1.051124,1.391193 1.051124,3.771679 v 9.274623 h -0.927462 v -8.965468 q 0,-4.575481 -3.493441,-4.575481 -2.009502,0 -3.36978,1.514855 -1.329363,1.514855 -1.329363,3.36978 z"
       style="font-style:normal;font-variant:normal;font-weight:200;font-stretch:normal;font-size:30.91540909px;line-height:1.25;font-family:'Renner*';-inkscape-font-specification:'Renner* Ultra-Light';text-align:start;text-anchor:start;fill:#333333"
       id="path842" />
    <path
       d="m 72.656903,85.066637 v 8.656314 H 71.729441 V 79.501863 h 0.927462 v 3.215203 q 0.525562,-1.638517 1.793094,-2.535064 1.267532,-0.927462 3.215202,-0.927462 2.009502,0 3.060626,1.422109 1.051124,1.391193 1.051124,3.771679 v 9.274623 h -0.927462 v -8.965468 q 0,-4.575481 -3.493442,-4.575481 -2.009501,0 -3.369779,1.514855 -1.329363,1.514855 -1.329363,3.36978 z"
       style="font-style:normal;font-variant:normal;font-weight:200;font-stretch:normal;font-size:30.91540909px;line-height:1.25;font-family:'Renner*';-inkscape-font-specification:'Renner* Ultra-Light';text-align:start;text-anchor:start;fill:#333333"
       id="path844" />
    <path
       d="m 97.486323,85.901353 q -0.03092,-2.318656 -1.48394,-4.019003 -1.453024,-1.700348 -3.709849,-1.700348 -2.256825,0 -3.864426,1.731263 -1.576686,1.731263 -1.638517,3.988088 z M 86.72776,86.828815 q 0.06183,2.596894 1.700348,4.389988 1.638516,1.793094 3.926257,1.793094 3.43161,0 5.224704,-3.400695 l 0.8038,0.494646 q -2.009501,3.864426 -6.090335,3.864426 -2.62781,0 -4.575481,-2.102247 -1.947671,-2.102248 -1.947671,-5.25562 0,-3.215202 1.854925,-5.286535 1.854925,-2.071332 4.668227,-2.071332 2.751471,0 4.451819,1.978586 1.731263,1.947671 1.731263,5.255619 0,0.185493 -0.03092,0.34007 z"
       style="font-style:normal;font-variant:normal;font-weight:200;font-stretch:normal;font-size:30.91540909px;line-height:1.25;font-family:'Renner*';-inkscape-font-specification:'Renner* Ultra-Light';text-align:start;text-anchor:start;fill:#333333"
       id="path846" />
    <path
       d="m 108.55259,81.264041 q -0.74197,-0.989293 -2.13316,-0.989293 -1.29845,0 -2.13316,1.545771 -0.83472,1.54577 -0.83472,3.246118 v 8.656314 h -0.92746 V 79.501863 h 0.92746 v 2.813302 q 0.71105,-3.060625 3.30795,-3.060625 1.14387,0 2.34957,1.14387 z"
       style="font-style:normal;font-variant:normal;font-weight:200;font-stretch:normal;font-size:30.91540909px;line-height:1.25;font-family:'Renner*';-inkscape-font-specification:'Renner* Ultra-Light';text-align:start;text-anchor:start;fill:#333333"
       id="path848" />
    <path
       d="m 118.24457,72.082165 h 0.92746 l -0.15457,5.595689 5.28653,-1.88584 0.27824,0.896547 -5.34836,1.576686 3.40069,4.451819 -0.77288,0.556477 -3.15338,-4.606396 -3.15337,4.606396 -0.77288,-0.556477 3.40069,-4.451819 -5.34836,-1.576686 0.27823,-0.896547 5.28654,1.88584 z"
       style="font-style:normal;font-variant:normal;font-weight:200;font-stretch:normal;font-size:30.91540909px;line-height:1.25;font-family:'Renner*';-inkscape-font-specification:'Renner* Ultra-Light';text-align:start;text-anchor:start;fill:#333333"
       id="path850" />
    <path
       d="m 141.41809,72.978712 0.15458,-0.896547 h 12.05701 l -0.15458,0.896547 h -5.56477 l -3.64802,20.744239 h -0.92746 l 3.64801,-20.744239 z"
       style="font-style:italic"
       id="path852" />
    <path
       d="m 155.96958,82.562489 q 0.89655,-1.514856 2.34957,-2.411402 1.48394,-0.896547 3.09154,-0.896547 2.0095,0 2.87514,1.422109 0.86563,1.422108 0.46373,3.771679 l -1.63852,9.274623 h -0.92746 l 1.57668,-8.965468 q 0.8038,-4.575481 -2.68964,-4.575481 -2.0095,0 -3.6171,1.514855 -1.6076,1.514855 -1.94767,3.36978 l -1.51486,8.656314 h -0.92746 l 4.26633,-24.114019 h 0.92746 z"
       style="font-style:italic"
       id="path854" />
    <path
       d="m 171.24614,79.501863 h 0.92746 l -2.50415,14.221088 h -0.92746 z m 1.02021,-6.028505 q -0.24733,-0.247323 -0.24733,-0.618308 0,-0.370985 0.24733,-0.618308 0.24732,-0.247323 0.61831,-0.247323 0.37098,0 0.6183,0.247323 0.24733,0.247323 0.24733,0.618308 0,0.370985 -0.24733,0.618308 -0.24732,0.247324 -0.6183,0.247324 -0.37099,0 -0.61831,-0.247324 z"
       style="font-style:italic"
       id="path856" />
    <path
       d="m 177.78668,85.066637 -1.51486,8.656314 h -0.92746 l 2.50415,-14.221088 h 0.92746 l -0.52556,3.060626 q 0.89655,-1.514856 2.34957,-2.411402 1.48394,-0.896547 3.09154,-0.896547 2.0095,0 2.87514,1.422109 0.86563,1.422108 0.46373,3.771679 l -1.63852,9.274623 h -0.92746 l 1.57668,-8.965468 q 0.8038,-4.575481 -2.68964,-4.575481 -2.0095,0 -3.6171,1.514855 -1.6076,1.514855 -1.94767,3.36978 z"
       style="font-style:italic"
       id="path858" />
    <path
       d="m 195.93838,72.082165 h 0.98929 l -2.93696,15.457704 h -0.55648 z m -3.30795,22.042687 q -0.92746,0 -0.92746,-0.927463 0,-0.927462 0.92746,-0.927462 0.92746,0 0.92746,0.927462 0,0.927463 -0.92746,0.927463 z"
       style="font-style:italic;font-variant:normal;font-weight:200;font-stretch:normal;font-family:'Renner*';-inkscape-font-specification:'Renner* Ultra-Light Italic'"
       id="path860" />
    <path
       d="m 27.056673,110.72643 z m -1.700348,0 h 4.946466 q 3.215202,0 5.255619,1.70035 2.040417,1.66943 2.040417,4.57548 0,2.56598 -1.607601,4.20449 -1.607601,1.6076 -4.266326,1.97859 l 6.492236,9.18188 h -2.071333 l -6.430405,-9.08913 h -2.658725 v 9.08913 h -1.700348 z m 1.700348,1.6076 v 9.33645 h 3.246118 q 2.318656,0 3.926257,-1.17478 1.638516,-1.2057 1.638516,-3.49344 0,-2.28774 -1.638516,-3.46253 -1.607601,-1.2057 -3.926257,-1.2057 z"
       style="font-style:normal;font-variant:normal;font-weight:300;font-stretch:normal;font-size:30.91540909px;line-height:1.25;font-family:'Renner*';-inkscape-font-specification:'Renner* Light';text-align:start;text-anchor:start;fill:#333333"
       id="path862" />
    <path
       d="m 51.290006,124.08189 q -0.185493,-1.94767 -1.48394,-3.33887 -1.267532,-1.39119 -3.369779,-1.39119 -2.194994,0 -3.648019,1.39119 -1.453024,1.36028 -1.54577,3.33887 z m -10.109339,1.39119 q 0.06183,2.44232 1.576686,4.04992 1.54577,1.57668 3.988088,1.57668 1.453024,0 2.751471,-0.8038 1.329363,-0.83471 2.102248,-2.22591 l 1.236616,0.9893 q -2.349571,3.55527 -6.244912,3.55527 -2.936964,0 -4.977381,-2.07133 -2.009502,-2.10225 -2.009502,-5.28654 0,-3.24612 1.854925,-5.28653 1.88584,-2.07134 4.977381,-2.07134 2.875133,0 4.668226,1.97859 1.82401,1.94767 1.82401,5.25562 0,0.18549 -0.03092,0.34007 z"
       style="font-style:normal;font-variant:normal;font-weight:300;font-stretch:normal;font-size:30.91540909px;line-height:1.25;font-family:'Renner*';-inkscape-font-specification:'Renner* Light';text-align:start;text-anchor:start;fill:#333333"
       id="path864" />
    <path
       d="m 58.206362,123.7109 v 8.65632 h -1.54577 v -14.22109 h 1.54577 v 2.44231 q 1.298447,-2.68964 4.699142,-2.68964 2.22591,0 3.307949,1.23662 1.112955,1.23662 1.112955,3.95717 v 9.27463 h -1.545771 v -8.96547 q 0,-1.94767 -0.680139,-2.93697 -0.649223,-1.02021 -2.504148,-1.02021 -1.854924,0 -3.122456,1.26754 -1.267532,1.23661 -1.267532,2.99879 z"
       style="font-style:normal;font-variant:normal;font-weight:300;font-stretch:normal;font-size:30.91540909px;line-height:1.25;font-family:'Renner*';-inkscape-font-specification:'Renner* Light';text-align:start;text-anchor:start;fill:#333333"
       id="path866" />
    <path
       d="m 73.845213,123.7109 v 8.65632 h -1.54577 v -14.22109 h 1.54577 v 2.44231 q 1.298447,-2.68964 4.699142,-2.68964 2.22591,0 3.307949,1.23662 1.112955,1.23662 1.112955,3.95717 v 9.27463 h -1.545771 v -8.96547 q 0,-1.94767 -0.680139,-2.93697 -0.649223,-1.02021 -2.504148,-1.02021 -1.854924,0 -3.122456,1.26754 -1.267532,1.23661 -1.267532,2.99879 z"
       style="font-style:normal;font-variant:normal;font-weight:300;font-stretch:normal;font-size:30.91540909px;line-height:1.25;font-family:'Renner*';-inkscape-font-specification:'Renner* Light';text-align:start;text-anchor:start;fill:#333333"
       id="path868" />
    <path
       d="m 98.387698,124.08189 q -0.185492,-1.94767 -1.483939,-3.33887 -1.267532,-1.39119 -3.36978,-1.39119 -2.194994,0 -3.648018,1.39119 -1.453024,1.36028 -1.545771,3.33887 z m -10.109338,1.39119 q 0.06183,2.44232 1.576685,4.04992 1.545771,1.57668 3.988088,1.57668 1.453024,0 2.751472,-0.8038 1.329362,-0.83471 2.102247,-2.22591 l 1.236617,0.9893 q -2.349571,3.55527 -6.244913,3.55527 -2.936964,0 -4.977381,-2.07133 -2.009501,-2.10225 -2.009501,-5.28654 0,-3.24612 1.854924,-5.28653 1.88584,-2.07134 4.977381,-2.07134 2.875133,0 4.668227,1.97859 1.824014,1.94767 1.824014,5.25562 0,0.18549 -0.03092,0.34007 z"
       style="font-style:normal;font-variant:normal;font-weight:300;font-stretch:normal;font-size:30.91540909px;line-height:1.25;font-family:'Renner*';-inkscape-font-specification:'Renner* Light';text-align:start;text-anchor:start;fill:#333333"
       id="path870" />
    <path
       d="m 110.18869,120.03197 q -0.8038,-0.71106 -1.91676,-0.71106 -1.29845,0 -2.13316,1.36028 -0.83472,1.36028 -0.83472,3.02971 v 8.65632 h -1.54577 v -14.22109 h 1.54577 v 2.13316 q 0.9893,-2.38049 3.30795,-2.38049 1.32936,0 2.34957,0.9893 z"
       style="font-style:normal;font-variant:normal;font-weight:300;font-stretch:normal;font-size:30.91540909px;line-height:1.25;font-family:'Renner*';-inkscape-font-specification:'Renner* Light';text-align:start;text-anchor:start;fill:#333333"
       id="path872" />
    <path
       d="m 114.43231,115.64198 0.46373,-1.48394 4.85372,1.70035 -0.12366,-5.13196 h 1.54577 l -0.12366,5.13196 4.85372,-1.70035 0.46373,1.48394 -4.91555,1.45302 3.12246,4.08084 -1.26754,0.89654 -2.90604,-4.23541 -2.90605,4.23541 -1.26754,-0.89654 3.12246,-4.08084 z"
       style="font-style:normal;font-variant:normal;font-weight:300;font-stretch:normal;font-size:30.91540909px;line-height:1.25;font-family:'Renner*';-inkscape-font-specification:'Renner* Light';text-align:start;text-anchor:start;fill:#333333"
       id="path874" />
    <path
       d="m 145.11827,110.72643 h 1.70035 l -3.52436,20.03318 h 8.50174 l -0.27824,1.60761 h -10.20208 z"
       style="font-style:italic"
       id="path876" />
    <path
       d="m 157.54386,112.64318 q -0.34007,-0.34007 -0.34007,-0.83471 0,-0.49465 0.34007,-0.83472 0.34007,-0.34007 0.83472,-0.34007 0.49464,0 0.83471,0.34007 0.34007,0.34007 0.34007,0.83472 0,0.49464 -0.34007,0.83471 -0.34007,0.34007 -0.83471,0.34007 -0.49465,0 -0.83472,-0.34007 z m -1.05112,5.50295 h 1.54577 l -2.50415,14.22109 h -1.54577 z"
       style="font-style:italic"
       id="path878" />
    <path
       d="m 161.32954,126.55512 q 0,2.16408 1.2057,3.33886 1.23661,1.17479 3.30795,1.17479 2.31865,0 4.38998,-1.94767 2.07134,-1.94767 2.07134,-5.13196 0,-2.16408 -1.29845,-3.33886 -1.29845,-1.20571 -3.09154,-1.20571 -2.72056,0 -4.66823,1.88584 -1.91675,1.88584 -1.91675,5.22471 z m -2.44232,6.73956 h 1.54577 q -0.12366,0.68014 -0.12366,1.02021 0,1.6076 0.98929,2.59689 1.02021,1.02021 3.02971,1.02021 2.56598,0 4.35907,-1.48394 1.82401,-1.48394 2.34958,-4.38999 l 0.49464,-2.78239 q -1.08204,1.54577 -2.65872,2.44232 -1.57669,0.89655 -3.30795,0.89655 -2.5969,0 -4.23541,-1.57669 -1.63852,-1.57668 -1.63852,-4.32815 0,-4.08084 2.38049,-6.43041 2.4114,-2.38049 5.78118,-2.38049 1.88584,0 3.18429,0.92747 1.32936,0.92746 1.85492,2.62781 l 0.58739,-3.30795 h 1.54577 l -2.44231,13.91193 q -0.61831,3.58619 -2.87514,5.50294 -2.22591,1.91676 -5.34836,1.91676 -2.62781,0 -4.11175,-1.32936 -1.48394,-1.29845 -1.48394,-3.52436 0,-0.71105 0.12366,-1.32936 z"
       style="font-style:italic"
       id="path880" />
    <path
       d="m 187.56996,123.40175 q 0.15458,-0.92747 0.15458,-1.51486 0,-1.29845 -0.58739,-1.85492 -0.55648,-0.5874 -2.04042,-0.5874 -1.73126,0 -3.18429,1.11296 -1.45302,1.11295 -1.88584,2.75147 l -1.6076,9.05822 h -1.54577 l 4.26633,-24.11402 h 1.54577 l -2.16408,12.27341 q 1.73126,-2.62781 4.85372,-2.62781 1.85492,0 2.90605,0.89655 1.08204,0.86563 1.08204,2.56598 0,0.74197 -0.1855,1.73126 l -1.63851,9.27463 h -1.54577 z"
       style="font-style:italic"
       id="path882" />
    <path
       d="m 194.923,113.19966 h 1.54577 l -0.86563,4.94647 h 2.31865 l -0.27824,1.54577 h -2.31865 l -2.22591,12.67532 h -1.54577 l 2.22591,-12.67532 h -2.31866 l 0.27824,-1.54577 h 2.31866 z"
       style="font-style:italic"
       id="path884" />
    <path
       d="m 199.52747,132.39813 q -0.34007,-0.34007 -0.34007,-0.86563 0,-0.52556 0.34007,-0.86563 0.34007,-0.37099 0.89655,-0.37099 0.55647,0 0.89654,0.37099 0.34007,0.34007 0.34007,0.86563 0,0.52556 -0.34007,0.86563 -0.34007,0.37099 -0.89654,0.37099 -0.55648,0 -0.89655,-0.37099 z m 3.6171,-21.6717 h 1.97859 l -3.09154,15.4577 H 200.795 Z"
       style="font-style:italic"
       id="path886" />
    <path
       d="m 25.201748,149.37069 h 5.873928 q 3.184287,0 5.25562,1.79309 2.102247,1.76218 2.102247,4.69914 0,2.31866 -1.329362,3.92626 -1.298447,1.6076 -3.524357,2.22591 l 6.152167,8.99638 h -3.246118 l -5.935759,-8.65631 h -2.720556 v 8.65631 h -2.62781 z m 2.62781,2.47323 v 8.038 h 3.246118 q 2.164079,0 3.43161,-1.0202 1.298448,-1.05113 1.298448,-2.9988 0,-1.94767 -1.298448,-2.96788 -1.267531,-1.05112 -3.43161,-1.05112 z"
       style="font-style:normal;font-variant:normal;font-weight:normal;font-stretch:normal;font-size:30.91540909px;line-height:1.25;font-family:'Renner*';-inkscape-font-specification:'Renner*';text-align:start;text-anchor:start;fill:#333333"
       id="path888" />
    <path
       d="m 51.905899,162.41699 q -0.185492,-1.73126 -1.205701,-2.75147 -1.020208,-1.02021 -2.813302,-1.02021 -1.762178,0 -3.02971,1.05112 -1.236616,1.02021 -1.422109,2.72056 z m -8.532653,2.10225 q 0.154577,2.13316 1.360278,3.30794 1.205701,1.17479 3.153372,1.17479 2.875133,0 4.451819,-2.56598 l 2.009502,1.26753 q -1.174786,1.82401 -2.689641,2.72056 -1.514855,0.89655 -4.080834,0.89655 -2.906048,0 -4.822804,-2.10225 -1.916755,-2.10225 -1.916755,-5.31745 0,-3.24612 1.947671,-5.31745 1.978586,-2.10225 5.101042,-2.10225 3.02971,0 4.853719,1.97859 1.854925,1.97858 1.854925,5.31745 0,0.49464 -0.03092,0.74197 z"
       style="font-style:normal;font-variant:normal;font-weight:normal;font-stretch:normal;font-size:30.91540909px;line-height:1.25;font-family:'Renner*';-inkscape-font-specification:'Renner*';text-align:start;text-anchor:start;fill:#333333"
       id="path890" />
    <path
       d="m 60.488788,162.35516 v 8.65631 h -2.473233 v -14.22109 h 2.473233 v 1.91676 q 1.576686,-2.22591 4.235411,-2.22591 2.256825,0 3.555272,1.45302 1.329363,1.42211 1.329363,4.11175 v 8.96547 h -2.473233 v -8.65631 q 0,-3.55527 -3.02971,-3.55527 -1.607602,0 -2.62781,1.0202 -0.989293,0.9893 -0.989293,2.53507 z"
       style="font-style:normal;font-variant:normal;font-weight:normal;font-stretch:normal;font-size:30.91540909px;line-height:1.25;font-family:'Renner*';-inkscape-font-specification:'Renner*';text-align:start;text-anchor:start;fill:#333333"
       id="path892" />
    <path
       d="m 76.731456,162.35516 v 8.65631 h -2.473233 v -14.22109 h 2.473233 v 1.91676 q 1.576686,-2.22591 4.235411,-2.22591 2.256825,0 3.555272,1.45302 1.329363,1.42211 1.329363,4.11175 v 8.96547 h -2.473233 v -8.65631 q 0,-3.55527 -3.02971,-3.55527 -1.607601,0 -2.62781,1.0202 -0.989293,0.9893 -0.989293,2.53507 z"
       style="font-style:normal;font-variant:normal;font-weight:normal;font-stretch:normal;font-size:30.91540909px;line-height:1.25;font-family:'Renner*';-inkscape-font-specification:'Renner*';text-align:start;text-anchor:start;fill:#333333"
       id="path894" />
    <path
       d="m 100.33199,162.41699 q -0.18549,-1.73126 -1.205699,-2.75147 -1.020209,-1.02021 -2.813303,-1.02021 -1.762178,0 -3.02971,1.05112 -1.236616,1.02021 -1.422109,2.72056 z m -8.532651,2.10225 q 0.154577,2.13316 1.360278,3.30794 1.205701,1.17479 3.153371,1.17479 2.875133,0 4.451822,-2.56598 l 2.0095,1.26753 q -1.17479,1.82401 -2.68964,2.72056 -1.514857,0.89655 -4.080836,0.89655 -2.906048,0 -4.822804,-2.10225 -1.916755,-2.10225 -1.916755,-5.31745 0,-3.24612 1.947671,-5.31745 1.978586,-2.10225 5.101042,-2.10225 3.02971,0 4.853722,1.97859 1.85492,1.97858 1.85492,5.31745 0,0.49464 -0.0309,0.74197 z"
       style="font-style:normal;font-variant:normal;font-weight:normal;font-stretch:normal;font-size:30.91540909px;line-height:1.25;font-family:'Renner*';-inkscape-font-specification:'Renner*';text-align:start;text-anchor:start;fill:#333333"
       id="path896" />
    <path
       d="m 113.21212,159.51094 q -0.98929,-0.71105 -1.91675,-0.71105 -2.38049,0 -2.38049,3.55527 v 8.65631 h -2.47323 v -14.22109 h 2.47323 v 1.63852 q 1.29845,-1.94767 2.9988,-1.94767 1.70034,0 2.65872,0.98929 z"
       style="font-style:normal;font-variant:normal;font-weight:normal;font-stretch:normal;font-size:30.91540909px;line-height:1.25;font-family:'Renner*';-inkscape-font-specification:'Renner*';text-align:start;text-anchor:start;fill:#333333"
       id="path898" />
    <path
       d="m 122.81908,149.37069 h 2.16408 l -0.24732,4.88463 4.57548,-1.76218 0.64922,2.07133 -4.69914,1.26754 3.06062,3.80259 -1.76217,1.26753 -2.65873,-4.08083 -2.65872,4.08083 -1.76218,-1.26753 3.06062,-3.80259 -4.69914,-1.26754 0.64922,-2.07133 4.57549,1.76218 z"
       style="font-style:normal;font-variant:normal;font-weight:normal;font-stretch:normal;font-size:30.91540909px;line-height:1.25;font-family:'Renner*';-inkscape-font-specification:'Renner*';text-align:start;text-anchor:start;fill:#333333"
       id="path900" />
    <path
       d="m 148.62041,149.37069 h 5.25562 q 2.8133,0 4.35907,1.17478 1.54577,1.14387 1.54577,3.2152 0,4.48274 -4.48273,5.50295 3.95717,0.98929 3.95717,4.57548 0,3.40069 -2.53506,5.28653 -2.50415,1.88584 -6.02851,1.88584 h -5.87393 z m 1.17479,8.65631 h 2.56597 q 2.25683,0 3.49345,-0.92746 1.23661,-0.95838 1.23661,-2.84422 0,-2.4114 -3.64802,-2.4114 h -2.56598 z m -0.43282,2.47323 -1.42211,8.03801 h 3.18429 q 2.34957,0 3.92625,-1.26753 1.57669,-1.26753 1.57669,-3.58619 0,-1.54577 -1.11295,-2.34957 -1.08204,-0.83472 -2.96788,-0.83472 z"
       style="font-style:italic"
       id="path902" />
    <path
       d="m 170.37809,156.48123 q 2.75147,0 4.45182,1.66943 1.73127,1.63852 1.73127,4.29724 0,3.8026 -2.68965,6.33766 -2.65872,2.53507 -6.12125,2.53507 -2.75147,0 -4.45182,-1.63852 -1.70034,-1.66943 -1.70034,-4.32816 0,-3.80259 2.65872,-6.33766 2.65873,-2.53506 6.12125,-2.53506 z m -6.24491,8.77998 q 0,1.54577 1.05112,2.65872 1.08204,1.08204 2.65873,1.08204 2.38049,0 4.26633,-1.82401 1.91675,-1.82401 1.91675,-4.63731 0,-1.66943 -1.08204,-2.68964 -1.05112,-1.05112 -2.65872,-1.05112 -2.38049,0 -4.26633,1.824 -1.88584,1.82401 -1.88584,4.63732 z"
       style="font-style:italic"
       id="path904" />
    <path
       d="m 187.28495,156.48123 q 2.75148,0 4.45182,1.66943 1.73127,1.63852 1.73127,4.29724 0,3.8026 -2.68965,6.33766 -2.65872,2.53507 -6.12125,2.53507 -2.75147,0 -4.45182,-1.63852 -1.70034,-1.66943 -1.70034,-4.32816 0,-3.80259 2.65872,-6.33766 2.65873,-2.53506 6.12125,-2.53506 z m -6.24491,8.77998 q 0,1.54577 1.05112,2.65872 1.08204,1.08204 2.65873,1.08204 2.38049,0 4.26633,-1.82401 1.91675,-1.82401 1.91675,-4.63731 0,-1.66943 -1.08204,-2.68964 -1.05112,-1.05112 -2.65872,-1.05112 -2.38049,0 -4.26633,1.824 -1.88584,1.82401 -1.88584,4.63732 z"
       style="font-style:italic"
       id="path906" />
    <path
       d="m 199.61635,146.89745 h 2.47323 l -2.59689,14.59208 5.78118,-4.69915 h 3.40069 l -7.20329,5.87393 5.31745,8.34716 h -3.09154 l -4.60639,-7.20329 -1.26754,7.20329 h -2.47323 z"
       style="font-style:italic"
       id="path908" />
    <path
       d="m 210.45074,170.98056 q -0.49465,-0.52557 -0.49465,-1.2057 0,-0.68014 0.49465,-1.17479 0.52556,-0.52556 1.2057,-0.52556 0.68014,0 1.17478,0.52556 0.52557,0.49465 0.52557,1.17479 0,0.68013 -0.52557,1.2057 -0.49464,0.49464 -1.17478,0.49464 -0.68014,0 -1.2057,-0.49464 z m 3.2152,-21.60987 h 3.09154 l -3.33886,15.4577 h -1.85493 z"
       style="font-style:italic"
       id="path910" />
    <path
       d="m 24.892594,188.01494 h 6.646813 q 3.184287,0 5.25562,1.85493 2.102248,1.82401 2.102248,4.79189 0,2.28774 -1.298448,3.95717 -1.267531,1.63851 -3.400695,2.28774 l 5.99759,8.74906 h -4.019003 l -5.719351,-8.34716 h -2.164079 v 8.34716 h -3.400695 z m 3.400695,3.09154 v 7.11055 h 3.246118 q 1.854925,0 2.906049,-0.89655 1.051124,-0.92746 1.051124,-2.65872 0,-1.73127 -1.051124,-2.62781 -1.051124,-0.92747 -2.906049,-0.92747 z"
       style="font-style:normal;font-variant:normal;font-weight:500;font-stretch:normal;font-size:30.91540909px;line-height:1.25;font-family:'Renner*';-inkscape-font-specification:'Renner* Medium';text-align:start;text-anchor:start;fill:#333333"
       id="path912" />
    <path
       d="m 52.630478,201.03033 q -0.432816,-3.12246 -3.709849,-3.12246 -1.54577,0 -2.751471,0.86563 -1.174786,0.83472 -1.391194,2.25683 z m -7.914345,2.28774 q 0.216408,1.79309 1.360278,2.75147 1.143871,0.95838 2.844218,0.95838 3.215203,0 4.389988,-1.88584 l 2.442318,1.51485 q -2.164079,3.30795 -6.832306,3.30795 -3.524357,0 -5.533858,-2.04041 -1.978586,-2.07134 -1.978586,-5.37929 0,-3.24611 2.071332,-5.31745 2.102248,-2.10224 5.441112,-2.10224 3.277033,0 5.224704,1.91675 1.947671,1.88584 1.947671,5.22471 0,0.64922 -0.06183,1.05112 z"
       style="font-style:normal;font-variant:normal;font-weight:500;font-stretch:normal;font-size:30.91540909px;line-height:1.25;font-family:'Renner*';-inkscape-font-specification:'Renner* Medium';text-align:start;text-anchor:start;fill:#333333"
       id="path914" />
    <path
       d="m 62.280919,197.62963 q 1.607601,-2.50414 4.544565,-2.50414 2.411402,0 3.709849,1.26753 1.329362,1.26753 1.329362,4.29724 v 8.96547 h -3.246118 v -8.65632 q 0,-1.66943 -0.680139,-2.28774 -0.680139,-0.64922 -2.040417,-0.64922 -1.422108,0 -2.535063,1.05112 -1.082039,1.02021 -1.082039,2.50415 v 8.03801 h -3.246118 v -14.22109 h 3.246118 z"
       style="font-style:normal;font-variant:normal;font-weight:500;font-stretch:normal;font-size:30.91540909px;line-height:1.25;font-family:'Renner*';-inkscape-font-specification:'Renner* Medium';text-align:start;text-anchor:start;fill:#333333"
       id="path916" />
    <path
       d="m 78.946255,197.62963 q 1.607601,-2.50414 4.544565,-2.50414 2.411402,0 3.709849,1.26753 1.329363,1.26753 1.329363,4.29724 v 8.96547 h -3.246118 v -8.65632 q 0,-1.66943 -0.680139,-2.28774 -0.680139,-0.64922 -2.040417,-0.64922 -1.422109,0 -2.535063,1.05112 -1.08204,1.02021 -1.08204,2.50415 v 8.03801 h -3.246118 v -14.22109 h 3.246118 z"
       style="font-style:normal;font-variant:normal;font-weight:500;font-stretch:normal;font-size:30.91540909px;line-height:1.25;font-family:'Renner*';-inkscape-font-specification:'Renner* Medium';text-align:start;text-anchor:start;fill:#333333"
       id="path918" />
    <path
       d="m 102.50573,201.03033 q -0.43282,-3.12246 -3.709851,-3.12246 -1.54577,0 -2.751471,0.86563 -1.174786,0.83472 -1.391194,2.25683 z m -7.914347,2.28774 q 0.216408,1.79309 1.360278,2.75147 1.14387,0.95838 2.844218,0.95838 3.215201,0 4.389991,-1.88584 l 2.44231,1.51485 q -2.16407,3.30795 -6.832301,3.30795 -3.524357,0 -5.533858,-2.04041 -1.978586,-2.07134 -1.978586,-5.37929 0,-3.24611 2.071332,-5.31745 2.102248,-2.10224 5.441112,-2.10224 3.277031,0 5.224701,1.91675 1.94767,1.88584 1.94767,5.22471 0,0.64922 -0.0618,1.05112 z"
       style="font-style:normal;font-variant:normal;font-weight:500;font-stretch:normal;font-size:30.91540909px;line-height:1.25;font-family:'Renner*';-inkscape-font-specification:'Renner* Medium';text-align:start;text-anchor:start;fill:#333333"
       id="path920" />
    <path
       d="m 116.76257,198.7735 q -0.9893,-0.71105 -2.07134,-0.71105 -2.38048,0 -2.38048,3.24612 v 8.34716 h -3.4007 v -14.22109 h 3.4007 v 1.91676 q 0.61831,-1.02021 1.45302,-1.60761 0.86563,-0.6183 1.70035,-0.6183 1.70035,0 2.65872,0.98929 z"
       style="font-style:normal;font-variant:normal;font-weight:500;font-stretch:normal;font-size:30.91540909px;line-height:1.25;font-family:'Renner*';-inkscape-font-specification:'Renner* Medium';text-align:start;text-anchor:start;fill:#333333"
       id="path922" />
    <path
       d="m 125.85749,188.01494 h 3.09155 l -0.34007,4.35907 4.04991,-1.66943 0.95838,2.93697 -4.26632,1.05112 2.84421,3.30795 -2.50414,1.82401 -2.28774,-3.70985 -2.28775,3.70985 -2.50414,-1.82401 2.84421,-3.30795 -4.26632,-1.05112 0.95838,-2.93697 4.04991,1.66943 z"
       style="font-style:normal;font-variant:normal;font-weight:500;font-stretch:normal;font-size:30.91540909px;line-height:1.25;font-family:'Renner*';-inkscape-font-specification:'Renner* Medium';text-align:start;text-anchor:start;fill:#333333"
       id="path924" />
    <path
       d="m 170.05348,197.1659 -9.95476,12.95356 -5.71935,-13.69553 -4.35907,13.2318 h -3.55527 l 7.60519,-22.41367 6.95596,16.53974 12.52074,-16.53974 -0.49464,22.41367 h -3.4007 z"
       style="font-style:italic"
       id="path926" />
    <path
       d="m 187.34727,201.03033 q 0,-0.0309 0,-0.15458 0.0309,-0.12366 0.0309,-0.15457 0,-2.81331 -2.96788,-2.81331 -1.51486,0 -2.96788,0.89655 -1.42211,0.89655 -1.91675,2.22591 z m -8.28533,2.28774 v 0.37098 q 0,3.33887 3.15338,3.33887 3.24611,0 5.00829,-1.97859 l 2.56598,1.6076 q -2.93696,3.30795 -7.79068,3.30795 -3.06063,0 -4.66823,-1.57668 -1.6076,-1.57669 -1.6076,-4.45182 0,-3.92626 2.56598,-6.36858 2.56598,-2.44231 6.30674,-2.44231 2.87514,0 4.51365,1.42211 1.63852,1.4221 1.63852,4.019 0,1.45302 -0.4019,2.75147 z"
       style="font-style:italic"
       id="path928" />
    <path
       d="m 195.5756,203.7818 q 0,3.24612 3.80259,3.24612 2.04042,0 3.67894,-1.45303 1.63852,-1.45302 1.63852,-4.14266 0,-1.76218 -1.02021,-2.56598 -1.02021,-0.8038 -2.5969,-0.8038 -2.25682,0 -3.89534,1.57669 -1.6076,1.54577 -1.6076,4.14266 z m 12.05701,-18.24009 h 3.30795 l -4.26633,24.11402 h -3.30795 l 0.43282,-2.4114 q -2.22591,2.72055 -5.56478,2.72055 -2.8133,0 -4.4209,-1.57668 -1.57668,-1.57669 -1.57668,-4.45182 0,-4.2045 2.53506,-6.49224 2.56598,-2.31865 6.214,-2.31865 3.24611,0 4.4209,2.99879 z"
       style="font-style:italic"
       id="path930" />
    <path
       d="m 214.14659,191.29198 q -0.61831,-0.5874 -0.61831,-1.42211 0,-0.83472 0.61831,-1.42211 0.61831,-0.58739 1.48394,-0.58739 0.86563,0 1.48394,0.58739 0.61831,0.58739 0.61831,1.42211 0,0.83471 -0.61831,1.42211 -0.61831,0.58739 -1.48394,0.58739 -0.86563,0 -1.48394,-0.58739 z m -1.14387,4.14266 h 3.33886 l -2.50415,14.22109 h -3.33886 z"
       style="font-style:italic"
       id="path932" />
    <path
       d="m 227.39577,207.83172 q -1.88584,2.13316 -4.66822,2.13316 -2.25683,0 -3.55527,-1.29844 -1.26754,-1.29845 -0.74197,-4.26633 l 1.57668,-8.96547 h 3.30795 l -1.51485,8.65631 q -0.27824,1.70035 0.2164,2.31866 0.49465,0.61831 1.85493,0.61831 1.48394,0 2.62781,-0.68014 1.17478,-0.68014 1.51485,-2.0095 l 1.57669,-8.90364 h 3.30795 l -2.50415,14.22109 h -3.30795 z"
       style="font-style:italic"
       id="path934" />
    <path
       d="m 239.14557,200.75209 -1.57669,8.90364 h -3.24612 l 2.50415,-14.22109 h 3.24612 l -0.34007,1.91676 q 1.91676,-2.22591 4.38999,-2.22591 3.33886,0 3.98809,2.59689 2.10224,-2.59689 4.97738,-2.59689 4.97738,0 4.04992,5.25562 l -1.63852,9.27462 h -3.24612 l 1.51486,-8.65632 q 0.27824,-1.54577 -0.15458,-2.22591 -0.4019,-0.71105 -1.66943,-0.71105 -1.51486,0 -2.53507,0.74197 -0.98929,0.74197 -1.29844,1.97859 l -1.57669,8.87272 h -3.24612 l 1.51486,-8.65632 q 0.27824,-1.54577 -0.15458,-2.22591 -0.4019,-0.71105 -1.66943,-0.71105 -1.51486,0 -2.53506,0.74197 -0.9893,0.71105 -1.29845,1.94767 z"
       style="font-style:italic"
       id="path936" />
    <path
       d="m 260.52501,209.84122 q -0.6183,-0.58739 -0.6183,-1.42211 0,-0.83471 0.6183,-1.42211 0.61831,-0.58739 1.48394,-0.58739 0.86564,0 1.48394,0.58739 0.61831,0.5874 0.61831,1.42211 0,0.83472 -0.61831,1.42211 -0.6183,0.58739 -1.48394,0.58739 -0.86563,0 -1.48394,-0.58739 z m 3.27704,-21.82628 h 4.019 l -3.80259,15.45771 h -2.47324 z"
       style="font-style:italic"
       id="path938" />
    <path
       d="m 24.738017,226.6592 h 7.574275 q 3.586188,0 5.688436,1.88584 2.133163,1.85492 2.133163,5.07013 0,2.4114 -1.236616,4.11175 -1.205701,1.66943 -3.400695,2.38048 l 5.626604,8.19259 h -5.101042 l -5.286535,-7.72886 h -1.669433 v 7.72886 h -4.328157 z m 4.328157,3.86442 v 6.18309 h 3.246118 q 1.638517,0 2.565979,-0.77289 0.927463,-0.8038 0.927463,-2.31865 0,-1.51486 -0.927463,-2.28774 -0.927462,-0.80381 -2.565979,-0.80381 z"
       style="font-style:normal;font-variant:normal;font-weight:bold;font-stretch:normal;font-family:'Renner*';-inkscape-font-specification:'Renner* Bold';text-align:start;text-anchor:start;fill:#333333"
       id="path940" />
    <path
       d="m 52.683615,239.52001 q -0.4019,-2.8133 -3.246118,-2.8133 -1.298447,0 -2.349571,0.74197 -1.051124,0.74197 -1.298447,2.07133 z m -6.925051,2.75147 q 0.525562,3.09154 3.678933,3.09154 2.535064,0 3.493442,-1.88584 l 3.957172,0.89655 q -2.040417,4.23541 -7.450614,4.23541 -3.740764,0 -5.873927,-2.04042 -2.102248,-2.07133 -2.102248,-5.37928 0,-3.27703 2.194994,-5.4102 2.225909,-2.16407 5.781181,-2.16407 3.493442,0 5.564774,1.97858 2.071333,1.97859 2.071333,5.31745 0,0.77289 -0.06183,1.36028 z"
       style="font-style:normal;font-variant:normal;font-weight:bold;font-stretch:normal;font-family:'Renner*';-inkscape-font-specification:'Renner* Bold';text-align:start;text-anchor:start;fill:#333333"
       id="path942" />
    <path
       d="m 63.718004,239.95282 v 8.34717 H 59.544423 V 234.0789 h 4.173581 v 2.34957 q 1.514855,-2.68964 4.699142,-2.68964 2.225909,0 3.555272,1.36028 1.329362,1.32936 1.329362,3.6171 v 9.58378 H 69.1282 v -8.65632 q 0,-1.39119 -0.556477,-2.0095 -0.525562,-0.64922 -1.700348,-0.64922 -1.360278,0 -2.256824,0.77288 -0.896547,0.74197 -0.896547,2.19499 z"
       style="font-style:normal;font-variant:normal;font-weight:bold;font-stretch:normal;font-family:'Renner*';-inkscape-font-specification:'Renner* Bold';text-align:start;text-anchor:start;fill:#333333"
       id="path944" />
    <path
       d="m 81.168302,239.95282 v 8.34717 h -4.17358 V 234.0789 h 4.17358 v 2.34957 q 1.514855,-2.68964 4.699142,-2.68964 2.22591,0 3.555272,1.36028 1.329363,1.32936 1.329363,3.6171 v 9.58378 h -4.17358 v -8.65632 q 0,-1.39119 -0.556478,-2.0095 -0.525562,-0.64922 -1.700347,-0.64922 -1.360278,0 -2.256825,0.77288 -0.896547,0.74197 -0.896547,2.19499 z"
       style="font-style:normal;font-variant:normal;font-weight:bold;font-stretch:normal;font-family:'Renner*';-inkscape-font-specification:'Renner* Bold';text-align:start;text-anchor:start;fill:#333333"
       id="path946" />
    <path
       d="m 104.4307,239.52001 q -0.4019,-2.8133 -3.24612,-2.8133 -1.298448,0 -2.349572,0.74197 -1.051124,0.74197 -1.298447,2.07133 z m -6.925054,2.75147 q 0.525562,3.09154 3.678934,3.09154 2.53506,0 3.49344,-1.88584 l 3.95717,0.89655 q -2.04041,4.23541 -7.45061,4.23541 -3.740765,0 -5.873928,-2.04042 -2.102248,-2.07133 -2.102248,-5.37928 0,-3.27703 2.194994,-5.4102 2.225909,-2.16407 5.781182,-2.16407 3.49344,0 5.56477,1.97858 2.07134,1.97859 2.07134,5.31745 0,0.77289 -0.0618,1.36028 z"
       style="font-style:normal;font-variant:normal;font-weight:bold;font-stretch:normal;font-family:'Renner*';-inkscape-font-specification:'Renner* Bold';text-align:start;text-anchor:start;fill:#333333"
       id="path948" />
    <path
       d="m 120.53522,238.46889 q -0.9893,-0.71106 -2.38049,-0.71106 -1.32936,0 -1.94767,0.58739 -0.58739,0.55648 -0.58739,2.04042 v 7.91435 h -4.32816 V 234.0789 h 4.32816 v 1.91675 q 1.51485,-2.25682 3.6171,-2.25682 2.28774,0 3.43161,1.39119 z"
       style="font-style:normal;font-variant:normal;font-weight:bold;font-stretch:normal;font-family:'Renner*';-inkscape-font-specification:'Renner* Bold';text-align:start;text-anchor:start;fill:#333333"
       id="path950" />
    <path
       d="m 130.13735,226.6592 h 3.70984 l -0.4019,4.04992 3.70985,-1.63852 1.14387,3.52436 -3.98808,0.83471 2.72055,3.02971 -2.99879,2.195 -2.04042,-3.52436 -2.04042,3.52436 -2.99879,-2.195 2.72055,-3.02971 -3.98808,-0.83471 1.14387,-3.52436 3.70985,1.63852 z"
       style="font-style:normal;font-variant:normal;font-weight:bold;font-stretch:normal;font-family:'Renner*';-inkscape-font-specification:'Renner* Bold';text-align:start;text-anchor:start;fill:#333333"
       id="path952" />
    <path
       d="m 158.44282,238.71621 -0.98929,5.71935 h 3.24612 q 4.35907,0 4.35907,-3.2152 0,-1.17479 -0.83472,-1.82401 -0.83471,-0.68014 -2.19499,-0.68014 z m 0.68014,-3.70985 h 2.31866 q 1.76217,0 2.84421,-0.71106 1.08204,-0.74196 1.08204,-2.04041 0,-1.73127 -2.53506,-1.73127 h -2.93696 z m -2.87513,-8.34716 h 6.95596 q 3.30795,0 4.94647,1.36028 1.63852,1.36027 1.63852,3.67893 0,3.6171 -3.77168,5.03921 3.36978,1.42211 3.36978,4.38999 0,2.04042 -0.68014,3.49344 -0.68014,1.42211 -1.94767,2.22591 -1.26754,0.77289 -2.84422,1.11296 -1.54577,0.34007 -3.58619,0.34007 h -7.88343 z"
       style="font-style:italic;font-variant:normal;font-weight:bold;font-stretch:normal;font-family:'Renner*';-inkscape-font-specification:'Renner* Bold Italic'"
       id="path954" />
    <path
       d="m 175.39316,242.20965 q 0,1.54577 0.89655,2.44232 0.89654,0.86563 2.50414,0.86563 1.88584,0 3.4007,-1.48394 1.54577,-1.51486 1.54577,-3.83351 0,-1.54577 -0.92746,-2.44232 -0.89655,-0.89655 -2.50415,-0.89655 -1.88584,0 -3.4007,1.51486 -1.51485,1.51485 -1.51485,3.83351 z m 5.25562,-8.90364 q 3.24612,0 5.28653,1.7931 2.04042,1.76217 2.04042,4.91555 0,4.20449 -2.78239,6.64681 -2.78238,2.4114 -6.70864,2.4114 -2.87513,0 -5.10104,-1.82401 -2.22591,-1.82401 -2.22591,-4.88463 0,-2.78239 1.48394,-4.91555 1.51485,-2.13317 3.6171,-3.12246 2.13316,-1.02021 4.38999,-1.02021 z"
       style="font-style:italic;font-variant:normal;font-weight:bold;font-stretch:normal;font-family:'Renner*';-inkscape-font-specification:'Renner* Bold Italic'"
       id="path956" />
    <path
       d="m 193.32941,224.18597 h 4.17358 l -4.26632,24.11402 h -4.17359 z"
       style="font-style:italic;font-variant:normal;font-weight:bold;font-stretch:normal;font-family:'Renner*';-inkscape-font-specification:'Renner* Bold Italic'"
       id="path958" />
    <path
       d="m 212.79887,224.18597 h 4.17358 l -4.26632,24.11402 h -4.17358 l 0.43281,-2.47324 q -1.08204,1.45303 -2.53506,2.28774 -1.42211,0.8038 -2.87513,0.8038 -2.84422,0 -4.57548,-1.66943 -1.73127,-1.70035 -1.73127,-4.8228 0,-4.26633 2.41141,-6.6159 2.4114,-2.34957 6.0285,-2.34957 1.66943,0 2.96788,0.86563 1.29845,0.86563 1.91676,2.4114 z m -11.2532,17.83819 q 0,1.48394 0.95837,2.34957 0.95838,0.83471 2.50415,0.83471 1.82401,0 3.33887,-1.29844 1.51485,-1.29845 1.51485,-3.74077 0,-1.54577 -0.95838,-2.25682 -0.95837,-0.74197 -2.50415,-0.74197 -2.0095,0 -3.43161,1.26753 -1.4221,1.23662 -1.4221,3.58619 z"
       style="font-style:italic;font-variant:normal;font-weight:bold;font-stretch:normal;font-family:'Renner*';-inkscape-font-specification:'Renner* Bold Italic';text-align:start;text-anchor:start;fill:#333333"
       id="path960" />
    <path
       d="m 220.37315,226.6592 h 5.25562 l -4.26633,15.4577 h -2.78239 z m -2.9988,21.82628 q -0.74197,-0.71106 -0.74197,-1.73127 0,-1.0202 0.74197,-1.73126 0.77289,-0.74197 1.82401,-0.74197 1.05113,0 1.7931,0.74197 0.77288,0.71106 0.77288,1.73126 0,1.02021 -0.77288,1.73127 -0.74197,0.74197 -1.7931,0.74197 -1.05112,0 -1.82401,-0.74197 z"
       style="font-style:italic;font-variant:normal;font-weight:bold;font-stretch:normal;font-family:'Renner*';-inkscape-font-specification:'Renner* Bold Italic';text-align:start;text-anchor:start;fill:#333333"
       id="path962" />
    <path
       d="m 24.58344,265.30347 h 8.501738 q 9.058215,0 9.058215,7.26512 0,5.07013 -4.359073,6.58498 l 5.348366,7.79069 h -6.955967 l -4.884635,-7.11055 h -1.14387 v 7.11055 H 24.58344 Z m 5.564774,5.10104 v 4.63731 h 2.936964 q 3.184287,0 3.184287,-2.47323 0,-1.23661 -0.74197,-1.70035 -0.74197,-0.46373 -2.442317,-0.46373 z"
       style="font-style:normal;font-variant:normal;font-weight:900;font-stretch:normal;font-size:30.91540909px;line-height:1.25;font-family:'Renner*';-inkscape-font-specification:'Renner* Heavy';text-align:start;text-anchor:start;fill:#333333"
       id="path964" />
    <path
       d="m 54.000418,277.70055 q -0.309154,-1.88584 -1.978586,-1.88584 -1.762179,0 -2.194994,1.88584 z m -4.266327,3.36978 q 0.370985,2.16408 2.442318,2.16408 1.267532,0 1.978586,-0.27824 0.711054,-0.27824 0.927462,-1.11296 l 5.472028,0.86564 q -0.834716,2.19499 -2.998795,3.36978 -2.164079,1.17478 -5.379281,1.17478 -4.17358,0 -6.39949,-2.04042 -2.194994,-2.04041 -2.194994,-5.37928 0,-3.30795 2.318656,-5.44111 2.318655,-2.13316 6.275828,-2.13316 3.895341,0 6.05942,1.94767 2.194994,1.94767 2.194994,5.34836 0,0.92747 -0.06183,1.51486 z"
       style="font-style:normal;font-variant:normal;font-weight:900;font-stretch:normal;font-size:30.91540909px;line-height:1.25;font-family:'Renner*';-inkscape-font-specification:'Renner* Heavy';text-align:start;text-anchor:start;fill:#333333"
       id="path966" />
    <path
       d="m 69.067813,278.28794 v 8.65632 h -6.028505 v -14.22109 h 6.028505 v 2.13316 q 1.329363,-2.47323 4.389988,-2.47323 2.782387,0 3.988088,1.29845 1.205701,1.26753 1.205701,3.67893 v 9.58378 h -6.337659 v -8.65632 q 0,-1.05112 -0.309154,-1.54577 -0.309154,-0.49464 -1.174786,-0.49464 -1.762178,0 -1.762178,2.04041 z"
       style="font-style:normal;font-variant:normal;font-weight:900;font-stretch:normal;font-size:30.91540909px;line-height:1.25;font-family:'Renner*';-inkscape-font-specification:'Renner* Heavy';text-align:start;text-anchor:start;fill:#333333"
       id="path968" />
    <path
       d="m 87.786128,278.28794 v 8.65632 h -6.028505 v -14.22109 h 6.028505 v 2.13316 q 1.329363,-2.47323 4.389988,-2.47323 2.782387,0 3.988088,1.29845 1.205701,1.26753 1.205701,3.67893 v 9.58378 h -6.337659 v -8.65632 q 0,-1.05112 -0.309154,-1.54577 -0.309154,-0.49464 -1.174785,-0.49464 -1.762179,0 -1.762179,2.04041 z"
       style="font-style:normal;font-variant:normal;font-weight:900;font-stretch:normal;font-size:30.91540909px;line-height:1.25;font-family:'Renner*';-inkscape-font-specification:'Renner* Heavy';text-align:start;text-anchor:start;fill:#333333"
       id="path970" />
    <path
       d="m 110.27612,277.70055 q -0.30915,-1.88584 -1.97858,-1.88584 -1.76218,0 -2.195,1.88584 z m -4.26632,3.36978 q 0.37098,2.16408 2.44231,2.16408 1.26754,0 1.97859,-0.27824 0.71105,-0.27824 0.92746,-1.11296 l 5.47203,0.86564 q -0.83472,2.19499 -2.99879,3.36978 -2.16408,1.17478 -5.37929,1.17478 -4.17358,0 -6.39949,-2.04042 -2.19499,-2.04041 -2.19499,-5.37928 0,-3.30795 2.31866,-5.44111 2.31865,-2.13316 6.27582,-2.13316 3.89535,0 6.05942,1.94767 2.195,1.94767 2.195,5.34836 0,0.92747 -0.0618,1.51486 z"
       style="font-style:normal;font-variant:normal;font-weight:900;font-stretch:normal;font-size:30.91540909px;line-height:1.25;font-family:'Renner*';-inkscape-font-specification:'Renner* Heavy';text-align:start;text-anchor:start;fill:#333333"
       id="path972" />
    <path
       d="m 130.41364,278.84442 q -0.86563,-1.02021 -2.38048,-1.02021 -1.3912,0 -2.13317,0.58739 -0.71105,0.5874 -0.71105,2.04042 v 6.49224 h -5.87393 v -14.22109 h 5.87393 v 1.88584 q 1.63852,-2.34957 4.23541,-2.34957 2.28774,0 3.43161,1.39119 z"
       style="font-style:normal;font-variant:normal;font-weight:900;font-stretch:normal;font-size:30.91540909px;line-height:1.25;font-family:'Renner*';-inkscape-font-specification:'Renner* Heavy';text-align:start;text-anchor:start;fill:#333333"
       id="path974" />
    <path
       d="m 139.35399,265.30347 h 5.56478 l -0.58739,3.6171 3.27703,-1.66943 1.70035,5.28654 -3.61711,0.55647 2.5969,2.5969 -4.48274,3.27703 -1.66943,-3.27703 -1.66943,3.27703 -4.48274,-3.27703 2.5969,-2.5969 -3.6171,-0.55647 1.70034,-5.28654 3.27704,1.66943 z"
       style="font-style:normal;font-variant:normal;font-weight:900;font-stretch:normal;font-size:30.91540909px;line-height:1.25;font-family:'Renner*';-inkscape-font-specification:'Renner* Heavy';text-align:start;text-anchor:start;fill:#333333"
       id="path976" />
    <path
       d="m 166.23735,265.30347 h 8.19259 q 3.46252,0 5.6266,1.26753 2.16408,1.26753 2.16408,3.74077 0,3.74076 -3.86443,5.31745 3.49345,1.66943 3.49345,4.66822 0,1.82401 -0.77289,3.15338 -0.77289,1.32936 -2.16408,2.07133 -1.36028,0.74197 -3.02971,1.08204 -1.66943,0.34007 -3.70985,0.34007 h -9.73835 z m 4.42091,8.34716 h 2.31865 q 1.23662,0 2.07134,-0.58739 0.83471,-0.61831 0.83471,-1.63852 0,-1.32936 -1.97858,-1.32936 h -2.62781 z m -0.74197,4.17358 -0.77289,4.32816 h 3.24612 q 1.42211,0 2.38049,-0.64922 0.95837,-0.64923 0.95837,-2.07134 0,-0.92746 -0.55647,-1.26753 -0.55648,-0.34007 -1.70035,-0.34007 z"
       style="font-style:italic"
       id="path978" />
    <path
       d="m 187.34437,262.83024 h 6.0285 l -4.26632,24.11402 h -6.02851 z"
       style="font-style:italic"
       id="path980" />
    <path
       d="m 205.58204,272.72317 h 6.02851 l -2.56598,14.22109 h -6.0285 l 0.46373,-2.50415 q -2.38049,2.8133 -5.13196,2.8133 -5.68844,0 -5.68844,-6.15217 0,-1.97858 0.74197,-3.67893 0.77289,-1.70035 1.91676,-2.75147 1.17478,-1.08204 2.53506,-1.66943 1.36028,-0.5874 2.62781,-0.5874 3.61711,0 4.6064,3.02971 z m -6.4304,7.6361 q 0,0.89655 0.58739,1.42211 0.5874,0.52557 1.54577,0.52557 1.14387,0 2.10225,-0.77289 0.95838,-0.8038 0.95838,-2.22591 0,-0.95838 -0.64923,-1.45302 -0.6183,-0.49465 -1.51485,-0.49465 -1.2057,0 -2.13316,0.83472 -0.89655,0.8038 -0.89655,2.16407 z"
       style="font-style:italic"
       id="path982" />
    <path
       d="m 219.23217,280.42111 q 0,1.08204 0.74197,1.66943 0.77288,0.58739 1.94767,0.58739 2.93696,0 4.66822,-1.82401 l -1.02021,5.65752 q -1.63851,1.05113 -4.85371,1.05113 -3.83352,0 -5.96668,-1.76218 -2.10225,-1.76218 -2.10225,-5.03921 0,-3.8026 2.84422,-6.214 2.87513,-2.44232 7.4197,-2.44232 3.49344,0 5.03921,1.05112 l -1.02021,5.62661 q -1.08204,-1.79309 -3.98808,-1.79309 -1.45303,0 -2.5969,0.98929 -1.11295,0.98929 -1.11295,2.44232 z"
       style="font-style:italic"
       id="path984" />
    <path
       d="m 232.87214,262.83024 h 5.71935 l -2.59689,14.59207 5.65752,-4.69914 h 7.38878 l -7.04871,5.87393 5.16287,8.34716 h -6.64681 l -4.82281,-7.75977 -1.36028,7.75977 h -5.71935 z"
       style="font-style:italic"
       id="path986" />
    <path
       d="m 250.68424,286.97517 q -0.98929,-0.89654 -0.98929,-2.34957 0,-1.45302 0.98929,-2.34957 1.02021,-0.89655 2.65873,-0.89655 1.63851,0 2.62781,0.89655 1.02021,0.89655 1.02021,2.34957 0,1.45303 -1.02021,2.34957 -0.9893,0.89655 -2.62781,0.89655 -1.63852,0 -2.65873,-0.89655 z m 2.28774,-21.6717 h 7.4197 l -3.67893,13.91193 h -4.94647 z"
       style="font-style:italic"
       id="path988" />
  </g>
</svg>
