<?xml version="1.0" encoding="UTF-8" standalone="no"?>
<svg
   xmlns:dc="http://purl.org/dc/elements/1.1/"
   xmlns:cc="http://creativecommons.org/ns#"
   xmlns:rdf="http://www.w3.org/1999/02/22-rdf-syntax-ns#"
   xmlns:svg="http://www.w3.org/2000/svg"
   xmlns="http://www.w3.org/2000/svg"
   viewBox="0 0 1500 600"
   height="640"
   width="1600"
   version="1.1"
   id="svg2">
  <metadata
     id="metadata8">
    <rdf:RDF>
      <cc:Work
         rdf:about="">
        <dc:format>image/svg+xml</dc:format>
        <dc:type
           rdf:resource="http://purl.org/dc/dcmitype/StillImage" />
        <dc:title></dc:title>
      </cc:Work>
    </rdf:RDF>
  </metadata>
  <defs
     id="defs6">
    <clipPath
       id="clipPath1828"
       clipPathUnits="userSpaceOnUse">
      <flowRoot
         transform="matrix(0,5.8704118,-5.8704118,0,1337.2419,-1592.0492)"
         style="font-style:normal;font-variant:normal;font-weight:100;font-stretch:normal;font-size:48px;line-height:1.25;font-family:'Renner*';-inkscape-font-specification:'Renner* Thin';letter-spacing:0px;word-spacing:0px;fill:#f2f2f2;fill-opacity:1;stroke:none"
         id="flowRoot1836"
         xml:space="preserve"><flowRegion
           style="font-style:normal;font-variant:normal;font-weight:100;font-stretch:normal;font-size:48px;font-family:'Renner*';-inkscape-font-specification:'Renner* Thin';fill:#f2f2f2"
           id="flowRegion1832"><rect
             style="font-style:normal;font-variant:normal;font-weight:100;font-stretch:normal;font-size:48px;font-family:'Renner*';-inkscape-font-specification:'Renner* Thin';fill:#f2f2f2"
             y="118.76129"
             x="289.40869"
             height="580.33264"
             width="1233.3962"
             id="rect1830" /></flowRegion><flowPara
           id="flowPara1834">swiss</flowPara></flowRoot>    </clipPath>
    <clipPath
       id="clipPath2077"
       clipPathUnits="userSpaceOnUse">
      <flowRoot
         xml:space="preserve"
         id="flowRoot2085"
         style="font-style:italic;font-variant:normal;font-weight:900;font-stretch:normal;font-size:13.81231594px;line-height:1.25;font-family:'Renner*';-inkscape-font-specification:'Renner* Heavy Italic';text-align:center;letter-spacing:0px;word-spacing:0px;text-anchor:middle;fill:#e6e6e6;fill-opacity:1;stroke:none"
         transform="matrix(2.4309812,-0.4343031,0.4343031,2.4309812,34.231515,256.74532)"><flowRegion
           id="flowRegion2081"
           style="font-style:italic;font-variant:normal;font-weight:900;font-stretch:normal;font-size:13.81231594px;font-family:'Renner*';-inkscape-font-specification:'Renner* Heavy Italic';text-align:center;letter-spacing:0px;text-anchor:middle;fill:#e6e6e6"><rect
             id="rect2079"
             width="91.253387"
             height="516.04694"
             x="289.40869"
             y="118.76129"
             style="font-style:italic;font-variant:normal;font-weight:900;font-stretch:normal;font-size:13.81231594px;font-family:'Renner*';-inkscape-font-specification:'Renner* Heavy Italic';text-align:center;letter-spacing:0px;text-anchor:middle;fill:#e6e6e6" /></flowRegion><flowPara
           style="font-style:italic;font-variant:normal;font-weight:900;font-stretch:normal;font-size:13.81231594px;font-family:'Renner*';-inkscape-font-specification:'Renner* Heavy Italic';text-align:center;letter-spacing:0px;text-anchor:middle;fill:#e6e6e6"
           id="flowPara2083">pulp</flowPara></flowRoot>    </clipPath>
  </defs>
  <path
     id="rect1564"
     d="M 0,8.5830688e-6 H 1500 V 600.00001 H 0 Z"
     style="fill:#333333;fill-opacity:1;stroke:none;stroke-width:4.42837429;stroke-linejoin:round;stroke-miterlimit:4;stroke-dasharray:none;stroke-opacity:1" />
  <g
     id="flowRoot1985"
     style="font-style:normal;font-variant:normal;font-weight:500;font-stretch:normal;font-size:13.81231594px;line-height:1.25;font-family:'Renner*';-inkscape-font-specification:'Renner* Medium';text-align:center;letter-spacing:2.30205274px;word-spacing:0px;text-anchor:middle;fill:#808080;fill-opacity:1;stroke:none"
     transform="matrix(0.6575885,0,0,0.6575885,367.89279,583.67594)" />
  <g
     id="flowRoot2664"
     style="font-style:normal;font-weight:normal;font-size:40px;line-height:1.25;font-family:sans-serif;letter-spacing:0px;word-spacing:0px;fill:#000000;fill-opacity:1;stroke:none"
     transform="translate(0,-11.25)" />
  <g
     id="flowRoot1257"
     style="font-style:normal;font-variant:normal;font-weight:800;font-stretch:normal;font-size:40px;line-height:1.25;font-family:'Renner*';-inkscape-font-specification:'Renner* Ultra-Bold';text-align:end;letter-spacing:-1.07587147px;word-spacing:0px;text-anchor:end;fill:#b3b3b3;fill-opacity:1;stroke:none"
     transform="matrix(4.3569331,0,0,4.3569331,-4333.4352,-269.27704)"
     aria-label="minimal">
    <path
       id="path1294"
       style=""
       d="m 1232.1475,187.78312 v 11.92 h -6.92 v -11.2 q 0,-3 -2.04,-3 -2.2,0 -2.2,3 v 11.2 h -6.92 v -11.2 q 0,-3 -2,-3 -2.24,0 -2.24,3 v 11.2 h -6.6 v -18.4 h 6.6 v 2.72 q 1.64,-3.12 5.4,-3.12 4.16,0 5.24,2.88 2.16,-2.88 5.92,-2.88 3.2,0 4.48,1.72001 1.28,1.67999 1.28,5.15999 z" />
    <path
       id="path1296"
       style=""
       d="m 1236.0329,177.22312 q -1.12,-1 -1.12,-2.59999 0,-1.60001 1.12,-2.60001 1.16,-1 2.8,-1 1.64,0 2.76,1 1.16,1 1.16,2.60001 0,1.59999 -1.16,2.59999 -1.12,1 -2.76,1 -1.64,0 -2.8,-1 z m -0.56,4.08 h 6.72 v 18.4 h -6.72 z" />
    <path
       id="path1298"
       style=""
       d="m 1257.567,188.50312 q 0,-1.52 -0.52,-2.24 -0.52,-0.76 -1.8,-0.76 -2.72,0 -2.72,3 v 11.2 h -6.92 v -18.4 h 6.92 v 2.76001 q 1.72,-3.16001 5.68,-3.16001 3.48,0 5.04,1.76 1.6,1.72 1.6,5.12 v 11.92 h -7.28 z" />
    <path
       id="path1300"
       style=""
       d="m 1268.7249,177.22312 q -1.12,-1 -1.12,-2.59999 0,-1.60001 1.12,-2.60001 1.16,-1 2.8,-1 1.64,0 2.76,1 1.16,1 1.16,2.60001 0,1.59999 -1.16,2.59999 -1.12,1 -2.76,1 -1.64,0 -2.8,-1 z m -0.56,4.08 h 6.72 v 18.4 h -6.72 z" />
    <path
       id="path1302"
       style=""
       d="m 1307.219,187.78312 v 11.92 h -6.92 v -11.2 q 0,-3 -2.04,-3 -2.2,0 -2.2,3 v 11.2 h -6.92 v -11.2 q 0,-3 -2,-3 -2.24,0 -2.24,3 v 11.2 h -6.6 v -18.4 h 6.6 v 2.72 q 1.64,-3.12 5.4,-3.12 4.16,0 5.24,2.88 2.16,-2.88 5.92,-2.88 3.2,0 4.48,1.72001 1.28,1.67999 1.28,5.15999 z" />
    <path
       id="path1304"
       style=""
       d="m 1316.1444,194.18312 q 0,1.6 2.24,1.6 3.36,0 3.68,-3 -1.32,-0.6 -3.12,-0.6 -1.28,0 -2.04,0.56 -0.76,0.52 -0.76,1.44 z m -3.04,-6.8 -2.24,-4.56 q 4.84,-2.08 8.8,-2.08 4,0 6.52,1.6 2.52,1.6 2.52,4.48 v 12.88 h -6.6 v -2.6 q -0.8,1.44 -2.44,2.24 -1.6,0.76 -3.68,0.76 -3.16,0 -5,-1.48 -1.8,-1.48 -1.8,-4.08 0,-2.68 2.2,-4.28 2.2,-1.64 5.8,-1.64 2.72,0 4.92,0.96 v -1.2 q 0,-1.12 -0.8,-1.8 -0.8,-0.72 -2.28,-0.72 -3.12,0 -5.92,1.52 z" />
    <path
       id="path1306"
       style=""
       d="m 1331.9285,168.50312 h 6.92 v 31.2 h -6.92 z" />
  </g>
  <g
     id="flowRoot1249"
     style="font-style:normal;font-variant:normal;font-weight:800;font-stretch:normal;font-size:40px;line-height:1.25;font-family:'Renner*';-inkscape-font-specification:'Renner* Ultra-Bold';text-align:end;letter-spacing:-1.07587147px;word-spacing:0px;text-anchor:end;fill:#999999;fill-opacity:1;stroke:none"
     transform="matrix(4.3569331,0,0,4.3569331,-4333.4352,-396.77704)"
     aria-label="minimal">
    <path
       id="path1309"
       style=""
       d="m 1232.1475,187.78312 v 11.92 h -6.92 v -11.2 q 0,-3 -2.04,-3 -2.2,0 -2.2,3 v 11.2 h -6.92 v -11.2 q 0,-3 -2,-3 -2.24,0 -2.24,3 v 11.2 h -6.6 v -18.4 h 6.6 v 2.72 q 1.64,-3.12 5.4,-3.12 4.16,0 5.24,2.88 2.16,-2.88 5.92,-2.88 3.2,0 4.48,1.72001 1.28,1.67999 1.28,5.15999 z" />
    <path
       id="path1311"
       style=""
       d="m 1236.0329,177.22312 q -1.12,-1 -1.12,-2.59999 0,-1.60001 1.12,-2.60001 1.16,-1 2.8,-1 1.64,0 2.76,1 1.16,1 1.16,2.60001 0,1.59999 -1.16,2.59999 -1.12,1 -2.76,1 -1.64,0 -2.8,-1 z m -0.56,4.08 h 6.72 v 18.4 h -6.72 z" />
    <path
       id="path1313"
       style=""
       d="m 1257.567,188.50312 q 0,-1.52 -0.52,-2.24 -0.52,-0.76 -1.8,-0.76 -2.72,0 -2.72,3 v 11.2 h -6.92 v -18.4 h 6.92 v 2.76001 q 1.72,-3.16001 5.68,-3.16001 3.48,0 5.04,1.76 1.6,1.72 1.6,5.12 v 11.92 h -7.28 z" />
    <path
       id="path1315"
       style=""
       d="m 1268.7249,177.22312 q -1.12,-1 -1.12,-2.59999 0,-1.60001 1.12,-2.60001 1.16,-1 2.8,-1 1.64,0 2.76,1 1.16,1 1.16,2.60001 0,1.59999 -1.16,2.59999 -1.12,1 -2.76,1 -1.64,0 -2.8,-1 z m -0.56,4.08 h 6.72 v 18.4 h -6.72 z" />
    <path
       id="path1317"
       style=""
       d="m 1307.219,187.78312 v 11.92 h -6.92 v -11.2 q 0,-3 -2.04,-3 -2.2,0 -2.2,3 v 11.2 h -6.92 v -11.2 q 0,-3 -2,-3 -2.24,0 -2.24,3 v 11.2 h -6.6 v -18.4 h 6.6 v 2.72 q 1.64,-3.12 5.4,-3.12 4.16,0 5.24,2.88 2.16,-2.88 5.92,-2.88 3.2,0 4.48,1.72001 1.28,1.67999 1.28,5.15999 z" />
    <path
       id="path1319"
       style=""
       d="m 1316.1444,194.18312 q 0,1.6 2.24,1.6 3.36,0 3.68,-3 -1.32,-0.6 -3.12,-0.6 -1.28,0 -2.04,0.56 -0.76,0.52 -0.76,1.44 z m -3.04,-6.8 -2.24,-4.56 q 4.84,-2.08 8.8,-2.08 4,0 6.52,1.6 2.52,1.6 2.52,4.48 v 12.88 h -6.6 v -2.6 q -0.8,1.44 -2.44,2.24 -1.6,0.76 -3.68,0.76 -3.16,0 -5,-1.48 -1.8,-1.48 -1.8,-4.08 0,-2.68 2.2,-4.28 2.2,-1.64 5.8,-1.64 2.72,0 4.92,0.96 v -1.2 q 0,-1.12 -0.8,-1.8 -0.8,-0.72 -2.28,-0.72 -3.12,0 -5.92,1.52 z" />
    <path
       id="path1321"
       style=""
       d="m 1331.9285,168.50312 h 6.92 v 31.2 h -6.92 z" />
  </g>
  <g
     id="flowRoot1241"
     style="font-style:normal;font-variant:normal;font-weight:800;font-stretch:normal;font-size:40px;line-height:1.25;font-family:'Renner*';-inkscape-font-specification:'Renner* Ultra-Bold';text-align:end;letter-spacing:-1.07587147px;word-spacing:0px;text-anchor:end;fill:#808080;fill-opacity:1;stroke:none"
     transform="matrix(4.3569331,0,0,4.3569331,-4333.4352,-528.02704)"
     aria-label="minimal">
    <path
       id="path1324"
       style=""
       d="m 1232.1475,187.78312 v 11.92 h -6.92 v -11.2 q 0,-3 -2.04,-3 -2.2,0 -2.2,3 v 11.2 h -6.92 v -11.2 q 0,-3 -2,-3 -2.24,0 -2.24,3 v 11.2 h -6.6 v -18.4 h 6.6 v 2.72 q 1.64,-3.12 5.4,-3.12 4.16,0 5.24,2.88 2.16,-2.88 5.92,-2.88 3.2,0 4.48,1.72001 1.28,1.67999 1.28,5.15999 z" />
    <path
       id="path1326"
       style=""
       d="m 1236.0329,177.22312 q -1.12,-1 -1.12,-2.59999 0,-1.60001 1.12,-2.60001 1.16,-1 2.8,-1 1.64,0 2.76,1 1.16,1 1.16,2.60001 0,1.59999 -1.16,2.59999 -1.12,1 -2.76,1 -1.64,0 -2.8,-1 z m -0.56,4.08 h 6.72 v 18.4 h -6.72 z" />
    <path
       id="path1328"
       style=""
       d="m 1257.567,188.50312 q 0,-1.52 -0.52,-2.24 -0.52,-0.76 -1.8,-0.76 -2.72,0 -2.72,3 v 11.2 h -6.92 v -18.4 h 6.92 v 2.76001 q 1.72,-3.16001 5.68,-3.16001 3.48,0 5.04,1.76 1.6,1.72 1.6,5.12 v 11.92 h -7.28 z" />
    <path
       id="path1330"
       style=""
       d="m 1268.7249,177.22312 q -1.12,-1 -1.12,-2.59999 0,-1.60001 1.12,-2.60001 1.16,-1 2.8,-1 1.64,0 2.76,1 1.16,1 1.16,2.60001 0,1.59999 -1.16,2.59999 -1.12,1 -2.76,1 -1.64,0 -2.8,-1 z m -0.56,4.08 h 6.72 v 18.4 h -6.72 z" />
    <path
       id="path1332"
       style=""
       d="m 1307.219,187.78312 v 11.92 h -6.92 v -11.2 q 0,-3 -2.04,-3 -2.2,0 -2.2,3 v 11.2 h -6.92 v -11.2 q 0,-3 -2,-3 -2.24,0 -2.24,3 v 11.2 h -6.6 v -18.4 h 6.6 v 2.72 q 1.64,-3.12 5.4,-3.12 4.16,0 5.24,2.88 2.16,-2.88 5.92,-2.88 3.2,0 4.48,1.72001 1.28,1.67999 1.28,5.15999 z" />
    <path
       id="path1334"
       style=""
       d="m 1316.1444,194.18312 q 0,1.6 2.24,1.6 3.36,0 3.68,-3 -1.32,-0.6 -3.12,-0.6 -1.28,0 -2.04,0.56 -0.76,0.52 -0.76,1.44 z m -3.04,-6.8 -2.24,-4.56 q 4.84,-2.08 8.8,-2.08 4,0 6.52,1.6 2.52,1.6 2.52,4.48 v 12.88 h -6.6 v -2.6 q -0.8,1.44 -2.44,2.24 -1.6,0.76 -3.68,0.76 -3.16,0 -5,-1.48 -1.8,-1.48 -1.8,-4.08 0,-2.68 2.2,-4.28 2.2,-1.64 5.8,-1.64 2.72,0 4.92,0.96 v -1.2 q 0,-1.12 -0.8,-1.8 -0.8,-0.72 -2.28,-0.72 -3.12,0 -5.92,1.52 z" />
    <path
       id="path1336"
       style=""
       d="m 1331.9285,168.50312 h 6.92 v 31.2 h -6.92 z" />
  </g>
  <g
     id="flowRoot1233"
     style="font-style:normal;font-variant:normal;font-weight:800;font-stretch:normal;font-size:40px;line-height:1.25;font-family:'Renner*';-inkscape-font-specification:'Renner* Ultra-Bold';text-align:end;letter-spacing:-1.07587147px;word-spacing:0px;text-anchor:end;fill:#666666;fill-opacity:1;stroke:none"
     transform="matrix(4.3569331,0,0,4.3569331,-4333.4352,-659.27704)"
     aria-label="minimal">
    <path
       id="path1339"
       style=""
       d="m 1232.1475,187.78312 v 11.92 h -6.92 v -11.2 q 0,-3 -2.04,-3 -2.2,0 -2.2,3 v 11.2 h -6.92 v -11.2 q 0,-3 -2,-3 -2.24,0 -2.24,3 v 11.2 h -6.6 v -18.4 h 6.6 v 2.72 q 1.64,-3.12 5.4,-3.12 4.16,0 5.24,2.88 2.16,-2.88 5.92,-2.88 3.2,0 4.48,1.72001 1.28,1.67999 1.28,5.15999 z" />
    <path
       id="path1341"
       style=""
       d="m 1236.0329,177.22312 q -1.12,-1 -1.12,-2.59999 0,-1.60001 1.12,-2.60001 1.16,-1 2.8,-1 1.64,0 2.76,1 1.16,1 1.16,2.60001 0,1.59999 -1.16,2.59999 -1.12,1 -2.76,1 -1.64,0 -2.8,-1 z m -0.56,4.08 h 6.72 v 18.4 h -6.72 z" />
    <path
       id="path1343"
       style=""
       d="m 1257.567,188.50312 q 0,-1.52 -0.52,-2.24 -0.52,-0.76 -1.8,-0.76 -2.72,0 -2.72,3 v 11.2 h -6.92 v -18.4 h 6.92 v 2.76001 q 1.72,-3.16001 5.68,-3.16001 3.48,0 5.04,1.76 1.6,1.72 1.6,5.12 v 11.92 h -7.28 z" />
    <path
       id="path1345"
       style=""
       d="m 1268.7249,177.22312 q -1.12,-1 -1.12,-2.59999 0,-1.60001 1.12,-2.60001 1.16,-1 2.8,-1 1.64,0 2.76,1 1.16,1 1.16,2.60001 0,1.59999 -1.16,2.59999 -1.12,1 -2.76,1 -1.64,0 -2.8,-1 z m -0.56,4.08 h 6.72 v 18.4 h -6.72 z" />
    <path
       id="path1347"
       style=""
       d="m 1307.219,187.78312 v 11.92 h -6.92 v -11.2 q 0,-3 -2.04,-3 -2.2,0 -2.2,3 v 11.2 h -6.92 v -11.2 q 0,-3 -2,-3 -2.24,0 -2.24,3 v 11.2 h -6.6 v -18.4 h 6.6 v 2.72 q 1.64,-3.12 5.4,-3.12 4.16,0 5.24,2.88 2.16,-2.88 5.92,-2.88 3.2,0 4.48,1.72001 1.28,1.67999 1.28,5.15999 z" />
    <path
       id="path1349"
       style=""
       d="m 1316.1444,194.18312 q 0,1.6 2.24,1.6 3.36,0 3.68,-3 -1.32,-0.6 -3.12,-0.6 -1.28,0 -2.04,0.56 -0.76,0.52 -0.76,1.44 z m -3.04,-6.8 -2.24,-4.56 q 4.84,-2.08 8.8,-2.08 4,0 6.52,1.6 2.52,1.6 2.52,4.48 v 12.88 h -6.6 v -2.6 q -0.8,1.44 -2.44,2.24 -1.6,0.76 -3.68,0.76 -3.16,0 -5,-1.48 -1.8,-1.48 -1.8,-4.08 0,-2.68 2.2,-4.28 2.2,-1.64 5.8,-1.64 2.72,0 4.92,0.96 v -1.2 q 0,-1.12 -0.8,-1.8 -0.8,-0.72 -2.28,-0.72 -3.12,0 -5.92,1.52 z" />
    <path
       id="path1351"
       style=""
       d="m 1331.9285,168.50312 h 6.92 v 31.2 h -6.92 z" />
  </g>
  <g
     id="flowRoot1219"
     style="font-style:normal;font-variant:normal;font-weight:800;font-stretch:normal;font-size:40px;line-height:1.25;font-family:'Renner*';-inkscape-font-specification:'Renner* Ultra-Bold';text-align:end;letter-spacing:-1.07587147px;word-spacing:0px;text-anchor:end;fill:#4d4d4d;fill-opacity:1;stroke:none"
     transform="matrix(4.3569331,0,0,4.3569331,-4333.4352,-790.52704)"
     aria-label="minimal">
    <path
       id="path1354"
       style=""
       d="m 1232.1475,187.78312 v 11.92 h -6.92 v -11.2 q 0,-3 -2.04,-3 -2.2,0 -2.2,3 v 11.2 h -6.92 v -11.2 q 0,-3 -2,-3 -2.24,0 -2.24,3 v 11.2 h -6.6 v -18.4 h 6.6 v 2.72 q 1.64,-3.12 5.4,-3.12 4.16,0 5.24,2.88 2.16,-2.88 5.92,-2.88 3.2,0 4.48,1.72001 1.28,1.67999 1.28,5.15999 z" />
    <path
       id="path1356"
       style=""
       d="m 1236.0329,177.22312 q -1.12,-1 -1.12,-2.59999 0,-1.60001 1.12,-2.60001 1.16,-1 2.8,-1 1.64,0 2.76,1 1.16,1 1.16,2.60001 0,1.59999 -1.16,2.59999 -1.12,1 -2.76,1 -1.64,0 -2.8,-1 z m -0.56,4.08 h 6.72 v 18.4 h -6.72 z" />
    <path
       id="path1358"
       style=""
       d="m 1257.567,188.50312 q 0,-1.52 -0.52,-2.24 -0.52,-0.76 -1.8,-0.76 -2.72,0 -2.72,3 v 11.2 h -6.92 v -18.4 h 6.92 v 2.76001 q 1.72,-3.16001 5.68,-3.16001 3.48,0 5.04,1.76 1.6,1.72 1.6,5.12 v 11.92 h -7.28 z" />
    <path
       id="path1360"
       style=""
       d="m 1268.7249,177.22312 q -1.12,-1 -1.12,-2.59999 0,-1.60001 1.12,-2.60001 1.16,-1 2.8,-1 1.64,0 2.76,1 1.16,1 1.16,2.60001 0,1.59999 -1.16,2.59999 -1.12,1 -2.76,1 -1.64,0 -2.8,-1 z m -0.56,4.08 h 6.72 v 18.4 h -6.72 z" />
    <path
       id="path1362"
       style=""
       d="m 1307.219,187.78312 v 11.92 h -6.92 v -11.2 q 0,-3 -2.04,-3 -2.2,0 -2.2,3 v 11.2 h -6.92 v -11.2 q 0,-3 -2,-3 -2.24,0 -2.24,3 v 11.2 h -6.6 v -18.4 h 6.6 v 2.72 q 1.64,-3.12 5.4,-3.12 4.16,0 5.24,2.88 2.16,-2.88 5.92,-2.88 3.2,0 4.48,1.72001 1.28,1.67999 1.28,5.15999 z" />
    <path
       id="path1364"
       style=""
       d="m 1316.1444,194.18312 q 0,1.6 2.24,1.6 3.36,0 3.68,-3 -1.32,-0.6 -3.12,-0.6 -1.28,0 -2.04,0.56 -0.76,0.52 -0.76,1.44 z m -3.04,-6.8 -2.24,-4.56 q 4.84,-2.08 8.8,-2.08 4,0 6.52,1.6 2.52,1.6 2.52,4.48 v 12.88 h -6.6 v -2.6 q -0.8,1.44 -2.44,2.24 -1.6,0.76 -3.68,0.76 -3.16,0 -5,-1.48 -1.8,-1.48 -1.8,-4.08 0,-2.68 2.2,-4.28 2.2,-1.64 5.8,-1.64 2.72,0 4.92,0.96 v -1.2 q 0,-1.12 -0.8,-1.8 -0.8,-0.72 -2.28,-0.72 -3.12,0 -5.92,1.52 z" />
    <path
       id="path1366"
       style=""
       d="m 1331.9285,168.50312 h 6.92 v 31.2 h -6.92 z" />
  </g>
  <g
     id="flowRoot1265"
     style="font-style:normal;font-variant:normal;font-weight:900;font-stretch:normal;font-size:40px;line-height:1.25;font-family:'Renner*';-inkscape-font-specification:'Renner* Heavy';text-align:end;letter-spacing:-1.07587147px;word-spacing:0px;text-anchor:end;fill:#4d4d4d;fill-opacity:1;stroke:none"
     transform="matrix(27.325399,0,0,27.325399,-35863.189,-4884.8216)"
     aria-label="a">
    <path
       id="path1369"
       style=""
       d="m 1322.6154,187.2117 -2.36,-5.04 q 5.24,-2.04 9.24,-2.04 4.16,0 6.8,1.68 2.68,1.64 2.68,4.52 v 12.8 h -7.4 v -2.6 q -0.8,1.44 -2.44,2.24 -1.6,0.76 -3.64,0.76 -3.2,0 -5.08,-1.48 -1.84,-1.48 -1.84,-4.12 0,-2.6 2.2,-4.2 2.2,-1.6 5.84,-1.6 2.72,0 4.96,0.92 v -0.8 q 0,-1.12 -0.72,-1.76 -0.72,-0.68 -2.16,-0.68 -3.28,0 -6.08,1.4 z m 3.8,6.36 q 0,1.32 1.88,1.32 2.8,0 3.2,-2.48 -1.08,-0.48 -2.72,-0.48 -1.04,0 -1.72,0.48 -0.64,0.44 -0.64,1.16 z" />
  </g>
</svg>
