<?xml version="1.0" encoding="UTF-8" standalone="no"?>
<svg
   xmlns:dc="http://purl.org/dc/elements/1.1/"
   xmlns:cc="http://creativecommons.org/ns#"
   xmlns:rdf="http://www.w3.org/1999/02/22-rdf-syntax-ns#"
   xmlns:svg="http://www.w3.org/2000/svg"
   xmlns="http://www.w3.org/2000/svg"
   viewBox="0 0 1500 600"
   height="640"
   width="1600"
   version="1.1"
   id="svg2">
  <metadata
     id="metadata8">
    <rdf:RDF>
      <cc:Work
         rdf:about="">
        <dc:format>image/svg+xml</dc:format>
        <dc:type
           rdf:resource="http://purl.org/dc/dcmitype/StillImage" />
        <dc:title></dc:title>
      </cc:Work>
    </rdf:RDF>
  </metadata>
  <defs
     id="defs6" />
  <path
     id="rect3354"
     d="M 0,0 H 1500 V 600 H 0 Z"
     style="fill:#f2f2f2" />
  <g
     id="flowRoot3338"
     style="font-style:normal;font-weight:normal;line-height:0.01%;font-family:sans-serif;text-align:center;letter-spacing:0px;word-spacing:0px;text-anchor:middle;fill:#333333;fill-opacity:1;stroke:none;stroke-width:1px;stroke-linecap:butt;stroke-linejoin:miter;stroke-opacity:1"
     transform="matrix(4.9446623,0,0,4.9446623,315.54367,-22.26519)"
     aria-label="Renner*">
    <path
       id="path134"
       style="font-style:normal;font-variant:normal;font-weight:normal;font-stretch:normal;font-size:36.40288925px;line-height:1.25;font-family:'Renner*';-inkscape-font-specification:'Renner*';text-align:center;text-anchor:middle;fill:#333333"
       d="M 28.74369,57.797713 V 67.990522 H 25.649445 V 42.508499 h 6.916549 q 3.749497,0 6.188491,2.111368 2.475397,2.074965 2.475397,5.533239 0,2.803023 -1.674533,4.768779 -1.63813,1.929353 -4.40475,2.584605 l 7.608204,10.484032 H 38.936499 L 31.837936,57.797713 Z m 0,-2.730217 h 3.822304 q 2.511799,0 4.040721,-1.310504 1.528921,-1.310504 1.528921,-3.603886 0,-2.293382 -1.528921,-3.603886 -1.528922,-1.310504 -4.040721,-1.310504 H 28.74369 Z" />
    <path
       id="path136"
       style="font-style:normal;font-variant:normal;font-weight:normal;font-stretch:normal;font-size:36.40288925px;line-height:1.25;font-family:'Renner*';-inkscape-font-specification:'Renner*';text-align:center;text-anchor:middle;fill:#333333"
       d="m 44.41684,59.617857 q 0,-3.895109 2.329785,-6.297699 2.329785,-2.438994 5.970074,-2.438994 3.567483,0 5.715253,2.329785 2.184174,2.329785 2.184174,6.261297 0,0.582446 -0.0364,0.873669 H 47.401877 q 0.182014,2.5118 1.601727,3.895109 1.419713,1.38331 3.713095,1.38331 3.385469,0 5.242016,-3.02144 l 2.366188,1.492519 q -1.38331,2.14777 -3.167052,3.203454 -1.783741,1.055684 -4.805181,1.055684 -3.421872,0 -5.678851,-2.475397 -2.256979,-2.475396 -2.256979,-6.261297 z m 13.032234,-1.747338 q -0.218417,-2.038562 -1.419712,-3.239857 -1.201296,-1.201296 -3.312663,-1.201296 -2.074965,0 -3.567483,1.237698 -1.456116,1.201296 -1.674533,3.203455 z" />
    <path
       id="path138"
       style="font-style:normal;font-variant:normal;font-weight:normal;font-stretch:normal;font-size:36.40288925px;line-height:1.25;font-family:'Renner*';-inkscape-font-specification:'Renner*';text-align:center;text-anchor:middle;fill:#333333"
       d="m 75.382049,57.797713 q 0,-4.186332 -3.567483,-4.186332 -1.892951,0 -3.094246,1.201295 -1.164892,1.164892 -1.164892,2.985037 V 67.990522 H 64.643196 V 51.245193 h 2.912232 v 2.657411 q 1.674532,-3.02144 4.987195,-3.02144 2.657411,0 4.186333,1.710936 1.565324,1.674533 1.565324,4.841584 v 10.556838 h -2.912231 z" />
    <path
       id="path140"
       style="font-style:normal;font-variant:normal;font-weight:normal;font-stretch:normal;font-size:36.40288925px;line-height:1.25;font-family:'Renner*';-inkscape-font-specification:'Renner*';text-align:center;text-anchor:middle;fill:#333333"
       d="m 94.507781,57.797713 q 0,-4.186332 -3.567483,-4.186332 -1.89295,0 -3.094246,1.201295 -1.164892,1.164892 -1.164892,2.985037 V 67.990522 H 83.768929 V 51.245193 h 2.912231 v 2.657411 q 1.674533,-3.02144 4.987196,-3.02144 2.657411,0 4.186332,1.710936 1.565324,1.674533 1.565324,4.841584 v 10.556838 h -2.912231 z" />
    <path
       id="path142"
       style="font-style:normal;font-variant:normal;font-weight:normal;font-stretch:normal;font-size:36.40288925px;line-height:1.25;font-family:'Renner*';-inkscape-font-specification:'Renner*';text-align:center;text-anchor:middle;fill:#333333"
       d="m 101.43855,59.617857 q 0,-3.895109 2.32979,-6.297699 2.32978,-2.438994 5.97007,-2.438994 3.56749,0 5.71526,2.329785 2.18417,2.329785 2.18417,6.261297 0,0.582446 -0.0364,0.873669 h -13.17785 q 0.18201,2.5118 1.60173,3.895109 1.41971,1.38331 3.71309,1.38331 3.38547,0 5.24202,-3.02144 l 2.36619,1.492519 q -1.38331,2.14777 -3.16706,3.203454 -1.78374,1.055684 -4.80518,1.055684 -3.42187,0 -5.67885,-2.475397 -2.25698,-2.475396 -2.25698,-6.261297 z m 13.03224,-1.747338 q -0.21842,-2.038562 -1.41971,-3.239857 -1.2013,-1.201296 -3.31267,-1.201296 -2.07496,0 -3.56748,1.237698 -1.45612,1.201296 -1.67453,3.203455 z" />
    <path
       id="path144"
       style="font-style:normal;font-variant:normal;font-weight:normal;font-stretch:normal;font-size:36.40288925px;line-height:1.25;font-family:'Renner*';-inkscape-font-specification:'Renner*';text-align:center;text-anchor:middle;fill:#333333"
       d="m 129.63714,54.448647 q -1.16489,-0.837266 -2.25698,-0.837266 -2.80302,0 -2.80302,4.186332 v 10.192809 h -2.91223 V 51.245193 h 2.91223 v 1.929353 q 1.52892,-2.293382 3.53108,-2.293382 2.00216,0 3.13065,1.164892 z" />
    <path
       id="path146"
       style="fill:#c83737"
       d="m 140.94934,42.508499 h 2.5482 l -0.29122,5.751657 5.38762,-2.074965 0.76446,2.438994 -5.53324,1.492518 3.60389,4.477556 -2.07496,1.492518 -3.13065,-4.805181 -3.13065,4.805181 -2.07497,-1.492518 3.60389,-4.477556 -5.53324,-1.492518 0.76446,-2.438994 5.38763,2.074965 z" />
  </g>
  <g
     id="flowRoot869"
     style="font-style:normal;font-weight:normal;font-size:14.15667915px;line-height:0.01%;font-family:sans-serif;text-align:center;letter-spacing:0px;word-spacing:0px;text-anchor:middle;fill:#666666;fill-opacity:1;stroke:none;stroke-width:1px;stroke-linecap:butt;stroke-linejoin:miter;stroke-opacity:1"
     transform="matrix(4.9446623,0,0,4.9446623,315.54367,221.48481)"
     aria-label="Version 3.0">
    <path
       id="path149"
       style="font-style:italic;font-variant:normal;font-weight:500;font-stretch:normal;font-size:14.15667915px;line-height:1.25;font-family:'Renner*';-inkscape-font-specification:'Renner* Medium Italic';text-align:center;text-anchor:middle;fill:#666666"
       d="m 57.120043,44.785991 4.13375,-6.965086 h 1.939465 L 56.497149,48.282691 53.481776,37.820905 h 1.939465 z" />
    <path
       id="path151"
       style="font-style:italic;font-variant:normal;font-weight:500;font-stretch:normal;font-size:14.15667915px;line-height:1.25;font-family:'Renner*';-inkscape-font-specification:'Renner* Medium Italic';text-align:center;text-anchor:middle;fill:#666666"
       d="m 66.525386,43.76671 q 0.02831,-0.72199 -0.311447,-1.118377 -0.33976,-0.410544 -1.047594,-0.410544 -0.707834,0 -1.274101,0.410544 -0.566267,0.410543 -0.778617,1.118377 z m -3.609953,1.061751 q -0.07078,0.877714 0.325604,1.330728 0.410543,0.453014 1.175004,0.453014 1.245788,0 2.052719,-1.033438 l 1.231631,0.537954 q -1.387355,1.755428 -3.58164,1.755428 -1.486451,0 -2.236755,-0.948497 -0.750304,-0.962654 -0.481327,-2.449106 0.268976,-1.528921 1.344884,-2.463262 1.090064,-0.934341 2.647299,-0.934341 1.514765,0 2.222599,0.891871 0.707834,0.891871 0.438857,2.434949 -0.01416,0.113253 -0.0991,0.4247 z" />
    <path
       id="path153"
       style="font-style:italic;font-variant:normal;font-weight:500;font-stretch:normal;font-size:14.15667915px;line-height:1.25;font-family:'Renner*';-inkscape-font-specification:'Renner* Medium Italic';text-align:center;text-anchor:middle;fill:#666666"
       d="m 73.237201,42.860683 q -0.38223,-0.353917 -0.806931,-0.353917 -1.061751,0 -1.344884,1.557235 l -0.651208,3.66658 h -1.514764 l 1.146691,-6.512073 h 1.514764 l -0.141566,0.778618 q 0.76446,-0.920185 1.656331,-0.920185 0.778618,0 1.118378,0.481327 z" />
    <path
       id="path155"
       style="font-style:italic;font-variant:normal;font-weight:500;font-stretch:normal;font-size:14.15667915px;line-height:1.25;font-family:'Renner*';-inkscape-font-specification:'Renner* Medium Italic';text-align:center;text-anchor:middle;fill:#666666"
       d="m 74.82474,45.380572 q 0.25482,0.59458 0.693677,0.920184 0.453014,0.325604 0.962654,0.325604 0.920184,0 1.047594,-0.665364 0.02831,-0.12741 0,-0.240664 -0.01416,-0.113253 -0.0991,-0.21235 -0.08494,-0.0991 -0.16988,-0.16988 -0.07078,-0.07078 -0.240664,-0.155724 -0.155724,-0.08494 -0.25482,-0.12741 -0.08494,-0.05663 -0.297291,-0.141567 -0.21235,-0.08494 -0.29729,-0.12741 -0.368073,-0.16988 -0.608737,-0.311447 -0.226507,-0.141566 -0.481327,-0.368073 -0.25482,-0.226507 -0.33976,-0.537954 -0.08494,-0.311447 -0.01416,-0.707834 0.141567,-0.821087 0.906027,-1.302415 0.764461,-0.481327 1.712959,-0.481327 0.792774,0 1.429824,0.325604 0.651207,0.325604 0.891871,0.821087 l -1.019281,0.906028 q -0.226507,-0.33976 -0.651207,-0.552111 -0.424701,-0.226507 -0.821088,-0.226507 -0.863557,0 -0.962654,0.580424 -0.01416,0.0991 0.01416,0.184037 0.02831,0.08494 0.113253,0.16988 0.08494,0.07078 0.169881,0.141567 0.0991,0.05663 0.25482,0.141567 0.155723,0.07078 0.268977,0.12741 0.12741,0.04247 0.311447,0.12741 0.198193,0.08494 0.311447,0.12741 1.670488,0.721991 1.458137,1.939465 -0.353917,2.038562 -2.788865,2.038562 -0.948498,0 -1.670488,-0.46717 -0.707834,-0.467171 -0.920185,-1.203318 z" />
    <path
       id="path157"
       style="font-style:italic;font-variant:normal;font-weight:500;font-stretch:normal;font-size:14.15667915px;line-height:1.25;font-family:'Renner*';-inkscape-font-specification:'Renner* Medium Italic';text-align:center;text-anchor:middle;fill:#666666"
       d="m 81.844019,39.2932 q -0.226507,-0.268977 -0.155724,-0.665364 0.07078,-0.396387 0.396387,-0.665364 0.339761,-0.268977 0.736148,-0.268977 0.410543,0 0.63705,0.268977 0.240664,0.268977 0.16988,0.665364 -0.07078,0.396387 -0.410543,0.665364 -0.325604,0.268977 -0.721991,0.268977 -0.410544,0 -0.651207,-0.268977 z m -0.396387,1.925308 h 1.500608 l -1.146691,6.512073 h -1.500608 z" />
    <path
       id="path159"
       style="font-style:italic;font-variant:normal;font-weight:500;font-stretch:normal;font-size:14.15667915px;line-height:1.25;font-family:'Renner*';-inkscape-font-specification:'Renner* Medium Italic';text-align:center;text-anchor:middle;fill:#666666"
       d="m 84.542636,46.92365 q -0.821087,-0.948498 -0.55211,-2.449106 0.268977,-1.500608 1.429824,-2.449105 1.160848,-0.948498 2.675613,-0.948498 1.514764,0 2.350008,0.948498 0.835244,0.948497 0.566267,2.449105 -0.268976,1.486452 -1.443981,2.449106 -1.160847,0.948497 -2.675612,0.948497 -1.514765,0 -2.350009,-0.948497 z m 1.826212,-3.9214 q -0.651208,0.566267 -0.806931,1.472294 -0.155723,0.906028 0.283134,1.486452 0.453013,0.566267 1.288257,0.566267 0.835244,0 1.486452,-0.566267 0.665364,-0.580424 0.821087,-1.486452 0.155724,-0.906027 -0.29729,-1.472294 -0.453014,-0.580424 -1.288258,-0.580424 -0.835244,0 -1.486451,0.580424 z" />
    <path
       id="path161"
       style="font-style:italic;font-variant:normal;font-weight:500;font-stretch:normal;font-size:14.15667915px;line-height:1.25;font-family:'Renner*';-inkscape-font-specification:'Renner* Medium Italic';text-align:center;text-anchor:middle;fill:#666666"
       d="m 96.752771,43.76671 q 0.25482,-1.458138 -0.934341,-1.458138 -0.608737,0 -1.075908,0.382231 -0.453013,0.368073 -0.608737,0.962654 l -0.72199,4.077124 h -1.543079 l 1.146691,-6.512073 h 1.543079 l -0.184037,1.019281 q 0.835244,-1.160848 2.165972,-1.160848 1.090064,0 1.557234,0.651208 0.467171,0.63705 0.254821,1.868681 l -0.721991,4.133751 h -1.571391 z" />
    <path
       id="path163"
       style="font-style:italic;font-variant:normal;font-weight:500;font-stretch:normal;font-size:14.15667915px;line-height:1.25;font-family:'Renner*';-inkscape-font-specification:'Renner* Medium Italic';text-align:center;text-anchor:middle;fill:#666666"
       d="m 107.04047,47.900461 q -1.54307,0 -2.33585,-0.863558 -0.77862,-0.877714 -0.56627,-2.137658 h 1.68465 q -0.12741,0.693677 0.29729,1.132534 0.43886,0.4247 1.20332,0.4247 0.76446,0 1.28825,-0.410543 0.53796,-0.410544 0.66537,-1.146691 0.14157,-0.792774 -0.38223,-1.231631 -0.50964,-0.438857 -1.52892,-0.438857 l 0.0566,-0.339761 0.0991,-0.50964 0.0142,-0.0991 0.0566,-0.29729 q 0.87772,0 1.4723,-0.438857 0.59458,-0.453014 0.72199,-1.118378 0.11325,-0.608737 -0.16988,-0.976811 -0.28313,-0.368073 -0.93434,-0.368073 -0.63705,0 -1.14669,0.396387 -0.50964,0.38223 -0.60874,0.97681 h -1.57139 q 0.21235,-1.231631 1.20332,-2.010248 0.99096,-0.778617 2.35,-0.778617 1.38736,0 2.08104,0.778617 0.69367,0.764461 0.49548,1.896995 -0.12741,0.736147 -0.67952,1.316571 -0.53795,0.566267 -1.38735,0.891871 1.85452,0.637051 1.51476,2.519889 -0.22651,1.274101 -1.30241,2.052718 -1.06176,0.778618 -2.59068,0.778618 z" />
    <path
       id="path165"
       style="font-style:italic;font-variant:normal;font-weight:500;font-stretch:normal;font-size:14.15667915px;line-height:1.25;font-family:'Renner*';-inkscape-font-specification:'Renner* Medium Italic';text-align:center;text-anchor:middle;fill:#666666"
       d="m 112.27203,47.716424 q -0.22651,-0.29729 -0.15572,-0.707834 0.0708,-0.410544 0.39638,-0.693677 0.33976,-0.297291 0.76446,-0.297291 0.4247,0 0.66537,0.297291 0.24066,0.283133 0.16988,0.693677 -0.0708,0.410544 -0.41055,0.707834 -0.33976,0.283133 -0.76446,0.283133 -0.4247,0 -0.66536,-0.283133 z" />
    <path
       id="path167"
       style="font-style:italic;font-variant:normal;font-weight:500;font-stretch:normal;font-size:14.15667915px;line-height:1.25;font-family:'Renner*';-inkscape-font-specification:'Renner* Medium Italic';text-align:center;text-anchor:middle;fill:#666666"
       d="m 119.31631,40.170914 q -0.77862,0.990967 -1.06176,2.604829 -0.28313,1.613861 0.14157,2.618986 0.4247,0.990967 1.42983,0.990967 1.00512,0 1.78374,-1.005124 0.79277,-1.005124 1.07591,-2.604829 0.28313,-1.613862 -0.15573,-2.604829 -0.4247,-1.005124 -1.42982,-1.005124 -1.00513,0 -1.78374,1.005124 z m -2.29339,6.313879 q -0.80693,-1.415668 -0.41054,-3.70905 0.39639,-2.293382 1.6988,-3.694893 1.31657,-1.415668 3.04369,-1.415668 1.74127,0 2.56236,1.415668 0.82108,1.401511 0.41054,3.694893 -0.41054,2.293382 -1.72711,3.70905 -1.30242,1.401511 -3.04369,1.401511 -1.72712,0 -2.53405,-1.401511 z" />
  </g>
</svg>
