<?xml version="1.0" encoding="UTF-8" standalone="no"?>
<svg
   xmlns:dc="http://purl.org/dc/elements/1.1/"
   xmlns:cc="http://creativecommons.org/ns#"
   xmlns:rdf="http://www.w3.org/1999/02/22-rdf-syntax-ns#"
   xmlns:svg="http://www.w3.org/2000/svg"
   xmlns="http://www.w3.org/2000/svg"
   viewBox="0 0 1500 140.625"
   height="150"
   width="1600"
   version="1.1"
   id="svg2">
  <metadata
     id="metadata8">
    <rdf:RDF>
      <cc:Work
         rdf:about="">
        <dc:format>image/svg+xml</dc:format>
        <dc:type
           rdf:resource="http://purl.org/dc/dcmitype/StillImage" />
        <dc:title></dc:title>
      </cc:Work>
    </rdf:RDF>
  </metadata>
  <defs
     id="defs6" />
  <path
     id="rect3354"
     d="M 0,0 H 1500 V 140.625 H 0 Z"
     style="fill:#f2f2f2;stroke-width:0.48412293" />
  <g
     id="flowRoot986"
     style="font-style:normal;font-variant:normal;font-weight:normal;font-stretch:normal;font-size:16.31354904px;line-height:1;font-family:'Renner*';-inkscape-font-specification:'Renner*';text-align:center;letter-spacing:0px;word-spacing:0px;text-anchor:middle;fill:#333333;fill-opacity:1;stroke:none;stroke-width:1px;stroke-linecap:butt;stroke-linejoin:miter;stroke-opacity:1"
     transform="matrix(5.9219821,0,0,5.9219821,-36.25498,-381.0961)"
     aria-label="Aa Aa Aa Aa Aa Aa Aa Aa Aa">
    <path
       id="path1434"
       style="font-style:normal;font-variant:normal;font-weight:100;font-stretch:normal;font-family:'Renner*';-inkscape-font-specification:'Renner* Thin'"
       d="m 27.798944,73.738554 -1.761863,4.437285 h -0.195763 l 1.827118,-4.584107 v -0.01631 l 2.822244,-7.063766 4.649361,11.664187 h -0.195763 l -1.745549,-4.437285 z m 0.04894,-0.163136 h 5.301903 L 30.49068,66.952117 Z" />
    <path
       id="path1436"
       style="font-style:normal;font-variant:normal;font-weight:100;font-stretch:normal;font-family:'Renner*';-inkscape-font-specification:'Renner* Thin'"
       d="m 36.74871,71.731987 -0.114194,-0.130508 q 1.158262,-1.093008 2.544913,-1.093008 1.060381,0 1.598728,0.668856 0.554661,0.652542 0.554661,1.778177 v 5.220335 H 41.169682 V 76.25084 q -0.212076,0.897246 -0.929872,1.500847 -0.701483,0.587288 -1.712923,0.587288 -1.027753,0 -1.761863,-0.587288 -0.73411,-0.587288 -0.73411,-1.778177 0,-1.125635 0.864618,-1.74555 0.880932,-0.636228 2.088135,-0.636228 1.321397,0 2.186015,0.701483 v -1.337711 q 0,-1.076695 -0.50572,-1.680296 -0.489406,-0.603601 -1.484533,-0.603601 -1.305084,0 -2.430719,1.06038 z m -0.55466,4.241523 q 0,1.109321 0.685169,1.663982 0.685169,0.538347 1.647668,0.538347 1.093008,0 1.859745,-0.766737 0.78305,-0.78305 0.78305,-1.843431 V 74.45635 q -0.831991,-0.701483 -2.186015,-0.701483 -1.109322,0 -1.957626,0.587288 -0.831991,0.570974 -0.831991,1.631355 z" />
    <path
       id="path1438"
       style="font-style:normal;font-variant:normal;font-weight:200;font-stretch:normal;font-family:'Renner*';-inkscape-font-specification:'Renner* Ultra-Light'"
       d="m 49.919097,74.097452 -1.663982,4.078387 h -0.685169 l 4.894065,-11.778382 4.877751,11.778382 h -0.685169 l -1.647668,-4.078387 z m 0.22839,-0.570974 h 4.649362 l -2.332838,-5.709742 z" />
    <path
       id="path1440"
       style="font-style:normal;font-variant:normal;font-weight:200;font-stretch:normal;font-family:'Renner*';-inkscape-font-specification:'Renner* Ultra-Light'"
       d="m 59.056213,71.993004 -0.309957,-0.456779 q 1.207202,-1.027754 2.659108,-1.027754 1.141949,0 1.778177,0.636229 0.652542,0.636228 0.652542,1.745549 v 5.28559 h -0.587288 v -1.51716 q -0.293644,0.766737 -0.995126,1.223516 -0.685169,0.45678 -1.615042,0.45678 -1.076694,0 -1.810804,-0.587288 -0.717796,-0.587288 -0.717796,-1.712923 0,-1.174575 0.880932,-1.827117 0.897245,-0.652542 2.169702,-0.652542 1.256143,0 2.088134,0.652542 v -1.321398 q 0,-0.880931 -0.489406,-1.370338 -0.489407,-0.489406 -1.354025,-0.489406 -1.256143,0 -2.349151,0.962499 z m 0.342585,2.544914 q -0.701483,0.50572 -0.701483,1.435592 0,0.929872 0.570974,1.386652 0.587288,0.456779 1.484533,0.456779 1.060381,0 1.778177,-0.652542 0.717796,-0.668855 0.717796,-1.712922 v -0.831991 q -0.864618,-0.587288 -2.071821,-0.587288 -1.06038,0 -1.778176,0.50572 z" />
    <path
       id="path1442"
       style="font-style:normal;font-variant:normal;font-weight:300;font-stretch:normal;font-family:'Renner*';-inkscape-font-specification:'Renner* Light'"
       d="m 72.545991,74.342155 -1.5661,3.833684 h -1.01144 l 5.040886,-11.85995 5.040887,11.85995 h -1.01144 L 77.45637,74.342155 Z m 0.358898,-0.848304 h 4.208896 L 75.009337,68.38771 Z" />
    <path
       id="path1444"
       style="font-style:normal;font-variant:normal;font-weight:300;font-stretch:normal;font-family:'Renner*';-inkscape-font-specification:'Renner* Light'"
       d="m 81.840126,72.15614 -0.424153,-0.652542 q 1.256144,-0.995127 2.740677,-0.995127 1.207202,0 1.892371,0.636229 0.701483,0.619914 0.701483,1.712922 v 5.318217 h -0.848305 v -1.354024 q -0.309957,0.685169 -1.01144,1.109321 -0.685169,0.407839 -1.582414,0.407839 -1.109321,0 -1.827117,-0.587288 -0.717797,-0.603601 -0.717797,-1.680296 0,-1.207202 0.880932,-1.859744 0.880932,-0.668856 2.218643,-0.668856 1.190889,0 2.039193,0.603602 v -1.288771 q 0,-0.750423 -0.489406,-1.174575 -0.473093,-0.424153 -1.256143,-0.424153 -1.272457,0 -2.316524,0.897246 z m -0.212076,3.81737 q 0,0.815678 0.50572,1.207203 0.522033,0.391525 1.370338,0.391525 1.06038,0 1.729236,-0.587288 0.668855,-0.587288 0.668855,-1.615041 V 74.73368 q -0.864618,-0.522033 -2.006566,-0.522033 -1.027754,0 -1.647669,0.473093 -0.619914,0.456779 -0.619914,1.28877 z" />
    <path
       id="path1446"
       style="font-style:normal;font-variant:normal;font-weight:normal;font-stretch:normal;font-size:16.31354904px;line-height:1;font-family:'Renner*';-inkscape-font-specification:'Renner*';text-align:center;text-anchor:middle;fill:#333333"
       d="m 95.782094,74.749994 -1.451906,3.425845 h -1.549787 l 5.301904,-11.990458 5.301905,11.990458 h -1.54979 l -1.4519,-3.425845 z m 0.554661,-1.305084 h 3.491099 l -1.745549,-4.111014 z" />
    <path
       id="path1448"
       style="font-style:normal;font-variant:normal;font-weight:normal;font-stretch:normal;font-size:16.31354904px;line-height:1;font-family:'Renner*';-inkscape-font-specification:'Renner*';text-align:center;text-anchor:middle;fill:#333333"
       d="m 105.27912,72.43347 -0.63623,-0.995127 q 1.27246,-0.929872 2.87119,-0.929872 1.30508,0 2.08813,0.603601 0.79937,0.603602 0.79937,1.680296 v 5.383471 h -1.30509 v -1.076694 q -0.34258,0.587288 -1.02775,0.913559 -0.66886,0.326271 -1.53347,0.326271 -1.17458,0 -1.87606,-0.587288 -0.70148,-0.603601 -0.70148,-1.615041 0,-1.256144 0.88093,-1.941313 0.89724,-0.685169 2.31652,-0.685169 1.12564,0 1.94131,0.538347 v -1.256143 q 0,-0.538347 -0.47309,-0.831991 -0.45678,-0.309957 -1.10932,-0.309957 -1.15826,0 -2.23496,0.78305 z m 0,3.54004 q 0,1.207203 1.58242,1.207203 2.23495,0 2.23495,-1.941313 v -0.293643 q -0.8483,-0.440466 -1.87605,-0.440466 -1.94132,0 -1.94132,1.468219 z" />
    <path
       id="path1450"
       style="font-style:normal;font-variant:normal;font-weight:500;font-stretch:normal;font-family:'Renner*';-inkscape-font-specification:'Renner* Medium'"
       d="m 120.35539,73.608046 h 3.09958 l -1.54979,-3.621608 z m -0.55466,1.631354 -1.30508,2.936439 h -2.18602 l 5.59555,-12.055713 5.59555,12.055713 h -2.18602 L 124.00963,75.2394 Z" />
    <path
       id="path1452"
       style="font-style:normal;font-variant:normal;font-weight:500;font-stretch:normal;font-family:'Renner*';-inkscape-font-specification:'Renner* Medium'"
       d="m 129.75939,75.957197 q 0,1.044067 1.38665,1.044067 2.00657,0 2.00657,-1.794491 V 75.059951 Q 132.4185,74.68474 131.456,74.68474 q -0.83199,0 -1.27246,0.342584 -0.42415,0.326271 -0.42415,0.929873 z m -0.37521,-3.295337 -0.7178,-1.272457 q 1.50085,-0.897245 3.08326,-0.897245 1.40297,0 2.26759,0.619914 0.86461,0.619915 0.86461,1.712923 v 5.350844 h -1.72923 v -1.076694 q -0.32627,0.587288 -1.01144,0.913559 -0.66886,0.326271 -1.53348,0.326271 -1.2072,0 -1.92499,-0.587288 -0.70149,-0.603601 -0.70149,-1.631355 0,-1.223516 0.88093,-1.892372 0.89725,-0.668855 2.33284,-0.668855 1.0767,0 1.95763,0.50572 v -1.044067 q 0,-0.50572 -0.42415,-0.799364 -0.42416,-0.293644 -1.06039,-0.293644 -1.2072,0 -2.28389,0.73411 z" />
    <path
       id="path1454"
       style="font-style:normal;font-variant:normal;font-weight:600;font-stretch:normal;font-family:'Renner*';-inkscape-font-specification:'Renner* Semi-Bold'"
       d="m 145.12012,73.738554 h 2.80593 l -1.40296,-3.26271 z m -0.55466,1.859744 -1.19089,2.577541 h -2.6591 l 5.80762,-12.104653 5.80762,12.104653 h -2.65911 l -1.19089,-2.577541 z" />
    <path
       id="path1456"
       style="font-style:normal;font-variant:normal;font-weight:600;font-stretch:normal;font-family:'Renner*';-inkscape-font-specification:'Renner* Semi-Bold'"
       d="m 154.89016,75.940883 q 0,0.929872 1.23982,0.929872 1.84344,0 1.84344,-1.696609 v -0.01631 q -0.65255,-0.342585 -1.54979,-0.342585 -0.7178,0 -1.12564,0.309958 -0.40783,0.293643 -0.40783,0.815677 z m -0.65255,-3.115888 -0.78305,-1.468219 q 1.69661,-0.880932 3.26271,-0.880932 1.48454,0 2.38178,0.636228 0.91356,0.619915 0.91356,1.74555 v 5.318217 h -2.03919 v -1.076694 q -0.32627,0.587288 -1.01144,0.913559 -0.66886,0.326271 -1.51716,0.326271 -1.23983,0 -1.95763,-0.587288 -0.7178,-0.603601 -0.7178,-1.647668 0,-1.174576 0.88094,-1.843432 0.89724,-0.668855 2.34915,-0.668855 1.02775,0 1.97394,0.489406 v -0.880931 q 0,-0.489407 -0.39153,-0.766737 -0.39152,-0.293644 -1.01144,-0.293644 -1.25614,0 -2.33284,0.685169 z" />
    <path
       id="path1458"
       style="font-style:normal;font-variant:normal;font-weight:bold;font-stretch:normal;font-family:'Renner*';-inkscape-font-specification:'Renner* Bold'"
       d="m 170.55397,73.869062 h 2.5286 l -1.25614,-2.903811 z m -0.55466,2.104448 -1.0767,2.202329 h -3.1322 l 6.03602,-12.13728 6.00338,12.13728 h -3.1322 l -1.07669,-2.202329 z" />
    <path
       id="path1460"
       style="font-style:normal;font-variant:normal;font-weight:bold;font-stretch:normal;font-family:'Renner*';-inkscape-font-specification:'Renner* Bold'"
       d="m 180.6745,75.924569 q 0,0.799364 1.07669,0.799364 1.61504,0 1.68029,-1.468219 -0.58728,-0.293644 -1.41927,-0.293644 -0.63623,0 -0.99513,0.261017 -0.34258,0.261017 -0.34258,0.701482 z M 179.72831,72.988131 178.88,71.324149 q 1.82712,-0.864618 3.42585,-0.864618 1.5661,0 2.5286,0.652541 0.9625,0.636229 0.9625,1.778177 v 5.28559 h -2.36547 v -1.06038 q -0.32627,0.587287 -0.99512,0.913558 -0.65254,0.309958 -1.51716,0.309958 -1.25614,0 -1.99025,-0.587288 -0.73411,-0.603601 -0.73411,-1.663982 0,-1.141948 0.88093,-1.79449 0.89724,-0.668856 2.36546,-0.668856 1.0767,0 1.99025,0.440466 v -0.685169 q 0,-0.473093 -0.35889,-0.750423 -0.3589,-0.293644 -0.9625,-0.293644 -1.27246,0 -2.38178,0.652542 z" />
    <path
       id="path1462"
       style="font-style:normal;font-variant:normal;font-weight:800;font-stretch:normal;font-family:'Renner*';-inkscape-font-specification:'Renner* Ultra-Bold'"
       d="m 196.65693,73.999571 h 2.23495 l -1.10932,-2.544914 z m -0.57098,2.349151 -0.92987,1.827117 h -3.62161 l 6.24809,-12.186221 6.21546,12.186221 h -3.58898 l -0.9625,-1.827117 z" />
    <path
       id="path1464"
       style="font-style:normal;font-variant:normal;font-weight:800;font-stretch:normal;font-family:'Renner*';-inkscape-font-specification:'Renner* Ultra-Bold'"
       d="m 207.15979,75.924569 q 0,0.652542 0.91356,0.652542 1.37034,0 1.50085,-1.223516 -0.53835,-0.244703 -1.27246,-0.244703 -0.52203,0 -0.83199,0.22839 -0.30996,0.212076 -0.30996,0.587287 z m -1.23983,-2.773303 -0.91356,-1.859744 q 1.97394,-0.848305 3.58899,-0.848305 1.63135,0 2.6591,0.652542 1.02776,0.652542 1.02776,1.827117 v 5.252963 h -2.69174 v -1.06038 q -0.32627,0.587287 -0.99512,0.913558 -0.65255,0.309958 -1.50085,0.309958 -1.28877,0 -2.03919,-0.603602 -0.73411,-0.603601 -0.73411,-1.663982 0,-1.093007 0.89724,-1.745549 0.89725,-0.668856 2.36547,-0.668856 1.10932,0 2.00656,0.391525 v -0.489406 q 0,-0.45678 -0.32627,-0.73411 -0.32627,-0.293644 -0.92987,-0.293644 -1.27246,0 -2.41441,0.619915 z" />
    <path
       id="path1466"
       style="font-style:normal;font-variant:normal;font-weight:900;font-stretch:normal;font-family:'Renner*';-inkscape-font-specification:'Renner* Heavy'"
       d="m 222.8417,76.70762 -0.79937,1.468219 h -4.07838 l 6.44385,-12.235162 6.44385,12.235162 h -4.07839 l -0.81568,-1.468219 z m 0.58728,-2.577541 h 1.95763 l -0.97881,-2.186016 z" />
    <path
       id="path1468"
       style="font-style:normal;font-variant:normal;font-weight:900;font-stretch:normal;font-family:'Renner*';-inkscape-font-specification:'Renner* Heavy'"
       d="m 232.73256,73.314402 -0.9625,-2.055508 q 2.13707,-0.831991 3.76843,-0.831991 1.69661,0 2.7733,0.685169 1.09301,0.668856 1.09301,1.843432 v 5.220335 h -3.01801 v -1.06038 q -0.32627,0.587287 -0.99512,0.913558 -0.65255,0.309958 -1.48454,0.309958 -1.30508,0 -2.07182,-0.603602 -0.75042,-0.603601 -0.75042,-1.680295 0,-1.060381 0.89724,-1.712923 0.89725,-0.652542 2.38178,-0.652542 1.10932,0 2.02288,0.375212 v -0.326271 q 0,-0.456779 -0.29364,-0.717796 -0.29365,-0.277331 -0.88093,-0.277331 -1.33771,0 -2.47966,0.570975 z m 1.54978,2.593854 q 0,0.538347 0.76674,0.538347 1.14195,0 1.30508,-1.01144 -0.44046,-0.195763 -1.10932,-0.195763 -0.42415,0 -0.70148,0.195763 -0.26102,0.179449 -0.26102,0.473093 z" />
  </g>
  <g
     id="flowRoot994"
     style="font-style:normal;font-variant:normal;font-weight:500;font-stretch:normal;font-size:4.22155952px;line-height:1;font-family:'Renner*';-inkscape-font-specification:'Renner* Medium';text-align:center;letter-spacing:0px;word-spacing:0px;text-anchor:middle;fill:#333333;fill-opacity:1;stroke:none;stroke-width:1px;stroke-linecap:butt;stroke-linejoin:miter;stroke-opacity:1"
     transform="matrix(5.9219821,0,0,5.9219821,-26.87998,-287.3461)"
     aria-label="Hairline">
    <path
       id="path1471"
       style="font-style:normal;font-variant:normal;font-weight:500;font-stretch:normal;font-size:4.22155952px;line-height:1;font-family:'Renner*';-inkscape-font-specification:'Renner* Medium';text-align:center;text-anchor:middle;fill:#333333"
       d="m 24.977136,65.547156 h 0.498144 v 1.139821 h 1.485989 v -1.139821 h 0.498144 v 2.955092 H 26.961269 V 67.147127 H 25.47528 v 1.355121 h -0.498144 z" />
    <path
       id="path1473"
       style="font-style:normal;font-variant:normal;font-weight:500;font-stretch:normal;font-size:4.22155952px;line-height:1;font-family:'Renner*';-inkscape-font-specification:'Renner* Medium';text-align:center;text-anchor:middle;fill:#333333"
       d="m 28.359396,67.928116 q 0,0.270179 0.358833,0.270179 0.519252,0 0.519252,-0.464371 v -0.03799 q -0.18997,-0.0971 -0.439042,-0.0971 -0.2153,0 -0.329282,0.08865 -0.109761,0.08443 -0.109761,0.240629 z m -0.09709,-0.852755 -0.185749,-0.329282 q 0.388383,-0.232186 0.797875,-0.232186 0.363054,0 0.586796,0.160419 0.223743,0.16042 0.223743,0.443264 v 1.384672 h -0.447485 v -0.278623 q -0.08443,0.151976 -0.261737,0.236407 -0.173084,0.08443 -0.396827,0.08443 -0.312395,0 -0.498144,-0.151976 -0.181527,-0.156198 -0.181527,-0.422156 0,-0.316617 0.227965,-0.489701 0.232185,-0.173084 0.603683,-0.173084 0.278623,0 0.506587,0.130869 v -0.27018 q 0,-0.130869 -0.109761,-0.206857 -0.10976,-0.07599 -0.274401,-0.07599 -0.312396,0 -0.591018,0.189971 z" />
    <path
       id="path1475"
       style="font-style:normal;font-variant:normal;font-weight:500;font-stretch:normal;font-size:4.22155952px;line-height:1;font-family:'Renner*';-inkscape-font-specification:'Renner* Medium';text-align:center;text-anchor:middle;fill:#333333"
       d="m 30.279414,65.986198 q -0.08021,-0.08021 -0.08021,-0.198413 0,-0.118204 0.08021,-0.198413 0.08443,-0.08021 0.206857,-0.08021 0.122425,0 0.206856,0.08021 0.08443,0.08021 0.08443,0.198413 0,0.118204 -0.08443,0.198413 -0.08443,0.08021 -0.206856,0.08021 -0.122425,0 -0.206857,-0.08021 z m -0.01689,0.574132 h 0.447485 v 1.941918 h -0.447485 z" />
    <path
       id="path1477"
       style="font-style:normal;font-variant:normal;font-weight:500;font-stretch:normal;font-size:4.22155952px;line-height:1;font-family:'Renner*';-inkscape-font-specification:'Renner* Medium';text-align:center;text-anchor:middle;fill:#333333"
       d="m 32.367503,67.050031 q -0.130868,-0.105539 -0.257515,-0.105539 -0.320838,0 -0.320838,0.464372 v 1.093384 H 31.337443 V 66.56033 h 0.451707 v 0.236408 q 0.181527,-0.278623 0.443263,-0.278623 0.232186,0 0.358833,0.143533 z" />
    <path
       id="path1479"
       style="font-style:normal;font-variant:normal;font-weight:500;font-stretch:normal;font-size:4.22155952px;line-height:1;font-family:'Renner*';-inkscape-font-specification:'Renner* Medium';text-align:center;text-anchor:middle;fill:#333333"
       d="m 32.895792,65.209431 h 0.46015 v 3.292817 h -0.46015 z" />
    <path
       id="path1481"
       style="font-style:normal;font-variant:normal;font-weight:500;font-stretch:normal;font-size:4.22155952px;line-height:1;font-family:'Renner*';-inkscape-font-specification:'Renner* Medium';text-align:center;text-anchor:middle;fill:#333333"
       d="m 33.998015,65.986198 q -0.08021,-0.08021 -0.08021,-0.198413 0,-0.118204 0.08021,-0.198413 0.08443,-0.08021 0.206857,-0.08021 0.122425,0 0.206856,0.08021 0.08443,0.08021 0.08443,0.198413 0,0.118204 -0.08443,0.198413 -0.08443,0.08021 -0.206856,0.08021 -0.122426,0 -0.206857,-0.08021 z m -0.01689,0.574132 h 0.447485 v 1.941918 h -0.447485 z" />
    <path
       id="path1483"
       style="font-style:normal;font-variant:normal;font-weight:500;font-stretch:normal;font-size:4.22155952px;line-height:1;font-family:'Renner*';-inkscape-font-specification:'Renner* Medium';text-align:center;text-anchor:middle;fill:#333333"
       d="m 36.305625,67.320211 q 0,-0.434821 -0.358833,-0.434821 -0.194192,0 -0.312395,0.122426 -0.118204,0.118203 -0.118204,0.312395 v 1.182037 h -0.46015 V 66.56033 h 0.46015 v 0.299731 q 0.185749,-0.341946 0.582575,-0.341946 0.32506,0 0.498144,0.194191 0.177306,0.189971 0.177306,0.557246 v 1.232696 h -0.468593 z" />
    <path
       id="path1485"
       style="font-style:normal;font-variant:normal;font-weight:500;font-stretch:normal;font-size:4.22155952px;line-height:1;font-family:'Renner*';-inkscape-font-specification:'Renner* Medium';text-align:center;text-anchor:middle;fill:#333333"
       d="m 38.698919,67.320211 q -0.02533,-0.2153 -0.147755,-0.333503 -0.122425,-0.122425 -0.333503,-0.122425 -0.211078,0 -0.358833,0.122425 -0.143533,0.122425 -0.173084,0.333503 z m -1.021618,0.316617 q 0.02533,0.261737 0.168863,0.396827 0.143533,0.135089 0.375719,0.135089 0.371497,0 0.557245,-0.308173 l 0.396827,0.160419 q -0.160419,0.257515 -0.384162,0.392605 -0.219521,0.130868 -0.591018,0.130868 -0.443264,0 -0.717665,-0.282844 -0.274402,-0.287066 -0.274402,-0.73033 0,-0.118204 0.01689,-0.206856 0.06332,-0.367276 0.325061,-0.586797 0.261736,-0.219521 0.671228,-0.219521 0.447485,0 0.709222,0.265958 0.261736,0.265958 0.261736,0.726108 0,0.03377 -0.0084,0.126647 z" />
  </g>
  <g
     id="flowRoot1200"
     style="font-style:normal;font-variant:normal;font-weight:500;font-stretch:normal;font-size:4.22155952px;line-height:1;font-family:'Renner*';-inkscape-font-specification:'Renner* Medium';text-align:start;letter-spacing:0px;word-spacing:0px;text-anchor:start;fill:#333333;fill-opacity:1;stroke:none;stroke-width:1px;stroke-linecap:butt;stroke-linejoin:miter;stroke-opacity:1"
     transform="matrix(5.9219821,0,0,5.9219821,104.37002,-287.3461)"
     aria-label="Thin">
    <path
       id="path1488"
       style="font-style:normal;font-variant:normal;font-weight:500;font-stretch:normal;font-size:4.22155952px;line-height:1;font-family:'Renner*';-inkscape-font-specification:'Renner* Medium';text-align:center;text-anchor:middle;fill:#333333"
       d="m 28.142461,66.007306 v -0.46015 h 2.060121 v 0.46015 h -0.780989 v 2.494942 h -0.502365 v -2.494942 z" />
    <path
       id="path1490"
       style="font-style:normal;font-variant:normal;font-weight:500;font-stretch:normal;font-size:4.22155952px;line-height:1;font-family:'Renner*';-inkscape-font-specification:'Renner* Medium';text-align:center;text-anchor:middle;fill:#333333"
       d="m 31.776828,67.320211 q 0,-0.434821 -0.358833,-0.434821 -0.194191,0 -0.312395,0.122426 -0.118204,0.118203 -0.118204,0.312395 v 1.182037 h -0.46015 v -3.292817 h 0.46015 v 1.642187 q 0.185749,-0.346168 0.582575,-0.346168 0.32506,0 0.493923,0.194192 0.173084,0.18997 0.173084,0.557246 v 1.24536 h -0.46015 z" />
    <path
       id="path1492"
       style="font-style:normal;font-variant:normal;font-weight:500;font-stretch:normal;font-size:4.22155952px;line-height:1;font-family:'Renner*';-inkscape-font-specification:'Renner* Medium';text-align:center;text-anchor:middle;fill:#333333"
       d="m 32.882744,65.986198 q -0.08021,-0.08021 -0.08021,-0.198413 0,-0.118204 0.08021,-0.198413 0.08443,-0.08021 0.206857,-0.08021 0.122425,0 0.206856,0.08021 0.08443,0.08021 0.08443,0.198413 0,0.118204 -0.08443,0.198413 -0.08443,0.08021 -0.206856,0.08021 -0.122425,0 -0.206857,-0.08021 z m -0.01689,0.574132 h 0.447485 v 1.941918 h -0.447485 z" />
    <path
       id="path1494"
       style="font-style:normal;font-variant:normal;font-weight:500;font-stretch:normal;font-size:4.22155952px;line-height:1;font-family:'Renner*';-inkscape-font-specification:'Renner* Medium';text-align:center;text-anchor:middle;fill:#333333"
       d="m 35.190354,67.320211 q 0,-0.434821 -0.358832,-0.434821 -0.194192,0 -0.312396,0.122426 -0.118203,0.118203 -0.118203,0.312395 v 1.182037 h -0.46015 V 66.56033 h 0.46015 v 0.299731 q 0.185748,-0.341946 0.582575,-0.341946 0.32506,0 0.498144,0.194191 0.177305,0.189971 0.177305,0.557246 v 1.232696 h -0.468593 z" />
  </g>
  <g
     id="flowRoot1208"
     style="font-style:normal;font-variant:normal;font-weight:500;font-stretch:normal;font-size:4.22155952px;line-height:1;font-family:'Renner*';-inkscape-font-specification:'Renner* Medium';text-align:start;letter-spacing:0px;word-spacing:0px;text-anchor:start;fill:#333333;fill-opacity:1;stroke:none;stroke-width:1px;stroke-linecap:butt;stroke-linejoin:miter;stroke-opacity:1"
     transform="matrix(5.9219821,0,0,5.9219821,235.62002,-287.3461)"
     aria-label="Light">
    <path
       id="path1497"
       style="font-style:normal;font-variant:normal;font-weight:500;font-stretch:normal;font-size:4.22155952px;line-height:1;font-family:'Renner*';-inkscape-font-specification:'Renner* Medium';text-align:center;text-anchor:middle;fill:#333333"
       d="m 28.29462,65.547156 h 0.498144 v 2.507606 h 1.173593 v 0.447486 H 28.29462 Z" />
    <path
       id="path1499"
       style="font-style:normal;font-variant:normal;font-weight:500;font-stretch:normal;font-size:4.22155952px;line-height:1;font-family:'Renner*';-inkscape-font-specification:'Renner* Medium';text-align:center;text-anchor:middle;fill:#333333"
       d="m 30.348276,65.986198 q -0.08021,-0.08021 -0.08021,-0.198413 0,-0.118204 0.08021,-0.198413 0.08443,-0.08021 0.206857,-0.08021 0.122425,0 0.206856,0.08021 0.08443,0.08021 0.08443,0.198413 0,0.118204 -0.08443,0.198413 -0.08443,0.08021 -0.206856,0.08021 -0.122425,0 -0.206857,-0.08021 z m -0.01689,0.574132 h 0.447486 v 1.941918 H 30.33139 Z" />
    <path
       id="path1501"
       style="font-style:normal;font-variant:normal;font-weight:500;font-stretch:normal;font-size:4.22155952px;line-height:1;font-family:'Renner*';-inkscape-font-specification:'Renner* Medium';text-align:center;text-anchor:middle;fill:#333333"
       d="m 31.532952,68.257397 q -0.274402,-0.27018 -0.274402,-0.734551 0,-0.464372 0.274402,-0.734552 0.274401,-0.270179 0.671228,-0.270179 0.43482,0 0.662784,0.358832 V 66.56033 h 0.447486 v 1.899702 q 0,0.498144 -0.291288,0.764102 -0.287066,0.265959 -0.713443,0.265959 -0.464372,0 -0.734552,-0.236408 -0.265958,-0.232186 -0.278623,-0.620569 h 0.451707 q 0.0084,0.198413 0.156198,0.329282 0.151976,0.130868 0.392605,0.130868 0.236407,0 0.401048,-0.164641 0.168862,-0.160419 0.168862,-0.468593 v -0.291288 q -0.227964,0.354611 -0.662784,0.354611 -0.396827,0 -0.671228,-0.265958 z m 0.363054,-1.177815 q -0.164641,0.160419 -0.164641,0.443264 0,0.282844 0.164641,0.443264 0.168862,0.160419 0.417934,0.160419 0.2153,0 0.384162,-0.160419 0.168862,-0.164641 0.168862,-0.443264 0,-0.278623 -0.168862,-0.443264 -0.168862,-0.164641 -0.384162,-0.164641 -0.249072,0 -0.417934,0.164641 z" />
    <path
       id="path1503"
       style="font-style:normal;font-variant:normal;font-weight:500;font-stretch:normal;font-size:4.22155952px;line-height:1;font-family:'Renner*';-inkscape-font-specification:'Renner* Medium';text-align:center;text-anchor:middle;fill:#333333"
       d="m 35.129456,67.320211 q 0,-0.434821 -0.358832,-0.434821 -0.194192,0 -0.312396,0.122426 -0.118203,0.118203 -0.118203,0.312395 v 1.182037 h -0.46015 v -3.292817 h 0.46015 v 1.642187 q 0.185748,-0.346168 0.582575,-0.346168 0.32506,0 0.493922,0.194192 0.173084,0.18997 0.173084,0.557246 v 1.24536 h -0.46015 z" />
    <path
       id="path1505"
       style="font-style:normal;font-variant:normal;font-weight:500;font-stretch:normal;font-size:4.22155952px;line-height:1;font-family:'Renner*';-inkscape-font-specification:'Renner* Medium';text-align:center;text-anchor:middle;fill:#333333"
       d="m 36.22693,65.884881 h 0.451707 v 0.675449 h 0.32506 v 0.401048 h -0.32506 v 1.54087 H 36.22693 v -1.54087 H 35.90187 V 66.56033 h 0.32506 z" />
  </g>
  <g
     id="flowRoot1216"
     style="font-style:normal;font-variant:normal;font-weight:500;font-stretch:normal;font-size:4.22155952px;line-height:1;font-family:'Renner*';-inkscape-font-specification:'Renner* Medium';text-align:start;letter-spacing:0px;word-spacing:0px;text-anchor:start;fill:#333333;fill-opacity:1;stroke:none;stroke-width:1px;stroke-linecap:butt;stroke-linejoin:miter;stroke-opacity:1"
     transform="matrix(5.9219821,0,0,5.9219821,366.87002,-287.3461)"
     aria-label="Book">
    <path
       id="path1508"
       style="font-style:normal;font-variant:normal;font-weight:500;font-stretch:normal;font-size:4.22155952px;line-height:1;font-family:'Renner*';-inkscape-font-specification:'Renner* Medium';text-align:center;text-anchor:middle;fill:#333333"
       d="m 29.530852,67.121798 v 0.966737 h 0.413713 q 0.261736,0 0.422156,-0.122425 0.160419,-0.126647 0.160419,-0.367276 0,-0.232186 -0.160419,-0.354611 -0.16042,-0.122425 -0.422156,-0.122425 z m 0,-1.160929 v 0.772545 h 0.358832 q 0.211078,0 0.337725,-0.101317 0.130868,-0.105539 0.130868,-0.287066 0,-0.181527 -0.130868,-0.282845 -0.126647,-0.101317 -0.337725,-0.101317 z m -0.498144,-0.413713 h 0.890749 q 0.43482,0 0.688114,0.18997 0.257515,0.185749 0.257515,0.553024 0,0.439043 -0.46015,0.612127 0.287066,0.07599 0.455929,0.265958 0.173084,0.185748 0.173084,0.481258 0,0.426377 -0.287066,0.641677 -0.287067,0.211078 -0.776767,0.211078 h -0.941408 z" />
    <path
       id="path1510"
       style="font-style:normal;font-variant:normal;font-weight:500;font-stretch:normal;font-size:4.22155952px;line-height:1;font-family:'Renner*';-inkscape-font-specification:'Renner* Medium';text-align:center;text-anchor:middle;fill:#333333"
       d="m 31.673755,68.261619 q -0.295509,-0.282845 -0.295509,-0.73033 0,-0.447485 0.295509,-0.73033 0.299731,-0.282844 0.751438,-0.282844 0.451707,0 0.747216,0.282844 0.29973,0.282845 0.29973,0.73033 0,0.447485 -0.29973,0.73033 -0.295509,0.282844 -0.747216,0.282844 -0.451707,0 -0.751438,-0.282844 z m 0.337725,-1.169372 q -0.164641,0.168862 -0.164641,0.439042 0,0.27018 0.164641,0.443264 0.164641,0.168862 0.413713,0.168862 0.249072,0 0.413712,-0.168862 0.164641,-0.173084 0.164641,-0.443264 0,-0.27018 -0.164641,-0.439042 -0.16464,-0.173084 -0.413712,-0.173084 -0.249072,0 -0.413713,0.173084 z" />
    <path
       id="path1512"
       style="font-style:normal;font-variant:normal;font-weight:500;font-stretch:normal;font-size:4.22155952px;line-height:1;font-family:'Renner*';-inkscape-font-specification:'Renner* Medium';text-align:center;text-anchor:middle;fill:#333333"
       d="m 34.048382,68.261619 q -0.295509,-0.282845 -0.295509,-0.73033 0,-0.447485 0.295509,-0.73033 0.299731,-0.282844 0.751438,-0.282844 0.451707,0 0.747216,0.282844 0.299731,0.282845 0.299731,0.73033 0,0.447485 -0.299731,0.73033 -0.295509,0.282844 -0.747216,0.282844 -0.451707,0 -0.751438,-0.282844 z m 0.337725,-1.169372 q -0.164641,0.168862 -0.164641,0.439042 0,0.27018 0.164641,0.443264 0.164641,0.168862 0.413713,0.168862 0.249072,0 0.413713,-0.168862 0.16464,-0.173084 0.16464,-0.443264 0,-0.27018 -0.16464,-0.439042 -0.164641,-0.173084 -0.413713,-0.173084 -0.249072,0 -0.413713,0.173084 z" />
    <path
       id="path1514"
       style="font-style:normal;font-variant:normal;font-weight:500;font-stretch:normal;font-size:4.22155952px;line-height:1;font-family:'Renner*';-inkscape-font-specification:'Renner* Medium';text-align:center;text-anchor:middle;fill:#333333"
       d="m 37.419297,66.56033 h 0.557246 l -0.835869,0.802097 0.9203,1.139821 H 37.50795 l -0.802096,-0.987845 v 0.987845 h -0.447486 v -3.292817 h 0.447486 v 2.034792 z" />
  </g>
  <g
     id="flowRoot1224"
     style="font-style:normal;font-variant:normal;font-weight:500;font-stretch:normal;font-size:4.22155952px;line-height:1;font-family:'Renner*';-inkscape-font-specification:'Renner* Medium';text-align:start;letter-spacing:0px;word-spacing:0px;text-anchor:start;fill:#333333;fill-opacity:1;stroke:none;stroke-width:1px;stroke-linecap:butt;stroke-linejoin:miter;stroke-opacity:1"
     transform="matrix(5.9219821,0,0,5.9219821,516.87002,-287.3461)"
     aria-label="Medium">
    <path
       id="path1517"
       style="font-style:normal;font-variant:normal;font-weight:500;font-stretch:normal;font-size:4.22155952px;line-height:1;font-family:'Renner*';-inkscape-font-specification:'Renner* Medium';text-align:center;text-anchor:middle;fill:#333333"
       d="m 25.490922,66.703863 -0.202635,1.798385 h -0.51503 l 0.40527,-3.102847 1.211588,2.005241 1.215809,-2.005241 0.405269,3.102847 h -0.519251 l -0.202635,-1.794163 -0.899192,1.519761 z" />
    <path
       id="path1519"
       style="font-style:normal;font-variant:normal;font-weight:500;font-stretch:normal;font-size:4.22155952px;line-height:1;font-family:'Renner*';-inkscape-font-specification:'Renner* Medium';text-align:center;text-anchor:middle;fill:#333333"
       d="m 29.800277,67.320211 q -0.02533,-0.2153 -0.147754,-0.333503 -0.122426,-0.122425 -0.333504,-0.122425 -0.211078,0 -0.358832,0.122425 -0.143533,0.122425 -0.173084,0.333503 z m -1.021617,0.316617 q 0.02533,0.261737 0.168862,0.396827 0.143533,0.135089 0.375719,0.135089 0.371497,0 0.557246,-0.308173 l 0.396826,0.160419 q -0.160419,0.257515 -0.384162,0.392605 -0.219521,0.130868 -0.591018,0.130868 -0.443264,0 -0.717665,-0.282844 -0.274401,-0.287066 -0.274401,-0.73033 0,-0.118204 0.01689,-0.206856 0.06332,-0.367276 0.32506,-0.586797 0.261737,-0.219521 0.671228,-0.219521 0.447485,0 0.709222,0.265958 0.261737,0.265958 0.261737,0.726108 0,0.03377 -0.0084,0.126647 z" />
    <path
       id="path1521"
       style="font-style:normal;font-variant:normal;font-weight:500;font-stretch:normal;font-size:4.22155952px;line-height:1;font-family:'Renner*';-inkscape-font-specification:'Renner* Medium';text-align:center;text-anchor:middle;fill:#333333"
       d="m 30.851907,68.270062 q -0.274401,-0.274402 -0.274401,-0.738773 0,-0.464372 0.274401,-0.738773 0.274401,-0.274401 0.671228,-0.274401 0.430599,0 0.662785,0.363054 v -1.671738 h 0.46015 v 3.292817 h -0.46015 v -0.320839 q -0.232186,0.363054 -0.662785,0.363054 -0.396827,0 -0.671228,-0.274401 z m 0.367276,-1.186258 q -0.168863,0.16464 -0.168863,0.447485 0,0.282844 0.168863,0.451707 0.168862,0.164641 0.413712,0.164641 0.2153,0 0.384162,-0.168863 0.168863,-0.168862 0.168863,-0.447485 0,-0.278623 -0.168863,-0.447485 -0.168862,-0.168863 -0.384162,-0.168863 -0.24485,0 -0.413712,0.168863 z" />
    <path
       id="path1523"
       style="font-style:normal;font-variant:normal;font-weight:500;font-stretch:normal;font-size:4.22155952px;line-height:1;font-family:'Renner*';-inkscape-font-specification:'Renner* Medium';text-align:center;text-anchor:middle;fill:#333333"
       d="m 33.270399,65.986198 q -0.08021,-0.08021 -0.08021,-0.198413 0,-0.118204 0.08021,-0.198413 0.08443,-0.08021 0.206856,-0.08021 0.122426,0 0.206857,0.08021 0.08443,0.08021 0.08443,0.198413 0,0.118204 -0.08443,0.198413 -0.08443,0.08021 -0.206857,0.08021 -0.122425,0 -0.206856,-0.08021 z m -0.01689,0.574132 h 0.447485 v 1.941918 h -0.447485 z" />
    <path
       id="path1525"
       style="font-style:normal;font-variant:normal;font-weight:500;font-stretch:normal;font-size:4.22155952px;line-height:1;font-family:'Renner*';-inkscape-font-specification:'Renner* Medium';text-align:center;text-anchor:middle;fill:#333333"
       d="m 34.797021,67.742367 q 0,0.434821 0.363054,0.434821 0.194192,0 0.312395,-0.118204 0.118204,-0.122425 0.118204,-0.316617 V 66.56033 h 0.455928 v 1.941918 h -0.455928 v -0.303953 q -0.194192,0.346168 -0.586797,0.346168 -0.32506,0 -0.502365,-0.18997 -0.173084,-0.194192 -0.173084,-0.561467 V 66.56033 h 0.468593 z" />
    <path
       id="path1527"
       style="font-style:normal;font-variant:normal;font-weight:500;font-stretch:normal;font-size:4.22155952px;line-height:1;font-family:'Renner*';-inkscape-font-specification:'Renner* Medium';text-align:center;text-anchor:middle;fill:#333333"
       d="m 39.410855,67.269552 v 1.232696 h -0.46015 v -1.182037 q 0,-0.219521 -0.07599,-0.32506 -0.07599,-0.109761 -0.249072,-0.109761 -0.181527,0 -0.282844,0.118204 -0.101318,0.118204 -0.101318,0.316617 v 1.182037 h -0.46015 v -1.182037 q 0,-0.219521 -0.07599,-0.32506 -0.07177,-0.109761 -0.24485,-0.109761 -0.181527,0 -0.282845,0.118204 -0.101317,0.118204 -0.101317,0.316617 v 1.182037 H 36.628847 V 66.56033 h 0.447486 v 0.282845 q 0.173084,-0.32506 0.544581,-0.32506 0.426377,0 0.557246,0.341946 0.211078,-0.341946 0.612126,-0.341946 0.620569,0 0.620569,0.751437 z" />
  </g>
  <g
     id="flowRoot1232"
     style="font-style:normal;font-variant:normal;font-weight:500;font-stretch:normal;font-size:4.22155952px;line-height:1;font-family:'Renner*';-inkscape-font-specification:'Renner* Medium';text-align:start;letter-spacing:0px;word-spacing:0px;text-anchor:start;fill:#333333;fill-opacity:1;stroke:none;stroke-width:1px;stroke-linecap:butt;stroke-linejoin:miter;stroke-opacity:1"
     transform="matrix(5.9219821,0,0,5.9219821,666.87002,-287.3461)"
     aria-label="Semi">
    <path
       id="path1530"
       style="font-style:normal;font-variant:normal;font-weight:500;font-stretch:normal;font-size:4.22155952px;line-height:1;font-family:'Renner*';-inkscape-font-specification:'Renner* Medium';text-align:center;text-anchor:middle;fill:#333333"
       d="m 27.167275,67.50596 q 0.147754,0.303952 0.32506,0.455928 0.177305,0.151976 0.426377,0.151976 0.219521,0 0.333504,-0.101317 0.113982,-0.105539 0.113982,-0.299731 0,-0.0971 -0.04222,-0.177306 -0.03799,-0.08021 -0.08865,-0.130868 -0.05066,-0.05066 -0.156197,-0.105539 -0.101318,-0.0591 -0.173084,-0.08443 -0.06754,-0.02955 -0.198414,-0.08021 -0.764102,-0.282844 -0.764102,-0.865419 0,-0.346168 0.261737,-0.557246 0.261737,-0.2153 0.667006,-0.2153 0.371497,0 0.624791,0.18997 0.253294,0.189971 0.354611,0.447486 l -0.388383,0.240629 q -0.109761,-0.202635 -0.244851,-0.316617 -0.130868,-0.113982 -0.329282,-0.113982 -0.198413,0 -0.312395,0.09709 -0.113982,0.09288 -0.113982,0.253294 0,0.08865 0.05066,0.164641 0.05066,0.07177 0.16464,0.139311 0.113983,0.06332 0.202635,0.101318 0.08865,0.03799 0.261737,0.101317 0.747216,0.27018 0.747216,0.890749 0,0.409491 -0.261737,0.641677 -0.257515,0.232186 -0.726108,0.232186 -0.375719,0 -0.675449,-0.219521 -0.299731,-0.223743 -0.439043,-0.591018 z" />
    <path
       id="path1532"
       style="font-style:normal;font-variant:normal;font-weight:500;font-stretch:normal;font-size:4.22155952px;line-height:1;font-family:'Renner*';-inkscape-font-specification:'Renner* Medium';text-align:center;text-anchor:middle;fill:#333333"
       d="m 30.701248,67.320211 q -0.02533,-0.2153 -0.147755,-0.333503 -0.122425,-0.122425 -0.333503,-0.122425 -0.211078,0 -0.358832,0.122425 -0.143533,0.122425 -0.173084,0.333503 z m -1.021618,0.316617 q 0.02533,0.261737 0.168863,0.396827 0.143533,0.135089 0.375719,0.135089 0.371497,0 0.557246,-0.308173 l 0.396826,0.160419 q -0.160419,0.257515 -0.384162,0.392605 -0.219521,0.130868 -0.591018,0.130868 -0.443264,0 -0.717665,-0.282844 -0.274402,-0.287066 -0.274402,-0.73033 0,-0.118204 0.01689,-0.206856 0.06332,-0.367276 0.32506,-0.586797 0.261736,-0.219521 0.671228,-0.219521 0.447485,0 0.709222,0.265958 0.261736,0.265958 0.261736,0.726108 0,0.03377 -0.0084,0.126647 z" />
    <path
       id="path1534"
       style="font-style:normal;font-variant:normal;font-weight:500;font-stretch:normal;font-size:4.22155952px;line-height:1;font-family:'Renner*';-inkscape-font-specification:'Renner* Medium';text-align:center;text-anchor:middle;fill:#333333"
       d="m 34.408239,67.269552 v 1.232696 h -0.46015 v -1.182037 q 0,-0.219521 -0.07599,-0.32506 -0.07599,-0.109761 -0.249072,-0.109761 -0.181527,0 -0.282845,0.118204 -0.101317,0.118204 -0.101317,0.316617 v 1.182037 h -0.46015 v -1.182037 q 0,-0.219521 -0.07599,-0.32506 -0.07177,-0.109761 -0.244851,-0.109761 -0.181527,0 -0.282844,0.118204 -0.101318,0.118204 -0.101318,0.316617 v 1.182037 H 31.626231 V 66.56033 h 0.447485 v 0.282845 q 0.173084,-0.32506 0.544582,-0.32506 0.426377,0 0.557245,0.341946 0.211078,-0.341946 0.612127,-0.341946 0.620569,0 0.620569,0.751437 z" />
    <path
       id="path1536"
       style="font-style:normal;font-variant:normal;font-weight:500;font-stretch:normal;font-size:4.22155952px;line-height:1;font-family:'Renner*';-inkscape-font-specification:'Renner* Medium';text-align:center;text-anchor:middle;fill:#333333"
       d="m 35.05361,65.986198 q -0.08021,-0.08021 -0.08021,-0.198413 0,-0.118204 0.08021,-0.198413 0.08443,-0.08021 0.206856,-0.08021 0.122425,0 0.206856,0.08021 0.08443,0.08021 0.08443,0.198413 0,0.118204 -0.08443,0.198413 -0.08443,0.08021 -0.206856,0.08021 -0.122425,0 -0.206856,-0.08021 z m -0.01689,0.574132 h 0.447486 v 1.941918 h -0.447486 z" />
  </g>
  <g
     id="flowRoot1240"
     style="font-style:normal;font-variant:normal;font-weight:500;font-stretch:normal;font-size:4.22155952px;line-height:1;font-family:'Renner*';-inkscape-font-specification:'Renner* Medium';text-align:start;letter-spacing:0px;word-spacing:0px;text-anchor:start;fill:#333333;fill-opacity:1;stroke:none;stroke-width:1px;stroke-linecap:butt;stroke-linejoin:miter;stroke-opacity:1"
     transform="matrix(5.9219821,0,0,5.9219821,816.87002,-287.3461)"
     aria-label="Bold">
    <path
       id="path1539"
       style="font-style:normal;font-variant:normal;font-weight:500;font-stretch:normal;font-size:4.22155952px;line-height:1;font-family:'Renner*';-inkscape-font-specification:'Renner* Medium';text-align:center;text-anchor:middle;fill:#333333"
       d="m 28.134619,67.121798 v 0.966737 h 0.413713 q 0.261737,0 0.422156,-0.122425 0.160419,-0.126647 0.160419,-0.367276 0,-0.232186 -0.160419,-0.354611 -0.160419,-0.122425 -0.422156,-0.122425 z m 0,-1.160929 v 0.772545 h 0.358833 q 0.211078,0 0.337725,-0.101317 0.130868,-0.105539 0.130868,-0.287066 0,-0.181527 -0.130868,-0.282845 -0.126647,-0.101317 -0.337725,-0.101317 z m -0.498144,-0.413713 h 0.890749 q 0.434821,0 0.688114,0.18997 0.257516,0.185749 0.257516,0.553024 0,0.439043 -0.46015,0.612127 0.287066,0.07599 0.455928,0.265958 0.173084,0.185748 0.173084,0.481258 0,0.426377 -0.287066,0.641677 -0.287066,0.211078 -0.776767,0.211078 h -0.941408 z" />
    <path
       id="path1541"
       style="font-style:normal;font-variant:normal;font-weight:500;font-stretch:normal;font-size:4.22155952px;line-height:1;font-family:'Renner*';-inkscape-font-specification:'Renner* Medium';text-align:center;text-anchor:middle;fill:#333333"
       d="m 30.277522,68.261619 q -0.295509,-0.282845 -0.295509,-0.73033 0,-0.447485 0.295509,-0.73033 0.299731,-0.282844 0.751438,-0.282844 0.451707,0 0.747216,0.282844 0.299731,0.282845 0.299731,0.73033 0,0.447485 -0.299731,0.73033 -0.295509,0.282844 -0.747216,0.282844 -0.451707,0 -0.751438,-0.282844 z m 0.337725,-1.169372 q -0.164641,0.168862 -0.164641,0.439042 0,0.27018 0.164641,0.443264 0.164641,0.168862 0.413713,0.168862 0.249072,0 0.413713,-0.168862 0.164641,-0.173084 0.164641,-0.443264 0,-0.27018 -0.164641,-0.439042 -0.164641,-0.173084 -0.413713,-0.173084 -0.249072,0 -0.413713,0.173084 z" />
    <path
       id="path1543"
       style="font-style:normal;font-variant:normal;font-weight:500;font-stretch:normal;font-size:4.22155952px;line-height:1;font-family:'Renner*';-inkscape-font-specification:'Renner* Medium';text-align:center;text-anchor:middle;fill:#333333"
       d="m 32.504395,65.209431 h 0.46015 v 3.292817 h -0.46015 z" />
    <path
       id="path1545"
       style="font-style:normal;font-variant:normal;font-weight:500;font-stretch:normal;font-size:4.22155952px;line-height:1;font-family:'Renner*';-inkscape-font-specification:'Renner* Medium';text-align:center;text-anchor:middle;fill:#333333"
       d="M 33.669941,68.270062 Q 33.39554,67.99566 33.39554,67.531289 q 0,-0.464372 0.274401,-0.738773 0.274402,-0.274401 0.671228,-0.274401 0.430599,0 0.662785,0.363054 v -1.671738 h 0.46015 v 3.292817 h -0.46015 v -0.320839 q -0.232186,0.363054 -0.662785,0.363054 -0.396826,0 -0.671228,-0.274401 z m 0.367276,-1.186258 q -0.168863,0.16464 -0.168863,0.447485 0,0.282844 0.168863,0.451707 0.168862,0.164641 0.413713,0.164641 0.215299,0 0.384162,-0.168863 0.168862,-0.168862 0.168862,-0.447485 0,-0.278623 -0.168862,-0.447485 -0.168863,-0.168863 -0.384162,-0.168863 -0.244851,0 -0.413713,0.168863 z" />
  </g>
  <g
     id="flowRoot1248"
     style="font-style:normal;font-variant:normal;font-weight:500;font-stretch:normal;font-size:4.22155952px;line-height:1;font-family:'Renner*';-inkscape-font-specification:'Renner* Medium';text-align:start;letter-spacing:0px;word-spacing:0px;text-anchor:start;fill:#333333;fill-opacity:1;stroke:none;stroke-width:1px;stroke-linecap:butt;stroke-linejoin:miter;stroke-opacity:1"
     transform="matrix(5.9219821,0,0,5.9219821,948.12002,-287.3461)"
     aria-label="Heavy">
    <path
       id="path1548"
       style="font-style:normal;font-variant:normal;font-weight:500;font-stretch:normal;font-size:4.22155952px;line-height:1;font-family:'Renner*';-inkscape-font-specification:'Renner* Medium';text-align:center;text-anchor:middle;fill:#333333"
       d="m 30.268889,65.547156 h 0.498144 v 1.139821 h 1.485989 v -1.139821 h 0.498144 v 2.955092 h -0.498144 v -1.355121 h -1.485989 v 1.355121 h -0.498144 z" />
    <path
       id="path1550"
       style="font-style:normal;font-variant:normal;font-weight:500;font-stretch:normal;font-size:4.22155952px;line-height:1;font-family:'Renner*';-inkscape-font-specification:'Renner* Medium';text-align:center;text-anchor:middle;fill:#333333"
       d="m 34.70654,67.320211 q -0.02533,-0.2153 -0.147755,-0.333503 -0.122425,-0.122425 -0.333503,-0.122425 -0.211078,0 -0.358833,0.122425 -0.143533,0.122425 -0.173084,0.333503 z m -1.021618,0.316617 q 0.02533,0.261737 0.168863,0.396827 0.143533,0.135089 0.375718,0.135089 0.371498,0 0.557246,-0.308173 l 0.396827,0.160419 q -0.160419,0.257515 -0.384162,0.392605 -0.219521,0.130868 -0.591018,0.130868 -0.443264,0 -0.717666,-0.282844 -0.274401,-0.287066 -0.274401,-0.73033 0,-0.118204 0.01689,-0.206856 0.06332,-0.367276 0.32506,-0.586797 0.261737,-0.219521 0.671228,-0.219521 0.447486,0 0.709222,0.265958 0.261737,0.265958 0.261737,0.726108 0,0.03377 -0.0084,0.126647 z" />
    <path
       id="path1552"
       style="font-style:normal;font-variant:normal;font-weight:500;font-stretch:normal;font-size:4.22155952px;line-height:1;font-family:'Renner*';-inkscape-font-specification:'Renner* Medium';text-align:center;text-anchor:middle;fill:#333333"
       d="m 35.918589,67.928116 q 0,0.270179 0.358833,0.270179 0.519252,0 0.519252,-0.464371 v -0.03799 q -0.189971,-0.0971 -0.439043,-0.0971 -0.215299,0 -0.329281,0.08865 -0.109761,0.08443 -0.109761,0.240629 z m -0.0971,-0.852755 -0.185748,-0.329282 q 0.388383,-0.232186 0.797874,-0.232186 0.363055,0 0.586797,0.160419 0.223743,0.16042 0.223743,0.443264 v 1.384672 h -0.447485 v -0.278623 q -0.08443,0.151976 -0.261737,0.236407 -0.173084,0.08443 -0.396827,0.08443 -0.312395,0 -0.498144,-0.151976 -0.181527,-0.156198 -0.181527,-0.422156 0,-0.316617 0.227964,-0.489701 0.232186,-0.173084 0.603683,-0.173084 0.278623,0 0.506588,0.130869 v -0.27018 q 0,-0.130869 -0.109761,-0.206857 -0.109761,-0.07599 -0.274401,-0.07599 -0.312396,0 -0.591019,0.189971 z" />
    <path
       id="path1554"
       style="font-style:normal;font-variant:normal;font-weight:500;font-stretch:normal;font-size:4.22155952px;line-height:1;font-family:'Renner*';-inkscape-font-specification:'Renner* Medium';text-align:center;text-anchor:middle;fill:#333333"
       d="m 37.455039,66.56033 h 0.502365 l 0.506587,1.253803 0.506588,-1.253803 h 0.498144 l -1.004732,2.119223 z" />
    <path
       id="path1556"
       style="font-style:normal;font-variant:normal;font-weight:500;font-stretch:normal;font-size:4.22155952px;line-height:1;font-family:'Renner*';-inkscape-font-specification:'Renner* Medium';text-align:center;text-anchor:middle;fill:#333333"
       d="m 41.595993,66.56033 -1.266468,2.870661 h -0.485479 l 0.510808,-1.156708 -0.78521,-1.713953 h 0.523474 l 0.510808,1.262247 0.502366,-1.262247 z" />
  </g>
  <g
     id="flowRoot1256"
     style="font-style:normal;font-variant:normal;font-weight:500;font-stretch:normal;font-size:4.22155952px;line-height:1;font-family:'Renner*';-inkscape-font-specification:'Renner* Medium';text-align:start;letter-spacing:0px;word-spacing:0px;text-anchor:start;fill:#333333;fill-opacity:1;stroke:none;stroke-width:1px;stroke-linecap:butt;stroke-linejoin:miter;stroke-opacity:1"
     transform="matrix(5.9219821,0,0,5.9219821,1116.87,-287.3461)"
     aria-label="Black">
    <path
       id="path1559"
       style="font-style:normal;font-variant:normal;font-weight:500;font-stretch:normal;font-size:4.22155952px;line-height:1;font-family:'Renner*';-inkscape-font-specification:'Renner* Medium';text-align:center;text-anchor:middle;fill:#333333"
       d="m 29.800529,67.121798 v 0.966737 h 0.413713 q 0.261737,0 0.422156,-0.122425 0.160419,-0.126647 0.160419,-0.367276 0,-0.232186 -0.160419,-0.354611 -0.160419,-0.122425 -0.422156,-0.122425 z m 0,-1.160929 v 0.772545 h 0.358833 q 0.211078,0 0.337724,-0.101317 0.130869,-0.105539 0.130869,-0.287066 0,-0.181527 -0.130869,-0.282845 -0.126646,-0.101317 -0.337724,-0.101317 z m -0.498144,-0.413713 h 0.890749 q 0.434821,0 0.688114,0.18997 0.257515,0.185749 0.257515,0.553024 0,0.439043 -0.46015,0.612127 0.287067,0.07599 0.455929,0.265958 0.173084,0.185748 0.173084,0.481258 0,0.426377 -0.287066,0.641677 -0.287066,0.211078 -0.776767,0.211078 h -0.941408 z" />
    <path
       id="path1561"
       style="font-style:normal;font-variant:normal;font-weight:500;font-stretch:normal;font-size:4.22155952px;line-height:1;font-family:'Renner*';-inkscape-font-specification:'Renner* Medium';text-align:center;text-anchor:middle;fill:#333333"
       d="m 31.795678,65.209431 h 0.46015 v 3.292817 h -0.46015 z" />
    <path
       id="path1563"
       style="font-style:normal;font-variant:normal;font-weight:500;font-stretch:normal;font-size:4.22155952px;line-height:1;font-family:'Renner*';-inkscape-font-specification:'Renner* Medium';text-align:center;text-anchor:middle;fill:#333333"
       d="m 33.121643,67.928116 q 0,0.270179 0.358833,0.270179 0.519252,0 0.519252,-0.464371 v -0.03799 q -0.189971,-0.0971 -0.439043,-0.0971 -0.215299,0 -0.329281,0.08865 -0.109761,0.08443 -0.109761,0.240629 z m -0.0971,-0.852755 -0.185748,-0.329282 q 0.388383,-0.232186 0.797875,-0.232186 0.363054,0 0.586796,0.160419 0.223743,0.16042 0.223743,0.443264 v 1.384672 h -0.447485 v -0.278623 q -0.08443,0.151976 -0.261737,0.236407 -0.173084,0.08443 -0.396827,0.08443 -0.312395,0 -0.498144,-0.151976 -0.181527,-0.156198 -0.181527,-0.422156 0,-0.316617 0.227964,-0.489701 0.232186,-0.173084 0.603683,-0.173084 0.278623,0 0.506588,0.130869 v -0.27018 q 0,-0.130869 -0.109761,-0.206857 -0.10976,-0.07599 -0.274401,-0.07599 -0.312396,0 -0.591019,0.189971 z" />
    <path
       id="path1565"
       style="font-style:normal;font-variant:normal;font-weight:500;font-stretch:normal;font-size:4.22155952px;line-height:1;font-family:'Renner*';-inkscape-font-specification:'Renner* Medium';text-align:center;text-anchor:middle;fill:#333333"
       d="m 35.28229,67.531289 q 0,0.274401 0.173084,0.447485 0.173084,0.173084 0.430599,0.173084 0.206857,0 0.379941,-0.09287 0.177305,-0.09287 0.253293,-0.236407 v 0.502365 q -0.211078,0.219521 -0.654342,0.219521 -0.451706,0 -0.751437,-0.282844 -0.299731,-0.282845 -0.299731,-0.73033 0,-0.447485 0.299731,-0.73033 0.299731,-0.282844 0.751437,-0.282844 0.426378,0 0.654342,0.219521 v 0.502365 q -0.07599,-0.139311 -0.257515,-0.232185 -0.177306,-0.0971 -0.375719,-0.0971 -0.257515,0 -0.430599,0.177305 -0.173084,0.177306 -0.173084,0.443264 z" />
    <path
       id="path1567"
       style="font-style:normal;font-variant:normal;font-weight:500;font-stretch:normal;font-size:4.22155952px;line-height:1;font-family:'Renner*';-inkscape-font-specification:'Renner* Medium';text-align:center;text-anchor:middle;fill:#333333"
       d="m 38.167198,66.56033 h 0.557246 l -0.835869,0.802097 0.9203,1.139821 h -0.553024 l -0.802096,-0.987845 v 0.987845 H 37.00627 v -3.292817 h 0.447485 v 2.034792 z" />
  </g>
</svg>
