<?xml version="1.0" encoding="UTF-8" standalone="no"?>
<svg
   xmlns:dc="http://purl.org/dc/elements/1.1/"
   xmlns:cc="http://creativecommons.org/ns#"
   xmlns:rdf="http://www.w3.org/1999/02/22-rdf-syntax-ns#"
   xmlns:svg="http://www.w3.org/2000/svg"
   xmlns="http://www.w3.org/2000/svg"
   xmlns:sodipodi="http://sodipodi.sourceforge.net/DTD/sodipodi-0.dtd"
   xmlns:inkscape="http://www.inkscape.org/namespaces/inkscape"
   viewBox="0 0 1500 600"
   height="640"
   width="1600"
   version="1.1"
   id="svg2"
   sodipodi:docname="new.svg"
   inkscape:version="0.92.3 (unknown)">
  <sodipodi:namedview
     pagecolor="#ffffff"
     bordercolor="#666666"
     borderopacity="1"
     objecttolerance="10"
     gridtolerance="10"
     guidetolerance="10"
     inkscape:pageopacity="0"
     inkscape:pageshadow="2"
     inkscape:window-width="1366"
     inkscape:window-height="716"
     id="namedview33"
     showgrid="false"
     inkscape:zoom="1.7889802"
     inkscape:cx="856.76968"
     inkscape:cy="81.223123"
     inkscape:window-x="0"
     inkscape:window-y="24"
     inkscape:window-maximized="1"
     inkscape:current-layer="flowRoot35" />
  <metadata
     id="metadata8">
    <rdf:RDF>
      <cc:Work
         rdf:about="">
        <dc:format>image/svg+xml</dc:format>
        <dc:type
           rdf:resource="http://purl.org/dc/dcmitype/StillImage" />
        <dc:title />
      </cc:Work>
    </rdf:RDF>
  </metadata>
  <defs
     id="defs6" />
  <path
     id="rect3354"
     d="M 0,0 H 1500 V 600 H 0 Z"
     style="fill:#f2f2f2" />
  <g
     id="flowRoot28"
     style="font-style:normal;font-variant:normal;font-weight:normal;font-stretch:normal;font-size:192px;line-height:125%;font-family:'Jost*';-inkscape-font-specification:'Jost*';text-align:center;letter-spacing:0px;word-spacing:0px;text-anchor:middle;fill:#000000;fill-opacity:1;stroke:none;stroke-width:1px;stroke-linecap:butt;stroke-linejoin:miter;stroke-opacity:1"
     transform="matrix(0.9375,0,0,0.9375,0,-99.375)" />
  <g
     id="flowRoot86"
     style="font-style:normal;font-variant:normal;font-weight:normal;font-stretch:normal;font-size:192px;line-height:125%;font-family:'Jost*';-inkscape-font-specification:'Jost*';text-align:center;letter-spacing:0px;word-spacing:0px;text-anchor:middle;fill:#000000;fill-opacity:1;stroke:none;stroke-width:1px;stroke-linecap:butt;stroke-linejoin:miter;stroke-opacity:1"
     transform="matrix(0.9375,0,0,0.9375,-22.5,48.75)"
     aria-label="Jost*">
    <path
       id="path126"
       style="fill:#333333"
       d="m 647.19166,262.81538 -8.448,12.672 q 2.112,2.88 8.64,6.144 6.336,3.456 14.016,3.456 13.632,0 21.504,-7.488 7.872,-7.488 7.872,-23.232 v -145.92 h -15.36 v 144 q 0,9.6 -4.416,13.44 -4.416,3.84 -8.64,3.84 -10.944,0 -15.168,-6.912 z"
       inkscape:connector-curvature="0" />
    <path
       id="path128"
       style="fill:#333333"
       d="m 712.90066,198.68738 q 0,13.44 5.952,23.808 6.144,10.368 16.512,16.32 10.368,5.952 23.232,5.952 12.864,0 23.232,-5.952 10.368,-5.952 16.32,-16.32 6.144,-10.368 6.144,-23.808 0,-13.44 -6.144,-23.808 -5.952,-10.368 -16.32,-16.32 -10.368,-5.952 -23.232,-5.952 -12.864,0 -23.232,5.952 -10.368,5.952 -16.512,16.32 -5.952,10.368 -5.952,23.808 z m 15.552,0 q 0,-9.216 3.84,-16.32 4.032,-7.104 10.752,-11.136 6.912,-4.224 15.552,-4.224 8.64,0 15.36,4.224 6.912,4.032 10.752,11.136 4.032,7.104 4.032,16.32 0,9.216 -4.032,16.32 -3.84,7.104 -10.752,11.328 -6.72,4.032 -15.36,4.032 -8.64,0 -15.552,-4.032 -6.72,-4.224 -10.752,-11.328 -3.84,-7.104 -3.84,-16.32 z"
       inkscape:connector-curvature="0" />
    <path
       id="path130"
       style="fill:#333333"
       d="m 828.07666,211.74338 -12.096,7.488 c 3.2,7.168 8,13.248 14.4,18.24 6.528,4.864 13.888,7.296 22.08,7.296 8.576,0 15.744,-2.112 21.504,-6.336 5.888,-4.224 8.832,-11.072 8.832,-20.544 0,-4.864 -1.152,-8.96 -3.456,-12.288 -2.304,-3.456 -5.376,-6.272 -9.216,-8.448 -3.712,-2.304 -7.616,-4.352 -11.712,-6.144 l -9.984,-3.84 c -3.328,-1.28 -6.144,-2.752 -8.448,-4.416 -2.304,-1.792 -3.456,-4.096 -3.456,-6.912 0,-3.456 1.73926,-6.21926 4.42726,-7.49926 2.688,-1.408 5.55674,-1.71674 9.39674,-1.71674 3.584,0 7.168,1.152 10.752,3.456 3.584,2.176 6.464,4.736 8.64,7.68 l 12.288,-7.872 c -2.688,-4.864 -6.912,-8.96 -12.672,-12.288 -5.76,-3.328 -12.16,-4.992 -19.2,-4.992 -4.736,0 -9.28,0.832 -13.632,2.496 -4.352,1.664 -7.936,4.288 -10.752,7.872 -2.816,3.456 -4.224,7.936 -4.224,13.44 0,5.632 1.28,10.048 3.84,13.248 2.56,3.072 5.76,5.568 9.6,7.488 3.84,1.792 7.808,3.52 11.904,5.184 3.328,1.408 6.528,2.88 9.6,4.416 3.072,1.408 5.568,3.136 7.488,5.184 1.92,2.048 2.88,4.608 2.88,7.68 0,3.712 -1.408,6.464 -4.224,8.256 -2.688,1.664 -6.08,2.496 -10.176,2.496 -4.224,0 -8.576,-1.728 -13.056,-5.184 -4.48,-3.584 -8.256,-8.064 -11.328,-13.44 z"
       inkscape:connector-curvature="0"
       sodipodi:nodetypes="cccscscccscscscccssscsccccsscscc" />
    <path
       id="path132"
       style="fill:#333333"
       d="m 903.79066,123.80738 v 30.72 h -14.4 v 14.4 h 14.4 v 73.92 h 15.36 v -73.92 h 14.4 v -14.4 h -14.4 v -30.72 z"
       inkscape:connector-curvature="0" />
    <path
       id="path134"
       style="font-style:normal;font-variant:normal;font-weight:normal;font-stretch:normal;font-size:192px;font-family:'Jost*';-inkscape-font-specification:'Jost*';text-align:center;text-anchor:middle;fill:#c83737"
       d="m 984.66766,108.44738 1.536,30.336 -28.416,-10.944 -4.032,12.864 29.184,7.872 -19.008,23.616 10.944,7.872 16.512,-25.344 16.51204,25.344 10.944,-7.872 -19.00804,-23.616 29.18404,-7.872 -4.032,-12.864 -28.41604,10.944 1.536,-30.336 z"
       inkscape:connector-curvature="0" />
  </g>
  <g
     aria-label="Version 3.3"
     transform="matrix(1.7957778,0,0,1.7957778,-193.12806,-319.29336)"
     style="font-style:italic;font-variant:normal;font-weight:500;font-stretch:normal;font-size:40px;line-height:125%;font-family:'Jost*';-inkscape-font-specification:'Jost* Medium Italic';letter-spacing:0px;word-spacing:0px;fill:#666666;fill-opacity:1;stroke:none;stroke-width:1px;stroke-linecap:butt;stroke-linejoin:miter;stroke-opacity:1"
     id="flowRoot35">
    <path
       d="m 440.97859,445.55592 -4.92,-19.6 h -5.24 l 8.72,29.6 18,-29.6 h -5.52 z"
       style=""
       id="path43" />
    <path
       d="m 457.49234,442.75592 q 0.6,-1.88 2.08,-3.08 1.48,-1.2 3.48,-1.2 2,0 2.88,1.28 0.88,1.24 0.8,3 z m -0.56,3 h 13.88 q 0.08,-0.32 0.12,-0.6 0.08,-0.32 0.12,-0.6 0.32,-2.64 -0.48,-4.76 -0.76,-2.16 -2.6,-3.4 -1.8,-1.24 -4.6,-1.24 -2.52,0 -4.6,1 -2.08,1 -3.56,2.72 -1.44,1.72 -2.12,3.92 -0.16,0.48 -0.28,0.96 -0.08,0.48 -0.16,1 -0.32,2.6 0.52,4.8 0.84,2.16 2.68,3.48 1.88,1.28 4.64,1.32 3.2,0 5.56,-1.36 2.4,-1.4 4.08,-3.56 l -3.6,-1.56 q -1,1.2 -2.4,2.08 -1.36,0.84 -3.16,0.8 -2.16,-0.04 -3.12,-1.48 -0.96,-1.44 -0.92,-3.52 z"
       style=""
       id="path45" />
    <path
       d="m 485.11172,440.19592 2.6,-3.6 q -0.64,-0.68 -1.44,-1.04 -0.76,-0.4 -1.76,-0.4 -1.24,0 -2.36,0.72 -1.12,0.68 -2.04,1.84 l 0.36,-2.16 h -4.24 l -3.2,18.4 h 4.24 l 1.88,-10.72 q 0.36,-1.56 1.24,-2.8 0.92,-1.24 2.52,-1.2 0.68,0 1.16,0.28 0.52,0.24 1.04,0.68 z"
       style=""
       id="path47" />
    <path
       d="m 489.48672,447.31592 -2.8,2.44 q 1.16,1.96 3.04,3.36 1.92,1.4 4.48,1.4 2.88,0 4.88,-1.44 2,-1.48 2.32,-4.24 0.24,-2.24 -1.04,-3.56 -1.28,-1.36 -3.12,-2.12 -0.8,-0.36 -1.76,-0.68 -0.96,-0.36 -1.6,-0.88 -0.64,-0.52 -0.52,-1.32 0.12,-0.84 0.96,-1.24 0.84,-0.4 1.8,-0.4 1.16,0 2.16,0.68 1.04,0.68 1.8,1.6 l 2.68,-2.48 q -1.04,-1.44 -2.76,-2.36 -1.68,-0.92 -3.8,-0.92 -1.68,0 -3.2,0.6 -1.48,0.56 -2.48,1.68 -1,1.08 -1.2,2.68 -0.2,1.56 0.4,2.64 0.6,1.08 1.68,1.8 1.08,0.72 2.32,1.24 0.84,0.36 1.64,0.76 0.84,0.4 1.32,1 0.52,0.56 0.4,1.4 -0.12,0.88 -0.96,1.4 -0.8,0.48 -1.84,0.48 -1.36,0 -2.6,-1.08 -1.24,-1.08 -2.2,-2.44 z"
       style=""
       id="path49" />
    <path
       d="m 508.05297,428.27592 q 0,1.12 0.8,1.88 0.8,0.72 1.92,0.72 1.16,0 1.92,-0.72 0.8,-0.76 0.8,-1.88 0,-1.16 -0.8,-1.88 -0.76,-0.76 -1.92,-0.76 -1.12,0 -1.92,0.76 -0.8,0.72 -0.8,1.88 z m -0.68,7.28 -3.08,18.4 h 4.24 l 3.12,-18.4 z"
       style=""
       id="path51" />
    <path
       d="m 514.60547,444.75592 q -0.36,2.64 0.6,4.84 0.96,2.16 2.96,3.48 2.04,1.28 4.76,1.28 2.8,0 5.16,-1.24 2.4,-1.28 3.96,-3.44 1.56,-2.2 1.92,-4.92 0.36,-2.64 -0.6,-4.8 -0.96,-2.2 -2.96,-3.48 -2,-1.32 -4.76,-1.32 -2.8,0 -5.2,1.28 -2.36,1.24 -3.92,3.44 -1.56,2.16 -1.92,4.88 z m 4.4,0 q 0.24,-1.6 1.12,-2.88 0.92,-1.32 2.24,-2.12 1.36,-0.8 2.92,-0.76 1.56,0 2.6,0.84 1.04,0.8 1.48,2.12 0.44,1.28 0.2,2.8 -0.24,1.56 -1.16,2.88 -0.88,1.32 -2.24,2.12 -1.32,0.76 -2.92,0.76 -1.56,-0.04 -2.6,-0.84 -1,-0.8 -1.44,-2.12 -0.4,-1.32 -0.2,-2.8 z"
       style=""
       id="path53" />
    <path
       d="m 549.48047,442.75592 -1.96,11.2 h 4.4 l 2,-11.68 q 0.28,-2 -0.2,-3.6 -0.44,-1.64 -1.68,-2.56 -1.24,-0.96 -3.32,-0.96 -1.84,0 -3.28,0.88 -1.4,0.84 -2.4,2.24 l 0.48,-2.72 h -4.32 l -3.2,18.4 h 4.32 l 1.96,-11.36 q 0.44,-1.6 1.68,-2.8 1.24,-1.2 3.04,-1.12 1.76,0.04 2.2,1.24 0.48,1.2 0.28,2.84 z"
       style=""
       id="path55" />
    <path
       d="m 578.48547,454.43592 q 2.68,0 4.92,-1 2.24,-1 3.72,-2.76 1.52,-1.8 1.84,-4.24 0.4,-2.84 -0.96,-4.52 -1.36,-1.72 -3.68,-2.52 2.32,-0.8 3.92,-2.36 1.64,-1.6 2,-3.96 0.32,-2.12 -0.56,-3.8 -0.88,-1.72 -2.64,-2.72 -1.76,-1.04 -4.16,-1.04 -2.52,0 -4.52,1.04 -1.96,1.04 -3.28,2.84 -1.28,1.76 -1.72,4 h 4.4 q 0.44,-1.56 1.68,-2.72 1.28,-1.16 3.12,-1.12 1.76,0.04 2.48,1.16 0.72,1.08 0.52,2.6 -0.32,1.96 -2.04,3.08 -1.72,1.12 -4,1.32 l -0.08,0.88 -0.4,2.64 q 1.64,0.08 2.92,0.6 1.32,0.52 2,1.56 0.68,1 0.4,2.56 -0.28,1.96 -1.84,3.2 -1.52,1.2 -3.56,1.16 -2.08,-0.04 -3.12,-1.24 -1.04,-1.2 -0.96,-3.12 h -4.64 q -0.2,2.36 0.72,4.28 0.92,1.92 2.84,3.08 1.92,1.12 4.68,1.12 z"
       style=""
       id="path57" />
    <path
       d="m 591.80422,451.87592 q 0,1.12 0.8,1.96 0.8,0.84 2,0.84 1.2,0 2.04,-0.84 0.84,-0.84 0.84,-1.96 0,-1.16 -0.84,-1.96 -0.84,-0.84 -2.04,-0.84 -1.2,0 -2,0.84 -0.8,0.8 -0.8,1.96 z"
       style=""
       id="path59" />
    <path
       d="m 612.15734,454.43592 q 2.68,0 4.92,-1 2.24,-1 3.72,-2.76 1.52,-1.8 1.84,-4.24 0.4,-2.84 -0.96,-4.52 -1.36,-1.72 -3.68,-2.52 2.32,-0.8 3.92,-2.36 1.64,-1.6 2,-3.96 0.32,-2.12 -0.56,-3.8 -0.88,-1.72 -2.64,-2.72 -1.76,-1.04 -4.16,-1.04 -2.52,0 -4.52,1.04 -1.96,1.04 -3.28,2.84 -1.28,1.76 -1.72,4 h 4.4 q 0.44,-1.56 1.68,-2.72 1.28,-1.16 3.12,-1.12 1.76,0.04 2.48,1.16 0.72,1.08 0.52,2.6 -0.32,1.96 -2.04,3.08 -1.72,1.12 -4,1.32 l -0.08,0.88 -0.4,2.64 q 1.64,0.08 2.92,0.6 1.32,0.52 2,1.56 0.68,1 0.4,2.56 -0.28,1.96 -1.84,3.2 -1.52,1.2 -3.56,1.16 -2.08,-0.04 -3.12,-1.24 -1.04,-1.2 -0.96,-3.12 h -4.64 q -0.2,2.36 0.72,4.28 0.92,1.92 2.84,3.08 1.92,1.12 4.68,1.12 z"
       style=""
       id="path61" />
  </g>
</svg>
