<?xml version="1.0" encoding="UTF-8" standalone="no"?>
<svg
   xmlns:dc="http://purl.org/dc/elements/1.1/"
   xmlns:cc="http://creativecommons.org/ns#"
   xmlns:rdf="http://www.w3.org/1999/02/22-rdf-syntax-ns#"
   xmlns:svg="http://www.w3.org/2000/svg"
   xmlns="http://www.w3.org/2000/svg"
   id="svg2"
   version="1.1"
   width="1600"
   height="150"
   viewBox="0 0 1500 140.625">
  <metadata
     id="metadata8">
    <rdf:RDF>
      <cc:Work
         rdf:about="">
        <dc:format>image/svg+xml</dc:format>
        <dc:type
           rdf:resource="http://purl.org/dc/dcmitype/StillImage" />
        <dc:title></dc:title>
      </cc:Work>
    </rdf:RDF>
  </metadata>
  <defs
     id="defs6" />
  <path
     style="fill:#f2f2f2;stroke-width:0.48412293"
     d="M 0,0 H 1500 V 140.625 H 0 Z"
     id="rect3354" />
  <g
     id="flowRoot850"
     style="font-style:normal;font-variant:normal;font-weight:normal;font-stretch:normal;font-size:40.26873016px;line-height:1.25;font-family:'Renner*';-inkscape-font-specification:'Renner*';letter-spacing:0px;word-spacing:0px;fill:#333333;fill-opacity:1;stroke:none"
     transform="matrix(2.2349847,0,0,2.2349847,-202.41425,90.663559)"
     aria-label="0123456789">
    <path
       id="path935"
       style=""
       d="m 175.18588,-7.215756 q -2.89935,-4.067142 -2.89935,-10.429601 0,-6.362459 2.89935,-10.429601 2.93962,-4.067142 7.57052,-4.067142 4.6309,0 7.53025,4.067142 2.93962,4.067142 2.93962,10.429601 0,6.362459 -2.93962,10.429601 -2.89935,4.0671418 -7.53025,4.0671418 -4.6309,0 -7.57052,-4.0671418 z m 2.41612,-18.563885 q -1.89263,3.140961 -1.89263,8.134284 0,4.993322 1.89263,8.1342834 1.9329,3.1409609 5.1544,3.1409609 3.2215,0 5.11413,-3.1409609 1.9329,-3.1409614 1.9329,-8.1342834 0,-4.993323 -1.9329,-8.134284 -1.89263,-3.140961 -5.11413,-3.140961 -3.2215,0 -5.1544,3.140961 z" />
    <path
       id="path937"
       style=""
       d="m 198.04279,-26.182328 v -3.543648 l 9.66449,-2.416124 v 28.5907985 h -3.42284 V -28.034689 Z" />
    <path
       id="path939"
       style=""
       d="m 213.71613,-3.5513015 13.32895,-14.2148615 q 2.93962,-3.140961 2.93962,-6.161116 0,-2.013437 -1.36914,-3.50338 -1.32886,-1.530211 -3.74499,-1.530211 -2.73827,0 -4.42956,1.852361 -1.69129,1.852362 -1.69129,5.033592 h -3.42284 q 0,-4.550367 2.5772,-7.328909 2.61747,-2.778543 6.96649,-2.778543 2.21478,0 3.94634,0.805375 1.73155,0.765106 2.698,2.053705 1.00672,1.2886 1.48995,2.738274 0.48322,1.449674 0.48322,2.939617 0,3.906067 -3.74499,7.731596 l -8.97993,9.141002 h 12.84573 v 3.2214985 z" />
    <path
       id="path941"
       style=""
       d="m 247.19392,-3.1486142 q -3.98661,0 -6.48327,-2.2550489 -2.49666,-2.2550489 -2.49666,-5.5973539 h 3.46311 q 0,2.0134369 1.53021,3.342305 1.57048,1.2885993 3.98661,1.2885993 2.41612,0 3.82553,-1.3691368 1.44967,-1.3691368 1.44967,-3.6644545 0,-2.496661 -1.81209,-3.865798 -1.81209,-1.369137 -4.67117,-1.369137 v -3.020155 q 2.61746,0 4.14767,-1.369136 1.53022,-1.409406 1.53022,-3.50338 0,-2.053705 -1.12753,-3.261767 -1.08725,-1.248331 -3.14096,-1.248331 -1.97317,0 -3.3423,1.248331 -1.36914,1.248331 -1.36914,3.060423 h -3.26177 q 0,-3.261767 2.21478,-5.315472 2.21478,-2.093974 5.71816,-2.093974 3.50338,0 5.63762,2.21478 2.17452,2.174512 2.17452,5.275204 0,2.093974 -1.2886,3.78526 -1.24833,1.691287 -3.46311,2.617468 5.55708,1.731555 5.55708,7.248371 0,3.5436486 -2.49666,5.7181601 -2.45639,2.1342427 -6.28192,2.1342427 z" />
    <path
       id="path943"
       style=""
       d="m 275.65887,-9.1889238 v 5.6376223 h -3.42284 V -9.1889238 H 258.6252 l 15.62427,-22.5504892 h 1.4094 v 19.530334 h 4.42956 v 3.0201552 z m -3.42284,-3.0201552 v -11.919544 l -7.97321,11.919544 z" />
    <path
       id="path945"
       style=""
       d="m 302.43695,-12.813109 q 0,4.6309035 -2.81881,7.1678335 -2.77854,2.4966613 -7.04703,2.4966613 -6.60407,0 -10.02691,-5.9195034 l 2.89935,-1.9731674 q 1.00671,1.9328987 2.93961,3.3020355 1.97317,1.3691368 4.18795,1.3691368 2.97989,0 4.63091,-1.7315554 1.69128,-1.7718241 1.69128,-4.7114409 0,-2.85908 -1.81209,-4.630904 -1.77182,-1.812093 -4.5101,-1.812093 -2.0537,0 -3.58392,0.523493 -1.53021,0.523494 -3.62418,2.013437 l 3.70472,-15.020237 h 13.28868 v 3.020155 h -10.63094 l -1.89263,7.449715 q 2.01343,-1.046987 4.18795,-1.046987 3.66445,0 6.04031,2.657736 2.37585,2.657737 2.37585,6.845685 z" />
    <path
       id="path947"
       style=""
       d="m 317.35463,-31.739413 h 4.30875 l -7.93294,10.429601 q 1.08726,-0.644299 3.18123,-0.644299 3.46311,0 5.87924,2.657736 2.45639,2.617467 2.45639,6.483266 0,4.3087536 -2.73827,7.0067586 -2.69801,2.6577362 -6.84569,2.6577362 -4.14768,0 -6.88595,-2.6577362 -2.69801,-2.698005 -2.69801,-7.0067586 0,-3.422843 1.77183,-5.838966 z m -6.24165,14.174593 q -1.77183,1.852362 -1.77183,4.751711 0,2.8993481 1.77183,4.7517097 1.81209,1.8120928 4.55036,1.8120928 2.73828,0 4.5101,-1.8120928 1.81209,-1.8523616 1.81209,-4.7517097 0,-2.899349 -1.81209,-4.751711 -1.77182,-1.89263 -4.5101,-1.89263 -2.73827,0 -4.55036,1.89263 z" />
    <path
       id="path949"
       style=""
       d="m 328.47572,-28.517914 v -3.221499 h 19.73167 l -13.49002,28.1881115 h -3.58392 l 11.95982,-24.9666125 z" />
    <path
       id="path951"
       style=""
       d="m 353.90102,-11.605048 q 0,2.4966617 1.61075,3.9866047 1.65101,1.4496743 3.90606,1.4496743 2.25505,0 3.8658,-1.4496743 1.65102,-1.489943 1.65102,-3.9866047 0,-2.255048 -1.69129,-3.825529 -1.65102,-1.610749 -3.82553,-1.610749 -2.17451,0 -3.8658,1.610749 -1.65101,1.570481 -1.65101,3.825529 z m 1.00671,-12.926262 q 0,1.932899 1.32887,3.221498 1.32887,1.248331 3.18123,1.248331 1.85236,0 3.18123,-1.248331 1.32887,-1.288599 1.32887,-3.221498 0,-2.013436 -1.2886,-3.302036 -1.24833,-1.288599 -3.2215,-1.288599 -1.97317,0 -3.26176,1.288599 -1.24834,1.2886 -1.24834,3.302036 z m -3.26176,-0.402687 q 0,-3.020155 2.21478,-5.114129 2.25505,-2.093974 5.55708,-2.093974 3.30204,0 5.51682,2.093974 2.25505,2.093974 2.25505,5.114129 0,4.630904 -3.98661,6.362459 2.25505,0.885912 3.62419,2.778542 1.36914,1.892631 1.36914,4.590636 0,3.3423043 -2.53693,5.7181594 -2.49667,2.3355864 -6.24166,2.3355864 -3.74499,0 -6.28192,-2.3355864 -2.49666,-2.3758551 -2.49666,-5.7181594 0,-2.698005 1.36914,-4.590636 1.36913,-1.89263 3.62418,-2.778542 -3.9866,-1.731555 -3.9866,-6.362459 z" />
    <path
       id="path953"
       style=""
       d="m 380.35253,-3.5513015 h -4.30875 l 7.93294,-10.4296015 q -1.08726,0.6443 -3.18123,0.6443 -3.46311,0 -5.9195,-2.617467 -2.41613,-2.657737 -2.41613,-6.523535 0,-4.308754 2.69801,-6.96649 2.73827,-2.698005 6.88595,-2.698005 4.14768,0 6.84568,2.698005 2.73828,2.657736 2.73828,6.96649 0,3.422842 -1.77183,5.838966 z m 6.20139,-14.1343245 q 1.81209,-1.89263 1.81209,-4.791979 0,-2.899348 -1.81209,-4.711441 -1.77183,-1.852362 -4.5101,-1.852362 -2.73827,0 -4.55037,1.852362 -1.77182,1.812093 -1.77182,4.711441 0,2.899349 1.77182,4.791979 1.8121,1.852362 4.55037,1.852362 2.73827,0 4.5101,-1.852362 z" />
  </g>
  <g
     id="flowRoot872"
     style="font-style:normal;font-variant:normal;font-weight:500;font-stretch:normal;font-size:39.51834869px;line-height:1.25;font-family:'Renner*';-inkscape-font-specification:'Renner* Medium';letter-spacing:0px;word-spacing:0px;fill:#333333;fill-opacity:1;stroke:none"
     transform="matrix(0.6326175,0,0,0.6326175,251.16978,120.99972)"
     aria-label="proportional">
    <path
       id="path956"
       d="m 190.03977,-19.714586 q 2.56869,2.568692 2.56869,6.955229 0,4.3865367 -2.56869,6.9947477 -2.56869,2.5686927 -6.28342,2.5686927 -4.14942,0 -6.20438,-3.5171331 V 5.0238999 h -4.3075 V -21.848577 h 4.3075 v 3.042913 q 2.05496,-3.517133 6.20438,-3.517133 3.71473,0 6.28342,2.608211 z m -3.43809,11.1441739 q 1.58073,-1.5412159 1.58073,-4.1889449 0,-2.647729 -1.58073,-4.149427 -1.58074,-1.541215 -3.91232,-1.541215 -2.01544,0 -3.59617,1.541215 -1.54122,1.541216 -1.54122,4.149427 0,2.608211 1.54122,4.1494266 1.58073,1.5412156 3.59617,1.5412156 2.33158,0 3.91232,-1.5016973 z" />
    <path
       id="path958"
       d="m 206.27749,-17.264449 q -1.22507,-0.987959 -2.41062,-0.987959 -3.00339,0 -3.00339,4.347019 v 10.2352522 h -4.22847 V -21.848577 h 4.22847 v 2.213027 q 1.69929,-2.608211 4.14942,-2.608211 2.17351,0 3.35906,1.343624 z" />
    <path
       id="path960"
       d="m 211.98851,-5.9226827 q -2.76629,-2.6477294 -2.76629,-6.8366743 0,-4.188945 2.76629,-6.836674 2.8058,-2.64773 7.03427,-2.64773 4.22846,0 6.99474,2.64773 2.80581,2.647729 2.80581,6.836674 0,4.1889449 -2.80581,6.8366743 -2.76628,2.6477294 -6.99474,2.6477294 -4.22847,0 -7.03427,-2.6477294 z m 3.16147,-10.9465823 q -1.54122,1.580734 -1.54122,4.109908 0,2.529174 1.54122,4.1494266 1.54121,1.5807339 3.8728,1.5807339 2.33158,0 3.87279,-1.5807339 1.54122,-1.6202526 1.54122,-4.1494266 0,-2.529174 -1.54122,-4.109908 -1.54121,-1.620253 -3.87279,-1.620253 -2.33159,0 -3.8728,1.620253 z" />
    <path
       id="path962"
       d="m 249.47166,-19.714586 q 2.5687,2.568692 2.5687,6.955229 0,4.3865367 -2.5687,6.9947477 -2.56869,2.5686927 -6.28341,2.5686927 -4.14943,0 -6.20438,-3.5171331 V 5.0238999 h -4.3075 V -21.848577 h 4.3075 v 3.042913 q 2.05495,-3.517133 6.20438,-3.517133 3.71472,0 6.28341,2.608211 z m -3.43809,11.1441739 q 1.58073,-1.5412159 1.58073,-4.1889449 0,-2.647729 -1.58073,-4.149427 -1.58074,-1.541215 -3.91232,-1.541215 -2.01543,0 -3.59617,1.541215 -1.54121,1.541216 -1.54121,4.149427 0,2.608211 1.54121,4.1494266 1.58074,1.5412156 3.59617,1.5412156 2.33158,0 3.91232,-1.5016973 z" />
    <path
       id="path964"
       d="m 257.45005,-5.9226827 q -2.76628,-2.6477294 -2.76628,-6.8366743 0,-4.188945 2.76628,-6.836674 2.8058,-2.64773 7.03427,-2.64773 4.22846,0 6.99474,2.64773 2.80581,2.647729 2.80581,6.836674 0,4.1889449 -2.80581,6.8366743 -2.76628,2.6477294 -6.99474,2.6477294 -4.22847,0 -7.03427,-2.6477294 z m 3.16147,-10.9465823 q -1.54122,1.580734 -1.54122,4.109908 0,2.529174 1.54122,4.1494266 1.54121,1.5807339 3.8728,1.5807339 2.33158,0 3.87279,-1.5807339 1.54122,-1.6202526 1.54122,-4.1494266 0,-2.529174 -1.54122,-4.109908 -1.54121,-1.620253 -3.87279,-1.620253 -2.33159,0 -3.8728,1.620253 z" />
    <path
       id="path966"
       d="m 287.93846,-17.264449 q -1.22507,-0.987959 -2.41062,-0.987959 -3.0034,0 -3.0034,4.347019 v 10.2352522 h -4.22846 V -21.848577 h 4.22846 v 2.213027 q 1.69929,-2.608211 4.14943,-2.608211 2.17351,0 3.35906,1.343624 z" />
    <path
       id="path968"
       d="m 293.39755,-28.171513 h 4.22846 v 6.322936 h 3.04291 v 3.754243 h -3.04291 v 14.4241972 h -4.22846 V -18.094334 h -3.04291 v -3.754243 h 3.04291 z" />
    <path
       id="path970"
       d="m 304.20519,-27.223073 q -0.75085,-0.750848 -0.75085,-1.857362 0,-1.106514 0.75085,-1.857362 0.79037,-0.750849 1.9364,-0.750849 1.14603,0 1.9364,0.750849 0.79037,0.750848 0.79037,1.857362 0,1.106514 -0.79037,1.857362 -0.79037,0.750849 -1.9364,0.750849 -1.14603,0 -1.9364,-0.750849 z m -0.15807,5.374496 h 4.18894 v 18.1784402 h -4.18894 z" />
    <path
       id="path972"
       d="m 315.49263,-5.9226827 q -2.76629,-2.6477294 -2.76629,-6.8366743 0,-4.188945 2.76629,-6.836674 2.8058,-2.64773 7.03427,-2.64773 4.22846,0 6.99474,2.64773 2.80581,2.647729 2.80581,6.836674 0,4.1889449 -2.80581,6.8366743 -2.76628,2.6477294 -6.99474,2.6477294 -4.22847,0 -7.03427,-2.6477294 z m 3.16147,-10.9465823 q -1.54122,1.580734 -1.54122,4.109908 0,2.529174 1.54122,4.1494266 1.54121,1.5807339 3.8728,1.5807339 2.33158,0 3.87279,-1.5807339 1.54122,-1.6202526 1.54122,-4.1494266 0,-2.529174 -1.54122,-4.109908 -1.54121,-1.620253 -3.87279,-1.620253 -2.33159,0 -3.8728,1.620253 z" />
    <path
       id="path974"
       d="m 348.03598,-14.735274 q 0,-4.07039 -3.35906,-4.07039 -1.81784,0 -2.92435,1.146032 -1.10652,1.106513 -1.10652,2.924358 v 11.0651372 h -4.3075 V -21.848577 h 4.3075 v 2.805803 q 1.73881,-3.200987 5.45353,-3.200987 3.04292,0 4.66317,1.817844 1.65977,1.778326 1.65977,5.216422 v 11.5393582 h -4.38654 z" />
    <path
       id="path976"
       d="m 360.56021,-9.0446323 q 0,2.5291744 3.35906,2.5291744 4.86075,0 4.86075,-4.3470181 v -0.355665 q -1.77832,-0.908922 -4.1099,-0.908922 -2.01544,0 -3.08243,0.829885 -1.02748,0.790367 -1.02748,2.2525457 z m -0.90892,-7.9827067 -1.73881,-3.082431 q 3.63569,-2.173509 7.46897,-2.173509 3.39857,0 5.49305,1.501697 2.09447,1.501697 2.09447,4.149427 v 12.9620182 h -4.18895 v -2.608211 q -0.79036,1.4226605 -2.45013,2.2130275 -1.62026,0.790367 -3.71473,0.790367 -2.92436,0 -4.66316,-1.4226606 -1.69929,-1.4621789 -1.69929,-3.9518349 0,-2.9638762 2.13399,-4.5841282 2.17351,-1.620253 5.65112,-1.620253 2.60821,0 4.7422,1.225069 v -2.529174 q 0,-1.225069 -1.02747,-1.936399 -1.02748,-0.71133 -2.56869,-0.71133 -2.92436,0 -5.53257,1.778325 z" />
    <path
       id="path978"
       d="m 377.94088,-34.494449 h 4.3075 v 30.8243122 h -4.3075 z" />
  </g>
  <g
     id="flowRoot899"
     style="font-style:normal;font-variant:normal;font-weight:normal;font-stretch:normal;font-size:40.26873016px;line-height:1.25;font-family:'Renner*';-inkscape-font-specification:'Renner*';letter-spacing:0px;word-spacing:0px;fill:#333333;fill-opacity:1;stroke:none"
     transform="matrix(2.2349847,0,0,2.2349847,435.08575,90.663559)"
     aria-label="０１２３４５６７８９">
    <path
       id="path981"
       style=""
       d="m 174.78319,-7.215756 q -2.89935,-4.067142 -2.89935,-10.429601 0,-6.362459 2.89935,-10.429601 2.93962,-4.067142 7.57052,-4.067142 4.63091,0 7.53026,4.067142 2.93961,4.067142 2.93961,10.429601 0,6.362459 -2.93961,10.429601 -2.89935,4.0671418 -7.53026,4.0671418 -4.6309,0 -7.57052,-4.0671418 z m 2.41613,-18.563885 q -1.89263,3.140961 -1.89263,8.134284 0,4.993322 1.89263,8.1342834 1.93289,3.1409609 5.15439,3.1409609 3.2215,0 5.11413,-3.1409609 1.9329,-3.1409614 1.9329,-8.1342834 0,-4.993323 -1.9329,-8.134284 -1.89263,-3.140961 -5.11413,-3.140961 -3.2215,0 -5.15439,3.140961 z" />
    <path
       id="path983"
       style=""
       d="m 198.66569,-26.182328 v -3.543648 l 9.6645,-2.416124 v 28.5907985 h -3.42284 V -28.034689 Z" />
    <path
       id="path985"
       style=""
       d="m 218.44079,-3.5513015 13.28868,-14.2148615 q 2.97988,-3.18123 2.97988,-6.161116 0,-2.013437 -1.36913,-3.50338 -1.36914,-1.530211 -3.78526,-1.530211 -2.73828,0 -4.42956,1.852361 -1.69129,1.852362 -1.69129,5.033592 h -3.38257 q 0,-4.550367 2.57719,-7.328909 2.5772,-2.778543 6.92623,-2.778543 2.21478,0 3.94633,0.805375 1.73156,0.765106 2.69801,2.053705 1.00671,1.2886 1.48994,2.738274 0.48322,1.449674 0.48322,2.939617 0,3.946336 -3.70472,7.731596 l -9.0202,9.141002 h 12.886 v 3.2214985 z" />
    <path
       id="path987"
       style=""
       d="m 252.83343,-3.1486142 q -3.98661,0 -6.48327,-2.2550489 -2.49666,-2.2550489 -2.49666,-5.5973539 h 3.46311 q 0,2.0134369 1.53021,3.342305 1.57048,1.2885993 3.98661,1.2885993 2.41612,0 3.82553,-1.3691368 1.44967,-1.3691368 1.44967,-3.6644545 0,-2.496661 -1.81209,-3.865798 -1.8121,-1.369137 -4.67118,-1.369137 v -3.020155 q 2.61747,0 4.14768,-1.369136 1.53022,-1.409406 1.53022,-3.50338 0,-2.053705 -1.12753,-3.261767 -1.08725,-1.248331 -3.14096,-1.248331 -1.97317,0 -3.3423,1.248331 -1.36914,1.248331 -1.36914,3.060423 h -3.26177 q 0,-3.261767 2.21478,-5.315472 2.21478,-2.093974 5.71816,-2.093974 3.50338,0 5.63762,2.21478 2.17452,2.174512 2.17452,5.275204 0,2.093974 -1.2886,3.78526 -1.24833,1.691287 -3.46311,2.617468 5.55708,1.731555 5.55708,7.248371 0,3.5436486 -2.49666,5.7181601 -2.45639,2.1342427 -6.28192,2.1342427 z" />
    <path
       id="path989"
       style=""
       d="m 281.87033,-9.1889238 v 5.6376223 h -3.42285 v -5.6376223 h -13.61083 l 15.62427,-22.5504892 h 1.40941 v 19.530334 h 4.42956 v 3.0201552 z m -3.42285,-3.0201552 v -11.919544 l -7.9732,11.919544 z" />
    <path
       id="path991"
       style=""
       d="m 308.89379,-12.813109 q 0,4.6309035 -2.81881,7.1678335 -2.77854,2.4966613 -7.04703,2.4966613 -6.60407,0 -10.02691,-5.9195034 l 2.89935,-1.9731674 q 1.00671,1.9328987 2.93961,3.3020355 1.97317,1.3691368 4.18795,1.3691368 2.97989,0 4.6309,-1.7315554 1.69129,-1.7718241 1.69129,-4.7114409 0,-2.85908 -1.81209,-4.630904 -1.77183,-1.812093 -4.5101,-1.812093 -2.0537,0 -3.58392,0.523493 -1.53021,0.523494 -3.62418,2.013437 l 3.70472,-15.020237 h 13.28868 v 3.020155 h -10.63094 l -1.89263,7.449715 q 2.01343,-1.046987 4.18795,-1.046987 3.66445,0 6.0403,2.657736 2.37586,2.657737 2.37586,6.845685 z" />
    <path
       id="path993"
       style=""
       d="m 324.19905,-31.739413 h 4.30876 l -7.93294,10.429601 q 1.08725,-0.644299 3.18123,-0.644299 3.46311,0 5.87923,2.657736 2.45639,2.617467 2.45639,6.483266 0,4.3087536 -2.73827,7.0067586 -2.69801,2.6577362 -6.84568,2.6577362 -4.14768,0 -6.88596,-2.6577362 -2.698,-2.698005 -2.698,-7.0067586 0,-3.422843 1.77182,-5.838966 z m -6.24165,14.174593 q -1.77182,1.852362 -1.77182,4.751711 0,2.8993481 1.77182,4.7517097 1.81209,1.8120928 4.55037,1.8120928 2.73827,0 4.51009,-1.8120928 1.8121,-1.8523616 1.8121,-4.7517097 0,-2.899349 -1.8121,-4.751711 -1.77182,-1.89263 -4.51009,-1.89263 -2.73828,0 -4.55037,1.89263 z" />
    <path
       id="path995"
       style=""
       d="m 336.52443,-28.517914 v -3.221499 h 19.73168 l -13.5303,28.1881115 h -3.54364 l 11.91954,-24.9666125 z" />
    <path
       id="path997"
       style=""
       d="m 363.70897,-11.605048 q 0,2.4966617 1.61075,3.9866047 1.65101,1.4496743 3.90606,1.4496743 2.25505,0 3.8658,-1.4496743 1.65102,-1.489943 1.65102,-3.9866047 0,-2.255048 -1.69129,-3.825529 -1.65102,-1.610749 -3.82553,-1.610749 -2.17451,0 -3.86579,1.610749 -1.65102,1.570481 -1.65102,3.825529 z m 1.00672,-12.926262 q 0,1.932899 1.32886,3.221498 1.32887,1.248331 3.18123,1.248331 1.85236,0 3.18123,-1.248331 1.32887,-1.288599 1.32887,-3.221498 0,-2.013436 -1.2886,-3.302036 -1.24833,-1.288599 -3.2215,-1.288599 -1.97316,0 -3.26176,1.288599 -1.24833,1.2886 -1.24833,3.302036 z m -3.26177,-0.402687 q 0,-3.020155 2.21478,-5.114129 2.25505,-2.093974 5.55708,-2.093974 3.30204,0 5.51682,2.093974 2.25505,2.093974 2.25505,5.114129 0,4.630904 -3.98661,6.362459 2.25505,0.885912 3.62419,2.778542 1.36914,1.892631 1.36914,4.590636 0,3.3423043 -2.53693,5.7181594 -2.49666,2.3355864 -6.24166,2.3355864 -3.74499,0 -6.28192,-2.3355864 -2.49666,-2.3758551 -2.49666,-5.7181594 0,-2.698005 1.36914,-4.590636 1.36913,-1.89263 3.62418,-2.778542 -3.9866,-1.731555 -3.9866,-6.362459 z" />
    <path
       id="path999"
       style=""
       d="m 390.89351,-3.5513015 h -4.30876 l 7.93294,-10.4296015 q -1.08725,0.6443 -3.18123,0.6443 -3.46311,0 -5.9195,-2.617467 -2.41613,-2.657737 -2.41613,-6.523535 0,-4.308754 2.69801,-6.96649 2.73827,-2.698005 6.88595,-2.698005 4.14768,0 6.84569,2.698005 2.73827,2.657736 2.73827,6.96649 0,3.422842 -1.77182,5.838966 z m 6.20138,-14.1343245 q 1.81209,-1.89263 1.81209,-4.791979 0,-2.899348 -1.81209,-4.711441 -1.77182,-1.852362 -4.5101,-1.852362 -2.73827,0 -4.55036,1.852362 -1.77183,1.812093 -1.77183,4.711441 0,2.899349 1.77183,4.791979 1.81209,1.852362 4.55036,1.852362 2.73828,0 4.5101,-1.852362 z" />
  </g>
  <g
     id="flowRoot907"
     style="font-style:normal;font-variant:normal;font-weight:500;font-stretch:normal;font-size:39.51834869px;line-height:1.25;font-family:'Renner*';-inkscape-font-specification:'Renner* Medium';letter-spacing:0px;word-spacing:0px;fill:#333333;fill-opacity:1;stroke:none"
     transform="matrix(0.6326175,0,0,0.6326175,931.79478,120.99972)"
     aria-label="tabular">
    <path
       id="path1002"
       d="m 173.91629,-28.171513 h 4.22846 v 6.322936 h 3.04291 v 3.754243 h -3.04291 v 14.4241972 h -4.22846 V -18.094334 h -3.04292 v -3.754243 h 3.04292 z" />
    <path
       id="path1004"
       d="m 186.81841,-9.0446323 q 0,2.5291744 3.35906,2.5291744 4.86076,0 4.86076,-4.3470181 v -0.355665 q -1.77833,-0.908922 -4.10991,-0.908922 -2.01544,0 -3.08243,0.829885 -1.02748,0.790367 -1.02748,2.2525457 z m -0.90892,-7.9827067 -1.73881,-3.082431 q 3.63569,-2.173509 7.46897,-2.173509 3.39858,0 5.49305,1.501697 2.09447,1.501697 2.09447,4.149427 v 12.9620182 h -4.18894 v -2.608211 q -0.79037,1.4226605 -2.45014,2.2130275 -1.62025,0.790367 -3.71473,0.790367 -2.92435,0 -4.66316,-1.4226606 -1.69929,-1.4621789 -1.69929,-3.9518349 0,-2.9638762 2.13399,-4.5841282 2.17351,-1.620253 5.65112,-1.620253 2.60821,0 4.74221,1.225069 v -2.529174 q 0,-1.225069 -1.02748,-1.936399 -1.02748,-0.71133 -2.56869,-0.71133 -2.92436,0 -5.53257,1.778325 z" />
    <path
       id="path1006"
       d="m 220.8363,-19.675068 q 2.56869,2.568693 2.56869,6.915711 0,4.3470183 -2.56869,6.915711 -2.5687,2.5686927 -6.28342,2.5686927 -4.03087,0 -6.20438,-3.398578 v 3.0033945 H 204.041 V -34.494449 h 4.3075 v 15.649266 q 2.17351,-3.398578 6.20438,-3.398578 3.71472,0 6.28342,2.568693 z m -3.4381,11.1441743 q 1.58073,-1.5807343 1.58073,-4.2284633 0,-2.647729 -1.58073,-4.188945 -1.58073,-1.580734 -3.91232,-1.580734 -1.97591,0 -3.55665,1.580734 -1.58073,1.580734 -1.58073,4.188945 0,2.608211 1.58073,4.1889449 1.58074,1.580734 3.55665,1.580734 2.33159,0 3.91232,-1.5412156 z" />
    <path
       id="path1008"
       d="m 231.81808,-10.78344 q 0,4.0703903 3.39857,4.0703903 1.81785,0 2.92436,-1.1065137 1.10652,-1.1460322 1.10652,-2.9638766 v -11.065137 h 4.26798 v 18.1784402 h -4.26798 v -2.8453211 q -1.81785,3.2405046 -5.49306,3.2405046 -3.04291,0 -4.70268,-1.7783257 -1.62025,-1.8178441 -1.62025,-5.25594 v -11.539358 h 4.38654 z" />
    <path
       id="path1010"
       d="m 248.96596,-34.494449 h 4.3075 v 30.8243122 h -4.3075 z" />
    <path
       id="path1012"
       d="m 261.37842,-9.0446323 q 0,2.5291744 3.35905,2.5291744 4.86076,0 4.86076,-4.3470181 v -0.355665 q -1.77832,-0.908922 -4.10991,-0.908922 -2.01543,0 -3.08243,0.829885 -1.02747,0.790367 -1.02747,2.2525457 z m -0.90893,-7.9827067 -1.7388,-3.082431 q 3.63568,-2.173509 7.46896,-2.173509 3.39858,0 5.49305,1.501697 2.09448,1.501697 2.09448,4.149427 v 12.9620182 h -4.18895 v -2.608211 q -0.79037,1.4226605 -2.45014,2.2130275 -1.62025,0.790367 -3.71472,0.790367 -2.92436,0 -4.66317,-1.4226606 -1.69928,-1.4621789 -1.69928,-3.9518349 0,-2.9638762 2.13399,-4.5841282 2.17351,-1.620253 5.65112,-1.620253 2.60821,0 4.7422,1.225069 v -2.529174 q 0,-1.225069 -1.02748,-1.936399 -1.02747,-0.71133 -2.56869,-0.71133 -2.92436,0 -5.53257,1.778325 z" />
    <path
       id="path1014"
       d="m 288.40156,-17.264449 q -1.22507,-0.987959 -2.41062,-0.987959 -3.00339,0 -3.00339,4.347019 v 10.2352522 h -4.22847 V -21.848577 h 4.22847 v 2.213027 q 1.69929,-2.608211 4.14942,-2.608211 2.17351,0 3.35906,1.343624 z" />
  </g>
</svg>
