<?xml version="1.0" encoding="UTF-8" standalone="no"?>
<!-- Created with Inkscape (http://www.inkscape.org/) -->

<svg
   version="1.1"
   id="svg2"
   width="391.95929"
   height="77.270828"
   viewBox="0 0 391.95929 77.270828"
   xmlns="http://www.w3.org/2000/svg"
   xmlns:svg="http://www.w3.org/2000/svg">
  <defs
     id="defs6" />
  <g
     id="g8">
    <path
       style="fill:#73403f;stroke-width:0.187492;fill-opacity:1"
       d="m 227.25715,66.105189 c -4.25057,-0.67699 -7.14989,-2.394911 -8.42987,-4.994909 -0.51262,-1.041273 -0.60325,-1.434293 -0.61334,-2.659548 -0.0182,-2.206385 0.79882,-3.630671 2.98022,-5.195461 l 0.53371,-0.382856 -0.98562,-0.632487 c -1.27004,-0.814976 -1.88039,-1.739988 -2.01618,-3.055628 -0.21544,-2.08744 1.01564,-4.096882 3.37442,-5.507937 0.63824,-0.381807 1.19115,-0.717845 1.22867,-0.746747 0.0375,-0.02893 -0.43054,-0.51434 -1.04017,-1.078748 -1.8836,-1.743868 -2.67972,-3.672986 -2.67972,-6.493278 0,-2.952196 0.85076,-5.018636 2.90398,-7.053553 1.48537,-1.472135 3.22712,-2.455248 5.34125,-3.014814 1.7893,-0.473588 5.33576,-0.430888 7.9311,0.0955 1.11377,0.225904 2.48165,0.410726 3.03972,0.410726 1.33986,0 2.85212,-0.586055 3.90602,-1.513734 0.74766,-0.658104 0.89951,-0.722521 1.22466,-0.519462 0.75458,0.471246 0.97082,1.574185 0.51928,2.648571 -0.3,0.71387 -1.72974,2.075958 -2.62937,2.504949 l -0.63675,0.30365 0.53659,1.147274 c 1.45526,3.11148 1.04118,6.968396 -1.048,9.761509 -1.5383,2.05666 -3.97685,3.653428 -6.65598,4.358392 -1.71541,0.451372 -5.32985,0.445045 -6.84349,-0.01197 -1.89647,-0.572614 -1.99306,-0.570805 -2.85417,0.05357 -2.04596,1.483356 -2.05214,4.029056 -0.0124,5.118203 0.72738,0.388397 1.03704,0.427392 3.2416,0.408174 1.34058,-0.01171 3.66081,-0.172052 5.15606,-0.356384 1.49526,-0.184331 4.0264,-0.341492 5.62478,-0.349244 2.6069,-0.01267 3.01621,0.02989 3.97514,0.413339 1.4383,0.575088 2.80172,1.830267 3.33862,3.073533 0.81591,1.889389 0.69816,4.37346 -0.30433,6.420803 -1.4537,2.968853 -5.38357,5.547624 -9.9115,6.503907 -1.94569,0.410917 -6.56042,0.605037 -8.19489,0.344708 z m 8.00332,-2.709233 c 4.04368,-1.082969 6.5428,-3.515904 6.53611,-6.362965 -0.004,-1.936066 -0.92649,-3.088793 -2.80694,-3.509622 -0.85076,-0.190396 -1.51678,-0.190046 -3.42392,0.0017 -1.30221,0.130987 -3.12702,0.313168 -4.05511,0.404853 -2.27934,0.225179 -4.80518,0.215749 -6.27944,-0.02342 -1.16224,-0.18857 -1.23323,-0.177934 -1.57413,0.23578 -0.19634,0.23828 -0.57609,0.897293 -0.84388,1.464453 -0.64355,1.36305 -0.66671,3.266649 -0.0541,4.44798 0.88153,1.699874 2.75559,2.944706 5.30747,3.525414 1.5248,0.346988 5.6001,0.242614 7.19393,-0.184236 z m -1.53169,-21.343723 c 4.73963,-2.169871 5.77913,-9.390408 1.88245,-13.075726 -1.46116,-1.381892 -2.40399,-1.745084 -4.57265,-1.761418 -1.65273,-0.01241 -1.87708,0.03216 -3.03889,0.603788 -1.47637,0.726445 -2.38876,1.695191 -3.21525,3.413873 -0.56463,1.174155 -0.58594,1.307781 -0.58277,3.656102 0.004,2.96271 0.34608,4.022449 1.81847,5.633479 1.51733,1.660189 2.81632,2.184177 5.14464,2.075232 1.12513,-0.05261 1.80252,-0.196715 2.564,-0.54533 z M 59.485985,65.807315 c -1.436644,-0.261388 -2.201639,-0.520117 -2.578028,-0.871913 -0.801106,-0.748774 -0.439294,-1.362839 1.152291,-1.955695 0.51011,-0.190011 1.093211,-0.577106 1.312448,-0.871274 0.393307,-0.52772 0.394523,-0.575533 0.394523,-15.468155 0,-17.879582 0.120236,-16.871247 -2.050623,-17.196755 -0.877356,-0.131563 -1.792975,-0.738112 -1.792975,-1.187754 0,-0.0999 0.221911,-0.445369 0.493156,-0.767712 0.890203,-1.057949 3.57133,-2.177537 5.682236,-2.372792 1.052207,-0.09734 1.296752,-0.06013 1.687167,0.256789 0.409774,0.332613 0.465006,0.546388 0.53854,2.084444 0.101508,2.123264 0.181211,2.143767 2.214346,0.569617 2.836818,-2.196412 4.905898,-2.906926 7.95046,-2.73018 5.567356,0.3232 9.512209,3.518045 11.274823,9.13124 0.392871,1.251115 0.439278,1.756201 0.43864,4.774012 0,2.699383 -0.07079,3.637566 -0.350739,4.687325 -1.038957,3.895457 -3.215749,7.066121 -6.239836,9.08875 -3.959682,2.648397 -8.939192,2.954958 -13.538853,0.833512 -0.75948,-0.350285 -1.455546,-0.590723 -1.546821,-0.534318 -0.219516,0.13567 -0.206617,6.025737 0.01669,7.580145 0.203506,1.417208 0.695744,1.988563 1.875712,2.177256 0.948749,0.151707 1.879093,0.727109 1.879093,1.162183 0,0.447615 -0.67136,1.04754 -1.499943,1.340354 -0.65043,0.229855 -6.372676,0.441864 -7.312222,0.270921 z M 75.516616,52.138524 c 2.960472,-1.030436 4.833971,-3.45139 5.658945,-7.312553 0.370936,-1.736161 0.240928,-6.800137 -0.216632,-8.437176 -0.984127,-3.521034 -2.996226,-6.028369 -5.770146,-7.190342 -1.038241,-0.434908 -1.418388,-0.490359 -3.328279,-0.485456 -1.817927,0.0043 -2.332432,0.07516 -3.279739,0.449406 -1.518725,0.600003 -3.059805,2.138356 -3.671895,3.665409 -0.441899,1.10252 -0.45146,1.250732 -0.509848,7.907533 -0.04055,4.622409 0.0079,7.033994 0.151812,7.568697 0.416896,1.54822 2.762805,3.282536 5.434746,4.017878 1.326265,0.365002 4.232291,0.26865 5.531036,-0.183396 z M 16.615494,59.73399 c -2.781681,-0.393273 -5.214362,-1.252916 -6.043661,-2.135665 -0.565665,-0.602118 -0.477245,-1.413441 0.194973,-1.789025 0.455308,-0.254386 0.734729,-0.22545 3.281123,0.339797 1.603721,0.355999 3.578095,0.659186 4.658371,0.715363 5.63579,0.293033 10.18639,-2.149123 11.509208,-6.176615 1.146647,-3.491068 0.414509,-7.29969 -1.799275,-9.359968 -1.997229,-1.85874 -3.448105,-2.285564 -7.835004,-2.304947 -1.856179,-0.0079 -3.480335,-0.08189 -3.609237,-0.163759 -0.355936,-0.226054 -0.290857,-1.51814 0.09374,-1.861266 0.180461,-0.161006 0.998267,-0.393246 1.817348,-0.516105 4.981796,-0.747237 7.840292,-3.068553 8.541703,-6.936489 0.430614,-2.374678 -0.164318,-4.906571 -1.512936,-6.438675 -2.402176,-2.729027 -6.505042,-2.602463 -11.369318,0.350712 -1.759676,1.068322 -2.318124,1.199754 -2.847678,0.670199 -0.753328,-0.75332 -0.362911,-1.574832 1.398771,-2.943317 2.561227,-1.989577 4.945066,-3.049387 7.796999,-3.466396 5.730943,-0.837969 10.580726,1.956927 11.901782,6.858918 0.375978,1.395167 0.325019,3.77182 -0.111165,5.183173 -0.622552,2.014371 -2.090846,3.967146 -4.102869,5.456654 -0.551378,0.408182 -0.93105,0.806874 -0.843717,0.885984 0.08734,0.07909 0.752896,0.320604 1.479017,0.536669 3.308459,0.984441 5.760928,3.635783 6.575448,7.108655 0.406653,1.733888 0.270774,5.114061 -0.273237,6.796614 -1.408311,4.355709 -5.521677,7.771757 -10.716071,8.899428 -1.64313,0.356717 -6.496268,0.528717 -8.184322,0.290061 z m 95.274716,-4.846592 c -0.75675,-0.461501 -1.59674,-1.443722 -2.32864,-2.722943 -0.33276,-0.581608 -0.69257,-1.057477 -0.7996,-1.057477 -0.10702,0 -0.59982,0.33929 -1.0951,0.753966 -2.2025,1.844022 -4.36741,2.736883 -7.10775,2.931396 -4.279934,0.303799 -7.704372,-1.398191 -9.227003,-4.585949 -0.520081,-1.088833 -0.610945,-1.506332 -0.68412,-3.143746 -0.125847,-2.81628 0.504429,-4.710878 2.153799,-6.474183 2.436169,-2.604473 6.164371,-3.693341 11.869944,-3.466798 1.59838,0.06345 3.27661,0.169256 3.72938,0.235099 l 0.82325,0.119703 -0.10054,-2.325013 c -0.1235,-2.854865 -0.36276,-3.961868 -1.13651,-5.25841 -0.45652,-0.764986 -0.84433,-1.137276 -1.62924,-1.564056 -0.93695,-0.509454 -1.19112,-0.560309 -2.81127,-0.562476 -2.67455,-0.0035 -3.757538,0.593737 -6.074398,3.350319 -1.562199,1.858705 -2.728341,2.260368 -3.84196,1.32332 -2.1655,-1.822165 0.796431,-5.284803 5.706231,-6.670819 1.805187,-0.509595 5.881747,-0.609688 7.584997,-0.186238 3.41005,0.847783 5.43858,2.883016 6.3302,6.351072 0.28435,1.106033 0.31957,2.102132 0.27682,7.829498 -0.0547,7.328015 0.11819,10.523061 0.60995,11.273574 0.29577,0.451399 0.3837,0.475328 1.31809,0.358578 0.90118,-0.11259 1.02279,-0.08468 1.21757,0.279233 0.11901,0.222373 0.1658,0.60585 0.10398,0.852152 -0.29026,1.156485 -2.43906,2.699426 -3.76308,2.702092 -0.30937,5.6e-4 -0.8156,-0.153236 -1.12497,-0.341894 z m -8.68076,-3.050829 c 1.38472,-0.289711 3.01074,-1.193094 3.91689,-2.176155 1.5403,-1.671026 2.09941,-3.77626 2.00522,-7.55023 l -0.0537,-2.153301 -0.74997,-0.138887 c -0.41248,-0.07638 -1.88899,-0.192004 -3.28112,-0.256921 -4.0407,-0.188413 -6.466801,0.519619 -8.133826,2.373779 -1.083359,1.204936 -1.498734,2.433094 -1.490519,4.406922 0.0118,2.854524 1.495086,4.920745 3.946589,5.498009 1.016266,0.239303 2.688016,0.237904 3.840476,-0.0035 z m 191.76747,3.181063 c -2.52774,-0.417559 -4.79807,-2.093182 -5.91069,-4.362411 -1.38494,-2.824592 -1.77651,-5.890506 -1.77651,-13.909439 0,-6.771349 -0.11268,-7.179348 -2.06243,-7.46905 -1.15129,-0.171056 -1.68743,-0.553292 -1.68743,-1.203005 0,-1.073329 1.96391,-2.142499 5.40205,-2.940913 1.57075,-0.364765 2.15496,-0.346597 2.68624,0.08355 0.51298,0.415296 0.48813,-0.671684 0.26189,11.453711 -0.16245,8.706243 -0.0442,10.188454 0.97159,12.174606 1.23354,2.411996 4.30804,3.543871 7.42259,2.732627 1.60879,-0.419037 2.79199,-1.092407 4.14745,-2.36038 2.38421,-2.230314 2.62946,-3.424151 2.49445,-12.142848 -0.0939,-6.060932 -0.22034,-7.178824 -0.84847,-7.500818 -0.17594,-0.0902 -0.69957,-0.222017 -1.16361,-0.292928 -1.15191,-0.17602 -1.68745,-0.558185 -1.68745,-1.204175 0,-1.070088 1.76081,-2.086856 4.92959,-2.846555 1.99933,-0.479329 2.65643,-0.472766 3.16078,0.03164 0.4008,0.40078 0.40218,0.431701 0.23438,5.202932 -0.23839,6.77814 -0.18293,16.669893 0.10287,18.348819 0.25955,1.524754 0.34227,1.608426 1.91696,1.939098 1.62261,0.340732 2.07805,1.078993 1.28647,2.085327 -0.79708,1.013332 -4.41293,2.384886 -6.30531,2.391711 -1.2694,0.0043 -1.46507,-0.373889 -1.57588,-3.048224 -0.0607,-1.464733 -0.16986,-2.287749 -0.30958,-2.333901 -0.11873,-0.03924 -0.4984,0.283227 -0.84372,0.716526 -1.42476,1.787679 -2.67018,2.967935 -3.72516,3.530237 -1.91146,1.018788 -4.50774,1.355656 -7.12107,0.923947 z m 48.46687,-0.05043 c -5.41173,-1.058131 -9.49709,-5.194857 -10.72299,-10.857815 -0.38962,-1.799905 -0.37527,-5.408221 0.0292,-7.345606 1.02016,-4.886128 4.32828,-8.940398 8.75345,-10.727798 2.52424,-1.019582 6.31549,-1.239859 9.06503,-0.526689 5.10536,1.32423 8.1521,5.531998 7.94025,10.966122 -0.0508,1.30308 -0.14088,1.756899 -0.40024,2.01618 -0.31139,0.311307 -1.02203,0.338206 -10.20506,0.386369 -7.38066,0.03872 -9.93926,0.10898 -10.14365,0.278595 -0.22028,0.182828 -0.25078,0.572867 -0.15721,2.010656 0.22321,3.430005 1.24919,5.862303 3.35845,7.961839 1.92629,1.917399 3.86192,2.731902 6.47619,2.72512 2.75563,-0.007 4.94194,-0.99852 7.43073,-3.36945 1.81297,-1.727141 2.41626,-2.059501 3.08684,-1.700617 1.13268,0.606199 0.37826,2.468846 -1.84827,4.563418 -1.67773,1.578292 -3.65363,2.704337 -5.8244,3.319277 -1.80708,0.511901 -5.03205,0.653576 -6.83835,0.300399 z M 353.66373,36.1994 c 0.16149,-0.194574 0.20708,-0.717872 0.14579,-1.672949 -0.25943,-4.042471 -3.85779,-6.916222 -8.28177,-6.614048 -2.84074,0.194023 -5.46492,2.002205 -6.91748,4.76646 -0.76833,1.462111 -1.09664,2.757412 -0.86063,3.395414 l 0.15104,0.408262 h 7.76402 c 6.6958,0 7.79639,-0.03898 7.99903,-0.283139 z m 16.21655,18.923023 c -3.76859,-0.923012 -3.64627,-0.909073 -4.73365,-0.539458 -1.15381,0.39219 -1.39765,0.314899 -2.05601,-0.651714 -0.76661,-1.12553 -1.21847,-2.646754 -1.31899,-4.440559 -0.0874,-1.559004 -0.061,-1.744875 0.29865,-2.104527 1.06053,-1.060535 1.92833,-0.648795 3.21642,1.526109 1.09316,1.845736 1.7045,2.462291 3.14437,3.171136 2.86551,1.410688 6.46996,0.636577 8.03288,-1.725167 0.37517,-0.566908 0.51941,-1.06258 0.58697,-2.016984 0.22114,-3.123925 -0.9553,-4.412838 -5.93439,-6.501765 -4.8316,-2.027043 -6.80012,-3.418739 -7.95174,-5.621671 -0.57007,-1.090468 -0.59673,-1.238016 -0.59673,-3.301589 0,-2.062281 0.0279,-2.216697 0.61509,-3.40952 1.05497,-2.142945 3.35112,-3.813761 6.01802,-4.379043 1.60688,-0.340601 2.96305,-0.336921 4.97244,0.01346 1.44833,0.252569 1.68301,0.252569 2.17143,0 0.88456,-0.45742 1.31708,-0.349305 2.17196,0.542883 1.06494,1.111425 1.61278,2.586444 1.72499,4.644354 0.0847,1.554145 0.0671,1.648364 -0.3938,2.109298 -0.95356,0.953574 -1.79741,0.444783 -2.95609,-1.782357 -1.34955,-2.59395 -2.89109,-3.523822 -5.49525,-3.314785 -1.35068,0.108413 -2.17794,0.481542 -3.16528,1.427695 -0.81542,0.781407 -1.36328,2.310235 -1.17931,3.290918 0.33224,1.770996 2.22721,3.463957 5.73415,5.122906 1.18589,0.560982 2.83114,1.34412 3.65611,1.740302 3.16523,1.52008 4.96856,4.232964 4.96856,7.474601 0,5.053139 -3.67572,8.528449 -9.24785,8.743621 -1.04938,0.04055 -2.07672,0.03233 -2.28295,-0.01818 z m -206.64242,-0.43119 c -1.32779,-0.346089 -2.13304,-1.211446 -6.56609,-7.056201 -3.3784,-4.454263 -5.97414,-7.536238 -6.48338,-7.697866 -0.20275,-0.06432 -0.4527,-0.03295 -0.55546,0.06983 -0.11818,0.118183 -0.16291,2.049083 -0.12175,5.254888 0.0748,5.819323 0.0806,5.84069 1.77204,6.46533 1.21892,0.450132 1.65842,0.893481 1.50232,1.515474 -0.23688,0.943733 -2.10925,1.423832 -5.55294,1.423832 -3.44888,0 -5.45604,-0.529407 -5.59298,-1.475194 -0.0857,-0.591876 0.41407,-1.078005 1.46814,-1.428114 0.49135,-0.1632 1.03219,-0.450123 1.20186,-0.637609 0.55944,-0.618182 0.67029,-3.273037 0.66618,-15.955499 -0.003,-12.091004 -0.13815,-16.449055 -0.5542,-17.994173 -0.17903,-0.664876 -0.28413,-0.764436 -0.99142,-0.939153 -2.04729,-0.505733 -2.19162,-0.571592 -2.31307,-1.055458 -0.19834,-0.790252 0.19656,-1.309922 1.46296,-1.925186 1.28633,-0.624936 4.5177,-1.52263 5.48094,-1.52263 0.80223,0 1.22594,0.343729 1.39294,1.129978 0.0761,0.358167 0.0794,2.676127 0.008,5.15103 -0.16556,5.693064 -0.19773,18.238151 -0.0482,18.796153 0.15266,0.56966 0.49894,0.531286 1.51517,-0.167893 1.09185,-0.751222 5.45041,-5.054799 6.21969,-6.141247 0.93102,-1.31486 0.79012,-1.770769 -0.78805,-2.549895 -1.07416,-0.530307 -1.25375,-0.900098 -0.71541,-1.473139 0.6185,-0.658358 1.7996,-0.896645 4.99374,-1.007505 4.27402,-0.148334 6.65599,0.337 6.65599,1.35618 0,0.57528 -0.38173,0.822456 -2.55797,1.656309 -2.03023,0.777911 -2.87164,1.282769 -4.75424,2.852663 -1.57697,1.315017 -4.64142,4.405907 -5.14752,5.191921 -0.20436,0.31738 -0.28809,0.685693 -0.21871,0.962094 0.27205,1.083913 7.23262,9.663898 10.00602,12.333978 1.45061,1.396574 1.84007,1.66794 2.7886,1.943109 0.6064,0.175907 1.46585,0.445588 1.9099,0.599287 0.7143,0.247247 0.84399,0.247343 1.12496,8.74e-4 0.17467,-0.153228 0.52852,-0.340146 0.78632,-0.415375 1.19051,-0.34739 1.6832,-0.704674 1.90358,-1.380414 0.30459,-0.933945 0.44029,-14.156038 0.17755,-17.300082 -0.25309,-3.028586 -0.3474,-3.27287 -1.36957,-3.547348 -1.7331,-0.465382 -2.11197,-0.656802 -2.28741,-1.155681 -0.36588,-1.040365 0.7759,-1.89535 3.80695,-2.850732 2.04953,-0.646007 3.54614,-0.802058 4.04991,-0.422279 0.36826,0.277642 0.37498,0.50193 0.37498,12.531497 0,9.71852 0.0511,12.371531 0.24741,12.842978 0.24343,0.584597 0.91222,1.026539 1.94183,1.283146 1.1961,0.298109 1.41106,1.507135 0.36421,2.04848 -1.7926,0.926997 -8.08809,0.875513 -9.71317,-0.07944 -0.49743,-0.292307 -0.63279,-0.308518 -0.80845,-0.09686 -0.41979,0.50581 -1.96306,0.866852 -4.03138,0.943112 -1.13432,0.04177 -2.32694,0.007 -2.65026,-0.07717 z m -39.96623,-0.231017 c -1.31579,-0.21901 -2.06866,-0.62984 -2.21377,-1.208029 -0.15871,-0.632349 0.29015,-1.103551 1.32805,-1.394145 1.94458,-0.544447 2.03996,-1.080915 1.91693,-10.781921 -0.11061,-8.723128 -0.34461,-10.871859 -1.2271,-11.268706 -0.17102,-0.07691 -0.80865,-0.188431 -1.41696,-0.247841 -0.90843,-0.08871 -1.17168,-0.196279 -1.47361,-0.602102 -0.74336,-0.999149 0.21844,-1.861754 3.72165,-3.33783 0.73124,-0.308107 1.67112,-0.614817 2.08864,-0.681586 1.30236,-0.208251 1.74495,0.569188 2.1876,3.842828 0.11745,0.868583 0.29634,1.604485 0.39752,1.635335 0.1012,0.03085 0.46802,-0.36245 0.81516,-0.874011 1.59619,-2.352183 4.45547,-4.372934 6.5362,-4.619367 2.85852,-0.338547 4.81556,2.314333 3.6312,4.922258 -0.97015,2.136189 -4.01296,2.354167 -5.17532,0.370751 -0.25696,-0.438482 -0.46721,-0.943155 -0.46721,-1.12151 0,-0.249937 -0.0967,-0.294369 -0.42185,-0.193831 -1.57317,0.486427 -3.36954,1.967607 -3.93957,3.248339 -0.60606,1.361687 -0.87882,3.46603 -0.99915,7.708563 -0.12287,4.330889 0.13514,10.219427 0.47562,10.85563 0.2799,0.522991 1.03609,0.891314 2.16878,1.056366 0.51425,0.0749 1.172,0.256589 1.46169,0.403681 0.43665,0.221719 0.51679,0.369817 0.46873,0.866241 -0.0749,0.773866 -0.83696,1.158067 -2.83705,1.430352 -1.71384,0.233315 -5.59897,0.228081 -7.02618,-0.0094 z m 63.15813,-0.0035 c -2.62821,-0.435869 -3.05119,-1.932491 -0.76113,-2.693125 1.23321,-0.409607 1.47353,-0.74659 1.68293,-2.35984 0.2405,-1.853032 0.23945,-15.198369 -0.002,-17.300457 -0.27178,-2.372231 -0.17501,-2.262744 -2.58078,-2.920183 -1.07149,-0.292805 -1.39493,-0.922103 -0.85237,-1.65838 0.85393,-1.15881 3.65242,-2.39034 5.911,-2.601248 1.09064,-0.10184 1.2731,-0.06992 1.62807,0.285088 0.36026,0.360255 0.40006,0.608298 0.40265,2.509074 0.002,1.160111 0.0715,2.217614 0.15562,2.350007 0.25703,0.405089 0.70385,0.07062 1.78097,-1.333082 2.32896,-3.035142 5.29701,-4.249805 9.1636,-3.75019 4.41874,0.570953 6.92084,3.003661 8.23216,8.003832 0.11947,0.45541 0.25917,4.107255 0.33814,8.83826 0.16358,9.799385 0.002,9.139762 2.50992,10.201127 0.84072,0.355694 0.89879,0.423634 0.84373,0.987334 -0.12084,1.237001 -2.29982,1.771144 -6.52765,1.600158 -2.80343,-0.113385 -3.82036,-0.365779 -4.34982,-1.079595 -0.52466,-0.707333 -0.2652,-1.072648 1.25343,-1.764713 0.74272,-0.338468 1.41535,-0.773856 1.49472,-0.967521 0.238,-0.580777 0.51602,-9.326077 0.39494,-12.423478 -0.19299,-4.93688 -0.97943,-7.359607 -2.7863,-8.583525 -1.98308,-1.34329 -5.1499,-1.321861 -7.86349,0.05323 -1.26561,0.641342 -3.12742,2.437464 -3.81746,3.682766 l -0.5442,0.982021 -0.0556,6.803763 c -0.0575,7.034467 0.0808,9.19565 0.62726,9.799473 0.17391,0.192153 0.7182,0.482896 1.20955,0.646095 1.12531,0.373776 1.58508,0.853954 1.42569,1.488985 -0.15157,0.603918 -0.87815,0.975623 -2.38503,1.220125 -1.42328,0.230939 -5.09454,0.221963 -6.52921,-0.01599 z m 79.71137,0.0035 c -1.31579,-0.21901 -2.06865,-0.62984 -2.21377,-1.208029 -0.15872,-0.632349 0.29015,-1.103551 1.32805,-1.394145 1.94458,-0.544447 2.03996,-1.080915 1.91693,-10.781921 -0.11063,-8.723128 -0.3446,-10.871859 -1.2271,-11.268706 -0.17101,-0.07691 -0.80864,-0.188431 -1.41696,-0.247841 -0.90843,-0.08871 -1.17169,-0.196279 -1.4736,-0.602102 -0.74337,-0.999149 0.21842,-1.861754 3.72163,-3.33783 0.73124,-0.308107 1.67114,-0.614817 2.08864,-0.681586 1.30239,-0.208251 1.74495,0.569188 2.1876,3.842828 0.11746,0.868583 0.29634,1.604485 0.39753,1.635335 0.10118,0.03085 0.46801,-0.36245 0.81516,-0.874011 1.59618,-2.352183 4.45547,-4.372934 6.53621,-4.619367 2.85851,-0.338547 4.81557,2.314333 3.63118,4.922258 -0.97014,2.136189 -4.01294,2.354167 -5.1753,0.370751 -0.25698,-0.438482 -0.46721,-0.943155 -0.46721,-1.12151 0,-0.249937 -0.0967,-0.294369 -0.42186,-0.193831 -1.57319,0.486427 -3.36955,1.967607 -3.93956,3.248339 -0.60606,1.361687 -0.87882,3.46603 -0.99917,7.708563 -0.12284,4.330889 0.13514,10.219427 0.47563,10.85563 0.27989,0.522991 1.03609,0.891314 2.16879,1.056366 0.51423,0.0749 1.172,0.256589 1.46169,0.403681 0.43666,0.221719 0.51678,0.369817 0.46874,0.866241 -0.0749,0.773866 -0.83698,1.158067 -2.83708,1.430352 -1.71382,0.233315 -5.59896,0.228081 -7.02617,-0.0094 z m 53.78349,-0.0035 c -2.62821,-0.435869 -3.05119,-1.932491 -0.76113,-2.693125 0.49134,-0.1632 1.03566,-0.453959 1.20958,-0.646147 0.54383,-0.600922 0.65525,-3.31919 0.65364,-15.946961 -0.002,-14.960805 -0.19099,-18.261416 -1.07275,-18.724315 -0.17696,-0.0929 -0.70142,-0.228998 -1.16546,-0.302445 -1.84438,-0.291922 -2.26163,-1.283189 -0.98434,-2.338602 0.82358,-0.680519 4.18827,-1.8353 5.8203,-1.997556 1.27151,-0.126415 1.68198,0.103361 1.88699,1.056296 0.077,0.358168 0.0671,3.393291 -0.022,6.744721 -0.1972,7.413292 -0.041,28.759638 0.22075,30.163238 0.23013,1.234327 0.55047,1.608968 1.70299,1.991771 1.12531,0.373775 1.58509,0.853953 1.42569,1.488984 -0.15157,0.603919 -0.87814,0.975623 -2.38501,1.220125 -1.42328,0.230939 -5.09456,0.221963 -6.52923,-0.01599 z M 174.13782,18.031072 c -0.30936,-0.137498 -0.75434,-0.458172 -0.98881,-0.712612 -1.63044,-1.769169 -0.0813,-4.834994 2.443,-4.834994 0.93123,0 2.21031,0.733673 2.6099,1.497015 1.25445,2.396388 -1.53366,5.175247 -4.06409,4.050591 z"
       id="path8519" />
  </g>
</svg>
