<?xml version="1.0" encoding="UTF-8" standalone="no"?>
<!-- Created with Inkscape (http://www.inkscape.org/) -->

<svg
   version="1.1"
   id="svg2"
   width="3042.6667"
   height="650.66669"
   viewBox="0 0 3042.6667 650.66669"
   xmlns="http://www.w3.org/2000/svg"
   xmlns:svg="http://www.w3.org/2000/svg">
  <defs
     id="defs6" />
  <g
     id="g8">
    <path
       id="rect9"
       style="fill:#74403f;fill-opacity:1;stroke:none;stroke-width:2.98343;stroke-opacity:1"
       d="M 972.63057,0 V 325.4149 H 1298.0396 V 0 Z M 1230.93,29.60702 c 6.0355,0 11.6423,3.21124 11.6423,9.90009 0,4.29912 -2.0672,6.74976 -6.0949,7.77905 v 0.11068 c 4.6273,1.08298 6.9619,4.40503 7.0215,9.13675 0,7.67341 -6.3111,11.36851 -13.3848,11.36851 -7.2378,0 -12.8368,-3.3672 -12.8368,-12.72621 h 6.9633 c 0,3.96796 2.0108,6.63696 6.0892,6.63696 3.4846,0 5.553,-2.34217 5.553,-5.71046 0,-4.13801 -2.6111,-5.49488 -5.4423,-5.49488 h -2.663 v -5.76872 h 2.6689 c 2.7209,0 4.8365,-1.2522 4.8365,-4.13718 0,-3.09978 -1.7952,-4.99957 -4.8949,-4.99957 -3.7532,0 -4.9525,3.26331 -5.221,6.36309 l -7.2369,-1.52668 c 1.1933,-7.17813 5.7651,-10.93146 12.9999,-10.93146 z m 20.2489,0.65263 h 20.6742 l -0.705,6.42138 h -14.3055 l -1.1421,7.72078 c 1.9005,-1.68266 4.1876,-2.6105 6.637,-2.6105 7.8852,0 11.6425,5.82078 11.6425,12.67372 0,8.49083 -5.9319,13.43707 -13.7634,13.43707 -6.9097,0 -12.5701,-3.4264 -12.8953,-10.87902 l 7.6161,-0.58851 c 0.054,3.09978 2.0678,5.70464 5.3317,5.70464 4.4572,0 6.0948,-3.75238 6.0948,-7.61592 0,-4.8958 -2.5061,-6.96326 -6.2055,-6.96326 -2.7209,0 -4.2413,1.19785 -5.2735,3.54282 l -6.3109,-0.48946 z m 362.7659,43.05575 c -4.7616,0 -15.7913,1.5081 -30.3295,6.5262 -9.2755,3.2579 -14.043,5.2637 -14.043,10.5294 0,3.7592 1.753,4.7605 5.7687,6.0135 5.2598,1.7602 9.5267,2.2605 11.5316,4.516 3.2579,3.7591 3.5079,18.1001 3.5079,55.4556 v 15.7912 c 0,14.5382 0.2506,26.071 0.2506,35.5971 0,17.0503 -1.0012,26.0754 -6.264,29.0827 -4.2633,2.2525 -9.5273,2.2537 -9.5273,8.0237 0,8.5236 9.5258,9.7778 31.8389,9.7778 20.0575,0 29.333,-1.7524 29.333,-9.026 0,-8.0225 -9.5261,-6.7703 -13.0405,-10.78 -3.0073,-3.5086 -3.508,-15.5452 -3.508,-36.6052 v -5.5125 c 0,-4.7615 0.2506,-6.7768 2.5055,-6.7768 2.5061,0 14.0418,14.7954 36.1043,42.8694 10.2779,13.0406 16.0401,22.0604 23.063,24.5724 1.5037,0.5012 6.2629,1.2528 13.5365,1.2528 17.5485,0 25.5688,-2.7606 25.5688,-10.2788 0,-8.5237 -11.0348,-6.5194 -19.5555,-12.534 -6.0205,-4.5139 -18.0515,-17.797 -35.8536,-40.8589 -8.0224,-10.5315 -12.534,-16.3035 -12.534,-18.8096 0,-1.5036 2.0097,-3.7576 5.5242,-7.2721 7.017,-7.017 12.533,-12.7839 17.5452,-15.7912 10.5315,-6.2682 22.5622,-3.2583 22.5622,-13.035 0,-6.5188 -7.7674,-9.5271 -23.314,-9.5271 -21.3107,0 -31.5883,1.7552 -31.5883,10.2788 0,7.0141 9.5273,6.7644 9.5273,10.0283 0,3.0073 -5.764,8.7707 -16.0419,18.2968 -8.0224,7.2706 -13.2911,10.5294 -14.5442,10.5294 -2.2554,0 -2.5055,-2.5046 -2.5055,-7.7674 v -32.0893 c 0,-25.0757 1.5034,-38.412 1.5034,-51.6973 0,-7.5152 -1.5022,-10.7799 -7.0215,-10.7799 z m -591.5342,1.0663 h 85.1267 c 29.7239,0 53.5967,14.9864 53.5967,44.9729 0,19.8189 -10.9125,32.7692 -30.7374,36.5761 v 0.5128 c 24.8997,2.5418 38.8603,23.1224 38.8603,44.7165 0,45.2227 -32.2598,54.1211 -69.8599,54.1211 h -76.9864 z m 732.1867,2.9194 c -11.7816,0 -20.5549,8.2754 -20.5579,17.5509 0,8.7743 7.7742,15.5406 19.0545,15.5406 12.2858,0 20.8082,-7.7685 20.8082,-16.7934 0,-9.0219 -7.7739,-16.2981 -19.3048,-16.2981 z m -698.1336,24.0131 v 45.7361 h 40.3986 c 14.9857,0 28.7155,-5.8503 28.7155,-23.1274 0,-13.7237 -8.9026,-22.6087 -28.7155,-22.6087 z m 1004.5467,17.4285 c -9.7796,6.7694 -17.0455,10.2789 -23.8208,10.2789 -13.2852,-3.0073 -24.3174,-5.0112 -33.0916,-5.0112 -32.3374,0 -55.4031,20.8028 -55.4031,48.3816 0,13.0346 5.0148,24.0667 15.0451,32.5903 -12.2828,7.5212 -18.5531,15.7985 -18.5531,24.5668 0,8.5266 5.5221,15.2951 15.5464,18.8036 -12.0322,7.2706 -18.0521,13.5373 -18.0521,22.8128 0,17.3068 22.0603,33.849 56.6561,33.849 42.6183,0 70.6989,-21.31 70.6989,-47.3851 0,-17.8021 -12.7855,-27.8297 -36.5992,-27.8297 -13.5418,0 -26.5802,2.762 -39.3672,2.762 -16.5491,0 -24.8117,-3.5151 -24.8117,-11.7821 0,-3.0103 1.7534,-6.2694 5.2619,-10.0285 7.7748,2.7567 16.2994,4.0091 25.5689,4.0091 34.0975,0 56.1606,-20.0573 56.1606,-47.63 0,-7.5242 -1.7617,-14.0418 -5.2732,-20.8082 10.2779,-5.2688 15.5523,-12.2879 15.5523,-19.3049 0,-3.0043 -2.0126,-6.0189 -5.5182,-8.2744 z m -799.2789,4.9297 v 31.5124 c -21.0928,0 -40.1423,9.9037 -40.1423,37.8465 v 62.2558 h -30.9996 V 126.7199 h 30.9996 v 17.7782 h 0.5069 c 7.3721,-14.7322 21.5947,-20.8257 39.6354,-20.8257 z m 242.7881,0.338 c -33.5905,0 -52.8977,13.7868 -52.8977,28.325 0,7.2706 4.2582,12.0328 11.0306,12.0328 10.5315,0 13.7855,-7.0145 19.0543,-13.035 6.5217,-7.5212 13.5376,-11.2811 22.0612,-11.2811 12.0322,0 18.8093,8.2744 18.8093,23.3139 v 13.5419 c -9.2754,-1.5036 -17.2991,-2.255 -23.8149,-2.255 -36.1024,0 -56.1606,16.5436 -56.1606,43.3646 0,23.3185 16.8003,39.1109 41.6164,39.1109 22.3101,0 33.3356,-13.2857 37.3513,-13.2857 2.5061,0 9.027,13.2857 18.559,13.2857 16.2925,0 28.5813,-8.5266 28.5813,-16.0478 0,-5.2628 -4.5113,-5.2613 -12.0385,-7.5167 -3.7591,-1.0025 -5.0142,-6.2682 -5.0172,-15.0455 V 177.409 c 0,-18.0497 -0.4997,-30.5872 -7.0215,-38.8603 -7.2706,-9.2754 -20.8073,-14.5383 -40.113,-14.5383 z m 261.8598,0 c -2.5061,0 -15.543,1.7526 -32.8409,8.519 -6.7665,2.7597 -10.2788,5.5116 -10.2788,9.5213 0,6.2682 7.5245,5.7682 13.7867,9.0261 4.2663,2.2554 4.5157,13.0339 4.5157,33.5927 v 13.2857 c 0,7.5242 0.2506,13.5408 0.2506,18.8036 0,11.0327 -1.001,17.3057 -6.0191,20.0624 -4.2543,2.2524 -9.5273,2.248 -9.5273,8.0179 0,8.5237 9.7764,9.7779 32.0895,9.7779 20.0576,0 29.0824,-1.7525 29.0824,-9.0261 0,-6.7694 -5.5109,-6.0131 -11.2809,-9.271 -4.2603,-2.2524 -5.0113,-10.0285 -5.0113,-23.5643 0,-10.2779 0.2506,-21.0567 0.501,-32.0893 l 1.0024,-32.5904 c 0.2506,-5.5164 0.2506,-10.0277 0.2506,-13.2856 0,-7.2706 -1.5025,-10.7799 -6.5206,-10.7799 z m 114.6406,0 c -18.3033,0 -25.0721,8.5205 -32.5963,15.2958 l -3.0011,2.7562 c -0.2536,0.2506 -0.7542,0.5011 -1.2584,0.5011 -0.9994,0 -0.9964,-0.5009 -0.9964,-1.5033 v -1.5034 -7.0215 c 0,-5.764 -2.0153,-8.0238 -6.7769,-8.0238 -3.2579,0 -15.2927,1.7586 -31.5882,8.0238 -6.7724,2.7596 -10.2788,5.5116 -10.2788,9.5213 0,6.2682 7.5215,5.7681 13.7867,9.026 4.2663,2.2555 4.516,13.0339 4.516,33.5927 v 13.2855 c 0,7.5242 0.2506,13.5412 0.2506,18.804 0,11.0327 -0.9982,17.3056 -6.0193,20.0623 -4.2544,2.2525 -9.5273,2.248 -9.5273,8.018 0,8.5236 9.7794,9.7776 32.0894,9.7776 20.0606,0 29.0884,-1.7525 29.0884,-9.0261 0,-6.7694 -5.5139,-6.0128 -11.2869,-9.2707 -4.5079,-2.5061 -4.7606,-9.5335 -4.7606,-22.0669 0,-24.3179 0.2566,-41.1164 5.0169,-50.6425 4.508,-9.2755 13.5373,-15.0395 22.5622,-15.0395 23.3095,0 23.8092,20.8091 23.8092,61.1719 0,15.5407 -0.7479,24.065 -5.2619,26.571 -5.7669,3.255 -11.2752,2.5043 -11.2752,9.2767 0,7.5212 9.5261,8.7755 30.0849,8.7755 21.8088,0 31.3376,-1.0034 31.3376,-9.527 0,-5.767 -5.2697,-5.7685 -9.533,-8.0239 -5.0151,-2.7567 -5.7687,-8.2755 -5.7687,-18.3028 0,-4.5109 0.2506,-9.5258 0.2506,-15.5403 v -17.3006 c 0,-20.0575 -0.7498,-34.846 -10.78,-46.8782 -7.2706,-8.5237 -19.0519,-14.7889 -32.0835,-14.7889 z m -502.3113,0.01 c -38.8621,0 -66.4337,28.5766 -66.4337,68.4383 0,36.3501 27.071,64.4292 63.427,64.4292 17.295,0 30.0792,-5.7696 43.8716,-17.05 7.7659,-6.2652 11.7822,-12.5331 11.7822,-16.2922 0,-3.5085 -2.7672,-6.2756 -6.5263,-6.2756 -5.0121,0 -8.7745,4.7657 -14.5385,8.7754 -8.273,5.767 -16.7946,8.5249 -26.0701,8.5249 -22.5607,0 -39.105,-18.5522 -39.105,-38.8603 0,-6.7664 1.0037,-7.0158 9.7779,-7.0158 0.5012,0 1.0022,-1e-4 1.754,0.01 h 61.1659 c 11.2803,0 14.2936,-1.0087 14.2936,-12.7902 0,-31.8392 -20.557,-51.8895 -53.3986,-51.8895 z m 623.3907,16.0359 c 14.2846,0 24.817,11.5311 24.817,29.3332 0,17.2949 -10.783,28.826 -25.0676,28.826 -13.5448,0 -23.3197,-11.2804 -23.3197,-29.0766 0,-17.3009 10.5297,-29.0826 23.5703,-29.0826 z m -627.662,0.2506 c 17.3009,0 29.0827,13.2854 29.0827,29.0826 0,4.0098 -2.0034,4.7607 -8.0239,4.7607 h -41.3599 c -6.0146,0 -7.7733,-0.7509 -7.7733,-4.7607 0,-15.7972 11.2806,-29.0826 28.0744,-29.0826 z m -317.9737,32.1475 v 52.8567 h 44.2093 c 20.5797,0 33.0218,-6.3625 33.0218,-25.1611 0,-20.3289 -12.7043,-27.6956 -33.284,-27.6956 z m 447.5546,18.4951 c 5.5194,0 11.784,0.7512 18.5534,2.2548 v 18.804 c 0,17.041 -5.7685,24.3158 -23.0634,24.3158 -15.296,0 -24.5724,-9.0264 -24.5724,-22.3116 0,-14.2876 10.5285,-23.063 29.0824,-23.063 z m 522.8981,61.9293 c 11.0298,0 16.7934,4.7619 16.7934,12.7843 0,12.0322 -15.5418,22.8128 -39.6061,22.8128 -21.5583,0 -33.8431,-8.5314 -33.8431,-19.8117 0,-5.5134 2.0036,-10.0276 6.5146,-14.282 5.7699,0.7518 11.0264,1.0021 16.0475,1.0021 14.7859,0 26.3189,-2.5055 34.0937,-2.5055 z m -728.8303,72.3771 v 325.4152 h 325.4268 V 325.2559 Z m 287.9708,27.4627 c 6.2055,0 10.3361,3.2141 11.3743,9.4107 l -7.0215,0.9266 c -0.2148,-2.6105 -1.8992,-4.2421 -4.4053,-4.2421 -5.2807,0 -6.4737,6.9048 -6.4737,11.2576 h 0.1104 c 0.9218,-1.3574 3.0454,-3.4261 7.2312,-3.4261 6.9096,0 10.9372,4.9495 10.9372,12.1843 0,6.8589 -5.005,12.19 -12.3472,12.19 -10.7731,0 -13.2216,-9.6317 -13.2216,-18.227 0,-11.695 4.5673,-20.074 13.8159,-20.074 z m -40.7542,0.6528 h 20.6802 l -0.7109,6.4212 h -14.3053 l -1.142,7.7268 c 1.9064,-1.6886 4.1875,-2.6165 6.6369,-2.6165 7.8912,0 11.6422,5.8207 11.6422,12.6796 0,8.4819 -5.9319,13.4371 -13.7634,13.4371 -6.9096,0 -12.5698,-3.4295 -12.895,-10.8791 l 7.6158,-0.6 c 0.054,3.0998 2.0678,5.7103 5.3317,5.7103 4.4632,0 6.0951,-3.7493 6.0951,-7.6158 0,-4.8958 -2.5063,-6.9633 -6.2058,-6.9633 -2.7149,0 -4.2412,1.1949 -5.2735,3.5369 l -6.3105,-0.4837 z m 40.1599,19.369 c -3.4846,0 -5.3901,2.2823 -5.3901,6.0892 0,3.8068 1.9055,6.0948 5.3901,6.0948 3.4787,0 5.3899,-2.288 5.3899,-6.0948 0,-3.8069 -1.9112,-6.0892 -5.3899,-6.0892 z m 169.4375,26.6175 c -6.2682,0 -15.046,1.4998 -26.0698,5.5125 -10.5285,3.7591 -15.7913,6.2688 -15.7913,11.7822 0,5.7699 5.2577,5.7684 11.2753,7.7733 6.5158,2.2525 8.0236,6.017 8.0236,17.5509 v 9.0726 c 0,4.0157 -0.2506,6.27 -1.7539,6.27 -2.0019,0 -12.7807,-7.5171 -30.3352,-7.5171 -36.0995,0 -61.6672,28.5735 -61.6672,70.1923 0,37.6031 22.8065,61.9178 53.8939,61.9178 10.7791,0 20.3111,-3.7571 30.0848,-11.0307 5.764,-4.2603 8.7695,-7.0215 9.5213,-7.0215 0.5072,0 1.0081,1.0078 1.0081,3.2633 v 6.264 c 0,5.761 2.0037,8.2683 6.7653,8.2683 3.2579,0 12.2845,-1.0016 21.0588,-4.0089 13.0346,-4.2603 19.8058,-6.2687 19.8058,-12.2833 0,-7.5212 -10.0273,-5.0164 -15.5407,-9.0261 -3.5145,-2.5061 -3.7642,-24.3164 -3.7642,-67.1853 0,-52.6395 1.5033,-75.0015 1.5033,-79.2648 0,-7.5213 -2.2539,-10.5295 -8.0179,-10.5295 z m -432.4686,0.2865 v 0 h 85.0974 c 29.7299,0 53.6086,14.9896 53.6086,44.9671 0,19.8159 -10.9241,32.7574 -30.7489,36.5762 v 0.5125 c 24.9056,2.5359 38.8776,23.1112 38.8776,44.6992 0,45.2288 -32.2625,54.1385 -69.8716,54.1385 h -76.9691 z m 34.0415,26.9266 v 45.7302 h 40.3926 c 14.9798,0 28.7098,-5.8415 28.7098,-23.1096 0,-13.7178 -8.8969,-22.6206 -28.7098,-22.6206 z m 186.2076,22.3757 c 27.7071,0 55.3915,5.5876 55.3915,42.1585 v 67.8321 0 c 0,13.2106 3.0469,18.8051 4.8191,21.6006 H 1570.12 c -2.0227,-3.0521 -3.0416,-8.3921 -3.0416,-11.6947 -11.9396,9.6543 -25.928,14.7306 -41.9371,14.7306 -24.3865,0 -43.6908,-15.4932 -43.6908,-40.381 0,-25.1622 20.0701,-36.35 39.1282,-40.1599 l 12.9535,-2.5287 c 11.1819,-2.2853 25.67,-4.8353 33.5462,-7.6277 v -3.8051 c 0,-12.7034 -10.9303,-16.2573 -24.4035,-16.2573 -18.0348,0 -23.885,5.3305 -23.885,19.3108 l -30.9939,-1.2763 c 0,-30.2281 26.6736,-41.9019 54.8789,-41.9019 z m 159.5784,18.1512 c 11.0327,0 21.8124,5.7586 27.0722,12.7786 2.5061,3.2579 2.5058,8.0284 2.5058,15.0454 v 34.8512 c 0,19.2998 -10.0279,29.0768 -27.824,29.0768 -18.3034,0 -32.841,-18.5534 -32.841,-48.3817 0,-27.5818 12.7837,-43.3703 31.087,-43.3703 z m -345.7804,30.6093 v 52.8392 h 44.192 c 20.5857,0 33.0451,-6.3505 33.0451,-25.1551 0,-20.3201 -12.71,-27.6841 -33.2897,-27.6841 z m 210.6055,18.5414 c -4.0545,2.0347 -9.1484,3.5601 -14.7423,4.5685 l -17.0264,3.5661 c -11.6831,2.2853 -21.3327,5.582 -21.3327,17.7783 0,9.6603 8.8802,16.0126 20.068,16.0126 14.4816,0 33.0334,-7.1155 33.0334,-23.6228 z" />
  </g>
</svg>
