<?xml version="1.0" encoding="UTF-8" standalone="no"?>
<!-- Created with Inkscape (http://www.inkscape.org/) -->

<svg
   version="1.1"
   id="svg2"
   width="391.95929"
   height="77.270828"
   viewBox="0 0 391.95929 77.270828"
   xmlns="http://www.w3.org/2000/svg"
   xmlns:svg="http://www.w3.org/2000/svg">
  <defs
     id="defs6">
    <rect
       x="-1.4271418"
       y="-123.7207"
       width="396.75294"
       height="92.541129"
       id="rect3821" />
  </defs>
  <g
     id="g8">
    <path
       id="path14344"
       style="font-size:12px;line-height:1.25;font-family:'Cooper*';-inkscape-font-specification:'Cooper*';letter-spacing:-0.181593px;word-spacing:-1.10601px;white-space:pre;fill:#74403f;stroke-width:5.63281"
       d="M 143.49219 7.9765625 C 142.44449 7.9765625 138.01686 8.8210937 136.05664 9.6660156 C 134.50198 10.341953 133.82617 10.612109 133.82617 11.457031 C 133.82617 12.132969 134.29867 12.605469 134.97461 12.605469 C 135.65054 12.605469 136.15695 12.132812 137.33984 12.132812 C 138.8607 12.132812 139.03125 14.161156 139.03125 25.888672 L 139.03125 36.365234 C 139.03125 45.963547 138.8951 50.965562 138.08398 52.925781 C 137.71221 53.8045 136.83355 54.244141 136.19141 54.244141 C 135.61687 54.244141 135.04193 53.972656 134.43359 53.972656 C 133.79145 53.972656 133.55469 54.480141 133.55469 55.054688 C 133.55469 56.305172 134.90679 56.845703 140.99023 56.845703 C 147.71581 56.845703 148.89844 55.933485 148.89844 54.716797 C 148.89844 54.176047 148.35793 53.837891 147.88477 53.837891 C 147.24263 53.837891 146.93807 54.074219 146.12695 54.074219 C 145.45101 54.074219 144.9448 53.905469 144.64062 53.060547 C 144.20127 51.84386 143.89648 49.310594 143.89648 43.193359 C 143.89648 42.010469 144.0665 41.638672 144.50586 41.638672 C 144.87762 41.638672 145.04673 41.907625 145.72266 42.71875 L 151.26562 49.580078 C 154.23976 53.263938 155.59011 55.460438 156.13086 55.933594 C 156.57022 56.30536 157.11118 56.339844 158.56445 56.339844 L 162.62109 56.339844 C 164.31094 56.339844 164.7832 56.102141 164.7832 55.291016 C 164.7832 54.141922 164.10781 54.041016 162.41797 54.041016 C 161.77583 54.041016 161.33644 53.634671 160.86328 53.195312 C 159.91697 52.282797 158.53154 50.661203 156.40234 47.822266 L 149.91406 39.136719 C 149.00154 37.920032 149.03458 38.020703 149.8457 37.175781 L 153.5625 33.898438 C 156.73941 31.093297 157.85498 30.451172 159.10547 30.451172 C 159.47723 30.451172 160.01843 30.654297 160.52539 30.654297 C 161.26892 30.654297 162.01172 30.349 162.01172 29.605469 C 162.01172 28.287391 160.0851 27.78125 156.13086 27.78125 C 151.73727 27.78125 150.85937 28.389203 150.85938 29.470703 C 150.85938 30.146641 151.33188 30.382813 152.00781 30.382812 C 152.24439 30.382812 152.41365 30.349609 152.54883 30.349609 C 152.75161 30.349609 153.02148 30.350125 153.02148 30.654297 C 153.02148 31.397828 152.61732 31.668093 150.38672 33.662109 L 147.68164 36.027344 C 146.63394 36.939859 145.04543 38.191406 144.57227 38.191406 C 144.09911 38.191406 144.09961 37.616579 144.09961 36.873047 L 144.09961 26.125 C 144.09961 15.107218 144.30273 11.896687 144.30273 9.328125 C 144.30273 8.4156094 144.20192 7.9765625 143.49219 7.9765625 z M 322.06641 7.9765625 C 321.01871 7.9765625 316.55788 8.8210937 314.59766 9.6660156 C 313.04301 10.341953 312.40234 10.612109 312.40234 11.457031 C 312.40234 12.132969 312.84165 12.605469 313.51758 12.605469 C 314.19352 12.605469 314.73313 12.132813 315.91602 12.132812 C 317.43688 12.132812 317.60547 14.161156 317.60547 25.888672 L 317.60547 36.365234 C 317.60547 45.963547 317.43807 50.965562 316.62695 52.925781 C 316.25518 53.8045 315.40972 54.244141 314.76758 54.244141 C 314.19303 54.244141 313.58491 53.972656 312.97656 53.972656 C 312.33442 53.972656 312.09766 54.480141 312.09766 55.054688 C 312.09766 56.305172 313.44976 56.845703 319.5332 56.845703 C 326.25878 56.845703 327.44141 55.933485 327.44141 54.716797 C 327.44141 54.176047 326.93409 53.837891 326.46094 53.837891 C 325.8188 53.837891 325.51425 54.074219 324.70312 54.074219 C 324.02718 54.074219 323.52097 53.905469 323.2168 53.060547 C 322.64225 51.505891 322.64258 44.577781 322.64258 35.925781 L 322.64258 26.125 C 322.64258 15.107218 322.87891 11.896687 322.87891 9.328125 C 322.87891 8.4156094 322.77615 7.9765625 322.06641 7.9765625 z M 175.45508 12.808594 C 173.52865 12.808594 171.87109 14.227797 171.87109 16.492188 C 171.87109 18.722781 173.52865 20.175781 175.45508 20.175781 C 177.3815 20.175781 178.96875 18.722781 178.96875 16.492188 C 178.96875 14.227797 177.3815 12.808594 175.45508 12.808594 z M 23.570312 12.876953 C 21.407311 12.876953 19.379297 13.416969 17.689453 14.363281 C 14.47875 16.086922 12.382812 19.162765 12.382812 22.238281 C 12.382812 23.252187 12.721484 23.691406 13.566406 23.691406 C 14.647906 23.691406 14.613374 22.474251 15.052734 21.494141 C 16.438406 18.283438 18.568 16.695312 21.8125 16.695312 C 26.070906 16.695312 28.976562 19.635796 28.976562 24.46875 C 28.976562 29.301703 24.753015 33.662656 22.691406 35.521484 C 22.218249 35.960844 22.015625 36.298501 22.015625 36.873047 C 22.015625 37.650376 22.724625 38.054859 23.501953 38.15625 C 24.684843 38.291437 25.799952 38.563187 26.847656 38.96875 C 30.125953 40.253031 32.423828 42.888249 32.423828 47.248047 C 32.423828 53.737047 27.421328 58.941406 21.337891 58.941406 C 16.606328 58.941406 13.902735 56.98214 12.212891 55.664062 C 11.604547 55.190906 11.300687 54.886719 10.861328 54.886719 C 10.252984 54.886719 9.8476563 55.393438 9.8476562 55.900391 C 9.8476562 58.266172 14.95089 62.119141 22.082031 62.119141 C 30.227078 62.119141 38.642578 54.953532 38.642578 45.591797 C 38.642578 39.947718 36.039641 35.857969 31.003906 33.492188 C 30.361766 33.188015 29.720703 32.714922 29.720703 32.376953 C 29.720703 32.140375 30.463578 31.127453 30.869141 30.654297 C 32.93075 28.288516 34.519531 25.652109 34.519531 22.441406 C 34.519531 17.878828 30.83664 12.876953 23.570312 12.876953 z M 244.82227 26.970703 C 244.14633 26.970703 243.46914 28.119749 241.7793 28.863281 C 241.20475 29.133656 240.59722 29.402344 239.95508 29.402344 C 238.73839 29.402344 237.92594 29.099094 237.25 28.794922 C 235.89812 28.152781 234.2767 27.443359 231.97852 27.443359 C 226.33444 27.443359 220.75781 31.330282 220.75781 37.210938 C 220.75781 40.489235 221.9069 42.888531 224.20508 44.341797 C 224.67824 44.645969 224.94922 44.747625 224.94922 44.882812 C 224.94922 45.051797 224.61065 45.152688 224.20508 45.355469 C 222.17727 46.403173 220.82617 48.160124 220.82617 50.830078 C 220.82617 52.384734 221.33281 53.736859 222.17773 54.818359 C 222.27912 54.953547 222.44727 55.121859 222.44727 55.189453 C 222.44727 55.32464 222.41313 55.325156 222.24414 55.494141 C 221.26404 56.575641 220.25195 58.199094 220.25195 60.429688 C 220.25195 64.992266 222.65 68.675781 232.78906 68.675781 C 240.86651 68.675781 245.0918 63.437048 245.0918 57.792969 C 245.0918 53.771141 241.91566 51.203125 236.71094 51.203125 C 232.7567 51.203125 231.16748 51.84375 228.19336 51.84375 C 226.26693 51.84375 224.20508 51.3375 224.20508 48.802734 C 224.20508 47.721234 224.88181 46.875922 225.82812 46.267578 C 226.53787 45.828219 226.80826 45.625 227.38281 45.625 C 228.12634 45.625 228.90331 45.863281 230.62695 45.863281 C 236.71039 45.863281 240.76562 41.13075 240.76562 35.689453 C 240.76562 34.810734 240.63086 33.93214 240.63086 33.458984 C 240.63086 33.087218 241.20467 33.019953 242.11719 32.884766 C 243.90842 32.648188 245.69922 29.471187 245.69922 28.220703 C 245.69922 27.308187 245.22783 26.970703 244.82227 26.970703 z M 58.722656 27.410156 C 57.674953 27.410156 54.464891 28.118906 52.572266 29.132812 C 51.01761 29.977735 50.542969 30.551562 50.542969 31.396484 C 50.542969 31.937234 50.949062 32.310547 51.625 32.310547 C 52.300937 32.310547 52.672578 31.769531 53.855469 31.769531 C 55.376328 31.769531 55.882812 33.323264 55.882812 45.050781 L 55.882812 49.783203 C 55.882812 56.001829 55.343406 61.205375 55.140625 63.300781 C 55.039234 64.1795 54.903172 65.330078 53.855469 65.330078 C 53.010547 65.330078 52.673047 64.6875 51.828125 64.6875 C 51.185984 64.6875 50.746094 65.059626 50.746094 65.667969 C 50.746094 66.884657 52.537796 67.627984 57.167969 68.236328 C 59.161984 68.506703 60.920203 68.640625 62.238281 68.640625 C 64.536469 68.640625 65.482422 68.235375 65.482422 67.289062 C 65.482422 66.646922 65.041766 66.208984 64.332031 66.208984 C 63.825078 66.208984 63.487423 66.376953 62.980469 66.376953 C 61.932766 66.376953 61.223922 65.836594 60.818359 64.6875 C 60.412797 63.572203 60.345703 62.186797 60.345703 56.779297 C 60.345703 56.035766 60.344437 54.953125 60.75 54.953125 C 60.986578 54.953125 61.190234 55.021747 62.035156 55.5625 C 63.420828 56.441219 65.718109 57.117188 67.644531 57.117188 C 75.417815 57.117188 80.994141 49.682157 80.994141 41.537109 C 80.994141 33.189281 77.58119 27.443359 69.402344 27.443359 C 66.225438 27.443359 63.420563 29.335234 61.494141 32.376953 C 60.885797 33.357062 60.581093 33.864641 60.412109 33.898438 C 60.209327 33.932237 60.208984 33.289375 60.208984 31.9375 C 60.208984 30.653219 60.142578 29.706844 60.142578 28.828125 C 60.142578 27.915609 59.736562 27.410156 58.722656 27.410156 z M 345.04102 27.443359 C 336.35523 27.443359 331.11523 34.370594 331.11523 43.292969 C 331.11523 51.539407 335.84731 57.183594 344.09375 57.183594 C 351.1911 57.183594 354.70508 52.89161 354.70508 51.167969 C 354.70508 50.458235 354.50364 50.222656 353.96289 50.222656 C 352.78 50.222656 351.15675 53.837891 346.45898 53.837891 C 341.28806 53.837891 337.80729 50.187735 336.6582 44.949219 C 336.45542 44.036703 336.45508 42.753812 336.45508 42.314453 C 336.45508 41.638515 336.86068 41.400391 338.00977 41.400391 L 354.70508 41.46875 C 355.17824 41.46875 355.7207 41.299578 355.7207 40.589844 L 355.7207 38.529297 C 355.7207 34.304688 352.34115 27.443359 345.04102 27.443359 z M 370.58203 27.578125 C 364.46479 27.578125 361.55859 32.040171 361.55859 36.535156 C 361.55859 42.314422 365.98439 44.443454 370.98633 44.882812 C 375.92068 45.322173 377.7793 46.944516 377.7793 49.546875 C 377.7793 51.98025 375.82057 54.851563 371.35938 54.851562 C 368.52044 54.851562 366.11995 53.535063 364.29492 48.871094 C 363.92315 47.958578 363.21337 47.28125 361.96289 47.28125 C 361.45593 47.28125 361.25391 47.78875 361.25391 49.140625 C 361.25391 52.080953 362.80886 53.805547 363.34961 54.3125 C 364.05934 54.988437 365.00579 55.63036 366.12109 56.103516 C 367.43917 56.678063 368.99375 57.048828 370.68359 57.048828 C 377.71334 57.048828 381.63281 52.284203 381.63281 47.113281 C 381.63281 42.04375 377.67881 39.610718 372.16992 38.867188 C 367.10039 38.191251 364.83594 37.311422 364.83594 34.371094 C 364.83594 31.70114 367.20141 29.876953 370.41211 29.876953 C 372.43993 29.876953 374.94093 30.856266 376.19141 32.478516 C 376.73216 33.188251 377.07143 34.134015 377.3418 34.84375 C 377.64598 35.621078 377.98355 36.027344 379.03125 36.027344 C 379.87617 36.027344 380.58594 35.318156 380.58594 33.662109 C 380.58594 31.70189 379.40205 27.984375 378.08398 27.984375 C 377.61082 27.984375 377.03692 28.998047 376.1582 28.998047 C 375.38088 28.998047 373.31958 27.578125 370.58203 27.578125 z M 285.7793 27.748047 C 281.01394 27.748047 278.81664 27.949063 277.80273 28.625 C 277.39717 28.895375 277.19336 29.200077 277.19336 29.707031 C 277.19336 30.247781 277.80223 30.654297 278.27539 30.654297 C 278.91753 30.654297 279.22208 30.417969 280.0332 30.417969 C 280.70914 30.417969 281.51953 30.789251 281.51953 31.667969 L 281.51953 43.158203 C 281.51953 47.720781 281.68931 51.438984 283.14258 53.466797 C 284.73103 55.697391 286.72451 57.048828 290.50977 57.048828 C 294.4302 57.048828 297.13345 55.358469 299.43164 52.519531 C 299.97239 51.843594 300.2095 51.371094 300.51367 51.371094 C 300.78405 51.371094 300.98633 51.676218 300.98633 52.318359 C 300.98633 53.940609 301.08841 55.393609 301.39258 56.001953 C 301.79814 56.813078 302.03441 57.015625 302.74414 57.015625 C 303.79185 57.015625 306.05736 56.508984 308.01758 55.664062 C 309.57223 54.988124 309.77344 54.717969 309.77344 53.873047 C 309.77344 53.433688 309.50364 53.060547 308.96289 53.060547 C 308.28695 53.060547 308.05 53.365234 307.20508 53.365234 C 306.08979 53.365234 305.2793 52.013766 305.2793 44.003906 L 305.2793 41.705078 C 305.2793 37.007312 305.71875 32.478031 305.71875 29.503906 C 305.71875 28.253422 305.41405 28.152344 304.63672 28.152344 L 300.58203 28.152344 C 298.18246 28.152344 296.79685 28.287032 296.01953 28.625 C 295.44498 28.895375 295.30859 29.199906 295.30859 29.605469 C 295.30859 30.146219 295.78186 30.654297 296.52539 30.654297 C 297.16753 30.654297 297.60685 30.484375 298.41797 30.484375 C 299.09391 30.484375 299.70229 30.586719 299.97266 31.431641 C 300.20924 32.175173 300.31055 34.067469 300.31055 36.230469 C 300.31055 38.528656 300.24414 41.13039 300.24414 43.158203 C 300.24414 49.038859 296.89717 53.398438 293.07812 53.398438 C 288.65073 53.398438 286.58984 50.626907 286.58984 44.070312 C 286.58984 33.660874 286.79297 29.606391 286.79297 28.998047 C 286.79297 28.085531 286.45524 27.748047 285.7793 27.748047 z M 127.61523 27.78125 C 124.7087 27.78125 122.6828 29.809421 121.06055 32.986328 C 120.65499 33.763656 120.01197 35.384766 119.77539 35.384766 C 119.43742 35.384766 119.4375 34.878703 119.4375 33.222656 C 119.4375 31.904578 119.37032 30.146125 119.30273 29.166016 C 119.23513 28.2535 119.19996 27.814453 118.49023 27.814453 C 117.44252 27.814453 114.09694 28.658984 112.13672 29.503906 C 110.58207 30.179844 109.90625 30.451953 109.90625 31.296875 C 109.90625 31.972812 110.38071 32.445312 111.05664 32.445312 C 111.73258 32.445312 111.90109 31.972656 113.08398 31.972656 C 114.60484 31.972656 115.04297 34.168265 115.04297 40.488281 L 115.04297 42.787109 C 115.04297 45.964015 115.31384 51.844547 114.57031 53.466797 C 114.16475 54.345516 113.59136 54.412109 112.94922 54.412109 C 112.37467 54.412109 111.46187 54.109375 110.85352 54.109375 C 110.21138 54.109375 109.97461 54.480141 109.97461 55.054688 C 109.97461 56.305172 111.32672 56.845703 117.41016 56.845703 C 124.13573 56.845703 125.65625 55.831921 125.65625 54.615234 C 125.65625 54.074484 125.11573 53.736328 124.64258 53.736328 C 124.00044 53.736328 123.02011 54.3125 122.20898 54.3125 C 121.53305 54.3125 121.05944 53.905469 120.78906 53.060547 C 120.28211 51.505891 119.94336 47.619656 119.94336 43.699219 C 119.94336 40.353328 121.90484 35.791734 123.76367 33.527344 C 123.89886 33.358359 124.03388 33.222656 124.43945 33.222656 C 125.85892 33.222656 126.06238 35.384766 128.29297 35.384766 C 129.84763 35.384766 131.13086 33.560515 131.13086 32.005859 C 131.13086 30.147031 130.04861 27.78125 127.61523 27.78125 z M 202.68555 27.78125 C 199.77902 27.78125 197.07538 29.809421 195.45312 32.986328 C 195.04756 33.763656 194.91184 34.472656 194.37109 34.472656 C 193.99932 34.472656 193.9668 33.831594 193.9668 33.189453 L 193.9668 29.166016 C 193.9668 28.2535 193.86404 27.814453 193.1543 27.814453 C 192.1066 27.814453 188.42311 28.658984 186.46289 29.503906 C 184.90823 30.179844 184.30078 30.451953 184.30078 31.296875 C 184.30078 31.972812 184.70492 32.445312 185.38086 32.445312 C 186.0568 32.445312 186.63156 31.972656 187.81445 31.972656 C 189.33531 31.972656 189.36914 32.478421 189.36914 40.488281 L 189.36914 42.787109 C 189.36914 45.964015 189.30211 51.844547 188.55859 53.466797 C 188.15302 54.345516 187.57769 54.412109 186.93555 54.412109 C 186.361 54.412109 185.45014 54.109375 184.8418 54.109375 C 184.19966 54.109375 183.96289 54.480141 183.96289 55.054688 C 183.96289 56.305172 185.315 56.845703 191.39844 56.845703 C 198.12401 56.845703 198.96875 56.169812 198.96875 54.953125 C 198.96875 54.412374 198.49464 54.074219 198.02148 54.074219 C 197.37934 54.074219 197.07479 54.3125 196.26367 54.3125 C 195.58773 54.3125 195.04772 53.905469 194.77734 53.060547 C 194.27039 51.505891 194.26953 46.268094 194.26953 42.347656 C 194.26953 36.467 197.58329 31.09375 201.40234 31.09375 C 206.84364 31.09375 207.14648 36.230515 207.14648 42.787109 C 207.14648 45.964015 207.11327 51.473375 206.33594 53.433594 C 205.99798 54.312313 205.55816 54.345703 204.91602 54.345703 C 204.34147 54.345703 203.70015 53.972656 203.0918 53.972656 C 202.44966 53.972656 202.21289 54.480141 202.21289 55.054688 C 202.21289 56.305172 203.565 56.845703 209.64844 56.845703 C 216.37402 56.845703 217.21875 55.933485 217.21875 54.716797 C 217.21875 54.176047 216.74463 53.837891 216.27148 53.837891 C 215.62934 53.837891 215.32479 54.074219 214.51367 54.074219 C 213.83773 54.074219 213.33151 53.905469 213.02734 53.060547 C 212.45279 51.505891 212.14844 46.268094 212.14844 42.347656 C 212.14844 37.717484 212.18229 33.661547 210.25586 31.025391 C 208.7688 28.997578 206.80877 27.78125 202.68555 27.78125 z M 273.11328 27.78125 C 270.20675 27.78125 268.17889 29.809421 266.55664 32.986328 C 266.15108 33.763656 265.51002 35.384766 265.27344 35.384766 C 264.93547 35.384766 264.93555 34.878703 264.93555 33.222656 C 264.93555 31.904578 264.86642 30.146125 264.79883 29.166016 C 264.73123 28.2535 264.69801 27.814453 263.98828 27.814453 C 262.94057 27.814453 259.59499 28.658984 257.63477 29.503906 C 256.08012 30.179844 255.4043 30.451953 255.4043 31.296875 C 255.4043 31.972812 255.8768 32.445312 256.55273 32.445312 C 257.22867 32.445312 257.39914 31.972656 258.58203 31.972656 C 260.10289 31.972656 260.54102 34.168265 260.54102 40.488281 L 260.54102 42.787109 C 260.54102 45.964015 260.81189 51.844547 260.06836 53.466797 C 259.6628 54.345516 259.08745 54.412109 258.44531 54.412109 C 257.87076 54.412109 256.95796 54.109375 256.34961 54.109375 C 255.70747 54.109375 255.47266 54.480141 255.47266 55.054688 C 255.47266 56.305172 256.82281 56.845703 262.90625 56.845703 C 269.63183 56.845703 271.1543 55.831921 271.1543 54.615234 C 271.1543 54.074484 270.61182 53.736328 270.13867 53.736328 C 269.49653 53.736328 268.51816 54.3125 267.70703 54.3125 C 267.0311 54.3125 266.55749 53.905469 266.28711 53.060547 C 265.78016 51.505891 265.44141 47.619656 265.44141 43.699219 C 265.44141 40.353328 267.40289 35.791734 269.26172 33.527344 C 269.39691 33.358359 269.53193 33.222656 269.9375 33.222656 C 271.35697 33.222656 271.55847 35.384766 273.78906 35.384766 C 275.34372 35.384766 276.62891 33.560515 276.62891 32.005859 C 276.62891 30.147031 275.54666 27.78125 273.11328 27.78125 z M 176.40039 27.814453 C 175.35269 27.814453 171.26295 28.658984 169.30273 29.503906 C 167.74808 30.179844 167.07227 30.451953 167.07227 31.296875 C 167.07227 31.972812 167.54673 32.445312 168.22266 32.445312 C 168.8986 32.445312 169.405 31.972656 170.58789 31.972656 C 172.10875 31.972656 172.21094 32.478421 172.21094 40.488281 L 172.21094 42.787109 C 172.21094 45.964015 172.14315 50.965562 171.33203 52.925781 C 170.96026 53.8045 170.08159 54.244141 169.43945 54.244141 C 168.86491 54.244141 168.28999 53.972656 167.68164 53.972656 C 167.0395 53.972656 166.80273 54.480141 166.80273 55.054688 C 166.80273 56.305172 168.15484 56.845703 174.23828 56.845703 C 180.96386 56.845703 182.14648 55.933485 182.14648 54.716797 C 182.14648 54.176047 181.60597 53.837891 181.13281 53.837891 C 180.49067 53.837891 180.18613 54.074219 179.375 54.074219 C 178.69907 54.074219 178.22604 53.905469 177.92188 53.060547 C 177.34733 51.505891 177.21289 46.268094 177.21289 42.347656 L 177.21289 29.166016 C 177.21289 28.2535 177.11012 27.814453 176.40039 27.814453 z M 95.585938 28.017578 C 91.293734 28.017578 87.677625 29.6405 86.460938 31.871094 C 86.156766 32.411844 85.988281 32.984813 85.988281 33.626953 C 85.988281 35.080219 86.833078 35.925781 88.21875 35.925781 C 89.401641 35.925781 90.313532 35.318422 90.921875 34.203125 C 91.496422 33.155422 91.496187 32.074203 91.935547 31.296875 C 92.4425 30.418156 93.490687 29.841797 94.910156 29.841797 C 99.337547 29.841797 100.18164 32.344266 100.18164 36.873047 L 100.18164 39.542969 C 100.18164 40.793453 100.1142 41.0625 99.505859 41.0625 C 98.863718 41.0625 97.006172 40.724609 95.654297 40.724609 C 89.67225 40.724609 84.5 43.496375 84.5 49.039062 C 84.5 53.567844 87.203484 56.609375 92.408203 56.609375 C 94.537406 56.609375 96.835719 55.731876 98.626953 53.873047 C 99.505672 52.960532 100.14895 52.519531 100.45312 52.519531 C 100.75729 52.519531 100.8919 52.959172 101.26367 53.837891 C 101.97341 55.561531 103.08971 56.845703 105.32031 56.845703 C 107.24673 56.845703 108.83398 55.56239 108.83398 54.345703 C 108.83398 53.872546 108.59832 53.703125 108.22656 53.703125 C 107.92239 53.703125 107.75246 53.939453 107.2793 53.939453 C 105.96123 53.939453 105.11719 52.081704 105.11719 48.431641 L 105.11719 36.939453 C 105.11719 30.382859 101.06103 28.017578 95.585938 28.017578 z M 230.08594 29.402344 C 233.83739 29.402344 236.64258 33.695156 236.64258 38.595703 C 236.64258 41.468438 234.7169 43.869141 231.70898 43.869141 C 227.38298 43.869141 225.625 39.779282 225.625 34.777344 C 225.625 31.600438 227.2808 29.402344 230.08594 29.402344 z M 343.82422 29.742188 C 348.2854 29.742188 350.38086 34.135515 350.38086 37.650391 C 350.38086 38.157344 350.34602 39.339844 349.77148 39.339844 L 338.55078 39.271484 C 337.16511 39.271484 336.38867 39.271469 336.38867 38.494141 C 336.38867 38.020984 336.52413 36.839141 336.92969 35.65625 C 338.11258 32.276562 340.24175 29.742188 343.82422 29.742188 z M 67.847656 31.431641 C 73.288955 31.431641 76.431641 37.075781 76.431641 42.990234 C 76.431641 49.242656 72.814955 54.851563 68.117188 54.851562 C 62.709687 54.851562 60.244141 52.147687 60.244141 48.632812 L 60.244141 43.226562 C 60.244141 36.332 63.352671 31.431641 67.847656 31.431641 z M 97.072266 42.685547 C 97.849594 42.685547 98.594187 42.787282 99.236328 42.888672 C 100.18264 43.057657 100.18164 43.058016 100.18164 43.869141 L 100.18164 45.322266 C 100.18164 50.89875 96.970813 54.142578 93.962891 54.142578 C 91.326735 54.142578 89.705078 51.675297 89.705078 48.701172 C 89.705078 45.186297 92.239312 42.685547 97.072266 42.685547 z M 223.79883 56.40625 C 223.90022 56.40625 224.03567 56.440394 224.33984 56.609375 C 225.59033 57.285313 227.04419 57.658203 228.53125 57.658203 C 231.60677 57.658203 234.07378 56.914062 237.65625 56.914062 C 240.22481 56.914062 241.91406 57.556437 241.91406 60.125 C 241.91406 64.045437 238.29795 66.580078 232.78906 66.580078 C 225.72551 66.580078 222.78516 63.673579 222.78516 59.685547 C 222.78516 58.502657 223.05538 57.590422 223.46094 56.779297 C 223.56233 56.542719 223.69744 56.40625 223.79883 56.40625 z " />
  </g>
</svg>
