<?xml version="1.0" encoding="UTF-8" standalone="no"?>
<!-- Created with Inkscape (http://www.inkscape.org/) -->

<svg
   version="1.1"
   id="svg2"
   width="2282"
   height="488"
   viewBox="0 0 2282 488"
   xmlns="http://www.w3.org/2000/svg"
   xmlns:svg="http://www.w3.org/2000/svg">
  <defs
     id="defs6">
    <rect
       x="140.96185"
       y="-604.01578"
       width="1838.2387"
       height="687.34527"
       id="rect3304" />
  </defs>
  <g
     id="g8">
    <g
       aria-label="Giftwrap"
       transform="matrix(3.1794023,0,0,3.1794023,-138.36704,1907.2606)"
       id="text3302"
       style="font-size:144px;line-height:1.25;font-family:'MFEK Sans';-inkscape-font-specification:'MFEK Sans, Normal';letter-spacing:0px;word-spacing:0px;white-space:pre;shape-inside:url(#rect3304);fill:#73403f">
      <path
         d="m 198.27294,-475.52894 c 18.504,0 34.416,-9.432 40.176,-18.792 1.8,-2.952 2.232,-5.904 2.448,-9.936 0.216,-3.672 1.368,-7.056 3.312,-7.056 1.296,0 2.304,0.36 3.744,0.36 1.368,0 2.448,-0.504 2.448,-2.52 0,-2.52 -1.728,-3.816 -4.896,-4.32 -3.96,-0.576 -10.512,-0.864 -12.672,-0.864 -8.712,0 -14.76,1.152 -17.712,2.304 -2.016,0.792 -2.88,2.016 -2.88,3.312 0,1.584 1.224,2.52 3.024,2.52 1.8,0 4.536,-1.44 6.768,-1.44 3.384,0 4.032,5.616 4.032,7.56 0,13.032 -4.248,22.032 -24.192,22.032 -24.264,0 -41.904,-24.12 -41.904,-50.76 0,-17.856 9.288,-43.992 38.448,-43.992 15.624,0 29.304,10.296 31.68,21.6 0.792,3.816 -0.36,9.288 3.6,9.288 3.96,0 7.056,-4.536 7.056,-12.6 0,-8.352 -2.592,-17.424 -5.472,-17.424 -3.456,0 -2.448,1.368 -6.48,1.368 -5.04,0 -8.928,-7.92 -29.088,-7.92 -34.92,0 -53.856,27.216 -53.856,54.36 0,29.52 23.112,52.92 52.416,52.92 z"
         style="font-family:'Cooper*';-inkscape-font-specification:'Cooper*'"
         id="path7469" />
      <path
         d="m 270.99275,-563.44094 c 0,4.752 3.528,7.848 7.632,7.848 4.104,0 7.488,-3.096 7.488,-7.848 0,-4.824 -3.384,-7.848 -7.488,-7.848 -4.104,0 -7.632,3.024 -7.632,7.848 z m 0.72,56.016 c 0,6.768 -0.144,17.424 -1.872,21.6 -0.792,1.872 -2.664,2.808 -4.032,2.808 -1.224,0 -2.448,-0.576 -3.744,-0.576 -1.368,0 -1.872,1.08 -1.872,2.304 0,2.664 2.88,3.816 15.84,3.816 14.328,0 16.848,-1.944 16.848,-4.536 0,-1.152 -1.152,-1.872 -2.16,-1.872 -1.368,0 -2.016,0.504 -3.744,0.504 -1.44,0 -2.448,-0.36 -3.096,-2.16 -1.224,-3.312 -1.512,-14.472 -1.512,-22.824 v -28.08 c 0,-1.944 -0.216,-2.88 -1.728,-2.88 -2.232,0 -10.944,1.8 -15.12,3.6 -3.312,1.44 -4.752,2.016 -4.752,3.816 0,1.44 1.008,2.448 2.448,2.448 1.44,0 2.52,-1.008 5.04,-1.008 3.24,0 3.456,1.08 3.456,18.144 z"
         style="font-family:'Cooper*';-inkscape-font-specification:'Cooper*'"
         id="path7471" />
      <path
         d="m 314.2645,-533.27294 c 2.088,0 2.16,0 2.16,2.088 v 10.08 c 0,20.448 -1.08,31.104 -2.808,35.28 -0.792,1.872 -1.152,3.168 -3.96,3.168 -2.664,0 -4.104,-1.296 -5.472,-1.296 -1.152,0 -1.872,1.008 -1.872,2.304 0,2.664 4.464,4.176 17.424,4.176 14.328,0 19.584,-2.52 19.584,-5.112 0,-1.152 -0.792,-1.872 -2.16,-1.872 -1.368,0 -3.168,1.296 -5.616,1.296 -1.44,0 -3.24,-0.576 -3.888,-2.376 -1.224,-3.312 -1.8,-18.072 -1.8,-36.504 v -9.288 c 0,-1.944 0,-1.944 1.944,-1.944 h 7.2 c 2.232,0 3.6,-0.216 4.104,-1.296 0.144,-0.288 0.216,-0.72 0.216,-1.224 0,-2.088 -1.368,-2.52 -4.32,-2.52 h -7.344 c -1.8,0 -1.8,0 -1.8,-2.232 v -2.376 c 0,-23.472 -4.464,-20.88 -4.464,-26.352 0,-1.944 1.08,-5.112 3.096,-5.112 4.176,0 4.968,5.616 8.784,5.616 2.952,0 4.896,-2.52 4.896,-6.336 0,-3.6 -2.664,-5.976 -8.208,-5.976 -6.984,0 -15.552,6.984 -15.552,18.144 0,5.688 2.016,13.032 2.016,22.176 v 0.36 c 0,2.088 -0.072,2.088 -1.728,2.088 h -5.472 c -1.224,0 -2.952,0.288 -3.456,1.656 -0.072,0.288 -0.144,0.504 -0.144,0.864 0,2.16 2.16,2.52 3.6,2.52 z"
         style="font-family:'Cooper*';-inkscape-font-specification:'Cooper*'"
         id="path7473" />
      <path
         d="m 365.24044,-496.55294 v -34.56 c 0,-1.08 0.288,-1.44 1.44,-1.44 h 14.544 c 1.8,0 1.8,0 2.16,-1.728 l 0.576,-2.448 c 0.144,-0.504 0.288,-0.864 0.288,-1.08 0,-0.504 -0.504,-0.504 -1.728,-0.504 h -14.688 c -1.584,0 -2.016,0 -2.016,-1.512 0,-0.072 0.432,-9.36 0.432,-9.936 0,-1.512 -0.432,-2.088 -1.296,-2.088 -1.008,0 -1.512,0.576 -2.448,1.512 l -14.976,14.976 c -0.216,0.216 -0.432,0.576 -0.504,0.864 -0.072,0.144 -0.072,0.288 -0.072,0.432 0,0.792 0.648,1.512 2.16,1.512 h 3.744 c 0.864,0 1.152,0.72 1.152,1.44 v 34.56 c 0,3.744 0.288,7.488 0.576,9.36 1.008,6.336 6.12,10.224 13.104,10.224 7.92,0 16.128,-4.968 16.128,-9.576 0,-1.08 -0.576,-1.584 -1.584,-1.584 -0.648,0 -1.224,0.576 -2.16,1.152 -1.512,1.008 -3.744,2.016 -6.336,2.016 -5.112,0 -8.496,-4.032 -8.496,-11.592 z"
         style="font-family:'Cooper*';-inkscape-font-specification:'Cooper*'"
         id="path7475" />
      <path
         d="m 471.22418,-523.19294 c -2.232,6.768 -4.32,12.888 -10.728,28.008 -0.792,1.8 -1.584,2.952 -2.232,2.952 -0.648,0 -1.8,-1.728 -2.808,-3.816 -5.4,-10.944 -9,-18.216 -13.608,-31.248 -0.504,-1.368 -1.368,-3.456 -1.368,-4.968 0,-0.864 0.36,-1.08 1.296,-1.08 1.296,0 3.312,0.504 4.536,0.504 1.296,0 2.16,-0.648 2.16,-1.8 0,-1.656 -1.152,-2.232 -2.016,-2.736 -2.088,-1.224 -6.84,-1.656 -11.808,-1.656 -6.696,0 -10.584,0.648 -13.248,1.584 -1.8,0.576 -2.304,1.8 -2.304,3.096 0,1.296 1.08,2.232 2.16,2.232 0.936,0 1.656,-0.216 2.88,-0.216 1.944,0 2.52,0.864 4.896,5.256 1.44,2.592 3.096,7.128 4.176,9.36 0.72,1.512 0.936,2.088 0.936,2.808 0,0.72 -0.648,2.16 -1.224,3.528 -2.304,5.328 -3.6,8.712 -6.912,16.488 -1.08,2.592 -2.16,4.248 -3.024,4.248 -1.08,0 -2.232,-2.952 -3.168,-5.112 -4.68,-10.944 -8.28,-19.296 -12.888,-32.328 -0.504,-1.368 -1.152,-3.168 -1.152,-4.104 0,-1.296 0.648,-1.44 1.584,-1.44 0.576,0 2.448,0.144 2.952,0.144 0.936,0 2.304,-0.504 2.304,-2.232 0,-0.936 -0.576,-1.584 -1.44,-2.016 -2.016,-1.008 -6.84,-1.296 -12.528,-1.296 -4.536,0 -9.576,0.288 -12.24,1.224 -1.8,0.576 -2.592,1.44 -2.592,2.952 0,1.512 1.512,2.664 3.024,2.664 1.656,0 2.664,-0.432 3.888,-0.432 1.728,0 2.664,3.096 4.608,7.704 6.48,15.048 10.08,23.328 16.992,38.664 2.808,6.264 4.968,8.424 7.488,8.424 2.232,0 3.888,-2.16 5.904,-6.12 3.24,-6.336 4.68,-9.648 8.928,-19.944 0.864,-2.16 1.296,-3.096 2.16,-3.096 0.864,0 1.08,0.576 1.872,2.52 2.952,7.56 4.536,10.728 8.496,18.216 3.24,6.12 4.968,8.136 6.912,8.136 1.8,0 2.376,-0.576 4.608,-4.392 5.4,-9.216 9.216,-18.288 16.344,-37.728 4.536,-12.312 6.12,-13.104 7.848,-13.104 1.584,0 1.872,0.144 3.024,0.144 1.152,0 1.872,-1.008 1.872,-2.088 0,-1.8 -1.224,-3.816 -12.528,-3.816 -9.432,0 -11.376,0.936 -11.376,3.024 0,1.8 1.008,2.736 2.592,2.736 1.44,0 3.168,-0.432 4.32,-0.432 1.512,0 2.088,0.864 2.088,2.088 0,2.376 -0.432,4.752 -1.656,8.496 z"
         style="font-family:'Cooper*';-inkscape-font-specification:'Cooper*'"
         id="path7477" />
      <path
         d="m 497.93599,-507.42494 c 0,6.768 0.576,19.296 -1.008,22.752 -0.864,1.872 -2.088,2.016 -3.456,2.016 -1.224,0 -3.168,-0.648 -4.464,-0.648 -1.368,0 -1.872,0.792 -1.872,2.016 0,2.664 2.88,3.816 15.84,3.816 14.328,0 17.568,-2.16 17.568,-4.752 0,-1.152 -1.152,-1.872 -2.16,-1.872 -1.368,0 -3.456,1.224 -5.184,1.224 -1.44,0 -2.448,-0.864 -3.024,-2.664 -1.08,-3.312 -1.8,-11.592 -1.8,-19.944 0,-7.128 4.176,-16.848 8.136,-21.672 0.288,-0.36 0.576,-0.648 1.44,-0.648 3.024,0 3.456,4.608 8.208,4.608 3.312,0 6.048,-3.888 6.048,-7.2 0,-3.96 -2.304,-9 -7.488,-9 -6.192,0 -10.512,4.32 -13.968,11.088 -0.864,1.656 -2.232,5.112 -2.736,5.112 -0.72,0 -0.72,-1.08 -0.72,-4.608 0,-2.808 -0.144,-6.552 -0.288,-8.64 -0.144,-1.944 -0.216,-2.88 -1.728,-2.88 -2.232,0 -9.36,1.8 -13.536,3.6 -3.312,1.44 -4.752,2.016 -4.752,3.816 0,1.44 1.008,2.448 2.448,2.448 1.44,0 1.8,-1.008 4.32,-1.008 3.24,0 4.176,4.68 4.176,18.144 z"
         style="font-family:'Cooper*';-inkscape-font-specification:'Cooper*'"
         id="path7479" />
      <path
         d="m 540.41593,-526.93694 c 0,3.096 1.8,4.896 4.752,4.896 2.52,0 4.464,-1.296 5.76,-3.672 1.224,-2.232 1.224,-4.536 2.16,-6.192 1.08,-1.872 3.312,-3.096 6.336,-3.096 9.432,0 11.232,5.328 11.232,14.976 v 5.688 c 0,2.664 -0.144,3.24 -1.44,3.24 -1.368,0 -5.328,-0.72 -8.208,-0.72 -12.744,0 -23.76,5.904 -23.76,17.712 0,9.648 5.76,16.128 16.848,16.128 4.536,0 9.432,-1.872 13.248,-5.832 1.872,-1.944 3.24,-2.88 3.888,-2.88 0.648,0 0.936,0.936 1.728,2.808 1.512,3.672 3.888,6.408 8.64,6.408 4.104,0 7.488,-2.736 7.488,-5.328 0,-1.008 -0.504,-1.368 -1.296,-1.368 -0.648,0 -1.008,0.504 -2.016,0.504 -2.808,0 -4.608,-3.96 -4.608,-11.736 v -24.48 c 0,-13.968 -8.64,-19.008 -20.304,-19.008 -9.144,0 -16.848,3.456 -19.44,8.208 -0.648,1.152 -1.008,2.376 -1.008,3.744 z m 30.24,24.912 c 0,11.88 -6.84,18.792 -13.248,18.792 -5.616,0 -9.072,-5.256 -9.072,-11.592 0,-7.488 5.4,-12.816 15.696,-12.816 1.656,0 3.24,0.216 4.608,0.432 2.016,0.36 2.016,0.36 2.016,2.088 z"
         style="font-family:'Cooper*';-inkscape-font-specification:'Cooper*'"
         id="path7481" />
      <path
         d="m 605.43168,-492.52094 c 0,13.248 -1.152,24.336 -1.584,28.8 -0.216,1.872 -0.504,4.32 -2.736,4.32 -1.8,0 -2.52,-1.368 -4.32,-1.368 -1.368,0 -2.304,0.792 -2.304,2.088 0,2.592 3.816,4.176 13.68,5.472 4.248,0.576 7.992,0.864 10.8,0.864 4.896,0 6.912,-0.864 6.912,-2.88 0,-1.368 -0.936,-2.304 -2.448,-2.304 -1.08,0 -1.8,0.36 -2.88,0.36 -2.232,0 -3.744,-1.152 -4.608,-3.6 -0.864,-2.376 -1.008,-5.328 -1.008,-16.848 0,-1.584 0,-3.888 0.864,-3.888 0.504,0 0.936,0.144 2.736,1.296 2.952,1.872 7.848,3.312 11.952,3.312 16.56,0 28.44,-15.84 28.44,-33.192 0,-17.784 -7.272,-30.024 -24.696,-30.024 -6.768,0 -12.744,4.032 -16.848,10.512 -1.296,2.088 -1.944,3.168 -2.304,3.24 -0.432,0.072 -0.432,-1.296 -0.432,-4.176 0,-2.736 -0.144,-4.752 -0.144,-6.624 0,-1.944 -0.864,-3.024 -3.024,-3.024 -2.232,0 -9.072,1.512 -13.104,3.672 -3.312,1.8 -4.32,3.024 -4.32,4.824 0,1.152 0.864,1.944 2.304,1.944 1.44,0 2.232,-1.152 4.752,-1.152 3.24,0 4.32,3.312 4.32,28.296 z m 26.064,10.8 c -11.52,0 -16.776,-5.76 -16.776,-13.248 v -11.52 c 0,-14.688 6.624,-25.128 16.2,-25.128 11.592,0 18.288,12.024 18.288,24.624 0,13.32 -7.704,25.272 -17.712,25.272 z"
         style="font-family:'Cooper*';-inkscape-font-specification:'Cooper*'"
         id="path7483" />
    </g>
    <path
       style="color:#000000;fill:#fa1500;stroke-linecap:round;-inkscape-stroke:none;paint-order:markers stroke fill"
       d="m 736.26953,339.42773 c -19.6026,0 -37.38781,3.90777 -50.70117,10.56446 -13.31337,6.65668 -22.83984,16.53935 -22.83984,28.70508 0,12.16572 9.52647,22.04839 22.83984,28.70507 13.31336,6.65669 31.09857,10.56641 50.70117,10.56641 19.6026,0 37.38976,-3.90972 50.70313,-10.56641 13.31336,-6.65668 22.83789,-16.53935 22.83789,-28.70507 0,-12.16573 -9.52453,-22.0484 -22.83789,-28.70508 -13.31337,-6.65669 -31.10053,-10.56446 -50.70313,-10.56446 z m 0,10 c 18.2515,0 34.7369,3.76299 46.23047,9.50977 11.49357,5.74678 17.31055,12.99844 17.31055,19.75977 0,6.76132 -5.81698,14.01493 -17.31055,19.76171 -11.49357,5.74679 -27.97897,9.50977 -46.23047,9.50977 -18.2515,0 -34.73495,-3.76298 -46.22851,-9.50977 -11.49357,-5.74678 -17.3125,-13.00039 -17.3125,-19.76171 0,-6.76133 5.81893,-14.01299 17.3125,-19.75977 11.49356,-5.74678 27.97701,-9.50977 46.22851,-9.50977 z"
       id="path6577" />
    <path
       style="color:#000000;fill:#fa1500;stroke-linecap:round;-inkscape-stroke:none;paint-order:markers stroke fill"
       d="m 884.26953,339.42773 c -19.6026,0 -37.38781,3.90777 -50.70117,10.56446 -13.31337,6.65668 -22.83984,16.53935 -22.83984,28.70508 0,12.16572 9.52647,22.04839 22.83984,28.70507 13.31336,6.65669 31.09857,10.56641 50.70117,10.56641 19.6026,0 37.38976,-3.90972 50.70313,-10.56641 13.31336,-6.65668 22.83789,-16.53935 22.83789,-28.70507 0,-12.16573 -9.52453,-22.0484 -22.83789,-28.70508 -13.31337,-6.65669 -31.10053,-10.56446 -50.70313,-10.56446 z m 0,10 c 18.2515,0 34.7369,3.76299 46.23047,9.50977 11.49357,5.74678 17.31055,12.99844 17.31055,19.75977 0,6.76132 -5.81698,14.01493 -17.31055,19.76171 -11.49357,5.74679 -27.97897,9.50977 -46.23047,9.50977 -18.2515,0 -34.73495,-3.76298 -46.22851,-9.50977 -11.49357,-5.74678 -17.3125,-13.00039 -17.3125,-19.76171 0,-6.76133 5.81893,-14.01299 17.3125,-19.75977 11.49356,-5.74678 27.97701,-9.50977 46.22851,-9.50977 z"
       id="ellipse7193" />
    <path
       style="color:#000000;fill:#fa1500;stroke-linecap:round;-inkscape-stroke:none;paint-order:markers stroke fill"
       d="m 1462.2695,339.42773 c -19.6026,0 -37.3878,3.90777 -50.7011,10.56446 -13.3134,6.65668 -22.8399,16.53935 -22.8399,28.70508 0,12.16572 9.5265,22.04839 22.8399,28.70507 13.3133,6.65669 31.0985,10.56641 50.7011,10.56641 19.6026,0 37.3878,-3.90972 50.7012,-10.56641 13.3134,-6.65668 22.8398,-16.53935 22.8398,-28.70507 0,-12.16573 -9.5264,-22.0484 -22.8398,-28.70508 -13.3134,-6.65669 -31.0986,-10.56446 -50.7012,-10.56446 z m 0,10 c 18.2515,0 34.7369,3.76299 46.2305,9.50977 11.4936,5.74678 17.3105,12.99844 17.3105,19.75977 0,6.76132 -5.8169,14.01493 -17.3105,19.76171 -11.4936,5.74679 -27.979,9.50977 -46.2305,9.50977 -18.2515,0 -34.7349,-3.76298 -46.2285,-9.50977 -11.4936,-5.74678 -17.3125,-13.00039 -17.3125,-19.76171 0,-6.76133 5.8189,-14.01299 17.3125,-19.75977 11.4936,-5.74678 27.977,-9.50977 46.2285,-9.50977 z"
       id="ellipse7195" />
    <path
       style="color:#000000;fill:#fa1500;stroke-linecap:round;-inkscape-stroke:none;paint-order:markers stroke fill"
       d="m 1806.2695,407.42773 c -19.6026,0 -37.3878,3.90777 -50.7011,10.56446 -13.3134,6.65668 -22.8399,16.53935 -22.8399,28.70508 0,12.16572 9.5265,22.04839 22.8399,28.70507 13.3133,6.65669 31.0985,10.56641 50.7011,10.56641 19.6026,0 37.3878,-3.90972 50.7012,-10.56641 13.3134,-6.65668 22.8398,-16.53935 22.8398,-28.70507 0,-12.16573 -9.5264,-22.0484 -22.8398,-28.70508 -13.3134,-6.65669 -31.0986,-10.56446 -50.7012,-10.56446 z m 0,10 c 18.2515,0 34.7369,3.76299 46.2305,9.50977 11.4936,5.74678 17.3105,12.99844 17.3105,19.75977 0,6.76132 -5.8169,14.01493 -17.3105,19.76171 -11.4936,5.74679 -27.979,9.50977 -46.2305,9.50977 -18.2515,0 -34.7349,-3.76298 -46.2285,-9.50977 -11.4936,-5.74678 -17.3125,-13.00039 -17.3125,-19.76171 0,-6.76133 5.8189,-14.01299 17.3125,-19.75977 11.4936,-5.74678 27.977,-9.50977 46.2285,-9.50977 z"
       id="ellipse7197" />
  </g>
</svg>
