<?xml version="1.0" encoding="UTF-8" standalone="no"?>
<!-- Created with Inkscape (http://www.inkscape.org/) -->

<svg
   version="1.1"
   id="svg827"
   width="2282"
   height="488"
   viewBox="0 0 2282 488"
   xmlns="http://www.w3.org/2000/svg"
   xmlns:svg="http://www.w3.org/2000/svg">
  <defs
     id="defs831" />
  <g
     id="g833">
    <path
       style="fill:#73403f;fill-opacity:1"
       d="m 1699.4188,457.85706 c -8.4054,-1.39241 -13.6844,-4.33482 -15.016,-8.36958 -1.5383,-4.66095 -0.1015,-6.92169 5.7427,-9.0357 8.376,-3.02988 12.7277,-5.34244 14.0444,-7.46349 3.2411,-5.22115 3.655,-17.73898 3.6534,-110.48829 0,-122.91668 0.3829,-120.102 -16.7002,-122.06992 -11.4243,-1.31605 -14.3404,-7.94116 -6.581,-14.9513 8.5101,-7.68838 28.4414,-14.75044 42.0618,-14.90337 5.7129,-0.0641 7.0583,0.26498 9,2.20161 2.0521,2.04673 2.3336,3.47982 2.783,14.1704 0.275,6.54136 0.8165,12.20825 1.2034,12.59308 1.5094,1.50131 5.6739,-0.75534 14.7107,-7.97121 17.5265,-13.9949 31.9323,-19.57563 50.4959,-19.56174 17.9198,0.0134 33.1033,3.93582 47.0029,12.14244 8.2349,4.86211 20.4661,16.74118 26.0963,25.34502 18.2508,27.89041 21.6009,71.69344 8.2098,107.34458 -21.3715,56.89731 -82.3903,81.56749 -137.3794,55.54312 -3.9381,-1.86381 -7.8756,-3.11424 -8.75,-2.77874 -1.3435,0.51559 -1.5847,2.6444 -1.5583,13.75302 0.017,7.22865 0.4467,20.23165 0.9543,28.89554 1.3049,22.27075 2.3669,24.00618 16.7248,27.32936 7.6317,1.76638 10.2896,3.6104 10.2896,7.13884 0,5.7659 -5.332,9.47845 -16.1292,11.23043 -7.6754,1.24541 -43.1692,1.17975 -50.8589,-0.0941 z m 114.4027,-94.83521 c 4.2539,-1.08798 10.0634,-3.21779 12.9099,-4.7329 7.6085,-4.04979 18.5532,-15.43267 22.909,-23.82618 10.4469,-20.13105 13.3834,-49.88731 7.6846,-77.87192 -2.5151,-12.35082 -6.5008,-22.54969 -12.3398,-31.57589 -6.3365,-9.79521 -10.8391,-14.41542 -18.9477,-19.44244 -9.9795,-6.18691 -18.0726,-8.68168 -30.2225,-9.3164 -23.9495,-1.25114 -42.4118,7.85556 -50.95,25.13158 -6.0711,12.28398 -6.639,18.44824 -6.2592,67.93772 0.3864,50.33278 -0.064,47.90943 10.7668,57.93553 16.4459,15.22413 42.058,21.48753 64.4489,15.7609 z M 510.47578,383.41242 C 463.57377,376.58596 425.3768,348.80608 404.90362,306.63193 388.38828,272.61083 383.22196,225.72501 391.83162,188 c 6.40157,-28.04981 18.48638,-50.20966 37.945,-69.57957 12.87075,-12.81207 24.11065,-20.599907 39.96355,-27.689715 21.73948,-9.722429 42.21262,-13.350977 70.132,-12.429813 18.07587,0.596389 27.34547,2.123116 46.58573,7.672779 11.96117,3.450081 16.37329,3.677446 27.00947,1.391844 6.56833,-1.411464 7.99785,-1.445574 10.47716,-0.25 9.52595,4.593609 16.47645,26.113675 16.43455,50.884475 -0.0246,14.53508 -3.16833,20 -11.50519,20 -4.67603,0 -8.32843,-3.71979 -11.50486,-11.71715 -8.07948,-20.34187 -16.33785,-30.0241 -32.15415,-37.69799 C 553.45372,93.174702 503.48891,95.28229 474.26842,113.26474 449.4133,128.56071 434.04781,153.85078 428.86151,188 c -1.89108,12.45186 -1.85295,38.82914 0.0776,53.69878 8.42925,64.92349 41.29627,109.21445 88.96781,119.89127 11.87572,2.65976 30.57754,2.44632 40.96489,-0.46753 21.56081,-6.04822 36.24015,-20.74252 42.16612,-42.2091 2.69444,-9.76048 2.50771,-29.81509 -0.33605,-36.09242 -2.7314,-6.0293 -5.15206,-7.19626 -19.13102,-9.22273 -17.36663,-2.51758 -20.16392,-4.25618 -20.16392,-12.53253 0,-10.81505 14.25628,-14.33487 58,-14.31995 41.54207,0.0142 56,3.73958 56,14.42966 0,7.17632 -5.06136,10.78587 -18,12.83685 -10.854,1.72053 -12.63761,2.59941 -14.90245,7.34323 -1.08828,2.27946 -3.35653,11.38139 -5.04057,20.22652 -5.62103,29.5236 -12.22597,43.734 -26.71836,57.48397 -7.93194,7.52561 -14.26534,11.69773 -24.33862,16.03302 -20.8352,8.96697 -49.71572,12.12897 -75.93116,8.31338 z m 585.75172,-0.1927 c -5.9635,-3.93297 -12.3822,-14.21604 -21.3633,-34.22523 -7.4225,-16.5367 -13.4065,-31.80164 -36.0622,-91.99449 -10.6612,-28.325 -20.6269,-53.3 -22.1462,-55.5 -1.7799,-2.57755 -4.5379,-4.81974 -7.7555,-6.30514 -12.19171,-5.62821 -11.97399,-5.46478 -12.29068,-9.22609 -0.22843,-2.71299 0.28344,-4.07683 2.20908,-5.88587 4.2308,-3.97465 11.4469,-5.27815 32.2061,-5.81766 28.8835,-0.75066 42.8279,1.83761 45.1059,8.3723 1.9643,5.63487 -1.1755,8.82261 -11.797,11.97685 -5.3959,1.60239 -8.5564,4.89425 -9.4931,9.88755 -1.5703,8.37045 13.5231,51.69995 36.5751,104.99806 9.6062,22.21031 13.6661,30.5 14.9375,30.5 1.6461,0 5.0549,-5.72975 12.0411,-20.23947 10.4871,-21.7806 31.0126,-72.49241 31.0126,-76.62197 0,-2.85425 -8.6611,-26.54855 -13.1162,-35.88222 -4.265,-8.93545 -5.8185,-10.38989 -15.2267,-14.25634 -7.5851,-3.11722 -9.9861,-6.49424 -7.6431,-10.75 3.6648,-6.65645 14.9102,-8.65373 44.9284,-7.97968 12.09,0.27148 23.1909,0.99405 25.2765,1.6453 5.5119,1.72107 9.7811,5.69381 9.7811,9.10185 0,3.75218 -1.8299,5.412 -8.7493,7.93605 -8.4071,3.06672 -9.7215,3.88064 -11.714,7.25358 -2.8183,4.77102 -1.496,13.10636 5.317,33.51639 C 1190.3208,269.85305 1219.7708,340 1222.8789,340 c 1.3897,0 24.7158,-47.22986 33.3372,-67.5 12.8417,-30.1927 20.9614,-54.34521 21.9112,-65.17634 0.4993,-5.69404 0.3421,-6.3578 -2.0127,-8.5 -1.4048,-1.27801 -6.216,-3.86662 -10.6915,-5.75246 -8.5197,-3.58996 -10.3443,-5.41655 -9.8279,-9.83835 0.7549,-6.4631 11.7649,-9.23805 36.6025,-9.2253 23.1125,0.0119 33.6541,2.46368 35.6656,8.29522 1.6369,4.74558 0.64,5.655 -12.7047,11.58954 -7.2978,3.24538 -10.8371,6.41671 -13.9448,12.49471 -1.093,2.13786 -7.3776,17.88786 -13.9658,35 -37.3018,96.88827 -50.8521,127.42667 -61.3938,138.36298 -5.6377,5.84877 -7.9915,6.43502 -13.1671,3.27935 -8.3857,-5.11298 -15.7424,-20.29163 -44.241,-91.27935 -4.5816,-11.4125 -8.6023,-20.74378 -8.9347,-20.73619 -0.3325,0.008 -5.7774,12.7201 -12.0999,28.25 -24.4465,60.04813 -32.4394,76.65187 -39.8338,82.7469 -4.1287,3.40322 -7.4816,3.76037 -11.3502,1.20901 z M 938.40694,382.67641 C 924.45896,379.40551 917.61798,372.16384 912.7342,355.5 c -1.58579,-5.41081 -1.81094,-13.36483 -2.29286,-81 l -0.5344,-75 -11,-0.5 -11,-0.5 -0.29267,-6.6175 c -0.2785,-6.29719 -0.11238,-6.85384 3.43205,-11.5 3.86682,-5.06877 20.78978,-24.43558 30.36062,-34.74502 5.79254,-6.23956 12.19846,-9.92136 15.67861,-9.01127 3.67821,0.96187 4.32139,4.52214 4.32139,23.92084 V 179 h 22.4433 c 22.05864,0 22.46997,0.0381 24,2.22251 0.95538,1.364 1.5567,4.36826 1.5567,7.77749 0,3.40923 -0.60132,6.41349 -1.5567,7.77749 -1.52411,2.17597 -1.9938,2.22251 -22.42858,2.22251 -17.85299,0 -21.10472,0.23286 -22.48182,1.60996 -1.45531,1.4553 -1.5786,8.25145 -1.28353,70.75 0.34383,72.82763 0.3425,72.80647 5.01109,79.66572 3.54402,5.20701 6.82832,7.08572 13.33644,7.62882 5.92859,0.49474 8.14455,0.004 20.70821,-4.58881 4.97265,-1.81769 6.17731,-1.9387 8.40059,-0.84384 3.50927,1.72815 4.34583,4.57456 2.73992,9.32261 -2.45553,7.26004 -13.19633,15.22466 -25.44562,18.86868 -7.53226,2.24075 -21.20186,2.85748 -28,1.26327 z m 688.21276,-1.7359 c -4.6603,-2.3766 -10.5002,-9.83217 -16.2068,-20.69051 -3.7628,-7.15979 -5.2935,-7.66339 -9.5689,-3.14822 -8.954,9.45602 -27.013,18.93197 -42.0243,22.05102 -11.4137,2.37154 -27.4467,2.08674 -37.9128,-0.67345 -17.1546,-4.52413 -30.8379,-15.0676 -37.4934,-28.89002 -4.8658,-10.10545 -6.4387,-18.88041 -5.7397,-32.02122 0.8662,-16.28414 6.961,-29.87643 17.9935,-40.12883 17.9988,-16.72592 44.995,-23.40375 86.3558,-21.36111 9.2861,0.4586 19.0213,1.12085 21.6338,1.47166 l 4.75,0.63785 v -12.96285 c 0,-38.40486 -10.6887,-54.88378 -36.9026,-56.89341 -16.6322,-1.27506 -30.8371,5.52191 -41.7353,19.97016 -6.234,8.26464 -11.2764,13.55578 -14.5624,15.28084 -6.2523,3.28218 -16.9387,0.76349 -19.8513,-4.67877 -1.7382,-3.24797 -1.4337,-11.06246 0.5838,-14.98018 10.7101,-20.79737 47.234,-34.96299 82.2178,-31.88776 13.9565,1.22683 19.6531,2.62079 29.0554,7.10977 16.0416,7.65885 26.0094,21.56908 30.3505,42.35452 1.9636,9.40182 2.0982,13.40965 2.2503,67 0.1683,59.26136 0.3674,62.2581 4.4432,66.86618 1.4088,1.59274 2.5946,1.77877 8.0935,1.26961 5.1554,-0.47736 6.8041,-0.26977 8.25,1.03881 2.4798,2.24417 2.2645,5.86923 -0.6433,10.83106 -6.5058,11.10118 -23.5125,17.44483 -33.3368,12.43485 z m -58.2767,-21.55427 c 17.9076,-4.40264 30.4988,-16.05923 36.7206,-33.99485 2.577,-7.42877 2.761,-9.13122 3.1383,-29.04043 l 0.4009,-21.14903 -2.848,-0.58129 c -12.9312,-2.63941 -38.7294,-3.43484 -50.3479,-1.55238 -16.4137,2.65938 -29.9212,9.81072 -36.448,19.29679 -5.5993,8.13803 -7.552,14.9914 -7.552,26.50463 0,21.18229 8.5138,34.56125 25.5,40.07158 7.6674,2.48732 22.2872,2.69427 31.4361,0.44498 z m -867.93606,19.5972 c -13.68028,-1.34399 -20.08588,-4.20515 -21.43325,-9.57351 -1.06296,-4.23516 1.54548,-6.95144 9.08473,-9.46034 7.77354,-2.58687 10.74034,-5.13889 12.29011,-10.57186 4.12335,-14.45509 3.29028,-123.39349 -1.06968,-139.87773 -1.59497,-6.03033 -3.23396,-7.25173 -11.52614,-8.5894 -9.03033,-1.45675 -12.34577,-3.69868 -12.34577,-8.34832 0,-6.3198 5.29966,-10.36142 21,-16.01499 8.31405,-2.99382 23.7495,-6.50737 28.69424,-6.53162 1.95502,-0.01 4.28274,0.92213 6,2.40164 l 2.80576,2.41731 -0.5,43.83269 c -0.83673,73.35204 -0.48254,121.08891 0.94799,127.76924 1.58638,7.40808 4.70819,10.72243 12.37633,13.13959 3.13403,0.98792 6.59316,2.62996 7.68696,3.64899 2.13423,1.98834 2.58415,5.79379 1.02863,8.7003 -3.31932,6.2022 -29.53378,9.5638 -55.03991,7.05801 z m 100,0.0166 c -16.82755,-1.56635 -23.54486,-5.70871 -21.62991,-13.33848 0.58312,-2.32333 1.6972,-2.94596 13.03456,-7.28462 6.00634,-2.29855 7.99215,-5.68729 9.59694,-16.37695 1.4581,-9.71255 2.47748,-88.88464 1.52142,-118.16409 l -0.74005,-22.66408 -15.97346,-0.33592 c -18.89044,-0.39724 -18.8095,-0.35046 -18.8095,-10.87204 0,-9.82065 0.26865,-9.96386 18.69123,-9.96386 h 15.03376 l -0.1125,-27.75 -0.11249,-27.75 2.7393,-8.07841 c 8.68662,-25.617505 28.42799,-38.395049 59.35074,-38.414584 21.73802,-0.01373 37.75456,6.810498 43.4117,18.496596 3.92215,8.102078 2.3092,18.280878 -3.49998,22.087198 -5.78262,3.78892 -14.7862,3.47904 -20.6712,-0.71145 -1.57814,-1.12374 -5.33852,-5.79256 -8.3564,-10.37517 C 867.54214,97.878567 863.12852,94.985076 854.84122,95.021962 841.04901,95.08335 830.97052,107.50053 829.69768,126 c -0.28382,4.125 0.20966,15.45289 1.09661,25.17308 0.88696,9.72019 1.61265,20.18269 1.61265,23.25 V 180 h 20.84501 c 24.68497,0 24.15499,-0.22243 24.15499,10.13761 0,10.61364 0.67396,10.30726 -23.50854,10.68714 l -20.67283,0.32475 0.49319,70.17525 c 0.30462,43.34401 0.89995,72.27815 1.55704,75.67525 1.41605,7.32086 4.61651,10.16832 14.01865,12.47243 8.74552,2.1432 11.44582,4.11522 11.44582,8.35883 0,6.69041 -6.62191,9.71983 -24.47413,11.19656 -12.57566,1.04026 -24.48426,1.03103 -35.8592,-0.0278 z m 563.49996,-0.063 c -12.4564,-1.20748 -18.7304,-3.66491 -20.5457,-8.04741 -2.4441,-5.90064 -0.367,-8.09977 11.3968,-12.06611 2.1181,-0.71415 4.8909,-2.33829 6.1618,-3.6092 4.6493,-4.64929 4.9911,-9.03086 4.9319,-63.21438 -0.067,-61.58851 -1.5153,-79.48275 -6.9424,-85.79207 -2.0822,-2.42076 -3.1658,-2.74089 -11.0493,-3.26436 -7.5143,-0.49897 -9.001,-0.90201 -10.5968,-2.87277 -3.0235,-3.7338 -2.4254,-8.80108 1.4697,-12.45272 6.6879,-6.26987 35.0274,-18.61808 42.7291,-18.61808 5.6527,0 8.9277,7.60799 11.4573,26.61587 0.7967,5.98627 1.4573,11.44663 1.4681,12.13413 0.047,3.01403 3.1348,0.71885 8.0719,-6 7.0179,-9.55061 18.4199,-20.4743 26.1932,-25.09433 24.1037,-14.32599 46.6523,-6.00593 47.0057,17.34433 0.117,7.73263 -2.296,13.2427 -7.7785,17.76184 -12.7059,10.47327 -29.9133,4.36712 -33.85,-12.01184 -0.3635,-1.5125 -1.1676,-2.75 -1.7869,-2.75 -3.4307,0 -16.7628,7.79645 -21.5946,12.62827 -8.8715,8.87151 -12.4128,18.61315 -14.3546,39.48777 -1.3172,14.15973 -0.5289,82.54414 1.0938,94.88396 0.8715,6.6277 1.3791,7.86477 4.364,10.63623 2.7133,2.51923 4.8315,3.37761 10.7667,4.36316 8.034,1.33405 13.8764,3.38216 15.0884,5.2894 1.648,2.59319 0.7947,6.57053 -1.8572,8.65651 -7.2675,5.71662 -35.9815,8.49867 -61.8424,5.9918 z M 710.64253,122.07142 c -19.06053,-4.8154 -20.42325,-30.829937 -2.01771,-38.518372 4.98343,-2.081698 13.34991,-1.932566 18.32349,0.326616 10.15265,4.611708 13.80395,16.892096 8.21229,27.620336 -4.2425,8.13972 -15.28958,12.90288 -24.51807,10.57142 z"
       id="path956" />
  </g>
</svg>
