<?xml version="1.0" encoding="UTF-8" standalone="no"?>
<!-- Created with Inkscape (http://www.inkscape.org/) -->

<svg
   version="1.1"
   id="svg2"
   width="2282"
   height="488"
   viewBox="0 0 2282 488"
   xmlns="http://www.w3.org/2000/svg"
   xmlns:svg="http://www.w3.org/2000/svg">
  <defs
     id="defs6" />
  <g
     id="g8">
    <path
       style="fill:#73403f;fill-opacity:1"
       d="m 1762.9005,451.94263 c -18.0238,-1.18904 -26.4085,-3.73776 -27.5741,-8.38172 -1.6191,-6.451 1.4646,-8.34087 15.9203,-9.75696 5.5846,-0.54707 10.8056,-1.32369 11.6023,-1.72582 0.7967,-0.40213 1.8407,-2.04672 2.3199,-3.65464 1.5467,-5.18893 2.6137,-48.51054 2.6335,-106.92349 0.026,-77.42311 -1.4447,-114.44282 -4.6757,-117.67381 -0.4093,-0.40925 -5.9638,-1.1612 -12.3435,-1.671 -16.9835,-1.35716 -22.7251,-4.84605 -18.1442,-11.02536 3.95,-5.32833 14.8221,-9.36023 37.9186,-14.0621 24.0546,-4.89692 25.3286,-3.60886 25.3686,25.65015 l 0.026,18.78212 2.4793,-4.82701 c 16.5624,-32.24693 55.165,-51.05484 90.7958,-44.23754 38.0762,7.28518 63.5896,40.71939 67.894,88.97217 3.8864,43.56632 -13.4555,84.63982 -44.4306,105.23206 -34.6448,23.03181 -82.9123,18.96498 -113.1152,-9.53063 l -3.8253,-3.60905 0.4201,36 c 0.2736,23.45273 0.8244,37.25407 1.5803,39.59813 l 1.1603,3.59812 13.5852,0.68179 c 7.4719,0.37498 15.7499,1.14603 18.3957,1.71345 12.2987,2.6376 9.6402,11.88573 -4.2776,14.88013 -11.69,2.51511 -41.4911,3.43703 -63.7134,1.97101 z m 113.3756,-89.53789 c 38.2242,-9.28818 59.3051,-57.48624 48.5075,-110.90474 -6.0401,-29.88209 -23.1834,-50.91524 -46.4354,-56.97161 -7.4563,-1.94213 -21.0849,-1.93793 -29.3446,0.009 -17.4097,4.10382 -34.3191,18.23301 -43.0389,35.96256 -8.7687,17.82898 -11.5551,32.77256 -10.7832,57.83117 0.7276,23.62071 4.5315,37.81529 13.7084,51.15342 14.0069,20.35833 40.6438,29.41836 67.3862,22.92015 z M 455.90048,380.97471 c -43.8954,-4.11328 -82.30446,-26.35943 -105.91081,-61.34253 -30.70845,-45.50796 -34.15651,-108.8582 -8.65656,-159.04455 9.28522,-18.27422 21.1547,-33.20305 36.66173,-46.11131 28.03923,-23.340219 62.81829,-34.238675 99.89643,-31.303803 26.23938,2.076944 50.67624,10.41133 70.74858,24.129363 9.1678,6.26555 8.28797,6.50544 9.76929,-2.66361 C 559.14588,100.07802 562.83265,96 566.21866,96 c 10.06601,0 18.57676,30.05135 18.83324,66.5 0.11859,16.85132 -1.68911,25.09176 -6.368,29.02878 -3.69737,3.11113 -5.24148,3.10407 -8.3839,-0.0384 -3.29777,-3.29777 -4.68404,-6.79375 -8.97733,-22.63965 -3.91688,-14.45662 -7.43869,-22.30947 -13.76027,-30.68234 -20.29013,-26.87403 -68.11464,-41.289664 -106.66192,-32.15081 -38.36169,9.09486 -67.21006,38.56656 -78.3851,80.0788 -3.79036,14.08014 -4.93256,25.34289 -4.34944,42.88811 1.35106,40.65154 16.14378,76.10185 42.00762,100.66996 9.34855,8.88021 17.36943,14.35565 29.32696,20.01998 28.93215,13.70529 66.7497,13.73397 93.89996,0.0712 25.80602,-12.9863 41.95706,-36.71754 40.15962,-59.00778 -0.61644,-7.64452 -3.8474,-14.55634 -7.11154,-15.21338 -1.12644,-0.22673 -9.02308,-0.62992 -17.54808,-0.89597 -17.62553,-0.55005 -23.74483,-1.91972 -25.9242,-5.80254 -1.29494,-2.3071 -1.27251,-2.87682 0.20186,-5.12699 4.10223,-6.2608 20.31203,-8.70775 57.51156,-8.68166 34.97997,0.0245 50.03124,1.90721 56.60842,7.08082 3.35549,2.63942 3.18974,6.40663 -0.39764,9.03742 -2.83718,2.08064 -13.29234,3.81529 -23.17245,3.84462 -6.6401,0.0197 -6.67752,0.0356 -7.72007,3.26981 -0.5762,1.7875 -2.00116,8.63433 -3.16659,15.21517 -2.60324,14.69977 -6.43574,25.45205 -12.59352,35.3318 -22.54116,36.16583 -72.3188,57.05316 -124.34737,52.17776 z m 1128.00002,0.0835 c -12.615,-1.23197 -20.1384,-3.76568 -30.7498,-10.35585 -11.6502,-7.23534 -19.7327,-18.44897 -23.2721,-32.28783 -5.053,-19.75729 -0.1458,-38.12864 14.0219,-52.49431 16.645,-16.87753 42.6456,-24.89084 76.5,-23.57702 8.25,0.32017 19.95,1.49209 26,2.60426 6.05,1.11218 12.0791,2.02897 13.398,2.03732 l 2.3979,0.0152 -0.7069,-20.36218 c -0.7945,-22.88437 -2.1818,-31.29854 -6.6664,-40.43084 -9.291,-18.92 -35.5832,-23.08362 -57.0725,-9.03795 -3.4926,2.28276 -12.2117,10.12635 -19.3758,17.43021 -7.1642,7.30385 -14.281,13.75696 -15.8151,14.34024 -3.9704,1.50955 -11.2734,1.3114 -14.574,-0.39543 -3.1373,-1.62237 -6.0852,-6.94863 -6.0852,-10.99484 0,-9.28013 15.9176,-23.71856 37.5,-34.01529 18.7098,-8.92625 37.3669,-13.11086 54.5,-12.22383 23.3709,1.20998 39.3578,10.32422 48.324,27.5498 6.807,13.07733 6.994,15.02042 7.6615,79.64011 0.6467,62.59859 0.5826,61.8716 6.1462,69.68497 2.8476,3.99912 9.9601,8.44377 16.8474,10.52801 6.6335,2.00746 8.0209,2.94268 8.0209,5.40658 0,3.00848 -6.5884,9.4571 -12.0724,11.81624 -6.3239,2.72045 -16.6136,2.99351 -23.7303,0.62974 -7.2828,-2.41896 -13.8199,-8.61516 -17.7574,-16.83126 -1.8063,-3.76905 -3.5837,-8.62615 -3.9499,-10.79355 -0.3662,-2.1674 -1.0762,-3.94073 -1.5779,-3.94073 -0.5017,0 -0.9121,0.40441 -0.9121,0.89869 0,1.78507 -14.4522,16.32297 -20.5583,20.68019 -15.8775,11.32991 -35.9537,16.4802 -56.4417,14.47936 z m 31.3905,-22.03024 c 20.1803,-5.16125 36.1479,-19.76546 42.5919,-38.95514 2.3894,-7.11578 4.2938,-21.47299 3.8225,-28.81921 l -0.3049,-4.75362 -5.5,-1.76606 c -13.1938,-4.23653 -20.9642,-5.23481 -40.5,-5.20311 -17.7941,0.0289 -19.4915,0.19654 -26.7439,2.64186 -13.3574,4.50373 -23.4351,12.63336 -28.0251,22.60761 -1.8033,3.91884 -2.1769,6.58623 -2.2014,15.7197 -0.026,9.79484 0.2554,11.60758 2.5715,16.54563 8.8917,18.95724 31.0449,27.92732 54.2894,21.98237 z m -481.9724,20.00302 c -10.0856,-4.07999 -22.9583,-32.29091 -64.5655,-141.49683 -7.1175,-18.6812 -13.9408,-35.7812 -15.163,-38 l -2.2222,-4.03419 -7.4837,-0.61292 c -10.127,-0.82942 -13.4716,-1.66376 -15.455,-3.85533 -4.1985,-4.63927 0.6507,-10.76559 10.2618,-12.96458 9.1302,-2.08894 34.4679,-3.18484 48.9397,-2.11672 22.0385,1.62659 29.4905,4.45662 30.0817,11.42407 0.29,3.41821 0.045,3.78841 -3.5,5.2821 -2.3771,1.00168 -8.0464,1.7975 -15.0619,2.11431 l -11.25,0.50804 v 2.6356 c 0,4.75899 5.7787,26.26088 11.8481,44.08543 8.0097,23.52263 17.5219,48.06238 28.6841,74 12.546,29.15286 14.319,33 15.2091,33 1.9323,0 21.1883,-44.21281 35.2229,-80.8737 l 9.7136,-25.3737 -5.2203,-14.1263 c -7.891,-21.353 -9.2723,-24.77919 -11.7431,-29.1263 -2.2599,-3.97603 -2.3183,-4.00408 -9.7469,-4.68084 -9.1998,-0.83811 -12.3797,-1.99243 -14.5302,-5.27453 -1.5419,-2.35315 -1.5451,-2.73118 -0.043,-5.02382 4.1847,-6.38669 15.8508,-8.69695 44.1056,-8.73432 28.443,-0.0376 41.5536,2.82856 43.9616,9.61069 2.073,5.83872 -2.7241,8.16594 -19.2559,9.34153 l -10.7056,0.76132 0.345,5 c 0.5349,7.7522 5.3036,25.0216 13.9741,50.60563 12.6581,37.35054 30.2122,84.15483 35.3108,94.14893 l 2.0439,4.00653 3.9539,-8.88055 c 11.85,-26.61522 31.4262,-78.77705 39.365,-104.89014 3.8748,-12.7453 7.9341,-29.2212 8.9287,-36.2404 l 0.6022,-4.25 -5.2618,-0.008 c -8.1232,-0.0117 -21.5189,-1.76685 -24.5413,-3.21546 -2.1666,-1.03841 -2.7205,-1.99183 -2.7205,-4.6825 0,-6.71012 7.8785,-9.54152 30.9771,-11.13269 29.1674,-2.00921 52.5229,2.51602 52.5229,10.17656 0,5.45306 -3.9578,7.56418 -15.9953,8.53209 -4.1276,0.33189 -8.1023,1.07606 -8.8327,1.6537 -2.4265,1.91903 -5.8686,9.9463 -14.5666,33.97076 -20.171,55.71402 -45.7095,121.01881 -52.9453,135.38721 -5.8744,11.66497 -11.4966,15.61092 -19.6813,13.81326 -9.6566,-2.12095 -20.004,-23.25909 -43.4678,-88.79801 -4.2931,-11.99147 -8.1192,-21.44147 -8.5024,-21 -0.3832,0.44147 -1.7427,3.50267 -3.0212,6.80267 -10.4806,27.05355 -36.8706,86.05461 -41.7721,93.39143 -5.8432,8.74619 -12.1679,11.8214 -18.7972,9.13959 z m -178.41812,-0.74264 c -6.92898,-0.57822 -15.03972,-2.41838 -19.65213,-4.45867 -6.24557,-2.76271 -13.94773,-10.10976 -17.09819,-16.30988 -5.76977,-11.3549 -5.60812,-9.00512 -5.99201,-87.10188 l -0.35432,-72.08208 -11.00177,-0.99578 c -8.91287,-0.80672 -11.39097,-1.385 -13.05167,-3.0457 -2.64077,-2.64078 -2.66074,-7.78468 -0.0501,-12.90199 4.48521,-8.79174 29.20821,-33.09 37.68468,-37.03726 6.51202,-3.03246 8.06823,-2.95622 11.59241,0.56797 l 2.92308,2.92307 V 162.87808 177.91 l 37.79592,0.295 c 34.43132,0.26874 38.04062,0.45544 40.54462,2.0973 5.3697,3.52082 5.832,11.22694 0.8686,14.48158 -2.3201,1.52144 -6.9332,1.77284 -40.66312,2.21612 l -38.04602,0.5 v 65 c 0,49.6415 0.30598,66.32913 1.29498,70.62514 1.79697,7.80574 6.06732,14.12381 11.82804,17.49979 4.0907,2.39736 6.1223,2.85897 14.1226,3.20887 15.3095,0.66959 24.8127,-2.10846 42.31642,-12.37015 11.3003,-6.6249 14.9665,-6.7035 17.1951,-0.36864 1.6678,4.74059 -7.8342,15.99924 -19.7571,23.40969 -15.05452,9.35683 -36.88032,15.08709 -52.50002,13.78365 z m -288.5,-1.93378 c -11.54481,-1.33061 -18.51293,-3.91847 -21.07351,-7.82642 -3.99698,-6.10017 1.64237,-9.66294 16.56387,-10.46457 10.43248,-0.56047 10.49869,-0.58013 12,-3.56358 1.28639,-2.55635 1.55667,-12.09486 1.82764,-64.5 0.30639,-59.25506 -0.41913,-81.51767 -2.80168,-85.9695 -0.74072,-1.38406 -2.93573,-1.84744 -11.21861,-2.36836 -16.08187,-1.01141 -20.79771,-2.95659 -20.79771,-8.57858 0,-3.43753 2.02818,-5.32507 9.03399,-8.40753 6.51381,-2.866 27.68868,-8.27355 38.65812,-9.87237 8.9087,-1.29845 12.7941,-0.22015 14.97541,4.15609 0.93663,1.8791 1.231,21.23595 1.24701,82 0.0204,77.5457 0.52331,92.45304 3.2288,95.71295 0.70014,0.84362 3.37587,1.3273 7.34262,1.3273 9.79613,0 16.68125,1.61479 19.22709,4.50939 4.84197,5.50526 -1.61368,10.49318 -16.76004,12.94953 -8.63021,1.3996 -42.03535,1.98109 -51.453,0.89565 z m 109,-0.0286 c -7.9629,-0.99371 -17.6249,-3.63635 -19.93287,-5.45181 -3.75252,-2.95173 -3.60346,-8.28687 0.28774,-10.29909 3.16577,-1.6371 16.67439,-3.57507 24.91992,-3.57507 9.20378,0 8.67768,4.85038 9.01627,-83.12508 l 0.29107,-75.62509 -15.03776,-0.42719 c -13.21522,-0.37542 -15.37145,-0.67634 -17.79106,-2.48284 -2.33429,-1.7428 -2.75331,-2.78373 -2.75331,-6.8398 0,-4.08198 0.41335,-5.09277 2.81631,-6.88684 2.50543,-1.87057 4.46477,-2.14288 17.75,-2.46691 8.21353,-0.20033 14.9323,-0.65269 14.93061,-1.00524 -0.005,-0.97531 -6.15883,-12.67125 -11.38702,-21.64101 -13.33735,-22.88229 -12.59593,-47.17682 1.93289,-63.336364 5.6381,-6.270926 12.45288,-10.649603 21.69099,-13.937029 6.38955,-2.273755 8.89499,-2.594221 20.76622,-2.656165 10.76328,-0.05616 14.61496,0.312533 19,1.818738 13.72916,4.715791 24.4323,12.373236 29.58561,21.166691 5.63428,9.614169 5.30789,21.297799 -0.75729,27.108609 -2.56231,2.45485 -3.74649,2.83552 -8.82065,2.83552 -7.86968,0 -10.05175,-1.78726 -17.81792,-14.59407 -10.75853,-17.741357 -15.97912,-21.467303 -29.01222,-20.706104 -11.1172,0.6493 -16.92482,4.550793 -21.3411,14.336714 -1.72419,3.82058 -2.21775,6.6904 -2.14351,12.46346 0.13141,10.21866 2.79714,16.7629 12.8381,31.51687 9.0513,13.29978 11.87668,18.36921 12.91192,23.16722 l 0.68702,3.18409 23.23221,0.31591 c 20.05738,0.27274 23.59518,0.55402 25.88829,2.05834 3.14953,2.06615 4.56443,7.67367 2.87295,11.38606 C 867.90642,197.27583 863.90997,198 840.38029,198 h -21.58442 l 0.3718,75.25 c 0.28703,58.09289 0.6687,76.21901 1.67395,79.5 l 1.30214,4.25 6.62836,8.4e-4 c 3.6456,4.6e-4 11.56914,0.46935 17.60788,1.04199 12.4469,1.18031 16.83798,3.00339 17.33106,7.19549 0.64217,5.45975 -6.27182,8.71537 -22.78435,10.72856 -7.78295,0.9489 -58.56976,1.2272 -65.52623,0.35907 z m 610.74232,-0.77226 c -9.1068,-1.71349 -14.4498,-4.41865 -15.7039,-7.95087 -2.1292,-5.99703 3.0742,-8.86314 17.1009,-9.41938 9.7117,-0.38512 10.1881,-0.50915 11.296,-2.94079 2.4358,-5.34595 3.0037,-18.43757 3.0253,-69.74265 0.021,-51.04087 -0.7996,-72.34615 -3.0543,-79.25 -0.9739,-2.9821 -1.4075,-3.25 -5.2601,-3.25 -7.2467,0 -20.8147,-2.03579 -23.7768,-3.56756 -3.1936,-1.65146 -4.5477,-5.29647 -3.0248,-8.14207 2.3987,-4.48193 16.7789,-9.75339 38.8125,-14.22777 11.5154,-2.33843 16.1612,-2.55812 19.7283,-0.93288 4.4864,2.04417 5.1278,5.61342 4.9629,27.62028 -0.084,11.1375 2e-4,20.25 0.1858,20.25 0.1857,0 1.7658,-2.81064 3.5115,-6.24586 10.3353,-20.3386 26.8526,-36.03418 44.4544,-42.24285 16.3484,-5.76657 32.7364,-1.61949 38.7132,9.79664 2.9012,5.54157 3.0905,15.57413 0.3961,20.99852 -6.0594,12.19893 -21.5397,12.80665 -31.0355,1.21836 -7.8366,-9.56356 -19.3829,-8.07675 -32.6476,4.204 -9.8482,9.11771 -16.8624,22.03735 -21.2028,39.05429 -2.1294,8.34826 -2.2202,10.47194 -2.147,50.2169 0.072,39.31991 0.8547,52.83112 3.1943,55.17072 0.4545,0.45453 7.2563,1.25875 15.1151,1.78718 17.092,1.14925 21.4352,2.68825 21.9259,7.7693 0.2636,2.72953 -0.1932,3.53422 -2.9621,5.21809 -7.1356,4.3394 -15.5486,5.38302 -45.8496,5.68754 -20.9282,0.21033 -30.4282,-0.0764 -35.7577,-1.07914 z M 679.04564,130.93005 c -4.36416,-1.74795 -8.17912,-5.07629 -10.07256,-8.78773 -6.22297,-12.19803 -1.56321,-26.708177 10.14528,-31.591639 4.28133,-1.785687 13.35438,-2.039873 17.46702,-0.489347 9.24842,3.48679 14.36301,16.021686 11.1944,27.435366 -1.44848,5.2176 -8.165,11.93412 -13.3826,13.3826 -4.78794,1.32921 -12.09925,1.35338 -15.35154,0.0507 z"
       id="path1095" />
  </g>
</svg>
