<?xml version="1.0" encoding="UTF-8" standalone="no"?>
<!-- Created with Inkscape (http://www.inkscape.org/) -->

<svg
   version="1.1"
   id="svg2"
   width="391.95929"
   height="77.270828"
   viewBox="0 0 391.95929 77.270828"
   sodipodi:docname="old-style.svg"
   inkscape:version="1.1.2 (0a00cf5339, 2022-02-04)"
   xmlns:inkscape="http://www.inkscape.org/namespaces/inkscape"
   xmlns:sodipodi="http://sodipodi.sourceforge.net/DTD/sodipodi-0.dtd"
   xmlns="http://www.w3.org/2000/svg"
   xmlns:svg="http://www.w3.org/2000/svg">
  <sodipodi:namedview
     id="namedview6"
     pagecolor="#ffffff"
     bordercolor="#666666"
     borderopacity="1.0"
     inkscape:pageshadow="2"
     inkscape:pageopacity="0.0"
     inkscape:pagecheckerboard="0"
     showgrid="false"
     inkscape:zoom="4.2759543"
     inkscape:cx="196.09658"
     inkscape:cy="38.704811"
     inkscape:window-width="1920"
     inkscape:window-height="1044"
     inkscape:window-x="0"
     inkscape:window-y="0"
     inkscape:window-maximized="1"
     inkscape:current-layer="svg2" />
  <defs
     id="defs6" />
  <g
     id="g8"
     transform="translate(0,6)">
    <path
       style="fill:#73403f;fill-opacity:1;stroke-width:0.220014"
       d="m 62.780931,65.532211 c -3.934812,-0.2687 -6.658482,-1.206645 -7.04558,-2.426258 -0.260582,-0.821043 0.376445,-1.194019 2.039341,-1.194019 1.339489,0 1.493917,-0.04812 1.766076,-0.550036 0.245363,-0.452516 0.276095,-2.793003 0.173305,-13.200881 -0.06871,-6.95797 -0.200434,-13.096385 -0.292685,-13.640923 l -0.16774,-0.990059 -1.81092,0.06689 c -1.749534,0.06461 -1.819449,0.04812 -2.062811,-0.486019 -0.56735,-1.245181 1.063576,-2.332912 4.992137,-3.32947 2.484204,-0.630175 2.730359,-0.64727 3.301892,-0.229402 0.359808,0.263087 0.444388,0.666156 0.537077,2.559398 l 0.110013,2.247141 0.845579,-1.23021 c 1.78947,-2.603451 3.971642,-4.010006 6.602375,-4.255665 5.135177,-0.479531 9.37692,2.795404 10.734228,8.287607 0.436917,1.767915 0.368594,6.766531 -0.117283,8.580577 -1.365856,5.099557 -5.085788,8.721969 -9.75935,9.503485 -1.905981,0.318727 -3.815489,0.06003 -5.936017,-0.804262 -0.753901,-0.307273 -1.446949,-0.55885 -1.540105,-0.55906 -0.09319,-2.09e-4 -0.119885,1.877652 -0.05937,4.17302 0.127585,4.839948 0.112405,4.804023 2.110285,5.000246 1.618481,0.158954 2.069996,0.383935 2.069996,1.031453 0,0.813323 -0.71021,1.257358 -2.348816,1.46855 -0.825807,0.10644 -1.550949,0.182196 -1.611458,0.16836 -0.06051,-0.01382 -1.199079,-0.09953 -2.530163,-0.190429 z M 73.025519,52.625244 c 1.557743,-0.503096 2.659701,-1.603577 3.600695,-3.595854 1.854334,-3.926045 1.79817,-8.945092 -0.140792,-12.582969 -1.690415,-3.171536 -4.965569,-4.290008 -8.00891,-2.735038 -3.171535,1.620482 -4.227535,4.753729 -3.980104,11.809448 0.135017,3.850404 0.450658,4.934467 1.763961,6.058619 1.606865,1.375404 4.405166,1.807985 6.76515,1.045794 z M 221.874,65.093513 c -1.73989,-0.273113 -3.04561,-0.939555 -4.00824,-2.04584 -1.08807,-1.250431 -2.06466,-3.351148 -2.06223,-4.435955 0.002,-0.921335 0.68813,-2.610741 1.61281,-3.971537 0.50848,-0.748297 0.52409,-0.850868 0.23483,-1.543163 -0.40985,-0.980911 -0.39219,-2.154537 0.0454,-3.021805 0.19543,-0.387261 0.94318,-1.426709 1.66168,-2.30989 l 1.30633,-1.605769 -0.89376,-1.067492 c -4.76238,-5.688138 -1.33961,-13.861615 6.50029,-15.522491 2.27132,-0.481179 3.91003,-0.412008 5.70111,0.240656 2.93812,1.070637 2.88252,1.065167 4.35162,0.428026 2.90731,-1.260865 4.07389,-0.915799 4.52672,1.338927 0.47213,2.350998 0.33508,2.91507 -0.79231,3.26068 -0.40118,0.122991 -0.66713,-0.03802 -1.40894,-0.853127 -0.5029,-0.552609 -1.05076,-1.004743 -1.21747,-1.004743 -0.48464,0 -0.56931,0.565825 -0.19344,1.292692 0.19124,0.369803 0.46211,1.408203 0.60193,2.307555 0.66305,4.264965 -1.29696,8.401126 -4.74843,10.020503 -2.32262,1.089733 -4.61329,1.376833 -8.17929,1.025145 -1.76835,-0.174401 -1.78221,-0.171762 -2.25516,0.429512 -0.88746,1.128221 -0.52024,2.386875 0.79293,2.717829 0.45174,0.113843 2.60344,0.321157 4.78158,0.460691 7.60204,0.486992 8.70113,0.620865 9.89583,1.205377 0.62487,0.305721 1.27559,0.825331 1.49169,1.191151 0.74237,1.256767 0.35138,3.733034 -1.03152,6.532851 -1.35424,2.741803 -2.90715,3.883584 -6.28777,4.623095 -1.93927,0.424224 -8.45716,0.616215 -10.42627,0.307122 z m 9.1945,-3.079456 c 1.68831,-0.244049 3.26795,-0.864962 4.0653,-1.597965 0.67809,-0.623381 1.32878,-2.053406 1.18483,-2.603909 -0.24044,-0.919429 -1.05827,-1.061984 -7.91607,-1.379835 -3.60303,-0.166997 -6.82966,-0.413246 -7.17031,-0.547225 -0.80959,-0.318423 -0.93393,-0.308979 -1.34505,0.102133 -0.43643,0.43643 -0.45669,2.1039 -0.0354,2.910401 1.35663,2.59679 5.9611,3.876084 11.21666,3.1164 z m -1.34086,-17.230498 c 0.91157,-0.380866 2.007,-1.628972 2.37774,-2.709081 0.39933,-1.163449 0.34816,-4.104448 -0.0977,-5.614631 -0.92675,-3.138898 -3.59503,-4.818794 -6.03485,-3.799376 -1.78843,0.747259 -2.70688,2.245979 -2.86554,4.675925 -0.21291,3.260898 1.27048,6.330273 3.58466,7.417185 0.84451,0.396637 2.12783,0.409311 3.0357,0.03002 z M 16.256205,55.53352 c -1.802163,-0.409959 -5.34737,-2.17998 -6.4356929,-3.213158 -1.3851238,-1.314961 -0.9830265,-2.839257 0.7489739,-2.839257 0.597672,0 1.153406,0.278868 2.402846,1.205759 2.040818,1.513966 3.282177,1.943564 5.576734,1.929966 4.054964,-0.02401 7.551087,-2.193397 9.382866,-5.822126 2.37686,-4.708562 1.309568,-10.726368 -2.16501,-12.207249 -1.264695,-0.539011 -3.472805,-0.430132 -5.091191,0.251033 -1.780246,0.749298 -2.348749,0.731365 -2.772163,-0.08748 -0.804509,-1.555732 -0.291236,-2.212684 2.597848,-3.325096 2.002969,-0.771224 3.134791,-1.518645 4.198338,-2.772497 3.284207,-3.871777 3.3232,-8.490537 0.09618,-11.391904 -1.813455,-1.63044 -3.982429,-2.044373 -6.540512,-1.248211 -2.656986,0.82695 -4.620113,2.46305 -5.0975,4.248337 -0.341206,1.276064 -0.565682,1.498787 -1.50235,1.490573 -1.463348,-0.01286 -2.1682021,-0.991756 -1.777854,-2.469092 0.583569,-2.208625 3.059635,-4.874043 5.764104,-6.204861 7.357648,-3.620573 16.24932,0.03068 17.573305,7.216236 0.65214,3.5393 -1.048719,7.354589 -4.49209,10.07642 l -1.072352,0.847647 0.705722,0.385669 c 4.220083,2.306221 6.592655,6.099984 6.592655,10.541742 0,2.205489 -0.333412,3.618581 -1.362092,5.772814 -1.639302,3.433021 -4.990593,6.083927 -9.204644,7.280967 -2.178237,0.618759 -6.155177,0.782087 -8.126118,0.333736 z M 202.86234,55.419286 c -2.44052,-0.341054 -3.74022,-1.350638 -3.01433,-2.341459 0.23925,-0.326571 0.59324,-0.40651 1.80009,-0.40651 h 1.50226 l 0.44003,-0.880055 c 0.38359,-0.767175 0.44931,-1.410967 0.51235,-5.018771 0.0874,-5.001494 -0.24953,-10.440124 -0.70049,-11.307039 -0.8158,-1.568272 -2.71343,-2.568765 -4.8722,-2.568765 -3.26244,0 -5.19616,2.084537 -6.50633,7.013772 -0.56447,2.123654 -0.86502,9.498483 -0.44835,11.000738 0.37058,1.335992 0.49266,1.428757 2.07461,1.576486 0.80778,0.07547 1.579,0.270082 1.71384,0.432552 0.38787,0.467343 0.0309,1.361549 -0.69311,1.735907 -2.16313,1.118606 -10.96489,0.874377 -12.43416,-0.345018 -0.4007,-0.332535 -0.41312,-1.396663 -0.0201,-1.722824 0.19773,-0.16409 0.8596,-0.199376 1.97353,-0.10522 l 1.67602,0.141678 0.25598,-0.636769 c 0.17198,-0.427807 0.29184,-3.432736 0.36526,-9.157276 0.12986,-10.125484 0.23039,-9.647335 -1.99079,-9.469037 -1.54062,0.123668 -2.23522,-0.110451 -2.41961,-0.815544 -0.21059,-0.8053 0.51446,-1.272843 3.2382,-2.088158 5.50221,-1.647011 5.8419,-1.490334 5.84794,2.697379 l 0.004,2.35481 0.76031,-1.341224 c 1.44434,-2.547878 3.93199,-4.202254 7.14815,-4.753758 2.737,-0.469344 5.75577,0.341016 7.48391,2.008991 2.03691,1.965996 2.39217,3.476741 2.43543,10.356411 0.0423,6.731179 0.25827,10.046613 0.68204,10.47037 0.2261,0.226115 0.89401,0.400306 1.81978,0.474623 1.13483,0.0911 1.51263,0.210954 1.68601,0.534913 0.37048,0.692257 0.002,1.295446 -1.08782,1.780093 -0.86661,0.385422 -1.54536,0.464094 -4.43349,0.513893 -1.87562,0.0323 -4.03487,-0.02849 -4.79832,-0.135189 z m 139.50777,-0.101484 c -3.99499,-1.127773 -7.17828,-4.213337 -8.7501,-8.481504 -0.80871,-2.19597 -0.99222,-5.359615 -0.45182,-7.788713 1.12056,-5.036609 4.95292,-9.057507 9.53737,-10.006524 4.57235,-0.946501 9.36135,1.315791 11.34016,5.357042 1.54364,3.152535 1.65631,7.289658 0.21348,7.838226 -0.29554,0.112367 -3.93453,0.204303 -8.08662,0.204303 -8.53823,0 -8.20294,-0.06947 -7.96702,1.651814 0.16118,1.175904 0.98328,2.884501 2.12098,4.408005 1.76384,2.362005 4.92963,3.750454 7.37965,3.236552 1.74766,-0.366573 3.53179,-1.234679 4.64343,-2.259366 1.06043,-0.977462 1.70287,-1.105561 2.07332,-0.413399 0.93583,1.748619 -1.8108,4.517456 -5.89224,5.939924 -1.69141,0.589487 -4.64989,0.740103 -6.16059,0.31364 z m 3.16911,-16.175832 c 4.47576,-0.0019 4.6041,-0.05536 4.39363,-1.832551 -0.23223,-1.960612 -1.56241,-3.891817 -3.33285,-4.838643 -0.67092,-0.358806 -1.27219,-0.471859 -2.53017,-0.475718 -1.42107,-0.0048 -1.81268,0.085 -2.82136,0.643716 -1.92803,1.067968 -3.33906,3.354559 -3.33906,5.411005 0,1.123789 0.45794,1.351295 2.42016,1.202328 0.78656,-0.05975 3.13091,-0.109279 5.20965,-0.110137 z M 116.35453,55.096623 c -2.99166,-0.507222 -4.15347,-1.321861 -3.43941,-2.411651 0.3061,-0.467171 0.44952,-0.498541 1.83076,-0.400439 2.39978,0.170446 2.25049,0.766898 2.30165,-9.195392 0.0352,-6.845375 -0.0164,-8.626917 -0.26996,-9.339099 -0.36529,-1.025783 -0.89461,-1.199631 -2.14432,-0.704283 -1.09628,0.434525 -1.79895,0.167111 -1.79895,-0.684624 0,-1.114461 1.13212,-1.769364 4.44709,-2.572482 4.02879,-0.976051 4.4516,-0.760961 4.48333,2.280722 0.0109,1.045384 0.037,2.296711 0.0579,2.780748 l 0.0381,0.880056 0.91152,-1.643828 c 1.09485,-1.974439 2.87629,-3.820264 4.291,-4.446055 0.56933,-0.251844 1.63525,-0.501714 2.3687,-0.555287 2.17764,-0.15903 3.86705,0.9686 4.29519,2.866939 0.40884,1.81275 -0.63676,3.513952 -2.40377,3.910971 -1.13204,0.254359 -1.63624,-0.0067 -2.57292,-1.330037 -0.88012,-1.243827 -1.6405,-1.22292 -3.09532,0.0851 -2.16656,1.947919 -3.2436,5.369877 -3.50133,11.124386 -0.1644,3.6708 0.004,5.500111 0.56878,6.198248 0.3523,0.435077 0.57393,0.484704 1.95277,0.437326 1.39141,-0.04784 1.58182,-0.0038 1.80634,0.415486 0.33083,0.618159 0.10394,1.453437 -0.47964,1.765761 -0.59607,0.319004 -4.9458,0.864752 -6.67731,0.837775 -0.72606,-0.01134 -2.06264,-0.146461 -2.9702,-0.300327 z m 40.52335,0.107192 c -0.97226,-0.230126 -1.47731,-0.723226 -4.05864,-3.962599 -1.20532,-1.512594 -3.5418,-4.259581 -5.19216,-6.104405 l -3.00065,-3.354236 -0.17136,0.934066 c -0.20421,1.113203 0.16914,7.980743 0.47805,8.793237 0.29429,0.774045 0.59894,0.920049 1.78803,0.856938 1.17434,-0.06232 1.66096,0.324798 1.45246,1.155503 -0.3105,1.237156 -3.93807,1.898511 -8.19332,1.493764 -2.95598,-0.281164 -4.39259,-0.801984 -4.61084,-1.671576 -0.22691,-0.904088 0.25475,-1.295599 1.4007,-1.138531 2.23285,0.306054 2.39689,-0.260477 2.6817,-9.261781 0.24533,-7.753227 0.26746,-22.52926 0.0386,-25.739435 -0.0794,-1.113375 -0.24742,-2.127304 -0.37339,-2.253183 -0.1586,-0.158477 -0.60987,-0.148986 -1.46732,0.03087 -0.99595,0.208906 -1.30636,0.203246 -1.58608,-0.02887 -0.54993,-0.456394 -0.41523,-1.238986 0.31968,-1.857364 1.46078,-1.229172 7.66989,-2.633344 8.27191,-1.870667 0.17155,0.217329 0.18007,4.11959 0.0301,13.795541 -0.115,7.420873 -0.15474,13.546833 -0.0883,13.61325 0.19932,0.19932 5.04514,-3.782833 6.51385,-5.352878 1.36019,-1.454057 1.44676,-1.828348 0.42512,-1.838154 -0.51531,-0.0048 -1.11405,-0.756549 -0.9478,-1.189768 0.078,-0.203493 0.45174,-0.530683 0.83035,-0.727096 1.44939,-0.751889 7.38178,-0.560899 8.66351,0.278925 0.63667,0.417163 0.65343,1.314523 0.0308,1.647754 -0.25557,0.13678 -0.94211,0.244992 -1.52566,0.240466 -0.86357,-0.0067 -1.29907,0.146671 -2.34052,0.824206 -1.19449,0.777094 -6.69792,5.473982 -7.01488,5.986836 -0.0787,0.127337 0.14,0.563615 0.48598,0.969514 0.34599,0.4059 2.09525,2.476067 3.88724,4.600379 1.79201,2.124301 4.19383,4.898561 5.33739,6.16501 1.76564,1.95538 2.20334,2.322801 2.90224,2.436254 1.23904,0.20113 1.73931,0.459749 1.87217,0.967818 0.17226,0.658706 -0.46311,1.325806 -1.48918,1.563537 -1.04696,0.242581 -4.31946,0.24057 -5.34973,-0.0029 z m 13.20068,-0.01849 c -1.65443,-0.214737 -2.71049,-0.776237 -2.9981,-1.594029 -0.16321,-0.464103 -0.12847,-0.678307 0.1562,-0.962978 0.31998,-0.319976 0.50982,-0.332935 1.50672,-0.102818 1.4403,0.332459 2.03522,0.0057 2.43752,-1.338689 0.38689,-1.292959 0.34991,-17.033199 -0.0417,-17.765001 -0.24296,-0.453983 -0.36589,-0.483885 -1.39875,-0.340254 -1.54638,0.215052 -1.94154,0.188418 -2.15964,-0.145537 -0.36976,-0.566216 -0.0817,-1.365894 0.67504,-1.874222 0.89196,-0.59911 4.55392,-1.806107 5.99915,-1.977345 0.89778,-0.106372 1.09796,-0.05031 1.59511,0.446856 l 0.56849,0.568494 0.003,6.225424 c 0.002,3.423979 0.10022,8.156049 0.21905,10.515699 0.26461,5.254024 0.32472,5.390365 2.37662,5.390365 0.73297,0 1.44592,0.1117 1.58435,0.248223 0.40126,0.395731 0.15641,1.432121 -0.44277,1.874173 -1.13426,0.836823 -6.57937,1.286051 -10.08025,0.831639 z m 92.36579,-0.08872 c -2.99166,-0.507222 -4.15347,-1.32186 -3.43941,-2.41165 0.30611,-0.467171 0.44952,-0.498541 1.83077,-0.400439 2.39977,0.170446 2.25049,0.766898 2.30164,-9.195392 0.0352,-6.845375 -0.0163,-8.626917 -0.26996,-9.339099 -0.36529,-1.025784 -0.8946,-1.199632 -2.14433,-0.704283 -1.09627,0.434525 -1.79895,0.167111 -1.79895,-0.684624 0,-1.114461 1.13213,-1.769364 4.44709,-2.572482 4.0288,-0.976051 4.4516,-0.760962 4.48333,2.280721 0.011,1.045385 0.037,2.296711 0.0579,2.780749 l 0.0381,0.880055 0.91152,-1.643828 c 1.09486,-1.974438 2.87632,-3.820263 4.29102,-4.446055 0.56933,-0.251843 1.63524,-0.501714 2.3687,-0.555286 2.17763,-0.159031 3.86704,0.968599 4.29519,2.866939 0.40883,1.812749 -0.63677,3.513952 -2.40377,3.91097 -1.13204,0.254359 -1.63625,-0.0067 -2.57292,-1.330036 -0.88012,-1.243827 -1.64049,-1.222921 -3.09532,0.08509 -2.16656,1.947919 -3.24359,5.369878 -3.50134,11.124386 -0.16439,3.670801 0.004,5.500112 0.56878,6.198248 0.35231,0.435077 0.57394,0.484705 1.95277,0.437326 1.39141,-0.04784 1.58183,-0.0038 1.80634,0.415486 0.33084,0.618159 0.10396,1.453438 -0.47963,1.765762 -0.59607,0.319004 -4.94582,0.864752 -6.67732,0.837775 -0.72605,-0.01134 -2.06264,-0.146462 -2.97019,-0.300327 z m 30.80207,-0.01277 c -2.1405,-0.600444 -3.66173,-1.853534 -4.53134,-3.732586 -0.99088,-2.141102 -1.25455,-4.498218 -1.28284,-11.467852 -0.0205,-5.026183 -0.09,-6.484681 -0.32308,-6.765455 -0.21138,-0.254702 -0.66225,-0.357939 -1.56326,-0.357939 -1.43294,0 -1.83132,-0.28976 -1.72103,-1.251784 0.0989,-0.862799 1.47994,-1.503275 4.2512,-1.971608 2.62994,-0.444455 3.68578,-0.312563 4.23696,0.529243 0.34568,0.528005 0.38348,1.332038 0.38465,8.185274 0.002,7.283464 0.0218,7.660042 0.49268,9.048578 1.0679,3.148799 2.30562,4.060205 5.48162,4.036496 1.81149,-0.01353 2.1618,-0.08719 3.46354,-0.72801 1.78025,-0.876415 2.31746,-1.694217 3.14485,-4.787548 0.54416,-2.034481 0.58152,-2.487025 0.59863,-7.250588 0.0143,-4.003355 -0.0457,-5.157999 -0.28369,-5.445367 -0.22168,-0.267738 -0.6638,-0.364686 -1.66306,-0.364686 -1.76204,0 -2.56843,-0.621666 -2.06817,-1.594392 0.66089,-1.285068 5.98432,-2.229693 7.94551,-1.409889 1.4267,0.596366 1.36803,0.138085 1.36803,10.684182 0,11.366862 -0.0829,10.911345 1.98652,10.911345 0.72255,0 1.43746,0.08014 1.58872,0.177993 0.47673,0.308541 0.30463,1.256339 -0.34631,1.907268 -0.76027,0.760285 -3.81523,1.778073 -5.50848,1.83521 -1.05851,0.03573 -1.22778,-0.02382 -1.65011,-0.580777 -0.39869,-0.525699 -0.48744,-1.010222 -0.58065,-3.169505 l -0.11,-2.548945 -0.6547,1.37365 c -0.3601,0.755511 -1.02546,1.708607 -1.47859,2.117994 -0.97834,0.883858 -2.89889,1.887229 -4.57716,2.391287 -1.77055,0.531769 -5.10738,0.647242 -6.60044,0.228411 z m 24.9812,0.11311 c -1.44389,-0.183872 -2.31968,-0.882666 -2.31968,-1.850894 0,-0.79196 0.49033,-1.057153 1.63678,-0.88523 1.21249,0.181824 1.98972,-0.233576 2.43616,-1.302011 0.73942,-1.769688 0.89572,-13.456222 0.43133,-32.251428 -0.0878,-3.551934 -0.13744,-3.6285 -2.21178,-3.407684 -1.08719,0.11574 -1.40654,0.07356 -1.70512,-0.224961 -0.86519,-0.865191 -0.15871,-2.020874 1.61904,-2.648534 1.66492,-0.587828 5.20349,-1.428052 6.17434,-1.466092 1.52214,-0.05965 1.58257,0.147396 1.3922,4.768757 -0.21479,5.213782 -0.16038,28.390131 0.0761,32.426247 0.21925,3.741801 0.36389,3.986202 2.35918,3.986202 1.31972,0 1.72137,0.3116 1.61359,1.251775 -0.0961,0.837908 -1.1098,1.303793 -3.47538,1.597192 -2.08017,0.258009 -6.02721,0.261277 -8.02677,0.0067 z m 48.98571,-0.206018 c -0.88449,-0.239932 -2.11345,-0.711248 -2.73113,-1.047376 -3.07397,-1.673073 -4.87563,-5.024917 -3.80943,-7.08687 0.36821,-0.711925 0.73136,-0.895797 1.76945,-0.895797 1.03943,0 1.76231,0.700709 3.29906,3.197892 1.41249,2.295377 2.17033,2.968881 3.83029,3.404063 1.53818,0.40327 3.46496,-0.167883 4.57166,-1.355193 0.71068,-0.762477 1.37838,-2.377565 1.38391,-3.347518 0,-0.694124 -0.14723,-1.002132 -0.82026,-1.671367 -1.02485,-1.019113 -2.48289,-1.57297 -6.6732,-2.534994 -3.74396,-0.85954 -5.08565,-1.464692 -6.29603,-2.839791 -1.45604,-1.654119 -1.74496,-3.547656 -0.93928,-6.156186 1.19561,-3.87092 5.89267,-6.445012 10.36189,-5.678619 0.84361,0.14466 1.92086,0.460481 2.39389,0.701833 1.01274,0.516627 1.70579,0.547378 2.29488,0.101799 0.69162,-0.523097 1.34474,-0.383077 2.07085,0.44393 2.05246,2.337591 1.62404,6.498603 -0.66837,6.492086 -0.7972,-0.0019 -1.55533,-0.626964 -3.06892,-2.528725 -1.54323,-1.939019 -3.13392,-2.971225 -4.57547,-2.968976 -3.30477,0.0048 -5.65063,3.061989 -4.18926,5.458955 0.61186,1.003562 2.16243,1.662239 5.49379,2.333779 4.31027,0.868859 5.70837,1.384486 7.2334,2.667744 2.70311,2.274489 2.80555,6.962182 0.22384,10.243759 -2.20121,2.797892 -7.13945,4.154943 -11.15556,3.065572 z M 92.16014,54.849296 c -2.287496,-0.614747 -3.975463,-2.096239 -4.862922,-4.26809 -0.188209,-0.460587 -0.30898,-1.477413 -0.300528,-2.530173 0.01706,-2.12292 0.577928,-3.476875 2.022675,-4.88281 2.024447,-1.970055 4.6307,-2.698132 9.678975,-2.703878 l 3.35523,-0.0038 -9.6e-4,-2.915194 c -6.6e-4,-1.603358 -0.11055,-3.308991 -0.24417,-3.790294 -0.31136,-1.121522 -1.60824,-2.418397 -2.729758,-2.729759 -1.255652,-0.348601 -3.330594,-0.30148 -4.165227,0.09453 -0.757207,0.359312 -0.823453,0.458996 -1.852943,2.788115 -1.073905,2.429613 -2.864128,3.099667 -4.339568,1.624227 -0.908519,-0.908519 -0.977481,-1.785411 -0.253025,-3.217437 1.17779,-2.327919 4.590773,-3.735026 9.05951,-3.735026 3.417701,0 5.859351,0.897265 7.649481,2.81107 1.615,1.72656 1.70231,2.225224 1.95418,11.159863 0.12258,4.347935 0.31861,7.957015 0.45026,8.289655 0.3874,0.978815 0.91588,1.329846 1.60669,1.067197 0.68984,-0.262278 1.44647,0.03192 1.44647,0.562481 0,1.143105 -1.41431,2.380643 -3.01279,2.63625 -2.11002,0.337405 -3.48021,-0.84617 -4.5427,-3.924025 -0.11006,-0.318804 -0.40337,-0.11776 -1.62476,1.113717 -2.078976,2.096125 -3.976801,2.904979 -6.770827,2.885721 -0.726047,-0.0048 -1.861367,-0.154571 -2.522931,-0.332364 z m 6.353288,-3.047714 c 2.355052,-1.217851 3.465272,-3.201257 3.687742,-6.588196 0.17225,-2.622176 0.16903,-2.624958 -3.005137,-2.596428 -2.705898,0.0243 -3.919512,0.273627 -5.113654,1.050425 -1.212753,0.78891 -1.792768,2.064793 -1.792768,3.943627 0,2.095362 0.767947,3.535383 2.39346,4.488088 0.601083,0.352298 2.922429,0.17199 3.830357,-0.297516 z M 171.95693,22.773804 c -1.88388,-0.519047 -2.91661,-1.911785 -2.74465,-3.701436 0.2529,-2.631972 3.6087,-4.023185 6.13428,-2.543094 1.2805,0.750413 1.82206,1.795645 1.68257,3.247367 -0.22181,2.30846 -2.55913,3.689573 -5.0722,2.997163 z"
       id="path8750" />
  </g>
</svg>
