<?xml version="1.0" encoding="UTF-8" standalone="no"?>
<!-- Created with Inkscape (http://www.inkscape.org/) -->

<svg
   version="1.1"
   id="svg2"
   width="391.95929"
   height="77.270828"
   viewBox="0 0 391.95929 77.270828"
   xmlns="http://www.w3.org/2000/svg"
   xmlns:svg="http://www.w3.org/2000/svg">
  <defs
     id="defs6" />
  <g
     id="g8">
    <path
       style="fill:#73403f;stroke-width:0.182688;fill-opacity:1"
       d="m 226.79766,66.138379 c -3.93003,-0.645995 -6.6283,-2.246576 -7.94184,-4.710995 -0.79377,-1.489272 -0.96469,-3.434263 -0.43276,-4.924212 0.37915,-1.061974 1.79098,-2.74396 2.69615,-3.212035 0.51928,-0.26853 0.53767,-0.308361 0.22782,-0.493316 -1.92802,-1.150934 -2.70569,-2.341162 -2.69714,-4.128116 0.01,-2.014374 1.53572,-4.119329 3.84708,-5.306257 l 0.90382,-0.464144 -0.84954,-0.688922 c -1.11903,-0.907451 -2.11122,-2.250367 -2.61954,-3.54547 -0.61881,-1.576703 -0.58935,-4.557314 0.0632,-6.394843 0.62892,-1.770909 1.40415,-2.934951 2.81654,-4.229155 2.34047,-2.14461 5.73677,-3.260709 9.29029,-3.052988 1.00478,0.05868 2.5998,0.272867 3.54448,0.475842 3.26558,0.701658 5.33769,0.377873 7.01169,-1.095641 l 0.81995,-0.721745 0.46364,0.364692 c 1.37803,1.083952 0.27553,3.732909 -2.04671,4.917631 l -0.75287,0.384083 0.35002,0.686132 c 0.96517,1.891848 1.24033,4.71422 0.65756,6.74449 -0.94324,3.286118 -3.67384,6.05963 -7.15924,7.271724 -2.68801,0.934796 -6.11148,1.045419 -8.42713,0.272302 -1.30507,-0.435715 -1.62093,-0.384769 -2.52243,0.406748 -0.85326,0.749164 -1.34739,1.768471 -1.34739,2.77937 0,0.695512 0.10612,0.946318 0.65972,1.559081 1.21473,1.344547 3.18455,1.573282 7.83527,0.909796 4.22445,-0.602668 7.71484,-0.816563 9.26062,-0.567509 2.67884,0.431627 4.48897,1.750627 5.27896,3.84661 0.3142,0.833675 0.37146,1.319844 0.31443,2.669841 -0.0605,1.433683 -0.15522,1.829771 -0.72031,3.014353 -1.72254,3.610904 -5.24918,5.996281 -10.39382,7.030289 -1.94332,0.390591 -6.32234,0.499582 -8.13053,0.202364 z m 6.3316,-2.384683 c 2.69264,-0.185409 5.64258,-1.478028 7.05533,-3.09154 0.9701,-1.107988 1.37576,-2.08345 1.45478,-3.498334 0.0918,-1.642814 -0.3542,-2.50566 -1.63572,-3.164984 -1.22397,-0.629717 -2.76403,-0.686734 -6.22467,-0.230431 -3.065,0.404143 -7.6674,0.508332 -8.98292,0.203364 -0.63057,-0.146171 -0.78519,-0.116128 -1.14577,0.222618 -0.22927,0.215378 -0.61733,0.807201 -0.86241,1.315144 -1.56481,3.243468 0.0172,6.444463 3.84797,7.786081 1.03735,0.363292 3.68832,0.707971 4.64381,0.6038 0.2512,-0.02744 1.08352,-0.09296 1.8496,-0.145718 z m 0.42123,-21.72318 c 2.81772,-1.291192 4.30594,-3.763981 4.30594,-7.154631 0,-4.030425 -2.25346,-6.914652 -5.93736,-7.599328 -3.10079,-0.576297 -6.17039,1.21824 -7.4228,4.339499 -0.37128,0.925286 -0.42752,1.37192 -0.42212,3.351162 0.005,1.925172 0.0699,2.441319 0.41147,3.288388 0.81808,2.028556 2.17061,3.363509 4.10849,4.055119 1.39494,0.497839 3.52077,0.37765 4.95638,-0.280209 z M 59.461528,65.909857 c -1.949045,-0.383806 -2.27518,-0.492565 -2.639296,-0.880134 -0.59991,-0.638588 -0.439309,-1.21939 0.447038,-1.616645 1.852932,-0.830458 2.004929,-0.942815 2.275398,-1.682051 0.222825,-0.609018 0.278381,-2.889539 0.333571,-13.689501 C 59.945174,34.94105 59.83673,31.615732 59.30078,30.332994 59.077042,29.797539 58.916568,29.672845 58.333593,29.58141 56.343517,29.269277 55.753197,28.838095 56.07776,27.933731 c 0.363806,-1.013634 3.751463,-2.552703 6.098512,-2.770639 0.951567,-0.08834 1.19098,-0.04792 1.578425,0.266444 0.419708,0.340554 0.461853,0.512596 0.520022,2.122475 0.08383,2.319888 -0.02908,2.318275 2.969338,0.04236 2.50871,-1.904252 4.579826,-2.602461 7.212087,-2.431318 6.434583,0.418362 10.996818,5.104839 11.781003,12.101832 0.787937,7.030326 -2.458669,13.742133 -7.951807,16.438995 -2.346519,1.152028 -3.594296,1.441219 -6.218336,1.441219 -2.457466,0 -3.662731,-0.254542 -6.012466,-1.26977 -0.794875,-0.343446 -1.51421,-0.581821 -1.59852,-0.529726 -0.206949,0.127901 -0.186013,4.480664 0.03237,6.726489 0.0969,0.996652 0.288099,1.980641 0.424896,2.186657 0.136797,0.206016 0.767692,0.585678 1.401985,0.843686 1.287786,0.523812 1.566331,0.823395 1.396103,1.501619 -0.234353,0.93374 -2.290288,1.430559 -5.783558,1.397616 -1.155502,-0.01085 -2.265332,-0.05219 -2.466289,-0.09177 z M 74.393171,52.40901 c 2.074496,-0.258824 4.640587,-2.173689 5.691116,-4.24684 1.023584,-2.019936 1.299352,-3.500189 1.284024,-6.892211 -0.01169,-2.580705 -0.08084,-3.352747 -0.409111,-4.567196 -1.173223,-4.340249 -3.678955,-7.130724 -7.134957,-7.94573 -1.382509,-0.326029 -3.854936,-0.147034 -5.197347,0.376278 -2.078021,0.810075 -3.69209,2.862546 -4.140479,5.265109 -0.255105,1.366868 -0.238298,12.536147 0.02068,13.7437 0.435711,2.031661 3.312079,3.929812 6.586744,4.346673 1.137928,0.144855 1.585532,0.134038 3.299329,-0.07981 z m -57.843572,7.391644 c -2.928785,-0.406099 -4.725992,-1.021188 -5.838912,-1.998337 -0.7501935,-0.658666 -0.8530112,-1.234972 -0.308286,-1.727945 0.485038,-0.438959 1.387706,-0.400017 3.580981,0.154459 3.649957,0.922718 6.464208,1.008535 9.33213,0.284547 5.097117,-1.286724 7.974198,-5.506562 7.230975,-10.605774 -0.512939,-3.519293 -2.508876,-5.706098 -6.107469,-6.691516 -0.909148,-0.248952 -1.818202,-0.308731 -4.344264,-0.285687 -2.278138,0.02076 -3.233781,-0.03254 -3.33126,-0.185808 -0.222552,-0.349916 -0.161244,-1.707941 0.08602,-1.905577 0.125603,-0.100389 0.721625,-0.238449 1.324488,-0.306803 2.855696,-0.323794 5.566147,-1.433933 7.03777,-2.88254 1.520103,-1.496317 2.181985,-3.203294 2.185804,-5.637114 0.0065,-4.165528 -2.382272,-6.774561 -6.195038,-6.766182 -2.136685,0.0046 -3.994116,0.662383 -7.227453,2.559145 -1.40973,0.826982 -1.898189,0.913133 -2.349532,0.414394 -0.847746,-0.936752 -0.110094,-2.017265 2.630538,-3.853135 4.566149,-3.058736 9.835049,-3.592013 13.96082,-1.413012 4.039203,2.133274 5.795929,7.063623 4.097898,11.500869 -0.539441,1.409638 -2.066274,3.353572 -3.453554,4.396979 -0.653113,0.491221 -1.210908,0.989635 -1.239569,1.10759 -0.02966,0.12208 0.35228,0.318094 0.886632,0.455051 4.818178,1.234861 7.733847,5.505524 7.422289,10.871652 -0.195801,3.372529 -1.377083,5.975333 -3.784578,8.338815 -1.744973,1.713077 -4.23568,3.041254 -7.029872,3.748705 -2.078389,0.526223 -6.325174,0.738013 -8.566577,0.427224 z m 95.146531,-4.814183 c -0.71119,-0.309677 -1.562,-1.337196 -2.31865,-2.800227 -0.3246,-0.627612 -0.6603,-1.141423 -0.74602,-1.141794 -0.0857,-3.71e-4 -0.57009,0.371783 -1.07641,0.826992 -3.32098,2.985849 -8.688392,3.842104 -12.666814,2.020732 -5.06432,-2.318526 -5.988921,-9.72819 -1.703991,-13.655611 2.493042,-2.285016 6.173393,-3.242829 11.546185,-3.004917 1.48641,0.06581 3.06894,0.169902 3.51675,0.231275 l 0.81417,0.111596 -0.003,-1.166627 c -0.005,-1.771345 -0.33186,-4.534178 -0.65106,-5.500036 -0.36312,-1.098821 -1.68101,-2.571436 -2.64723,-2.958032 -1.85066,-0.740478 -4.3041,-0.474971 -6.067529,0.656618 -0.52309,0.335668 -1.337994,1.162215 -1.989077,2.017497 -0.606599,0.796875 -1.36152,1.606551 -1.677565,1.799264 -1.451499,0.885075 -3.223635,0.01604 -3.223635,-1.58092 0,-1.949894 2.873784,-4.192975 6.677995,-5.212402 1.791281,-0.480033 5.804451,-0.581015 7.388991,-0.185947 2.32456,0.579559 4.49102,2.30324 5.40549,4.300705 0.87862,1.919157 0.98178,2.969443 0.98839,10.063821 0.008,8.689352 0.21363,11.115256 0.98667,11.647829 0.11056,0.07619 0.6302,0.0875 1.15475,0.0253 0.88993,-0.105617 0.96762,-0.08278 1.16097,0.341602 0.43564,0.956125 -0.87534,2.573326 -2.54806,3.143283 -0.99271,0.338255 -1.57869,0.343306 -2.32117,0.02002 z m -9.21156,-3.038695 c 1.60866,-0.256534 3.2786,-1.067286 4.29798,-2.086666 1.67781,-1.677806 2.35366,-4.073584 2.24242,-7.948994 l -0.055,-1.915486 -0.73074,-0.132934 c -0.40192,-0.07314 -1.88515,-0.189173 -3.29605,-0.257907 -2.11404,-0.102984 -2.82101,-0.06822 -4.01913,0.19733 -3.45423,0.765729 -5.144698,2.430743 -5.578578,5.494586 -0.550573,3.887692 1.674608,6.604067 5.586228,6.819333 0.20096,0.01103 0.89975,-0.06517 1.55285,-0.169262 z m 192.40865,3.019201 c -3.09889,-0.672904 -5.23523,-2.521102 -6.35602,-5.498748 -0.94811,-2.518933 -1.03198,-3.320655 -1.16343,-11.121281 -0.15181,-9.009679 -0.10415,-8.830286 -2.42733,-9.134234 -1.50165,-0.196459 -1.89019,-1.148014 -0.86123,-2.109201 1.12181,-1.047931 5.94802,-2.472724 7.05601,-2.08307 0.94214,0.331331 1.01291,0.719057 0.84853,4.648824 -0.24332,5.817425 -0.18537,15.621421 0.0999,16.898643 0.8733,3.910088 4.02485,5.870549 7.95326,4.947433 2.61945,-0.615535 5.26789,-2.636443 6.27627,-4.789155 l 0.50201,-1.071708 v -7.398874 c 0,-8.026005 -0.0231,-8.226171 -1.00479,-8.704053 -0.25118,-0.122275 -0.86597,-0.289683 -1.36617,-0.372005 -0.69062,-0.113673 -0.96116,-0.254088 -1.12436,-0.583546 -0.30261,-0.611011 0.009,-1.388633 0.73647,-1.838289 0.92748,-0.57321 4.28251,-1.625785 5.6133,-1.761065 1.10292,-0.112124 1.24706,-0.08621 1.62524,0.291945 l 0.41498,0.414978 -0.16374,4.677495 c -0.09,2.572631 -0.15924,7.554834 -0.15373,11.071587 0.0132,8.439371 0.14485,9.091038 1.8836,9.322276 1.84888,0.245865 2.32435,0.737531 1.72234,1.781013 -0.4455,0.772245 -2.7944,1.964929 -4.69012,2.381484 -1.80218,0.396004 -2.3489,0.388208 -2.87904,-0.04106 -0.40465,-0.327614 -0.43527,-0.491249 -0.49574,-2.648976 -0.0754,-2.688269 -0.16312,-2.776153 -1.34124,-1.342906 -1.40235,1.706031 -2.61191,2.807244 -3.63122,3.305945 -1.98051,0.968973 -4.73743,1.263809 -7.07373,0.756497 z m 48.48871,-0.0046 c -4.2033,-0.835195 -7.5811,-3.447898 -9.43474,-7.297724 -1.325,-2.751868 -1.55258,-3.835765 -1.53431,-7.307523 0.0139,-2.632485 0.0648,-3.085534 0.51223,-4.558186 1.59714,-5.256572 5.05412,-8.751903 10.0683,-10.179996 2.10707,-0.60012 5.79836,-0.597089 7.76424,0.0065 3.57033,1.095975 5.93648,3.399503 7.06318,6.876221 0.39046,1.204836 0.47756,1.837075 0.49602,3.600002 0.0191,1.82762 -0.025,2.186148 -0.30375,2.466292 -0.30439,0.305932 -0.98588,0.331145 -10.21743,0.378104 -6.83933,0.03476 -9.9658,0.112153 -10.13277,0.250732 -0.37073,0.307684 -0.30296,2.776135 0.12258,4.465296 1.48884,5.909583 6.55564,9.35472 11.79199,8.017876 2.04119,-0.521125 3.33919,-1.300536 5.01663,-3.01236 0.85407,-0.871569 1.73241,-1.679836 1.9519,-1.79615 0.65965,-0.349583 1.29909,-0.255691 1.62276,0.23831 0.25116,0.383305 0.26113,0.552048 0.0675,1.141795 -1.21303,3.69482 -7.06162,7.030882 -12.22852,6.975209 -0.75358,-0.0083 -1.93521,-0.127048 -2.62583,-0.264265 z m 10.23678,-18.8263 c 0.27064,-0.413051 0.28678,-0.650054 0.12209,-1.793202 -0.96185,-6.676545 -9.44547,-8.860579 -13.95368,-3.592253 -1.54193,1.801915 -2.6273,4.831897 -2.00111,5.586428 0.19656,0.236818 1.28901,0.274972 7.87454,0.274972 h 7.64632 z m 16.41253,18.997379 c -0.20095,-0.03875 -1.17212,-0.250741 -2.15816,-0.471208 -1.57091,-0.351232 -1.86485,-0.370411 -2.37495,-0.155005 -0.32018,0.135215 -0.86803,0.254032 -1.21741,0.264043 -0.57904,0.01659 -0.68662,-0.06739 -1.21516,-0.948385 -1.12363,-1.872976 -1.72621,-5.443659 -1.07544,-6.372764 0.14915,-0.21294 0.49853,-0.463635 0.77643,-0.557109 0.87074,-0.29288 1.3695,-0.02985 1.99615,1.052779 2.19975,3.800253 3.82741,4.88211 7.07873,4.705043 3.29742,-0.179578 5.30345,-2.038826 5.28124,-4.894855 -0.0219,-2.806947 -1.33418,-4.064287 -6.30708,-6.042685 -5.76708,-2.294341 -8.12013,-4.612116 -8.32801,-8.203099 -0.21437,-3.703117 2.08195,-6.896141 5.79495,-8.057818 1.49724,-0.468446 4.19258,-0.646384 5.31113,-0.35063 1.49618,0.395605 1.97314,0.410418 2.81854,0.0876 0.69786,-0.266518 0.91564,-0.280357 1.38065,-0.08778 1.26751,0.525017 2.36521,2.842764 2.50969,5.299035 0.0822,1.398941 0.0518,1.602648 -0.30769,2.055243 -0.29603,0.372737 -0.5606,0.5024 -1.02515,0.5024 -0.816,0 -1.19303,-0.395837 -2.00316,-2.103018 -1.16697,-2.459182 -2.31879,-3.363259 -4.48271,-3.518607 -1.78883,-0.128411 -3.09227,0.306534 -4.18087,1.39514 -1.1019,1.101908 -1.45161,2.285081 -1.11714,3.779665 0.46234,2.065875 1.77904,3.127979 6.3165,5.095124 1.60765,0.696968 3.37896,1.533442 3.93624,1.858812 5.67851,3.315474 5.23374,11.623922 -0.78073,14.583724 -1.88938,0.929791 -4.88431,1.41988 -6.62659,1.084351 z m -247.10486,-0.67407 c -2.50471,-0.570076 -2.90073,-1.924458 -0.77037,-2.634589 1.28279,-0.427594 1.63443,-0.881617 1.87816,-2.425014 0.24094,-1.525692 0.24487,-11.22065 0.006,-14.432352 -0.34469,-4.631666 -0.55119,-5.087282 -2.37668,-5.243743 -1.34946,-0.115665 -1.82341,-0.424183 -1.82341,-1.186965 0,-0.773728 0.67103,-1.333608 2.79157,-2.329139 2.3322,-1.094918 3.45769,-1.412641 4.04924,-1.14311 0.53409,0.243344 1.1141,1.712863 1.27804,3.238045 0.18467,1.718045 0.2912,2.280391 0.43198,2.280391 0.0718,0 0.57953,-0.588635 1.1282,-1.308081 1.16555,-1.528334 2.9664,-3.073205 4.38791,-3.764212 0.79371,-0.385817 1.27633,-0.489627 2.29699,-0.494067 1.11717,-0.0046 1.39769,0.06424 2.07139,0.510047 2.04933,1.356181 1.91408,4.735642 -0.23107,5.7741 -0.90746,0.439293 -1.71331,0.480051 -2.55314,0.129152 -0.73366,-0.306543 -1.56786,-1.268036 -1.70797,-1.968572 -0.1267,-0.633462 -0.25467,-0.640461 -1.45902,-0.07972 -1.99348,0.928168 -3.16756,2.703202 -3.65453,5.525129 -0.34024,1.97165 -0.27863,14.809047 0.075,15.625333 0.30283,0.699044 0.92492,1.045307 2.26307,1.259638 1.38746,0.222228 1.98588,0.567694 1.98588,1.146429 0,0.590692 -0.55973,1.035992 -1.68746,1.34247 -1.34485,0.36548 -7.02679,0.486735 -8.37965,0.178819 z m 20.64529,0.0533 c -1.19121,-0.201492 -1.96473,-0.648089 -2.10744,-1.216729 -0.17397,-0.693093 0.10174,-1.001843 1.3138,-1.471336 1.30038,-0.503688 1.51926,-0.707581 1.742,-1.622726 0.3471,-1.426035 0.50396,-10.609778 0.34289,-20.075714 -0.16319,-9.590444 -0.34068,-12.45248 -0.8174,-13.180045 -0.25067,-0.382568 -0.44655,-0.45252 -1.95744,-0.699067 -0.84681,-0.138184 -1.23901,-0.516887 -1.23901,-1.196364 0,-0.931906 1.57423,-1.830529 4.65855,-2.659248 1.99265,-0.535406 2.8308,-0.55847 3.40516,-0.09371 0.51628,0.417767 0.50915,0.03217 0.27199,14.722771 -0.17986,11.140673 -0.22724,10.744187 1.18495,9.91549 1.6941,-0.994121 6.97142,-6.400786 7.22194,-7.398939 0.13783,-0.549174 -0.30381,-1.049868 -1.32414,-1.501212 -1.02911,-0.455218 -1.27581,-0.921346 -0.80465,-1.520316 0.5311,-0.675193 1.59097,-0.884648 5.02516,-0.993092 3.42497,-0.108148 5.38246,0.09796 6.11426,0.64377 1.08796,0.811446 0.58713,1.452592 -1.74042,2.228008 -1.85845,0.61915 -3.06337,1.329197 -5.25459,3.096463 -1.84184,1.485472 -5.2393,5.220068 -5.2393,5.759212 0,1.244993 9.48236,12.66758 11.60483,13.979341 0.32215,0.1991 1.20165,0.515924 1.95445,0.70404 0.75279,0.188116 1.52094,0.427233 1.70701,0.531358 0.25078,0.140341 0.38753,0.123424 0.52861,-0.06535 0.10467,-0.140072 0.63843,-0.406025 1.18612,-0.590999 1.34319,-0.453642 1.59938,-0.862011 1.85479,-2.956529 0.24408,-2.001693 0.0951,-15.391796 -0.19304,-17.355363 -0.19704,-1.342471 -0.74003,-2.009572 -1.6357,-2.009572 -0.85272,0 -1.67542,-0.378818 -1.85639,-0.854791 -0.43549,-1.145437 1.07637,-2.181911 4.46811,-3.063157 2.34016,-0.608026 3.1139,-0.6114 3.5045,-0.0153 0.26756,0.408342 0.28403,1.464569 0.17314,11.098302 -0.1616,14.03798 -0.10586,14.509252 1.78873,15.122859 0.95143,0.308147 1.5873,0.77904 1.5873,1.175498 0,0.146098 -0.18497,0.477354 -0.41105,0.736123 -0.66244,0.758239 -2.55719,1.066052 -5.89168,0.957145 -2.82926,-0.09242 -3.72412,-0.277503 -4.43019,-0.91635 -0.24567,-0.222284 -0.41105,-0.28147 -0.41105,-0.147108 0,0.123647 -0.3905,0.401659 -0.86777,0.617824 -0.75675,0.342742 -1.20666,0.394012 -3.51674,0.400778 -2.15825,0.0065 -2.75389,-0.04968 -3.21531,-0.302465 -0.90224,-0.494224 -2.16861,-1.874718 -4.24026,-4.622359 -4.52859,-6.006292 -7.71484,-9.773805 -8.26584,-9.773805 -0.70011,0 -0.77574,0.580858 -0.66448,5.104134 0.0582,2.367367 0.20111,4.647202 0.31752,5.066315 0.25182,0.906709 0.70915,1.355096 1.8187,1.783135 0.91852,0.354356 1.4615,0.77296 1.4615,1.126732 0,0.605922 -0.83314,1.178381 -2.10091,1.443564 -1.36767,0.286086 -5.57192,0.339043 -7.05121,0.0888 z m 42.40135,-0.05701 c -1.33545,-0.308101 -1.79817,-0.58476 -1.94297,-1.161696 -0.17549,-0.699193 0.10854,-1.006877 1.37636,-1.490997 0.62226,-0.237606 1.25091,-0.614459 1.39702,-0.837438 0.50794,-0.77524 0.67234,-4.123899 0.57458,-11.704994 -0.0942,-7.30615 -0.21792,-8.803274 -0.77866,-9.422887 -0.15746,-0.173999 -0.79025,-0.405116 -1.40619,-0.513616 -0.61594,-0.1085 -1.23709,-0.314451 -1.38033,-0.457703 -0.36098,-0.360983 -0.32564,-1.14654 0.0714,-1.585184 0.8044,-0.888847 4.79001,-2.36162 6.39101,-2.36162 0.32448,0 0.78403,0.157128 1.02123,0.349175 0.40466,0.327613 0.43527,0.491248 0.49574,2.648975 0.0798,2.845731 0.212,2.908337 1.82296,0.863124 1.98534,-2.520527 4.05759,-3.63696 7.06332,-3.805397 3.11167,-0.174378 5.62261,0.690201 7.49286,2.579973 1.30997,1.323644 1.90692,2.38611 2.57572,4.584335 l 0.49903,1.640181 0.12631,7.946927 c 0.0813,5.113848 0.20083,8.181399 0.33537,8.604628 0.26811,0.843408 0.62064,1.140079 1.81803,1.529928 1.22568,0.399054 1.56074,0.954504 1.01594,1.684193 -0.65052,0.8713 -1.46031,1.030448 -5.27593,1.0369 -3.85946,0.0065 -4.81349,-0.172803 -5.4492,-1.024275 -0.55971,-0.749674 -0.23575,-1.26139 1.10895,-1.751693 1.48712,-0.542231 1.66903,-0.795077 1.87765,-2.60945 0.22808,-1.983886 0.2208,-12.267414 -0.01,-14.046999 -0.4614,-3.558355 -1.80347,-5.465517 -4.30452,-6.116952 -1.34518,-0.35038 -2.63243,-0.35203 -3.96442,-0.0046 -2.60866,0.679476 -4.968,2.497539 -6.02437,4.64227 l -0.58953,1.196865 -0.0547,6.392878 c -0.0636,7.437982 0.0839,9.303181 0.78394,9.91435 0.25482,0.22246 0.78873,0.501973 1.18648,0.621143 0.81313,0.243622 1.46398,0.76913 1.46398,1.182051 0,0.431664 -0.79767,1.12067 -1.57519,1.360593 -1.03707,0.320012 -6.50444,0.402993 -7.74191,0.117501 z m 79.99812,0.0037 c -2.50472,-0.570086 -2.90075,-1.924468 -0.77038,-2.634589 1.2828,-0.427604 1.63444,-0.881626 1.87816,-2.425023 0.24095,-1.525693 0.24487,-11.220651 0.006,-14.432362 -0.34468,-4.631647 -0.55118,-5.087282 -2.37668,-5.243733 -1.34946,-0.115656 -1.82341,-0.424183 -1.82341,-1.186965 0,-0.773728 0.67104,-1.333599 2.79157,-2.329139 2.33219,-1.094909 3.45767,-1.412641 4.04924,-1.143111 0.53409,0.243344 1.1141,1.712873 1.27803,3.238046 0.18468,1.718045 0.29121,2.280391 0.43199,2.280391 0.0718,0 0.57952,-0.588635 1.1282,-1.308081 1.16555,-1.528334 2.9664,-3.073205 4.38791,-3.764213 0.7937,-0.385816 1.27632,-0.489626 2.29698,-0.494066 1.11717,-0.0046 1.39769,0.06424 2.07139,0.510047 2.04934,1.35618 1.91409,4.735651 -0.23106,5.774109 -0.90745,0.439283 -1.71333,0.480051 -2.55314,0.129143 -0.73367,-0.306544 -1.56787,-1.268036 -1.70797,-1.968572 -0.1267,-0.633472 -0.25469,-0.640461 -1.45903,-0.07972 -1.99347,0.928187 -3.16755,2.703211 -3.65452,5.525138 -0.34026,1.97165 -0.27862,14.809047 0.075,15.625333 0.30283,0.699044 0.92491,1.045307 2.26306,1.259638 1.38747,0.222237 1.98588,0.567694 1.98588,1.146429 0,0.590701 -0.55972,1.035992 -1.68745,1.34247 -1.34485,0.365489 -7.02679,0.486735 -8.37965,0.178828 z m 53.94935,0.04486 c -1.30972,-0.231896 -2.01635,-0.626732 -2.1623,-1.208257 -0.17598,-0.701213 0.10721,-1.008498 1.37589,-1.492943 0.64244,-0.245319 1.25177,-0.615785 1.40998,-0.857247 0.512,-0.781413 0.66621,-5.976862 0.55285,-18.627339 -0.1053,-11.753362 -0.24513,-14.590481 -0.7576,-15.372638 -0.29019,-0.442876 -0.50158,-0.526017 -1.77825,-0.699417 -0.47607,-0.06466 -0.98988,-0.241864 -1.14181,-0.393781 -0.46182,-0.46182 -0.34095,-1.259289 0.26861,-1.772192 1.21895,-1.025679 6.01084,-2.402388 7.06797,-2.030622 0.96473,0.339285 1.01187,0.648303 0.84842,5.562262 -0.21943,6.596577 -0.14691,30.524657 0.0968,31.952611 0.23625,1.384063 0.64564,1.896984 1.76396,2.2101 0.87135,0.243956 1.55273,0.771801 1.55273,1.202853 0,0.431886 -0.79792,1.120799 -1.57521,1.360009 -0.89605,0.275759 -6.23738,0.394066 -7.52208,0.166601 z M 173.82426,17.983211 c -0.86733,-0.450954 -1.35892,-1.073981 -1.49136,-1.890124 -0.32919,-2.028559 1.61059,-3.908088 3.63795,-3.524949 1.89075,0.357321 2.83813,2.193395 2.07462,4.020722 -0.62335,1.491885 -2.70873,2.180723 -4.22121,1.394351 z"
       id="path839" />
  </g>
</svg>
