<?xml version="1.0" encoding="UTF-8" standalone="no"?>
<svg
   xmlns:osb="http://www.openswatchbook.org/uri/2009/osb"
   xmlns:dc="http://purl.org/dc/elements/1.1/"
   xmlns:cc="http://creativecommons.org/ns#"
   xmlns:rdf="http://www.w3.org/1999/02/22-rdf-syntax-ns#"
   xmlns:svg="http://www.w3.org/2000/svg"
   xmlns="http://www.w3.org/2000/svg"
   viewBox="0 0 693.75 600"
   height="640"
   width="740"
   version="1.1"
   id="svg2">
  <metadata
     id="metadata8">
    <rdf:RDF>
      <cc:Work
         rdf:about="">
        <dc:format>image/svg+xml</dc:format>
        <dc:type
           rdf:resource="http://purl.org/dc/dcmitype/StillImage" />
        <dc:title></dc:title>
      </cc:Work>
    </rdf:RDF>
  </metadata>
  <defs
     id="defs6">
    <linearGradient
       osb:paint="solid"
       id="linearGradient5684">
      <stop
         id="stop5686"
         offset="0"
         style="stop-color:#6f5b14;stop-opacity:1;" />
    </linearGradient>
  </defs>
  <rect
     style="color:#000000;clip-rule:nonzero;display:inline;overflow:visible;visibility:visible;opacity:1;isolation:auto;mix-blend-mode:normal;color-interpolation:sRGB;color-interpolation-filters:linearRGB;solid-color:#000000;solid-opacity:1;vector-effect:none;fill:#ffe6cc;fill-opacity:1;fill-rule:nonzero;stroke:none;stroke-width:6.55204391;stroke-linecap:butt;stroke-linejoin:miter;stroke-miterlimit:4;stroke-dasharray:none;stroke-dashoffset:0;stroke-opacity:1;color-rendering:auto;image-rendering:auto;shape-rendering:auto;text-rendering:auto;enable-background:accumulate"
     id="rect4523"
     width="693.75"
     height="600"
     x="0"
     y="0" />
  <g
     id="flowRoot4715"
     style="font-style:italic;font-variant:normal;font-weight:bold;font-stretch:normal;font-size:5.15284014px;line-height:100%;font-family:'Besley*';-inkscape-font-specification:'Besley* Bold Italic';text-align:center;letter-spacing:0px;word-spacing:0px;writing-mode:lr-tb;text-anchor:middle;fill:#1f5016;fill-opacity:1;stroke:none;stroke-width:1px;stroke-linecap:butt;stroke-linejoin:miter;stroke-opacity:1"
     transform="matrix(31.661337,0,0,31.661337,-24932.099,-16.430287)"
     aria-label="office REAL often">
    <path
       id="path4744"
       style="font-size:5.15284014px"
       d="m 791.43273,4.0216799 c 0,-0.7935374 0.38646,-1.4427952 0.84506,-1.4427952 0.25249,0 0.32979,0.1855022 0.32979,0.515284 0,0.7935374 -0.38647,1.4427952 -0.84507,1.4427952 -0.25249,0 -0.32978,-0.1855022 -0.32978,-0.515284 z m -0.95328,-0.051528 c 0,0.6183408 0.40192,1.030568 1.18,1.030568 1.08725,0 1.9014,-0.772926 1.9014,-1.8550224 0,-0.6183408 -0.40192,-1.030568 -1.18,-1.030568 -1.08725,0 -1.9014,0.772926 -1.9014,1.8550224 z" />
    <path
       id="path4746"
       style="font-size:5.15284014px"
       d="m 799.53009,2.3315483 c 0.0206,-0.092751 0.0155,-0.1133624 -0.13397,-0.1133624 h -1.69528 c -0.18035,0 -0.1752,-0.00515 -0.14428,-0.1545852 0.13397,-0.6595636 0.4586,-0.8759829 0.76777,-0.8759829 0.0876,0 0.29371,0.020611 0.29371,0.077293 0,0.061834 -0.14943,0.1236682 -0.14943,0.3091704 0,0.2937119 0.24218,0.4019216 0.48952,0.4019216 0.27825,0 0.58227,-0.1494324 0.58227,-0.5513539 0,-0.3967687 -0.49983,-0.64925788 -1.22638,-0.64925788 -0.54104,0 -0.95327,0.17004373 -1.23668,0.44314428 -0.1855,-0.1803494 -0.5462,-0.28855907 -1.03057,-0.28855907 -0.82445,0 -1.44794,0.49467267 -1.58192,1.17484757 -0.0206,0.097904 -0.0103,0.1133625 -0.12882,0.1133625 h -0.22672 c -0.10306,0 -0.10821,0.046375 -0.10821,0.1494323 V 2.537662 c 0,0.1236681 0.005,0.1185153 0.12882,0.1185153 h 0.22672 c -0.18035,0.9378169 -0.36585,1.8704809 -0.5462,2.8082979 -0.0309,0.1700437 -0.0773,0.2061136 0.13913,0.2061136 h 0.51013 c 0.20096,0 0.19065,-0.020611 0.22157,-0.1855023 l 0.52559,-2.5970314 c 0.0361,-0.1855023 0.0103,-0.2318778 0.24218,-0.2318778 h 0.94813 c 0.14428,0 0.14943,-0.00515 0.12367,0.1185153 l -0.47922,2.4836689 c -0.0309,0.1494324 -0.0412,0.1545852 0.13913,0.1545852 h 0.53074 c 0.18035,0 0.1752,-0.010306 0.20611,-0.159738 l 0.49468,-2.4682104 c 0.0206,-0.1133625 0.0154,-0.128821 0.15973,-0.128821 h 0.83476 c 0.21642,0 0.18035,0.025764 0.14428,0.1906551 l -0.32462,1.4324895 c -0.0206,0.077293 -0.0412,0.1855023 -0.0412,0.2834062 0,0.3091704 0.20096,0.4379914 0.5462,0.4379914 0.43284,0 0.88629,-0.2524891 1.18,-0.8193015 0.067,-0.128821 0.0876,-0.1442796 -0.0618,-0.1906551 l -0.12882,-0.041223 c -0.14943,-0.046375 -0.14943,0.025764 -0.21642,0.1288211 -0.13397,0.2061136 -0.24218,0.3040175 -0.35039,0.3040175 -0.0515,0 -0.0721,-0.015459 -0.0721,-0.07214 0,-0.025764 0.0103,-0.07214 0.0155,-0.1030568 z m -3.01956,-0.2112664 c 0.14943,0.025764 0.1855,0.097904 0,0.097904 h -0.91721 c -0.2834,0 -0.25249,-0.030917 -0.1855,-0.2370307 0.15459,-0.4740613 0.38131,-0.6389522 0.64926,-0.6389522 0.0876,0 0.21642,0.020611 0.21642,0.051528 0,0.061834 -0.12367,0.1494324 -0.12367,0.3349347 0,0.2421834 0.16489,0.3606988 0.3607,0.3916158 z" />
    <path
       id="path4748"
       style="font-size:5.15284014px"
       d="m 803.07815,2.955042 c 0,-0.4740613 -0.41738,-0.8399129 -1.09756,-0.8399129 -0.93266,0 -1.83956,0.6698692 -1.83956,1.8550224 0,0.8759828 0.64926,1.030568 1.15939,1.030568 0.71624,0 1.10786,-0.4379914 1.36035,-0.8811356 0.0618,-0.1030568 0.0258,-0.1133625 -0.0876,-0.1133625 h -0.23188 c -0.14943,0 -0.14943,0.030917 -0.20611,0.1133625 -0.18035,0.2473363 -0.41223,0.4225329 -0.69564,0.4225329 -0.25249,0 -0.34524,-0.2421835 -0.34524,-0.6234937 0,-0.8450658 0.52044,-1.4324895 0.98935,-1.4324895 0.17519,0 0.29371,0.077293 0.29371,0.1391266 0,0.087598 -0.30402,0.128821 -0.30402,0.4276858 0,0.2937119 0.22673,0.4534499 0.42254,0.4534499 0.27825,0 0.58227,-0.1494324 0.58227,-0.5513539 z" />
    <path
       id="path4750"
       style="font-size:5.15284014px"
       d="m 805.23517,2.666483 c 0,0.3710044 -0.32978,0.6183408 -0.76777,0.7317033 -0.21127,0.056681 -0.24734,0.061834 -0.17004,-0.1391267 0.1855,-0.4740613 0.52559,-0.742009 0.77292,-0.742009 0.12882,0 0.16489,0.051528 0.16489,0.1494324 z m -1.07694,1.3551969 c 0,-0.1751966 -0.0206,-0.226725 0.15458,-0.2421835 0.72656,-0.07214 1.8035,-0.3143232 1.8035,-1.0563322 0,-0.4225329 -0.34009,-0.6080351 -0.96873,-0.6080351 -1.03573,0 -1.91686,0.6698692 -1.91686,1.8550224 0,0.6698692 0.38646,1.030568 1.06148,1.030568 0.79869,0 1.2676,-0.41738 1.52524,-0.8605243 0.0773,-0.1339738 0.0258,-0.1339738 -0.12366,-0.1339738 h -0.15459 c -0.17004,0 -0.1855,0.07214 -0.26795,0.159738 -0.19065,0.2112665 -0.49467,0.3761574 -0.71624,0.3761574 -0.30402,0 -0.39677,-0.2421835 -0.39677,-0.5204369 z" />
    <path
       id="path4752"
       style="font-size:5.15284014px"
       d="m 793.45027,10.050503 c 0.13912,0 0.17004,0.02061 0.17004,-0.1236683 v -0.288559 c 0,-0.1185154 -0.0309,-0.128821 -0.13913,-0.128821 h -0.16489 c -0.11851,0 -0.15458,-0.066987 -0.15458,-0.1751966 0,-0.1030568 0.13912,-0.2988647 0.13912,-0.6080351 0,-0.2679477 -0.24218,-0.4637557 -0.5565,-0.5358954 -0.18035,-0.041223 -0.19581,-0.07214 0,-0.1082097 0.62349,-0.1185153 1.0924,-0.4843669 1.0924,-1.0202623 0,-0.6183408 -0.4586,-0.8759828 -1.39127,-0.8759828 h -2.13843 c -0.18035,0 -0.22672,-0.030917 -0.22672,0.159738 v 0.1958079 c 0,0.1803494 -0.005,0.1855023 0.17519,0.1855023 h 0.22673 c 0.20096,0 0.14943,0.041223 0.11852,0.1958079 l -0.51529,2.4218349 c -0.0309,0.1494323 -0.0258,0.1648909 -0.21127,0.1648909 h -0.21641 c -0.11852,0 -0.14428,-0.020611 -0.14428,0.1030568 v 0.288559 c 0,0.1391265 -0.0103,0.1494325 0.13397,0.1494325 h 1.74166 c 0.20611,0 0.1855,-0.02576 0.1855,-0.2215723 V 9.6537342 c 0,-0.1803494 -0.0515,-0.1442795 -0.21642,-0.1442795 h -0.15458 c -0.22673,0 -0.15974,-0.061834 -0.12367,-0.226725 l 0.15974,-0.7626203 c 0.0309,-0.1391267 0.0773,-0.1185154 0.24218,-0.1185154 h 0.38646 c 0.33494,0 0.42254,0.1494324 0.42254,0.4122272 0,0.2679477 -0.12882,0.5204369 -0.12882,0.7832317 0,0.3091704 0.22672,0.4534501 0.81414,0.4534501 z m -1.86533,-2.2157214 c -0.23703,0 -0.19066,-0.041223 -0.14943,-0.2215721 l 0.14943,-0.7007863 c 0.0309,-0.1545852 0.0155,-0.1855022 0.20611,-0.1855022 h 0.65441 c 0.28856,0 0.41223,0.1339738 0.41223,0.3349346 0,0.4070744 -0.38131,0.772926 -0.77293,0.772926 z" />
    <path
       id="path4754"
       style="font-size:5.15284014px"
       d="m 795.73539,8.370677 c 0.0206,-0.1030568 0.0155,-0.1133625 0.14428,-0.1133625 h 0.067 c 0.36585,0 0.49467,0.1133625 0.48952,0.3400875 -0.005,0.128821 -0.067,0.1751965 0.11336,0.1751965 h 0.10306 c 0.17519,0 0.15973,-0.051528 0.19065,-0.1855022 l 0.25764,-1.1027078 c 0.0258,-0.1133625 0.0515,-0.128821 -0.0979,-0.128821 h -0.16489 c -0.13913,0 -0.12367,0.1133625 -0.1752,0.1906551 -0.12882,0.2112664 -0.3607,0.2988647 -0.71624,0.2988647 -0.10821,0 -0.0721,-0.077293 -0.0515,-0.1751966 l 0.17004,-0.7626203 c 0.0412,-0.1751966 0.0464,-0.1803494 0.25764,-0.1803494 h 0.71625 c 0.53589,0 0.67502,0.1339738 0.58742,0.6647164 -0.0206,0.1236681 -0.0979,0.2112664 0.0773,0.2112664 h 0.26795 c 0.11336,0 0.0979,-0.07214 0.11336,-0.159738 l 0.22673,-1.0924021 c 0.0309,-0.1545853 0.0515,-0.1648909 -0.14428,-0.1648909 h -3.42149 c -0.15973,0 -0.1855,-0.020611 -0.1855,0.1442795 v 0.2164193 c 0,0.1391267 -0.0258,0.1803494 0.12367,0.1803494 h 0.27825 c 0.18551,0 0.15974,0.015459 0.12882,0.159738 l -0.5462,2.4218349 c -0.0361,0.159738 -0.0155,0.2009608 -0.22157,0.2009608 h -0.371 c -0.12882,0 -0.13398,0.041223 -0.13398,0.1700437 v 0.1958079 c 0,0.1906547 0.0206,0.1751967 0.20612,0.1751967 h 3.33904 c 0.1855,0 0.20096,0.01031 0.23703,-0.1442797 l 0.2731,-1.2366816 c 0.0258,-0.1185153 0.0515,-0.1391267 -0.0979,-0.1391267 h -0.20611 c -0.14428,0 -0.13397,0.025764 -0.16489,0.1339739 -0.20611,0.6956334 -0.51013,0.8450658 -1.17485,0.8450658 h -0.5462 c -0.1855,0 -0.21127,0.020611 -0.1752,-0.1391267 z" />
    <path
       id="path4756"
       style="font-size:5.15284014px"
       d="m 800.52149,7.1597596 c 0.0928,-0.1700438 0.14428,-0.2164193 0.18035,0.010306 0.0412,0.2473364 0.0206,0.226725 0.0773,0.5565068 l 0.11852,0.6956334 c 0.0206,0.128821 0.0515,0.159738 -0.10821,0.159738 h -0.9172 c -0.31433,0 -0.19066,-0.061834 -0.0876,-0.2267249 l 0.40707,-0.6492579 c 0.18035,-0.2834062 0.23188,-0.3658516 0.32978,-0.546201 z m -1.20576,2.8907434 c 0.14428,0 0.26795,0.05153 0.26795,-0.1082098 V 9.7155683 c 0,-0.1545852 0.0309,-0.2061136 -0.13398,-0.2061136 h -0.16489 c -0.24733,0 -0.23188,0 -0.13397,-0.1545852 l 0.0979,-0.1545853 c 0.0721,-0.1185153 0.0928,-0.128821 0.29371,-0.128821 h 1.30882 c 0.15974,0 0.15459,0.010306 0.1752,0.1442796 l 0.0361,0.1855022 c 0.0206,0.1133625 -0.0309,0.1082097 -0.14943,0.1082097 h -0.30917 c -0.13913,0 -0.14428,0 -0.14428,0.1391266 v 0.257642 c 0,0.1442797 0,0.1442797 0.14428,0.1442797 h 1.85502 c 0.11336,0 0.11336,0 0.11336,-0.1133626 V 9.5867473 c 0,-0.1133625 -0.0928,-0.077293 -0.1958,-0.077293 h -0.14428 c -0.15459,0 -0.12883,-0.046376 -0.15459,-0.1700438 l -0.59258,-3.1123154 c -0.0206,-0.1133625 -0.0206,-0.1185153 -0.15973,-0.1185153 h -0.55651 c -0.17004,0 -0.1855,0.010306 -0.24734,0.1082096 l -1.96323,3.0607871 c -0.0876,0.1339738 -0.0876,0.2318778 -0.31948,0.2318778 h -0.15973 c -0.1752,0 -0.19581,-0.020611 -0.19581,0.159738 v 0.226725 c 0,0.1906553 0.0515,0.1545853 0.22672,0.1545853 z" />
    <path
       id="path4758"
       style="font-size:5.15284014px"
       d="m 806.09405,10.050503 c 0.26794,0 0.26794,-0.01031 0.31432,-0.2267251 l 0.2731,-1.2469873 c 0.0361,-0.1648909 0.0773,-0.2009608 -0.13397,-0.2009608 h -0.13398 c -0.1855,0 -0.18035,0.1185154 -0.22672,0.2627949 -0.19066,0.6183408 -0.43799,0.87083 -1.06149,0.87083 h -0.49467 c -0.26795,0 -0.14428,-0.1648909 -0.10306,-0.355546 l 0.48437,-2.2775554 c 0.0361,-0.1700437 0.0773,-0.1494323 0.27825,-0.1494323 h 0.1752 c 0.1855,0 0.14428,-0.07214 0.14428,-0.2421835 V 6.2786239 c 0,-0.1185153 -0.0464,-0.092751 -0.15459,-0.092751 h -1.73135 c -0.1855,0 -0.20611,-0.015459 -0.20611,0.1751965 v 0.1751966 c 0,0.226725 0.0515,0.1906551 0.26794,0.1906551 h 0.0824 c 0.22157,0 0.19581,0.015459 0.15974,0.1906551 l -0.44315,2.0817474 c -0.0464,0.2112664 -0.0567,0.5101312 -0.32978,0.5101312 h -0.34524 c -0.14428,0 -0.13397,0.010306 -0.13397,0.1494323 v 0.1751966 c 0,0.1958084 -0.0155,0.2164194 0.1855,0.2164194 z" />
    <path
       id="path4760"
       style="font-size:5.15284014px"
       d="m 792.06174,14.32736 c 0,-0.793537 0.38646,-1.442795 0.84506,-1.442795 0.25249,0 0.32978,0.185502 0.32978,0.515284 0,0.793537 -0.38646,1.442795 -0.84506,1.442795 -0.25249,0 -0.32978,-0.185502 -0.32978,-0.515284 z m -0.95328,-0.05153 c 0,0.618341 0.40192,1.030568 1.18,1.030568 1.08725,0 1.9014,-0.772926 1.9014,-1.855023 0,-0.61834 -0.40192,-1.030568 -1.18,-1.030568 -1.08725,0 -1.9014,0.772926 -1.9014,1.855023 z" />
    <path
       id="path4762"
       style="font-size:5.15284014px"
       d="m 795.02414,12.358975 c -0.0309,0.149433 -0.0258,0.164891 -0.21127,0.164891 h -0.12367 c -0.13913,0 -0.15974,-0.01546 -0.15974,0.123668 v 0.133974 c 0,0.190655 0.0155,0.18035 0.20096,0.18035 0.15974,0 0.17005,-0.01031 0.14428,0.128821 l -0.54104,2.700088 c -0.0258,0.133974 -0.0361,0.185502 0.0979,0.185502 h 0.57712 c 0.19065,0 0.17004,-0.03607 0.20096,-0.185502 l 0.56166,-2.710394 c 0.0258,-0.128821 0.0464,-0.118515 0.19581,-0.118515 h 0.44314 c 0.13913,0 0.12882,-0.01546 0.12882,-0.149433 v -0.113362 c 0,-0.159738 0.0155,-0.175197 -0.14943,-0.175197 h -0.3607 c -0.16489,0 -0.13397,-0.02576 -0.10821,-0.154585 0.13397,-0.659564 0.35555,-0.875983 0.66472,-0.875983 0.0876,0 0.16489,0.02061 0.16489,0.05153 0,0.06183 -0.12367,0.20096 -0.12367,0.386463 0,0.293711 0.24218,0.453449 0.48952,0.453449 0.27825,0 0.58227,-0.20096 0.58227,-0.602882 0,-0.34524 -0.39677,-0.700786 -1.12332,-0.700786 -0.82445,0 -1.39642,0.494673 -1.53039,1.174847 z" />
    <path
       id="path4764"
       style="font-size:5.15284014px"
       d="m 797.01941,12.961858 c 0.15974,0 0.15459,0 0.11852,0.123668 l -0.4586,1.674673 c -0.0103,0.04637 -0.0155,0.103057 -0.0155,0.144279 0,0.257642 0.1958,0.401922 0.54104,0.401922 0.58228,0 0.9842,-0.324629 1.22638,-0.87083 0.0515,-0.118515 0.0567,-0.123668 -0.0824,-0.154585 l -0.14428,-0.03092 c -0.15974,-0.03607 -0.15459,0.04122 -0.22158,0.149432 -0.11851,0.200961 -0.22157,0.314323 -0.32978,0.314323 -0.067,0 -0.0927,-0.04122 -0.0927,-0.0979 0,-0.04637 0.005,-0.06699 0.0206,-0.128821 l 0.37616,-1.437642 c 0.0206,-0.0876 0.0258,-0.0876 0.13913,-0.0876 h 0.48436 c 0.0979,0 0.0927,-0.0052 0.0927,-0.103057 v -0.21642 c 0,-0.128821 -0.0103,-0.118515 -0.13397,-0.118515 h -0.31948 c -0.11336,0 -0.12882,-0.0052 -0.10305,-0.09275 l 0.0876,-0.324629 c 0.0206,-0.08244 0.0309,-0.0876 -0.0773,-0.0876 h -0.21642 c -0.0721,0 -0.0928,0.03092 -0.10305,0.0876 -0.0309,0.14428 -0.14944,0.41738 -0.51529,0.41738 h -0.44314 c -0.12882,0 -0.15974,-0.02061 -0.15974,0.113363 v 0.175196 c 0,0.14428 0,0.149433 0.14428,0.149433 z" />
    <path
       id="path4766"
       style="font-size:5.15284014px"
       d="m 800.83211,12.972163 c 0,0.371005 -0.32978,0.618341 -0.76777,0.731704 -0.21127,0.05668 -0.24734,0.06183 -0.17005,-0.139127 0.18551,-0.474061 0.52559,-0.742009 0.77293,-0.742009 0.12882,0 0.16489,0.05153 0.16489,0.149432 z m -1.07694,1.355197 c 0,-0.175196 -0.0206,-0.226725 0.15458,-0.242183 0.72655,-0.07214 1.8035,-0.314324 1.8035,-1.056333 0,-0.422532 -0.34009,-0.608035 -0.96874,-0.608035 -1.03572,0 -1.91685,0.66987 -1.91685,1.855023 0,0.669869 0.38646,1.030568 1.06148,1.030568 0.79869,0 1.2676,-0.41738 1.52524,-0.860524 0.0773,-0.133974 0.0258,-0.133974 -0.12367,-0.133974 h -0.15458 c -0.17004,0 -0.1855,0.07214 -0.26795,0.159738 -0.19065,0.211266 -0.49467,0.376157 -0.71624,0.376157 -0.30402,0 -0.39677,-0.242183 -0.39677,-0.520437 z" />
    <path
       id="path4768"
       style="font-size:5.15284014px"
       d="m 802.158,12.961858 c 0.1855,0 0.14428,0.03607 0.11336,0.175196 l -0.41738,1.793188 c -0.0618,0.278254 -0.0773,0.273101 0.11852,0.273101 h 0.51528 c 0.19581,0 0.20612,-0.103057 0.24734,-0.283406 l 0.0876,-0.38131 c 0.0361,-0.149433 0.067,-0.288559 0.11851,-0.422533 0.22673,-0.592577 0.68533,-1.143931 0.99965,-1.143931 0.18551,0 0.17005,0.200961 0.0773,0.530743 l -0.30917,1.10786 c -0.0206,0.07729 -0.0361,0.170044 -0.0361,0.267948 0,0.257642 0.1855,0.427686 0.53074,0.427686 0.48952,0 0.92751,-0.309171 1.22122,-0.855372 0.0618,-0.113362 0.0309,-0.123668 -0.0721,-0.154585 l -0.15458,-0.04122 c -0.10821,-0.03092 -0.12882,0.02061 -0.1752,0.0979 -0.13913,0.226725 -0.26795,0.334935 -0.38131,0.334935 -0.0567,0 -0.0721,-0.02061 -0.0721,-0.07729 0,-0.02576 0.005,-0.04637 0.0103,-0.07729 l 0.31432,-1.087249 c 0.20611,-0.716245 -0.11336,-1.020263 -0.57197,-1.020263 -0.42768,0 -0.78838,0.206114 -1.05118,0.546201 -0.14943,0.190655 -0.2834,0.407075 -0.16489,0.01031 l 0.0824,-0.267948 c 0.0515,-0.164891 0.0515,-0.190655 -0.14428,-0.190655 h -0.97904 c -0.13397,0 -0.19581,-0.03607 -0.19581,0.10821 v 0.185502 c 0,0.14428 0,0.14428 0.14428,0.14428 z" />
  </g>
  <g
     id="flowRoot4737"
     style="font-style:italic;font-variant:normal;font-weight:bold;font-stretch:normal;font-size:1.33973849px;line-height:100%;font-family:'Besley*';-inkscape-font-specification:'Besley* Bold Italic';text-align:center;letter-spacing:0px;word-spacing:0px;writing-mode:lr-tb;text-anchor:middle;fill:#0b1c08;fill-opacity:1;stroke:none;stroke-width:1px;stroke-linecap:butt;stroke-linejoin:miter;stroke-opacity:1"
     transform="matrix(31.661337,0,0,31.661337,-24932.099,521.95089)"
     aria-label="With Open Type Features On">
    <path
       id="path4771"
       style="font-style:normal;font-size:1.33973849px;fill:#0b1c08;fill-opacity:1"
       d="m 788.19382,1.485452 c -0.0214,0.05091 -0.0268,0.066987 -0.0442,0.020096 -0.0214,-0.056269 -0.0322,-0.1004804 -0.0496,-0.148711 L 787.9942,1.055396 c -0.0161,-0.046891 -0.0469,-0.0723459 0.0268,-0.0723459 h 0.0402 c 0.0415,0 0.0455,0.002679 0.0455,-0.0401921 v -0.0643075 c 0,-0.0468908 -0.0187,-0.0361729 -0.0616,-0.0361729 h -0.38986 c -0.0415,0 -0.071,-0.0133974 -0.071,0.0321537 v 0.056269 c 0,0.0482306 -0.003,0.0522498 0.0469,0.0522498 h 0.0402 c 0.0576,0 0.0509,0.0200961 0.0656,0.0602882 l 0.27867,0.7676702 c 0.0121,0.032154 0.007,0.04957 0.0536,0.04957 h 0.0603 c 0.0683,0 0.0656,-0.016077 0.0844,-0.061628 l 0.14201,-0.3376141 c 0.0415,-0.099141 0.0496,-0.1245956 0.067,-0.168807 0.0268,-0.065647 0.0308,-0.071006 0.0523,0.012058 0.0161,0.060288 0.0147,0.058949 0.0576,0.1728263 l 0.12325,0.3255564 c 0.0147,0.040192 0.009,0.057609 0.0683,0.057609 h 0.0482 c 0.0737,0 0.067,-0.025455 0.0844,-0.077705 l 0.25856,-0.7475741 c 0.0134,-0.0401922 0.0107,-0.0522498 0.067,-0.0522498 h 0.0563 c 0.0388,0 0.0335,-0.006699 0.0335,-0.0442114 v -0.0482306 c 0,-0.0468908 0.001,-0.0482306 -0.0455,-0.0482306 h -0.32153 c -0.0589,0 -0.0616,-0.002679 -0.0616,0.056269 v 0.0241153 c 0,0.056269 -0.004,0.0602882 0.0536,0.0602882 0.0898,0 0.0844,0.00134 0.0616,0.0683267 l -0.0924,0.2652682 c -0.0402,0.1138777 -0.0388,0.112538 -0.0576,0.168807 -0.0348,0.1004804 -0.0295,0.091102 -0.0589,-0.020096 -0.0121,-0.045551 -0.0147,-0.053589 -0.0402,-0.1326341 l -0.10048,-0.3054603 c -0.0161,-0.0509101 -0.008,-0.0442114 0.0549,-0.0442114 0.0509,0 0.0455,-0.006699 0.0455,-0.056269 v -0.0522498 c 0,-0.0468908 -0.0362,-0.0321537 -0.0777,-0.0321537 h -0.32556 c -0.0509,0 -0.0656,-0.009378 -0.0656,0.0442114 v 0.0401921 c 0,0.0361729 -0.0107,0.056269 0.0295,0.056269 h 0.0281 c 0.0335,0 0.0482,-0.002679 0.0563,0.0200961 l 0.0107,0.028134 c 0.0107,0.028134 0.007,0.037513 -0.005,0.064307 l -0.11655,0.2733067 c -0.0147,0.036173 -0.0308,0.072346 -0.0496,0.1165572 z" />
    <path
       id="path4773"
       style="font-style:normal;font-size:1.33973849px;fill:#0b1c08;fill-opacity:1"
       d="m 789.37949,0.90936447 c 0,0.0696664 0.0603,0.12727513 0.13398,0.12727513 0.0737,0 0.13397,-0.0576087 0.13397,-0.12727513 0,-0.0696664 -0.0603,-0.12727515 -0.13397,-0.12727515 -0.0737,0 -0.13398,0.0576087 -0.13398,0.12727515 z m -0.0147,0.35503073 c 0.0429,0 0.0415,0.00134 0.0415,0.044211 v 0.3670884 c 0,0.04957 0.007,0.057609 -0.0442,0.057609 h -0.0429 c -0.0402,0 -0.0335,0.00938 -0.0335,0.046891 v 0.040192 c 0,0.032154 0.008,0.026795 0.0389,0.026795 h 0.39657 c 0.0362,0 0.0335,-0.00268 0.0335,-0.037513 v -0.040192 c 0,-0.036173 0,-0.036173 -0.0362,-0.036173 h -0.0482 c -0.0442,0 -0.0362,-0.010718 -0.0362,-0.05225 V 1.2067864 c 0,-0.045551 0.008,-0.056269 -0.0415,-0.056269 h -0.24919 c -0.0415,0 -0.0576,-0.00938 -0.0576,0.034833 v 0.042872 c 0,0.038852 0.004,0.036173 0.0415,0.036173 z" />
    <path
       id="path4775"
       style="font-style:normal;font-size:1.33973849px;fill:#0b1c08;fill-opacity:1"
       d="m 790.31214,1.7386626 c 0.0174,-0.034833 0.0121,-0.034833 -0.0188,-0.05225 l -0.0281,-0.016077 c -0.0295,-0.016077 -0.0241,-0.00402 -0.0429,0.020096 -0.0188,0.024115 -0.0429,0.042872 -0.0616,0.042872 -0.0322,0 -0.0482,-0.025455 -0.0482,-0.05225 V 1.3019079 c 0,-0.029474 0.005,-0.037513 0.0455,-0.037513 h 0.0831 c 0.0469,0 0.0415,-0.0067 0.0415,-0.05091 v -0.030814 c 0,-0.036173 -0.004,-0.032154 -0.0389,-0.032154 h -0.0871 c -0.0415,0 -0.0442,0.00134 -0.0442,-0.040192 V 0.94955663 c 0,-0.0361729 0.003,-0.0401922 -0.0348,-0.0401922 h -0.0348 c -0.0389,0 -0.0322,0.0133974 -0.0389,0.0428716 -0.0389,0.17148649 -0.11388,0.19560179 -0.20498,0.19828129 -0.0335,0.00134 -0.0389,-0.00402 -0.0389,0.032154 v 0.045551 c 0,0.034833 -0.001,0.036173 0.0335,0.036173 h 0.0496 c 0.0362,0 0.0415,-0.00402 0.0415,0.032154 v 0.4086202 c 0,0.1192368 0.0978,0.1647879 0.20096,0.1647879 0.12996,0 0.19159,-0.062968 0.22642,-0.1312944 z" />
    <path
       id="path4777"
       style="font-style:normal;font-size:1.33973849px;fill:#0b1c08;fill-opacity:1"
       d="m 790.43977,0.91606317 c 0.0429,0 0.0469,-0.002679 0.0469,0.0415319 V 1.6864128 c 0,0.04957 -0.004,0.046891 -0.0523,0.046891 h -0.0322 c -0.0388,0 -0.0362,0.00402 -0.0362,0.041532 v 0.029474 c 0,0.045551 0.003,0.042872 0.0469,0.042872 h 0.35369 c 0.0429,0 0.0415,-0.00134 0.0415,-0.042872 v -0.032154 c 0,-0.034833 0.003,-0.038852 -0.0335,-0.038852 h -0.0161 c -0.0469,0 -0.0442,-0.00402 -0.0442,-0.04957 V 1.4680354 c 0,-0.137993 0.0563,-0.2143581 0.14737,-0.2143581 0.0683,0 0.0871,0.034833 0.0871,0.1205764 v 0.3201975 c 0,0.036173 0.003,0.038852 -0.0348,0.038852 h -0.0268 c -0.0335,0 -0.0322,0.00134 -0.0322,0.033494 v 0.026795 c 0,0.045551 -0.007,0.053589 0.0402,0.053589 h 0.36173 c 0.0388,0 0.0402,0.00134 0.0402,-0.037513 v -0.037513 c 0,-0.032154 0.004,-0.038852 -0.0295,-0.038852 h -0.0509 c -0.0442,0 -0.0402,-0.00402 -0.0402,-0.046891 V 1.3528179 c 0,-0.143352 -0.0603,-0.2290953 -0.21704,-0.2290953 -0.0911,0 -0.15541,0.029474 -0.20096,0.072346 -0.0348,0.033494 -0.0442,0.083064 -0.0442,-0.00804 V 0.85845441 c 0,-0.0522498 0.004,-0.056269 -0.0496,-0.056269 h -0.25187 c -0.0496,0 -0.0469,0.002679 -0.0469,0.0509101 v 0.0241153 c 0,0.0428716 0.005,0.0388524 0.0469,0.0388524 z" />
    <path
       id="path4779"
       style="font-style:normal;font-size:1.33973849px;fill:#0b1c08;fill-opacity:1"
       d="m 791.7882,1.3447795 c 0,0.2853643 0.18354,0.5291967 0.53589,0.5291967 0.33896,0 0.5359,-0.2438324 0.5359,-0.5291967 0,-0.2853643 -0.18355,-0.52919672 -0.5359,-0.52919672 -0.35235,0 -0.53589,0.24383242 -0.53589,0.52919672 z m 0.28134,0 c 0,-0.2438324 0.075,-0.39522287 0.25455,-0.39522287 0.17953,0 0.25455,0.15139047 0.25455,0.39522287 0,0.2438324 -0.0616,0.3952228 -0.25455,0.3952228 -0.17952,0 -0.25455,-0.1513904 -0.25455,-0.3952228 z" />
    <path
       id="path4781"
       style="font-style:normal;font-size:1.33973849px;fill:#0b1c08;fill-opacity:1"
       d="m 793.00552,1.2643952 c 0.0415,0 0.0429,-0.00134 0.0429,0.040192 v 0.7154204 c 0,0.041532 0.005,0.048231 -0.0375,0.048231 h -0.0322 c -0.0429,0 -0.0509,-0.00536 -0.0509,0.038852 v 0.036173 c 0,0.044211 0.007,0.038852 0.0496,0.038852 h 0.37513 c 0.0429,0 0.0442,0 0.0442,-0.042872 v -0.029474 c 0,-0.044211 -0.004,-0.041532 -0.0469,-0.041532 h -0.0362 c -0.0469,0 -0.0375,-0.014737 -0.0375,-0.058949 V 1.7976111 c 0,-0.089762 0.0174,-0.021436 0.0482,0.012058 0.0375,0.040192 0.0898,0.064307 0.16077,0.064307 0.17283,0 0.31082,-0.1339739 0.31082,-0.3751268 0,-0.2411529 -0.12459,-0.373787 -0.29742,-0.373787 -0.0831,0 -0.14067,0.042872 -0.1822,0.096461 -0.0281,0.036173 -0.0402,0.045551 -0.0402,-0.00804 v -0.037513 c 0,-0.030814 -0.008,-0.025455 -0.0362,-0.025455 h -0.26795 c -0.0389,0 -0.0442,-0.00402 -0.0442,0.034833 v 0.025455 c 0,0.041532 -0.008,0.05359 0.0362,0.05359 z m 0.27062,0.2344542 c 0,-0.1259354 0.0496,-0.2384734 0.1447,-0.2384734 0.0857,0 0.13397,0.112538 0.13397,0.2384734 0,0.1259354 -0.0482,0.2384735 -0.13397,0.2384735 -0.0951,0 -0.1447,-0.1125381 -0.1447,-0.2384735 z" />
    <path
       id="path4783"
       style="font-style:normal;font-size:1.33973849px;fill:#0b1c08;fill-opacity:1"
       d="m 794.54957,1.5176057 c 0.0429,0 0.0576,-0.00134 0.0536,-0.057609 -0.009,-0.1607686 -0.071,-0.3362744 -0.33225,-0.3362744 -0.24249,0 -0.38183,0.174166 -0.38183,0.3885242 0,0.1875634 0.12996,0.3617294 0.37245,0.3617294 0.15809,0 0.26795,-0.092442 0.31484,-0.2156979 0.0134,-0.033494 0.008,-0.042872 -0.0268,-0.042872 h -0.0509 c -0.0482,0 -0.0415,0.016077 -0.0589,0.044211 -0.0389,0.062968 -0.10316,0.095121 -0.16211,0.095121 -0.0978,0 -0.13398,-0.073686 -0.14335,-0.1902429 -0.004,-0.046891 -0.001,-0.046891 0.0482,-0.046891 z m -0.17819,-0.1621083 c 0.007,0.05225 0,0.05091 -0.0549,0.05091 h -0.1179 c -0.063,0 -0.067,-0.00268 -0.0536,-0.056269 0.0174,-0.072346 0.0563,-0.1205764 0.1246,-0.1205764 0.067,0 0.0924,0.053589 0.10182,0.1259354 z" />
    <path
       id="path4785"
       style="font-style:normal;font-size:1.33973849px;fill:#0b1c08;fill-opacity:1"
       d="m 794.80596,1.6756949 c 0,0.048231 0.007,0.057609 -0.0429,0.057609 h -0.0402 c -0.0389,0 -0.0375,0.00134 -0.0375,0.038852 v 0.029474 c 0,0.045551 0,0.045551 0.0455,0.045551 h 0.34298 c 0.0482,0 0.0536,0.00402 0.0536,-0.045551 v -0.034833 c 0,-0.036173 -0.003,-0.033494 -0.0375,-0.033494 h -0.0187 c -0.0482,0 -0.0375,-0.016077 -0.0375,-0.060288 v -0.20498 c 0,-0.137993 0.0563,-0.2143581 0.14737,-0.2143581 0.0683,0 0.0871,0.034833 0.0871,0.1205764 v 0.2826849 c 0,0.048231 0.0147,0.076365 -0.0389,0.076365 h -0.0214 c -0.0362,0 -0.0335,0.00402 -0.0335,0.038852 v 0.029474 c 0,0.05091 0.007,0.045551 0.0549,0.045551 h 0.34029 c 0.0429,0 0.0469,0.00402 0.0469,-0.040192 v -0.034833 c 0,-0.044211 -0.007,-0.038852 -0.0496,-0.038852 h -0.0241 c -0.0509,0 -0.0469,-0.00536 -0.0469,-0.054929 V 1.3528179 c 0,-0.143352 -0.0603,-0.2290953 -0.21703,-0.2290953 -0.1045,0 -0.17283,0.037513 -0.21838,0.091102 -0.0241,0.028135 -0.0402,0.065647 -0.0402,0.010718 v -0.037513 c 0,-0.046891 -0.0147,-0.037513 -0.0589,-0.037513 h -0.23312 c -0.0362,0 -0.0429,-0.00536 -0.0429,0.032154 v 0.045551 c 0,0.038852 0.003,0.036173 0.0402,0.036173 h 0.0402 c 0.0429,0 0.0402,0.00268 0.0402,0.044211 z" />
    <path
       id="path4787"
       style="font-style:normal;font-size:1.33973849px;fill:#0b1c08;fill-opacity:1"
       d="m 796.80372,1.8471814 c 0.0389,0 0.0322,-0.00938 0.0322,-0.045551 v -0.064307 c 0,-0.037513 -0.008,-0.030814 -0.0429,-0.030814 h -0.0938 c -0.0389,0 -0.0375,-0.00134 -0.0375,-0.038852 V 1.0138641 c 0,-0.0348332 -0.003,-0.0375127 0.0335,-0.0375127 0.12727,0 0.17684,0.0401922 0.18622,0.1875634 0.003,0.040192 -0.0107,0.060288 0.0375,0.060288 h 0.0643 c 0.0442,0 0.0335,-0.017417 0.0335,-0.057609 V 0.87453127 c 0,-0.0401921 -0.0121,-0.0321537 -0.0496,-0.0321537 h -0.86548 c -0.0388,0 -0.0429,-0.002679 -0.0429,0.0375127 V 1.1692737 c 0,0.041532 -0.009,0.054929 0.0348,0.054929 h 0.0589 c 0.0496,0 0.0389,-0.014737 0.0415,-0.057609 0.009,-0.1500507 0.0576,-0.1902429 0.18622,-0.1902429 0.0375,0 0.0335,0.0133974 0.0335,0.0495703 v 0.6283374 c 0,0.044211 0.007,0.05225 -0.0389,0.05225 h -0.0911 c -0.0442,0 -0.0442,0 -0.0442,0.044211 v 0.058949 c 0,0.041532 0.004,0.037513 0.0442,0.037513 z" />
    <path
       id="path4789"
       style="font-style:normal;font-size:1.33973849px;fill:#0b1c08;fill-opacity:1"
       d="m 797.24767,2.2022121 c 0.0777,0 0.21972,-0.042872 0.28939,-0.2183774 l 0.27196,-0.6832666 c 0.0121,-0.030814 0.0107,-0.036173 0.0563,-0.036173 h 0.0295 c 0.0362,0 0.0322,-0.00402 0.0322,-0.038852 v -0.036173 c 0,-0.036173 0.003,-0.038852 -0.0348,-0.038852 h -0.24116 c -0.0348,0 -0.0523,-0.00938 -0.0523,0.028134 v 0.046891 c 0,0.032154 -0.005,0.038852 0.0281,0.038852 h 0.0295 c 0.0469,0 0.0389,0.00402 0.0268,0.036173 l -0.0804,0.2063197 c -0.0134,0.032154 -0.0241,0.065647 -0.0348,0.1018202 -0.0188,0.062968 -0.0174,0.054929 -0.0375,-0.00268 -0.0107,-0.033494 -0.0228,-0.064308 -0.0362,-0.093782 l -0.0938,-0.2089992 c -0.0121,-0.025455 -0.0295,-0.038852 0.0147,-0.038852 h 0.0429 c 0.0362,0 0.0308,-0.0067 0.0308,-0.041532 v -0.037513 c 0,-0.041532 -0.0107,-0.034833 -0.0496,-0.034833 h -0.33762 c -0.0335,0 -0.0563,-0.010718 -0.0563,0.026795 v 0.040192 c 0,0.036173 -0.007,0.046891 0.0322,0.046891 h 0.0402 c 0.0362,0 0.0348,0.016077 0.0456,0.038852 l 0.26393,0.5600107 c 0.0121,0.025455 0.0214,0.037513 0.0107,0.064307 -0.063,0.1607686 -0.138,0.1674673 -0.19025,0.1674673 -0.0442,0 -0.0603,-0.021436 -0.0603,-0.038852 0,-0.021436 0.1045,-0.014737 0.1045,-0.1192367 0,-0.054929 -0.0335,-0.112538 -0.12727,-0.112538 -0.0951,0 -0.14201,0.079045 -0.14201,0.1674673 0,0.089763 0.0683,0.2103389 0.22507,0.2103389 z" />
    <path
       id="path4791"
       style="font-style:normal;font-size:1.33973849px;fill:#0b1c08;fill-opacity:1"
       d="m 798.04262,1.2643952 c 0.0415,0 0.0429,-0.00134 0.0429,0.040192 v 0.7154204 c 0,0.041532 0.005,0.048231 -0.0375,0.048231 h -0.0322 c -0.0429,0 -0.0509,-0.00536 -0.0509,0.038852 v 0.036173 c 0,0.044211 0.007,0.038852 0.0496,0.038852 h 0.37513 c 0.0429,0 0.0442,0 0.0442,-0.042872 v -0.029474 c 0,-0.044211 -0.004,-0.041532 -0.0469,-0.041532 h -0.0362 c -0.0469,0 -0.0375,-0.014737 -0.0375,-0.058949 V 1.7976111 c 0,-0.089762 0.0174,-0.021436 0.0482,0.012058 0.0375,0.040192 0.0898,0.064307 0.16077,0.064307 0.17282,0 0.31082,-0.1339739 0.31082,-0.3751268 0,-0.2411529 -0.1246,-0.373787 -0.29743,-0.373787 -0.0831,0 -0.14067,0.042872 -0.1822,0.096461 -0.0281,0.036173 -0.0402,0.045551 -0.0402,-0.00804 v -0.037513 c 0,-0.030814 -0.008,-0.025455 -0.0362,-0.025455 h -0.26794 c -0.0389,0 -0.0442,-0.00402 -0.0442,0.034833 v 0.025455 c 0,0.041532 -0.008,0.05359 0.0362,0.05359 z m 0.27063,0.2344542 c 0,-0.1259354 0.0496,-0.2384734 0.14469,-0.2384734 0.0857,0 0.13397,0.112538 0.13397,0.2384734 0,0.1259354 -0.0482,0.2384735 -0.13397,0.2384735 -0.0951,0 -0.14469,-0.1125381 -0.14469,-0.2384735 z" />
    <path
       id="path4793"
       style="font-style:normal;font-size:1.33973849px;fill:#0b1c08;fill-opacity:1"
       d="m 799.58667,1.5176057 c 0.0429,0 0.0576,-0.00134 0.0536,-0.057609 -0.009,-0.1607686 -0.071,-0.3362744 -0.33226,-0.3362744 -0.24249,0 -0.38182,0.174166 -0.38182,0.3885242 0,0.1875634 0.12995,0.3617294 0.37244,0.3617294 0.15809,0 0.26795,-0.092442 0.31484,-0.2156979 0.0134,-0.033494 0.008,-0.042872 -0.0268,-0.042872 h -0.0509 c -0.0482,0 -0.0415,0.016077 -0.0589,0.044211 -0.0389,0.062968 -0.10316,0.095121 -0.16211,0.095121 -0.0978,0 -0.13397,-0.073686 -0.14335,-0.1902429 -0.004,-0.046891 -0.001,-0.046891 0.0482,-0.046891 z m -0.17819,-0.1621083 c 0.007,0.05225 0,0.05091 -0.0549,0.05091 h -0.11789 c -0.063,0 -0.067,-0.00268 -0.0536,-0.056269 0.0174,-0.072346 0.0563,-0.1205764 0.12459,-0.1205764 0.067,0 0.0924,0.053589 0.10182,0.1259354 z" />
    <path
       id="path4795"
       style="font-style:normal;font-size:1.33973849px;fill:#0b1c08;fill-opacity:1"
       d="m 800.23799,0.98305009 c 0.0509,0 0.0482,0.002679 0.0482,0.0522498 v 0.6269976 c 0,0.041532 -0.0161,0.044211 -0.067,0.044211 h -0.0429 c -0.0429,0 -0.0375,0.00804 -0.0375,0.04957 v 0.053589 c 0,0.042872 0.007,0.037513 0.0482,0.037513 h 0.46355 c 0.0415,0 0.0442,0.00134 0.0442,-0.040192 v -0.064307 c 0,-0.045551 -0.0147,-0.036173 -0.0576,-0.036173 h -0.075 c -0.0402,0 -0.0281,-0.026795 -0.0281,-0.062968 V 1.4318625 c 0,-0.037513 0.0389,-0.025455 0.0657,-0.018756 0.063,0.014737 0.10852,0.057609 0.12326,0.1152176 0.008,0.030814 -0.003,0.040192 0.0375,0.040192 h 0.0429 c 0.0348,0 0.0255,-0.017417 0.0255,-0.048231 V 1.1746327 c 0,-0.037513 0.003,-0.041532 -0.0362,-0.041532 h -0.0214 c -0.0563,0 -0.0375,0.017417 -0.0536,0.057609 -0.0241,0.058948 -0.0844,0.096461 -0.16345,0.096461 -0.0201,0 -0.0201,-0.013397 -0.0201,-0.037513 V 1.0567357 c 0,-0.0656472 -0.007,-0.0736856 0.0603,-0.0736856 h 0.16747 c 0.13531,0 0.1755,0.0522498 0.18488,0.16746731 0.004,0.044211 -0.008,0.060288 0.0442,0.060288 h 0.0429 c 0.063,0 0.0496,-0.020096 0.0496,-0.079044 V 0.89060813 c 0,-0.0576088 -0.0121,-0.0482306 -0.0656,-0.0482306 h -0.81188 c -0.0616,0 -0.067,-0.004019 -0.067,0.0589485 v 0.0294742 c 0,0.0482306 -0.004,0.0522498 0.0455,0.0522498 z" />
    <path
       id="path4797"
       style="font-style:normal;font-size:1.33973849px;fill:#0b1c08;fill-opacity:1"
       d="m 801.69833,1.5176057 c 0.0429,0 0.0576,-0.00134 0.0536,-0.057609 -0.009,-0.1607686 -0.071,-0.3362744 -0.33226,-0.3362744 -0.24249,0 -0.38183,0.174166 -0.38183,0.3885242 0,0.1875634 0.12996,0.3617294 0.37245,0.3617294 0.15809,0 0.26795,-0.092442 0.31484,-0.2156979 0.0134,-0.033494 0.008,-0.042872 -0.0268,-0.042872 h -0.0509 c -0.0482,0 -0.0415,0.016077 -0.0589,0.044211 -0.0389,0.062968 -0.10316,0.095121 -0.16211,0.095121 -0.0978,0 -0.13397,-0.073686 -0.14335,-0.1902429 -0.004,-0.046891 -0.001,-0.046891 0.0482,-0.046891 z m -0.17819,-0.1621083 c 0.007,0.05225 0,0.05091 -0.0549,0.05091 h -0.1179 c -0.063,0 -0.067,-0.00268 -0.0536,-0.056269 0.0174,-0.072346 0.0563,-0.1205764 0.1246,-0.1205764 0.067,0 0.0924,0.053589 0.10182,0.1259354 z" />
    <path
       id="path4799"
       style="font-style:normal;font-size:1.33973849px;fill:#0b1c08;fill-opacity:1"
       d="m 802.11415,1.3461192 c 0,-0.064307 -0.0295,-0.076365 -0.0295,-0.093782 0,-0.017417 0.0429,-0.026795 0.075,-0.026795 0.067,0 0.1112,0.046891 0.1112,0.1366533 v 0.04957 c 0,0.042872 -0.001,0.041532 -0.0429,0.041532 -0.28403,0 -0.40059,0.096461 -0.40059,0.2223966 0,0.1259354 0.0884,0.1915826 0.24786,0.1915826 0.079,0 0.14201,-0.020096 0.18756,-0.060288 0.0335,-0.029474 0.0308,-0.028134 0.0509,-0.00268 0.0322,0.038852 0.0924,0.062968 0.15809,0.062968 0.0978,0 0.15407,-0.022776 0.19694,-0.1098586 0.0161,-0.032154 0.0201,-0.040192 -0.0107,-0.057609 l -0.0201,-0.010718 c -0.0322,-0.017417 -0.0322,-0.020096 -0.0496,0.012058 -0.0107,0.021436 -0.0228,0.036173 -0.0415,0.036173 -0.0322,0 -0.0482,-0.032154 -0.0482,-0.058948 V 1.3755935 c 0,-0.1889032 -0.1045,-0.2451722 -0.30546,-0.2451722 -0.1755,0 -0.32555,0.087083 -0.32555,0.2036403 0,0.072346 0.0442,0.1111983 0.11923,0.1111983 0.0724,0 0.12728,-0.040192 0.12728,-0.099141 z m 0.12459,0.1942621 c 0.0241,-0.00134 0.0322,-0.00402 0.0322,0.021436 v 0.025455 c 0,0.095121 -0.0509,0.15407 -0.11522,0.15407 -0.0469,0 -0.0777,-0.033494 -0.0777,-0.083064 0,-0.048231 0.0322,-0.112538 0.16077,-0.117897 z" />
    <path
       id="path4801"
       style="font-style:normal;font-size:1.33973849px;fill:#0b1c08;fill-opacity:1"
       d="m 803.19142,1.7386626 c 0.0174,-0.034833 0.0121,-0.034833 -0.0187,-0.05225 l -0.0281,-0.016077 c -0.0295,-0.016077 -0.0241,-0.00402 -0.0429,0.020096 -0.0188,0.024115 -0.0429,0.042872 -0.0616,0.042872 -0.0322,0 -0.0482,-0.025455 -0.0482,-0.05225 V 1.3019079 c 0,-0.029474 0.005,-0.037513 0.0455,-0.037513 h 0.0831 c 0.0469,0 0.0415,-0.0067 0.0415,-0.05091 v -0.030814 c 0,-0.036173 -0.004,-0.032154 -0.0389,-0.032154 h -0.0871 c -0.0415,0 -0.0442,0.00134 -0.0442,-0.040192 V 0.94955663 c 0,-0.0361729 0.003,-0.0401922 -0.0348,-0.0401922 h -0.0348 c -0.0389,0 -0.0322,0.0133974 -0.0389,0.0428716 -0.0389,0.17148649 -0.11388,0.19560179 -0.20498,0.19828129 -0.0335,0.00134 -0.0389,-0.00402 -0.0389,0.032154 v 0.045551 c 0,0.034833 -0.001,0.036173 0.0335,0.036173 h 0.0496 c 0.0362,0 0.0415,-0.00402 0.0415,0.032154 v 0.4086202 c 0,0.1192368 0.0978,0.1647879 0.20096,0.1647879 0.12995,0 0.19158,-0.062968 0.22641,-0.1312944 z" />
    <path
       id="path4803"
       style="font-style:normal;font-size:1.33973849px;fill:#0b1c08;fill-opacity:1"
       d="m 803.84825,1.5296634 c 0,0.1379931 -0.0563,0.2143582 -0.14737,0.2143582 -0.0683,0 -0.0871,-0.034833 -0.0871,-0.1205765 V 1.1960685 c 0,-0.056269 -0.0147,-0.045551 -0.067,-0.045551 h -0.22508 c -0.0509,0 -0.0563,-0.00402 -0.0563,0.048231 v 0.029474 c 0,0.033494 -0.003,0.036173 0.0322,0.036173 h 0.0482 c 0.0388,0 0.0402,0 0.0402,0.038852 v 0.3416333 c 0,0.143352 0.0603,0.2290953 0.21704,0.2290953 0.10852,0 0.18086,-0.037513 0.22106,-0.099141 0.0187,-0.028134 0.0375,-0.068327 0.0375,-0.00536 v 0.034833 c 0,0.05091 0.0121,0.042872 0.0603,0.042872 h 0.23311 c 0.0389,0 0.0415,0.00268 0.0415,-0.037513 v -0.037513 c 0,-0.041532 -0.004,-0.038852 -0.0442,-0.038852 h -0.0348 c -0.0509,0 -0.0415,-0.013397 -0.0415,-0.060288 V 1.2014275 c 0,-0.061628 -0.0134,-0.05091 -0.071,-0.05091 h -0.20766 c -0.0375,0 -0.0429,0 -0.0429,0.037513 v 0.021436 c 0,0.045551 0,0.054929 0.0362,0.054929 h 0.0134 c 0.0456,0 0.0442,0.00134 0.0442,0.046891 z" />
    <path
       id="path4805"
       style="font-style:normal;font-size:1.33973849px;fill:#0b1c08;fill-opacity:1"
       d="m 804.63786,1.8471814 c 0.0509,0 0.0536,0.00134 0.0536,-0.04957 v -0.026795 c 0,-0.036173 0.001,-0.037513 -0.0348,-0.037513 h -0.0268 c -0.0683,0 -0.0589,-0.012058 -0.0589,-0.077705 V 1.4948302 c 0,-0.1379931 0.0965,-0.2585695 0.13398,-0.2585695 0.0147,0 0.0201,0.0067 0.0201,0.013397 0,0.016077 -0.0268,0.024115 -0.0268,0.087083 0,0.054929 0.0496,0.095121 0.12191,0.095121 0.0871,0 0.13666,-0.058949 0.13666,-0.1286149 0,-0.1044996 -0.0657,-0.179525 -0.19159,-0.179525 -0.071,0 -0.13129,0.030814 -0.15675,0.075025 -0.0241,0.042872 -0.0375,0.088423 -0.0375,-0.0067 0,-0.044211 -0.003,-0.041532 -0.0456,-0.041532 h -0.25991 c -0.0375,0 -0.0429,0.00402 -0.0429,0.033494 v 0.032154 c 0,0.046891 -0.001,0.048231 0.0456,0.048231 h 0.0295 c 0.0389,0 0.0456,-0.00536 0.0456,0.034833 v 0.3751268 c 0,0.041532 0.0107,0.058948 -0.0348,0.058948 h -0.0429 c -0.0415,0 -0.0429,-0.00134 -0.0429,0.040192 v 0.034833 c 0,0.042872 0.004,0.038852 0.0456,0.038852 z" />
    <path
       id="path4807"
       style="font-style:normal;font-size:1.33973849px;fill:#0b1c08;fill-opacity:1"
       d="m 805.65736,1.5176057 c 0.0429,0 0.0576,-0.00134 0.0536,-0.057609 -0.009,-0.1607686 -0.071,-0.3362744 -0.33226,-0.3362744 -0.24249,0 -0.38182,0.174166 -0.38182,0.3885242 0,0.1875634 0.12995,0.3617294 0.37244,0.3617294 0.15809,0 0.26795,-0.092442 0.31484,-0.2156979 0.0134,-0.033494 0.008,-0.042872 -0.0268,-0.042872 h -0.0509 c -0.0482,0 -0.0415,0.016077 -0.0589,0.044211 -0.0389,0.062968 -0.10316,0.095121 -0.16211,0.095121 -0.0978,0 -0.13397,-0.073686 -0.14335,-0.1902429 -0.004,-0.046891 -0.001,-0.046891 0.0482,-0.046891 z m -0.17819,-0.1621083 c 0.007,0.05225 0,0.05091 -0.0549,0.05091 h -0.11789 c -0.063,0 -0.067,-0.00268 -0.0536,-0.056269 0.0174,-0.072346 0.0563,-0.1205764 0.12459,-0.1205764 0.067,0 0.0924,0.053589 0.10182,0.1259354 z" />
    <path
       id="path4809"
       style="font-style:normal;font-size:1.33973849px;fill:#0b1c08;fill-opacity:1"
       d="m 806.29424,1.3447795 c 0.0161,0.033493 0.003,0.060288 0.0549,0.060288 h 0.0415 c 0.0402,0 0.0348,-0.0067 0.0348,-0.045551 v -0.174166 c 0,-0.038852 0.007,-0.048231 -0.0348,-0.048231 h -0.0241 c -0.0469,0 -0.0509,0.00402 -0.067,0.032154 -0.0281,0.046891 -0.0268,0.017417 -0.067,-0.00804 -0.0362,-0.022776 -0.0871,-0.040192 -0.15541,-0.040192 -0.12728,0 -0.26125,0.071006 -0.26125,0.2103389 0,0.2759861 0.41532,0.2009608 0.41532,0.3577102 0,0.054929 -0.0456,0.071006 -0.12594,0.071006 -0.0723,0 -0.14871,-0.054929 -0.18488,-0.143352 -0.0107,-0.024115 -0.004,-0.041532 -0.0402,-0.041532 h -0.0482 c -0.0322,0 -0.0389,-0.00402 -0.0389,0.029474 v 0.2116787 c 0,0.034833 -0.007,0.044211 0.0308,0.044211 h 0.0415 c 0.0429,0 0.0442,-0.013397 0.063,-0.038852 0.0187,-0.026795 0.0187,-0.018756 0.0455,-0.00134 0.0482,0.030814 0.1112,0.056269 0.18488,0.056269 0.15675,0 0.29073,-0.060288 0.29073,-0.2264158 0,-0.2786656 -0.42202,-0.2130185 -0.42202,-0.3603897 0,-0.036173 0.0469,-0.053589 0.1045,-0.053589 0.0563,0 0.12861,0.037513 0.16211,0.1085188 z" />
    <path
       id="path4811"
       style="font-style:normal;font-size:1.33973849px;fill:#0b1c08;fill-opacity:1"
       d="m 806.93876,1.3447795 c 0,0.2853643 0.18354,0.5291967 0.53589,0.5291967 0.33896,0 0.5359,-0.2438324 0.5359,-0.5291967 0,-0.2853643 -0.18355,-0.52919672 -0.5359,-0.52919672 -0.35235,0 -0.53589,0.24383242 -0.53589,0.52919672 z m 0.28134,0 c 0,-0.2438324 0.075,-0.39522287 0.25455,-0.39522287 0.17953,0 0.25455,0.15139047 0.25455,0.39522287 0,0.2438324 -0.0616,0.3952228 -0.25455,0.3952228 -0.17952,0 -0.25455,-0.1513904 -0.25455,-0.3952228 z" />
    <path
       id="path4813"
       style="font-style:normal;font-size:1.33973849px;fill:#0b1c08;fill-opacity:1"
       d="m 808.21904,1.6756949 c 0,0.048231 0.007,0.057609 -0.0429,0.057609 h -0.0402 c -0.0389,0 -0.0375,0.00134 -0.0375,0.038852 v 0.029474 c 0,0.045551 0,0.045551 0.0455,0.045551 h 0.34297 c 0.0482,0 0.0536,0.00402 0.0536,-0.045551 v -0.034833 c 0,-0.036173 -0.003,-0.033494 -0.0375,-0.033494 h -0.0188 c -0.0482,0 -0.0375,-0.016077 -0.0375,-0.060288 v -0.20498 c 0,-0.137993 0.0563,-0.2143581 0.14737,-0.2143581 0.0683,0 0.0871,0.034833 0.0871,0.1205764 v 0.2826849 c 0,0.048231 0.0147,0.076365 -0.0389,0.076365 h -0.0214 c -0.0362,0 -0.0335,0.00402 -0.0335,0.038852 v 0.029474 c 0,0.05091 0.007,0.045551 0.0549,0.045551 h 0.34029 c 0.0429,0 0.0469,0.00402 0.0469,-0.040192 v -0.034833 c 0,-0.044211 -0.007,-0.038852 -0.0496,-0.038852 h -0.0241 c -0.0509,0 -0.0469,-0.00536 -0.0469,-0.054929 V 1.3528179 c 0,-0.143352 -0.0603,-0.2290953 -0.21704,-0.2290953 -0.1045,0 -0.17283,0.037513 -0.21838,0.091102 -0.0241,0.028135 -0.0402,0.065647 -0.0402,0.010718 v -0.037513 c 0,-0.046891 -0.0147,-0.037513 -0.0589,-0.037513 h -0.23311 c -0.0362,0 -0.0429,-0.00536 -0.0429,0.032154 v 0.045551 c 0,0.038852 0.003,0.036173 0.0402,0.036173 h 0.0402 c 0.0429,0 0.0402,0.00268 0.0402,0.044211 z" />
  </g>
</svg>
