<?xml version="1.0" encoding="UTF-8" standalone="no"?>
<svg
   xmlns:dc="http://purl.org/dc/elements/1.1/"
   xmlns:cc="http://creativecommons.org/ns#"
   xmlns:rdf="http://www.w3.org/1999/02/22-rdf-syntax-ns#"
   xmlns:svg="http://www.w3.org/2000/svg"
   xmlns="http://www.w3.org/2000/svg"
   xmlns:sodipodi="http://sodipodi.sourceforge.net/DTD/sodipodi-0.dtd"
   xmlns:inkscape="http://www.inkscape.org/namespaces/inkscape"
   viewBox="0 0 1500 600"
   height="640"
   width="1600"
   version="1.1"
   id="svg2"
   sodipodi:docname="0f.svg"
   inkscape:version="0.92.3 (unknown)">
  <sodipodi:namedview
     pagecolor="#ffffff"
     bordercolor="#666666"
     borderopacity="1"
     objecttolerance="10"
     gridtolerance="10"
     guidetolerance="10"
     inkscape:pageopacity="0"
     inkscape:pageshadow="2"
     inkscape:window-width="1366"
     inkscape:window-height="716"
     id="namedview28"
     showgrid="false"
     inkscape:zoom="0.6325"
     inkscape:cx="849.29505"
     inkscape:cy="349.15294"
     inkscape:window-x="0"
     inkscape:window-y="24"
     inkscape:window-maximized="1"
     inkscape:current-layer="flowRoot3648" />
  <metadata
     id="metadata8">
    <rdf:RDF>
      <cc:Work
         rdf:about="">
        <dc:format>image/svg+xml</dc:format>
        <dc:type
           rdf:resource="http://purl.org/dc/dcmitype/StillImage" />
        <dc:title />
      </cc:Work>
    </rdf:RDF>
  </metadata>
  <defs
     id="defs6" />
  <path
     id="rect3354"
     d="M -4.5456862,-3.5048697 H 1521.2898 V 611.67805 H -4.5456862 Z"
     style="fill:#214478" />
  <g
     id="flowRoot3648"
     style="font-style:normal;font-variant:normal;font-weight:normal;font-stretch:normal;font-size:85.44568634px;line-height:0.01%;font-family:'Besley*';-inkscape-font-specification:'Besley*';text-align:center;letter-spacing:0px;word-spacing:0px;text-anchor:middle;fill:#dbdee3;fill-opacity:1;stroke:none;stroke-width:1px;stroke-linecap:butt;stroke-linejoin:miter;stroke-opacity:1"
     transform="matrix(3.0542432,0,0,3.0542432,697.04329,-122.08135)"
     aria-label="Bodoni*">
    <path
       id="path21"
       style="font-style:normal;font-variant:normal;font-weight:normal;font-stretch:normal;font-size:85.44568634px;line-height:1.25;font-family:'Besley*';-inkscape-font-specification:'Besley*';text-align:center;text-anchor:middle;fill:#dbdee3"
       d="m -114.67509,100.23739 c 3.64568,0 6.69324,-1.082313 9.14269,-3.24694 2.44944,-2.221588 3.67416,-5.696379 3.67416,-10.424374 0,-4.784959 -1.2532,-8.459123 -3.75961,-11.022494 -2.50641,-2.620334 -5.52549,-4.544401 -9.05724,-4.544401 v -1.095014 c 6.72173,0 11.9624,1.310167 15.722005,3.930502 3.759611,2.56337 5.639416,6.522353 5.639416,11.87695 0,10.538301 -7.120471,15.193551 -21.361421,15.193551 z m -17.08914,-30.333223 h 8.11734 v 64.084263 h -8.11734 z m -7.69011,0 h 7.69011 v 1.095014 h -7.69011 z m 0,62.989253 h 7.69011 v 1.09501 h -7.69011 z m 15.38022,-32.65603 h 11.10794 v 1.09501 h -11.10794 z m 0,-30.333223 h 9.39903 v 1.095014 h -9.39903 z m 0,62.989253 h 10.25349 l 0.85445,1.09501 h -11.10794 z m 10.25349,0 c 3.81657,0 7.03503,-2.09496 9.65536,-5.05708 2.6773,-2.96211 4.01595,-6.89261 4.01595,-11.7915 0,-4.78496 -1.28169,-8.31672 -3.84506,-10.59527 -2.56337,-2.33551 -5.83879,-4.11717 -9.82625,-4.11717 l 0.85445,-0.66779 c 6.55084,0 11.87696,1.2532 15.978346,3.75961 4.158357,2.50641 6.237535,6.37995 6.237535,11.62062 0,11.96239 -7.405294,17.94359 -22.215881,17.94359 z"
       inkscape:connector-curvature="0"
       sodipodi:nodetypes="ccsccccsccccccccccccccccccccccccccccccccccsccccscc" />
    <path
       id="path23"
       style="font-style:normal;font-variant:normal;font-weight:normal;font-stretch:normal;font-size:85.44568634px;line-height:1.25;font-family:'Besley*';-inkscape-font-specification:'Besley*';text-align:center;text-anchor:middle;fill:#dbdee3"
       d="m -62.218114,94.923973 c -7.06351,0 -10.595265,6.879917 -10.595265,19.411947 0,12.53203 3.531755,19.41195 10.595265,19.41195 7.06351,0 10.595265,-6.87992 10.595265,-19.41195 0,-12.53203 -3.531755,-19.411947 -10.595265,-19.411947 z m -14.183984,34.023167 c -3.588719,-3.98747 -5.383078,-8.85787 -5.383078,-14.61122 0,-5.75334 1.794359,-10.59526 5.383078,-14.525763 3.588719,-3.987465 8.316714,-5.981198 14.183984,-5.981198 5.867271,0 10.595265,1.993733 14.183984,5.981198 3.588719,3.930503 5.383078,8.772423 5.383078,14.525763 0,5.75335 -1.794359,10.62375 -5.383078,14.61122 -3.588719,3.9305 -8.316713,5.89575 -14.183984,5.89575 -5.86727,0 -10.595265,-1.96525 -14.183984,-5.89575 z"
       inkscape:connector-curvature="0"
       sodipodi:nodetypes="ssssscscscscsc" />
    <path
       id="path25"
       style="font-style:normal;font-variant:normal;font-weight:normal;font-stretch:normal;font-size:85.44568634px;line-height:1.25;font-family:'Besley*';-inkscape-font-specification:'Besley*';text-align:center;text-anchor:middle;fill:#dbdee3"
       d="m -6.6931028,128.62113 c 2.1646241,-3.18997 3.2469361,-8.36097 3.2469361,-14.28521 0,-5.92423 -1.082312,-11.06675 -3.2469361,-14.19976 -2.1646241,-3.133009 -4.9558502,-4.699513 -8.3736772,-4.699513 -3.531755,0 -6.237535,2.208888 -8.11734,5.398863 -1.822841,3.18997 -2.734262,7.6901 -2.734262,13.50041 0,5.81031 0.911421,10.33893 2.734262,13.58587 1.879805,3.18997 4.585585,5.39886 8.11734,5.39886 3.417827,0 6.2090531,-1.56651 8.3736772,-4.69952 z m 0.7690112,-29.409093 c 2.5064068,3.531753 3.7596102,8.573053 3.7596102,15.123883 0,6.55084 -1.2532034,11.62062 -3.7596102,15.20934 -2.5064068,3.53175 -6.1236074,5.29763 -10.8516024,5.29763 -4.898886,0 -9.142688,-1.87981 -12.731407,-5.63942 -3.588719,-3.75961 -5.383078,-8.71546 -5.383078,-14.86755 0,-6.15209 1.794359,-11.07945 5.383078,-14.7821 3.588719,-3.75961 7.832521,-5.639415 12.731407,-5.639415 4.727995,0 8.3451956,1.765877 10.8516024,5.297632 z M 10.225143,132.89342 v 1.09501 H 4.2439451 v -1.09501 z M -3.4461667,69.904167 v 1.095014 h -5.981198 v -1.095014 z m 7.6901118,0 V 133.98843 H -3.4461667 V 69.904167 Z"
       inkscape:connector-curvature="0"
       sodipodi:nodetypes="cssscscscsscssscssccccccccccccccc" />
    <path
       id="path27"
       style="font-style:normal;font-variant:normal;font-weight:normal;font-stretch:normal;font-size:85.44568634px;line-height:1.25;font-family:'Besley*';-inkscape-font-specification:'Besley*';text-align:center;text-anchor:middle;fill:#dbdee3"
       d="m 34.90961,94.923973 c -7.06351,0 -10.595265,6.879917 -10.595265,19.411947 0,12.53203 3.531755,19.41195 10.595265,19.41195 7.06351,0 10.595265,-6.87992 10.595265,-19.41195 0,-12.53203 -3.531755,-19.411947 -10.595265,-19.411947 z M 20.725626,128.94714 c -3.588719,-3.98747 -5.383078,-8.85787 -5.383078,-14.61122 0,-5.75334 1.794359,-10.59526 5.383078,-14.525763 3.588719,-3.987465 8.316713,-5.981198 14.183984,-5.981198 5.867271,0 10.595265,1.993733 14.183984,5.981198 3.588719,3.930503 5.383078,8.772423 5.383078,14.525763 0,5.75335 -1.794359,10.62375 -5.383078,14.61122 -3.588719,3.9305 -8.316713,5.89575 -14.183984,5.89575 -5.867271,0 -10.595265,-1.96525 -14.183984,-5.89575 z"
       inkscape:connector-curvature="0"
       sodipodi:nodetypes="ssssscscscscsc" />
    <path
       id="path29"
       style="font-style:normal;font-variant:normal;font-weight:normal;font-stretch:normal;font-size:85.44568634px;line-height:1.25;font-family:'Besley*';-inkscape-font-specification:'Besley*';text-align:center;text-anchor:middle;fill:#dbdee3"
       d="m 98.1848,132.89342 h 5.9812 v 1.09501 h -5.9812 z m -13.67131,0 h 5.981198 v 1.09501 H 84.51349 Z m 5.981198,-25.22226 7.690112,-0.9399 v 27.25717 h -7.690112 z m -18.370823,25.22226 h 5.981198 v 1.09501 H 72.123865 Z M 64.433754,94.683416 h 7.690111 v 39.305014 h -7.690111 z m -5.981198,0 h 5.981198 v 1.095014 h -5.981198 z m 0,38.210004 h 5.981198 v 1.09501 h -5.981198 z m 32.042132,-25.22226 c 0,-7.51922 -2.307034,-11.89273 -6.921101,-11.89273 -2.620334,0 -4.841922,0.968384 -6.664763,2.905153 -1.765877,1.936767 -3.019081,4.857707 -3.75961,7.534997 -0.683566,2.62034 -1.025349,5.52549 -1.025349,8.71546 H 70.84218 c 0,-2.50641 0.199373,-4.22802 0.59812,-6.39264 0.398747,-2.22159 1.082312,-4.47166 2.050696,-6.75021 1.025349,-2.278553 2.591853,-4.686813 4.699513,-5.99698 2.164624,-1.310167 4.784958,-1.965251 7.861003,-1.965251 4.671031,0 7.861004,1.110794 9.569917,3.332382 1.708914,2.221586 2.563371,5.411559 2.563371,9.569919 z"
       inkscape:connector-curvature="0"
       sodipodi:nodetypes="ccccccccccccccccccccccccccccccccccccscccccccsscc" />
    <path
       id="path31"
       style="font-style:normal;font-variant:normal;font-weight:normal;font-stretch:normal;font-size:85.44568634px;line-height:1.25;font-family:'Besley*';-inkscape-font-specification:'Besley*';text-align:center;text-anchor:middle;fill:#dbdee3"
       d="m 114.65046,77.850616 c -0.96839,-1.025349 -1.45258,-2.25007 -1.45258,-3.674165 0,-1.424095 0.48419,-2.620334 1.45258,-3.588719 1.02535,-1.025348 2.25007,-1.538022 3.67416,-1.538022 1.42409,0 2.62033,0.512674 3.58872,1.538022 1.02535,0.968385 1.53802,2.164624 1.53802,3.588719 0,1.424095 -0.51267,2.648816 -1.53802,3.674165 -0.96839,0.968384 -2.16463,1.452576 -3.58872,1.452576 -1.42409,0 -2.64881,-0.484192 -3.67416,-1.452576 z m -5.72486,55.042804 h 5.98119 v 1.09501 h -5.98119 z m 13.67131,0 h 5.98119 v 1.09501 h -5.98119 z M 108.9256,94.683416 h 5.98119 v 1.095014 h -5.98119 z m 5.98119,0 h 7.69012 v 39.305014 h -7.69012 z"
       inkscape:connector-curvature="0"
       sodipodi:nodetypes="cscscscsccccccccccccccccccccc" />
    <path
       id="path33"
       style="font-style:normal;font-variant:normal;font-weight:normal;font-stretch:normal;font-size:85.44568634px;font-family:'Besley*';-inkscape-font-specification:'Besley*';text-align:center;text-anchor:middle;fill:#ff5555"
       d="m 173.14069,84.942608 q -2.47792,1.110794 -7.94645,2.477925 -5.38308,1.367131 -7.77556,2.819707 l -0.85445,-1.452576 q 2.39248,-1.452577 6.32298,-5.383079 3.9305,-4.015947 6.06664,-5.724861 0.51268,-0.341782 1.36713,-0.854456 2.13614,-1.19624 3.84506,-0.769012 1.79436,0.341783 2.73426,1.965251 0.9399,1.623468 0.34178,3.332382 -0.51267,1.708914 -2.64881,2.905153 -0.85446,0.512674 -1.45258,0.683566 z m -32.46936,9.228134 q 2.47792,-1.110794 7.861,-2.477925 5.46853,-1.367131 7.86101,-2.819708 l 0.85445,1.452577 q -2.39248,1.452577 -6.32298,5.468524 -3.9305,3.930502 -6.06664,5.63942 -0.51268,0.34178 -1.36713,0.85445 -2.13615,1.19624 -3.9305,0.85446 -1.70892,-0.42723 -2.64882,-2.0507 -0.9399,-1.623466 -0.42723,-3.332379 0.59812,-1.708914 2.73426,-2.905154 0.85446,-0.512674 1.45258,-0.683565 z m 28.28252,7.177438 q -2.13614,-1.623468 -6.15209,-5.639416 -3.9305,-4.015947 -6.32298,-5.468524 l 0.85446,-1.452576 q 2.39248,1.452576 7.861,2.905153 5.46853,1.367131 7.94645,2.392479 0.51267,0.170892 1.36713,0.683566 2.13614,1.196239 2.64882,2.990599 0.59812,1.708913 -0.34179,3.332379 -0.9399,1.62347 -2.73426,1.96525 -1.70891,0.34179 -3.84505,-0.85445 -0.85446,-0.51268 -1.28169,-0.85446 z M 144.85817,77.76517 q 2.13614,1.623468 6.06664,5.639415 4.01595,4.015948 6.40843,5.468524 l -0.85446,1.452577 q -2.39248,-1.452577 -7.861,-2.819708 -5.46853,-1.452576 -7.94645,-2.477925 -0.51267,-0.170891 -1.36713,-0.683565 -2.13614,-1.19624 -2.73426,-2.905153 -0.51268,-1.79436 0.42722,-3.417828 0.93991,-1.623468 2.64882,-1.965251 1.79436,-0.341782 3.9305,0.854457 0.85446,0.512674 1.28169,0.854457 z m 7.861,28.11163 q 0.34178,-2.64882 1.79436,-8.031894 1.53802,-5.468524 1.53802,-8.288231 h 1.70892 q 0,2.819707 1.45257,8.288231 1.53803,5.383074 1.87981,8.031894 0.0854,0.59812 0.0854,1.53802 0,2.47793 -1.19624,3.84506 -1.19624,1.36713 -3.07604,1.36713 -1.87981,0 -3.07605,-1.36713 -1.19623,-1.36713 -1.19623,-3.84506 0,-0.9399 0.0854,-1.53802 z m 8.37368,-32.640251 q -0.34178,2.648816 -1.87981,8.11734 -1.45257,5.383078 -1.45257,8.202786 h -1.70892 q 0,-2.819708 -1.53802,-8.202786 -1.45258,-5.468524 -1.79436,-8.11734 -0.0854,-0.59812 -0.0854,-1.538023 0,-2.477925 1.19623,-3.845055 1.19624,-1.367131 3.07605,-1.367131 1.8798,0 3.07604,1.367131 1.19624,1.36713 1.19624,3.845055 0,0.939903 -0.0854,1.538023 z" />
  </g>
  <g
     id="flowRoot862"
     style="font-style:normal;font-variant:normal;font-weight:900;font-stretch:normal;font-size:42.72284317px;line-height:20.0000003%;font-family:'Bodoni* 6';-inkscape-font-specification:'Bodoni* 6 Heavy';text-align:center;letter-spacing:0px;word-spacing:0px;text-anchor:middle;fill:#001e48;fill-opacity:1;stroke:none;stroke-width:1px;stroke-linecap:butt;stroke-linejoin:miter;stroke-opacity:1"
     transform="matrix(2.1066013,0,0,2.1066013,714.9922,295.11175)"
     aria-label="* Coming Soon! *">
    <path
       id="path36"
       style="font-style:normal;font-variant:normal;font-weight:900;font-stretch:normal;font-size:42.72284317px;line-height:20.0000003%;font-family:'Bodoni* 6';-inkscape-font-specification:'Bodoni* 6 Heavy';text-align:center;text-anchor:middle;fill:#001e48;fill-opacity:1"
       d="m -157.79112,47.26106 c 0.34178,0.170892 0.72629,0.29906 1.1108,0.341783 0.3845,0.04272 0.98262,0.08545 1.79436,0.170891 0.76901,0.08545 1.62346,0.29906 2.56337,0.726289 v 0.170891 c -0.93991,0.427228 -2.13615,0.726288 -3.63145,0.854457 -0.85445,0.08545 -1.45257,0.213614 -1.83708,0.384505 -1.11079,0.512675 -1.66619,1.324409 -1.66619,2.39248 0,0.512674 0.17089,1.025348 0.5554,1.538022 0.3845,0.512674 0.9399,0.726288 1.62347,0.726288 0.68356,0 1.19624,-0.128168 1.58074,-0.469951 0.34178,-0.29906 0.72629,-0.683565 1.06807,-1.19624 0.34179,-0.469951 0.76901,-0.982625 1.19624,-1.538022 0.42723,-0.555397 1.02535,-1.110794 1.79436,-1.623468 l 0.12817,0.08545 c -0.12817,0.897179 -0.46995,1.922528 -1.02535,3.118767 -0.17089,0.427229 -0.34178,0.811734 -0.51267,1.19624 -0.17089,0.384506 -0.21362,0.854457 -0.21362,1.367131 0,0.555397 0.17089,1.068071 0.5554,1.495299 0.38451,0.469952 0.98263,0.683566 1.83708,0.683566 0.85446,0 1.45258,-0.213614 1.87981,-0.726288 0.3845,-0.512675 0.59812,-1.025349 0.59812,-1.538023 0,-0.512674 -0.0855,-0.982625 -0.25634,-1.367131 -0.17089,-0.341783 -0.42723,-0.939902 -0.76901,-1.751636 -0.38451,-0.769012 -0.64084,-1.623468 -0.72629,-2.477925 l 0.12817,-0.08545 c 0.68357,0.512674 1.28168,1.025348 1.70891,1.580745 0.42723,0.555397 0.85446,1.068071 1.19624,1.538023 0.34179,0.512674 0.72629,0.897179 1.1108,1.238962 0.34178,0.341783 0.85445,0.469951 1.53802,0.469951 0.68356,0.04272 1.23896,-0.213614 1.66619,-0.811734 0.17089,-0.213614 0.29906,-0.469951 0.38451,-0.811734 0.0854,-0.256337 0.17089,-0.598119 0.17089,-0.982625 0,-0.341783 -0.17089,-0.726288 -0.46995,-1.153517 -0.34179,-0.427228 -0.68357,-0.726288 -1.1108,-0.939902 -0.42723,-0.170892 -1.40985,-0.341783 -2.90515,-0.512675 -0.85446,-0.08544 -1.70892,-0.299059 -2.56337,-0.683565 v -0.170891 c 0.85445,-0.384506 2.09342,-0.640843 3.67416,-0.811734 0.76901,-0.04272 1.36713,-0.170892 1.70892,-0.341783 1.11079,-0.512674 1.66619,-1.281685 1.66619,-2.349757 0,-0.512674 -0.17089,-1.068071 -0.5554,-1.580745 -0.17089,-0.213614 -0.42723,-0.384505 -0.76901,-0.555397 -0.29906,-0.170891 -0.68357,-0.256337 -1.15352,-0.256337 -0.51267,0 -0.9399,0.170892 -1.28168,0.512674 -0.38451,0.341783 -0.76901,0.726289 -1.1108,1.19624 -0.34178,0.512674 -0.76901,1.025348 -1.19624,1.580745 -0.42723,0.555397 -1.02534,1.068071 -1.70891,1.538023 l -0.12817,-0.08545 c 0.0855,-0.769011 0.42723,-1.79436 1.02535,-3.076045 0.17089,-0.384505 0.29906,-0.769011 0.46995,-1.153517 0.17089,-0.341782 0.25634,-0.811734 0.25634,-1.367131 0,-0.512674 -0.21362,-1.025348 -0.59812,-1.538022 -0.42723,-0.512674 -1.02535,-0.769011 -1.87981,-0.769011 -0.85445,0 -1.45257,0.256337 -1.83708,0.683565 -0.38451,0.469952 -0.5554,0.982626 -0.5554,1.538023 0,0.555397 0.0427,1.025348 0.21362,1.367131 0.17089,0.384505 0.42723,0.939902 0.81173,1.708913 0.34178,0.769012 0.59812,1.623468 0.72629,2.606094 l -0.12817,0.08545 c -0.76901,-0.512675 -1.36713,-1.025349 -1.79436,-1.580746 -0.46995,-0.555397 -0.89718,-1.068071 -1.23896,-1.580745 -0.34178,-0.469951 -0.72629,-0.854457 -1.06807,-1.196239 -0.38451,-0.29906 -0.89718,-0.469952 -1.53802,-0.469952 -0.68357,0 -1.19624,0.256337 -1.58075,0.726289 -0.42723,0.512674 -0.59812,1.025348 -0.59812,1.538022 0,1.110794 0.5554,1.922528 1.66619,2.392479 z" />
    <path
       id="path38"
       style="font-style:normal;font-variant:normal;font-weight:900;font-stretch:normal;font-size:42.72284317px;line-height:20.0000003%;font-family:'Bodoni* 6';-inkscape-font-specification:'Bodoni* 6 Heavy';text-align:center;text-anchor:middle;fill:#001e48;fill-opacity:1"
       d="m -103.22804,70.075058 1.8798,1.965251 h 1.28169 v -9.270857 h -1.28169 c -0.59812,2.520648 -1.62346,4.528622 -3.16149,6.066644 -1.53802,1.538022 -3.28966,2.264311 -5.29763,2.264311 -4.22956,0 -6.32298,-4.827682 -6.32298,-14.483044 0,-10.424374 2.09342,-15.679284 6.28026,-15.679284 1.83708,0 3.50327,0.811734 4.99857,2.435202 1.45258,1.623468 2.4352,3.716888 2.90515,6.322981 h 1.28169 v -9.868977 h -1.06807 l -1.87981,2.136143 c -1.15351,-0.854457 -2.26431,-1.452577 -3.33238,-1.879805 -1.06807,-0.427229 -2.34975,-0.640843 -3.80233,-0.640843 -4.52862,0 -8.24551,1.666191 -11.19339,4.998573 -2.9906,3.332381 -4.44317,7.22016 -4.44317,11.663336 0,4.485898 1.45257,8.373677 4.40045,11.620613 2.94788,3.246936 6.62204,4.870404 11.06522,4.870404 2.8197,0 5.38308,-0.811734 7.69011,-2.520648 z" />
    <path
       id="path40"
       style="font-style:normal;font-variant:normal;font-weight:900;font-stretch:normal;font-size:42.72284317px;line-height:20.0000003%;font-family:'Bodoni* 6';-inkscape-font-specification:'Bodoni* 6 Heavy';text-align:center;text-anchor:middle;fill:#001e48;fill-opacity:1"
       d="m -82.595577,62.470392 c 0,3.076045 -0.341783,5.425801 -0.939903,7.006547 -0.427228,1.110794 -1.110794,1.623468 -2.050696,1.623468 -0.982626,0 -1.666191,-0.512674 -2.050697,-1.623468 -0.59812,-1.623468 -0.89718,-4.015948 -0.89718,-7.091992 0,-3.076045 0.29906,-5.383079 0.89718,-6.921101 0.341783,-1.110794 1.025348,-1.666191 1.965251,-1.666191 h 0.04272 0.08545 c 1.96525,0 2.947876,2.905154 2.947876,8.672737 z m -14.696658,0 c 0,2.990599 1.025348,5.425801 3.076044,7.305607 2.050697,1.879805 4.913127,2.819707 8.630015,2.819707 3.674164,0 6.579318,-0.939902 8.630014,-2.819707 2.050696,-1.879806 3.118768,-4.315008 3.118768,-7.305607 0,-2.947876 -1.068072,-5.383078 -3.118768,-7.305606 -2.050696,-1.879805 -4.95585,-2.86243 -8.672737,-2.86243 -3.75961,0 -6.622041,0.982625 -8.630014,2.86243 -2.050697,1.922528 -3.033322,4.35773 -3.033322,7.305606 z" />
    <path
       id="path42"
       style="font-style:normal;font-variant:normal;font-weight:900;font-stretch:normal;font-size:42.72284317px;line-height:20.0000003%;font-family:'Bodoni* 6';-inkscape-font-specification:'Bodoni* 6 Heavy';text-align:center;text-anchor:middle;fill:#001e48;fill-opacity:1"
       d="m -72.092433,52.81503 v 1.281685 h 3.46055 v 16.661909 h -3.46055 v 1.281685 h 13.201359 v -1.281685 h -1.708914 v -8.11734 c 0,-5.340356 0.89718,-8.031895 2.734262,-8.031895 1.281685,0 1.922528,0.726289 1.922528,2.136142 v 14.013093 h -1.837082 v 1.281685 h 11.492444 v -1.281685 h -1.623468 v -8.886351 c 0,-4.827682 0.89718,-7.262884 2.691539,-7.262884 1.281686,0 1.922528,0.726289 1.922528,2.136142 v 14.013093 h -1.837082 v 1.281685 h 12.560516 v -1.281685 h -2.691539 V 56.959146 c 0,-3.076045 -2.093419,-4.65679 -6.194812,-4.65679 -3.674165,0 -5.767584,1.367131 -6.322981,4.05867 h -0.170892 c -0.469951,-2.691539 -2.520647,-4.05867 -6.152089,-4.05867 -3.674164,0 -5.767584,1.367131 -6.322981,4.05867 h -0.170891 V 52.81503 Z" />
    <path
       id="path44"
       style="font-style:normal;font-variant:normal;font-weight:900;font-stretch:normal;font-size:42.72284317px;line-height:20.0000003%;font-family:'Bodoni* 6';-inkscape-font-specification:'Bodoni* 6 Heavy';text-align:center;text-anchor:middle;fill:#001e48;fill-opacity:1"
       d="m -31.038455,52.81503 v 1.281685 h 3.46055 v 16.661909 h -3.46055 v 1.281685 h 14.26943 V 70.758624 H -19.54601 V 52.81503 Z m 2.819708,-7.604666 c 0,1.281685 0.427228,2.349756 1.324408,3.204213 0.854457,0.89718 1.922528,1.324408 3.204213,1.324408 1.238962,0 2.307034,-0.427228 3.204213,-1.324408 0.854457,-0.854457 1.324408,-1.922528 1.324408,-3.204213 0,-1.238963 -0.469951,-2.307034 -1.324408,-3.204214 -0.897179,-0.854456 -1.965251,-1.324408 -3.204213,-1.324408 -1.281685,0 -2.349756,0.469952 -3.204213,1.324408 -0.89718,0.89718 -1.324408,1.965251 -1.324408,3.204214 z" />
    <path
       id="path46"
       style="font-style:normal;font-variant:normal;font-weight:900;font-stretch:normal;font-size:42.72284317px;line-height:20.0000003%;font-family:'Bodoni* 6';-inkscape-font-specification:'Bodoni* 6 Heavy';text-align:center;text-anchor:middle;fill:#001e48;fill-opacity:1"
       d="m -15.267718,52.81503 v 1.281685 h 3.46055 v 16.661909 h -3.46055 v 1.281685 h 13.2013582 v -1.281685 h -1.7089137 v -8.11734 c 0,-5.340356 0.9826254,-8.031895 2.9478762,-8.031895 1.28168529,0 1.9225279,0.726289 1.9225279,2.136142 v 14.013093 h -1.83708222 v 1.281685 H 11.818564 V 70.758624 H 9.1270252 V 56.959146 c 0,-3.076045 -2.0934194,-4.65679 -6.1948123,-4.65679 -3.7596102,0 -5.9384752,1.367131 -6.536595,4.05867 H -3.7752735 V 52.81503 Z" />
    <path
       id="path48"
       style="font-style:normal;font-variant:normal;font-weight:900;font-stretch:normal;font-size:42.72284317px;line-height:20.0000003%;font-family:'Bodoni* 6';-inkscape-font-specification:'Bodoni* 6 Heavy';text-align:center;text-anchor:middle;fill:#001e48;fill-opacity:1"
       d="m 24.979868,64.649257 c -1.110794,0 -1.666191,-1.837082 -1.666191,-5.511246 0,-3.674165 0.555397,-5.511247 1.666191,-5.511247 1.110794,0 1.708914,1.837082 1.708914,5.511247 0,3.674164 -0.59812,5.511246 -1.708914,5.511246 z m 0.427229,19.737954 c -4.571345,0 -6.835655,-1.580745 -6.835655,-4.742236 0,-1.495299 0.427228,-2.734262 1.281685,-3.716887 h 12.17601 c 1.79436,0 2.734262,0.854457 2.734262,2.477925 0,4.015947 -3.118767,5.981198 -9.356302,5.981198 z M 18.827779,65.076486 c -3.161491,0.555397 -4.742236,2.221588 -4.742236,5.041295 0,2.819708 1.324408,4.699513 3.973225,5.682138 v 0.170892 c -2.734262,1.110794 -4.101393,2.520648 -4.101393,4.229561 0,3.802333 3.545996,5.682138 10.637988,5.682138 8.373677,0 12.560515,-2.947876 12.560515,-8.843628 0,-5.468524 -3.076044,-8.202786 -9.185411,-8.202786 h -9.057243 c -1.538022,0 -2.26431,-0.128169 -2.26431,-0.469951 0,-1.452577 1.495299,-2.178865 4.571344,-2.178865 h 3.716887 c 6.579318,0 9.868977,-2.307034 9.868977,-6.921101 0,-0.939902 -0.213614,-1.879805 -0.640843,-2.819708 0.08545,-0.854456 0.341783,-1.324408 0.854457,-1.324408 0.341783,0 0.683566,0.256337 1.068071,0.683566 0.341783,0.469951 0.854457,0.683565 1.452577,0.683565 1.19624,0 1.837082,-0.59812 1.837082,-1.794359 0,-1.623468 -0.939902,-2.477925 -2.734262,-2.477925 -1.538022,0 -2.691539,0.982625 -3.375104,2.86243 -1.708914,-1.837082 -4.485899,-2.776984 -8.330955,-2.776984 -6.493872,0 -9.740808,2.349756 -9.740808,6.963823 0,2.648816 1.19624,4.571344 3.631442,5.810307 z" />
    <path
       id="path50"
       style="font-style:normal;font-variant:normal;font-weight:900;font-stretch:normal;font-size:42.72284317px;line-height:20.0000003%;font-family:'Bodoni* 6';-inkscape-font-specification:'Bodoni* 6 Heavy';text-align:center;text-anchor:middle;fill:#001e48;fill-opacity:1"
       d="m 56.246317,72.040309 2.007973,-2.050696 c 1.025348,0.769011 2.178865,1.409854 3.417828,1.879805 1.238962,0.512674 2.734262,0.726288 4.528621,0.726288 3.417828,0 6.023921,-0.939902 7.81828,-2.819707 1.79436,-1.879806 2.691539,-4.485899 2.691539,-7.861004 0,-6.493872 -3.332381,-10.552542 -9.997145,-12.17601 -5.425801,-1.281685 -8.11734,-2.776985 -8.11734,-4.485898 0,-1.153517 0.640843,-2.178865 1.922528,-3.033322 1.281685,-0.854457 2.86243,-1.281686 4.742236,-1.281686 2.050696,0 3.75961,0.59812 5.126741,1.751637 1.367131,1.19624 2.477925,3.118768 3.332381,5.853029 h 1.281686 v -8.71546 h -1.324408 l -1.666191,1.79436 C 70.857529,40.938079 69.789458,40.382682 68.76411,39.998177 67.738761,39.656394 66.627967,39.44278 65.346282,39.44278 c -2.819707,0 -5.169464,0.811734 -7.006546,2.392479 -2.050697,1.794359 -3.076045,4.186839 -3.033322,7.262883 0,5.85303 3.332382,9.655363 10.039868,11.364277 5.297633,1.367131 7.989172,3.16149 7.989172,5.297632 0,1.367131 -0.640843,2.606094 -1.837082,3.631442 -1.409854,1.153517 -3.289659,1.708914 -5.639416,1.708914 -1.324408,0 -2.520647,-0.213615 -3.631441,-0.683566 -3.076045,-1.196239 -5.041296,-3.631442 -5.938476,-7.348329 h -1.324408 v 8.971797 z" />
    <path
       id="path52"
       style="font-style:normal;font-variant:normal;font-weight:900;font-stretch:normal;font-size:42.72284317px;line-height:20.0000003%;font-family:'Bodoni* 6';-inkscape-font-specification:'Bodoni* 6 Heavy';text-align:center;text-anchor:middle;fill:#001e48;fill-opacity:1"
       d="m 93.302383,62.470392 c 0,3.076045 -0.341782,5.425801 -0.939902,7.006547 -0.427229,1.110794 -1.110794,1.623468 -2.050697,1.623468 -0.982625,0 -1.666191,-0.512674 -2.050696,-1.623468 -0.59812,-1.623468 -0.89718,-4.015948 -0.89718,-7.091992 0,-3.076045 0.29906,-5.383079 0.89718,-6.921101 0.341783,-1.110794 1.025348,-1.666191 1.965251,-1.666191 h 0.04272 0.08545 c 1.965251,0 2.947876,2.905154 2.947876,8.672737 z m -14.696658,0 c 0,2.990599 1.025349,5.425801 3.076045,7.305607 2.050696,1.879805 4.913127,2.819707 8.630014,2.819707 3.674165,0 6.579318,-0.939902 8.630015,-2.819707 2.050701,-1.879806 3.118771,-4.315008 3.118771,-7.305607 0,-2.947876 -1.06807,-5.383078 -3.118771,-7.305606 -2.050697,-1.879805 -4.95585,-2.86243 -8.672738,-2.86243 -3.75961,0 -6.62204,0.982625 -8.630014,2.86243 -2.050696,1.922528 -3.033322,4.35773 -3.033322,7.305606 z" />
    <path
       id="path54"
       style="font-style:normal;font-variant:normal;font-weight:900;font-stretch:normal;font-size:42.72284317px;line-height:20.0000003%;font-family:'Bodoni* 6';-inkscape-font-specification:'Bodoni* 6 Heavy';text-align:center;text-anchor:middle;fill:#001e48;fill-opacity:1"
       d="m 118.50217,62.470392 c 0,3.076045 -0.34179,5.425801 -0.93991,7.006547 -0.42722,1.110794 -1.11079,1.623468 -2.05069,1.623468 -0.98263,0 -1.66619,-0.512674 -2.0507,-1.623468 -0.59812,-1.623468 -0.89718,-4.015948 -0.89718,-7.091992 0,-3.076045 0.29906,-5.383079 0.89718,-6.921101 0.34178,-1.110794 1.02535,-1.666191 1.96525,-1.666191 h 0.0427 0.0854 c 1.96525,0 2.94788,2.905154 2.94788,8.672737 z m -14.69666,0 c 0,2.990599 1.02535,5.425801 3.07604,7.305607 2.0507,1.879805 4.91313,2.819707 8.63002,2.819707 3.67416,0 6.57932,-0.939902 8.63001,-2.819707 2.0507,-1.879806 3.11877,-4.315008 3.11877,-7.305607 0,-2.947876 -1.06807,-5.383078 -3.11877,-7.305606 -2.05069,-1.879805 -4.95585,-2.86243 -8.67274,-2.86243 -3.75961,0 -6.62204,0.982625 -8.63001,2.86243 -2.0507,1.922528 -3.03332,4.35773 -3.03332,7.305606 z" />
    <path
       id="path56"
       style="font-style:normal;font-variant:normal;font-weight:900;font-stretch:normal;font-size:42.72284317px;line-height:20.0000003%;font-family:'Bodoni* 6';-inkscape-font-specification:'Bodoni* 6 Heavy';text-align:center;text-anchor:middle;fill:#001e48;fill-opacity:1"
       d="m 129.00534,52.81503 v 1.281685 h 3.46055 v 16.661909 h -3.46055 v 1.281685 h 13.20136 v -1.281685 h -1.70892 v -8.11734 c 0,-5.340356 0.98263,-8.031895 2.94788,-8.031895 1.28168,0 1.92253,0.726289 1.92253,2.136142 v 14.013093 h -1.83709 v 1.281685 h 12.56052 v -1.281685 h -2.69154 V 56.959146 c 0,-3.076045 -2.09342,-4.65679 -6.19481,-4.65679 -3.75961,0 -5.93848,1.367131 -6.5366,4.05867 h -0.17089 V 52.81503 Z" />
    <path
       id="path58"
       style="font-style:normal;font-variant:normal;font-weight:900;font-stretch:normal;font-size:42.72284317px;line-height:20.0000003%;font-family:'Bodoni* 6';-inkscape-font-specification:'Bodoni* 6 Heavy';text-align:center;text-anchor:middle;fill:#001e48;fill-opacity:1"
       d="m 158.31588,44.911304 c 0,1.367131 0.64084,3.332382 2.00797,5.981198 1.32441,2.648816 2.00797,6.152089 2.00797,10.509819 h 1.58075 c 0,-4.35773 0.64084,-7.81828 2.00797,-10.467096 1.36713,-2.648817 2.0507,-4.614067 2.0507,-5.981198 0,-1.922528 -0.46995,-3.332382 -1.32441,-4.186839 -0.89718,-0.854457 -2.09342,-1.324408 -3.63144,-1.324408 -3.16149,0 -4.69951,1.837082 -4.69951,5.468524 z m 0.34178,23.155781 c 0,1.281685 0.42723,2.349756 1.32441,3.204213 0.85445,0.89718 1.92253,1.324408 3.20421,1.324408 1.23896,0 2.30703,-0.427228 3.20421,-1.324408 0.85446,-0.854457 1.32441,-1.922528 1.32441,-3.204213 0,-1.238963 -0.46995,-2.307034 -1.32441,-3.204213 -0.89718,-0.854457 -1.96525,-1.324409 -3.20421,-1.324409 -1.28168,0 -2.34976,0.469952 -3.20421,1.324409 -0.89718,0.897179 -1.32441,1.96525 -1.32441,3.204213 z" />
    <path
       id="path60"
       style="font-style:normal;font-variant:normal;font-weight:900;font-stretch:normal;font-size:42.72284317px;line-height:20.0000003%;font-family:'Bodoni* 6';-inkscape-font-specification:'Bodoni* 6 Heavy';text-align:center;text-anchor:middle;fill:#001e48;fill-opacity:1"
       d="m 185.07637,47.26106 c 0.34179,0.170892 0.72629,0.29906 1.1108,0.341783 0.3845,0.04272 0.98262,0.08545 1.79436,0.170891 0.76901,0.08545 1.62347,0.29906 2.56337,0.726289 v 0.170891 c -0.9399,0.427228 -2.13614,0.726288 -3.63144,0.854457 -0.85446,0.08545 -1.45258,0.213614 -1.83709,0.384505 -1.11079,0.512675 -1.66619,1.324409 -1.66619,2.39248 0,0.512674 0.1709,1.025348 0.5554,1.538022 0.38451,0.512674 0.9399,0.726288 1.62347,0.726288 0.68356,0 1.19624,-0.128168 1.58074,-0.469951 0.34179,-0.29906 0.72629,-0.683565 1.06808,-1.19624 0.34178,-0.469951 0.76901,-0.982625 1.19623,-1.538022 0.42723,-0.555397 1.02535,-1.110794 1.79436,-1.623468 l 0.12817,0.08545 c -0.12817,0.897179 -0.46995,1.922528 -1.02535,3.118767 -0.17089,0.427229 -0.34178,0.811734 -0.51267,1.19624 -0.17089,0.384506 -0.21361,0.854457 -0.21361,1.367131 0,0.555397 0.17089,1.068071 0.55539,1.495299 0.38451,0.469952 0.98263,0.683566 1.83709,0.683566 0.85445,0 1.45257,-0.213614 1.8798,-0.726288 0.38451,-0.512675 0.59812,-1.025349 0.59812,-1.538023 0,-0.512674 -0.0855,-0.982625 -0.25634,-1.367131 -0.17089,-0.341783 -0.42723,-0.939902 -0.76901,-1.751636 -0.3845,-0.769012 -0.64084,-1.623468 -0.72629,-2.477925 l 0.12817,-0.08545 c 0.68357,0.512674 1.28169,1.025348 1.70892,1.580745 0.42722,0.555397 0.85445,1.068071 1.19624,1.538023 0.34178,0.512674 0.72628,0.897179 1.11079,1.238962 0.34178,0.341783 0.85446,0.469951 1.53802,0.469951 0.68357,0.04272 1.23896,-0.213614 1.66619,-0.811734 0.17089,-0.213614 0.29906,-0.469951 0.38451,-0.811734 0.0854,-0.256337 0.17089,-0.598119 0.17089,-0.982625 0,-0.341783 -0.17089,-0.726288 -0.46995,-1.153517 -0.34178,-0.427228 -0.68357,-0.726288 -1.1108,-0.939902 -0.42722,-0.170892 -1.40985,-0.341783 -2.90515,-0.512675 -0.85446,-0.08544 -1.70891,-0.299059 -2.56337,-0.683565 v -0.170891 c 0.85446,-0.384506 2.09342,-0.640843 3.67417,-0.811734 0.76901,-0.04272 1.36713,-0.170892 1.70891,-0.341783 1.11079,-0.512674 1.66619,-1.281685 1.66619,-2.349757 0,-0.512674 -0.17089,-1.068071 -0.5554,-1.580745 -0.17089,-0.213614 -0.42723,-0.384505 -0.76901,-0.555397 -0.29906,-0.170891 -0.68356,-0.256337 -1.15352,-0.256337 -0.51267,0 -0.9399,0.170892 -1.28168,0.512674 -0.38451,0.341783 -0.76901,0.726289 -1.11079,1.19624 -0.34179,0.512674 -0.76902,1.025348 -1.19624,1.580745 -0.42723,0.555397 -1.02535,1.068071 -1.70892,1.538023 l -0.12817,-0.08545 c 0.0855,-0.769011 0.42723,-1.79436 1.02535,-3.076045 0.17089,-0.384505 0.29906,-0.769011 0.46995,-1.153517 0.17089,-0.341782 0.25634,-0.811734 0.25634,-1.367131 0,-0.512674 -0.21361,-1.025348 -0.59812,-1.538022 -0.42723,-0.512674 -1.02535,-0.769011 -1.8798,-0.769011 -0.85446,0 -1.45258,0.256337 -1.83709,0.683565 -0.3845,0.469952 -0.55539,0.982626 -0.55539,1.538023 0,0.555397 0.0427,1.025348 0.21361,1.367131 0.17089,0.384505 0.42723,0.939902 0.81173,1.708913 0.34179,0.769012 0.59812,1.623468 0.72629,2.606094 l -0.12817,0.08545 c -0.76901,-0.512675 -1.36713,-1.025349 -1.79436,-1.580746 -0.46995,-0.555397 -0.89717,-1.068071 -1.23896,-1.580745 -0.34178,-0.469951 -0.72629,-0.854457 -1.06807,-1.196239 -0.3845,-0.29906 -0.89718,-0.469952 -1.53802,-0.469952 -0.68357,0 -1.19624,0.256337 -1.58075,0.726289 -0.42722,0.512674 -0.59812,1.025348 -0.59812,1.538022 0,1.110794 0.5554,1.922528 1.66619,2.392479 z" />
  </g>
</svg>
